<?xml version="1.0" encoding="UTF-8" standalone="no"?>
<!DOCTYPE svg PUBLIC "-//W3C//DTD SVG 1.1//EN"
 "http://www.w3.org/Graphics/SVG/1.1/DTD/svg11.dtd">
<!-- Generated by graphviz version 2.38.0 (20140413.2041)
 -->
<!-- Title: DocText Pages: 1 -->
<svg width="214pt" height="152pt"
 viewBox="0.00 0.00 213.50 152.00" xmlns="http://www.w3.org/2000/svg" xmlns:xlink="http://www.w3.org/1999/xlink">
<g id="graph0" class="graph" transform="scale(1 1) rotate(0) translate(4 148)">
<title>DocText</title>
<polygon fill="white" stroke="none" points="-4,4 -4,-148 209.5,-148 209.5,4 -4,4"/>
<!-- Node0 -->
<g id="node1" class="node"><title>Node0</title>
<polygon fill="#bfbfbf" stroke="black" points="121.5,-0.5 121.5,-19.5 175.5,-19.5 175.5,-0.5 121.5,-0.5"/>
<text text-anchor="middle" x="148.5" y="-7.5" font-family="Helvetica,sans-Serif" font-size="10.00">DocText</text>
</g>
<!-- Node1 -->
<g id="node2" class="node"><title>Node1</title>
<g id="a_node2"><a xlink:href="../../d7/da3/class_comp_accept.html" target="_top" xlink:title="CompAccept\&lt; DocText \&gt;">
<polygon fill="white" stroke="black" points="0,-57.5 0,-76.5 129,-76.5 129,-57.5 0,-57.5"/>
<text text-anchor="middle" x="64.5" y="-64.5" font-family="Helvetica,sans-Serif" font-size="10.00">CompAccept&lt; DocText &gt;</text>
</a>
</g>
</g>
<!-- Node1&#45;&gt;Node0 -->
<g id="edge1" class="edge"><title>Node1&#45;&gt;Node0</title>
<path fill="none" stroke="midnightblue" d="M86.15,-51.8244C101.758,-41.605 122.31,-28.1483 135.467,-19.5334"/>
<polygon fill="midnightblue" stroke="midnightblue" points="84.0739,-49.0002 77.625,-57.4062 87.9085,-54.8565 84.0739,-49.0002"/>
</g>
<!-- Node2 -->
<g id="node3" class="node"><title>Node2</title>
<g id="a_node3"><a xlink:href="../../d7/da3/class_comp_accept.html" target="_top" xlink:title="Default accept implementation for compound nodes in the abstract syntax tree. ">
<polygon fill="white" stroke="black" points="15.5,-124.5 15.5,-143.5 113.5,-143.5 113.5,-124.5 15.5,-124.5"/>
<text text-anchor="middle" x="64.5" y="-131.5" font-family="Helvetica,sans-Serif" font-size="10.00">CompAccept&lt; T &gt;</text>
</a>
</g>
</g>
<!-- Node2&#45;&gt;Node1 -->
<g id="edge2" class="edge"><title>Node2&#45;&gt;Node1</title>
<path fill="none" stroke="orange" stroke-dasharray="5,2" d="M64.5,-114.037C64.5,-101.67 64.5,-86.1198 64.5,-76.6273"/>
<polygon fill="orange" stroke="orange" points="61.0001,-114.234 64.5,-124.234 68.0001,-114.234 61.0001,-114.234"/>
<text text-anchor="middle" x="94" y="-98" font-family="Helvetica,sans-Serif" font-size="10.00"> &lt; DocText &gt;</text>
</g>
<!-- Node3 -->
<g id="node4" class="node"><title>Node3</title>
<g id="a_node4"><a xlink:href="../../d9/d0e/class_doc_node.html" target="_top" xlink:title="Abstract node interface with type information. ">
<polygon fill="white" stroke="black" points="147.5,-57.5 147.5,-76.5 205.5,-76.5 205.5,-57.5 147.5,-57.5"/>
<text text-anchor="middle" x="176.5" y="-64.5" font-family="Helvetica,sans-Serif" font-size="10.00">DocNode</text>
</a>
</g>
</g>
<!-- Node3&#45;&gt;Node0 -->
<g id="edge3" class="edge"><title>Node3&#45;&gt;Node0</title>
<path fill="none" stroke="midnightblue" d="M167.506,-48.334C162.637,-38.77 156.838,-27.3784 152.937,-19.7149"/>
<polygon fill="midnightblue" stroke="midnightblue" points="164.469,-50.0825 172.125,-57.4062 170.707,-46.9067 164.469,-50.0825"/>
</g>
</g>
</svg>
