<?xml version="1.0" encoding="UTF-8" standalone="no"?>
<!DOCTYPE svg PUBLIC "-//W3C//DTD SVG 1.1//EN"
 "http://www.w3.org/Graphics/SVG/1.1/DTD/svg11.dtd">
<!-- Generated by graphviz version 2.38.0 (20140413.2041)
 -->
<!-- Title: vhdlparser/CharStream.h Pages: 1 -->
<svg width="471pt" height="207pt"
 viewBox="0.00 0.00 471.35 207.00" xmlns="http://www.w3.org/2000/svg" xmlns:xlink="http://www.w3.org/1999/xlink">
<g id="graph0" class="graph" transform="scale(1 1) rotate(0) translate(4 203)">
<title>vhdlparser/CharStream.h</title>
<polygon fill="white" stroke="none" points="-4,4 -4,-203 467.346,-203 467.346,4 -4,4"/>
<!-- Node9 -->
<g id="node1" class="node"><title>Node9</title>
<polygon fill="#bfbfbf" stroke="black" points="313.5,-179.5 313.5,-198.5 438.5,-198.5 438.5,-179.5 313.5,-179.5"/>
<text text-anchor="middle" x="376" y="-186.5" font-family="Helvetica,sans-Serif" font-size="10.00">vhdlparser/CharStream.h</text>
</g>
<!-- Node10 -->
<g id="node2" class="node"><title>Node10</title>
<g id="a_node2"><a xlink:href="../../d5/df9/_vhdl_parser_8h.html" target="_top" xlink:title="vhdlparser/VhdlParser.h">
<polygon fill="white" stroke="black" points="222.5,-123.5 222.5,-142.5 343.5,-142.5 343.5,-123.5 222.5,-123.5"/>
<text text-anchor="middle" x="283" y="-130.5" font-family="Helvetica,sans-Serif" font-size="10.00">vhdlparser/VhdlParser.h</text>
</a>
</g>
</g>
<!-- Node9&#45;&gt;Node10 -->
<g id="edge1" class="edge"><title>Node9&#45;&gt;Node10</title>
<path fill="none" stroke="midnightblue" d="M352.194,-174.177C335.081,-164.241 312.535,-151.149 297.905,-142.655"/>
<polygon fill="midnightblue" stroke="midnightblue" points="350.653,-177.329 361.058,-179.324 354.168,-171.276 350.653,-177.329"/>
</g>
<!-- Node12 -->
<g id="node4" class="node"><title>Node12</title>
<g id="a_node4"><a xlink:href="../../d7/dad/_vhdl_parser_token_manager_8h.html" target="_top" xlink:title="vhdlparser/VhdlParserToken\lManager.h">
<polygon fill="white" stroke="black" points="306,-56.5 306,-86.5 446,-86.5 446,-56.5 306,-56.5"/>
<text text-anchor="start" x="314" y="-74.5" font-family="Helvetica,sans-Serif" font-size="10.00">vhdlparser/VhdlParserToken</text>
<text text-anchor="middle" x="376" y="-63.5" font-family="Helvetica,sans-Serif" font-size="10.00">Manager.h</text>
</a>
</g>
</g>
<!-- Node9&#45;&gt;Node12 -->
<g id="edge10" class="edge"><title>Node9&#45;&gt;Node12</title>
<path fill="none" stroke="midnightblue" d="M376,-169.068C376,-145.904 376,-107.223 376,-86.5453"/>
<polygon fill="midnightblue" stroke="midnightblue" points="372.5,-169.319 376,-179.319 379.5,-169.319 372.5,-169.319"/>
</g>
<!-- Node13 -->
<g id="node5" class="node"><title>Node13</title>
<g id="a_node5"><a xlink:href="../../da/d40/_vhdl_parser_i_f_8cpp.html" target="_top" xlink:title="vhdlparser/VhdlParserIF.cpp">
<polygon fill="white" stroke="black" points="257,-0.5 257,-19.5 397,-19.5 397,-0.5 257,-0.5"/>
<text text-anchor="middle" x="327" y="-7.5" font-family="Helvetica,sans-Serif" font-size="10.00">vhdlparser/VhdlParserIF.cpp</text>
</a>
</g>
</g>
<!-- Node9&#45;&gt;Node13 -->
<g id="edge11" class="edge"><title>Node9&#45;&gt;Node13</title>
<path fill="none" stroke="midnightblue" d="M396.689,-173.07C428.724,-148.108 483.789,-96.6368 455,-56 441.519,-36.9713 419.323,-25.9302 397.167,-19.5447"/>
<polygon fill="midnightblue" stroke="midnightblue" points="394.216,-170.552 388.353,-179.377 398.439,-176.134 394.216,-170.552"/>
</g>
<!-- Node11 -->
<g id="node3" class="node"><title>Node11</title>
<g id="a_node3"><a xlink:href="../../de/dea/vhdldocgen_8cpp.html" target="_top" xlink:title="src/vhdldocgen.cpp">
<polygon fill="white" stroke="black" points="148.5,-62 148.5,-81 249.5,-81 249.5,-62 148.5,-62"/>
<text text-anchor="middle" x="199" y="-69" font-family="Helvetica,sans-Serif" font-size="10.00">src/vhdldocgen.cpp</text>
</a>
</g>
</g>
<!-- Node10&#45;&gt;Node11 -->
<g id="edge2" class="edge"><title>Node10&#45;&gt;Node11</title>
<path fill="none" stroke="midnightblue" d="M262.689,-117.613C246.533,-106.169 224.477,-90.546 211.013,-81.0091"/>
<polygon fill="midnightblue" stroke="midnightblue" points="260.782,-120.551 270.965,-123.475 264.828,-114.839 260.782,-120.551"/>
</g>
<!-- Node10&#45;&gt;Node12 -->
<g id="edge3" class="edge"><title>Node10&#45;&gt;Node12</title>
<path fill="none" stroke="midnightblue" d="M299.82,-117.468C313.382,-108.047 332.483,-95.8408 348.252,-86.523"/>
<polygon fill="midnightblue" stroke="midnightblue" points="297.52,-114.81 291.424,-123.475 301.593,-120.503 297.52,-114.81"/>
</g>
<!-- Node10&#45;&gt;Node13 -->
<g id="edge6" class="edge"><title>Node10&#45;&gt;Node13</title>
<path fill="none" stroke="midnightblue" d="M284.335,-113.19C285.949,-97.4377 289.457,-74.6101 297,-56 302.573,-42.2511 312.694,-28.3321 319.627,-19.6902"/>
<polygon fill="midnightblue" stroke="midnightblue" points="280.84,-112.983 283.465,-123.248 287.814,-113.587 280.84,-112.983"/>
</g>
<!-- Node14 -->
<g id="node6" class="node"><title>Node14</title>
<g id="a_node6"><a xlink:href="../../dd/d6f/_vhdl_parser_i_f_8h.html" target="_top" xlink:title="vhdlparser/VhdlParserIF.h">
<polygon fill="white" stroke="black" points="0,-62 0,-81 130,-81 130,-62 0,-62"/>
<text text-anchor="middle" x="65" y="-69" font-family="Helvetica,sans-Serif" font-size="10.00">vhdlparser/VhdlParserIF.h</text>
</a>
</g>
</g>
<!-- Node10&#45;&gt;Node14 -->
<g id="edge7" class="edge"><title>Node10&#45;&gt;Node14</title>
<path fill="none" stroke="midnightblue" d="M242.047,-120.822C199.7,-109.264 134.515,-91.4732 96.1761,-81.0091"/>
<polygon fill="midnightblue" stroke="midnightblue" points="241.197,-124.218 251.766,-123.475 243.04,-117.465 241.197,-124.218"/>
</g>
<!-- Node12&#45;&gt;Node10 -->
<g id="edge4" class="edge"><title>Node12&#45;&gt;Node10</title>
<path fill="none" stroke="midnightblue" d="M351.635,-92.1788C335.827,-102.791 315.713,-115.341 301.225,-123.475"/>
<polygon fill="midnightblue" stroke="midnightblue" points="353.63,-95.0549 359.912,-86.523 349.681,-89.2754 353.63,-95.0549"/>
</g>
<!-- Node12&#45;&gt;Node13 -->
<g id="edge5" class="edge"><title>Node12&#45;&gt;Node13</title>
<path fill="none" stroke="midnightblue" d="M357.804,-48.4043C349.574,-38.411 340.326,-27.1815 334.13,-19.6578"/>
<polygon fill="midnightblue" stroke="midnightblue" points="355.329,-50.905 364.388,-56.3993 360.732,-46.455 355.329,-50.905"/>
</g>
<!-- Node14&#45;&gt;Node13 -->
<g id="edge9" class="edge"><title>Node14&#45;&gt;Node13</title>
<path fill="none" stroke="midnightblue" d="M112.299,-59.7584C163.124,-48.216 242.871,-30.1056 289.531,-19.5091"/>
<polygon fill="midnightblue" stroke="midnightblue" points="111.515,-56.3473 102.538,-61.9751 113.065,-63.1735 111.515,-56.3473"/>
</g>
<!-- Node15 -->
<g id="node7" class="node"><title>Node15</title>
<g id="a_node7"><a xlink:href="../../d1/d86/vhdljjparser_8cpp.html" target="_top" xlink:title="src/vhdljjparser.cpp">
<polygon fill="white" stroke="black" points="14.5,-0.5 14.5,-19.5 115.5,-19.5 115.5,-0.5 14.5,-0.5"/>
<text text-anchor="middle" x="65" y="-7.5" font-family="Helvetica,sans-Serif" font-size="10.00">src/vhdljjparser.cpp</text>
</a>
</g>
</g>
<!-- Node14&#45;&gt;Node15 -->
<g id="edge8" class="edge"><title>Node14&#45;&gt;Node15</title>
<path fill="none" stroke="midnightblue" d="M65,-51.8165C65,-40.9962 65,-27.898 65,-19.5091"/>
<polygon fill="midnightblue" stroke="midnightblue" points="61.5001,-51.9751 65,-61.9751 68.5001,-51.9751 61.5001,-51.9751"/>
</g>
</g>
</svg>
