<?xml version="1.0" encoding="UTF-8" standalone="no"?>
<!DOCTYPE svg PUBLIC "-//W3C//DTD SVG 1.1//EN"
 "http://www.w3.org/Graphics/SVG/1.1/DTD/svg11.dtd">
<!-- Generated by graphviz version 2.38.0 (20140413.2041)
 -->
<!-- Title: TemplateEngine Pages: 1 -->
<svg width="132pt" height="95pt"
 viewBox="0.00 0.00 132.00 95.00" xmlns="http://www.w3.org/2000/svg" xmlns:xlink="http://www.w3.org/1999/xlink">
<g id="graph0" class="graph" transform="scale(1 1) rotate(0) translate(4 91)">
<title>TemplateEngine</title>
<polygon fill="white" stroke="none" points="-4,4 -4,-91 128,-91 128,4 -4,4"/>
<!-- Node1 -->
<g id="node1" class="node"><title>Node1</title>
<polygon fill="#bfbfbf" stroke="black" points="18.5,-67.5 18.5,-86.5 105.5,-86.5 105.5,-67.5 18.5,-67.5"/>
<text text-anchor="middle" x="62" y="-74.5" font-family="Helvetica,sans-Serif" font-size="10.00">TemplateEngine</text>
</g>
<!-- Node2 -->
<g id="node2" class="node"><title>Node2</title>
<g id="a_node2"><a xlink:href="../../d5/d56/class_template_engine_1_1_private.html" target="_top" xlink:title="Private data of the template engine. ">
<polygon fill="white" stroke="black" points="-7.10543e-15,-0.5 -7.10543e-15,-19.5 124,-19.5 124,-0.5 -7.10543e-15,-0.5"/>
<text text-anchor="middle" x="62" y="-7.5" font-family="Helvetica,sans-Serif" font-size="10.00">TemplateEngine::Private</text>
</a>
</g>
</g>
<!-- Node1&#45;&gt;Node2 -->
<g id="edge2" class="edge"><title>Node1&#45;&gt;Node2</title>
<path fill="none" stroke="#9a32cd" stroke-dasharray="5,2" d="M35.2294,-61.3517C31.102,-57.8665 27.415,-53.7519 25,-49 18.9509,-37.0974 31.6245,-26.4872 43.7521,-19.5239"/>
<polygon fill="#9a32cd" stroke="#9a32cd" points="33.3253,-64.2932 43.4904,-67.2802 37.4067,-58.6061 33.3253,-64.2932"/>
<text text-anchor="middle" x="48" y="-41" font-family="Helvetica,sans-Serif" font-size="10.00"> m_engine</text>
</g>
<!-- Node2&#45;&gt;Node1 -->
<g id="edge1" class="edge"><title>Node2&#45;&gt;Node1</title>
<path fill="none" stroke="#9a32cd" stroke-dasharray="5,2" d="M72.3463,-28.6097C74.9152,-34.9532 76.5474,-42.2192 75,-49 73.5184,-55.4923 70.2684,-62.2423 67.3888,-67.3693"/>
<polygon fill="#9a32cd" stroke="#9a32cd" points="75.4517,-26.994 67.8608,-19.603 69.1858,-30.1146 75.4517,-26.994"/>
<text text-anchor="middle" x="79.5" y="-41" font-family="Helvetica,sans-Serif" font-size="10.00"> p</text>
</g>
</g>
</svg>
