<?xml version="1.0" encoding="UTF-8" standalone="no"?>
<!DOCTYPE svg PUBLIC "-//W3C//DTD SVG 1.1//EN"
 "http://www.w3.org/Graphics/SVG/1.1/DTD/svg11.dtd">
<!-- Generated by graphviz version 2.38.0 (20140413.2041)
 -->
<!-- Title: src/memberdef.h Pages: 1 -->
<svg width="229pt" height="196pt"
 viewBox="0.00 0.00 228.76 196.00" xmlns="http://www.w3.org/2000/svg" xmlns:xlink="http://www.w3.org/1999/xlink">
<g id="graph0" class="graph" transform="scale(1 1) rotate(0) translate(4 192)">
<title>src/memberdef.h</title>
<polygon fill="white" stroke="none" points="-4,4 -4,-192 224.758,-192 224.758,4 -4,4"/>
<!-- Node0 -->
<g id="node1" class="node"><title>Node0</title>
<polygon fill="#bfbfbf" stroke="black" points="44.2583,-168.5 44.2583,-187.5 134.258,-187.5 134.258,-168.5 44.2583,-168.5"/>
<text text-anchor="middle" x="89.2583" y="-175.5" font-family="Helvetica,sans-Serif" font-size="10.00">src/memberdef.h</text>
</g>
<!-- Node1 -->
<g id="node2" class="node"><title>Node1</title>
<polygon fill="white" stroke="#bfbfbf" points="1.75835,-56.5 1.75835,-75.5 44.7583,-75.5 44.7583,-56.5 1.75835,-56.5"/>
<text text-anchor="middle" x="23.2583" y="-63.5" font-family="Helvetica,sans-Serif" font-size="10.00">qlist.h</text>
</g>
<!-- Node0&#45;&gt;Node1 -->
<g id="edge1" class="edge"><title>Node0&#45;&gt;Node1</title>
<path fill="none" stroke="midnightblue" d="M55.4594,-168.388C36.8651,-161.735 15.3686,-150.453 4.25835,-132 -4.70925,-117.106 3.0228,-97.7302 11.154,-84.0202"/>
<polygon fill="midnightblue" stroke="midnightblue" points="14.1377,-85.852 16.6467,-75.5585 8.26622,-82.0406 14.1377,-85.852"/>
</g>
<!-- Node2 -->
<g id="node3" class="node"><title>Node2</title>
<polygon fill="white" stroke="#bfbfbf" points="13.2583,-112.5 13.2583,-131.5 81.2583,-131.5 81.2583,-112.5 13.2583,-112.5"/>
<text text-anchor="middle" x="47.2583" y="-119.5" font-family="Helvetica,sans-Serif" font-size="10.00">sys/types.h</text>
</g>
<!-- Node0&#45;&gt;Node2 -->
<g id="edge2" class="edge"><title>Node0&#45;&gt;Node2</title>
<path fill="none" stroke="midnightblue" d="M82.3229,-168.083C76.3292,-160.377 67.5065,-149.033 60.2107,-139.653"/>
<polygon fill="midnightblue" stroke="midnightblue" points="62.9669,-137.496 54.0647,-131.751 57.4414,-141.793 62.9669,-137.496"/>
</g>
<!-- Node3 -->
<g id="node4" class="node"><title>Node3</title>
<g id="a_node4"><a xlink:href="../../d9/d49/types_8h.html" target="_top" xlink:title="This file contains a number of basic enums and types. ">
<polygon fill="white" stroke="black" points="166.758,-56.5 166.758,-75.5 215.758,-75.5 215.758,-56.5 166.758,-56.5"/>
<text text-anchor="middle" x="191.258" y="-63.5" font-family="Helvetica,sans-Serif" font-size="10.00">types.h</text>
</a>
</g>
</g>
<!-- Node0&#45;&gt;Node3 -->
<g id="edge3" class="edge"><title>Node0&#45;&gt;Node3</title>
<path fill="none" stroke="midnightblue" d="M116.848,-168.35C135.041,-161.302 158.049,-149.6 172.258,-132 182.981,-118.718 187.652,-99.5948 189.687,-85.5276"/>
<polygon fill="midnightblue" stroke="midnightblue" points="193.171,-85.8689 190.82,-75.5383 186.216,-85.0805 193.171,-85.8689"/>
</g>
<!-- Node5 -->
<g id="node6" class="node"><title>Node5</title>
<g id="a_node6"><a xlink:href="../../df/da1/definition_8h.html" target="_top" xlink:title="definition.h">
<polygon fill="white" stroke="black" points="99.2583,-112.5 99.2583,-131.5 163.258,-131.5 163.258,-112.5 99.2583,-112.5"/>
<text text-anchor="middle" x="131.258" y="-119.5" font-family="Helvetica,sans-Serif" font-size="10.00">definition.h</text>
</a>
</g>
</g>
<!-- Node0&#45;&gt;Node5 -->
<g id="edge5" class="edge"><title>Node0&#45;&gt;Node5</title>
<path fill="none" stroke="midnightblue" d="M96.1938,-168.083C102.188,-160.377 111.01,-149.033 118.306,-139.653"/>
<polygon fill="midnightblue" stroke="midnightblue" points="121.075,-141.793 124.452,-131.751 115.55,-137.496 121.075,-141.793"/>
</g>
<!-- Node4 -->
<g id="node5" class="node"><title>Node4</title>
<polygon fill="white" stroke="#bfbfbf" points="161.758,-0.5 161.758,-19.5 220.758,-19.5 220.758,-0.5 161.758,-0.5"/>
<text text-anchor="middle" x="191.258" y="-7.5" font-family="Helvetica,sans-Serif" font-size="10.00">qcstring.h</text>
</g>
<!-- Node3&#45;&gt;Node4 -->
<g id="edge4" class="edge"><title>Node3&#45;&gt;Node4</title>
<path fill="none" stroke="midnightblue" d="M191.258,-56.083C191.258,-49.0059 191.258,-38.8611 191.258,-29.9865"/>
<polygon fill="midnightblue" stroke="midnightblue" points="194.758,-29.751 191.258,-19.7511 187.758,-29.7511 194.758,-29.751"/>
</g>
<!-- Node5&#45;&gt;Node1 -->
<g id="edge6" class="edge"><title>Node5&#45;&gt;Node1</title>
<path fill="none" stroke="midnightblue" d="M113.906,-112.324C96.5865,-103.664 69.7431,-90.2424 49.7564,-80.249"/>
<polygon fill="midnightblue" stroke="midnightblue" points="51.0769,-76.9962 40.5674,-75.6545 47.9464,-83.2572 51.0769,-76.9962"/>
</g>
<!-- Node5&#45;&gt;Node3 -->
<g id="edge8" class="edge"><title>Node5&#45;&gt;Node3</title>
<path fill="none" stroke="midnightblue" d="M140.898,-112.324C149.768,-104.341 163.133,-92.3128 173.866,-82.6529"/>
<polygon fill="midnightblue" stroke="midnightblue" points="176.351,-85.1251 181.443,-75.8339 171.669,-79.922 176.351,-85.1251"/>
</g>
<!-- Node6 -->
<g id="node7" class="node"><title>Node6</title>
<polygon fill="white" stroke="#bfbfbf" points="102.258,-56.5 102.258,-75.5 148.258,-75.5 148.258,-56.5 102.258,-56.5"/>
<text text-anchor="middle" x="125.258" y="-63.5" font-family="Helvetica,sans-Serif" font-size="10.00">qdict.h</text>
</g>
<!-- Node5&#45;&gt;Node6 -->
<g id="edge7" class="edge"><title>Node5&#45;&gt;Node6</title>
<path fill="none" stroke="midnightblue" d="M130.268,-112.083C129.472,-104.927 128.329,-94.6353 127.335,-85.6911"/>
<polygon fill="midnightblue" stroke="midnightblue" points="130.814,-85.3034 126.231,-75.7511 123.856,-86.0765 130.814,-85.3034"/>
</g>
</g>
</svg>
