<?xml version="1.0" encoding="UTF-8" standalone="no"?>
<!DOCTYPE svg PUBLIC "-//W3C//DTD SVG 1.1//EN"
 "http://www.w3.org/Graphics/SVG/1.1/DTD/svg11.dtd">
<!-- Generated by graphviz version 2.38.0 (20140413.2041)
 -->
<!-- Title: DocSimpleSect Pages: 1 -->
<svg width="385pt" height="238pt"
 viewBox="0.00 0.00 385.00 238.00" xmlns="http://www.w3.org/2000/svg" xmlns:xlink="http://www.w3.org/1999/xlink">
<g id="graph0" class="graph" transform="scale(1 1) rotate(0) translate(4 234)">
<title>DocSimpleSect</title>
<polygon fill="white" stroke="none" points="-4,4 -4,-234 381,-234 381,4 -4,4"/>
<!-- Node4 -->
<g id="node1" class="node"><title>Node4</title>
<polygon fill="#bfbfbf" stroke="black" points="152.5,-0.5 152.5,-19.5 237.5,-19.5 237.5,-0.5 152.5,-0.5"/>
<text text-anchor="middle" x="195" y="-7.5" font-family="Helvetica,sans-Serif" font-size="10.00">DocSimpleSect</text>
</g>
<!-- Node5 -->
<g id="node2" class="node"><title>Node5</title>
<g id="a_node2"><a xlink:href="../../d7/da3/class_comp_accept.html" target="_top" xlink:title="CompAccept\&lt; DocSimpleSect \&gt;">
<polygon fill="white" stroke="black" points="0,-105.5 0,-124.5 160,-124.5 160,-105.5 0,-105.5"/>
<text text-anchor="middle" x="80" y="-112.5" font-family="Helvetica,sans-Serif" font-size="10.00">CompAccept&lt; DocSimpleSect &gt;</text>
</a>
</g>
</g>
<!-- Node5&#45;&gt;Node4 -->
<g id="edge1" class="edge"><title>Node5&#45;&gt;Node4</title>
<path fill="none" stroke="midnightblue" d="M97.2976,-98.5074C121.779,-76.5809 165.721,-37.2242 185.22,-19.7595"/>
<polygon fill="midnightblue" stroke="midnightblue" points="94.9188,-95.9393 89.8048,-105.218 99.589,-101.154 94.9188,-95.9393"/>
</g>
<!-- Node6 -->
<g id="node3" class="node"><title>Node6</title>
<g id="a_node3"><a xlink:href="../../d7/da3/class_comp_accept.html" target="_top" xlink:title="Default accept implementation for compound nodes in the abstract syntax tree. ">
<polygon fill="white" stroke="black" points="84,-210.5 84,-229.5 182,-229.5 182,-210.5 84,-210.5"/>
<text text-anchor="middle" x="133" y="-217.5" font-family="Helvetica,sans-Serif" font-size="10.00">CompAccept&lt; T &gt;</text>
</a>
</g>
</g>
<!-- Node6&#45;&gt;Node5 -->
<g id="edge2" class="edge"><title>Node6&#45;&gt;Node5</title>
<path fill="none" stroke="orange" stroke-dasharray="5,2" d="M88.7616,-205.839C82.9139,-202.262 77.6804,-197.732 74,-192 60.5555,-171.062 70.0935,-139.889 76.1091,-124.806"/>
<polygon fill="orange" stroke="orange" points="87.1668,-208.955 97.659,-210.426 90.3745,-202.733 87.1668,-208.955"/>
<text text-anchor="middle" x="119" y="-184" font-family="Helvetica,sans-Serif" font-size="10.00"> &lt; DocSimpleSect &gt;</text>
</g>
<!-- Node9 -->
<g id="node6" class="node"><title>Node9</title>
<g id="a_node6"><a xlink:href="../../d7/da3/class_comp_accept.html" target="_top" xlink:title="CompAccept\&lt; DocTitle \&gt;">
<polygon fill="white" stroke="black" points="111,-143.5 111,-162.5 239,-162.5 239,-143.5 111,-143.5"/>
<text text-anchor="middle" x="175" y="-150.5" font-family="Helvetica,sans-Serif" font-size="10.00">CompAccept&lt; DocTitle &gt;</text>
</a>
</g>
</g>
<!-- Node6&#45;&gt;Node9 -->
<g id="edge7" class="edge"><title>Node6&#45;&gt;Node9</title>
<path fill="none" stroke="orange" stroke-dasharray="5,2" d="M157.026,-204.318C161.24,-200.763 165.174,-196.631 168,-192 173.451,-183.067 174.858,-170.91 175.126,-162.776"/>
<polygon fill="orange" stroke="orange" points="154.739,-201.656 148.793,-210.425 158.91,-207.278 154.739,-201.656"/>
<text text-anchor="middle" x="202" y="-184" font-family="Helvetica,sans-Serif" font-size="10.00"> &lt; DocTitle &gt;</text>
</g>
<!-- Node7 -->
<g id="node4" class="node"><title>Node7</title>
<g id="a_node4"><a xlink:href="../../d9/d0e/class_doc_node.html" target="_top" xlink:title="Abstract node interface with type information. ">
<polygon fill="white" stroke="black" points="257,-143.5 257,-162.5 315,-162.5 315,-143.5 257,-143.5"/>
<text text-anchor="middle" x="286" y="-150.5" font-family="Helvetica,sans-Serif" font-size="10.00">DocNode</text>
</a>
</g>
</g>
<!-- Node7&#45;&gt;Node4 -->
<g id="edge3" class="edge"><title>Node7&#45;&gt;Node4</title>
<path fill="none" stroke="midnightblue" d="M280.565,-133.921C272.73,-110.039 256.46,-67.5529 232,-38 225.916,-30.6488 217.406,-24.2567 210.081,-19.5399"/>
<polygon fill="midnightblue" stroke="midnightblue" points="277.23,-134.984 283.571,-143.472 283.907,-132.882 277.23,-134.984"/>
</g>
<!-- Node7&#45;&gt;Node7 -->
<g id="edge4" class="edge"><title>Node7&#45;&gt;Node7</title>
<path fill="none" stroke="#9a32cd" stroke-dasharray="5,2" d="M325.603,-158.084C330.091,-157.132 333,-155.438 333,-153 333,-149 325.167,-147 315.375,-147"/>
<polygon fill="#9a32cd" stroke="#9a32cd" points="325.023,-154.622 315.375,-159 325.647,-161.594 325.023,-154.622"/>
<text text-anchor="middle" x="355" y="-150.5" font-family="Helvetica,sans-Serif" font-size="10.00"> m_parent</text>
</g>
<!-- Node8 -->
<g id="node5" class="node"><title>Node8</title>
<g id="a_node5"><a xlink:href="../../d3/d1c/class_doc_title.html" target="_top" xlink:title="Node representing a simple section title. ">
<polygon fill="white" stroke="black" points="168.5,-67.5 168.5,-86.5 221.5,-86.5 221.5,-67.5 168.5,-67.5"/>
<text text-anchor="middle" x="195" y="-74.5" font-family="Helvetica,sans-Serif" font-size="10.00">DocTitle</text>
</a>
</g>
</g>
<!-- Node7&#45;&gt;Node8 -->
<g id="edge8" class="edge"><title>Node7&#45;&gt;Node8</title>
<path fill="none" stroke="midnightblue" d="M267.365,-136.846C248.689,-121.659 220.604,-98.8205 205.501,-86.5395"/>
<polygon fill="midnightblue" stroke="midnightblue" points="265.237,-139.627 275.204,-143.221 269.653,-134.196 265.237,-139.627"/>
</g>
<!-- Node8&#45;&gt;Node4 -->
<g id="edge5" class="edge"><title>Node8&#45;&gt;Node4</title>
<path fill="none" stroke="#9a32cd" stroke-dasharray="5,2" d="M195,-57.037C195,-44.6703 195,-29.1198 195,-19.6273"/>
<polygon fill="#9a32cd" stroke="#9a32cd" points="191.5,-57.2338 195,-67.2338 198.5,-57.2338 191.5,-57.2338"/>
<text text-anchor="middle" x="211.5" y="-41" font-family="Helvetica,sans-Serif" font-size="10.00"> m_title</text>
</g>
<!-- Node9&#45;&gt;Node8 -->
<g id="edge6" class="edge"><title>Node9&#45;&gt;Node8</title>
<path fill="none" stroke="midnightblue" d="M179.998,-133.509C184.034,-118.575 189.535,-98.2223 192.63,-86.7679"/>
<polygon fill="midnightblue" stroke="midnightblue" points="176.603,-132.654 177.373,-143.221 183.361,-134.48 176.603,-132.654"/>
</g>
</g>
</svg>
