<?xml version="1.0" encoding="UTF-8" standalone="no"?>
<!DOCTYPE svg PUBLIC "-//W3C//DTD SVG 1.1//EN"
 "http://www.w3.org/Graphics/SVG/1.1/DTD/svg11.dtd">
<!-- Generated by graphviz version 2.38.0 (20140413.2041)
 -->
<!-- Title: src/htags.cpp Pages: 1 -->
<svg width="778pt" height="252pt"
 viewBox="0.00 0.00 778.39 252.00" xmlns="http://www.w3.org/2000/svg" xmlns:xlink="http://www.w3.org/1999/xlink">
<g id="graph0" class="graph" transform="scale(1 1) rotate(0) translate(4 248)">
<title>src/htags.cpp</title>
<polygon fill="white" stroke="none" points="-4,4 -4,-248 774.392,-248 774.392,4 -4,4"/>
<!-- Node0 -->
<g id="node1" class="node"><title>Node0</title>
<polygon fill="#bfbfbf" stroke="black" points="337,-224.5 337,-243.5 413,-243.5 413,-224.5 337,-224.5"/>
<text text-anchor="middle" x="375" y="-231.5" font-family="Helvetica,sans-Serif" font-size="10.00">src/htags.cpp</text>
</g>
<!-- Node1 -->
<g id="node2" class="node"><title>Node1</title>
<polygon fill="white" stroke="#bfbfbf" points="544,-56.5 544,-75.5 590,-75.5 590,-56.5 544,-56.5"/>
<text text-anchor="middle" x="567" y="-63.5" font-family="Helvetica,sans-Serif" font-size="10.00">stdio.h</text>
</g>
<!-- Node0&#45;&gt;Node1 -->
<g id="edge1" class="edge"><title>Node0&#45;&gt;Node1</title>
<path fill="none" stroke="midnightblue" d="M413.022,-229.602C503.522,-220.578 726.94,-192.452 764,-132 800.909,-71.7932 665.7,-65.6831 600.388,-66.121"/>
<polygon fill="midnightblue" stroke="midnightblue" points="600.128,-62.6238 590.172,-66.2468 600.214,-69.6233 600.128,-62.6238"/>
</g>
<!-- Node2 -->
<g id="node3" class="node"><title>Node2</title>
<polygon fill="white" stroke="#bfbfbf" points="200.5,-168.5 200.5,-187.5 241.5,-187.5 241.5,-168.5 200.5,-168.5"/>
<text text-anchor="middle" x="221" y="-175.5" font-family="Helvetica,sans-Serif" font-size="10.00">qdir.h</text>
</g>
<!-- Node0&#45;&gt;Node2 -->
<g id="edge2" class="edge"><title>Node0&#45;&gt;Node2</title>
<path fill="none" stroke="midnightblue" d="M350.598,-224.444C323.741,-215.026 280.531,-199.875 251.47,-189.684"/>
<polygon fill="midnightblue" stroke="midnightblue" points="252.425,-186.31 241.83,-186.304 250.109,-192.916 252.425,-186.31"/>
</g>
<!-- Node3 -->
<g id="node4" class="node"><title>Node3</title>
<polygon fill="white" stroke="#bfbfbf" points="0,-56.5 0,-75.5 46,-75.5 46,-56.5 0,-56.5"/>
<text text-anchor="middle" x="23" y="-63.5" font-family="Helvetica,sans-Serif" font-size="10.00">qdict.h</text>
</g>
<!-- Node0&#45;&gt;Node3 -->
<g id="edge3" class="edge"><title>Node0&#45;&gt;Node3</title>
<path fill="none" stroke="midnightblue" d="M336.98,-227.911C277.126,-218.273 159.658,-192.616 81,-132 62.9182,-118.066 45.996,-97.9669 35.1518,-83.8168"/>
<polygon fill="midnightblue" stroke="midnightblue" points="37.7355,-81.4266 28.9522,-75.5017 32.1236,-85.6107 37.7355,-81.4266"/>
</g>
<!-- Node4 -->
<g id="node5" class="node"><title>Node4</title>
<g id="a_node5"><a xlink:href="../../d7/d85/htags_8h.html" target="_top" xlink:title="htags.h">
<polygon fill="white" stroke="black" points="316.5,-168.5 316.5,-187.5 365.5,-187.5 365.5,-168.5 316.5,-168.5"/>
<text text-anchor="middle" x="341" y="-175.5" font-family="Helvetica,sans-Serif" font-size="10.00">htags.h</text>
</a>
</g>
</g>
<!-- Node0&#45;&gt;Node4 -->
<g id="edge4" class="edge"><title>Node0&#45;&gt;Node4</title>
<path fill="none" stroke="midnightblue" d="M369.386,-224.083C364.633,-216.534 357.682,-205.495 351.848,-196.23"/>
<polygon fill="midnightblue" stroke="midnightblue" points="354.8,-194.349 346.51,-187.751 348.876,-198.078 354.8,-194.349"/>
</g>
<!-- Node5 -->
<g id="node6" class="node"><title>Node5</title>
<g id="a_node6"><a xlink:href="../../d8/d3c/util_8h.html" target="_top" xlink:title="A bunch of utility functions. ">
<polygon fill="white" stroke="black" points="260,-168.5 260,-187.5 298,-187.5 298,-168.5 260,-168.5"/>
<text text-anchor="middle" x="279" y="-175.5" font-family="Helvetica,sans-Serif" font-size="10.00">util.h</text>
</a>
</g>
</g>
<!-- Node0&#45;&gt;Node5 -->
<g id="edge5" class="edge"><title>Node0&#45;&gt;Node5</title>
<path fill="none" stroke="midnightblue" d="M359.576,-224.324C344.46,-215.822 321.185,-202.729 303.529,-192.797"/>
<polygon fill="midnightblue" stroke="midnightblue" points="304.817,-189.507 294.386,-187.655 301.386,-195.608 304.817,-189.507"/>
</g>
<!-- Node15 -->
<g id="node16" class="node"><title>Node15</title>
<g id="a_node16"><a xlink:href="../../d2/d0d/message_8h.html" target="_top" xlink:title="message.h">
<polygon fill="white" stroke="black" points="460.5,-168.5 460.5,-187.5 525.5,-187.5 525.5,-168.5 460.5,-168.5"/>
<text text-anchor="middle" x="493" y="-175.5" font-family="Helvetica,sans-Serif" font-size="10.00">message.h</text>
</a>
</g>
</g>
<!-- Node0&#45;&gt;Node15 -->
<g id="edge22" class="edge"><title>Node0&#45;&gt;Node15</title>
<path fill="none" stroke="midnightblue" d="M393.697,-224.444C412.944,-215.636 443.152,-201.812 465.2,-191.722"/>
<polygon fill="midnightblue" stroke="midnightblue" points="466.753,-194.86 474.39,-187.516 463.84,-188.495 466.753,-194.86"/>
</g>
<!-- Node17 -->
<g id="node18" class="node"><title>Node17</title>
<g id="a_node18"><a xlink:href="../../db/d16/config_8h.html" target="_top" xlink:title="config.h">
<polygon fill="white" stroke="black" points="383.5,-168.5 383.5,-187.5 434.5,-187.5 434.5,-168.5 383.5,-168.5"/>
<text text-anchor="middle" x="409" y="-175.5" font-family="Helvetica,sans-Serif" font-size="10.00">config.h</text>
</a>
</g>
</g>
<!-- Node0&#45;&gt;Node17 -->
<g id="edge25" class="edge"><title>Node0&#45;&gt;Node17</title>
<path fill="none" stroke="midnightblue" d="M380.614,-224.083C385.367,-216.534 392.318,-205.495 398.152,-196.23"/>
<polygon fill="midnightblue" stroke="midnightblue" points="401.124,-198.078 403.49,-187.751 395.2,-194.349 401.124,-198.078"/>
</g>
<!-- Node19 -->
<g id="node20" class="node"><title>Node19</title>
<g id="a_node20"><a xlink:href="../../d2/de2/portable_8h.html" target="_top" xlink:title="Portable versions of functions that are platform dependent. ">
<polygon fill="white" stroke="black" points="586.5,-168.5 586.5,-187.5 645.5,-187.5 645.5,-168.5 586.5,-168.5"/>
<text text-anchor="middle" x="616" y="-175.5" font-family="Helvetica,sans-Serif" font-size="10.00">portable.h</text>
</a>
</g>
</g>
<!-- Node0&#45;&gt;Node19 -->
<g id="edge27" class="edge"><title>Node0&#45;&gt;Node19</title>
<path fill="none" stroke="midnightblue" d="M413.187,-224.444C457.762,-214.456 531.121,-198.019 576.325,-187.89"/>
<polygon fill="midnightblue" stroke="midnightblue" points="577.356,-191.246 586.349,-185.644 575.825,-184.415 577.356,-191.246"/>
</g>
<!-- Node6 -->
<g id="node7" class="node"><title>Node6</title>
<polygon fill="white" stroke="#bfbfbf" points="146.5,-0.5 146.5,-19.5 189.5,-19.5 189.5,-0.5 146.5,-0.5"/>
<text text-anchor="middle" x="168" y="-7.5" font-family="Helvetica,sans-Serif" font-size="10.00">qlist.h</text>
</g>
<!-- Node5&#45;&gt;Node6 -->
<g id="edge6" class="edge"><title>Node5&#45;&gt;Node6</title>
<path fill="none" stroke="midnightblue" d="M259.716,-170.793C256.484,-169.817 253.156,-168.85 250,-168 180.876,-149.377 137.607,-187.993 93,-132 64.5656,-96.3076 116.163,-49.1569 147.138,-25.6438"/>
<polygon fill="midnightblue" stroke="midnightblue" points="149.272,-28.4191 155.244,-19.6679 145.118,-22.7848 149.272,-28.4191"/>
</g>
<!-- Node7 -->
<g id="node8" class="node"><title>Node7</title>
<polygon fill="white" stroke="#bfbfbf" points="102.5,-112.5 102.5,-131.5 151.5,-131.5 151.5,-112.5 102.5,-112.5"/>
<text text-anchor="middle" x="127" y="-119.5" font-family="Helvetica,sans-Serif" font-size="10.00">ctype.h</text>
</g>
<!-- Node5&#45;&gt;Node7 -->
<g id="edge7" class="edge"><title>Node5&#45;&gt;Node7</title>
<path fill="none" stroke="midnightblue" d="M259.749,-170.161C234.916,-161.339 191.303,-145.844 160.868,-135.032"/>
<polygon fill="midnightblue" stroke="midnightblue" points="161.693,-131.611 151.098,-131.561 159.349,-138.207 161.693,-131.611"/>
</g>
<!-- Node8 -->
<g id="node9" class="node"><title>Node8</title>
<g id="a_node9"><a xlink:href="../../d9/d49/types_8h.html" target="_top" xlink:title="This file contains a number of basic enums and types. ">
<polygon fill="white" stroke="black" points="459.5,-56.5 459.5,-75.5 508.5,-75.5 508.5,-56.5 459.5,-56.5"/>
<text text-anchor="middle" x="484" y="-63.5" font-family="Helvetica,sans-Serif" font-size="10.00">types.h</text>
</a>
</g>
</g>
<!-- Node5&#45;&gt;Node8 -->
<g id="edge8" class="edge"><title>Node5&#45;&gt;Node8</title>
<path fill="none" stroke="midnightblue" d="M287.755,-168.326C301.888,-154.725 331.081,-128.259 360,-112 388.55,-95.9484 423.9,-83.7872 449.543,-76.1791"/>
<polygon fill="midnightblue" stroke="midnightblue" points="450.565,-79.527 459.203,-73.3916 448.624,-72.8014 450.565,-79.527"/>
</g>
<!-- Node10 -->
<g id="node11" class="node"><title>Node10</title>
<g id="a_node11"><a xlink:href="../../d9/d21/sortdict_8h.html" target="_top" xlink:title="sortdict.h">
<polygon fill="white" stroke="black" points="169.5,-112.5 169.5,-131.5 226.5,-131.5 226.5,-112.5 169.5,-112.5"/>
<text text-anchor="middle" x="198" y="-119.5" font-family="Helvetica,sans-Serif" font-size="10.00">sortdict.h</text>
</a>
</g>
</g>
<!-- Node5&#45;&gt;Node10 -->
<g id="edge10" class="edge"><title>Node5&#45;&gt;Node10</title>
<path fill="none" stroke="midnightblue" d="M265.986,-168.324C253.468,-159.979 234.318,-147.212 219.529,-137.352"/>
<polygon fill="midnightblue" stroke="midnightblue" points="221.244,-134.289 210.982,-131.655 217.361,-140.114 221.244,-134.289"/>
</g>
<!-- Node12 -->
<g id="node13" class="node"><title>Node12</title>
<g id="a_node13"><a xlink:href="../../de/d9c/docparser_8h.html" target="_top" xlink:title="docparser.h">
<polygon fill="white" stroke="black" points="245,-112.5 245,-131.5 313,-131.5 313,-112.5 245,-112.5"/>
<text text-anchor="middle" x="279" y="-119.5" font-family="Helvetica,sans-Serif" font-size="10.00">docparser.h</text>
</a>
</g>
</g>
<!-- Node5&#45;&gt;Node12 -->
<g id="edge14" class="edge"><title>Node5&#45;&gt;Node12</title>
<path fill="none" stroke="midnightblue" d="M279,-168.083C279,-161.006 279,-150.861 279,-141.986"/>
<polygon fill="midnightblue" stroke="midnightblue" points="282.5,-141.751 279,-131.751 275.5,-141.751 282.5,-141.751"/>
</g>
<!-- Node9 -->
<g id="node10" class="node"><title>Node9</title>
<polygon fill="white" stroke="#bfbfbf" points="401.5,-0.5 401.5,-19.5 460.5,-19.5 460.5,-0.5 401.5,-0.5"/>
<text text-anchor="middle" x="431" y="-7.5" font-family="Helvetica,sans-Serif" font-size="10.00">qcstring.h</text>
</g>
<!-- Node8&#45;&gt;Node9 -->
<g id="edge9" class="edge"><title>Node8&#45;&gt;Node9</title>
<path fill="none" stroke="midnightblue" d="M475.248,-56.083C467.53,-48.2195 456.095,-36.5688 446.783,-27.0813"/>
<polygon fill="midnightblue" stroke="midnightblue" points="449.092,-24.4363 439.589,-19.7511 444.096,-29.3396 449.092,-24.4363"/>
</g>
<!-- Node10&#45;&gt;Node3 -->
<g id="edge12" class="edge"><title>Node10&#45;&gt;Node3</title>
<path fill="none" stroke="midnightblue" d="M170.271,-112.444C139.177,-102.849 88.7939,-87.3021 55.7771,-77.1141"/>
<polygon fill="midnightblue" stroke="midnightblue" points="56.716,-73.741 46.1286,-74.1368 54.652,-80.4298 56.716,-73.741"/>
</g>
<!-- Node10&#45;&gt;Node6 -->
<g id="edge11" class="edge"><title>Node10&#45;&gt;Node6</title>
<path fill="none" stroke="midnightblue" d="M175.212,-112.471C159.674,-105.316 140.293,-93.4352 131,-76 121.912,-58.9494 135.889,-39.7603 149.188,-26.6789"/>
<polygon fill="midnightblue" stroke="midnightblue" points="151.749,-29.0796 156.761,-19.745 147.022,-23.9169 151.749,-29.0796"/>
</g>
<!-- Node11 -->
<g id="node12" class="node"><title>Node11</title>
<polygon fill="white" stroke="#bfbfbf" points="140,-56.5 140,-75.5 196,-75.5 196,-56.5 140,-56.5"/>
<text text-anchor="middle" x="168" y="-63.5" font-family="Helvetica,sans-Serif" font-size="10.00">qintdict.h</text>
</g>
<!-- Node10&#45;&gt;Node11 -->
<g id="edge13" class="edge"><title>Node10&#45;&gt;Node11</title>
<path fill="none" stroke="midnightblue" d="M193.046,-112.083C188.896,-104.613 182.847,-93.7244 177.733,-84.5199"/>
<polygon fill="midnightblue" stroke="midnightblue" points="180.778,-82.7929 172.862,-75.7511 174.659,-86.1924 180.778,-82.7929"/>
</g>
<!-- Node12&#45;&gt;Node1 -->
<g id="edge15" class="edge"><title>Node12&#45;&gt;Node1</title>
<path fill="none" stroke="midnightblue" d="M313.168,-114.593C368.88,-104.148 478.592,-83.5766 533.722,-73.2397"/>
<polygon fill="midnightblue" stroke="midnightblue" points="534.488,-76.657 543.672,-71.374 533.198,-69.7769 534.488,-76.657"/>
</g>
<!-- Node12&#45;&gt;Node6 -->
<g id="edge16" class="edge"><title>Node12&#45;&gt;Node6</title>
<path fill="none" stroke="midnightblue" d="M270.29,-112.368C251.648,-93.8941 207.65,-50.2926 183.887,-26.7436"/>
<polygon fill="midnightblue" stroke="midnightblue" points="186.236,-24.1444 176.67,-19.5914 181.309,-29.1165 186.236,-24.1444"/>
</g>
<!-- Node12&#45;&gt;Node9 -->
<g id="edge17" class="edge"><title>Node12&#45;&gt;Node9</title>
<path fill="none" stroke="midnightblue" d="M313.164,-113.105C347.502,-104.532 397.258,-90.1611 411,-76 422.938,-63.698 427.768,-44.4428 429.712,-30.0783"/>
<polygon fill="midnightblue" stroke="midnightblue" points="433.224,-30.1309 430.734,-19.8329 426.259,-29.4362 433.224,-30.1309"/>
</g>
<!-- Node13 -->
<g id="node14" class="node"><title>Node13</title>
<g id="a_node14"><a xlink:href="../../d2/d3c/docvisitor_8h.html" target="_top" xlink:title="docvisitor.h">
<polygon fill="white" stroke="black" points="252.5,-56.5 252.5,-75.5 319.5,-75.5 319.5,-56.5 252.5,-56.5"/>
<text text-anchor="middle" x="286" y="-63.5" font-family="Helvetica,sans-Serif" font-size="10.00">docvisitor.h</text>
</a>
</g>
</g>
<!-- Node12&#45;&gt;Node13 -->
<g id="edge18" class="edge"><title>Node12&#45;&gt;Node13</title>
<path fill="none" stroke="midnightblue" d="M280.156,-112.083C281.084,-104.927 282.418,-94.6353 283.577,-85.6911"/>
<polygon fill="midnightblue" stroke="midnightblue" points="287.051,-86.1181 284.866,-75.7511 280.109,-85.2181 287.051,-86.1181"/>
</g>
<!-- Node14 -->
<g id="node15" class="node"><title>Node14</title>
<g id="a_node15"><a xlink:href="../../d0/d73/htmlattrib_8h.html" target="_top" xlink:title="htmlattrib.h">
<polygon fill="white" stroke="black" points="337.5,-56.5 337.5,-75.5 402.5,-75.5 402.5,-56.5 337.5,-56.5"/>
<text text-anchor="middle" x="370" y="-63.5" font-family="Helvetica,sans-Serif" font-size="10.00">htmlattrib.h</text>
</a>
</g>
</g>
<!-- Node12&#45;&gt;Node14 -->
<g id="edge19" class="edge"><title>Node12&#45;&gt;Node14</title>
<path fill="none" stroke="midnightblue" d="M293.621,-112.324C307.949,-103.822 330.013,-90.7288 346.749,-80.7975"/>
<polygon fill="midnightblue" stroke="midnightblue" points="348.602,-83.7677 355.416,-75.6545 345.03,-77.7478 348.602,-83.7677"/>
</g>
<!-- Node14&#45;&gt;Node6 -->
<g id="edge21" class="edge"><title>Node14&#45;&gt;Node6</title>
<path fill="none" stroke="midnightblue" d="M337.992,-56.4435C300.063,-46.3041 237.268,-29.5173 199.543,-19.4324"/>
<polygon fill="midnightblue" stroke="midnightblue" points="200.174,-15.9781 189.609,-16.7767 198.366,-22.7407 200.174,-15.9781"/>
</g>
<!-- Node14&#45;&gt;Node9 -->
<g id="edge20" class="edge"><title>Node14&#45;&gt;Node9</title>
<path fill="none" stroke="midnightblue" d="M379.801,-56.324C388.818,-48.3414 402.406,-36.3128 413.318,-26.6529"/>
<polygon fill="midnightblue" stroke="midnightblue" points="415.853,-29.083 421.021,-19.8339 411.213,-23.8416 415.853,-29.083"/>
</g>
<!-- Node15&#45;&gt;Node1 -->
<g id="edge23" class="edge"><title>Node15&#45;&gt;Node1</title>
<path fill="none" stroke="midnightblue" d="M500.298,-168.273C507.615,-159.376 519.049,-145.063 528,-132 538.67,-116.428 549.627,-97.9003 557.199,-84.6174"/>
<polygon fill="midnightblue" stroke="midnightblue" points="560.41,-86.0485 562.269,-75.6181 554.311,-82.6125 560.41,-86.0485"/>
</g>
<!-- Node16 -->
<g id="node17" class="node"><title>Node16</title>
<polygon fill="white" stroke="#bfbfbf" points="467,-112.5 467,-131.5 519,-131.5 519,-112.5 467,-112.5"/>
<text text-anchor="middle" x="493" y="-119.5" font-family="Helvetica,sans-Serif" font-size="10.00">stdarg.h</text>
</g>
<!-- Node15&#45;&gt;Node16 -->
<g id="edge24" class="edge"><title>Node15&#45;&gt;Node16</title>
<path fill="none" stroke="midnightblue" d="M493,-168.083C493,-161.006 493,-150.861 493,-141.986"/>
<polygon fill="midnightblue" stroke="midnightblue" points="496.5,-141.751 493,-131.751 489.5,-141.751 496.5,-141.751"/>
</g>
<!-- Node18 -->
<g id="node19" class="node"><title>Node18</title>
<polygon fill="white" stroke="#bfbfbf" points="369,-112.5 369,-131.5 449,-131.5 449,-112.5 369,-112.5"/>
<text text-anchor="middle" x="409" y="-119.5" font-family="Helvetica,sans-Serif" font-size="10.00">configvalues.h</text>
</g>
<!-- Node17&#45;&gt;Node18 -->
<g id="edge26" class="edge"><title>Node17&#45;&gt;Node18</title>
<path fill="none" stroke="midnightblue" d="M409,-168.083C409,-161.006 409,-150.861 409,-141.986"/>
<polygon fill="midnightblue" stroke="midnightblue" points="412.5,-141.751 409,-131.751 405.5,-141.751 412.5,-141.751"/>
</g>
<!-- Node19&#45;&gt;Node1 -->
<g id="edge29" class="edge"><title>Node19&#45;&gt;Node1</title>
<path fill="none" stroke="midnightblue" d="M612.155,-168.368C604.176,-150.456 585.675,-108.923 574.995,-84.9482"/>
<polygon fill="midnightblue" stroke="midnightblue" points="578.093,-83.3019 570.827,-75.5914 571.699,-86.1503 578.093,-83.3019"/>
</g>
<!-- Node20 -->
<g id="node21" class="node"><title>Node20</title>
<polygon fill="white" stroke="#bfbfbf" points="613,-112.5 613,-131.5 681,-131.5 681,-112.5 613,-112.5"/>
<text text-anchor="middle" x="647" y="-119.5" font-family="Helvetica,sans-Serif" font-size="10.00">sys/types.h</text>
</g>
<!-- Node19&#45;&gt;Node20 -->
<g id="edge28" class="edge"><title>Node19&#45;&gt;Node20</title>
<path fill="none" stroke="midnightblue" d="M621.119,-168.083C625.408,-160.613 631.658,-149.724 636.942,-140.52"/>
<polygon fill="midnightblue" stroke="midnightblue" points="640.033,-142.166 641.976,-131.751 633.962,-138.681 640.033,-142.166"/>
</g>
<!-- Node21 -->
<g id="node22" class="node"><title>Node21</title>
<polygon fill="white" stroke="#bfbfbf" points="699,-112.5 699,-131.5 755,-131.5 755,-112.5 699,-112.5"/>
<text text-anchor="middle" x="727" y="-119.5" font-family="Helvetica,sans-Serif" font-size="10.00">qglobal.h</text>
</g>
<!-- Node19&#45;&gt;Node21 -->
<g id="edge30" class="edge"><title>Node19&#45;&gt;Node21</title>
<path fill="none" stroke="midnightblue" d="M633.834,-168.324C651.716,-159.625 679.475,-146.12 700.046,-136.113"/>
<polygon fill="midnightblue" stroke="midnightblue" points="701.749,-139.177 709.21,-131.655 698.687,-132.882 701.749,-139.177"/>
</g>
</g>
</svg>
