<?xml version="1.0" encoding="UTF-8" standalone="no"?>
<!DOCTYPE svg PUBLIC "-//W3C//DTD SVG 1.1//EN"
 "http://www.w3.org/Graphics/SVG/1.1/DTD/svg11.dtd">
<!-- Generated by graphviz version 2.38.0 (20140413.2041)
 -->
<!-- Title: FileName Pages: 1 -->
<svg width="97pt" height="140pt"
 viewBox="0.00 0.00 97.00 140.00" xmlns="http://www.w3.org/2000/svg" xmlns:xlink="http://www.w3.org/1999/xlink">
<g id="graph0" class="graph" transform="scale(1 1) rotate(0) translate(4 136)">
<title>FileName</title>
<polygon fill="white" stroke="none" points="-4,4 -4,-136 93,-136 93,4 -4,4"/>
<!-- Node3 -->
<g id="node1" class="node"><title>Node3</title>
<polygon fill="#bfbfbf" stroke="black" points="15,-0.5 15,-19.5 74,-19.5 74,-0.5 15,-0.5"/>
<text text-anchor="middle" x="44.5" y="-7.5" font-family="Helvetica,sans-Serif" font-size="10.00">FileName</text>
</g>
<!-- Node4 -->
<g id="node2" class="node"><title>Node4</title>
<g id="a_node2"><a xlink:href="../../d0/d18/class_file_list.html" target="_top" xlink:title="Class representing a list of FileDef objects. ">
<polygon fill="white" stroke="black" points="20.5,-56.5 20.5,-75.5 68.5,-75.5 68.5,-56.5 20.5,-56.5"/>
<text text-anchor="middle" x="44.5" y="-63.5" font-family="Helvetica,sans-Serif" font-size="10.00">FileList</text>
</a>
</g>
</g>
<!-- Node4&#45;&gt;Node3 -->
<g id="edge1" class="edge"><title>Node4&#45;&gt;Node3</title>
<path fill="none" stroke="midnightblue" d="M44.5,-45.8045C44.5,-36.9102 44.5,-26.7798 44.5,-19.7511"/>
<polygon fill="midnightblue" stroke="midnightblue" points="41.0001,-46.083 44.5,-56.083 48.0001,-46.083 41.0001,-46.083"/>
</g>
<!-- Node5 -->
<g id="node3" class="node"><title>Node5</title>
<polygon fill="white" stroke="#bfbfbf" points="-7.10543e-15,-112.5 -7.10543e-15,-131.5 89,-131.5 89,-112.5 -7.10543e-15,-112.5"/>
<text text-anchor="middle" x="44.5" y="-119.5" font-family="Helvetica,sans-Serif" font-size="10.00">QList&lt; FileDef &gt;</text>
</g>
<!-- Node5&#45;&gt;Node4 -->
<g id="edge2" class="edge"><title>Node5&#45;&gt;Node4</title>
<path fill="none" stroke="midnightblue" d="M44.5,-101.805C44.5,-92.9102 44.5,-82.7798 44.5,-75.7511"/>
<polygon fill="midnightblue" stroke="midnightblue" points="41.0001,-102.083 44.5,-112.083 48.0001,-102.083 41.0001,-102.083"/>
</g>
</g>
</svg>
