<?xml version="1.0" encoding="UTF-8" standalone="no"?>
<!DOCTYPE svg PUBLIC "-//W3C//DTD SVG 1.1//EN"
 "http://www.w3.org/Graphics/SVG/1.1/DTD/svg11.dtd">
<!-- Generated by graphviz version 2.38.0 (20140413.2041)
 -->
<!-- Title: IncludeInfo Pages: 1 -->
<svg width="1833pt" height="551pt"
 viewBox="0.00 0.00 1833.00 550.91" xmlns="http://www.w3.org/2000/svg" xmlns:xlink="http://www.w3.org/1999/xlink">
<g id="graph0" class="graph" transform="scale(1 1) rotate(0) translate(4 546.912)">
<title>IncludeInfo</title>
<polygon fill="white" stroke="none" points="-4,4 -4,-546.912 1829,-546.912 1829,4 -4,4"/>
<!-- Node1 -->
<g id="node1" class="node"><title>Node1</title>
<polygon fill="#bfbfbf" stroke="black" points="1284.5,-358.412 1284.5,-377.412 1349.5,-377.412 1349.5,-358.412 1284.5,-358.412"/>
<text text-anchor="middle" x="1317" y="-365.412" font-family="Helvetica,sans-Serif" font-size="10.00">IncludeInfo</text>
</g>
<!-- Node2 -->
<g id="node2" class="node"><title>Node2</title>
<g id="a_node2"><a xlink:href="../../de/db0/class_file_def.html" target="_top" xlink:title="A model of a file symbol. ">
<polygon fill="white" stroke="black" points="1092,-362.412 1092,-381.412 1140,-381.412 1140,-362.412 1092,-362.412"/>
<text text-anchor="middle" x="1116" y="-369.412" font-family="Helvetica,sans-Serif" font-size="10.00">FileDef</text>
</a>
</g>
</g>
<!-- Node2&#45;&gt;Node1 -->
<g id="edge1" class="edge"><title>Node2&#45;&gt;Node1</title>
<path fill="none" stroke="#9a32cd" stroke-dasharray="5,2" d="M1150.58,-371.237C1187.96,-370.486 1247.89,-369.281 1284.43,-368.547"/>
<polygon fill="#9a32cd" stroke="#9a32cd" points="1150.14,-367.745 1140.22,-371.445 1150.29,-374.744 1150.14,-367.745"/>
<text text-anchor="middle" x="1222.5" y="-372.912" font-family="Helvetica,sans-Serif" font-size="10.00"> fileDef</text>
</g>
<!-- Node14 -->
<g id="node14" class="node"><title>Node14</title>
<g id="a_node14"><a xlink:href="../../db/dab/struct_body_info.html" target="_top" xlink:title="Data associated with description found in the body. ">
<polygon fill="white" stroke="black" points="1289,-320.412 1289,-339.412 1345,-339.412 1345,-320.412 1289,-320.412"/>
<text text-anchor="middle" x="1317" y="-327.412" font-family="Helvetica,sans-Serif" font-size="10.00">BodyInfo</text>
</a>
</g>
</g>
<!-- Node2&#45;&gt;Node14 -->
<g id="edge15" class="edge"><title>Node2&#45;&gt;Node14</title>
<path fill="none" stroke="#9a32cd" stroke-dasharray="5,2" d="M1150.02,-362.462C1160.8,-359.53 1172.87,-356.415 1184,-353.912 1220.02,-345.814 1262.04,-338.543 1288.82,-334.18"/>
<polygon fill="#9a32cd" stroke="#9a32cd" points="1148.85,-359.154 1140.14,-365.19 1150.71,-365.901 1148.85,-359.154"/>
<text text-anchor="middle" x="1222.5" y="-356.912" font-family="Helvetica,sans-Serif" font-size="10.00"> fileDef</text>
</g>
<!-- Node3 -->
<g id="node3" class="node"><title>Node3</title>
<g id="a_node3"><a xlink:href="../../d5/dcc/class_definition.html" target="_top" xlink:title="The common base class of all entity definitions found in the sources. ">
<polygon fill="white" stroke="black" points="1637,-343.412 1637,-362.412 1695,-362.412 1695,-343.412 1637,-343.412"/>
<text text-anchor="middle" x="1666" y="-350.412" font-family="Helvetica,sans-Serif" font-size="10.00">Definition</text>
</a>
</g>
</g>
<!-- Node3&#45;&gt;Node2 -->
<g id="edge2" class="edge"><title>Node3&#45;&gt;Node2</title>
<path fill="none" stroke="midnightblue" d="M1633.49,-366.223C1567.78,-392.34 1411.23,-445.992 1279,-424.912 1227.13,-416.643 1169.31,-394.361 1138.72,-381.474"/>
<polygon fill="midnightblue" stroke="midnightblue" points="1634.92,-369.423 1642.88,-362.433 1632.3,-362.932 1634.92,-369.423"/>
</g>
<!-- Node6 -->
<g id="node6" class="node"><title>Node6</title>
<g id="a_node6"><a xlink:href="../../d3/ddf/class_definition_impl.html" target="_top" xlink:title="Private data associated with a Symbol Definition object. ">
<polygon fill="white" stroke="black" points="1462,-320.412 1462,-339.412 1539,-339.412 1539,-320.412 1462,-320.412"/>
<text text-anchor="middle" x="1500.5" y="-327.412" font-family="Helvetica,sans-Serif" font-size="10.00">DefinitionImpl</text>
</a>
</g>
</g>
<!-- Node3&#45;&gt;Node6 -->
<g id="edge27" class="edge"><title>Node3&#45;&gt;Node6</title>
<path fill="none" stroke="#9a32cd" stroke-dasharray="5,2" d="M1626.77,-348.102C1608.38,-345.736 1586.03,-342.78 1566,-339.912 1557.36,-338.676 1548.09,-337.278 1539.34,-335.929"/>
<polygon fill="#9a32cd" stroke="#9a32cd" points="1626.45,-351.59 1636.81,-349.388 1627.34,-344.647 1626.45,-351.59"/>
<text text-anchor="middle" x="1592.5" y="-348.912" font-family="Helvetica,sans-Serif" font-size="10.00"> outerScope</text>
</g>
<!-- Node36 -->
<g id="node36" class="node"><title>Node36</title>
<g id="a_node36"><a xlink:href="../../d4/dd4/class_dir_def.html" target="_top" xlink:title="A model of a directory symbol. ">
<polygon fill="white" stroke="black" points="1780,-312.412 1780,-331.412 1825,-331.412 1825,-312.412 1780,-312.412"/>
<text text-anchor="middle" x="1802.5" y="-319.412" font-family="Helvetica,sans-Serif" font-size="10.00">DirDef</text>
</a>
</g>
</g>
<!-- Node3&#45;&gt;Node36 -->
<g id="edge50" class="edge"><title>Node3&#45;&gt;Node36</title>
<path fill="none" stroke="midnightblue" d="M1705.15,-344.119C1729.38,-338.535 1759.86,-331.51 1779.97,-326.875"/>
<polygon fill="midnightblue" stroke="midnightblue" points="1704.15,-340.757 1695.2,-346.414 1705.73,-347.578 1704.15,-340.757"/>
</g>
<!-- Node4 -->
<g id="node4" class="node"><title>Node4</title>
<g id="a_node4"><a xlink:href="../../d9/d4a/class_definition_intf.html" target="_top" xlink:title="Abstract interface for a Definition or DefinitionList. ">
<polygon fill="white" stroke="black" points="1464.5,-282.412 1464.5,-301.412 1536.5,-301.412 1536.5,-282.412 1464.5,-282.412"/>
<text text-anchor="middle" x="1500.5" y="-289.412" font-family="Helvetica,sans-Serif" font-size="10.00">DefinitionIntf</text>
</a>
</g>
</g>
<!-- Node4&#45;&gt;Node3 -->
<g id="edge3" class="edge"><title>Node4&#45;&gt;Node3</title>
<path fill="none" stroke="midnightblue" d="M1546.62,-297.821C1569.09,-301.862 1596.24,-308.443 1619,-318.912 1632.35,-325.055 1645.64,-335.459 1654.48,-343.144"/>
<polygon fill="midnightblue" stroke="midnightblue" points="1547.1,-294.353 1536.65,-296.139 1545.93,-301.255 1547.1,-294.353"/>
</g>
<!-- Node5 -->
<g id="node5" class="node"><title>Node5</title>
<g id="a_node5"><a xlink:href="../../d1/d2f/struct_definition_1_1_cookie.html" target="_top" xlink:title="Definition::Cookie">
<polygon fill="white" stroke="black" points="1453,-449.412 1453,-468.412 1548,-468.412 1548,-449.412 1453,-449.412"/>
<text text-anchor="middle" x="1500.5" y="-456.412" font-family="Helvetica,sans-Serif" font-size="10.00">Definition::Cookie</text>
</a>
</g>
</g>
<!-- Node5&#45;&gt;Node3 -->
<g id="edge4" class="edge"><title>Node5&#45;&gt;Node3</title>
<path fill="none" stroke="#9a32cd" stroke-dasharray="5,2" d="M1558.09,-457.077C1578.85,-454.031 1601.51,-447.676 1619,-434.912 1644.18,-416.531 1657.39,-379.932 1662.48,-362.532"/>
<polygon fill="#9a32cd" stroke="#9a32cd" points="1557.58,-453.614 1548.09,-458.32 1558.44,-460.56 1557.58,-453.614"/>
<text text-anchor="middle" x="1592.5" y="-457.912" font-family="Helvetica,sans-Serif" font-size="10.00"> m_cookie</text>
</g>
<!-- Node6&#45;&gt;Node3 -->
<g id="edge5" class="edge"><title>Node6&#45;&gt;Node3</title>
<path fill="none" stroke="#9a32cd" stroke-dasharray="5,2" d="M1549.32,-324.2C1570.9,-322.971 1596.52,-323.401 1619,-328.912 1630.37,-331.701 1642.06,-337.846 1650.8,-343.22"/>
<polygon fill="#9a32cd" stroke="#9a32cd" points="1548.82,-320.727 1539.09,-324.922 1549.31,-327.71 1548.82,-320.727"/>
<text text-anchor="middle" x="1592.5" y="-331.912" font-family="Helvetica,sans-Serif" font-size="10.00"> m_impl</text>
</g>
<!-- Node7 -->
<g id="node7" class="node"><title>Node7</title>
<g id="a_node7"><a xlink:href="../../de/d9a/class_section_dict.html" target="_top" xlink:title="Unsorted dictionary of SectionInfo objects. ">
<polygon fill="white" stroke="black" points="962.5,-267.412 962.5,-286.412 1030.5,-286.412 1030.5,-267.412 962.5,-267.412"/>
<text text-anchor="middle" x="996.5" y="-274.412" font-family="Helvetica,sans-Serif" font-size="10.00">SectionDict</text>
</a>
</g>
</g>
<!-- Node7&#45;&gt;Node6 -->
<g id="edge6" class="edge"><title>Node7&#45;&gt;Node6</title>
<path fill="none" stroke="#9a32cd" stroke-dasharray="5,2" d="M1041.07,-271.755C1108.74,-264.791 1242.98,-255.166 1355,-272.912 1391.93,-278.762 1401.35,-282.613 1435,-298.912 1443.65,-303.104 1444.51,-306.405 1453,-310.912 1459.47,-314.346 1466.7,-317.573 1473.5,-320.358"/>
<polygon fill="#9a32cd" stroke="#9a32cd" points="1040.37,-268.309 1030.79,-272.845 1041.11,-275.27 1040.37,-268.309"/>
<text text-anchor="middle" x="1222.5" y="-266.912" font-family="Helvetica,sans-Serif" font-size="10.00"> sectionDict</text>
</g>
<!-- Node8 -->
<g id="node8" class="node"><title>Node8</title>
<g id="a_node8"><a xlink:href="../../d1/d50/class_s_dict.html" target="_top" xlink:title="SDict\&lt; SectionInfo \&gt;">
<polygon fill="white" stroke="black" points="620.5,-250.412 620.5,-269.412 729.5,-269.412 729.5,-250.412 620.5,-250.412"/>
<text text-anchor="middle" x="675" y="-257.412" font-family="Helvetica,sans-Serif" font-size="10.00">SDict&lt; SectionInfo &gt;</text>
</a>
</g>
</g>
<!-- Node8&#45;&gt;Node7 -->
<g id="edge7" class="edge"><title>Node8&#45;&gt;Node7</title>
<path fill="none" stroke="midnightblue" d="M739.709,-267.305C746.219,-267.915 752.738,-268.467 759,-268.912 831.328,-274.05 916.342,-275.906 962.168,-276.563"/>
<polygon fill="midnightblue" stroke="midnightblue" points="739.82,-263.8 729.526,-266.306 739.136,-270.766 739.82,-263.8"/>
</g>
<!-- Node9 -->
<g id="node9" class="node"><title>Node9</title>
<g id="a_node9"><a xlink:href="../../df/dce/class_s_list.html" target="_top" xlink:title="SList\&lt; SectionInfo \&gt;">
<polygon fill="white" stroke="black" points="820,-208.412 820,-227.412 927,-227.412 927,-208.412 820,-208.412"/>
<text text-anchor="middle" x="873.5" y="-215.412" font-family="Helvetica,sans-Serif" font-size="10.00">SList&lt; SectionInfo &gt;</text>
</a>
</g>
</g>
<!-- Node8&#45;&gt;Node9 -->
<g id="edge10" class="edge"><title>Node8&#45;&gt;Node9</title>
<path fill="none" stroke="#9a32cd" stroke-dasharray="5,2" d="M711.119,-246.911C725.754,-241.908 743.031,-236.533 759,-232.912 778.675,-228.451 800.591,-225.17 819.877,-222.834"/>
<polygon fill="#9a32cd" stroke="#9a32cd" points="709.742,-243.684 701.458,-250.289 712.053,-250.292 709.742,-243.684"/>
<text text-anchor="middle" x="780.5" y="-235.912" font-family="Helvetica,sans-Serif" font-size="10.00"> m_owner</text>
</g>
<!-- Node9&#45;&gt;Node8 -->
<g id="edge8" class="edge"><title>Node9&#45;&gt;Node8</title>
<path fill="none" stroke="#9a32cd" stroke-dasharray="5,2" d="M843.199,-231.587C830.747,-236.859 815.914,-242.443 802,-245.912 778.615,-251.743 752.183,-255.147 729.589,-257.134"/>
<polygon fill="#9a32cd" stroke="#9a32cd" points="844.851,-234.685 852.612,-227.472 842.048,-228.271 844.851,-234.685"/>
<text text-anchor="middle" x="780.5" y="-256.912" font-family="Helvetica,sans-Serif" font-size="10.00"> m_list</text>
</g>
<!-- Node10 -->
<g id="node10" class="node"><title>Node10</title>
<polygon fill="white" stroke="#bfbfbf" points="621.5,-204.412 621.5,-223.412 728.5,-223.412 728.5,-204.412 621.5,-204.412"/>
<text text-anchor="middle" x="675" y="-211.412" font-family="Helvetica,sans-Serif" font-size="10.00">QList&lt; SectionInfo &gt;</text>
</g>
<!-- Node10&#45;&gt;Node9 -->
<g id="edge9" class="edge"><title>Node10&#45;&gt;Node9</title>
<path fill="none" stroke="midnightblue" d="M738.75,-213.983C758.946,-214.12 781.421,-214.393 802,-214.912 807.756,-215.057 813.775,-215.25 819.766,-215.469"/>
<polygon fill="midnightblue" stroke="midnightblue" points="738.749,-210.483 728.729,-213.925 738.708,-217.483 738.749,-210.483"/>
</g>
<!-- Node11 -->
<g id="node11" class="node"><title>Node11</title>
<g id="a_node11"><a xlink:href="../../df/dce/class_s_list.html" target="_top" xlink:title="internal wrapper class that redirects compareValues() to the dictionary ">
<polygon fill="white" stroke="black" points="132.5,-188.412 132.5,-207.412 195.5,-207.412 195.5,-188.412 132.5,-188.412"/>
<text text-anchor="middle" x="164" y="-195.412" font-family="Helvetica,sans-Serif" font-size="10.00">SList&lt; T &gt;</text>
</a>
</g>
</g>
<!-- Node11&#45;&gt;Node9 -->
<g id="edge11" class="edge"><title>Node11&#45;&gt;Node9</title>
<path fill="none" stroke="orange" stroke-dasharray="5,2" d="M205.841,-192.443C281.737,-183.004 449.656,-165.531 591,-174.912 658.109,-179.366 674.528,-184.672 741,-194.912 767.342,-198.97 796.554,-204.024 820.741,-208.359"/>
<polygon fill="orange" stroke="orange" points="205.237,-188.991 195.754,-193.717 206.114,-195.936 205.237,-188.991"/>
<text text-anchor="middle" x="546" y="-177.912" font-family="Helvetica,sans-Serif" font-size="10.00"> &lt; SectionInfo &gt;</text>
</g>
<!-- Node17 -->
<g id="node17" class="node"><title>Node17</title>
<g id="a_node17"><a xlink:href="../../df/dce/class_s_list.html" target="_top" xlink:title="SList\&lt; MemberDef \&gt;">
<polygon fill="white" stroke="black" points="364,-30.4122 364,-49.4122 472,-49.4122 472,-30.4122 364,-30.4122"/>
<text text-anchor="middle" x="418" y="-37.4122" font-family="Helvetica,sans-Serif" font-size="10.00">SList&lt; MemberDef &gt;</text>
</a>
</g>
</g>
<!-- Node11&#45;&gt;Node17 -->
<g id="edge21" class="edge"><title>Node11&#45;&gt;Node17</title>
<path fill="none" stroke="orange" stroke-dasharray="5,2" d="M178.555,-180.187C193.284,-161.888 218.31,-133.467 245,-114.912 289.803,-83.7654 349.611,-61.2693 385.608,-49.4377"/>
<polygon fill="orange" stroke="orange" points="175.627,-178.248 172.189,-188.269 181.126,-182.579 175.627,-178.248"/>
<text text-anchor="middle" x="290" y="-117.912" font-family="Helvetica,sans-Serif" font-size="10.00"> &lt; MemberDef &gt;</text>
</g>
<!-- Node25 -->
<g id="node25" class="node"><title>Node25</title>
<g id="a_node25"><a xlink:href="../../df/dce/class_s_list.html" target="_top" xlink:title="SList\&lt; ClassDef \&gt;">
<polygon fill="white" stroke="black" points="369,-85.4122 369,-104.412 467,-104.412 467,-85.4122 369,-85.4122"/>
<text text-anchor="middle" x="418" y="-92.4122" font-family="Helvetica,sans-Serif" font-size="10.00">SList&lt; ClassDef &gt;</text>
</a>
</g>
</g>
<!-- Node11&#45;&gt;Node25 -->
<g id="edge33" class="edge"><title>Node11&#45;&gt;Node25</title>
<path fill="none" stroke="orange" stroke-dasharray="5,2" d="M186.962,-182.726C202.564,-172.518 224.331,-159.425 245,-150.912 283.175,-135.19 295.764,-140.758 335,-127.912 355.855,-121.084 378.997,-111.587 395.364,-104.534"/>
<polygon fill="orange" stroke="orange" points="184.917,-179.882 178.543,-188.345 188.803,-185.704 184.917,-179.882"/>
<text text-anchor="middle" x="290" y="-153.912" font-family="Helvetica,sans-Serif" font-size="10.00"> &lt; ClassDef &gt;</text>
</g>
<!-- Node28 -->
<g id="node28" class="node"><title>Node28</title>
<g id="a_node28"><a xlink:href="../../df/dce/class_s_list.html" target="_top" xlink:title="SList\&lt; Definition \&gt;">
<polygon fill="white" stroke="black" points="369,-302.412 369,-321.412 467,-321.412 467,-302.412 369,-302.412"/>
<text text-anchor="middle" x="418" y="-309.412" font-family="Helvetica,sans-Serif" font-size="10.00">SList&lt; Definition &gt;</text>
</a>
</g>
</g>
<!-- Node11&#45;&gt;Node28 -->
<g id="edge39" class="edge"><title>Node11&#45;&gt;Node28</title>
<path fill="none" stroke="orange" stroke-dasharray="5,2" d="M205.938,-201.526C242.18,-206.279 295.331,-217.167 335,-241.912 345.43,-248.418 344.071,-254.463 353,-262.912 368.958,-278.013 389.414,-293.021 402.849,-302.371"/>
<polygon fill="orange" stroke="orange" points="206.077,-198.018 195.729,-200.291 205.236,-204.967 206.077,-198.018"/>
<text text-anchor="middle" x="290" y="-244.912" font-family="Helvetica,sans-Serif" font-size="10.00"> &lt; Definition &gt;</text>
</g>
<!-- Node43 -->
<g id="node43" class="node"><title>Node43</title>
<g id="a_node43"><a xlink:href="../../df/dce/class_s_list.html" target="_top" xlink:title="SList\&lt; NamespaceDef \&gt;">
<polygon fill="white" stroke="black" points="355.5,-404.412 355.5,-423.412 480.5,-423.412 480.5,-404.412 355.5,-404.412"/>
<text text-anchor="middle" x="418" y="-411.412" font-family="Helvetica,sans-Serif" font-size="10.00">SList&lt; NamespaceDef &gt;</text>
</a>
</g>
</g>
<!-- Node11&#45;&gt;Node43 -->
<g id="edge61" class="edge"><title>Node11&#45;&gt;Node43</title>
<path fill="none" stroke="orange" stroke-dasharray="5,2" d="M183.885,-214.099C233.439,-256.574 366.093,-370.278 405.69,-404.218"/>
<polygon fill="orange" stroke="orange" points="186.024,-211.323 176.153,-207.472 181.468,-216.637 186.024,-211.323"/>
<text text-anchor="middle" x="290" y="-339.912" font-family="Helvetica,sans-Serif" font-size="10.00"> &lt; NamespaceDef &gt;</text>
</g>
<!-- Node12 -->
<g id="node12" class="node"><title>Node12</title>
<polygon fill="white" stroke="#bfbfbf" points="0,-385.412 0,-404.412 64,-404.412 64,-385.412 0,-385.412"/>
<text text-anchor="middle" x="32" y="-392.412" font-family="Helvetica,sans-Serif" font-size="10.00">QList&lt; T &gt;</text>
</g>
<!-- Node12&#45;&gt;Node11 -->
<g id="edge12" class="edge"><title>Node12&#45;&gt;Node11</title>
<path fill="none" stroke="midnightblue" d="M44.7826,-377.057C71.4696,-336.616 135.813,-239.112 156.487,-207.783"/>
<polygon fill="midnightblue" stroke="midnightblue" points="41.8568,-375.136 39.2702,-385.41 47.6993,-378.992 41.8568,-375.136"/>
</g>
<!-- Node34 -->
<g id="node34" class="node"><title>Node34</title>
<g id="a_node34"><a xlink:href="../../d8/d9a/class_s_int_list.html" target="_top" xlink:title="internal wrapper class that redirects compareValues() to the dictionary ">
<polygon fill="white" stroke="black" points="127,-510.412 127,-529.412 201,-529.412 201,-510.412 127,-510.412"/>
<text text-anchor="middle" x="164" y="-517.412" font-family="Helvetica,sans-Serif" font-size="10.00">SIntList&lt; T &gt;</text>
</a>
</g>
</g>
<!-- Node12&#45;&gt;Node34 -->
<g id="edge47" class="edge"><title>Node12&#45;&gt;Node34</title>
<path fill="none" stroke="midnightblue" d="M40.2444,-413.763C50.3216,-437.52 70.8024,-478.009 101,-500.912 108.535,-506.627 117.8,-510.637 126.849,-513.446"/>
<polygon fill="midnightblue" stroke="midnightblue" points="43.4593,-412.377 36.4564,-404.427 36.9728,-415.009 43.4593,-412.377"/>
</g>
<!-- Node13 -->
<g id="node13" class="node"><title>Node13</title>
<g id="a_node13"><a xlink:href="../../d1/d50/class_s_dict.html" target="_top" xlink:title="Ordered dictionary of elements of type T. ">
<polygon fill="white" stroke="black" points="385.5,-234.412 385.5,-253.412 450.5,-253.412 450.5,-234.412 385.5,-234.412"/>
<text text-anchor="middle" x="418" y="-241.412" font-family="Helvetica,sans-Serif" font-size="10.00">SDict&lt; T &gt;</text>
</a>
</g>
</g>
<!-- Node13&#45;&gt;Node8 -->
<g id="edge13" class="edge"><title>Node13&#45;&gt;Node8</title>
<path fill="none" stroke="orange" stroke-dasharray="5,2" d="M461.07,-242.133C495.954,-241.143 546.807,-240.821 591,-244.912 603.539,-246.073 617.021,-248.147 629.396,-250.389"/>
<polygon fill="orange" stroke="orange" points="460.666,-238.644 450.781,-242.458 460.887,-245.641 460.666,-238.644"/>
<text text-anchor="middle" x="546" y="-247.912" font-family="Helvetica,sans-Serif" font-size="10.00"> &lt; SectionInfo &gt;</text>
</g>
<!-- Node16 -->
<g id="node16" class="node"><title>Node16</title>
<g id="a_node16"><a xlink:href="../../d1/d50/class_s_dict.html" target="_top" xlink:title="SDict\&lt; MemberDef \&gt;">
<polygon fill="white" stroke="black" points="620,-45.4122 620,-64.4122 730,-64.4122 730,-45.4122 620,-45.4122"/>
<text text-anchor="middle" x="675" y="-52.4122" font-family="Helvetica,sans-Serif" font-size="10.00">SDict&lt; MemberDef &gt;</text>
</a>
</g>
</g>
<!-- Node13&#45;&gt;Node16 -->
<g id="edge22" class="edge"><title>Node13&#45;&gt;Node16</title>
<path fill="none" stroke="orange" stroke-dasharray="5,2" d="M429.037,-225.342C442.402,-202.42 468.212,-163.906 501,-142.912 535.769,-120.65 554.542,-139.285 591,-119.912 600.452,-114.89 600.72,-110.695 609,-103.912 626.383,-89.6735 647.247,-74.2198 660.563,-64.5531"/>
<polygon fill="orange" stroke="orange" points="425.954,-223.685 424.088,-234.114 432.05,-227.125 425.954,-223.685"/>
<text text-anchor="middle" x="546" y="-145.912" font-family="Helvetica,sans-Serif" font-size="10.00"> &lt; MemberDef &gt;</text>
</g>
<!-- Node24 -->
<g id="node24" class="node"><title>Node24</title>
<g id="a_node24"><a xlink:href="../../d1/d50/class_s_dict.html" target="_top" xlink:title="SDict\&lt; ClassDef \&gt;">
<polygon fill="white" stroke="black" points="624.5,-113.412 624.5,-132.412 725.5,-132.412 725.5,-113.412 624.5,-113.412"/>
<text text-anchor="middle" x="675" y="-120.412" font-family="Helvetica,sans-Serif" font-size="10.00">SDict&lt; ClassDef &gt;</text>
</a>
</g>
</g>
<!-- Node13&#45;&gt;Node24 -->
<g id="edge34" class="edge"><title>Node13&#45;&gt;Node24</title>
<path fill="none" stroke="orange" stroke-dasharray="5,2" d="M460.888,-234.647C496.769,-225.705 549.126,-210.224 591,-187.912 620.075,-172.42 649.297,-146.579 664.085,-132.601"/>
<polygon fill="orange" stroke="orange" points="459.661,-231.343 450.769,-237.104 461.313,-238.145 459.661,-231.343"/>
<text text-anchor="middle" x="546" y="-225.912" font-family="Helvetica,sans-Serif" font-size="10.00"> &lt; ClassDef &gt;</text>
</g>
<!-- Node27 -->
<g id="node27" class="node"><title>Node27</title>
<g id="a_node27"><a xlink:href="../../d1/d50/class_s_dict.html" target="_top" xlink:title="SDict\&lt; Definition \&gt;">
<polygon fill="white" stroke="black" points="624.5,-316.412 624.5,-335.412 725.5,-335.412 725.5,-316.412 624.5,-316.412"/>
<text text-anchor="middle" x="675" y="-323.412" font-family="Helvetica,sans-Serif" font-size="10.00">SDict&lt; Definition &gt;</text>
</a>
</g>
</g>
<!-- Node13&#45;&gt;Node27 -->
<g id="edge40" class="edge"><title>Node13&#45;&gt;Node27</title>
<path fill="none" stroke="orange" stroke-dasharray="5,2" d="M460.454,-255.334C495.45,-265.183 546.777,-280.117 591,-294.912 610.985,-301.598 633.35,-310.006 649.825,-316.378"/>
<polygon fill="orange" stroke="orange" points="461.164,-251.898 450.59,-252.571 459.275,-258.638 461.164,-251.898"/>
<text text-anchor="middle" x="546" y="-297.912" font-family="Helvetica,sans-Serif" font-size="10.00"> &lt; Definition &gt;</text>
</g>
<!-- Node42 -->
<g id="node42" class="node"><title>Node42</title>
<g id="a_node42"><a xlink:href="../../d1/d50/class_s_dict.html" target="_top" xlink:title="SDict\&lt; NamespaceDef \&gt;">
<polygon fill="white" stroke="black" points="611,-394.412 611,-413.412 739,-413.412 739,-394.412 611,-394.412"/>
<text text-anchor="middle" x="675" y="-401.412" font-family="Helvetica,sans-Serif" font-size="10.00">SDict&lt; NamespaceDef &gt;</text>
</a>
</g>
</g>
<!-- Node13&#45;&gt;Node42 -->
<g id="edge62" class="edge"><title>Node13&#45;&gt;Node42</title>
<path fill="none" stroke="orange" stroke-dasharray="5,2" d="M443.259,-259.104C456.084,-267.923 471.507,-279.854 483,-292.912 493.526,-304.872 488.192,-314.436 501,-323.912 534.02,-348.342 553.556,-328.029 591,-344.912 619.366,-357.702 647.959,-380.793 663.06,-393.975"/>
<polygon fill="orange" stroke="orange" points="445.138,-256.15 434.875,-253.52 441.258,-261.977 445.138,-256.15"/>
<text text-anchor="middle" x="546" y="-347.912" font-family="Helvetica,sans-Serif" font-size="10.00"> &lt; NamespaceDef &gt;</text>
</g>
<!-- Node14&#45;&gt;Node6 -->
<g id="edge14" class="edge"><title>Node14&#45;&gt;Node6</title>
<path fill="none" stroke="#9a32cd" stroke-dasharray="5,2" d="M1355.18,-329.912C1386.28,-329.912 1430.44,-329.912 1461.71,-329.912"/>
<polygon fill="#9a32cd" stroke="#9a32cd" points="1355.17,-326.412 1345.17,-329.912 1355.17,-333.412 1355.17,-326.412"/>
<text text-anchor="middle" x="1404" y="-332.912" font-family="Helvetica,sans-Serif" font-size="10.00"> body</text>
</g>
<!-- Node15 -->
<g id="node15" class="node"><title>Node15</title>
<g id="a_node15"><a xlink:href="../../d6/dd6/class_member_s_dict.html" target="_top" xlink:title="A sorted dictionary of MemberDef objects. ">
<polygon fill="white" stroke="black" points="1184,-102.412 1184,-121.412 1261,-121.412 1261,-102.412 1184,-102.412"/>
<text text-anchor="middle" x="1222.5" y="-109.412" font-family="Helvetica,sans-Serif" font-size="10.00">MemberSDict</text>
</a>
</g>
</g>
<!-- Node15&#45;&gt;Node6 -->
<g id="edge16" class="edge"><title>Node15&#45;&gt;Node6</title>
<path fill="none" stroke="#9a32cd" stroke-dasharray="5,2" d="M1271.13,-117.945C1320.14,-126.807 1394.84,-148.211 1435,-198.912 1466.31,-238.431 1421.65,-271.43 1453,-310.912 1456.04,-314.737 1459.97,-317.797 1464.26,-320.245"/>
<polygon fill="#9a32cd" stroke="#9a32cd" points="1271.52,-114.462 1261.08,-116.238 1270.35,-121.363 1271.52,-114.462"/>
<text text-anchor="middle" x="1317" y="-155.912" font-family="Helvetica,sans-Serif" font-size="10.00"> sourceRefsDict</text>
<text text-anchor="middle" x="1317" y="-144.912" font-family="Helvetica,sans-Serif" font-size="10.00">sourceRefByDict</text>
</g>
<!-- Node16&#45;&gt;Node15 -->
<g id="edge17" class="edge"><title>Node16&#45;&gt;Node15</title>
<path fill="none" stroke="midnightblue" d="M740.358,-61.637C855.218,-73.6389 1092.08,-98.3887 1183.94,-107.987"/>
<polygon fill="midnightblue" stroke="midnightblue" points="740.609,-58.1442 730.299,-60.5859 739.881,-65.1063 740.609,-58.1442"/>
</g>
<!-- Node16&#45;&gt;Node17 -->
<g id="edge20" class="edge"><title>Node16&#45;&gt;Node17</title>
<path fill="none" stroke="#9a32cd" stroke-dasharray="5,2" d="M615.54,-43.8397C607.326,-42.6385 598.97,-41.6029 591,-40.9122 551.284,-37.4698 506.216,-37.3458 472.178,-38.0153"/>
<polygon fill="#9a32cd" stroke="#9a32cd" points="615.034,-47.303 625.452,-45.3751 616.106,-40.3855 615.034,-47.303"/>
<text text-anchor="middle" x="546" y="-43.9122" font-family="Helvetica,sans-Serif" font-size="10.00"> m_owner</text>
</g>
<!-- Node17&#45;&gt;Node16 -->
<g id="edge18" class="edge"><title>Node17&#45;&gt;Node16</title>
<path fill="none" stroke="#9a32cd" stroke-dasharray="5,2" d="M446.015,-25.9906C461.631,-18.7303 481.911,-10.6091 501,-6.91217 540.27,0.693385 552.367,3.45454 591,-6.91217 618.813,-14.3755 646.94,-33.6723 662.254,-45.4006"/>
<polygon fill="#9a32cd" stroke="#9a32cd" points="444.441,-22.8637 436.947,-30.3527 447.476,-29.1719 444.441,-22.8637"/>
<text text-anchor="middle" x="546" y="-9.91217" font-family="Helvetica,sans-Serif" font-size="10.00"> m_list</text>
</g>
<!-- Node18 -->
<g id="node18" class="node"><title>Node18</title>
<polygon fill="white" stroke="#bfbfbf" points="109.5,-30.4122 109.5,-49.4122 218.5,-49.4122 218.5,-30.4122 109.5,-30.4122"/>
<text text-anchor="middle" x="164" y="-37.4122" font-family="Helvetica,sans-Serif" font-size="10.00">QList&lt; MemberDef &gt;</text>
</g>
<!-- Node18&#45;&gt;Node17 -->
<g id="edge19" class="edge"><title>Node18&#45;&gt;Node17</title>
<path fill="none" stroke="midnightblue" d="M228.806,-39.9122C270.516,-39.9122 324.362,-39.9122 363.764,-39.9122"/>
<polygon fill="midnightblue" stroke="midnightblue" points="228.751,-36.4123 218.751,-39.9122 228.751,-43.4123 228.751,-36.4123"/>
</g>
<!-- Node19 -->
<g id="node19" class="node"><title>Node19</title>
<g id="a_node19"><a xlink:href="../../d3/d3b/class_group_list.html" target="_top" xlink:title="A list of GroupDef objects. ">
<polygon fill="white" stroke="black" points="1287.5,-282.412 1287.5,-301.412 1346.5,-301.412 1346.5,-282.412 1287.5,-282.412"/>
<text text-anchor="middle" x="1317" y="-289.412" font-family="Helvetica,sans-Serif" font-size="10.00">GroupList</text>
</a>
</g>
</g>
<!-- Node19&#45;&gt;Node6 -->
<g id="edge23" class="edge"><title>Node19&#45;&gt;Node6</title>
<path fill="none" stroke="#9a32cd" stroke-dasharray="5,2" d="M1356.89,-299.209C1379.68,-303.574 1409.02,-309.34 1435,-314.912 1443.66,-316.769 1452.94,-318.866 1461.69,-320.89"/>
<polygon fill="#9a32cd" stroke="#9a32cd" points="1357.38,-295.741 1346.91,-297.308 1356.07,-302.617 1357.38,-295.741"/>
<text text-anchor="middle" x="1404" y="-317.912" font-family="Helvetica,sans-Serif" font-size="10.00"> partOfGroups</text>
</g>
<!-- Node20 -->
<g id="node20" class="node"><title>Node20</title>
<polygon fill="white" stroke="#bfbfbf" points="1066,-282.412 1066,-301.412 1166,-301.412 1166,-282.412 1066,-282.412"/>
<text text-anchor="middle" x="1116" y="-289.412" font-family="Helvetica,sans-Serif" font-size="10.00">QList&lt; GroupDef &gt;</text>
</g>
<!-- Node20&#45;&gt;Node19 -->
<g id="edge24" class="edge"><title>Node20&#45;&gt;Node19</title>
<path fill="none" stroke="midnightblue" d="M1176.29,-291.912C1212.98,-291.912 1258.46,-291.912 1287.35,-291.912"/>
<polygon fill="midnightblue" stroke="midnightblue" points="1176.19,-288.412 1166.19,-291.912 1176.19,-295.412 1176.19,-288.412"/>
</g>
<!-- Node21 -->
<g id="node21" class="node"><title>Node21</title>
<g id="a_node21"><a xlink:href="../../d7/dd5/struct_doc_info.html" target="_top" xlink:title="Data associated with a detailed description. ">
<polygon fill="white" stroke="black" points="1291.5,-206.412 1291.5,-225.412 1342.5,-225.412 1342.5,-206.412 1291.5,-206.412"/>
<text text-anchor="middle" x="1317" y="-213.412" font-family="Helvetica,sans-Serif" font-size="10.00">DocInfo</text>
</a>
</g>
</g>
<!-- Node21&#45;&gt;Node6 -->
<g id="edge25" class="edge"><title>Node21&#45;&gt;Node6</title>
<path fill="none" stroke="#9a32cd" stroke-dasharray="5,2" d="M1352.65,-205.94C1378.31,-200.825 1412.57,-199.085 1435,-217.912 1467.24,-244.981 1426.3,-278.363 1453,-310.912 1456.1,-314.688 1460.06,-317.721 1464.37,-320.155"/>
<polygon fill="#9a32cd" stroke="#9a32cd" points="1351.57,-202.594 1342.58,-208.202 1353.11,-209.424 1351.57,-202.594"/>
<text text-anchor="middle" x="1404" y="-231.912" font-family="Helvetica,sans-Serif" font-size="10.00"> inbodyDocs</text>
<text text-anchor="middle" x="1404" y="-220.912" font-family="Helvetica,sans-Serif" font-size="10.00">details</text>
</g>
<!-- Node22 -->
<g id="node22" class="node"><title>Node22</title>
<g id="a_node22"><a xlink:href="../../d0/da7/struct_brief_info.html" target="_top" xlink:title="Data associated with a brief description. ">
<polygon fill="white" stroke="black" points="1290.5,-396.412 1290.5,-415.412 1343.5,-415.412 1343.5,-396.412 1290.5,-396.412"/>
<text text-anchor="middle" x="1317" y="-403.412" font-family="Helvetica,sans-Serif" font-size="10.00">BriefInfo</text>
</a>
</g>
</g>
<!-- Node22&#45;&gt;Node6 -->
<g id="edge26" class="edge"><title>Node22&#45;&gt;Node6</title>
<path fill="none" stroke="#9a32cd" stroke-dasharray="5,2" d="M1350.64,-392.246C1387.01,-377.014 1444.89,-352.78 1476.7,-339.459"/>
<polygon fill="#9a32cd" stroke="#9a32cd" points="1348.86,-389.196 1340.99,-396.287 1351.56,-395.653 1348.86,-389.196"/>
<text text-anchor="middle" x="1404" y="-383.912" font-family="Helvetica,sans-Serif" font-size="10.00"> brief</text>
</g>
<!-- Node23 -->
<g id="node23" class="node"><title>Node23</title>
<g id="a_node23"><a xlink:href="../../d9/d3d/class_class_s_dict.html" target="_top" xlink:title="A sorted dictionary of ClassDef objects. ">
<polygon fill="white" stroke="black" points="840,-145.412 840,-164.412 907,-164.412 907,-145.412 840,-145.412"/>
<text text-anchor="middle" x="873.5" y="-152.412" font-family="Helvetica,sans-Serif" font-size="10.00">ClassSDict</text>
</a>
</g>
</g>
<!-- Node23&#45;&gt;Node2 -->
<g id="edge28" class="edge"><title>Node23&#45;&gt;Node2</title>
<path fill="none" stroke="#9a32cd" stroke-dasharray="5,2" d="M916.713,-166.692C956.283,-179.879 1014.26,-205.077 1048,-246.912 1066.55,-269.912 1052.47,-284.641 1066,-310.912 1076.32,-330.96 1093.86,-350.657 1104.92,-362.029"/>
<polygon fill="#9a32cd" stroke="#9a32cd" points="917.667,-163.322 907.076,-163.595 915.525,-169.987 917.667,-163.322"/>
<text text-anchor="middle" x="996.5" y="-249.912" font-family="Helvetica,sans-Serif" font-size="10.00"> m_classSDict</text>
</g>
<!-- Node24&#45;&gt;Node23 -->
<g id="edge29" class="edge"><title>Node24&#45;&gt;Node23</title>
<path fill="none" stroke="midnightblue" d="M735.498,-132.601C769.777,-138.184 811.552,-144.987 839.894,-149.602"/>
<polygon fill="midnightblue" stroke="midnightblue" points="736.018,-129.14 725.585,-130.987 734.893,-136.049 736.018,-129.14"/>
</g>
<!-- Node24&#45;&gt;Node25 -->
<g id="edge32" class="edge"><title>Node24&#45;&gt;Node25</title>
<path fill="none" stroke="#9a32cd" stroke-dasharray="5,2" d="M614.001,-112.165C606.276,-110.966 598.461,-109.843 591,-108.912 549.379,-103.718 501.841,-100.018 467.305,-97.7311"/>
<polygon fill="#9a32cd" stroke="#9a32cd" points="613.64,-115.652 624.067,-113.776 614.746,-108.739 613.64,-115.652"/>
<text text-anchor="middle" x="546" y="-111.912" font-family="Helvetica,sans-Serif" font-size="10.00"> m_owner</text>
</g>
<!-- Node25&#45;&gt;Node24 -->
<g id="edge30" class="edge"><title>Node25&#45;&gt;Node24</title>
<path fill="none" stroke="#9a32cd" stroke-dasharray="5,2" d="M456.744,-82.5093C491.995,-72.7966 545.811,-62.7862 591,-74.9122 618.813,-82.3755 646.94,-101.672 662.254,-113.401"/>
<polygon fill="#9a32cd" stroke="#9a32cd" points="455.512,-79.2217 446.873,-85.3553 457.452,-85.9477 455.512,-79.2217"/>
<text text-anchor="middle" x="546" y="-77.9122" font-family="Helvetica,sans-Serif" font-size="10.00"> m_list</text>
</g>
<!-- Node26 -->
<g id="node26" class="node"><title>Node26</title>
<polygon fill="white" stroke="#bfbfbf" points="114.5,-73.4122 114.5,-92.4122 213.5,-92.4122 213.5,-73.4122 114.5,-73.4122"/>
<text text-anchor="middle" x="164" y="-80.4122" font-family="Helvetica,sans-Serif" font-size="10.00">QList&lt; ClassDef &gt;</text>
</g>
<!-- Node26&#45;&gt;Node25 -->
<g id="edge31" class="edge"><title>Node26&#45;&gt;Node25</title>
<path fill="none" stroke="midnightblue" d="M223.611,-85.7032C267.789,-87.8069 327.628,-90.6564 368.989,-92.6259"/>
<polygon fill="midnightblue" stroke="midnightblue" points="223.743,-82.2056 213.588,-85.2259 223.41,-89.1977 223.743,-82.2056"/>
</g>
<!-- Node27&#45;&gt;Node2 -->
<g id="edge35" class="edge"><title>Node27&#45;&gt;Node2</title>
<path fill="none" stroke="#9a32cd" stroke-dasharray="5,2" d="M735.58,-332.155C833.87,-342.454 1025.71,-362.556 1091.9,-369.491"/>
<polygon fill="#9a32cd" stroke="#9a32cd" points="735.816,-328.661 725.506,-331.1 735.086,-335.623 735.816,-328.661"/>
<text text-anchor="middle" x="873.5" y="-354.912" font-family="Helvetica,sans-Serif" font-size="10.00"> m_usingDeclList</text>
</g>
<!-- Node27&#45;&gt;Node28 -->
<g id="edge38" class="edge"><title>Node27&#45;&gt;Node28</title>
<path fill="none" stroke="#9a32cd" stroke-dasharray="5,2" d="M614.038,-315.434C606.307,-314.403 598.48,-313.516 591,-312.912 549.329,-309.547 501.796,-309.563 467.274,-310.269"/>
<polygon fill="#9a32cd" stroke="#9a32cd" points="613.717,-318.923 624.109,-316.86 614.699,-311.992 613.717,-318.923"/>
<text text-anchor="middle" x="546" y="-315.912" font-family="Helvetica,sans-Serif" font-size="10.00"> m_owner</text>
</g>
<!-- Node28&#45;&gt;Node27 -->
<g id="edge36" class="edge"><title>Node28&#45;&gt;Node27</title>
<path fill="none" stroke="#9a32cd" stroke-dasharray="5,2" d="M439.644,-327.45C455.494,-338.359 478.425,-352.013 501,-357.912 539.7,-368.026 551.675,-365.23 591,-357.912 613.926,-353.646 638.684,-343.279 655.136,-335.493"/>
<polygon fill="#9a32cd" stroke="#9a32cd" points="441.361,-324.376 431.185,-321.424 437.299,-330.077 441.361,-324.376"/>
<text text-anchor="middle" x="546" y="-366.912" font-family="Helvetica,sans-Serif" font-size="10.00"> m_list</text>
</g>
<!-- Node29 -->
<g id="node29" class="node"><title>Node29</title>
<polygon fill="white" stroke="#bfbfbf" points="114.5,-302.412 114.5,-321.412 213.5,-321.412 213.5,-302.412 114.5,-302.412"/>
<text text-anchor="middle" x="164" y="-309.412" font-family="Helvetica,sans-Serif" font-size="10.00">QList&lt; Definition &gt;</text>
</g>
<!-- Node29&#45;&gt;Node28 -->
<g id="edge37" class="edge"><title>Node29&#45;&gt;Node28</title>
<path fill="none" stroke="midnightblue" d="M223.611,-311.912C267.789,-311.912 327.628,-311.912 368.989,-311.912"/>
<polygon fill="midnightblue" stroke="midnightblue" points="223.588,-308.412 213.588,-311.912 223.588,-315.412 223.588,-308.412"/>
</g>
<!-- Node30 -->
<g id="node30" class="node"><title>Node30</title>
<g id="a_node30"><a xlink:href="../../dc/d1e/class_member_group_s_dict.html" target="_top" xlink:title="A sorted dictionary of MemberGroup objects. ">
<polygon fill="white" stroke="black" points="822,-427.412 822,-446.412 925,-446.412 925,-427.412 822,-427.412"/>
<text text-anchor="middle" x="873.5" y="-434.412" font-family="Helvetica,sans-Serif" font-size="10.00">MemberGroupSDict</text>
</a>
</g>
</g>
<!-- Node30&#45;&gt;Node2 -->
<g id="edge41" class="edge"><title>Node30&#45;&gt;Node2</title>
<path fill="none" stroke="#9a32cd" stroke-dasharray="5,2" d="M935.333,-429.873C969.091,-424.934 1011.51,-417.007 1048,-404.912 1066.09,-398.916 1085.5,-388.925 1098.74,-381.504"/>
<polygon fill="#9a32cd" stroke="#9a32cd" points="934.562,-426.447 925.15,-431.311 935.541,-433.378 934.562,-426.447"/>
<text text-anchor="middle" x="996.5" y="-430.912" font-family="Helvetica,sans-Serif" font-size="10.00"> m_memberGroupSDict</text>
</g>
<!-- Node31 -->
<g id="node31" class="node"><title>Node31</title>
<g id="a_node31"><a xlink:href="../../d0/d9f/class_s_int_dict.html" target="_top" xlink:title="SIntDict\&lt; MemberGroup \&gt;">
<polygon fill="white" stroke="black" points="609,-489.412 609,-508.412 741,-508.412 741,-489.412 609,-489.412"/>
<text text-anchor="middle" x="675" y="-496.412" font-family="Helvetica,sans-Serif" font-size="10.00">SIntDict&lt; MemberGroup &gt;</text>
</a>
</g>
</g>
<!-- Node31&#45;&gt;Node30 -->
<g id="edge42" class="edge"><title>Node31&#45;&gt;Node30</title>
<path fill="none" stroke="midnightblue" d="M715.839,-486.342C753.21,-474.551 808.282,-457.174 842.193,-446.475"/>
<polygon fill="midnightblue" stroke="midnightblue" points="714.756,-483.014 706.272,-489.361 716.862,-489.689 714.756,-483.014"/>
</g>
<!-- Node32 -->
<g id="node32" class="node"><title>Node32</title>
<g id="a_node32"><a xlink:href="../../d8/d9a/class_s_int_list.html" target="_top" xlink:title="SIntList\&lt; MemberGroup \&gt;">
<polygon fill="white" stroke="black" points="353,-510.412 353,-529.412 483,-529.412 483,-510.412 353,-510.412"/>
<text text-anchor="middle" x="418" y="-517.412" font-family="Helvetica,sans-Serif" font-size="10.00">SIntList&lt; MemberGroup &gt;</text>
</a>
</g>
</g>
<!-- Node31&#45;&gt;Node32 -->
<g id="edge45" class="edge"><title>Node31&#45;&gt;Node32</title>
<path fill="none" stroke="#9a32cd" stroke-dasharray="5,2" d="M598.463,-505.133C561.74,-508.157 518.08,-511.753 483.018,-514.64"/>
<polygon fill="#9a32cd" stroke="#9a32cd" points="598.945,-508.605 608.624,-504.296 598.37,-501.629 598.945,-508.605"/>
<text text-anchor="middle" x="546" y="-515.912" font-family="Helvetica,sans-Serif" font-size="10.00"> m_owner</text>
</g>
<!-- Node32&#45;&gt;Node31 -->
<g id="edge43" class="edge"><title>Node32&#45;&gt;Node31</title>
<path fill="none" stroke="#9a32cd" stroke-dasharray="5,2" d="M493.236,-530.27C523.708,-532.735 559.225,-533.303 591,-527.912 612.821,-524.21 636.551,-515.398 653.026,-508.452"/>
<polygon fill="#9a32cd" stroke="#9a32cd" points="493.379,-526.769 483.108,-529.367 492.758,-533.741 493.379,-526.769"/>
<text text-anchor="middle" x="546" y="-534.912" font-family="Helvetica,sans-Serif" font-size="10.00"> m_list</text>
</g>
<!-- Node33 -->
<g id="node33" class="node"><title>Node33</title>
<polygon fill="white" stroke="#bfbfbf" points="104.5,-472.412 104.5,-491.412 223.5,-491.412 223.5,-472.412 104.5,-472.412"/>
<text text-anchor="middle" x="164" y="-479.412" font-family="Helvetica,sans-Serif" font-size="10.00">QList&lt; MemberGroup &gt;</text>
</g>
<!-- Node33&#45;&gt;Node32 -->
<g id="edge44" class="edge"><title>Node33&#45;&gt;Node32</title>
<path fill="none" stroke="midnightblue" d="M234.068,-492.327C271.445,-497.963 317.285,-504.876 353.727,-510.371"/>
<polygon fill="midnightblue" stroke="midnightblue" points="234.175,-488.804 223.765,-490.774 233.131,-495.726 234.175,-488.804"/>
</g>
<!-- Node34&#45;&gt;Node32 -->
<g id="edge46" class="edge"><title>Node34&#45;&gt;Node32</title>
<path fill="none" stroke="orange" stroke-dasharray="5,2" d="M211.291,-519.912C250.969,-519.912 308.539,-519.912 352.691,-519.912"/>
<polygon fill="orange" stroke="orange" points="211.105,-516.412 201.105,-519.912 211.105,-523.412 211.105,-516.412"/>
<text text-anchor="middle" x="290" y="-522.912" font-family="Helvetica,sans-Serif" font-size="10.00"> &lt; MemberGroup &gt;</text>
</g>
<!-- Node35 -->
<g id="node35" class="node"><title>Node35</title>
<g id="a_node35"><a xlink:href="../../d0/d9f/class_s_int_dict.html" target="_top" xlink:title="Ordered dictionary of elements of type T. ">
<polygon fill="white" stroke="black" points="379.5,-472.412 379.5,-491.412 456.5,-491.412 456.5,-472.412 379.5,-472.412"/>
<text text-anchor="middle" x="418" y="-479.412" font-family="Helvetica,sans-Serif" font-size="10.00">SIntDict&lt; T &gt;</text>
</a>
</g>
</g>
<!-- Node35&#45;&gt;Node31 -->
<g id="edge48" class="edge"><title>Node35&#45;&gt;Node31</title>
<path fill="none" stroke="orange" stroke-dasharray="5,2" d="M466.968,-479.829C501.536,-478.902 549.256,-478.803 591,-482.912 604.582,-484.249 619.25,-486.726 632.422,-489.339"/>
<polygon fill="orange" stroke="orange" points="466.573,-476.339 456.683,-480.139 466.784,-483.336 466.573,-476.339"/>
<text text-anchor="middle" x="546" y="-485.912" font-family="Helvetica,sans-Serif" font-size="10.00"> &lt; MemberGroup &gt;</text>
</g>
<!-- Node36&#45;&gt;Node2 -->
<g id="edge49" class="edge"><title>Node36&#45;&gt;Node2</title>
<path fill="none" stroke="#9a32cd" stroke-dasharray="5,2" d="M1797.09,-341.403C1785.14,-388.552 1747.49,-504.912 1667,-504.912 1316,-504.912 1316,-504.912 1316,-504.912 1227.07,-504.912 1147.76,-411.973 1124.13,-381.477"/>
<polygon fill="#9a32cd" stroke="#9a32cd" points="1800.53,-342.035 1799.47,-331.493 1793.73,-340.395 1800.53,-342.035"/>
<text text-anchor="middle" x="1500.5" y="-507.912" font-family="Helvetica,sans-Serif" font-size="10.00"> m_dir</text>
</g>
<!-- Node36&#45;&gt;Node36 -->
<g id="edge55" class="edge"><title>Node36&#45;&gt;Node36</title>
<path fill="none" stroke="#9a32cd" stroke-dasharray="5,2" d="M1790.71,-341.678C1791.64,-346.409 1795.57,-349.912 1802.5,-349.912 1813.88,-349.912 1817.16,-340.477 1812.36,-331.669"/>
<polygon fill="#9a32cd" stroke="#9a32cd" points="1794.19,-342.15 1792.64,-331.669 1787.31,-340.83 1794.19,-342.15"/>
<text text-anchor="middle" x="1802.5" y="-352.912" font-family="Helvetica,sans-Serif" font-size="10.00"> m_parent</text>
</g>
<!-- Node37 -->
<g id="node37" class="node"><title>Node37</title>
<g id="a_node37"><a xlink:href="../../dc/d2a/class_dir_list.html" target="_top" xlink:title="A list of directories. ">
<polygon fill="white" stroke="black" points="1643.5,-288.412 1643.5,-307.412 1688.5,-307.412 1688.5,-288.412 1643.5,-288.412"/>
<text text-anchor="middle" x="1666" y="-295.412" font-family="Helvetica,sans-Serif" font-size="10.00">DirList</text>
</a>
</g>
</g>
<!-- Node37&#45;&gt;Node36 -->
<g id="edge51" class="edge"><title>Node37&#45;&gt;Node36</title>
<path fill="none" stroke="#9a32cd" stroke-dasharray="5,2" d="M1698.5,-302.95C1717.02,-305.978 1740.87,-309.994 1762,-313.912 1767.78,-314.984 1774.02,-316.213 1779.79,-317.382"/>
<polygon fill="#9a32cd" stroke="#9a32cd" points="1698.97,-299.481 1688.54,-301.332 1697.85,-306.391 1698.97,-299.481"/>
<text text-anchor="middle" x="1737.5" y="-316.912" font-family="Helvetica,sans-Serif" font-size="10.00"> m_subdirs</text>
</g>
<!-- Node38 -->
<g id="node38" class="node"><title>Node38</title>
<polygon fill="white" stroke="#bfbfbf" points="1457.5,-244.412 1457.5,-263.412 1543.5,-263.412 1543.5,-244.412 1457.5,-244.412"/>
<text text-anchor="middle" x="1500.5" y="-251.412" font-family="Helvetica,sans-Serif" font-size="10.00">QList&lt; DirDef &gt;</text>
</g>
<!-- Node38&#45;&gt;Node37 -->
<g id="edge52" class="edge"><title>Node38&#45;&gt;Node37</title>
<path fill="none" stroke="midnightblue" d="M1553.49,-262.117C1574.13,-265.998 1597.93,-271.26 1619,-277.912 1627.8,-280.691 1637.2,-284.598 1645.2,-288.222"/>
<polygon fill="midnightblue" stroke="midnightblue" points="1554.11,-258.672 1543.64,-260.323 1552.85,-265.558 1554.11,-258.672"/>
</g>
<!-- Node39 -->
<g id="node39" class="node"><title>Node39</title>
<g id="a_node39"><a xlink:href="../../d0/d18/class_file_list.html" target="_top" xlink:title="Class representing a list of FileDef objects. ">
<polygon fill="white" stroke="black" points="1642,-215.412 1642,-234.412 1690,-234.412 1690,-215.412 1642,-215.412"/>
<text text-anchor="middle" x="1666" y="-222.412" font-family="Helvetica,sans-Serif" font-size="10.00">FileList</text>
</a>
</g>
</g>
<!-- Node39&#45;&gt;Node36 -->
<g id="edge53" class="edge"><title>Node39&#45;&gt;Node36</title>
<path fill="none" stroke="#9a32cd" stroke-dasharray="5,2" d="M1689.83,-240.226C1709.24,-253.374 1737.74,-272.987 1762,-290.912 1771.4,-297.853 1781.78,-306.022 1789.54,-312.231"/>
<polygon fill="#9a32cd" stroke="#9a32cd" points="1691.59,-237.192 1681.35,-234.498 1687.68,-242.994 1691.59,-237.192"/>
<text text-anchor="middle" x="1737.5" y="-293.912" font-family="Helvetica,sans-Serif" font-size="10.00"> m_fileList</text>
</g>
<!-- Node40 -->
<g id="node40" class="node"><title>Node40</title>
<polygon fill="white" stroke="#bfbfbf" points="1456,-206.412 1456,-225.412 1545,-225.412 1545,-206.412 1456,-206.412"/>
<text text-anchor="middle" x="1500.5" y="-213.412" font-family="Helvetica,sans-Serif" font-size="10.00">QList&lt; FileDef &gt;</text>
</g>
<!-- Node40&#45;&gt;Node39 -->
<g id="edge54" class="edge"><title>Node40&#45;&gt;Node39</title>
<path fill="none" stroke="midnightblue" d="M1555.42,-218.88C1584.69,-220.491 1619.37,-222.401 1641.76,-223.633"/>
<polygon fill="midnightblue" stroke="midnightblue" points="1555.49,-215.379 1545.31,-218.324 1555.11,-222.368 1555.49,-215.379"/>
</g>
<!-- Node41 -->
<g id="node41" class="node"><title>Node41</title>
<g id="a_node41"><a xlink:href="../../d4/d8d/class_namespace_s_dict.html" target="_top" xlink:title="A sorted dictionary of NamespaceDef objects. ">
<polygon fill="white" stroke="black" points="826.5,-384.412 826.5,-403.412 920.5,-403.412 920.5,-384.412 826.5,-384.412"/>
<text text-anchor="middle" x="873.5" y="-391.412" font-family="Helvetica,sans-Serif" font-size="10.00">NamespaceSDict</text>
</a>
</g>
</g>
<!-- Node41&#45;&gt;Node2 -->
<g id="edge56" class="edge"><title>Node41&#45;&gt;Node2</title>
<path fill="none" stroke="#9a32cd" stroke-dasharray="5,2" d="M930.622,-384.688C935.478,-384.032 940.321,-383.428 945,-382.912 997.328,-377.149 1059.08,-374.082 1091.85,-372.748"/>
<polygon fill="#9a32cd" stroke="#9a32cd" points="930.096,-381.228 920.686,-386.096 931.078,-388.159 930.096,-381.228"/>
<text text-anchor="middle" x="996.5" y="-396.912" font-family="Helvetica,sans-Serif" font-size="10.00"> m_namespaceSDict</text>
<text text-anchor="middle" x="996.5" y="-385.912" font-family="Helvetica,sans-Serif" font-size="10.00">m_usingDirList</text>
</g>
<!-- Node42&#45;&gt;Node41 -->
<g id="edge57" class="edge"><title>Node42&#45;&gt;Node41</title>
<path fill="none" stroke="midnightblue" d="M749.401,-400.177C775.249,-398.861 803.554,-397.421 826.497,-396.253"/>
<polygon fill="midnightblue" stroke="midnightblue" points="749.065,-396.689 739.255,-400.693 749.42,-403.68 749.065,-396.689"/>
</g>
<!-- Node42&#45;&gt;Node43 -->
<g id="edge60" class="edge"><title>Node42&#45;&gt;Node43</title>
<path fill="none" stroke="#9a32cd" stroke-dasharray="5,2" d="M600.162,-406.808C562.294,-408.293 516.702,-410.081 480.728,-411.491"/>
<polygon fill="#9a32cd" stroke="#9a32cd" points="600.768,-410.287 610.623,-406.398 600.494,-403.292 600.768,-410.287"/>
<text text-anchor="middle" x="546" y="-412.912" font-family="Helvetica,sans-Serif" font-size="10.00"> m_owner</text>
</g>
<!-- Node43&#45;&gt;Node42 -->
<g id="edge58" class="edge"><title>Node43&#45;&gt;Node42</title>
<path fill="none" stroke="#9a32cd" stroke-dasharray="5,2" d="M485.093,-424.657C517.157,-428.308 556.181,-430.448 591,-425.912 609.33,-423.524 629.376,-418.288 645.176,-413.523"/>
<polygon fill="#9a32cd" stroke="#9a32cd" points="485.29,-421.155 474.941,-423.425 484.447,-428.104 485.29,-421.155"/>
<text text-anchor="middle" x="546" y="-430.912" font-family="Helvetica,sans-Serif" font-size="10.00"> m_list</text>
</g>
<!-- Node44 -->
<g id="node44" class="node"><title>Node44</title>
<polygon fill="white" stroke="#bfbfbf" points="101,-404.412 101,-423.412 227,-423.412 227,-404.412 101,-404.412"/>
<text text-anchor="middle" x="164" y="-411.412" font-family="Helvetica,sans-Serif" font-size="10.00">QList&lt; NamespaceDef &gt;</text>
</g>
<!-- Node44&#45;&gt;Node43 -->
<g id="edge59" class="edge"><title>Node44&#45;&gt;Node43</title>
<path fill="none" stroke="midnightblue" d="M237.594,-413.912C274.889,-413.912 319.845,-413.912 355.424,-413.912"/>
<polygon fill="midnightblue" stroke="midnightblue" points="237.292,-410.412 227.292,-413.912 237.292,-417.412 237.292,-410.412"/>
</g>
</g>
</svg>
