<?xml version="1.0" encoding="UTF-8" standalone="no"?>
<!DOCTYPE svg PUBLIC "-//W3C//DTD SVG 1.1//EN"
 "http://www.w3.org/Graphics/SVG/1.1/DTD/svg11.dtd">
<!-- Generated by graphviz version 2.38.0 (20140413.2041)
 -->
<!-- Title: TemplateParser Pages: 1 -->
<svg width="243pt" height="95pt"
 viewBox="0.00 0.00 243.00 95.00" xmlns="http://www.w3.org/2000/svg" xmlns:xlink="http://www.w3.org/1999/xlink">
<g id="graph0" class="graph" transform="scale(1 1) rotate(0) translate(4 91)">
<title>TemplateParser</title>
<polygon fill="white" stroke="none" points="-4,4 -4,-91 239,-91 239,4 -4,4"/>
<!-- Node1 -->
<g id="node1" class="node"><title>Node1</title>
<polygon fill="#bfbfbf" stroke="black" points="0,-0.5 0,-19.5 86,-19.5 86,-0.5 0,-0.5"/>
<text text-anchor="middle" x="43" y="-7.5" font-family="Helvetica,sans-Serif" font-size="10.00">TemplateParser</text>
</g>
<!-- Node2 -->
<g id="node2" class="node"><title>Node2</title>
<g id="a_node2"><a xlink:href="../../d0/d1d/class_template_engine.html" target="_top" xlink:title="Engine to create templates and template contexts. ">
<polygon fill="white" stroke="black" points="68.5,-67.5 68.5,-86.5 155.5,-86.5 155.5,-67.5 68.5,-67.5"/>
<text text-anchor="middle" x="112" y="-74.5" font-family="Helvetica,sans-Serif" font-size="10.00">TemplateEngine</text>
</a>
</g>
</g>
<!-- Node2&#45;&gt;Node1 -->
<g id="edge1" class="edge"><title>Node2&#45;&gt;Node1</title>
<path fill="none" stroke="#9a32cd" stroke-dasharray="5,2" d="M73.2677,-63.0119C66.4771,-59.3387 59.9972,-54.7305 55,-49 47.7248,-40.6572 44.8561,-27.8992 43.7276,-19.5038"/>
<polygon fill="#9a32cd" stroke="#9a32cd" points="72.0765,-66.3211 82.6101,-67.4588 75.085,-60.0006 72.0765,-66.3211"/>
<text text-anchor="middle" x="78" y="-41" font-family="Helvetica,sans-Serif" font-size="10.00"> m_engine</text>
</g>
<!-- Node3 -->
<g id="node3" class="node"><title>Node3</title>
<g id="a_node3"><a xlink:href="../../d5/d56/class_template_engine_1_1_private.html" target="_top" xlink:title="Private data of the template engine. ">
<polygon fill="white" stroke="black" points="111,-0.5 111,-19.5 235,-19.5 235,-0.5 111,-0.5"/>
<text text-anchor="middle" x="173" y="-7.5" font-family="Helvetica,sans-Serif" font-size="10.00">TemplateEngine::Private</text>
</a>
</g>
</g>
<!-- Node2&#45;&gt;Node3 -->
<g id="edge3" class="edge"><title>Node2&#45;&gt;Node3</title>
<path fill="none" stroke="#9a32cd" stroke-dasharray="5,2" d="M105.975,-57.2452C104.991,-50.69 105.297,-43.5816 109,-38 114.667,-29.4585 123.626,-23.6125 133.067,-19.6136"/>
<polygon fill="#9a32cd" stroke="#9a32cd" points="102.684,-58.5169 108.476,-67.3878 109.48,-56.8406 102.684,-58.5169"/>
<text text-anchor="middle" x="132" y="-41" font-family="Helvetica,sans-Serif" font-size="10.00"> m_engine</text>
</g>
<!-- Node3&#45;&gt;Node2 -->
<g id="edge2" class="edge"><title>Node3&#45;&gt;Node2</title>
<path fill="none" stroke="#9a32cd" stroke-dasharray="5,2" d="M169.024,-29.4329C166.893,-36.138 163.703,-43.4298 159,-49 152.322,-56.9093 142.705,-63.0066 133.908,-67.3887"/>
<polygon fill="#9a32cd" stroke="#9a32cd" points="172.422,-30.2713 171.566,-19.7111 165.65,-28.5001 172.422,-30.2713"/>
<text text-anchor="middle" x="169.5" y="-41" font-family="Helvetica,sans-Serif" font-size="10.00"> p</text>
</g>
</g>
</svg>
