<?xml version="1.0" encoding="UTF-8" standalone="no"?>
<!DOCTYPE svg PUBLIC "-//W3C//DTD SVG 1.1//EN"
 "http://www.w3.org/Graphics/SVG/1.1/DTD/svg11.dtd">
<!-- Generated by graphviz version 2.38.0 (20140413.2041)
 -->
<!-- Title: src/portable.h Pages: 1 -->
<!--zoomable 196 -->
<svg id="main" version="1.1" xmlns="http://www.w3.org/2000/svg" xmlns:xlink="http://www.w3.org/1999/xlink" xml:space="preserve" onload="init(evt)">
<style type="text/css"><![CDATA[
.edge:hover path { stroke: red; }
.edge:hover polygon { stroke: red; fill: red; }
]]></style>
<script type="text/javascript"><![CDATA[
var edges = document.getElementsByTagName('g');
if (edges && edges.length) {
  for (var i=0;i<edges.length;i++) {
    if (edges[i].id.substr(0,4)=='edge') {
      edges[i].setAttribute('class','edge');
    }
  }
}
]]></script>
        <defs>
                <circle id="rim" cx="0" cy="0" r="7"/>
                <circle id="rim2" cx="0" cy="0" r="3.5"/>
                <g id="zoomPlus">
                        <use xlink:href="#rim" fill="#404040">
                                <set attributeName="fill" to="#808080" begin="zoomplus.mouseover" end="zoomplus.mouseout"/>
                        </use>
                        <path d="M-4,0h8M0,-4v8" fill="none" stroke="white" stroke-width="1.5" pointer-events="none"/>
                </g>
                <g id="zoomMin">
                        <use xlink:href="#rim" fill="#404040">
                                <set attributeName="fill" to="#808080" begin="zoomminus.mouseover" end="zoomminus.mouseout"/>
                        </use>
                        <path d="M-4,0h8" fill="none" stroke="white" stroke-width="1.5" pointer-events="none"/>
                </g>
                <g id="dirArrow">
                        <path fill="none" stroke="white" stroke-width="1.5" d="M0,-3.0v7 M-2.5,-0.5L0,-3.0L2.5,-0.5"/>
                </g>
               <g id="resetDef">
                       <use xlink:href="#rim2" fill="#404040">
                               <set attributeName="fill" to="#808080" begin="reset.mouseover" end="reset.mouseout"/>
                       </use>
               </g>
        </defs>

<script type="text/javascript">
var viewWidth = 2855;
var viewHeight = 196;
var sectionId = 'dynsection-1';
</script>
<script xlink:href="../../svgpan.js"/>
<svg id="graph" class="graph">
<g id="viewport">
<title>src/portable.h</title>
<polygon fill="white" stroke="none" points="-4,4 -4,-192 2851,-192 2851,4 -4,4"/>
<!-- Node4 -->
<g id="node1" class="node"><title>Node4</title>
<polygon fill="#bfbfbf" stroke="black" points="1685.5,-168.5 1685.5,-187.5 1761.5,-187.5 1761.5,-168.5 1685.5,-168.5"/>
<text text-anchor="middle" x="1723.5" y="-175.5" font-family="Helvetica,sans-Serif" font-size="10.00">src/portable.h</text>
</g>
<!-- Node5 -->
<g id="node2" class="node"><title>Node5</title>
<g id="a_node2"><a xlink:href="../../d5/d3f/store_8h.html" target="_top" xlink:title="src/store.h">
<polygon fill="white" stroke="black" points="774,-112.5 774,-131.5 837,-131.5 837,-112.5 774,-112.5"/>
<text text-anchor="middle" x="805.5" y="-119.5" font-family="Helvetica,sans-Serif" font-size="10.00">src/store.h</text>
</a>
</g>
</g>
<!-- Node4&#45;&gt;Node5 -->
<g id="edge1" class="edge"><title>Node4&#45;&gt;Node5</title>
<path fill="none" stroke="midnightblue" d="M1675.1,-175.886C1544.83,-172.575 1175.93,-161.149 870.5,-132 859.613,-130.961 847.75,-129.436 837.175,-127.935"/>
<polygon fill="midnightblue" stroke="midnightblue" points="1675.07,-179.386 1685.16,-176.137 1675.25,-172.388 1675.07,-179.386"/>
</g>
<!-- Node9 -->
<g id="node6" class="node"><title>Node9</title>
<g id="a_node6"><a xlink:href="../../dc/d98/doxygen_8cpp.html" target="_top" xlink:title="src/doxygen.cpp">
<polygon fill="white" stroke="black" points="790,-0.5 790,-19.5 879,-19.5 879,-0.5 790,-0.5"/>
<text text-anchor="middle" x="834.5" y="-7.5" font-family="Helvetica,sans-Serif" font-size="10.00">src/doxygen.cpp</text>
</a>
</g>
</g>
<!-- Node4&#45;&gt;Node9 -->
<g id="edge22" class="edge"><title>Node4&#45;&gt;Node9</title>
<path fill="none" stroke="midnightblue" d="M1674.85,-176.95C1515.26,-176.404 1014.46,-171.527 954.5,-132 922.969,-111.216 942.688,-83.2096 916.5,-56 900.284,-39.1517 876.366,-27.0195 858.541,-19.6286"/>
<polygon fill="midnightblue" stroke="midnightblue" points="1675.29,-180.451 1685.3,-176.981 1675.31,-173.451 1675.29,-180.451"/>
</g>
<!-- Node16 -->
<g id="node13" class="node"><title>Node16</title>
<g id="a_node13"><a xlink:href="../../da/dd8/store_8cpp.html" target="_top" xlink:title="src/store.cpp">
<polygon fill="white" stroke="black" points="833.5,-56.5 833.5,-75.5 907.5,-75.5 907.5,-56.5 833.5,-56.5"/>
<text text-anchor="middle" x="870.5" y="-63.5" font-family="Helvetica,sans-Serif" font-size="10.00">src/store.cpp</text>
</a>
</g>
</g>
<!-- Node4&#45;&gt;Node16 -->
<g id="edge33" class="edge"><title>Node4&#45;&gt;Node16</title>
<path fill="none" stroke="midnightblue" d="M1675.23,-176.593C1512.17,-174.902 988.195,-166.788 921.5,-132 897.591,-119.529 881.294,-90.3198 874.323,-75.6824"/>
<polygon fill="midnightblue" stroke="midnightblue" points="1675.41,-180.094 1685.44,-176.695 1675.48,-173.095 1675.41,-180.094"/>
</g>
<!-- Node17 -->
<g id="node14" class="node"><title>Node17</title>
<g id="a_node14"><a xlink:href="../../d5/d0b/cite_8cpp.html" target="_top" xlink:title="src/cite.cpp">
<polygon fill="white" stroke="black" points="963.5,-112.5 963.5,-131.5 1031.5,-131.5 1031.5,-112.5 963.5,-112.5"/>
<text text-anchor="middle" x="997.5" y="-119.5" font-family="Helvetica,sans-Serif" font-size="10.00">src/cite.cpp</text>
</a>
</g>
</g>
<!-- Node4&#45;&gt;Node17 -->
<g id="edge16" class="edge"><title>Node4&#45;&gt;Node17</title>
<path fill="none" stroke="midnightblue" d="M1674.86,-176.139C1562.59,-173.641 1276.88,-164.361 1040.5,-132 1037.63,-131.607 1034.66,-131.132 1031.69,-130.609"/>
<polygon fill="midnightblue" stroke="midnightblue" points="1675.1,-179.645 1685.17,-176.36 1675.25,-172.647 1675.1,-179.645"/>
</g>
<!-- Node18 -->
<g id="node15" class="node"><title>Node18</title>
<g id="a_node15"><a xlink:href="../../db/d12/context_8cpp.html" target="_top" xlink:title="src/context.cpp">
<polygon fill="white" stroke="black" points="1049.5,-112.5 1049.5,-131.5 1133.5,-131.5 1133.5,-112.5 1049.5,-112.5"/>
<text text-anchor="middle" x="1091.5" y="-119.5" font-family="Helvetica,sans-Serif" font-size="10.00">src/context.cpp</text>
</a>
</g>
</g>
<!-- Node4&#45;&gt;Node18 -->
<g id="edge17" class="edge"><title>Node4&#45;&gt;Node18</title>
<path fill="none" stroke="midnightblue" d="M1675.32,-174.795C1575.71,-169.9 1339.99,-156.571 1143.5,-132 1140.32,-131.602 1137.03,-131.145 1133.74,-130.652"/>
<polygon fill="midnightblue" stroke="midnightblue" points="1675.22,-178.295 1685.37,-175.284 1675.55,-171.303 1675.22,-178.295"/>
</g>
<!-- Node19 -->
<g id="node16" class="node"><title>Node19</title>
<g id="a_node16"><a xlink:href="../../d1/df5/dia_8cpp.html" target="_top" xlink:title="src/dia.cpp">
<polygon fill="white" stroke="black" points="1152,-112.5 1152,-131.5 1217,-131.5 1217,-112.5 1152,-112.5"/>
<text text-anchor="middle" x="1184.5" y="-119.5" font-family="Helvetica,sans-Serif" font-size="10.00">src/dia.cpp</text>
</a>
</g>
</g>
<!-- Node4&#45;&gt;Node19 -->
<g id="edge18" class="edge"><title>Node4&#45;&gt;Node19</title>
<path fill="none" stroke="midnightblue" d="M1675.21,-174.57C1586.11,-169.657 1390.05,-156.835 1226.5,-132 1223.55,-131.552 1220.5,-131.025 1217.45,-130.453"/>
<polygon fill="midnightblue" stroke="midnightblue" points="1675.1,-178.069 1685.28,-175.117 1675.48,-171.08 1675.1,-178.069"/>
</g>
<!-- Node20 -->
<g id="node17" class="node"><title>Node20</title>
<g id="a_node17"><a xlink:href="../../da/d0d/diagram_8cpp.html" target="_top" xlink:title="src/diagram.cpp">
<polygon fill="white" stroke="black" points="1235.5,-112.5 1235.5,-131.5 1321.5,-131.5 1321.5,-112.5 1235.5,-112.5"/>
<text text-anchor="middle" x="1278.5" y="-119.5" font-family="Helvetica,sans-Serif" font-size="10.00">src/diagram.cpp</text>
</a>
</g>
</g>
<!-- Node4&#45;&gt;Node20 -->
<g id="edge19" class="edge"><title>Node4&#45;&gt;Node20</title>
<path fill="none" stroke="midnightblue" d="M1675.34,-172.315C1601.28,-164.922 1455.06,-149.569 1331.5,-132 1328.27,-131.54 1324.93,-131.038 1321.57,-130.513"/>
<polygon fill="midnightblue" stroke="midnightblue" points="1675,-175.799 1685.3,-173.305 1675.69,-168.833 1675,-175.799"/>
</g>
<!-- Node21 -->
<g id="node18" class="node"><title>Node21</title>
<g id="a_node18"><a xlink:href="../../da/d17/docparser_8cpp.html" target="_top" xlink:title="src/docparser.cpp">
<polygon fill="white" stroke="black" points="1340,-112.5 1340,-131.5 1435,-131.5 1435,-112.5 1340,-112.5"/>
<text text-anchor="middle" x="1387.5" y="-119.5" font-family="Helvetica,sans-Serif" font-size="10.00">src/docparser.cpp</text>
</a>
</g>
</g>
<!-- Node4&#45;&gt;Node21 -->
<g id="edge20" class="edge"><title>Node4&#45;&gt;Node21</title>
<path fill="none" stroke="midnightblue" d="M1675.05,-169.213C1610.98,-158.916 1498.77,-140.883 1435.12,-130.653"/>
<polygon fill="midnightblue" stroke="midnightblue" points="1674.85,-172.727 1685.28,-170.858 1675.97,-165.816 1674.85,-172.727"/>
</g>
<!-- Node22 -->
<g id="node19" class="node"><title>Node22</title>
<g id="a_node19"><a xlink:href="../../de/daa/dot_8cpp.html" target="_top" xlink:title="src/dot.cpp">
<polygon fill="white" stroke="black" points="1453,-112.5 1453,-131.5 1518,-131.5 1518,-112.5 1453,-112.5"/>
<text text-anchor="middle" x="1485.5" y="-119.5" font-family="Helvetica,sans-Serif" font-size="10.00">src/dot.cpp</text>
</a>
</g>
</g>
<!-- Node4&#45;&gt;Node22 -->
<g id="edge21" class="edge"><title>Node4&#45;&gt;Node22</title>
<path fill="none" stroke="midnightblue" d="M1675.88,-166.195C1629.06,-155.572 1558.85,-139.643 1518.06,-130.388"/>
<polygon fill="midnightblue" stroke="midnightblue" points="1675.26,-169.644 1685.79,-168.444 1676.81,-162.818 1675.26,-169.644"/>
</g>
<!-- Node23 -->
<g id="node20" class="node"><title>Node23</title>
<g id="a_node20"><a xlink:href="../../d6/ddc/filedef_8cpp.html" target="_top" xlink:title="src/filedef.cpp">
<polygon fill="white" stroke="black" points="1536.5,-112.5 1536.5,-131.5 1614.5,-131.5 1614.5,-112.5 1536.5,-112.5"/>
<text text-anchor="middle" x="1575.5" y="-119.5" font-family="Helvetica,sans-Serif" font-size="10.00">src/filedef.cpp</text>
</a>
</g>
</g>
<!-- Node4&#45;&gt;Node23 -->
<g id="edge23" class="edge"><title>Node4&#45;&gt;Node23</title>
<path fill="none" stroke="midnightblue" d="M1690.35,-164.906C1662.53,-154.754 1623.48,-140.506 1598.84,-131.516"/>
<polygon fill="midnightblue" stroke="midnightblue" points="1689.46,-168.304 1700.05,-168.444 1691.85,-161.728 1689.46,-168.304"/>
</g>
<!-- Node24 -->
<g id="node21" class="node"><title>Node24</title>
<g id="a_node21"><a xlink:href="../../d7/d5b/formula_8cpp.html" target="_top" xlink:title="src/formula.cpp">
<polygon fill="white" stroke="black" points="1632.5,-112.5 1632.5,-131.5 1716.5,-131.5 1716.5,-112.5 1632.5,-112.5"/>
<text text-anchor="middle" x="1674.5" y="-119.5" font-family="Helvetica,sans-Serif" font-size="10.00">src/formula.cpp</text>
</a>
</g>
</g>
<!-- Node4&#45;&gt;Node24 -->
<g id="edge24" class="edge"><title>Node4&#45;&gt;Node24</title>
<path fill="none" stroke="midnightblue" d="M1708.47,-160.431C1699.88,-150.967 1689.46,-139.483 1682.44,-131.751"/>
<polygon fill="midnightblue" stroke="midnightblue" points="1706.1,-163.029 1715.41,-168.083 1711.28,-158.325 1706.1,-163.029"/>
</g>
<!-- Node25 -->
<g id="node22" class="node"><title>Node25</title>
<g id="a_node22"><a xlink:href="../../d9/db7/htags_8cpp.html" target="_top" xlink:title="src/htags.cpp">
<polygon fill="white" stroke="black" points="1734.5,-112.5 1734.5,-131.5 1810.5,-131.5 1810.5,-112.5 1734.5,-112.5"/>
<text text-anchor="middle" x="1772.5" y="-119.5" font-family="Helvetica,sans-Serif" font-size="10.00">src/htags.cpp</text>
</a>
</g>
</g>
<!-- Node4&#45;&gt;Node25 -->
<g id="edge25" class="edge"><title>Node4&#45;&gt;Node25</title>
<path fill="none" stroke="midnightblue" d="M1738.53,-160.431C1747.12,-150.967 1757.54,-139.483 1764.56,-131.751"/>
<polygon fill="midnightblue" stroke="midnightblue" points="1735.72,-158.325 1731.59,-168.083 1740.9,-163.029 1735.72,-158.325"/>
</g>
<!-- Node26 -->
<g id="node23" class="node"><title>Node26</title>
<g id="a_node23"><a xlink:href="../../d3/d4b/htmlhelp_8cpp.html" target="_top" xlink:title="src/htmlhelp.cpp">
<polygon fill="white" stroke="black" points="1829,-112.5 1829,-131.5 1918,-131.5 1918,-112.5 1829,-112.5"/>
<text text-anchor="middle" x="1873.5" y="-119.5" font-family="Helvetica,sans-Serif" font-size="10.00">src/htmlhelp.cpp</text>
</a>
</g>
</g>
<!-- Node4&#45;&gt;Node26 -->
<g id="edge26" class="edge"><title>Node4&#45;&gt;Node26</title>
<path fill="none" stroke="midnightblue" d="M1756.72,-165.039C1784.95,-154.879 1824.76,-140.546 1849.84,-131.516"/>
<polygon fill="midnightblue" stroke="midnightblue" points="1755.49,-161.763 1747.27,-168.444 1757.86,-168.349 1755.49,-161.763"/>
</g>
<!-- Node27 -->
<g id="node24" class="node"><title>Node27</title>
<g id="a_node24"><a xlink:href="../../d8/d6a/message_8cpp.html" target="_top" xlink:title="src/message.cpp">
<polygon fill="white" stroke="black" points="1936.5,-112.5 1936.5,-131.5 2028.5,-131.5 2028.5,-112.5 1936.5,-112.5"/>
<text text-anchor="middle" x="1982.5" y="-119.5" font-family="Helvetica,sans-Serif" font-size="10.00">src/message.cpp</text>
</a>
</g>
</g>
<!-- Node4&#45;&gt;Node27 -->
<g id="edge27" class="edge"><title>Node4&#45;&gt;Node27</title>
<path fill="none" stroke="midnightblue" d="M1771.74,-166.943C1820.63,-156.749 1895.46,-141.147 1941.56,-131.536"/>
<polygon fill="midnightblue" stroke="midnightblue" points="1770.79,-163.565 1761.72,-169.032 1772.22,-170.417 1770.79,-163.565"/>
</g>
<!-- Node28 -->
<g id="node25" class="node"><title>Node28</title>
<g id="a_node25"><a xlink:href="../../db/d33/msc_8cpp.html" target="_top" xlink:title="src/msc.cpp">
<polygon fill="white" stroke="black" points="2047,-112.5 2047,-131.5 2118,-131.5 2118,-112.5 2047,-112.5"/>
<text text-anchor="middle" x="2082.5" y="-119.5" font-family="Helvetica,sans-Serif" font-size="10.00">src/msc.cpp</text>
</a>
</g>
</g>
<!-- Node4&#45;&gt;Node28 -->
<g id="edge28" class="edge"><title>Node4&#45;&gt;Node28</title>
<path fill="none" stroke="midnightblue" d="M1772.02,-170.889C1833.83,-162.912 1943.86,-148.061 2037.5,-132 2040.48,-131.488 2043.57,-130.93 2046.67,-130.351"/>
<polygon fill="midnightblue" stroke="midnightblue" points="1771.26,-167.457 1761.79,-172.203 1772.16,-174.4 1771.26,-167.457"/>
</g>
<!-- Node29 -->
<g id="node26" class="node"><title>Node29</title>
<g id="a_node26"><a xlink:href="../../d0/d17/outputgen_8cpp.html" target="_top" xlink:title="src/outputgen.cpp">
<polygon fill="white" stroke="black" points="2136,-112.5 2136,-131.5 2231,-131.5 2231,-112.5 2136,-112.5"/>
<text text-anchor="middle" x="2183.5" y="-119.5" font-family="Helvetica,sans-Serif" font-size="10.00">src/outputgen.cpp</text>
</a>
</g>
</g>
<!-- Node4&#45;&gt;Node29 -->
<g id="edge29" class="edge"><title>Node4&#45;&gt;Node29</title>
<path fill="none" stroke="midnightblue" d="M1771.93,-172.371C1847.85,-164.942 1999.43,-149.413 2127.5,-132 2130.23,-131.629 2133.04,-131.231 2135.86,-130.817"/>
<polygon fill="midnightblue" stroke="midnightblue" points="1771.34,-168.911 1761.73,-173.365 1772.02,-175.878 1771.34,-168.911"/>
</g>
<!-- Node30 -->
<g id="node27" class="node"><title>Node30</title>
<g id="a_node27"><a xlink:href="../../d7/d5b/plantuml_8cpp.html" target="_top" xlink:title="src/plantuml.cpp">
<polygon fill="white" stroke="black" points="2249,-112.5 2249,-131.5 2338,-131.5 2338,-112.5 2249,-112.5"/>
<text text-anchor="middle" x="2293.5" y="-119.5" font-family="Helvetica,sans-Serif" font-size="10.00">src/plantuml.cpp</text>
</a>
</g>
</g>
<!-- Node4&#45;&gt;Node30 -->
<g id="edge30" class="edge"><title>Node4&#45;&gt;Node30</title>
<path fill="none" stroke="midnightblue" d="M1771.63,-174.124C1863.18,-168.362 2068.62,-154.037 2240.5,-132 2243.18,-131.656 2245.94,-131.274 2248.72,-130.868"/>
<polygon fill="midnightblue" stroke="midnightblue" points="1771.32,-170.636 1761.56,-174.752 1771.76,-177.622 1771.32,-170.636"/>
</g>
<!-- Node31 -->
<g id="node28" class="node"><title>Node31</title>
<g id="a_node28"><a xlink:href="../../d0/d1c/portable_8cpp.html" target="_top" xlink:title="src/portable.cpp">
<polygon fill="white" stroke="black" points="2356.5,-112.5 2356.5,-131.5 2442.5,-131.5 2442.5,-112.5 2356.5,-112.5"/>
<text text-anchor="middle" x="2399.5" y="-119.5" font-family="Helvetica,sans-Serif" font-size="10.00">src/portable.cpp</text>
</a>
</g>
</g>
<!-- Node4&#45;&gt;Node31 -->
<g id="edge31" class="edge"><title>Node4&#45;&gt;Node31</title>
<path fill="none" stroke="midnightblue" d="M1771.9,-175.15C1876.99,-170.773 2133.82,-158.13 2347.5,-132 2350.41,-131.644 2353.41,-131.237 2356.42,-130.796"/>
<polygon fill="midnightblue" stroke="midnightblue" points="1771.46,-171.665 1761.61,-175.572 1771.75,-178.659 1771.46,-171.665"/>
</g>
<!-- Node32 -->
<g id="node29" class="node"><title>Node32</title>
<g id="a_node29"><a xlink:href="../../d0/d9c/rtfgen_8cpp.html" target="_top" xlink:title="src/rtfgen.cpp">
<polygon fill="white" stroke="black" points="2461,-112.5 2461,-131.5 2538,-131.5 2538,-112.5 2461,-112.5"/>
<text text-anchor="middle" x="2499.5" y="-119.5" font-family="Helvetica,sans-Serif" font-size="10.00">src/rtfgen.cpp</text>
</a>
</g>
</g>
<!-- Node4&#45;&gt;Node32 -->
<g id="edge32" class="edge"><title>Node4&#45;&gt;Node32</title>
<path fill="none" stroke="midnightblue" d="M1771.6,-176.081C1888.48,-173.4 2196.55,-163.657 2451.5,-132 2454.53,-131.624 2457.66,-131.176 2460.79,-130.683"/>
<polygon fill="midnightblue" stroke="midnightblue" points="1771.47,-172.583 1761.55,-176.304 1771.62,-179.581 1771.47,-172.583"/>
</g>
<!-- Node33 -->
<g id="node30" class="node"><title>Node33</title>
<g id="a_node30"><a xlink:href="../../df/d54/template_8cpp.html" target="_top" xlink:title="src/template.cpp">
<polygon fill="white" stroke="black" points="2556,-112.5 2556,-131.5 2645,-131.5 2645,-112.5 2556,-112.5"/>
<text text-anchor="middle" x="2600.5" y="-119.5" font-family="Helvetica,sans-Serif" font-size="10.00">src/template.cpp</text>
</a>
</g>
</g>
<!-- Node4&#45;&gt;Node33 -->
<g id="edge34" class="edge"><title>Node4&#45;&gt;Node33</title>
<path fill="none" stroke="midnightblue" d="M1772.03,-176.274C1899.51,-173.949 2254.25,-164.798 2547.5,-132 2550.19,-131.699 2552.95,-131.351 2555.73,-130.97"/>
<polygon fill="midnightblue" stroke="midnightblue" points="1771.76,-172.778 1761.82,-176.454 1771.88,-179.777 1771.76,-172.778"/>
</g>
<!-- Node34 -->
<g id="node31" class="node"><title>Node34</title>
<g id="a_node31"><a xlink:href="../../df/d2d/util_8cpp.html" target="_top" xlink:title="src/util.cpp">
<polygon fill="white" stroke="black" points="2663,-112.5 2663,-131.5 2728,-131.5 2728,-112.5 2663,-112.5"/>
<text text-anchor="middle" x="2695.5" y="-119.5" font-family="Helvetica,sans-Serif" font-size="10.00">src/util.cpp</text>
</a>
</g>
</g>
<!-- Node4&#45;&gt;Node34 -->
<g id="edge35" class="edge"><title>Node4&#45;&gt;Node34</title>
<path fill="none" stroke="midnightblue" d="M1772.11,-177.514C1910.66,-178.363 2319.16,-176.589 2654.5,-132 2657.25,-131.635 2660.08,-131.18 2662.91,-130.67"/>
<polygon fill="midnightblue" stroke="midnightblue" points="1771.86,-174.012 1761.84,-177.443 1771.82,-181.012 1771.86,-174.012"/>
</g>
<!-- Node35 -->
<g id="node32" class="node"><title>Node35</title>
<g id="a_node32"><a xlink:href="../../de/dea/vhdldocgen_8cpp.html" target="_top" xlink:title="src/vhdldocgen.cpp">
<polygon fill="white" stroke="black" points="2746,-112.5 2746,-131.5 2847,-131.5 2847,-112.5 2746,-112.5"/>
<text text-anchor="middle" x="2796.5" y="-119.5" font-family="Helvetica,sans-Serif" font-size="10.00">src/vhdldocgen.cpp</text>
</a>
</g>
</g>
<!-- Node4&#45;&gt;Node35 -->
<g id="edge36" class="edge"><title>Node4&#45;&gt;Node35</title>
<path fill="none" stroke="midnightblue" d="M1772.24,-176.684C1918.69,-175.34 2367.52,-168.323 2737.5,-132 2740.18,-131.737 2742.93,-131.434 2745.69,-131.103"/>
<polygon fill="midnightblue" stroke="midnightblue" points="1771.79,-173.188 1761.82,-176.775 1771.85,-180.188 1771.79,-173.188"/>
</g>
<!-- Node6 -->
<g id="node3" class="node"><title>Node6</title>
<g id="a_node3"><a xlink:href="../../d9/de0/marshal_8h.html" target="_top" xlink:title="src/marshal.h">
<polygon fill="white" stroke="black" points="478.5,-56.5 478.5,-75.5 554.5,-75.5 554.5,-56.5 478.5,-56.5"/>
<text text-anchor="middle" x="516.5" y="-63.5" font-family="Helvetica,sans-Serif" font-size="10.00">src/marshal.h</text>
</a>
</g>
</g>
<!-- Node5&#45;&gt;Node6 -->
<g id="edge2" class="edge"><title>Node5&#45;&gt;Node6</title>
<path fill="none" stroke="midnightblue" d="M763.798,-113.208C707.748,-102.735 608.904,-84.2659 554.704,-74.1385"/>
<polygon fill="midnightblue" stroke="midnightblue" points="763.272,-116.67 773.745,-115.067 764.558,-109.789 763.272,-116.67"/>
</g>
<!-- Node5&#45;&gt;Node9 -->
<g id="edge11" class="edge"><title>Node5&#45;&gt;Node9</title>
<path fill="none" stroke="midnightblue" d="M810.331,-102.674C816.672,-78.6248 827.543,-37.3881 832.235,-19.5914"/>
<polygon fill="midnightblue" stroke="midnightblue" points="806.941,-101.807 807.776,-112.368 813.709,-103.591 806.941,-101.807"/>
</g>
<!-- Node15 -->
<g id="node12" class="node"><title>Node15</title>
<g id="a_node12"><a xlink:href="../../dd/da1/filestorage_8h.html" target="_top" xlink:title="src/filestorage.h">
<polygon fill="white" stroke="black" points="691.5,-56.5 691.5,-75.5 777.5,-75.5 777.5,-56.5 691.5,-56.5"/>
<text text-anchor="middle" x="734.5" y="-63.5" font-family="Helvetica,sans-Serif" font-size="10.00">src/filestorage.h</text>
</a>
</g>
</g>
<!-- Node5&#45;&gt;Node15 -->
<g id="edge12" class="edge"><title>Node5&#45;&gt;Node15</title>
<path fill="none" stroke="midnightblue" d="M785.91,-106.101C773.132,-96.3824 756.887,-84.0269 746.115,-75.8339"/>
<polygon fill="midnightblue" stroke="midnightblue" points="784.014,-109.056 794.093,-112.324 788.252,-103.484 784.014,-109.056"/>
</g>
<!-- Node5&#45;&gt;Node16 -->
<g id="edge15" class="edge"><title>Node5&#45;&gt;Node16</title>
<path fill="none" stroke="midnightblue" d="M823.773,-105.82C835.418,-96.1452 850.099,-83.9481 859.867,-75.8339"/>
<polygon fill="midnightblue" stroke="midnightblue" points="821.399,-103.242 815.943,-112.324 825.872,-108.626 821.399,-103.242"/>
</g>
<!-- Node7 -->
<g id="node4" class="node"><title>Node7</title>
<g id="a_node4"><a xlink:href="../../d4/dd4/arguments_8cpp.html" target="_top" xlink:title="src/arguments.cpp">
<polygon fill="white" stroke="black" points="247.5,-0.5 247.5,-19.5 345.5,-19.5 345.5,-0.5 247.5,-0.5"/>
<text text-anchor="middle" x="296.5" y="-7.5" font-family="Helvetica,sans-Serif" font-size="10.00">src/arguments.cpp</text>
</a>
</g>
</g>
<!-- Node6&#45;&gt;Node7 -->
<g id="edge3" class="edge"><title>Node6&#45;&gt;Node7</title>
<path fill="none" stroke="midnightblue" d="M471.782,-54.0237C430.224,-43.8232 369.187,-28.8414 331.197,-19.5164"/>
<polygon fill="midnightblue" stroke="midnightblue" points="471.094,-57.4588 481.64,-56.4435 472.763,-50.6606 471.094,-57.4588"/>
</g>
<!-- Node8 -->
<g id="node5" class="node"><title>Node8</title>
<g id="a_node5"><a xlink:href="../../d3/dea/definition_8cpp.html" target="_top" xlink:title="src/definition.cpp">
<polygon fill="white" stroke="black" points="364,-0.5 364,-19.5 455,-19.5 455,-0.5 364,-0.5"/>
<text text-anchor="middle" x="409.5" y="-7.5" font-family="Helvetica,sans-Serif" font-size="10.00">src/definition.cpp</text>
</a>
</g>
</g>
<!-- Node6&#45;&gt;Node8 -->
<g id="edge4" class="edge"><title>Node6&#45;&gt;Node8</title>
<path fill="none" stroke="midnightblue" d="M490.198,-51.7261C470.385,-41.7271 443.793,-28.3065 426.649,-19.6545"/>
<polygon fill="midnightblue" stroke="midnightblue" points="488.804,-54.9431 499.309,-56.324 491.958,-48.6938 488.804,-54.9431"/>
</g>
<!-- Node6&#45;&gt;Node9 -->
<g id="edge5" class="edge"><title>Node6&#45;&gt;Node9</title>
<path fill="none" stroke="midnightblue" d="M564.696,-56.8158C625.809,-46.4381 730.357,-28.6847 789.772,-18.5954"/>
<polygon fill="midnightblue" stroke="midnightblue" points="563.815,-53.4151 554.542,-58.54 564.987,-60.3164 563.815,-53.4151"/>
</g>
<!-- Node10 -->
<g id="node7" class="node"><title>Node10</title>
<g id="a_node7"><a xlink:href="../../d2/dd2/entry_8cpp.html" target="_top" xlink:title="src/entry.cpp">
<polygon fill="white" stroke="black" points="697.5,-0.5 697.5,-19.5 771.5,-19.5 771.5,-0.5 697.5,-0.5"/>
<text text-anchor="middle" x="734.5" y="-7.5" font-family="Helvetica,sans-Serif" font-size="10.00">src/entry.cpp</text>
</a>
</g>
</g>
<!-- Node6&#45;&gt;Node10 -->
<g id="edge6" class="edge"><title>Node6&#45;&gt;Node10</title>
<path fill="none" stroke="midnightblue" d="M560.812,-54.0237C601.992,-43.8232 662.473,-28.8414 700.119,-19.5164"/>
<polygon fill="midnightblue" stroke="midnightblue" points="559.908,-50.6417 551.043,-56.4435 561.591,-57.4364 559.908,-50.6417"/>
</g>
<!-- Node11 -->
<g id="node8" class="node"><title>Node11</title>
<g id="a_node8"><a xlink:href="../../d9/d85/marshal_8cpp.html" target="_top" xlink:title="src/marshal.cpp">
<polygon fill="white" stroke="black" points="473.5,-0.5 473.5,-19.5 559.5,-19.5 559.5,-0.5 473.5,-0.5"/>
<text text-anchor="middle" x="516.5" y="-7.5" font-family="Helvetica,sans-Serif" font-size="10.00">src/marshal.cpp</text>
</a>
</g>
</g>
<!-- Node6&#45;&gt;Node11 -->
<g id="edge7" class="edge"><title>Node6&#45;&gt;Node11</title>
<path fill="none" stroke="midnightblue" d="M516.5,-45.8045C516.5,-36.9102 516.5,-26.7798 516.5,-19.7511"/>
<polygon fill="midnightblue" stroke="midnightblue" points="513,-46.083 516.5,-56.083 520,-46.083 513,-46.083"/>
</g>
<!-- Node12 -->
<g id="node9" class="node"><title>Node12</title>
<g id="a_node9"><a xlink:href="../../d0/d72/memberdef_8cpp.html" target="_top" xlink:title="src/memberdef.cpp">
<polygon fill="white" stroke="black" points="578,-0.5 578,-19.5 679,-19.5 679,-0.5 578,-0.5"/>
<text text-anchor="middle" x="628.5" y="-7.5" font-family="Helvetica,sans-Serif" font-size="10.00">src/memberdef.cpp</text>
</a>
</g>
</g>
<!-- Node6&#45;&gt;Node12 -->
<g id="edge8" class="edge"><title>Node6&#45;&gt;Node12</title>
<path fill="none" stroke="midnightblue" d="M543.749,-51.8622C564.516,-41.8492 592.523,-28.3458 610.55,-19.6545"/>
<polygon fill="midnightblue" stroke="midnightblue" points="541.982,-48.8282 534.495,-56.324 545.023,-55.1336 541.982,-48.8282"/>
</g>
<!-- Node13 -->
<g id="node10" class="node"><title>Node13</title>
<g id="a_node10"><a xlink:href="../../d6/d18/membergroup_8cpp.html" target="_top" xlink:title="src/membergroup.cpp">
<polygon fill="white" stroke="black" points="0,-0.5 0,-19.5 111,-19.5 111,-0.5 0,-0.5"/>
<text text-anchor="middle" x="55.5" y="-7.5" font-family="Helvetica,sans-Serif" font-size="10.00">src/membergroup.cpp</text>
</a>
</g>
</g>
<!-- Node6&#45;&gt;Node13 -->
<g id="edge9" class="edge"><title>Node6&#45;&gt;Node13</title>
<path fill="none" stroke="midnightblue" d="M468.199,-59.8959C393.564,-51.9221 245.73,-35.7827 120.5,-20 117.448,-19.6154 114.317,-19.2118 111.157,-18.7975"/>
<polygon fill="midnightblue" stroke="midnightblue" points="467.92,-63.3859 478.235,-60.966 468.663,-56.4254 467.92,-63.3859"/>
</g>
<!-- Node14 -->
<g id="node11" class="node"><title>Node14</title>
<g id="a_node11"><a xlink:href="../../d0/d14/memberlist_8cpp.html" target="_top" xlink:title="src/memberlist.cpp">
<polygon fill="white" stroke="black" points="129.5,-0.5 129.5,-19.5 229.5,-19.5 229.5,-0.5 129.5,-0.5"/>
<text text-anchor="middle" x="179.5" y="-7.5" font-family="Helvetica,sans-Serif" font-size="10.00">src/memberlist.cpp</text>
</a>
</g>
</g>
<!-- Node6&#45;&gt;Node14 -->
<g id="edge10" class="edge"><title>Node6&#45;&gt;Node14</title>
<path fill="none" stroke="midnightblue" d="M468.368,-57.2875C404.977,-47.1299 294.032,-29.3524 229.65,-19.0359"/>
<polygon fill="midnightblue" stroke="midnightblue" points="468.069,-60.7841 478.497,-58.9105 469.177,-53.8723 468.069,-60.7841"/>
</g>
<!-- Node15&#45;&gt;Node9 -->
<g id="edge13" class="edge"><title>Node15&#45;&gt;Node9</title>
<path fill="none" stroke="midnightblue" d="M759.588,-51.4526C778.049,-41.4835 802.597,-28.2279 818.473,-19.6545"/>
<polygon fill="midnightblue" stroke="midnightblue" points="757.703,-48.4928 750.567,-56.324 761.029,-54.6521 757.703,-48.4928"/>
</g>
<!-- Node15&#45;&gt;Node10 -->
<g id="edge14" class="edge"><title>Node15&#45;&gt;Node10</title>
<path fill="none" stroke="midnightblue" d="M734.5,-45.8045C734.5,-36.9102 734.5,-26.7798 734.5,-19.7511"/>
<polygon fill="midnightblue" stroke="midnightblue" points="731,-46.083 734.5,-56.083 738,-46.083 731,-46.083"/>
</g>
</g>
</svg>
        <g id="navigator" transform="translate(0 0)" fill="#404254">
                <rect fill="#f2f5e9" fill-opacity="0.5" stroke="#606060" stroke-width=".5" x="0" y="0" width="60" height="60"/>
                <use id="zoomplus" xlink:href="#zoomPlus" x="17" y="9" onmousedown="handleZoom(evt,'in')"/>
                <use id="zoomminus" xlink:href="#zoomMin" x="42" y="9" onmousedown="handleZoom(evt,'out')"/>
                <use id="reset" xlink:href="#resetDef" x="30" y="36" onmousedown="handleReset()"/>
                <g id="arrowUp" xlink:href="#dirArrow" transform="translate(30 24)" onmousedown="handlePan(0,-1)">
                  <use xlink:href="#rim" fill="#404040">
                        <set attributeName="fill" to="#808080" begin="arrowUp.mouseover" end="arrowUp.mouseout"/>
                  </use>
                  <path fill="none" stroke="white" stroke-width="1.5" d="M0,-3.0v7 M-2.5,-0.5L0,-3.0L2.5,-0.5"/>
                </g>
                <g id="arrowRight" xlink:href="#dirArrow" transform="rotate(90) translate(36 -43)" onmousedown="handlePan(1,0)">
                  <use xlink:href="#rim" fill="#404040">
                        <set attributeName="fill" to="#808080" begin="arrowRight.mouseover" end="arrowRight.mouseout"/>
                  </use>
                  <path fill="none" stroke="white" stroke-width="1.5" d="M0,-3.0v7 M-2.5,-0.5L0,-3.0L2.5,-0.5"/>
                </g>
                <g id="arrowDown" xlink:href="#dirArrow" transform="rotate(180) translate(-30 -48)" onmousedown="handlePan(0,1)">
                  <use xlink:href="#rim" fill="#404040">
                        <set attributeName="fill" to="#808080" begin="arrowDown.mouseover" end="arrowDown.mouseout"/>
                  </use>
                  <path fill="none" stroke="white" stroke-width="1.5" d="M0,-3.0v7 M-2.5,-0.5L0,-3.0L2.5,-0.5"/>
                </g>
                <g id="arrowLeft" xlink:href="#dirArrow" transform="rotate(270) translate(-36 17)" onmousedown="handlePan(-1,0)">
                  <use xlink:href="#rim" fill="#404040">
                        <set attributeName="fill" to="#808080" begin="arrowLeft.mouseover" end="arrowLeft.mouseout"/>
                  </use>
                  <path fill="none" stroke="white" stroke-width="1.5" d="M0,-3.0v7 M-2.5,-0.5L0,-3.0L2.5,-0.5"/>
                </g>
        </g>
        <svg viewBox="0 0 15 15" width="100%" height="30px" preserveAspectRatio="xMaxYMin meet">
         <g id="arrow_out" transform="scale(0.3 0.3)">
          <a xlink:href="portable_8h__dep__incl_org.svg" target="_base">
           <rect id="button" ry="5" rx="5" y="6" x="6" height="38" width="38"
                fill="#f2f5e9" fill-opacity="0.5" stroke="#606060" stroke-width="1.0"/>
           <path id="arrow"
             d="M 11.500037,31.436501 C 11.940474,20.09759 22.043105,11.32322 32.158766,21.979434 L 37.068811,17.246167 C 37.068811,17.246167 37.088388,32 37.088388,32 L 22.160133,31.978069 C 22.160133,31.978069 26.997745,27.140456 26.997745,27.140456 C 18.528582,18.264221 13.291696,25.230495 11.500037,31.436501 z"
             style="fill:#404040;"/>
          </a>
         </g>
        </svg>
</svg>
