<?xml version="1.0" encoding="UTF-8" standalone="no"?>
<!DOCTYPE svg PUBLIC "-//W3C//DTD SVG 1.1//EN"
 "http://www.w3.org/Graphics/SVG/1.1/DTD/svg11.dtd">
<!-- Generated by graphviz version 2.38.0 (20140413.2041)
 -->
<!-- Title: DirContext::Private Pages: 1 -->
<svg width="172pt" height="163pt"
 viewBox="0.00 0.00 172.00 163.00" xmlns="http://www.w3.org/2000/svg" xmlns:xlink="http://www.w3.org/1999/xlink">
<g id="graph0" class="graph" transform="scale(1 1) rotate(0) translate(4 159)">
<title>DirContext::Private</title>
<polygon fill="white" stroke="none" points="-4,4 -4,-159 168,-159 168,4 -4,4"/>
<!-- Node0 -->
<g id="node1" class="node"><title>Node0</title>
<polygon fill="#bfbfbf" stroke="black" points="7.5,-0.5 7.5,-19.5 108.5,-19.5 108.5,-0.5 7.5,-0.5"/>
<text text-anchor="middle" x="58" y="-7.5" font-family="Helvetica,sans-Serif" font-size="10.00">DirContext::Private</text>
</g>
<!-- Node1 -->
<g id="node2" class="node"><title>Node1</title>
<g id="a_node2"><a xlink:href="../../d6/d49/class_definition_context.html" target="_top" xlink:title="DefinitionContext\&lt;\l DirContext::Private \&gt;">
<polygon fill="white" stroke="black" points="1.5,-57.5 1.5,-87.5 114.5,-87.5 114.5,-57.5 1.5,-57.5"/>
<text text-anchor="start" x="9.5" y="-75.5" font-family="Helvetica,sans-Serif" font-size="10.00">DefinitionContext&lt;</text>
<text text-anchor="middle" x="58" y="-64.5" font-family="Helvetica,sans-Serif" font-size="10.00"> DirContext::Private &gt;</text>
</a>
</g>
</g>
<!-- Node1&#45;&gt;Node0 -->
<g id="edge1" class="edge"><title>Node1&#45;&gt;Node0</title>
<path fill="none" stroke="midnightblue" d="M58,-47.3524C58,-37.5132 58,-26.7753 58,-19.5399"/>
<polygon fill="midnightblue" stroke="midnightblue" points="54.5001,-47.468 58,-57.468 61.5001,-47.4681 54.5001,-47.468"/>
</g>
<!-- Node2 -->
<g id="node3" class="node"><title>Node2</title>
<g id="a_node3"><a xlink:href="../../d6/d49/class_definition_context.html" target="_top" xlink:title="DefinitionContext\&lt; T \&gt;">
<polygon fill="white" stroke="black" points="-7.10543e-15,-135.5 -7.10543e-15,-154.5 116,-154.5 116,-135.5 -7.10543e-15,-135.5"/>
<text text-anchor="middle" x="58" y="-142.5" font-family="Helvetica,sans-Serif" font-size="10.00">DefinitionContext&lt; T &gt;</text>
</a>
</g>
</g>
<!-- Node2&#45;&gt;Node1 -->
<g id="edge2" class="edge"><title>Node2&#45;&gt;Node1</title>
<path fill="none" stroke="orange" stroke-dasharray="5,2" d="M58,-125.236C58,-113.408 58,-98.3829 58,-87.5762"/>
<polygon fill="orange" stroke="orange" points="54.5001,-125.355 58,-135.355 61.5001,-125.355 54.5001,-125.355"/>
<text text-anchor="middle" x="111" y="-109" font-family="Helvetica,sans-Serif" font-size="10.00"> &lt; DirContext::Private &gt;</text>
</g>
</g>
</svg>
