<?xml version="1.0" encoding="UTF-8" standalone="no"?>
<!DOCTYPE svg PUBLIC "-//W3C//DTD SVG 1.1//EN"
 "http://www.w3.org/Graphics/SVG/1.1/DTD/svg11.dtd">
<!-- Generated by graphviz version 2.38.0 (20140413.2041)
 -->
<!-- Title: vhdlparser/VhdlParserTokenManager.h Pages: 1 -->
<svg width="356pt" height="207pt"
 viewBox="0.00 0.00 356.00 207.00" xmlns="http://www.w3.org/2000/svg" xmlns:xlink="http://www.w3.org/1999/xlink">
<g id="graph0" class="graph" transform="scale(1 1) rotate(0) translate(4 203)">
<title>vhdlparser/VhdlParserTokenManager.h</title>
<polygon fill="white" stroke="none" points="-4,4 -4,-203 352,-203 352,4 -4,4"/>
<!-- Node41 -->
<g id="node1" class="node"><title>Node41</title>
<polygon fill="#bfbfbf" stroke="black" points="65,-168.5 65,-198.5 205,-198.5 205,-168.5 65,-168.5"/>
<text text-anchor="start" x="73" y="-186.5" font-family="Helvetica,sans-Serif" font-size="10.00">vhdlparser/VhdlParserToken</text>
<text text-anchor="middle" x="135" y="-175.5" font-family="Helvetica,sans-Serif" font-size="10.00">Manager.h</text>
</g>
<!-- Node42 -->
<g id="node2" class="node"><title>Node42</title>
<g id="a_node2"><a xlink:href="../../d5/df9/_vhdl_parser_8h.html" target="_top" xlink:title="vhdlparser/VhdlParser.h">
<polygon fill="white" stroke="black" points="74.5,-112.5 74.5,-131.5 195.5,-131.5 195.5,-112.5 74.5,-112.5"/>
<text text-anchor="middle" x="135" y="-119.5" font-family="Helvetica,sans-Serif" font-size="10.00">vhdlparser/VhdlParser.h</text>
</a>
</g>
</g>
<!-- Node41&#45;&gt;Node42 -->
<g id="edge1" class="edge"><title>Node41&#45;&gt;Node42</title>
<path fill="none" stroke="midnightblue" d="M128.355,-158.289C127.993,-148.857 128.565,-138.655 130.071,-131.658"/>
<polygon fill="midnightblue" stroke="midnightblue" points="124.877,-158.709 129.16,-168.399 131.855,-158.153 124.877,-158.709"/>
</g>
<!-- Node44 -->
<g id="node4" class="node"><title>Node44</title>
<g id="a_node4"><a xlink:href="../../da/d40/_vhdl_parser_i_f_8cpp.html" target="_top" xlink:title="vhdlparser/VhdlParserIF.cpp">
<polygon fill="white" stroke="black" points="0,-0.5 0,-19.5 140,-19.5 140,-0.5 0,-0.5"/>
<text text-anchor="middle" x="70" y="-7.5" font-family="Helvetica,sans-Serif" font-size="10.00">vhdlparser/VhdlParserIF.cpp</text>
</a>
</g>
</g>
<!-- Node41&#45;&gt;Node44 -->
<g id="edge8" class="edge"><title>Node41&#45;&gt;Node44</title>
<path fill="none" stroke="midnightblue" d="M95.0345,-163.125C83.1691,-155.231 71.5909,-144.882 65,-132 45.5597,-94.004 60.0945,-40.1825 66.9461,-19.5257"/>
<polygon fill="midnightblue" stroke="midnightblue" points="93.3085,-166.172 103.658,-168.44 96.9816,-160.213 93.3085,-166.172"/>
</g>
<!-- Node42&#45;&gt;Node41 -->
<g id="edge3" class="edge"><title>Node42&#45;&gt;Node41</title>
<path fill="none" stroke="midnightblue" d="M141.307,-141.569C142.026,-150.233 141.87,-160.377 140.84,-168.399"/>
<polygon fill="midnightblue" stroke="midnightblue" points="144.773,-141.081 139.929,-131.658 137.84,-142.044 144.773,-141.081"/>
</g>
<!-- Node43 -->
<g id="node3" class="node"><title>Node43</title>
<g id="a_node3"><a xlink:href="../../de/dea/vhdldocgen_8cpp.html" target="_top" xlink:title="src/vhdldocgen.cpp">
<polygon fill="white" stroke="black" points="98.5,-56.5 98.5,-75.5 199.5,-75.5 199.5,-56.5 98.5,-56.5"/>
<text text-anchor="middle" x="149" y="-63.5" font-family="Helvetica,sans-Serif" font-size="10.00">src/vhdldocgen.cpp</text>
</a>
</g>
</g>
<!-- Node42&#45;&gt;Node43 -->
<g id="edge2" class="edge"><title>Node42&#45;&gt;Node43</title>
<path fill="none" stroke="midnightblue" d="M139.823,-102.396C142.165,-93.362 144.868,-82.936 146.731,-75.7511"/>
<polygon fill="midnightblue" stroke="midnightblue" points="136.434,-101.525 137.312,-112.083 143.21,-103.281 136.434,-101.525"/>
</g>
<!-- Node42&#45;&gt;Node44 -->
<g id="edge4" class="edge"><title>Node42&#45;&gt;Node44</title>
<path fill="none" stroke="midnightblue" d="M115.201,-105.705C106.069,-97.7319 95.7768,-87.2955 89,-76 77.9916,-57.6513 73.0326,-32.5391 71.0854,-19.5542"/>
<polygon fill="midnightblue" stroke="midnightblue" points="113.198,-108.591 123.127,-112.288 117.67,-103.206 113.198,-108.591"/>
</g>
<!-- Node45 -->
<g id="node5" class="node"><title>Node45</title>
<g id="a_node5"><a xlink:href="../../dd/d6f/_vhdl_parser_i_f_8h.html" target="_top" xlink:title="vhdlparser/VhdlParserIF.h">
<polygon fill="white" stroke="black" points="218,-56.5 218,-75.5 348,-75.5 348,-56.5 218,-56.5"/>
<text text-anchor="middle" x="283" y="-63.5" font-family="Helvetica,sans-Serif" font-size="10.00">vhdlparser/VhdlParserIF.h</text>
</a>
</g>
</g>
<!-- Node42&#45;&gt;Node45 -->
<g id="edge5" class="edge"><title>Node42&#45;&gt;Node45</title>
<path fill="none" stroke="midnightblue" d="M168.147,-108.906C195.972,-98.7536 235.02,-84.5063 259.659,-75.5164"/>
<polygon fill="midnightblue" stroke="midnightblue" points="166.646,-105.728 158.451,-112.444 169.045,-112.304 166.646,-105.728"/>
</g>
<!-- Node45&#45;&gt;Node44 -->
<g id="edge7" class="edge"><title>Node45&#45;&gt;Node44</title>
<path fill="none" stroke="midnightblue" d="M239.449,-53.959C199.219,-43.7598 140.297,-28.8217 103.593,-19.5164"/>
<polygon fill="midnightblue" stroke="midnightblue" points="238.696,-57.3787 249.25,-56.4435 240.416,-50.5933 238.696,-57.3787"/>
</g>
<!-- Node46 -->
<g id="node6" class="node"><title>Node46</title>
<g id="a_node6"><a xlink:href="../../d1/d86/vhdljjparser_8cpp.html" target="_top" xlink:title="src/vhdljjparser.cpp">
<polygon fill="white" stroke="black" points="232.5,-0.5 232.5,-19.5 333.5,-19.5 333.5,-0.5 232.5,-0.5"/>
<text text-anchor="middle" x="283" y="-7.5" font-family="Helvetica,sans-Serif" font-size="10.00">src/vhdljjparser.cpp</text>
</a>
</g>
</g>
<!-- Node45&#45;&gt;Node46 -->
<g id="edge6" class="edge"><title>Node45&#45;&gt;Node46</title>
<path fill="none" stroke="midnightblue" d="M283,-45.8045C283,-36.9102 283,-26.7798 283,-19.7511"/>
<polygon fill="midnightblue" stroke="midnightblue" points="279.5,-46.083 283,-56.083 286.5,-46.083 279.5,-46.083"/>
</g>
</g>
</svg>
