<?xml version="1.0" encoding="UTF-8" standalone="no"?>
<!DOCTYPE svg PUBLIC "-//W3C//DTD SVG 1.1//EN"
 "http://www.w3.org/Graphics/SVG/1.1/DTD/svg11.dtd">
<!-- Generated by graphviz version 2.38.0 (20140413.2041)
 -->
<!-- Title: vhdlparser/TokenManager.h Pages: 1 -->
<svg width="463pt" height="207pt"
 viewBox="0.00 0.00 462.50 207.00" xmlns="http://www.w3.org/2000/svg" xmlns:xlink="http://www.w3.org/1999/xlink">
<g id="graph0" class="graph" transform="scale(1 1) rotate(0) translate(4 203)">
<title>vhdlparser/TokenManager.h</title>
<polygon fill="white" stroke="none" points="-4,4 -4,-203 458.5,-203 458.5,4 -4,4"/>
<!-- Node11 -->
<g id="node1" class="node"><title>Node11</title>
<polygon fill="#bfbfbf" stroke="black" points="76.5,-179.5 76.5,-198.5 213.5,-198.5 213.5,-179.5 76.5,-179.5"/>
<text text-anchor="middle" x="145" y="-186.5" font-family="Helvetica,sans-Serif" font-size="10.00">vhdlparser/TokenManager.h</text>
</g>
<!-- Node12 -->
<g id="node2" class="node"><title>Node12</title>
<g id="a_node2"><a xlink:href="../../d5/df9/_vhdl_parser_8h.html" target="_top" xlink:title="vhdlparser/VhdlParser.h">
<polygon fill="white" stroke="black" points="135.5,-123.5 135.5,-142.5 256.5,-142.5 256.5,-123.5 135.5,-123.5"/>
<text text-anchor="middle" x="196" y="-130.5" font-family="Helvetica,sans-Serif" font-size="10.00">vhdlparser/VhdlParser.h</text>
</a>
</g>
</g>
<!-- Node11&#45;&gt;Node12 -->
<g id="edge1" class="edge"><title>Node11&#45;&gt;Node12</title>
<path fill="none" stroke="midnightblue" d="M160.378,-171.718C169.367,-162.2 180.359,-150.561 187.735,-142.751"/>
<polygon fill="midnightblue" stroke="midnightblue" points="157.743,-169.41 153.422,-179.083 162.832,-174.216 157.743,-169.41"/>
</g>
<!-- Node14 -->
<g id="node4" class="node"><title>Node14</title>
<g id="a_node4"><a xlink:href="../../d7/dad/_vhdl_parser_token_manager_8h.html" target="_top" xlink:title="vhdlparser/VhdlParserToken\lManager.h">
<polygon fill="white" stroke="black" points="0,-56.5 0,-86.5 140,-86.5 140,-56.5 0,-56.5"/>
<text text-anchor="start" x="8" y="-74.5" font-family="Helvetica,sans-Serif" font-size="10.00">vhdlparser/VhdlParserToken</text>
<text text-anchor="middle" x="70" y="-63.5" font-family="Helvetica,sans-Serif" font-size="10.00">Manager.h</text>
</a>
</g>
</g>
<!-- Node11&#45;&gt;Node14 -->
<g id="edge10" class="edge"><title>Node11&#45;&gt;Node14</title>
<path fill="none" stroke="midnightblue" d="M133.721,-170.63C118.818,-147.679 92.8537,-107.695 79.1203,-86.5453"/>
<polygon fill="midnightblue" stroke="midnightblue" points="130.981,-172.838 139.363,-179.319 136.852,-169.026 130.981,-172.838"/>
</g>
<!-- Node13 -->
<g id="node3" class="node"><title>Node13</title>
<g id="a_node3"><a xlink:href="../../de/dea/vhdldocgen_8cpp.html" target="_top" xlink:title="src/vhdldocgen.cpp">
<polygon fill="white" stroke="black" points="158.5,-62 158.5,-81 259.5,-81 259.5,-62 158.5,-62"/>
<text text-anchor="middle" x="209" y="-69" font-family="Helvetica,sans-Serif" font-size="10.00">src/vhdldocgen.cpp</text>
</a>
</g>
</g>
<!-- Node12&#45;&gt;Node13 -->
<g id="edge2" class="edge"><title>Node12&#45;&gt;Node13</title>
<path fill="none" stroke="midnightblue" d="M200.008,-113.657C202.386,-102.772 205.289,-89.4863 207.141,-81.0091"/>
<polygon fill="midnightblue" stroke="midnightblue" points="196.578,-112.958 197.863,-123.475 203.417,-114.453 196.578,-112.958"/>
</g>
<!-- Node12&#45;&gt;Node14 -->
<g id="edge3" class="edge"><title>Node12&#45;&gt;Node14</title>
<path fill="none" stroke="midnightblue" d="M163.821,-119.461C141.984,-109.823 113.729,-96.5127 93.8658,-86.523"/>
<polygon fill="midnightblue" stroke="midnightblue" points="162.481,-122.694 173.047,-123.475 165.274,-116.275 162.481,-122.694"/>
</g>
<!-- Node15 -->
<g id="node5" class="node"><title>Node15</title>
<g id="a_node5"><a xlink:href="../../da/d40/_vhdl_parser_i_f_8cpp.html" target="_top" xlink:title="vhdlparser/VhdlParserIF.cpp">
<polygon fill="white" stroke="black" points="195,-0.5 195,-19.5 335,-19.5 335,-0.5 195,-0.5"/>
<text text-anchor="middle" x="265" y="-7.5" font-family="Helvetica,sans-Serif" font-size="10.00">vhdlparser/VhdlParserIF.cpp</text>
</a>
</g>
</g>
<!-- Node12&#45;&gt;Node15 -->
<g id="edge6" class="edge"><title>Node12&#45;&gt;Node15</title>
<path fill="none" stroke="midnightblue" d="M231.446,-119.196C245.78,-112.064 260.844,-101.609 269,-87 281.109,-65.3113 273.276,-34.4906 268.26,-19.6473"/>
<polygon fill="midnightblue" stroke="midnightblue" points="229.854,-116.076 222.211,-123.414 232.762,-122.443 229.854,-116.076"/>
</g>
<!-- Node16 -->
<g id="node6" class="node"><title>Node16</title>
<g id="a_node6"><a xlink:href="../../dd/d6f/_vhdl_parser_i_f_8h.html" target="_top" xlink:title="vhdlparser/VhdlParserIF.h">
<polygon fill="white" stroke="black" points="316,-62 316,-81 446,-81 446,-62 316,-62"/>
<text text-anchor="middle" x="381" y="-69" font-family="Helvetica,sans-Serif" font-size="10.00">vhdlparser/VhdlParserIF.h</text>
</a>
</g>
</g>
<!-- Node12&#45;&gt;Node16 -->
<g id="edge7" class="edge"><title>Node12&#45;&gt;Node16</title>
<path fill="none" stroke="midnightblue" d="M232.128,-120.381C268.087,-108.815 322.42,-91.3407 354.543,-81.0091"/>
<polygon fill="midnightblue" stroke="midnightblue" points="230.954,-117.081 222.506,-123.475 233.097,-123.745 230.954,-117.081"/>
</g>
<!-- Node14&#45;&gt;Node12 -->
<g id="edge4" class="edge"><title>Node14&#45;&gt;Node12</title>
<path fill="none" stroke="midnightblue" d="M114.857,-90.718C138.88,-101.619 166.682,-114.965 182.848,-123.475"/>
<polygon fill="midnightblue" stroke="midnightblue" points="116.081,-87.4312 105.526,-86.523 113.211,-93.8157 116.081,-87.4312"/>
</g>
<!-- Node14&#45;&gt;Node15 -->
<g id="edge5" class="edge"><title>Node14&#45;&gt;Node15</title>
<path fill="none" stroke="midnightblue" d="M126.173,-53.36C162.447,-42.2919 208.084,-28.3665 236.91,-19.5709"/>
<polygon fill="midnightblue" stroke="midnightblue" points="124.755,-50.1332 116.212,-56.3993 126.798,-56.8284 124.755,-50.1332"/>
</g>
<!-- Node16&#45;&gt;Node15 -->
<g id="edge9" class="edge"><title>Node16&#45;&gt;Node15</title>
<path fill="none" stroke="midnightblue" d="M355.395,-57.3665C332.913,-45.8347 300.871,-29.3992 281.589,-19.5091"/>
<polygon fill="midnightblue" stroke="midnightblue" points="353.885,-60.5253 364.38,-61.9751 357.08,-54.2969 353.885,-60.5253"/>
</g>
<!-- Node17 -->
<g id="node7" class="node"><title>Node17</title>
<g id="a_node7"><a xlink:href="../../d1/d86/vhdljjparser_8cpp.html" target="_top" xlink:title="src/vhdljjparser.cpp">
<polygon fill="white" stroke="black" points="353.5,-0.5 353.5,-19.5 454.5,-19.5 454.5,-0.5 353.5,-0.5"/>
<text text-anchor="middle" x="404" y="-7.5" font-family="Helvetica,sans-Serif" font-size="10.00">src/vhdljjparser.cpp</text>
</a>
</g>
</g>
<!-- Node16&#45;&gt;Node17 -->
<g id="edge8" class="edge"><title>Node16&#45;&gt;Node17</title>
<path fill="none" stroke="midnightblue" d="M387.959,-52.4968C392.191,-41.5497 397.4,-28.0746 400.711,-19.5091"/>
<polygon fill="midnightblue" stroke="midnightblue" points="384.636,-51.3857 384.295,-61.9751 391.166,-53.9097 384.636,-51.3857"/>
</g>
</g>
</svg>
