<?xml version="1.0" encoding="UTF-8" standalone="no"?>
<!DOCTYPE svg PUBLIC "-//W3C//DTD SVG 1.1//EN"
 "http://www.w3.org/Graphics/SVG/1.1/DTD/svg11.dtd">
<!-- Generated by graphviz version 2.38.0 (20140413.2041)
 -->
<!-- Title: HtmlHelpIndex Pages: 1 -->
<svg width="378pt" height="307pt"
 viewBox="0.00 0.00 377.50 307.00" xmlns="http://www.w3.org/2000/svg" xmlns:xlink="http://www.w3.org/1999/xlink">
<g id="graph0" class="graph" transform="scale(1 1) rotate(0) translate(4 303)">
<title>HtmlHelpIndex</title>
<polygon fill="white" stroke="none" points="-4,4 -4,-303 373.5,-303 373.5,4 -4,4"/>
<!-- Node1 -->
<g id="node1" class="node"><title>Node1</title>
<polygon fill="#bfbfbf" stroke="black" points="285.5,-78.5 285.5,-97.5 367.5,-97.5 367.5,-78.5 285.5,-78.5"/>
<text text-anchor="middle" x="326.5" y="-85.5" font-family="Helvetica,sans-Serif" font-size="10.00">HtmlHelpIndex</text>
</g>
<!-- Node9 -->
<g id="node9" class="node"><title>Node9</title>
<g id="a_node9"><a xlink:href="../../d4/db3/class_html_help.html" target="_top" xlink:title="A class that generated the HTML Help specific files. ">
<polygon fill="white" stroke="black" points="222.5,-0.5 222.5,-19.5 280.5,-19.5 280.5,-0.5 222.5,-0.5"/>
<text text-anchor="middle" x="251.5" y="-7.5" font-family="Helvetica,sans-Serif" font-size="10.00">HtmlHelp</text>
</a>
</g>
</g>
<!-- Node1&#45;&gt;Node9 -->
<g id="edge12" class="edge"><title>Node1&#45;&gt;Node9</title>
<path fill="none" stroke="#9a32cd" stroke-dasharray="5,2" d="M290.257,-73.9116C283.398,-70.2077 276.74,-65.6132 271.5,-60 260.716,-48.4471 255.395,-30.299 253.064,-19.6332"/>
<polygon fill="#9a32cd" stroke="#9a32cd" points="289.094,-77.2361 299.622,-78.4224 292.132,-70.9296 289.094,-77.2361"/>
<text text-anchor="middle" x="285" y="-46.5" font-family="Helvetica,sans-Serif" font-size="10.00"> index</text>
</g>
<!-- Node2 -->
<g id="node2" class="node"><title>Node2</title>
<g id="a_node2"><a xlink:href="../../d3/db1/class_index_field_s_dict.html" target="_top" xlink:title="Sorted dictionary of IndexField objects. ">
<polygon fill="white" stroke="black" points="283.5,-145.5 283.5,-164.5 369.5,-164.5 369.5,-145.5 283.5,-145.5"/>
<text text-anchor="middle" x="326.5" y="-152.5" font-family="Helvetica,sans-Serif" font-size="10.00">IndexFieldSDict</text>
</a>
</g>
</g>
<!-- Node2&#45;&gt;Node1 -->
<g id="edge1" class="edge"><title>Node2&#45;&gt;Node1</title>
<path fill="none" stroke="#9a32cd" stroke-dasharray="5,2" d="M326.5,-135.037C326.5,-122.67 326.5,-107.12 326.5,-97.6273"/>
<polygon fill="#9a32cd" stroke="#9a32cd" points="323,-135.234 326.5,-145.234 330,-135.234 323,-135.234"/>
<text text-anchor="middle" x="336" y="-119" font-family="Helvetica,sans-Serif" font-size="10.00"> dict</text>
</g>
<!-- Node3 -->
<g id="node3" class="node"><title>Node3</title>
<g id="a_node3"><a xlink:href="../../d1/d50/class_s_dict.html" target="_top" xlink:title="SDict\&lt; IndexField \&gt;">
<polygon fill="white" stroke="black" points="229.5,-212.5 229.5,-231.5 333.5,-231.5 333.5,-212.5 229.5,-212.5"/>
<text text-anchor="middle" x="281.5" y="-219.5" font-family="Helvetica,sans-Serif" font-size="10.00">SDict&lt; IndexField &gt;</text>
</a>
</g>
</g>
<!-- Node3&#45;&gt;Node2 -->
<g id="edge2" class="edge"><title>Node3&#45;&gt;Node2</title>
<path fill="none" stroke="midnightblue" d="M301.932,-205.827C305.81,-202.266 309.565,-198.256 312.5,-194 318.726,-184.97 322.563,-172.835 324.61,-164.732"/>
<polygon fill="midnightblue" stroke="midnightblue" points="299.449,-203.341 294.027,-212.444 303.941,-208.709 299.449,-203.341"/>
</g>
<!-- Node4 -->
<g id="node4" class="node"><title>Node4</title>
<g id="a_node4"><a xlink:href="../../df/dce/class_s_list.html" target="_top" xlink:title="SList\&lt; IndexField \&gt;">
<polygon fill="white" stroke="black" points="118.5,-145.5 118.5,-164.5 220.5,-164.5 220.5,-145.5 118.5,-145.5"/>
<text text-anchor="middle" x="169.5" y="-152.5" font-family="Helvetica,sans-Serif" font-size="10.00">SList&lt; IndexField &gt;</text>
</a>
</g>
</g>
<!-- Node3&#45;&gt;Node4 -->
<g id="edge5" class="edge"><title>Node3&#45;&gt;Node4</title>
<path fill="none" stroke="#9a32cd" stroke-dasharray="5,2" d="M243.852,-209.008C233.344,-204.941 222.165,-199.904 212.5,-194 198.897,-185.69 185.501,-172.924 177.367,-164.518"/>
<polygon fill="#9a32cd" stroke="#9a32cd" points="242.658,-212.298 253.251,-212.469 245.076,-205.729 242.658,-212.298"/>
<text text-anchor="middle" x="234" y="-186" font-family="Helvetica,sans-Serif" font-size="10.00"> m_owner</text>
</g>
<!-- Node4&#45;&gt;Node3 -->
<g id="edge3" class="edge"><title>Node4&#45;&gt;Node3</title>
<path fill="none" stroke="#9a32cd" stroke-dasharray="5,2" d="M230.393,-167.406C240.792,-171.204 250.974,-176.263 259.5,-183 269.189,-190.656 275.426,-203.84 278.699,-212.489"/>
<polygon fill="#9a32cd" stroke="#9a32cd" points="231.416,-164.058 220.823,-164.26 229.23,-170.708 231.416,-164.058"/>
<text text-anchor="middle" x="283.5" y="-186" font-family="Helvetica,sans-Serif" font-size="10.00"> m_list</text>
</g>
<!-- Node5 -->
<g id="node5" class="node"><title>Node5</title>
<polygon fill="white" stroke="#bfbfbf" points="0,-212.5 0,-231.5 103,-231.5 103,-212.5 0,-212.5"/>
<text text-anchor="middle" x="51.5" y="-219.5" font-family="Helvetica,sans-Serif" font-size="10.00">QList&lt; IndexField &gt;</text>
</g>
<!-- Node5&#45;&gt;Node4 -->
<g id="edge4" class="edge"><title>Node5&#45;&gt;Node4</title>
<path fill="none" stroke="midnightblue" d="M76.394,-207.287C99.7808,-194.405 134.056,-175.524 153.838,-164.627"/>
<polygon fill="midnightblue" stroke="midnightblue" points="74.4843,-204.343 67.414,-212.234 77.8618,-210.475 74.4843,-204.343"/>
</g>
<!-- Node6 -->
<g id="node6" class="node"><title>Node6</title>
<g id="a_node6"><a xlink:href="../../df/dce/class_s_list.html" target="_top" xlink:title="internal wrapper class that redirects compareValues() to the dictionary ">
<polygon fill="white" stroke="black" points="121,-212.5 121,-231.5 184,-231.5 184,-212.5 121,-212.5"/>
<text text-anchor="middle" x="152.5" y="-219.5" font-family="Helvetica,sans-Serif" font-size="10.00">SList&lt; T &gt;</text>
</a>
</g>
</g>
<!-- Node6&#45;&gt;Node4 -->
<g id="edge6" class="edge"><title>Node6&#45;&gt;Node4</title>
<path fill="none" stroke="orange" stroke-dasharray="5,2" d="M132.258,-205.124C126.284,-198.471 122.33,-190.542 126.5,-183 131.021,-174.823 139.17,-168.788 147.168,-164.524"/>
<polygon fill="orange" stroke="orange" points="130.152,-207.947 139.835,-212.247 134.947,-202.847 130.152,-207.947"/>
<text text-anchor="middle" x="160" y="-186" font-family="Helvetica,sans-Serif" font-size="10.00"> &lt; IndexField &gt;</text>
</g>
<!-- Node7 -->
<g id="node7" class="node"><title>Node7</title>
<polygon fill="white" stroke="#bfbfbf" points="120.5,-279.5 120.5,-298.5 184.5,-298.5 184.5,-279.5 120.5,-279.5"/>
<text text-anchor="middle" x="152.5" y="-286.5" font-family="Helvetica,sans-Serif" font-size="10.00">QList&lt; T &gt;</text>
</g>
<!-- Node7&#45;&gt;Node6 -->
<g id="edge7" class="edge"><title>Node7&#45;&gt;Node6</title>
<path fill="none" stroke="midnightblue" d="M152.5,-269.037C152.5,-256.67 152.5,-241.12 152.5,-231.627"/>
<polygon fill="midnightblue" stroke="midnightblue" points="149,-269.234 152.5,-279.234 156,-269.234 149,-269.234"/>
</g>
<!-- Node8 -->
<g id="node8" class="node"><title>Node8</title>
<g id="a_node8"><a xlink:href="../../d1/d50/class_s_dict.html" target="_top" xlink:title="Ordered dictionary of elements of type T. ">
<polygon fill="white" stroke="black" points="249,-279.5 249,-298.5 314,-298.5 314,-279.5 249,-279.5"/>
<text text-anchor="middle" x="281.5" y="-286.5" font-family="Helvetica,sans-Serif" font-size="10.00">SDict&lt; T &gt;</text>
</a>
</g>
</g>
<!-- Node8&#45;&gt;Node3 -->
<g id="edge8" class="edge"><title>Node8&#45;&gt;Node3</title>
<path fill="none" stroke="orange" stroke-dasharray="5,2" d="M281.5,-269.037C281.5,-256.67 281.5,-241.12 281.5,-231.627"/>
<polygon fill="orange" stroke="orange" points="278,-269.234 281.5,-279.234 285,-269.234 278,-269.234"/>
<text text-anchor="middle" x="315" y="-253" font-family="Helvetica,sans-Serif" font-size="10.00"> &lt; IndexField &gt;</text>
</g>
<!-- Node9&#45;&gt;Node1 -->
<g id="edge9" class="edge"><title>Node9&#45;&gt;Node1</title>
<path fill="none" stroke="#9a32cd" stroke-dasharray="5,2" d="M283.925,-24.2201C290.62,-27.9765 297.228,-32.5591 302.5,-38 313.838,-49.7005 320.775,-67.7978 324.106,-78.4145"/>
<polygon fill="#9a32cd" stroke="#9a32cd" points="285.36,-21.0231 274.86,-19.6066 282.185,-27.2617 285.36,-21.0231"/>
<text text-anchor="middle" x="333" y="-46.5" font-family="Helvetica,sans-Serif" font-size="10.00"> m_help</text>
</g>
<!-- Node9&#45;&gt;Node9 -->
<g id="edge13" class="edge"><title>Node9&#45;&gt;Node9</title>
<path fill="none" stroke="#9a32cd" stroke-dasharray="5,2" d="M291.103,-16.0378C295.591,-14.9071 298.5,-12.8945 298.5,-10 298.5,-5.25 290.667,-2.875 280.875,-2.875"/>
<polygon fill="#9a32cd" stroke="#9a32cd" points="290.449,-12.5875 280.875,-17.125 291.189,-19.5483 290.449,-12.5875"/>
<text text-anchor="middle" x="326" y="-7.5" font-family="Helvetica,sans-Serif" font-size="10.00"> theInstance</text>
</g>
<!-- Node10 -->
<g id="node10" class="node"><title>Node10</title>
<g id="a_node10"><a xlink:href="../../d9/dd5/class_index_intf.html" target="_top" xlink:title="Abstract interface for index generators. ">
<polygon fill="white" stroke="black" points="120,-78.5 120,-97.5 175,-97.5 175,-78.5 120,-78.5"/>
<text text-anchor="middle" x="147.5" y="-85.5" font-family="Helvetica,sans-Serif" font-size="10.00">IndexIntf</text>
</a>
</g>
</g>
<!-- Node10&#45;&gt;Node9 -->
<g id="edge10" class="edge"><title>Node10&#45;&gt;Node9</title>
<path fill="none" stroke="midnightblue" d="M167.534,-72.3596C188.942,-56.7154 222.159,-32.4411 239.709,-19.6165"/>
<polygon fill="midnightblue" stroke="midnightblue" points="165.439,-69.5558 159.43,-78.2818 169.569,-75.2075 165.439,-69.5558"/>
</g>
<!-- Node11 -->
<g id="node11" class="node"><title>Node11</title>
<g id="a_node11"><a xlink:href="../../dc/d3c/class_f_text_stream.html" target="_top" xlink:title="Simplified and optimized version of QTextStream. ">
<polygon fill="white" stroke="black" points="193.5,-78.5 193.5,-97.5 267.5,-97.5 267.5,-78.5 193.5,-78.5"/>
<text text-anchor="middle" x="230.5" y="-85.5" font-family="Helvetica,sans-Serif" font-size="10.00">FTextStream</text>
</a>
</g>
</g>
<!-- Node11&#45;&gt;Node9 -->
<g id="edge11" class="edge"><title>Node11&#45;&gt;Node9</title>
<path fill="none" stroke="#9a32cd" stroke-dasharray="5,2" d="M229.949,-68.3017C230.191,-58.9842 231.277,-47.6713 234.5,-38 236.672,-31.4837 240.728,-24.9453 244.334,-19.9351"/>
<polygon fill="#9a32cd" stroke="#9a32cd" points="226.449,-68.4458 229.986,-78.4329 233.449,-68.4202 226.449,-68.4458"/>
<text text-anchor="middle" x="243" y="-52" font-family="Helvetica,sans-Serif" font-size="10.00"> kts</text>
<text text-anchor="middle" x="243" y="-41" font-family="Helvetica,sans-Serif" font-size="10.00">cts</text>
</g>
</g>
</svg>
