<?xml version="1.0" encoding="UTF-8" standalone="no"?>
<!DOCTYPE svg PUBLIC "-//W3C//DTD SVG 1.1//EN"
 "http://www.w3.org/Graphics/SVG/1.1/DTD/svg11.dtd">
<!-- Generated by graphviz version 2.38.0 (20140413.2041)
 -->
<!-- Title: PageContext::Private Pages: 1 -->
<svg width="184pt" height="163pt"
 viewBox="0.00 0.00 184.00 163.00" xmlns="http://www.w3.org/2000/svg" xmlns:xlink="http://www.w3.org/1999/xlink">
<g id="graph0" class="graph" transform="scale(1 1) rotate(0) translate(4 159)">
<title>PageContext::Private</title>
<polygon fill="white" stroke="none" points="-4,4 -4,-159 180,-159 180,4 -4,4"/>
<!-- Node0 -->
<g id="node1" class="node"><title>Node0</title>
<polygon fill="#bfbfbf" stroke="black" points="6,-0.5 6,-19.5 116,-19.5 116,-0.5 6,-0.5"/>
<text text-anchor="middle" x="61" y="-7.5" font-family="Helvetica,sans-Serif" font-size="10.00">PageContext::Private</text>
</g>
<!-- Node1 -->
<g id="node2" class="node"><title>Node1</title>
<g id="a_node2"><a xlink:href="../../d6/d49/class_definition_context.html" target="_top" xlink:title="DefinitionContext\&lt;\l PageContext::Private \&gt;">
<polygon fill="white" stroke="black" points="0,-57.5 0,-87.5 122,-87.5 122,-57.5 0,-57.5"/>
<text text-anchor="start" x="8" y="-75.5" font-family="Helvetica,sans-Serif" font-size="10.00">DefinitionContext&lt;</text>
<text text-anchor="middle" x="61" y="-64.5" font-family="Helvetica,sans-Serif" font-size="10.00"> PageContext::Private &gt;</text>
</a>
</g>
</g>
<!-- Node1&#45;&gt;Node0 -->
<g id="edge1" class="edge"><title>Node1&#45;&gt;Node0</title>
<path fill="none" stroke="midnightblue" d="M61,-47.3524C61,-37.5132 61,-26.7753 61,-19.5399"/>
<polygon fill="midnightblue" stroke="midnightblue" points="57.5001,-47.468 61,-57.468 64.5001,-47.4681 57.5001,-47.468"/>
</g>
<!-- Node2 -->
<g id="node3" class="node"><title>Node2</title>
<g id="a_node3"><a xlink:href="../../d6/d49/class_definition_context.html" target="_top" xlink:title="DefinitionContext\&lt; T \&gt;">
<polygon fill="white" stroke="black" points="3,-135.5 3,-154.5 119,-154.5 119,-135.5 3,-135.5"/>
<text text-anchor="middle" x="61" y="-142.5" font-family="Helvetica,sans-Serif" font-size="10.00">DefinitionContext&lt; T &gt;</text>
</a>
</g>
</g>
<!-- Node2&#45;&gt;Node1 -->
<g id="edge2" class="edge"><title>Node2&#45;&gt;Node1</title>
<path fill="none" stroke="orange" stroke-dasharray="5,2" d="M61,-125.236C61,-113.408 61,-98.3829 61,-87.5762"/>
<polygon fill="orange" stroke="orange" points="57.5001,-125.355 61,-135.355 64.5001,-125.355 57.5001,-125.355"/>
<text text-anchor="middle" x="118.5" y="-109" font-family="Helvetica,sans-Serif" font-size="10.00"> &lt; PageContext::Private &gt;</text>
</g>
</g>
</svg>
