<?xml version="1.0" encoding="UTF-8" standalone="no"?>
<!DOCTYPE svg PUBLIC "-//W3C//DTD SVG 1.1//EN"
 "http://www.w3.org/Graphics/SVG/1.1/DTD/svg11.dtd">
<!-- Generated by graphviz version 2.38.0 (20140413.2041)
 -->
<!-- Title: src/markdown.h Pages: 1 -->
<svg width="325pt" height="84pt"
 viewBox="0.00 0.00 325.00 84.00" xmlns="http://www.w3.org/2000/svg" xmlns:xlink="http://www.w3.org/1999/xlink">
<g id="graph0" class="graph" transform="scale(1 1) rotate(0) translate(4 80)">
<title>src/markdown.h</title>
<polygon fill="white" stroke="none" points="-4,4 -4,-80 321,-80 321,4 -4,4"/>
<!-- Node6 -->
<g id="node1" class="node"><title>Node6</title>
<polygon fill="#bfbfbf" stroke="black" points="114.5,-56.5 114.5,-75.5 200.5,-75.5 200.5,-56.5 114.5,-56.5"/>
<text text-anchor="middle" x="157.5" y="-63.5" font-family="Helvetica,sans-Serif" font-size="10.00">src/markdown.h</text>
</g>
<!-- Node7 -->
<g id="node2" class="node"><title>Node7</title>
<g id="a_node2"><a xlink:href="../../da/d17/docparser_8cpp.html" target="_top" xlink:title="src/docparser.cpp">
<polygon fill="white" stroke="black" points="0,-0.5 0,-19.5 95,-19.5 95,-0.5 0,-0.5"/>
<text text-anchor="middle" x="47.5" y="-7.5" font-family="Helvetica,sans-Serif" font-size="10.00">src/docparser.cpp</text>
</a>
</g>
</g>
<!-- Node6&#45;&gt;Node7 -->
<g id="edge1" class="edge"><title>Node6&#45;&gt;Node7</title>
<path fill="none" stroke="midnightblue" d="M130.738,-51.8622C110.341,-41.8492 82.8341,-28.3458 65.1295,-19.6545"/>
<polygon fill="midnightblue" stroke="midnightblue" points="129.308,-55.059 139.827,-56.324 132.392,-48.7753 129.308,-55.059"/>
</g>
<!-- Node8 -->
<g id="node3" class="node"><title>Node8</title>
<g id="a_node3"><a xlink:href="../../dc/d98/doxygen_8cpp.html" target="_top" xlink:title="src/doxygen.cpp">
<polygon fill="white" stroke="black" points="113,-0.5 113,-19.5 202,-19.5 202,-0.5 113,-0.5"/>
<text text-anchor="middle" x="157.5" y="-7.5" font-family="Helvetica,sans-Serif" font-size="10.00">src/doxygen.cpp</text>
</a>
</g>
</g>
<!-- Node6&#45;&gt;Node8 -->
<g id="edge2" class="edge"><title>Node6&#45;&gt;Node8</title>
<path fill="none" stroke="midnightblue" d="M157.5,-45.8045C157.5,-36.9102 157.5,-26.7798 157.5,-19.7511"/>
<polygon fill="midnightblue" stroke="midnightblue" points="154,-46.083 157.5,-56.083 161,-46.083 154,-46.083"/>
</g>
<!-- Node9 -->
<g id="node4" class="node"><title>Node9</title>
<g id="a_node4"><a xlink:href="../../de/d04/markdown_8cpp.html" target="_top" xlink:title="src/markdown.cpp">
<polygon fill="white" stroke="black" points="220,-0.5 220,-19.5 317,-19.5 317,-0.5 220,-0.5"/>
<text text-anchor="middle" x="268.5" y="-7.5" font-family="Helvetica,sans-Serif" font-size="10.00">src/markdown.cpp</text>
</a>
</g>
</g>
<!-- Node6&#45;&gt;Node9 -->
<g id="edge3" class="edge"><title>Node6&#45;&gt;Node9</title>
<path fill="none" stroke="midnightblue" d="M184.505,-51.8622C205.088,-41.8492 232.845,-28.3458 250.71,-19.6545"/>
<polygon fill="midnightblue" stroke="midnightblue" points="182.795,-48.8019 175.334,-56.324 185.858,-55.0966 182.795,-48.8019"/>
</g>
</g>
</svg>
