<?xml version="1.0" encoding="UTF-8" standalone="no"?>
<!DOCTYPE svg PUBLIC "-//W3C//DTD SVG 1.1//EN"
 "http://www.w3.org/Graphics/SVG/1.1/DTD/svg11.dtd">
<!-- Generated by graphviz version 2.38.0 (20140413.2041)
 -->
<!-- Title: src/marshal.h Pages: 1 -->
<svg width="374pt" height="196pt"
 viewBox="0.00 0.00 373.50 196.00" xmlns="http://www.w3.org/2000/svg" xmlns:xlink="http://www.w3.org/1999/xlink">
<g id="graph0" class="graph" transform="scale(1 1) rotate(0) translate(4 192)">
<title>src/marshal.h</title>
<polygon fill="white" stroke="none" points="-4,4 -4,-192 369.5,-192 369.5,4 -4,4"/>
<!-- Node0 -->
<g id="node1" class="node"><title>Node0</title>
<polygon fill="#bfbfbf" stroke="black" points="67.5,-168.5 67.5,-187.5 143.5,-187.5 143.5,-168.5 67.5,-168.5"/>
<text text-anchor="middle" x="105.5" y="-175.5" font-family="Helvetica,sans-Serif" font-size="10.00">src/marshal.h</text>
</g>
<!-- Node1 -->
<g id="node2" class="node"><title>Node1</title>
<polygon fill="white" stroke="#bfbfbf" points="0,-56.5 0,-75.5 43,-75.5 43,-56.5 0,-56.5"/>
<text text-anchor="middle" x="21.5" y="-63.5" font-family="Helvetica,sans-Serif" font-size="10.00">qlist.h</text>
</g>
<!-- Node0&#45;&gt;Node1 -->
<g id="edge1" class="edge"><title>Node0&#45;&gt;Node1</title>
<path fill="none" stroke="midnightblue" d="M86.6019,-168.373C71.9824,-160.773 52.3019,-148.364 40.5,-132 30.7214,-118.441 25.944,-99.8923 23.6288,-86.0791"/>
<polygon fill="midnightblue" stroke="midnightblue" points="27.0447,-85.2294 22.2074,-75.8033 20.1107,-86.1886 27.0447,-85.2294"/>
</g>
<!-- Node2 -->
<g id="node3" class="node"><title>Node2</title>
<polygon fill="white" stroke="#bfbfbf" points="50,-112.5 50,-131.5 93,-131.5 93,-112.5 50,-112.5"/>
<text text-anchor="middle" x="71.5" y="-119.5" font-family="Helvetica,sans-Serif" font-size="10.00">qfile.h</text>
</g>
<!-- Node0&#45;&gt;Node2 -->
<g id="edge2" class="edge"><title>Node0&#45;&gt;Node2</title>
<path fill="none" stroke="midnightblue" d="M99.8856,-168.083C95.1326,-160.534 88.1819,-149.495 82.3484,-140.23"/>
<polygon fill="midnightblue" stroke="midnightblue" points="85.2999,-138.349 77.0099,-131.751 79.3763,-142.078 85.2999,-138.349"/>
</g>
<!-- Node3 -->
<g id="node4" class="node"><title>Node3</title>
<g id="a_node4"><a xlink:href="../../d9/d21/sortdict_8h.html" target="_top" xlink:title="sortdict.h">
<polygon fill="white" stroke="black" points="111,-112.5 111,-131.5 168,-131.5 168,-112.5 111,-112.5"/>
<text text-anchor="middle" x="139.5" y="-119.5" font-family="Helvetica,sans-Serif" font-size="10.00">sortdict.h</text>
</a>
</g>
</g>
<!-- Node0&#45;&gt;Node3 -->
<g id="edge3" class="edge"><title>Node0&#45;&gt;Node3</title>
<path fill="none" stroke="midnightblue" d="M111.114,-168.083C115.867,-160.534 122.818,-149.495 128.652,-140.23"/>
<polygon fill="midnightblue" stroke="midnightblue" points="131.624,-142.078 133.99,-131.751 125.7,-138.349 131.624,-142.078"/>
</g>
<!-- Node6 -->
<g id="node7" class="node"><title>Node6</title>
<g id="a_node7"><a xlink:href="../../d5/d3f/store_8h.html" target="_top" xlink:title="store.h">
<polygon fill="white" stroke="black" points="215,-112.5 215,-131.5 262,-131.5 262,-112.5 215,-112.5"/>
<text text-anchor="middle" x="238.5" y="-119.5" font-family="Helvetica,sans-Serif" font-size="10.00">store.h</text>
</a>
</g>
</g>
<!-- Node0&#45;&gt;Node6 -->
<g id="edge7" class="edge"><title>Node0&#45;&gt;Node6</title>
<path fill="none" stroke="midnightblue" d="M126.574,-168.444C148.56,-159.517 183.234,-145.439 208.164,-135.317"/>
<polygon fill="midnightblue" stroke="midnightblue" points="209.576,-138.521 217.524,-131.516 206.942,-132.035 209.576,-138.521"/>
</g>
<!-- Node3&#45;&gt;Node1 -->
<g id="edge4" class="edge"><title>Node3&#45;&gt;Node1</title>
<path fill="none" stroke="midnightblue" d="M120.803,-112.444C101.556,-103.636 71.3475,-89.8116 49.2999,-79.722"/>
<polygon fill="midnightblue" stroke="midnightblue" points="50.6595,-76.4951 40.11,-75.5164 47.7466,-82.8603 50.6595,-76.4951"/>
</g>
<!-- Node4 -->
<g id="node5" class="node"><title>Node4</title>
<polygon fill="white" stroke="#bfbfbf" points="61.5,-56.5 61.5,-75.5 107.5,-75.5 107.5,-56.5 61.5,-56.5"/>
<text text-anchor="middle" x="84.5" y="-63.5" font-family="Helvetica,sans-Serif" font-size="10.00">qdict.h</text>
</g>
<!-- Node3&#45;&gt;Node4 -->
<g id="edge5" class="edge"><title>Node3&#45;&gt;Node4</title>
<path fill="none" stroke="midnightblue" d="M130.418,-112.083C122.329,-104.141 110.305,-92.3354 100.59,-82.7973"/>
<polygon fill="midnightblue" stroke="midnightblue" points="103.001,-80.2595 93.4131,-75.7511 98.0967,-85.2545 103.001,-80.2595"/>
</g>
<!-- Node5 -->
<g id="node6" class="node"><title>Node5</title>
<polygon fill="white" stroke="#bfbfbf" points="125.5,-56.5 125.5,-75.5 181.5,-75.5 181.5,-56.5 125.5,-56.5"/>
<text text-anchor="middle" x="153.5" y="-63.5" font-family="Helvetica,sans-Serif" font-size="10.00">qintdict.h</text>
</g>
<!-- Node3&#45;&gt;Node5 -->
<g id="edge6" class="edge"><title>Node3&#45;&gt;Node5</title>
<path fill="none" stroke="midnightblue" d="M141.812,-112.083C143.667,-104.927 146.335,-94.6353 148.654,-85.6911"/>
<polygon fill="midnightblue" stroke="midnightblue" points="152.109,-86.3094 151.231,-75.7511 145.334,-84.5527 152.109,-86.3094"/>
</g>
<!-- Node7 -->
<g id="node8" class="node"><title>Node7</title>
<polygon fill="white" stroke="#bfbfbf" points="159.5,-0.5 159.5,-19.5 215.5,-19.5 215.5,-0.5 159.5,-0.5"/>
<text text-anchor="middle" x="187.5" y="-7.5" font-family="Helvetica,sans-Serif" font-size="10.00">qglobal.h</text>
</g>
<!-- Node6&#45;&gt;Node7 -->
<g id="edge8" class="edge"><title>Node6&#45;&gt;Node7</title>
<path fill="none" stroke="midnightblue" d="M234.498,-112.368C226.193,-94.4563 206.937,-52.9233 195.821,-28.9482"/>
<polygon fill="midnightblue" stroke="midnightblue" points="198.865,-27.1916 191.483,-19.5914 192.514,-30.136 198.865,-27.1916"/>
</g>
<!-- Node8 -->
<g id="node9" class="node"><title>Node8</title>
<polygon fill="white" stroke="#bfbfbf" points="319.5,-0.5 319.5,-19.5 365.5,-19.5 365.5,-0.5 319.5,-0.5"/>
<text text-anchor="middle" x="342.5" y="-7.5" font-family="Helvetica,sans-Serif" font-size="10.00">stdio.h</text>
</g>
<!-- Node6&#45;&gt;Node8 -->
<g id="edge9" class="edge"><title>Node6&#45;&gt;Node8</title>
<path fill="none" stroke="midnightblue" d="M256.113,-112.422C270.941,-104.534 291.992,-91.6991 306.5,-76 319.198,-62.2599 329.063,-43.2261 335.229,-29.3066"/>
<polygon fill="midnightblue" stroke="midnightblue" points="338.563,-30.4067 339.209,-19.8315 332.109,-27.6956 338.563,-30.4067"/>
</g>
<!-- Node9 -->
<g id="node10" class="node"><title>Node9</title>
<g id="a_node10"><a xlink:href="../../d2/de2/portable_8h.html" target="_top" xlink:title="Portable versions of functions that are platform dependent. ">
<polygon fill="white" stroke="black" points="238,-56.5 238,-75.5 297,-75.5 297,-56.5 238,-56.5"/>
<text text-anchor="middle" x="267.5" y="-63.5" font-family="Helvetica,sans-Serif" font-size="10.00">portable.h</text>
</a>
</g>
</g>
<!-- Node6&#45;&gt;Node9 -->
<g id="edge10" class="edge"><title>Node6&#45;&gt;Node9</title>
<path fill="none" stroke="midnightblue" d="M243.289,-112.083C247.258,-104.691 253.025,-93.9533 257.935,-84.8111"/>
<polygon fill="midnightblue" stroke="midnightblue" points="261.153,-86.217 262.8,-75.7511 254.986,-82.9051 261.153,-86.217"/>
</g>
<!-- Node9&#45;&gt;Node7 -->
<g id="edge13" class="edge"><title>Node9&#45;&gt;Node7</title>
<path fill="none" stroke="midnightblue" d="M254.647,-56.324C242.284,-47.979 223.37,-35.2122 208.763,-25.3524"/>
<polygon fill="midnightblue" stroke="midnightblue" points="210.568,-22.3483 200.321,-19.6545 206.652,-28.1503 210.568,-22.3483"/>
</g>
<!-- Node9&#45;&gt;Node8 -->
<g id="edge12" class="edge"><title>Node9&#45;&gt;Node8</title>
<path fill="none" stroke="midnightblue" d="M279.55,-56.324C290.963,-48.1066 308.331,-35.6017 321.935,-25.8069"/>
<polygon fill="midnightblue" stroke="midnightblue" points="324.16,-28.5174 330.231,-19.8339 320.07,-22.8366 324.16,-28.5174"/>
</g>
<!-- Node10 -->
<g id="node11" class="node"><title>Node10</title>
<polygon fill="white" stroke="#bfbfbf" points="233.5,-0.5 233.5,-19.5 301.5,-19.5 301.5,-0.5 233.5,-0.5"/>
<text text-anchor="middle" x="267.5" y="-7.5" font-family="Helvetica,sans-Serif" font-size="10.00">sys/types.h</text>
</g>
<!-- Node9&#45;&gt;Node10 -->
<g id="edge11" class="edge"><title>Node9&#45;&gt;Node10</title>
<path fill="none" stroke="midnightblue" d="M267.5,-56.083C267.5,-49.0059 267.5,-38.8611 267.5,-29.9865"/>
<polygon fill="midnightblue" stroke="midnightblue" points="271,-29.751 267.5,-19.7511 264,-29.7511 271,-29.751"/>
</g>
</g>
</svg>
