<?xml version="1.0" encoding="UTF-8" standalone="no"?>
<!DOCTYPE svg PUBLIC "-//W3C//DTD SVG 1.1//EN"
 "http://www.w3.org/Graphics/SVG/1.1/DTD/svg11.dtd">
<!-- Generated by graphviz version 2.38.0 (20140413.2041)
 -->
<!-- Title: TemplateImpl Pages: 1 -->
<svg width="164pt" height="84pt"
 viewBox="0.00 0.00 163.50 84.00" xmlns="http://www.w3.org/2000/svg" xmlns:xlink="http://www.w3.org/1999/xlink">
<g id="graph0" class="graph" transform="scale(1 1) rotate(0) translate(4 80)">
<title>TemplateImpl</title>
<polygon fill="white" stroke="none" points="-4,4 -4,-80 159.5,-80 159.5,4 -4,4"/>
<!-- Node0 -->
<g id="node1" class="node"><title>Node0</title>
<polygon fill="#bfbfbf" stroke="black" points="45,-0.5 45,-19.5 121,-19.5 121,-0.5 45,-0.5"/>
<text text-anchor="middle" x="83" y="-7.5" font-family="Helvetica,sans-Serif" font-size="10.00">TemplateImpl</text>
</g>
<!-- Node1 -->
<g id="node2" class="node"><title>Node1</title>
<g id="a_node2"><a xlink:href="../../d6/d53/class_template_node.html" target="_top" xlink:title="Base class of all nodes in a template&#39;s AST. ">
<polygon fill="white" stroke="black" points="0,-56.5 0,-75.5 80,-75.5 80,-56.5 0,-56.5"/>
<text text-anchor="middle" x="40" y="-63.5" font-family="Helvetica,sans-Serif" font-size="10.00">TemplateNode</text>
</a>
</g>
</g>
<!-- Node1&#45;&gt;Node0 -->
<g id="edge1" class="edge"><title>Node1&#45;&gt;Node0</title>
<path fill="none" stroke="midnightblue" d="M53.4224,-48.144C60.9142,-38.7357 69.9371,-27.4046 76.0315,-19.7511"/>
<polygon fill="midnightblue" stroke="midnightblue" points="50.5919,-46.0799 47.1006,-56.083 56.0679,-50.4404 50.5919,-46.0799"/>
</g>
<!-- Node2 -->
<g id="node3" class="node"><title>Node2</title>
<g id="a_node3"><a xlink:href="../../d5/de9/class_template.html" target="_top" xlink:title="Abstract interface for a template. ">
<polygon fill="white" stroke="black" points="98.5,-56.5 98.5,-75.5 155.5,-75.5 155.5,-56.5 98.5,-56.5"/>
<text text-anchor="middle" x="127" y="-63.5" font-family="Helvetica,sans-Serif" font-size="10.00">Template</text>
</a>
</g>
</g>
<!-- Node2&#45;&gt;Node0 -->
<g id="edge2" class="edge"><title>Node2&#45;&gt;Node0</title>
<path fill="none" stroke="midnightblue" d="M113.265,-48.144C105.599,-38.7357 96.3667,-27.4046 90.1305,-19.7511"/>
<polygon fill="midnightblue" stroke="midnightblue" points="110.704,-50.5415 119.734,-56.083 116.131,-46.1198 110.704,-50.5415"/>
</g>
</g>
</svg>
