<?xml version="1.0" encoding="UTF-8" standalone="no"?>
<!DOCTYPE svg PUBLIC "-//W3C//DTD SVG 1.1//EN"
 "http://www.w3.org/Graphics/SVG/1.1/DTD/svg11.dtd">
<!-- Generated by graphviz version 2.38.0 (20140413.2041)
 -->
<!-- Title: src/resourcemgr.h Pages: 1 -->
<svg width="944pt" height="84pt"
 viewBox="0.00 0.00 943.50 84.00" xmlns="http://www.w3.org/2000/svg" xmlns:xlink="http://www.w3.org/1999/xlink">
<g id="graph0" class="graph" transform="scale(1 1) rotate(0) translate(4 80)">
<title>src/resourcemgr.h</title>
<polygon fill="white" stroke="none" points="-4,4 -4,-80 939.5,-80 939.5,4 -4,4"/>
<!-- Node2 -->
<g id="node1" class="node"><title>Node2</title>
<polygon fill="#bfbfbf" stroke="black" points="389.5,-56.5 389.5,-75.5 484.5,-75.5 484.5,-56.5 389.5,-56.5"/>
<text text-anchor="middle" x="437" y="-63.5" font-family="Helvetica,sans-Serif" font-size="10.00">src/resourcemgr.h</text>
</g>
<!-- Node3 -->
<g id="node2" class="node"><title>Node3</title>
<g id="a_node2"><a xlink:href="../../d5/d0b/cite_8cpp.html" target="_top" xlink:title="src/cite.cpp">
<polygon fill="white" stroke="black" points="0,-0.5 0,-19.5 68,-19.5 68,-0.5 0,-0.5"/>
<text text-anchor="middle" x="34" y="-7.5" font-family="Helvetica,sans-Serif" font-size="10.00">src/cite.cpp</text>
</a>
</g>
</g>
<!-- Node2&#45;&gt;Node3 -->
<g id="edge1" class="edge"><title>Node2&#45;&gt;Node3</title>
<path fill="none" stroke="midnightblue" d="M379.237,-59.2545C307.952,-51.825 183.143,-37.7114 77,-20 74.1412,-19.523 71.1837,-18.9893 68.2198,-18.4262"/>
<polygon fill="midnightblue" stroke="midnightblue" points="379.05,-62.7538 389.358,-60.3018 379.771,-55.791 379.05,-62.7538"/>
</g>
<!-- Node4 -->
<g id="node3" class="node"><title>Node4</title>
<g id="a_node3"><a xlink:href="../../db/d12/context_8cpp.html" target="_top" xlink:title="src/context.cpp">
<polygon fill="white" stroke="black" points="86,-0.5 86,-19.5 170,-19.5 170,-0.5 86,-0.5"/>
<text text-anchor="middle" x="128" y="-7.5" font-family="Helvetica,sans-Serif" font-size="10.00">src/context.cpp</text>
</a>
</g>
</g>
<!-- Node2&#45;&gt;Node4 -->
<g id="edge2" class="edge"><title>Node2&#45;&gt;Node4</title>
<path fill="none" stroke="midnightblue" d="M379.355,-54.9795C327.065,-45.8817 247.855,-32.0803 179,-20 176.078,-19.4873 173.061,-18.9572 170.024,-18.4227"/>
<polygon fill="midnightblue" stroke="midnightblue" points="378.992,-58.4687 389.443,-56.7345 380.191,-51.5723 378.992,-58.4687"/>
</g>
<!-- Node5 -->
<g id="node4" class="node"><title>Node5</title>
<g id="a_node4"><a xlink:href="../../db/d41/ftvhelp_8cpp.html" target="_top" xlink:title="src/ftvhelp.cpp">
<polygon fill="white" stroke="black" points="188.5,-0.5 188.5,-19.5 269.5,-19.5 269.5,-0.5 188.5,-0.5"/>
<text text-anchor="middle" x="229" y="-7.5" font-family="Helvetica,sans-Serif" font-size="10.00">src/ftvhelp.cpp</text>
</a>
</g>
</g>
<!-- Node2&#45;&gt;Node5 -->
<g id="edge3" class="edge"><title>Node2&#45;&gt;Node5</title>
<path fill="none" stroke="midnightblue" d="M394.222,-53.8941C354.942,-43.6966 297.571,-28.802 261.804,-19.5164"/>
<polygon fill="midnightblue" stroke="midnightblue" points="393.483,-57.3183 404.042,-56.4435 395.242,-50.5429 393.483,-57.3183"/>
</g>
<!-- Node6 -->
<g id="node5" class="node"><title>Node6</title>
<g id="a_node5"><a xlink:href="../../d8/d6e/htmlgen_8cpp.html" target="_top" xlink:title="src/htmlgen.cpp">
<polygon fill="white" stroke="black" points="288,-0.5 288,-19.5 374,-19.5 374,-0.5 288,-0.5"/>
<text text-anchor="middle" x="331" y="-7.5" font-family="Helvetica,sans-Serif" font-size="10.00">src/htmlgen.cpp</text>
</a>
</g>
</g>
<!-- Node2&#45;&gt;Node6 -->
<g id="edge4" class="edge"><title>Node2&#45;&gt;Node6</title>
<path fill="none" stroke="midnightblue" d="M410.944,-51.7261C391.316,-41.7271 364.972,-28.3065 347.988,-19.6545"/>
<polygon fill="midnightblue" stroke="midnightblue" points="409.47,-54.9033 419.969,-56.324 412.648,-48.666 409.47,-54.9033"/>
</g>
<!-- Node7 -->
<g id="node6" class="node"><title>Node7</title>
<g id="a_node6"><a xlink:href="../../d4/d42/latexgen_8cpp.html" target="_top" xlink:title="src/latexgen.cpp">
<polygon fill="white" stroke="black" points="392.5,-0.5 392.5,-19.5 481.5,-19.5 481.5,-0.5 392.5,-0.5"/>
<text text-anchor="middle" x="437" y="-7.5" font-family="Helvetica,sans-Serif" font-size="10.00">src/latexgen.cpp</text>
</a>
</g>
</g>
<!-- Node2&#45;&gt;Node7 -->
<g id="edge5" class="edge"><title>Node2&#45;&gt;Node7</title>
<path fill="none" stroke="midnightblue" d="M437,-45.8045C437,-36.9102 437,-26.7798 437,-19.7511"/>
<polygon fill="midnightblue" stroke="midnightblue" points="433.5,-46.083 437,-56.083 440.5,-46.083 433.5,-46.083"/>
</g>
<!-- Node8 -->
<g id="node7" class="node"><title>Node8</title>
<g id="a_node7"><a xlink:href="../../d6/dde/resourcemgr_8cpp.html" target="_top" xlink:title="src/resourcemgr.cpp">
<polygon fill="white" stroke="black" points="499,-0.5 499,-19.5 605,-19.5 605,-0.5 499,-0.5"/>
<text text-anchor="middle" x="552" y="-7.5" font-family="Helvetica,sans-Serif" font-size="10.00">src/resourcemgr.cpp</text>
</a>
</g>
</g>
<!-- Node2&#45;&gt;Node8 -->
<g id="edge6" class="edge"><title>Node2&#45;&gt;Node8</title>
<path fill="none" stroke="midnightblue" d="M464.481,-52.096C485.966,-42.0073 515.222,-28.2697 533.863,-19.5164"/>
<polygon fill="midnightblue" stroke="midnightblue" points="462.786,-49.025 455.222,-56.4435 465.762,-55.3612 462.786,-49.025"/>
</g>
<!-- Node9 -->
<g id="node8" class="node"><title>Node9</title>
<g id="a_node8"><a xlink:href="../../d7/d79/searchindex_8cpp.html" target="_top" xlink:title="src/searchindex.cpp">
<polygon fill="white" stroke="black" points="623,-0.5 623,-19.5 727,-19.5 727,-0.5 623,-0.5"/>
<text text-anchor="middle" x="675" y="-7.5" font-family="Helvetica,sans-Serif" font-size="10.00">src/searchindex.cpp</text>
</a>
</g>
</g>
<!-- Node2&#45;&gt;Node9 -->
<g id="edge7" class="edge"><title>Node2&#45;&gt;Node9</title>
<path fill="none" stroke="midnightblue" d="M484.524,-54.2172C529.496,-44.0134 596.105,-28.9006 637.465,-19.5164"/>
<polygon fill="midnightblue" stroke="midnightblue" points="483.689,-50.8175 474.712,-56.4435 485.238,-57.644 483.689,-50.8175"/>
</g>
<!-- Node10 -->
<g id="node9" class="node"><title>Node10</title>
<g id="a_node9"><a xlink:href="../../df/d54/template_8cpp.html" target="_top" xlink:title="src/template.cpp">
<polygon fill="white" stroke="black" points="745.5,-0.5 745.5,-19.5 834.5,-19.5 834.5,-0.5 745.5,-0.5"/>
<text text-anchor="middle" x="790" y="-7.5" font-family="Helvetica,sans-Serif" font-size="10.00">src/template.cpp</text>
</a>
</g>
</g>
<!-- Node2&#45;&gt;Node10 -->
<g id="edge8" class="edge"><title>Node2&#45;&gt;Node10</title>
<path fill="none" stroke="midnightblue" d="M494.754,-56.5836C555.007,-47.7385 652.191,-33.2899 736,-20 739.004,-19.5237 742.1,-19.0258 745.22,-18.5192"/>
<polygon fill="midnightblue" stroke="midnightblue" points="494.064,-53.1472 484.678,-58.0611 495.08,-60.0732 494.064,-53.1472"/>
</g>
<!-- Node11 -->
<g id="node10" class="node"><title>Node11</title>
<g id="a_node10"><a xlink:href="../../d0/dc3/xmlgen_8cpp.html" target="_top" xlink:title="src/xmlgen.cpp">
<polygon fill="white" stroke="black" points="852.5,-0.5 852.5,-19.5 935.5,-19.5 935.5,-0.5 852.5,-0.5"/>
<text text-anchor="middle" x="894" y="-7.5" font-family="Helvetica,sans-Serif" font-size="10.00">src/xmlgen.cpp</text>
</a>
</g>
</g>
<!-- Node2&#45;&gt;Node11 -->
<g id="edge9" class="edge"><title>Node2&#45;&gt;Node11</title>
<path fill="none" stroke="midnightblue" d="M494.995,-59.8387C574.085,-52.515 720.112,-37.9775 844,-20 846.706,-19.6073 849.49,-19.1778 852.293,-18.7261"/>
<polygon fill="midnightblue" stroke="midnightblue" points="494.392,-56.3794 484.755,-60.7812 495.033,-63.3499 494.392,-56.3794"/>
</g>
</g>
</svg>
