<?xml version="1.0" encoding="UTF-8" standalone="no"?>
<!DOCTYPE svg PUBLIC "-//W3C//DTD SVG 1.1//EN"
 "http://www.w3.org/Graphics/SVG/1.1/DTD/svg11.dtd">
<!-- Generated by graphviz version 2.38.0 (20140413.2041)
 -->
<!-- Title: DocURL Pages: 1 -->
<svg width="128pt" height="85pt"
 viewBox="0.00 0.00 128.00 85.00" xmlns="http://www.w3.org/2000/svg" xmlns:xlink="http://www.w3.org/1999/xlink">
<g id="graph0" class="graph" transform="scale(1 1) rotate(0) translate(4 81)">
<title>DocURL</title>
<polygon fill="white" stroke="none" points="-4,4 -4,-81 124,-81 124,4 -4,4"/>
<!-- Node2 -->
<g id="node1" class="node"><title>Node2</title>
<polygon fill="#bfbfbf" stroke="black" points="1.5,-0.5 1.5,-19.5 56.5,-19.5 56.5,-0.5 1.5,-0.5"/>
<text text-anchor="middle" x="29" y="-7.5" font-family="Helvetica,sans-Serif" font-size="10.00">DocURL</text>
</g>
<!-- Node3 -->
<g id="node2" class="node"><title>Node3</title>
<g id="a_node2"><a xlink:href="../../d9/d0e/class_doc_node.html" target="_top" xlink:title="Abstract node interface with type information. ">
<polygon fill="white" stroke="black" points="-3.55271e-15,-57.5 -3.55271e-15,-76.5 58,-76.5 58,-57.5 -3.55271e-15,-57.5"/>
<text text-anchor="middle" x="29" y="-64.5" font-family="Helvetica,sans-Serif" font-size="10.00">DocNode</text>
</a>
</g>
</g>
<!-- Node3&#45;&gt;Node2 -->
<g id="edge1" class="edge"><title>Node3&#45;&gt;Node2</title>
<path fill="none" stroke="midnightblue" d="M29,-47.1166C29,-37.8173 29,-27.0557 29,-19.7149"/>
<polygon fill="midnightblue" stroke="midnightblue" points="25.5001,-47.4062 29,-57.4062 32.5001,-47.4063 25.5001,-47.4062"/>
</g>
<!-- Node3&#45;&gt;Node3 -->
<g id="edge2" class="edge"><title>Node3&#45;&gt;Node3</title>
<path fill="none" stroke="#9a32cd" stroke-dasharray="5,2" d="M68.603,-71.4489C73.0912,-70.6158 76,-69.1328 76,-67 76,-63.5 68.1667,-61.75 58.375,-61.75"/>
<polygon fill="#9a32cd" stroke="#9a32cd" points="68.0711,-67.9798 58.375,-72.25 68.6178,-74.9584 68.0711,-67.9798"/>
<text text-anchor="middle" x="98" y="-64.5" font-family="Helvetica,sans-Serif" font-size="10.00"> m_parent</text>
</g>
</g>
</svg>
