<?xml version="1.0" encoding="UTF-8" standalone="no"?>
<!DOCTYPE svg PUBLIC "-//W3C//DTD SVG 1.1//EN"
 "http://www.w3.org/Graphics/SVG/1.1/DTD/svg11.dtd">
<!-- Generated by graphviz version 2.38.0 (20140413.2041)
 -->
<!-- Title: src/configimpl.h Pages: 1 -->
<svg width="464pt" height="140pt"
 viewBox="0.00 0.00 463.50 140.00" xmlns="http://www.w3.org/2000/svg" xmlns:xlink="http://www.w3.org/1999/xlink">
<g id="graph0" class="graph" transform="scale(1 1) rotate(0) translate(4 136)">
<title>src/configimpl.h</title>
<polygon fill="white" stroke="none" points="-4,4 -4,-136 459.5,-136 459.5,4 -4,4"/>
<!-- Node0 -->
<g id="node1" class="node"><title>Node0</title>
<polygon fill="#bfbfbf" stroke="black" points="115,-112.5 115,-131.5 201,-131.5 201,-112.5 115,-112.5"/>
<text text-anchor="middle" x="158" y="-119.5" font-family="Helvetica,sans-Serif" font-size="10.00">src/configimpl.h</text>
</g>
<!-- Node1 -->
<g id="node2" class="node"><title>Node1</title>
<polygon fill="white" stroke="#bfbfbf" points="0,-56.5 0,-75.5 54,-75.5 54,-56.5 0,-56.5"/>
<text text-anchor="middle" x="27" y="-63.5" font-family="Helvetica,sans-Serif" font-size="10.00">qstrlist.h</text>
</g>
<!-- Node0&#45;&gt;Node1 -->
<g id="edge1" class="edge"><title>Node0&#45;&gt;Node1</title>
<path fill="none" stroke="midnightblue" d="M137.243,-112.444C115.684,-103.557 81.7367,-89.5632 57.2062,-79.4514"/>
<polygon fill="midnightblue" stroke="midnightblue" points="58.2394,-76.0917 47.6602,-75.5164 55.5717,-82.5634 58.2394,-76.0917"/>
</g>
<!-- Node2 -->
<g id="node3" class="node"><title>Node2</title>
<polygon fill="white" stroke="#bfbfbf" points="72,-56.5 72,-75.5 118,-75.5 118,-56.5 72,-56.5"/>
<text text-anchor="middle" x="95" y="-63.5" font-family="Helvetica,sans-Serif" font-size="10.00">qdict.h</text>
</g>
<!-- Node0&#45;&gt;Node2 -->
<g id="edge2" class="edge"><title>Node0&#45;&gt;Node2</title>
<path fill="none" stroke="midnightblue" d="M147.878,-112.324C138.474,-104.263 124.256,-92.0765 112.931,-82.3695"/>
<polygon fill="midnightblue" stroke="midnightblue" points="115.177,-79.6844 105.306,-75.8339 110.621,-84.9993 115.177,-79.6844"/>
</g>
<!-- Node3 -->
<g id="node4" class="node"><title>Node3</title>
<polygon fill="white" stroke="#bfbfbf" points="136.5,-56.5 136.5,-75.5 179.5,-75.5 179.5,-56.5 136.5,-56.5"/>
<text text-anchor="middle" x="158" y="-63.5" font-family="Helvetica,sans-Serif" font-size="10.00">qlist.h</text>
</g>
<!-- Node0&#45;&gt;Node3 -->
<g id="edge3" class="edge"><title>Node0&#45;&gt;Node3</title>
<path fill="none" stroke="midnightblue" d="M158,-112.083C158,-105.006 158,-94.8611 158,-85.9865"/>
<polygon fill="midnightblue" stroke="midnightblue" points="161.5,-85.751 158,-75.7511 154.5,-85.7511 161.5,-85.751"/>
</g>
<!-- Node4 -->
<g id="node5" class="node"><title>Node4</title>
<polygon fill="white" stroke="#bfbfbf" points="197.5,-56.5 197.5,-75.5 256.5,-75.5 256.5,-56.5 197.5,-56.5"/>
<text text-anchor="middle" x="227" y="-63.5" font-family="Helvetica,sans-Serif" font-size="10.00">qregexp.h</text>
</g>
<!-- Node0&#45;&gt;Node4 -->
<g id="edge4" class="edge"><title>Node0&#45;&gt;Node4</title>
<path fill="none" stroke="midnightblue" d="M169.086,-112.324C179.486,-104.185 195.261,-91.8395 207.722,-82.0874"/>
<polygon fill="midnightblue" stroke="midnightblue" points="209.994,-84.7533 215.712,-75.8339 205.68,-79.2407 209.994,-84.7533"/>
</g>
<!-- Node5 -->
<g id="node6" class="node"><title>Node5</title>
<g id="a_node6"><a xlink:href="../../df/d83/ftextstream_8h.html" target="_top" xlink:title="ftextstream.h">
<polygon fill="white" stroke="black" points="275,-56.5 275,-75.5 349,-75.5 349,-56.5 275,-56.5"/>
<text text-anchor="middle" x="312" y="-63.5" font-family="Helvetica,sans-Serif" font-size="10.00">ftextstream.h</text>
</a>
</g>
</g>
<!-- Node0&#45;&gt;Node5 -->
<g id="edge5" class="edge"><title>Node0&#45;&gt;Node5</title>
<path fill="none" stroke="midnightblue" d="M182.402,-112.444C208.197,-103.399 249.077,-89.064 278.018,-78.9158"/>
<polygon fill="midnightblue" stroke="midnightblue" points="279.434,-82.1283 287.712,-75.5164 277.118,-75.5226 279.434,-82.1283"/>
</g>
<!-- Node6 -->
<g id="node7" class="node"><title>Node6</title>
<polygon fill="white" stroke="#bfbfbf" points="176,-0.5 176,-19.5 222,-19.5 222,-0.5 176,-0.5"/>
<text text-anchor="middle" x="199" y="-7.5" font-family="Helvetica,sans-Serif" font-size="10.00">stdio.h</text>
</g>
<!-- Node5&#45;&gt;Node6 -->
<g id="edge6" class="edge"><title>Node5&#45;&gt;Node6</title>
<path fill="none" stroke="midnightblue" d="M294.095,-56.4435C275.746,-47.6751 246.995,-33.9355 225.906,-23.8579"/>
<polygon fill="midnightblue" stroke="midnightblue" points="227.353,-20.6703 216.821,-19.5164 224.335,-26.9862 227.353,-20.6703"/>
</g>
<!-- Node7 -->
<g id="node8" class="node"><title>Node7</title>
<polygon fill="white" stroke="#bfbfbf" points="240,-0.5 240,-19.5 306,-19.5 306,-0.5 240,-0.5"/>
<text text-anchor="middle" x="273" y="-7.5" font-family="Helvetica,sans-Serif" font-size="10.00">qiodevice.h</text>
</g>
<!-- Node5&#45;&gt;Node7 -->
<g id="edge7" class="edge"><title>Node5&#45;&gt;Node7</title>
<path fill="none" stroke="midnightblue" d="M305.56,-56.083C300.051,-48.4554 291.969,-37.2645 285.235,-27.9408"/>
<polygon fill="midnightblue" stroke="midnightblue" points="288.013,-25.8087 279.32,-19.7511 282.338,-29.9071 288.013,-25.8087"/>
</g>
<!-- Node8 -->
<g id="node9" class="node"><title>Node8</title>
<polygon fill="white" stroke="#bfbfbf" points="324,-0.5 324,-19.5 378,-19.5 378,-0.5 324,-0.5"/>
<text text-anchor="middle" x="351" y="-7.5" font-family="Helvetica,sans-Serif" font-size="10.00">qstring.h</text>
</g>
<!-- Node5&#45;&gt;Node8 -->
<g id="edge8" class="edge"><title>Node5&#45;&gt;Node8</title>
<path fill="none" stroke="midnightblue" d="M318.44,-56.083C323.949,-48.4554 332.031,-37.2645 338.765,-27.9408"/>
<polygon fill="midnightblue" stroke="midnightblue" points="341.662,-29.9071 344.68,-19.7511 335.987,-25.8087 341.662,-29.9071"/>
</g>
<!-- Node9 -->
<g id="node10" class="node"><title>Node9</title>
<polygon fill="white" stroke="#bfbfbf" points="396.5,-0.5 396.5,-19.5 455.5,-19.5 455.5,-0.5 396.5,-0.5"/>
<text text-anchor="middle" x="426" y="-7.5" font-family="Helvetica,sans-Serif" font-size="10.00">qgstring.h</text>
</g>
<!-- Node5&#45;&gt;Node9 -->
<g id="edge9" class="edge"><title>Node5&#45;&gt;Node9</title>
<path fill="none" stroke="midnightblue" d="M330.064,-56.4435C348.575,-47.6751 377.581,-33.9355 398.855,-23.8579"/>
<polygon fill="midnightblue" stroke="midnightblue" points="400.482,-26.9604 408.021,-19.5164 397.485,-20.6343 400.482,-26.9604"/>
</g>
</g>
</svg>
