<?xml version="1.0" encoding="UTF-8" standalone="no"?>
<!DOCTYPE svg PUBLIC "-//W3C//DTD SVG 1.1//EN"
 "http://www.w3.org/Graphics/SVG/1.1/DTD/svg11.dtd">
<!-- Generated by graphviz version 2.38.0 (20140413.2041)
 -->
<!-- Title: TranslatorAdapter_1_6_0 Pages: 1 -->
<svg width="175pt" height="494pt"
 viewBox="0.00 0.00 174.50 494.00" xmlns="http://www.w3.org/2000/svg" xmlns:xlink="http://www.w3.org/1999/xlink">
<g id="graph0" class="graph" transform="scale(1 1) rotate(0) translate(4 490)">
<title>TranslatorAdapter_1_6_0</title>
<polygon fill="white" stroke="none" points="-4,4 -4,-490 170.5,-490 170.5,4 -4,4"/>
<!-- Node21 -->
<g id="node1" class="node"><title>Node21</title>
<polygon fill="#bfbfbf" stroke="black" points="-7.10543e-15,-0.5 -7.10543e-15,-19.5 125,-19.5 125,-0.5 -7.10543e-15,-0.5"/>
<text text-anchor="middle" x="62.5" y="-7.5" font-family="Helvetica,sans-Serif" font-size="10.00">TranslatorAdapter_1_6_0</text>
</g>
<!-- Node22 -->
<g id="node2" class="node"><title>Node22</title>
<g id="a_node2"><a xlink:href="../../d7/d29/class_translator_adapter__1__6__3.html" target="_top" xlink:title="Adapter class for languages that only contain translations up to version 1.6.3. ">
<polygon fill="white" stroke="black" points="-7.10543e-15,-57.5 -7.10543e-15,-76.5 125,-76.5 125,-57.5 -7.10543e-15,-57.5"/>
<text text-anchor="middle" x="62.5" y="-64.5" font-family="Helvetica,sans-Serif" font-size="10.00">TranslatorAdapter_1_6_3</text>
</a>
</g>
</g>
<!-- Node22&#45;&gt;Node21 -->
<g id="edge1" class="edge"><title>Node22&#45;&gt;Node21</title>
<path fill="none" stroke="midnightblue" d="M62.5,-47.1166C62.5,-37.8173 62.5,-27.0557 62.5,-19.7149"/>
<polygon fill="midnightblue" stroke="midnightblue" points="59.0001,-47.4062 62.5,-57.4062 66.0001,-47.4063 59.0001,-47.4062"/>
</g>
<!-- Node23 -->
<g id="node3" class="node"><title>Node23</title>
<g id="a_node3"><a xlink:href="../../da/d24/class_translator_adapter__1__7__5.html" target="_top" xlink:title="Adapter class for languages that only contain translations up to version 1.7.5. ">
<polygon fill="white" stroke="black" points="-7.10543e-15,-114.5 -7.10543e-15,-133.5 125,-133.5 125,-114.5 -7.10543e-15,-114.5"/>
<text text-anchor="middle" x="62.5" y="-121.5" font-family="Helvetica,sans-Serif" font-size="10.00">TranslatorAdapter_1_7_5</text>
</a>
</g>
</g>
<!-- Node23&#45;&gt;Node22 -->
<g id="edge2" class="edge"><title>Node23&#45;&gt;Node22</title>
<path fill="none" stroke="midnightblue" d="M62.5,-104.117C62.5,-94.8173 62.5,-84.0557 62.5,-76.7149"/>
<polygon fill="midnightblue" stroke="midnightblue" points="59.0001,-104.406 62.5,-114.406 66.0001,-104.406 59.0001,-104.406"/>
</g>
<!-- Node24 -->
<g id="node4" class="node"><title>Node24</title>
<g id="a_node4"><a xlink:href="../../de/d49/class_translator_adapter__1__8__0.html" target="_top" xlink:title="Adapter class for languages that only contain translations up to version 1.8.0. ">
<polygon fill="white" stroke="black" points="-7.10543e-15,-171.5 -7.10543e-15,-190.5 125,-190.5 125,-171.5 -7.10543e-15,-171.5"/>
<text text-anchor="middle" x="62.5" y="-178.5" font-family="Helvetica,sans-Serif" font-size="10.00">TranslatorAdapter_1_8_0</text>
</a>
</g>
</g>
<!-- Node24&#45;&gt;Node23 -->
<g id="edge3" class="edge"><title>Node24&#45;&gt;Node23</title>
<path fill="none" stroke="midnightblue" d="M62.5,-161.117C62.5,-151.817 62.5,-141.056 62.5,-133.715"/>
<polygon fill="midnightblue" stroke="midnightblue" points="59.0001,-161.406 62.5,-171.406 66.0001,-161.406 59.0001,-161.406"/>
</g>
<!-- Node25 -->
<g id="node5" class="node"><title>Node25</title>
<g id="a_node5"><a xlink:href="../../d2/d75/class_translator_adapter__1__8__2.html" target="_top" xlink:title="TranslatorAdapter_1_8_2">
<polygon fill="white" stroke="black" points="-7.10543e-15,-228.5 -7.10543e-15,-247.5 125,-247.5 125,-228.5 -7.10543e-15,-228.5"/>
<text text-anchor="middle" x="62.5" y="-235.5" font-family="Helvetica,sans-Serif" font-size="10.00">TranslatorAdapter_1_8_2</text>
</a>
</g>
</g>
<!-- Node25&#45;&gt;Node24 -->
<g id="edge4" class="edge"><title>Node25&#45;&gt;Node24</title>
<path fill="none" stroke="midnightblue" d="M62.5,-218.117C62.5,-208.817 62.5,-198.056 62.5,-190.715"/>
<polygon fill="midnightblue" stroke="midnightblue" points="59.0001,-218.406 62.5,-228.406 66.0001,-218.406 59.0001,-218.406"/>
</g>
<!-- Node26 -->
<g id="node6" class="node"><title>Node26</title>
<g id="a_node6"><a xlink:href="../../de/d2f/class_translator_adapter__1__8__4.html" target="_top" xlink:title="TranslatorAdapter_1_8_4">
<polygon fill="white" stroke="black" points="-7.10543e-15,-285.5 -7.10543e-15,-304.5 125,-304.5 125,-285.5 -7.10543e-15,-285.5"/>
<text text-anchor="middle" x="62.5" y="-292.5" font-family="Helvetica,sans-Serif" font-size="10.00">TranslatorAdapter_1_8_4</text>
</a>
</g>
</g>
<!-- Node26&#45;&gt;Node25 -->
<g id="edge5" class="edge"><title>Node26&#45;&gt;Node25</title>
<path fill="none" stroke="midnightblue" d="M62.5,-275.117C62.5,-265.817 62.5,-255.056 62.5,-247.715"/>
<polygon fill="midnightblue" stroke="midnightblue" points="59.0001,-275.406 62.5,-285.406 66.0001,-275.406 59.0001,-275.406"/>
</g>
<!-- Node27 -->
<g id="node7" class="node"><title>Node27</title>
<g id="a_node7"><a xlink:href="../../db/d6c/class_translator_adapter_base.html" target="_top" xlink:title="Base of the translator adapter tree. ">
<polygon fill="white" stroke="black" points="4.5,-342.5 4.5,-361.5 120.5,-361.5 120.5,-342.5 4.5,-342.5"/>
<text text-anchor="middle" x="62.5" y="-349.5" font-family="Helvetica,sans-Serif" font-size="10.00">TranslatorAdapterBase</text>
</a>
</g>
</g>
<!-- Node27&#45;&gt;Node26 -->
<g id="edge6" class="edge"><title>Node27&#45;&gt;Node26</title>
<path fill="none" stroke="midnightblue" d="M62.5,-332.117C62.5,-322.817 62.5,-312.056 62.5,-304.715"/>
<polygon fill="midnightblue" stroke="midnightblue" points="59.0001,-332.406 62.5,-342.406 66.0001,-332.406 59.0001,-332.406"/>
</g>
<!-- Node28 -->
<g id="node8" class="node"><title>Node28</title>
<g id="a_node8"><a xlink:href="../../d8/dfb/class_translator.html" target="_top" xlink:title="Abstract base class for all translatable text fragments. ">
<polygon fill="white" stroke="black" points="40.5,-466.5 40.5,-485.5 100.5,-485.5 100.5,-466.5 40.5,-466.5"/>
<text text-anchor="middle" x="70.5" y="-473.5" font-family="Helvetica,sans-Serif" font-size="10.00">Translator</text>
</a>
</g>
</g>
<!-- Node28&#45;&gt;Node27 -->
<g id="edge7" class="edge"><title>Node28&#45;&gt;Node27</title>
<path fill="none" stroke="midnightblue" d="M68.1478,-456.087C67.1924,-447.788 66.1602,-437.923 65.5,-429 63.707,-404.77 62.9417,-376.109 62.653,-361.904"/>
<polygon fill="midnightblue" stroke="midnightblue" points="64.6945,-456.686 69.3611,-466.198 71.6446,-455.852 64.6945,-456.686"/>
</g>
<!-- Node29 -->
<g id="node9" class="node"><title>Node29</title>
<g id="a_node9"><a xlink:href="../../d6/d78/class_translator_english.html" target="_top" xlink:title="TranslatorEnglish">
<polygon fill="white" stroke="black" points="74.5,-409.5 74.5,-428.5 166.5,-428.5 166.5,-409.5 74.5,-409.5"/>
<text text-anchor="middle" x="120.5" y="-416.5" font-family="Helvetica,sans-Serif" font-size="10.00">TranslatorEnglish</text>
</a>
</g>
</g>
<!-- Node28&#45;&gt;Node29 -->
<g id="edge9" class="edge"><title>Node28&#45;&gt;Node29</title>
<path fill="none" stroke="midnightblue" d="M85.2017,-458.828C94.1551,-448.979 105.244,-436.782 112.577,-428.715"/>
<polygon fill="midnightblue" stroke="midnightblue" points="82.4495,-456.652 78.3125,-466.406 87.6291,-461.361 82.4495,-456.652"/>
</g>
<!-- Node29&#45;&gt;Node27 -->
<g id="edge8" class="edge"><title>Node29&#45;&gt;Node27</title>
<path fill="none" stroke="#9a32cd" stroke-dasharray="5,2" d="M105.897,-401.635C94.5542,-388.923 79.2734,-371.798 70.1982,-361.627"/>
<polygon fill="#9a32cd" stroke="#9a32cd" points="103.408,-404.103 112.678,-409.234 108.631,-399.442 103.408,-404.103"/>
<text text-anchor="middle" x="111.5" y="-383" font-family="Helvetica,sans-Serif" font-size="10.00"> english</text>
</g>
</g>
</svg>
