<?xml version="1.0" encoding="UTF-8" standalone="no"?>
<!DOCTYPE svg PUBLIC "-//W3C//DTD SVG 1.1//EN"
 "http://www.w3.org/Graphics/SVG/1.1/DTD/svg11.dtd">
<!-- Generated by graphviz version 2.38.0 (20140413.2041)
 -->
<!-- Title: src/htmlentity.cpp Pages: 1 -->
<svg width="615pt" height="252pt"
 viewBox="0.00 0.00 615.00 252.00" xmlns="http://www.w3.org/2000/svg" xmlns:xlink="http://www.w3.org/1999/xlink">
<g id="graph0" class="graph" transform="scale(1 1) rotate(0) translate(4 248)">
<title>src/htmlentity.cpp</title>
<polygon fill="white" stroke="none" points="-4,4 -4,-248 611,-248 611,4 -4,4"/>
<!-- Node0 -->
<g id="node1" class="node"><title>Node0</title>
<polygon fill="#bfbfbf" stroke="black" points="252,-224.5 252,-243.5 347,-243.5 347,-224.5 252,-224.5"/>
<text text-anchor="middle" x="299.5" y="-231.5" font-family="Helvetica,sans-Serif" font-size="10.00">src/htmlentity.cpp</text>
</g>
<!-- Node1 -->
<g id="node2" class="node"><title>Node1</title>
<g id="a_node2"><a xlink:href="../../db/dc6/htmlentity_8h.html" target="_top" xlink:title="htmlentity.h">
<polygon fill="white" stroke="black" points="170.5,-168.5 170.5,-187.5 238.5,-187.5 238.5,-168.5 170.5,-168.5"/>
<text text-anchor="middle" x="204.5" y="-175.5" font-family="Helvetica,sans-Serif" font-size="10.00">htmlentity.h</text>
</a>
</g>
</g>
<!-- Node0&#45;&gt;Node1 -->
<g id="edge1" class="edge"><title>Node0&#45;&gt;Node1</title>
<path fill="none" stroke="midnightblue" d="M284.237,-224.324C269.279,-215.822 246.245,-202.729 228.773,-192.797"/>
<polygon fill="midnightblue" stroke="midnightblue" points="230.149,-189.553 219.726,-187.655 226.69,-195.639 230.149,-189.553"/>
</g>
<!-- Node9 -->
<g id="node10" class="node"><title>Node9</title>
<g id="a_node10"><a xlink:href="../../d2/d0d/message_8h.html" target="_top" xlink:title="message.h">
<polygon fill="white" stroke="black" points="267,-168.5 267,-187.5 332,-187.5 332,-168.5 267,-168.5"/>
<text text-anchor="middle" x="299.5" y="-175.5" font-family="Helvetica,sans-Serif" font-size="10.00">message.h</text>
</a>
</g>
</g>
<!-- Node0&#45;&gt;Node9 -->
<g id="edge11" class="edge"><title>Node0&#45;&gt;Node9</title>
<path fill="none" stroke="midnightblue" d="M299.5,-224.083C299.5,-217.006 299.5,-206.861 299.5,-197.986"/>
<polygon fill="midnightblue" stroke="midnightblue" points="303,-197.751 299.5,-187.751 296,-197.751 303,-197.751"/>
</g>
<!-- Node11 -->
<g id="node12" class="node"><title>Node11</title>
<g id="a_node12"><a xlink:href="../../df/d83/ftextstream_8h.html" target="_top" xlink:title="ftextstream.h">
<polygon fill="white" stroke="black" points="387.5,-168.5 387.5,-187.5 461.5,-187.5 461.5,-168.5 387.5,-168.5"/>
<text text-anchor="middle" x="424.5" y="-175.5" font-family="Helvetica,sans-Serif" font-size="10.00">ftextstream.h</text>
</a>
</g>
</g>
<!-- Node0&#45;&gt;Node11 -->
<g id="edge14" class="edge"><title>Node0&#45;&gt;Node11</title>
<path fill="none" stroke="midnightblue" d="M319.307,-224.444C339.787,-215.596 371.983,-201.687 395.365,-191.586"/>
<polygon fill="midnightblue" stroke="midnightblue" points="396.994,-194.695 404.786,-187.516 394.218,-188.269 396.994,-194.695"/>
</g>
<!-- Node2 -->
<g id="node3" class="node"><title>Node2</title>
<polygon fill="white" stroke="#bfbfbf" points="181.5,-112.5 181.5,-131.5 227.5,-131.5 227.5,-112.5 181.5,-112.5"/>
<text text-anchor="middle" x="204.5" y="-119.5" font-family="Helvetica,sans-Serif" font-size="10.00">qdict.h</text>
</g>
<!-- Node1&#45;&gt;Node2 -->
<g id="edge2" class="edge"><title>Node1&#45;&gt;Node2</title>
<path fill="none" stroke="midnightblue" d="M204.5,-168.083C204.5,-161.006 204.5,-150.861 204.5,-141.986"/>
<polygon fill="midnightblue" stroke="midnightblue" points="208,-141.751 204.5,-131.751 201,-141.751 208,-141.751"/>
</g>
<!-- Node3 -->
<g id="node4" class="node"><title>Node3</title>
<g id="a_node4"><a xlink:href="../../de/d9c/docparser_8h.html" target="_top" xlink:title="docparser.h">
<polygon fill="white" stroke="black" points="95.5,-112.5 95.5,-131.5 163.5,-131.5 163.5,-112.5 95.5,-112.5"/>
<text text-anchor="middle" x="129.5" y="-119.5" font-family="Helvetica,sans-Serif" font-size="10.00">docparser.h</text>
</a>
</g>
</g>
<!-- Node1&#45;&gt;Node3 -->
<g id="edge3" class="edge"><title>Node1&#45;&gt;Node3</title>
<path fill="none" stroke="midnightblue" d="M192.45,-168.324C181.037,-160.107 163.669,-147.602 150.065,-137.807"/>
<polygon fill="midnightblue" stroke="midnightblue" points="151.93,-134.837 141.769,-131.834 147.84,-140.517 151.93,-134.837"/>
</g>
<!-- Node4 -->
<g id="node5" class="node"><title>Node4</title>
<polygon fill="white" stroke="#bfbfbf" points="232.5,-56.5 232.5,-75.5 278.5,-75.5 278.5,-56.5 232.5,-56.5"/>
<text text-anchor="middle" x="255.5" y="-63.5" font-family="Helvetica,sans-Serif" font-size="10.00">stdio.h</text>
</g>
<!-- Node3&#45;&gt;Node4 -->
<g id="edge4" class="edge"><title>Node3&#45;&gt;Node4</title>
<path fill="none" stroke="midnightblue" d="M149.465,-112.444C170.109,-103.596 202.563,-89.6875 226.132,-79.5865"/>
<polygon fill="midnightblue" stroke="midnightblue" points="227.816,-82.6727 235.628,-75.5164 225.058,-76.2387 227.816,-82.6727"/>
</g>
<!-- Node5 -->
<g id="node6" class="node"><title>Node5</title>
<polygon fill="white" stroke="#bfbfbf" points="0,-0.5 0,-19.5 43,-19.5 43,-0.5 0,-0.5"/>
<text text-anchor="middle" x="21.5" y="-7.5" font-family="Helvetica,sans-Serif" font-size="10.00">qlist.h</text>
</g>
<!-- Node3&#45;&gt;Node5 -->
<g id="edge5" class="edge"><title>Node3&#45;&gt;Node5</title>
<path fill="none" stroke="midnightblue" d="M95.433,-118.347C67.4546,-114.165 29.4594,-103.439 10.5,-76 0.971578,-62.2099 5.94531,-42.9248 11.9468,-28.9452"/>
<polygon fill="midnightblue" stroke="midnightblue" points="15.1365,-30.388 16.3057,-19.8579 8.82501,-27.3605 15.1365,-30.388"/>
</g>
<!-- Node6 -->
<g id="node7" class="node"><title>Node6</title>
<polygon fill="white" stroke="#bfbfbf" points="130,-0.5 130,-19.5 189,-19.5 189,-0.5 130,-0.5"/>
<text text-anchor="middle" x="159.5" y="-7.5" font-family="Helvetica,sans-Serif" font-size="10.00">qcstring.h</text>
</g>
<!-- Node3&#45;&gt;Node6 -->
<g id="edge6" class="edge"><title>Node3&#45;&gt;Node6</title>
<path fill="none" stroke="midnightblue" d="M144.161,-112.402C155.906,-104.585 171.531,-91.8617 178.5,-76 185.35,-60.4092 178.366,-41.6527 171.01,-28.3038"/>
<polygon fill="midnightblue" stroke="midnightblue" points="173.952,-26.4052 165.78,-19.662 167.963,-30.0295 173.952,-26.4052"/>
</g>
<!-- Node7 -->
<g id="node8" class="node"><title>Node7</title>
<g id="a_node8"><a xlink:href="../../d2/d3c/docvisitor_8h.html" target="_top" xlink:title="docvisitor.h">
<polygon fill="white" stroke="black" points="103,-56.5 103,-75.5 170,-75.5 170,-56.5 103,-56.5"/>
<text text-anchor="middle" x="136.5" y="-63.5" font-family="Helvetica,sans-Serif" font-size="10.00">docvisitor.h</text>
</a>
</g>
</g>
<!-- Node3&#45;&gt;Node7 -->
<g id="edge7" class="edge"><title>Node3&#45;&gt;Node7</title>
<path fill="none" stroke="midnightblue" d="M130.656,-112.083C131.584,-104.927 132.918,-94.6353 134.077,-85.6911"/>
<polygon fill="midnightblue" stroke="midnightblue" points="137.551,-86.1181 135.366,-75.7511 130.609,-85.2181 137.551,-86.1181"/>
</g>
<!-- Node8 -->
<g id="node9" class="node"><title>Node8</title>
<g id="a_node9"><a xlink:href="../../d0/d73/htmlattrib_8h.html" target="_top" xlink:title="htmlattrib.h">
<polygon fill="white" stroke="black" points="20,-56.5 20,-75.5 85,-75.5 85,-56.5 20,-56.5"/>
<text text-anchor="middle" x="52.5" y="-63.5" font-family="Helvetica,sans-Serif" font-size="10.00">htmlattrib.h</text>
</a>
</g>
</g>
<!-- Node3&#45;&gt;Node8 -->
<g id="edge8" class="edge"><title>Node3&#45;&gt;Node8</title>
<path fill="none" stroke="midnightblue" d="M117.129,-112.324C105.342,-104.058 87.3677,-91.4527 73.3645,-81.6322"/>
<polygon fill="midnightblue" stroke="midnightblue" points="75.0376,-78.5307 64.8407,-75.6545 71.0184,-84.2619 75.0376,-78.5307"/>
</g>
<!-- Node8&#45;&gt;Node5 -->
<g id="edge10" class="edge"><title>Node8&#45;&gt;Node5</title>
<path fill="none" stroke="midnightblue" d="M47.381,-56.083C43.0925,-48.6127 36.8418,-37.7244 31.5577,-28.5199"/>
<polygon fill="midnightblue" stroke="midnightblue" points="34.5379,-26.6811 26.5238,-19.7511 28.4671,-30.1662 34.5379,-26.6811"/>
</g>
<!-- Node8&#45;&gt;Node6 -->
<g id="edge9" class="edge"><title>Node8&#45;&gt;Node6</title>
<path fill="none" stroke="midnightblue" d="M69.6914,-56.324C86.8509,-47.6641 113.446,-34.2424 133.247,-24.249"/>
<polygon fill="midnightblue" stroke="midnightblue" points="135.001,-27.2847 142.351,-19.6545 131.847,-21.0354 135.001,-27.2847"/>
</g>
<!-- Node9&#45;&gt;Node4 -->
<g id="edge12" class="edge"><title>Node9&#45;&gt;Node4</title>
<path fill="none" stroke="midnightblue" d="M293.915,-168.328C288.4,-159.474 280.012,-145.194 274.5,-132 268.127,-116.745 263.022,-98.6357 259.715,-85.4114"/>
<polygon fill="midnightblue" stroke="midnightblue" points="263.104,-84.5325 257.372,-75.6218 256.296,-86.1619 263.104,-84.5325"/>
</g>
<!-- Node10 -->
<g id="node11" class="node"><title>Node10</title>
<polygon fill="white" stroke="#bfbfbf" points="283.5,-112.5 283.5,-131.5 335.5,-131.5 335.5,-112.5 283.5,-112.5"/>
<text text-anchor="middle" x="309.5" y="-119.5" font-family="Helvetica,sans-Serif" font-size="10.00">stdarg.h</text>
</g>
<!-- Node9&#45;&gt;Node10 -->
<g id="edge13" class="edge"><title>Node9&#45;&gt;Node10</title>
<path fill="none" stroke="midnightblue" d="M301.151,-168.083C302.476,-160.927 304.382,-150.635 306.039,-141.691"/>
<polygon fill="midnightblue" stroke="midnightblue" points="309.5,-142.221 307.879,-131.751 302.617,-140.947 309.5,-142.221"/>
</g>
<!-- Node11&#45;&gt;Node4 -->
<g id="edge15" class="edge"><title>Node11&#45;&gt;Node4</title>
<path fill="none" stroke="midnightblue" d="M415.161,-168.288C400.734,-155.097 371.828,-129.719 344.5,-112 325.378,-99.6018 302.391,-88.0567 284.569,-79.765"/>
<polygon fill="midnightblue" stroke="midnightblue" points="285.807,-76.4825 275.257,-75.5085 282.897,-82.8489 285.807,-76.4825"/>
</g>
<!-- Node12 -->
<g id="node13" class="node"><title>Node12</title>
<polygon fill="white" stroke="#bfbfbf" points="391.5,-112.5 391.5,-131.5 457.5,-131.5 457.5,-112.5 391.5,-112.5"/>
<text text-anchor="middle" x="424.5" y="-119.5" font-family="Helvetica,sans-Serif" font-size="10.00">qiodevice.h</text>
</g>
<!-- Node11&#45;&gt;Node12 -->
<g id="edge16" class="edge"><title>Node11&#45;&gt;Node12</title>
<path fill="none" stroke="midnightblue" d="M424.5,-168.083C424.5,-161.006 424.5,-150.861 424.5,-141.986"/>
<polygon fill="midnightblue" stroke="midnightblue" points="428,-141.751 424.5,-131.751 421,-141.751 428,-141.751"/>
</g>
<!-- Node13 -->
<g id="node14" class="node"><title>Node13</title>
<polygon fill="white" stroke="#bfbfbf" points="475.5,-112.5 475.5,-131.5 529.5,-131.5 529.5,-112.5 475.5,-112.5"/>
<text text-anchor="middle" x="502.5" y="-119.5" font-family="Helvetica,sans-Serif" font-size="10.00">qstring.h</text>
</g>
<!-- Node11&#45;&gt;Node13 -->
<g id="edge17" class="edge"><title>Node11&#45;&gt;Node13</title>
<path fill="none" stroke="midnightblue" d="M437.032,-168.324C449.086,-159.979 467.527,-147.212 481.769,-137.352"/>
<polygon fill="midnightblue" stroke="midnightblue" points="483.769,-140.224 489.999,-131.655 479.785,-134.469 483.769,-140.224"/>
</g>
<!-- Node14 -->
<g id="node15" class="node"><title>Node14</title>
<polygon fill="white" stroke="#bfbfbf" points="548,-112.5 548,-131.5 607,-131.5 607,-112.5 548,-112.5"/>
<text text-anchor="middle" x="577.5" y="-119.5" font-family="Helvetica,sans-Serif" font-size="10.00">qgstring.h</text>
</g>
<!-- Node11&#45;&gt;Node14 -->
<g id="edge18" class="edge"><title>Node11&#45;&gt;Node14</title>
<path fill="none" stroke="midnightblue" d="M448.743,-168.444C474.371,-159.399 514.985,-145.064 543.738,-134.916"/>
<polygon fill="midnightblue" stroke="midnightblue" points="545.105,-138.145 553.37,-131.516 542.775,-131.544 545.105,-138.145"/>
</g>
</g>
</svg>
