<?xml version="1.0" encoding="UTF-8" standalone="no"?>
<!DOCTYPE svg PUBLIC "-//W3C//DTD SVG 1.1//EN"
 "http://www.w3.org/Graphics/SVG/1.1/DTD/svg11.dtd">
<!-- Generated by graphviz version 2.38.0 (20140413.2041)
 -->
<!-- Title: src/formula.h Pages: 1 -->
<svg width="116pt" height="84pt"
 viewBox="0.00 0.00 115.50 84.00" xmlns="http://www.w3.org/2000/svg" xmlns:xlink="http://www.w3.org/1999/xlink">
<g id="graph0" class="graph" transform="scale(1 1) rotate(0) translate(4 80)">
<title>src/formula.h</title>
<polygon fill="white" stroke="none" points="-4,4 -4,-80 111.5,-80 111.5,4 -4,4"/>
<!-- Node0 -->
<g id="node1" class="node"><title>Node0</title>
<polygon fill="#bfbfbf" stroke="black" points="15.5,-56.5 15.5,-75.5 89.5,-75.5 89.5,-56.5 15.5,-56.5"/>
<text text-anchor="middle" x="52.5" y="-63.5" font-family="Helvetica,sans-Serif" font-size="10.00">src/formula.h</text>
</g>
<!-- Node1 -->
<g id="node2" class="node"><title>Node1</title>
<polygon fill="white" stroke="#bfbfbf" points="0,-0.5 0,-19.5 43,-19.5 43,-0.5 0,-0.5"/>
<text text-anchor="middle" x="21.5" y="-7.5" font-family="Helvetica,sans-Serif" font-size="10.00">qlist.h</text>
</g>
<!-- Node0&#45;&gt;Node1 -->
<g id="edge1" class="edge"><title>Node0&#45;&gt;Node1</title>
<path fill="none" stroke="midnightblue" d="M47.381,-56.083C43.0925,-48.6127 36.8418,-37.7244 31.5577,-28.5199"/>
<polygon fill="midnightblue" stroke="midnightblue" points="34.5379,-26.6811 26.5238,-19.7511 28.4671,-30.1662 34.5379,-26.6811"/>
</g>
<!-- Node2 -->
<g id="node3" class="node"><title>Node2</title>
<polygon fill="white" stroke="#bfbfbf" points="61.5,-0.5 61.5,-19.5 107.5,-19.5 107.5,-0.5 61.5,-0.5"/>
<text text-anchor="middle" x="84.5" y="-7.5" font-family="Helvetica,sans-Serif" font-size="10.00">qdict.h</text>
</g>
<!-- Node0&#45;&gt;Node2 -->
<g id="edge2" class="edge"><title>Node0&#45;&gt;Node2</title>
<path fill="none" stroke="midnightblue" d="M57.7841,-56.083C62.211,-48.6127 68.6633,-37.7244 74.1179,-28.5199"/>
<polygon fill="midnightblue" stroke="midnightblue" points="77.2271,-30.1383 79.3142,-19.7511 71.2051,-26.5697 77.2271,-30.1383"/>
</g>
</g>
</svg>
