<?xml version="1.0" encoding="UTF-8" standalone="no"?>
<!DOCTYPE svg PUBLIC "-//W3C//DTD SVG 1.1//EN"
 "http://www.w3.org/Graphics/SVG/1.1/DTD/svg11.dtd">
<!-- Generated by graphviz version 2.38.0 (20140413.2041)
 -->
<!-- Title: MemberGroupSDict Pages: 1 -->
<svg width="157pt" height="152pt"
 viewBox="0.00 0.00 157.00 152.00" xmlns="http://www.w3.org/2000/svg" xmlns:xlink="http://www.w3.org/1999/xlink">
<g id="graph0" class="graph" transform="scale(1 1) rotate(0) translate(4 148)">
<title>MemberGroupSDict</title>
<polygon fill="white" stroke="none" points="-4,4 -4,-148 153,-148 153,4 -4,4"/>
<!-- Node0 -->
<g id="node1" class="node"><title>Node0</title>
<polygon fill="#bfbfbf" stroke="black" points="14.5,-0.5 14.5,-19.5 117.5,-19.5 117.5,-0.5 14.5,-0.5"/>
<text text-anchor="middle" x="66" y="-7.5" font-family="Helvetica,sans-Serif" font-size="10.00">MemberGroupSDict</text>
</g>
<!-- Node1 -->
<g id="node2" class="node"><title>Node1</title>
<g id="a_node2"><a xlink:href="../../d0/d9f/class_s_int_dict.html" target="_top" xlink:title="SIntDict\&lt; MemberGroup \&gt;">
<polygon fill="white" stroke="black" points="0,-57.5 0,-76.5 132,-76.5 132,-57.5 0,-57.5"/>
<text text-anchor="middle" x="66" y="-64.5" font-family="Helvetica,sans-Serif" font-size="10.00">SIntDict&lt; MemberGroup &gt;</text>
</a>
</g>
</g>
<!-- Node1&#45;&gt;Node0 -->
<g id="edge1" class="edge"><title>Node1&#45;&gt;Node0</title>
<path fill="none" stroke="midnightblue" d="M66,-47.1166C66,-37.8173 66,-27.0557 66,-19.7149"/>
<polygon fill="midnightblue" stroke="midnightblue" points="62.5001,-47.4062 66,-57.4062 69.5001,-47.4063 62.5001,-47.4062"/>
</g>
<!-- Node2 -->
<g id="node3" class="node"><title>Node2</title>
<g id="a_node3"><a xlink:href="../../d0/d9f/class_s_int_dict.html" target="_top" xlink:title="Ordered dictionary of elements of type T. ">
<polygon fill="white" stroke="black" points="27.5,-124.5 27.5,-143.5 104.5,-143.5 104.5,-124.5 27.5,-124.5"/>
<text text-anchor="middle" x="66" y="-131.5" font-family="Helvetica,sans-Serif" font-size="10.00">SIntDict&lt; T &gt;</text>
</a>
</g>
</g>
<!-- Node2&#45;&gt;Node1 -->
<g id="edge2" class="edge"><title>Node2&#45;&gt;Node1</title>
<path fill="none" stroke="orange" stroke-dasharray="5,2" d="M66,-114.037C66,-101.67 66,-86.1198 66,-76.6273"/>
<polygon fill="orange" stroke="orange" points="62.5001,-114.234 66,-124.234 69.5001,-114.234 62.5001,-114.234"/>
<text text-anchor="middle" x="107.5" y="-98" font-family="Helvetica,sans-Serif" font-size="10.00"> &lt; MemberGroup &gt;</text>
</g>
</g>
</svg>
