<?xml version="1.0" encoding="UTF-8" standalone="no"?>
<!DOCTYPE svg PUBLIC "-//W3C//DTD SVG 1.1//EN"
 "http://www.w3.org/Graphics/SVG/1.1/DTD/svg11.dtd">
<!-- Generated by graphviz version 2.38.0 (20140413.2041)
 -->
<!-- Title: src/qhpxmlwriter.h Pages: 1 -->
<svg width="285pt" height="140pt"
 viewBox="0.00 0.00 285.00 140.00" xmlns="http://www.w3.org/2000/svg" xmlns:xlink="http://www.w3.org/1999/xlink">
<g id="graph0" class="graph" transform="scale(1 1) rotate(0) translate(4 136)">
<title>src/qhpxmlwriter.h</title>
<polygon fill="white" stroke="none" points="-4,4 -4,-136 281,-136 281,4 -4,4"/>
<!-- Node6 -->
<g id="node1" class="node"><title>Node6</title>
<polygon fill="#bfbfbf" stroke="black" points="93,-112.5 93,-131.5 190,-131.5 190,-112.5 93,-112.5"/>
<text text-anchor="middle" x="141.5" y="-119.5" font-family="Helvetica,sans-Serif" font-size="10.00">src/qhpxmlwriter.h</text>
</g>
<!-- Node7 -->
<g id="node2" class="node"><title>Node7</title>
<g id="a_node2"><a xlink:href="../../dc/d20/qhp_8h.html" target="_top" xlink:title="src/qhp.h">
<polygon fill="white" stroke="black" points="56,-56.5 56,-75.5 113,-75.5 113,-56.5 56,-56.5"/>
<text text-anchor="middle" x="84.5" y="-63.5" font-family="Helvetica,sans-Serif" font-size="10.00">src/qhp.h</text>
</a>
</g>
</g>
<!-- Node6&#45;&gt;Node7 -->
<g id="edge1" class="edge"><title>Node6&#45;&gt;Node7</title>
<path fill="none" stroke="midnightblue" d="M124.879,-105.253C114.766,-95.6731 102.223,-83.7906 93.8247,-75.8339"/>
<polygon fill="midnightblue" stroke="midnightblue" points="122.675,-107.987 132.342,-112.324 127.49,-102.906 122.675,-107.987"/>
</g>
<!-- Node9 -->
<g id="node4" class="node"><title>Node9</title>
<g id="a_node4"><a xlink:href="../../d9/d45/qhp_8cpp.html" target="_top" xlink:title="src/qhp.cpp">
<polygon fill="white" stroke="black" points="107.5,-0.5 107.5,-19.5 175.5,-19.5 175.5,-0.5 107.5,-0.5"/>
<text text-anchor="middle" x="141.5" y="-7.5" font-family="Helvetica,sans-Serif" font-size="10.00">src/qhp.cpp</text>
</a>
</g>
</g>
<!-- Node6&#45;&gt;Node9 -->
<g id="edge4" class="edge"><title>Node6&#45;&gt;Node9</title>
<path fill="none" stroke="midnightblue" d="M141.5,-102.348C141.5,-78.2538 141.5,-37.3079 141.5,-19.5914"/>
<polygon fill="midnightblue" stroke="midnightblue" points="138,-102.368 141.5,-112.368 145,-102.369 138,-102.368"/>
</g>
<!-- Node10 -->
<g id="node5" class="node"><title>Node10</title>
<g id="a_node5"><a xlink:href="../../dd/d53/qhpxmlwriter_8cpp.html" target="_top" xlink:title="src/qhpxmlwriter.cpp">
<polygon fill="white" stroke="black" points="170,-56.5 170,-75.5 277,-75.5 277,-56.5 170,-56.5"/>
<text text-anchor="middle" x="223.5" y="-63.5" font-family="Helvetica,sans-Serif" font-size="10.00">src/qhpxmlwriter.cpp</text>
</a>
</g>
</g>
<!-- Node6&#45;&gt;Node10 -->
<g id="edge5" class="edge"><title>Node6&#45;&gt;Node10</title>
<path fill="none" stroke="midnightblue" d="M163.333,-106.622C178.313,-96.7574 197.697,-83.9919 210.358,-75.6545"/>
<polygon fill="midnightblue" stroke="midnightblue" points="161.101,-103.901 154.675,-112.324 164.951,-109.747 161.101,-103.901"/>
</g>
<!-- Node8 -->
<g id="node3" class="node"><title>Node8</title>
<g id="a_node3"><a xlink:href="../../dc/d98/doxygen_8cpp.html" target="_top" xlink:title="src/doxygen.cpp">
<polygon fill="white" stroke="black" points="0,-0.5 0,-19.5 89,-19.5 89,-0.5 0,-0.5"/>
<text text-anchor="middle" x="44.5" y="-7.5" font-family="Helvetica,sans-Serif" font-size="10.00">src/doxygen.cpp</text>
</a>
</g>
</g>
<!-- Node7&#45;&gt;Node8 -->
<g id="edge2" class="edge"><title>Node7&#45;&gt;Node8</title>
<path fill="none" stroke="midnightblue" d="M71.8003,-47.8554C64.874,-38.5048 56.5937,-27.3265 50.9823,-19.7511"/>
<polygon fill="midnightblue" stroke="midnightblue" points="69.13,-50.1307 77.8948,-56.083 74.755,-45.9641 69.13,-50.1307"/>
</g>
<!-- Node7&#45;&gt;Node9 -->
<g id="edge3" class="edge"><title>Node7&#45;&gt;Node9</title>
<path fill="none" stroke="midnightblue" d="M101.121,-49.2533C111.234,-39.6731 123.777,-27.7906 132.175,-19.8339"/>
<polygon fill="midnightblue" stroke="midnightblue" points="98.5105,-46.9056 93.658,-56.324 103.325,-51.9873 98.5105,-46.9056"/>
</g>
</g>
</svg>
