<?xml version="1.0" encoding="UTF-8" standalone="no"?>
<!DOCTYPE svg PUBLIC "-//W3C//DTD SVG 1.1//EN"
 "http://www.w3.org/Graphics/SVG/1.1/DTD/svg11.dtd">
<!-- Generated by graphviz version 2.38.0 (20140413.2041)
 -->
<!-- Title: LetterToIndexMap&lt; T &gt; Pages: 1 -->
<svg width="168pt" height="163pt"
 viewBox="0.00 0.00 167.50 163.00" xmlns="http://www.w3.org/2000/svg" xmlns:xlink="http://www.w3.org/1999/xlink">
<g id="graph0" class="graph" transform="scale(1 1) rotate(0) translate(4 159)">
<title>LetterToIndexMap&lt; T &gt;</title>
<polygon fill="white" stroke="none" points="-4,4 -4,-159 163.5,-159 163.5,4 -4,4"/>
<!-- Node0 -->
<g id="node1" class="node"><title>Node0</title>
<polygon fill="#bfbfbf" stroke="black" points="8,-78.5 8,-97.5 127,-97.5 127,-78.5 8,-78.5"/>
<text text-anchor="middle" x="67.5" y="-85.5" font-family="Helvetica,sans-Serif" font-size="10.00">LetterToIndexMap&lt; T &gt;</text>
</g>
<!-- Node2 -->
<g id="node3" class="node"><title>Node2</title>
<g id="a_node3"><a xlink:href="../../d7/d17/class_letter_to_index_map.html" target="_top" xlink:title="LetterToIndexMap\&lt; Search\lIndexList \&gt;">
<polygon fill="white" stroke="black" points="0,-0.5 0,-30.5 135,-30.5 135,-0.5 0,-0.5"/>
<text text-anchor="start" x="8" y="-18.5" font-family="Helvetica,sans-Serif" font-size="10.00">LetterToIndexMap&lt; Search</text>
<text text-anchor="middle" x="67.5" y="-7.5" font-family="Helvetica,sans-Serif" font-size="10.00">IndexList &gt;</text>
</a>
</g>
</g>
<!-- Node0&#45;&gt;Node2 -->
<g id="edge2" class="edge"><title>Node0&#45;&gt;Node2</title>
<path fill="none" stroke="orange" stroke-dasharray="5,2" d="M67.5,-68.2362C67.5,-56.4079 67.5,-41.3829 67.5,-30.5762"/>
<polygon fill="orange" stroke="orange" points="64.0001,-68.3553 67.5,-78.3553 71.0001,-68.3554 64.0001,-68.3553"/>
<text text-anchor="middle" x="113.5" y="-52" font-family="Helvetica,sans-Serif" font-size="10.00"> &lt; SearchIndexList &gt;</text>
</g>
<!-- Node1 -->
<g id="node2" class="node"><title>Node1</title>
<g id="a_node2"><a xlink:href="../../d0/d9f/class_s_int_dict.html" target="_top" xlink:title="Ordered dictionary of elements of type T. ">
<polygon fill="white" stroke="black" points="29,-135.5 29,-154.5 106,-154.5 106,-135.5 29,-135.5"/>
<text text-anchor="middle" x="67.5" y="-142.5" font-family="Helvetica,sans-Serif" font-size="10.00">SIntDict&lt; T &gt;</text>
</a>
</g>
</g>
<!-- Node1&#45;&gt;Node0 -->
<g id="edge1" class="edge"><title>Node1&#45;&gt;Node0</title>
<path fill="none" stroke="midnightblue" d="M67.5,-125.117C67.5,-115.817 67.5,-105.056 67.5,-97.7149"/>
<polygon fill="midnightblue" stroke="midnightblue" points="64.0001,-125.406 67.5,-135.406 71.0001,-125.406 64.0001,-125.406"/>
</g>
</g>
</svg>
