<?xml version="1.0" encoding="UTF-8" standalone="no"?>
<!DOCTYPE svg PUBLIC "-//W3C//DTD SVG 1.1//EN"
 "http://www.w3.org/Graphics/SVG/1.1/DTD/svg11.dtd">
<!-- Generated by graphviz version 2.38.0 (20140413.2041)
 -->
<!-- Title: OutputGenerator Pages: 1 -->
<svg width="384pt" height="196pt"
 viewBox="0.00 0.00 383.50 196.00" xmlns="http://www.w3.org/2000/svg" xmlns:xlink="http://www.w3.org/1999/xlink">
<g id="graph0" class="graph" transform="scale(1 1) rotate(0) translate(4 192)">
<title>OutputGenerator</title>
<polygon fill="white" stroke="none" points="-4,4 -4,-192 379.5,-192 379.5,4 -4,4"/>
<!-- Node0 -->
<g id="node1" class="node"><title>Node0</title>
<polygon fill="#bfbfbf" stroke="black" points="144.5,-56.5 144.5,-75.5 233.5,-75.5 233.5,-56.5 144.5,-56.5"/>
<text text-anchor="middle" x="189" y="-63.5" font-family="Helvetica,sans-Serif" font-size="10.00">OutputGenerator</text>
</g>
<!-- Node3 -->
<g id="node4" class="node"><title>Node3</title>
<g id="a_node4"><a xlink:href="../../d7/d41/class_html_generator.html" target="_top" xlink:title="Generator for HTML output. ">
<polygon fill="white" stroke="black" points="0,-0.5 0,-19.5 80,-19.5 80,-0.5 0,-0.5"/>
<text text-anchor="middle" x="40" y="-7.5" font-family="Helvetica,sans-Serif" font-size="10.00">HtmlGenerator</text>
</a>
</g>
</g>
<!-- Node0&#45;&gt;Node3 -->
<g id="edge3" class="edge"><title>Node0&#45;&gt;Node3</title>
<path fill="none" stroke="midnightblue" d="M155.629,-52.9058C127.616,-42.7536 88.3044,-28.5063 63.499,-19.5164"/>
<polygon fill="midnightblue" stroke="midnightblue" points="154.796,-56.3267 165.391,-56.4435 157.181,-49.7456 154.796,-56.3267"/>
</g>
<!-- Node4 -->
<g id="node5" class="node"><title>Node4</title>
<g id="a_node5"><a xlink:href="../../d3/d77/class_latex_generator.html" target="_top" xlink:title="Generator for LaTeX output. ">
<polygon fill="white" stroke="black" points="98.5,-0.5 98.5,-19.5 181.5,-19.5 181.5,-0.5 98.5,-0.5"/>
<text text-anchor="middle" x="140" y="-7.5" font-family="Helvetica,sans-Serif" font-size="10.00">LatexGenerator</text>
</a>
</g>
</g>
<!-- Node0&#45;&gt;Node4 -->
<g id="edge4" class="edge"><title>Node0&#45;&gt;Node4</title>
<path fill="none" stroke="midnightblue" d="M173.966,-48.4314C165.378,-38.9673 154.957,-27.4827 147.941,-19.7511"/>
<polygon fill="midnightblue" stroke="midnightblue" points="171.597,-51.0293 180.909,-56.083 176.781,-46.3254 171.597,-51.0293"/>
</g>
<!-- Node5 -->
<g id="node6" class="node"><title>Node5</title>
<g id="a_node6"><a xlink:href="../../de/da5/class_man_generator.html" target="_top" xlink:title="Generator for Man page output. ">
<polygon fill="white" stroke="black" points="200,-0.5 200,-19.5 278,-19.5 278,-0.5 200,-0.5"/>
<text text-anchor="middle" x="239" y="-7.5" font-family="Helvetica,sans-Serif" font-size="10.00">ManGenerator</text>
</a>
</g>
</g>
<!-- Node0&#45;&gt;Node5 -->
<g id="edge5" class="edge"><title>Node0&#45;&gt;Node5</title>
<path fill="none" stroke="midnightblue" d="M204.076,-48.7175C212.889,-39.1997 223.666,-27.5608 230.897,-19.7511"/>
<polygon fill="midnightblue" stroke="midnightblue" points="201.482,-46.3674 197.256,-56.083 206.619,-51.1233 201.482,-46.3674"/>
</g>
<!-- Node6 -->
<g id="node7" class="node"><title>Node6</title>
<g id="a_node7"><a xlink:href="../../d0/da4/class_r_t_f_generator.html" target="_top" xlink:title="Generator for RTF output. ">
<polygon fill="white" stroke="black" points="296.5,-0.5 296.5,-19.5 375.5,-19.5 375.5,-0.5 296.5,-0.5"/>
<text text-anchor="middle" x="336" y="-7.5" font-family="Helvetica,sans-Serif" font-size="10.00">RTFGenerator</text>
</a>
</g>
</g>
<!-- Node0&#45;&gt;Node6 -->
<g id="edge6" class="edge"><title>Node0&#45;&gt;Node6</title>
<path fill="none" stroke="midnightblue" d="M221.923,-52.9058C249.56,-42.7536 288.344,-28.5063 312.816,-19.5164"/>
<polygon fill="midnightblue" stroke="midnightblue" points="220.472,-49.71 212.293,-56.4435 222.886,-56.2806 220.472,-49.71"/>
</g>
<!-- Node1 -->
<g id="node2" class="node"><title>Node1</title>
<g id="a_node2"><a xlink:href="../../df/d27/class_base_output_doc_interface.html" target="_top" xlink:title="Base Interface used for generating output outside of the comment blocks. ">
<polygon fill="white" stroke="black" points="126.5,-112.5 126.5,-131.5 251.5,-131.5 251.5,-112.5 126.5,-112.5"/>
<text text-anchor="middle" x="189" y="-119.5" font-family="Helvetica,sans-Serif" font-size="10.00">BaseOutputDocInterface</text>
</a>
</g>
</g>
<!-- Node1&#45;&gt;Node0 -->
<g id="edge1" class="edge"><title>Node1&#45;&gt;Node0</title>
<path fill="none" stroke="midnightblue" d="M189,-101.805C189,-92.9102 189,-82.7798 189,-75.7511"/>
<polygon fill="midnightblue" stroke="midnightblue" points="185.5,-102.083 189,-112.083 192.5,-102.083 185.5,-102.083"/>
</g>
<!-- Node2 -->
<g id="node3" class="node"><title>Node2</title>
<g id="a_node3"><a xlink:href="../../d5/d9c/class_code_output_interface.html" target="_top" xlink:title="Output interface for code parser. ">
<polygon fill="white" stroke="black" points="135.5,-168.5 135.5,-187.5 242.5,-187.5 242.5,-168.5 135.5,-168.5"/>
<text text-anchor="middle" x="189" y="-175.5" font-family="Helvetica,sans-Serif" font-size="10.00">CodeOutputInterface</text>
</a>
</g>
</g>
<!-- Node2&#45;&gt;Node1 -->
<g id="edge2" class="edge"><title>Node2&#45;&gt;Node1</title>
<path fill="none" stroke="midnightblue" d="M189,-157.805C189,-148.91 189,-138.78 189,-131.751"/>
<polygon fill="midnightblue" stroke="midnightblue" points="185.5,-158.083 189,-168.083 192.5,-158.083 185.5,-158.083"/>
</g>
</g>
</svg>
