<?xml version="1.0" encoding="UTF-8" standalone="no"?>
<!DOCTYPE svg PUBLIC "-//W3C//DTD SVG 1.1//EN"
 "http://www.w3.org/Graphics/SVG/1.1/DTD/svg11.dtd">
<!-- Generated by graphviz version 2.38.0 (20140413.2041)
 -->
<!-- Title: src/pagedef.h Pages: 1 -->
<svg width="263pt" height="196pt"
 viewBox="0.00 0.00 262.50 196.00" xmlns="http://www.w3.org/2000/svg" xmlns:xlink="http://www.w3.org/1999/xlink">
<g id="graph0" class="graph" transform="scale(1 1) rotate(0) translate(4 192)">
<title>src/pagedef.h</title>
<polygon fill="white" stroke="none" points="-4,4 -4,-192 258.5,-192 258.5,4 -4,4"/>
<!-- Node0 -->
<g id="node1" class="node"><title>Node0</title>
<polygon fill="#bfbfbf" stroke="black" points="89,-168.5 89,-187.5 165,-187.5 165,-168.5 89,-168.5"/>
<text text-anchor="middle" x="127" y="-175.5" font-family="Helvetica,sans-Serif" font-size="10.00">src/pagedef.h</text>
</g>
<!-- Node1 -->
<g id="node2" class="node"><title>Node1</title>
<g id="a_node2"><a xlink:href="../../df/da1/definition_8h.html" target="_top" xlink:title="definition.h">
<polygon fill="white" stroke="black" points="135,-112.5 135,-131.5 199,-131.5 199,-112.5 135,-112.5"/>
<text text-anchor="middle" x="167" y="-119.5" font-family="Helvetica,sans-Serif" font-size="10.00">definition.h</text>
</a>
</g>
</g>
<!-- Node0&#45;&gt;Node1 -->
<g id="edge1" class="edge"><title>Node0&#45;&gt;Node1</title>
<path fill="none" stroke="midnightblue" d="M133.605,-168.083C139.255,-160.455 147.545,-149.264 154.451,-139.941"/>
<polygon fill="midnightblue" stroke="midnightblue" points="157.378,-141.87 160.518,-131.751 151.753,-137.703 157.378,-141.87"/>
</g>
<!-- Node6 -->
<g id="node7" class="node"><title>Node6</title>
<g id="a_node7"><a xlink:href="../../d9/d21/sortdict_8h.html" target="_top" xlink:title="sortdict.h">
<polygon fill="white" stroke="black" points="59.5,-112.5 59.5,-131.5 116.5,-131.5 116.5,-112.5 59.5,-112.5"/>
<text text-anchor="middle" x="88" y="-119.5" font-family="Helvetica,sans-Serif" font-size="10.00">sortdict.h</text>
</a>
</g>
</g>
<!-- Node0&#45;&gt;Node6 -->
<g id="edge6" class="edge"><title>Node0&#45;&gt;Node6</title>
<path fill="none" stroke="midnightblue" d="M120.56,-168.083C115.051,-160.455 106.969,-149.264 100.235,-139.941"/>
<polygon fill="midnightblue" stroke="midnightblue" points="103.013,-137.809 94.3202,-131.751 97.3378,-141.907 103.013,-137.809"/>
</g>
<!-- Node2 -->
<g id="node3" class="node"><title>Node2</title>
<polygon fill="white" stroke="#bfbfbf" points="74.5,-56.5 74.5,-75.5 117.5,-75.5 117.5,-56.5 74.5,-56.5"/>
<text text-anchor="middle" x="96" y="-63.5" font-family="Helvetica,sans-Serif" font-size="10.00">qlist.h</text>
</g>
<!-- Node1&#45;&gt;Node2 -->
<g id="edge2" class="edge"><title>Node1&#45;&gt;Node2</title>
<path fill="none" stroke="midnightblue" d="M155.593,-112.324C144.891,-104.185 128.659,-91.8395 115.837,-82.0874"/>
<polygon fill="midnightblue" stroke="midnightblue" points="117.693,-79.1018 107.615,-75.8339 113.456,-84.6734 117.693,-79.1018"/>
</g>
<!-- Node3 -->
<g id="node4" class="node"><title>Node3</title>
<polygon fill="white" stroke="#bfbfbf" points="136,-56.5 136,-75.5 182,-75.5 182,-56.5 136,-56.5"/>
<text text-anchor="middle" x="159" y="-63.5" font-family="Helvetica,sans-Serif" font-size="10.00">qdict.h</text>
</g>
<!-- Node1&#45;&gt;Node3 -->
<g id="edge3" class="edge"><title>Node1&#45;&gt;Node3</title>
<path fill="none" stroke="midnightblue" d="M165.679,-112.083C164.619,-104.927 163.094,-94.6353 161.769,-85.6911"/>
<polygon fill="midnightblue" stroke="midnightblue" points="165.224,-85.1302 160.296,-75.7511 158.3,-86.1561 165.224,-85.1302"/>
</g>
<!-- Node4 -->
<g id="node5" class="node"><title>Node4</title>
<g id="a_node5"><a xlink:href="../../d9/d49/types_8h.html" target="_top" xlink:title="This file contains a number of basic enums and types. ">
<polygon fill="white" stroke="black" points="200.5,-56.5 200.5,-75.5 249.5,-75.5 249.5,-56.5 200.5,-56.5"/>
<text text-anchor="middle" x="225" y="-63.5" font-family="Helvetica,sans-Serif" font-size="10.00">types.h</text>
</a>
</g>
</g>
<!-- Node1&#45;&gt;Node4 -->
<g id="edge4" class="edge"><title>Node1&#45;&gt;Node4</title>
<path fill="none" stroke="midnightblue" d="M176.319,-112.324C184.893,-104.341 197.812,-92.3128 208.188,-82.6529"/>
<polygon fill="midnightblue" stroke="midnightblue" points="210.578,-85.2098 215.512,-75.8339 205.808,-80.0865 210.578,-85.2098"/>
</g>
<!-- Node5 -->
<g id="node6" class="node"><title>Node5</title>
<polygon fill="white" stroke="#bfbfbf" points="195.5,-0.5 195.5,-19.5 254.5,-19.5 254.5,-0.5 195.5,-0.5"/>
<text text-anchor="middle" x="225" y="-7.5" font-family="Helvetica,sans-Serif" font-size="10.00">qcstring.h</text>
</g>
<!-- Node4&#45;&gt;Node5 -->
<g id="edge5" class="edge"><title>Node4&#45;&gt;Node5</title>
<path fill="none" stroke="midnightblue" d="M225,-56.083C225,-49.0059 225,-38.8611 225,-29.9865"/>
<polygon fill="midnightblue" stroke="midnightblue" points="228.5,-29.751 225,-19.7511 221.5,-29.7511 228.5,-29.751"/>
</g>
<!-- Node6&#45;&gt;Node2 -->
<g id="edge7" class="edge"><title>Node6&#45;&gt;Node2</title>
<path fill="none" stroke="midnightblue" d="M89.321,-112.083C90.3811,-104.927 91.9059,-94.6353 93.2309,-85.6911"/>
<polygon fill="midnightblue" stroke="midnightblue" points="96.7002,-86.1561 94.7035,-75.7511 89.7758,-85.1302 96.7002,-86.1561"/>
</g>
<!-- Node6&#45;&gt;Node3 -->
<g id="edge8" class="edge"><title>Node6&#45;&gt;Node3</title>
<path fill="none" stroke="midnightblue" d="M99.4074,-112.324C110.109,-104.185 126.341,-91.8395 139.163,-82.0874"/>
<polygon fill="midnightblue" stroke="midnightblue" points="141.544,-84.6734 147.385,-75.8339 137.307,-79.1018 141.544,-84.6734"/>
</g>
<!-- Node7 -->
<g id="node8" class="node"><title>Node7</title>
<polygon fill="white" stroke="#bfbfbf" points="0,-56.5 0,-75.5 56,-75.5 56,-56.5 0,-56.5"/>
<text text-anchor="middle" x="28" y="-63.5" font-family="Helvetica,sans-Serif" font-size="10.00">qintdict.h</text>
</g>
<!-- Node6&#45;&gt;Node7 -->
<g id="edge9" class="edge"><title>Node6&#45;&gt;Node7</title>
<path fill="none" stroke="midnightblue" d="M78.36,-112.324C69.4904,-104.341 56.1253,-92.3128 45.3921,-82.6529"/>
<polygon fill="midnightblue" stroke="midnightblue" points="47.5898,-79.922 37.8154,-75.8339 42.907,-85.1251 47.5898,-79.922"/>
</g>
</g>
</svg>
