<?xml version="1.0" encoding="UTF-8" standalone="no"?>
<!DOCTYPE svg PUBLIC "-//W3C//DTD SVG 1.1//EN"
 "http://www.w3.org/Graphics/SVG/1.1/DTD/svg11.dtd">
<!-- Generated by graphviz version 2.38.0 (20140413.2041)
 -->
<!-- Title: TranslatorHungarian Pages: 1 -->
<svg width="175pt" height="665pt"
 viewBox="0.00 0.00 174.50 665.00" xmlns="http://www.w3.org/2000/svg" xmlns:xlink="http://www.w3.org/1999/xlink">
<g id="graph0" class="graph" transform="scale(1 1) rotate(0) translate(4 661)">
<title>TranslatorHungarian</title>
<polygon fill="white" stroke="none" points="-4,4 -4,-661 170.5,-661 170.5,4 -4,4"/>
<!-- Node11 -->
<g id="node1" class="node"><title>Node11</title>
<polygon fill="#bfbfbf" stroke="black" points="10.5,-0.5 10.5,-19.5 114.5,-19.5 114.5,-0.5 10.5,-0.5"/>
<text text-anchor="middle" x="62.5" y="-7.5" font-family="Helvetica,sans-Serif" font-size="10.00">TranslatorHungarian</text>
</g>
<!-- Node12 -->
<g id="node2" class="node"><title>Node12</title>
<g id="a_node2"><a xlink:href="../../d4/d2b/class_translator_adapter__1__4__6.html" target="_top" xlink:title="Adapter class for languages that only contain translations up to version 1.4.6. ">
<polygon fill="white" stroke="black" points="-7.10543e-15,-57.5 -7.10543e-15,-76.5 125,-76.5 125,-57.5 -7.10543e-15,-57.5"/>
<text text-anchor="middle" x="62.5" y="-64.5" font-family="Helvetica,sans-Serif" font-size="10.00">TranslatorAdapter_1_4_6</text>
</a>
</g>
</g>
<!-- Node12&#45;&gt;Node11 -->
<g id="edge1" class="edge"><title>Node12&#45;&gt;Node11</title>
<path fill="none" stroke="midnightblue" d="M62.5,-47.1166C62.5,-37.8173 62.5,-27.0557 62.5,-19.7149"/>
<polygon fill="midnightblue" stroke="midnightblue" points="59.0001,-47.4062 62.5,-57.4062 66.0001,-47.4063 59.0001,-47.4062"/>
</g>
<!-- Node13 -->
<g id="node3" class="node"><title>Node13</title>
<g id="a_node3"><a xlink:href="../../df/dc7/class_translator_adapter__1__5__4.html" target="_top" xlink:title="Adapter class for languages that only contain translations up to version 1.5.4. ">
<polygon fill="white" stroke="black" points="-7.10543e-15,-114.5 -7.10543e-15,-133.5 125,-133.5 125,-114.5 -7.10543e-15,-114.5"/>
<text text-anchor="middle" x="62.5" y="-121.5" font-family="Helvetica,sans-Serif" font-size="10.00">TranslatorAdapter_1_5_4</text>
</a>
</g>
</g>
<!-- Node13&#45;&gt;Node12 -->
<g id="edge2" class="edge"><title>Node13&#45;&gt;Node12</title>
<path fill="none" stroke="midnightblue" d="M62.5,-104.117C62.5,-94.8173 62.5,-84.0557 62.5,-76.7149"/>
<polygon fill="midnightblue" stroke="midnightblue" points="59.0001,-104.406 62.5,-114.406 66.0001,-104.406 59.0001,-104.406"/>
</g>
<!-- Node14 -->
<g id="node4" class="node"><title>Node14</title>
<g id="a_node4"><a xlink:href="../../d3/da1/class_translator_adapter__1__6__0.html" target="_top" xlink:title="Adapter class for languages that only contain translations up to version 1.6.0. ">
<polygon fill="white" stroke="black" points="-7.10543e-15,-171.5 -7.10543e-15,-190.5 125,-190.5 125,-171.5 -7.10543e-15,-171.5"/>
<text text-anchor="middle" x="62.5" y="-178.5" font-family="Helvetica,sans-Serif" font-size="10.00">TranslatorAdapter_1_6_0</text>
</a>
</g>
</g>
<!-- Node14&#45;&gt;Node13 -->
<g id="edge3" class="edge"><title>Node14&#45;&gt;Node13</title>
<path fill="none" stroke="midnightblue" d="M62.5,-161.117C62.5,-151.817 62.5,-141.056 62.5,-133.715"/>
<polygon fill="midnightblue" stroke="midnightblue" points="59.0001,-161.406 62.5,-171.406 66.0001,-161.406 59.0001,-161.406"/>
</g>
<!-- Node15 -->
<g id="node5" class="node"><title>Node15</title>
<g id="a_node5"><a xlink:href="../../d7/d29/class_translator_adapter__1__6__3.html" target="_top" xlink:title="Adapter class for languages that only contain translations up to version 1.6.3. ">
<polygon fill="white" stroke="black" points="-7.10543e-15,-228.5 -7.10543e-15,-247.5 125,-247.5 125,-228.5 -7.10543e-15,-228.5"/>
<text text-anchor="middle" x="62.5" y="-235.5" font-family="Helvetica,sans-Serif" font-size="10.00">TranslatorAdapter_1_6_3</text>
</a>
</g>
</g>
<!-- Node15&#45;&gt;Node14 -->
<g id="edge4" class="edge"><title>Node15&#45;&gt;Node14</title>
<path fill="none" stroke="midnightblue" d="M62.5,-218.117C62.5,-208.817 62.5,-198.056 62.5,-190.715"/>
<polygon fill="midnightblue" stroke="midnightblue" points="59.0001,-218.406 62.5,-228.406 66.0001,-218.406 59.0001,-218.406"/>
</g>
<!-- Node16 -->
<g id="node6" class="node"><title>Node16</title>
<g id="a_node6"><a xlink:href="../../da/d24/class_translator_adapter__1__7__5.html" target="_top" xlink:title="Adapter class for languages that only contain translations up to version 1.7.5. ">
<polygon fill="white" stroke="black" points="-7.10543e-15,-285.5 -7.10543e-15,-304.5 125,-304.5 125,-285.5 -7.10543e-15,-285.5"/>
<text text-anchor="middle" x="62.5" y="-292.5" font-family="Helvetica,sans-Serif" font-size="10.00">TranslatorAdapter_1_7_5</text>
</a>
</g>
</g>
<!-- Node16&#45;&gt;Node15 -->
<g id="edge5" class="edge"><title>Node16&#45;&gt;Node15</title>
<path fill="none" stroke="midnightblue" d="M62.5,-275.117C62.5,-265.817 62.5,-255.056 62.5,-247.715"/>
<polygon fill="midnightblue" stroke="midnightblue" points="59.0001,-275.406 62.5,-285.406 66.0001,-275.406 59.0001,-275.406"/>
</g>
<!-- Node17 -->
<g id="node7" class="node"><title>Node17</title>
<g id="a_node7"><a xlink:href="../../de/d49/class_translator_adapter__1__8__0.html" target="_top" xlink:title="Adapter class for languages that only contain translations up to version 1.8.0. ">
<polygon fill="white" stroke="black" points="-7.10543e-15,-342.5 -7.10543e-15,-361.5 125,-361.5 125,-342.5 -7.10543e-15,-342.5"/>
<text text-anchor="middle" x="62.5" y="-349.5" font-family="Helvetica,sans-Serif" font-size="10.00">TranslatorAdapter_1_8_0</text>
</a>
</g>
</g>
<!-- Node17&#45;&gt;Node16 -->
<g id="edge6" class="edge"><title>Node17&#45;&gt;Node16</title>
<path fill="none" stroke="midnightblue" d="M62.5,-332.117C62.5,-322.817 62.5,-312.056 62.5,-304.715"/>
<polygon fill="midnightblue" stroke="midnightblue" points="59.0001,-332.406 62.5,-342.406 66.0001,-332.406 59.0001,-332.406"/>
</g>
<!-- Node18 -->
<g id="node8" class="node"><title>Node18</title>
<g id="a_node8"><a xlink:href="../../d2/d75/class_translator_adapter__1__8__2.html" target="_top" xlink:title="TranslatorAdapter_1_8_2">
<polygon fill="white" stroke="black" points="-7.10543e-15,-399.5 -7.10543e-15,-418.5 125,-418.5 125,-399.5 -7.10543e-15,-399.5"/>
<text text-anchor="middle" x="62.5" y="-406.5" font-family="Helvetica,sans-Serif" font-size="10.00">TranslatorAdapter_1_8_2</text>
</a>
</g>
</g>
<!-- Node18&#45;&gt;Node17 -->
<g id="edge7" class="edge"><title>Node18&#45;&gt;Node17</title>
<path fill="none" stroke="midnightblue" d="M62.5,-389.117C62.5,-379.817 62.5,-369.056 62.5,-361.715"/>
<polygon fill="midnightblue" stroke="midnightblue" points="59.0001,-389.406 62.5,-399.406 66.0001,-389.406 59.0001,-389.406"/>
</g>
<!-- Node19 -->
<g id="node9" class="node"><title>Node19</title>
<g id="a_node9"><a xlink:href="../../de/d2f/class_translator_adapter__1__8__4.html" target="_top" xlink:title="TranslatorAdapter_1_8_4">
<polygon fill="white" stroke="black" points="-7.10543e-15,-456.5 -7.10543e-15,-475.5 125,-475.5 125,-456.5 -7.10543e-15,-456.5"/>
<text text-anchor="middle" x="62.5" y="-463.5" font-family="Helvetica,sans-Serif" font-size="10.00">TranslatorAdapter_1_8_4</text>
</a>
</g>
</g>
<!-- Node19&#45;&gt;Node18 -->
<g id="edge8" class="edge"><title>Node19&#45;&gt;Node18</title>
<path fill="none" stroke="midnightblue" d="M62.5,-446.117C62.5,-436.817 62.5,-426.056 62.5,-418.715"/>
<polygon fill="midnightblue" stroke="midnightblue" points="59.0001,-446.406 62.5,-456.406 66.0001,-446.406 59.0001,-446.406"/>
</g>
<!-- Node20 -->
<g id="node10" class="node"><title>Node20</title>
<g id="a_node10"><a xlink:href="../../db/d6c/class_translator_adapter_base.html" target="_top" xlink:title="Base of the translator adapter tree. ">
<polygon fill="white" stroke="black" points="4.5,-513.5 4.5,-532.5 120.5,-532.5 120.5,-513.5 4.5,-513.5"/>
<text text-anchor="middle" x="62.5" y="-520.5" font-family="Helvetica,sans-Serif" font-size="10.00">TranslatorAdapterBase</text>
</a>
</g>
</g>
<!-- Node20&#45;&gt;Node19 -->
<g id="edge9" class="edge"><title>Node20&#45;&gt;Node19</title>
<path fill="none" stroke="midnightblue" d="M62.5,-503.117C62.5,-493.817 62.5,-483.056 62.5,-475.715"/>
<polygon fill="midnightblue" stroke="midnightblue" points="59.0001,-503.406 62.5,-513.406 66.0001,-503.406 59.0001,-503.406"/>
</g>
<!-- Node21 -->
<g id="node11" class="node"><title>Node21</title>
<g id="a_node11"><a xlink:href="../../d8/dfb/class_translator.html" target="_top" xlink:title="Abstract base class for all translatable text fragments. ">
<polygon fill="white" stroke="black" points="40.5,-637.5 40.5,-656.5 100.5,-656.5 100.5,-637.5 40.5,-637.5"/>
<text text-anchor="middle" x="70.5" y="-644.5" font-family="Helvetica,sans-Serif" font-size="10.00">Translator</text>
</a>
</g>
</g>
<!-- Node21&#45;&gt;Node20 -->
<g id="edge10" class="edge"><title>Node21&#45;&gt;Node20</title>
<path fill="none" stroke="midnightblue" d="M68.1478,-627.087C67.1924,-618.788 66.1602,-608.923 65.5,-600 63.707,-575.77 62.9417,-547.109 62.653,-532.904"/>
<polygon fill="midnightblue" stroke="midnightblue" points="64.6945,-627.686 69.3611,-637.198 71.6446,-626.852 64.6945,-627.686"/>
</g>
<!-- Node22 -->
<g id="node12" class="node"><title>Node22</title>
<g id="a_node12"><a xlink:href="../../d6/d78/class_translator_english.html" target="_top" xlink:title="TranslatorEnglish">
<polygon fill="white" stroke="black" points="74.5,-580.5 74.5,-599.5 166.5,-599.5 166.5,-580.5 74.5,-580.5"/>
<text text-anchor="middle" x="120.5" y="-587.5" font-family="Helvetica,sans-Serif" font-size="10.00">TranslatorEnglish</text>
</a>
</g>
</g>
<!-- Node21&#45;&gt;Node22 -->
<g id="edge12" class="edge"><title>Node21&#45;&gt;Node22</title>
<path fill="none" stroke="midnightblue" d="M85.2017,-629.828C94.1551,-619.979 105.244,-607.782 112.577,-599.715"/>
<polygon fill="midnightblue" stroke="midnightblue" points="82.4495,-627.652 78.3125,-637.406 87.6291,-632.361 82.4495,-627.652"/>
</g>
<!-- Node22&#45;&gt;Node20 -->
<g id="edge11" class="edge"><title>Node22&#45;&gt;Node20</title>
<path fill="none" stroke="#9a32cd" stroke-dasharray="5,2" d="M105.897,-572.635C94.5542,-559.923 79.2734,-542.798 70.1982,-532.627"/>
<polygon fill="#9a32cd" stroke="#9a32cd" points="103.408,-575.103 112.678,-580.234 108.631,-570.442 103.408,-575.103"/>
<text text-anchor="middle" x="111.5" y="-554" font-family="Helvetica,sans-Serif" font-size="10.00"> english</text>
</g>
</g>
</svg>
