<?xml version="1.0" encoding="UTF-8" standalone="no"?>
<!DOCTYPE svg PUBLIC "-//W3C//DTD SVG 1.1//EN"
 "http://www.w3.org/Graphics/SVG/1.1/DTD/svg11.dtd">
<!-- Generated by graphviz version 2.38.0 (20140413.2041)
 -->
<!-- Title: TemplateEscapeIntf Pages: 1 -->
<svg width="178pt" height="84pt"
 viewBox="0.00 0.00 177.50 84.00" xmlns="http://www.w3.org/2000/svg" xmlns:xlink="http://www.w3.org/1999/xlink">
<g id="graph0" class="graph" transform="scale(1 1) rotate(0) translate(4 80)">
<title>TemplateEscapeIntf</title>
<polygon fill="white" stroke="none" points="-4,4 -4,-80 173.5,-80 173.5,4 -4,4"/>
<!-- Node0 -->
<g id="node1" class="node"><title>Node0</title>
<polygon fill="#bfbfbf" stroke="black" points="32,-56.5 32,-75.5 136,-75.5 136,-56.5 32,-56.5"/>
<text text-anchor="middle" x="84" y="-63.5" font-family="Helvetica,sans-Serif" font-size="10.00">TemplateEscapeIntf</text>
</g>
<!-- Node1 -->
<g id="node2" class="node"><title>Node1</title>
<g id="a_node2"><a xlink:href="../../dc/d97/class_html_escaper.html" target="_top" xlink:title="HtmlEscaper">
<polygon fill="white" stroke="black" points="0,-0.5 0,-19.5 74,-19.5 74,-0.5 0,-0.5"/>
<text text-anchor="middle" x="37" y="-7.5" font-family="Helvetica,sans-Serif" font-size="10.00">HtmlEscaper</text>
</a>
</g>
</g>
<!-- Node0&#45;&gt;Node1 -->
<g id="edge1" class="edge"><title>Node0&#45;&gt;Node1</title>
<path fill="none" stroke="midnightblue" d="M69.5792,-48.4314C61.3419,-38.9673 51.3461,-27.4827 44.6167,-19.7511"/>
<polygon fill="midnightblue" stroke="midnightblue" points="67.0336,-50.8378 76.2389,-56.083 72.3137,-46.2421 67.0336,-50.8378"/>
</g>
<!-- Node2 -->
<g id="node3" class="node"><title>Node2</title>
<g id="a_node3"><a xlink:href="../../da/dd3/class_latex_escaper.html" target="_top" xlink:title="LatexEscaper">
<polygon fill="white" stroke="black" points="92.5,-0.5 92.5,-19.5 169.5,-19.5 169.5,-0.5 92.5,-0.5"/>
<text text-anchor="middle" x="131" y="-7.5" font-family="Helvetica,sans-Serif" font-size="10.00">LatexEscaper</text>
</a>
</g>
</g>
<!-- Node0&#45;&gt;Node2 -->
<g id="edge2" class="edge"><title>Node0&#45;&gt;Node2</title>
<path fill="none" stroke="midnightblue" d="M98.4208,-48.4314C106.658,-38.9673 116.654,-27.4827 123.383,-19.7511"/>
<polygon fill="midnightblue" stroke="midnightblue" points="95.6863,-46.2421 91.7611,-56.083 100.966,-50.8378 95.6863,-46.2421"/>
</g>
</g>
</svg>
