<?xml version="1.0" encoding="UTF-8" standalone="no"?>
<!DOCTYPE svg PUBLIC "-//W3C//DTD SVG 1.1//EN"
 "http://www.w3.org/Graphics/SVG/1.1/DTD/svg11.dtd">
<!-- Generated by graphviz version 2.38.0 (20140413.2041)
 -->
<!-- Title: TemplateNodeInclude Pages: 1 -->
<svg width="238pt" height="230pt"
 viewBox="0.00 0.00 238.00 230.00" xmlns="http://www.w3.org/2000/svg" xmlns:xlink="http://www.w3.org/1999/xlink">
<g id="graph0" class="graph" transform="scale(1 1) rotate(0) translate(4 226)">
<title>TemplateNodeInclude</title>
<polygon fill="white" stroke="none" points="-4,4 -4,-226 234,-226 234,4 -4,4"/>
<!-- Node4 -->
<g id="node1" class="node"><title>Node4</title>
<polygon fill="#bfbfbf" stroke="black" points="90,-0.5 90,-19.5 202,-19.5 202,-0.5 90,-0.5"/>
<text text-anchor="middle" x="146" y="-7.5" font-family="Helvetica,sans-Serif" font-size="10.00">TemplateNodeInclude</text>
</g>
<!-- Node5 -->
<g id="node2" class="node"><title>Node5</title>
<g id="a_node2"><a xlink:href="../../d8/d78/class_template_node_creator.html" target="_top" xlink:title="TemplateNodeCreator\l\&lt; TemplateNodeInclude \&gt;">
<polygon fill="white" stroke="black" points="0,-67.5 0,-97.5 130,-97.5 130,-67.5 0,-67.5"/>
<text text-anchor="start" x="8" y="-85.5" font-family="Helvetica,sans-Serif" font-size="10.00">TemplateNodeCreator</text>
<text text-anchor="middle" x="65" y="-74.5" font-family="Helvetica,sans-Serif" font-size="10.00">&lt; TemplateNodeInclude &gt;</text>
</a>
</g>
</g>
<!-- Node5&#45;&gt;Node4 -->
<g id="edge1" class="edge"><title>Node5&#45;&gt;Node4</title>
<path fill="none" stroke="midnightblue" d="M89.1155,-60.5106C104.681,-46.9628 124.13,-30.0348 135.782,-19.8932"/>
<polygon fill="midnightblue" stroke="midnightblue" points="86.6368,-58.0279 81.3916,-67.2333 91.2325,-63.3081 86.6368,-58.0279"/>
</g>
<!-- Node6 -->
<g id="node3" class="node"><title>Node6</title>
<g id="a_node3"><a xlink:href="../../d6/d53/class_template_node.html" target="_top" xlink:title="Base class of all nodes in a template&#39;s AST. ">
<polygon fill="white" stroke="black" points="39,-202.5 39,-221.5 119,-221.5 119,-202.5 39,-202.5"/>
<text text-anchor="middle" x="79" y="-209.5" font-family="Helvetica,sans-Serif" font-size="10.00">TemplateNode</text>
</a>
</g>
</g>
<!-- Node6&#45;&gt;Node5 -->
<g id="edge2" class="edge"><title>Node6&#45;&gt;Node5</title>
<path fill="none" stroke="midnightblue" d="M73.6925,-192.502C71.5316,-184.169 69.2518,-174.164 68,-165 64.7998,-141.572 64.4982,-114.028 64.6753,-97.7075"/>
<polygon fill="midnightblue" stroke="midnightblue" points="70.3528,-193.558 76.3681,-202.28 77.1046,-191.71 70.3528,-193.558"/>
</g>
<!-- Node6&#45;&gt;Node6 -->
<g id="edge3" class="edge"><title>Node6&#45;&gt;Node6</title>
<path fill="none" stroke="#9a32cd" stroke-dasharray="5,2" d="M129.265,-216.218C134.005,-215.354 137,-213.948 137,-212 137,-208.883 129.332,-207.154 119.119,-206.813"/>
<polygon fill="#9a32cd" stroke="#9a32cd" points="128.74,-212.752 119.119,-217.187 129.406,-219.72 128.74,-212.752"/>
<text text-anchor="middle" x="159" y="-209.5" font-family="Helvetica,sans-Serif" font-size="10.00"> m_parent</text>
</g>
<!-- Node7 -->
<g id="node4" class="node"><title>Node7</title>
<g id="a_node4"><a xlink:href="../../d8/d78/class_template_node_creator.html" target="_top" xlink:title="Helper class for creating template AST tag nodes and returning the template for a given node...">
<polygon fill="white" stroke="black" points="77.5,-145.5 77.5,-164.5 214.5,-164.5 214.5,-145.5 77.5,-145.5"/>
<text text-anchor="middle" x="146" y="-152.5" font-family="Helvetica,sans-Serif" font-size="10.00">TemplateNodeCreator&lt; T &gt;</text>
</a>
</g>
</g>
<!-- Node6&#45;&gt;Node7 -->
<g id="edge5" class="edge"><title>Node6&#45;&gt;Node7</title>
<path fill="none" stroke="midnightblue" d="M97.2748,-195.998C109.501,-185.962 125.164,-173.104 135.384,-164.715"/>
<polygon fill="midnightblue" stroke="midnightblue" points="94.9773,-193.356 89.4688,-202.406 99.4188,-198.767 94.9773,-193.356"/>
</g>
<!-- Node7&#45;&gt;Node5 -->
<g id="edge4" class="edge"><title>Node7&#45;&gt;Node5</title>
<path fill="none" stroke="orange" stroke-dasharray="5,2" d="M128.518,-138.784C114.462,-126.551 94.8689,-109.497 81.1726,-97.5762"/>
<polygon fill="orange" stroke="orange" points="126.227,-141.43 136.068,-145.355 130.823,-136.15 126.227,-141.43"/>
<text text-anchor="middle" x="171.5" y="-119" font-family="Helvetica,sans-Serif" font-size="10.00"> &lt; TemplateNodeInclude &gt;</text>
</g>
<!-- Node8 -->
<g id="node5" class="node"><title>Node8</title>
<g id="a_node5"><a xlink:href="../../dc/dfa/class_expr_ast.html" target="_top" xlink:title="Base class for all nodes in the abstract syntax tree of an expression. ">
<polygon fill="white" stroke="black" points="148,-73 148,-92 200,-92 200,-73 148,-73"/>
<text text-anchor="middle" x="174" y="-80" font-family="Helvetica,sans-Serif" font-size="10.00">ExprAst</text>
</a>
</g>
</g>
<!-- Node8&#45;&gt;Node4 -->
<g id="edge6" class="edge"><title>Node8&#45;&gt;Node4</title>
<path fill="none" stroke="#9a32cd" stroke-dasharray="5,2" d="M166.76,-63.2714C161.196,-49.2619 153.758,-30.5324 149.461,-19.7154"/>
<polygon fill="#9a32cd" stroke="#9a32cd" points="163.623,-64.8534 170.567,-72.8553 170.128,-62.2695 163.623,-64.8534"/>
<text text-anchor="middle" x="195" y="-41" font-family="Helvetica,sans-Serif" font-size="10.00"> m_includeExpr</text>
</g>
</g>
</svg>
