<?xml version="1.0" encoding="UTF-8" standalone="no"?>
<!DOCTYPE svg PUBLIC "-//W3C//DTD SVG 1.1//EN"
 "http://www.w3.org/Graphics/SVG/1.1/DTD/svg11.dtd">
<!-- Generated by graphviz version 2.38.0 (20140413.2041)
 -->
<!-- Title: MemberNameSDict Pages: 1 -->
<svg width="152pt" height="152pt"
 viewBox="0.00 0.00 151.50 152.00" xmlns="http://www.w3.org/2000/svg" xmlns:xlink="http://www.w3.org/1999/xlink">
<g id="graph0" class="graph" transform="scale(1 1) rotate(0) translate(4 148)">
<title>MemberNameSDict</title>
<polygon fill="white" stroke="none" points="-4,4 -4,-148 147.5,-148 147.5,4 -4,4"/>
<!-- Node0 -->
<g id="node1" class="node"><title>Node0</title>
<polygon fill="#bfbfbf" stroke="black" points="9,-0.5 9,-19.5 112,-19.5 112,-0.5 9,-0.5"/>
<text text-anchor="middle" x="60.5" y="-7.5" font-family="Helvetica,sans-Serif" font-size="10.00">MemberNameSDict</text>
</g>
<!-- Node1 -->
<g id="node2" class="node"><title>Node1</title>
<g id="a_node2"><a xlink:href="../../d1/d50/class_s_dict.html" target="_top" xlink:title="SDict\&lt; MemberName \&gt;">
<polygon fill="white" stroke="black" points="-7.10543e-15,-57.5 -7.10543e-15,-76.5 121,-76.5 121,-57.5 -7.10543e-15,-57.5"/>
<text text-anchor="middle" x="60.5" y="-64.5" font-family="Helvetica,sans-Serif" font-size="10.00">SDict&lt; MemberName &gt;</text>
</a>
</g>
</g>
<!-- Node1&#45;&gt;Node0 -->
<g id="edge1" class="edge"><title>Node1&#45;&gt;Node0</title>
<path fill="none" stroke="midnightblue" d="M60.5,-47.1166C60.5,-37.8173 60.5,-27.0557 60.5,-19.7149"/>
<polygon fill="midnightblue" stroke="midnightblue" points="57.0001,-47.4062 60.5,-57.4062 64.0001,-47.4063 57.0001,-47.4062"/>
</g>
<!-- Node2 -->
<g id="node3" class="node"><title>Node2</title>
<g id="a_node3"><a xlink:href="../../d1/d50/class_s_dict.html" target="_top" xlink:title="Ordered dictionary of elements of type T. ">
<polygon fill="white" stroke="black" points="28,-124.5 28,-143.5 93,-143.5 93,-124.5 28,-124.5"/>
<text text-anchor="middle" x="60.5" y="-131.5" font-family="Helvetica,sans-Serif" font-size="10.00">SDict&lt; T &gt;</text>
</a>
</g>
</g>
<!-- Node2&#45;&gt;Node1 -->
<g id="edge2" class="edge"><title>Node2&#45;&gt;Node1</title>
<path fill="none" stroke="orange" stroke-dasharray="5,2" d="M60.5,-114.037C60.5,-101.67 60.5,-86.1198 60.5,-76.6273"/>
<polygon fill="orange" stroke="orange" points="57.0001,-114.234 60.5,-124.234 64.0001,-114.234 57.0001,-114.234"/>
<text text-anchor="middle" x="102" y="-98" font-family="Helvetica,sans-Serif" font-size="10.00"> &lt; MemberName &gt;</text>
</g>
</g>
</svg>
