<?xml version="1.0" encoding="UTF-8" standalone="no"?>
<!DOCTYPE svg PUBLIC "-//W3C//DTD SVG 1.1//EN"
 "http://www.w3.org/Graphics/SVG/1.1/DTD/svg11.dtd">
<!-- Generated by graphviz version 2.38.0 (20140413.2041)
 -->
<!-- Title: DefinitionContext&lt; T &gt;::Cachable Pages: 1 -->
<svg width="580pt" height="650pt"
 viewBox="0.00 0.00 580.00 650.00" xmlns="http://www.w3.org/2000/svg" xmlns:xlink="http://www.w3.org/1999/xlink">
<g id="graph0" class="graph" transform="scale(1 1) rotate(0) translate(4 646)">
<title>DefinitionContext&lt; T &gt;::Cachable</title>
<polygon fill="white" stroke="none" points="-4,4 -4,-646 576,-646 576,4 -4,4"/>
<!-- Node0 -->
<g id="node1" class="node"><title>Node0</title>
<polygon fill="#bfbfbf" stroke="black" points="132,-306 132,-336 230,-336 230,-306 132,-306"/>
<text text-anchor="start" x="140" y="-324" font-family="Helvetica,sans-Serif" font-size="10.00">DefinitionContext&lt;</text>
<text text-anchor="middle" x="181" y="-313" font-family="Helvetica,sans-Serif" font-size="10.00"> T &gt;::Cachable</text>
</g>
<!-- Node2 -->
<g id="node3" class="node"><title>Node2</title>
<g id="a_node3"><a xlink:href="../../d5/dc4/struct_class_context_1_1_private_1_1_cachable.html" target="_top" xlink:title="ClassContext::Private\l::Cachable\&lt; ClassContext\l::Private \&gt;">
<polygon fill="white" stroke="black" points="416.5,-600.5 416.5,-641.5 549.5,-641.5 549.5,-600.5 416.5,-600.5"/>
<text text-anchor="start" x="424.5" y="-629.5" font-family="Helvetica,sans-Serif" font-size="10.00">ClassContext::Private</text>
<text text-anchor="start" x="424.5" y="-618.5" font-family="Helvetica,sans-Serif" font-size="10.00">::Cachable&lt; ClassContext</text>
<text text-anchor="middle" x="483" y="-607.5" font-family="Helvetica,sans-Serif" font-size="10.00">::Private &gt;</text>
</a>
</g>
</g>
<!-- Node0&#45;&gt;Node2 -->
<g id="edge2" class="edge"><title>Node0&#45;&gt;Node2</title>
<path fill="none" stroke="midnightblue" d="M185.731,-346.088C192.414,-383.63 209.505,-455.025 248,-502 291.116,-554.613 363.494,-586.327 416.359,-603.626"/>
<polygon fill="midnightblue" stroke="midnightblue" points="189.148,-345.301 184.045,-336.016 182.244,-346.456 189.148,-345.301"/>
</g>
<!-- Node3 -->
<g id="node4" class="node"><title>Node3</title>
<g id="a_node4"><a xlink:href="../../d3/d0e/struct_dir_context_1_1_private_1_1_cachable.html" target="_top" xlink:title="DirContext::Private\l::Cachable\&lt; DirContext\l::Private \&gt;">
<polygon fill="white" stroke="black" points="423,-540.5 423,-581.5 543,-581.5 543,-540.5 423,-540.5"/>
<text text-anchor="start" x="431" y="-569.5" font-family="Helvetica,sans-Serif" font-size="10.00">DirContext::Private</text>
<text text-anchor="start" x="431" y="-558.5" font-family="Helvetica,sans-Serif" font-size="10.00">::Cachable&lt; DirContext</text>
<text text-anchor="middle" x="483" y="-547.5" font-family="Helvetica,sans-Serif" font-size="10.00">::Private &gt;</text>
</a>
</g>
</g>
<!-- Node0&#45;&gt;Node3 -->
<g id="edge3" class="edge"><title>Node0&#45;&gt;Node3</title>
<path fill="none" stroke="midnightblue" d="M189.925,-345.909C199.823,-373.799 219.058,-419.007 248,-449 296.084,-498.83 370.815,-529.205 422.842,-545.519"/>
<polygon fill="midnightblue" stroke="midnightblue" points="193.131,-344.469 186.588,-336.136 186.507,-346.731 193.131,-344.469"/>
</g>
<!-- Node4 -->
<g id="node5" class="node"><title>Node4</title>
<g id="a_node5"><a xlink:href="../../d1/d8e/struct_file_context_1_1_private_1_1_cachable.html" target="_top" xlink:title="FileContext::Private\l::Cachable\&lt; FileContext\l::Private \&gt;">
<polygon fill="white" stroke="black" points="421.5,-480.5 421.5,-521.5 544.5,-521.5 544.5,-480.5 421.5,-480.5"/>
<text text-anchor="start" x="429.5" y="-509.5" font-family="Helvetica,sans-Serif" font-size="10.00">FileContext::Private</text>
<text text-anchor="start" x="429.5" y="-498.5" font-family="Helvetica,sans-Serif" font-size="10.00">::Cachable&lt; FileContext</text>
<text text-anchor="middle" x="483" y="-487.5" font-family="Helvetica,sans-Serif" font-size="10.00">::Private &gt;</text>
</a>
</g>
</g>
<!-- Node0&#45;&gt;Node4 -->
<g id="edge4" class="edge"><title>Node0&#45;&gt;Node4</title>
<path fill="none" stroke="midnightblue" d="M197.358,-344.703C209.49,-362.009 227.715,-385.125 248,-401 300.1,-441.773 371.317,-469.063 421.458,-484.692"/>
<polygon fill="midnightblue" stroke="midnightblue" points="200.118,-342.539 191.59,-336.252 194.336,-346.485 200.118,-342.539"/>
</g>
<!-- Node5 -->
<g id="node6" class="node"><title>Node5</title>
<g id="a_node6"><a xlink:href="../../d7/d88/struct_member_context_1_1_private_1_1_cachable.html" target="_top" xlink:title="MemberContext::Private\l::Cachable\&lt; MemberContext\l::Private \&gt;">
<polygon fill="white" stroke="black" points="411.5,-420.5 411.5,-461.5 554.5,-461.5 554.5,-420.5 411.5,-420.5"/>
<text text-anchor="start" x="419.5" y="-449.5" font-family="Helvetica,sans-Serif" font-size="10.00">MemberContext::Private</text>
<text text-anchor="start" x="419.5" y="-438.5" font-family="Helvetica,sans-Serif" font-size="10.00">::Cachable&lt; MemberContext</text>
<text text-anchor="middle" x="483" y="-427.5" font-family="Helvetica,sans-Serif" font-size="10.00">::Private &gt;</text>
</a>
</g>
</g>
<!-- Node0&#45;&gt;Node5 -->
<g id="edge5" class="edge"><title>Node0&#45;&gt;Node5</title>
<path fill="none" stroke="midnightblue" d="M211.995,-341.664C223.006,-348.699 235.774,-356.233 248,-362 300.935,-386.968 363.947,-407.77 411.241,-421.75"/>
<polygon fill="midnightblue" stroke="midnightblue" points="213.871,-338.709 203.584,-336.173 210.044,-344.571 213.871,-338.709"/>
</g>
<!-- Node6 -->
<g id="node7" class="node"><title>Node6</title>
<g id="a_node7"><a xlink:href="../../d4/deb/struct_module_context_1_1_private_1_1_cachable.html" target="_top" xlink:title="ModuleContext::Private\l::Cachable\&lt; ModuleContext\l::Private \&gt;">
<polygon fill="white" stroke="black" points="413.5,-360.5 413.5,-401.5 552.5,-401.5 552.5,-360.5 413.5,-360.5"/>
<text text-anchor="start" x="421.5" y="-389.5" font-family="Helvetica,sans-Serif" font-size="10.00">ModuleContext::Private</text>
<text text-anchor="start" x="421.5" y="-378.5" font-family="Helvetica,sans-Serif" font-size="10.00">::Cachable&lt; ModuleContext</text>
<text text-anchor="middle" x="483" y="-367.5" font-family="Helvetica,sans-Serif" font-size="10.00">::Private &gt;</text>
</a>
</g>
</g>
<!-- Node0&#45;&gt;Node6 -->
<g id="edge6" class="edge"><title>Node0&#45;&gt;Node6</title>
<path fill="none" stroke="midnightblue" d="M240.338,-333.424C242.926,-333.959 245.49,-334.487 248,-335 303.573,-346.356 366.681,-358.731 413.344,-367.783"/>
<polygon fill="midnightblue" stroke="midnightblue" points="240.788,-329.942 230.284,-331.329 239.36,-336.795 240.788,-329.942"/>
</g>
<!-- Node7 -->
<g id="node8" class="node"><title>Node7</title>
<g id="a_node8"><a xlink:href="../../d1/d10/struct_namespace_context_1_1_private_1_1_cachable.html" target="_top" xlink:title="NamespaceContext::Private\l::Cachable\&lt; NamespaceContext\l::Private \&gt;">
<polygon fill="white" stroke="black" points="403,-300.5 403,-341.5 563,-341.5 563,-300.5 403,-300.5"/>
<text text-anchor="start" x="411" y="-329.5" font-family="Helvetica,sans-Serif" font-size="10.00">NamespaceContext::Private</text>
<text text-anchor="start" x="411" y="-318.5" font-family="Helvetica,sans-Serif" font-size="10.00">::Cachable&lt; NamespaceContext</text>
<text text-anchor="middle" x="483" y="-307.5" font-family="Helvetica,sans-Serif" font-size="10.00">::Private &gt;</text>
</a>
</g>
</g>
<!-- Node0&#45;&gt;Node7 -->
<g id="edge7" class="edge"><title>Node0&#45;&gt;Node7</title>
<path fill="none" stroke="midnightblue" d="M240.371,-321C286.688,-321 351.9,-321 402.906,-321"/>
<polygon fill="midnightblue" stroke="midnightblue" points="240.2,-317.5 230.2,-321 240.2,-324.5 240.2,-317.5"/>
</g>
<!-- Node8 -->
<g id="node9" class="node"><title>Node8</title>
<g id="a_node9"><a xlink:href="../../db/de3/struct_page_context_1_1_private_1_1_cachable.html" target="_top" xlink:title="PageContext::Private\l::Cachable\&lt; PageContext\l::Private \&gt;">
<polygon fill="white" stroke="black" points="418,-240.5 418,-281.5 548,-281.5 548,-240.5 418,-240.5"/>
<text text-anchor="start" x="426" y="-269.5" font-family="Helvetica,sans-Serif" font-size="10.00">PageContext::Private</text>
<text text-anchor="start" x="426" y="-258.5" font-family="Helvetica,sans-Serif" font-size="10.00">::Cachable&lt; PageContext</text>
<text text-anchor="middle" x="483" y="-247.5" font-family="Helvetica,sans-Serif" font-size="10.00">::Private &gt;</text>
</a>
</g>
</g>
<!-- Node0&#45;&gt;Node8 -->
<g id="edge8" class="edge"><title>Node0&#45;&gt;Node8</title>
<path fill="none" stroke="midnightblue" d="M240.084,-309.383C291.109,-299.178 365.226,-284.355 417.954,-273.809"/>
<polygon fill="midnightblue" stroke="midnightblue" points="239.32,-305.967 230.2,-311.36 240.692,-312.831 239.32,-305.967"/>
</g>
<!-- Node9 -->
<g id="node10" class="node"><title>Node9</title>
<g id="a_node10"><a xlink:href="../../d9/d7b/struct_definition_context_1_1_cachable.html" target="_top" xlink:title="DefinitionContext\&lt;\l T \&gt;::Cachable\&lt; PageContext\l::Private \&gt;">
<polygon fill="white" stroke="black" points="409,-180.5 409,-221.5 557,-221.5 557,-180.5 409,-180.5"/>
<text text-anchor="start" x="417" y="-209.5" font-family="Helvetica,sans-Serif" font-size="10.00">DefinitionContext&lt;</text>
<text text-anchor="start" x="417" y="-198.5" font-family="Helvetica,sans-Serif" font-size="10.00"> T &gt;::Cachable&lt; PageContext</text>
<text text-anchor="middle" x="483" y="-187.5" font-family="Helvetica,sans-Serif" font-size="10.00">::Private &gt;</text>
</a>
</g>
</g>
<!-- Node0&#45;&gt;Node9 -->
<g id="edge9" class="edge"><title>Node0&#45;&gt;Node9</title>
<path fill="none" stroke="orange" stroke-dasharray="5,2" d="M205.325,-298.986C217.313,-288.66 232.612,-276.915 248,-269 298.882,-242.829 361.315,-225.331 408.891,-214.647"/>
<polygon fill="orange" stroke="orange" points="202.753,-296.59 197.595,-305.844 207.398,-301.826 202.753,-296.59"/>
<text text-anchor="middle" x="312" y="-272" font-family="Helvetica,sans-Serif" font-size="10.00"> &lt; PageContext::Private &gt;</text>
</g>
<!-- Node10 -->
<g id="node11" class="node"><title>Node10</title>
<g id="a_node11"><a xlink:href="../../d9/d7b/struct_definition_context_1_1_cachable.html" target="_top" xlink:title="DefinitionContext\&lt;\l T \&gt;::Cachable\&lt; MemberContext\l::Private \&gt;">
<polygon fill="white" stroke="black" points="402.5,-120.5 402.5,-161.5 563.5,-161.5 563.5,-120.5 402.5,-120.5"/>
<text text-anchor="start" x="410.5" y="-149.5" font-family="Helvetica,sans-Serif" font-size="10.00">DefinitionContext&lt;</text>
<text text-anchor="start" x="410.5" y="-138.5" font-family="Helvetica,sans-Serif" font-size="10.00"> T &gt;::Cachable&lt; MemberContext</text>
<text text-anchor="middle" x="483" y="-127.5" font-family="Helvetica,sans-Serif" font-size="10.00">::Private &gt;</text>
</a>
</g>
</g>
<!-- Node0&#45;&gt;Node10 -->
<g id="edge10" class="edge"><title>Node0&#45;&gt;Node10</title>
<path fill="none" stroke="orange" stroke-dasharray="5,2" d="M190.374,-296.144C200.229,-270.612 219.022,-231.516 248,-209 292.348,-174.543 353.624,-157.536 402.348,-149.148"/>
<polygon fill="orange" stroke="orange" points="186.973,-295.252 186.806,-305.845 193.542,-297.668 186.973,-295.252"/>
<text text-anchor="middle" x="312" y="-212" font-family="Helvetica,sans-Serif" font-size="10.00"> &lt; MemberContext::Private &gt;</text>
</g>
<!-- Node11 -->
<g id="node12" class="node"><title>Node11</title>
<g id="a_node12"><a xlink:href="../../d9/d7b/struct_definition_context_1_1_cachable.html" target="_top" xlink:title="DefinitionContext\&lt;\l T \&gt;::Cachable\&lt; ClassContext\l::Private \&gt;">
<polygon fill="white" stroke="black" points="407.5,-60.5 407.5,-101.5 558.5,-101.5 558.5,-60.5 407.5,-60.5"/>
<text text-anchor="start" x="415.5" y="-89.5" font-family="Helvetica,sans-Serif" font-size="10.00">DefinitionContext&lt;</text>
<text text-anchor="start" x="415.5" y="-78.5" font-family="Helvetica,sans-Serif" font-size="10.00"> T &gt;::Cachable&lt; ClassContext</text>
<text text-anchor="middle" x="483" y="-67.5" font-family="Helvetica,sans-Serif" font-size="10.00">::Private &gt;</text>
</a>
</g>
</g>
<!-- Node0&#45;&gt;Node11 -->
<g id="edge11" class="edge"><title>Node0&#45;&gt;Node11</title>
<path fill="none" stroke="orange" stroke-dasharray="5,2" d="M183.902,-295.71C188.244,-256.471 202.374,-181.166 248,-140 291.316,-100.918 356.744,-86.8962 407.412,-82.2353"/>
<polygon fill="orange" stroke="orange" points="180.408,-295.469 182.918,-305.763 187.375,-296.151 180.408,-295.469"/>
<text text-anchor="middle" x="312" y="-143" font-family="Helvetica,sans-Serif" font-size="10.00"> &lt; ClassContext::Private &gt;</text>
</g>
<!-- Node12 -->
<g id="node13" class="node"><title>Node12</title>
<g id="a_node13"><a xlink:href="../../d9/d7b/struct_definition_context_1_1_cachable.html" target="_top" xlink:title="DefinitionContext\&lt;\l T \&gt;::Cachable\&lt; NamespaceContext\l::Private \&gt;">
<polygon fill="white" stroke="black" points="394,-0.5 394,-41.5 572,-41.5 572,-0.5 394,-0.5"/>
<text text-anchor="start" x="402" y="-29.5" font-family="Helvetica,sans-Serif" font-size="10.00">DefinitionContext&lt;</text>
<text text-anchor="start" x="402" y="-18.5" font-family="Helvetica,sans-Serif" font-size="10.00"> T &gt;::Cachable&lt; NamespaceContext</text>
<text text-anchor="middle" x="483" y="-7.5" font-family="Helvetica,sans-Serif" font-size="10.00">::Private &gt;</text>
</a>
</g>
</g>
<!-- Node0&#45;&gt;Node12 -->
<g id="edge12" class="edge"><title>Node0&#45;&gt;Node12</title>
<path fill="none" stroke="orange" stroke-dasharray="5,2" d="M184.984,-295.526C192.409,-236.673 213.627,-93.8527 248,-62 286.646,-26.1867 344.994,-15.9068 393.755,-14.5951"/>
<polygon fill="orange" stroke="orange" points="181.467,-295.455 183.721,-305.807 188.415,-296.309 181.467,-295.455"/>
<text text-anchor="start" x="262" y="-76" font-family="Helvetica,sans-Serif" font-size="10.00"> &lt; NamespaceContext</text>
<text text-anchor="middle" x="312" y="-65" font-family="Helvetica,sans-Serif" font-size="10.00">::Private &gt;</text>
</g>
<!-- Node1 -->
<g id="node2" class="node"><title>Node1</title>
<g id="a_node2"><a xlink:href="../../d1/d2f/struct_definition_1_1_cookie.html" target="_top" xlink:title="Definition::Cookie">
<polygon fill="white" stroke="black" points="0,-311.5 0,-330.5 95,-330.5 95,-311.5 0,-311.5"/>
<text text-anchor="middle" x="47.5" y="-318.5" font-family="Helvetica,sans-Serif" font-size="10.00">Definition::Cookie</text>
</a>
</g>
</g>
<!-- Node1&#45;&gt;Node0 -->
<g id="edge1" class="edge"><title>Node1&#45;&gt;Node0</title>
<path fill="none" stroke="midnightblue" d="M105.373,-321C114.127,-321 123.095,-321 131.641,-321"/>
<polygon fill="midnightblue" stroke="midnightblue" points="105.232,-317.5 95.2322,-321 105.232,-324.5 105.232,-317.5"/>
</g>
</g>
</svg>
