<?xml version="1.0" encoding="UTF-8" standalone="no"?>
<!DOCTYPE svg PUBLIC "-//W3C//DTD SVG 1.1//EN"
 "http://www.w3.org/Graphics/SVG/1.1/DTD/svg11.dtd">
<!-- Generated by graphviz version 2.38.0 (20140413.2041)
 -->
<!-- Title: PerlModGenerator Pages: 1 -->
<svg width="121pt" height="229pt"
 viewBox="0.00 0.00 121.00 229.00" xmlns="http://www.w3.org/2000/svg" xmlns:xlink="http://www.w3.org/1999/xlink">
<g id="graph0" class="graph" transform="scale(1 1) rotate(0) translate(4 225)">
<title>PerlModGenerator</title>
<polygon fill="white" stroke="none" points="-4,4 -4,-225 117,-225 117,4 -4,4"/>
<!-- Node1 -->
<g id="node1" class="node"><title>Node1</title>
<polygon fill="#bfbfbf" stroke="black" points="9,-0.5 9,-19.5 104,-19.5 104,-0.5 9,-0.5"/>
<text text-anchor="middle" x="56.5" y="-7.5" font-family="Helvetica,sans-Serif" font-size="10.00">PerlModGenerator</text>
</g>
<!-- Node2 -->
<g id="node2" class="node"><title>Node2</title>
<g id="a_node2"><a xlink:href="../../d5/d6c/class_perl_mod_output.html" target="_top" xlink:title="PerlModOutput">
<polygon fill="white" stroke="black" points="15.5,-67.5 15.5,-86.5 97.5,-86.5 97.5,-67.5 15.5,-67.5"/>
<text text-anchor="middle" x="56.5" y="-74.5" font-family="Helvetica,sans-Serif" font-size="10.00">PerlModOutput</text>
</a>
</g>
</g>
<!-- Node2&#45;&gt;Node1 -->
<g id="edge1" class="edge"><title>Node2&#45;&gt;Node1</title>
<path fill="none" stroke="#9a32cd" stroke-dasharray="5,2" d="M56.5,-57.037C56.5,-44.6703 56.5,-29.1198 56.5,-19.6273"/>
<polygon fill="#9a32cd" stroke="#9a32cd" points="53.0001,-57.2338 56.5,-67.2338 60.0001,-57.2338 53.0001,-57.2338"/>
<text text-anchor="middle" x="78.5" y="-41" font-family="Helvetica,sans-Serif" font-size="10.00"> m_output</text>
</g>
<!-- Node3 -->
<g id="node3" class="node"><title>Node3</title>
<g id="a_node3"><a xlink:href="../../d4/de6/class_perl_mod_output_stream.html" target="_top" xlink:title="PerlModOutputStream">
<polygon fill="white" stroke="black" points="0,-134.5 0,-153.5 113,-153.5 113,-134.5 0,-134.5"/>
<text text-anchor="middle" x="56.5" y="-141.5" font-family="Helvetica,sans-Serif" font-size="10.00">PerlModOutputStream</text>
</a>
</g>
</g>
<!-- Node3&#45;&gt;Node2 -->
<g id="edge2" class="edge"><title>Node3&#45;&gt;Node2</title>
<path fill="none" stroke="#9a32cd" stroke-dasharray="5,2" d="M56.5,-124.037C56.5,-111.67 56.5,-96.1198 56.5,-86.6273"/>
<polygon fill="#9a32cd" stroke="#9a32cd" points="53.0001,-124.234 56.5,-134.234 60.0001,-124.234 53.0001,-124.234"/>
<text text-anchor="middle" x="80" y="-108" font-family="Helvetica,sans-Serif" font-size="10.00"> m_stream</text>
</g>
<!-- Node4 -->
<g id="node4" class="node"><title>Node4</title>
<g id="a_node4"><a xlink:href="../../dc/d3c/class_f_text_stream.html" target="_top" xlink:title="Simplified and optimized version of QTextStream. ">
<polygon fill="white" stroke="black" points="19.5,-201.5 19.5,-220.5 93.5,-220.5 93.5,-201.5 19.5,-201.5"/>
<text text-anchor="middle" x="56.5" y="-208.5" font-family="Helvetica,sans-Serif" font-size="10.00">FTextStream</text>
</a>
</g>
</g>
<!-- Node4&#45;&gt;Node3 -->
<g id="edge3" class="edge"><title>Node4&#45;&gt;Node3</title>
<path fill="none" stroke="#9a32cd" stroke-dasharray="5,2" d="M56.5,-191.037C56.5,-178.67 56.5,-163.12 56.5,-153.627"/>
<polygon fill="#9a32cd" stroke="#9a32cd" points="53.0001,-191.234 56.5,-201.234 60.0001,-191.234 53.0001,-191.234"/>
<text text-anchor="middle" x="66.5" y="-175" font-family="Helvetica,sans-Serif" font-size="10.00"> m_t</text>
</g>
</g>
</svg>
