<?xml version="1.0" encoding="UTF-8" standalone="no"?>
<!DOCTYPE svg PUBLIC "-//W3C//DTD SVG 1.1//EN"
 "http://www.w3.org/Graphics/SVG/1.1/DTD/svg11.dtd">
<!-- Generated by graphviz version 2.38.0 (20140413.2041)
 -->
<!-- Title: src/plantuml.cpp Pages: 1 -->
<svg width="1027pt" height="364pt"
 viewBox="0.00 0.00 1027.00 364.00" xmlns="http://www.w3.org/2000/svg" xmlns:xlink="http://www.w3.org/1999/xlink">
<g id="graph0" class="graph" transform="scale(1 1) rotate(0) translate(4 360)">
<title>src/plantuml.cpp</title>
<polygon fill="white" stroke="none" points="-4,4 -4,-360 1023,-360 1023,4 -4,4"/>
<!-- Node0 -->
<g id="node1" class="node"><title>Node0</title>
<polygon fill="#bfbfbf" stroke="black" points="200.5,-336.5 200.5,-355.5 289.5,-355.5 289.5,-336.5 200.5,-336.5"/>
<text text-anchor="middle" x="245" y="-343.5" font-family="Helvetica,sans-Serif" font-size="10.00">src/plantuml.cpp</text>
</g>
<!-- Node1 -->
<g id="node2" class="node"><title>Node1</title>
<g id="a_node2"><a xlink:href="../../d3/dde/plantuml_8h.html" target="_top" xlink:title="plantuml.h">
<polygon fill="white" stroke="black" points="0,-280.5 0,-299.5 62,-299.5 62,-280.5 0,-280.5"/>
<text text-anchor="middle" x="31" y="-287.5" font-family="Helvetica,sans-Serif" font-size="10.00">plantuml.h</text>
</a>
</g>
</g>
<!-- Node0&#45;&gt;Node1 -->
<g id="edge1" class="edge"><title>Node0&#45;&gt;Node1</title>
<path fill="none" stroke="midnightblue" d="M211.091,-336.444C173.39,-326.93 112.499,-311.565 72.1128,-301.374"/>
<polygon fill="midnightblue" stroke="midnightblue" points="72.8659,-297.955 62.3135,-298.902 71.1532,-304.742 72.8659,-297.955"/>
</g>
<!-- Node2 -->
<g id="node3" class="node"><title>Node2</title>
<g id="a_node3"><a xlink:href="../../d2/de2/portable_8h.html" target="_top" xlink:title="Portable versions of functions that are platform dependent. ">
<polygon fill="white" stroke="black" points="216.5,-224.5 216.5,-243.5 275.5,-243.5 275.5,-224.5 216.5,-224.5"/>
<text text-anchor="middle" x="246" y="-231.5" font-family="Helvetica,sans-Serif" font-size="10.00">portable.h</text>
</a>
</g>
</g>
<!-- Node0&#45;&gt;Node2 -->
<g id="edge2" class="edge"><title>Node0&#45;&gt;Node2</title>
<path fill="none" stroke="midnightblue" d="M245.078,-336.368C245.24,-318.617 245.612,-277.666 245.831,-253.597"/>
<polygon fill="midnightblue" stroke="midnightblue" points="249.331,-253.623 245.922,-243.591 242.331,-253.559 249.331,-253.623"/>
</g>
<!-- Node6 -->
<g id="node7" class="node"><title>Node6</title>
<g id="a_node7"><a xlink:href="../../db/d16/config_8h.html" target="_top" xlink:title="config.h">
<polygon fill="white" stroke="black" points="148.5,-280.5 148.5,-299.5 199.5,-299.5 199.5,-280.5 148.5,-280.5"/>
<text text-anchor="middle" x="174" y="-287.5" font-family="Helvetica,sans-Serif" font-size="10.00">config.h</text>
</a>
</g>
</g>
<!-- Node0&#45;&gt;Node6 -->
<g id="edge6" class="edge"><title>Node0&#45;&gt;Node6</title>
<path fill="none" stroke="midnightblue" d="M233.593,-336.324C222.891,-328.185 206.659,-315.839 193.837,-306.087"/>
<polygon fill="midnightblue" stroke="midnightblue" points="195.693,-303.102 185.615,-299.834 191.456,-308.673 195.693,-303.102"/>
</g>
<!-- Node8 -->
<g id="node9" class="node"><title>Node8</title>
<g id="a_node9"><a xlink:href="../../d1/da1/doxygen_8h.html" target="_top" xlink:title="doxygen.h">
<polygon fill="white" stroke="black" points="697,-280.5 697,-299.5 759,-299.5 759,-280.5 697,-280.5"/>
<text text-anchor="middle" x="728" y="-287.5" font-family="Helvetica,sans-Serif" font-size="10.00">doxygen.h</text>
</a>
</g>
</g>
<!-- Node0&#45;&gt;Node8 -->
<g id="edge8" class="edge"><title>Node0&#45;&gt;Node8</title>
<path fill="none" stroke="midnightblue" d="M289.574,-340.017C382.688,-329.606 596.655,-305.685 686.782,-295.608"/>
<polygon fill="midnightblue" stroke="midnightblue" points="687.341,-299.068 696.89,-294.478 686.563,-292.111 687.341,-299.068"/>
</g>
<!-- Node27 -->
<g id="node28" class="node"><title>Node27</title>
<g id="a_node28"><a xlink:href="../../d1/db5/index_8h.html" target="_top" xlink:title="index.h">
<polygon fill="white" stroke="black" points="375,-112.5 375,-131.5 423,-131.5 423,-112.5 375,-112.5"/>
<text text-anchor="middle" x="399" y="-119.5" font-family="Helvetica,sans-Serif" font-size="10.00">index.h</text>
</a>
</g>
</g>
<!-- Node0&#45;&gt;Node27 -->
<g id="edge44" class="edge"><title>Node0&#45;&gt;Node27</title>
<path fill="none" stroke="midnightblue" d="M209.2,-336.392C186.895,-329.551 158.779,-318.069 139,-300 95.585,-260.34 84.6069,-205.38 130,-168 165.317,-138.917 300.593,-128.1 364.795,-124.544"/>
<polygon fill="midnightblue" stroke="midnightblue" points="365.025,-128.037 374.827,-124.016 364.657,-121.046 365.025,-128.037"/>
</g>
<!-- Node28 -->
<g id="node29" class="node"><title>Node28</title>
<g id="a_node29"><a xlink:href="../../d2/d0d/message_8h.html" target="_top" xlink:title="message.h">
<polygon fill="white" stroke="black" points="273.5,-280.5 273.5,-299.5 338.5,-299.5 338.5,-280.5 273.5,-280.5"/>
<text text-anchor="middle" x="306" y="-287.5" font-family="Helvetica,sans-Serif" font-size="10.00">message.h</text>
</a>
</g>
</g>
<!-- Node0&#45;&gt;Node28 -->
<g id="edge47" class="edge"><title>Node0&#45;&gt;Node28</title>
<path fill="none" stroke="midnightblue" d="M254.801,-336.324C263.818,-328.341 277.406,-316.313 288.318,-306.653"/>
<polygon fill="midnightblue" stroke="midnightblue" points="290.853,-309.083 296.021,-299.834 286.213,-303.842 290.853,-309.083"/>
</g>
<!-- Node30 -->
<g id="node31" class="node"><title>Node30</title>
<polygon fill="white" stroke="#bfbfbf" points="777.5,-280.5 777.5,-299.5 818.5,-299.5 818.5,-280.5 777.5,-280.5"/>
<text text-anchor="middle" x="798" y="-287.5" font-family="Helvetica,sans-Serif" font-size="10.00">qdir.h</text>
</g>
<!-- Node0&#45;&gt;Node30 -->
<g id="edge50" class="edge"><title>Node0&#45;&gt;Node30</title>
<path fill="none" stroke="midnightblue" d="M289.501,-344.246C378.631,-342.076 585.347,-333.721 767.456,-299.668"/>
<polygon fill="midnightblue" stroke="midnightblue" points="768.311,-303.068 777.482,-297.762 767.004,-296.191 768.311,-303.068"/>
</g>
<!-- Node3 -->
<g id="node4" class="node"><title>Node3</title>
<polygon fill="white" stroke="#bfbfbf" points="479,-112.5 479,-131.5 547,-131.5 547,-112.5 479,-112.5"/>
<text text-anchor="middle" x="513" y="-119.5" font-family="Helvetica,sans-Serif" font-size="10.00">sys/types.h</text>
</g>
<!-- Node2&#45;&gt;Node3 -->
<g id="edge3" class="edge"><title>Node2&#45;&gt;Node3</title>
<path fill="none" stroke="midnightblue" d="M242.037,-224.233C236.5,-210.506 228.549,-183.869 242,-168 249.29,-159.4 393.686,-138.951 468.651,-128.851"/>
<polygon fill="midnightblue" stroke="midnightblue" points="469.301,-132.295 478.747,-127.496 468.37,-125.357 469.301,-132.295"/>
</g>
<!-- Node4 -->
<g id="node5" class="node"><title>Node4</title>
<polygon fill="white" stroke="#bfbfbf" points="251,-168.5 251,-187.5 297,-187.5 297,-168.5 251,-168.5"/>
<text text-anchor="middle" x="274" y="-175.5" font-family="Helvetica,sans-Serif" font-size="10.00">stdio.h</text>
</g>
<!-- Node2&#45;&gt;Node4 -->
<g id="edge4" class="edge"><title>Node2&#45;&gt;Node4</title>
<path fill="none" stroke="midnightblue" d="M250.624,-224.083C254.456,-216.691 260.024,-205.953 264.765,-196.811"/>
<polygon fill="midnightblue" stroke="midnightblue" points="267.966,-198.24 269.462,-187.751 261.752,-195.018 267.966,-198.24"/>
</g>
<!-- Node5 -->
<g id="node6" class="node"><title>Node5</title>
<polygon fill="white" stroke="#bfbfbf" points="139,-168.5 139,-187.5 195,-187.5 195,-168.5 139,-168.5"/>
<text text-anchor="middle" x="167" y="-175.5" font-family="Helvetica,sans-Serif" font-size="10.00">qglobal.h</text>
</g>
<!-- Node2&#45;&gt;Node5 -->
<g id="edge5" class="edge"><title>Node2&#45;&gt;Node5</title>
<path fill="none" stroke="midnightblue" d="M233.307,-224.324C221.099,-215.979 202.422,-203.212 187.997,-193.352"/>
<polygon fill="midnightblue" stroke="midnightblue" points="189.892,-190.408 179.661,-187.655 185.942,-196.187 189.892,-190.408"/>
</g>
<!-- Node7 -->
<g id="node8" class="node"><title>Node7</title>
<polygon fill="white" stroke="#bfbfbf" points="118,-224.5 118,-243.5 198,-243.5 198,-224.5 118,-224.5"/>
<text text-anchor="middle" x="158" y="-231.5" font-family="Helvetica,sans-Serif" font-size="10.00">configvalues.h</text>
</g>
<!-- Node6&#45;&gt;Node7 -->
<g id="edge7" class="edge"><title>Node6&#45;&gt;Node7</title>
<path fill="none" stroke="midnightblue" d="M171.358,-280.083C169.214,-272.849 166.121,-262.409 163.451,-253.397"/>
<polygon fill="midnightblue" stroke="midnightblue" points="166.79,-252.345 160.593,-243.751 160.078,-254.333 166.79,-252.345"/>
</g>
<!-- Node9 -->
<g id="node10" class="node"><title>Node9</title>
<polygon fill="white" stroke="#bfbfbf" points="654,-224.5 654,-243.5 722,-243.5 722,-224.5 654,-224.5"/>
<text text-anchor="middle" x="688" y="-231.5" font-family="Helvetica,sans-Serif" font-size="10.00">qdatetime.h</text>
</g>
<!-- Node8&#45;&gt;Node9 -->
<g id="edge9" class="edge"><title>Node8&#45;&gt;Node9</title>
<path fill="none" stroke="midnightblue" d="M721.395,-280.083C715.745,-272.455 707.455,-261.264 700.549,-251.941"/>
<polygon fill="midnightblue" stroke="midnightblue" points="703.247,-249.703 694.482,-243.751 697.622,-253.87 703.247,-249.703"/>
</g>
<!-- Node10 -->
<g id="node11" class="node"><title>Node10</title>
<polygon fill="white" stroke="#bfbfbf" points="740,-224.5 740,-243.5 796,-243.5 796,-224.5 740,-224.5"/>
<text text-anchor="middle" x="768" y="-231.5" font-family="Helvetica,sans-Serif" font-size="10.00">qcache.h</text>
</g>
<!-- Node8&#45;&gt;Node10 -->
<g id="edge10" class="edge"><title>Node8&#45;&gt;Node10</title>
<path fill="none" stroke="midnightblue" d="M734.605,-280.083C740.255,-272.455 748.545,-261.264 755.451,-251.941"/>
<polygon fill="midnightblue" stroke="midnightblue" points="758.378,-253.87 761.518,-243.751 752.753,-249.703 758.378,-253.87"/>
</g>
<!-- Node11 -->
<g id="node12" class="node"><title>Node11</title>
<polygon fill="white" stroke="#bfbfbf" points="814,-224.5 814,-243.5 868,-243.5 868,-224.5 814,-224.5"/>
<text text-anchor="middle" x="841" y="-231.5" font-family="Helvetica,sans-Serif" font-size="10.00">qstrlist.h</text>
</g>
<!-- Node8&#45;&gt;Node11 -->
<g id="edge11" class="edge"><title>Node8&#45;&gt;Node11</title>
<path fill="none" stroke="midnightblue" d="M745.905,-280.444C764.254,-271.675 793.005,-257.935 814.094,-247.858"/>
<polygon fill="midnightblue" stroke="midnightblue" points="815.665,-250.986 823.179,-243.516 812.647,-244.67 815.665,-250.986"/>
</g>
<!-- Node12 -->
<g id="node13" class="node"><title>Node12</title>
<polygon fill="white" stroke="#bfbfbf" points="881,-56.5 881,-75.5 927,-75.5 927,-56.5 881,-56.5"/>
<text text-anchor="middle" x="904" y="-63.5" font-family="Helvetica,sans-Serif" font-size="10.00">qdict.h</text>
</g>
<!-- Node8&#45;&gt;Node12 -->
<g id="edge12" class="edge"><title>Node8&#45;&gt;Node12</title>
<path fill="none" stroke="midnightblue" d="M759.053,-281.829C810.779,-269.827 909.231,-246.709 912,-244 955.004,-201.926 962.665,-168.502 942,-112 937.943,-100.908 929.812,-90.6651 922.109,-82.7625"/>
<polygon fill="midnightblue" stroke="midnightblue" points="924.362,-80.0747 914.714,-75.6955 919.525,-85.1351 924.362,-80.0747"/>
</g>
<!-- Node13 -->
<g id="node14" class="node"><title>Node13</title>
<polygon fill="white" stroke="#bfbfbf" points="963,-56.5 963,-75.5 1019,-75.5 1019,-56.5 963,-56.5"/>
<text text-anchor="middle" x="991" y="-63.5" font-family="Helvetica,sans-Serif" font-size="10.00">qintdict.h</text>
</g>
<!-- Node8&#45;&gt;Node13 -->
<g id="edge13" class="edge"><title>Node8&#45;&gt;Node13</title>
<path fill="none" stroke="midnightblue" d="M759.338,-282.117C762.601,-281.401 765.868,-280.686 769,-280 842.323,-263.953 873.797,-288.826 934,-244 984.469,-206.422 991.129,-123.465 991.434,-86.01"/>
<polygon fill="midnightblue" stroke="midnightblue" points="994.93,-85.5372 991.357,-75.5633 987.93,-85.5889 994.93,-85.5372"/>
</g>
<!-- Node14 -->
<g id="node15" class="node"><title>Node14</title>
<g id="a_node15"><a xlink:href="../../df/d83/ftextstream_8h.html" target="_top" xlink:title="ftextstream.h">
<polygon fill="white" stroke="black" points="402,-224.5 402,-243.5 476,-243.5 476,-224.5 402,-224.5"/>
<text text-anchor="middle" x="439" y="-231.5" font-family="Helvetica,sans-Serif" font-size="10.00">ftextstream.h</text>
</a>
</g>
</g>
<!-- Node8&#45;&gt;Node14 -->
<g id="edge14" class="edge"><title>Node8&#45;&gt;Node14</title>
<path fill="none" stroke="midnightblue" d="M696.797,-283.17C646.161,-273.708 545.782,-254.952 486.321,-243.842"/>
<polygon fill="midnightblue" stroke="midnightblue" points="486.902,-240.39 476.429,-241.994 485.616,-247.271 486.902,-240.39"/>
</g>
<!-- Node18 -->
<g id="node19" class="node"><title>Node18</title>
<g id="a_node19"><a xlink:href="../../d9/d21/sortdict_8h.html" target="_top" xlink:title="sortdict.h">
<polygon fill="white" stroke="black" points="875.5,-112.5 875.5,-131.5 932.5,-131.5 932.5,-112.5 875.5,-112.5"/>
<text text-anchor="middle" x="904" y="-119.5" font-family="Helvetica,sans-Serif" font-size="10.00">sortdict.h</text>
</a>
</g>
</g>
<!-- Node8&#45;&gt;Node18 -->
<g id="edge19" class="edge"><title>Node8&#45;&gt;Node18</title>
<path fill="none" stroke="midnightblue" d="M759.153,-281.473C805.745,-270.077 888.625,-249.22 893,-244 917.197,-215.132 912.989,-167.661 908.23,-141.588"/>
<polygon fill="midnightblue" stroke="midnightblue" points="911.609,-140.641 906.172,-131.548 904.752,-142.047 911.609,-140.641"/>
</g>
<!-- Node20 -->
<g id="node21" class="node"><title>Node20</title>
<g id="a_node21"><a xlink:href="../../d9/d11/membergroup_8h.html" target="_top" xlink:title="membergroup.h">
<polygon fill="white" stroke="black" points="784,-168.5 784,-187.5 868,-187.5 868,-168.5 784,-168.5"/>
<text text-anchor="middle" x="826" y="-175.5" font-family="Helvetica,sans-Serif" font-size="10.00">membergroup.h</text>
</a>
</g>
</g>
<!-- Node8&#45;&gt;Node20 -->
<g id="edge23" class="edge"><title>Node8&#45;&gt;Node20</title>
<path fill="none" stroke="midnightblue" d="M759.071,-281.702C800.596,-271.639 869.831,-253.654 877,-244 890.274,-226.125 868.7,-206.029 849.657,-192.977"/>
<polygon fill="midnightblue" stroke="midnightblue" points="851.516,-190.011 841.221,-187.509 847.709,-195.885 851.516,-190.011"/>
</g>
<!-- Node23 -->
<g id="node24" class="node"><title>Node23</title>
<g id="a_node24"><a xlink:href="../../d6/d15/dirdef_8h.html" target="_top" xlink:title="dirdef.h">
<polygon fill="white" stroke="black" points="717.5,-168.5 717.5,-187.5 766.5,-187.5 766.5,-168.5 717.5,-168.5"/>
<text text-anchor="middle" x="742" y="-175.5" font-family="Helvetica,sans-Serif" font-size="10.00">dirdef.h</text>
</a>
</g>
</g>
<!-- Node8&#45;&gt;Node23 -->
<g id="edge28" class="edge"><title>Node8&#45;&gt;Node23</title>
<path fill="none" stroke="midnightblue" d="M699.454,-280.426C669.369,-269.811 628.453,-249.917 645,-224 652.276,-212.604 682.677,-199.607 707.531,-190.521"/>
<polygon fill="midnightblue" stroke="midnightblue" points="708.823,-193.776 717.068,-187.122 706.473,-187.182 708.823,-193.776"/>
</g>
<!-- Node25 -->
<g id="node26" class="node"><title>Node25</title>
<g id="a_node26"><a xlink:href="../../dd/d78/memberlist_8h.html" target="_top" xlink:title="memberlist.h">
<polygon fill="white" stroke="black" points="524.5,-224.5 524.5,-243.5 597.5,-243.5 597.5,-224.5 524.5,-224.5"/>
<text text-anchor="middle" x="561" y="-231.5" font-family="Helvetica,sans-Serif" font-size="10.00">memberlist.h</text>
</a>
</g>
</g>
<!-- Node8&#45;&gt;Node25 -->
<g id="edge35" class="edge"><title>Node8&#45;&gt;Node25</title>
<path fill="none" stroke="midnightblue" d="M701.538,-280.444C673.322,-271.32 628.46,-256.813 597.032,-246.651"/>
<polygon fill="midnightblue" stroke="midnightblue" points="597.93,-243.263 587.338,-243.516 595.776,-249.923 597.93,-243.263"/>
</g>
<!-- Node14&#45;&gt;Node4 -->
<g id="edge15" class="edge"><title>Node14&#45;&gt;Node4</title>
<path fill="none" stroke="midnightblue" d="M412.855,-224.444C384.075,-215.024 337.766,-199.869 306.629,-189.679"/>
<polygon fill="midnightblue" stroke="midnightblue" points="307.686,-186.342 297.094,-186.558 305.509,-192.995 307.686,-186.342"/>
</g>
<!-- Node15 -->
<g id="node16" class="node"><title>Node15</title>
<polygon fill="white" stroke="#bfbfbf" points="465,-168.5 465,-187.5 531,-187.5 531,-168.5 465,-168.5"/>
<text text-anchor="middle" x="498" y="-175.5" font-family="Helvetica,sans-Serif" font-size="10.00">qiodevice.h</text>
</g>
<!-- Node14&#45;&gt;Node15 -->
<g id="edge16" class="edge"><title>Node14&#45;&gt;Node15</title>
<path fill="none" stroke="midnightblue" d="M448.479,-224.324C457.201,-216.341 470.343,-204.313 480.898,-194.653"/>
<polygon fill="midnightblue" stroke="midnightblue" points="483.334,-197.167 488.348,-187.834 478.608,-192.004 483.334,-197.167"/>
</g>
<!-- Node16 -->
<g id="node17" class="node"><title>Node16</title>
<polygon fill="white" stroke="#bfbfbf" points="315,-168.5 315,-187.5 369,-187.5 369,-168.5 315,-168.5"/>
<text text-anchor="middle" x="342" y="-175.5" font-family="Helvetica,sans-Serif" font-size="10.00">qstring.h</text>
</g>
<!-- Node14&#45;&gt;Node16 -->
<g id="edge17" class="edge"><title>Node14&#45;&gt;Node16</title>
<path fill="none" stroke="midnightblue" d="M423.415,-224.324C408.001,-215.743 384.188,-202.486 366.29,-192.522"/>
<polygon fill="midnightblue" stroke="midnightblue" points="367.986,-189.461 357.546,-187.655 364.581,-195.577 367.986,-189.461"/>
</g>
<!-- Node17 -->
<g id="node18" class="node"><title>Node17</title>
<polygon fill="white" stroke="#bfbfbf" points="387.5,-168.5 387.5,-187.5 446.5,-187.5 446.5,-168.5 387.5,-168.5"/>
<text text-anchor="middle" x="417" y="-175.5" font-family="Helvetica,sans-Serif" font-size="10.00">qgstring.h</text>
</g>
<!-- Node14&#45;&gt;Node17 -->
<g id="edge18" class="edge"><title>Node14&#45;&gt;Node17</title>
<path fill="none" stroke="midnightblue" d="M435.367,-224.083C432.388,-216.77 428.074,-206.181 424.375,-197.103"/>
<polygon fill="midnightblue" stroke="midnightblue" points="427.58,-195.691 420.565,-187.751 421.097,-198.333 427.58,-195.691"/>
</g>
<!-- Node18&#45;&gt;Node12 -->
<g id="edge21" class="edge"><title>Node18&#45;&gt;Node12</title>
<path fill="none" stroke="midnightblue" d="M904,-112.083C904,-105.006 904,-94.8611 904,-85.9865"/>
<polygon fill="midnightblue" stroke="midnightblue" points="907.5,-85.751 904,-75.7511 900.5,-85.7511 907.5,-85.751"/>
</g>
<!-- Node18&#45;&gt;Node13 -->
<g id="edge22" class="edge"><title>Node18&#45;&gt;Node13</title>
<path fill="none" stroke="midnightblue" d="M917.978,-112.324C931.55,-103.9 952.38,-90.9709 968.325,-81.0741"/>
<polygon fill="midnightblue" stroke="midnightblue" points="970.406,-83.9019 977.057,-75.6545 966.714,-77.9544 970.406,-83.9019"/>
</g>
<!-- Node19 -->
<g id="node20" class="node"><title>Node19</title>
<polygon fill="white" stroke="#bfbfbf" points="591.5,-56.5 591.5,-75.5 634.5,-75.5 634.5,-56.5 591.5,-56.5"/>
<text text-anchor="middle" x="613" y="-63.5" font-family="Helvetica,sans-Serif" font-size="10.00">qlist.h</text>
</g>
<!-- Node18&#45;&gt;Node19 -->
<g id="edge20" class="edge"><title>Node18&#45;&gt;Node19</title>
<path fill="none" stroke="midnightblue" d="M875.312,-116.052C829.076,-108.02 735.237,-91.4782 656,-76 652.341,-75.2853 648.512,-74.5155 644.712,-73.7376"/>
<polygon fill="midnightblue" stroke="midnightblue" points="645.355,-70.2966 634.852,-71.6921 643.933,-77.1506 645.355,-70.2966"/>
</g>
<!-- Node20&#45;&gt;Node18 -->
<g id="edge25" class="edge"><title>Node20&#45;&gt;Node18</title>
<path fill="none" stroke="midnightblue" d="M838.532,-168.324C850.586,-159.979 869.027,-147.212 883.269,-137.352"/>
<polygon fill="midnightblue" stroke="midnightblue" points="885.269,-140.224 891.499,-131.655 881.285,-134.469 885.269,-140.224"/>
</g>
<!-- Node20&#45;&gt;Node19 -->
<g id="edge24" class="edge"><title>Node20&#45;&gt;Node19</title>
<path fill="none" stroke="midnightblue" d="M823.659,-168.365C819.394,-154.327 808.999,-126.654 790,-112 778.451,-103.092 692.066,-83.7426 644.388,-73.5628"/>
<polygon fill="midnightblue" stroke="midnightblue" points="645.071,-70.13 634.562,-71.4778 643.618,-76.9775 645.071,-70.13"/>
</g>
<!-- Node21 -->
<g id="node22" class="node"><title>Node21</title>
<g id="a_node22"><a xlink:href="../../d9/d49/types_8h.html" target="_top" xlink:title="This file contains a number of basic enums and types. ">
<polygon fill="white" stroke="black" points="664.5,-56.5 664.5,-75.5 713.5,-75.5 713.5,-56.5 664.5,-56.5"/>
<text text-anchor="middle" x="689" y="-63.5" font-family="Helvetica,sans-Serif" font-size="10.00">types.h</text>
</a>
</g>
</g>
<!-- Node20&#45;&gt;Node21 -->
<g id="edge26" class="edge"><title>Node20&#45;&gt;Node21</title>
<path fill="none" stroke="midnightblue" d="M828.393,-168.405C831.593,-154.912 835.521,-128.592 823,-112 799.891,-81.3772 755.036,-71.3739 723.612,-68.2265"/>
<polygon fill="midnightblue" stroke="midnightblue" points="723.772,-64.728 713.521,-67.402 723.202,-71.7048 723.772,-64.728"/>
</g>
<!-- Node22 -->
<g id="node23" class="node"><title>Node22</title>
<polygon fill="white" stroke="#bfbfbf" points="555.5,-0.5 555.5,-19.5 614.5,-19.5 614.5,-0.5 555.5,-0.5"/>
<text text-anchor="middle" x="585" y="-7.5" font-family="Helvetica,sans-Serif" font-size="10.00">qcstring.h</text>
</g>
<!-- Node21&#45;&gt;Node22 -->
<g id="edge27" class="edge"><title>Node21&#45;&gt;Node22</title>
<path fill="none" stroke="midnightblue" d="M672.291,-56.324C655.688,-47.7034 629.998,-34.3643 610.78,-24.3855"/>
<polygon fill="midnightblue" stroke="midnightblue" points="612.156,-21.1565 601.668,-19.6545 608.93,-27.3689 612.156,-21.1565"/>
</g>
<!-- Node23&#45;&gt;Node18 -->
<g id="edge29" class="edge"><title>Node23&#45;&gt;Node18</title>
<path fill="none" stroke="midnightblue" d="M766.604,-168.799C793.84,-159.72 837.963,-145.012 868.839,-134.72"/>
<polygon fill="midnightblue" stroke="midnightblue" points="869.98,-138.029 878.36,-131.547 867.766,-131.389 869.98,-138.029"/>
</g>
<!-- Node23&#45;&gt;Node19 -->
<g id="edge34" class="edge"><title>Node23&#45;&gt;Node19</title>
<path fill="none" stroke="midnightblue" d="M731.878,-168.368C710.024,-149.733 658.188,-105.532 630.748,-82.1338"/>
<polygon fill="midnightblue" stroke="midnightblue" points="632.956,-79.4167 623.075,-75.5914 628.414,-84.7431 632.956,-79.4167"/>
</g>
<!-- Node24 -->
<g id="node25" class="node"><title>Node24</title>
<g id="a_node25"><a xlink:href="../../df/da1/definition_8h.html" target="_top" xlink:title="definition.h">
<polygon fill="white" stroke="black" points="717,-112.5 717,-131.5 781,-131.5 781,-112.5 717,-112.5"/>
<text text-anchor="middle" x="749" y="-119.5" font-family="Helvetica,sans-Serif" font-size="10.00">definition.h</text>
</a>
</g>
</g>
<!-- Node23&#45;&gt;Node24 -->
<g id="edge30" class="edge"><title>Node23&#45;&gt;Node24</title>
<path fill="none" stroke="midnightblue" d="M743.156,-168.083C744.084,-160.927 745.418,-150.635 746.577,-141.691"/>
<polygon fill="midnightblue" stroke="midnightblue" points="750.051,-142.118 747.866,-131.751 743.109,-141.218 750.051,-142.118"/>
</g>
<!-- Node24&#45;&gt;Node12 -->
<g id="edge32" class="edge"><title>Node24&#45;&gt;Node12</title>
<path fill="none" stroke="midnightblue" d="M773.56,-112.444C799.828,-103.292 841.638,-88.726 870.82,-78.5594"/>
<polygon fill="midnightblue" stroke="midnightblue" points="872.277,-81.7581 880.569,-75.1629 869.974,-75.1478 872.277,-81.7581"/>
</g>
<!-- Node24&#45;&gt;Node19 -->
<g id="edge31" class="edge"><title>Node24&#45;&gt;Node19</title>
<path fill="none" stroke="midnightblue" d="M727.45,-112.444C704.969,-103.517 669.512,-89.4387 644.02,-79.3168"/>
<polygon fill="midnightblue" stroke="midnightblue" points="645.035,-75.9539 634.449,-75.5164 642.451,-82.4598 645.035,-75.9539"/>
</g>
<!-- Node24&#45;&gt;Node21 -->
<g id="edge33" class="edge"><title>Node24&#45;&gt;Node21</title>
<path fill="none" stroke="midnightblue" d="M739.36,-112.324C730.49,-104.341 717.125,-92.3128 706.392,-82.6529"/>
<polygon fill="midnightblue" stroke="midnightblue" points="708.59,-79.922 698.815,-75.8339 703.907,-85.1251 708.59,-79.922"/>
</g>
<!-- Node25&#45;&gt;Node18 -->
<g id="edge42" class="edge"><title>Node25&#45;&gt;Node18</title>
<path fill="none" stroke="midnightblue" d="M597.569,-228.771C678.403,-219.292 866.022,-196.507 877,-188 891.316,-176.906 898.106,-156.869 901.285,-141.964"/>
<polygon fill="midnightblue" stroke="midnightblue" points="904.788,-142.255 903.077,-131.799 897.894,-141.039 904.788,-142.255"/>
</g>
<!-- Node25&#45;&gt;Node19 -->
<g id="edge36" class="edge"><title>Node25&#45;&gt;Node19</title>
<path fill="none" stroke="midnightblue" d="M560.303,-224.414C558.795,-210.934 554.126,-184.631 540,-168 514.207,-137.634 446.432,-144.124 470,-112 495.353,-77.4428 547.262,-68.724 581.07,-66.9011"/>
<polygon fill="midnightblue" stroke="midnightblue" points="581.487,-70.3884 591.354,-66.5276 581.233,-63.393 581.487,-70.3884"/>
</g>
<!-- Node25&#45;&gt;Node21 -->
<g id="edge43" class="edge"><title>Node25&#45;&gt;Node21</title>
<path fill="none" stroke="midnightblue" d="M597.716,-227.336C621.983,-221.614 652.447,-210.269 670,-188 693.392,-158.323 693.464,-111.543 691.32,-85.7042"/>
<polygon fill="midnightblue" stroke="midnightblue" points="694.799,-85.32 690.291,-75.7321 687.836,-86.0386 694.799,-85.32"/>
</g>
<!-- Node26 -->
<g id="node27" class="node"><title>Node26</title>
<g id="a_node27"><a xlink:href="../../d4/d46/memberdef_8h.html" target="_top" xlink:title="memberdef.h">
<polygon fill="white" stroke="black" points="587,-168.5 587,-187.5 661,-187.5 661,-168.5 587,-168.5"/>
<text text-anchor="middle" x="624" y="-175.5" font-family="Helvetica,sans-Serif" font-size="10.00">memberdef.h</text>
</a>
</g>
</g>
<!-- Node25&#45;&gt;Node26 -->
<g id="edge37" class="edge"><title>Node25&#45;&gt;Node26</title>
<path fill="none" stroke="midnightblue" d="M571.122,-224.324C580.526,-216.263 594.744,-204.077 606.069,-194.369"/>
<polygon fill="midnightblue" stroke="midnightblue" points="608.379,-196.999 613.694,-187.834 603.823,-191.684 608.379,-196.999"/>
</g>
<!-- Node26&#45;&gt;Node3 -->
<g id="edge39" class="edge"><title>Node26&#45;&gt;Node3</title>
<path fill="none" stroke="midnightblue" d="M606.166,-168.324C588.284,-159.625 560.525,-146.12 539.954,-136.113"/>
<polygon fill="midnightblue" stroke="midnightblue" points="541.313,-132.882 530.79,-131.655 538.251,-139.177 541.313,-132.882"/>
</g>
<!-- Node26&#45;&gt;Node19 -->
<g id="edge38" class="edge"><title>Node26&#45;&gt;Node19</title>
<path fill="none" stroke="midnightblue" d="M617.371,-168.275C611.235,-159.607 602.542,-145.669 599,-132 594.933,-116.305 599.543,-98.2664 604.533,-85.1799"/>
<polygon fill="midnightblue" stroke="midnightblue" points="607.791,-86.4599 608.457,-75.886 601.343,-83.7367 607.791,-86.4599"/>
</g>
<!-- Node26&#45;&gt;Node21 -->
<g id="edge40" class="edge"><title>Node26&#45;&gt;Node21</title>
<path fill="none" stroke="midnightblue" d="M629.1,-168.368C639.78,-150.296 664.668,-108.176 678.773,-84.3074"/>
<polygon fill="midnightblue" stroke="midnightblue" points="681.849,-85.9813 683.923,-75.5914 675.823,-82.4201 681.849,-85.9813"/>
</g>
<!-- Node26&#45;&gt;Node24 -->
<g id="edge41" class="edge"><title>Node26&#45;&gt;Node24</title>
<path fill="none" stroke="midnightblue" d="M643.807,-168.444C664.287,-159.596 696.483,-145.687 719.865,-135.586"/>
<polygon fill="midnightblue" stroke="midnightblue" points="721.494,-138.695 729.286,-131.516 718.718,-132.269 721.494,-138.695"/>
</g>
<!-- Node27&#45;&gt;Node19 -->
<g id="edge45" class="edge"><title>Node27&#45;&gt;Node19</title>
<path fill="none" stroke="midnightblue" d="M423.133,-114.91C461.91,-105.125 538.102,-85.8996 581.245,-75.0129"/>
<polygon fill="midnightblue" stroke="midnightblue" points="582.364,-78.3404 591.203,-72.5001 580.651,-71.5532 582.364,-78.3404"/>
</g>
<!-- Node27&#45;&gt;Node22 -->
<g id="edge46" class="edge"><title>Node27&#45;&gt;Node22</title>
<path fill="none" stroke="midnightblue" d="M413.595,-112.368C445.649,-93.4121 522.435,-48.0006 561.425,-24.9424"/>
<polygon fill="midnightblue" stroke="midnightblue" points="563.647,-27.6945 570.473,-19.5914 560.084,-21.6693 563.647,-27.6945"/>
</g>
<!-- Node28&#45;&gt;Node4 -->
<g id="edge48" class="edge"><title>Node28&#45;&gt;Node4</title>
<path fill="none" stroke="midnightblue" d="M303.489,-280.368C298.302,-262.537 286.304,-221.295 279.315,-197.272"/>
<polygon fill="midnightblue" stroke="midnightblue" points="282.653,-196.216 276.499,-187.591 275.932,-198.171 282.653,-196.216"/>
</g>
<!-- Node29 -->
<g id="node30" class="node"><title>Node29</title>
<polygon fill="white" stroke="#bfbfbf" points="332,-224.5 332,-243.5 384,-243.5 384,-224.5 332,-224.5"/>
<text text-anchor="middle" x="358" y="-231.5" font-family="Helvetica,sans-Serif" font-size="10.00">stdarg.h</text>
</g>
<!-- Node28&#45;&gt;Node29 -->
<g id="edge49" class="edge"><title>Node28&#45;&gt;Node29</title>
<path fill="none" stroke="midnightblue" d="M314.587,-280.083C322.159,-272.22 333.378,-260.569 342.514,-251.081"/>
<polygon fill="midnightblue" stroke="midnightblue" points="345.158,-253.382 349.573,-243.751 340.115,-248.527 345.158,-253.382"/>
</g>
</g>
</svg>
