<?xml version="1.0" encoding="UTF-8" standalone="no"?>
<!DOCTYPE svg PUBLIC "-//W3C//DTD SVG 1.1//EN"
 "http://www.w3.org/Graphics/SVG/1.1/DTD/svg11.dtd">
<!-- Generated by graphviz version 2.38.0 (20140413.2041)
 -->
<!-- Title: PageContext::Private::Cachable Pages: 1 -->
<!--zoomable 263 -->
<svg id="main" version="1.1" xmlns="http://www.w3.org/2000/svg" xmlns:xlink="http://www.w3.org/1999/xlink" xml:space="preserve" onload="init(evt)">
<style type="text/css"><![CDATA[
.edge:hover path { stroke: red; }
.edge:hover polygon { stroke: red; fill: red; }
]]></style>
<script type="text/javascript"><![CDATA[
var edges = document.getElementsByTagName('g');
if (edges && edges.length) {
  for (var i=0;i<edges.length;i++) {
    if (edges[i].id.substr(0,4)=='edge') {
      edges[i].setAttribute('class','edge');
    }
  }
}
]]></script>
        <defs>
                <circle id="rim" cx="0" cy="0" r="7"/>
                <circle id="rim2" cx="0" cy="0" r="3.5"/>
                <g id="zoomPlus">
                        <use xlink:href="#rim" fill="#404040">
                                <set attributeName="fill" to="#808080" begin="zoomplus.mouseover" end="zoomplus.mouseout"/>
                        </use>
                        <path d="M-4,0h8M0,-4v8" fill="none" stroke="white" stroke-width="1.5" pointer-events="none"/>
                </g>
                <g id="zoomMin">
                        <use xlink:href="#rim" fill="#404040">
                                <set attributeName="fill" to="#808080" begin="zoomminus.mouseover" end="zoomminus.mouseout"/>
                        </use>
                        <path d="M-4,0h8" fill="none" stroke="white" stroke-width="1.5" pointer-events="none"/>
                </g>
                <g id="dirArrow">
                        <path fill="none" stroke="white" stroke-width="1.5" d="M0,-3.0v7 M-2.5,-0.5L0,-3.0L2.5,-0.5"/>
                </g>
               <g id="resetDef">
                       <use xlink:href="#rim2" fill="#404040">
                               <set attributeName="fill" to="#808080" begin="reset.mouseover" end="reset.mouseout"/>
                       </use>
               </g>
        </defs>

<script type="text/javascript">
var viewWidth = 923;
var viewHeight = 263;
var sectionId = 'dynsection-1';
</script>
<script xlink:href="../../svgpan.js"/>
<svg id="graph" class="graph">
<g id="viewport">
<title>PageContext::Private::Cachable</title>
<polygon fill="white" stroke="none" points="-4,4 -4,-259.256 919,-259.256 919,4 -4,4"/>
<!-- Node3 -->
<g id="node1" class="node"><title>Node3</title>
<polygon fill="#bfbfbf" stroke="black" points="805,-60.2556 805,-90.2556 915,-90.2556 915,-60.2556 805,-60.2556"/>
<text text-anchor="start" x="813" y="-78.2556" font-family="Helvetica,sans-Serif" font-size="10.00">PageContext::Private</text>
<text text-anchor="middle" x="860" y="-67.2556" font-family="Helvetica,sans-Serif" font-size="10.00">::Cachable</text>
</g>
<!-- Node4 -->
<g id="node2" class="node"><title>Node4</title>
<g id="a_node2"><a xlink:href="../../d9/d7b/struct_definition_context_1_1_cachable.html" target="_top" xlink:title="DefinitionContext\&lt;\l PageContext::Private\l \&gt;::Cachable">
<polygon fill="white" stroke="black" points="655,-109.756 655,-150.756 768,-150.756 768,-109.756 655,-109.756"/>
<text text-anchor="start" x="663" y="-138.756" font-family="Helvetica,sans-Serif" font-size="10.00">DefinitionContext&lt;</text>
<text text-anchor="start" x="663" y="-127.756" font-family="Helvetica,sans-Serif" font-size="10.00"> PageContext::Private</text>
<text text-anchor="middle" x="711.5" y="-116.756" font-family="Helvetica,sans-Serif" font-size="10.00"> &gt;::Cachable</text>
</a>
</g>
</g>
<!-- Node4&#45;&gt;Node3 -->
<g id="edge1" class="edge"><title>Node4&#45;&gt;Node3</title>
<path fill="none" stroke="midnightblue" d="M777.181,-105.973C791.349,-100.653 805.952,-95.1714 818.827,-90.3375"/>
<polygon fill="midnightblue" stroke="midnightblue" points="775.6,-102.828 767.468,-109.619 778.06,-109.381 775.6,-102.828"/>
</g>
<!-- Node5 -->
<g id="node3" class="node"><title>Node5</title>
<g id="a_node3"><a xlink:href="../../d1/d2f/struct_definition_1_1_cookie.html" target="_top" xlink:title="Definition::Cookie">
<polygon fill="white" stroke="black" points="443.5,-120.756 443.5,-139.756 538.5,-139.756 538.5,-120.756 443.5,-120.756"/>
<text text-anchor="middle" x="491" y="-127.756" font-family="Helvetica,sans-Serif" font-size="10.00">Definition::Cookie</text>
</a>
</g>
</g>
<!-- Node5&#45;&gt;Node4 -->
<g id="edge2" class="edge"><title>Node5&#45;&gt;Node4</title>
<path fill="none" stroke="midnightblue" d="M548.885,-130.256C581.491,-130.256 622.248,-130.256 654.675,-130.256"/>
<polygon fill="midnightblue" stroke="midnightblue" points="548.606,-126.756 538.606,-130.256 548.606,-133.756 548.606,-126.756"/>
</g>
<!-- Node6 -->
<g id="node4" class="node"><title>Node6</title>
<g id="a_node4"><a xlink:href="../../df/d12/class_shared_ptr.html" target="_top" xlink:title="SharedPtr\&lt; TemplateStruct \&gt;">
<polygon fill="white" stroke="black" points="418.5,-198.756 418.5,-217.756 563.5,-217.756 563.5,-198.756 418.5,-198.756"/>
<text text-anchor="middle" x="491" y="-205.756" font-family="Helvetica,sans-Serif" font-size="10.00">SharedPtr&lt; TemplateStruct &gt;</text>
</a>
</g>
</g>
<!-- Node6&#45;&gt;Node4 -->
<g id="edge3" class="edge"><title>Node6&#45;&gt;Node4</title>
<path fill="none" stroke="#9a32cd" stroke-dasharray="5,2" d="M570.943,-196.713C592.82,-192.094 616.248,-185.781 637,-177.256 653.392,-170.522 670.153,-160.126 683.522,-150.822"/>
<polygon fill="#9a32cd" stroke="#9a32cd" points="570.125,-193.308 561.016,-198.719 571.511,-200.169 570.125,-193.308"/>
<text text-anchor="middle" x="611" y="-206.256" font-family="Helvetica,sans-Serif" font-size="10.00"> lineLink</text>
<text text-anchor="middle" x="611" y="-195.256" font-family="Helvetica,sans-Serif" font-size="10.00">fileLink</text>
</g>
<!-- Node7 -->
<g id="node5" class="node"><title>Node7</title>
<g id="a_node5"><a xlink:href="../../d8/d4b/class_template_struct.html" target="_top" xlink:title="Default implementation of a context value of type struct. ">
<polygon fill="white" stroke="black" points="200.5,-229.756 200.5,-248.756 283.5,-248.756 283.5,-229.756 200.5,-229.756"/>
<text text-anchor="middle" x="242" y="-236.756" font-family="Helvetica,sans-Serif" font-size="10.00">TemplateStruct</text>
</a>
</g>
</g>
<!-- Node7&#45;&gt;Node6 -->
<g id="edge4" class="edge"><title>Node7&#45;&gt;Node6</title>
<path fill="none" stroke="#9a32cd" stroke-dasharray="5,2" d="M293.736,-232.888C329.59,-228.388 378.162,-222.292 418.014,-217.29"/>
<polygon fill="#9a32cd" stroke="#9a32cd" points="292.997,-229.453 283.51,-234.171 293.868,-236.399 292.997,-229.453"/>
<text text-anchor="middle" x="350.5" y="-233.256" font-family="Helvetica,sans-Serif" font-size="10.00"> m_ptr</text>
</g>
<!-- Node8 -->
<g id="node6" class="node"><title>Node8</title>
<g id="a_node6"><a xlink:href="../../d9/de8/class_template_struct_intf.html" target="_top" xlink:title="Abstract interface for a context value of type struct. ">
<polygon fill="white" stroke="black" points="11,-112.756 11,-131.756 109,-131.756 109,-112.756 11,-112.756"/>
<text text-anchor="middle" x="60" y="-119.756" font-family="Helvetica,sans-Serif" font-size="10.00">TemplateStructIntf</text>
</a>
</g>
</g>
<!-- Node8&#45;&gt;Node7 -->
<g id="edge5" class="edge"><title>Node8&#45;&gt;Node7</title>
<path fill="none" stroke="midnightblue" d="M115.334,-137.205C116.985,-138.449 118.549,-139.796 120,-141.256 138.732,-160.094 119.912,-178.798 138,-198.256 154.315,-215.806 179.122,-225.983 200.302,-231.807"/>
<polygon fill="midnightblue" stroke="midnightblue" points="116.826,-134.016 106.464,-131.807 113.187,-139.996 116.826,-134.016"/>
</g>
<!-- Node17 -->
<g id="node15" class="node"><title>Node17</title>
<g id="a_node15"><a xlink:href="../../d1/dba/class_template_variant.html" target="_top" xlink:title="Variant type which can hold one value of a fixed set of types. ">
<polygon fill="white" stroke="black" points="198,-15.7556 198,-34.7556 286,-34.7556 286,-15.7556 198,-15.7556"/>
<text text-anchor="middle" x="242" y="-22.7556" font-family="Helvetica,sans-Serif" font-size="10.00">TemplateVariant</text>
</a>
</g>
</g>
<!-- Node8&#45;&gt;Node17 -->
<g id="edge17" class="edge"><title>Node8&#45;&gt;Node17</title>
<path fill="none" stroke="#9a32cd" stroke-dasharray="5,2" d="M112.653,-108.212C115.238,-106.722 117.709,-105.075 120,-103.256 132.179,-93.5881 126.447,-83.6624 138,-73.2556 158.229,-55.0345 186.579,-42.5097 208.416,-34.8349"/>
<polygon fill="#9a32cd" stroke="#9a32cd" points="110.945,-105.152 103.514,-112.704 114.032,-111.434 110.945,-105.152"/>
<text text-anchor="middle" x="159" y="-76.2556" font-family="Helvetica,sans-Serif" font-size="10.00"> m_strukt</text>
</g>
<!-- Node9 -->
<g id="node7" class="node"><title>Node9</title>
<g id="a_node7"><a xlink:href="../../d5/d63/class_template_struct_1_1_private.html" target="_top" xlink:title="Private data of a template struct object. ">
<polygon fill="white" stroke="black" points="0,-235.756 0,-254.756 120,-254.756 120,-235.756 0,-235.756"/>
<text text-anchor="middle" x="60" y="-242.756" font-family="Helvetica,sans-Serif" font-size="10.00">TemplateStruct::Private</text>
</a>
</g>
</g>
<!-- Node9&#45;&gt;Node7 -->
<g id="edge6" class="edge"><title>Node9&#45;&gt;Node7</title>
<path fill="none" stroke="#9a32cd" stroke-dasharray="5,2" d="M130.749,-242.931C154.314,-242.145 179.834,-241.295 200.38,-240.61"/>
<polygon fill="#9a32cd" stroke="#9a32cd" points="130.315,-239.443 120.438,-243.274 130.549,-246.439 130.315,-239.443"/>
<text text-anchor="middle" x="159" y="-245.256" font-family="Helvetica,sans-Serif" font-size="10.00"> p</text>
</g>
<!-- Node10 -->
<g id="node8" class="node"><title>Node10</title>
<g id="a_node8"><a xlink:href="../../df/d12/class_shared_ptr.html" target="_top" xlink:title="Reference counting smart pointer. ">
<polygon fill="white" stroke="black" points="200,-176.756 200,-195.756 284,-195.756 284,-176.756 200,-176.756"/>
<text text-anchor="middle" x="242" y="-183.756" font-family="Helvetica,sans-Serif" font-size="10.00">SharedPtr&lt; T &gt;</text>
</a>
</g>
</g>
<!-- Node10&#45;&gt;Node6 -->
<g id="edge7" class="edge"><title>Node10&#45;&gt;Node6</title>
<path fill="none" stroke="orange" stroke-dasharray="5,2" d="M294.307,-190.825C330.2,-194.022 378.632,-198.336 418.333,-201.872"/>
<polygon fill="orange" stroke="orange" points="294.335,-187.314 284.064,-189.913 293.714,-194.287 294.335,-187.314"/>
<text text-anchor="middle" x="350.5" y="-202.256" font-family="Helvetica,sans-Serif" font-size="10.00"> &lt; TemplateStruct &gt;</text>
</g>
<!-- Node12 -->
<g id="node10" class="node"><title>Node12</title>
<g id="a_node10"><a xlink:href="../../df/d12/class_shared_ptr.html" target="_top" xlink:title="SharedPtr\&lt; TemplateList \&gt;">
<polygon fill="white" stroke="black" points="424,-158.756 424,-177.756 558,-177.756 558,-158.756 424,-158.756"/>
<text text-anchor="middle" x="491" y="-165.756" font-family="Helvetica,sans-Serif" font-size="10.00">SharedPtr&lt; TemplateList &gt;</text>
</a>
</g>
</g>
<!-- Node10&#45;&gt;Node12 -->
<g id="edge13" class="edge"><title>Node10&#45;&gt;Node12</title>
<path fill="none" stroke="orange" stroke-dasharray="5,2" d="M289.078,-174.637C294.089,-173.686 299.134,-172.86 304,-172.256 343.585,-167.34 388.265,-166.236 423.911,-166.41"/>
<polygon fill="orange" stroke="orange" points="287.996,-171.287 278.909,-176.734 289.41,-178.142 287.996,-171.287"/>
<text text-anchor="middle" x="350.5" y="-175.256" font-family="Helvetica,sans-Serif" font-size="10.00"> &lt; TemplateList &gt;</text>
</g>
<!-- Node11 -->
<g id="node9" class="node"><title>Node11</title>
<polygon fill="white" stroke="#bfbfbf" points="45.5,-74.7556 45.5,-93.7556 74.5,-93.7556 74.5,-74.7556 45.5,-74.7556"/>
<text text-anchor="middle" x="60" y="-81.7556" font-family="Helvetica,sans-Serif" font-size="10.00">T</text>
</g>
<!-- Node11&#45;&gt;Node10 -->
<g id="edge8" class="edge"><title>Node11&#45;&gt;Node10</title>
<path fill="none" stroke="#9a32cd" stroke-dasharray="5,2" d="M84.5229,-86.5973C96.6046,-88.9678 110.7,-93.7241 120,-103.256 139.74,-123.488 117.263,-145.047 138,-164.256 154.5,-179.539 178.922,-185.215 199.845,-186.987"/>
<polygon fill="#9a32cd" stroke="#9a32cd" points="85.0116,-83.1314 74.5953,-85.0683 83.946,-90.0498 85.0116,-83.1314"/>
<text text-anchor="middle" x="159" y="-186.256" font-family="Helvetica,sans-Serif" font-size="10.00"> m_ptr</text>
</g>
<!-- Node19 -->
<g id="node17" class="node"><title>Node19</title>
<g id="a_node17"><a xlink:href="../../dd/d9b/class_scoped_ptr.html" target="_top" xlink:title="Scoped smart pointer. ">
<polygon fill="white" stroke="black" points="199,-83.7556 199,-102.756 285,-102.756 285,-83.7556 199,-83.7556"/>
<text text-anchor="middle" x="242" y="-90.7556" font-family="Helvetica,sans-Serif" font-size="10.00">ScopedPtr&lt; T &gt;</text>
</a>
</g>
</g>
<!-- Node11&#45;&gt;Node19 -->
<g id="edge21" class="edge"><title>Node11&#45;&gt;Node19</title>
<path fill="none" stroke="#9a32cd" stroke-dasharray="5,2" d="M84.5566,-85.4335C113.566,-86.8839 163.365,-89.3739 198.988,-91.155"/>
<polygon fill="#9a32cd" stroke="#9a32cd" points="84.6916,-81.9359 74.5293,-84.9321 84.342,-88.9272 84.6916,-81.9359"/>
<text text-anchor="middle" x="159" y="-93.2556" font-family="Helvetica,sans-Serif" font-size="10.00"> m_ptr</text>
</g>
<!-- Node12&#45;&gt;Node4 -->
<g id="edge9" class="edge"><title>Node12&#45;&gt;Node4</title>
<path fill="none" stroke="#9a32cd" stroke-dasharray="5,2" d="M556.759,-156.993C587.945,-151.57 624.965,-145.131 654.863,-139.932"/>
<polygon fill="#9a32cd" stroke="#9a32cd" points="556.107,-153.554 546.855,-158.716 557.307,-160.45 556.107,-153.554"/>
<text text-anchor="middle" x="611" y="-165.256" font-family="Helvetica,sans-Serif" font-size="10.00"> navPath</text>
<text text-anchor="middle" x="611" y="-154.256" font-family="Helvetica,sans-Serif" font-size="10.00">sourceDef</text>
</g>
<!-- Node13 -->
<g id="node11" class="node"><title>Node13</title>
<g id="a_node11"><a xlink:href="../../de/dab/class_template_list.html" target="_top" xlink:title="Default implementation of a context value of type list. ">
<polygon fill="white" stroke="black" points="205.5,-127.756 205.5,-146.756 278.5,-146.756 278.5,-127.756 205.5,-127.756"/>
<text text-anchor="middle" x="242" y="-134.756" font-family="Helvetica,sans-Serif" font-size="10.00">TemplateList</text>
</a>
</g>
</g>
<!-- Node13&#45;&gt;Node12 -->
<g id="edge10" class="edge"><title>Node13&#45;&gt;Node12</title>
<path fill="none" stroke="#9a32cd" stroke-dasharray="5,2" d="M288.565,-140.315C319.282,-142.643 360.675,-146.295 397,-151.256 411.799,-153.277 427.828,-156.009 442.343,-158.692"/>
<polygon fill="#9a32cd" stroke="#9a32cd" points="288.81,-136.823 278.579,-139.576 288.294,-143.804 288.81,-136.823"/>
<text text-anchor="middle" x="350.5" y="-154.256" font-family="Helvetica,sans-Serif" font-size="10.00"> m_ptr</text>
</g>
<!-- Node14 -->
<g id="node12" class="node"><title>Node14</title>
<g id="a_node12"><a xlink:href="../../d6/d88/class_template_list_intf.html" target="_top" xlink:title="Abstract read&#45;only interface for a context value of type list. ">
<polygon fill="white" stroke="black" points="16.5,-21.7556 16.5,-40.7556 103.5,-40.7556 103.5,-21.7556 16.5,-21.7556"/>
<text text-anchor="middle" x="60" y="-28.7556" font-family="Helvetica,sans-Serif" font-size="10.00">TemplateListIntf</text>
</a>
</g>
</g>
<!-- Node14&#45;&gt;Node13 -->
<g id="edge11" class="edge"><title>Node14&#45;&gt;Node13</title>
<path fill="none" stroke="midnightblue" d="M94.0163,-45.5221C103.293,-50.7121 112.802,-57.2999 120,-65.2556 133.079,-79.7119 123.403,-92.334 138,-105.256 156.648,-121.763 183.72,-129.755 205.431,-133.625"/>
<polygon fill="midnightblue" stroke="midnightblue" points="95.3993,-42.2967 84.9108,-40.7991 92.1762,-48.5105 95.3993,-42.2967"/>
</g>
<!-- Node14&#45;&gt;Node17 -->
<g id="edge16" class="edge"><title>Node14&#45;&gt;Node17</title>
<path fill="none" stroke="#9a32cd" stroke-dasharray="5,2" d="M113.85,-27.4377C121.935,-26.9654 130.187,-26.547 138,-26.2556 157.657,-25.5225 179.439,-25.2348 197.889,-25.1451"/>
<polygon fill="#9a32cd" stroke="#9a32cd" points="113.51,-23.9519 103.744,-28.0593 113.94,-30.9387 113.51,-23.9519"/>
<text text-anchor="middle" x="159" y="-29.2556" font-family="Helvetica,sans-Serif" font-size="10.00"> m_list</text>
</g>
<!-- Node15 -->
<g id="node13" class="node"><title>Node15</title>
<g id="a_node13"><a xlink:href="../../d5/dee/class_template_list_1_1_private.html" target="_top" xlink:title="Private data of a template list object. ">
<polygon fill="white" stroke="black" points="5,-150.756 5,-169.756 115,-169.756 115,-150.756 5,-150.756"/>
<text text-anchor="middle" x="60" y="-157.756" font-family="Helvetica,sans-Serif" font-size="10.00">TemplateList::Private</text>
</a>
</g>
</g>
<!-- Node15&#45;&gt;Node13 -->
<g id="edge12" class="edge"><title>Node15&#45;&gt;Node13</title>
<path fill="none" stroke="#9a32cd" stroke-dasharray="5,2" d="M125.141,-152.06C152.074,-148.618 182.385,-144.745 205.246,-141.824"/>
<polygon fill="#9a32cd" stroke="#9a32cd" points="124.482,-148.616 115.006,-153.355 125.369,-155.559 124.482,-148.616"/>
<text text-anchor="middle" x="159" y="-152.256" font-family="Helvetica,sans-Serif" font-size="10.00"> p</text>
</g>
<!-- Node16 -->
<g id="node14" class="node"><title>Node16</title>
<g id="a_node14"><a xlink:href="../../dd/d9b/class_scoped_ptr.html" target="_top" xlink:title="ScopedPtr\&lt; TemplateVariant \&gt;">
<polygon fill="white" stroke="black" points="415,-58.7556 415,-77.7556 567,-77.7556 567,-58.7556 415,-58.7556"/>
<text text-anchor="middle" x="491" y="-65.7556" font-family="Helvetica,sans-Serif" font-size="10.00">ScopedPtr&lt; TemplateVariant &gt;</text>
</a>
</g>
</g>
<!-- Node16&#45;&gt;Node3 -->
<g id="edge22" class="edge"><title>Node16&#45;&gt;Node3</title>
<path fill="none" stroke="#9a32cd" stroke-dasharray="5,2" d="M577.304,-69.8827C647.492,-71.2214 744.849,-73.0784 804.791,-74.2217"/>
<polygon fill="#9a32cd" stroke="#9a32cd" points="577.218,-66.3805 567.154,-69.6891 577.085,-73.3792 577.218,-66.3805"/>
<text text-anchor="middle" x="711.5" y="-77.2556" font-family="Helvetica,sans-Serif" font-size="10.00"> example</text>
</g>
<!-- Node16&#45;&gt;Node4 -->
<g id="edge14" class="edge"><title>Node16&#45;&gt;Node4</title>
<path fill="none" stroke="#9a32cd" stroke-dasharray="5,2" d="M577.165,-78.6184C597.077,-82.2232 618.01,-86.9933 637,-93.2556 649.753,-97.4614 663.051,-103.567 674.773,-109.611"/>
<polygon fill="#9a32cd" stroke="#9a32cd" points="577.624,-75.1459 567.173,-76.8895 576.43,-82.0434 577.624,-75.1459"/>
<text text-anchor="middle" x="611" y="-118.256" font-family="Helvetica,sans-Serif" font-size="10.00"> brief</text>
<text text-anchor="middle" x="611" y="-107.256" font-family="Helvetica,sans-Serif" font-size="10.00">inbodyDocs</text>
<text text-anchor="middle" x="611" y="-96.2556" font-family="Helvetica,sans-Serif" font-size="10.00">details</text>
</g>
<!-- Node17&#45;&gt;Node16 -->
<g id="edge15" class="edge"><title>Node17&#45;&gt;Node16</title>
<path fill="none" stroke="#9a32cd" stroke-dasharray="5,2" d="M296.336,-35.8414C298.926,-36.3261 301.491,-36.7999 304,-37.2556 346.034,-44.8913 393.547,-52.7979 430.03,-58.7149"/>
<polygon fill="#9a32cd" stroke="#9a32cd" points="296.769,-32.3611 286.291,-33.9333 295.462,-39.2381 296.769,-32.3611"/>
<text text-anchor="middle" x="350.5" y="-56.2556" font-family="Helvetica,sans-Serif" font-size="10.00"> m_ptr</text>
</g>
<!-- Node18 -->
<g id="node16" class="node"><title>Node18</title>
<g id="a_node16"><a xlink:href="../../d7/d1d/class_template_variant_1_1_delegate.html" target="_top" xlink:title="Helper class to create a delegate that can store a function/method call. ">
<polygon fill="white" stroke="black" points="424.5,-5.75564 424.5,-24.7556 557.5,-24.7556 557.5,-5.75564 424.5,-5.75564"/>
<text text-anchor="middle" x="491" y="-12.7556" font-family="Helvetica,sans-Serif" font-size="10.00">TemplateVariant::Delegate</text>
</a>
</g>
</g>
<!-- Node17&#45;&gt;Node18 -->
<g id="edge19" class="edge"><title>Node17&#45;&gt;Node18</title>
<path fill="none" stroke="#9a32cd" stroke-dasharray="5,2" d="M274.732,-12.1091C284.004,-8.88031 294.265,-5.88441 304,-4.25564 348.028,3.11086 398.638,-0.661119 435.94,-5.70352"/>
<polygon fill="#9a32cd" stroke="#9a32cd" points="273.303,-8.90585 265.132,-15.6504 275.725,-15.4733 273.303,-8.90585"/>
<text text-anchor="middle" x="350.5" y="-7.25564" font-family="Helvetica,sans-Serif" font-size="10.00"> m_stubPtr</text>
</g>
<!-- Node18&#45;&gt;Node17 -->
<g id="edge18" class="edge"><title>Node18&#45;&gt;Node17</title>
<path fill="none" stroke="#9a32cd" stroke-dasharray="5,2" d="M414.044,-18.3308C371.994,-20.0332 321.266,-22.087 286.024,-23.5138"/>
<polygon fill="#9a32cd" stroke="#9a32cd" points="414.404,-21.8192 424.255,-17.9174 414.121,-14.8249 414.404,-21.8192"/>
<text text-anchor="middle" x="350.5" y="-26.2556" font-family="Helvetica,sans-Serif" font-size="10.00"> m_delegate</text>
</g>
<!-- Node19&#45;&gt;Node16 -->
<g id="edge20" class="edge"><title>Node19&#45;&gt;Node16</title>
<path fill="none" stroke="orange" stroke-dasharray="5,2" d="M295.542,-87.9376C330.162,-84.4336 376.041,-79.7899 414.541,-75.8932"/>
<polygon fill="orange" stroke="orange" points="294.777,-84.4971 285.18,-88.9864 295.482,-91.4615 294.777,-84.4971"/>
<text text-anchor="middle" x="350.5" y="-90.2556" font-family="Helvetica,sans-Serif" font-size="10.00"> &lt; TemplateVariant &gt;</text>
</g>
</g>
</svg>
        <g id="navigator" transform="translate(0 0)" fill="#404254">
                <rect fill="#f2f5e9" fill-opacity="0.5" stroke="#606060" stroke-width=".5" x="0" y="0" width="60" height="60"/>
                <use id="zoomplus" xlink:href="#zoomPlus" x="17" y="9" onmousedown="handleZoom(evt,'in')"/>
                <use id="zoomminus" xlink:href="#zoomMin" x="42" y="9" onmousedown="handleZoom(evt,'out')"/>
                <use id="reset" xlink:href="#resetDef" x="30" y="36" onmousedown="handleReset()"/>
                <g id="arrowUp" xlink:href="#dirArrow" transform="translate(30 24)" onmousedown="handlePan(0,-1)">
                  <use xlink:href="#rim" fill="#404040">
                        <set attributeName="fill" to="#808080" begin="arrowUp.mouseover" end="arrowUp.mouseout"/>
                  </use>
                  <path fill="none" stroke="white" stroke-width="1.5" d="M0,-3.0v7 M-2.5,-0.5L0,-3.0L2.5,-0.5"/>
                </g>
                <g id="arrowRight" xlink:href="#dirArrow" transform="rotate(90) translate(36 -43)" onmousedown="handlePan(1,0)">
                  <use xlink:href="#rim" fill="#404040">
                        <set attributeName="fill" to="#808080" begin="arrowRight.mouseover" end="arrowRight.mouseout"/>
                  </use>
                  <path fill="none" stroke="white" stroke-width="1.5" d="M0,-3.0v7 M-2.5,-0.5L0,-3.0L2.5,-0.5"/>
                </g>
                <g id="arrowDown" xlink:href="#dirArrow" transform="rotate(180) translate(-30 -48)" onmousedown="handlePan(0,1)">
                  <use xlink:href="#rim" fill="#404040">
                        <set attributeName="fill" to="#808080" begin="arrowDown.mouseover" end="arrowDown.mouseout"/>
                  </use>
                  <path fill="none" stroke="white" stroke-width="1.5" d="M0,-3.0v7 M-2.5,-0.5L0,-3.0L2.5,-0.5"/>
                </g>
                <g id="arrowLeft" xlink:href="#dirArrow" transform="rotate(270) translate(-36 17)" onmousedown="handlePan(-1,0)">
                  <use xlink:href="#rim" fill="#404040">
                        <set attributeName="fill" to="#808080" begin="arrowLeft.mouseover" end="arrowLeft.mouseout"/>
                  </use>
                  <path fill="none" stroke="white" stroke-width="1.5" d="M0,-3.0v7 M-2.5,-0.5L0,-3.0L2.5,-0.5"/>
                </g>
        </g>
        <svg viewBox="0 0 15 15" width="100%" height="30px" preserveAspectRatio="xMaxYMin meet">
         <g id="arrow_out" transform="scale(0.3 0.3)">
          <a xlink:href="struct_page_context_1_1_private_1_1_cachable__coll__graph_org.svg" target="_base">
           <rect id="button" ry="5" rx="5" y="6" x="6" height="38" width="38"
                fill="#f2f5e9" fill-opacity="0.5" stroke="#606060" stroke-width="1.0"/>
           <path id="arrow"
             d="M 11.500037,31.436501 C 11.940474,20.09759 22.043105,11.32322 32.158766,21.979434 L 37.068811,17.246167 C 37.068811,17.246167 37.088388,32 37.088388,32 L 22.160133,31.978069 C 22.160133,31.978069 26.997745,27.140456 26.997745,27.140456 C 18.528582,18.264221 13.291696,25.230495 11.500037,31.436501 z"
             style="fill:#404040;"/>
          </a>
         </g>
        </svg>
</svg>
