<?xml version="1.0" encoding="UTF-8" standalone="no"?>
<!DOCTYPE svg PUBLIC "-//W3C//DTD SVG 1.1//EN"
 "http://www.w3.org/Graphics/SVG/1.1/DTD/svg11.dtd">
<!-- Generated by graphviz version 2.38.0 (20140413.2041)
 -->
<!-- Title: LayoutParser::StartElementHandler Pages: 1 -->
<svg width="282pt" height="173pt"
 viewBox="0.00 0.00 282.00 173.00" xmlns="http://www.w3.org/2000/svg" xmlns:xlink="http://www.w3.org/1999/xlink">
<g id="graph0" class="graph" transform="scale(1 1) rotate(0) translate(4 169)">
<title>LayoutParser::StartElementHandler</title>
<polygon fill="white" stroke="none" points="-4,4 -4,-169 278,-169 278,4 -4,4"/>
<!-- Node5 -->
<g id="node1" class="node"><title>Node5</title>
<polygon fill="#bfbfbf" stroke="black" points="22,-0.5 22,-30.5 159,-30.5 159,-0.5 22,-0.5"/>
<text text-anchor="start" x="30" y="-18.5" font-family="Helvetica,sans-Serif" font-size="10.00">LayoutParser::StartElement</text>
<text text-anchor="middle" x="90.5" y="-7.5" font-family="Helvetica,sans-Serif" font-size="10.00">Handler</text>
</g>
<!-- Node6 -->
<g id="node2" class="node"><title>Node6</title>
<g id="a_node2"><a xlink:href="../../d3/de9/class_layout_parser.html" target="_top" xlink:title="LayoutParser">
<polygon fill="white" stroke="black" points="53.5,-78.5 53.5,-97.5 127.5,-97.5 127.5,-78.5 53.5,-78.5"/>
<text text-anchor="middle" x="90.5" y="-85.5" font-family="Helvetica,sans-Serif" font-size="10.00">LayoutParser</text>
</a>
</g>
</g>
<!-- Node6&#45;&gt;Node5 -->
<g id="edge1" class="edge"><title>Node6&#45;&gt;Node5</title>
<path fill="none" stroke="#9a32cd" stroke-dasharray="5,2" d="M90.5,-68.2362C90.5,-56.4079 90.5,-41.3829 90.5,-30.5762"/>
<polygon fill="#9a32cd" stroke="#9a32cd" points="87.0001,-68.3553 90.5,-78.3553 94.0001,-68.3554 87.0001,-68.3553"/>
<text text-anchor="middle" x="112.5" y="-52" font-family="Helvetica,sans-Serif" font-size="10.00"> m_parent</text>
</g>
<!-- Node7 -->
<g id="node3" class="node"><title>Node7</title>
<polygon fill="white" stroke="#bfbfbf" points="0,-145.5 0,-164.5 107,-164.5 107,-145.5 0,-145.5"/>
<text text-anchor="middle" x="53.5" y="-152.5" font-family="Helvetica,sans-Serif" font-size="10.00">QXmlDefaultHandler</text>
</g>
<!-- Node7&#45;&gt;Node6 -->
<g id="edge2" class="edge"><title>Node7&#45;&gt;Node6</title>
<path fill="none" stroke="midnightblue" d="M63.4418,-136.535C70.6055,-123.95 79.9651,-107.507 85.5891,-97.6273"/>
<polygon fill="midnightblue" stroke="midnightblue" points="60.3953,-134.812 58.49,-145.234 66.4788,-138.275 60.3953,-134.812"/>
</g>
<!-- Node8 -->
<g id="node4" class="node"><title>Node8</title>
<g id="a_node4"><a xlink:href="../../df/de7/struct_layout_nav_entry.html" target="_top" xlink:title="Base class for the layout of a navigation item at the top of the HTML pages. ">
<polygon fill="white" stroke="black" points="125,-145.5 125,-164.5 212,-164.5 212,-145.5 125,-145.5"/>
<text text-anchor="middle" x="168.5" y="-152.5" font-family="Helvetica,sans-Serif" font-size="10.00">LayoutNavEntry</text>
</a>
</g>
</g>
<!-- Node8&#45;&gt;Node6 -->
<g id="edge3" class="edge"><title>Node8&#45;&gt;Node6</title>
<path fill="none" stroke="#9a32cd" stroke-dasharray="5,2" d="M150.156,-138.713C134.788,-125.907 113.406,-108.088 100.853,-97.6273"/>
<polygon fill="#9a32cd" stroke="#9a32cd" points="148.058,-141.521 157.981,-145.234 152.539,-136.143 148.058,-141.521"/>
<text text-anchor="middle" x="159.5" y="-119" font-family="Helvetica,sans-Serif" font-size="10.00"> m_rootNav</text>
</g>
<!-- Node8&#45;&gt;Node8 -->
<g id="edge4" class="edge"><title>Node8&#45;&gt;Node8</title>
<path fill="none" stroke="#9a32cd" stroke-dasharray="5,2" d="M222.32,-159.714C227.043,-158.72 230,-157.148 230,-155 230,-151.562 222.43,-149.602 212.169,-149.119"/>
<polygon fill="#9a32cd" stroke="#9a32cd" points="221.704,-156.262 212.169,-160.881 222.504,-163.216 221.704,-156.262"/>
<text text-anchor="middle" x="252" y="-152.5" font-family="Helvetica,sans-Serif" font-size="10.00"> m_parent</text>
</g>
</g>
</svg>
