<?xml version="1.0" encoding="UTF-8" standalone="no"?>
<!DOCTYPE svg PUBLIC "-//W3C//DTD SVG 1.1//EN"
 "http://www.w3.org/Graphics/SVG/1.1/DTD/svg11.dtd">
<!-- Generated by graphviz version 2.38.0 (20140413.2041)
 -->
<!-- Title: src/outputgen.h Pages: 1 -->
<!--zoomable 140 -->
<svg id="main" version="1.1" xmlns="http://www.w3.org/2000/svg" xmlns:xlink="http://www.w3.org/1999/xlink" xml:space="preserve" onload="init(evt)">
<style type="text/css"><![CDATA[
.edge:hover path { stroke: red; }
.edge:hover polygon { stroke: red; fill: red; }
]]></style>
<script type="text/javascript"><![CDATA[
var edges = document.getElementsByTagName('g');
if (edges && edges.length) {
  for (var i=0;i<edges.length;i++) {
    if (edges[i].id.substr(0,4)=='edge') {
      edges[i].setAttribute('class','edge');
    }
  }
}
]]></script>
        <defs>
                <circle id="rim" cx="0" cy="0" r="7"/>
                <circle id="rim2" cx="0" cy="0" r="3.5"/>
                <g id="zoomPlus">
                        <use xlink:href="#rim" fill="#404040">
                                <set attributeName="fill" to="#808080" begin="zoomplus.mouseover" end="zoomplus.mouseout"/>
                        </use>
                        <path d="M-4,0h8M0,-4v8" fill="none" stroke="white" stroke-width="1.5" pointer-events="none"/>
                </g>
                <g id="zoomMin">
                        <use xlink:href="#rim" fill="#404040">
                                <set attributeName="fill" to="#808080" begin="zoomminus.mouseover" end="zoomminus.mouseout"/>
                        </use>
                        <path d="M-4,0h8" fill="none" stroke="white" stroke-width="1.5" pointer-events="none"/>
                </g>
                <g id="dirArrow">
                        <path fill="none" stroke="white" stroke-width="1.5" d="M0,-3.0v7 M-2.5,-0.5L0,-3.0L2.5,-0.5"/>
                </g>
               <g id="resetDef">
                       <use xlink:href="#rim2" fill="#404040">
                               <set attributeName="fill" to="#808080" begin="reset.mouseover" end="reset.mouseout"/>
                       </use>
               </g>
        </defs>

<script type="text/javascript">
var viewWidth = 3521;
var viewHeight = 140;
var sectionId = 'dynsection-1';
</script>
<script xlink:href="../../svgpan.js"/>
<svg id="graph" class="graph">
<g id="viewport">
<title>src/outputgen.h</title>
<polygon fill="white" stroke="none" points="-4,4 -4,-136 3517,-136 3517,4 -4,4"/>
<!-- Node14 -->
<g id="node1" class="node"><title>Node14</title>
<polygon fill="#bfbfbf" stroke="black" points="2458.5,-112.5 2458.5,-131.5 2542.5,-131.5 2542.5,-112.5 2458.5,-112.5"/>
<text text-anchor="middle" x="2500.5" y="-119.5" font-family="Helvetica,sans-Serif" font-size="10.00">src/outputgen.h</text>
</g>
<!-- Node15 -->
<g id="node2" class="node"><title>Node15</title>
<g id="a_node2"><a xlink:href="../../d2/db9/outputlist_8h.html" target="_top" xlink:title="src/outputlist.h">
<polygon fill="white" stroke="black" points="957,-56.5 957,-75.5 1038,-75.5 1038,-56.5 957,-56.5"/>
<text text-anchor="middle" x="997.5" y="-63.5" font-family="Helvetica,sans-Serif" font-size="10.00">src/outputlist.h</text>
</a>
</g>
</g>
<!-- Node14&#45;&gt;Node15 -->
<g id="edge1" class="edge"><title>Node14&#45;&gt;Node15</title>
<path fill="none" stroke="midnightblue" d="M2448.31,-119.125C2212.5,-110.653 1248.98,-76.0351 1038.32,-68.4664"/>
<polygon fill="midnightblue" stroke="midnightblue" points="2448.22,-122.624 2458.34,-119.485 2448.47,-115.628 2448.22,-122.624"/>
</g>
<!-- Node28 -->
<g id="node15" class="node"><title>Node28</title>
<g id="a_node15"><a xlink:href="../../db/dd8/outputlist_8cpp.html" target="_top" xlink:title="src/outputlist.cpp">
<polygon fill="white" stroke="black" points="1545.5,-0.5 1545.5,-19.5 1637.5,-19.5 1637.5,-0.5 1545.5,-0.5"/>
<text text-anchor="middle" x="1591.5" y="-7.5" font-family="Helvetica,sans-Serif" font-size="10.00">src/outputlist.cpp</text>
</a>
</g>
</g>
<!-- Node14&#45;&gt;Node28 -->
<g id="edge44" class="edge"><title>Node14&#45;&gt;Node28</title>
<path fill="none" stroke="midnightblue" d="M2448.32,-120.926C2335.41,-120.015 2060.26,-113.732 1833.5,-76 1753.04,-62.6117 1660.62,-33.9664 1616.92,-19.5953"/>
<polygon fill="midnightblue" stroke="midnightblue" points="2448.39,-124.427 2458.42,-120.997 2448.44,-117.427 2448.39,-124.427"/>
</g>
<!-- Node33 -->
<g id="node20" class="node"><title>Node33</title>
<g id="a_node20"><a xlink:href="../../d8/d56/htmlgen_8h.html" target="_top" xlink:title="src/htmlgen.h">
<polygon fill="white" stroke="black" points="1872.5,-56.5 1872.5,-75.5 1948.5,-75.5 1948.5,-56.5 1872.5,-56.5"/>
<text text-anchor="middle" x="1910.5" y="-63.5" font-family="Helvetica,sans-Serif" font-size="10.00">src/htmlgen.h</text>
</a>
</g>
</g>
<!-- Node14&#45;&gt;Node33 -->
<g id="edge19" class="edge"><title>Node14&#45;&gt;Node33</title>
<path fill="none" stroke="midnightblue" d="M2448.31,-118.528C2351.3,-113.522 2136.77,-100.522 1957.5,-76 1954.62,-75.6059 1951.65,-75.1514 1948.66,-74.6603"/>
<polygon fill="midnightblue" stroke="midnightblue" points="2448.27,-122.03 2458.43,-119.043 2448.63,-115.039 2448.27,-122.03"/>
</g>
<!-- Node36 -->
<g id="node23" class="node"><title>Node36</title>
<g id="a_node23"><a xlink:href="../../da/db0/htmldocvisitor_8cpp.html" target="_top" xlink:title="src/htmldocvisitor.cpp">
<polygon fill="white" stroke="black" points="1749,-0.5 1749,-19.5 1862,-19.5 1862,-0.5 1749,-0.5"/>
<text text-anchor="middle" x="1805.5" y="-7.5" font-family="Helvetica,sans-Serif" font-size="10.00">src/htmldocvisitor.cpp</text>
</a>
</g>
</g>
<!-- Node14&#45;&gt;Node36 -->
<g id="edge40" class="edge"><title>Node14&#45;&gt;Node36</title>
<path fill="none" stroke="midnightblue" d="M2447.77,-119.545C2304.5,-115.273 1915.32,-101.442 1863.5,-76 1837.98,-63.4692 1818.66,-34.2881 1810.2,-19.6697"/>
<polygon fill="midnightblue" stroke="midnightblue" points="2447.95,-123.051 2458.05,-119.847 2448.16,-116.054 2447.95,-123.051"/>
</g>
<!-- Node38 -->
<g id="node25" class="node"><title>Node38</title>
<g id="a_node25"><a xlink:href="../../d6/d9c/latexgen_8h.html" target="_top" xlink:title="src/latexgen.h">
<polygon fill="white" stroke="black" points="1966.5,-56.5 1966.5,-75.5 2044.5,-75.5 2044.5,-56.5 1966.5,-56.5"/>
<text text-anchor="middle" x="2005.5" y="-63.5" font-family="Helvetica,sans-Serif" font-size="10.00">src/latexgen.h</text>
</a>
</g>
</g>
<!-- Node14&#45;&gt;Node38 -->
<g id="edge26" class="edge"><title>Node14&#45;&gt;Node38</title>
<path fill="none" stroke="midnightblue" d="M2448.45,-117.204C2364.9,-110.787 2195.79,-96.4646 2053.5,-76 2050.65,-75.5896 2047.7,-75.1295 2044.75,-74.6401"/>
<polygon fill="midnightblue" stroke="midnightblue" points="2448.21,-120.696 2458.45,-117.966 2448.74,-113.717 2448.21,-120.696"/>
</g>
<!-- Node40 -->
<g id="node27" class="node"><title>Node40</title>
<g id="a_node27"><a xlink:href="../../d3/d17/defgen_8cpp.html" target="_top" xlink:title="src/defgen.cpp">
<polygon fill="white" stroke="black" points="2063,-56.5 2063,-75.5 2144,-75.5 2144,-56.5 2063,-56.5"/>
<text text-anchor="middle" x="2103.5" y="-63.5" font-family="Helvetica,sans-Serif" font-size="10.00">src/defgen.cpp</text>
</a>
</g>
</g>
<!-- Node14&#45;&gt;Node40 -->
<g id="edge30" class="edge"><title>Node14&#45;&gt;Node40</title>
<path fill="none" stroke="midnightblue" d="M2448.45,-115.058C2380.48,-107.114 2257.85,-92.1482 2153.5,-76 2150.45,-75.5279 2147.3,-75.0167 2144.13,-74.4858"/>
<polygon fill="midnightblue" stroke="midnightblue" points="2448.14,-118.546 2458.48,-116.226 2448.95,-111.593 2448.14,-118.546"/>
</g>
<!-- Node41 -->
<g id="node28" class="node"><title>Node41</title>
<g id="a_node28"><a xlink:href="../../d8/d29/docbookgen_8cpp.html" target="_top" xlink:title="src/docbookgen.cpp">
<polygon fill="white" stroke="black" points="2162.5,-56.5 2162.5,-75.5 2266.5,-75.5 2266.5,-56.5 2162.5,-56.5"/>
<text text-anchor="middle" x="2214.5" y="-63.5" font-family="Helvetica,sans-Serif" font-size="10.00">src/docbookgen.cpp</text>
</a>
</g>
</g>
<!-- Node14&#45;&gt;Node41 -->
<g id="edge31" class="edge"><title>Node14&#45;&gt;Node41</title>
<path fill="none" stroke="midnightblue" d="M2448.25,-111.134C2394.28,-100.945 2310.93,-85.2072 2259.71,-75.536"/>
<polygon fill="midnightblue" stroke="midnightblue" points="2447.82,-114.616 2458.3,-113.032 2449.12,-107.737 2447.82,-114.616"/>
</g>
<!-- Node42 -->
<g id="node29" class="node"><title>Node42</title>
<g id="a_node29"><a xlink:href="../../dc/d05/docbookvisitor_8cpp.html" target="_top" xlink:title="src/docbookvisitor.cpp">
<polygon fill="white" stroke="black" points="2285,-56.5 2285,-75.5 2400,-75.5 2400,-56.5 2285,-56.5"/>
<text text-anchor="middle" x="2342.5" y="-63.5" font-family="Helvetica,sans-Serif" font-size="10.00">src/docbookvisitor.cpp</text>
</a>
</g>
</g>
<!-- Node14&#45;&gt;Node42 -->
<g id="edge32" class="edge"><title>Node14&#45;&gt;Node42</title>
<path fill="none" stroke="midnightblue" d="M2465.89,-109.172C2436.14,-99.0039 2393.95,-84.5852 2367.42,-75.5164"/>
<polygon fill="midnightblue" stroke="midnightblue" points="2464.87,-112.521 2475.46,-112.444 2467.13,-105.898 2464.87,-112.521"/>
</g>
<!-- Node43 -->
<g id="node30" class="node"><title>Node43</title>
<g id="a_node30"><a xlink:href="../../da/dc0/mangen_8h.html" target="_top" xlink:title="src/mangen.h">
<polygon fill="white" stroke="black" points="2418.5,-56.5 2418.5,-75.5 2494.5,-75.5 2494.5,-56.5 2418.5,-56.5"/>
<text text-anchor="middle" x="2456.5" y="-63.5" font-family="Helvetica,sans-Serif" font-size="10.00">src/mangen.h</text>
</a>
</g>
</g>
<!-- Node14&#45;&gt;Node43 -->
<g id="edge33" class="edge"><title>Node14&#45;&gt;Node43</title>
<path fill="none" stroke="midnightblue" d="M2486.77,-104.144C2479.1,-94.7357 2469.87,-83.4046 2463.63,-75.7511"/>
<polygon fill="midnightblue" stroke="midnightblue" points="2484.2,-106.541 2493.23,-112.083 2489.63,-102.12 2484.2,-106.541"/>
</g>
<!-- Node45 -->
<g id="node32" class="node"><title>Node45</title>
<g id="a_node32"><a xlink:href="../../d4/daa/rtfgen_8h.html" target="_top" xlink:title="src/rtfgen.h">
<polygon fill="white" stroke="black" points="2512.5,-56.5 2512.5,-75.5 2578.5,-75.5 2578.5,-56.5 2512.5,-56.5"/>
<text text-anchor="middle" x="2545.5" y="-63.5" font-family="Helvetica,sans-Serif" font-size="10.00">src/rtfgen.h</text>
</a>
</g>
</g>
<!-- Node14&#45;&gt;Node45 -->
<g id="edge36" class="edge"><title>Node14&#45;&gt;Node45</title>
<path fill="none" stroke="midnightblue" d="M2514.55,-104.144C2522.39,-94.7357 2531.83,-83.4046 2538.21,-75.7511"/>
<polygon fill="midnightblue" stroke="midnightblue" points="2511.64,-102.16 2507.93,-112.083 2517.02,-106.641 2511.64,-102.16"/>
</g>
<!-- Node47 -->
<g id="node34" class="node"><title>Node47</title>
<g id="a_node34"><a xlink:href="../../d9/d74/fileparser_8cpp.html" target="_top" xlink:title="src/fileparser.cpp">
<polygon fill="white" stroke="black" points="2596.5,-56.5 2596.5,-75.5 2688.5,-75.5 2688.5,-56.5 2596.5,-56.5"/>
<text text-anchor="middle" x="2642.5" y="-63.5" font-family="Helvetica,sans-Serif" font-size="10.00">src/fileparser.cpp</text>
</a>
</g>
</g>
<!-- Node14&#45;&gt;Node47 -->
<g id="edge39" class="edge"><title>Node14&#45;&gt;Node47</title>
<path fill="none" stroke="midnightblue" d="M2532.66,-108.772C2559.33,-98.6287 2596.57,-84.4669 2620.1,-75.5164"/>
<polygon fill="midnightblue" stroke="midnightblue" points="2531.1,-105.618 2523,-112.444 2533.59,-112.16 2531.1,-105.618"/>
</g>
<!-- Node48 -->
<g id="node35" class="node"><title>Node48</title>
<g id="a_node35"><a xlink:href="../../d1/d4e/latexdocvisitor_8cpp.html" target="_top" xlink:title="src/latexdocvisitor.cpp">
<polygon fill="white" stroke="black" points="2707,-56.5 2707,-75.5 2822,-75.5 2822,-56.5 2707,-56.5"/>
<text text-anchor="middle" x="2764.5" y="-63.5" font-family="Helvetica,sans-Serif" font-size="10.00">src/latexdocvisitor.cpp</text>
</a>
</g>
</g>
<!-- Node14&#45;&gt;Node48 -->
<g id="edge41" class="edge"><title>Node14&#45;&gt;Node48</title>
<path fill="none" stroke="midnightblue" d="M2552.28,-110.41C2602.17,-100.204 2676.7,-84.9597 2722.86,-75.5164"/>
<polygon fill="midnightblue" stroke="midnightblue" points="2551.43,-107.01 2542.33,-112.444 2552.83,-113.869 2551.43,-107.01"/>
</g>
<!-- Node49 -->
<g id="node36" class="node"><title>Node49</title>
<g id="a_node36"><a xlink:href="../../d8/dde/mandocvisitor_8cpp.html" target="_top" xlink:title="src/mandocvisitor.cpp">
<polygon fill="white" stroke="black" points="2840,-56.5 2840,-75.5 2953,-75.5 2953,-56.5 2840,-56.5"/>
<text text-anchor="middle" x="2896.5" y="-63.5" font-family="Helvetica,sans-Serif" font-size="10.00">src/mandocvisitor.cpp</text>
</a>
</g>
</g>
<!-- Node14&#45;&gt;Node49 -->
<g id="edge42" class="edge"><title>Node14&#45;&gt;Node49</title>
<path fill="none" stroke="midnightblue" d="M2552.59,-113.958C2617.8,-105.134 2732.92,-89.5254 2831.5,-76 2834.21,-75.6283 2836.98,-75.2473 2839.78,-74.8618"/>
<polygon fill="midnightblue" stroke="midnightblue" points="2552.01,-110.506 2542.57,-115.315 2552.95,-117.442 2552.01,-110.506"/>
</g>
<!-- Node50 -->
<g id="node37" class="node"><title>Node50</title>
<g id="a_node37"><a xlink:href="../../d0/d17/outputgen_8cpp.html" target="_top" xlink:title="src/outputgen.cpp">
<polygon fill="white" stroke="black" points="2971,-56.5 2971,-75.5 3066,-75.5 3066,-56.5 2971,-56.5"/>
<text text-anchor="middle" x="3018.5" y="-63.5" font-family="Helvetica,sans-Serif" font-size="10.00">src/outputgen.cpp</text>
</a>
</g>
</g>
<!-- Node14&#45;&gt;Node50 -->
<g id="edge43" class="edge"><title>Node14&#45;&gt;Node50</title>
<path fill="none" stroke="midnightblue" d="M2552.64,-116.986C2638.34,-110.15 2814.27,-95.1118 2962.5,-76 2965.23,-75.6474 2968.04,-75.2643 2970.87,-74.8616"/>
<polygon fill="midnightblue" stroke="midnightblue" points="2552.33,-113.499 2542.64,-117.779 2552.89,-120.477 2552.33,-113.499"/>
</g>
<!-- Node51 -->
<g id="node38" class="node"><title>Node51</title>
<g id="a_node38"><a xlink:href="../../de/d9a/rtfdocvisitor_8cpp.html" target="_top" xlink:title="src/rtfdocvisitor.cpp">
<polygon fill="white" stroke="black" points="3084,-56.5 3084,-75.5 3187,-75.5 3187,-56.5 3084,-56.5"/>
<text text-anchor="middle" x="3135.5" y="-63.5" font-family="Helvetica,sans-Serif" font-size="10.00">src/rtfdocvisitor.cpp</text>
</a>
</g>
</g>
<!-- Node14&#45;&gt;Node51 -->
<g id="edge45" class="edge"><title>Node14&#45;&gt;Node51</title>
<path fill="none" stroke="midnightblue" d="M2553.07,-118.135C2654.36,-112.338 2883.57,-97.8777 3075.5,-76 3078.22,-75.6898 3081.01,-75.3499 3083.82,-74.9893"/>
<polygon fill="midnightblue" stroke="midnightblue" points="2552.59,-114.657 2542.8,-118.718 2552.98,-121.645 2552.59,-114.657"/>
</g>
<!-- Node52 -->
<g id="node39" class="node"><title>Node52</title>
<g id="a_node39"><a xlink:href="../../d7/d56/tooltip_8cpp.html" target="_top" xlink:title="src/tooltip.cpp">
<polygon fill="white" stroke="black" points="3205.5,-56.5 3205.5,-75.5 3283.5,-75.5 3283.5,-56.5 3205.5,-56.5"/>
<text text-anchor="middle" x="3244.5" y="-63.5" font-family="Helvetica,sans-Serif" font-size="10.00">src/tooltip.cpp</text>
</a>
</g>
</g>
<!-- Node14&#45;&gt;Node52 -->
<g id="edge46" class="edge"><title>Node14&#45;&gt;Node52</title>
<path fill="none" stroke="midnightblue" d="M2552.68,-119.779C2668.78,-116.59 2957.13,-106.067 3196.5,-76 3199.36,-75.6407 3202.31,-75.2181 3205.27,-74.7554"/>
<polygon fill="midnightblue" stroke="midnightblue" points="2552.54,-116.281 2542.64,-120.048 2552.73,-123.278 2552.54,-116.281"/>
</g>
<!-- Node53 -->
<g id="node40" class="node"><title>Node53</title>
<g id="a_node40"><a xlink:href="../../dd/db6/xmldocvisitor_8cpp.html" target="_top" xlink:title="src/xmldocvisitor.cpp">
<polygon fill="white" stroke="black" points="3301.5,-56.5 3301.5,-75.5 3411.5,-75.5 3411.5,-56.5 3301.5,-56.5"/>
<text text-anchor="middle" x="3356.5" y="-63.5" font-family="Helvetica,sans-Serif" font-size="10.00">src/xmldocvisitor.cpp</text>
</a>
</g>
</g>
<!-- Node14&#45;&gt;Node53 -->
<g id="edge47" class="edge"><title>Node14&#45;&gt;Node53</title>
<path fill="none" stroke="midnightblue" d="M2552.89,-119.526C2679.95,-115.625 3014.55,-103.392 3292.5,-76 3295.4,-75.7139 3298.38,-75.3931 3301.38,-75.0475"/>
<polygon fill="midnightblue" stroke="midnightblue" points="2552.56,-116.035 2542.67,-119.836 2552.77,-123.031 2552.56,-116.035"/>
</g>
<!-- Node54 -->
<g id="node41" class="node"><title>Node54</title>
<g id="a_node41"><a xlink:href="../../d0/dc3/xmlgen_8cpp.html" target="_top" xlink:title="src/xmlgen.cpp">
<polygon fill="white" stroke="black" points="3430,-56.5 3430,-75.5 3513,-75.5 3513,-56.5 3430,-56.5"/>
<text text-anchor="middle" x="3471.5" y="-63.5" font-family="Helvetica,sans-Serif" font-size="10.00">src/xmlgen.cpp</text>
</a>
</g>
</g>
<!-- Node14&#45;&gt;Node54 -->
<g id="edge48" class="edge"><title>Node14&#45;&gt;Node54</title>
<path fill="none" stroke="midnightblue" d="M2552.92,-120.74C2693.73,-119.545 3091.82,-112.891 3420.5,-76 3423.54,-75.659 3426.67,-75.2499 3429.81,-74.7967"/>
<polygon fill="midnightblue" stroke="midnightblue" points="2552.81,-117.241 2542.83,-120.82 2552.86,-124.241 2552.81,-117.241"/>
</g>
<!-- Node16 -->
<g id="node3" class="node"><title>Node16</title>
<g id="a_node3"><a xlink:href="../../de/d89/classdef_8cpp.html" target="_top" xlink:title="src/classdef.cpp">
<polygon fill="white" stroke="black" points="1333,-0.5 1333,-19.5 1422,-19.5 1422,-0.5 1333,-0.5"/>
<text text-anchor="middle" x="1377.5" y="-7.5" font-family="Helvetica,sans-Serif" font-size="10.00">src/classdef.cpp</text>
</a>
</g>
</g>
<!-- Node15&#45;&gt;Node16 -->
<g id="edge2" class="edge"><title>Node15&#45;&gt;Node16</title>
<path fill="none" stroke="midnightblue" d="M1048.46,-58.4139C1112.68,-50.0123 1226.39,-34.7918 1323.5,-20 1326.51,-19.542 1329.61,-19.0579 1332.73,-18.5613"/>
<polygon fill="midnightblue" stroke="midnightblue" points="1047.67,-54.9872 1038.21,-59.7524 1048.58,-61.9283 1047.67,-54.9872"/>
</g>
<!-- Node17 -->
<g id="node4" class="node"><title>Node17</title>
<g id="a_node4"><a xlink:href="../../d6/d10/classlist_8cpp.html" target="_top" xlink:title="src/classlist.cpp">
<polygon fill="white" stroke="black" points="1439.5,-0.5 1439.5,-19.5 1527.5,-19.5 1527.5,-0.5 1439.5,-0.5"/>
<text text-anchor="middle" x="1483.5" y="-7.5" font-family="Helvetica,sans-Serif" font-size="10.00">src/classlist.cpp</text>
</a>
</g>
</g>
<!-- Node15&#45;&gt;Node17 -->
<g id="edge3" class="edge"><title>Node15&#45;&gt;Node17</title>
<path fill="none" stroke="midnightblue" d="M1048.62,-60.7655C1129.75,-53.8027 1292.9,-38.8125 1430.5,-20 1433.37,-19.6081 1436.32,-19.1791 1439.29,-18.7278"/>
<polygon fill="midnightblue" stroke="midnightblue" points="1047.87,-57.3172 1038.2,-61.6545 1048.46,-64.2919 1047.87,-57.3172"/>
</g>
<!-- Node18 -->
<g id="node5" class="node"><title>Node18</title>
<g id="a_node5"><a xlink:href="../../d3/dea/definition_8cpp.html" target="_top" xlink:title="src/definition.cpp">
<polygon fill="white" stroke="black" points="0,-0.5 0,-19.5 91,-19.5 91,-0.5 0,-0.5"/>
<text text-anchor="middle" x="45.5" y="-7.5" font-family="Helvetica,sans-Serif" font-size="10.00">src/definition.cpp</text>
</a>
</g>
</g>
<!-- Node15&#45;&gt;Node18 -->
<g id="edge4" class="edge"><title>Node15&#45;&gt;Node18</title>
<path fill="none" stroke="midnightblue" d="M946.49,-64.4403C809.321,-62.5035 421.232,-54.178 100.5,-20 97.4212,-19.6719 94.2528,-19.2852 91.0652,-18.8597"/>
<polygon fill="midnightblue" stroke="midnightblue" points="946.648,-67.9427 956.695,-64.579 946.743,-60.9433 946.648,-67.9427"/>
</g>
<!-- Node19 -->
<g id="node6" class="node"><title>Node19</title>
<g id="a_node6"><a xlink:href="../../d8/d52/dirdef_8cpp.html" target="_top" xlink:title="src/dirdef.cpp">
<polygon fill="white" stroke="black" points="109.5,-0.5 109.5,-19.5 185.5,-19.5 185.5,-0.5 109.5,-0.5"/>
<text text-anchor="middle" x="147.5" y="-7.5" font-family="Helvetica,sans-Serif" font-size="10.00">src/dirdef.cpp</text>
</a>
</g>
</g>
<!-- Node15&#45;&gt;Node19 -->
<g id="edge5" class="edge"><title>Node15&#45;&gt;Node19</title>
<path fill="none" stroke="midnightblue" d="M946.585,-64.496C819.311,-62.7268 477.225,-54.8339 194.5,-20 191.614,-19.6444 188.639,-19.2179 185.652,-18.7463"/>
<polygon fill="midnightblue" stroke="midnightblue" points="946.758,-67.9985 956.804,-64.6312 946.851,-60.9991 946.758,-67.9985"/>
</g>
<!-- Node20 -->
<g id="node7" class="node"><title>Node20</title>
<g id="a_node7"><a xlink:href="../../dc/d98/doxygen_8cpp.html" target="_top" xlink:title="src/doxygen.cpp">
<polygon fill="white" stroke="black" points="2185,-0.5 2185,-19.5 2274,-19.5 2274,-0.5 2185,-0.5"/>
<text text-anchor="middle" x="2229.5" y="-7.5" font-family="Helvetica,sans-Serif" font-size="10.00">src/doxygen.cpp</text>
</a>
</g>
</g>
<!-- Node15&#45;&gt;Node20 -->
<g id="edge6" class="edge"><title>Node15&#45;&gt;Node20</title>
<path fill="none" stroke="midnightblue" d="M1048.37,-65.416C1212.34,-66.2536 1741.62,-65.0295 2176.5,-20 2179.19,-19.7212 2181.95,-19.3901 2184.74,-19.0221"/>
<polygon fill="midnightblue" stroke="midnightblue" points="1048.12,-61.9147 1038.1,-65.3583 1048.08,-68.9146 1048.12,-61.9147"/>
</g>
<!-- Node21 -->
<g id="node8" class="node"><title>Node21</title>
<g id="a_node8"><a xlink:href="../../d6/ddc/filedef_8cpp.html" target="_top" xlink:title="src/filedef.cpp">
<polygon fill="white" stroke="black" points="203.5,-0.5 203.5,-19.5 281.5,-19.5 281.5,-0.5 203.5,-0.5"/>
<text text-anchor="middle" x="242.5" y="-7.5" font-family="Helvetica,sans-Serif" font-size="10.00">src/filedef.cpp</text>
</a>
</g>
</g>
<!-- Node15&#45;&gt;Node21 -->
<g id="edge7" class="edge"><title>Node15&#45;&gt;Node21</title>
<path fill="none" stroke="midnightblue" d="M946.634,-63.886C830.129,-60.8711 535.13,-50.6037 290.5,-20 287.64,-19.6422 284.692,-19.2206 281.732,-18.7586"/>
<polygon fill="midnightblue" stroke="midnightblue" points="946.604,-67.3862 956.689,-64.1395 946.781,-60.3885 946.604,-67.3862"/>
</g>
<!-- Node22 -->
<g id="node9" class="node"><title>Node22</title>
<g id="a_node9"><a xlink:href="../../d6/d42/groupdef_8cpp.html" target="_top" xlink:title="src/groupdef.cpp">
<polygon fill="white" stroke="black" points="300,-0.5 300,-19.5 389,-19.5 389,-0.5 300,-0.5"/>
<text text-anchor="middle" x="344.5" y="-7.5" font-family="Helvetica,sans-Serif" font-size="10.00">src/groupdef.cpp</text>
</a>
</g>
</g>
<!-- Node15&#45;&gt;Node22 -->
<g id="edge8" class="edge"><title>Node15&#45;&gt;Node22</title>
<path fill="none" stroke="midnightblue" d="M946.827,-62.7989C843.316,-57.9506 600.247,-44.7626 397.5,-20 394.813,-19.6719 392.055,-19.3026 389.276,-18.9057"/>
<polygon fill="midnightblue" stroke="midnightblue" points="946.84,-66.3032 956.991,-63.2691 947.163,-59.3106 946.84,-66.3032"/>
</g>
<!-- Node23 -->
<g id="node10" class="node"><title>Node23</title>
<g id="a_node10"><a xlink:href="../../db/d14/index_8cpp.html" target="_top" xlink:title="This file contains functions for the various index pages. ">
<polygon fill="white" stroke="black" points="1656,-0.5 1656,-19.5 1731,-19.5 1731,-0.5 1656,-0.5"/>
<text text-anchor="middle" x="1693.5" y="-7.5" font-family="Helvetica,sans-Serif" font-size="10.00">src/index.cpp</text>
</a>
</g>
</g>
<!-- Node15&#45;&gt;Node23 -->
<g id="edge9" class="edge"><title>Node15&#45;&gt;Node23</title>
<path fill="none" stroke="midnightblue" d="M1048.42,-63.5472C1158.14,-59.9613 1424.88,-48.7961 1646.5,-20 1649.55,-19.6039 1652.7,-19.1343 1655.85,-18.6207"/>
<polygon fill="midnightblue" stroke="midnightblue" points="1048.18,-60.0529 1038.3,-63.8709 1048.4,-67.0493 1048.18,-60.0529"/>
</g>
<!-- Node24 -->
<g id="node11" class="node"><title>Node24</title>
<g id="a_node11"><a xlink:href="../../d0/d72/memberdef_8cpp.html" target="_top" xlink:title="src/memberdef.cpp">
<polygon fill="white" stroke="black" points="407,-0.5 407,-19.5 508,-19.5 508,-0.5 407,-0.5"/>
<text text-anchor="middle" x="457.5" y="-7.5" font-family="Helvetica,sans-Serif" font-size="10.00">src/memberdef.cpp</text>
</a>
</g>
</g>
<!-- Node15&#45;&gt;Node24 -->
<g id="edge10" class="edge"><title>Node15&#45;&gt;Node24</title>
<path fill="none" stroke="midnightblue" d="M946.651,-61.2195C858.777,-54.4682 672.886,-39.2267 516.5,-20 513.723,-19.6586 510.876,-19.2891 508.004,-18.9013"/>
<polygon fill="midnightblue" stroke="midnightblue" points="946.635,-64.7285 956.873,-62.0005 947.169,-57.7488 946.635,-64.7285"/>
</g>
<!-- Node25 -->
<g id="node12" class="node"><title>Node25</title>
<g id="a_node12"><a xlink:href="../../d6/d18/membergroup_8cpp.html" target="_top" xlink:title="src/membergroup.cpp">
<polygon fill="white" stroke="black" points="526,-0.5 526,-19.5 637,-19.5 637,-0.5 526,-0.5"/>
<text text-anchor="middle" x="581.5" y="-7.5" font-family="Helvetica,sans-Serif" font-size="10.00">src/membergroup.cpp</text>
</a>
</g>
</g>
<!-- Node15&#45;&gt;Node25 -->
<g id="edge11" class="edge"><title>Node15&#45;&gt;Node25</title>
<path fill="none" stroke="midnightblue" d="M946.899,-58.6753C878.663,-50.1089 753.37,-34.2489 646.5,-20 643.451,-19.5935 640.322,-19.1726 637.164,-18.7449"/>
<polygon fill="midnightblue" stroke="midnightblue" points="946.589,-62.1637 956.947,-59.9356 947.46,-55.2181 946.589,-62.1637"/>
</g>
<!-- Node26 -->
<g id="node13" class="node"><title>Node26</title>
<g id="a_node13"><a xlink:href="../../d0/d14/memberlist_8cpp.html" target="_top" xlink:title="src/memberlist.cpp">
<polygon fill="white" stroke="black" points="655.5,-0.5 655.5,-19.5 755.5,-19.5 755.5,-0.5 655.5,-0.5"/>
<text text-anchor="middle" x="705.5" y="-7.5" font-family="Helvetica,sans-Serif" font-size="10.00">src/memberlist.cpp</text>
</a>
</g>
</g>
<!-- Node15&#45;&gt;Node26 -->
<g id="edge12" class="edge"><title>Node15&#45;&gt;Node26</title>
<path fill="none" stroke="midnightblue" d="M947.016,-55.6639C891.996,-45.489 804.726,-29.35 751.527,-19.5118"/>
<polygon fill="midnightblue" stroke="midnightblue" points="946.429,-59.1146 956.899,-57.4915 947.702,-52.2313 946.429,-59.1146"/>
</g>
<!-- Node27 -->
<g id="node14" class="node"><title>Node27</title>
<g id="a_node14"><a xlink:href="../../d7/d1c/namespacedef_8cpp.html" target="_top" xlink:title="src/namespacedef.cpp">
<polygon fill="white" stroke="black" points="773.5,-0.5 773.5,-19.5 889.5,-19.5 889.5,-0.5 773.5,-0.5"/>
<text text-anchor="middle" x="831.5" y="-7.5" font-family="Helvetica,sans-Serif" font-size="10.00">src/namespacedef.cpp</text>
</a>
</g>
</g>
<!-- Node15&#45;&gt;Node27 -->
<g id="edge13" class="edge"><title>Node15&#45;&gt;Node27</title>
<path fill="none" stroke="midnightblue" d="M961.547,-53.3044C930.268,-43.1294 885.679,-28.6246 857.68,-19.5164"/>
<polygon fill="midnightblue" stroke="midnightblue" points="960.605,-56.6783 971.197,-56.4435 962.77,-50.0217 960.605,-56.6783"/>
</g>
<!-- Node15&#45;&gt;Node28 -->
<g id="edge14" class="edge"><title>Node15&#45;&gt;Node28</title>
<path fill="none" stroke="midnightblue" d="M1048.45,-62.0906C1144.27,-56.3215 1357.74,-42.0528 1536.5,-20 1539.38,-19.6446 1542.34,-19.2489 1545.32,-18.8272"/>
<polygon fill="midnightblue" stroke="midnightblue" points="1047.96,-58.614 1038.18,-62.7035 1048.37,-65.6016 1047.96,-58.614"/>
</g>
<!-- Node29 -->
<g id="node16" class="node"><title>Node29</title>
<g id="a_node16"><a xlink:href="../../d9/db4/pagedef_8cpp.html" target="_top" xlink:title="src/pagedef.cpp">
<polygon fill="white" stroke="black" points="907.5,-0.5 907.5,-19.5 993.5,-19.5 993.5,-0.5 907.5,-0.5"/>
<text text-anchor="middle" x="950.5" y="-7.5" font-family="Helvetica,sans-Serif" font-size="10.00">src/pagedef.cpp</text>
</a>
</g>
</g>
<!-- Node15&#45;&gt;Node29 -->
<g id="edge15" class="edge"><title>Node15&#45;&gt;Node29</title>
<path fill="none" stroke="midnightblue" d="M983.079,-48.4314C974.842,-38.9673 964.846,-27.4827 958.117,-19.7511"/>
<polygon fill="midnightblue" stroke="midnightblue" points="980.534,-50.8378 989.739,-56.083 985.814,-46.2421 980.534,-50.8378"/>
</g>
<!-- Node30 -->
<g id="node17" class="node"><title>Node30</title>
<g id="a_node17"><a xlink:href="../../df/d2d/util_8cpp.html" target="_top" xlink:title="src/util.cpp">
<polygon fill="white" stroke="black" points="1012,-0.5 1012,-19.5 1077,-19.5 1077,-0.5 1012,-0.5"/>
<text text-anchor="middle" x="1044.5" y="-7.5" font-family="Helvetica,sans-Serif" font-size="10.00">src/util.cpp</text>
</a>
</g>
</g>
<!-- Node15&#45;&gt;Node30 -->
<g id="edge16" class="edge"><title>Node15&#45;&gt;Node30</title>
<path fill="none" stroke="midnightblue" d="M1011.92,-48.4314C1020.16,-38.9673 1030.15,-27.4827 1036.88,-19.7511"/>
<polygon fill="midnightblue" stroke="midnightblue" points="1009.19,-46.2421 1005.26,-56.083 1014.47,-50.8378 1009.19,-46.2421"/>
</g>
<!-- Node31 -->
<g id="node18" class="node"><title>Node31</title>
<g id="a_node18"><a xlink:href="../../de/dea/vhdldocgen_8cpp.html" target="_top" xlink:title="src/vhdldocgen.cpp">
<polygon fill="white" stroke="black" points="1095,-0.5 1095,-19.5 1196,-19.5 1196,-0.5 1095,-0.5"/>
<text text-anchor="middle" x="1145.5" y="-7.5" font-family="Helvetica,sans-Serif" font-size="10.00">src/vhdldocgen.cpp</text>
</a>
</g>
</g>
<!-- Node15&#45;&gt;Node31 -->
<g id="edge17" class="edge"><title>Node15&#45;&gt;Node31</title>
<path fill="none" stroke="midnightblue" d="M1030.65,-52.9058C1058.47,-42.7536 1097.52,-28.5063 1122.16,-19.5164"/>
<polygon fill="midnightblue" stroke="midnightblue" points="1029.15,-49.7279 1020.95,-56.4435 1031.54,-56.3038 1029.15,-49.7279"/>
</g>
<!-- Node32 -->
<g id="node19" class="node"><title>Node32</title>
<g id="a_node19"><a xlink:href="../../d1/d86/vhdljjparser_8cpp.html" target="_top" xlink:title="src/vhdljjparser.cpp">
<polygon fill="white" stroke="black" points="1214,-0.5 1214,-19.5 1315,-19.5 1315,-0.5 1214,-0.5"/>
<text text-anchor="middle" x="1264.5" y="-7.5" font-family="Helvetica,sans-Serif" font-size="10.00">src/vhdljjparser.cpp</text>
</a>
</g>
</g>
<!-- Node15&#45;&gt;Node32 -->
<g id="edge18" class="edge"><title>Node15&#45;&gt;Node32</title>
<path fill="none" stroke="midnightblue" d="M1048.08,-54.7707C1098.48,-44.5775 1174.98,-29.1044 1222.24,-19.5467"/>
<polygon fill="midnightblue" stroke="midnightblue" points="1047.16,-51.3856 1038.05,-56.7986 1048.55,-58.2467 1047.16,-51.3856"/>
</g>
<!-- Node33&#45;&gt;Node20 -->
<g id="edge21" class="edge"><title>Node33&#45;&gt;Node20</title>
<path fill="none" stroke="midnightblue" d="M1958.7,-55.8227C2056.28,-38.5496 2082.34,-35.733 2176.5,-20 2179.26,-19.5385 2182.1,-19.0616 2184.97,-18.5793"/>
<polygon fill="midnightblue" stroke="midnightblue" points="1957.94,-52.4024 1948.7,-57.5974 1959.16,-59.2945 1957.94,-52.4024"/>
</g>
<!-- Node33&#45;&gt;Node23 -->
<g id="edge25" class="edge"><title>Node33&#45;&gt;Node23</title>
<path fill="none" stroke="midnightblue" d="M1866.39,-54.0237C1825.4,-43.8232 1765.2,-28.8414 1727.72,-19.5164"/>
<polygon fill="midnightblue" stroke="midnightblue" points="1865.57,-57.425 1876.12,-56.4435 1867.26,-50.6322 1865.57,-57.425"/>
</g>
<!-- Node34 -->
<g id="node21" class="node"><title>Node34</title>
<g id="a_node21"><a xlink:href="../../db/d12/context_8cpp.html" target="_top" xlink:title="src/context.cpp">
<polygon fill="white" stroke="black" points="2083.5,-0.5 2083.5,-19.5 2167.5,-19.5 2167.5,-0.5 2083.5,-0.5"/>
<text text-anchor="middle" x="2125.5" y="-7.5" font-family="Helvetica,sans-Serif" font-size="10.00">src/context.cpp</text>
</a>
</g>
</g>
<!-- Node33&#45;&gt;Node34 -->
<g id="edge20" class="edge"><title>Node33&#45;&gt;Node34</title>
<path fill="none" stroke="midnightblue" d="M1954.46,-53.959C1995.07,-43.7598 2054.54,-28.8217 2091.59,-19.5164"/>
<polygon fill="midnightblue" stroke="midnightblue" points="1953.41,-50.6129 1944.57,-56.4435 1955.12,-57.4021 1953.41,-50.6129"/>
</g>
<!-- Node35 -->
<g id="node22" class="node"><title>Node35</title>
<g id="a_node22"><a xlink:href="../../db/d41/ftvhelp_8cpp.html" target="_top" xlink:title="src/ftvhelp.cpp">
<polygon fill="white" stroke="black" points="1880,-0.5 1880,-19.5 1961,-19.5 1961,-0.5 1880,-0.5"/>
<text text-anchor="middle" x="1920.5" y="-7.5" font-family="Helvetica,sans-Serif" font-size="10.00">src/ftvhelp.cpp</text>
</a>
</g>
</g>
<!-- Node33&#45;&gt;Node35 -->
<g id="edge22" class="edge"><title>Node33&#45;&gt;Node35</title>
<path fill="none" stroke="midnightblue" d="M1914,-46.1005C1915.66,-37.1357 1917.56,-26.8579 1918.88,-19.7511"/>
<polygon fill="midnightblue" stroke="midnightblue" points="1910.53,-45.6128 1912.15,-56.083 1917.41,-46.8875 1910.53,-45.6128"/>
</g>
<!-- Node33&#45;&gt;Node36 -->
<g id="edge23" class="edge"><title>Node33&#45;&gt;Node36</title>
<path fill="none" stroke="midnightblue" d="M1884.69,-51.7261C1865.25,-41.7271 1839.15,-28.3065 1822.33,-19.6545"/>
<polygon fill="midnightblue" stroke="midnightblue" points="1883.14,-54.8629 1893.63,-56.324 1886.34,-48.6379 1883.14,-54.8629"/>
</g>
<!-- Node37 -->
<g id="node24" class="node"><title>Node37</title>
<g id="a_node24"><a xlink:href="../../d8/d6e/htmlgen_8cpp.html" target="_top" xlink:title="src/htmlgen.cpp">
<polygon fill="white" stroke="black" points="1979.5,-0.5 1979.5,-19.5 2065.5,-19.5 2065.5,-0.5 1979.5,-0.5"/>
<text text-anchor="middle" x="2022.5" y="-7.5" font-family="Helvetica,sans-Serif" font-size="10.00">src/htmlgen.cpp</text>
</a>
</g>
</g>
<!-- Node33&#45;&gt;Node37 -->
<g id="edge24" class="edge"><title>Node33&#45;&gt;Node37</title>
<path fill="none" stroke="midnightblue" d="M1937.75,-51.8622C1958.52,-41.8492 1986.52,-28.3458 2004.55,-19.6545"/>
<polygon fill="midnightblue" stroke="midnightblue" points="1935.98,-48.8282 1928.49,-56.324 1939.02,-55.1336 1935.98,-48.8282"/>
</g>
<!-- Node38&#45;&gt;Node20 -->
<g id="edge28" class="edge"><title>Node38&#45;&gt;Node20</title>
<path fill="none" stroke="midnightblue" d="M2050.76,-54.0884C2093.08,-43.8865 2155.41,-28.8612 2194.17,-19.5164"/>
<polygon fill="midnightblue" stroke="midnightblue" points="2049.89,-50.6974 2040.99,-56.4435 2051.54,-57.5024 2049.89,-50.6974"/>
</g>
<!-- Node38&#45;&gt;Node34 -->
<g id="edge27" class="edge"><title>Node38&#45;&gt;Node34</title>
<path fill="none" stroke="midnightblue" d="M2033.87,-52.2321C2056.32,-42.1312 2087.04,-28.3091 2106.57,-19.5164"/>
<polygon fill="midnightblue" stroke="midnightblue" points="2032.2,-49.1481 2024.51,-56.4435 2035.07,-55.5316 2032.2,-49.1481"/>
</g>
<!-- Node39 -->
<g id="node26" class="node"><title>Node39</title>
<g id="a_node26"><a xlink:href="../../d4/d42/latexgen_8cpp.html" target="_top" xlink:title="src/latexgen.cpp">
<polygon fill="white" stroke="black" points="2292,-0.5 2292,-19.5 2381,-19.5 2381,-0.5 2292,-0.5"/>
<text text-anchor="middle" x="2336.5" y="-7.5" font-family="Helvetica,sans-Serif" font-size="10.00">src/latexgen.cpp</text>
</a>
</g>
</g>
<!-- Node38&#45;&gt;Node39 -->
<g id="edge29" class="edge"><title>Node38&#45;&gt;Node39</title>
<path fill="none" stroke="midnightblue" d="M2054.63,-55.8455C2156.72,-38.3634 2183.98,-35.9543 2282.5,-20 2285.5,-19.5138 2288.6,-19.0086 2291.72,-18.4966"/>
<polygon fill="midnightblue" stroke="midnightblue" points="2053.78,-52.4411 2044.52,-57.5853 2054.96,-59.3399 2053.78,-52.4411"/>
</g>
<!-- Node43&#45;&gt;Node20 -->
<g id="edge34" class="edge"><title>Node43&#45;&gt;Node20</title>
<path fill="none" stroke="midnightblue" d="M2410.63,-54.0884C2367.75,-43.8865 2304.58,-28.8612 2265.3,-19.5164"/>
<polygon fill="midnightblue" stroke="midnightblue" points="2409.99,-57.5342 2420.53,-56.4435 2411.61,-50.7242 2409.99,-57.5342"/>
</g>
<!-- Node44 -->
<g id="node31" class="node"><title>Node44</title>
<g id="a_node31"><a xlink:href="../../d7/de7/mangen_8cpp.html" target="_top" xlink:title="src/mangen.cpp">
<polygon fill="white" stroke="black" points="2408.5,-0.5 2408.5,-19.5 2494.5,-19.5 2494.5,-0.5 2408.5,-0.5"/>
<text text-anchor="middle" x="2451.5" y="-7.5" font-family="Helvetica,sans-Serif" font-size="10.00">src/mangen.cpp</text>
</a>
</g>
</g>
<!-- Node43&#45;&gt;Node44 -->
<g id="edge35" class="edge"><title>Node43&#45;&gt;Node44</title>
<path fill="none" stroke="midnightblue" d="M2454.75,-46.1005C2453.92,-37.1357 2452.97,-26.8579 2452.31,-19.7511"/>
<polygon fill="midnightblue" stroke="midnightblue" points="2451.27,-46.4483 2455.67,-56.083 2458.24,-45.8029 2451.27,-46.4483"/>
</g>
<!-- Node45&#45;&gt;Node20 -->
<g id="edge37" class="edge"><title>Node45&#45;&gt;Node20</title>
<path fill="none" stroke="midnightblue" d="M2502.07,-55.7969C2404.46,-37.5046 2378.1,-35.6239 2283.5,-20 2280.5,-19.5044 2277.4,-18.9921 2274.29,-18.475"/>
<polygon fill="midnightblue" stroke="midnightblue" points="2501.58,-59.2675 2512.06,-57.68 2502.88,-52.3886 2501.58,-59.2675"/>
</g>
<!-- Node46 -->
<g id="node33" class="node"><title>Node46</title>
<g id="a_node33"><a xlink:href="../../d0/d9c/rtfgen_8cpp.html" target="_top" xlink:title="src/rtfgen.cpp">
<polygon fill="white" stroke="black" points="2513,-0.5 2513,-19.5 2590,-19.5 2590,-0.5 2513,-0.5"/>
<text text-anchor="middle" x="2551.5" y="-7.5" font-family="Helvetica,sans-Serif" font-size="10.00">src/rtfgen.cpp</text>
</a>
</g>
</g>
<!-- Node45&#45;&gt;Node46 -->
<g id="edge38" class="edge"><title>Node45&#45;&gt;Node46</title>
<path fill="none" stroke="midnightblue" d="M2547.6,-46.1005C2548.6,-37.1357 2549.74,-26.8579 2550.53,-19.7511"/>
<polygon fill="midnightblue" stroke="midnightblue" points="2544.12,-45.7576 2546.49,-56.083 2551.07,-46.5307 2544.12,-45.7576"/>
</g>
</g>
</svg>
        <g id="navigator" transform="translate(0 0)" fill="#404254">
                <rect fill="#f2f5e9" fill-opacity="0.5" stroke="#606060" stroke-width=".5" x="0" y="0" width="60" height="60"/>
                <use id="zoomplus" xlink:href="#zoomPlus" x="17" y="9" onmousedown="handleZoom(evt,'in')"/>
                <use id="zoomminus" xlink:href="#zoomMin" x="42" y="9" onmousedown="handleZoom(evt,'out')"/>
                <use id="reset" xlink:href="#resetDef" x="30" y="36" onmousedown="handleReset()"/>
                <g id="arrowUp" xlink:href="#dirArrow" transform="translate(30 24)" onmousedown="handlePan(0,-1)">
                  <use xlink:href="#rim" fill="#404040">
                        <set attributeName="fill" to="#808080" begin="arrowUp.mouseover" end="arrowUp.mouseout"/>
                  </use>
                  <path fill="none" stroke="white" stroke-width="1.5" d="M0,-3.0v7 M-2.5,-0.5L0,-3.0L2.5,-0.5"/>
                </g>
                <g id="arrowRight" xlink:href="#dirArrow" transform="rotate(90) translate(36 -43)" onmousedown="handlePan(1,0)">
                  <use xlink:href="#rim" fill="#404040">
                        <set attributeName="fill" to="#808080" begin="arrowRight.mouseover" end="arrowRight.mouseout"/>
                  </use>
                  <path fill="none" stroke="white" stroke-width="1.5" d="M0,-3.0v7 M-2.5,-0.5L0,-3.0L2.5,-0.5"/>
                </g>
                <g id="arrowDown" xlink:href="#dirArrow" transform="rotate(180) translate(-30 -48)" onmousedown="handlePan(0,1)">
                  <use xlink:href="#rim" fill="#404040">
                        <set attributeName="fill" to="#808080" begin="arrowDown.mouseover" end="arrowDown.mouseout"/>
                  </use>
                  <path fill="none" stroke="white" stroke-width="1.5" d="M0,-3.0v7 M-2.5,-0.5L0,-3.0L2.5,-0.5"/>
                </g>
                <g id="arrowLeft" xlink:href="#dirArrow" transform="rotate(270) translate(-36 17)" onmousedown="handlePan(-1,0)">
                  <use xlink:href="#rim" fill="#404040">
                        <set attributeName="fill" to="#808080" begin="arrowLeft.mouseover" end="arrowLeft.mouseout"/>
                  </use>
                  <path fill="none" stroke="white" stroke-width="1.5" d="M0,-3.0v7 M-2.5,-0.5L0,-3.0L2.5,-0.5"/>
                </g>
        </g>
        <svg viewBox="0 0 15 15" width="100%" height="30px" preserveAspectRatio="xMaxYMin meet">
         <g id="arrow_out" transform="scale(0.3 0.3)">
          <a xlink:href="outputgen_8h__dep__incl_org.svg" target="_base">
           <rect id="button" ry="5" rx="5" y="6" x="6" height="38" width="38"
                fill="#f2f5e9" fill-opacity="0.5" stroke="#606060" stroke-width="1.0"/>
           <path id="arrow"
             d="M 11.500037,31.436501 C 11.940474,20.09759 22.043105,11.32322 32.158766,21.979434 L 37.068811,17.246167 C 37.068811,17.246167 37.088388,32 37.088388,32 L 22.160133,31.978069 C 22.160133,31.978069 26.997745,27.140456 26.997745,27.140456 C 18.528582,18.264221 13.291696,25.230495 11.500037,31.436501 z"
             style="fill:#404040;"/>
          </a>
         </g>
        </svg>
</svg>
