<?xml version="1.0" encoding="UTF-8" standalone="no"?>
<!DOCTYPE svg PUBLIC "-//W3C//DTD SVG 1.1//EN"
 "http://www.w3.org/Graphics/SVG/1.1/DTD/svg11.dtd">
<!-- Generated by graphviz version 2.38.0 (20140413.2041)
 -->
<!-- Title: TranslateContext Pages: 1 -->
<svg width="398pt" height="251pt"
 viewBox="0.00 0.00 398.00 251.00" xmlns="http://www.w3.org/2000/svg" xmlns:xlink="http://www.w3.org/1999/xlink">
<g id="graph0" class="graph" transform="scale(1 1) rotate(0) translate(4 247)">
<title>TranslateContext</title>
<polygon fill="white" stroke="none" points="-4,4 -4,-247 394,-247 394,4 -4,4"/>
<!-- Node3 -->
<g id="node1" class="node"><title>Node3</title>
<polygon fill="#bfbfbf" stroke="black" points="125,-0.5 125,-19.5 217,-19.5 217,-0.5 125,-0.5"/>
<text text-anchor="middle" x="171" y="-7.5" font-family="Helvetica,sans-Serif" font-size="10.00">TranslateContext</text>
</g>
<!-- Node4 -->
<g id="node2" class="node"><title>Node4</title>
<g id="a_node2"><a xlink:href="../../d8/d96/class_ref_counted_context.html" target="_top" xlink:title="Helper class to support reference counting. ">
<polygon fill="white" stroke="black" points="0,-67.5 0,-86.5 104,-86.5 104,-67.5 0,-67.5"/>
<text text-anchor="middle" x="52" y="-74.5" font-family="Helvetica,sans-Serif" font-size="10.00">RefCountedContext</text>
</a>
</g>
</g>
<!-- Node4&#45;&gt;Node3 -->
<g id="edge1" class="edge"><title>Node4&#45;&gt;Node3</title>
<path fill="none" stroke="midnightblue" d="M77.105,-62.2872C100.69,-49.4047 135.256,-30.5243 155.205,-19.6273"/>
<polygon fill="midnightblue" stroke="midnightblue" points="75.1472,-59.3684 68.0489,-67.2338 78.5028,-65.5117 75.1472,-59.3684"/>
</g>
<!-- Node5 -->
<g id="node3" class="node"><title>Node5</title>
<g id="a_node3"><a xlink:href="../../d9/de8/class_template_struct_intf.html" target="_top" xlink:title="Abstract interface for a context value of type struct. ">
<polygon fill="white" stroke="black" points="122,-67.5 122,-86.5 220,-86.5 220,-67.5 122,-67.5"/>
<text text-anchor="middle" x="171" y="-74.5" font-family="Helvetica,sans-Serif" font-size="10.00">TemplateStructIntf</text>
</a>
</g>
</g>
<!-- Node5&#45;&gt;Node3 -->
<g id="edge2" class="edge"><title>Node5&#45;&gt;Node3</title>
<path fill="none" stroke="midnightblue" d="M171,-57.037C171,-44.6703 171,-29.1198 171,-19.6273"/>
<polygon fill="midnightblue" stroke="midnightblue" points="167.5,-57.2338 171,-67.2338 174.5,-57.2338 167.5,-57.2338"/>
</g>
<!-- Node6 -->
<g id="node4" class="node"><title>Node6</title>
<g id="a_node4"><a xlink:href="../../dc/dc5/class_translate_context_1_1_private.html" target="_top" xlink:title="TranslateContext::Private">
<polygon fill="white" stroke="black" points="238,-67.5 238,-86.5 366,-86.5 366,-67.5 238,-67.5"/>
<text text-anchor="middle" x="302" y="-74.5" font-family="Helvetica,sans-Serif" font-size="10.00">TranslateContext::Private</text>
</a>
</g>
</g>
<!-- Node6&#45;&gt;Node3 -->
<g id="edge3" class="edge"><title>Node6&#45;&gt;Node3</title>
<path fill="none" stroke="#9a32cd" stroke-dasharray="5,2" d="M275.344,-62.7739C249.398,-49.8999 210.72,-30.7086 188.468,-19.6672"/>
<polygon fill="#9a32cd" stroke="#9a32cd" points="274.091,-66.059 284.604,-67.3685 277.202,-59.7884 274.091,-66.059"/>
<text text-anchor="middle" x="248.5" y="-41" font-family="Helvetica,sans-Serif" font-size="10.00"> p</text>
</g>
<!-- Node7 -->
<g id="node5" class="node"><title>Node7</title>
<g id="a_node5"><a xlink:href="../../d1/d80/class_property_mapper.html" target="_top" xlink:title="PropertyMapper\&lt; Translate\lContext::Private \&gt;">
<polygon fill="white" stroke="black" points="234.5,-134.5 234.5,-164.5 369.5,-164.5 369.5,-134.5 234.5,-134.5"/>
<text text-anchor="start" x="242.5" y="-152.5" font-family="Helvetica,sans-Serif" font-size="10.00">PropertyMapper&lt; Translate</text>
<text text-anchor="middle" x="302" y="-141.5" font-family="Helvetica,sans-Serif" font-size="10.00">Context::Private &gt;</text>
</a>
</g>
</g>
<!-- Node7&#45;&gt;Node6 -->
<g id="edge4" class="edge"><title>Node7&#45;&gt;Node6</title>
<path fill="none" stroke="#9a32cd" stroke-dasharray="5,2" d="M302,-124.091C302,-111.214 302,-96.1974 302,-86.8932"/>
<polygon fill="#9a32cd" stroke="#9a32cd" points="298.5,-124.233 302,-134.233 305.5,-124.233 298.5,-124.233"/>
<text text-anchor="middle" x="317" y="-108" font-family="Helvetica,sans-Serif" font-size="10.00"> s_inst</text>
</g>
<!-- Node8 -->
<g id="node6" class="node"><title>Node8</title>
<g id="a_node6"><a xlink:href="../../d1/d80/class_property_mapper.html" target="_top" xlink:title="Helper class to map a property name to a handler member function. ">
<polygon fill="white" stroke="black" points="247,-223.5 247,-242.5 357,-242.5 357,-223.5 247,-223.5"/>
<text text-anchor="middle" x="302" y="-230.5" font-family="Helvetica,sans-Serif" font-size="10.00">PropertyMapper&lt; T &gt;</text>
</a>
</g>
</g>
<!-- Node8&#45;&gt;Node7 -->
<g id="edge5" class="edge"><title>Node8&#45;&gt;Node7</title>
<path fill="none" stroke="orange" stroke-dasharray="5,2" d="M302,-213.229C302,-198.408 302,-178.051 302,-164.597"/>
<polygon fill="orange" stroke="orange" points="298.5,-213.278 302,-223.278 305.5,-213.278 298.5,-213.278"/>
<text text-anchor="start" x="302" y="-197" font-family="Helvetica,sans-Serif" font-size="10.00"> &lt; TranslateContext</text>
<text text-anchor="middle" x="346" y="-186" font-family="Helvetica,sans-Serif" font-size="10.00">::Private &gt;</text>
</g>
</g>
</svg>
