<?xml version="1.0" encoding="UTF-8" standalone="no"?>
<!DOCTYPE svg PUBLIC "-//W3C//DTD SVG 1.1//EN"
 "http://www.w3.org/Graphics/SVG/1.1/DTD/svg11.dtd">
<!-- Generated by graphviz version 2.38.0 (20140413.2041)
 -->
<!-- Title: src/markdown.h Pages: 1 -->
<svg width="220pt" height="196pt"
 viewBox="0.00 0.00 219.50 196.00" xmlns="http://www.w3.org/2000/svg" xmlns:xlink="http://www.w3.org/1999/xlink">
<g id="graph0" class="graph" transform="scale(1 1) rotate(0) translate(4 192)">
<title>src/markdown.h</title>
<polygon fill="white" stroke="none" points="-4,4 -4,-192 215.5,-192 215.5,4 -4,4"/>
<!-- Node0 -->
<g id="node1" class="node"><title>Node0</title>
<polygon fill="#bfbfbf" stroke="black" points="0,-168.5 0,-187.5 86,-187.5 86,-168.5 0,-168.5"/>
<text text-anchor="middle" x="43" y="-175.5" font-family="Helvetica,sans-Serif" font-size="10.00">src/markdown.h</text>
</g>
<!-- Node1 -->
<g id="node2" class="node"><title>Node1</title>
<polygon fill="white" stroke="#bfbfbf" points="62.5,-0.5 62.5,-19.5 121.5,-19.5 121.5,-0.5 62.5,-0.5"/>
<text text-anchor="middle" x="92" y="-7.5" font-family="Helvetica,sans-Serif" font-size="10.00">qcstring.h</text>
</g>
<!-- Node0&#45;&gt;Node1 -->
<g id="edge1" class="edge"><title>Node0&#45;&gt;Node1</title>
<path fill="none" stroke="midnightblue" d="M37.3549,-168.469C24.4505,-147.801 -4.49027,-93.9559 17,-56 25.3466,-41.2584 40.662,-30.8192 55.2871,-23.7321"/>
<polygon fill="midnightblue" stroke="midnightblue" points="56.9971,-26.8025 64.7181,-19.5474 54.158,-20.4041 56.9971,-26.8025"/>
</g>
<!-- Node2 -->
<g id="node3" class="node"><title>Node2</title>
<g id="a_node3"><a xlink:href="../../da/d55/parserintf_8h.html" target="_top" xlink:title="parserintf.h">
<polygon fill="white" stroke="black" points="55.5,-112.5 55.5,-131.5 120.5,-131.5 120.5,-112.5 55.5,-112.5"/>
<text text-anchor="middle" x="88" y="-119.5" font-family="Helvetica,sans-Serif" font-size="10.00">parserintf.h</text>
</a>
</g>
</g>
<!-- Node0&#45;&gt;Node2 -->
<g id="edge2" class="edge"><title>Node0&#45;&gt;Node2</title>
<path fill="none" stroke="midnightblue" d="M50.4308,-168.083C56.8527,-160.377 66.3056,-149.033 74.1225,-139.653"/>
<polygon fill="midnightblue" stroke="midnightblue" points="76.9943,-141.674 80.7074,-131.751 71.6168,-137.193 76.9943,-141.674"/>
</g>
<!-- Node3 -->
<g id="node4" class="node"><title>Node3</title>
<polygon fill="white" stroke="#bfbfbf" points="26,-56.5 26,-75.5 72,-75.5 72,-56.5 26,-56.5"/>
<text text-anchor="middle" x="49" y="-63.5" font-family="Helvetica,sans-Serif" font-size="10.00">qdict.h</text>
</g>
<!-- Node2&#45;&gt;Node3 -->
<g id="edge3" class="edge"><title>Node2&#45;&gt;Node3</title>
<path fill="none" stroke="midnightblue" d="M81.5599,-112.083C76.0511,-104.455 67.9688,-93.2645 61.235,-83.9408"/>
<polygon fill="midnightblue" stroke="midnightblue" points="64.0126,-81.8087 55.3202,-75.7511 58.3378,-85.9071 64.0126,-81.8087"/>
</g>
<!-- Node4 -->
<g id="node5" class="node"><title>Node4</title>
<polygon fill="white" stroke="#bfbfbf" points="90,-56.5 90,-75.5 144,-75.5 144,-56.5 90,-56.5"/>
<text text-anchor="middle" x="117" y="-63.5" font-family="Helvetica,sans-Serif" font-size="10.00">qstrlist.h</text>
</g>
<!-- Node2&#45;&gt;Node4 -->
<g id="edge4" class="edge"><title>Node2&#45;&gt;Node4</title>
<path fill="none" stroke="midnightblue" d="M92.7888,-112.083C96.7584,-104.691 102.525,-93.9533 107.435,-84.8111"/>
<polygon fill="midnightblue" stroke="midnightblue" points="110.653,-86.217 112.3,-75.7511 104.486,-82.9051 110.653,-86.217"/>
</g>
<!-- Node5 -->
<g id="node6" class="node"><title>Node5</title>
<g id="a_node6"><a xlink:href="../../d9/d49/types_8h.html" target="_top" xlink:title="This file contains a number of basic enums and types. ">
<polygon fill="white" stroke="black" points="162.5,-56.5 162.5,-75.5 211.5,-75.5 211.5,-56.5 162.5,-56.5"/>
<text text-anchor="middle" x="187" y="-63.5" font-family="Helvetica,sans-Serif" font-size="10.00">types.h</text>
</a>
</g>
</g>
<!-- Node2&#45;&gt;Node5 -->
<g id="edge5" class="edge"><title>Node2&#45;&gt;Node5</title>
<path fill="none" stroke="midnightblue" d="M103.906,-112.324C119.638,-103.743 143.942,-90.486 162.209,-80.5224"/>
<polygon fill="midnightblue" stroke="midnightblue" points="164.03,-83.5157 171.133,-75.6545 160.678,-77.3704 164.03,-83.5157"/>
</g>
<!-- Node5&#45;&gt;Node1 -->
<g id="edge6" class="edge"><title>Node5&#45;&gt;Node1</title>
<path fill="none" stroke="midnightblue" d="M171.737,-56.324C156.779,-47.8215 133.745,-34.7288 116.273,-24.7975"/>
<polygon fill="midnightblue" stroke="midnightblue" points="117.649,-21.5534 107.226,-19.6545 114.19,-27.639 117.649,-21.5534"/>
</g>
</g>
</svg>
