<?xml version="1.0" encoding="UTF-8" standalone="no"?>
<!DOCTYPE svg PUBLIC "-//W3C//DTD SVG 1.1//EN"
 "http://www.w3.org/Graphics/SVG/1.1/DTD/svg11.dtd">
<!-- Generated by graphviz version 2.38.0 (20140413.2041)
 -->
<!-- Title: TagPackageInfo Pages: 1 -->
<svg width="130pt" height="152pt"
 viewBox="0.00 0.00 130.00 152.00" xmlns="http://www.w3.org/2000/svg" xmlns:xlink="http://www.w3.org/1999/xlink">
<g id="graph0" class="graph" transform="scale(1 1) rotate(0) translate(4 148)">
<title>TagPackageInfo</title>
<polygon fill="white" stroke="none" points="-4,4 -4,-148 126,-148 126,4 -4,4"/>
<!-- Node1 -->
<g id="node1" class="node"><title>Node1</title>
<polygon fill="#bfbfbf" stroke="black" points="17,-0.5 17,-19.5 105,-19.5 105,-0.5 17,-0.5"/>
<text text-anchor="middle" x="61" y="-7.5" font-family="Helvetica,sans-Serif" font-size="10.00">TagPackageInfo</text>
</g>
<!-- Node2 -->
<g id="node2" class="node"><title>Node2</title>
<g id="a_node2"><a xlink:href="../../dc/d84/class_tag_anchor_info_list.html" target="_top" xlink:title="List of TagAnchorInfo objects. ">
<polygon fill="white" stroke="black" points="13,-67.5 13,-86.5 109,-86.5 109,-67.5 13,-67.5"/>
<text text-anchor="middle" x="61" y="-74.5" font-family="Helvetica,sans-Serif" font-size="10.00">TagAnchorInfoList</text>
</a>
</g>
</g>
<!-- Node2&#45;&gt;Node1 -->
<g id="edge1" class="edge"><title>Node2&#45;&gt;Node1</title>
<path fill="none" stroke="#9a32cd" stroke-dasharray="5,2" d="M61,-57.037C61,-44.6703 61,-29.1198 61,-19.6273"/>
<polygon fill="#9a32cd" stroke="#9a32cd" points="57.5001,-57.2338 61,-67.2338 64.5001,-57.2338 57.5001,-57.2338"/>
<text text-anchor="middle" x="88.5" y="-41" font-family="Helvetica,sans-Serif" font-size="10.00"> docAnchors</text>
</g>
<!-- Node3 -->
<g id="node3" class="node"><title>Node3</title>
<polygon fill="white" stroke="#bfbfbf" points="0,-124.5 0,-143.5 122,-143.5 122,-124.5 0,-124.5"/>
<text text-anchor="middle" x="61" y="-131.5" font-family="Helvetica,sans-Serif" font-size="10.00">QList&lt; TagAnchorInfo &gt;</text>
</g>
<!-- Node3&#45;&gt;Node2 -->
<g id="edge2" class="edge"><title>Node3&#45;&gt;Node2</title>
<path fill="none" stroke="midnightblue" d="M61,-114.117C61,-104.817 61,-94.0557 61,-86.7149"/>
<polygon fill="midnightblue" stroke="midnightblue" points="57.5001,-114.406 61,-124.406 64.5001,-114.406 57.5001,-114.406"/>
</g>
</g>
</svg>
