<?xml version="1.0" encoding="UTF-8" standalone="no"?>
<!DOCTYPE svg PUBLIC "-//W3C//DTD SVG 1.1//EN"
 "http://www.w3.org/Graphics/SVG/1.1/DTD/svg11.dtd">
<!-- Generated by graphviz version 2.38.0 (20140413.2041)
 -->
<!-- Title: DocHtmlDescData Pages: 1 -->
<svg width="430pt" height="162pt"
 viewBox="0.00 0.00 429.50 162.00" xmlns="http://www.w3.org/2000/svg" xmlns:xlink="http://www.w3.org/1999/xlink">
<g id="graph0" class="graph" transform="scale(1 1) rotate(0) translate(4 158)">
<title>DocHtmlDescData</title>
<polygon fill="white" stroke="none" points="-4,4 -4,-158 425.5,-158 425.5,4 -4,4"/>
<!-- Node4 -->
<g id="node1" class="node"><title>Node4</title>
<polygon fill="#bfbfbf" stroke="black" points="172.5,-0.5 172.5,-19.5 272.5,-19.5 272.5,-0.5 172.5,-0.5"/>
<text text-anchor="middle" x="222.5" y="-7.5" font-family="Helvetica,sans-Serif" font-size="10.00">DocHtmlDescData</text>
</g>
<!-- Node5 -->
<g id="node2" class="node"><title>Node5</title>
<g id="a_node2"><a xlink:href="../../d7/da3/class_comp_accept.html" target="_top" xlink:title="CompAccept\&lt; DocHtmlDescData \&gt;">
<polygon fill="white" stroke="black" points="0,-67.5 0,-86.5 175,-86.5 175,-67.5 0,-67.5"/>
<text text-anchor="middle" x="87.5" y="-74.5" font-family="Helvetica,sans-Serif" font-size="10.00">CompAccept&lt; DocHtmlDescData &gt;</text>
</a>
</g>
</g>
<!-- Node5&#45;&gt;Node4 -->
<g id="edge1" class="edge"><title>Node5&#45;&gt;Node4</title>
<path fill="none" stroke="midnightblue" d="M114.617,-62.9436C141.356,-50.0691 181.466,-30.7573 204.499,-19.6672"/>
<polygon fill="midnightblue" stroke="midnightblue" points="112.919,-59.8768 105.427,-67.3685 115.955,-66.1838 112.919,-59.8768"/>
</g>
<!-- Node6 -->
<g id="node3" class="node"><title>Node6</title>
<g id="a_node3"><a xlink:href="../../d7/da3/class_comp_accept.html" target="_top" xlink:title="Default accept implementation for compound nodes in the abstract syntax tree. ">
<polygon fill="white" stroke="black" points="38.5,-134.5 38.5,-153.5 136.5,-153.5 136.5,-134.5 38.5,-134.5"/>
<text text-anchor="middle" x="87.5" y="-141.5" font-family="Helvetica,sans-Serif" font-size="10.00">CompAccept&lt; T &gt;</text>
</a>
</g>
</g>
<!-- Node6&#45;&gt;Node5 -->
<g id="edge2" class="edge"><title>Node6&#45;&gt;Node5</title>
<path fill="none" stroke="orange" stroke-dasharray="5,2" d="M87.5,-124.037C87.5,-111.67 87.5,-96.1198 87.5,-86.6273"/>
<polygon fill="orange" stroke="orange" points="84.0001,-124.234 87.5,-134.234 91.0001,-124.234 84.0001,-124.234"/>
<text text-anchor="middle" x="140" y="-108" font-family="Helvetica,sans-Serif" font-size="10.00"> &lt; DocHtmlDescData &gt;</text>
</g>
<!-- Node7 -->
<g id="node4" class="node"><title>Node7</title>
<g id="a_node4"><a xlink:href="../../d9/d0e/class_doc_node.html" target="_top" xlink:title="Abstract node interface with type information. ">
<polygon fill="white" stroke="black" points="193.5,-67.5 193.5,-86.5 251.5,-86.5 251.5,-67.5 193.5,-67.5"/>
<text text-anchor="middle" x="222.5" y="-74.5" font-family="Helvetica,sans-Serif" font-size="10.00">DocNode</text>
</a>
</g>
</g>
<!-- Node7&#45;&gt;Node4 -->
<g id="edge3" class="edge"><title>Node7&#45;&gt;Node4</title>
<path fill="none" stroke="midnightblue" d="M222.5,-57.037C222.5,-44.6703 222.5,-29.1198 222.5,-19.6273"/>
<polygon fill="midnightblue" stroke="midnightblue" points="219,-57.2338 222.5,-67.2338 226,-57.2338 219,-57.2338"/>
</g>
<!-- Node7&#45;&gt;Node7 -->
<g id="edge4" class="edge"><title>Node7&#45;&gt;Node7</title>
<path fill="none" stroke="#9a32cd" stroke-dasharray="5,2" d="M262.103,-82.0845C266.591,-81.1323 269.5,-79.4375 269.5,-77 269.5,-73 261.667,-71 251.875,-71"/>
<polygon fill="#9a32cd" stroke="#9a32cd" points="261.523,-78.6223 251.875,-83 262.147,-85.5944 261.523,-78.6223"/>
<text text-anchor="middle" x="291.5" y="-74.5" font-family="Helvetica,sans-Serif" font-size="10.00"> m_parent</text>
</g>
<!-- Node8 -->
<g id="node5" class="node"><title>Node8</title>
<g id="a_node5"><a xlink:href="../../db/d4d/class_html_attrib_list.html" target="_top" xlink:title="A list of Html attributes. ">
<polygon fill="white" stroke="black" points="332,-67.5 332,-86.5 409,-86.5 409,-67.5 332,-67.5"/>
<text text-anchor="middle" x="370.5" y="-74.5" font-family="Helvetica,sans-Serif" font-size="10.00">HtmlAttribList</text>
</a>
</g>
</g>
<!-- Node8&#45;&gt;Node4 -->
<g id="edge5" class="edge"><title>Node8&#45;&gt;Node4</title>
<path fill="none" stroke="#9a32cd" stroke-dasharray="5,2" d="M341.54,-63.281C312.23,-50.4085 267.707,-30.8545 242.235,-19.6672"/>
<polygon fill="#9a32cd" stroke="#9a32cd" points="340.283,-66.5518 350.847,-67.3685 343.098,-60.1427 340.283,-66.5518"/>
<text text-anchor="middle" x="327.5" y="-41" font-family="Helvetica,sans-Serif" font-size="10.00"> m_attribs</text>
</g>
<!-- Node9 -->
<g id="node6" class="node"><title>Node9</title>
<polygon fill="white" stroke="#bfbfbf" points="319.5,-134.5 319.5,-153.5 421.5,-153.5 421.5,-134.5 319.5,-134.5"/>
<text text-anchor="middle" x="370.5" y="-141.5" font-family="Helvetica,sans-Serif" font-size="10.00">QList&lt; HtmlAttrib &gt;</text>
</g>
<!-- Node9&#45;&gt;Node8 -->
<g id="edge6" class="edge"><title>Node9&#45;&gt;Node8</title>
<path fill="none" stroke="midnightblue" d="M370.5,-124.037C370.5,-111.67 370.5,-96.1198 370.5,-86.6273"/>
<polygon fill="midnightblue" stroke="midnightblue" points="367,-124.234 370.5,-134.234 374,-124.234 367,-124.234"/>
</g>
</g>
</svg>
