<?xml version="1.0" encoding="UTF-8" standalone="no"?>
<!DOCTYPE svg PUBLIC "-//W3C//DTD SVG 1.1//EN"
 "http://www.w3.org/Graphics/SVG/1.1/DTD/svg11.dtd">
<!-- Generated by graphviz version 2.38.0 (20140413.2041)
 -->
<!-- Title: TemplateAutoRef&lt; T &gt; Pages: 1 -->
<svg width="168pt" height="106pt"
 viewBox="0.00 0.00 167.50 106.00" xmlns="http://www.w3.org/2000/svg" xmlns:xlink="http://www.w3.org/1999/xlink">
<g id="graph0" class="graph" transform="scale(1 1) rotate(0) translate(4 102)">
<title>TemplateAutoRef&lt; T &gt;</title>
<polygon fill="white" stroke="none" points="-4,4 -4,-102 163.5,-102 163.5,4 -4,4"/>
<!-- Node0 -->
<g id="node1" class="node"><title>Node0</title>
<polygon fill="#bfbfbf" stroke="black" points="13,-78.5 13,-97.5 130,-97.5 130,-78.5 13,-78.5"/>
<text text-anchor="middle" x="71.5" y="-85.5" font-family="Helvetica,sans-Serif" font-size="10.00">TemplateAutoRef&lt; T &gt;</text>
</g>
<!-- Node1 -->
<g id="node2" class="node"><title>Node1</title>
<g id="a_node2"><a xlink:href="../../df/d82/class_template_auto_ref.html" target="_top" xlink:title="TemplateAutoRef\&lt; Template\lStruct \&gt;">
<polygon fill="white" stroke="black" points="0,-0.5 0,-30.5 143,-30.5 143,-0.5 0,-0.5"/>
<text text-anchor="start" x="8" y="-18.5" font-family="Helvetica,sans-Serif" font-size="10.00">TemplateAutoRef&lt; Template</text>
<text text-anchor="middle" x="71.5" y="-7.5" font-family="Helvetica,sans-Serif" font-size="10.00">Struct &gt;</text>
</a>
</g>
</g>
<!-- Node0&#45;&gt;Node1 -->
<g id="edge1" class="edge"><title>Node0&#45;&gt;Node1</title>
<path fill="none" stroke="orange" stroke-dasharray="5,2" d="M71.5,-68.2362C71.5,-56.4079 71.5,-41.3829 71.5,-30.5762"/>
<polygon fill="orange" stroke="orange" points="68.0001,-68.3553 71.5,-78.3553 75.0001,-68.3554 68.0001,-68.3553"/>
<text text-anchor="middle" x="115.5" y="-52" font-family="Helvetica,sans-Serif" font-size="10.00"> &lt; TemplateStruct &gt;</text>
</g>
</g>
</svg>
