<?xml version="1.0" encoding="UTF-8" standalone="no"?>
<!DOCTYPE svg PUBLIC "-//W3C//DTD SVG 1.1//EN"
 "http://www.w3.org/Graphics/SVG/1.1/DTD/svg11.dtd">
<!-- Generated by graphviz version 2.38.0 (20140413.2041)
 -->
<!-- Title: ClassIndexContext Pages: 1 -->
<svg width="462pt" height="396pt"
 viewBox="0.00 0.00 462.00 396.00" xmlns="http://www.w3.org/2000/svg" xmlns:xlink="http://www.w3.org/1999/xlink">
<g id="graph0" class="graph" transform="scale(1 1) rotate(0) translate(4 392)">
<title>ClassIndexContext</title>
<polygon fill="white" stroke="none" points="-4,4 -4,-392 458,-392 458,4 -4,4"/>
<!-- Node3 -->
<g id="node1" class="node"><title>Node3</title>
<polygon fill="#bfbfbf" stroke="black" points="120.5,-0.5 120.5,-19.5 221.5,-19.5 221.5,-0.5 120.5,-0.5"/>
<text text-anchor="middle" x="171" y="-7.5" font-family="Helvetica,sans-Serif" font-size="10.00">ClassIndexContext</text>
</g>
<!-- Node4 -->
<g id="node2" class="node"><title>Node4</title>
<g id="a_node2"><a xlink:href="../../d8/d96/class_ref_counted_context.html" target="_top" xlink:title="Helper class to support reference counting. ">
<polygon fill="white" stroke="black" points="0,-73 0,-92 104,-92 104,-73 0,-73"/>
<text text-anchor="middle" x="52" y="-80" font-family="Helvetica,sans-Serif" font-size="10.00">RefCountedContext</text>
</a>
</g>
</g>
<!-- Node4&#45;&gt;Node3 -->
<g id="edge1" class="edge"><title>Node4&#45;&gt;Node3</title>
<path fill="none" stroke="midnightblue" d="M75.4229,-67.6234C99.4419,-53.3937 136.061,-31.6989 156.289,-19.7154"/>
<polygon fill="midnightblue" stroke="midnightblue" points="73.4113,-64.747 66.5917,-72.8553 76.9792,-70.7695 73.4113,-64.747"/>
</g>
<!-- Node5 -->
<g id="node3" class="node"><title>Node5</title>
<g id="a_node3"><a xlink:href="../../d9/de8/class_template_struct_intf.html" target="_top" xlink:title="Abstract interface for a context value of type struct. ">
<polygon fill="white" stroke="black" points="122,-73 122,-92 220,-92 220,-73 122,-73"/>
<text text-anchor="middle" x="171" y="-80" font-family="Helvetica,sans-Serif" font-size="10.00">TemplateStructIntf</text>
</a>
</g>
</g>
<!-- Node5&#45;&gt;Node3 -->
<g id="edge2" class="edge"><title>Node5&#45;&gt;Node3</title>
<path fill="none" stroke="midnightblue" d="M171,-62.442C171,-48.5305 171,-30.3203 171,-19.7154"/>
<polygon fill="midnightblue" stroke="midnightblue" points="167.5,-62.8553 171,-72.8553 174.5,-62.8553 167.5,-62.8553"/>
</g>
<!-- Node6 -->
<g id="node4" class="node"><title>Node6</title>
<g id="a_node4"><a xlink:href="../../d4/dd6/class_class_index_context_1_1_private.html" target="_top" xlink:title="ClassIndexContext::\lPrivate">
<polygon fill="white" stroke="black" points="237.5,-67.5 237.5,-97.5 344.5,-97.5 344.5,-67.5 237.5,-67.5"/>
<text text-anchor="start" x="245.5" y="-85.5" font-family="Helvetica,sans-Serif" font-size="10.00">ClassIndexContext::</text>
<text text-anchor="middle" x="291" y="-74.5" font-family="Helvetica,sans-Serif" font-size="10.00">Private</text>
</a>
</g>
</g>
<!-- Node6&#45;&gt;Node3 -->
<g id="edge3" class="edge"><title>Node6&#45;&gt;Node3</title>
<path fill="none" stroke="#9a32cd" stroke-dasharray="5,2" d="M258.289,-62.2822C234.509,-48.3113 203.461,-30.0709 185.525,-19.5336"/>
<polygon fill="#9a32cd" stroke="#9a32cd" points="256.61,-65.3549 267.005,-67.4027 260.155,-59.3194 256.61,-65.3549"/>
<text text-anchor="middle" x="238.5" y="-41" font-family="Helvetica,sans-Serif" font-size="10.00"> p</text>
</g>
<!-- Node7 -->
<g id="node5" class="node"><title>Node7</title>
<g id="a_node5"><a xlink:href="../../d1/d80/class_property_mapper.html" target="_top" xlink:title="PropertyMapper\&lt; ClassIndex\lContext::Private \&gt;">
<polygon fill="white" stroke="black" points="136,-145.5 136,-175.5 280,-175.5 280,-145.5 136,-145.5"/>
<text text-anchor="start" x="144" y="-163.5" font-family="Helvetica,sans-Serif" font-size="10.00">PropertyMapper&lt; ClassIndex</text>
<text text-anchor="middle" x="208" y="-152.5" font-family="Helvetica,sans-Serif" font-size="10.00">Context::Private &gt;</text>
</a>
</g>
</g>
<!-- Node7&#45;&gt;Node6 -->
<g id="edge4" class="edge"><title>Node7&#45;&gt;Node6</title>
<path fill="none" stroke="#9a32cd" stroke-dasharray="5,2" d="M231.05,-138.394C245.206,-125.432 262.957,-109.178 275.458,-97.7309"/>
<polygon fill="#9a32cd" stroke="#9a32cd" points="228.623,-135.87 223.612,-145.205 233.351,-141.033 228.623,-135.87"/>
<text text-anchor="middle" x="269" y="-119" font-family="Helvetica,sans-Serif" font-size="10.00"> s_inst</text>
</g>
<!-- Node8 -->
<g id="node6" class="node"><title>Node8</title>
<g id="a_node6"><a xlink:href="../../d1/d80/class_property_mapper.html" target="_top" xlink:title="Helper class to map a property name to a handler member function. ">
<polygon fill="white" stroke="black" points="153,-234.5 153,-253.5 263,-253.5 263,-234.5 153,-234.5"/>
<text text-anchor="middle" x="208" y="-241.5" font-family="Helvetica,sans-Serif" font-size="10.00">PropertyMapper&lt; T &gt;</text>
</a>
</g>
</g>
<!-- Node8&#45;&gt;Node7 -->
<g id="edge5" class="edge"><title>Node8&#45;&gt;Node7</title>
<path fill="none" stroke="orange" stroke-dasharray="5,2" d="M208,-224.229C208,-209.408 208,-189.051 208,-175.597"/>
<polygon fill="orange" stroke="orange" points="204.5,-224.278 208,-234.278 211.5,-224.278 204.5,-224.278"/>
<text text-anchor="start" x="208" y="-208" font-family="Helvetica,sans-Serif" font-size="10.00"> &lt; ClassIndexContext</text>
<text text-anchor="middle" x="256.5" y="-197" font-family="Helvetica,sans-Serif" font-size="10.00">::Private &gt;</text>
</g>
<!-- Node9 -->
<g id="node7" class="node"><title>Node9</title>
<g id="a_node7"><a xlink:href="../../de/d68/struct_class_index_context_1_1_private_1_1_cachable.html" target="_top" xlink:title="ClassIndexContext::\lPrivate::Cachable">
<polygon fill="white" stroke="black" points="298.5,-145.5 298.5,-175.5 405.5,-175.5 405.5,-145.5 298.5,-145.5"/>
<text text-anchor="start" x="306.5" y="-163.5" font-family="Helvetica,sans-Serif" font-size="10.00">ClassIndexContext::</text>
<text text-anchor="middle" x="352" y="-152.5" font-family="Helvetica,sans-Serif" font-size="10.00">Private::Cachable</text>
</a>
</g>
</g>
<!-- Node9&#45;&gt;Node6 -->
<g id="edge6" class="edge"><title>Node9&#45;&gt;Node6</title>
<path fill="none" stroke="#9a32cd" stroke-dasharray="5,2" d="M334.187,-137.307C323.934,-124.533 311.354,-108.86 302.422,-97.7309"/>
<polygon fill="#9a32cd" stroke="#9a32cd" points="331.537,-139.597 340.526,-145.205 336.996,-135.215 331.537,-139.597"/>
<text text-anchor="middle" x="346.5" y="-119" font-family="Helvetica,sans-Serif" font-size="10.00"> m_cache</text>
</g>
<!-- Node10 -->
<g id="node8" class="node"><title>Node10</title>
<g id="a_node8"><a xlink:href="../../df/d12/class_shared_ptr.html" target="_top" xlink:title="SharedPtr\&lt; TemplateList \&gt;">
<polygon fill="white" stroke="black" points="285,-234.5 285,-253.5 419,-253.5 419,-234.5 285,-234.5"/>
<text text-anchor="middle" x="352" y="-241.5" font-family="Helvetica,sans-Serif" font-size="10.00">SharedPtr&lt; TemplateList &gt;</text>
</a>
</g>
</g>
<!-- Node10&#45;&gt;Node9 -->
<g id="edge7" class="edge"><title>Node10&#45;&gt;Node9</title>
<path fill="none" stroke="#9a32cd" stroke-dasharray="5,2" d="M352,-224.229C352,-209.408 352,-189.051 352,-175.597"/>
<polygon fill="#9a32cd" stroke="#9a32cd" points="348.5,-224.278 352,-234.278 355.5,-224.278 348.5,-224.278"/>
<text text-anchor="middle" x="370.5" y="-202.5" font-family="Helvetica,sans-Serif" font-size="10.00"> classes</text>
</g>
<!-- Node11 -->
<g id="node9" class="node"><title>Node11</title>
<g id="a_node9"><a xlink:href="../../de/dab/class_template_list.html" target="_top" xlink:title="Default implementation of a context value of type list. ">
<polygon fill="white" stroke="black" points="261.5,-301.5 261.5,-320.5 334.5,-320.5 334.5,-301.5 261.5,-301.5"/>
<text text-anchor="middle" x="298" y="-308.5" font-family="Helvetica,sans-Serif" font-size="10.00">TemplateList</text>
</a>
</g>
</g>
<!-- Node11&#45;&gt;Node10 -->
<g id="edge8" class="edge"><title>Node11&#45;&gt;Node10</title>
<path fill="none" stroke="#9a32cd" stroke-dasharray="5,2" d="M311.898,-293.27C322.427,-280.597 336.464,-263.701 344.833,-253.627"/>
<polygon fill="#9a32cd" stroke="#9a32cd" points="308.981,-291.305 305.283,-301.234 314.365,-295.778 308.981,-291.305"/>
<text text-anchor="middle" x="342" y="-275" font-family="Helvetica,sans-Serif" font-size="10.00"> m_ptr</text>
</g>
<!-- Node12 -->
<g id="node10" class="node"><title>Node12</title>
<g id="a_node10"><a xlink:href="../../d6/d88/class_template_list_intf.html" target="_top" xlink:title="Abstract read&#45;only interface for a context value of type list. ">
<polygon fill="white" stroke="black" points="142.5,-368.5 142.5,-387.5 229.5,-387.5 229.5,-368.5 142.5,-368.5"/>
<text text-anchor="middle" x="186" y="-375.5" font-family="Helvetica,sans-Serif" font-size="10.00">TemplateListIntf</text>
</a>
</g>
</g>
<!-- Node12&#45;&gt;Node11 -->
<g id="edge9" class="edge"><title>Node12&#45;&gt;Node11</title>
<path fill="none" stroke="midnightblue" d="M209.925,-363.115C232.115,-350.237 264.442,-331.476 283.134,-320.627"/>
<polygon fill="midnightblue" stroke="midnightblue" points="207.997,-360.187 201.105,-368.234 211.511,-366.241 207.997,-360.187"/>
</g>
<!-- Node13 -->
<g id="node11" class="node"><title>Node13</title>
<g id="a_node11"><a xlink:href="../../d5/dee/class_template_list_1_1_private.html" target="_top" xlink:title="Private data of a template list object. ">
<polygon fill="white" stroke="black" points="248,-368.5 248,-387.5 358,-387.5 358,-368.5 248,-368.5"/>
<text text-anchor="middle" x="303" y="-375.5" font-family="Helvetica,sans-Serif" font-size="10.00">TemplateList::Private</text>
</a>
</g>
</g>
<!-- Node13&#45;&gt;Node11 -->
<g id="edge10" class="edge"><title>Node13&#45;&gt;Node11</title>
<path fill="none" stroke="#9a32cd" stroke-dasharray="5,2" d="M301.541,-358.037C300.59,-345.67 299.394,-330.12 298.664,-320.627"/>
<polygon fill="#9a32cd" stroke="#9a32cd" points="298.069,-358.532 302.326,-368.234 305.048,-357.995 298.069,-358.532"/>
<text text-anchor="middle" x="304.5" y="-342" font-family="Helvetica,sans-Serif" font-size="10.00"> p</text>
</g>
<!-- Node14 -->
<g id="node12" class="node"><title>Node14</title>
<g id="a_node12"><a xlink:href="../../df/d12/class_shared_ptr.html" target="_top" xlink:title="Reference counting smart pointer. ">
<polygon fill="white" stroke="black" points="353,-301.5 353,-320.5 437,-320.5 437,-301.5 353,-301.5"/>
<text text-anchor="middle" x="395" y="-308.5" font-family="Helvetica,sans-Serif" font-size="10.00">SharedPtr&lt; T &gt;</text>
</a>
</g>
</g>
<!-- Node14&#45;&gt;Node10 -->
<g id="edge11" class="edge"><title>Node14&#45;&gt;Node10</title>
<path fill="none" stroke="orange" stroke-dasharray="5,2" d="M383.446,-292.535C375.121,-279.95 364.243,-263.507 357.707,-253.627"/>
<polygon fill="orange" stroke="orange" points="380.764,-294.825 389.201,-301.234 386.603,-290.963 380.764,-294.825"/>
<text text-anchor="middle" x="415" y="-275" font-family="Helvetica,sans-Serif" font-size="10.00"> &lt; TemplateList &gt;</text>
</g>
<!-- Node15 -->
<g id="node13" class="node"><title>Node15</title>
<polygon fill="white" stroke="#bfbfbf" points="380.5,-368.5 380.5,-387.5 409.5,-387.5 409.5,-368.5 380.5,-368.5"/>
<text text-anchor="middle" x="395" y="-375.5" font-family="Helvetica,sans-Serif" font-size="10.00">T</text>
</g>
<!-- Node15&#45;&gt;Node14 -->
<g id="edge12" class="edge"><title>Node15&#45;&gt;Node14</title>
<path fill="none" stroke="#9a32cd" stroke-dasharray="5,2" d="M395,-358.037C395,-345.67 395,-330.12 395,-320.627"/>
<polygon fill="#9a32cd" stroke="#9a32cd" points="391.5,-358.234 395,-368.234 398.5,-358.234 391.5,-358.234"/>
<text text-anchor="middle" x="409" y="-342" font-family="Helvetica,sans-Serif" font-size="10.00"> m_ptr</text>
</g>
</g>
</svg>
