<?xml version="1.0" encoding="UTF-8" standalone="no"?>
<!DOCTYPE svg PUBLIC "-//W3C//DTD SVG 1.1//EN"
 "http://www.w3.org/Graphics/SVG/1.1/DTD/svg11.dtd">
<!-- Generated by graphviz version 2.38.0 (20140413.2041)
 -->
<!-- Title: GlobalsIndexContext::Private::Cachable Pages: 1 -->
<svg width="321pt" height="306pt"
 viewBox="0.00 0.00 320.50 306.00" xmlns="http://www.w3.org/2000/svg" xmlns:xlink="http://www.w3.org/1999/xlink">
<g id="graph0" class="graph" transform="scale(1 1) rotate(0) translate(4 302)">
<title>GlobalsIndexContext::Private::Cachable</title>
<polygon fill="white" stroke="none" points="-4,4 -4,-302 316.5,-302 316.5,4 -4,4"/>
<!-- Node1 -->
<g id="node1" class="node"><title>Node1</title>
<polygon fill="#bfbfbf" stroke="black" points="155.5,-0.5 155.5,-30.5 263.5,-30.5 263.5,-0.5 155.5,-0.5"/>
<text text-anchor="start" x="163.5" y="-18.5" font-family="Helvetica,sans-Serif" font-size="10.00">GlobalsIndexContext</text>
<text text-anchor="middle" x="209.5" y="-7.5" font-family="Helvetica,sans-Serif" font-size="10.00">::Private::Cachable</text>
</g>
<!-- Node2 -->
<g id="node2" class="node"><title>Node2</title>
<g id="a_node2"><a xlink:href="../../df/d12/class_shared_ptr.html" target="_top" xlink:title="SharedPtr\&lt; TemplateList \&gt;">
<polygon fill="white" stroke="black" points="142.5,-144.5 142.5,-163.5 276.5,-163.5 276.5,-144.5 142.5,-144.5"/>
<text text-anchor="middle" x="209.5" y="-151.5" font-family="Helvetica,sans-Serif" font-size="10.00">SharedPtr&lt; TemplateList &gt;</text>
</a>
</g>
</g>
<!-- Node2&#45;&gt;Node1 -->
<g id="edge1" class="edge"><title>Node2&#45;&gt;Node1</title>
<path fill="none" stroke="#9a32cd" stroke-dasharray="5,2" d="M209.5,-134.154C209.5,-106.41 209.5,-55.2023 209.5,-30.5221"/>
<polygon fill="#9a32cd" stroke="#9a32cd" points="206,-134.461 209.5,-144.461 213,-134.461 206,-134.461"/>
<text text-anchor="middle" x="237" y="-118" font-family="Helvetica,sans-Serif" font-size="10.00"> macros</text>
<text text-anchor="middle" x="237" y="-107" font-family="Helvetica,sans-Serif" font-size="10.00">typedefs</text>
<text text-anchor="middle" x="237" y="-96" font-family="Helvetica,sans-Serif" font-size="10.00">enumValues</text>
<text text-anchor="middle" x="237" y="-85" font-family="Helvetica,sans-Serif" font-size="10.00">enums</text>
<text text-anchor="middle" x="237" y="-74" font-family="Helvetica,sans-Serif" font-size="10.00">all</text>
<text text-anchor="middle" x="237" y="-63" font-family="Helvetica,sans-Serif" font-size="10.00">variables</text>
<text text-anchor="middle" x="237" y="-52" font-family="Helvetica,sans-Serif" font-size="10.00">functions</text>
</g>
<!-- Node3 -->
<g id="node3" class="node"><title>Node3</title>
<g id="a_node3"><a xlink:href="../../de/dab/class_template_list.html" target="_top" xlink:title="Default implementation of a context value of type list. ">
<polygon fill="white" stroke="black" points="119,-211.5 119,-230.5 192,-230.5 192,-211.5 119,-211.5"/>
<text text-anchor="middle" x="155.5" y="-218.5" font-family="Helvetica,sans-Serif" font-size="10.00">TemplateList</text>
</a>
</g>
</g>
<!-- Node3&#45;&gt;Node2 -->
<g id="edge2" class="edge"><title>Node3&#45;&gt;Node2</title>
<path fill="none" stroke="#9a32cd" stroke-dasharray="5,2" d="M169.398,-203.27C179.927,-190.597 193.964,-173.701 202.333,-163.627"/>
<polygon fill="#9a32cd" stroke="#9a32cd" points="166.481,-201.305 162.783,-211.234 171.865,-205.778 166.481,-201.305"/>
<text text-anchor="middle" x="200.5" y="-185" font-family="Helvetica,sans-Serif" font-size="10.00"> m_ptr</text>
</g>
<!-- Node4 -->
<g id="node4" class="node"><title>Node4</title>
<g id="a_node4"><a xlink:href="../../d6/d88/class_template_list_intf.html" target="_top" xlink:title="Abstract read&#45;only interface for a context value of type list. ">
<polygon fill="white" stroke="black" points="0,-278.5 0,-297.5 87,-297.5 87,-278.5 0,-278.5"/>
<text text-anchor="middle" x="43.5" y="-285.5" font-family="Helvetica,sans-Serif" font-size="10.00">TemplateListIntf</text>
</a>
</g>
</g>
<!-- Node4&#45;&gt;Node3 -->
<g id="edge3" class="edge"><title>Node4&#45;&gt;Node3</title>
<path fill="none" stroke="midnightblue" d="M67.4248,-273.115C89.6147,-260.237 121.942,-241.476 140.634,-230.627"/>
<polygon fill="midnightblue" stroke="midnightblue" points="65.497,-270.187 58.6048,-278.234 69.0106,-276.241 65.497,-270.187"/>
</g>
<!-- Node5 -->
<g id="node5" class="node"><title>Node5</title>
<g id="a_node5"><a xlink:href="../../d5/dee/class_template_list_1_1_private.html" target="_top" xlink:title="Private data of a template list object. ">
<polygon fill="white" stroke="black" points="105.5,-278.5 105.5,-297.5 215.5,-297.5 215.5,-278.5 105.5,-278.5"/>
<text text-anchor="middle" x="160.5" y="-285.5" font-family="Helvetica,sans-Serif" font-size="10.00">TemplateList::Private</text>
</a>
</g>
</g>
<!-- Node5&#45;&gt;Node3 -->
<g id="edge4" class="edge"><title>Node5&#45;&gt;Node3</title>
<path fill="none" stroke="#9a32cd" stroke-dasharray="5,2" d="M159.041,-268.037C158.09,-255.67 156.894,-240.12 156.164,-230.627"/>
<polygon fill="#9a32cd" stroke="#9a32cd" points="155.569,-268.532 159.826,-278.234 162.548,-267.995 155.569,-268.532"/>
<text text-anchor="middle" x="163" y="-252" font-family="Helvetica,sans-Serif" font-size="10.00"> p</text>
</g>
<!-- Node6 -->
<g id="node6" class="node"><title>Node6</title>
<g id="a_node6"><a xlink:href="../../df/d12/class_shared_ptr.html" target="_top" xlink:title="Reference counting smart pointer. ">
<polygon fill="white" stroke="black" points="210.5,-211.5 210.5,-230.5 294.5,-230.5 294.5,-211.5 210.5,-211.5"/>
<text text-anchor="middle" x="252.5" y="-218.5" font-family="Helvetica,sans-Serif" font-size="10.00">SharedPtr&lt; T &gt;</text>
</a>
</g>
</g>
<!-- Node6&#45;&gt;Node2 -->
<g id="edge5" class="edge"><title>Node6&#45;&gt;Node2</title>
<path fill="none" stroke="orange" stroke-dasharray="5,2" d="M240.946,-202.535C232.621,-189.95 221.743,-173.507 215.207,-163.627"/>
<polygon fill="orange" stroke="orange" points="238.264,-204.825 246.701,-211.234 244.103,-200.963 238.264,-204.825"/>
<text text-anchor="middle" x="273.5" y="-185" font-family="Helvetica,sans-Serif" font-size="10.00"> &lt; TemplateList &gt;</text>
</g>
<!-- Node7 -->
<g id="node7" class="node"><title>Node7</title>
<polygon fill="white" stroke="#bfbfbf" points="238,-278.5 238,-297.5 267,-297.5 267,-278.5 238,-278.5"/>
<text text-anchor="middle" x="252.5" y="-285.5" font-family="Helvetica,sans-Serif" font-size="10.00">T</text>
</g>
<!-- Node7&#45;&gt;Node6 -->
<g id="edge6" class="edge"><title>Node7&#45;&gt;Node6</title>
<path fill="none" stroke="#9a32cd" stroke-dasharray="5,2" d="M252.5,-268.037C252.5,-255.67 252.5,-240.12 252.5,-230.627"/>
<polygon fill="#9a32cd" stroke="#9a32cd" points="249,-268.234 252.5,-278.234 256,-268.234 249,-268.234"/>
<text text-anchor="middle" x="266.5" y="-252" font-family="Helvetica,sans-Serif" font-size="10.00"> m_ptr</text>
</g>
</g>
</svg>
