<?xml version="1.0" encoding="UTF-8" standalone="no"?>
<!DOCTYPE svg PUBLIC "-//W3C//DTD SVG 1.1//EN"
 "http://www.w3.org/Graphics/SVG/1.1/DTD/svg11.dtd">
<!-- Generated by graphviz version 2.38.0 (20140413.2041)
 -->
<!-- Title: src/util.h Pages: 1 -->
<svg width="528pt" height="196pt"
 viewBox="0.00 0.00 528.03 196.00" xmlns="http://www.w3.org/2000/svg" xmlns:xlink="http://www.w3.org/1999/xlink">
<g id="graph0" class="graph" transform="scale(1 1) rotate(0) translate(4 192)">
<title>src/util.h</title>
<polygon fill="white" stroke="none" points="-4,4 -4,-192 524.035,-192 524.035,4 -4,4"/>
<!-- Node0 -->
<g id="node1" class="node"><title>Node0</title>
<polygon fill="#bfbfbf" stroke="black" points="203.535,-168.5 203.535,-187.5 257.535,-187.5 257.535,-168.5 203.535,-168.5"/>
<text text-anchor="middle" x="230.535" y="-175.5" font-family="Helvetica,sans-Serif" font-size="10.00">src/util.h</text>
</g>
<!-- Node1 -->
<g id="node2" class="node"><title>Node1</title>
<polygon fill="white" stroke="#bfbfbf" points="160.035,-0.5 160.035,-19.5 203.035,-19.5 203.035,-0.5 160.035,-0.5"/>
<text text-anchor="middle" x="181.535" y="-7.5" font-family="Helvetica,sans-Serif" font-size="10.00">qlist.h</text>
</g>
<!-- Node0&#45;&gt;Node1 -->
<g id="edge1" class="edge"><title>Node0&#45;&gt;Node1</title>
<path fill="none" stroke="midnightblue" d="M203.449,-174.633C153.123,-168.566 46.5867,-147.473 5.53467,-76 -25.8506,-21.357 90.7101,-12.1811 149.535,-10.9589"/>
<polygon fill="midnightblue" stroke="midnightblue" points="149.849,-14.455 159.798,-10.8141 149.75,-7.45565 149.849,-14.455"/>
</g>
<!-- Node2 -->
<g id="node3" class="node"><title>Node2</title>
<polygon fill="white" stroke="#bfbfbf" points="360.035,-112.5 360.035,-131.5 409.035,-131.5 409.035,-112.5 360.035,-112.5"/>
<text text-anchor="middle" x="384.535" y="-119.5" font-family="Helvetica,sans-Serif" font-size="10.00">ctype.h</text>
</g>
<!-- Node0&#45;&gt;Node2 -->
<g id="edge2" class="edge"><title>Node0&#45;&gt;Node2</title>
<path fill="none" stroke="midnightblue" d="M254.936,-168.444C280.731,-159.399 321.611,-145.064 350.552,-134.916"/>
<polygon fill="midnightblue" stroke="midnightblue" points="351.969,-138.128 360.247,-131.516 349.652,-131.523 351.969,-138.128"/>
</g>
<!-- Node3 -->
<g id="node4" class="node"><title>Node3</title>
<g id="a_node4"><a xlink:href="../../d9/d49/types_8h.html" target="_top" xlink:title="This file contains a number of basic enums and types. ">
<polygon fill="white" stroke="black" points="206.035,-112.5 206.035,-131.5 255.035,-131.5 255.035,-112.5 206.035,-112.5"/>
<text text-anchor="middle" x="230.535" y="-119.5" font-family="Helvetica,sans-Serif" font-size="10.00">types.h</text>
</a>
</g>
</g>
<!-- Node0&#45;&gt;Node3 -->
<g id="edge3" class="edge"><title>Node0&#45;&gt;Node3</title>
<path fill="none" stroke="midnightblue" d="M230.535,-168.083C230.535,-161.006 230.535,-150.861 230.535,-141.986"/>
<polygon fill="midnightblue" stroke="midnightblue" points="234.035,-141.751 230.535,-131.751 227.035,-141.751 234.035,-141.751"/>
</g>
<!-- Node5 -->
<g id="node6" class="node"><title>Node5</title>
<g id="a_node6"><a xlink:href="../../d9/d21/sortdict_8h.html" target="_top" xlink:title="sortdict.h">
<polygon fill="white" stroke="black" points="111.035,-112.5 111.035,-131.5 168.035,-131.5 168.035,-112.5 111.035,-112.5"/>
<text text-anchor="middle" x="139.535" y="-119.5" font-family="Helvetica,sans-Serif" font-size="10.00">sortdict.h</text>
</a>
</g>
</g>
<!-- Node0&#45;&gt;Node5 -->
<g id="edge5" class="edge"><title>Node0&#45;&gt;Node5</title>
<path fill="none" stroke="midnightblue" d="M215.914,-168.324C201.586,-159.822 179.522,-146.729 162.786,-136.797"/>
<polygon fill="midnightblue" stroke="midnightblue" points="164.505,-133.748 154.119,-131.655 160.933,-139.768 164.505,-133.748"/>
</g>
<!-- Node8 -->
<g id="node9" class="node"><title>Node8</title>
<g id="a_node9"><a xlink:href="../../de/d9c/docparser_8h.html" target="_top" xlink:title="docparser.h">
<polygon fill="white" stroke="black" points="273.535,-112.5 273.535,-131.5 341.535,-131.5 341.535,-112.5 273.535,-112.5"/>
<text text-anchor="middle" x="307.535" y="-119.5" font-family="Helvetica,sans-Serif" font-size="10.00">docparser.h</text>
</a>
</g>
</g>
<!-- Node0&#45;&gt;Node8 -->
<g id="edge9" class="edge"><title>Node0&#45;&gt;Node8</title>
<path fill="none" stroke="midnightblue" d="M242.906,-168.324C254.693,-160.058 272.667,-147.453 286.67,-137.632"/>
<polygon fill="midnightblue" stroke="midnightblue" points="289.016,-140.262 295.194,-131.655 284.997,-134.531 289.016,-140.262"/>
</g>
<!-- Node4 -->
<g id="node5" class="node"><title>Node4</title>
<polygon fill="white" stroke="#bfbfbf" points="270.035,-0.5 270.035,-19.5 329.035,-19.5 329.035,-0.5 270.035,-0.5"/>
<text text-anchor="middle" x="299.535" y="-7.5" font-family="Helvetica,sans-Serif" font-size="10.00">qcstring.h</text>
</g>
<!-- Node3&#45;&gt;Node4 -->
<g id="edge4" class="edge"><title>Node3&#45;&gt;Node4</title>
<path fill="none" stroke="midnightblue" d="M233.111,-112.104C237.113,-99.1136 245.623,-74.4903 257.535,-56 264.377,-45.3796 273.856,-34.9717 282.078,-26.8448"/>
<polygon fill="midnightblue" stroke="midnightblue" points="284.625,-29.2527 289.448,-19.8196 279.795,-24.1857 284.625,-29.2527"/>
</g>
<!-- Node5&#45;&gt;Node1 -->
<g id="edge6" class="edge"><title>Node5&#45;&gt;Node1</title>
<path fill="none" stroke="midnightblue" d="M142.83,-112.368C149.67,-94.4563 165.528,-52.9233 174.682,-28.9482"/>
<polygon fill="midnightblue" stroke="midnightblue" points="177.957,-30.1821 178.254,-19.5914 171.417,-27.6851 177.957,-30.1821"/>
</g>
<!-- Node6 -->
<g id="node7" class="node"><title>Node6</title>
<polygon fill="white" stroke="#bfbfbf" points="88.5347,-56.5 88.5347,-75.5 134.535,-75.5 134.535,-56.5 88.5347,-56.5"/>
<text text-anchor="middle" x="111.535" y="-63.5" font-family="Helvetica,sans-Serif" font-size="10.00">qdict.h</text>
</g>
<!-- Node5&#45;&gt;Node6 -->
<g id="edge7" class="edge"><title>Node5&#45;&gt;Node6</title>
<path fill="none" stroke="midnightblue" d="M134.911,-112.083C131.078,-104.691 125.51,-93.9533 120.77,-84.8111"/>
<polygon fill="midnightblue" stroke="midnightblue" points="123.783,-83.0175 116.072,-75.7511 117.568,-86.2398 123.783,-83.0175"/>
</g>
<!-- Node7 -->
<g id="node8" class="node"><title>Node7</title>
<polygon fill="white" stroke="#bfbfbf" points="14.5347,-56.5 14.5347,-75.5 70.5347,-75.5 70.5347,-56.5 14.5347,-56.5"/>
<text text-anchor="middle" x="42.5347" y="-63.5" font-family="Helvetica,sans-Serif" font-size="10.00">qintdict.h</text>
</g>
<!-- Node5&#45;&gt;Node7 -->
<g id="edge8" class="edge"><title>Node5&#45;&gt;Node7</title>
<path fill="none" stroke="midnightblue" d="M123.95,-112.324C108.536,-103.743 84.7225,-90.486 66.8249,-80.5224"/>
<polygon fill="midnightblue" stroke="midnightblue" points="68.5205,-77.4606 58.0807,-75.6545 65.1156,-83.5767 68.5205,-77.4606"/>
</g>
<!-- Node8&#45;&gt;Node1 -->
<g id="edge11" class="edge"><title>Node8&#45;&gt;Node1</title>
<path fill="none" stroke="midnightblue" d="M297.648,-112.368C276.394,-93.8137 226.108,-49.9129 199.218,-26.4376"/>
<polygon fill="midnightblue" stroke="midnightblue" points="201.211,-23.5314 191.376,-19.5914 196.607,-28.8046 201.211,-23.5314"/>
</g>
<!-- Node8&#45;&gt;Node4 -->
<g id="edge12" class="edge"><title>Node8&#45;&gt;Node4</title>
<path fill="none" stroke="midnightblue" d="M317.124,-112.425C329.538,-100.226 348.67,-77.0072 340.535,-56 336.081,-44.498 327.167,-34.1311 318.785,-26.2546"/>
<polygon fill="midnightblue" stroke="midnightblue" points="320.906,-23.4599 311.075,-19.5103 316.298,-28.7286 320.906,-23.4599"/>
</g>
<!-- Node9 -->
<g id="node10" class="node"><title>Node9</title>
<polygon fill="white" stroke="#bfbfbf" points="388.535,-56.5 388.535,-75.5 434.535,-75.5 434.535,-56.5 388.535,-56.5"/>
<text text-anchor="middle" x="411.535" y="-63.5" font-family="Helvetica,sans-Serif" font-size="10.00">stdio.h</text>
</g>
<!-- Node8&#45;&gt;Node9 -->
<g id="edge10" class="edge"><title>Node8&#45;&gt;Node9</title>
<path fill="none" stroke="midnightblue" d="M324.244,-112.324C340.847,-103.703 366.537,-90.3643 385.755,-80.3855"/>
<polygon fill="midnightblue" stroke="midnightblue" points="387.605,-83.3689 394.867,-75.6545 384.379,-77.1565 387.605,-83.3689"/>
</g>
<!-- Node10 -->
<g id="node11" class="node"><title>Node10</title>
<g id="a_node11"><a xlink:href="../../d2/d3c/docvisitor_8h.html" target="_top" xlink:title="docvisitor.h">
<polygon fill="white" stroke="black" points="453.035,-56.5 453.035,-75.5 520.035,-75.5 520.035,-56.5 453.035,-56.5"/>
<text text-anchor="middle" x="486.535" y="-63.5" font-family="Helvetica,sans-Serif" font-size="10.00">docvisitor.h</text>
</a>
</g>
</g>
<!-- Node8&#45;&gt;Node10 -->
<g id="edge13" class="edge"><title>Node8&#45;&gt;Node10</title>
<path fill="none" stroke="midnightblue" d="M335.898,-112.444C366.273,-103.28 414.644,-88.6876 448.351,-78.5192"/>
<polygon fill="midnightblue" stroke="midnightblue" points="449.741,-81.7555 458.304,-75.5164 447.72,-75.0538 449.741,-81.7555"/>
</g>
<!-- Node11 -->
<g id="node12" class="node"><title>Node11</title>
<g id="a_node12"><a xlink:href="../../d0/d73/htmlattrib_8h.html" target="_top" xlink:title="htmlattrib.h">
<polygon fill="white" stroke="black" points="267.035,-56.5 267.035,-75.5 332.035,-75.5 332.035,-56.5 267.035,-56.5"/>
<text text-anchor="middle" x="299.535" y="-63.5" font-family="Helvetica,sans-Serif" font-size="10.00">htmlattrib.h</text>
</a>
</g>
</g>
<!-- Node8&#45;&gt;Node11 -->
<g id="edge14" class="edge"><title>Node8&#45;&gt;Node11</title>
<path fill="none" stroke="midnightblue" d="M306.214,-112.083C305.154,-104.927 303.629,-94.6353 302.304,-85.6911"/>
<polygon fill="midnightblue" stroke="midnightblue" points="305.759,-85.1302 300.831,-75.7511 298.834,-86.1561 305.759,-85.1302"/>
</g>
<!-- Node11&#45;&gt;Node1 -->
<g id="edge16" class="edge"><title>Node11&#45;&gt;Node1</title>
<path fill="none" stroke="midnightblue" d="M280.837,-56.4435C261.59,-47.6356 231.382,-33.8116 209.335,-23.722"/>
<polygon fill="midnightblue" stroke="midnightblue" points="210.694,-20.4951 200.145,-19.5164 207.781,-26.8603 210.694,-20.4951"/>
</g>
<!-- Node11&#45;&gt;Node4 -->
<g id="edge15" class="edge"><title>Node11&#45;&gt;Node4</title>
<path fill="none" stroke="midnightblue" d="M299.535,-56.083C299.535,-49.0059 299.535,-38.8611 299.535,-29.9865"/>
<polygon fill="midnightblue" stroke="midnightblue" points="303.035,-29.751 299.535,-19.7511 296.035,-29.7511 303.035,-29.751"/>
</g>
</g>
</svg>
