<?xml version="1.0" encoding="UTF-8" standalone="no"?>
<!DOCTYPE svg PUBLIC "-//W3C//DTD SVG 1.1//EN"
 "http://www.w3.org/Graphics/SVG/1.1/DTD/svg11.dtd">
<!-- Generated by graphviz version 2.38.0 (20140413.2041)
 -->
<!-- Title: src/arguments.cpp Pages: 1 -->
<svg width="383pt" height="252pt"
 viewBox="0.00 0.00 383.10 252.00" xmlns="http://www.w3.org/2000/svg" xmlns:xlink="http://www.w3.org/1999/xlink">
<g id="graph0" class="graph" transform="scale(1 1) rotate(0) translate(4 248)">
<title>src/arguments.cpp</title>
<polygon fill="white" stroke="none" points="-4,4 -4,-248 379.103,-248 379.103,4 -4,4"/>
<!-- Node0 -->
<g id="node1" class="node"><title>Node0</title>
<polygon fill="#bfbfbf" stroke="black" points="107.103,-224.5 107.103,-243.5 205.103,-243.5 205.103,-224.5 107.103,-224.5"/>
<text text-anchor="middle" x="156.103" y="-231.5" font-family="Helvetica,sans-Serif" font-size="10.00">src/arguments.cpp</text>
</g>
<!-- Node1 -->
<g id="node2" class="node"><title>Node1</title>
<g id="a_node2"><a xlink:href="../../df/d9b/arguments_8h.html" target="_top" xlink:title="arguments.h">
<polygon fill="white" stroke="black" points="5.6035,-168.5 5.6035,-187.5 76.6035,-187.5 76.6035,-168.5 5.6035,-168.5"/>
<text text-anchor="middle" x="41.1035" y="-175.5" font-family="Helvetica,sans-Serif" font-size="10.00">arguments.h</text>
</a>
</g>
</g>
<!-- Node0&#45;&gt;Node1 -->
<g id="edge1" class="edge"><title>Node0&#45;&gt;Node1</title>
<path fill="none" stroke="midnightblue" d="M137.881,-224.444C119.208,-215.675 89.9475,-201.935 68.4861,-191.858"/>
<polygon fill="midnightblue" stroke="midnightblue" points="69.7798,-188.599 59.2403,-187.516 66.8044,-194.935 69.7798,-188.599"/>
</g>
<!-- Node4 -->
<g id="node5" class="node"><title>Node4</title>
<g id="a_node5"><a xlink:href="../../d9/de0/marshal_8h.html" target="_top" xlink:title="marshal.h">
<polygon fill="white" stroke="black" points="126.603,-168.5 126.603,-187.5 185.603,-187.5 185.603,-168.5 126.603,-168.5"/>
<text text-anchor="middle" x="156.103" y="-175.5" font-family="Helvetica,sans-Serif" font-size="10.00">marshal.h</text>
</a>
</g>
</g>
<!-- Node0&#45;&gt;Node4 -->
<g id="edge4" class="edge"><title>Node0&#45;&gt;Node4</title>
<path fill="none" stroke="midnightblue" d="M156.103,-224.083C156.103,-217.006 156.103,-206.861 156.103,-197.986"/>
<polygon fill="midnightblue" stroke="midnightblue" points="159.604,-197.751 156.103,-187.751 152.604,-197.751 159.604,-197.751"/>
</g>
<!-- Node14 -->
<g id="node15" class="node"><title>Node14</title>
<polygon fill="white" stroke="#bfbfbf" points="204.103,-168.5 204.103,-187.5 256.103,-187.5 256.103,-168.5 204.103,-168.5"/>
<text text-anchor="middle" x="230.103" y="-175.5" font-family="Helvetica,sans-Serif" font-size="10.00">assert.h</text>
</g>
<!-- Node0&#45;&gt;Node14 -->
<g id="edge18" class="edge"><title>Node0&#45;&gt;Node14</title>
<path fill="none" stroke="midnightblue" d="M167.993,-224.324C179.254,-216.107 196.39,-203.602 209.813,-193.807"/>
<polygon fill="midnightblue" stroke="midnightblue" points="211.983,-196.556 217.998,-187.834 207.857,-190.901 211.983,-196.556"/>
</g>
<!-- Node2 -->
<g id="node3" class="node"><title>Node2</title>
<polygon fill="white" stroke="#bfbfbf" points="9.6035,-56.5 9.6035,-75.5 52.6035,-75.5 52.6035,-56.5 9.6035,-56.5"/>
<text text-anchor="middle" x="31.1035" y="-63.5" font-family="Helvetica,sans-Serif" font-size="10.00">qlist.h</text>
</g>
<!-- Node1&#45;&gt;Node2 -->
<g id="edge2" class="edge"><title>Node1&#45;&gt;Node2</title>
<path fill="none" stroke="midnightblue" d="M30.1133,-168.365C20.6509,-160.171 7.66797,-146.917 2.1035,-132 -4.14262,-115.256 5.92425,-96.6853 15.8658,-83.696"/>
<polygon fill="midnightblue" stroke="midnightblue" points="18.8238,-85.613 22.5265,-75.6862 13.4415,-81.1373 18.8238,-85.613"/>
</g>
<!-- Node3 -->
<g id="node4" class="node"><title>Node3</title>
<polygon fill="white" stroke="#bfbfbf" points="11.6035,-112.5 11.6035,-131.5 70.6035,-131.5 70.6035,-112.5 11.6035,-112.5"/>
<text text-anchor="middle" x="41.1035" y="-119.5" font-family="Helvetica,sans-Serif" font-size="10.00">qcstring.h</text>
</g>
<!-- Node1&#45;&gt;Node3 -->
<g id="edge3" class="edge"><title>Node1&#45;&gt;Node3</title>
<path fill="none" stroke="midnightblue" d="M41.1035,-168.083C41.1035,-161.006 41.1035,-150.861 41.1035,-141.986"/>
<polygon fill="midnightblue" stroke="midnightblue" points="44.6036,-141.751 41.1035,-131.751 37.6036,-141.751 44.6036,-141.751"/>
</g>
<!-- Node4&#45;&gt;Node2 -->
<g id="edge5" class="edge"><title>Node4&#45;&gt;Node2</title>
<path fill="none" stroke="midnightblue" d="M146.295,-168.368C125.21,-149.814 75.3227,-105.913 48.6462,-82.4376"/>
<polygon fill="midnightblue" stroke="midnightblue" points="50.6858,-79.5702 40.8665,-75.5914 46.0614,-84.8252 50.6858,-79.5702"/>
</g>
<!-- Node5 -->
<g id="node6" class="node"><title>Node5</title>
<polygon fill="white" stroke="#bfbfbf" points="267.603,-112.5 267.603,-131.5 310.603,-131.5 310.603,-112.5 267.603,-112.5"/>
<text text-anchor="middle" x="289.103" y="-119.5" font-family="Helvetica,sans-Serif" font-size="10.00">qfile.h</text>
</g>
<!-- Node4&#45;&gt;Node5 -->
<g id="edge6" class="edge"><title>Node4&#45;&gt;Node5</title>
<path fill="none" stroke="midnightblue" d="M177.178,-168.444C199.163,-159.517 233.838,-145.439 258.768,-135.317"/>
<polygon fill="midnightblue" stroke="midnightblue" points="260.179,-138.521 268.128,-131.516 257.546,-132.035 260.179,-138.521"/>
</g>
<!-- Node6 -->
<g id="node7" class="node"><title>Node6</title>
<g id="a_node7"><a xlink:href="../../d9/d21/sortdict_8h.html" target="_top" xlink:title="sortdict.h">
<polygon fill="white" stroke="black" points="127.603,-112.5 127.603,-131.5 184.603,-131.5 184.603,-112.5 127.603,-112.5"/>
<text text-anchor="middle" x="156.103" y="-119.5" font-family="Helvetica,sans-Serif" font-size="10.00">sortdict.h</text>
</a>
</g>
</g>
<!-- Node4&#45;&gt;Node6 -->
<g id="edge7" class="edge"><title>Node4&#45;&gt;Node6</title>
<path fill="none" stroke="midnightblue" d="M156.103,-168.083C156.103,-161.006 156.103,-150.861 156.103,-141.986"/>
<polygon fill="midnightblue" stroke="midnightblue" points="159.604,-141.751 156.103,-131.751 152.604,-141.751 159.604,-141.751"/>
</g>
<!-- Node9 -->
<g id="node10" class="node"><title>Node9</title>
<g id="a_node10"><a xlink:href="../../d5/d3f/store_8h.html" target="_top" xlink:title="store.h">
<polygon fill="white" stroke="black" points="202.603,-112.5 202.603,-131.5 249.603,-131.5 249.603,-112.5 202.603,-112.5"/>
<text text-anchor="middle" x="226.103" y="-119.5" font-family="Helvetica,sans-Serif" font-size="10.00">store.h</text>
</a>
</g>
</g>
<!-- Node4&#45;&gt;Node9 -->
<g id="edge11" class="edge"><title>Node4&#45;&gt;Node9</title>
<path fill="none" stroke="midnightblue" d="M167.35,-168.324C177.901,-160.185 193.904,-147.839 206.546,-138.087"/>
<polygon fill="midnightblue" stroke="midnightblue" points="208.872,-140.713 214.652,-131.834 204.596,-135.171 208.872,-140.713"/>
</g>
<!-- Node6&#45;&gt;Node2 -->
<g id="edge8" class="edge"><title>Node6&#45;&gt;Node2</title>
<path fill="none" stroke="midnightblue" d="M136.297,-112.444C115.817,-103.596 83.6208,-89.6875 60.2388,-79.5865"/>
<polygon fill="midnightblue" stroke="midnightblue" points="61.3855,-76.2692 50.8175,-75.5164 58.6094,-82.6953 61.3855,-76.2692"/>
</g>
<!-- Node7 -->
<g id="node8" class="node"><title>Node7</title>
<polygon fill="white" stroke="#bfbfbf" points="71.1035,-56.5 71.1035,-75.5 117.103,-75.5 117.103,-56.5 71.1035,-56.5"/>
<text text-anchor="middle" x="94.1035" y="-63.5" font-family="Helvetica,sans-Serif" font-size="10.00">qdict.h</text>
</g>
<!-- Node6&#45;&gt;Node7 -->
<g id="edge9" class="edge"><title>Node6&#45;&gt;Node7</title>
<path fill="none" stroke="midnightblue" d="M146.142,-112.324C136.977,-104.341 123.166,-92.3128 112.075,-82.6529"/>
<polygon fill="midnightblue" stroke="midnightblue" points="114.086,-79.7624 104.246,-75.8339 109.488,-85.041 114.086,-79.7624"/>
</g>
<!-- Node8 -->
<g id="node9" class="node"><title>Node8</title>
<polygon fill="white" stroke="#bfbfbf" points="135.103,-56.5 135.103,-75.5 191.103,-75.5 191.103,-56.5 135.103,-56.5"/>
<text text-anchor="middle" x="163.103" y="-63.5" font-family="Helvetica,sans-Serif" font-size="10.00">qintdict.h</text>
</g>
<!-- Node6&#45;&gt;Node8 -->
<g id="edge10" class="edge"><title>Node6&#45;&gt;Node8</title>
<path fill="none" stroke="midnightblue" d="M157.259,-112.083C158.187,-104.927 159.521,-94.6353 160.681,-85.6911"/>
<polygon fill="midnightblue" stroke="midnightblue" points="164.154,-86.1181 161.969,-75.7511 157.213,-85.2181 164.154,-86.1181"/>
</g>
<!-- Node10 -->
<g id="node11" class="node"><title>Node10</title>
<polygon fill="white" stroke="#bfbfbf" points="169.103,-0.5 169.103,-19.5 225.103,-19.5 225.103,-0.5 169.103,-0.5"/>
<text text-anchor="middle" x="197.103" y="-7.5" font-family="Helvetica,sans-Serif" font-size="10.00">qglobal.h</text>
</g>
<!-- Node9&#45;&gt;Node10 -->
<g id="edge12" class="edge"><title>Node9&#45;&gt;Node10</title>
<path fill="none" stroke="midnightblue" d="M223.828,-112.368C219.127,-94.5366 208.254,-53.2953 201.921,-29.2717"/>
<polygon fill="midnightblue" stroke="midnightblue" points="205.302,-28.3688 199.369,-19.5914 198.533,-30.1533 205.302,-28.3688"/>
</g>
<!-- Node11 -->
<g id="node12" class="node"><title>Node11</title>
<polygon fill="white" stroke="#bfbfbf" points="329.103,-0.5 329.103,-19.5 375.103,-19.5 375.103,-0.5 329.103,-0.5"/>
<text text-anchor="middle" x="352.103" y="-7.5" font-family="Helvetica,sans-Serif" font-size="10.00">stdio.h</text>
</g>
<!-- Node9&#45;&gt;Node11 -->
<g id="edge13" class="edge"><title>Node9&#45;&gt;Node11</title>
<path fill="none" stroke="midnightblue" d="M249.957,-113.309C269.333,-106.112 296.417,-93.7863 315.103,-76 328.894,-62.8736 339.025,-43.4605 345.165,-29.2683"/>
<polygon fill="midnightblue" stroke="midnightblue" points="348.561,-30.206 349.076,-19.6237 342.075,-27.5752 348.561,-30.206"/>
</g>
<!-- Node12 -->
<g id="node13" class="node"><title>Node12</title>
<g id="a_node13"><a xlink:href="../../d2/de2/portable_8h.html" target="_top" xlink:title="Portable versions of functions that are platform dependent. ">
<polygon fill="white" stroke="black" points="247.603,-56.5 247.603,-75.5 306.603,-75.5 306.603,-56.5 247.603,-56.5"/>
<text text-anchor="middle" x="277.103" y="-63.5" font-family="Helvetica,sans-Serif" font-size="10.00">portable.h</text>
</a>
</g>
</g>
<!-- Node9&#45;&gt;Node12 -->
<g id="edge14" class="edge"><title>Node9&#45;&gt;Node12</title>
<path fill="none" stroke="midnightblue" d="M234.525,-112.083C241.952,-104.22 252.955,-92.5688 261.916,-83.0813"/>
<polygon fill="midnightblue" stroke="midnightblue" points="264.517,-85.4244 268.839,-75.7511 259.428,-80.618 264.517,-85.4244"/>
</g>
<!-- Node12&#45;&gt;Node10 -->
<g id="edge17" class="edge"><title>Node12&#45;&gt;Node10</title>
<path fill="none" stroke="midnightblue" d="M264.25,-56.324C251.887,-47.979 232.973,-35.2122 218.366,-25.3524"/>
<polygon fill="midnightblue" stroke="midnightblue" points="220.172,-22.3483 209.925,-19.6545 216.255,-28.1503 220.172,-22.3483"/>
</g>
<!-- Node12&#45;&gt;Node11 -->
<g id="edge16" class="edge"><title>Node12&#45;&gt;Node11</title>
<path fill="none" stroke="midnightblue" d="M289.154,-56.324C300.567,-48.1066 317.934,-35.6017 331.538,-25.8069"/>
<polygon fill="midnightblue" stroke="midnightblue" points="333.764,-28.5174 339.834,-19.8339 329.674,-22.8366 333.764,-28.5174"/>
</g>
<!-- Node13 -->
<g id="node14" class="node"><title>Node13</title>
<polygon fill="white" stroke="#bfbfbf" points="243.103,-0.5 243.103,-19.5 311.103,-19.5 311.103,-0.5 243.103,-0.5"/>
<text text-anchor="middle" x="277.103" y="-7.5" font-family="Helvetica,sans-Serif" font-size="10.00">sys/types.h</text>
</g>
<!-- Node12&#45;&gt;Node13 -->
<g id="edge15" class="edge"><title>Node12&#45;&gt;Node13</title>
<path fill="none" stroke="midnightblue" d="M277.103,-56.083C277.103,-49.0059 277.103,-38.8611 277.103,-29.9865"/>
<polygon fill="midnightblue" stroke="midnightblue" points="280.604,-29.751 277.103,-19.7511 273.604,-29.7511 280.604,-29.751"/>
</g>
</g>
</svg>
