<?xml version="1.0" encoding="UTF-8" standalone="no"?>
<!DOCTYPE svg PUBLIC "-//W3C//DTD SVG 1.1//EN"
 "http://www.w3.org/Graphics/SVG/1.1/DTD/svg11.dtd">
<!-- Generated by graphviz version 2.38.0 (20140413.2041)
 -->
<!-- Title: src/textdocvisitor.h Pages: 1 -->
<svg width="644pt" height="196pt"
 viewBox="0.00 0.00 644.00 196.00" xmlns="http://www.w3.org/2000/svg" xmlns:xlink="http://www.w3.org/1999/xlink">
<g id="graph0" class="graph" transform="scale(1 1) rotate(0) translate(4 192)">
<title>src/textdocvisitor.h</title>
<polygon fill="white" stroke="none" points="-4,4 -4,-192 640,-192 640,4 -4,4"/>
<!-- Node0 -->
<g id="node1" class="node"><title>Node0</title>
<polygon fill="#bfbfbf" stroke="black" points="344,-168.5 344,-187.5 444,-187.5 444,-168.5 344,-168.5"/>
<text text-anchor="middle" x="394" y="-175.5" font-family="Helvetica,sans-Serif" font-size="10.00">src/textdocvisitor.h</text>
</g>
<!-- Node1 -->
<g id="node2" class="node"><title>Node1</title>
<g id="a_node2"><a xlink:href="../../d2/d3c/docvisitor_8h.html" target="_top" xlink:title="docvisitor.h">
<polygon fill="white" stroke="black" points="298.5,-56.5 298.5,-75.5 365.5,-75.5 365.5,-56.5 298.5,-56.5"/>
<text text-anchor="middle" x="332" y="-63.5" font-family="Helvetica,sans-Serif" font-size="10.00">docvisitor.h</text>
</a>
</g>
</g>
<!-- Node0&#45;&gt;Node1 -->
<g id="edge1" class="edge"><title>Node0&#45;&gt;Node1</title>
<path fill="none" stroke="midnightblue" d="M383.3,-168.448C373.552,-160.116 359.428,-146.599 351,-132 342.643,-117.522 337.708,-99.0749 334.971,-85.534"/>
<polygon fill="midnightblue" stroke="midnightblue" points="338.383,-84.7284 333.163,-75.5084 331.494,-85.9708 338.383,-84.7284"/>
</g>
<!-- Node2 -->
<g id="node3" class="node"><title>Node2</title>
<g id="a_node3"><a xlink:href="../../de/d9c/docparser_8h.html" target="_top" xlink:title="docparser.h">
<polygon fill="white" stroke="black" points="360,-112.5 360,-131.5 428,-131.5 428,-112.5 360,-112.5"/>
<text text-anchor="middle" x="394" y="-119.5" font-family="Helvetica,sans-Serif" font-size="10.00">docparser.h</text>
</a>
</g>
</g>
<!-- Node0&#45;&gt;Node2 -->
<g id="edge2" class="edge"><title>Node0&#45;&gt;Node2</title>
<path fill="none" stroke="midnightblue" d="M394,-168.083C394,-161.006 394,-150.861 394,-141.986"/>
<polygon fill="midnightblue" stroke="midnightblue" points="397.5,-141.751 394,-131.751 390.5,-141.751 397.5,-141.751"/>
</g>
<!-- Node5 -->
<g id="node6" class="node"><title>Node5</title>
<polygon fill="white" stroke="#bfbfbf" points="486.5,-0.5 486.5,-19.5 545.5,-19.5 545.5,-0.5 486.5,-0.5"/>
<text text-anchor="middle" x="516" y="-7.5" font-family="Helvetica,sans-Serif" font-size="10.00">qcstring.h</text>
</g>
<!-- Node0&#45;&gt;Node5 -->
<g id="edge11" class="edge"><title>Node0&#45;&gt;Node5</title>
<path fill="none" stroke="midnightblue" d="M412.413,-168.391C440.862,-153.93 494.466,-121.783 516,-76 522.754,-61.64 522.088,-43.4427 520.116,-29.957"/>
<polygon fill="midnightblue" stroke="midnightblue" points="523.523,-29.1345 518.286,-19.9249 516.637,-30.3906 523.523,-29.1345"/>
</g>
<!-- Node7 -->
<g id="node8" class="node"><title>Node7</title>
<polygon fill="white" stroke="#bfbfbf" points="582,-112.5 582,-131.5 636,-131.5 636,-112.5 582,-112.5"/>
<text text-anchor="middle" x="609" y="-119.5" font-family="Helvetica,sans-Serif" font-size="10.00">qstack.h</text>
</g>
<!-- Node0&#45;&gt;Node7 -->
<g id="edge10" class="edge"><title>Node0&#45;&gt;Node7</title>
<path fill="none" stroke="midnightblue" d="M428.067,-168.444C467.364,-158.574 531.736,-142.406 572.166,-132.251"/>
<polygon fill="midnightblue" stroke="midnightblue" points="573.053,-135.637 581.899,-129.807 571.348,-128.848 573.053,-135.637"/>
</g>
<!-- Node8 -->
<g id="node9" class="node"><title>Node8</title>
<g id="a_node9"><a xlink:href="../../df/d83/ftextstream_8h.html" target="_top" xlink:title="ftextstream.h">
<polygon fill="white" stroke="black" points="149,-112.5 149,-131.5 223,-131.5 223,-112.5 149,-112.5"/>
<text text-anchor="middle" x="186" y="-119.5" font-family="Helvetica,sans-Serif" font-size="10.00">ftextstream.h</text>
</a>
</g>
</g>
<!-- Node0&#45;&gt;Node8 -->
<g id="edge12" class="edge"><title>Node0&#45;&gt;Node8</title>
<path fill="none" stroke="midnightblue" d="M361.042,-168.444C325.213,-159.142 267.837,-144.246 228.609,-134.062"/>
<polygon fill="midnightblue" stroke="midnightblue" points="229.363,-130.642 218.804,-131.516 227.604,-137.417 229.363,-130.642"/>
</g>
<!-- Node2&#45;&gt;Node1 -->
<g id="edge6" class="edge"><title>Node2&#45;&gt;Node1</title>
<path fill="none" stroke="midnightblue" d="M384.039,-112.324C374.873,-104.341 361.063,-92.3128 349.972,-82.6529"/>
<polygon fill="midnightblue" stroke="midnightblue" points="351.982,-79.7624 342.143,-75.8339 347.385,-85.041 351.982,-79.7624"/>
</g>
<!-- Node3 -->
<g id="node4" class="node"><title>Node3</title>
<polygon fill="white" stroke="#bfbfbf" points="234,-56.5 234,-75.5 280,-75.5 280,-56.5 234,-56.5"/>
<text text-anchor="middle" x="257" y="-63.5" font-family="Helvetica,sans-Serif" font-size="10.00">stdio.h</text>
</g>
<!-- Node2&#45;&gt;Node3 -->
<g id="edge3" class="edge"><title>Node2&#45;&gt;Node3</title>
<path fill="none" stroke="midnightblue" d="M372.292,-112.444C349.645,-103.517 313.928,-89.4387 288.248,-79.3168"/>
<polygon fill="midnightblue" stroke="midnightblue" points="289.193,-75.9273 278.606,-75.5164 286.626,-82.4397 289.193,-75.9273"/>
</g>
<!-- Node4 -->
<g id="node5" class="node"><title>Node4</title>
<polygon fill="white" stroke="#bfbfbf" points="398.5,-0.5 398.5,-19.5 441.5,-19.5 441.5,-0.5 398.5,-0.5"/>
<text text-anchor="middle" x="420" y="-7.5" font-family="Helvetica,sans-Serif" font-size="10.00">qlist.h</text>
</g>
<!-- Node2&#45;&gt;Node4 -->
<g id="edge4" class="edge"><title>Node2&#45;&gt;Node4</title>
<path fill="none" stroke="midnightblue" d="M396.04,-112.368C400.236,-94.617 409.915,-53.6664 415.604,-29.5974"/>
<polygon fill="midnightblue" stroke="midnightblue" points="419.075,-30.1284 417.969,-19.5914 412.263,-28.5182 419.075,-30.1284"/>
</g>
<!-- Node2&#45;&gt;Node5 -->
<g id="edge5" class="edge"><title>Node2&#45;&gt;Node5</title>
<path fill="none" stroke="midnightblue" d="M428.138,-114.017C450.669,-107.714 479.21,-96.2165 497,-76 508.276,-63.1854 512.874,-43.9991 514.741,-29.7902"/>
<polygon fill="midnightblue" stroke="midnightblue" points="518.239,-29.9716 515.728,-19.6788 511.273,-29.2912 518.239,-29.9716"/>
</g>
<!-- Node6 -->
<g id="node7" class="node"><title>Node6</title>
<g id="a_node7"><a xlink:href="../../d0/d73/htmlattrib_8h.html" target="_top" xlink:title="htmlattrib.h">
<polygon fill="white" stroke="black" points="422.5,-56.5 422.5,-75.5 487.5,-75.5 487.5,-56.5 422.5,-56.5"/>
<text text-anchor="middle" x="455" y="-63.5" font-family="Helvetica,sans-Serif" font-size="10.00">htmlattrib.h</text>
</a>
</g>
</g>
<!-- Node2&#45;&gt;Node6 -->
<g id="edge7" class="edge"><title>Node2&#45;&gt;Node6</title>
<path fill="none" stroke="midnightblue" d="M403.801,-112.324C412.818,-104.341 426.406,-92.3128 437.318,-82.6529"/>
<polygon fill="midnightblue" stroke="midnightblue" points="439.853,-85.083 445.021,-75.8339 435.213,-79.8416 439.853,-85.083"/>
</g>
<!-- Node6&#45;&gt;Node4 -->
<g id="edge9" class="edge"><title>Node6&#45;&gt;Node4</title>
<path fill="none" stroke="midnightblue" d="M449.22,-56.083C444.328,-48.5341 437.173,-37.4948 431.167,-28.2298"/>
<polygon fill="midnightblue" stroke="midnightblue" points="434.048,-26.239 425.672,-19.7511 428.174,-30.0463 434.048,-26.239"/>
</g>
<!-- Node6&#45;&gt;Node5 -->
<g id="edge8" class="edge"><title>Node6&#45;&gt;Node5</title>
<path fill="none" stroke="midnightblue" d="M464.801,-56.324C473.818,-48.3414 487.406,-36.3128 498.318,-26.6529"/>
<polygon fill="midnightblue" stroke="midnightblue" points="500.853,-29.083 506.021,-19.8339 496.213,-23.8416 500.853,-29.083"/>
</g>
<!-- Node8&#45;&gt;Node3 -->
<g id="edge13" class="edge"><title>Node8&#45;&gt;Node3</title>
<path fill="none" stroke="midnightblue" d="M197.407,-112.324C208.109,-104.185 224.341,-91.8395 237.163,-82.0874"/>
<polygon fill="midnightblue" stroke="midnightblue" points="239.544,-84.6734 245.385,-75.8339 235.307,-79.1018 239.544,-84.6734"/>
</g>
<!-- Node9 -->
<g id="node10" class="node"><title>Node9</title>
<polygon fill="white" stroke="#bfbfbf" points="0,-56.5 0,-75.5 66,-75.5 66,-56.5 0,-56.5"/>
<text text-anchor="middle" x="33" y="-63.5" font-family="Helvetica,sans-Serif" font-size="10.00">qiodevice.h</text>
</g>
<!-- Node8&#45;&gt;Node9 -->
<g id="edge14" class="edge"><title>Node8&#45;&gt;Node9</title>
<path fill="none" stroke="midnightblue" d="M161.757,-112.444C136.129,-103.399 95.5148,-89.064 66.7616,-78.9158"/>
<polygon fill="midnightblue" stroke="midnightblue" points="67.7247,-75.5442 57.1299,-75.5164 65.3949,-82.1452 67.7247,-75.5442"/>
</g>
<!-- Node10 -->
<g id="node11" class="node"><title>Node10</title>
<polygon fill="white" stroke="#bfbfbf" points="84,-56.5 84,-75.5 138,-75.5 138,-56.5 84,-56.5"/>
<text text-anchor="middle" x="111" y="-63.5" font-family="Helvetica,sans-Serif" font-size="10.00">qstring.h</text>
</g>
<!-- Node8&#45;&gt;Node10 -->
<g id="edge15" class="edge"><title>Node8&#45;&gt;Node10</title>
<path fill="none" stroke="midnightblue" d="M173.95,-112.324C162.537,-104.107 145.169,-91.6017 131.565,-81.8069"/>
<polygon fill="midnightblue" stroke="midnightblue" points="133.43,-78.8366 123.269,-75.8339 129.34,-84.5174 133.43,-78.8366"/>
</g>
<!-- Node11 -->
<g id="node12" class="node"><title>Node11</title>
<polygon fill="white" stroke="#bfbfbf" points="156.5,-56.5 156.5,-75.5 215.5,-75.5 215.5,-56.5 156.5,-56.5"/>
<text text-anchor="middle" x="186" y="-63.5" font-family="Helvetica,sans-Serif" font-size="10.00">qgstring.h</text>
</g>
<!-- Node8&#45;&gt;Node11 -->
<g id="edge16" class="edge"><title>Node8&#45;&gt;Node11</title>
<path fill="none" stroke="midnightblue" d="M186,-112.083C186,-105.006 186,-94.8611 186,-85.9865"/>
<polygon fill="midnightblue" stroke="midnightblue" points="189.5,-85.751 186,-75.7511 182.5,-85.7511 189.5,-85.751"/>
</g>
</g>
</svg>
