<?xml version="1.0" encoding="UTF-8" standalone="no"?>
<!DOCTYPE svg PUBLIC "-//W3C//DTD SVG 1.1//EN"
 "http://www.w3.org/Graphics/SVG/1.1/DTD/svg11.dtd">
<!-- Generated by graphviz version 2.38.0 (20140413.2041)
 -->
<!-- Title: TemplateNodeIf Pages: 1 -->
<svg width="324pt" height="230pt"
 viewBox="0.00 0.00 324.00 230.00" xmlns="http://www.w3.org/2000/svg" xmlns:xlink="http://www.w3.org/1999/xlink">
<g id="graph0" class="graph" transform="scale(1 1) rotate(0) translate(4 226)">
<title>TemplateNodeIf</title>
<polygon fill="white" stroke="none" points="-4,4 -4,-226 320,-226 320,4 -4,4"/>
<!-- Node4 -->
<g id="node1" class="node"><title>Node4</title>
<polygon fill="#bfbfbf" stroke="black" points="144,-0.5 144,-19.5 230,-19.5 230,-0.5 144,-0.5"/>
<text text-anchor="middle" x="187" y="-7.5" font-family="Helvetica,sans-Serif" font-size="10.00">TemplateNodeIf</text>
</g>
<!-- Node5 -->
<g id="node2" class="node"><title>Node5</title>
<g id="a_node2"><a xlink:href="../../d8/d78/class_template_node_creator.html" target="_top" xlink:title="TemplateNodeCreator\l\&lt; TemplateNodeIf \&gt;">
<polygon fill="white" stroke="black" points="50.5,-67.5 50.5,-97.5 163.5,-97.5 163.5,-67.5 50.5,-67.5"/>
<text text-anchor="start" x="58.5" y="-85.5" font-family="Helvetica,sans-Serif" font-size="10.00">TemplateNodeCreator</text>
<text text-anchor="middle" x="107" y="-74.5" font-family="Helvetica,sans-Serif" font-size="10.00">&lt; TemplateNodeIf &gt;</text>
</a>
</g>
</g>
<!-- Node5&#45;&gt;Node4 -->
<g id="edge1" class="edge"><title>Node5&#45;&gt;Node4</title>
<path fill="none" stroke="midnightblue" d="M130.818,-60.5106C146.191,-46.9628 165.4,-30.0348 176.908,-19.8932"/>
<polygon fill="midnightblue" stroke="midnightblue" points="128.378,-57.9958 123.189,-67.2333 133.006,-63.2476 128.378,-57.9958"/>
</g>
<!-- Node6 -->
<g id="node3" class="node"><title>Node6</title>
<g id="a_node3"><a xlink:href="../../d6/d53/class_template_node.html" target="_top" xlink:title="Base class of all nodes in a template&#39;s AST. ">
<polygon fill="white" stroke="black" points="0,-202.5 0,-221.5 80,-221.5 80,-202.5 0,-202.5"/>
<text text-anchor="middle" x="40" y="-209.5" font-family="Helvetica,sans-Serif" font-size="10.00">TemplateNode</text>
</a>
</g>
</g>
<!-- Node6&#45;&gt;Node5 -->
<g id="edge2" class="edge"><title>Node6&#45;&gt;Node5</title>
<path fill="none" stroke="midnightblue" d="M31.4471,-193.092C26.1569,-179.325 21.6482,-160.159 29,-145 39.1589,-124.053 60.2945,-108.096 78.0046,-97.6913"/>
<polygon fill="midnightblue" stroke="midnightblue" points="28.291,-194.613 35.4614,-202.412 34.72,-191.843 28.291,-194.613"/>
</g>
<!-- Node6&#45;&gt;Node6 -->
<g id="edge3" class="edge"><title>Node6&#45;&gt;Node6</title>
<path fill="none" stroke="#9a32cd" stroke-dasharray="5,2" d="M90.2648,-216.218C95.0048,-215.354 98,-213.948 98,-212 98,-208.883 90.3323,-207.154 80.1186,-206.813"/>
<polygon fill="#9a32cd" stroke="#9a32cd" points="89.7405,-212.752 80.1186,-217.187 90.4062,-219.72 89.7405,-212.752"/>
<text text-anchor="middle" x="120" y="-209.5" font-family="Helvetica,sans-Serif" font-size="10.00"> m_parent</text>
</g>
<!-- Node7 -->
<g id="node4" class="node"><title>Node7</title>
<g id="a_node4"><a xlink:href="../../d8/d78/class_template_node_creator.html" target="_top" xlink:title="Helper class for creating template AST tag nodes and returning the template for a given node...">
<polygon fill="white" stroke="black" points="38.5,-145.5 38.5,-164.5 175.5,-164.5 175.5,-145.5 38.5,-145.5"/>
<text text-anchor="middle" x="107" y="-152.5" font-family="Helvetica,sans-Serif" font-size="10.00">TemplateNodeCreator&lt; T &gt;</text>
</a>
</g>
</g>
<!-- Node6&#45;&gt;Node7 -->
<g id="edge5" class="edge"><title>Node6&#45;&gt;Node7</title>
<path fill="none" stroke="midnightblue" d="M58.2748,-195.998C70.501,-185.962 86.1637,-173.104 96.3837,-164.715"/>
<polygon fill="midnightblue" stroke="midnightblue" points="55.9773,-193.356 50.4688,-202.406 60.4188,-198.767 55.9773,-193.356"/>
</g>
<!-- Node7&#45;&gt;Node5 -->
<g id="edge4" class="edge"><title>Node7&#45;&gt;Node5</title>
<path fill="none" stroke="orange" stroke-dasharray="5,2" d="M107,-135.236C107,-123.408 107,-108.383 107,-97.5762"/>
<polygon fill="orange" stroke="orange" points="103.5,-135.355 107,-145.355 110.5,-135.355 103.5,-135.355"/>
<text text-anchor="middle" x="152.5" y="-119" font-family="Helvetica,sans-Serif" font-size="10.00"> &lt; TemplateNodeIf &gt;</text>
</g>
<!-- Node8 -->
<g id="node5" class="node"><title>Node8</title>
<g id="a_node5"><a xlink:href="../../df/daf/class_template_node_list.html" target="_top" xlink:title="Class representing a list of AST nodes in a template. ">
<polygon fill="white" stroke="black" points="194,-73 194,-92 290,-92 290,-73 194,-73"/>
<text text-anchor="middle" x="242" y="-80" font-family="Helvetica,sans-Serif" font-size="10.00">TemplateNodeList</text>
</a>
</g>
</g>
<!-- Node8&#45;&gt;Node4 -->
<g id="edge6" class="edge"><title>Node8&#45;&gt;Node4</title>
<path fill="none" stroke="#9a32cd" stroke-dasharray="5,2" d="M229.047,-64.8971C218.005,-50.7431 202.569,-30.9566 193.799,-19.7154"/>
<polygon fill="#9a32cd" stroke="#9a32cd" points="226.345,-67.1237 235.256,-72.8553 231.864,-62.8179 226.345,-67.1237"/>
<text text-anchor="middle" x="250.5" y="-41" font-family="Helvetica,sans-Serif" font-size="10.00"> m_falseNodes</text>
</g>
<!-- Node9 -->
<g id="node6" class="node"><title>Node9</title>
<polygon fill="white" stroke="#bfbfbf" points="194,-145.5 194,-164.5 316,-164.5 316,-145.5 194,-145.5"/>
<text text-anchor="middle" x="255" y="-152.5" font-family="Helvetica,sans-Serif" font-size="10.00">QList&lt; TemplateNode &gt;</text>
</g>
<!-- Node9&#45;&gt;Node8 -->
<g id="edge7" class="edge"><title>Node9&#45;&gt;Node8</title>
<path fill="none" stroke="midnightblue" d="M251.562,-135.358C248.988,-121.395 245.582,-102.926 243.607,-92.2154"/>
<polygon fill="midnightblue" stroke="midnightblue" points="248.15,-136.156 253.406,-145.355 255.034,-134.886 248.15,-136.156"/>
</g>
</g>
</svg>
