<?xml version="1.0" encoding="UTF-8" standalone="no"?>
<!DOCTYPE svg PUBLIC "-//W3C//DTD SVG 1.1//EN"
 "http://www.w3.org/Graphics/SVG/1.1/DTD/svg11.dtd">
<!-- Generated by graphviz version 2.38.0 (20140413.2041)
 -->
<!-- Title: src/htmlgen.h Pages: 1 -->
<svg width="627pt" height="84pt"
 viewBox="0.00 0.00 626.50 84.00" xmlns="http://www.w3.org/2000/svg" xmlns:xlink="http://www.w3.org/1999/xlink">
<g id="graph0" class="graph" transform="scale(1 1) rotate(0) translate(4 80)">
<title>src/htmlgen.h</title>
<polygon fill="white" stroke="none" points="-4,4 -4,-80 622.5,-80 622.5,4 -4,4"/>
<!-- Node15 -->
<g id="node1" class="node"><title>Node15</title>
<polygon fill="#bfbfbf" stroke="black" points="268,-56.5 268,-75.5 344,-75.5 344,-56.5 268,-56.5"/>
<text text-anchor="middle" x="306" y="-63.5" font-family="Helvetica,sans-Serif" font-size="10.00">src/htmlgen.h</text>
</g>
<!-- Node16 -->
<g id="node2" class="node"><title>Node16</title>
<g id="a_node2"><a xlink:href="../../db/d12/context_8cpp.html" target="_top" xlink:title="src/context.cpp">
<polygon fill="white" stroke="black" points="0,-0.5 0,-19.5 84,-19.5 84,-0.5 0,-0.5"/>
<text text-anchor="middle" x="42" y="-7.5" font-family="Helvetica,sans-Serif" font-size="10.00">src/context.cpp</text>
</a>
</g>
</g>
<!-- Node15&#45;&gt;Node16 -->
<g id="edge1" class="edge"><title>Node15&#45;&gt;Node16</title>
<path fill="none" stroke="midnightblue" d="M257.997,-55.1812C208.135,-44.9822 130.919,-29.1881 83.5785,-19.5047"/>
<polygon fill="midnightblue" stroke="midnightblue" points="257.396,-58.6306 267.894,-57.2056 258.798,-51.7726 257.396,-58.6306"/>
</g>
<!-- Node17 -->
<g id="node3" class="node"><title>Node17</title>
<g id="a_node3"><a xlink:href="../../dc/d98/doxygen_8cpp.html" target="_top" xlink:title="src/doxygen.cpp">
<polygon fill="white" stroke="black" points="101.5,-0.5 101.5,-19.5 190.5,-19.5 190.5,-0.5 101.5,-0.5"/>
<text text-anchor="middle" x="146" y="-7.5" font-family="Helvetica,sans-Serif" font-size="10.00">src/doxygen.cpp</text>
</a>
</g>
</g>
<!-- Node15&#45;&gt;Node17 -->
<g id="edge2" class="edge"><title>Node15&#45;&gt;Node17</title>
<path fill="none" stroke="midnightblue" d="M270.954,-53.172C240.826,-43.0039 198.104,-28.5852 171.234,-19.5164"/>
<polygon fill="midnightblue" stroke="midnightblue" points="270.053,-56.5619 280.648,-56.4435 272.292,-49.9295 270.053,-56.5619"/>
</g>
<!-- Node18 -->
<g id="node4" class="node"><title>Node18</title>
<g id="a_node4"><a xlink:href="../../db/d41/ftvhelp_8cpp.html" target="_top" xlink:title="src/ftvhelp.cpp">
<polygon fill="white" stroke="black" points="208.5,-0.5 208.5,-19.5 289.5,-19.5 289.5,-0.5 208.5,-0.5"/>
<text text-anchor="middle" x="249" y="-7.5" font-family="Helvetica,sans-Serif" font-size="10.00">src/ftvhelp.cpp</text>
</a>
</g>
</g>
<!-- Node15&#45;&gt;Node18 -->
<g id="edge3" class="edge"><title>Node15&#45;&gt;Node18</title>
<path fill="none" stroke="midnightblue" d="M289.379,-49.2533C279.266,-39.6731 266.723,-27.7906 258.325,-19.8339"/>
<polygon fill="midnightblue" stroke="midnightblue" points="287.175,-51.9873 296.842,-56.324 291.99,-46.9056 287.175,-51.9873"/>
</g>
<!-- Node19 -->
<g id="node5" class="node"><title>Node19</title>
<g id="a_node5"><a xlink:href="../../da/db0/htmldocvisitor_8cpp.html" target="_top" xlink:title="src/htmldocvisitor.cpp">
<polygon fill="white" stroke="black" points="307.5,-0.5 307.5,-19.5 420.5,-19.5 420.5,-0.5 307.5,-0.5"/>
<text text-anchor="middle" x="364" y="-7.5" font-family="Helvetica,sans-Serif" font-size="10.00">src/htmldocvisitor.cpp</text>
</a>
</g>
</g>
<!-- Node15&#45;&gt;Node19 -->
<g id="edge4" class="edge"><title>Node15&#45;&gt;Node19</title>
<path fill="none" stroke="midnightblue" d="M322.913,-49.2533C333.203,-39.6731 345.966,-27.7906 354.512,-19.8339"/>
<polygon fill="midnightblue" stroke="midnightblue" points="320.253,-46.9481 315.319,-56.324 325.023,-52.0714 320.253,-46.9481"/>
</g>
<!-- Node20 -->
<g id="node6" class="node"><title>Node20</title>
<g id="a_node6"><a xlink:href="../../d8/d6e/htmlgen_8cpp.html" target="_top" xlink:title="src/htmlgen.cpp">
<polygon fill="white" stroke="black" points="439,-0.5 439,-19.5 525,-19.5 525,-0.5 439,-0.5"/>
<text text-anchor="middle" x="482" y="-7.5" font-family="Helvetica,sans-Serif" font-size="10.00">src/htmlgen.cpp</text>
</a>
</g>
</g>
<!-- Node15&#45;&gt;Node20 -->
<g id="edge5" class="edge"><title>Node15&#45;&gt;Node20</title>
<path fill="none" stroke="midnightblue" d="M343.689,-53.4363C376.872,-43.2551 424.428,-28.664 454.243,-19.5164"/>
<polygon fill="midnightblue" stroke="midnightblue" points="342.421,-50.1642 333.888,-56.4435 344.475,-56.8563 342.421,-50.1642"/>
</g>
<!-- Node21 -->
<g id="node7" class="node"><title>Node21</title>
<g id="a_node7"><a xlink:href="../../db/d14/index_8cpp.html" target="_top" xlink:title="This file contains functions for the various index pages. ">
<polygon fill="white" stroke="black" points="543.5,-0.5 543.5,-19.5 618.5,-19.5 618.5,-0.5 543.5,-0.5"/>
<text text-anchor="middle" x="581" y="-7.5" font-family="Helvetica,sans-Serif" font-size="10.00">src/index.cpp</text>
</a>
</g>
</g>
<!-- Node15&#45;&gt;Node21 -->
<g id="edge6" class="edge"><title>Node15&#45;&gt;Node21</title>
<path fill="none" stroke="midnightblue" d="M354.218,-55.5318C408,-44.9708 493.89,-28.1053 543.087,-18.4447"/>
<polygon fill="midnightblue" stroke="midnightblue" points="353.376,-52.1302 344.238,-57.4915 354.725,-58.999 353.376,-52.1302"/>
</g>
</g>
</svg>
