<?xml version="1.0" encoding="UTF-8" standalone="no"?>
<!DOCTYPE svg PUBLIC "-//W3C//DTD SVG 1.1//EN"
 "http://www.w3.org/Graphics/SVG/1.1/DTD/svg11.dtd">
<!-- Generated by graphviz version 2.38.0 (20140413.2041)
 -->
<!-- Title: src/docsets.cpp Pages: 1 -->
<svg width="1954pt" height="420pt"
 viewBox="0.00 0.00 1953.73 420.00" xmlns="http://www.w3.org/2000/svg" xmlns:xlink="http://www.w3.org/1999/xlink">
<g id="graph0" class="graph" transform="scale(1 1) rotate(0) translate(4 416)">
<title>src/docsets.cpp</title>
<polygon fill="white" stroke="none" points="-4,4 -4,-416 1949.73,-416 1949.73,4 -4,4"/>
<!-- Node0 -->
<g id="node1" class="node"><title>Node0</title>
<polygon fill="#bfbfbf" stroke="black" points="804.725,-392.5 804.725,-411.5 890.725,-411.5 890.725,-392.5 804.725,-392.5"/>
<text text-anchor="middle" x="847.725" y="-399.5" font-family="Helvetica,sans-Serif" font-size="10.00">src/docsets.cpp</text>
</g>
<!-- Node1 -->
<g id="node2" class="node"><title>Node1</title>
<polygon fill="white" stroke="#bfbfbf" points="296.225,-336.5 296.225,-355.5 339.225,-355.5 339.225,-336.5 296.225,-336.5"/>
<text text-anchor="middle" x="317.725" y="-343.5" font-family="Helvetica,sans-Serif" font-size="10.00">qfile.h</text>
</g>
<!-- Node0&#45;&gt;Node1 -->
<g id="edge1" class="edge"><title>Node0&#45;&gt;Node1</title>
<path fill="none" stroke="midnightblue" d="M804.486,-399.303C718.231,-395.426 518.871,-383.993 353.725,-356 352.256,-355.751 350.759,-355.474 349.25,-355.175"/>
<polygon fill="midnightblue" stroke="midnightblue" points="349.834,-351.719 339.313,-352.971 348.318,-358.553 349.834,-351.719"/>
</g>
<!-- Node2 -->
<g id="node3" class="node"><title>Node2</title>
<g id="a_node3"><a xlink:href="../../d1/db2/docsets_8h.html" target="_top" xlink:title="docsets.h">
<polygon fill="white" stroke="black" points="434.225,-224.5 434.225,-243.5 493.225,-243.5 493.225,-224.5 434.225,-224.5"/>
<text text-anchor="middle" x="463.725" y="-231.5" font-family="Helvetica,sans-Serif" font-size="10.00">docsets.h</text>
</a>
</g>
</g>
<!-- Node0&#45;&gt;Node2 -->
<g id="edge2" class="edge"><title>Node0&#45;&gt;Node2</title>
<path fill="none" stroke="midnightblue" d="M833.815,-392.294C798.936,-370.762 704.472,-314.279 619.725,-280 581.173,-264.406 535.245,-251.84 503.247,-243.991"/>
<polygon fill="midnightblue" stroke="midnightblue" points="503.916,-240.553 493.374,-241.611 502.275,-247.357 503.916,-240.553"/>
</g>
<!-- Node14 -->
<g id="node15" class="node"><title>Node14</title>
<g id="a_node15"><a xlink:href="../../db/d16/config_8h.html" target="_top" xlink:title="config.h">
<polygon fill="white" stroke="black" points="1660.23,-336.5 1660.23,-355.5 1711.23,-355.5 1711.23,-336.5 1660.23,-336.5"/>
<text text-anchor="middle" x="1685.73" y="-343.5" font-family="Helvetica,sans-Serif" font-size="10.00">config.h</text>
</a>
</g>
</g>
<!-- Node0&#45;&gt;Node14 -->
<g id="edge15" class="edge"><title>Node0&#45;&gt;Node14</title>
<path fill="none" stroke="midnightblue" d="M891.015,-398.21C1037.86,-388.748 1515.33,-357.98 1650.04,-349.299"/>
<polygon fill="midnightblue" stroke="midnightblue" points="1650.47,-352.779 1660.22,-348.643 1650.02,-345.794 1650.47,-352.779"/>
</g>
<!-- Node16 -->
<g id="node17" class="node"><title>Node16</title>
<g id="a_node17"><a xlink:href="../../d2/d0d/message_8h.html" target="_top" xlink:title="message.h">
<polygon fill="white" stroke="black" points="552.225,-336.5 552.225,-355.5 617.225,-355.5 617.225,-336.5 552.225,-336.5"/>
<text text-anchor="middle" x="584.725" y="-343.5" font-family="Helvetica,sans-Serif" font-size="10.00">message.h</text>
</a>
</g>
</g>
<!-- Node0&#45;&gt;Node16 -->
<g id="edge17" class="edge"><title>Node0&#45;&gt;Node16</title>
<path fill="none" stroke="midnightblue" d="M806.052,-392.444C757.236,-382.421 676.786,-365.902 627.5,-355.783"/>
<polygon fill="midnightblue" stroke="midnightblue" points="627.978,-352.308 617.479,-353.725 626.57,-359.165 627.978,-352.308"/>
</g>
<!-- Node18 -->
<g id="node19" class="node"><title>Node18</title>
<g id="a_node19"><a xlink:href="../../d1/da1/doxygen_8h.html" target="_top" xlink:title="doxygen.h">
<polygon fill="white" stroke="black" points="1477.73,-280.5 1477.73,-299.5 1539.73,-299.5 1539.73,-280.5 1477.73,-280.5"/>
<text text-anchor="middle" x="1508.73" y="-287.5" font-family="Helvetica,sans-Serif" font-size="10.00">doxygen.h</text>
</a>
</g>
</g>
<!-- Node0&#45;&gt;Node18 -->
<g id="edge20" class="edge"><title>Node0&#45;&gt;Node18</title>
<path fill="none" stroke="midnightblue" d="M890.844,-399.671C1001.77,-395.891 1294.82,-383.527 1387.73,-356 1425.67,-344.757 1465.27,-320.772 1488.43,-305.292"/>
<polygon fill="midnightblue" stroke="midnightblue" points="1490.45,-308.151 1496.75,-299.626 1486.51,-302.366 1490.45,-308.151"/>
</g>
<!-- Node27 -->
<g id="node28" class="node"><title>Node27</title>
<g id="a_node28"><a xlink:href="../../d4/d46/memberdef_8h.html" target="_top" xlink:title="memberdef.h">
<polygon fill="white" stroke="black" points="772.725,-168.5 772.725,-187.5 846.725,-187.5 846.725,-168.5 772.725,-168.5"/>
<text text-anchor="middle" x="809.725" y="-175.5" font-family="Helvetica,sans-Serif" font-size="10.00">memberdef.h</text>
</a>
</g>
</g>
<!-- Node0&#45;&gt;Node27 -->
<g id="edge65" class="edge"><title>Node0&#45;&gt;Node27</title>
<path fill="none" stroke="midnightblue" d="M844.609,-392.488C841.438,-383.523 836.594,-368.94 833.725,-356 821.11,-299.106 814.083,-230.363 811.238,-197.824"/>
<polygon fill="midnightblue" stroke="midnightblue" points="814.701,-197.235 810.376,-187.563 807.725,-197.821 814.701,-197.235"/>
</g>
<!-- Node29 -->
<g id="node30" class="node"><title>Node29</title>
<g id="a_node30"><a xlink:href="../../d1/de6/groupdef_8h.html" target="_top" xlink:title="groupdef.h">
<polygon fill="white" stroke="black" points="1325.73,-224.5 1325.73,-243.5 1387.73,-243.5 1387.73,-224.5 1325.73,-224.5"/>
<text text-anchor="middle" x="1356.73" y="-231.5" font-family="Helvetica,sans-Serif" font-size="10.00">groupdef.h</text>
</a>
</g>
</g>
<!-- Node0&#45;&gt;Node29 -->
<g id="edge49" class="edge"><title>Node0&#45;&gt;Node29</title>
<path fill="none" stroke="midnightblue" d="M890.87,-398.822C974.946,-394.071 1157.49,-381.137 1214.73,-356 1270.12,-331.671 1320.27,-278.429 1343.34,-251.417"/>
<polygon fill="midnightblue" stroke="midnightblue" points="1346.12,-253.553 1349.86,-243.639 1340.75,-249.06 1346.12,-253.553"/>
</g>
<!-- Node30 -->
<g id="node31" class="node"><title>Node30</title>
<g id="a_node31"><a xlink:href="../../d1/da6/classdef_8h.html" target="_top" xlink:title="classdef.h">
<polygon fill="white" stroke="black" points="864.725,-168.5 864.725,-187.5 926.725,-187.5 926.725,-168.5 864.725,-168.5"/>
<text text-anchor="middle" x="895.725" y="-175.5" font-family="Helvetica,sans-Serif" font-size="10.00">classdef.h</text>
</a>
</g>
</g>
<!-- Node0&#45;&gt;Node30 -->
<g id="edge52" class="edge"><title>Node0&#45;&gt;Node30</title>
<path fill="none" stroke="midnightblue" d="M849.607,-392.297C856.684,-359.563 881.806,-243.375 891.689,-197.666"/>
<polygon fill="midnightblue" stroke="midnightblue" points="895.112,-198.398 893.804,-187.884 888.27,-196.918 895.112,-198.398"/>
</g>
<!-- Node32 -->
<g id="node33" class="node"><title>Node32</title>
<g id="a_node33"><a xlink:href="../../d4/d3a/filedef_8h.html" target="_top" xlink:title="filedef.h">
<polygon fill="white" stroke="black" points="1001.23,-280.5 1001.23,-299.5 1052.23,-299.5 1052.23,-280.5 1001.23,-280.5"/>
<text text-anchor="middle" x="1026.73" y="-287.5" font-family="Helvetica,sans-Serif" font-size="10.00">filedef.h</text>
</a>
</g>
</g>
<!-- Node0&#45;&gt;Node32 -->
<g id="edge57" class="edge"><title>Node0&#45;&gt;Node32</title>
<path fill="none" stroke="midnightblue" d="M861.771,-392.368C892.618,-373.412 966.515,-328.001 1004.04,-304.942"/>
<polygon fill="midnightblue" stroke="midnightblue" points="1006.06,-307.809 1012.74,-299.591 1002.39,-301.845 1006.06,-307.809"/>
</g>
<!-- Node33 -->
<g id="node34" class="node"><title>Node33</title>
<g id="a_node34"><a xlink:href="../../d7/d97/namespacedef_8h.html" target="_top" xlink:title="namespacedef.h">
<polygon fill="white" stroke="black" points="1117.23,-336.5 1117.23,-355.5 1206.23,-355.5 1206.23,-336.5 1117.23,-336.5"/>
<text text-anchor="middle" x="1161.73" y="-343.5" font-family="Helvetica,sans-Serif" font-size="10.00">namespacedef.h</text>
</a>
</g>
</g>
<!-- Node0&#45;&gt;Node33 -->
<g id="edge66" class="edge"><title>Node0&#45;&gt;Node33</title>
<path fill="none" stroke="midnightblue" d="M890.727,-393.605C947.05,-383.919 1045.84,-366.929 1107.31,-356.358"/>
<polygon fill="midnightblue" stroke="midnightblue" points="1107.96,-359.798 1117.22,-354.654 1106.77,-352.9 1107.96,-359.798"/>
</g>
<!-- Node34 -->
<g id="node35" class="node"><title>Node34</title>
<g id="a_node35"><a xlink:href="../../d8/d3c/util_8h.html" target="_top" xlink:title="A bunch of utility functions. ">
<polygon fill="white" stroke="black" points="253.725,-224.5 253.725,-243.5 291.725,-243.5 291.725,-224.5 253.725,-224.5"/>
<text text-anchor="middle" x="272.725" y="-231.5" font-family="Helvetica,sans-Serif" font-size="10.00">util.h</text>
</a>
</g>
</g>
<!-- Node0&#45;&gt;Node34 -->
<g id="edge72" class="edge"><title>Node0&#45;&gt;Node34</title>
<path fill="none" stroke="midnightblue" d="M804.482,-397.483C744.857,-391.989 634.37,-379.48 542.725,-356 473.387,-338.235 456.86,-329.678 391.725,-300 357.458,-284.387 319.553,-262.907 295.935,-248.988"/>
<polygon fill="midnightblue" stroke="midnightblue" points="297.418,-245.798 287.033,-243.701 293.844,-251.817 297.418,-245.798"/>
</g>
<!-- Node3 -->
<g id="node4" class="node"><title>Node3</title>
<g id="a_node4"><a xlink:href="../../d9/d21/sortdict_8h.html" target="_top" xlink:title="sortdict.h">
<polygon fill="white" stroke="black" points="1269.23,-168.5 1269.23,-187.5 1326.23,-187.5 1326.23,-168.5 1269.23,-168.5"/>
<text text-anchor="middle" x="1297.73" y="-175.5" font-family="Helvetica,sans-Serif" font-size="10.00">sortdict.h</text>
</a>
</g>
</g>
<!-- Node2&#45;&gt;Node3 -->
<g id="edge3" class="edge"><title>Node2&#45;&gt;Node3</title>
<path fill="none" stroke="midnightblue" d="M493.408,-231.078C620.089,-222.876 1115.53,-190.797 1258.75,-181.524"/>
<polygon fill="midnightblue" stroke="midnightblue" points="1259.08,-185.01 1268.83,-180.871 1258.62,-178.024 1259.08,-185.01"/>
</g>
<!-- Node7 -->
<g id="node8" class="node"><title>Node7</title>
<g id="a_node8"><a xlink:href="../../df/d83/ftextstream_8h.html" target="_top" xlink:title="ftextstream.h">
<polygon fill="white" stroke="black" points="483.725,-168.5 483.725,-187.5 557.725,-187.5 557.725,-168.5 483.725,-168.5"/>
<text text-anchor="middle" x="520.725" y="-175.5" font-family="Helvetica,sans-Serif" font-size="10.00">ftextstream.h</text>
</a>
</g>
</g>
<!-- Node2&#45;&gt;Node7 -->
<g id="edge7" class="edge"><title>Node2&#45;&gt;Node7</title>
<path fill="none" stroke="midnightblue" d="M472.883,-224.324C481.227,-216.42 493.757,-204.548 503.902,-194.938"/>
<polygon fill="midnightblue" stroke="midnightblue" points="506.548,-197.252 511.4,-187.834 501.734,-192.171 506.548,-197.252"/>
</g>
<!-- Node12 -->
<g id="node13" class="node"><title>Node12</title>
<g id="a_node13"><a xlink:href="../../d1/db5/index_8h.html" target="_top" xlink:title="index.h">
<polygon fill="white" stroke="black" points="306.725,-168.5 306.725,-187.5 354.725,-187.5 354.725,-168.5 306.725,-168.5"/>
<text text-anchor="middle" x="330.725" y="-175.5" font-family="Helvetica,sans-Serif" font-size="10.00">index.h</text>
</a>
</g>
</g>
<!-- Node2&#45;&gt;Node12 -->
<g id="edge12" class="edge"><title>Node2&#45;&gt;Node12</title>
<path fill="none" stroke="midnightblue" d="M442.651,-224.444C420.665,-215.517 385.991,-201.439 361.061,-191.317"/>
<polygon fill="midnightblue" stroke="midnightblue" points="362.283,-188.035 351.701,-187.516 359.649,-194.521 362.283,-188.035"/>
</g>
<!-- Node4 -->
<g id="node5" class="node"><title>Node4</title>
<polygon fill="white" stroke="#bfbfbf" points="677.225,-56.5 677.225,-75.5 720.225,-75.5 720.225,-56.5 677.225,-56.5"/>
<text text-anchor="middle" x="698.725" y="-63.5" font-family="Helvetica,sans-Serif" font-size="10.00">qlist.h</text>
</g>
<!-- Node3&#45;&gt;Node4 -->
<g id="edge4" class="edge"><title>Node3&#45;&gt;Node4</title>
<path fill="none" stroke="midnightblue" d="M1288.78,-168.362C1273.06,-153.793 1238.8,-124.683 1203.73,-112 1115.96,-80.2682 827.1,-70.2294 730.506,-67.7178"/>
<polygon fill="midnightblue" stroke="midnightblue" points="730.559,-64.2181 720.474,-67.4663 730.383,-71.2159 730.559,-64.2181"/>
</g>
<!-- Node5 -->
<g id="node6" class="node"><title>Node5</title>
<polygon fill="white" stroke="#bfbfbf" points="1374.73,-56.5 1374.73,-75.5 1420.73,-75.5 1420.73,-56.5 1374.73,-56.5"/>
<text text-anchor="middle" x="1397.73" y="-63.5" font-family="Helvetica,sans-Serif" font-size="10.00">qdict.h</text>
</g>
<!-- Node3&#45;&gt;Node5 -->
<g id="edge5" class="edge"><title>Node3&#45;&gt;Node5</title>
<path fill="none" stroke="midnightblue" d="M1305.57,-168.368C1322.29,-149.974 1361.66,-106.671 1383.13,-83.0519"/>
<polygon fill="midnightblue" stroke="midnightblue" points="1385.78,-85.3452 1389.91,-75.5914 1380.6,-80.6365 1385.78,-85.3452"/>
</g>
<!-- Node6 -->
<g id="node7" class="node"><title>Node6</title>
<polygon fill="white" stroke="#bfbfbf" points="1369.73,-112.5 1369.73,-131.5 1425.73,-131.5 1425.73,-112.5 1369.73,-112.5"/>
<text text-anchor="middle" x="1397.73" y="-119.5" font-family="Helvetica,sans-Serif" font-size="10.00">qintdict.h</text>
</g>
<!-- Node3&#45;&gt;Node6 -->
<g id="edge6" class="edge"><title>Node3&#45;&gt;Node6</title>
<path fill="none" stroke="midnightblue" d="M1313.79,-168.324C1329.68,-159.743 1354.23,-146.486 1372.68,-136.522"/>
<polygon fill="midnightblue" stroke="midnightblue" points="1374.56,-139.486 1381.7,-131.655 1371.24,-133.326 1374.56,-139.486"/>
</g>
<!-- Node8 -->
<g id="node9" class="node"><title>Node8</title>
<polygon fill="white" stroke="#bfbfbf" points="333.725,-112.5 333.725,-131.5 379.725,-131.5 379.725,-112.5 333.725,-112.5"/>
<text text-anchor="middle" x="356.725" y="-119.5" font-family="Helvetica,sans-Serif" font-size="10.00">stdio.h</text>
</g>
<!-- Node7&#45;&gt;Node8 -->
<g id="edge8" class="edge"><title>Node7&#45;&gt;Node8</title>
<path fill="none" stroke="midnightblue" d="M494.739,-168.444C466.338,-159.092 420.764,-144.086 389.824,-133.898"/>
<polygon fill="midnightblue" stroke="midnightblue" points="390.531,-130.446 379.938,-130.643 388.342,-137.095 390.531,-130.446"/>
</g>
<!-- Node9 -->
<g id="node10" class="node"><title>Node9</title>
<polygon fill="white" stroke="#bfbfbf" points="585.725,-112.5 585.725,-131.5 651.725,-131.5 651.725,-112.5 585.725,-112.5"/>
<text text-anchor="middle" x="618.725" y="-119.5" font-family="Helvetica,sans-Serif" font-size="10.00">qiodevice.h</text>
</g>
<!-- Node7&#45;&gt;Node9 -->
<g id="edge9" class="edge"><title>Node7&#45;&gt;Node9</title>
<path fill="none" stroke="midnightblue" d="M536.47,-168.324C552.044,-159.743 576.102,-146.486 594.184,-136.522"/>
<polygon fill="midnightblue" stroke="midnightblue" points="595.949,-139.546 603.019,-131.655 592.571,-133.415 595.949,-139.546"/>
</g>
<!-- Node10 -->
<g id="node11" class="node"><title>Node10</title>
<polygon fill="white" stroke="#bfbfbf" points="435.725,-112.5 435.725,-131.5 489.725,-131.5 489.725,-112.5 435.725,-112.5"/>
<text text-anchor="middle" x="462.725" y="-119.5" font-family="Helvetica,sans-Serif" font-size="10.00">qstring.h</text>
</g>
<!-- Node7&#45;&gt;Node10 -->
<g id="edge10" class="edge"><title>Node7&#45;&gt;Node10</title>
<path fill="none" stroke="midnightblue" d="M511.406,-168.324C502.832,-160.341 489.913,-148.313 479.537,-138.653"/>
<polygon fill="midnightblue" stroke="midnightblue" points="481.917,-136.086 472.213,-131.834 477.147,-141.21 481.917,-136.086"/>
</g>
<!-- Node11 -->
<g id="node12" class="node"><title>Node11</title>
<polygon fill="white" stroke="#bfbfbf" points="508.225,-112.5 508.225,-131.5 567.225,-131.5 567.225,-112.5 508.225,-112.5"/>
<text text-anchor="middle" x="537.725" y="-119.5" font-family="Helvetica,sans-Serif" font-size="10.00">qgstring.h</text>
</g>
<!-- Node7&#45;&gt;Node11 -->
<g id="edge11" class="edge"><title>Node7&#45;&gt;Node11</title>
<path fill="none" stroke="midnightblue" d="M523.532,-168.083C525.81,-160.849 529.096,-150.409 531.933,-141.397"/>
<polygon fill="midnightblue" stroke="midnightblue" points="535.306,-142.341 534.97,-131.751 528.629,-140.239 535.306,-142.341"/>
</g>
<!-- Node12&#45;&gt;Node4 -->
<g id="edge13" class="edge"><title>Node12&#45;&gt;Node4</title>
<path fill="none" stroke="midnightblue" d="M326.285,-168.169C320.042,-154.354 310.889,-127.601 324.725,-112 347.324,-86.5192 580.783,-72.7106 666.978,-68.4502"/>
<polygon fill="midnightblue" stroke="midnightblue" points="667.15,-71.9461 676.969,-67.9668 666.811,-64.9543 667.15,-71.9461"/>
</g>
<!-- Node13 -->
<g id="node14" class="node"><title>Node13</title>
<polygon fill="white" stroke="#bfbfbf" points="116.225,-0.5 116.225,-19.5 175.225,-19.5 175.225,-0.5 116.225,-0.5"/>
<text text-anchor="middle" x="145.725" y="-7.5" font-family="Helvetica,sans-Serif" font-size="10.00">qcstring.h</text>
</g>
<!-- Node12&#45;&gt;Node13 -->
<g id="edge14" class="edge"><title>Node12&#45;&gt;Node13</title>
<path fill="none" stroke="midnightblue" d="M321.039,-168.309C291.318,-141.64 201.131,-60.7157 163.02,-26.5186"/>
<polygon fill="midnightblue" stroke="midnightblue" points="165.096,-23.6786 155.315,-19.6051 160.421,-28.8887 165.096,-23.6786"/>
</g>
<!-- Node15 -->
<g id="node16" class="node"><title>Node15</title>
<polygon fill="white" stroke="#bfbfbf" points="1865.73,-280.5 1865.73,-299.5 1945.73,-299.5 1945.73,-280.5 1865.73,-280.5"/>
<text text-anchor="middle" x="1905.73" y="-287.5" font-family="Helvetica,sans-Serif" font-size="10.00">configvalues.h</text>
</g>
<!-- Node14&#45;&gt;Node15 -->
<g id="edge16" class="edge"><title>Node14&#45;&gt;Node15</title>
<path fill="none" stroke="midnightblue" d="M1711.39,-338.7C1748.06,-329.699 1815.99,-313.027 1861.02,-301.973"/>
<polygon fill="midnightblue" stroke="midnightblue" points="1861.95,-305.35 1870.82,-299.567 1860.28,-298.551 1861.95,-305.35"/>
</g>
<!-- Node16&#45;&gt;Node8 -->
<g id="edge18" class="edge"><title>Node16&#45;&gt;Node8</title>
<path fill="none" stroke="midnightblue" d="M564.819,-336.41C532.204,-321.54 466.811,-288.293 424.725,-244 395.097,-212.818 373.726,-166.293 363.502,-140.981"/>
<polygon fill="midnightblue" stroke="midnightblue" points="366.711,-139.578 359.811,-131.538 360.192,-142.126 366.711,-139.578"/>
</g>
<!-- Node17 -->
<g id="node18" class="node"><title>Node17</title>
<polygon fill="white" stroke="#bfbfbf" points="558.725,-280.5 558.725,-299.5 610.725,-299.5 610.725,-280.5 558.725,-280.5"/>
<text text-anchor="middle" x="584.725" y="-287.5" font-family="Helvetica,sans-Serif" font-size="10.00">stdarg.h</text>
</g>
<!-- Node16&#45;&gt;Node17 -->
<g id="edge19" class="edge"><title>Node16&#45;&gt;Node17</title>
<path fill="none" stroke="midnightblue" d="M584.725,-336.083C584.725,-329.006 584.725,-318.861 584.725,-309.986"/>
<polygon fill="midnightblue" stroke="midnightblue" points="588.225,-309.751 584.725,-299.751 581.225,-309.751 588.225,-309.751"/>
</g>
<!-- Node18&#45;&gt;Node3 -->
<g id="edge27" class="edge"><title>Node18&#45;&gt;Node3</title>
<path fill="none" stroke="midnightblue" d="M1519.78,-280.365C1535.22,-267.275 1559.77,-242.028 1544.73,-224 1518.73,-192.835 1399.84,-183.199 1336.97,-180.261"/>
<polygon fill="midnightblue" stroke="midnightblue" points="1336.8,-176.75 1326.65,-179.816 1336.49,-183.744 1336.8,-176.75"/>
</g>
<!-- Node18&#45;&gt;Node5 -->
<g id="edge24" class="edge"><title>Node18&#45;&gt;Node5</title>
<path fill="none" stroke="midnightblue" d="M1540.06,-288.671C1604.86,-287.258 1750.15,-280.047 1780.73,-244 1786.47,-237.221 1785.68,-231.382 1780.73,-224 1699.86,-103.45 1508.15,-75.3918 1430.87,-68.9185"/>
<polygon fill="midnightblue" stroke="midnightblue" points="1430.98,-65.4172 1420.74,-68.1409 1430.45,-72.3967 1430.98,-65.4172"/>
</g>
<!-- Node18&#45;&gt;Node6 -->
<g id="edge25" class="edge"><title>Node18&#45;&gt;Node6</title>
<path fill="none" stroke="midnightblue" d="M1524.41,-280.435C1543.88,-268.612 1573.1,-246.222 1560.73,-224 1534.15,-176.271 1474.67,-148.232 1435.39,-134.251"/>
<polygon fill="midnightblue" stroke="midnightblue" points="1436.47,-130.92 1425.87,-130.996 1434.2,-137.543 1436.47,-130.92"/>
</g>
<!-- Node18&#45;&gt;Node7 -->
<g id="edge26" class="edge"><title>Node18&#45;&gt;Node7</title>
<path fill="none" stroke="midnightblue" d="M1477.72,-286.96C1396.18,-281.464 1169.04,-265.313 980.725,-244 829.357,-226.869 650.954,-199.635 567.801,-186.53"/>
<polygon fill="midnightblue" stroke="midnightblue" points="568.326,-183.07 557.902,-184.966 567.233,-189.984 568.326,-183.07"/>
</g>
<!-- Node19 -->
<g id="node20" class="node"><title>Node19</title>
<polygon fill="white" stroke="#bfbfbf" points="1629.73,-224.5 1629.73,-243.5 1697.73,-243.5 1697.73,-224.5 1629.73,-224.5"/>
<text text-anchor="middle" x="1663.73" y="-231.5" font-family="Helvetica,sans-Serif" font-size="10.00">qdatetime.h</text>
</g>
<!-- Node18&#45;&gt;Node19 -->
<g id="edge21" class="edge"><title>Node18&#45;&gt;Node19</title>
<path fill="none" stroke="midnightblue" d="M1533.29,-280.444C1559.25,-271.399 1600.39,-257.064 1629.52,-246.916"/>
<polygon fill="midnightblue" stroke="midnightblue" points="1630.99,-250.112 1639.28,-243.516 1628.68,-243.501 1630.99,-250.112"/>
</g>
<!-- Node20 -->
<g id="node21" class="node"><title>Node20</title>
<polygon fill="white" stroke="#bfbfbf" points="1715.73,-224.5 1715.73,-243.5 1771.73,-243.5 1771.73,-224.5 1715.73,-224.5"/>
<text text-anchor="middle" x="1743.73" y="-231.5" font-family="Helvetica,sans-Serif" font-size="10.00">qcache.h</text>
</g>
<!-- Node18&#45;&gt;Node20 -->
<g id="edge22" class="edge"><title>Node18&#45;&gt;Node20</title>
<path fill="none" stroke="midnightblue" d="M1539.97,-282.053C1577.11,-273.761 1641.22,-259.341 1705.55,-244.252"/>
<polygon fill="midnightblue" stroke="midnightblue" points="1706.52,-247.619 1715.45,-241.923 1704.92,-240.805 1706.52,-247.619"/>
</g>
<!-- Node21 -->
<g id="node22" class="node"><title>Node21</title>
<polygon fill="white" stroke="#bfbfbf" points="1481.73,-224.5 1481.73,-243.5 1535.73,-243.5 1535.73,-224.5 1481.73,-224.5"/>
<text text-anchor="middle" x="1508.73" y="-231.5" font-family="Helvetica,sans-Serif" font-size="10.00">qstrlist.h</text>
</g>
<!-- Node18&#45;&gt;Node21 -->
<g id="edge23" class="edge"><title>Node18&#45;&gt;Node21</title>
<path fill="none" stroke="midnightblue" d="M1508.73,-280.083C1508.73,-273.006 1508.73,-262.861 1508.73,-253.986"/>
<polygon fill="midnightblue" stroke="midnightblue" points="1512.23,-253.751 1508.73,-243.751 1505.23,-253.751 1512.23,-253.751"/>
</g>
<!-- Node22 -->
<g id="node23" class="node"><title>Node22</title>
<g id="a_node23"><a xlink:href="../../d9/d11/membergroup_8h.html" target="_top" xlink:title="membergroup.h">
<polygon fill="white" stroke="black" points="1147.73,-224.5 1147.73,-243.5 1231.73,-243.5 1231.73,-224.5 1147.73,-224.5"/>
<text text-anchor="middle" x="1189.73" y="-231.5" font-family="Helvetica,sans-Serif" font-size="10.00">membergroup.h</text>
</a>
</g>
</g>
<!-- Node18&#45;&gt;Node22 -->
<g id="edge28" class="edge"><title>Node18&#45;&gt;Node22</title>
<path fill="none" stroke="midnightblue" d="M1477.56,-283.724C1422.76,-274.447 1308.62,-255.126 1241.71,-243.8"/>
<polygon fill="midnightblue" stroke="midnightblue" points="1242.24,-240.34 1231.8,-242.122 1241.07,-247.242 1242.24,-240.34"/>
</g>
<!-- Node24 -->
<g id="node25" class="node"><title>Node24</title>
<g id="a_node25"><a xlink:href="../../d6/d15/dirdef_8h.html" target="_top" xlink:title="dirdef.h">
<polygon fill="white" stroke="black" points="1081.23,-224.5 1081.23,-243.5 1130.23,-243.5 1130.23,-224.5 1081.23,-224.5"/>
<text text-anchor="middle" x="1105.73" y="-231.5" font-family="Helvetica,sans-Serif" font-size="10.00">dirdef.h</text>
</a>
</g>
</g>
<!-- Node18&#45;&gt;Node24 -->
<g id="edge33" class="edge"><title>Node18&#45;&gt;Node24</title>
<path fill="none" stroke="midnightblue" d="M1477.3,-286.727C1414.81,-281.876 1270.45,-269.019 1140.62,-244.14"/>
<polygon fill="midnightblue" stroke="midnightblue" points="1140.98,-240.647 1130.5,-242.171 1139.65,-247.518 1140.98,-240.647"/>
</g>
<!-- Node26 -->
<g id="node27" class="node"><title>Node26</title>
<g id="a_node27"><a xlink:href="../../dd/d78/memberlist_8h.html" target="_top" xlink:title="memberlist.h">
<polygon fill="white" stroke="black" points="990.225,-224.5 990.225,-243.5 1063.23,-243.5 1063.23,-224.5 990.225,-224.5"/>
<text text-anchor="middle" x="1026.73" y="-231.5" font-family="Helvetica,sans-Serif" font-size="10.00">memberlist.h</text>
</a>
</g>
</g>
<!-- Node18&#45;&gt;Node26 -->
<g id="edge40" class="edge"><title>Node18&#45;&gt;Node26</title>
<path fill="none" stroke="midnightblue" d="M1477.6,-286.814C1407.34,-281.662 1230.91,-267.507 1073.83,-244.201"/>
<polygon fill="midnightblue" stroke="midnightblue" points="1073.92,-240.676 1063.51,-242.653 1072.88,-247.598 1073.92,-240.676"/>
</g>
<!-- Node22&#45;&gt;Node3 -->
<g id="edge30" class="edge"><title>Node22&#45;&gt;Node3</title>
<path fill="none" stroke="midnightblue" d="M1207.08,-224.324C1224.4,-215.664 1251.24,-202.242 1271.23,-192.249"/>
<polygon fill="midnightblue" stroke="midnightblue" points="1273.04,-195.257 1280.42,-187.655 1269.91,-188.996 1273.04,-195.257"/>
</g>
<!-- Node22&#45;&gt;Node4 -->
<g id="edge29" class="edge"><title>Node22&#45;&gt;Node4</title>
<path fill="none" stroke="midnightblue" d="M1191.48,-224.391C1195.49,-202.077 1202.63,-142.02 1170.73,-112 1138.7,-81.8595 831.199,-70.6812 730.485,-67.8107"/>
<polygon fill="midnightblue" stroke="midnightblue" points="730.416,-64.3076 720.323,-67.5295 730.222,-71.3049 730.416,-64.3076"/>
</g>
<!-- Node23 -->
<g id="node24" class="node"><title>Node23</title>
<g id="a_node24"><a xlink:href="../../d9/d49/types_8h.html" target="_top" xlink:title="This file contains a number of basic enums and types. ">
<polygon fill="white" stroke="black" points="1018.23,-56.5 1018.23,-75.5 1067.23,-75.5 1067.23,-56.5 1018.23,-56.5"/>
<text text-anchor="middle" x="1042.73" y="-63.5" font-family="Helvetica,sans-Serif" font-size="10.00">types.h</text>
</a>
</g>
</g>
<!-- Node22&#45;&gt;Node23 -->
<g id="edge31" class="edge"><title>Node22&#45;&gt;Node23</title>
<path fill="none" stroke="midnightblue" d="M1193.33,-224.222C1196.78,-215.285 1201.76,-200.942 1203.73,-188 1208.93,-153.78 1211.1,-136.574 1186.73,-112 1157.68,-82.7188 1109.89,-72.4336 1077.4,-68.854"/>
<polygon fill="midnightblue" stroke="midnightblue" points="1077.72,-65.3685 1067.43,-67.9119 1077.06,-72.3374 1077.72,-65.3685"/>
</g>
<!-- Node23&#45;&gt;Node13 -->
<g id="edge32" class="edge"><title>Node23&#45;&gt;Node13</title>
<path fill="none" stroke="midnightblue" d="M1017.8,-63.4994C893.453,-56.0137 340.112,-22.7022 185.8,-13.4125"/>
<polygon fill="midnightblue" stroke="midnightblue" points="185.582,-9.89319 175.39,-12.7859 185.162,-16.8805 185.582,-9.89319"/>
</g>
<!-- Node24&#45;&gt;Node3 -->
<g id="edge34" class="edge"><title>Node24&#45;&gt;Node3</title>
<path fill="none" stroke="midnightblue" d="M1130.43,-226.051C1163.07,-216.873 1220.88,-200.613 1259.26,-189.819"/>
<polygon fill="midnightblue" stroke="midnightblue" points="1260.37,-193.142 1269.05,-187.065 1258.47,-186.404 1260.37,-193.142"/>
</g>
<!-- Node24&#45;&gt;Node4 -->
<g id="edge39" class="edge"><title>Node24&#45;&gt;Node4</title>
<path fill="none" stroke="midnightblue" d="M1080.94,-226.002C1077.85,-225.26 1074.72,-224.569 1071.73,-224 1004.02,-211.151 820.712,-226.745 763.725,-188 727.848,-163.608 710.136,-112.773 702.89,-85.3994"/>
<polygon fill="midnightblue" stroke="midnightblue" points="706.256,-84.428 700.471,-75.5517 699.458,-86.0979 706.256,-84.428"/>
</g>
<!-- Node25 -->
<g id="node26" class="node"><title>Node25</title>
<g id="a_node26"><a xlink:href="../../df/da1/definition_8h.html" target="_top" xlink:title="definition.h">
<polygon fill="white" stroke="black" points="1097.73,-112.5 1097.73,-131.5 1161.73,-131.5 1161.73,-112.5 1097.73,-112.5"/>
<text text-anchor="middle" x="1129.73" y="-119.5" font-family="Helvetica,sans-Serif" font-size="10.00">definition.h</text>
</a>
</g>
</g>
<!-- Node24&#45;&gt;Node25 -->
<g id="edge35" class="edge"><title>Node24&#45;&gt;Node25</title>
<path fill="none" stroke="midnightblue" d="M1107.61,-224.368C1111.48,-206.617 1120.42,-165.666 1125.67,-141.597"/>
<polygon fill="midnightblue" stroke="midnightblue" points="1129.14,-142.108 1127.85,-131.591 1122.3,-140.615 1129.14,-142.108"/>
</g>
<!-- Node25&#45;&gt;Node4 -->
<g id="edge36" class="edge"><title>Node25&#45;&gt;Node4</title>
<path fill="none" stroke="midnightblue" d="M1097.68,-116.985C1017.77,-106.973 810.377,-80.9889 730.622,-70.9964"/>
<polygon fill="midnightblue" stroke="midnightblue" points="731.032,-67.5205 720.675,-69.7501 730.162,-74.4662 731.032,-67.5205"/>
</g>
<!-- Node25&#45;&gt;Node5 -->
<g id="edge37" class="edge"><title>Node25&#45;&gt;Node5</title>
<path fill="none" stroke="midnightblue" d="M1161.79,-114.54C1213,-104.221 1312.76,-84.1198 1364.62,-73.6699"/>
<polygon fill="midnightblue" stroke="midnightblue" points="1365.52,-77.0602 1374.63,-71.6539 1364.13,-70.1981 1365.52,-77.0602"/>
</g>
<!-- Node25&#45;&gt;Node23 -->
<g id="edge38" class="edge"><title>Node25&#45;&gt;Node23</title>
<path fill="none" stroke="midnightblue" d="M1115.75,-112.324C1102.18,-103.9 1081.34,-90.9709 1065.4,-81.0741"/>
<polygon fill="midnightblue" stroke="midnightblue" points="1067.01,-77.9544 1056.67,-75.6545 1063.32,-83.9019 1067.01,-77.9544"/>
</g>
<!-- Node26&#45;&gt;Node3 -->
<g id="edge47" class="edge"><title>Node26&#45;&gt;Node3</title>
<path fill="none" stroke="midnightblue" d="M1063.56,-225.63C1066.32,-225.078 1069.07,-224.53 1071.73,-224 1137.6,-210.853 1214.3,-195.592 1259.27,-186.647"/>
<polygon fill="midnightblue" stroke="midnightblue" points="1260.06,-190.059 1269.18,-184.675 1258.69,-183.193 1260.06,-190.059"/>
</g>
<!-- Node26&#45;&gt;Node4 -->
<g id="edge41" class="edge"><title>Node26&#45;&gt;Node4</title>
<path fill="none" stroke="midnightblue" d="M990.036,-229.153C907.434,-220.322 713.296,-198.548 703.725,-188 678.384,-160.069 686.1,-111.874 692.99,-85.5249"/>
<polygon fill="midnightblue" stroke="midnightblue" points="696.417,-86.2692 695.793,-75.6928 689.685,-84.3499 696.417,-86.2692"/>
</g>
<!-- Node26&#45;&gt;Node23 -->
<g id="edge48" class="edge"><title>Node26&#45;&gt;Node23</title>
<path fill="none" stroke="midnightblue" d="M1050.56,-224.474C1084.48,-210.887 1145.36,-180.765 1170.73,-132 1191.06,-92.901 1122.23,-76.8038 1077.72,-70.5867"/>
<polygon fill="midnightblue" stroke="midnightblue" points="1077.9,-67.0818 1067.54,-69.2752 1077.01,-74.0244 1077.9,-67.0818"/>
</g>
<!-- Node26&#45;&gt;Node27 -->
<g id="edge42" class="edge"><title>Node26&#45;&gt;Node27</title>
<path fill="none" stroke="midnightblue" d="M992.341,-224.444C954.803,-215.102 894.594,-200.119 853.658,-189.933"/>
<polygon fill="midnightblue" stroke="midnightblue" points="854.498,-186.535 843.948,-187.516 852.807,-193.328 854.498,-186.535"/>
</g>
<!-- Node27&#45;&gt;Node4 -->
<g id="edge43" class="edge"><title>Node27&#45;&gt;Node4</title>
<path fill="none" stroke="midnightblue" d="M801.015,-168.368C782.373,-149.894 738.375,-106.293 714.612,-82.7436"/>
<polygon fill="midnightblue" stroke="midnightblue" points="716.961,-80.1444 707.395,-75.5914 712.034,-85.1165 716.961,-80.1444"/>
</g>
<!-- Node27&#45;&gt;Node23 -->
<g id="edge45" class="edge"><title>Node27&#45;&gt;Node23</title>
<path fill="none" stroke="midnightblue" d="M828.008,-168.368C868.757,-149.131 967.216,-102.648 1015.33,-79.9314"/>
<polygon fill="midnightblue" stroke="midnightblue" points="1016.98,-83.0257 1024.53,-75.5914 1013.99,-76.6956 1016.98,-83.0257"/>
</g>
<!-- Node27&#45;&gt;Node25 -->
<g id="edge46" class="edge"><title>Node27&#45;&gt;Node25</title>
<path fill="none" stroke="midnightblue" d="M846.864,-169.633C849.86,-169.069 852.842,-168.519 855.725,-168 937.568,-153.277 1033.52,-137.963 1087.41,-129.54"/>
<polygon fill="midnightblue" stroke="midnightblue" points="1088.27,-132.949 1097.61,-127.95 1087.19,-126.032 1088.27,-132.949"/>
</g>
<!-- Node28 -->
<g id="node29" class="node"><title>Node28</title>
<polygon fill="white" stroke="#bfbfbf" points="821.725,-112.5 821.725,-131.5 889.725,-131.5 889.725,-112.5 821.725,-112.5"/>
<text text-anchor="middle" x="855.725" y="-119.5" font-family="Helvetica,sans-Serif" font-size="10.00">sys/types.h</text>
</g>
<!-- Node27&#45;&gt;Node28 -->
<g id="edge44" class="edge"><title>Node27&#45;&gt;Node28</title>
<path fill="none" stroke="midnightblue" d="M817.321,-168.083C823.953,-160.298 833.746,-148.801 841.783,-139.367"/>
<polygon fill="midnightblue" stroke="midnightblue" points="844.45,-141.633 848.27,-131.751 839.121,-137.094 844.45,-141.633"/>
</g>
<!-- Node29&#45;&gt;Node3 -->
<g id="edge50" class="edge"><title>Node29&#45;&gt;Node3</title>
<path fill="none" stroke="midnightblue" d="M1347.25,-224.324C1338.52,-216.341 1325.38,-204.313 1314.83,-194.653"/>
<polygon fill="midnightblue" stroke="midnightblue" points="1317.12,-192.004 1307.38,-187.834 1312.39,-197.167 1317.12,-192.004"/>
</g>
<!-- Node29&#45;&gt;Node25 -->
<g id="edge51" class="edge"><title>Node29&#45;&gt;Node25</title>
<path fill="none" stroke="midnightblue" d="M1356.54,-224.402C1355.75,-210.417 1352.06,-182.819 1335.73,-168 1312.08,-146.557 1225.07,-133.447 1171.99,-127.267"/>
<polygon fill="midnightblue" stroke="midnightblue" points="1172.18,-123.767 1161.85,-126.123 1171.4,-130.723 1172.18,-123.767"/>
</g>
<!-- Node30&#45;&gt;Node4 -->
<g id="edge53" class="edge"><title>Node30&#45;&gt;Node4</title>
<path fill="none" stroke="midnightblue" d="M899.385,-168.319C904.479,-154.709 911.71,-128.231 898.725,-112 878.02,-86.119 781.578,-74.0777 730.563,-69.4375"/>
<polygon fill="midnightblue" stroke="midnightblue" points="730.675,-65.9341 720.41,-68.5573 730.07,-72.908 730.675,-65.9341"/>
</g>
<!-- Node30&#45;&gt;Node5 -->
<g id="edge54" class="edge"><title>Node30&#45;&gt;Node5</title>
<path fill="none" stroke="midnightblue" d="M926.985,-169.719C958.517,-161.947 1008.32,-148.492 1049.73,-132 1067.82,-124.791 1070.17,-117.928 1088.73,-112 1185.75,-81.0015 1306.81,-71.265 1364.35,-68.2783"/>
<polygon fill="midnightblue" stroke="midnightblue" points="1364.84,-71.7588 1374.66,-67.7811 1364.51,-64.7669 1364.84,-71.7588"/>
</g>
<!-- Node30&#45;&gt;Node25 -->
<g id="edge56" class="edge"><title>Node30&#45;&gt;Node25</title>
<path fill="none" stroke="midnightblue" d="M926.798,-169.829C968.061,-160.307 1041.1,-143.452 1087.38,-132.772"/>
<polygon fill="midnightblue" stroke="midnightblue" points="1088.44,-136.12 1097.39,-130.461 1086.86,-129.299 1088.44,-136.12"/>
</g>
<!-- Node31 -->
<g id="node32" class="node"><title>Node31</title>
<polygon fill="white" stroke="#bfbfbf" points="984.225,-112.5 984.225,-131.5 1041.23,-131.5 1041.23,-112.5 984.225,-112.5"/>
<text text-anchor="middle" x="1012.73" y="-119.5" font-family="Helvetica,sans-Serif" font-size="10.00">qptrdict.h</text>
</g>
<!-- Node30&#45;&gt;Node31 -->
<g id="edge55" class="edge"><title>Node30&#45;&gt;Node31</title>
<path fill="none" stroke="midnightblue" d="M914.264,-168.444C933.348,-159.636 963.3,-145.812 985.161,-135.722"/>
<polygon fill="midnightblue" stroke="midnightblue" points="986.66,-138.885 994.273,-131.516 983.726,-132.529 986.66,-138.885"/>
</g>
<!-- Node32&#45;&gt;Node3 -->
<g id="edge63" class="edge"><title>Node32&#45;&gt;Node3</title>
<path fill="none" stroke="midnightblue" d="M1052.3,-288.741C1094.42,-287.247 1179.76,-279.642 1240.73,-244 1260.49,-232.441 1276.95,-211.571 1287.01,-196.595"/>
<polygon fill="midnightblue" stroke="midnightblue" points="1290.23,-198.069 1292.68,-187.761 1284.33,-194.291 1290.23,-198.069"/>
</g>
<!-- Node32&#45;&gt;Node4 -->
<g id="edge59" class="edge"><title>Node32&#45;&gt;Node4</title>
<path fill="none" stroke="midnightblue" d="M1000.93,-286.579C904.659,-277.196 567.115,-241.092 474.725,-188 446.303,-171.667 438.098,-162.744 426.725,-132 423.641,-123.663 420.975,-118.779 426.725,-112 457.225,-76.039 601.9,-68.7765 666.932,-67.3388"/>
<polygon fill="midnightblue" stroke="midnightblue" points="667.087,-70.8366 677.019,-67.1489 666.955,-63.8379 667.087,-70.8366"/>
</g>
<!-- Node32&#45;&gt;Node5 -->
<g id="edge61" class="edge"><title>Node32&#45;&gt;Node5</title>
<path fill="none" stroke="midnightblue" d="M1052.28,-287.799C1134.64,-283.693 1389.3,-269.059 1415.73,-244 1458.73,-203.211 1454.72,-167.797 1434.73,-112 1430.78,-101.003 1422.87,-90.7688 1415.37,-82.8479"/>
<polygon fill="midnightblue" stroke="midnightblue" points="1417.74,-80.2784 1408.16,-75.7555 1412.83,-85.2659 1417.74,-80.2784"/>
</g>
<!-- Node32&#45;&gt;Node6 -->
<g id="edge60" class="edge"><title>Node32&#45;&gt;Node6</title>
<path fill="none" stroke="midnightblue" d="M1052.31,-287.807C1132.31,-283.819 1373.74,-269.73 1396.73,-244 1421.83,-215.895 1412.24,-167.77 1404.26,-141.478"/>
<polygon fill="midnightblue" stroke="midnightblue" points="1407.48,-140.079 1401.04,-131.669 1400.83,-142.262 1407.48,-140.079"/>
</g>
<!-- Node32&#45;&gt;Node12 -->
<g id="edge58" class="edge"><title>Node32&#45;&gt;Node12</title>
<path fill="none" stroke="midnightblue" d="M1001.15,-288.863C900.721,-288.053 533.543,-282.469 424.725,-244 394.502,-233.316 364.987,-210.228 347.325,-194.648"/>
<polygon fill="midnightblue" stroke="midnightblue" points="349.413,-191.817 339.655,-187.691 344.709,-197.002 349.413,-191.817"/>
</g>
<!-- Node32&#45;&gt;Node25 -->
<g id="edge62" class="edge"><title>Node32&#45;&gt;Node25</title>
<path fill="none" stroke="midnightblue" d="M1013.01,-280.427C995.64,-268.416 969.262,-245.619 980.725,-224 1004.68,-178.826 1058.88,-150.139 1094.88,-135.317"/>
<polygon fill="midnightblue" stroke="midnightblue" points="1096.5,-138.439 1104.51,-131.502 1093.92,-131.931 1096.5,-138.439"/>
</g>
<!-- Node32&#45;&gt;Node26 -->
<g id="edge64" class="edge"><title>Node32&#45;&gt;Node26</title>
<path fill="none" stroke="midnightblue" d="M1026.73,-280.083C1026.73,-273.006 1026.73,-262.861 1026.73,-253.986"/>
<polygon fill="midnightblue" stroke="midnightblue" points="1030.23,-253.751 1026.73,-243.751 1023.23,-253.751 1030.23,-253.751"/>
</g>
<!-- Node33&#45;&gt;Node3 -->
<g id="edge69" class="edge"><title>Node33&#45;&gt;Node3</title>
<path fill="none" stroke="midnightblue" d="M1173.13,-336.35C1193.92,-320.119 1238.46,-283.181 1266.73,-244 1277.23,-229.439 1285.7,-210.759 1291.12,-197.165"/>
<polygon fill="midnightblue" stroke="midnightblue" points="1294.5,-198.119 1294.79,-187.528 1287.96,-195.628 1294.5,-198.119"/>
</g>
<!-- Node33&#45;&gt;Node5 -->
<g id="edge68" class="edge"><title>Node33&#45;&gt;Node5</title>
<path fill="none" stroke="midnightblue" d="M1206.34,-342.47C1357.03,-333.336 1837.73,-299.171 1837.73,-235 1837.73,-235 1837.73,-235 1837.73,-177 1837.73,-93.1565 1533.23,-72.6856 1430.85,-68.1724"/>
<polygon fill="midnightblue" stroke="midnightblue" points="1430.9,-64.6716 1420.76,-67.7511 1430.61,-71.6655 1430.9,-64.6716"/>
</g>
<!-- Node33&#45;&gt;Node21 -->
<g id="edge67" class="edge"><title>Node33&#45;&gt;Node21</title>
<path fill="none" stroke="midnightblue" d="M1191.11,-336.44C1221.41,-327.557 1269.97,-313.148 1311.73,-300 1368.77,-282.038 1434.69,-260.031 1473.98,-246.783"/>
<polygon fill="midnightblue" stroke="midnightblue" points="1475.25,-250.046 1483.61,-243.531 1473.01,-243.414 1475.25,-250.046"/>
</g>
<!-- Node33&#45;&gt;Node25 -->
<g id="edge70" class="edge"><title>Node33&#45;&gt;Node25</title>
<path fill="none" stroke="midnightblue" d="M1116.89,-344.706C1078.79,-342.042 1025.12,-332.219 991.725,-300 973.005,-281.941 978.544,-269.729 974.725,-244 969.344,-207.747 978.722,-191.644 1006.73,-168 1019.62,-157.113 1058.91,-143.722 1089.66,-134.391"/>
<polygon fill="midnightblue" stroke="midnightblue" points="1090.71,-137.728 1099.29,-131.513 1088.71,-131.021 1090.71,-137.728"/>
</g>
<!-- Node33&#45;&gt;Node32 -->
<g id="edge71" class="edge"><title>Node33&#45;&gt;Node32</title>
<path fill="none" stroke="midnightblue" d="M1140.33,-336.444C1118.02,-327.517 1082.82,-313.439 1057.52,-303.317"/>
<polygon fill="midnightblue" stroke="midnightblue" points="1058.6,-299.981 1048.02,-299.516 1056,-306.48 1058.6,-299.981"/>
</g>
<!-- Node34&#45;&gt;Node3 -->
<g id="edge76" class="edge"><title>Node34&#45;&gt;Node3</title>
<path fill="none" stroke="midnightblue" d="M291.918,-231.816C320.749,-230.049 376.951,-226.646 424.725,-224 747.181,-206.143 1136.77,-186.88 1259.08,-180.887"/>
<polygon fill="midnightblue" stroke="midnightblue" points="1259.27,-184.382 1269.08,-180.397 1258.92,-177.39 1259.27,-184.382"/>
</g>
<!-- Node34&#45;&gt;Node4 -->
<g id="edge73" class="edge"><title>Node34&#45;&gt;Node4</title>
<path fill="none" stroke="midnightblue" d="M272.741,-224.245C273.301,-201.576 278.203,-140.738 313.725,-112 367.675,-68.3528 584.576,-65.8257 666.857,-66.4924"/>
<polygon fill="midnightblue" stroke="midnightblue" points="667.063,-69.9946 677.099,-66.5981 667.136,-62.995 667.063,-69.9946"/>
</g>
<!-- Node34&#45;&gt;Node23 -->
<g id="edge75" class="edge"><title>Node34&#45;&gt;Node23</title>
<path fill="none" stroke="midnightblue" d="M291.826,-231.066C338.941,-226.083 464.312,-211.522 566.725,-188 678.253,-162.384 701.75,-139.915 812.725,-112 881.363,-94.7349 962.917,-80.1558 1008.14,-72.584"/>
<polygon fill="midnightblue" stroke="midnightblue" points="1008.73,-76.0338 1018.03,-70.9442 1007.59,-69.1282 1008.73,-76.0338"/>
</g>
<!-- Node35 -->
<g id="node36" class="node"><title>Node35</title>
<polygon fill="white" stroke="#bfbfbf" points="190.225,-168.5 190.225,-187.5 239.225,-187.5 239.225,-168.5 190.225,-168.5"/>
<text text-anchor="middle" x="214.725" y="-175.5" font-family="Helvetica,sans-Serif" font-size="10.00">ctype.h</text>
</g>
<!-- Node34&#45;&gt;Node35 -->
<g id="edge74" class="edge"><title>Node34&#45;&gt;Node35</title>
<path fill="none" stroke="midnightblue" d="M263.406,-224.324C254.832,-216.341 241.913,-204.313 231.537,-194.653"/>
<polygon fill="midnightblue" stroke="midnightblue" points="233.917,-192.086 224.213,-187.834 229.147,-197.21 233.917,-192.086"/>
</g>
<!-- Node36 -->
<g id="node37" class="node"><title>Node36</title>
<g id="a_node37"><a xlink:href="../../de/d9c/docparser_8h.html" target="_top" xlink:title="docparser.h">
<polygon fill="white" stroke="black" points="99.7251,-168.5 99.7251,-187.5 167.725,-187.5 167.725,-168.5 99.7251,-168.5"/>
<text text-anchor="middle" x="133.725" y="-175.5" font-family="Helvetica,sans-Serif" font-size="10.00">docparser.h</text>
</a>
</g>
</g>
<!-- Node34&#45;&gt;Node36 -->
<g id="edge77" class="edge"><title>Node34&#45;&gt;Node36</title>
<path fill="none" stroke="midnightblue" d="M253.689,-225.605C230.909,-216.755 192.436,-201.809 165.208,-191.231"/>
<polygon fill="midnightblue" stroke="midnightblue" points="166.324,-187.91 155.736,-187.551 163.789,-194.435 166.324,-187.91"/>
</g>
<!-- Node36&#45;&gt;Node4 -->
<g id="edge79" class="edge"><title>Node36&#45;&gt;Node4</title>
<path fill="none" stroke="midnightblue" d="M145.616,-168.452C166.392,-154.016 211.153,-125.104 253.725,-112 331.202,-88.1522 578.309,-73.271 666.812,-68.5935"/>
<polygon fill="midnightblue" stroke="midnightblue" points="667.23,-72.0766 677.034,-68.0616 666.866,-65.0861 667.23,-72.0766"/>
</g>
<!-- Node36&#45;&gt;Node8 -->
<g id="edge78" class="edge"><title>Node36&#45;&gt;Node8</title>
<path fill="none" stroke="midnightblue" d="M168.08,-168.681C210.429,-158.426 281.899,-141.119 323.651,-131.009"/>
<polygon fill="midnightblue" stroke="midnightblue" points="324.694,-134.358 333.589,-128.602 323.046,-127.554 324.694,-134.358"/>
</g>
<!-- Node36&#45;&gt;Node13 -->
<g id="edge80" class="edge"><title>Node36&#45;&gt;Node13</title>
<path fill="none" stroke="midnightblue" d="M99.5183,-173.741C54.4253,-167.838 -16.9252,-152.029 3.72506,-112 26.5111,-67.8311 78.5304,-38.7576 112.879,-23.5947"/>
<polygon fill="midnightblue" stroke="midnightblue" points="114.656,-26.6428 122.49,-19.5099 111.918,-20.2006 114.656,-26.6428"/>
</g>
<!-- Node37 -->
<g id="node38" class="node"><title>Node37</title>
<g id="a_node38"><a xlink:href="../../d2/d3c/docvisitor_8h.html" target="_top" xlink:title="docvisitor.h">
<polygon fill="white" stroke="black" points="96.2251,-112.5 96.2251,-131.5 163.225,-131.5 163.225,-112.5 96.2251,-112.5"/>
<text text-anchor="middle" x="129.725" y="-119.5" font-family="Helvetica,sans-Serif" font-size="10.00">docvisitor.h</text>
</a>
</g>
</g>
<!-- Node36&#45;&gt;Node37 -->
<g id="edge81" class="edge"><title>Node36&#45;&gt;Node37</title>
<path fill="none" stroke="midnightblue" d="M133.065,-168.083C132.54,-161.006 131.789,-150.861 131.131,-141.986"/>
<polygon fill="midnightblue" stroke="midnightblue" points="134.603,-141.465 130.373,-131.751 127.622,-141.982 134.603,-141.465"/>
</g>
<!-- Node38 -->
<g id="node39" class="node"><title>Node38</title>
<g id="a_node39"><a xlink:href="../../d0/d73/htmlattrib_8h.html" target="_top" xlink:title="htmlattrib.h">
<polygon fill="white" stroke="black" points="13.2251,-112.5 13.2251,-131.5 78.2251,-131.5 78.2251,-112.5 13.2251,-112.5"/>
<text text-anchor="middle" x="45.7251" y="-119.5" font-family="Helvetica,sans-Serif" font-size="10.00">htmlattrib.h</text>
</a>
</g>
</g>
<!-- Node36&#45;&gt;Node38 -->
<g id="edge82" class="edge"><title>Node36&#45;&gt;Node38</title>
<path fill="none" stroke="midnightblue" d="M119.586,-168.324C105.859,-159.9 84.7888,-146.971 68.6607,-137.074"/>
<polygon fill="midnightblue" stroke="midnightblue" points="70.1825,-133.902 59.8287,-131.655 66.5214,-139.868 70.1825,-133.902"/>
</g>
<!-- Node38&#45;&gt;Node4 -->
<g id="edge84" class="edge"><title>Node38&#45;&gt;Node4</title>
<path fill="none" stroke="midnightblue" d="M78.3216,-113.405C81.1546,-112.879 83.9848,-112.399 86.7251,-112 307.316,-79.8465 576.166,-70.1915 667.013,-67.7373"/>
<polygon fill="midnightblue" stroke="midnightblue" points="667.289,-71.2314 677.194,-67.4726 667.107,-64.2337 667.289,-71.2314"/>
</g>
<!-- Node38&#45;&gt;Node13 -->
<g id="edge83" class="edge"><title>Node38&#45;&gt;Node13</title>
<path fill="none" stroke="midnightblue" d="M53.5719,-112.368C70.2938,-93.9744 109.66,-50.6712 131.132,-27.0519"/>
<polygon fill="midnightblue" stroke="midnightblue" points="133.778,-29.3452 137.915,-19.5914 128.598,-24.6365 133.778,-29.3452"/>
</g>
</g>
</svg>
