<?xml version="1.0" encoding="UTF-8" standalone="no"?>
<!DOCTYPE svg PUBLIC "-//W3C//DTD SVG 1.1//EN"
 "http://www.w3.org/Graphics/SVG/1.1/DTD/svg11.dtd">
<!-- Generated by graphviz version 2.38.0 (20140413.2041)
 -->
<!-- Title: src/reflist.h Pages: 1 -->
<svg width="190pt" height="140pt"
 viewBox="0.00 0.00 189.50 140.00" xmlns="http://www.w3.org/2000/svg" xmlns:xlink="http://www.w3.org/1999/xlink">
<g id="graph0" class="graph" transform="scale(1 1) rotate(0) translate(4 136)">
<title>src/reflist.h</title>
<polygon fill="white" stroke="none" points="-4,4 -4,-136 185.5,-136 185.5,4 -4,4"/>
<!-- Node0 -->
<g id="node1" class="node"><title>Node0</title>
<polygon fill="#bfbfbf" stroke="black" points="64.5,-112.5 64.5,-131.5 129.5,-131.5 129.5,-112.5 64.5,-112.5"/>
<text text-anchor="middle" x="97" y="-119.5" font-family="Helvetica,sans-Serif" font-size="10.00">src/reflist.h</text>
</g>
<!-- Node1 -->
<g id="node2" class="node"><title>Node1</title>
<polygon fill="white" stroke="#bfbfbf" points="0,-0.5 0,-19.5 56,-19.5 56,-0.5 0,-0.5"/>
<text text-anchor="middle" x="28" y="-7.5" font-family="Helvetica,sans-Serif" font-size="10.00">qintdict.h</text>
</g>
<!-- Node0&#45;&gt;Node1 -->
<g id="edge1" class="edge"><title>Node0&#45;&gt;Node1</title>
<path fill="none" stroke="midnightblue" d="M88.409,-112.233C80.1826,-103.534 67.761,-89.5744 59,-76 49.3707,-61.0802 40.884,-42.7078 35.2361,-29.3064"/>
<polygon fill="midnightblue" stroke="midnightblue" points="38.3688,-27.7197 31.3477,-19.7854 31.8885,-30.3664 38.3688,-27.7197"/>
</g>
<!-- Node2 -->
<g id="node3" class="node"><title>Node2</title>
<polygon fill="white" stroke="#bfbfbf" points="138.5,-0.5 138.5,-19.5 181.5,-19.5 181.5,-0.5 138.5,-0.5"/>
<text text-anchor="middle" x="160" y="-7.5" font-family="Helvetica,sans-Serif" font-size="10.00">qlist.h</text>
</g>
<!-- Node0&#45;&gt;Node2 -->
<g id="edge2" class="edge"><title>Node0&#45;&gt;Node2</title>
<path fill="none" stroke="midnightblue" d="M105.537,-112.312C113.675,-103.671 125.862,-89.753 134,-76 142.791,-61.1437 149.831,-42.7643 154.356,-29.3441"/>
<polygon fill="midnightblue" stroke="midnightblue" points="157.694,-30.3983 157.432,-19.8067 151.031,-28.2497 157.694,-30.3983"/>
</g>
<!-- Node3 -->
<g id="node4" class="node"><title>Node3</title>
<g id="a_node4"><a xlink:href="../../d9/d21/sortdict_8h.html" target="_top" xlink:title="sortdict.h">
<polygon fill="white" stroke="black" points="68.5,-56.5 68.5,-75.5 125.5,-75.5 125.5,-56.5 68.5,-56.5"/>
<text text-anchor="middle" x="97" y="-63.5" font-family="Helvetica,sans-Serif" font-size="10.00">sortdict.h</text>
</a>
</g>
</g>
<!-- Node0&#45;&gt;Node3 -->
<g id="edge3" class="edge"><title>Node0&#45;&gt;Node3</title>
<path fill="none" stroke="midnightblue" d="M97,-112.083C97,-105.006 97,-94.8611 97,-85.9865"/>
<polygon fill="midnightblue" stroke="midnightblue" points="100.5,-85.751 97,-75.7511 93.5001,-85.7511 100.5,-85.751"/>
</g>
<!-- Node3&#45;&gt;Node1 -->
<g id="edge6" class="edge"><title>Node3&#45;&gt;Node1</title>
<path fill="none" stroke="midnightblue" d="M85.914,-56.324C75.514,-48.1849 59.7394,-35.8395 47.2784,-26.0874"/>
<polygon fill="midnightblue" stroke="midnightblue" points="49.3199,-23.2407 39.2878,-19.8339 45.0057,-28.7533 49.3199,-23.2407"/>
</g>
<!-- Node3&#45;&gt;Node2 -->
<g id="edge4" class="edge"><title>Node3&#45;&gt;Node2</title>
<path fill="none" stroke="midnightblue" d="M107.122,-56.324C116.526,-48.2631 130.744,-36.0765 142.069,-26.3695"/>
<polygon fill="midnightblue" stroke="midnightblue" points="144.379,-28.9993 149.694,-19.8339 139.823,-23.6844 144.379,-28.9993"/>
</g>
<!-- Node4 -->
<g id="node5" class="node"><title>Node4</title>
<polygon fill="white" stroke="#bfbfbf" points="74,-0.5 74,-19.5 120,-19.5 120,-0.5 74,-0.5"/>
<text text-anchor="middle" x="97" y="-7.5" font-family="Helvetica,sans-Serif" font-size="10.00">qdict.h</text>
</g>
<!-- Node3&#45;&gt;Node4 -->
<g id="edge5" class="edge"><title>Node3&#45;&gt;Node4</title>
<path fill="none" stroke="midnightblue" d="M97,-56.083C97,-49.0059 97,-38.8611 97,-29.9865"/>
<polygon fill="midnightblue" stroke="midnightblue" points="100.5,-29.751 97,-19.7511 93.5001,-29.7511 100.5,-29.751"/>
</g>
</g>
</svg>
