<?xml version="1.0" encoding="UTF-8" standalone="no"?>
<!DOCTYPE svg PUBLIC "-//W3C//DTD SVG 1.1//EN"
 "http://www.w3.org/Graphics/SVG/1.1/DTD/svg11.dtd">
<!-- Generated by graphviz version 2.38.0 (20140413.2041)
 -->
<!-- Title: SearchIndexExternal::Private Pages: 1 -->
<!--zoomable 184 -->
<svg id="main" version="1.1" xmlns="http://www.w3.org/2000/svg" xmlns:xlink="http://www.w3.org/1999/xlink" xml:space="preserve" onload="init(evt)">
<style type="text/css"><![CDATA[
.edge:hover path { stroke: red; }
.edge:hover polygon { stroke: red; fill: red; }
]]></style>
<script type="text/javascript"><![CDATA[
var edges = document.getElementsByTagName('g');
if (edges && edges.length) {
  for (var i=0;i<edges.length;i++) {
    if (edges[i].id.substr(0,4)=='edge') {
      edges[i].setAttribute('class','edge');
    }
  }
}
]]></script>
        <defs>
                <circle id="rim" cx="0" cy="0" r="7"/>
                <circle id="rim2" cx="0" cy="0" r="3.5"/>
                <g id="zoomPlus">
                        <use xlink:href="#rim" fill="#404040">
                                <set attributeName="fill" to="#808080" begin="zoomplus.mouseover" end="zoomplus.mouseout"/>
                        </use>
                        <path d="M-4,0h8M0,-4v8" fill="none" stroke="white" stroke-width="1.5" pointer-events="none"/>
                </g>
                <g id="zoomMin">
                        <use xlink:href="#rim" fill="#404040">
                                <set attributeName="fill" to="#808080" begin="zoomminus.mouseover" end="zoomminus.mouseout"/>
                        </use>
                        <path d="M-4,0h8" fill="none" stroke="white" stroke-width="1.5" pointer-events="none"/>
                </g>
                <g id="dirArrow">
                        <path fill="none" stroke="white" stroke-width="1.5" d="M0,-3.0v7 M-2.5,-0.5L0,-3.0L2.5,-0.5"/>
                </g>
               <g id="resetDef">
                       <use xlink:href="#rim2" fill="#404040">
                               <set attributeName="fill" to="#808080" begin="reset.mouseover" end="reset.mouseout"/>
                       </use>
               </g>
        </defs>

<script type="text/javascript">
var viewWidth = 526;
var viewHeight = 184;
var sectionId = 'dynsection-0';
</script>
<script xlink:href="../../svgpan.js"/>
<svg id="graph" class="graph">
<g id="viewport">
<title>SearchIndexExternal::Private</title>
<polygon fill="white" stroke="none" points="-4,4 -4,-180 522,-180 522,4 -4,4"/>
<!-- Node1 -->
<g id="node1" class="node"><title>Node1</title>
<polygon fill="#bfbfbf" stroke="black" points="365.5,-0.5 365.5,-30.5 472.5,-30.5 472.5,-0.5 365.5,-0.5"/>
<text text-anchor="start" x="373.5" y="-18.5" font-family="Helvetica,sans-Serif" font-size="10.00">SearchIndexExternal</text>
<text text-anchor="middle" x="419" y="-7.5" font-family="Helvetica,sans-Serif" font-size="10.00">::Private</text>
</g>
<!-- Node2 -->
<g id="node2" class="node"><title>Node2</title>
<g id="a_node2"><a xlink:href="../../d1/d50/class_s_dict.html" target="_top" xlink:title="SDict\&lt; SearchDocEntry \&gt;">
<polygon fill="white" stroke="black" points="263.5,-78.5 263.5,-97.5 394.5,-97.5 394.5,-78.5 263.5,-78.5"/>
<text text-anchor="middle" x="329" y="-85.5" font-family="Helvetica,sans-Serif" font-size="10.00">SDict&lt; SearchDocEntry &gt;</text>
</a>
</g>
</g>
<!-- Node2&#45;&gt;Node1 -->
<g id="edge1" class="edge"><title>Node2&#45;&gt;Node1</title>
<path fill="none" stroke="#9a32cd" stroke-dasharray="5,2" d="M347.988,-72.1262C363.634,-59.8698 385.67,-42.6084 401.03,-30.5762"/>
<polygon fill="#9a32cd" stroke="#9a32cd" points="345.75,-69.4334 340.036,-78.3553 350.066,-74.944 345.75,-69.4334"/>
<text text-anchor="middle" x="402" y="-52" font-family="Helvetica,sans-Serif" font-size="10.00"> docEntries</text>
</g>
<!-- Node3 -->
<g id="node3" class="node"><title>Node3</title>
<g id="a_node3"><a xlink:href="../../df/dce/class_s_list.html" target="_top" xlink:title="SList\&lt; SearchDocEntry \&gt;">
<polygon fill="white" stroke="black" points="139.5,-6 139.5,-25 268.5,-25 268.5,-6 139.5,-6"/>
<text text-anchor="middle" x="204" y="-13" font-family="Helvetica,sans-Serif" font-size="10.00">SList&lt; SearchDocEntry &gt;</text>
</a>
</g>
</g>
<!-- Node2&#45;&gt;Node3 -->
<g id="edge4" class="edge"><title>Node2&#45;&gt;Node3</title>
<path fill="none" stroke="#9a32cd" stroke-dasharray="5,2" d="M292.408,-74.9266C281.67,-70.7929 270.104,-65.7412 260,-60 242.232,-49.9043 223.96,-34.6109 213.309,-25.1056"/>
<polygon fill="#9a32cd" stroke="#9a32cd" points="291.377,-78.277 301.97,-78.4583 293.802,-71.7105 291.377,-78.277"/>
<text text-anchor="middle" x="281.5" y="-52" font-family="Helvetica,sans-Serif" font-size="10.00"> m_owner</text>
</g>
<!-- Node3&#45;&gt;Node2 -->
<g id="edge2" class="edge"><title>Node3&#45;&gt;Node2</title>
<path fill="none" stroke="#9a32cd" stroke-dasharray="5,2" d="M266.062,-28.0063C280.544,-32.7828 295.173,-39.5174 307,-49 316.516,-56.6297 322.731,-69.566 326.054,-78.1953"/>
<polygon fill="#9a32cd" stroke="#9a32cd" points="266.681,-24.5373 256.096,-25.0026 264.661,-31.2395 266.681,-24.5373"/>
<text text-anchor="middle" x="332" y="-52" font-family="Helvetica,sans-Serif" font-size="10.00"> m_list</text>
</g>
<!-- Node4 -->
<g id="node4" class="node"><title>Node4</title>
<polygon fill="white" stroke="#bfbfbf" points="0,-78.5 0,-97.5 130,-97.5 130,-78.5 0,-78.5"/>
<text text-anchor="middle" x="65" y="-85.5" font-family="Helvetica,sans-Serif" font-size="10.00">QList&lt; SearchDocEntry &gt;</text>
</g>
<!-- Node4&#45;&gt;Node3 -->
<g id="edge3" class="edge"><title>Node4&#45;&gt;Node3</title>
<path fill="none" stroke="midnightblue" d="M91.0024,-73.8117C119.158,-59.5312 163.242,-37.1723 187.174,-25.0341"/>
<polygon fill="midnightblue" stroke="midnightblue" points="89.1019,-70.8511 81.7666,-78.4961 92.2683,-77.0941 89.1019,-70.8511"/>
</g>
<!-- Node5 -->
<g id="node5" class="node"><title>Node5</title>
<g id="a_node5"><a xlink:href="../../df/dce/class_s_list.html" target="_top" xlink:title="internal wrapper class that redirects compareValues() to the dictionary ">
<polygon fill="white" stroke="black" points="148.5,-78.5 148.5,-97.5 211.5,-97.5 211.5,-78.5 148.5,-78.5"/>
<text text-anchor="middle" x="180" y="-85.5" font-family="Helvetica,sans-Serif" font-size="10.00">SList&lt; T &gt;</text>
</a>
</g>
</g>
<!-- Node5&#45;&gt;Node3 -->
<g id="edge5" class="edge"><title>Node5&#45;&gt;Node3</title>
<path fill="none" stroke="orange" stroke-dasharray="5,2" d="M155.543,-72.3085C147.685,-65.6442 142.128,-57.3863 147,-49 153.523,-37.7712 165.54,-30.0982 176.864,-25.0408"/>
<polygon fill="orange" stroke="orange" points="153.727,-75.3163 163.867,-78.3872 157.855,-69.6631 153.727,-75.3163"/>
<text text-anchor="middle" x="194" y="-52" font-family="Helvetica,sans-Serif" font-size="10.00"> &lt; SearchDocEntry &gt;</text>
</g>
<!-- Node6 -->
<g id="node6" class="node"><title>Node6</title>
<polygon fill="white" stroke="#bfbfbf" points="148,-156.5 148,-175.5 212,-175.5 212,-156.5 148,-156.5"/>
<text text-anchor="middle" x="180" y="-163.5" font-family="Helvetica,sans-Serif" font-size="10.00">QList&lt; T &gt;</text>
</g>
<!-- Node6&#45;&gt;Node5 -->
<g id="edge6" class="edge"><title>Node6&#45;&gt;Node5</title>
<path fill="none" stroke="midnightblue" d="M180,-146.224C180,-130.697 180,-109.358 180,-97.6165"/>
<polygon fill="midnightblue" stroke="midnightblue" points="176.5,-146.282 180,-156.282 183.5,-146.282 176.5,-146.282"/>
</g>
<!-- Node7 -->
<g id="node7" class="node"><title>Node7</title>
<g id="a_node7"><a xlink:href="../../d1/d50/class_s_dict.html" target="_top" xlink:title="Ordered dictionary of elements of type T. ">
<polygon fill="white" stroke="black" points="296.5,-156.5 296.5,-175.5 361.5,-175.5 361.5,-156.5 296.5,-156.5"/>
<text text-anchor="middle" x="329" y="-163.5" font-family="Helvetica,sans-Serif" font-size="10.00">SDict&lt; T &gt;</text>
</a>
</g>
</g>
<!-- Node7&#45;&gt;Node2 -->
<g id="edge7" class="edge"><title>Node7&#45;&gt;Node2</title>
<path fill="none" stroke="orange" stroke-dasharray="5,2" d="M329,-146.224C329,-130.697 329,-109.358 329,-97.6165"/>
<polygon fill="orange" stroke="orange" points="325.5,-146.282 329,-156.282 332.5,-146.282 325.5,-146.282"/>
<text text-anchor="middle" x="376" y="-124.5" font-family="Helvetica,sans-Serif" font-size="10.00"> &lt; SearchDocEntry &gt;</text>
</g>
<!-- Node8 -->
<g id="node8" class="node"><title>Node8</title>
<g id="a_node8"><a xlink:href="../../dd/df7/struct_search_doc_entry.html" target="_top" xlink:title="SearchDocEntry">
<polygon fill="white" stroke="black" points="412.5,-78.5 412.5,-97.5 501.5,-97.5 501.5,-78.5 412.5,-78.5"/>
<text text-anchor="middle" x="457" y="-85.5" font-family="Helvetica,sans-Serif" font-size="10.00">SearchDocEntry</text>
</a>
</g>
</g>
<!-- Node8&#45;&gt;Node1 -->
<g id="edge8" class="edge"><title>Node8&#45;&gt;Node1</title>
<path fill="none" stroke="#9a32cd" stroke-dasharray="5,2" d="M447.473,-69.3243C441.014,-57.3413 432.592,-41.7171 426.587,-30.5762"/>
<polygon fill="#9a32cd" stroke="#9a32cd" points="444.515,-71.2133 452.34,-78.3553 450.677,-67.8919 444.515,-71.2133"/>
<text text-anchor="middle" x="459" y="-52" font-family="Helvetica,sans-Serif" font-size="10.00"> current</text>
</g>
<!-- Node9 -->
<g id="node9" class="node"><title>Node9</title>
<g id="a_node9"><a xlink:href="../../d8/d33/class_grow_buf.html" target="_top" xlink:title="Class representing a string buffer optimised for growing. ">
<polygon fill="white" stroke="black" points="429.5,-156.5 429.5,-175.5 484.5,-175.5 484.5,-156.5 429.5,-156.5"/>
<text text-anchor="middle" x="457" y="-163.5" font-family="Helvetica,sans-Serif" font-size="10.00">GrowBuf</text>
</a>
</g>
</g>
<!-- Node9&#45;&gt;Node8 -->
<g id="edge9" class="edge"><title>Node9&#45;&gt;Node8</title>
<path fill="none" stroke="#9a32cd" stroke-dasharray="5,2" d="M457,-146.224C457,-130.697 457,-109.358 457,-97.6165"/>
<polygon fill="#9a32cd" stroke="#9a32cd" points="453.5,-146.282 457,-156.282 460.5,-146.282 453.5,-146.282"/>
<text text-anchor="middle" x="487.5" y="-130" font-family="Helvetica,sans-Serif" font-size="10.00"> normalText</text>
<text text-anchor="middle" x="487.5" y="-119" font-family="Helvetica,sans-Serif" font-size="10.00">importantText</text>
</g>
</g>
</svg>
        <g id="navigator" transform="translate(0 0)" fill="#404254">
                <rect fill="#f2f5e9" fill-opacity="0.5" stroke="#606060" stroke-width=".5" x="0" y="0" width="60" height="60"/>
                <use id="zoomplus" xlink:href="#zoomPlus" x="17" y="9" onmousedown="handleZoom(evt,'in')"/>
                <use id="zoomminus" xlink:href="#zoomMin" x="42" y="9" onmousedown="handleZoom(evt,'out')"/>
                <use id="reset" xlink:href="#resetDef" x="30" y="36" onmousedown="handleReset()"/>
                <g id="arrowUp" xlink:href="#dirArrow" transform="translate(30 24)" onmousedown="handlePan(0,-1)">
                  <use xlink:href="#rim" fill="#404040">
                        <set attributeName="fill" to="#808080" begin="arrowUp.mouseover" end="arrowUp.mouseout"/>
                  </use>
                  <path fill="none" stroke="white" stroke-width="1.5" d="M0,-3.0v7 M-2.5,-0.5L0,-3.0L2.5,-0.5"/>
                </g>
                <g id="arrowRight" xlink:href="#dirArrow" transform="rotate(90) translate(36 -43)" onmousedown="handlePan(1,0)">
                  <use xlink:href="#rim" fill="#404040">
                        <set attributeName="fill" to="#808080" begin="arrowRight.mouseover" end="arrowRight.mouseout"/>
                  </use>
                  <path fill="none" stroke="white" stroke-width="1.5" d="M0,-3.0v7 M-2.5,-0.5L0,-3.0L2.5,-0.5"/>
                </g>
                <g id="arrowDown" xlink:href="#dirArrow" transform="rotate(180) translate(-30 -48)" onmousedown="handlePan(0,1)">
                  <use xlink:href="#rim" fill="#404040">
                        <set attributeName="fill" to="#808080" begin="arrowDown.mouseover" end="arrowDown.mouseout"/>
                  </use>
                  <path fill="none" stroke="white" stroke-width="1.5" d="M0,-3.0v7 M-2.5,-0.5L0,-3.0L2.5,-0.5"/>
                </g>
                <g id="arrowLeft" xlink:href="#dirArrow" transform="rotate(270) translate(-36 17)" onmousedown="handlePan(-1,0)">
                  <use xlink:href="#rim" fill="#404040">
                        <set attributeName="fill" to="#808080" begin="arrowLeft.mouseover" end="arrowLeft.mouseout"/>
                  </use>
                  <path fill="none" stroke="white" stroke-width="1.5" d="M0,-3.0v7 M-2.5,-0.5L0,-3.0L2.5,-0.5"/>
                </g>
        </g>
        <svg viewBox="0 0 15 15" width="100%" height="30px" preserveAspectRatio="xMaxYMin meet">
         <g id="arrow_out" transform="scale(0.3 0.3)">
          <a xlink:href="struct_search_index_external_1_1_private__coll__graph_org.svg" target="_base">
           <rect id="button" ry="5" rx="5" y="6" x="6" height="38" width="38"
                fill="#f2f5e9" fill-opacity="0.5" stroke="#606060" stroke-width="1.0"/>
           <path id="arrow"
             d="M 11.500037,31.436501 C 11.940474,20.09759 22.043105,11.32322 32.158766,21.979434 L 37.068811,17.246167 C 37.068811,17.246167 37.088388,32 37.088388,32 L 22.160133,31.978069 C 22.160133,31.978069 26.997745,27.140456 26.997745,27.140456 C 18.528582,18.264221 13.291696,25.230495 11.500037,31.436501 z"
             style="fill:#404040;"/>
          </a>
         </g>
        </svg>
</svg>
