<?xml version="1.0" encoding="UTF-8" standalone="no"?>
<!DOCTYPE svg PUBLIC "-//W3C//DTD SVG 1.1//EN"
 "http://www.w3.org/Graphics/SVG/1.1/DTD/svg11.dtd">
<!-- Generated by graphviz version 2.38.0 (20140413.2041)
 -->
<!-- Title: src/docsets.h Pages: 1 -->
<svg width="564pt" height="140pt"
 viewBox="0.00 0.00 564.00 140.00" xmlns="http://www.w3.org/2000/svg" xmlns:xlink="http://www.w3.org/1999/xlink">
<g id="graph0" class="graph" transform="scale(1 1) rotate(0) translate(4 136)">
<title>src/docsets.h</title>
<polygon fill="white" stroke="none" points="-4,4 -4,-136 560,-136 560,4 -4,4"/>
<!-- Node0 -->
<g id="node1" class="node"><title>Node0</title>
<polygon fill="#bfbfbf" stroke="black" points="127.5,-112.5 127.5,-131.5 203.5,-131.5 203.5,-112.5 127.5,-112.5"/>
<text text-anchor="middle" x="165.5" y="-119.5" font-family="Helvetica,sans-Serif" font-size="10.00">src/docsets.h</text>
</g>
<!-- Node1 -->
<g id="node2" class="node"><title>Node1</title>
<g id="a_node2"><a xlink:href="../../d9/d21/sortdict_8h.html" target="_top" xlink:title="sortdict.h">
<polygon fill="white" stroke="black" points="137,-56.5 137,-75.5 194,-75.5 194,-56.5 137,-56.5"/>
<text text-anchor="middle" x="165.5" y="-63.5" font-family="Helvetica,sans-Serif" font-size="10.00">sortdict.h</text>
</a>
</g>
</g>
<!-- Node0&#45;&gt;Node1 -->
<g id="edge1" class="edge"><title>Node0&#45;&gt;Node1</title>
<path fill="none" stroke="midnightblue" d="M165.5,-112.083C165.5,-105.006 165.5,-94.8611 165.5,-85.9865"/>
<polygon fill="midnightblue" stroke="midnightblue" points="169,-85.751 165.5,-75.7511 162,-85.7511 169,-85.751"/>
</g>
<!-- Node5 -->
<g id="node6" class="node"><title>Node5</title>
<g id="a_node6"><a xlink:href="../../df/d83/ftextstream_8h.html" target="_top" xlink:title="ftextstream.h">
<polygon fill="white" stroke="black" points="336.5,-56.5 336.5,-75.5 410.5,-75.5 410.5,-56.5 336.5,-56.5"/>
<text text-anchor="middle" x="373.5" y="-63.5" font-family="Helvetica,sans-Serif" font-size="10.00">ftextstream.h</text>
</a>
</g>
</g>
<!-- Node0&#45;&gt;Node5 -->
<g id="edge5" class="edge"><title>Node0&#45;&gt;Node5</title>
<path fill="none" stroke="midnightblue" d="M198.458,-112.444C234.287,-103.142 291.663,-88.246 330.891,-78.062"/>
<polygon fill="midnightblue" stroke="midnightblue" points="331.896,-81.4171 340.696,-75.5164 330.137,-74.6417 331.896,-81.4171"/>
</g>
<!-- Node10 -->
<g id="node11" class="node"><title>Node10</title>
<g id="a_node11"><a xlink:href="../../d1/db5/index_8h.html" target="_top" xlink:title="index.h">
<polygon fill="white" stroke="black" points="70.5,-56.5 70.5,-75.5 118.5,-75.5 118.5,-56.5 70.5,-56.5"/>
<text text-anchor="middle" x="94.5" y="-63.5" font-family="Helvetica,sans-Serif" font-size="10.00">index.h</text>
</a>
</g>
</g>
<!-- Node0&#45;&gt;Node10 -->
<g id="edge10" class="edge"><title>Node0&#45;&gt;Node10</title>
<path fill="none" stroke="midnightblue" d="M154.093,-112.324C143.391,-104.185 127.159,-91.8395 114.337,-82.0874"/>
<polygon fill="midnightblue" stroke="midnightblue" points="116.193,-79.1018 106.115,-75.8339 111.956,-84.6734 116.193,-79.1018"/>
</g>
<!-- Node2 -->
<g id="node3" class="node"><title>Node2</title>
<polygon fill="white" stroke="#bfbfbf" points="77,-0.5 77,-19.5 120,-19.5 120,-0.5 77,-0.5"/>
<text text-anchor="middle" x="98.5" y="-7.5" font-family="Helvetica,sans-Serif" font-size="10.00">qlist.h</text>
</g>
<!-- Node1&#45;&gt;Node2 -->
<g id="edge2" class="edge"><title>Node1&#45;&gt;Node2</title>
<path fill="none" stroke="midnightblue" d="M154.735,-56.324C144.734,-48.2631 129.613,-36.0765 117.57,-26.3695"/>
<polygon fill="midnightblue" stroke="midnightblue" points="119.443,-23.3841 109.461,-19.8339 115.05,-28.8343 119.443,-23.3841"/>
</g>
<!-- Node3 -->
<g id="node4" class="node"><title>Node3</title>
<polygon fill="white" stroke="#bfbfbf" points="138.5,-0.5 138.5,-19.5 184.5,-19.5 184.5,-0.5 138.5,-0.5"/>
<text text-anchor="middle" x="161.5" y="-7.5" font-family="Helvetica,sans-Serif" font-size="10.00">qdict.h</text>
</g>
<!-- Node1&#45;&gt;Node3 -->
<g id="edge3" class="edge"><title>Node1&#45;&gt;Node3</title>
<path fill="none" stroke="midnightblue" d="M164.839,-56.083C164.315,-49.0059 163.564,-38.8611 162.906,-29.9865"/>
<polygon fill="midnightblue" stroke="midnightblue" points="166.377,-29.4652 162.148,-19.7511 159.397,-29.9823 166.377,-29.4652"/>
</g>
<!-- Node4 -->
<g id="node5" class="node"><title>Node4</title>
<polygon fill="white" stroke="#bfbfbf" points="202.5,-0.5 202.5,-19.5 258.5,-19.5 258.5,-0.5 202.5,-0.5"/>
<text text-anchor="middle" x="230.5" y="-7.5" font-family="Helvetica,sans-Serif" font-size="10.00">qintdict.h</text>
</g>
<!-- Node1&#45;&gt;Node4 -->
<g id="edge4" class="edge"><title>Node1&#45;&gt;Node4</title>
<path fill="none" stroke="midnightblue" d="M175.943,-56.324C185.646,-48.2631 200.315,-36.0765 212,-26.3695"/>
<polygon fill="midnightblue" stroke="midnightblue" points="214.411,-28.9163 219.867,-19.8339 209.938,-23.532 214.411,-28.9163"/>
</g>
<!-- Node6 -->
<g id="node7" class="node"><title>Node6</title>
<polygon fill="white" stroke="#bfbfbf" points="276.5,-0.5 276.5,-19.5 322.5,-19.5 322.5,-0.5 276.5,-0.5"/>
<text text-anchor="middle" x="299.5" y="-7.5" font-family="Helvetica,sans-Serif" font-size="10.00">stdio.h</text>
</g>
<!-- Node5&#45;&gt;Node6 -->
<g id="edge6" class="edge"><title>Node5&#45;&gt;Node6</title>
<path fill="none" stroke="midnightblue" d="M361.611,-56.324C350.35,-48.1066 333.213,-35.6017 319.791,-25.8069"/>
<polygon fill="midnightblue" stroke="midnightblue" points="321.747,-22.9014 311.606,-19.8339 317.62,-28.5559 321.747,-22.9014"/>
</g>
<!-- Node7 -->
<g id="node8" class="node"><title>Node7</title>
<polygon fill="white" stroke="#bfbfbf" points="340.5,-0.5 340.5,-19.5 406.5,-19.5 406.5,-0.5 340.5,-0.5"/>
<text text-anchor="middle" x="373.5" y="-7.5" font-family="Helvetica,sans-Serif" font-size="10.00">qiodevice.h</text>
</g>
<!-- Node5&#45;&gt;Node7 -->
<g id="edge7" class="edge"><title>Node5&#45;&gt;Node7</title>
<path fill="none" stroke="midnightblue" d="M373.5,-56.083C373.5,-49.0059 373.5,-38.8611 373.5,-29.9865"/>
<polygon fill="midnightblue" stroke="midnightblue" points="377,-29.751 373.5,-19.7511 370,-29.7511 377,-29.751"/>
</g>
<!-- Node8 -->
<g id="node9" class="node"><title>Node8</title>
<polygon fill="white" stroke="#bfbfbf" points="424.5,-0.5 424.5,-19.5 478.5,-19.5 478.5,-0.5 424.5,-0.5"/>
<text text-anchor="middle" x="451.5" y="-7.5" font-family="Helvetica,sans-Serif" font-size="10.00">qstring.h</text>
</g>
<!-- Node5&#45;&gt;Node8 -->
<g id="edge8" class="edge"><title>Node5&#45;&gt;Node8</title>
<path fill="none" stroke="midnightblue" d="M386.032,-56.324C398.086,-47.979 416.527,-35.2122 430.769,-25.3524"/>
<polygon fill="midnightblue" stroke="midnightblue" points="432.769,-28.2243 438.999,-19.6545 428.785,-22.469 432.769,-28.2243"/>
</g>
<!-- Node9 -->
<g id="node10" class="node"><title>Node9</title>
<polygon fill="white" stroke="#bfbfbf" points="497,-0.5 497,-19.5 556,-19.5 556,-0.5 497,-0.5"/>
<text text-anchor="middle" x="526.5" y="-7.5" font-family="Helvetica,sans-Serif" font-size="10.00">qgstring.h</text>
</g>
<!-- Node5&#45;&gt;Node9 -->
<g id="edge9" class="edge"><title>Node5&#45;&gt;Node9</title>
<path fill="none" stroke="midnightblue" d="M397.743,-56.4435C423.371,-47.3986 463.985,-33.064 492.738,-22.9158"/>
<polygon fill="midnightblue" stroke="midnightblue" points="494.105,-26.1452 502.37,-19.5164 491.775,-19.5442 494.105,-26.1452"/>
</g>
<!-- Node10&#45;&gt;Node2 -->
<g id="edge11" class="edge"><title>Node10&#45;&gt;Node2</title>
<path fill="none" stroke="midnightblue" d="M95.1605,-56.083C95.6848,-49.0059 96.4362,-38.8611 97.0936,-29.9865"/>
<polygon fill="midnightblue" stroke="midnightblue" points="100.603,-29.9823 97.8518,-19.7511 93.6225,-29.4652 100.603,-29.9823"/>
</g>
<!-- Node11 -->
<g id="node12" class="node"><title>Node11</title>
<polygon fill="white" stroke="#bfbfbf" points="0,-0.5 0,-19.5 59,-19.5 59,-0.5 0,-0.5"/>
<text text-anchor="middle" x="29.5" y="-7.5" font-family="Helvetica,sans-Serif" font-size="10.00">qcstring.h</text>
</g>
<!-- Node10&#45;&gt;Node11 -->
<g id="edge12" class="edge"><title>Node10&#45;&gt;Node11</title>
<path fill="none" stroke="midnightblue" d="M84.0566,-56.324C74.3538,-48.2631 59.6847,-36.0765 48.0003,-26.3695"/>
<polygon fill="midnightblue" stroke="midnightblue" points="50.0619,-23.532 40.1334,-19.8339 45.5887,-28.9163 50.0619,-23.532"/>
</g>
</g>
</svg>
