<?xml version="1.0" encoding="UTF-8" standalone="no"?>
<!DOCTYPE svg PUBLIC "-//W3C//DTD SVG 1.1//EN"
 "http://www.w3.org/Graphics/SVG/1.1/DTD/svg11.dtd">
<!-- Generated by graphviz version 2.38.0 (20140413.2041)
 -->
<!-- Title: ClassIndexContext::Private::Cachable Pages: 1 -->
<svg width="321pt" height="240pt"
 viewBox="0.00 0.00 320.50 240.00" xmlns="http://www.w3.org/2000/svg" xmlns:xlink="http://www.w3.org/1999/xlink">
<g id="graph0" class="graph" transform="scale(1 1) rotate(0) translate(4 236)">
<title>ClassIndexContext::Private::Cachable</title>
<polygon fill="white" stroke="none" points="-4,4 -4,-236 316.5,-236 316.5,4 -4,4"/>
<!-- Node1 -->
<g id="node1" class="node"><title>Node1</title>
<polygon fill="#bfbfbf" stroke="black" points="156,-0.5 156,-30.5 263,-30.5 263,-0.5 156,-0.5"/>
<text text-anchor="start" x="164" y="-18.5" font-family="Helvetica,sans-Serif" font-size="10.00">ClassIndexContext::</text>
<text text-anchor="middle" x="209.5" y="-7.5" font-family="Helvetica,sans-Serif" font-size="10.00">Private::Cachable</text>
</g>
<!-- Node2 -->
<g id="node2" class="node"><title>Node2</title>
<g id="a_node2"><a xlink:href="../../df/d12/class_shared_ptr.html" target="_top" xlink:title="SharedPtr\&lt; TemplateList \&gt;">
<polygon fill="white" stroke="black" points="142.5,-78.5 142.5,-97.5 276.5,-97.5 276.5,-78.5 142.5,-78.5"/>
<text text-anchor="middle" x="209.5" y="-85.5" font-family="Helvetica,sans-Serif" font-size="10.00">SharedPtr&lt; TemplateList &gt;</text>
</a>
</g>
</g>
<!-- Node2&#45;&gt;Node1 -->
<g id="edge1" class="edge"><title>Node2&#45;&gt;Node1</title>
<path fill="none" stroke="#9a32cd" stroke-dasharray="5,2" d="M209.5,-68.2362C209.5,-56.4079 209.5,-41.3829 209.5,-30.5762"/>
<polygon fill="#9a32cd" stroke="#9a32cd" points="206,-68.3553 209.5,-78.3553 213,-68.3554 206,-68.3553"/>
<text text-anchor="middle" x="228" y="-52" font-family="Helvetica,sans-Serif" font-size="10.00"> classes</text>
</g>
<!-- Node3 -->
<g id="node3" class="node"><title>Node3</title>
<g id="a_node3"><a xlink:href="../../de/dab/class_template_list.html" target="_top" xlink:title="Default implementation of a context value of type list. ">
<polygon fill="white" stroke="black" points="119,-145.5 119,-164.5 192,-164.5 192,-145.5 119,-145.5"/>
<text text-anchor="middle" x="155.5" y="-152.5" font-family="Helvetica,sans-Serif" font-size="10.00">TemplateList</text>
</a>
</g>
</g>
<!-- Node3&#45;&gt;Node2 -->
<g id="edge2" class="edge"><title>Node3&#45;&gt;Node2</title>
<path fill="none" stroke="#9a32cd" stroke-dasharray="5,2" d="M169.398,-137.27C179.927,-124.597 193.964,-107.701 202.333,-97.6273"/>
<polygon fill="#9a32cd" stroke="#9a32cd" points="166.481,-135.305 162.783,-145.234 171.865,-139.778 166.481,-135.305"/>
<text text-anchor="middle" x="200.5" y="-119" font-family="Helvetica,sans-Serif" font-size="10.00"> m_ptr</text>
</g>
<!-- Node4 -->
<g id="node4" class="node"><title>Node4</title>
<g id="a_node4"><a xlink:href="../../d6/d88/class_template_list_intf.html" target="_top" xlink:title="Abstract read&#45;only interface for a context value of type list. ">
<polygon fill="white" stroke="black" points="0,-212.5 0,-231.5 87,-231.5 87,-212.5 0,-212.5"/>
<text text-anchor="middle" x="43.5" y="-219.5" font-family="Helvetica,sans-Serif" font-size="10.00">TemplateListIntf</text>
</a>
</g>
</g>
<!-- Node4&#45;&gt;Node3 -->
<g id="edge3" class="edge"><title>Node4&#45;&gt;Node3</title>
<path fill="none" stroke="midnightblue" d="M67.4248,-207.115C89.6147,-194.237 121.942,-175.476 140.634,-164.627"/>
<polygon fill="midnightblue" stroke="midnightblue" points="65.497,-204.187 58.6048,-212.234 69.0106,-210.241 65.497,-204.187"/>
</g>
<!-- Node5 -->
<g id="node5" class="node"><title>Node5</title>
<g id="a_node5"><a xlink:href="../../d5/dee/class_template_list_1_1_private.html" target="_top" xlink:title="Private data of a template list object. ">
<polygon fill="white" stroke="black" points="105.5,-212.5 105.5,-231.5 215.5,-231.5 215.5,-212.5 105.5,-212.5"/>
<text text-anchor="middle" x="160.5" y="-219.5" font-family="Helvetica,sans-Serif" font-size="10.00">TemplateList::Private</text>
</a>
</g>
</g>
<!-- Node5&#45;&gt;Node3 -->
<g id="edge4" class="edge"><title>Node5&#45;&gt;Node3</title>
<path fill="none" stroke="#9a32cd" stroke-dasharray="5,2" d="M159.041,-202.037C158.09,-189.67 156.894,-174.12 156.164,-164.627"/>
<polygon fill="#9a32cd" stroke="#9a32cd" points="155.569,-202.532 159.826,-212.234 162.548,-201.995 155.569,-202.532"/>
<text text-anchor="middle" x="163" y="-186" font-family="Helvetica,sans-Serif" font-size="10.00"> p</text>
</g>
<!-- Node6 -->
<g id="node6" class="node"><title>Node6</title>
<g id="a_node6"><a xlink:href="../../df/d12/class_shared_ptr.html" target="_top" xlink:title="Reference counting smart pointer. ">
<polygon fill="white" stroke="black" points="210.5,-145.5 210.5,-164.5 294.5,-164.5 294.5,-145.5 210.5,-145.5"/>
<text text-anchor="middle" x="252.5" y="-152.5" font-family="Helvetica,sans-Serif" font-size="10.00">SharedPtr&lt; T &gt;</text>
</a>
</g>
</g>
<!-- Node6&#45;&gt;Node2 -->
<g id="edge5" class="edge"><title>Node6&#45;&gt;Node2</title>
<path fill="none" stroke="orange" stroke-dasharray="5,2" d="M240.946,-136.535C232.621,-123.95 221.743,-107.507 215.207,-97.6273"/>
<polygon fill="orange" stroke="orange" points="238.264,-138.825 246.701,-145.234 244.103,-134.963 238.264,-138.825"/>
<text text-anchor="middle" x="273.5" y="-119" font-family="Helvetica,sans-Serif" font-size="10.00"> &lt; TemplateList &gt;</text>
</g>
<!-- Node7 -->
<g id="node7" class="node"><title>Node7</title>
<polygon fill="white" stroke="#bfbfbf" points="238,-212.5 238,-231.5 267,-231.5 267,-212.5 238,-212.5"/>
<text text-anchor="middle" x="252.5" y="-219.5" font-family="Helvetica,sans-Serif" font-size="10.00">T</text>
</g>
<!-- Node7&#45;&gt;Node6 -->
<g id="edge6" class="edge"><title>Node7&#45;&gt;Node6</title>
<path fill="none" stroke="#9a32cd" stroke-dasharray="5,2" d="M252.5,-202.037C252.5,-189.67 252.5,-174.12 252.5,-164.627"/>
<polygon fill="#9a32cd" stroke="#9a32cd" points="249,-202.234 252.5,-212.234 256,-202.234 249,-202.234"/>
<text text-anchor="middle" x="266.5" y="-186" font-family="Helvetica,sans-Serif" font-size="10.00"> m_ptr</text>
</g>
</g>
</svg>
