<?xml version="1.0" encoding="UTF-8" standalone="no"?>
<!DOCTYPE svg PUBLIC "-//W3C//DTD SVG 1.1//EN"
 "http://www.w3.org/Graphics/SVG/1.1/DTD/svg11.dtd">
<!-- Generated by graphviz version 2.38.0 (20140413.2041)
 -->
<!-- Title: DocAutoListItem Pages: 1 -->
<svg width="250pt" height="152pt"
 viewBox="0.00 0.00 249.50 152.00" xmlns="http://www.w3.org/2000/svg" xmlns:xlink="http://www.w3.org/1999/xlink">
<g id="graph0" class="graph" transform="scale(1 1) rotate(0) translate(4 148)">
<title>DocAutoListItem</title>
<polygon fill="white" stroke="none" points="-4,4 -4,-148 245.5,-148 245.5,4 -4,4"/>
<!-- Node0 -->
<g id="node1" class="node"><title>Node0</title>
<polygon fill="#bfbfbf" stroke="black" points="134.5,-0.5 134.5,-19.5 224.5,-19.5 224.5,-0.5 134.5,-0.5"/>
<text text-anchor="middle" x="179.5" y="-7.5" font-family="Helvetica,sans-Serif" font-size="10.00">DocAutoListItem</text>
</g>
<!-- Node1 -->
<g id="node2" class="node"><title>Node1</title>
<g id="a_node2"><a xlink:href="../../d7/da3/class_comp_accept.html" target="_top" xlink:title="CompAccept\&lt; DocAutoListItem \&gt;">
<polygon fill="white" stroke="black" points="0,-57.5 0,-76.5 165,-76.5 165,-57.5 0,-57.5"/>
<text text-anchor="middle" x="82.5" y="-64.5" font-family="Helvetica,sans-Serif" font-size="10.00">CompAccept&lt; DocAutoListItem &gt;</text>
</a>
</g>
</g>
<!-- Node1&#45;&gt;Node0 -->
<g id="edge1" class="edge"><title>Node1&#45;&gt;Node0</title>
<path fill="none" stroke="midnightblue" d="M106.496,-52.394C124.634,-42.1098 148.973,-28.3093 164.45,-19.5334"/>
<polygon fill="midnightblue" stroke="midnightblue" points="104.629,-49.4292 97.6562,-57.4062 108.082,-55.5184 104.629,-49.4292"/>
</g>
<!-- Node2 -->
<g id="node3" class="node"><title>Node2</title>
<g id="a_node3"><a xlink:href="../../d7/da3/class_comp_accept.html" target="_top" xlink:title="Default accept implementation for compound nodes in the abstract syntax tree. ">
<polygon fill="white" stroke="black" points="33.5,-124.5 33.5,-143.5 131.5,-143.5 131.5,-124.5 33.5,-124.5"/>
<text text-anchor="middle" x="82.5" y="-131.5" font-family="Helvetica,sans-Serif" font-size="10.00">CompAccept&lt; T &gt;</text>
</a>
</g>
</g>
<!-- Node2&#45;&gt;Node1 -->
<g id="edge2" class="edge"><title>Node2&#45;&gt;Node1</title>
<path fill="none" stroke="orange" stroke-dasharray="5,2" d="M82.5,-114.037C82.5,-101.67 82.5,-86.1198 82.5,-76.6273"/>
<polygon fill="orange" stroke="orange" points="79.0001,-114.234 82.5,-124.234 86.0001,-114.234 79.0001,-114.234"/>
<text text-anchor="middle" x="130" y="-98" font-family="Helvetica,sans-Serif" font-size="10.00"> &lt; DocAutoListItem &gt;</text>
</g>
<!-- Node3 -->
<g id="node4" class="node"><title>Node3</title>
<g id="a_node4"><a xlink:href="../../d9/d0e/class_doc_node.html" target="_top" xlink:title="Abstract node interface with type information. ">
<polygon fill="white" stroke="black" points="183.5,-57.5 183.5,-76.5 241.5,-76.5 241.5,-57.5 183.5,-57.5"/>
<text text-anchor="middle" x="212.5" y="-64.5" font-family="Helvetica,sans-Serif" font-size="10.00">DocNode</text>
</a>
</g>
</g>
<!-- Node3&#45;&gt;Node0 -->
<g id="edge3" class="edge"><title>Node3&#45;&gt;Node0</title>
<path fill="none" stroke="midnightblue" d="M202.081,-48.6354C196.306,-39.0102 189.375,-27.459 184.729,-19.7149"/>
<polygon fill="midnightblue" stroke="midnightblue" points="199.198,-50.6321 207.344,-57.4062 205.2,-47.0306 199.198,-50.6321"/>
</g>
</g>
</svg>
