<?xml version="1.0" encoding="UTF-8" standalone="no"?>
<!DOCTYPE svg PUBLIC "-//W3C//DTD SVG 1.1//EN"
 "http://www.w3.org/Graphics/SVG/1.1/DTD/svg11.dtd">
<!-- Generated by graphviz version 2.38.0 (20140413.2041)
 -->
<!-- Title: UsedIndexLetters Pages: 1 -->
<svg width="102pt" height="152pt"
 viewBox="0.00 0.00 102.00 152.00" xmlns="http://www.w3.org/2000/svg" xmlns:xlink="http://www.w3.org/1999/xlink">
<g id="graph0" class="graph" transform="scale(1 1) rotate(0) translate(4 148)">
<title>UsedIndexLetters</title>
<polygon fill="white" stroke="none" points="-4,4 -4,-148 98,-148 98,4 -4,4"/>
<!-- Node0 -->
<g id="node1" class="node"><title>Node0</title>
<polygon fill="#bfbfbf" stroke="black" points="0,-0.5 0,-19.5 94,-19.5 94,-0.5 0,-0.5"/>
<text text-anchor="middle" x="47" y="-7.5" font-family="Helvetica,sans-Serif" font-size="10.00">UsedIndexLetters</text>
</g>
<!-- Node1 -->
<g id="node2" class="node"><title>Node1</title>
<g id="a_node2"><a xlink:href="../../d0/d9f/class_s_int_dict.html" target="_top" xlink:title="SIntDict\&lt; uint \&gt;">
<polygon fill="white" stroke="black" points="4,-57.5 4,-76.5 90,-76.5 90,-57.5 4,-57.5"/>
<text text-anchor="middle" x="47" y="-64.5" font-family="Helvetica,sans-Serif" font-size="10.00">SIntDict&lt; uint &gt;</text>
</a>
</g>
</g>
<!-- Node1&#45;&gt;Node0 -->
<g id="edge1" class="edge"><title>Node1&#45;&gt;Node0</title>
<path fill="none" stroke="midnightblue" d="M47,-47.1166C47,-37.8173 47,-27.0557 47,-19.7149"/>
<polygon fill="midnightblue" stroke="midnightblue" points="43.5001,-47.4062 47,-57.4062 50.5001,-47.4063 43.5001,-47.4062"/>
</g>
<!-- Node2 -->
<g id="node3" class="node"><title>Node2</title>
<g id="a_node3"><a xlink:href="../../d0/d9f/class_s_int_dict.html" target="_top" xlink:title="Ordered dictionary of elements of type T. ">
<polygon fill="white" stroke="black" points="8.5,-124.5 8.5,-143.5 85.5,-143.5 85.5,-124.5 8.5,-124.5"/>
<text text-anchor="middle" x="47" y="-131.5" font-family="Helvetica,sans-Serif" font-size="10.00">SIntDict&lt; T &gt;</text>
</a>
</g>
</g>
<!-- Node2&#45;&gt;Node1 -->
<g id="edge2" class="edge"><title>Node2&#45;&gt;Node1</title>
<path fill="none" stroke="orange" stroke-dasharray="5,2" d="M47,-114.037C47,-101.67 47,-86.1198 47,-76.6273"/>
<polygon fill="orange" stroke="orange" points="43.5001,-114.234 47,-124.234 50.5001,-114.234 43.5001,-114.234"/>
<text text-anchor="middle" x="65.5" y="-98" font-family="Helvetica,sans-Serif" font-size="10.00"> &lt; uint &gt;</text>
</g>
</g>
</svg>
