<?xml version="1.0" encoding="UTF-8" standalone="no"?>
<!DOCTYPE svg PUBLIC "-//W3C//DTD SVG 1.1//EN"
 "http://www.w3.org/Graphics/SVG/1.1/DTD/svg11.dtd">
<!-- Generated by graphviz version 2.38.0 (20140413.2041)
 -->
<!-- Title: src/vhdljjparser.h Pages: 1 -->
<svg width="600pt" height="207pt"
 viewBox="0.00 0.00 599.50 207.00" xmlns="http://www.w3.org/2000/svg" xmlns:xlink="http://www.w3.org/1999/xlink">
<g id="graph0" class="graph" transform="scale(1 1) rotate(0) translate(4 203)">
<title>src/vhdljjparser.h</title>
<polygon fill="white" stroke="none" points="-4,4 -4,-203 595.5,-203 595.5,4 -4,4"/>
<!-- Node29 -->
<g id="node1" class="node"><title>Node29</title>
<polygon fill="#bfbfbf" stroke="black" points="101,-179.5 101,-198.5 192,-198.5 192,-179.5 101,-179.5"/>
<text text-anchor="middle" x="146.5" y="-186.5" font-family="Helvetica,sans-Serif" font-size="10.00">src/vhdljjparser.h</text>
</g>
<!-- Node30 -->
<g id="node2" class="node"><title>Node30</title>
<g id="a_node2"><a xlink:href="../../dc/d98/doxygen_8cpp.html" target="_top" xlink:title="src/doxygen.cpp">
<polygon fill="white" stroke="black" points="0,-123.5 0,-142.5 89,-142.5 89,-123.5 0,-123.5"/>
<text text-anchor="middle" x="44.5" y="-130.5" font-family="Helvetica,sans-Serif" font-size="10.00">src/doxygen.cpp</text>
</a>
</g>
</g>
<!-- Node29&#45;&gt;Node30 -->
<g id="edge1" class="edge"><title>Node29&#45;&gt;Node30</title>
<path fill="none" stroke="midnightblue" d="M121.169,-174.59C102.31,-164.605 77.1158,-151.267 60.8474,-142.655"/>
<polygon fill="midnightblue" stroke="midnightblue" points="119.636,-177.738 130.112,-179.324 122.912,-171.552 119.636,-177.738"/>
</g>
<!-- Node31 -->
<g id="node3" class="node"><title>Node31</title>
<g id="a_node3"><a xlink:href="../../de/dea/vhdldocgen_8cpp.html" target="_top" xlink:title="src/vhdldocgen.cpp">
<polygon fill="white" stroke="black" points="146,-62 146,-81 247,-81 247,-62 146,-62"/>
<text text-anchor="middle" x="196.5" y="-69" font-family="Helvetica,sans-Serif" font-size="10.00">src/vhdldocgen.cpp</text>
</a>
</g>
</g>
<!-- Node29&#45;&gt;Node31 -->
<g id="edge2" class="edge"><title>Node29&#45;&gt;Node31</title>
<path fill="none" stroke="midnightblue" d="M154.36,-169.843C165.262,-144.659 184.55,-100.103 192.698,-81.282"/>
<polygon fill="midnightblue" stroke="midnightblue" points="151.019,-168.751 150.258,-179.319 157.443,-171.532 151.019,-168.751"/>
</g>
<!-- Node32 -->
<g id="node4" class="node"><title>Node32</title>
<g id="a_node4"><a xlink:href="../../d1/d86/vhdljjparser_8cpp.html" target="_top" xlink:title="src/vhdljjparser.cpp">
<polygon fill="white" stroke="black" points="151,-0.5 151,-19.5 252,-19.5 252,-0.5 151,-0.5"/>
<text text-anchor="middle" x="201.5" y="-7.5" font-family="Helvetica,sans-Serif" font-size="10.00">src/vhdljjparser.cpp</text>
</a>
</g>
</g>
<!-- Node29&#45;&gt;Node32 -->
<g id="edge3" class="edge"><title>Node29&#45;&gt;Node32</title>
<path fill="none" stroke="midnightblue" d="M139.33,-169.773C130.069,-143.114 117.282,-92.6789 136.5,-56 145.545,-38.7364 164.555,-26.7791 179.692,-19.553"/>
<polygon fill="midnightblue" stroke="midnightblue" points="136.116,-171.172 142.864,-179.34 142.682,-168.746 136.116,-171.172"/>
</g>
<!-- Node33 -->
<g id="node5" class="node"><title>Node33</title>
<g id="a_node5"><a xlink:href="../../d5/df9/_vhdl_parser_8h.html" target="_top" xlink:title="vhdlparser/VhdlParser.h">
<polygon fill="white" stroke="black" points="316,-123.5 316,-142.5 437,-142.5 437,-123.5 316,-123.5"/>
<text text-anchor="middle" x="376.5" y="-130.5" font-family="Helvetica,sans-Serif" font-size="10.00">vhdlparser/VhdlParser.h</text>
</a>
</g>
</g>
<!-- Node29&#45;&gt;Node33 -->
<g id="edge4" class="edge"><title>Node29&#45;&gt;Node33</title>
<path fill="none" stroke="midnightblue" d="M192.701,-177.153C236.158,-166.95 300.341,-151.881 340.226,-142.516"/>
<polygon fill="midnightblue" stroke="midnightblue" points="191.879,-173.75 182.944,-179.444 193.479,-180.565 191.879,-173.75"/>
</g>
<!-- Node33&#45;&gt;Node31 -->
<g id="edge5" class="edge"><title>Node33&#45;&gt;Node31</title>
<path fill="none" stroke="midnightblue" d="M340.899,-120.232C305.91,-108.666 253.364,-91.2966 222.242,-81.0091"/>
<polygon fill="midnightblue" stroke="midnightblue" points="340.117,-123.66 350.71,-123.475 342.314,-117.013 340.117,-123.66"/>
</g>
<!-- Node34 -->
<g id="node6" class="node"><title>Node34</title>
<g id="a_node6"><a xlink:href="../../d7/dad/_vhdl_parser_token_manager_8h.html" target="_top" xlink:title="vhdlparser/VhdlParserToken\lManager.h">
<polygon fill="white" stroke="black" points="451.5,-56.5 451.5,-86.5 591.5,-86.5 591.5,-56.5 451.5,-56.5"/>
<text text-anchor="start" x="459.5" y="-74.5" font-family="Helvetica,sans-Serif" font-size="10.00">vhdlparser/VhdlParserToken</text>
<text text-anchor="middle" x="521.5" y="-63.5" font-family="Helvetica,sans-Serif" font-size="10.00">Manager.h</text>
</a>
</g>
</g>
<!-- Node33&#45;&gt;Node34 -->
<g id="edge6" class="edge"><title>Node33&#45;&gt;Node34</title>
<path fill="none" stroke="midnightblue" d="M401.731,-119.331C423.782,-109.704 455.975,-96.468 481.496,-86.523"/>
<polygon fill="midnightblue" stroke="midnightblue" points="400.1,-116.225 392.374,-123.475 402.935,-122.625 400.1,-116.225"/>
</g>
<!-- Node35 -->
<g id="node7" class="node"><title>Node35</title>
<g id="a_node7"><a xlink:href="../../da/d40/_vhdl_parser_i_f_8cpp.html" target="_top" xlink:title="vhdlparser/VhdlParserIF.cpp">
<polygon fill="white" stroke="black" points="353.5,-0.5 353.5,-19.5 493.5,-19.5 493.5,-0.5 353.5,-0.5"/>
<text text-anchor="middle" x="423.5" y="-7.5" font-family="Helvetica,sans-Serif" font-size="10.00">vhdlparser/VhdlParserIF.cpp</text>
</a>
</g>
</g>
<!-- Node33&#45;&gt;Node35 -->
<g id="edge9" class="edge"><title>Node33&#45;&gt;Node35</title>
<path fill="none" stroke="midnightblue" d="M388.691,-115.216C394.17,-107.032 400.327,-96.8489 404.5,-87 414.369,-63.7077 419.927,-34.1422 422.229,-19.715"/>
<polygon fill="midnightblue" stroke="midnightblue" points="385.779,-113.274 382.936,-123.48 391.523,-117.274 385.779,-113.274"/>
</g>
<!-- Node36 -->
<g id="node8" class="node"><title>Node36</title>
<g id="a_node8"><a xlink:href="../../dd/d6f/_vhdl_parser_i_f_8h.html" target="_top" xlink:title="vhdlparser/VhdlParserIF.h">
<polygon fill="white" stroke="black" points="265.5,-62 265.5,-81 395.5,-81 395.5,-62 265.5,-62"/>
<text text-anchor="middle" x="330.5" y="-69" font-family="Helvetica,sans-Serif" font-size="10.00">vhdlparser/VhdlParserIF.h</text>
</a>
</g>
</g>
<!-- Node33&#45;&gt;Node36 -->
<g id="edge10" class="edge"><title>Node33&#45;&gt;Node36</title>
<path fill="none" stroke="midnightblue" d="M363.618,-115.338C354.984,-104.169 343.974,-89.9278 337.078,-81.0091"/>
<polygon fill="midnightblue" stroke="midnightblue" points="361.024,-117.704 369.909,-123.475 366.562,-113.423 361.024,-117.704"/>
</g>
<!-- Node34&#45;&gt;Node33 -->
<g id="edge7" class="edge"><title>Node34&#45;&gt;Node33</title>
<path fill="none" stroke="midnightblue" d="M483.72,-90.5734C458.045,-101.501 424.871,-114.927 402.176,-123.475"/>
<polygon fill="midnightblue" stroke="midnightblue" points="485.348,-93.6838 493.156,-86.523 482.587,-87.2514 485.348,-93.6838"/>
</g>
<!-- Node34&#45;&gt;Node35 -->
<g id="edge8" class="edge"><title>Node34&#45;&gt;Node35</title>
<path fill="none" stroke="midnightblue" d="M489.496,-51.0688C472.026,-40.4624 451.267,-27.8586 437.76,-19.6578"/>
<polygon fill="midnightblue" stroke="midnightblue" points="487.911,-54.2013 498.275,-56.3993 491.544,-48.2177 487.911,-54.2013"/>
</g>
<!-- Node36&#45;&gt;Node32 -->
<g id="edge11" class="edge"><title>Node36&#45;&gt;Node32</title>
<path fill="none" stroke="midnightblue" d="M302.693,-57.6742C277.661,-46.1287 241.582,-29.4875 219.948,-19.5091"/>
<polygon fill="midnightblue" stroke="midnightblue" points="301.471,-60.9649 312.017,-61.9751 304.403,-54.6085 301.471,-60.9649"/>
</g>
<!-- Node36&#45;&gt;Node35 -->
<g id="edge12" class="edge"><title>Node36&#45;&gt;Node35</title>
<path fill="none" stroke="midnightblue" d="M352.493,-56.4295C370.421,-44.9589 395.156,-29.1343 410.2,-19.5091"/>
<polygon fill="midnightblue" stroke="midnightblue" points="350.362,-53.6376 343.825,-61.9751 354.134,-59.534 350.362,-53.6376"/>
</g>
</g>
</svg>
