<?xml version="1.0" encoding="UTF-8" standalone="no"?>
<!DOCTYPE svg PUBLIC "-//W3C//DTD SVG 1.1//EN"
 "http://www.w3.org/Graphics/SVG/1.1/DTD/svg11.dtd">
<!-- Generated by graphviz version 2.38.0 (20140413.2041)
 -->
<!-- Title: src/clangparser.h Pages: 1 -->
<svg width="140pt" height="84pt"
 viewBox="0.00 0.00 139.50 84.00" xmlns="http://www.w3.org/2000/svg" xmlns:xlink="http://www.w3.org/1999/xlink">
<g id="graph0" class="graph" transform="scale(1 1) rotate(0) translate(4 80)">
<title>src/clangparser.h</title>
<polygon fill="white" stroke="none" points="-4,4 -4,-80 135.5,-80 135.5,4 -4,4"/>
<!-- Node0 -->
<g id="node1" class="node"><title>Node0</title>
<polygon fill="#bfbfbf" stroke="black" points="20.5,-56.5 20.5,-75.5 112.5,-75.5 112.5,-56.5 20.5,-56.5"/>
<text text-anchor="middle" x="66.5" y="-63.5" font-family="Helvetica,sans-Serif" font-size="10.00">src/clangparser.h</text>
</g>
<!-- Node1 -->
<g id="node2" class="node"><title>Node1</title>
<polygon fill="white" stroke="#bfbfbf" points="0,-0.5 0,-19.5 59,-19.5 59,-0.5 0,-0.5"/>
<text text-anchor="middle" x="29.5" y="-7.5" font-family="Helvetica,sans-Serif" font-size="10.00">qcstring.h</text>
</g>
<!-- Node0&#45;&gt;Node1 -->
<g id="edge1" class="edge"><title>Node0&#45;&gt;Node1</title>
<path fill="none" stroke="midnightblue" d="M60.3902,-56.083C55.2178,-48.5341 47.6539,-37.4948 41.3056,-28.2298"/>
<polygon fill="midnightblue" stroke="midnightblue" points="44.0357,-26.0221 35.4961,-19.7511 38.2612,-29.9787 44.0357,-26.0221"/>
</g>
<!-- Node2 -->
<g id="node3" class="node"><title>Node2</title>
<polygon fill="white" stroke="#bfbfbf" points="77.5,-0.5 77.5,-19.5 131.5,-19.5 131.5,-0.5 77.5,-0.5"/>
<text text-anchor="middle" x="104.5" y="-7.5" font-family="Helvetica,sans-Serif" font-size="10.00">qstrlist.h</text>
</g>
<!-- Node0&#45;&gt;Node2 -->
<g id="edge2" class="edge"><title>Node0&#45;&gt;Node2</title>
<path fill="none" stroke="midnightblue" d="M72.7749,-56.083C78.1425,-48.4554 86.0176,-37.2645 92.5787,-27.9408"/>
<polygon fill="midnightblue" stroke="midnightblue" points="95.4492,-29.9434 98.3418,-19.7511 89.7245,-25.9149 95.4492,-29.9434"/>
</g>
</g>
</svg>
