<?xml version="1.0" encoding="UTF-8" standalone="no"?>
<!DOCTYPE svg PUBLIC "-//W3C//DTD SVG 1.1//EN"
 "http://www.w3.org/Graphics/SVG/1.1/DTD/svg11.dtd">
<!-- Generated by graphviz version 2.38.0 (20140413.2041)
 -->
<!-- Title: vhdlparser/Token.h Pages: 1 -->
<svg width="504pt" height="319pt"
 viewBox="0.00 0.00 504.29 319.00" xmlns="http://www.w3.org/2000/svg" xmlns:xlink="http://www.w3.org/1999/xlink">
<g id="graph0" class="graph" transform="scale(1 1) rotate(0) translate(4 315)">
<title>vhdlparser/Token.h</title>
<polygon fill="white" stroke="none" points="-4,4 -4,-315 500.287,-315 500.287,4 -4,4"/>
<!-- Node9 -->
<g id="node1" class="node"><title>Node9</title>
<polygon fill="#bfbfbf" stroke="black" points="179.287,-291.5 179.287,-310.5 279.287,-310.5 279.287,-291.5 179.287,-291.5"/>
<text text-anchor="middle" x="229.287" y="-298.5" font-family="Helvetica,sans-Serif" font-size="10.00">vhdlparser/Token.h</text>
</g>
<!-- Node10 -->
<g id="node2" class="node"><title>Node10</title>
<g id="a_node2"><a xlink:href="../../d3/dd5/_error_handler_8h.html" target="_top" xlink:title="vhdlparser/ErrorHandler.h">
<polygon fill="white" stroke="black" points="14.2872,-235.5 14.2872,-254.5 142.287,-254.5 142.287,-235.5 14.2872,-235.5"/>
<text text-anchor="middle" x="78.2872" y="-242.5" font-family="Helvetica,sans-Serif" font-size="10.00">vhdlparser/ErrorHandler.h</text>
</a>
</g>
</g>
<!-- Node9&#45;&gt;Node10 -->
<g id="edge1" class="edge"><title>Node9&#45;&gt;Node10</title>
<path fill="none" stroke="midnightblue" d="M195.841,-288.039C167.429,-277.879 127.35,-263.546 102.102,-254.516"/>
<polygon fill="midnightblue" stroke="midnightblue" points="194.766,-291.372 205.361,-291.444 197.123,-284.781 194.766,-291.372"/>
</g>
<!-- Node11 -->
<g id="node3" class="node"><title>Node11</title>
<g id="a_node3"><a xlink:href="../../d7/dad/_vhdl_parser_token_manager_8h.html" target="_top" xlink:title="vhdlparser/VhdlParserToken\lManager.h">
<polygon fill="white" stroke="black" points="10.2872,-168.5 10.2872,-198.5 150.287,-198.5 150.287,-168.5 10.2872,-168.5"/>
<text text-anchor="start" x="18.2872" y="-186.5" font-family="Helvetica,sans-Serif" font-size="10.00">vhdlparser/VhdlParserToken</text>
<text text-anchor="middle" x="80.2872" y="-175.5" font-family="Helvetica,sans-Serif" font-size="10.00">Manager.h</text>
</a>
</g>
</g>
<!-- Node9&#45;&gt;Node11 -->
<g id="edge17" class="edge"><title>Node9&#45;&gt;Node11</title>
<path fill="none" stroke="midnightblue" d="M169.23,-296.319C110.066,-291.291 25.6614,-279.874 5.28717,-255 -12.3211,-233.503 19.134,-212.109 46.5449,-198.625"/>
<polygon fill="midnightblue" stroke="midnightblue" points="168.978,-299.81 179.228,-297.129 169.543,-292.833 168.978,-299.81"/>
</g>
<!-- Node12 -->
<g id="node4" class="node"><title>Node12</title>
<g id="a_node4"><a xlink:href="../../d5/df9/_vhdl_parser_8h.html" target="_top" xlink:title="vhdlparser/VhdlParser.h">
<polygon fill="white" stroke="black" points="127.787,-112.5 127.787,-131.5 248.787,-131.5 248.787,-112.5 127.787,-112.5"/>
<text text-anchor="middle" x="188.287" y="-119.5" font-family="Helvetica,sans-Serif" font-size="10.00">vhdlparser/VhdlParser.h</text>
</a>
</g>
</g>
<!-- Node9&#45;&gt;Node12 -->
<g id="edge16" class="edge"><title>Node9&#45;&gt;Node12</title>
<path fill="none" stroke="midnightblue" d="M265.611,-287.465C290.576,-276.52 317.516,-258.675 307.287,-235 285.907,-185.517 230.713,-147.791 203.674,-131.627"/>
<polygon fill="midnightblue" stroke="midnightblue" points="264.142,-284.285 256.221,-291.32 266.801,-290.76 264.142,-284.285"/>
</g>
<!-- Node17 -->
<g id="node9" class="node"><title>Node17</title>
<g id="a_node9"><a xlink:href="../../d7/de0/_parse_exception_8h.html" target="_top" xlink:title="vhdlparser/ParseException.h">
<polygon fill="white" stroke="black" points="354.287,-235.5 354.287,-254.5 496.287,-254.5 496.287,-235.5 354.287,-235.5"/>
<text text-anchor="middle" x="425.287" y="-242.5" font-family="Helvetica,sans-Serif" font-size="10.00">vhdlparser/ParseException.h</text>
</a>
</g>
</g>
<!-- Node9&#45;&gt;Node17 -->
<g id="edge12" class="edge"><title>Node9&#45;&gt;Node17</title>
<path fill="none" stroke="midnightblue" d="M270.307,-288.699C307.299,-278.507 360.887,-263.743 394.376,-254.516"/>
<polygon fill="midnightblue" stroke="midnightblue" points="269.055,-285.413 260.344,-291.444 270.914,-292.162 269.055,-285.413"/>
</g>
<!-- Node18 -->
<g id="node10" class="node"><title>Node18</title>
<g id="a_node10"><a xlink:href="../../d4/df9/_token_manager_8h.html" target="_top" xlink:title="vhdlparser/TokenManager.h">
<polygon fill="white" stroke="black" points="160.787,-235.5 160.787,-254.5 297.787,-254.5 297.787,-235.5 160.787,-235.5"/>
<text text-anchor="middle" x="229.287" y="-242.5" font-family="Helvetica,sans-Serif" font-size="10.00">vhdlparser/TokenManager.h</text>
</a>
</g>
</g>
<!-- Node9&#45;&gt;Node18 -->
<g id="edge13" class="edge"><title>Node9&#45;&gt;Node18</title>
<path fill="none" stroke="midnightblue" d="M229.287,-280.805C229.287,-271.91 229.287,-261.78 229.287,-254.751"/>
<polygon fill="midnightblue" stroke="midnightblue" points="225.787,-281.083 229.287,-291.083 232.787,-281.083 225.787,-281.083"/>
</g>
<!-- Node10&#45;&gt;Node11 -->
<g id="edge2" class="edge"><title>Node10&#45;&gt;Node11</title>
<path fill="none" stroke="midnightblue" d="M78.9179,-225.235C79.2086,-216.586 79.5478,-206.497 79.8158,-198.523"/>
<polygon fill="midnightblue" stroke="midnightblue" points="75.4117,-225.363 78.5737,-235.475 82.4078,-225.598 75.4117,-225.363"/>
</g>
<!-- Node10&#45;&gt;Node12 -->
<g id="edge11" class="edge"><title>Node10&#45;&gt;Node12</title>
<path fill="none" stroke="midnightblue" d="M112.851,-231.298C128.799,-223.953 146.897,-213.295 159.287,-199 176.861,-178.723 184.323,-146.681 187.003,-131.507"/>
<polygon fill="midnightblue" stroke="midnightblue" points="111.055,-228.261 103.269,-235.446 113.836,-234.685 111.055,-228.261"/>
</g>
<!-- Node11&#45;&gt;Node12 -->
<g id="edge3" class="edge"><title>Node11&#45;&gt;Node12</title>
<path fill="none" stroke="midnightblue" d="M108.928,-163.215C127.419,-152.578 150.917,-139.896 167.643,-131.658"/>
<polygon fill="midnightblue" stroke="midnightblue" points="106.915,-160.337 100.042,-168.399 110.443,-166.383 106.915,-160.337"/>
</g>
<!-- Node14 -->
<g id="node6" class="node"><title>Node14</title>
<g id="a_node6"><a xlink:href="../../da/d40/_vhdl_parser_i_f_8cpp.html" target="_top" xlink:title="vhdlparser/VhdlParserIF.cpp">
<polygon fill="white" stroke="black" points="42.2872,-0.5 42.2872,-19.5 182.287,-19.5 182.287,-0.5 42.2872,-0.5"/>
<text text-anchor="middle" x="112.287" y="-7.5" font-family="Helvetica,sans-Serif" font-size="10.00">vhdlparser/VhdlParserIF.cpp</text>
</a>
</g>
</g>
<!-- Node11&#45;&gt;Node14 -->
<g id="edge10" class="edge"><title>Node11&#45;&gt;Node14</title>
<path fill="none" stroke="midnightblue" d="M84.7579,-158.54C92.0038,-119.706 105.977,-44.8202 110.69,-19.5597"/>
<polygon fill="midnightblue" stroke="midnightblue" points="81.2996,-157.993 82.9059,-168.465 88.1808,-159.277 81.2996,-157.993"/>
</g>
<!-- Node12&#45;&gt;Node11 -->
<g id="edge5" class="edge"><title>Node12&#45;&gt;Node11</title>
<path fill="none" stroke="midnightblue" d="M168.519,-137.109C152.578,-146.559 130.084,-158.951 111.722,-168.399"/>
<polygon fill="midnightblue" stroke="midnightblue" points="170.768,-139.838 177.502,-131.658 167.137,-133.854 170.768,-139.838"/>
</g>
<!-- Node13 -->
<g id="node5" class="node"><title>Node13</title>
<g id="a_node5"><a xlink:href="../../de/dea/vhdldocgen_8cpp.html" target="_top" xlink:title="src/vhdldocgen.cpp">
<polygon fill="white" stroke="black" points="140.787,-56.5 140.787,-75.5 241.787,-75.5 241.787,-56.5 140.787,-56.5"/>
<text text-anchor="middle" x="191.287" y="-63.5" font-family="Helvetica,sans-Serif" font-size="10.00">src/vhdldocgen.cpp</text>
</a>
</g>
</g>
<!-- Node12&#45;&gt;Node13 -->
<g id="edge4" class="edge"><title>Node12&#45;&gt;Node13</title>
<path fill="none" stroke="midnightblue" d="M189.354,-101.805C189.848,-92.9102 190.411,-82.7798 190.801,-75.7511"/>
<polygon fill="midnightblue" stroke="midnightblue" points="185.843,-101.904 188.783,-112.083 192.832,-102.293 185.843,-101.904"/>
</g>
<!-- Node12&#45;&gt;Node14 -->
<g id="edge6" class="edge"><title>Node12&#45;&gt;Node14</title>
<path fill="none" stroke="midnightblue" d="M164.038,-106.847C152.616,-99.0628 139.688,-88.4538 131.287,-76 119.321,-58.261 114.766,-32.8915 113.133,-19.707"/>
<polygon fill="midnightblue" stroke="midnightblue" points="162.457,-109.992 172.759,-112.465 166.248,-104.107 162.457,-109.992"/>
</g>
<!-- Node15 -->
<g id="node7" class="node"><title>Node15</title>
<g id="a_node7"><a xlink:href="../../dd/d6f/_vhdl_parser_i_f_8h.html" target="_top" xlink:title="vhdlparser/VhdlParserIF.h">
<polygon fill="white" stroke="black" points="260.287,-56.5 260.287,-75.5 390.287,-75.5 390.287,-56.5 260.287,-56.5"/>
<text text-anchor="middle" x="325.287" y="-63.5" font-family="Helvetica,sans-Serif" font-size="10.00">vhdlparser/VhdlParserIF.h</text>
</a>
</g>
</g>
<!-- Node12&#45;&gt;Node15 -->
<g id="edge7" class="edge"><title>Node12&#45;&gt;Node15</title>
<path fill="none" stroke="midnightblue" d="M219.31,-108.772C245.044,-98.6287 280.973,-84.4669 303.681,-75.5164"/>
<polygon fill="midnightblue" stroke="midnightblue" points="218.015,-105.52 209.995,-112.444 220.582,-112.033 218.015,-105.52"/>
</g>
<!-- Node15&#45;&gt;Node14 -->
<g id="edge9" class="edge"><title>Node15&#45;&gt;Node14</title>
<path fill="none" stroke="midnightblue" d="M281.736,-53.959C241.507,-43.7598 182.584,-28.8217 145.88,-19.5164"/>
<polygon fill="midnightblue" stroke="midnightblue" points="280.983,-57.3787 291.537,-56.4435 282.703,-50.5933 280.983,-57.3787"/>
</g>
<!-- Node16 -->
<g id="node8" class="node"><title>Node16</title>
<g id="a_node8"><a xlink:href="../../d1/d86/vhdljjparser_8cpp.html" target="_top" xlink:title="src/vhdljjparser.cpp">
<polygon fill="white" stroke="black" points="274.787,-0.5 274.787,-19.5 375.787,-19.5 375.787,-0.5 274.787,-0.5"/>
<text text-anchor="middle" x="325.287" y="-7.5" font-family="Helvetica,sans-Serif" font-size="10.00">src/vhdljjparser.cpp</text>
</a>
</g>
</g>
<!-- Node15&#45;&gt;Node16 -->
<g id="edge8" class="edge"><title>Node15&#45;&gt;Node16</title>
<path fill="none" stroke="midnightblue" d="M325.287,-45.8045C325.287,-36.9102 325.287,-26.7798 325.287,-19.7511"/>
<polygon fill="midnightblue" stroke="midnightblue" points="321.787,-46.083 325.287,-56.083 328.787,-46.083 321.787,-46.083"/>
</g>
<!-- Node18&#45;&gt;Node11 -->
<g id="edge15" class="edge"><title>Node18&#45;&gt;Node11</title>
<path fill="none" stroke="midnightblue" d="M198.533,-231.719C174.35,-222.062 140.644,-208.602 115.404,-198.523"/>
<polygon fill="midnightblue" stroke="midnightblue" points="197.354,-235.017 207.939,-235.475 199.95,-228.516 197.354,-235.017"/>
</g>
<!-- Node18&#45;&gt;Node12 -->
<g id="edge14" class="edge"><title>Node18&#45;&gt;Node12</title>
<path fill="none" stroke="midnightblue" d="M223.086,-225.7C214.106,-199.197 197.832,-151.169 191.209,-131.623"/>
<polygon fill="midnightblue" stroke="midnightblue" points="219.814,-226.95 226.339,-235.298 226.444,-224.704 219.814,-226.95"/>
</g>
</g>
</svg>
