<?xml version="1.0" encoding="UTF-8" standalone="no"?>
<!DOCTYPE svg PUBLIC "-//W3C//DTD SVG 1.1//EN"
 "http://www.w3.org/Graphics/SVG/1.1/DTD/svg11.dtd">
<!-- Generated by graphviz version 2.38.0 (20140413.2041)
 -->
<!-- Title: vhdlparser/VhdlParser.h Pages: 1 -->
<svg width="462pt" height="151pt"
 viewBox="0.00 0.00 462.00 151.00" xmlns="http://www.w3.org/2000/svg" xmlns:xlink="http://www.w3.org/1999/xlink">
<g id="graph0" class="graph" transform="scale(1 1) rotate(0) translate(4 147)">
<title>vhdlparser/VhdlParser.h</title>
<polygon fill="white" stroke="none" points="-4,4 -4,-147 458,-147 458,4 -4,4"/>
<!-- Node41 -->
<g id="node1" class="node"><title>Node41</title>
<polygon fill="#bfbfbf" stroke="black" points="129,-123.5 129,-142.5 250,-142.5 250,-123.5 129,-123.5"/>
<text text-anchor="middle" x="189.5" y="-130.5" font-family="Helvetica,sans-Serif" font-size="10.00">vhdlparser/VhdlParser.h</text>
</g>
<!-- Node42 -->
<g id="node2" class="node"><title>Node42</title>
<g id="a_node2"><a xlink:href="../../de/dea/vhdldocgen_8cpp.html" target="_top" xlink:title="src/vhdldocgen.cpp">
<polygon fill="white" stroke="black" points="0,-62 0,-81 101,-81 101,-62 0,-62"/>
<text text-anchor="middle" x="50.5" y="-69" font-family="Helvetica,sans-Serif" font-size="10.00">src/vhdldocgen.cpp</text>
</a>
</g>
</g>
<!-- Node41&#45;&gt;Node42 -->
<g id="edge1" class="edge"><title>Node41&#45;&gt;Node42</title>
<path fill="none" stroke="midnightblue" d="M160.25,-119.48C133.255,-107.924 93.8956,-91.0758 70.3784,-81.0091"/>
<polygon fill="midnightblue" stroke="midnightblue" points="159.014,-122.757 169.585,-123.475 161.769,-116.322 159.014,-122.757"/>
</g>
<!-- Node43 -->
<g id="node3" class="node"><title>Node43</title>
<g id="a_node3"><a xlink:href="../../d7/dad/_vhdl_parser_token_manager_8h.html" target="_top" xlink:title="vhdlparser/VhdlParserToken\lManager.h">
<polygon fill="white" stroke="black" points="119.5,-56.5 119.5,-86.5 259.5,-86.5 259.5,-56.5 119.5,-56.5"/>
<text text-anchor="start" x="127.5" y="-74.5" font-family="Helvetica,sans-Serif" font-size="10.00">vhdlparser/VhdlParserToken</text>
<text text-anchor="middle" x="189.5" y="-63.5" font-family="Helvetica,sans-Serif" font-size="10.00">Manager.h</text>
</a>
</g>
</g>
<!-- Node41&#45;&gt;Node43 -->
<g id="edge2" class="edge"><title>Node41&#45;&gt;Node43</title>
<path fill="none" stroke="midnightblue" d="M183.201,-113.526C182.471,-104.813 182.627,-94.5865 183.67,-86.523"/>
<polygon fill="midnightblue" stroke="midnightblue" points="179.741,-114.06 184.599,-123.475 186.673,-113.085 179.741,-114.06"/>
</g>
<!-- Node44 -->
<g id="node4" class="node"><title>Node44</title>
<g id="a_node4"><a xlink:href="../../da/d40/_vhdl_parser_i_f_8cpp.html" target="_top" xlink:title="vhdlparser/VhdlParserIF.cpp">
<polygon fill="white" stroke="black" points="194.5,-0.5 194.5,-19.5 334.5,-19.5 334.5,-0.5 194.5,-0.5"/>
<text text-anchor="middle" x="264.5" y="-7.5" font-family="Helvetica,sans-Serif" font-size="10.00">vhdlparser/VhdlParserIF.cpp</text>
</a>
</g>
</g>
<!-- Node41&#45;&gt;Node44 -->
<g id="edge5" class="edge"><title>Node41&#45;&gt;Node44</title>
<path fill="none" stroke="midnightblue" d="M228.705,-119.46C243.922,-112.457 259.764,-102.03 268.5,-87 280.982,-65.5242 272.974,-34.6037 267.839,-19.6924"/>
<polygon fill="midnightblue" stroke="midnightblue" points="227.238,-116.28 219.381,-123.387 229.955,-122.731 227.238,-116.28"/>
</g>
<!-- Node45 -->
<g id="node5" class="node"><title>Node45</title>
<g id="a_node5"><a xlink:href="../../dd/d6f/_vhdl_parser_i_f_8h.html" target="_top" xlink:title="vhdlparser/VhdlParserIF.h">
<polygon fill="white" stroke="black" points="315.5,-62 315.5,-81 445.5,-81 445.5,-62 315.5,-62"/>
<text text-anchor="middle" x="380.5" y="-69" font-family="Helvetica,sans-Serif" font-size="10.00">vhdlparser/VhdlParserIF.h</text>
</a>
</g>
</g>
<!-- Node41&#45;&gt;Node45 -->
<g id="edge6" class="edge"><title>Node41&#45;&gt;Node45</title>
<path fill="none" stroke="midnightblue" d="M226.799,-120.381C263.925,-108.815 320.02,-91.3407 353.185,-81.0091"/>
<polygon fill="midnightblue" stroke="midnightblue" points="225.372,-117.159 216.866,-123.475 227.454,-123.842 225.372,-117.159"/>
</g>
<!-- Node43&#45;&gt;Node41 -->
<g id="edge3" class="edge"><title>Node43&#45;&gt;Node41</title>
<path fill="none" stroke="midnightblue" d="M196.144,-96.6956C196.509,-106.192 195.928,-116.471 194.401,-123.475"/>
<polygon fill="midnightblue" stroke="midnightblue" points="199.617,-96.2117 195.33,-86.523 192.639,-96.7704 199.617,-96.2117"/>
</g>
<!-- Node43&#45;&gt;Node44 -->
<g id="edge4" class="edge"><title>Node43&#45;&gt;Node44</title>
<path fill="none" stroke="midnightblue" d="M215.475,-49.8934C228.521,-39.5432 243.629,-27.5577 253.587,-19.6578"/>
<polygon fill="midnightblue" stroke="midnightblue" points="212.933,-47.4423 207.274,-56.3993 217.283,-52.9262 212.933,-47.4423"/>
</g>
<!-- Node45&#45;&gt;Node44 -->
<g id="edge8" class="edge"><title>Node45&#45;&gt;Node44</title>
<path fill="none" stroke="midnightblue" d="M354.895,-57.3665C332.413,-45.8347 300.371,-29.3992 281.089,-19.5091"/>
<polygon fill="midnightblue" stroke="midnightblue" points="353.385,-60.5253 363.88,-61.9751 356.58,-54.2969 353.385,-60.5253"/>
</g>
<!-- Node46 -->
<g id="node6" class="node"><title>Node46</title>
<g id="a_node6"><a xlink:href="../../d1/d86/vhdljjparser_8cpp.html" target="_top" xlink:title="src/vhdljjparser.cpp">
<polygon fill="white" stroke="black" points="353,-0.5 353,-19.5 454,-19.5 454,-0.5 353,-0.5"/>
<text text-anchor="middle" x="403.5" y="-7.5" font-family="Helvetica,sans-Serif" font-size="10.00">src/vhdljjparser.cpp</text>
</a>
</g>
</g>
<!-- Node45&#45;&gt;Node46 -->
<g id="edge7" class="edge"><title>Node45&#45;&gt;Node46</title>
<path fill="none" stroke="midnightblue" d="M387.459,-52.4968C391.691,-41.5497 396.9,-28.0746 400.211,-19.5091"/>
<polygon fill="midnightblue" stroke="midnightblue" points="384.136,-51.3857 383.795,-61.9751 390.666,-53.9097 384.136,-51.3857"/>
</g>
</g>
</svg>
