<?xml version="1.0" encoding="UTF-8" standalone="no"?>
<!DOCTYPE svg PUBLIC "-//W3C//DTD SVG 1.1//EN"
 "http://www.w3.org/Graphics/SVG/1.1/DTD/svg11.dtd">
<!-- Generated by graphviz version 2.38.0 (20140413.2041)
 -->
<!-- Title: FilePairDict Pages: 1 -->
<svg width="348pt" height="162pt"
 viewBox="0.00 0.00 347.50 162.00" xmlns="http://www.w3.org/2000/svg" xmlns:xlink="http://www.w3.org/1999/xlink">
<g id="graph0" class="graph" transform="scale(1 1) rotate(0) translate(4 158)">
<title>FilePairDict</title>
<polygon fill="white" stroke="none" points="-4,4 -4,-158 343.5,-158 343.5,4 -4,4"/>
<!-- Node3 -->
<g id="node1" class="node"><title>Node3</title>
<polygon fill="#bfbfbf" stroke="black" points="271.5,-0.5 271.5,-19.5 339.5,-19.5 339.5,-0.5 271.5,-0.5"/>
<text text-anchor="middle" x="305.5" y="-7.5" font-family="Helvetica,sans-Serif" font-size="10.00">FilePairDict</text>
</g>
<!-- Node4 -->
<g id="node2" class="node"><title>Node4</title>
<g id="a_node2"><a xlink:href="../../d1/d50/class_s_dict.html" target="_top" xlink:title="SDict\&lt; FilePair \&gt;">
<polygon fill="white" stroke="black" points="214.5,-67.5 214.5,-86.5 306.5,-86.5 306.5,-67.5 214.5,-67.5"/>
<text text-anchor="middle" x="260.5" y="-74.5" font-family="Helvetica,sans-Serif" font-size="10.00">SDict&lt; FilePair &gt;</text>
</a>
</g>
</g>
<!-- Node4&#45;&gt;Node3 -->
<g id="edge1" class="edge"><title>Node4&#45;&gt;Node3</title>
<path fill="none" stroke="midnightblue" d="M280.932,-60.8271C284.81,-57.2657 288.565,-53.2563 291.5,-49 297.726,-39.9703 301.563,-27.8347 303.61,-19.7316"/>
<polygon fill="midnightblue" stroke="midnightblue" points="278.449,-58.3415 273.027,-67.4437 282.941,-63.7094 278.449,-58.3415"/>
</g>
<!-- Node5 -->
<g id="node3" class="node"><title>Node5</title>
<g id="a_node3"><a xlink:href="../../df/dce/class_s_list.html" target="_top" xlink:title="SList\&lt; FilePair \&gt;">
<polygon fill="white" stroke="black" points="110.5,-0.5 110.5,-19.5 200.5,-19.5 200.5,-0.5 110.5,-0.5"/>
<text text-anchor="middle" x="155.5" y="-7.5" font-family="Helvetica,sans-Serif" font-size="10.00">SList&lt; FilePair &gt;</text>
</a>
</g>
</g>
<!-- Node4&#45;&gt;Node5 -->
<g id="edge4" class="edge"><title>Node4&#45;&gt;Node5</title>
<path fill="none" stroke="#9a32cd" stroke-dasharray="5,2" d="M220.818,-63.8965C210.812,-59.9418 200.394,-54.9899 191.5,-49 179.44,-40.8777 168.392,-28.0645 161.803,-19.5969"/>
<polygon fill="#9a32cd" stroke="#9a32cd" points="219.63,-67.1885 230.223,-67.3838 222.064,-60.6253 219.63,-67.1885"/>
<text text-anchor="middle" x="213" y="-41" font-family="Helvetica,sans-Serif" font-size="10.00"> m_owner</text>
</g>
<!-- Node5&#45;&gt;Node4 -->
<g id="edge2" class="edge"><title>Node5&#45;&gt;Node4</title>
<path fill="none" stroke="#9a32cd" stroke-dasharray="5,2" d="M210.339,-22.5278C220.392,-26.3269 230.287,-31.3551 238.5,-38 247.982,-45.6717 254.205,-58.5976 257.539,-67.2131"/>
<polygon fill="#9a32cd" stroke="#9a32cd" points="211.297,-19.1568 200.703,-19.2493 209.042,-25.7838 211.297,-19.1568"/>
<text text-anchor="middle" x="263.5" y="-41" font-family="Helvetica,sans-Serif" font-size="10.00"> m_list</text>
</g>
<!-- Node6 -->
<g id="node4" class="node"><title>Node6</title>
<polygon fill="white" stroke="#bfbfbf" points="0,-67.5 0,-86.5 91,-86.5 91,-67.5 0,-67.5"/>
<text text-anchor="middle" x="45.5" y="-74.5" font-family="Helvetica,sans-Serif" font-size="10.00">QList&lt; FilePair &gt;</text>
</g>
<!-- Node6&#45;&gt;Node5 -->
<g id="edge3" class="edge"><title>Node6&#45;&gt;Node5</title>
<path fill="none" stroke="midnightblue" d="M68.9976,-62.1151C90.7912,-49.237 122.541,-30.4758 140.9,-19.6273"/>
<polygon fill="midnightblue" stroke="midnightblue" points="67.1638,-59.1332 60.3351,-67.2338 70.7249,-65.1597 67.1638,-59.1332"/>
</g>
<!-- Node7 -->
<g id="node5" class="node"><title>Node7</title>
<g id="a_node5"><a xlink:href="../../df/dce/class_s_list.html" target="_top" xlink:title="internal wrapper class that redirects compareValues() to the dictionary ">
<polygon fill="white" stroke="black" points="109,-67.5 109,-86.5 172,-86.5 172,-67.5 109,-67.5"/>
<text text-anchor="middle" x="140.5" y="-74.5" font-family="Helvetica,sans-Serif" font-size="10.00">SList&lt; T &gt;</text>
</a>
</g>
</g>
<!-- Node7&#45;&gt;Node5 -->
<g id="edge5" class="edge"><title>Node7&#45;&gt;Node5</title>
<path fill="none" stroke="orange" stroke-dasharray="5,2" d="M122.331,-59.7944C117.104,-53.1552 113.72,-45.3236 117.5,-38 121.583,-30.0895 129.174,-23.992 136.503,-19.6101"/>
<polygon fill="orange" stroke="orange" points="120.129,-62.5613 129.534,-67.4381 125.223,-57.7602 120.129,-62.5613"/>
<text text-anchor="middle" x="145" y="-41" font-family="Helvetica,sans-Serif" font-size="10.00"> &lt; FilePair &gt;</text>
</g>
<!-- Node8 -->
<g id="node6" class="node"><title>Node8</title>
<polygon fill="white" stroke="#bfbfbf" points="108.5,-134.5 108.5,-153.5 172.5,-153.5 172.5,-134.5 108.5,-134.5"/>
<text text-anchor="middle" x="140.5" y="-141.5" font-family="Helvetica,sans-Serif" font-size="10.00">QList&lt; T &gt;</text>
</g>
<!-- Node8&#45;&gt;Node7 -->
<g id="edge6" class="edge"><title>Node8&#45;&gt;Node7</title>
<path fill="none" stroke="midnightblue" d="M140.5,-124.037C140.5,-111.67 140.5,-96.1198 140.5,-86.6273"/>
<polygon fill="midnightblue" stroke="midnightblue" points="137,-124.234 140.5,-134.234 144,-124.234 137,-124.234"/>
</g>
<!-- Node9 -->
<g id="node7" class="node"><title>Node9</title>
<g id="a_node7"><a xlink:href="../../d1/d50/class_s_dict.html" target="_top" xlink:title="Ordered dictionary of elements of type T. ">
<polygon fill="white" stroke="black" points="228,-134.5 228,-153.5 293,-153.5 293,-134.5 228,-134.5"/>
<text text-anchor="middle" x="260.5" y="-141.5" font-family="Helvetica,sans-Serif" font-size="10.00">SDict&lt; T &gt;</text>
</a>
</g>
</g>
<!-- Node9&#45;&gt;Node4 -->
<g id="edge7" class="edge"><title>Node9&#45;&gt;Node4</title>
<path fill="none" stroke="orange" stroke-dasharray="5,2" d="M260.5,-124.037C260.5,-111.67 260.5,-96.1198 260.5,-86.6273"/>
<polygon fill="orange" stroke="orange" points="257,-124.234 260.5,-134.234 264,-124.234 257,-124.234"/>
<text text-anchor="middle" x="288" y="-108" font-family="Helvetica,sans-Serif" font-size="10.00"> &lt; FilePair &gt;</text>
</g>
</g>
</svg>
