<?xml version="1.0" encoding="UTF-8" standalone="no"?>
<!DOCTYPE svg PUBLIC "-//W3C//DTD SVG 1.1//EN"
 "http://www.w3.org/Graphics/SVG/1.1/DTD/svg11.dtd">
<!-- Generated by graphviz version 2.38.0 (20140413.2041)
 -->
<!-- Title: TemplateNodeSet Pages: 1 -->
<svg width="307pt" height="230pt"
 viewBox="0.00 0.00 307.00 230.00" xmlns="http://www.w3.org/2000/svg" xmlns:xlink="http://www.w3.org/1999/xlink">
<g id="graph0" class="graph" transform="scale(1 1) rotate(0) translate(4 226)">
<title>TemplateNodeSet</title>
<polygon fill="white" stroke="none" points="-4,4 -4,-226 303,-226 303,4 -4,4"/>
<!-- Node4 -->
<g id="node1" class="node"><title>Node4</title>
<polygon fill="#bfbfbf" stroke="black" points="123.5,-0.5 123.5,-19.5 218.5,-19.5 218.5,-0.5 123.5,-0.5"/>
<text text-anchor="middle" x="171" y="-7.5" font-family="Helvetica,sans-Serif" font-size="10.00">TemplateNodeSet</text>
</g>
<!-- Node5 -->
<g id="node2" class="node"><title>Node5</title>
<g id="a_node2"><a xlink:href="../../d8/d78/class_template_node_creator.html" target="_top" xlink:title="TemplateNodeCreator\l\&lt; TemplateNodeSet \&gt;">
<polygon fill="white" stroke="black" points="29.5,-67.5 29.5,-97.5 142.5,-97.5 142.5,-67.5 29.5,-67.5"/>
<text text-anchor="start" x="37.5" y="-85.5" font-family="Helvetica,sans-Serif" font-size="10.00">TemplateNodeCreator</text>
<text text-anchor="middle" x="86" y="-74.5" font-family="Helvetica,sans-Serif" font-size="10.00">&lt; TemplateNodeSet &gt;</text>
</a>
</g>
</g>
<!-- Node5&#45;&gt;Node4 -->
<g id="edge1" class="edge"><title>Node5&#45;&gt;Node4</title>
<path fill="none" stroke="midnightblue" d="M111.306,-60.5106C127.641,-46.9628 148.05,-30.0348 160.278,-19.8932"/>
<polygon fill="midnightblue" stroke="midnightblue" points="108.664,-58.1553 103.201,-67.2333 113.132,-63.5432 108.664,-58.1553"/>
</g>
<!-- Node6 -->
<g id="node3" class="node"><title>Node6</title>
<g id="a_node3"><a xlink:href="../../d6/d53/class_template_node.html" target="_top" xlink:title="Base class of all nodes in a template&#39;s AST. ">
<polygon fill="white" stroke="black" points="0,-202.5 0,-221.5 80,-221.5 80,-202.5 0,-202.5"/>
<text text-anchor="middle" x="40" y="-209.5" font-family="Helvetica,sans-Serif" font-size="10.00">TemplateNode</text>
</a>
</g>
</g>
<!-- Node6&#45;&gt;Node5 -->
<g id="edge2" class="edge"><title>Node6&#45;&gt;Node5</title>
<path fill="none" stroke="midnightblue" d="M31.8193,-192.537C27.0228,-178.992 22.9765,-160.36 29,-145 36.6001,-125.619 53.495,-108.701 66.9292,-97.5411"/>
<polygon fill="midnightblue" stroke="midnightblue" points="28.6964,-194.155 35.6488,-202.15 35.1993,-191.565 28.6964,-194.155"/>
</g>
<!-- Node6&#45;&gt;Node6 -->
<g id="edge3" class="edge"><title>Node6&#45;&gt;Node6</title>
<path fill="none" stroke="#9a32cd" stroke-dasharray="5,2" d="M90.2648,-216.218C95.0048,-215.354 98,-213.948 98,-212 98,-208.883 90.3323,-207.154 80.1186,-206.813"/>
<polygon fill="#9a32cd" stroke="#9a32cd" points="89.7405,-212.752 80.1186,-217.187 90.4062,-219.72 89.7405,-212.752"/>
<text text-anchor="middle" x="120" y="-209.5" font-family="Helvetica,sans-Serif" font-size="10.00"> m_parent</text>
</g>
<!-- Node7 -->
<g id="node4" class="node"><title>Node7</title>
<g id="a_node4"><a xlink:href="../../d8/d78/class_template_node_creator.html" target="_top" xlink:title="Helper class for creating template AST tag nodes and returning the template for a given node...">
<polygon fill="white" stroke="black" points="38.5,-145.5 38.5,-164.5 175.5,-164.5 175.5,-145.5 38.5,-145.5"/>
<text text-anchor="middle" x="107" y="-152.5" font-family="Helvetica,sans-Serif" font-size="10.00">TemplateNodeCreator&lt; T &gt;</text>
</a>
</g>
</g>
<!-- Node6&#45;&gt;Node7 -->
<g id="edge5" class="edge"><title>Node6&#45;&gt;Node7</title>
<path fill="none" stroke="midnightblue" d="M58.2748,-195.998C70.501,-185.962 86.1637,-173.104 96.3837,-164.715"/>
<polygon fill="midnightblue" stroke="midnightblue" points="55.9773,-193.356 50.4688,-202.406 60.4188,-198.767 55.9773,-193.356"/>
</g>
<!-- Node7&#45;&gt;Node5 -->
<g id="edge4" class="edge"><title>Node7&#45;&gt;Node5</title>
<path fill="none" stroke="orange" stroke-dasharray="5,2" d="M101.519,-135.601C97.9799,-123.718 93.4451,-108.494 90.1929,-97.5762"/>
<polygon fill="orange" stroke="orange" points="98.2158,-136.771 104.425,-145.355 104.925,-134.772 98.2158,-136.771"/>
<text text-anchor="middle" x="149" y="-119" font-family="Helvetica,sans-Serif" font-size="10.00"> &lt; TemplateNodeSet &gt;</text>
</g>
<!-- Node8 -->
<g id="node5" class="node"><title>Node8</title>
<g id="a_node5"><a xlink:href="../../d8/d36/struct_template_node_set_1_1_mapping.html" target="_top" xlink:title="TemplateNodeSet::Mapping">
<polygon fill="white" stroke="black" points="161,-73 161,-92 299,-92 299,-73 161,-73"/>
<text text-anchor="middle" x="230" y="-80" font-family="Helvetica,sans-Serif" font-size="10.00">TemplateNodeSet::Mapping</text>
</a>
</g>
</g>
<!-- Node8&#45;&gt;Node4 -->
<g id="edge6" class="edge"><title>Node8&#45;&gt;Node4</title>
<path fill="none" stroke="#9a32cd" stroke-dasharray="5,2" d="M216.105,-64.8971C204.26,-50.7431 187.701,-30.9566 178.294,-19.7154"/>
<polygon fill="#9a32cd" stroke="#9a32cd" points="213.663,-67.4327 222.765,-72.8553 219.032,-62.9402 213.663,-67.4327"/>
<text text-anchor="middle" x="230" y="-41" font-family="Helvetica,sans-Serif" font-size="10.00"> m_mapping</text>
</g>
<!-- Node9 -->
<g id="node6" class="node"><title>Node9</title>
<g id="a_node6"><a xlink:href="../../dc/dfa/class_expr_ast.html" target="_top" xlink:title="Base class for all nodes in the abstract syntax tree of an expression. ">
<polygon fill="white" stroke="black" points="204,-145.5 204,-164.5 256,-164.5 256,-145.5 204,-145.5"/>
<text text-anchor="middle" x="230" y="-152.5" font-family="Helvetica,sans-Serif" font-size="10.00">ExprAst</text>
</a>
</g>
</g>
<!-- Node9&#45;&gt;Node8 -->
<g id="edge7" class="edge"><title>Node9&#45;&gt;Node8</title>
<path fill="none" stroke="#9a32cd" stroke-dasharray="5,2" d="M230,-134.942C230,-121.03 230,-102.82 230,-92.2154"/>
<polygon fill="#9a32cd" stroke="#9a32cd" points="226.5,-135.355 230,-145.355 233.5,-135.355 226.5,-135.355"/>
<text text-anchor="middle" x="243.5" y="-119" font-family="Helvetica,sans-Serif" font-size="10.00"> value</text>
</g>
</g>
</svg>
