<?xml version="1.0" encoding="UTF-8" standalone="no"?>
<!DOCTYPE svg PUBLIC "-//W3C//DTD SVG 1.1//EN"
 "http://www.w3.org/Graphics/SVG/1.1/DTD/svg11.dtd">
<!-- Generated by graphviz version 2.38.0 (20140413.2041)
 -->
<!-- Title: DocSecRefList Pages: 1 -->
<svg width="242pt" height="152pt"
 viewBox="0.00 0.00 242.00 152.00" xmlns="http://www.w3.org/2000/svg" xmlns:xlink="http://www.w3.org/1999/xlink">
<g id="graph0" class="graph" transform="scale(1 1) rotate(0) translate(4 148)">
<title>DocSecRefList</title>
<polygon fill="white" stroke="none" points="-4,4 -4,-148 238,-148 238,4 -4,4"/>
<!-- Node0 -->
<g id="node1" class="node"><title>Node0</title>
<polygon fill="#bfbfbf" stroke="black" points="131.5,-0.5 131.5,-19.5 214.5,-19.5 214.5,-0.5 131.5,-0.5"/>
<text text-anchor="middle" x="173" y="-7.5" font-family="Helvetica,sans-Serif" font-size="10.00">DocSecRefList</text>
</g>
<!-- Node1 -->
<g id="node2" class="node"><title>Node1</title>
<g id="a_node2"><a xlink:href="../../d7/da3/class_comp_accept.html" target="_top" xlink:title="CompAccept\&lt; DocSecRefList \&gt;">
<polygon fill="white" stroke="black" points="0,-57.5 0,-76.5 158,-76.5 158,-57.5 0,-57.5"/>
<text text-anchor="middle" x="79" y="-64.5" font-family="Helvetica,sans-Serif" font-size="10.00">CompAccept&lt; DocSecRefList &gt;</text>
</a>
</g>
</g>
<!-- Node1&#45;&gt;Node0 -->
<g id="edge1" class="edge"><title>Node1&#45;&gt;Node0</title>
<path fill="none" stroke="midnightblue" d="M102.739,-52.1101C120.263,-41.857 143.554,-28.2288 158.416,-19.5334"/>
<polygon fill="midnightblue" stroke="midnightblue" points="100.551,-49.3352 93.6875,-57.4062 104.086,-55.377 100.551,-49.3352"/>
</g>
<!-- Node2 -->
<g id="node3" class="node"><title>Node2</title>
<g id="a_node3"><a xlink:href="../../d7/da3/class_comp_accept.html" target="_top" xlink:title="Default accept implementation for compound nodes in the abstract syntax tree. ">
<polygon fill="white" stroke="black" points="30,-124.5 30,-143.5 128,-143.5 128,-124.5 30,-124.5"/>
<text text-anchor="middle" x="79" y="-131.5" font-family="Helvetica,sans-Serif" font-size="10.00">CompAccept&lt; T &gt;</text>
</a>
</g>
</g>
<!-- Node2&#45;&gt;Node1 -->
<g id="edge2" class="edge"><title>Node2&#45;&gt;Node1</title>
<path fill="none" stroke="orange" stroke-dasharray="5,2" d="M79,-114.037C79,-101.67 79,-86.1198 79,-76.6273"/>
<polygon fill="orange" stroke="orange" points="75.5001,-114.234 79,-124.234 82.5001,-114.234 75.5001,-114.234"/>
<text text-anchor="middle" x="123" y="-98" font-family="Helvetica,sans-Serif" font-size="10.00"> &lt; DocSecRefList &gt;</text>
</g>
<!-- Node3 -->
<g id="node4" class="node"><title>Node3</title>
<g id="a_node4"><a xlink:href="../../d9/d0e/class_doc_node.html" target="_top" xlink:title="Abstract node interface with type information. ">
<polygon fill="white" stroke="black" points="176,-57.5 176,-76.5 234,-76.5 234,-57.5 176,-57.5"/>
<text text-anchor="middle" x="205" y="-64.5" font-family="Helvetica,sans-Serif" font-size="10.00">DocNode</text>
</a>
</g>
</g>
<!-- Node3&#45;&gt;Node0 -->
<g id="edge3" class="edge"><title>Node3&#45;&gt;Node0</title>
<path fill="none" stroke="midnightblue" d="M194.897,-48.6354C189.297,-39.0102 182.576,-27.459 178.07,-19.7149"/>
<polygon fill="midnightblue" stroke="midnightblue" points="191.946,-50.5229 200,-57.4062 197.996,-47.0026 191.946,-50.5229"/>
</g>
</g>
</svg>
