<?xml version="1.0" encoding="UTF-8" standalone="no"?>
<!DOCTYPE svg PUBLIC "-//W3C//DTD SVG 1.1//EN"
 "http://www.w3.org/Graphics/SVG/1.1/DTD/svg11.dtd">
<!-- Generated by graphviz version 2.38.0 (20140413.2041)
 -->
<!-- Title: DoxygenContext Pages: 1 -->
<svg width="550pt" height="240pt"
 viewBox="0.00 0.00 550.00 240.00" xmlns="http://www.w3.org/2000/svg" xmlns:xlink="http://www.w3.org/1999/xlink">
<g id="graph0" class="graph" transform="scale(1 1) rotate(0) translate(4 236)">
<title>DoxygenContext</title>
<polygon fill="white" stroke="none" points="-4,4 -4,-236 546,-236 546,4 -4,4"/>
<!-- Node3 -->
<g id="node1" class="node"><title>Node3</title>
<polygon fill="#bfbfbf" stroke="black" points="126,-0.5 126,-19.5 216,-19.5 216,-0.5 126,-0.5"/>
<text text-anchor="middle" x="171" y="-7.5" font-family="Helvetica,sans-Serif" font-size="10.00">DoxygenContext</text>
</g>
<!-- Node4 -->
<g id="node2" class="node"><title>Node4</title>
<g id="a_node2"><a xlink:href="../../d8/d96/class_ref_counted_context.html" target="_top" xlink:title="Helper class to support reference counting. ">
<polygon fill="white" stroke="black" points="0,-67.5 0,-86.5 104,-86.5 104,-67.5 0,-67.5"/>
<text text-anchor="middle" x="52" y="-74.5" font-family="Helvetica,sans-Serif" font-size="10.00">RefCountedContext</text>
</a>
</g>
</g>
<!-- Node4&#45;&gt;Node3 -->
<g id="edge1" class="edge"><title>Node4&#45;&gt;Node3</title>
<path fill="none" stroke="midnightblue" d="M77.105,-62.2872C100.69,-49.4047 135.256,-30.5243 155.205,-19.6273"/>
<polygon fill="midnightblue" stroke="midnightblue" points="75.1472,-59.3684 68.0489,-67.2338 78.5028,-65.5117 75.1472,-59.3684"/>
</g>
<!-- Node5 -->
<g id="node3" class="node"><title>Node5</title>
<g id="a_node3"><a xlink:href="../../d9/de8/class_template_struct_intf.html" target="_top" xlink:title="Abstract interface for a context value of type struct. ">
<polygon fill="white" stroke="black" points="122,-67.5 122,-86.5 220,-86.5 220,-67.5 122,-67.5"/>
<text text-anchor="middle" x="171" y="-74.5" font-family="Helvetica,sans-Serif" font-size="10.00">TemplateStructIntf</text>
</a>
</g>
</g>
<!-- Node5&#45;&gt;Node3 -->
<g id="edge2" class="edge"><title>Node5&#45;&gt;Node3</title>
<path fill="none" stroke="midnightblue" d="M171,-57.037C171,-44.6703 171,-29.1198 171,-19.6273"/>
<polygon fill="midnightblue" stroke="midnightblue" points="167.5,-57.2338 171,-67.2338 174.5,-57.2338 167.5,-57.2338"/>
</g>
<!-- Node6 -->
<g id="node4" class="node"><title>Node6</title>
<g id="a_node4"><a xlink:href="../../d3/df4/class_doxygen_context_1_1_private.html" target="_top" xlink:title="DoxygenContext::Private">
<polygon fill="white" stroke="black" points="238.5,-67.5 238.5,-86.5 365.5,-86.5 365.5,-67.5 238.5,-67.5"/>
<text text-anchor="middle" x="302" y="-74.5" font-family="Helvetica,sans-Serif" font-size="10.00">DoxygenContext::Private</text>
</a>
</g>
</g>
<!-- Node6&#45;&gt;Node3 -->
<g id="edge3" class="edge"><title>Node6&#45;&gt;Node3</title>
<path fill="none" stroke="#9a32cd" stroke-dasharray="5,2" d="M275.344,-62.7739C249.398,-49.8999 210.72,-30.7086 188.468,-19.6672"/>
<polygon fill="#9a32cd" stroke="#9a32cd" points="274.091,-66.059 284.604,-67.3685 277.202,-59.7884 274.091,-66.059"/>
<text text-anchor="middle" x="248.5" y="-41" font-family="Helvetica,sans-Serif" font-size="10.00"> p</text>
</g>
<!-- Node7 -->
<g id="node5" class="node"><title>Node7</title>
<g id="a_node5"><a xlink:href="../../d2/d70/struct_doxygen_context_1_1_private_1_1_cachable.html" target="_top" xlink:title="DoxygenContext::Private\l::Cachable">
<polygon fill="white" stroke="black" points="180.5,-134.5 180.5,-164.5 307.5,-164.5 307.5,-134.5 180.5,-134.5"/>
<text text-anchor="start" x="188.5" y="-152.5" font-family="Helvetica,sans-Serif" font-size="10.00">DoxygenContext::Private</text>
<text text-anchor="middle" x="244" y="-141.5" font-family="Helvetica,sans-Serif" font-size="10.00">::Cachable</text>
</a>
</g>
</g>
<!-- Node7&#45;&gt;Node6 -->
<g id="edge4" class="edge"><title>Node7&#45;&gt;Node6</title>
<path fill="none" stroke="#9a32cd" stroke-dasharray="5,2" d="M262.194,-126.385C273.176,-113.036 286.57,-96.7556 294.684,-86.8932"/>
<polygon fill="#9a32cd" stroke="#9a32cd" points="259.388,-124.287 255.737,-134.233 264.793,-128.734 259.388,-124.287"/>
<text text-anchor="middle" x="299.5" y="-108" font-family="Helvetica,sans-Serif" font-size="10.00"> m_cache</text>
</g>
<!-- Node8 -->
<g id="node6" class="node"><title>Node8</title>
<g id="a_node6"><a xlink:href="../../d1/d80/class_property_mapper.html" target="_top" xlink:title="PropertyMapper\&lt; DoxygenContext\l::Private \&gt;">
<polygon fill="white" stroke="black" points="326,-134.5 326,-164.5 494,-164.5 494,-134.5 326,-134.5"/>
<text text-anchor="start" x="334" y="-152.5" font-family="Helvetica,sans-Serif" font-size="10.00">PropertyMapper&lt; DoxygenContext</text>
<text text-anchor="middle" x="410" y="-141.5" font-family="Helvetica,sans-Serif" font-size="10.00">::Private &gt;</text>
</a>
</g>
</g>
<!-- Node8&#45;&gt;Node6 -->
<g id="edge5" class="edge"><title>Node8&#45;&gt;Node6</title>
<path fill="none" stroke="#9a32cd" stroke-dasharray="5,2" d="M379.993,-128.912C358.666,-114.99 331.073,-96.9781 315.073,-86.5336"/>
<polygon fill="#9a32cd" stroke="#9a32cd" points="378.117,-131.867 388.404,-134.403 381.944,-126.006 378.117,-131.867"/>
<text text-anchor="middle" x="374" y="-108" font-family="Helvetica,sans-Serif" font-size="10.00"> s_inst</text>
</g>
<!-- Node9 -->
<g id="node7" class="node"><title>Node9</title>
<g id="a_node7"><a xlink:href="../../d1/d80/class_property_mapper.html" target="_top" xlink:title="Helper class to map a property name to a handler member function. ">
<polygon fill="white" stroke="black" points="355,-212.5 355,-231.5 465,-231.5 465,-212.5 355,-212.5"/>
<text text-anchor="middle" x="410" y="-219.5" font-family="Helvetica,sans-Serif" font-size="10.00">PropertyMapper&lt; T &gt;</text>
</a>
</g>
</g>
<!-- Node9&#45;&gt;Node8 -->
<g id="edge6" class="edge"><title>Node9&#45;&gt;Node8</title>
<path fill="none" stroke="orange" stroke-dasharray="5,2" d="M410,-202.236C410,-190.408 410,-175.383 410,-164.576"/>
<polygon fill="orange" stroke="orange" points="406.5,-202.355 410,-212.355 413.5,-202.355 406.5,-202.355"/>
<text text-anchor="middle" x="476" y="-186" font-family="Helvetica,sans-Serif" font-size="10.00"> &lt; DoxygenContext::Private &gt;</text>
</g>
</g>
</svg>
