<?xml version="1.0" encoding="UTF-8" standalone="no"?>
<!DOCTYPE svg PUBLIC "-//W3C//DTD SVG 1.1//EN"
 "http://www.w3.org/Graphics/SVG/1.1/DTD/svg11.dtd">
<!-- Generated by graphviz version 2.38.0 (20140413.2041)
 -->
<!-- Title: FTVNode Pages: 1 -->
<svg width="1697pt" height="680pt"
 viewBox="0.00 0.00 1697.00 680.00" xmlns="http://www.w3.org/2000/svg" xmlns:xlink="http://www.w3.org/1999/xlink">
<g id="graph0" class="graph" transform="scale(1 1) rotate(0) translate(4 676)">
<title>FTVNode</title>
<polygon fill="white" stroke="none" points="-4,4 -4,-676 1693,-676 1693,4 -4,4"/>
<!-- Node1 -->
<g id="node1" class="node"><title>Node1</title>
<polygon fill="#bfbfbf" stroke="black" points="1014,-28.5 1014,-47.5 1073,-47.5 1073,-28.5 1014,-28.5"/>
<text text-anchor="middle" x="1043.5" y="-35.5" font-family="Helvetica,sans-Serif" font-size="10.00">FTVNode</text>
</g>
<!-- Node1&#45;&gt;Node1 -->
<g id="edge1" class="edge"><title>Node1&#45;&gt;Node1</title>
<path fill="none" stroke="#9a32cd" stroke-dasharray="5,2" d="M1022.02,-57.4C1023.45,-62.3146 1030.61,-66 1043.5,-66 1064.12,-66 1070.08,-56.5653 1061.38,-47.7571"/>
<polygon fill="#9a32cd" stroke="#9a32cd" points="1025.4,-58.3496 1025.62,-47.7571 1018.84,-55.9004 1025.4,-58.3496"/>
<text text-anchor="middle" x="1043.5" y="-69" font-family="Helvetica,sans-Serif" font-size="10.00"> parent</text>
</g>
<!-- Node2 -->
<g id="node2" class="node"><title>Node2</title>
<g id="a_node2"><a xlink:href="../../d5/dcc/class_definition.html" target="_top" xlink:title="The common base class of all entity definitions found in the sources. ">
<polygon fill="white" stroke="black" points="758,-89.5 758,-108.5 816,-108.5 816,-89.5 758,-89.5"/>
<text text-anchor="middle" x="787" y="-96.5" font-family="Helvetica,sans-Serif" font-size="10.00">Definition</text>
</a>
</g>
</g>
<!-- Node2&#45;&gt;Node1 -->
<g id="edge2" class="edge"><title>Node2&#45;&gt;Node1</title>
<path fill="none" stroke="#9a32cd" stroke-dasharray="5,2" d="M826.249,-89.8323C877.632,-77.5164 967.796,-55.9055 1013.78,-44.8849"/>
<polygon fill="#9a32cd" stroke="#9a32cd" points="825.117,-86.5044 816.208,-92.2389 826.749,-93.3115 825.117,-86.5044"/>
<text text-anchor="middle" x="920.5" y="-82" font-family="Helvetica,sans-Serif" font-size="10.00"> def</text>
</g>
<!-- Node5 -->
<g id="node5" class="node"><title>Node5</title>
<g id="a_node5"><a xlink:href="../../d3/ddf/class_definition_impl.html" target="_top" xlink:title="Private data associated with a Symbol Definition object. ">
<polygon fill="white" stroke="black" points="1612,-194.5 1612,-213.5 1689,-213.5 1689,-194.5 1612,-194.5"/>
<text text-anchor="middle" x="1650.5" y="-201.5" font-family="Helvetica,sans-Serif" font-size="10.00">DefinitionImpl</text>
</a>
</g>
</g>
<!-- Node2&#45;&gt;Node5 -->
<g id="edge63" class="edge"><title>Node2&#45;&gt;Node5</title>
<path fill="none" stroke="#9a32cd" stroke-dasharray="5,2" d="M810.44,-83.6979C853.44,-55.9104 951.292,-1.42109e-14 1042.5,-0 1042.5,-0 1042.5,-0 1477,-0 1580.2,-0 1634.32,-154.103 1646.71,-194.434"/>
<polygon fill="#9a32cd" stroke="#9a32cd" points="808.315,-80.9066 801.885,-89.3272 812.163,-86.7542 808.315,-80.9066"/>
<text text-anchor="middle" x="1275" y="-3" font-family="Helvetica,sans-Serif" font-size="10.00"> outerScope</text>
</g>
<!-- Node14 -->
<g id="node14" class="node"><title>Node14</title>
<g id="a_node14"><a xlink:href="../../de/db0/class_file_def.html" target="_top" xlink:title="A model of a file symbol. ">
<polygon fill="white" stroke="black" points="1251,-253.5 1251,-272.5 1299,-272.5 1299,-253.5 1251,-253.5"/>
<text text-anchor="middle" x="1275" y="-260.5" font-family="Helvetica,sans-Serif" font-size="10.00">FileDef</text>
</a>
</g>
</g>
<!-- Node2&#45;&gt;Node14 -->
<g id="edge16" class="edge"><title>Node2&#45;&gt;Node14</title>
<path fill="none" stroke="midnightblue" d="M825.941,-108.968C839.481,-112.366 854.877,-116.049 869,-119 1018.2,-150.178 1094.36,-74.3233 1207,-177 1229.79,-197.771 1204.4,-221.058 1225,-244 1231.71,-251.468 1241.7,-256.026 1250.91,-258.796"/>
<polygon fill="midnightblue" stroke="midnightblue" points="826.555,-105.513 816.001,-106.442 824.831,-112.297 826.555,-105.513"/>
</g>
<!-- Node28 -->
<g id="node28" class="node"><title>Node28</title>
<g id="a_node28"><a xlink:href="../../d4/dd4/class_dir_def.html" target="_top" xlink:title="A model of a directory symbol. ">
<polygon fill="white" stroke="black" points="1021,-212.5 1021,-231.5 1066,-231.5 1066,-212.5 1021,-212.5"/>
<text text-anchor="middle" x="1043.5" y="-219.5" font-family="Helvetica,sans-Serif" font-size="10.00">DirDef</text>
</a>
</g>
</g>
<!-- Node2&#45;&gt;Node28 -->
<g id="edge39" class="edge"><title>Node2&#45;&gt;Node28</title>
<path fill="none" stroke="midnightblue" d="M812.958,-113.769C828.848,-123.024 849.951,-135.041 869,-145 921.85,-172.631 935.004,-179.935 990,-203 1000.01,-207.199 1011.31,-211.36 1020.86,-214.714"/>
<polygon fill="midnightblue" stroke="midnightblue" points="814.658,-110.709 804.26,-108.677 811.121,-116.75 814.658,-110.709"/>
</g>
<!-- Node3 -->
<g id="node3" class="node"><title>Node3</title>
<g id="a_node3"><a xlink:href="../../d9/d4a/class_definition_intf.html" target="_top" xlink:title="Abstract interface for a Definition or DefinitionList. ">
<polygon fill="white" stroke="black" points="483,-51.5 483,-70.5 555,-70.5 555,-51.5 483,-51.5"/>
<text text-anchor="middle" x="519" y="-58.5" font-family="Helvetica,sans-Serif" font-size="10.00">DefinitionIntf</text>
</a>
</g>
</g>
<!-- Node3&#45;&gt;Node2 -->
<g id="edge3" class="edge"><title>Node3&#45;&gt;Node2</title>
<path fill="none" stroke="midnightblue" d="M565.231,-67.4616C620.352,-75.336 711.807,-88.401 757.78,-94.9686"/>
<polygon fill="midnightblue" stroke="midnightblue" points="565.443,-63.9564 555.048,-66.0069 564.453,-70.886 565.443,-63.9564"/>
</g>
<!-- Node4 -->
<g id="node4" class="node"><title>Node4</title>
<g id="a_node4"><a xlink:href="../../d1/d2f/struct_definition_1_1_cookie.html" target="_top" xlink:title="Definition::Cookie">
<polygon fill="white" stroke="black" points="471.5,-89.5 471.5,-108.5 566.5,-108.5 566.5,-89.5 471.5,-89.5"/>
<text text-anchor="middle" x="519" y="-96.5" font-family="Helvetica,sans-Serif" font-size="10.00">Definition::Cookie</text>
</a>
</g>
</g>
<!-- Node4&#45;&gt;Node2 -->
<g id="edge4" class="edge"><title>Node4&#45;&gt;Node2</title>
<path fill="none" stroke="#9a32cd" stroke-dasharray="5,2" d="M576.7,-99C632.35,-99 714.932,-99 757.831,-99"/>
<polygon fill="#9a32cd" stroke="#9a32cd" points="576.638,-95.5001 566.638,-99 576.638,-102.5 576.638,-95.5001"/>
<text text-anchor="middle" x="653.5" y="-102" font-family="Helvetica,sans-Serif" font-size="10.00"> m_cookie</text>
</g>
<!-- Node5&#45;&gt;Node2 -->
<g id="edge5" class="edge"><title>Node5&#45;&gt;Node2</title>
<path fill="none" stroke="#9a32cd" stroke-dasharray="5,2" d="M1636.92,-186.13C1626.72,-172.831 1611.24,-155.127 1594,-144 1547.94,-114.281 1531.81,-105 1477,-105 1042.5,-105 1042.5,-105 1042.5,-105 960.295,-105 863.195,-101.833 816.24,-100.1"/>
<polygon fill="#9a32cd" stroke="#9a32cd" points="1634.34,-188.531 1643.09,-194.498 1639.97,-184.374 1634.34,-188.531"/>
<text text-anchor="middle" x="1275" y="-108" font-family="Helvetica,sans-Serif" font-size="10.00"> m_impl</text>
</g>
<!-- Node6 -->
<g id="node6" class="node"><title>Node6</title>
<g id="a_node6"><a xlink:href="../../de/d9a/class_section_dict.html" target="_top" xlink:title="Unsorted dictionary of SectionInfo objects. ">
<polygon fill="white" stroke="black" points="1127,-418.5 1127,-437.5 1195,-437.5 1195,-418.5 1127,-418.5"/>
<text text-anchor="middle" x="1161" y="-425.5" font-family="Helvetica,sans-Serif" font-size="10.00">SectionDict</text>
</a>
</g>
</g>
<!-- Node6&#45;&gt;Node5 -->
<g id="edge6" class="edge"><title>Node6&#45;&gt;Node5</title>
<path fill="none" stroke="#9a32cd" stroke-dasharray="5,2" d="M1205.04,-419.111C1286.56,-400.782 1466.7,-353.035 1594,-266 1615.23,-251.486 1633.77,-227.181 1643.09,-213.718"/>
<polygon fill="#9a32cd" stroke="#9a32cd" points="1204.14,-415.725 1195.13,-421.302 1205.65,-422.56 1204.14,-415.725"/>
<text text-anchor="middle" x="1381.5" y="-384" font-family="Helvetica,sans-Serif" font-size="10.00"> sectionDict</text>
</g>
<!-- Node7 -->
<g id="node7" class="node"><title>Node7</title>
<g id="a_node7"><a xlink:href="../../d1/d50/class_s_dict.html" target="_top" xlink:title="SDict\&lt; SectionInfo \&gt;">
<polygon fill="white" stroke="black" points="732.5,-506.5 732.5,-525.5 841.5,-525.5 841.5,-506.5 732.5,-506.5"/>
<text text-anchor="middle" x="787" y="-513.5" font-family="Helvetica,sans-Serif" font-size="10.00">SDict&lt; SectionInfo &gt;</text>
</a>
</g>
</g>
<!-- Node7&#45;&gt;Node6 -->
<g id="edge7" class="edge"><title>Node7&#45;&gt;Node6</title>
<path fill="none" stroke="midnightblue" d="M838.136,-504.14C915.362,-485.871 1061.33,-451.341 1126.78,-435.858"/>
<polygon fill="midnightblue" stroke="midnightblue" points="837.09,-500.791 828.164,-506.499 838.701,-507.603 837.09,-500.791"/>
</g>
<!-- Node8 -->
<g id="node8" class="node"><title>Node8</title>
<g id="a_node8"><a xlink:href="../../df/dce/class_s_list.html" target="_top" xlink:title="SList\&lt; SectionInfo \&gt;">
<polygon fill="white" stroke="black" points="990,-542.5 990,-561.5 1097,-561.5 1097,-542.5 990,-542.5"/>
<text text-anchor="middle" x="1043.5" y="-549.5" font-family="Helvetica,sans-Serif" font-size="10.00">SList&lt; SectionInfo &gt;</text>
</a>
</g>
</g>
<!-- Node7&#45;&gt;Node8 -->
<g id="edge10" class="edge"><title>Node7&#45;&gt;Node8</title>
<path fill="none" stroke="#9a32cd" stroke-dasharray="5,2" d="M852.032,-505.337C887.902,-501.566 933.106,-500.513 972,-511 994.42,-517.045 1017.05,-532.171 1030.42,-542.263"/>
<polygon fill="#9a32cd" stroke="#9a32cd" points="851.233,-501.906 841.698,-506.525 852.032,-508.86 851.233,-501.906"/>
<text text-anchor="middle" x="920.5" y="-514" font-family="Helvetica,sans-Serif" font-size="10.00"> m_owner</text>
</g>
<!-- Node8&#45;&gt;Node7 -->
<g id="edge8" class="edge"><title>Node8&#45;&gt;Node7</title>
<path fill="none" stroke="#9a32cd" stroke-dasharray="5,2" d="M979.697,-541.182C977.099,-540.775 974.525,-540.379 972,-540 928.196,-533.418 878.366,-526.983 841.619,-522.435"/>
<polygon fill="#9a32cd" stroke="#9a32cd" points="979.367,-544.674 989.795,-542.799 980.474,-537.762 979.367,-544.674"/>
<text text-anchor="middle" x="920.5" y="-543" font-family="Helvetica,sans-Serif" font-size="10.00"> m_list</text>
</g>
<!-- Node9 -->
<g id="node9" class="node"><title>Node9</title>
<polygon fill="white" stroke="#bfbfbf" points="733.5,-555.5 733.5,-574.5 840.5,-574.5 840.5,-555.5 733.5,-555.5"/>
<text text-anchor="middle" x="787" y="-562.5" font-family="Helvetica,sans-Serif" font-size="10.00">QList&lt; SectionInfo &gt;</text>
</g>
<!-- Node9&#45;&gt;Node8 -->
<g id="edge9" class="edge"><title>Node9&#45;&gt;Node8</title>
<path fill="none" stroke="midnightblue" d="M850.742,-561.795C893.479,-559.612 949.416,-556.755 989.835,-554.69"/>
<polygon fill="midnightblue" stroke="midnightblue" points="850.541,-558.301 840.733,-562.306 850.898,-565.292 850.541,-558.301"/>
</g>
<!-- Node10 -->
<g id="node10" class="node"><title>Node10</title>
<g id="a_node10"><a xlink:href="../../df/dce/class_s_list.html" target="_top" xlink:title="internal wrapper class that redirects compareValues() to the dictionary ">
<polygon fill="white" stroke="black" points="230.5,-424.5 230.5,-443.5 293.5,-443.5 293.5,-424.5 230.5,-424.5"/>
<text text-anchor="middle" x="262" y="-431.5" font-family="Helvetica,sans-Serif" font-size="10.00">SList&lt; T &gt;</text>
</a>
</g>
</g>
<!-- Node10&#45;&gt;Node8 -->
<g id="edge11" class="edge"><title>Node10&#45;&gt;Node8</title>
<path fill="none" stroke="orange" stroke-dasharray="5,2" d="M287.704,-448.902C342.107,-480.757 477.356,-554.711 602,-581 762.952,-614.947 810.394,-602.684 972,-572 985.749,-569.389 1000.7,-565.33 1013.28,-561.548"/>
<polygon fill="orange" stroke="orange" points="289.188,-445.714 278.798,-443.639 285.627,-451.74 289.188,-445.714"/>
<text text-anchor="middle" x="653.5" y="-601" font-family="Helvetica,sans-Serif" font-size="10.00"> &lt; SectionInfo &gt;</text>
</g>
<!-- Node17 -->
<g id="node17" class="node"><title>Node17</title>
<g id="a_node17"><a xlink:href="../../df/dce/class_s_list.html" target="_top" xlink:title="SList\&lt; ClassDef \&gt;">
<polygon fill="white" stroke="black" points="470,-406.5 470,-425.5 568,-425.5 568,-406.5 470,-406.5"/>
<text text-anchor="middle" x="519" y="-413.5" font-family="Helvetica,sans-Serif" font-size="10.00">SList&lt; ClassDef &gt;</text>
</a>
</g>
</g>
<!-- Node10&#45;&gt;Node17 -->
<g id="edge22" class="edge"><title>Node10&#45;&gt;Node17</title>
<path fill="none" stroke="orange" stroke-dasharray="5,2" d="M303.997,-432.972C339.086,-431.884 390.927,-429.785 436,-426 447.004,-425.076 458.807,-423.803 469.933,-422.475"/>
<polygon fill="orange" stroke="orange" points="303.563,-429.483 293.671,-433.278 303.77,-436.48 303.563,-429.483"/>
<text text-anchor="middle" x="391" y="-434" font-family="Helvetica,sans-Serif" font-size="10.00"> &lt; ClassDef &gt;</text>
</g>
<!-- Node20 -->
<g id="node20" class="node"><title>Node20</title>
<g id="a_node20"><a xlink:href="../../df/dce/class_s_list.html" target="_top" xlink:title="SList\&lt; Definition \&gt;">
<polygon fill="white" stroke="black" points="470,-320.5 470,-339.5 568,-339.5 568,-320.5 470,-320.5"/>
<text text-anchor="middle" x="519" y="-327.5" font-family="Helvetica,sans-Serif" font-size="10.00">SList&lt; Definition &gt;</text>
</a>
</g>
</g>
<!-- Node10&#45;&gt;Node20 -->
<g id="edge28" class="edge"><title>Node10&#45;&gt;Node20</title>
<path fill="none" stroke="orange" stroke-dasharray="5,2" d="M301.412,-421.024C336.757,-408.793 390.441,-389.482 436,-370 458.283,-360.471 483.22,-348.045 499.68,-339.588"/>
<polygon fill="orange" stroke="orange" points="299.824,-417.869 291.507,-424.432 302.101,-424.488 299.824,-417.869"/>
<text text-anchor="middle" x="391" y="-407" font-family="Helvetica,sans-Serif" font-size="10.00"> &lt; Definition &gt;</text>
</g>
<!-- Node35 -->
<g id="node35" class="node"><title>Node35</title>
<g id="a_node35"><a xlink:href="../../df/dce/class_s_list.html" target="_top" xlink:title="SList\&lt; NamespaceDef \&gt;">
<polygon fill="white" stroke="black" points="456.5,-165.5 456.5,-184.5 581.5,-184.5 581.5,-165.5 456.5,-165.5"/>
<text text-anchor="middle" x="519" y="-172.5" font-family="Helvetica,sans-Serif" font-size="10.00">SList&lt; NamespaceDef &gt;</text>
</a>
</g>
</g>
<!-- Node10&#45;&gt;Node35 -->
<g id="edge50" class="edge"><title>Node10&#45;&gt;Node35</title>
<path fill="none" stroke="orange" stroke-dasharray="5,2" d="M300.257,-420.176C310.274,-415.055 320.418,-408.393 328,-400 342.44,-384.016 335.666,-373.9 346,-355 379.016,-294.618 400.169,-287.755 436,-229 445.108,-214.066 440.534,-205.164 454,-194 458.64,-190.153 464.035,-187.086 469.688,-184.639"/>
<polygon fill="orange" stroke="orange" points="298.729,-417.027 291.172,-424.452 301.71,-423.36 298.729,-417.027"/>
<text text-anchor="middle" x="391" y="-358" font-family="Helvetica,sans-Serif" font-size="10.00"> &lt; NamespaceDef &gt;</text>
</g>
<!-- Node39 -->
<g id="node39" class="node"><title>Node39</title>
<g id="a_node39"><a xlink:href="../../df/dce/class_s_list.html" target="_top" xlink:title="SList\&lt; MemberDef \&gt;">
<polygon fill="white" stroke="black" points="465,-642.5 465,-661.5 573,-661.5 573,-642.5 465,-642.5"/>
<text text-anchor="middle" x="519" y="-649.5" font-family="Helvetica,sans-Serif" font-size="10.00">SList&lt; MemberDef &gt;</text>
</a>
</g>
</g>
<!-- Node10&#45;&gt;Node39 -->
<g id="edge57" class="edge"><title>Node10&#45;&gt;Node39</title>
<path fill="none" stroke="orange" stroke-dasharray="5,2" d="M266.205,-453.75C273.361,-491.16 294.269,-572.33 346,-614 355.348,-621.53 417.921,-634.116 464.92,-642.725"/>
<polygon fill="orange" stroke="orange" points="269.604,-452.87 264.407,-443.637 262.712,-454.096 269.604,-452.87"/>
<text text-anchor="middle" x="391" y="-639" font-family="Helvetica,sans-Serif" font-size="10.00"> &lt; MemberDef &gt;</text>
</g>
<!-- Node11 -->
<g id="node11" class="node"><title>Node11</title>
<polygon fill="white" stroke="#bfbfbf" points="6.5,-255.5 6.5,-274.5 70.5,-274.5 70.5,-255.5 6.5,-255.5"/>
<text text-anchor="middle" x="38.5" y="-262.5" font-family="Helvetica,sans-Serif" font-size="10.00">QList&lt; T &gt;</text>
</g>
<!-- Node11&#45;&gt;Node10 -->
<g id="edge12" class="edge"><title>Node11&#45;&gt;Node10</title>
<path fill="none" stroke="midnightblue" d="M56.3732,-281.887C83.9631,-308.942 141.166,-362.738 196,-400 209.904,-409.448 226.751,-418.193 239.809,-424.447"/>
<polygon fill="midnightblue" stroke="midnightblue" points="58.6722,-279.239 49.0993,-274.699 53.7518,-284.218 58.6722,-279.239"/>
</g>
<!-- Node26 -->
<g id="node26" class="node"><title>Node26</title>
<g id="a_node26"><a xlink:href="../../d8/d9a/class_s_int_list.html" target="_top" xlink:title="internal wrapper class that redirects compareValues() to the dictionary ">
<polygon fill="white" stroke="black" points="225,-191.5 225,-210.5 299,-210.5 299,-191.5 225,-191.5"/>
<text text-anchor="middle" x="262" y="-198.5" font-family="Helvetica,sans-Serif" font-size="10.00">SIntList&lt; T &gt;</text>
</a>
</g>
</g>
<!-- Node11&#45;&gt;Node26 -->
<g id="edge36" class="edge"><title>Node11&#45;&gt;Node26</title>
<path fill="none" stroke="midnightblue" d="M80.5299,-253.145C123.091,-240.847 188.804,-221.86 228.089,-210.509"/>
<polygon fill="midnightblue" stroke="midnightblue" points="79.4012,-249.828 70.7658,-255.966 81.3443,-256.553 79.4012,-249.828"/>
</g>
<!-- Node12 -->
<g id="node12" class="node"><title>Node12</title>
<g id="a_node12"><a xlink:href="../../d1/d50/class_s_dict.html" target="_top" xlink:title="Ordered dictionary of elements of type T. ">
<polygon fill="white" stroke="black" points="486.5,-491.5 486.5,-510.5 551.5,-510.5 551.5,-491.5 486.5,-491.5"/>
<text text-anchor="middle" x="519" y="-498.5" font-family="Helvetica,sans-Serif" font-size="10.00">SDict&lt; T &gt;</text>
</a>
</g>
</g>
<!-- Node12&#45;&gt;Node7 -->
<g id="edge13" class="edge"><title>Node12&#45;&gt;Node7</title>
<path fill="none" stroke="orange" stroke-dasharray="5,2" d="M561.794,-508.179C574.651,-510.1 588.874,-511.937 602,-513 645.786,-516.546 695.618,-517.148 732.369,-516.946"/>
<polygon fill="orange" stroke="orange" points="562.241,-504.706 551.823,-506.633 561.169,-511.623 562.241,-504.706"/>
<text text-anchor="middle" x="653.5" y="-519" font-family="Helvetica,sans-Serif" font-size="10.00"> &lt; SectionInfo &gt;</text>
</g>
<!-- Node16 -->
<g id="node16" class="node"><title>Node16</title>
<g id="a_node16"><a xlink:href="../../d1/d50/class_s_dict.html" target="_top" xlink:title="SDict\&lt; ClassDef \&gt;">
<polygon fill="white" stroke="black" points="736.5,-406.5 736.5,-425.5 837.5,-425.5 837.5,-406.5 736.5,-406.5"/>
<text text-anchor="middle" x="787" y="-413.5" font-family="Helvetica,sans-Serif" font-size="10.00">SDict&lt; ClassDef &gt;</text>
</a>
</g>
</g>
<!-- Node12&#45;&gt;Node16 -->
<g id="edge23" class="edge"><title>Node12&#45;&gt;Node16</title>
<path fill="none" stroke="orange" stroke-dasharray="5,2" d="M561.802,-498.637C608.212,-495.557 679.896,-489.31 705,-479 734.993,-466.682 763.28,-440.036 777.127,-425.661"/>
<polygon fill="orange" stroke="orange" points="561.492,-495.15 551.736,-499.282 561.94,-502.135 561.492,-495.15"/>
<text text-anchor="middle" x="653.5" y="-498" font-family="Helvetica,sans-Serif" font-size="10.00"> &lt; ClassDef &gt;</text>
</g>
<!-- Node19 -->
<g id="node19" class="node"><title>Node19</title>
<g id="a_node19"><a xlink:href="../../d1/d50/class_s_dict.html" target="_top" xlink:title="SDict\&lt; Definition \&gt;">
<polygon fill="white" stroke="black" points="736.5,-323.5 736.5,-342.5 837.5,-342.5 837.5,-323.5 736.5,-323.5"/>
<text text-anchor="middle" x="787" y="-330.5" font-family="Helvetica,sans-Serif" font-size="10.00">SDict&lt; Definition &gt;</text>
</a>
</g>
</g>
<!-- Node12&#45;&gt;Node19 -->
<g id="edge29" class="edge"><title>Node12&#45;&gt;Node19</title>
<path fill="none" stroke="orange" stroke-dasharray="5,2" d="M550.558,-487.304C565.886,-480.602 584.805,-472.58 602,-466 647.155,-448.72 668.2,-462.358 705,-431 718.014,-419.91 712.896,-410.793 723,-397 738.663,-375.618 761.305,-354.411 774.75,-342.576"/>
<polygon fill="orange" stroke="orange" points="548.797,-484.255 541.057,-491.49 551.62,-490.661 548.797,-484.255"/>
<text text-anchor="middle" x="653.5" y="-469" font-family="Helvetica,sans-Serif" font-size="10.00"> &lt; Definition &gt;</text>
</g>
<!-- Node34 -->
<g id="node34" class="node"><title>Node34</title>
<g id="a_node34"><a xlink:href="../../d1/d50/class_s_dict.html" target="_top" xlink:title="SDict\&lt; NamespaceDef \&gt;">
<polygon fill="white" stroke="black" points="723,-165.5 723,-184.5 851,-184.5 851,-165.5 723,-165.5"/>
<text text-anchor="middle" x="787" y="-172.5" font-family="Helvetica,sans-Serif" font-size="10.00">SDict&lt; NamespaceDef &gt;</text>
</a>
</g>
</g>
<!-- Node12&#45;&gt;Node34 -->
<g id="edge51" class="edge"><title>Node12&#45;&gt;Node34</title>
<path fill="none" stroke="orange" stroke-dasharray="5,2" d="M540.236,-484.506C554.233,-472.158 572.363,-454.157 584,-435 597.134,-413.378 584.397,-399.17 602,-381 635.951,-345.955 674.746,-381.282 705,-343 746.359,-290.666 680.077,-245.058 723,-194 726.235,-190.152 730.218,-187.066 734.598,-184.593"/>
<polygon fill="orange" stroke="orange" points="537.87,-481.925 532.553,-491.089 542.424,-487.241 537.87,-481.925"/>
<text text-anchor="middle" x="653.5" y="-384" font-family="Helvetica,sans-Serif" font-size="10.00"> &lt; NamespaceDef &gt;</text>
</g>
<!-- Node38 -->
<g id="node38" class="node"><title>Node38</title>
<g id="a_node38"><a xlink:href="../../d1/d50/class_s_dict.html" target="_top" xlink:title="SDict\&lt; MemberDef \&gt;">
<polygon fill="white" stroke="black" points="732,-631.5 732,-650.5 842,-650.5 842,-631.5 732,-631.5"/>
<text text-anchor="middle" x="787" y="-638.5" font-family="Helvetica,sans-Serif" font-size="10.00">SDict&lt; MemberDef &gt;</text>
</a>
</g>
</g>
<!-- Node12&#45;&gt;Node38 -->
<g id="edge58" class="edge"><title>Node12&#45;&gt;Node38</title>
<path fill="none" stroke="orange" stroke-dasharray="5,2" d="M555.562,-514.08C608.348,-533.522 701.63,-567.988 705,-570 712.787,-574.65 755.288,-613.026 775.418,-631.342"/>
<polygon fill="orange" stroke="orange" points="556.488,-510.692 545.895,-510.521 554.07,-517.261 556.488,-510.692"/>
<text text-anchor="middle" x="653.5" y="-573" font-family="Helvetica,sans-Serif" font-size="10.00"> &lt; MemberDef &gt;</text>
</g>
<!-- Node13 -->
<g id="node13" class="node"><title>Node13</title>
<g id="a_node13"><a xlink:href="../../db/dab/struct_body_info.html" target="_top" xlink:title="Data associated with description found in the body. ">
<polygon fill="white" stroke="black" points="1448,-253.5 1448,-272.5 1504,-272.5 1504,-253.5 1448,-253.5"/>
<text text-anchor="middle" x="1476" y="-260.5" font-family="Helvetica,sans-Serif" font-size="10.00">BodyInfo</text>
</a>
</g>
</g>
<!-- Node13&#45;&gt;Node5 -->
<g id="edge14" class="edge"><title>Node13&#45;&gt;Node5</title>
<path fill="none" stroke="#9a32cd" stroke-dasharray="5,2" d="M1513.89,-255.827C1537.27,-250.727 1567.91,-243.009 1594,-233 1607.8,-227.705 1622.61,-219.851 1633.45,-213.652"/>
<polygon fill="#9a32cd" stroke="#9a32cd" points="1513.09,-252.42 1504.03,-257.919 1514.54,-259.268 1513.09,-252.42"/>
<text text-anchor="middle" x="1563" y="-254" font-family="Helvetica,sans-Serif" font-size="10.00"> body</text>
</g>
<!-- Node14&#45;&gt;Node13 -->
<g id="edge15" class="edge"><title>Node14&#45;&gt;Node13</title>
<path fill="none" stroke="#9a32cd" stroke-dasharray="5,2" d="M1309.5,-263C1348.4,-263 1411.82,-263 1447.81,-263"/>
<polygon fill="#9a32cd" stroke="#9a32cd" points="1309.22,-259.5 1299.22,-263 1309.22,-266.5 1309.22,-259.5"/>
<text text-anchor="middle" x="1381.5" y="-266" font-family="Helvetica,sans-Serif" font-size="10.00"> fileDef</text>
</g>
<!-- Node15 -->
<g id="node15" class="node"><title>Node15</title>
<g id="a_node15"><a xlink:href="../../d9/d3d/class_class_s_dict.html" target="_top" xlink:title="A sorted dictionary of ClassDef objects. ">
<polygon fill="white" stroke="black" points="1010,-375.5 1010,-394.5 1077,-394.5 1077,-375.5 1010,-375.5"/>
<text text-anchor="middle" x="1043.5" y="-382.5" font-family="Helvetica,sans-Serif" font-size="10.00">ClassSDict</text>
</a>
</g>
</g>
<!-- Node15&#45;&gt;Node14 -->
<g id="edge17" class="edge"><title>Node15&#45;&gt;Node14</title>
<path fill="none" stroke="#9a32cd" stroke-dasharray="5,2" d="M1087.44,-383.392C1122.07,-380.325 1170.8,-371.869 1207,-349 1237.88,-329.489 1260.28,-290.517 1269.43,-272.517"/>
<polygon fill="#9a32cd" stroke="#9a32cd" points="1086.87,-379.924 1077.17,-384.18 1087.41,-386.904 1086.87,-379.924"/>
<text text-anchor="middle" x="1161" y="-382" font-family="Helvetica,sans-Serif" font-size="10.00"> m_classSDict</text>
</g>
<!-- Node16&#45;&gt;Node15 -->
<g id="edge18" class="edge"><title>Node16&#45;&gt;Node15</title>
<path fill="none" stroke="midnightblue" d="M847.838,-408.711C898.47,-402.544 969.121,-393.938 1009.91,-388.969"/>
<polygon fill="midnightblue" stroke="midnightblue" points="847.178,-405.266 837.674,-409.949 848.024,-412.214 847.178,-405.266"/>
</g>
<!-- Node16&#45;&gt;Node17 -->
<g id="edge21" class="edge"><title>Node16&#45;&gt;Node17</title>
<path fill="none" stroke="#9a32cd" stroke-dasharray="5,2" d="M726.193,-416C678.483,-416 612.525,-416 568.171,-416"/>
<polygon fill="#9a32cd" stroke="#9a32cd" points="726.384,-419.5 736.384,-416 726.384,-412.5 726.384,-419.5"/>
<text text-anchor="middle" x="653.5" y="-419" font-family="Helvetica,sans-Serif" font-size="10.00"> m_owner</text>
</g>
<!-- Node17&#45;&gt;Node16 -->
<g id="edge19" class="edge"><title>Node17&#45;&gt;Node16</title>
<path fill="none" stroke="#9a32cd" stroke-dasharray="5,2" d="M570.736,-404.522C581.031,-402.639 591.822,-400.984 602,-400 647.565,-395.596 659.44,-395.543 705,-400 718.41,-401.312 732.893,-403.817 745.853,-406.463"/>
<polygon fill="#9a32cd" stroke="#9a32cd" points="569.806,-401.136 560.648,-406.463 571.129,-408.01 569.806,-401.136"/>
<text text-anchor="middle" x="653.5" y="-403" font-family="Helvetica,sans-Serif" font-size="10.00"> m_list</text>
</g>
<!-- Node18 -->
<g id="node18" class="node"><title>Node18</title>
<polygon fill="white" stroke="#bfbfbf" points="212.5,-371.5 212.5,-390.5 311.5,-390.5 311.5,-371.5 212.5,-371.5"/>
<text text-anchor="middle" x="262" y="-378.5" font-family="Helvetica,sans-Serif" font-size="10.00">QList&lt; ClassDef &gt;</text>
</g>
<!-- Node18&#45;&gt;Node17 -->
<g id="edge20" class="edge"><title>Node18&#45;&gt;Node17</title>
<path fill="none" stroke="midnightblue" d="M321.861,-383.278C355.468,-385.199 398.293,-388.693 436,-395 452.668,-397.788 470.909,-402.309 485.945,-406.443"/>
<polygon fill="midnightblue" stroke="midnightblue" points="321.917,-379.777 311.742,-382.732 321.539,-386.766 321.917,-379.777"/>
</g>
<!-- Node19&#45;&gt;Node14 -->
<g id="edge24" class="edge"><title>Node19&#45;&gt;Node14</title>
<path fill="none" stroke="#9a32cd" stroke-dasharray="5,2" d="M847.994,-337.266C930.821,-341.254 1083.91,-341.73 1207,-303 1227.93,-296.413 1249.2,-282.144 1262,-272.554"/>
<polygon fill="#9a32cd" stroke="#9a32cd" points="847.927,-333.758 837.76,-336.738 847.567,-340.749 847.927,-333.758"/>
<text text-anchor="middle" x="1043.5" y="-340" font-family="Helvetica,sans-Serif" font-size="10.00"> m_usingDeclList</text>
</g>
<!-- Node19&#45;&gt;Node20 -->
<g id="edge27" class="edge"><title>Node19&#45;&gt;Node20</title>
<path fill="none" stroke="#9a32cd" stroke-dasharray="5,2" d="M726.008,-332.249C718.927,-332.163 711.803,-332.079 705,-332 658.59,-331.463 605.63,-330.895 568.301,-330.502"/>
<polygon fill="#9a32cd" stroke="#9a32cd" points="726.268,-335.752 736.31,-332.374 726.353,-328.753 726.268,-335.752"/>
<text text-anchor="middle" x="653.5" y="-335" font-family="Helvetica,sans-Serif" font-size="10.00"> m_owner</text>
</g>
<!-- Node20&#45;&gt;Node19 -->
<g id="edge25" class="edge"><title>Node20&#45;&gt;Node19</title>
<path fill="none" stroke="#9a32cd" stroke-dasharray="5,2" d="M551.391,-316.361C570.043,-308.533 591.961,-299.889 602,-298 646.988,-289.533 660.171,-288.729 705,-298 717.226,-300.529 746.722,-314.027 766.538,-323.5"/>
<polygon fill="#9a32cd" stroke="#9a32cd" points="549.853,-313.211 542.016,-320.34 552.588,-319.655 549.853,-313.211"/>
<text text-anchor="middle" x="653.5" y="-301" font-family="Helvetica,sans-Serif" font-size="10.00"> m_list</text>
</g>
<!-- Node21 -->
<g id="node21" class="node"><title>Node21</title>
<polygon fill="white" stroke="#bfbfbf" points="212.5,-312.5 212.5,-331.5 311.5,-331.5 311.5,-312.5 212.5,-312.5"/>
<text text-anchor="middle" x="262" y="-319.5" font-family="Helvetica,sans-Serif" font-size="10.00">QList&lt; Definition &gt;</text>
</g>
<!-- Node21&#45;&gt;Node20 -->
<g id="edge26" class="edge"><title>Node21&#45;&gt;Node20</title>
<path fill="none" stroke="midnightblue" d="M321.729,-323.842C366.559,-325.249 427.576,-327.163 469.617,-328.482"/>
<polygon fill="midnightblue" stroke="midnightblue" points="321.669,-320.339 311.564,-323.524 321.449,-327.336 321.669,-320.339"/>
</g>
<!-- Node22 -->
<g id="node22" class="node"><title>Node22</title>
<g id="a_node22"><a xlink:href="../../dc/d1e/class_member_group_s_dict.html" target="_top" xlink:title="A sorted dictionary of MemberGroup objects. ">
<polygon fill="white" stroke="black" points="602,-254.5 602,-273.5 705,-273.5 705,-254.5 602,-254.5"/>
<text text-anchor="middle" x="653.5" y="-261.5" font-family="Helvetica,sans-Serif" font-size="10.00">MemberGroupSDict</text>
</a>
</g>
</g>
<!-- Node22&#45;&gt;Node14 -->
<g id="edge30" class="edge"><title>Node22&#45;&gt;Node14</title>
<path fill="none" stroke="#9a32cd" stroke-dasharray="5,2" d="M715.361,-269.609C717.941,-269.759 720.495,-269.891 723,-270 889.064,-277.259 930.81,-273.285 1097,-270 1152.19,-268.909 1217.01,-265.907 1250.81,-264.209"/>
<polygon fill="#9a32cd" stroke="#9a32cd" points="715.549,-266.114 705.341,-268.951 715.09,-273.099 715.549,-266.114"/>
<text text-anchor="middle" x="920.5" y="-277" font-family="Helvetica,sans-Serif" font-size="10.00"> m_memberGroupSDict</text>
</g>
<!-- Node23 -->
<g id="node23" class="node"><title>Node23</title>
<g id="a_node23"><a xlink:href="../../d0/d9f/class_s_int_dict.html" target="_top" xlink:title="SIntDict\&lt; MemberGroup \&gt;">
<polygon fill="white" stroke="black" points="196,-115.5 196,-134.5 328,-134.5 328,-115.5 196,-115.5"/>
<text text-anchor="middle" x="262" y="-122.5" font-family="Helvetica,sans-Serif" font-size="10.00">SIntDict&lt; MemberGroup &gt;</text>
</a>
</g>
</g>
<!-- Node23&#45;&gt;Node22 -->
<g id="edge31" class="edge"><title>Node23&#45;&gt;Node22</title>
<path fill="none" stroke="midnightblue" d="M323.293,-139.944C324.954,-141.191 326.53,-142.54 328,-144 347.756,-163.617 329,-181.952 346,-204 380.35,-248.548 399.849,-254.764 454,-270 503.451,-283.914 562.582,-279.599 603.373,-273.561"/>
<polygon fill="midnightblue" stroke="midnightblue" points="324.754,-136.736 314.391,-134.529 321.115,-142.716 324.754,-136.736"/>
</g>
<!-- Node24 -->
<g id="node24" class="node"><title>Node24</title>
<g id="a_node24"><a xlink:href="../../d8/d9a/class_s_int_list.html" target="_top" xlink:title="SIntList\&lt; MemberGroup \&gt;">
<polygon fill="white" stroke="black" points="454,-127.5 454,-146.5 584,-146.5 584,-127.5 454,-127.5"/>
<text text-anchor="middle" x="519" y="-134.5" font-family="Helvetica,sans-Serif" font-size="10.00">SIntList&lt; MemberGroup &gt;</text>
</a>
</g>
</g>
<!-- Node23&#45;&gt;Node24 -->
<g id="edge34" class="edge"><title>Node23&#45;&gt;Node24</title>
<path fill="none" stroke="#9a32cd" stroke-dasharray="5,2" d="M331.764,-114.337C363.589,-111.011 401.833,-109.299 436,-114 441.09,-114.7 464.827,-121.421 485.462,-127.418"/>
<polygon fill="#9a32cd" stroke="#9a32cd" points="331.218,-110.876 321.67,-115.467 331.997,-117.832 331.218,-110.876"/>
<text text-anchor="middle" x="391" y="-117" font-family="Helvetica,sans-Serif" font-size="10.00"> m_owner</text>
</g>
<!-- Node24&#45;&gt;Node23 -->
<g id="edge32" class="edge"><title>Node24&#45;&gt;Node23</title>
<path fill="none" stroke="#9a32cd" stroke-dasharray="5,2" d="M443.857,-133.511C407.192,-131.786 363.345,-129.722 328.007,-128.059"/>
<polygon fill="#9a32cd" stroke="#9a32cd" points="443.841,-137.014 453.995,-133.988 444.17,-130.022 443.841,-137.014"/>
<text text-anchor="middle" x="391" y="-136" font-family="Helvetica,sans-Serif" font-size="10.00"> m_list</text>
</g>
<!-- Node25 -->
<g id="node25" class="node"><title>Node25</title>
<polygon fill="white" stroke="#bfbfbf" points="202.5,-153.5 202.5,-172.5 321.5,-172.5 321.5,-153.5 202.5,-153.5"/>
<text text-anchor="middle" x="262" y="-160.5" font-family="Helvetica,sans-Serif" font-size="10.00">QList&lt; MemberGroup &gt;</text>
</g>
<!-- Node25&#45;&gt;Node24 -->
<g id="edge33" class="edge"><title>Node25&#45;&gt;Node24</title>
<path fill="none" stroke="midnightblue" d="M331.605,-157.795C363.398,-155.193 401.66,-151.79 436,-148 441.711,-147.37 447.639,-146.668 453.577,-145.932"/>
<polygon fill="midnightblue" stroke="midnightblue" points="331.209,-154.316 321.524,-158.612 331.774,-161.293 331.209,-154.316"/>
</g>
<!-- Node26&#45;&gt;Node24 -->
<g id="edge35" class="edge"><title>Node26&#45;&gt;Node24</title>
<path fill="none" stroke="orange" stroke-dasharray="5,2" d="M309.066,-195.608C344.544,-190.526 394.395,-181.346 436,-166 444.586,-162.833 445.563,-159.546 454,-156 462.441,-152.453 471.767,-149.285 480.628,-146.601"/>
<polygon fill="orange" stroke="orange" points="308.43,-192.163 299.002,-196.995 309.386,-199.097 308.43,-192.163"/>
<text text-anchor="middle" x="391" y="-192" font-family="Helvetica,sans-Serif" font-size="10.00"> &lt; MemberGroup &gt;</text>
</g>
<!-- Node27 -->
<g id="node27" class="node"><title>Node27</title>
<g id="a_node27"><a xlink:href="../../d0/d9f/class_s_int_dict.html" target="_top" xlink:title="Ordered dictionary of elements of type T. ">
<polygon fill="white" stroke="black" points="0,-115.5 0,-134.5 77,-134.5 77,-115.5 0,-115.5"/>
<text text-anchor="middle" x="38.5" y="-122.5" font-family="Helvetica,sans-Serif" font-size="10.00">SIntDict&lt; T &gt;</text>
</a>
</g>
</g>
<!-- Node27&#45;&gt;Node23 -->
<g id="edge37" class="edge"><title>Node27&#45;&gt;Node23</title>
<path fill="none" stroke="orange" stroke-dasharray="5,2" d="M87.4095,-125C119.121,-125 161.105,-125 195.841,-125"/>
<polygon fill="orange" stroke="orange" points="87.0745,-121.5 77.0745,-125 87.0744,-128.5 87.0745,-121.5"/>
<text text-anchor="middle" x="136.5" y="-128" font-family="Helvetica,sans-Serif" font-size="10.00"> &lt; MemberGroup &gt;</text>
</g>
<!-- Node28&#45;&gt;Node14 -->
<g id="edge38" class="edge"><title>Node28&#45;&gt;Node14</title>
<path fill="none" stroke="#9a32cd" stroke-dasharray="5,2" d="M1075.98,-227.625C1122.78,-235.984 1209.59,-251.493 1250.94,-258.88"/>
<polygon fill="#9a32cd" stroke="#9a32cd" points="1076.55,-224.17 1066.09,-225.857 1075.32,-231.061 1076.55,-224.17"/>
<text text-anchor="middle" x="1161" y="-253" font-family="Helvetica,sans-Serif" font-size="10.00"> m_dir</text>
</g>
<!-- Node28&#45;&gt;Node28 -->
<g id="edge44" class="edge"><title>Node28&#45;&gt;Node28</title>
<path fill="none" stroke="#9a32cd" stroke-dasharray="5,2" d="M1022.02,-241.4C1023.45,-246.315 1030.61,-250 1043.5,-250 1064.12,-250 1070.08,-240.565 1061.38,-231.757"/>
<polygon fill="#9a32cd" stroke="#9a32cd" points="1025.4,-242.35 1025.62,-231.757 1018.84,-239.9 1025.4,-242.35"/>
<text text-anchor="middle" x="1043.5" y="-253" font-family="Helvetica,sans-Serif" font-size="10.00"> m_parent</text>
</g>
<!-- Node29 -->
<g id="node29" class="node"><title>Node29</title>
<g id="a_node29"><a xlink:href="../../dc/d2a/class_dir_list.html" target="_top" xlink:title="A list of directories. ">
<polygon fill="white" stroke="black" points="764.5,-203.5 764.5,-222.5 809.5,-222.5 809.5,-203.5 764.5,-203.5"/>
<text text-anchor="middle" x="787" y="-210.5" font-family="Helvetica,sans-Serif" font-size="10.00">DirList</text>
</a>
</g>
</g>
<!-- Node29&#45;&gt;Node28 -->
<g id="edge40" class="edge"><title>Node29&#45;&gt;Node28</title>
<path fill="none" stroke="#9a32cd" stroke-dasharray="5,2" d="M819.612,-213.576C856.276,-214.309 918.53,-215.757 972,-218 988.413,-218.688 1006.96,-219.752 1020.91,-220.61"/>
<polygon fill="#9a32cd" stroke="#9a32cd" points="819.602,-210.075 809.536,-213.379 819.466,-217.074 819.602,-210.075"/>
<text text-anchor="middle" x="920.5" y="-221" font-family="Helvetica,sans-Serif" font-size="10.00"> m_subdirs</text>
</g>
<!-- Node30 -->
<g id="node30" class="node"><title>Node30</title>
<polygon fill="white" stroke="#bfbfbf" points="476,-203.5 476,-222.5 562,-222.5 562,-203.5 476,-203.5"/>
<text text-anchor="middle" x="519" y="-210.5" font-family="Helvetica,sans-Serif" font-size="10.00">QList&lt; DirDef &gt;</text>
</g>
<!-- Node30&#45;&gt;Node29 -->
<g id="edge41" class="edge"><title>Node30&#45;&gt;Node29</title>
<path fill="none" stroke="midnightblue" d="M572.305,-213C630.801,-213 722.78,-213 764.338,-213"/>
<polygon fill="midnightblue" stroke="midnightblue" points="572.149,-209.5 562.148,-213 572.148,-216.5 572.149,-209.5"/>
</g>
<!-- Node31 -->
<g id="node31" class="node"><title>Node31</title>
<g id="a_node31"><a xlink:href="../../d0/d18/class_file_list.html" target="_top" xlink:title="Class representing a list of FileDef objects. ">
<polygon fill="white" stroke="black" points="763,-241.5 763,-260.5 811,-260.5 811,-241.5 763,-241.5"/>
<text text-anchor="middle" x="787" y="-248.5" font-family="Helvetica,sans-Serif" font-size="10.00">FileList</text>
</a>
</g>
</g>
<!-- Node31&#45;&gt;Node28 -->
<g id="edge42" class="edge"><title>Node31&#45;&gt;Node28</title>
<path fill="none" stroke="#9a32cd" stroke-dasharray="5,2" d="M821.243,-247.212C874.187,-241.179 976.224,-229.552 1020.79,-224.474"/>
<polygon fill="#9a32cd" stroke="#9a32cd" points="820.573,-243.766 811.034,-248.375 821.366,-250.721 820.573,-243.766"/>
<text text-anchor="middle" x="920.5" y="-244" font-family="Helvetica,sans-Serif" font-size="10.00"> m_fileList</text>
</g>
<!-- Node32 -->
<g id="node32" class="node"><title>Node32</title>
<polygon fill="white" stroke="#bfbfbf" points="474.5,-241.5 474.5,-260.5 563.5,-260.5 563.5,-241.5 474.5,-241.5"/>
<text text-anchor="middle" x="519" y="-248.5" font-family="Helvetica,sans-Serif" font-size="10.00">QList&lt; FileDef &gt;</text>
</g>
<!-- Node32&#45;&gt;Node31 -->
<g id="edge43" class="edge"><title>Node32&#45;&gt;Node31</title>
<path fill="none" stroke="midnightblue" d="M573.695,-251C631.58,-251 721.039,-251 762.908,-251"/>
<polygon fill="midnightblue" stroke="midnightblue" points="573.627,-247.5 563.627,-251 573.627,-254.5 573.627,-247.5"/>
</g>
<!-- Node33 -->
<g id="node33" class="node"><title>Node33</title>
<g id="a_node33"><a xlink:href="../../d4/d8d/class_namespace_s_dict.html" target="_top" xlink:title="A sorted dictionary of NamespaceDef objects. ">
<polygon fill="white" stroke="black" points="996.5,-174.5 996.5,-193.5 1090.5,-193.5 1090.5,-174.5 996.5,-174.5"/>
<text text-anchor="middle" x="1043.5" y="-181.5" font-family="Helvetica,sans-Serif" font-size="10.00">NamespaceSDict</text>
</a>
</g>
</g>
<!-- Node33&#45;&gt;Node14 -->
<g id="edge45" class="edge"><title>Node33&#45;&gt;Node14</title>
<path fill="none" stroke="#9a32cd" stroke-dasharray="5,2" d="M1100.88,-180.423C1134.56,-181.074 1176.57,-187.078 1207,-209 1221.19,-219.224 1212,-232.298 1225,-244 1232.19,-250.47 1241.83,-254.84 1250.65,-257.739"/>
<polygon fill="#9a32cd" stroke="#9a32cd" points="1100.73,-176.922 1090.72,-180.381 1100.7,-183.922 1100.73,-176.922"/>
<text text-anchor="middle" x="1161" y="-223" font-family="Helvetica,sans-Serif" font-size="10.00"> m_namespaceSDict</text>
<text text-anchor="middle" x="1161" y="-212" font-family="Helvetica,sans-Serif" font-size="10.00">m_usingDirList</text>
</g>
<!-- Node34&#45;&gt;Node33 -->
<g id="edge46" class="edge"><title>Node34&#45;&gt;Node33</title>
<path fill="none" stroke="midnightblue" d="M861.493,-177.599C905.015,-179.138 958.817,-181.041 996.406,-182.37"/>
<polygon fill="midnightblue" stroke="midnightblue" points="861.355,-174.092 851.237,-177.236 861.107,-181.088 861.355,-174.092"/>
</g>
<!-- Node34&#45;&gt;Node35 -->
<g id="edge49" class="edge"><title>Node34&#45;&gt;Node35</title>
<path fill="none" stroke="#9a32cd" stroke-dasharray="5,2" d="M732.376,-163.645C723.279,-162.129 713.899,-160.817 705,-160 659.414,-155.815 647.591,-155.864 602,-160 589.605,-161.124 576.283,-163.186 564.057,-165.429"/>
<polygon fill="#9a32cd" stroke="#9a32cd" points="732.029,-167.138 742.485,-165.429 733.245,-160.244 732.029,-167.138"/>
<text text-anchor="middle" x="653.5" y="-163" font-family="Helvetica,sans-Serif" font-size="10.00"> m_owner</text>
</g>
<!-- Node35&#45;&gt;Node34 -->
<g id="edge47" class="edge"><title>Node35&#45;&gt;Node34</title>
<path fill="none" stroke="#9a32cd" stroke-dasharray="5,2" d="M591.86,-175C632.731,-175 683.447,-175 722.793,-175"/>
<polygon fill="#9a32cd" stroke="#9a32cd" points="591.694,-171.5 581.694,-175 591.694,-178.5 591.694,-171.5"/>
<text text-anchor="middle" x="653.5" y="-178" font-family="Helvetica,sans-Serif" font-size="10.00"> m_list</text>
</g>
<!-- Node36 -->
<g id="node36" class="node"><title>Node36</title>
<polygon fill="white" stroke="#bfbfbf" points="199,-229.5 199,-248.5 325,-248.5 325,-229.5 199,-229.5"/>
<text text-anchor="middle" x="262" y="-236.5" font-family="Helvetica,sans-Serif" font-size="10.00">QList&lt; NamespaceDef &gt;</text>
</g>
<!-- Node36&#45;&gt;Node35 -->
<g id="edge48" class="edge"><title>Node36&#45;&gt;Node35</title>
<path fill="none" stroke="midnightblue" d="M335.162,-229.493C366.734,-224.044 403.831,-215.865 436,-204 444.586,-200.833 445.563,-197.546 454,-194 462.441,-190.453 471.767,-187.285 480.628,-184.601"/>
<polygon fill="midnightblue" stroke="midnightblue" points="334.407,-226.071 325.119,-231.168 335.558,-232.976 334.407,-226.071"/>
</g>
<!-- Node37 -->
<g id="node37" class="node"><title>Node37</title>
<g id="a_node37"><a xlink:href="../../d6/dd6/class_member_s_dict.html" target="_top" xlink:title="A sorted dictionary of MemberDef objects. ">
<polygon fill="white" stroke="black" points="1343,-583.5 1343,-602.5 1420,-602.5 1420,-583.5 1343,-583.5"/>
<text text-anchor="middle" x="1381.5" y="-590.5" font-family="Helvetica,sans-Serif" font-size="10.00">MemberSDict</text>
</a>
</g>
</g>
<!-- Node37&#45;&gt;Node5 -->
<g id="edge52" class="edge"><title>Node37&#45;&gt;Node5</title>
<path fill="none" stroke="#9a32cd" stroke-dasharray="5,2" d="M1403.74,-577.147C1446.03,-544.504 1541.21,-465.471 1594,-378 1628.24,-321.262 1643.56,-241.192 1648.04,-213.704"/>
<polygon fill="#9a32cd" stroke="#9a32cd" points="1401.38,-574.545 1395.55,-583.394 1405.62,-580.11 1401.38,-574.545"/>
<text text-anchor="middle" x="1476" y="-561" font-family="Helvetica,sans-Serif" font-size="10.00"> sourceRefsDict</text>
<text text-anchor="middle" x="1476" y="-550" font-family="Helvetica,sans-Serif" font-size="10.00">sourceRefByDict</text>
</g>
<!-- Node38&#45;&gt;Node37 -->
<g id="edge53" class="edge"><title>Node38&#45;&gt;Node37</title>
<path fill="none" stroke="midnightblue" d="M852.244,-635.795C976.06,-625.765 1244.21,-604.041 1342.99,-596.039"/>
<polygon fill="midnightblue" stroke="midnightblue" points="851.836,-632.317 842.151,-636.613 852.401,-639.294 851.836,-632.317"/>
</g>
<!-- Node38&#45;&gt;Node39 -->
<g id="edge56" class="edge"><title>Node38&#45;&gt;Node39</title>
<path fill="none" stroke="#9a32cd" stroke-dasharray="5,2" d="M721.569,-649.649C715.973,-650.189 710.391,-650.654 705,-651 660.607,-653.85 610.1,-653.909 573.087,-653.363"/>
<polygon fill="#9a32cd" stroke="#9a32cd" points="722.035,-653.119 731.619,-648.603 721.311,-646.157 722.035,-653.119"/>
<text text-anchor="middle" x="653.5" y="-656" font-family="Helvetica,sans-Serif" font-size="10.00"> m_owner</text>
</g>
<!-- Node39&#45;&gt;Node38 -->
<g id="edge54" class="edge"><title>Node39&#45;&gt;Node38</title>
<path fill="none" stroke="#9a32cd" stroke-dasharray="5,2" d="M583.175,-641.817C589.521,-641.076 595.879,-640.446 602,-640 645.649,-636.823 695.276,-637.333 731.982,-638.493"/>
<polygon fill="#9a32cd" stroke="#9a32cd" points="582.736,-638.344 573.249,-643.062 583.607,-645.29 582.736,-638.344"/>
<text text-anchor="middle" x="653.5" y="-643" font-family="Helvetica,sans-Serif" font-size="10.00"> m_list</text>
</g>
<!-- Node40 -->
<g id="node40" class="node"><title>Node40</title>
<polygon fill="white" stroke="#bfbfbf" points="207.5,-652.5 207.5,-671.5 316.5,-671.5 316.5,-652.5 207.5,-652.5"/>
<text text-anchor="middle" x="262" y="-659.5" font-family="Helvetica,sans-Serif" font-size="10.00">QList&lt; MemberDef &gt;</text>
</g>
<!-- Node40&#45;&gt;Node39 -->
<g id="edge55" class="edge"><title>Node40&#45;&gt;Node39</title>
<path fill="none" stroke="midnightblue" d="M327.007,-659.49C369.506,-657.823 424.644,-655.661 464.744,-654.088"/>
<polygon fill="midnightblue" stroke="midnightblue" points="326.622,-656.002 316.767,-659.891 326.897,-662.997 326.622,-656.002"/>
</g>
<!-- Node41 -->
<g id="node41" class="node"><title>Node41</title>
<g id="a_node41"><a xlink:href="../../d3/d3b/class_group_list.html" target="_top" xlink:title="A list of GroupDef objects. ">
<polygon fill="white" stroke="black" points="1446.5,-215.5 1446.5,-234.5 1505.5,-234.5 1505.5,-215.5 1446.5,-215.5"/>
<text text-anchor="middle" x="1476" y="-222.5" font-family="Helvetica,sans-Serif" font-size="10.00">GroupList</text>
</a>
</g>
</g>
<!-- Node41&#45;&gt;Node5 -->
<g id="edge59" class="edge"><title>Node41&#45;&gt;Node5</title>
<path fill="none" stroke="#9a32cd" stroke-dasharray="5,2" d="M1515.94,-220.259C1544.61,-216.769 1583.39,-212.049 1611.77,-208.593"/>
<polygon fill="#9a32cd" stroke="#9a32cd" points="1515.38,-216.802 1505.87,-221.485 1516.22,-223.751 1515.38,-216.802"/>
<text text-anchor="middle" x="1563" y="-221" font-family="Helvetica,sans-Serif" font-size="10.00"> partOfGroups</text>
</g>
<!-- Node42 -->
<g id="node42" class="node"><title>Node42</title>
<polygon fill="white" stroke="#bfbfbf" points="1225,-215.5 1225,-234.5 1325,-234.5 1325,-215.5 1225,-215.5"/>
<text text-anchor="middle" x="1275" y="-222.5" font-family="Helvetica,sans-Serif" font-size="10.00">QList&lt; GroupDef &gt;</text>
</g>
<!-- Node42&#45;&gt;Node41 -->
<g id="edge60" class="edge"><title>Node42&#45;&gt;Node41</title>
<path fill="none" stroke="midnightblue" d="M1335.29,-225C1371.98,-225 1417.46,-225 1446.35,-225"/>
<polygon fill="midnightblue" stroke="midnightblue" points="1335.19,-221.5 1325.19,-225 1335.19,-228.5 1335.19,-221.5"/>
</g>
<!-- Node43 -->
<g id="node43" class="node"><title>Node43</title>
<g id="a_node43"><a xlink:href="../../d7/dd5/struct_doc_info.html" target="_top" xlink:title="Data associated with a detailed description. ">
<polygon fill="white" stroke="black" points="1450.5,-172.5 1450.5,-191.5 1501.5,-191.5 1501.5,-172.5 1450.5,-172.5"/>
<text text-anchor="middle" x="1476" y="-179.5" font-family="Helvetica,sans-Serif" font-size="10.00">DocInfo</text>
</a>
</g>
</g>
<!-- Node43&#45;&gt;Node5 -->
<g id="edge61" class="edge"><title>Node43&#45;&gt;Node5</title>
<path fill="none" stroke="#9a32cd" stroke-dasharray="5,2" d="M1512.03,-179.622C1535.43,-178.76 1566.8,-179.008 1594,-184 1605.58,-186.126 1617.96,-190.378 1628.08,-194.416"/>
<polygon fill="#9a32cd" stroke="#9a32cd" points="1511.72,-176.133 1501.88,-180.083 1512.03,-183.126 1511.72,-176.133"/>
<text text-anchor="middle" x="1563" y="-198" font-family="Helvetica,sans-Serif" font-size="10.00"> inbodyDocs</text>
<text text-anchor="middle" x="1563" y="-187" font-family="Helvetica,sans-Serif" font-size="10.00">details</text>
</g>
<!-- Node44 -->
<g id="node44" class="node"><title>Node44</title>
<g id="a_node44"><a xlink:href="../../d0/da7/struct_brief_info.html" target="_top" xlink:title="Data associated with a brief description. ">
<polygon fill="white" stroke="black" points="1449.5,-134.5 1449.5,-153.5 1502.5,-153.5 1502.5,-134.5 1449.5,-134.5"/>
<text text-anchor="middle" x="1476" y="-141.5" font-family="Helvetica,sans-Serif" font-size="10.00">BriefInfo</text>
</a>
</g>
</g>
<!-- Node44&#45;&gt;Node5 -->
<g id="edge62" class="edge"><title>Node44&#45;&gt;Node5</title>
<path fill="none" stroke="#9a32cd" stroke-dasharray="5,2" d="M1512.59,-145.884C1536.4,-148.143 1568.01,-153.106 1594,-164 1611.53,-171.346 1628.82,-185.135 1639.33,-194.443"/>
<polygon fill="#9a32cd" stroke="#9a32cd" points="1512.83,-142.393 1502.57,-145.049 1512.25,-149.368 1512.83,-142.393"/>
<text text-anchor="middle" x="1563" y="-167" font-family="Helvetica,sans-Serif" font-size="10.00"> brief</text>
</g>
</g>
</svg>
