<?xml version="1.0" encoding="UTF-8" standalone="no"?>
<!DOCTYPE svg PUBLIC "-//W3C//DTD SVG 1.1//EN"
 "http://www.w3.org/Graphics/SVG/1.1/DTD/svg11.dtd">
<!-- Generated by graphviz version 2.38.0 (20140413.2041)
 -->
<!-- Title: FilterGroupBy::ListElem Pages: 1 -->
<svg width="280pt" height="162pt"
 viewBox="0.00 0.00 280.00 162.00" xmlns="http://www.w3.org/2000/svg" xmlns:xlink="http://www.w3.org/1999/xlink">
<g id="graph0" class="graph" transform="scale(1 1) rotate(0) translate(4 158)">
<title>FilterGroupBy::ListElem</title>
<polygon fill="white" stroke="none" points="-4,4 -4,-158 276,-158 276,4 -4,4"/>
<!-- Node1 -->
<g id="node1" class="node"><title>Node1</title>
<polygon fill="#bfbfbf" stroke="black" points="0,-0.5 0,-19.5 121,-19.5 121,-0.5 0,-0.5"/>
<text text-anchor="middle" x="60.5" y="-7.5" font-family="Helvetica,sans-Serif" font-size="10.00">FilterGroupBy::ListElem</text>
</g>
<!-- Node2 -->
<g id="node2" class="node"><title>Node2</title>
<g id="a_node2"><a xlink:href="../../d1/dba/class_template_variant.html" target="_top" xlink:title="Variant type which can hold one value of a fixed set of types. ">
<polygon fill="white" stroke="black" points="89.5,-67.5 89.5,-86.5 177.5,-86.5 177.5,-67.5 89.5,-67.5"/>
<text text-anchor="middle" x="133.5" y="-74.5" font-family="Helvetica,sans-Serif" font-size="10.00">TemplateVariant</text>
</a>
</g>
</g>
<!-- Node2&#45;&gt;Node1 -->
<g id="edge1" class="edge"><title>Node2&#45;&gt;Node1</title>
<path fill="none" stroke="#9a32cd" stroke-dasharray="5,2" d="M111.994,-61.3223C106.779,-57.4895 101.32,-53.2393 96.5,-49 85.855,-39.637 74.8154,-27.5743 67.8151,-19.579"/>
<polygon fill="#9a32cd" stroke="#9a32cd" points="110.212,-64.3498 120.387,-67.303 114.274,-58.6492 110.212,-64.3498"/>
<text text-anchor="middle" x="110" y="-41" font-family="Helvetica,sans-Serif" font-size="10.00"> value</text>
</g>
<!-- Node5 -->
<g id="node5" class="node"><title>Node5</title>
<g id="a_node5"><a xlink:href="../../d7/d1d/class_template_variant_1_1_delegate.html" target="_top" xlink:title="Helper class to create a delegate that can store a function/method call. ">
<polygon fill="white" stroke="black" points="139,-0.5 139,-19.5 272,-19.5 272,-0.5 139,-0.5"/>
<text text-anchor="middle" x="205.5" y="-7.5" font-family="Helvetica,sans-Serif" font-size="10.00">TemplateVariant::Delegate</text>
</a>
</g>
</g>
<!-- Node2&#45;&gt;Node5 -->
<g id="edge5" class="edge"><title>Node2&#45;&gt;Node5</title>
<path fill="none" stroke="#9a32cd" stroke-dasharray="5,2" d="M127.388,-57.6136C126.297,-50.9141 126.554,-43.6139 130.5,-38 136.548,-29.3951 145.615,-23.5198 155.375,-19.5116"/>
<polygon fill="#9a32cd" stroke="#9a32cd" points="124.002,-58.5001 129.874,-67.3183 130.783,-56.7624 124.002,-58.5001"/>
<text text-anchor="middle" x="155" y="-41" font-family="Helvetica,sans-Serif" font-size="10.00"> m_stubPtr</text>
</g>
<!-- Node3 -->
<g id="node3" class="node"><title>Node3</title>
<g id="a_node3"><a xlink:href="../../d6/d88/class_template_list_intf.html" target="_top" xlink:title="Abstract read&#45;only interface for a context value of type list. ">
<polygon fill="white" stroke="black" points="35,-134.5 35,-153.5 122,-153.5 122,-134.5 35,-134.5"/>
<text text-anchor="middle" x="78.5" y="-141.5" font-family="Helvetica,sans-Serif" font-size="10.00">TemplateListIntf</text>
</a>
</g>
</g>
<!-- Node3&#45;&gt;Node2 -->
<g id="edge2" class="edge"><title>Node3&#45;&gt;Node2</title>
<path fill="none" stroke="#9a32cd" stroke-dasharray="5,2" d="M92.6558,-126.27C103.379,-113.597 117.676,-96.701 126.2,-86.6273"/>
<polygon fill="#9a32cd" stroke="#9a32cd" points="89.7051,-124.339 85.9175,-134.234 95.0489,-128.861 89.7051,-124.339"/>
<text text-anchor="middle" x="124.5" y="-108" font-family="Helvetica,sans-Serif" font-size="10.00"> m_list</text>
</g>
<!-- Node4 -->
<g id="node4" class="node"><title>Node4</title>
<g id="a_node4"><a xlink:href="../../d9/de8/class_template_struct_intf.html" target="_top" xlink:title="Abstract interface for a context value of type struct. ">
<polygon fill="white" stroke="black" points="140.5,-134.5 140.5,-153.5 238.5,-153.5 238.5,-134.5 140.5,-134.5"/>
<text text-anchor="middle" x="189.5" y="-141.5" font-family="Helvetica,sans-Serif" font-size="10.00">TemplateStructIntf</text>
</a>
</g>
</g>
<!-- Node4&#45;&gt;Node2 -->
<g id="edge3" class="edge"><title>Node4&#45;&gt;Node2</title>
<path fill="none" stroke="#9a32cd" stroke-dasharray="5,2" d="M175.401,-126.635C164.449,-113.923 149.695,-96.7978 140.933,-86.6273"/>
<polygon fill="#9a32cd" stroke="#9a32cd" points="172.769,-128.942 181.948,-134.234 178.072,-124.373 172.769,-128.942"/>
<text text-anchor="middle" x="186.5" y="-108" font-family="Helvetica,sans-Serif" font-size="10.00"> m_strukt</text>
</g>
<!-- Node5&#45;&gt;Node2 -->
<g id="edge4" class="edge"><title>Node5&#45;&gt;Node2</title>
<path fill="none" stroke="#9a32cd" stroke-dasharray="5,2" d="M197.68,-29.0229C194.08,-35.8672 189.306,-43.3633 183.5,-49 175.572,-56.6962 165.011,-62.8262 155.638,-67.2873"/>
<polygon fill="#9a32cd" stroke="#9a32cd" points="200.954,-30.2874 202.096,-19.7543 194.635,-27.2764 200.954,-30.2874"/>
<text text-anchor="middle" x="219.5" y="-41" font-family="Helvetica,sans-Serif" font-size="10.00"> m_delegate</text>
</g>
</g>
</svg>
