<?xml version="1.0" encoding="UTF-8" standalone="no"?>
<!DOCTYPE svg PUBLIC "-//W3C//DTD SVG 1.1//EN"
 "http://www.w3.org/Graphics/SVG/1.1/DTD/svg11.dtd">
<!-- Generated by graphviz version 2.38.0 (20140413.2041)
 -->
<!-- Title: src/ftextstream.cpp Pages: 1 -->
<svg width="288pt" height="140pt"
 viewBox="0.00 0.00 287.50 140.00" xmlns="http://www.w3.org/2000/svg" xmlns:xlink="http://www.w3.org/1999/xlink">
<g id="graph0" class="graph" transform="scale(1 1) rotate(0) translate(4 136)">
<title>src/ftextstream.cpp</title>
<polygon fill="white" stroke="none" points="-4,4 -4,-136 283.5,-136 283.5,4 -4,4"/>
<!-- Node0 -->
<g id="node1" class="node"><title>Node0</title>
<polygon fill="#bfbfbf" stroke="black" points="123.5,-112.5 123.5,-131.5 224.5,-131.5 224.5,-112.5 123.5,-112.5"/>
<text text-anchor="middle" x="174" y="-119.5" font-family="Helvetica,sans-Serif" font-size="10.00">src/ftextstream.cpp</text>
</g>
<!-- Node1 -->
<g id="node2" class="node"><title>Node1</title>
<g id="a_node2"><a xlink:href="../../df/d83/ftextstream_8h.html" target="_top" xlink:title="ftextstream.h">
<polygon fill="white" stroke="black" points="99,-56.5 99,-75.5 173,-75.5 173,-56.5 99,-56.5"/>
<text text-anchor="middle" x="136" y="-63.5" font-family="Helvetica,sans-Serif" font-size="10.00">ftextstream.h</text>
</a>
</g>
</g>
<!-- Node0&#45;&gt;Node1 -->
<g id="edge1" class="edge"><title>Node0&#45;&gt;Node1</title>
<path fill="none" stroke="midnightblue" d="M167.725,-112.083C162.358,-104.455 154.482,-93.2645 147.921,-83.9408"/>
<polygon fill="midnightblue" stroke="midnightblue" points="150.775,-81.9149 142.158,-75.7511 145.051,-85.9434 150.775,-81.9149"/>
</g>
<!-- Node6 -->
<g id="node7" class="node"><title>Node6</title>
<polygon fill="white" stroke="#bfbfbf" points="191.5,-56.5 191.5,-75.5 234.5,-75.5 234.5,-56.5 191.5,-56.5"/>
<text text-anchor="middle" x="213" y="-63.5" font-family="Helvetica,sans-Serif" font-size="10.00">qfile.h</text>
</g>
<!-- Node0&#45;&gt;Node6 -->
<g id="edge6" class="edge"><title>Node0&#45;&gt;Node6</title>
<path fill="none" stroke="midnightblue" d="M180.44,-112.083C185.949,-104.455 194.031,-93.2645 200.765,-83.9408"/>
<polygon fill="midnightblue" stroke="midnightblue" points="203.662,-85.9071 206.68,-75.7511 197.987,-81.8087 203.662,-85.9071"/>
</g>
<!-- Node2 -->
<g id="node3" class="node"><title>Node2</title>
<polygon fill="white" stroke="#bfbfbf" points="0,-0.5 0,-19.5 46,-19.5 46,-0.5 0,-0.5"/>
<text text-anchor="middle" x="23" y="-7.5" font-family="Helvetica,sans-Serif" font-size="10.00">stdio.h</text>
</g>
<!-- Node1&#45;&gt;Node2 -->
<g id="edge2" class="edge"><title>Node1&#45;&gt;Node2</title>
<path fill="none" stroke="midnightblue" d="M118.095,-56.4435C99.746,-47.6751 70.9946,-33.9355 49.9064,-23.8579"/>
<polygon fill="midnightblue" stroke="midnightblue" points="51.3532,-20.6703 40.8214,-19.5164 48.335,-26.9862 51.3532,-20.6703"/>
</g>
<!-- Node3 -->
<g id="node4" class="node"><title>Node3</title>
<polygon fill="white" stroke="#bfbfbf" points="64,-0.5 64,-19.5 130,-19.5 130,-0.5 64,-0.5"/>
<text text-anchor="middle" x="97" y="-7.5" font-family="Helvetica,sans-Serif" font-size="10.00">qiodevice.h</text>
</g>
<!-- Node1&#45;&gt;Node3 -->
<g id="edge3" class="edge"><title>Node1&#45;&gt;Node3</title>
<path fill="none" stroke="midnightblue" d="M129.56,-56.083C124.051,-48.4554 115.969,-37.2645 109.235,-27.9408"/>
<polygon fill="midnightblue" stroke="midnightblue" points="112.013,-25.8087 103.32,-19.7511 106.338,-29.9071 112.013,-25.8087"/>
</g>
<!-- Node4 -->
<g id="node5" class="node"><title>Node4</title>
<polygon fill="white" stroke="#bfbfbf" points="148,-0.5 148,-19.5 202,-19.5 202,-0.5 148,-0.5"/>
<text text-anchor="middle" x="175" y="-7.5" font-family="Helvetica,sans-Serif" font-size="10.00">qstring.h</text>
</g>
<!-- Node1&#45;&gt;Node4 -->
<g id="edge4" class="edge"><title>Node1&#45;&gt;Node4</title>
<path fill="none" stroke="midnightblue" d="M142.44,-56.083C147.949,-48.4554 156.031,-37.2645 162.765,-27.9408"/>
<polygon fill="midnightblue" stroke="midnightblue" points="165.662,-29.9071 168.68,-19.7511 159.987,-25.8087 165.662,-29.9071"/>
</g>
<!-- Node5 -->
<g id="node6" class="node"><title>Node5</title>
<polygon fill="white" stroke="#bfbfbf" points="220.5,-0.5 220.5,-19.5 279.5,-19.5 279.5,-0.5 220.5,-0.5"/>
<text text-anchor="middle" x="250" y="-7.5" font-family="Helvetica,sans-Serif" font-size="10.00">qgstring.h</text>
</g>
<!-- Node1&#45;&gt;Node5 -->
<g id="edge5" class="edge"><title>Node1&#45;&gt;Node5</title>
<path fill="none" stroke="midnightblue" d="M154.064,-56.4435C172.575,-47.6751 201.581,-33.9355 222.855,-23.8579"/>
<polygon fill="midnightblue" stroke="midnightblue" points="224.482,-26.9604 232.021,-19.5164 221.485,-20.6343 224.482,-26.9604"/>
</g>
</g>
</svg>
