<?xml version="1.0" encoding="UTF-8" standalone="no"?>
<!DOCTYPE svg PUBLIC "-//W3C//DTD SVG 1.1//EN"
 "http://www.w3.org/Graphics/SVG/1.1/DTD/svg11.dtd">
<!-- Generated by graphviz version 2.38.0 (20140413.2041)
 -->
<!-- Title: TranslatorEnglish Pages: 1 -->
<svg width="244pt" height="140pt"
 viewBox="0.00 0.00 243.50 140.00" xmlns="http://www.w3.org/2000/svg" xmlns:xlink="http://www.w3.org/1999/xlink">
<g id="graph0" class="graph" transform="scale(1 1) rotate(0) translate(4 136)">
<title>TranslatorEnglish</title>
<polygon fill="white" stroke="none" points="-4,4 -4,-136 239.5,-136 239.5,4 -4,4"/>
<!-- Node0 -->
<g id="node1" class="node"><title>Node0</title>
<polygon fill="#bfbfbf" stroke="black" points="74,-56.5 74,-75.5 166,-75.5 166,-56.5 74,-56.5"/>
<text text-anchor="middle" x="120" y="-63.5" font-family="Helvetica,sans-Serif" font-size="10.00">TranslatorEnglish</text>
</g>
<!-- Node2 -->
<g id="node3" class="node"><title>Node2</title>
<g id="a_node3"><a xlink:href="../../d0/d16/class_translator_japanese_en.html" target="_top" xlink:title="TranslatorJapaneseEn">
<polygon fill="white" stroke="black" points="0,-0.5 0,-19.5 114,-19.5 114,-0.5 0,-0.5"/>
<text text-anchor="middle" x="57" y="-7.5" font-family="Helvetica,sans-Serif" font-size="10.00">TranslatorJapaneseEn</text>
</a>
</g>
</g>
<!-- Node0&#45;&gt;Node2 -->
<g id="edge2" class="edge"><title>Node0&#45;&gt;Node2</title>
<path fill="none" stroke="midnightblue" d="M101.96,-49.5372C90.7269,-39.9087 76.6809,-27.8694 67.3062,-19.8339"/>
<polygon fill="midnightblue" stroke="midnightblue" points="100.008,-52.4734 109.878,-56.324 104.563,-47.1586 100.008,-52.4734"/>
</g>
<!-- Node3 -->
<g id="node4" class="node"><title>Node3</title>
<g id="a_node4"><a xlink:href="../../d0/d3a/class_translator_korean_en.html" target="_top" xlink:title="TranslatorKoreanEn">
<polygon fill="white" stroke="black" points="132.5,-0.5 132.5,-19.5 235.5,-19.5 235.5,-0.5 132.5,-0.5"/>
<text text-anchor="middle" x="184" y="-7.5" font-family="Helvetica,sans-Serif" font-size="10.00">TranslatorKoreanEn</text>
</a>
</g>
</g>
<!-- Node0&#45;&gt;Node3 -->
<g id="edge3" class="edge"><title>Node0&#45;&gt;Node3</title>
<path fill="none" stroke="midnightblue" d="M137.991,-49.8197C149.458,-40.1452 163.913,-27.9481 173.53,-19.8339"/>
<polygon fill="midnightblue" stroke="midnightblue" points="135.669,-47.2002 130.283,-56.324 140.183,-52.5502 135.669,-47.2002"/>
</g>
<!-- Node1 -->
<g id="node2" class="node"><title>Node1</title>
<g id="a_node2"><a xlink:href="../../d8/dfb/class_translator.html" target="_top" xlink:title="Abstract base class for all translatable text fragments. ">
<polygon fill="white" stroke="black" points="90,-112.5 90,-131.5 150,-131.5 150,-112.5 90,-112.5"/>
<text text-anchor="middle" x="120" y="-119.5" font-family="Helvetica,sans-Serif" font-size="10.00">Translator</text>
</a>
</g>
</g>
<!-- Node1&#45;&gt;Node0 -->
<g id="edge1" class="edge"><title>Node1&#45;&gt;Node0</title>
<path fill="none" stroke="midnightblue" d="M120,-101.805C120,-92.9102 120,-82.7798 120,-75.7511"/>
<polygon fill="midnightblue" stroke="midnightblue" points="116.5,-102.083 120,-112.083 123.5,-102.083 116.5,-102.083"/>
</g>
</g>
</svg>
