<?xml version="1.0" encoding="UTF-8" standalone="no"?>
<!DOCTYPE svg PUBLIC "-//W3C//DTD SVG 1.1//EN"
 "http://www.w3.org/Graphics/SVG/1.1/DTD/svg11.dtd">
<!-- Generated by graphviz version 2.38.0 (20140413.2041)
 -->
<!-- Title: src/classlist.h Pages: 1 -->
<svg width="2113pt" height="84pt"
 viewBox="0.00 0.00 2113.00 84.00" xmlns="http://www.w3.org/2000/svg" xmlns:xlink="http://www.w3.org/1999/xlink">
<g id="graph0" class="graph" transform="scale(1 1) rotate(0) translate(4 80)">
<title>src/classlist.h</title>
<polygon fill="white" stroke="none" points="-4,4 -4,-80 2109,-80 2109,4 -4,4"/>
<!-- Node10 -->
<g id="node1" class="node"><title>Node10</title>
<polygon fill="#bfbfbf" stroke="black" points="996,-56.5 996,-75.5 1073,-75.5 1073,-56.5 996,-56.5"/>
<text text-anchor="middle" x="1034.5" y="-63.5" font-family="Helvetica,sans-Serif" font-size="10.00">src/classlist.h</text>
</g>
<!-- Node11 -->
<g id="node2" class="node"><title>Node11</title>
<g id="a_node2"><a xlink:href="../../de/d89/classdef_8cpp.html" target="_top" xlink:title="src/classdef.cpp">
<polygon fill="white" stroke="black" points="0,-0.5 0,-19.5 89,-19.5 89,-0.5 0,-0.5"/>
<text text-anchor="middle" x="44.5" y="-7.5" font-family="Helvetica,sans-Serif" font-size="10.00">src/classdef.cpp</text>
</a>
</g>
</g>
<!-- Node10&#45;&gt;Node11 -->
<g id="edge1" class="edge"><title>Node10&#45;&gt;Node11</title>
<path fill="none" stroke="midnightblue" d="M985.673,-64.7209C846.493,-63.4809 435.98,-56.7321 97.5,-20 94.8092,-19.708 92.0479,-19.3666 89.2666,-18.9909"/>
<polygon fill="midnightblue" stroke="midnightblue" points="985.963,-68.2234 995.992,-64.807 986.022,-61.2236 985.963,-68.2234"/>
</g>
<!-- Node12 -->
<g id="node3" class="node"><title>Node12</title>
<g id="a_node3"><a xlink:href="../../d6/d10/classlist_8cpp.html" target="_top" xlink:title="src/classlist.cpp">
<polygon fill="white" stroke="black" points="106.5,-0.5 106.5,-19.5 194.5,-19.5 194.5,-0.5 106.5,-0.5"/>
<text text-anchor="middle" x="150.5" y="-7.5" font-family="Helvetica,sans-Serif" font-size="10.00">src/classlist.cpp</text>
</a>
</g>
</g>
<!-- Node10&#45;&gt;Node12 -->
<g id="edge2" class="edge"><title>Node10&#45;&gt;Node12</title>
<path fill="none" stroke="midnightblue" d="M985.559,-64.2976C856.997,-62.0313 499.239,-53.0083 203.5,-20 200.625,-19.6791 197.668,-19.3039 194.693,-18.8923"/>
<polygon fill="midnightblue" stroke="midnightblue" points="985.793,-67.802 995.851,-64.4731 985.913,-60.803 985.793,-67.802"/>
</g>
<!-- Node13 -->
<g id="node4" class="node"><title>Node13</title>
<g id="a_node4"><a xlink:href="../../db/d12/context_8cpp.html" target="_top" xlink:title="src/context.cpp">
<polygon fill="white" stroke="black" points="212.5,-0.5 212.5,-19.5 296.5,-19.5 296.5,-0.5 212.5,-0.5"/>
<text text-anchor="middle" x="254.5" y="-7.5" font-family="Helvetica,sans-Serif" font-size="10.00">src/context.cpp</text>
</a>
</g>
</g>
<!-- Node10&#45;&gt;Node13 -->
<g id="edge3" class="edge"><title>Node10&#45;&gt;Node13</title>
<path fill="none" stroke="midnightblue" d="M985.512,-63.8866C867.886,-60.7976 560.35,-50.2543 305.5,-20 302.643,-19.6608 299.703,-19.2658 296.746,-18.8342"/>
<polygon fill="midnightblue" stroke="midnightblue" points="985.55,-67.3886 995.636,-64.1462 985.729,-60.3909 985.55,-67.3886"/>
</g>
<!-- Node14 -->
<g id="node5" class="node"><title>Node14</title>
<g id="a_node5"><a xlink:href="../../d3/d17/defgen_8cpp.html" target="_top" xlink:title="src/defgen.cpp">
<polygon fill="white" stroke="black" points="315,-0.5 315,-19.5 396,-19.5 396,-0.5 315,-0.5"/>
<text text-anchor="middle" x="355.5" y="-7.5" font-family="Helvetica,sans-Serif" font-size="10.00">src/defgen.cpp</text>
</a>
</g>
</g>
<!-- Node10&#45;&gt;Node14 -->
<g id="edge4" class="edge"><title>Node10&#45;&gt;Node14</title>
<path fill="none" stroke="midnightblue" d="M985.634,-63.2802C879.629,-59.1603 620.751,-46.9942 405.5,-20 402.437,-19.6159 399.277,-19.1686 396.104,-18.6825"/>
<polygon fill="midnightblue" stroke="midnightblue" points="985.582,-66.7807 995.708,-63.6653 985.849,-59.7858 985.582,-66.7807"/>
</g>
<!-- Node15 -->
<g id="node6" class="node"><title>Node15</title>
<g id="a_node6"><a xlink:href="../../da/d0d/diagram_8cpp.html" target="_top" xlink:title="src/diagram.cpp">
<polygon fill="white" stroke="black" points="414.5,-0.5 414.5,-19.5 500.5,-19.5 500.5,-0.5 414.5,-0.5"/>
<text text-anchor="middle" x="457.5" y="-7.5" font-family="Helvetica,sans-Serif" font-size="10.00">src/diagram.cpp</text>
</a>
</g>
</g>
<!-- Node10&#45;&gt;Node15 -->
<g id="edge5" class="edge"><title>Node10&#45;&gt;Node15</title>
<path fill="none" stroke="midnightblue" d="M985.621,-62.2167C892.642,-56.6108 684.001,-42.5374 509.5,-20 506.592,-19.6245 503.599,-19.2022 500.587,-18.7507"/>
<polygon fill="midnightblue" stroke="midnightblue" points="985.656,-65.7249 995.847,-62.8271 986.073,-58.7374 985.656,-65.7249"/>
</g>
<!-- Node16 -->
<g id="node7" class="node"><title>Node16</title>
<g id="a_node7"><a xlink:href="../../d8/d29/docbookgen_8cpp.html" target="_top" xlink:title="src/docbookgen.cpp">
<polygon fill="white" stroke="black" points="518.5,-0.5 518.5,-19.5 622.5,-19.5 622.5,-0.5 518.5,-0.5"/>
<text text-anchor="middle" x="570.5" y="-7.5" font-family="Helvetica,sans-Serif" font-size="10.00">src/docbookgen.cpp</text>
</a>
</g>
</g>
<!-- Node10&#45;&gt;Node16 -->
<g id="edge6" class="edge"><title>Node10&#45;&gt;Node16</title>
<path fill="none" stroke="midnightblue" d="M985.623,-60.1042C909.736,-52.3763 759.026,-36.5224 631.5,-20 628.634,-19.6286 625.693,-19.2355 622.727,-18.8293"/>
<polygon fill="midnightblue" stroke="midnightblue" points="985.521,-63.6119 995.824,-61.14 986.229,-56.6477 985.521,-63.6119"/>
</g>
<!-- Node17 -->
<g id="node8" class="node"><title>Node17</title>
<g id="a_node8"><a xlink:href="../../da/d17/docparser_8cpp.html" target="_top" xlink:title="src/docparser.cpp">
<polygon fill="white" stroke="black" points="641,-0.5 641,-19.5 736,-19.5 736,-0.5 641,-0.5"/>
<text text-anchor="middle" x="688.5" y="-7.5" font-family="Helvetica,sans-Serif" font-size="10.00">src/docparser.cpp</text>
</a>
</g>
</g>
<!-- Node10&#45;&gt;Node17 -->
<g id="edge7" class="edge"><title>Node10&#45;&gt;Node17</title>
<path fill="none" stroke="midnightblue" d="M985.629,-57.499C927.976,-48.631 829.244,-33.3846 744.5,-20 741.777,-19.5699 738.979,-19.1261 736.156,-18.677"/>
<polygon fill="midnightblue" stroke="midnightblue" points="985.141,-60.9651 995.557,-59.0255 986.205,-54.0464 985.141,-60.9651"/>
</g>
<!-- Node18 -->
<g id="node9" class="node"><title>Node18</title>
<g id="a_node9"><a xlink:href="../../de/daa/dot_8cpp.html" target="_top" xlink:title="src/dot.cpp">
<polygon fill="white" stroke="black" points="754,-0.5 754,-19.5 819,-19.5 819,-0.5 754,-0.5"/>
<text text-anchor="middle" x="786.5" y="-7.5" font-family="Helvetica,sans-Serif" font-size="10.00">src/dot.cpp</text>
</a>
</g>
</g>
<!-- Node10&#45;&gt;Node18 -->
<g id="edge8" class="edge"><title>Node10&#45;&gt;Node18</title>
<path fill="none" stroke="midnightblue" d="M986.015,-54.4889C944.061,-45.3866 881.77,-31.8554 827.5,-20 824.795,-19.409 821.989,-18.7951 819.172,-18.1782"/>
<polygon fill="midnightblue" stroke="midnightblue" points="985.448,-57.9471 995.962,-56.6467 986.932,-51.1062 985.448,-57.9471"/>
</g>
<!-- Node19 -->
<g id="node10" class="node"><title>Node19</title>
<g id="a_node10"><a xlink:href="../../dc/d98/doxygen_8cpp.html" target="_top" xlink:title="src/doxygen.cpp">
<polygon fill="white" stroke="black" points="837,-0.5 837,-19.5 926,-19.5 926,-0.5 837,-0.5"/>
<text text-anchor="middle" x="881.5" y="-7.5" font-family="Helvetica,sans-Serif" font-size="10.00">src/doxygen.cpp</text>
</a>
</g>
</g>
<!-- Node10&#45;&gt;Node19 -->
<g id="edge9" class="edge"><title>Node10&#45;&gt;Node19</title>
<path fill="none" stroke="midnightblue" d="M1000.61,-53.0392C971.823,-42.8786 931.213,-28.5457 905.63,-19.5164"/>
<polygon fill="midnightblue" stroke="midnightblue" points="999.662,-56.4157 1010.26,-56.4435 1001.99,-49.8148 999.662,-56.4157"/>
</g>
<!-- Node20 -->
<g id="node11" class="node"><title>Node20</title>
<g id="a_node11"><a xlink:href="../../d6/ddc/filedef_8cpp.html" target="_top" xlink:title="src/filedef.cpp">
<polygon fill="white" stroke="black" points="944.5,-0.5 944.5,-19.5 1022.5,-19.5 1022.5,-0.5 944.5,-0.5"/>
<text text-anchor="middle" x="983.5" y="-7.5" font-family="Helvetica,sans-Serif" font-size="10.00">src/filedef.cpp</text>
</a>
</g>
</g>
<!-- Node10&#45;&gt;Node20 -->
<g id="edge10" class="edge"><title>Node10&#45;&gt;Node20</title>
<path fill="none" stroke="midnightblue" d="M1019.12,-48.7175C1010.13,-39.1997 999.141,-27.5608 991.765,-19.7511"/>
<polygon fill="midnightblue" stroke="midnightblue" points="1016.67,-51.216 1026.08,-56.083 1021.76,-46.4096 1016.67,-51.216"/>
</g>
<!-- Node21 -->
<g id="node12" class="node"><title>Node21</title>
<g id="a_node12"><a xlink:href="../../d6/d42/groupdef_8cpp.html" target="_top" xlink:title="src/groupdef.cpp">
<polygon fill="white" stroke="black" points="1041,-0.5 1041,-19.5 1130,-19.5 1130,-0.5 1041,-0.5"/>
<text text-anchor="middle" x="1085.5" y="-7.5" font-family="Helvetica,sans-Serif" font-size="10.00">src/groupdef.cpp</text>
</a>
</g>
</g>
<!-- Node10&#45;&gt;Node21 -->
<g id="edge11" class="edge"><title>Node10&#45;&gt;Node21</title>
<path fill="none" stroke="midnightblue" d="M1049.88,-48.7175C1058.87,-39.1997 1069.86,-27.5608 1077.24,-19.7511"/>
<polygon fill="midnightblue" stroke="midnightblue" points="1047.24,-46.4096 1042.92,-56.083 1052.33,-51.216 1047.24,-46.4096"/>
</g>
<!-- Node22 -->
<g id="node13" class="node"><title>Node22</title>
<g id="a_node13"><a xlink:href="../../db/d14/index_8cpp.html" target="_top" xlink:title="This file contains functions for the various index pages. ">
<polygon fill="white" stroke="black" points="1148,-0.5 1148,-19.5 1223,-19.5 1223,-0.5 1148,-0.5"/>
<text text-anchor="middle" x="1185.5" y="-7.5" font-family="Helvetica,sans-Serif" font-size="10.00">src/index.cpp</text>
</a>
</g>
</g>
<!-- Node10&#45;&gt;Node22 -->
<g id="edge12" class="edge"><title>Node10&#45;&gt;Node22</title>
<path fill="none" stroke="midnightblue" d="M1067.95,-53.0392C1096.36,-42.8786 1136.44,-28.5457 1161.69,-19.5164"/>
<polygon fill="midnightblue" stroke="midnightblue" points="1066.66,-49.7806 1058.43,-56.4435 1069.02,-56.3718 1066.66,-49.7806"/>
</g>
<!-- Node23 -->
<g id="node14" class="node"><title>Node23</title>
<g id="a_node14"><a xlink:href="../../d4/d42/latexgen_8cpp.html" target="_top" xlink:title="src/latexgen.cpp">
<polygon fill="white" stroke="black" points="1241,-0.5 1241,-19.5 1330,-19.5 1330,-0.5 1241,-0.5"/>
<text text-anchor="middle" x="1285.5" y="-7.5" font-family="Helvetica,sans-Serif" font-size="10.00">src/latexgen.cpp</text>
</a>
</g>
</g>
<!-- Node10&#45;&gt;Node23 -->
<g id="edge13" class="edge"><title>Node10&#45;&gt;Node23</title>
<path fill="none" stroke="midnightblue" d="M1083.21,-54.5206C1130.66,-44.3116 1201.91,-28.9838 1245.96,-19.5069"/>
<polygon fill="midnightblue" stroke="midnightblue" points="1082.21,-51.1558 1073.17,-56.6808 1083.68,-57.9992 1082.21,-51.1558"/>
</g>
<!-- Node24 -->
<g id="node15" class="node"><title>Node24</title>
<g id="a_node15"><a xlink:href="../../d7/d1c/namespacedef_8cpp.html" target="_top" xlink:title="src/namespacedef.cpp">
<polygon fill="white" stroke="black" points="1347.5,-0.5 1347.5,-19.5 1463.5,-19.5 1463.5,-0.5 1347.5,-0.5"/>
<text text-anchor="middle" x="1405.5" y="-7.5" font-family="Helvetica,sans-Serif" font-size="10.00">src/namespacedef.cpp</text>
</a>
</g>
</g>
<!-- Node10&#45;&gt;Node24 -->
<g id="edge14" class="edge"><title>Node10&#45;&gt;Node24</title>
<path fill="none" stroke="midnightblue" d="M1083.17,-57.9152C1151.18,-48.0175 1274.43,-30.0776 1347.23,-19.4813"/>
<polygon fill="midnightblue" stroke="midnightblue" points="1082.55,-54.4699 1073.15,-59.3739 1083.55,-61.3969 1082.55,-54.4699"/>
</g>
<!-- Node25 -->
<g id="node16" class="node"><title>Node25</title>
<g id="a_node16"><a xlink:href="../../de/dd0/perlmodgen_8cpp.html" target="_top" xlink:title="src/perlmodgen.cpp">
<polygon fill="white" stroke="black" points="1481.5,-0.5 1481.5,-19.5 1583.5,-19.5 1583.5,-0.5 1481.5,-0.5"/>
<text text-anchor="middle" x="1532.5" y="-7.5" font-family="Helvetica,sans-Serif" font-size="10.00">src/perlmodgen.cpp</text>
</a>
</g>
</g>
<!-- Node10&#45;&gt;Node25 -->
<g id="edge15" class="edge"><title>Node10&#45;&gt;Node25</title>
<path fill="none" stroke="midnightblue" d="M1083.63,-60.7032C1164.74,-53.4417 1331.69,-37.7839 1472.5,-20 1475.43,-19.6304 1478.43,-19.2341 1481.46,-18.8211"/>
<polygon fill="midnightblue" stroke="midnightblue" points="1082.89,-57.2557 1073.24,-61.6299 1083.51,-64.2281 1082.89,-57.2557"/>
</g>
<!-- Node26 -->
<g id="node17" class="node"><title>Node26</title>
<g id="a_node17"><a xlink:href="../../d0/d9c/rtfgen_8cpp.html" target="_top" xlink:title="src/rtfgen.cpp">
<polygon fill="white" stroke="black" points="1602,-0.5 1602,-19.5 1679,-19.5 1679,-0.5 1602,-0.5"/>
<text text-anchor="middle" x="1640.5" y="-7.5" font-family="Helvetica,sans-Serif" font-size="10.00">src/rtfgen.cpp</text>
</a>
</g>
</g>
<!-- Node10&#45;&gt;Node26 -->
<g id="edge16" class="edge"><title>Node10&#45;&gt;Node26</title>
<path fill="none" stroke="midnightblue" d="M1083.32,-62.7876C1180.57,-58.0007 1405.21,-45.0396 1592.5,-20 1595.53,-19.5955 1598.65,-19.1268 1601.78,-18.62"/>
<polygon fill="midnightblue" stroke="midnightblue" points="1083.03,-59.2977 1073.21,-63.2785 1083.37,-66.2895 1083.03,-59.2977"/>
</g>
<!-- Node27 -->
<g id="node18" class="node"><title>Node27</title>
<g id="a_node18"><a xlink:href="../../d7/d79/searchindex_8cpp.html" target="_top" xlink:title="src/searchindex.cpp">
<polygon fill="white" stroke="black" points="1697.5,-0.5 1697.5,-19.5 1801.5,-19.5 1801.5,-0.5 1697.5,-0.5"/>
<text text-anchor="middle" x="1749.5" y="-7.5" font-family="Helvetica,sans-Serif" font-size="10.00">src/searchindex.cpp</text>
</a>
</g>
</g>
<!-- Node10&#45;&gt;Node27 -->
<g id="edge17" class="edge"><title>Node10&#45;&gt;Node27</title>
<path fill="none" stroke="midnightblue" d="M1083.31,-62.9414C1192.17,-58.0662 1462.97,-44.3597 1688.5,-20 1691.37,-19.6896 1694.32,-19.3446 1697.29,-18.9757"/>
<polygon fill="midnightblue" stroke="midnightblue" points="1083.13,-59.4462 1073.29,-63.3857 1083.44,-66.4393 1083.13,-59.4462"/>
</g>
<!-- Node28 -->
<g id="node19" class="node"><title>Node28</title>
<g id="a_node19"><a xlink:href="../../df/d2d/util_8cpp.html" target="_top" xlink:title="src/util.cpp">
<polygon fill="white" stroke="black" points="1820,-0.5 1820,-19.5 1885,-19.5 1885,-0.5 1820,-0.5"/>
<text text-anchor="middle" x="1852.5" y="-7.5" font-family="Helvetica,sans-Serif" font-size="10.00">src/util.cpp</text>
</a>
</g>
</g>
<!-- Node10&#45;&gt;Node28 -->
<g id="edge18" class="edge"><title>Node10&#45;&gt;Node28</title>
<path fill="none" stroke="midnightblue" d="M1083.24,-64.759C1205.95,-63.5927 1537.3,-56.9716 1810.5,-20 1813.46,-19.6 1816.51,-19.1052 1819.57,-18.5552"/>
<polygon fill="midnightblue" stroke="midnightblue" points="1083.02,-61.2607 1073.05,-64.8477 1083.08,-68.2604 1083.02,-61.2607"/>
</g>
<!-- Node29 -->
<g id="node20" class="node"><title>Node29</title>
<g id="a_node20"><a xlink:href="../../de/dea/vhdldocgen_8cpp.html" target="_top" xlink:title="src/vhdldocgen.cpp">
<polygon fill="white" stroke="black" points="1903,-0.5 1903,-19.5 2004,-19.5 2004,-0.5 1903,-0.5"/>
<text text-anchor="middle" x="1953.5" y="-7.5" font-family="Helvetica,sans-Serif" font-size="10.00">src/vhdldocgen.cpp</text>
</a>
</g>
</g>
<!-- Node10&#45;&gt;Node29 -->
<g id="edge19" class="edge"><title>Node10&#45;&gt;Node29</title>
<path fill="none" stroke="midnightblue" d="M1083.32,-64.1389C1214.72,-61.4552 1586.77,-51.4438 1894.5,-20 1897.18,-19.7262 1899.92,-19.4151 1902.69,-19.0772"/>
<polygon fill="midnightblue" stroke="midnightblue" points="1083.11,-60.6423 1073.18,-64.3411 1083.25,-67.6409 1083.11,-60.6423"/>
</g>
<!-- Node30 -->
<g id="node21" class="node"><title>Node30</title>
<g id="a_node21"><a xlink:href="../../d0/dc3/xmlgen_8cpp.html" target="_top" xlink:title="src/xmlgen.cpp">
<polygon fill="white" stroke="black" points="2022,-0.5 2022,-19.5 2105,-19.5 2105,-0.5 2022,-0.5"/>
<text text-anchor="middle" x="2063.5" y="-7.5" font-family="Helvetica,sans-Serif" font-size="10.00">src/xmlgen.cpp</text>
</a>
</g>
</g>
<!-- Node10&#45;&gt;Node30 -->
<g id="edge20" class="edge"><title>Node10&#45;&gt;Node30</title>
<path fill="none" stroke="midnightblue" d="M1083.59,-65.0319C1227.14,-64.6339 1658.44,-59.938 2013.5,-20 2016.22,-19.6944 2019.01,-19.3308 2021.82,-18.9278"/>
<polygon fill="midnightblue" stroke="midnightblue" points="1083.35,-61.5323 1073.36,-65.0542 1083.36,-68.5323 1083.35,-61.5323"/>
</g>
</g>
</svg>
