<?xml version="1.0" encoding="UTF-8" standalone="no"?>
<!DOCTYPE svg PUBLIC "-//W3C//DTD SVG 1.1//EN"
 "http://www.w3.org/Graphics/SVG/1.1/DTD/svg11.dtd">
<!-- Generated by graphviz version 2.38.0 (20140413.2041)
 -->
<!-- Title: vhdlparser/VhdlParser.h Pages: 1 -->
<!--zoomable 532 -->
<svg id="main" version="1.1" xmlns="http://www.w3.org/2000/svg" xmlns:xlink="http://www.w3.org/1999/xlink" xml:space="preserve" onload="init(evt)">
<style type="text/css"><![CDATA[
.edge:hover path { stroke: red; }
.edge:hover polygon { stroke: red; fill: red; }
]]></style>
<script type="text/javascript"><![CDATA[
var edges = document.getElementsByTagName('g');
if (edges && edges.length) {
  for (var i=0;i<edges.length;i++) {
    if (edges[i].id.substr(0,4)=='edge') {
      edges[i].setAttribute('class','edge');
    }
  }
}
]]></script>
        <defs>
                <circle id="rim" cx="0" cy="0" r="7"/>
                <circle id="rim2" cx="0" cy="0" r="3.5"/>
                <g id="zoomPlus">
                        <use xlink:href="#rim" fill="#404040">
                                <set attributeName="fill" to="#808080" begin="zoomplus.mouseover" end="zoomplus.mouseout"/>
                        </use>
                        <path d="M-4,0h8M0,-4v8" fill="none" stroke="white" stroke-width="1.5" pointer-events="none"/>
                </g>
                <g id="zoomMin">
                        <use xlink:href="#rim" fill="#404040">
                                <set attributeName="fill" to="#808080" begin="zoomminus.mouseover" end="zoomminus.mouseout"/>
                        </use>
                        <path d="M-4,0h8" fill="none" stroke="white" stroke-width="1.5" pointer-events="none"/>
                </g>
                <g id="dirArrow">
                        <path fill="none" stroke="white" stroke-width="1.5" d="M0,-3.0v7 M-2.5,-0.5L0,-3.0L2.5,-0.5"/>
                </g>
               <g id="resetDef">
                       <use xlink:href="#rim2" fill="#404040">
                               <set attributeName="fill" to="#808080" begin="reset.mouseover" end="reset.mouseout"/>
                       </use>
               </g>
        </defs>

<script type="text/javascript">
var viewWidth = 1228;
var viewHeight = 532;
var sectionId = 'dynsection-0';
</script>
<script xlink:href="../../svgpan.js"/>
<svg id="graph" class="graph">
<g id="viewport">
<title>vhdlparser/VhdlParser.h</title>
<polygon fill="white" stroke="none" points="-4,4 -4,-528 1224.18,-528 1224.18,4 -4,4"/>
<!-- Node0 -->
<g id="node1" class="node"><title>Node0</title>
<polygon fill="#bfbfbf" stroke="black" points="287.5,-504.5 287.5,-523.5 408.5,-523.5 408.5,-504.5 287.5,-504.5"/>
<text text-anchor="middle" x="348" y="-511.5" font-family="Helvetica,sans-Serif" font-size="10.00">vhdlparser/VhdlParser.h</text>
</g>
<!-- Node1 -->
<g id="node2" class="node"><title>Node1</title>
<g id="a_node2"><a xlink:href="../../d1/d2f/_java_c_c_8h.html" target="_top" xlink:title="JavaCC.h">
<polygon fill="white" stroke="black" points="210.5,-280.5 210.5,-299.5 271.5,-299.5 271.5,-280.5 210.5,-280.5"/>
<text text-anchor="middle" x="241" y="-287.5" font-family="Helvetica,sans-Serif" font-size="10.00">JavaCC.h</text>
</a>
</g>
</g>
<!-- Node0&#45;&gt;Node1 -->
<g id="edge1" class="edge"><title>Node0&#45;&gt;Node1</title>
<path fill="none" stroke="midnightblue" d="M408.562,-504.931C491.568,-491.251 625.315,-458.285 578,-392 543.162,-343.194 363.512,-309.839 281.686,-296.946"/>
<polygon fill="midnightblue" stroke="midnightblue" points="282.162,-293.477 271.743,-295.404 281.089,-300.395 282.162,-293.477"/>
</g>
<!-- Node9 -->
<g id="node10" class="node"><title>Node9</title>
<g id="a_node10"><a xlink:href="../../df/ddf/_char_stream_8h.html" target="_top" xlink:title="CharStream.h">
<polygon fill="white" stroke="black" points="492.5,-392.5 492.5,-411.5 569.5,-411.5 569.5,-392.5 492.5,-392.5"/>
<text text-anchor="middle" x="531" y="-399.5" font-family="Helvetica,sans-Serif" font-size="10.00">CharStream.h</text>
</a>
</g>
</g>
<!-- Node0&#45;&gt;Node9 -->
<g id="edge10" class="edge"><title>Node0&#45;&gt;Node9</title>
<path fill="none" stroke="midnightblue" d="M362.36,-504.368C393.896,-485.412 469.444,-440.001 507.805,-416.942"/>
<polygon fill="midnightblue" stroke="midnightblue" points="509.939,-419.743 516.707,-411.591 506.333,-413.744 509.939,-419.743"/>
</g>
<!-- Node10 -->
<g id="node11" class="node"><title>Node10</title>
<g id="a_node11"><a xlink:href="../../dd/dcd/_token_8h.html" target="_top" xlink:title="Token.h">
<polygon fill="white" stroke="black" points="142,-336.5 142,-355.5 194,-355.5 194,-336.5 142,-336.5"/>
<text text-anchor="middle" x="168" y="-343.5" font-family="Helvetica,sans-Serif" font-size="10.00">Token.h</text>
</a>
</g>
</g>
<!-- Node0&#45;&gt;Node10 -->
<g id="edge12" class="edge"><title>Node0&#45;&gt;Node10</title>
<path fill="none" stroke="midnightblue" d="M287.27,-505.149C242.674,-498.02 187.453,-485.865 173,-468 149.386,-438.811 156.283,-391.467 162.615,-365.5"/>
<polygon fill="midnightblue" stroke="midnightblue" points="166.086,-366.068 165.289,-355.504 159.324,-364.26 166.086,-366.068"/>
</g>
<!-- Node11 -->
<g id="node12" class="node"><title>Node11</title>
<g id="a_node12"><a xlink:href="../../d4/df9/_token_manager_8h.html" target="_top" xlink:title="TokenManager.h">
<polygon fill="white" stroke="black" points="248.5,-392.5 248.5,-411.5 337.5,-411.5 337.5,-392.5 248.5,-392.5"/>
<text text-anchor="middle" x="293" y="-399.5" font-family="Helvetica,sans-Serif" font-size="10.00">TokenManager.h</text>
</a>
</g>
</g>
<!-- Node0&#45;&gt;Node11 -->
<g id="edge14" class="edge"><title>Node0&#45;&gt;Node11</title>
<path fill="none" stroke="midnightblue" d="M346.352,-504.2C343.712,-491.329 337.81,-466.853 328,-448 322.643,-437.704 314.85,-427.398 307.976,-419.252"/>
<polygon fill="midnightblue" stroke="midnightblue" points="310.516,-416.84 301.287,-411.636 305.256,-421.459 310.516,-416.84"/>
</g>
<!-- Node13 -->
<g id="node14" class="node"><title>Node13</title>
<g id="a_node14"><a xlink:href="../../d7/dad/_vhdl_parser_token_manager_8h.html" target="_top" xlink:title="VhdlParserTokenManager.h">
<polygon fill="white" stroke="black" points="182.5,-448.5 182.5,-467.5 319.5,-467.5 319.5,-448.5 182.5,-448.5"/>
<text text-anchor="middle" x="251" y="-455.5" font-family="Helvetica,sans-Serif" font-size="10.00">VhdlParserTokenManager.h</text>
</a>
</g>
</g>
<!-- Node0&#45;&gt;Node13 -->
<g id="edge18" class="edge"><title>Node0&#45;&gt;Node13</title>
<path fill="none" stroke="midnightblue" d="M327.3,-504.324C310.345,-495.9 286.822,-482.971 270.272,-473.074"/>
<polygon fill="midnightblue" stroke="midnightblue" points="271.79,-469.899 261.436,-467.655 268.13,-475.866 271.79,-469.899"/>
</g>
<!-- Node14 -->
<g id="node15" class="node"><title>Node14</title>
<g id="a_node15"><a xlink:href="../../d3/dd5/_error_handler_8h.html" target="_top" xlink:title="ErrorHandler.h">
<polygon fill="white" stroke="black" points="36,-392.5 36,-411.5 116,-411.5 116,-392.5 36,-392.5"/>
<text text-anchor="middle" x="76" y="-399.5" font-family="Helvetica,sans-Serif" font-size="10.00">ErrorHandler.h</text>
</a>
</g>
</g>
<!-- Node0&#45;&gt;Node14 -->
<g id="edge81" class="edge"><title>Node0&#45;&gt;Node14</title>
<path fill="none" stroke="midnightblue" d="M287.208,-511.181C241.164,-507.371 177.88,-496.738 130,-468 110.807,-456.48 95.3102,-435.603 85.9215,-420.614"/>
<polygon fill="midnightblue" stroke="midnightblue" points="88.78,-418.573 80.6564,-411.772 82.7656,-422.155 88.78,-418.573"/>
</g>
<!-- Node15 -->
<g id="node16" class="node"><title>Node15</title>
<g id="a_node16"><a xlink:href="../../dc/d21/_vhdl_parser_constants_8h.html" target="_top" xlink:title="VhdlParserConstants.h">
<polygon fill="white" stroke="black" points="356,-392.5 356,-411.5 474,-411.5 474,-392.5 356,-392.5"/>
<text text-anchor="middle" x="415" y="-399.5" font-family="Helvetica,sans-Serif" font-size="10.00">VhdlParserConstants.h</text>
</a>
</g>
</g>
<!-- Node0&#45;&gt;Node15 -->
<g id="edge80" class="edge"><title>Node0&#45;&gt;Node15</title>
<path fill="none" stroke="midnightblue" d="M353.257,-504.368C364.265,-486.296 389.92,-444.176 404.458,-420.307"/>
<polygon fill="midnightblue" stroke="midnightblue" points="407.554,-421.953 409.767,-411.591 401.576,-418.311 407.554,-421.953"/>
</g>
<!-- Node16 -->
<g id="node17" class="node"><title>Node16</title>
<g id="a_node17"><a xlink:href="../../d2/d55/vhdljjparser_8h.html" target="_top" xlink:title="vhdljjparser.h">
<polygon fill="white" stroke="black" points="599,-280.5 599,-299.5 673,-299.5 673,-280.5 599,-280.5"/>
<text text-anchor="middle" x="636" y="-287.5" font-family="Helvetica,sans-Serif" font-size="10.00">vhdljjparser.h</text>
</a>
</g>
</g>
<!-- Node0&#45;&gt;Node16 -->
<g id="edge32" class="edge"><title>Node0&#45;&gt;Node16</title>
<path fill="none" stroke="midnightblue" d="M408.751,-507.233C466.549,-500.638 548.253,-488.08 573,-468 622.139,-428.129 632.981,-347.037 635.351,-310.099"/>
<polygon fill="midnightblue" stroke="midnightblue" points="638.863,-309.926 635.86,-299.766 631.872,-309.581 638.863,-309.926"/>
</g>
<!-- Node2 -->
<g id="node3" class="node"><title>Node2</title>
<polygon fill="white" stroke="#bfbfbf" points="53,-168.5 53,-187.5 99,-187.5 99,-168.5 53,-168.5"/>
<text text-anchor="middle" x="76" y="-175.5" font-family="Helvetica,sans-Serif" font-size="10.00">stdio.h</text>
</g>
<!-- Node1&#45;&gt;Node2 -->
<g id="edge2" class="edge"><title>Node1&#45;&gt;Node2</title>
<path fill="none" stroke="midnightblue" d="M210.416,-287.8C177.491,-284.855 125.719,-275.171 95,-244 83.0184,-231.842 78.5159,-212.568 76.8631,-198.159"/>
<polygon fill="midnightblue" stroke="midnightblue" points="80.3281,-197.573 76.06,-187.876 73.3493,-198.118 80.3281,-197.573"/>
</g>
<!-- Node3 -->
<g id="node4" class="node"><title>Node3</title>
<polygon fill="white" stroke="#bfbfbf" points="182.5,-224.5 182.5,-243.5 223.5,-243.5 223.5,-224.5 182.5,-224.5"/>
<text text-anchor="middle" x="203" y="-231.5" font-family="Helvetica,sans-Serif" font-size="10.00">string</text>
</g>
<!-- Node1&#45;&gt;Node3 -->
<g id="edge3" class="edge"><title>Node1&#45;&gt;Node3</title>
<path fill="none" stroke="midnightblue" d="M234.725,-280.083C229.358,-272.455 221.482,-261.264 214.921,-251.941"/>
<polygon fill="midnightblue" stroke="midnightblue" points="217.775,-249.915 209.158,-243.751 212.051,-253.943 217.775,-249.915"/>
</g>
<!-- Node4 -->
<g id="node5" class="node"><title>Node4</title>
<polygon fill="white" stroke="#bfbfbf" points="104,-224.5 104,-243.5 164,-243.5 164,-224.5 104,-224.5"/>
<text text-anchor="middle" x="134" y="-231.5" font-family="Helvetica,sans-Serif" font-size="10.00">memory.h</text>
</g>
<!-- Node1&#45;&gt;Node4 -->
<g id="edge4" class="edge"><title>Node1&#45;&gt;Node4</title>
<path fill="none" stroke="midnightblue" d="M223.809,-280.324C206.649,-271.664 180.054,-258.242 160.253,-248.249"/>
<polygon fill="midnightblue" stroke="midnightblue" points="161.653,-245.035 151.149,-243.655 158.499,-251.285 161.653,-245.035"/>
</g>
<!-- Node5 -->
<g id="node6" class="node"><title>Node5</title>
<polygon fill="white" stroke="#bfbfbf" points="242,-224.5 242,-243.5 294,-243.5 294,-224.5 242,-224.5"/>
<text text-anchor="middle" x="268" y="-231.5" font-family="Helvetica,sans-Serif" font-size="10.00">assert.h</text>
</g>
<!-- Node1&#45;&gt;Node5 -->
<g id="edge5" class="edge"><title>Node1&#45;&gt;Node5</title>
<path fill="none" stroke="midnightblue" d="M245.459,-280.083C249.154,-272.691 254.523,-261.953 259.094,-252.811"/>
<polygon fill="midnightblue" stroke="midnightblue" points="262.283,-254.261 263.624,-243.751 256.022,-251.13 262.283,-254.261"/>
</g>
<!-- Node6 -->
<g id="node7" class="node"><title>Node6</title>
<g id="a_node7"><a xlink:href="../../d9/d48/vhdlstring_8h.html" target="_top" xlink:title="vhdlstring.h">
<polygon fill="white" stroke="black" points="350.5,-224.5 350.5,-243.5 417.5,-243.5 417.5,-224.5 350.5,-224.5"/>
<text text-anchor="middle" x="384" y="-231.5" font-family="Helvetica,sans-Serif" font-size="10.00">vhdlstring.h</text>
</a>
</g>
</g>
<!-- Node1&#45;&gt;Node6 -->
<g id="edge6" class="edge"><title>Node1&#45;&gt;Node6</title>
<path fill="none" stroke="midnightblue" d="M263.659,-280.444C287.402,-271.478 324.909,-257.314 351.738,-247.183"/>
<polygon fill="midnightblue" stroke="midnightblue" points="353.329,-250.324 361.447,-243.516 350.856,-243.775 353.329,-250.324"/>
</g>
<!-- Node6&#45;&gt;Node2 -->
<g id="edge7" class="edge"><title>Node6&#45;&gt;Node2</title>
<path fill="none" stroke="midnightblue" d="M350.442,-226.646C345.598,-225.747 340.673,-224.842 336,-224 254.727,-209.348 158.988,-193.017 109.458,-184.637"/>
<polygon fill="midnightblue" stroke="midnightblue" points="109.769,-181.14 99.3256,-182.925 108.603,-188.042 109.769,-181.14"/>
</g>
<!-- Node7 -->
<g id="node8" class="node"><title>Node7</title>
<polygon fill="white" stroke="#bfbfbf" points="370,-168.5 370,-187.5 418,-187.5 418,-168.5 370,-168.5"/>
<text text-anchor="middle" x="394" y="-175.5" font-family="Helvetica,sans-Serif" font-size="10.00">stdlib.h</text>
</g>
<!-- Node6&#45;&gt;Node7 -->
<g id="edge8" class="edge"><title>Node6&#45;&gt;Node7</title>
<path fill="none" stroke="midnightblue" d="M385.651,-224.083C386.976,-216.927 388.882,-206.635 390.539,-197.691"/>
<polygon fill="midnightblue" stroke="midnightblue" points="394,-198.221 392.379,-187.751 387.117,-196.947 394,-198.221"/>
</g>
<!-- Node8 -->
<g id="node9" class="node"><title>Node8</title>
<polygon fill="white" stroke="#bfbfbf" points="302.5,-168.5 302.5,-187.5 351.5,-187.5 351.5,-168.5 302.5,-168.5"/>
<text text-anchor="middle" x="327" y="-175.5" font-family="Helvetica,sans-Serif" font-size="10.00">string.h</text>
</g>
<!-- Node6&#45;&gt;Node8 -->
<g id="edge9" class="edge"><title>Node6&#45;&gt;Node8</title>
<path fill="none" stroke="midnightblue" d="M374.842,-224.324C366.499,-216.42 353.968,-204.548 343.823,-194.938"/>
<polygon fill="midnightblue" stroke="midnightblue" points="345.991,-192.171 336.325,-187.834 341.177,-197.252 345.991,-192.171"/>
</g>
<!-- Node9&#45;&gt;Node1 -->
<g id="edge11" class="edge"><title>Node9&#45;&gt;Node1</title>
<path fill="none" stroke="midnightblue" d="M511.752,-392.29C482.794,-379.32 426.169,-354.478 377,-336 344.136,-323.65 306.163,-311.237 278.708,-302.586"/>
<polygon fill="midnightblue" stroke="midnightblue" points="279.687,-299.225 269.098,-299.576 277.595,-305.905 279.687,-299.225"/>
</g>
<!-- Node10&#45;&gt;Node1 -->
<g id="edge13" class="edge"><title>Node10&#45;&gt;Node1</title>
<path fill="none" stroke="midnightblue" d="M179.729,-336.324C190.837,-328.107 207.742,-315.602 220.983,-305.807"/>
<polygon fill="midnightblue" stroke="midnightblue" points="223.1,-308.595 229.058,-299.834 218.937,-302.967 223.1,-308.595"/>
</g>
<!-- Node11&#45;&gt;Node1 -->
<g id="edge16" class="edge"><title>Node11&#45;&gt;Node1</title>
<path fill="none" stroke="midnightblue" d="M288.92,-392.368C280.452,-374.456 260.818,-332.923 249.485,-308.948"/>
<polygon fill="midnightblue" stroke="midnightblue" points="252.5,-307.136 245.061,-299.591 246.171,-310.128 252.5,-307.136"/>
</g>
<!-- Node11&#45;&gt;Node10 -->
<g id="edge17" class="edge"><title>Node11&#45;&gt;Node10</title>
<path fill="none" stroke="midnightblue" d="M273.193,-392.444C252.713,-383.596 220.517,-369.687 197.135,-359.586"/>
<polygon fill="midnightblue" stroke="midnightblue" points="198.282,-356.269 187.714,-355.516 195.506,-362.695 198.282,-356.269"/>
</g>
<!-- Node12 -->
<g id="node13" class="node"><title>Node12</title>
<polygon fill="white" stroke="#bfbfbf" points="288,-336.5 288,-355.5 342,-355.5 342,-336.5 288,-336.5"/>
<text text-anchor="middle" x="315" y="-343.5" font-family="Helvetica,sans-Serif" font-size="10.00">iostream</text>
</g>
<!-- Node11&#45;&gt;Node12 -->
<g id="edge15" class="edge"><title>Node11&#45;&gt;Node12</title>
<path fill="none" stroke="midnightblue" d="M296.633,-392.083C299.612,-384.77 303.926,-374.181 307.625,-365.103"/>
<polygon fill="midnightblue" stroke="midnightblue" points="310.903,-366.333 311.435,-355.751 304.42,-363.691 310.903,-366.333"/>
</g>
<!-- Node13&#45;&gt;Node0 -->
<g id="edge31" class="edge"><title>Node13&#45;&gt;Node0</title>
<path fill="none" stroke="midnightblue" d="M271.656,-467.655C288.6,-476.071 312.124,-488.999 328.686,-498.901"/>
<polygon fill="midnightblue" stroke="midnightblue" points="327.176,-502.08 337.53,-504.324 330.835,-496.113 327.176,-502.08"/>
</g>
<!-- Node13&#45;&gt;Node1 -->
<g id="edge20" class="edge"><title>Node13&#45;&gt;Node1</title>
<path fill="none" stroke="midnightblue" d="M247.912,-448.173C244.948,-439.198 240.681,-424.827 239,-412 234.285,-376.016 236.843,-333.504 239.006,-309.655"/>
<polygon fill="midnightblue" stroke="midnightblue" points="242.504,-309.853 240.003,-299.557 235.538,-309.165 242.504,-309.853"/>
</g>
<!-- Node13&#45;&gt;Node2 -->
<g id="edge19" class="edge"><title>Node13&#45;&gt;Node2</title>
<path fill="none" stroke="midnightblue" d="M182.224,-450.295C125.387,-443.492 50.3712,-431.198 27,-412 2.82762,-392.144 0,-378.282 0,-347 0,-347 0,-347 0,-289 0,-249.276 33.9641,-213.504 56.4821,-194.154"/>
<polygon fill="midnightblue" stroke="midnightblue" points="58.9755,-196.634 64.4572,-187.567 54.518,-191.236 58.9755,-196.634"/>
</g>
<!-- Node13&#45;&gt;Node9 -->
<g id="edge21" class="edge"><title>Node13&#45;&gt;Node9</title>
<path fill="none" stroke="midnightblue" d="M295.367,-448.444C346.254,-438.63 429.431,-422.588 482.135,-412.424"/>
<polygon fill="midnightblue" stroke="midnightblue" points="483.095,-415.803 492.251,-410.473 481.769,-408.93 483.095,-415.803"/>
</g>
<!-- Node13&#45;&gt;Node10 -->
<g id="edge22" class="edge"><title>Node13&#45;&gt;Node10</title>
<path fill="none" stroke="midnightblue" d="M240.954,-448.341C231.306,-439.723 216.665,-425.82 206,-412 194.546,-397.156 183.997,-378.54 176.936,-365.039"/>
<polygon fill="midnightblue" stroke="midnightblue" points="179.917,-363.18 172.258,-355.86 173.68,-366.359 179.917,-363.18"/>
</g>
<!-- Node13&#45;&gt;Node11 -->
<g id="edge28" class="edge"><title>Node13&#45;&gt;Node11</title>
<path fill="none" stroke="midnightblue" d="M257.935,-448.083C263.929,-440.377 272.752,-429.033 280.048,-419.653"/>
<polygon fill="midnightblue" stroke="midnightblue" points="282.817,-421.793 286.194,-411.751 277.291,-417.496 282.817,-421.793"/>
</g>
<!-- Node13&#45;&gt;Node14 -->
<g id="edge23" class="edge"><title>Node13&#45;&gt;Node14</title>
<path fill="none" stroke="midnightblue" d="M223.271,-448.444C193.574,-439.28 146.284,-424.688 113.331,-414.519"/>
<polygon fill="midnightblue" stroke="midnightblue" points="114.187,-411.121 103.6,-411.516 112.123,-417.809 114.187,-411.121"/>
</g>
<!-- Node13&#45;&gt;Node15 -->
<g id="edge29" class="edge"><title>Node13&#45;&gt;Node15</title>
<path fill="none" stroke="midnightblue" d="M276.986,-448.444C304.696,-439.32 348.752,-424.813 379.616,-414.651"/>
<polygon fill="midnightblue" stroke="midnightblue" points="380.732,-417.968 389.135,-411.516 378.542,-411.32 380.732,-417.968"/>
</g>
<!-- Node14&#45;&gt;Node1 -->
<g id="edge26" class="edge"><title>Node14&#45;&gt;Node1</title>
<path fill="none" stroke="midnightblue" d="M81.6672,-392.29C90.9362,-378.641 110.569,-352.11 133,-336 153.51,-321.27 179.567,-310.235 200.948,-302.779"/>
<polygon fill="midnightblue" stroke="midnightblue" points="202.345,-306.002 210.714,-299.506 200.12,-299.365 202.345,-306.002"/>
</g>
<!-- Node14&#45;&gt;Node2 -->
<g id="edge24" class="edge"><title>Node14&#45;&gt;Node2</title>
<path fill="none" stroke="midnightblue" d="M76,-392.297C76,-359.633 76,-243.866 76,-197.957"/>
<polygon fill="midnightblue" stroke="midnightblue" points="79.5001,-197.884 76,-187.884 72.5001,-197.884 79.5001,-197.884"/>
</g>
<!-- Node14&#45;&gt;Node3 -->
<g id="edge25" class="edge"><title>Node14&#45;&gt;Node3</title>
<path fill="none" stroke="midnightblue" d="M79.376,-392.135C84.5213,-379.183 95.1017,-354.607 108,-336 131.142,-302.614 165.054,-269.357 185.481,-250.565"/>
<polygon fill="midnightblue" stroke="midnightblue" points="188.039,-252.97 193.093,-243.659 183.335,-247.786 188.039,-252.97"/>
</g>
<!-- Node14&#45;&gt;Node10 -->
<g id="edge27" class="edge"><title>Node14&#45;&gt;Node10</title>
<path fill="none" stroke="midnightblue" d="M90.7814,-392.324C105.267,-383.822 127.573,-370.729 144.493,-360.797"/>
<polygon fill="midnightblue" stroke="midnightblue" points="146.403,-363.735 153.255,-355.655 142.859,-357.698 146.403,-363.735"/>
</g>
<!-- Node15&#45;&gt;Node1 -->
<g id="edge30" class="edge"><title>Node15&#45;&gt;Node1</title>
<path fill="none" stroke="midnightblue" d="M408.403,-392.319C397.676,-378.708 375.201,-352.23 351,-336 329.452,-321.549 302.533,-310.438 280.719,-302.872"/>
<polygon fill="midnightblue" stroke="midnightblue" points="281.687,-299.505 271.093,-299.645 279.462,-306.142 281.687,-299.505"/>
</g>
<!-- Node16&#45;&gt;Node2 -->
<g id="edge38" class="edge"><title>Node16&#45;&gt;Node2</title>
<path fill="none" stroke="midnightblue" d="M598.754,-287.282C541.882,-283.785 430.565,-273.475 341,-244 322.871,-238.034 320.992,-230.366 303,-224 236.378,-200.426 154.139,-188.003 109.197,-182.536"/>
<polygon fill="midnightblue" stroke="midnightblue" points="109.475,-179.045 99.1348,-181.353 108.658,-185.997 109.475,-179.045"/>
</g>
<!-- Node16&#45;&gt;Node3 -->
<g id="edge45" class="edge"><title>Node16&#45;&gt;Node3</title>
<path fill="none" stroke="midnightblue" d="M598.98,-287.102C529.252,-283.047 373.646,-271.719 233.588,-243.735"/>
<polygon fill="midnightblue" stroke="midnightblue" points="234.029,-240.253 223.532,-241.692 232.635,-247.113 234.029,-240.253"/>
</g>
<!-- Node16&#45;&gt;Node5 -->
<g id="edge40" class="edge"><title>Node16&#45;&gt;Node5</title>
<path fill="none" stroke="midnightblue" d="M598.946,-284.956C538.008,-278.074 412.921,-262.966 308,-244 306.739,-243.772 305.458,-243.532 304.165,-243.282"/>
<polygon fill="midnightblue" stroke="midnightblue" points="304.686,-239.816 294.185,-241.226 303.273,-246.672 304.686,-239.816"/>
</g>
<!-- Node16&#45;&gt;Node7 -->
<g id="edge39" class="edge"><title>Node16&#45;&gt;Node7</title>
<path fill="none" stroke="midnightblue" d="M598.987,-283.785C564.155,-277.789 511.316,-265.833 470,-244 445.909,-231.27 422.794,-209.72 408.511,-194.948"/>
<polygon fill="midnightblue" stroke="midnightblue" points="410.938,-192.42 401.535,-187.538 405.841,-197.218 410.938,-192.42"/>
</g>
<!-- Node17 -->
<g id="node18" class="node"><title>Node17</title>
<g id="a_node18"><a xlink:href="../../da/d55/parserintf_8h.html" target="_top" xlink:title="parserintf.h">
<polygon fill="white" stroke="black" points="1132.5,-112.5 1132.5,-131.5 1197.5,-131.5 1197.5,-112.5 1132.5,-112.5"/>
<text text-anchor="middle" x="1165" y="-119.5" font-family="Helvetica,sans-Serif" font-size="10.00">parserintf.h</text>
</a>
</g>
</g>
<!-- Node16&#45;&gt;Node17 -->
<g id="edge33" class="edge"><title>Node16&#45;&gt;Node17</title>
<path fill="none" stroke="midnightblue" d="M673.302,-287.752C780.282,-283.867 1082.74,-270.618 1118,-244 1150.58,-219.405 1160.58,-169.042 1163.65,-141.686"/>
<polygon fill="midnightblue" stroke="midnightblue" points="1167.16,-141.791 1164.59,-131.513 1160.18,-141.15 1167.16,-141.791"/>
</g>
<!-- Node18 -->
<g id="node19" class="node"><title>Node18</title>
<polygon fill="white" stroke="#bfbfbf" points="1068,-56.5 1068,-75.5 1114,-75.5 1114,-56.5 1068,-56.5"/>
<text text-anchor="middle" x="1091" y="-63.5" font-family="Helvetica,sans-Serif" font-size="10.00">qdict.h</text>
</g>
<!-- Node16&#45;&gt;Node18 -->
<g id="edge44" class="edge"><title>Node16&#45;&gt;Node18</title>
<path fill="none" stroke="midnightblue" d="M673.296,-287.632C783.383,-283.325 1101.7,-268.834 1141,-244 1196.45,-208.96 1244.06,-166.121 1207,-112 1197.3,-97.8281 1154.89,-83.8987 1124.15,-75.3791"/>
<polygon fill="midnightblue" stroke="midnightblue" points="1124.8,-71.9304 1114.24,-72.7047 1122.98,-78.6888 1124.8,-71.9304"/>
</g>
<!-- Node20 -->
<g id="node21" class="node"><title>Node20</title>
<g id="a_node21"><a xlink:href="../../d9/d49/types_8h.html" target="_top" xlink:title="This file contains a number of basic enums and types. ">
<polygon fill="white" stroke="black" points="643.5,-56.5 643.5,-75.5 692.5,-75.5 692.5,-56.5 643.5,-56.5"/>
<text text-anchor="middle" x="668" y="-63.5" font-family="Helvetica,sans-Serif" font-size="10.00">types.h</text>
</a>
</g>
</g>
<!-- Node16&#45;&gt;Node20 -->
<g id="edge46" class="edge"><title>Node16&#45;&gt;Node20</title>
<path fill="none" stroke="midnightblue" d="M600.161,-280.399C558.104,-268.076 490.828,-240.809 465,-188 450.16,-157.657 443.857,-138.343 465,-112 466.329,-110.344 575.51,-86.7822 633.18,-74.4329"/>
<polygon fill="midnightblue" stroke="midnightblue" points="634.265,-77.7801 643.311,-72.2653 632.8,-70.935 634.265,-77.7801"/>
</g>
<!-- Node22 -->
<g id="node23" class="node"><title>Node22</title>
<polygon fill="white" stroke="#bfbfbf" points="600.5,-224.5 600.5,-243.5 649.5,-243.5 649.5,-224.5 600.5,-224.5"/>
<text text-anchor="middle" x="625" y="-231.5" font-family="Helvetica,sans-Serif" font-size="10.00">ctype.h</text>
</g>
<!-- Node16&#45;&gt;Node22 -->
<g id="edge41" class="edge"><title>Node16&#45;&gt;Node22</title>
<path fill="none" stroke="midnightblue" d="M634.184,-280.083C632.726,-272.927 630.629,-262.635 628.807,-253.691"/>
<polygon fill="midnightblue" stroke="midnightblue" points="632.208,-252.851 626.783,-243.751 625.349,-254.248 632.208,-252.851"/>
</g>
<!-- Node23 -->
<g id="node24" class="node"><title>Node23</title>
<polygon fill="white" stroke="#bfbfbf" points="668,-224.5 668,-243.5 720,-243.5 720,-224.5 668,-224.5"/>
<text text-anchor="middle" x="694" y="-231.5" font-family="Helvetica,sans-Serif" font-size="10.00">qarray.h</text>
</g>
<!-- Node16&#45;&gt;Node23 -->
<g id="edge42" class="edge"><title>Node16&#45;&gt;Node23</title>
<path fill="none" stroke="midnightblue" d="M645.319,-280.324C653.893,-272.341 666.812,-260.313 677.188,-250.653"/>
<polygon fill="midnightblue" stroke="midnightblue" points="679.578,-253.21 684.512,-243.834 674.808,-248.086 679.578,-253.21"/>
</g>
<!-- Node24 -->
<g id="node25" class="node"><title>Node24</title>
<polygon fill="white" stroke="#bfbfbf" points="807.5,-224.5 807.5,-243.5 850.5,-243.5 850.5,-224.5 807.5,-224.5"/>
<text text-anchor="middle" x="829" y="-231.5" font-family="Helvetica,sans-Serif" font-size="10.00">qfile.h</text>
</g>
<!-- Node16&#45;&gt;Node24 -->
<g id="edge43" class="edge"><title>Node16&#45;&gt;Node24</title>
<path fill="none" stroke="midnightblue" d="M667.087,-280.48C697.745,-272.052 746.193,-258.666 797.398,-244.147"/>
<polygon fill="midnightblue" stroke="midnightblue" points="798.666,-247.425 807.329,-241.326 796.753,-240.692 798.666,-247.425"/>
</g>
<!-- Node25 -->
<g id="node26" class="node"><title>Node25</title>
<g id="a_node26"><a xlink:href="../../d1/dc6/entry_8h.html" target="_top" xlink:title="entry.h">
<polygon fill="white" stroke="black" points="563.5,-112.5 563.5,-131.5 610.5,-131.5 610.5,-112.5 563.5,-112.5"/>
<text text-anchor="middle" x="587" y="-119.5" font-family="Helvetica,sans-Serif" font-size="10.00">entry.h</text>
</a>
</g>
</g>
<!-- Node16&#45;&gt;Node25 -->
<g id="edge47" class="edge"><title>Node16&#45;&gt;Node25</title>
<path fill="none" stroke="midnightblue" d="M623.062,-280.382C612.294,-272.383 597.682,-259.407 591,-244 576.416,-210.374 579.845,-166.414 583.513,-141.801"/>
<polygon fill="midnightblue" stroke="midnightblue" points="587.008,-142.121 585.204,-131.681 580.104,-140.968 587.008,-142.121"/>
</g>
<!-- Node28 -->
<g id="node29" class="node"><title>Node28</title>
<g id="a_node29"><a xlink:href="../../dd/dec/vhdldocgen_8h.html" target="_top" xlink:title="vhdldocgen.h">
<polygon fill="white" stroke="black" points="474,-168.5 474,-187.5 548,-187.5 548,-168.5 474,-168.5"/>
<text text-anchor="middle" x="511" y="-175.5" font-family="Helvetica,sans-Serif" font-size="10.00">vhdldocgen.h</text>
</a>
</g>
</g>
<!-- Node16&#45;&gt;Node28 -->
<g id="edge51" class="edge"><title>Node16&#45;&gt;Node28</title>
<path fill="none" stroke="midnightblue" d="M616.245,-280.48C599.516,-272.628 575.528,-259.813 558,-244 542.71,-230.206 529.402,-210.66 520.888,-196.609"/>
<polygon fill="midnightblue" stroke="midnightblue" points="523.863,-194.764 515.794,-187.898 517.821,-198.297 523.863,-194.764"/>
</g>
<!-- Node31 -->
<g id="node32" class="node"><title>Node31</title>
<polygon fill="white" stroke="#bfbfbf" points="959.5,-224.5 959.5,-243.5 1026.5,-243.5 1026.5,-224.5 959.5,-224.5"/>
<text text-anchor="middle" x="993" y="-231.5" font-family="Helvetica,sans-Serif" font-size="10.00">qstringlist.h</text>
</g>
<!-- Node16&#45;&gt;Node31 -->
<g id="edge61" class="edge"><title>Node16&#45;&gt;Node31</title>
<path fill="none" stroke="midnightblue" d="M673.471,-284.499C730.78,-277.43 843.851,-262.753 948.968,-244.272"/>
<polygon fill="midnightblue" stroke="midnightblue" points="949.879,-247.665 959.114,-242.472 948.656,-240.773 949.879,-247.665"/>
</g>
<!-- Node32 -->
<g id="node33" class="node"><title>Node32</title>
<g id="a_node33"><a xlink:href="../../d7/dfe/vhdlcode_8h.html" target="_top" xlink:title="vhdlcode.h">
<polygon fill="white" stroke="black" points="1045,-224.5 1045,-243.5 1109,-243.5 1109,-224.5 1045,-224.5"/>
<text text-anchor="middle" x="1077" y="-231.5" font-family="Helvetica,sans-Serif" font-size="10.00">vhdlcode.h</text>
</a>
</g>
</g>
<!-- Node16&#45;&gt;Node32 -->
<g id="edge62" class="edge"><title>Node16&#45;&gt;Node32</title>
<path fill="none" stroke="midnightblue" d="M673.126,-286.123C742.325,-280.479 895.864,-266.64 1034.85,-244.035"/>
<polygon fill="midnightblue" stroke="midnightblue" points="1035.53,-247.47 1044.83,-242.393 1034.4,-240.563 1035.53,-247.47"/>
</g>
<!-- Node33 -->
<g id="node34" class="node"><title>Node33</title>
<g id="a_node34"><a xlink:href="../../dd/d78/memberlist_8h.html" target="_top" xlink:title="memberlist.h">
<polygon fill="white" stroke="black" points="868.5,-224.5 868.5,-243.5 941.5,-243.5 941.5,-224.5 868.5,-224.5"/>
<text text-anchor="middle" x="905" y="-231.5" font-family="Helvetica,sans-Serif" font-size="10.00">memberlist.h</text>
</a>
</g>
</g>
<!-- Node16&#45;&gt;Node33 -->
<g id="edge63" class="edge"><title>Node16&#45;&gt;Node33</title>
<path fill="none" stroke="midnightblue" d="M673.121,-281.548C721.359,-271.865 805.615,-254.951 858.188,-244.397"/>
<polygon fill="midnightblue" stroke="midnightblue" points="859.145,-247.775 868.26,-242.375 857.767,-240.912 859.145,-247.775"/>
</g>
<!-- Node39 -->
<g id="node40" class="node"><title>Node39</title>
<g id="a_node40"><a xlink:href="../../db/d16/config_8h.html" target="_top" xlink:title="config.h">
<polygon fill="white" stroke="black" points="738.5,-224.5 738.5,-243.5 789.5,-243.5 789.5,-224.5 738.5,-224.5"/>
<text text-anchor="middle" x="764" y="-231.5" font-family="Helvetica,sans-Serif" font-size="10.00">config.h</text>
</a>
</g>
</g>
<!-- Node16&#45;&gt;Node39 -->
<g id="edge78" class="edge"><title>Node16&#45;&gt;Node39</title>
<path fill="none" stroke="midnightblue" d="M656.282,-280.444C677.347,-271.557 710.517,-257.563 734.486,-247.451"/>
<polygon fill="midnightblue" stroke="midnightblue" points="735.96,-250.628 743.813,-243.516 733.239,-244.179 735.96,-250.628"/>
</g>
<!-- Node17&#45;&gt;Node18 -->
<g id="edge34" class="edge"><title>Node17&#45;&gt;Node18</title>
<path fill="none" stroke="midnightblue" d="M1153.11,-112.324C1141.85,-104.107 1124.71,-91.6017 1111.29,-81.8069"/>
<polygon fill="midnightblue" stroke="midnightblue" points="1113.25,-78.9014 1103.11,-75.8339 1109.12,-84.5559 1113.25,-78.9014"/>
</g>
<!-- Node19 -->
<g id="node20" class="node"><title>Node19</title>
<polygon fill="white" stroke="#bfbfbf" points="1138,-56.5 1138,-75.5 1192,-75.5 1192,-56.5 1138,-56.5"/>
<text text-anchor="middle" x="1165" y="-63.5" font-family="Helvetica,sans-Serif" font-size="10.00">qstrlist.h</text>
</g>
<!-- Node17&#45;&gt;Node19 -->
<g id="edge35" class="edge"><title>Node17&#45;&gt;Node19</title>
<path fill="none" stroke="midnightblue" d="M1165,-112.083C1165,-105.006 1165,-94.8611 1165,-85.9865"/>
<polygon fill="midnightblue" stroke="midnightblue" points="1168.5,-85.751 1165,-75.7511 1161.5,-85.7511 1168.5,-85.751"/>
</g>
<!-- Node17&#45;&gt;Node20 -->
<g id="edge36" class="edge"><title>Node17&#45;&gt;Node20</title>
<path fill="none" stroke="midnightblue" d="M1132.39,-113.479C1129.56,-112.937 1126.74,-112.434 1124,-112 1042.66,-99.1048 794.601,-77.6319 702.716,-69.892"/>
<polygon fill="midnightblue" stroke="midnightblue" points="702.814,-66.388 692.556,-69.0386 702.228,-73.3635 702.814,-66.388"/>
</g>
<!-- Node21 -->
<g id="node22" class="node"><title>Node21</title>
<polygon fill="white" stroke="#bfbfbf" points="480.5,-0.5 480.5,-19.5 539.5,-19.5 539.5,-0.5 480.5,-0.5"/>
<text text-anchor="middle" x="510" y="-7.5" font-family="Helvetica,sans-Serif" font-size="10.00">qcstring.h</text>
</g>
<!-- Node20&#45;&gt;Node21 -->
<g id="edge37" class="edge"><title>Node20&#45;&gt;Node21</title>
<path fill="none" stroke="midnightblue" d="M643.312,-56.5625C616.8,-47.5014 574.47,-33.0342 544.634,-22.837"/>
<polygon fill="midnightblue" stroke="midnightblue" points="545.63,-19.4787 535.036,-19.5565 543.366,-26.1025 545.63,-19.4787"/>
</g>
<!-- Node25&#45;&gt;Node20 -->
<g id="edge48" class="edge"><title>Node25&#45;&gt;Node20</title>
<path fill="none" stroke="midnightblue" d="M600.014,-112.324C612.532,-103.979 631.682,-91.2122 646.471,-81.3524"/>
<polygon fill="midnightblue" stroke="midnightblue" points="648.639,-84.1137 655.018,-75.6545 644.756,-78.2894 648.639,-84.1137"/>
</g>
<!-- Node26 -->
<g id="node27" class="node"><title>Node26</title>
<polygon fill="white" stroke="#bfbfbf" points="785.5,-56.5 785.5,-75.5 828.5,-75.5 828.5,-56.5 785.5,-56.5"/>
<text text-anchor="middle" x="807" y="-63.5" font-family="Helvetica,sans-Serif" font-size="10.00">qlist.h</text>
</g>
<!-- Node25&#45;&gt;Node26 -->
<g id="edge49" class="edge"><title>Node25&#45;&gt;Node26</title>
<path fill="none" stroke="midnightblue" d="M610.544,-115.221C650.342,-105.452 730.928,-85.6722 775.528,-74.7249"/>
<polygon fill="midnightblue" stroke="midnightblue" points="776.382,-78.1193 785.259,-72.3364 774.713,-71.3211 776.382,-78.1193"/>
</g>
<!-- Node27 -->
<g id="node28" class="node"><title>Node27</title>
<polygon fill="white" stroke="#bfbfbf" points="557.5,-56.5 557.5,-75.5 616.5,-75.5 616.5,-56.5 557.5,-56.5"/>
<text text-anchor="middle" x="587" y="-63.5" font-family="Helvetica,sans-Serif" font-size="10.00">qgstring.h</text>
</g>
<!-- Node25&#45;&gt;Node27 -->
<g id="edge50" class="edge"><title>Node25&#45;&gt;Node27</title>
<path fill="none" stroke="midnightblue" d="M587,-112.083C587,-105.006 587,-94.8611 587,-85.9865"/>
<polygon fill="midnightblue" stroke="midnightblue" points="590.5,-85.751 587,-75.7511 583.5,-85.7511 590.5,-85.751"/>
</g>
<!-- Node28&#45;&gt;Node18 -->
<g id="edge52" class="edge"><title>Node28&#45;&gt;Node18</title>
<path fill="none" stroke="midnightblue" d="M548.221,-172.634C623.434,-163.713 791.19,-143.284 848,-132 850.66,-131.472 1015.06,-87.7177 1058.2,-76.1539"/>
<polygon fill="midnightblue" stroke="midnightblue" points="1059.19,-79.511 1067.94,-73.5296 1057.37,-72.7521 1059.19,-79.511"/>
</g>
<!-- Node28&#45;&gt;Node21 -->
<g id="edge53" class="edge"><title>Node28&#45;&gt;Node21</title>
<path fill="none" stroke="midnightblue" d="M497.213,-168.189C486.174,-160.241 471.498,-147.447 465,-132 449.511,-95.1791 477.401,-50.9784 495.776,-27.5212"/>
<polygon fill="midnightblue" stroke="midnightblue" points="498.627,-29.5641 502.242,-19.6053 493.205,-25.1357 498.627,-29.5641"/>
</g>
<!-- Node28&#45;&gt;Node25 -->
<g id="edge60" class="edge"><title>Node28&#45;&gt;Node25</title>
<path fill="none" stroke="midnightblue" d="M523.211,-168.324C534.776,-160.107 552.375,-147.602 566.161,-137.807"/>
<polygon fill="midnightblue" stroke="midnightblue" points="568.443,-140.479 574.567,-131.834 564.388,-134.773 568.443,-140.479"/>
</g>
<!-- Node29 -->
<g id="node30" class="node"><title>Node29</title>
<g id="a_node30"><a xlink:href="../../db/d51/layout_8h.html" target="_top" xlink:title="layout.h">
<polygon fill="white" stroke="black" points="705.5,-112.5 705.5,-131.5 756.5,-131.5 756.5,-112.5 705.5,-112.5"/>
<text text-anchor="middle" x="731" y="-119.5" font-family="Helvetica,sans-Serif" font-size="10.00">layout.h</text>
</a>
</g>
</g>
<!-- Node28&#45;&gt;Node29 -->
<g id="edge54" class="edge"><title>Node28&#45;&gt;Node29</title>
<path fill="none" stroke="midnightblue" d="M545.86,-168.444C586.74,-158.409 654.142,-141.865 695.358,-131.749"/>
<polygon fill="midnightblue" stroke="midnightblue" points="696.362,-135.106 705.24,-129.323 694.694,-128.308 696.362,-135.106"/>
</g>
<!-- Node30 -->
<g id="node31" class="node"><title>Node30</title>
<g id="a_node31"><a xlink:href="../../df/d9b/arguments_8h.html" target="_top" xlink:title="arguments.h">
<polygon fill="white" stroke="black" points="474.5,-112.5 474.5,-131.5 545.5,-131.5 545.5,-112.5 474.5,-112.5"/>
<text text-anchor="middle" x="510" y="-119.5" font-family="Helvetica,sans-Serif" font-size="10.00">arguments.h</text>
</a>
</g>
</g>
<!-- Node28&#45;&gt;Node30 -->
<g id="edge57" class="edge"><title>Node28&#45;&gt;Node30</title>
<path fill="none" stroke="midnightblue" d="M510.835,-168.083C510.704,-161.006 510.516,-150.861 510.352,-141.986"/>
<polygon fill="midnightblue" stroke="midnightblue" points="513.847,-141.685 510.162,-131.751 506.848,-141.814 513.847,-141.685"/>
</g>
<!-- Node29&#45;&gt;Node20 -->
<g id="edge56" class="edge"><title>Node29&#45;&gt;Node20</title>
<path fill="none" stroke="midnightblue" d="M720.878,-112.324C711.474,-104.263 697.256,-92.0765 685.931,-82.3695"/>
<polygon fill="midnightblue" stroke="midnightblue" points="688.177,-79.6844 678.306,-75.8339 683.621,-84.9993 688.177,-79.6844"/>
</g>
<!-- Node29&#45;&gt;Node26 -->
<g id="edge55" class="edge"><title>Node29&#45;&gt;Node26</title>
<path fill="none" stroke="midnightblue" d="M743.211,-112.324C754.776,-104.107 772.375,-91.6017 786.161,-81.8069"/>
<polygon fill="midnightblue" stroke="midnightblue" points="788.443,-84.4791 794.567,-75.8339 784.388,-78.7729 788.443,-84.4791"/>
</g>
<!-- Node30&#45;&gt;Node21 -->
<g id="edge59" class="edge"><title>Node30&#45;&gt;Node21</title>
<path fill="none" stroke="midnightblue" d="M510,-112.368C510,-94.617 510,-53.6664 510,-29.5974"/>
<polygon fill="midnightblue" stroke="midnightblue" points="513.5,-29.5914 510,-19.5914 506.5,-29.5915 513.5,-29.5914"/>
</g>
<!-- Node30&#45;&gt;Node26 -->
<g id="edge58" class="edge"><title>Node30&#45;&gt;Node26</title>
<path fill="none" stroke="midnightblue" d="M545.526,-113.652C548.391,-113.084 551.243,-112.527 554,-112 633.44,-96.8133 727.245,-80.5687 775.231,-72.3806"/>
<polygon fill="midnightblue" stroke="midnightblue" points="776.035,-75.794 785.306,-70.6649 774.86,-68.8933 776.035,-75.794"/>
</g>
<!-- Node33&#45;&gt;Node20 -->
<g id="edge77" class="edge"><title>Node33&#45;&gt;Node20</title>
<path fill="none" stroke="midnightblue" d="M877.084,-224.407C822.005,-206.878 702.466,-165.8 677,-132 667.047,-118.79 665.489,-99.6564 666.004,-85.5676"/>
<polygon fill="midnightblue" stroke="midnightblue" points="669.497,-85.7899 666.742,-75.5597 662.516,-85.2754 669.497,-85.7899"/>
</g>
<!-- Node33&#45;&gt;Node26 -->
<g id="edge64" class="edge"><title>Node33&#45;&gt;Node26</title>
<path fill="none" stroke="midnightblue" d="M922.873,-224.391C961.146,-204.832 1044.82,-155.382 1010,-112 988.905,-85.717 890.59,-73.8349 838.921,-69.3286"/>
<polygon fill="midnightblue" stroke="midnightblue" points="838.903,-65.8152 828.648,-68.4765 838.325,-72.7913 838.903,-65.8152"/>
</g>
<!-- Node34 -->
<g id="node35" class="node"><title>Node34</title>
<g id="a_node35"><a xlink:href="../../d4/d46/memberdef_8h.html" target="_top" xlink:title="memberdef.h">
<polygon fill="white" stroke="black" points="868,-168.5 868,-187.5 942,-187.5 942,-168.5 868,-168.5"/>
<text text-anchor="middle" x="905" y="-175.5" font-family="Helvetica,sans-Serif" font-size="10.00">memberdef.h</text>
</a>
</g>
</g>
<!-- Node33&#45;&gt;Node34 -->
<g id="edge65" class="edge"><title>Node33&#45;&gt;Node34</title>
<path fill="none" stroke="midnightblue" d="M905,-224.083C905,-217.006 905,-206.861 905,-197.986"/>
<polygon fill="midnightblue" stroke="midnightblue" points="908.5,-197.751 905,-187.751 901.5,-197.751 908.5,-197.751"/>
</g>
<!-- Node37 -->
<g id="node38" class="node"><title>Node37</title>
<g id="a_node38"><a xlink:href="../../d9/d21/sortdict_8h.html" target="_top" xlink:title="sortdict.h">
<polygon fill="white" stroke="black" points="1057.5,-112.5 1057.5,-131.5 1114.5,-131.5 1114.5,-112.5 1057.5,-112.5"/>
<text text-anchor="middle" x="1086" y="-119.5" font-family="Helvetica,sans-Serif" font-size="10.00">sortdict.h</text>
</a>
</g>
</g>
<!-- Node33&#45;&gt;Node37 -->
<g id="edge73" class="edge"><title>Node33&#45;&gt;Node37</title>
<path fill="none" stroke="midnightblue" d="M939.935,-224.425C975.181,-215.283 1026.66,-200.442 1043,-188 1059.11,-175.731 1071.08,-155.59 1078.25,-140.976"/>
<polygon fill="midnightblue" stroke="midnightblue" points="1081.61,-142.05 1082.6,-131.502 1075.25,-139.124 1081.61,-142.05"/>
</g>
<!-- Node34&#45;&gt;Node20 -->
<g id="edge68" class="edge"><title>Node34&#45;&gt;Node20</title>
<path fill="none" stroke="midnightblue" d="M867.939,-173.117C815.164,-166.918 721.876,-153.272 696,-132 681.932,-120.435 674.768,-100.472 671.229,-85.7134"/>
<polygon fill="midnightblue" stroke="midnightblue" points="674.607,-84.7631 669.176,-75.6666 667.749,-86.165 674.607,-84.7631"/>
</g>
<!-- Node34&#45;&gt;Node26 -->
<g id="edge66" class="edge"><title>Node34&#45;&gt;Node26</title>
<path fill="none" stroke="midnightblue" d="M897.309,-168.122C886.407,-155.563 865.805,-131.919 848,-112 839.353,-102.326 829.571,-91.582 821.73,-83.0186"/>
<polygon fill="midnightblue" stroke="midnightblue" points="824.248,-80.5857 814.909,-75.5827 819.09,-85.3177 824.248,-80.5857"/>
</g>
<!-- Node35 -->
<g id="node36" class="node"><title>Node35</title>
<polygon fill="white" stroke="#bfbfbf" points="933,-112.5 933,-131.5 1001,-131.5 1001,-112.5 933,-112.5"/>
<text text-anchor="middle" x="967" y="-119.5" font-family="Helvetica,sans-Serif" font-size="10.00">sys/types.h</text>
</g>
<!-- Node34&#45;&gt;Node35 -->
<g id="edge67" class="edge"><title>Node34&#45;&gt;Node35</title>
<path fill="none" stroke="midnightblue" d="M914.961,-168.324C924.127,-160.341 937.937,-148.313 949.028,-138.653"/>
<polygon fill="midnightblue" stroke="midnightblue" points="951.615,-141.041 956.857,-131.834 947.018,-135.762 951.615,-141.041"/>
</g>
<!-- Node36 -->
<g id="node37" class="node"><title>Node36</title>
<g id="a_node37"><a xlink:href="../../df/da1/definition_8h.html" target="_top" xlink:title="definition.h">
<polygon fill="white" stroke="black" points="775,-112.5 775,-131.5 839,-131.5 839,-112.5 775,-112.5"/>
<text text-anchor="middle" x="807" y="-119.5" font-family="Helvetica,sans-Serif" font-size="10.00">definition.h</text>
</a>
</g>
</g>
<!-- Node34&#45;&gt;Node36 -->
<g id="edge69" class="edge"><title>Node34&#45;&gt;Node36</title>
<path fill="none" stroke="midnightblue" d="M889.255,-168.324C873.681,-159.743 849.623,-146.486 831.541,-136.522"/>
<polygon fill="midnightblue" stroke="midnightblue" points="833.154,-133.415 822.706,-131.655 829.776,-139.546 833.154,-133.415"/>
</g>
<!-- Node36&#45;&gt;Node18 -->
<g id="edge71" class="edge"><title>Node36&#45;&gt;Node18</title>
<path fill="none" stroke="midnightblue" d="M839.155,-114.623C843.798,-113.727 848.519,-112.83 853,-112 941.266,-95.6545 966.652,-96.5251 1058.04,-76.0274"/>
<polygon fill="midnightblue" stroke="midnightblue" points="1059.02,-79.3945 1068,-73.7692 1057.47,-72.5679 1059.02,-79.3945"/>
</g>
<!-- Node36&#45;&gt;Node20 -->
<g id="edge72" class="edge"><title>Node36&#45;&gt;Node20</title>
<path fill="none" stroke="midnightblue" d="M784.975,-112.444C761.896,-103.478 725.438,-89.314 699.359,-79.1827"/>
<polygon fill="midnightblue" stroke="midnightblue" points="700.511,-75.8753 689.922,-75.5164 697.976,-82.4002 700.511,-75.8753"/>
</g>
<!-- Node36&#45;&gt;Node26 -->
<g id="edge70" class="edge"><title>Node36&#45;&gt;Node26</title>
<path fill="none" stroke="midnightblue" d="M807,-112.083C807,-105.006 807,-94.8611 807,-85.9865"/>
<polygon fill="midnightblue" stroke="midnightblue" points="810.5,-85.751 807,-75.7511 803.5,-85.7511 810.5,-85.751"/>
</g>
<!-- Node37&#45;&gt;Node18 -->
<g id="edge75" class="edge"><title>Node37&#45;&gt;Node18</title>
<path fill="none" stroke="midnightblue" d="M1086.83,-112.083C1087.48,-105.006 1088.42,-94.8611 1089.24,-85.9865"/>
<polygon fill="midnightblue" stroke="midnightblue" points="1092.75,-86.0312 1090.19,-75.7511 1085.78,-85.3858 1092.75,-86.0312"/>
</g>
<!-- Node37&#45;&gt;Node26 -->
<g id="edge74" class="edge"><title>Node37&#45;&gt;Node26</title>
<path fill="none" stroke="midnightblue" d="M1057.33,-114.926C1052.55,-113.933 1047.64,-112.927 1043,-112 969.92,-97.386 883.889,-81.2506 838.584,-72.8365"/>
<polygon fill="midnightblue" stroke="midnightblue" points="838.972,-69.3488 828.501,-70.9665 837.695,-76.2314 838.972,-69.3488"/>
</g>
<!-- Node38 -->
<g id="node39" class="node"><title>Node38</title>
<polygon fill="white" stroke="#bfbfbf" points="994,-56.5 994,-75.5 1050,-75.5 1050,-56.5 994,-56.5"/>
<text text-anchor="middle" x="1022" y="-63.5" font-family="Helvetica,sans-Serif" font-size="10.00">qintdict.h</text>
</g>
<!-- Node37&#45;&gt;Node38 -->
<g id="edge76" class="edge"><title>Node37&#45;&gt;Node38</title>
<path fill="none" stroke="midnightblue" d="M1075.72,-112.324C1066.16,-104.263 1051.72,-92.0765 1040.22,-82.3695"/>
<polygon fill="midnightblue" stroke="midnightblue" points="1042.37,-79.6076 1032.47,-75.8339 1037.86,-84.9577 1042.37,-79.6076"/>
</g>
<!-- Node40 -->
<g id="node41" class="node"><title>Node40</title>
<polygon fill="white" stroke="#bfbfbf" points="604,-168.5 604,-187.5 684,-187.5 684,-168.5 604,-168.5"/>
<text text-anchor="middle" x="644" y="-175.5" font-family="Helvetica,sans-Serif" font-size="10.00">configvalues.h</text>
</g>
<!-- Node39&#45;&gt;Node40 -->
<g id="edge79" class="edge"><title>Node39&#45;&gt;Node40</title>
<path fill="none" stroke="midnightblue" d="M744.986,-224.444C725.412,-215.636 694.692,-201.812 672.271,-191.722"/>
<polygon fill="midnightblue" stroke="midnightblue" points="673.481,-188.428 662.925,-187.516 670.608,-194.812 673.481,-188.428"/>
</g>
</g>
</svg>
        <g id="navigator" transform="translate(0 0)" fill="#404254">
                <rect fill="#f2f5e9" fill-opacity="0.5" stroke="#606060" stroke-width=".5" x="0" y="0" width="60" height="60"/>
                <use id="zoomplus" xlink:href="#zoomPlus" x="17" y="9" onmousedown="handleZoom(evt,'in')"/>
                <use id="zoomminus" xlink:href="#zoomMin" x="42" y="9" onmousedown="handleZoom(evt,'out')"/>
                <use id="reset" xlink:href="#resetDef" x="30" y="36" onmousedown="handleReset()"/>
                <g id="arrowUp" xlink:href="#dirArrow" transform="translate(30 24)" onmousedown="handlePan(0,-1)">
                  <use xlink:href="#rim" fill="#404040">
                        <set attributeName="fill" to="#808080" begin="arrowUp.mouseover" end="arrowUp.mouseout"/>
                  </use>
                  <path fill="none" stroke="white" stroke-width="1.5" d="M0,-3.0v7 M-2.5,-0.5L0,-3.0L2.5,-0.5"/>
                </g>
                <g id="arrowRight" xlink:href="#dirArrow" transform="rotate(90) translate(36 -43)" onmousedown="handlePan(1,0)">
                  <use xlink:href="#rim" fill="#404040">
                        <set attributeName="fill" to="#808080" begin="arrowRight.mouseover" end="arrowRight.mouseout"/>
                  </use>
                  <path fill="none" stroke="white" stroke-width="1.5" d="M0,-3.0v7 M-2.5,-0.5L0,-3.0L2.5,-0.5"/>
                </g>
                <g id="arrowDown" xlink:href="#dirArrow" transform="rotate(180) translate(-30 -48)" onmousedown="handlePan(0,1)">
                  <use xlink:href="#rim" fill="#404040">
                        <set attributeName="fill" to="#808080" begin="arrowDown.mouseover" end="arrowDown.mouseout"/>
                  </use>
                  <path fill="none" stroke="white" stroke-width="1.5" d="M0,-3.0v7 M-2.5,-0.5L0,-3.0L2.5,-0.5"/>
                </g>
                <g id="arrowLeft" xlink:href="#dirArrow" transform="rotate(270) translate(-36 17)" onmousedown="handlePan(-1,0)">
                  <use xlink:href="#rim" fill="#404040">
                        <set attributeName="fill" to="#808080" begin="arrowLeft.mouseover" end="arrowLeft.mouseout"/>
                  </use>
                  <path fill="none" stroke="white" stroke-width="1.5" d="M0,-3.0v7 M-2.5,-0.5L0,-3.0L2.5,-0.5"/>
                </g>
        </g>
        <svg viewBox="0 0 15 15" width="100%" height="30px" preserveAspectRatio="xMaxYMin meet">
         <g id="arrow_out" transform="scale(0.3 0.3)">
          <a xlink:href="_vhdl_parser_8h__incl_org.svg" target="_base">
           <rect id="button" ry="5" rx="5" y="6" x="6" height="38" width="38"
                fill="#f2f5e9" fill-opacity="0.5" stroke="#606060" stroke-width="1.0"/>
           <path id="arrow"
             d="M 11.500037,31.436501 C 11.940474,20.09759 22.043105,11.32322 32.158766,21.979434 L 37.068811,17.246167 C 37.068811,17.246167 37.088388,32 37.088388,32 L 22.160133,31.978069 C 22.160133,31.978069 26.997745,27.140456 26.997745,27.140456 C 18.528582,18.264221 13.291696,25.230495 11.500037,31.436501 z"
             style="fill:#404040;"/>
          </a>
         </g>
        </svg>
</svg>
