<?xml version="1.0" encoding="UTF-8" standalone="no"?>
<!DOCTYPE svg PUBLIC "-//W3C//DTD SVG 1.1//EN"
 "http://www.w3.org/Graphics/SVG/1.1/DTD/svg11.dtd">
<!-- Generated by graphviz version 2.38.0 (20140413.2041)
 -->
<!-- Title: FortranLanguageScannerFree Pages: 1 -->
<svg width="153pt" height="140pt"
 viewBox="0.00 0.00 153.00 140.00" xmlns="http://www.w3.org/2000/svg" xmlns:xlink="http://www.w3.org/1999/xlink">
<g id="graph0" class="graph" transform="scale(1 1) rotate(0) translate(4 136)">
<title>FortranLanguageScannerFree</title>
<polygon fill="white" stroke="none" points="-4,4 -4,-136 149,-136 149,4 -4,4"/>
<!-- Node3 -->
<g id="node1" class="node"><title>Node3</title>
<polygon fill="#bfbfbf" stroke="black" points="0,-0.5 0,-19.5 145,-19.5 145,-0.5 0,-0.5"/>
<text text-anchor="middle" x="72.5" y="-7.5" font-family="Helvetica,sans-Serif" font-size="10.00">FortranLanguageScannerFree</text>
</g>
<!-- Node4 -->
<g id="node2" class="node"><title>Node4</title>
<g id="a_node2"><a xlink:href="../../df/de4/class_fortran_language_scanner.html" target="_top" xlink:title="Fortran language parser using state&#45;based lexical scanning. ">
<polygon fill="white" stroke="black" points="10,-56.5 10,-75.5 135,-75.5 135,-56.5 10,-56.5"/>
<text text-anchor="middle" x="72.5" y="-63.5" font-family="Helvetica,sans-Serif" font-size="10.00">FortranLanguageScanner</text>
</a>
</g>
</g>
<!-- Node4&#45;&gt;Node3 -->
<g id="edge1" class="edge"><title>Node4&#45;&gt;Node3</title>
<path fill="none" stroke="midnightblue" d="M72.5,-45.8045C72.5,-36.9102 72.5,-26.7798 72.5,-19.7511"/>
<polygon fill="midnightblue" stroke="midnightblue" points="69.0001,-46.083 72.5,-56.083 76.0001,-46.083 69.0001,-46.083"/>
</g>
<!-- Node5 -->
<g id="node3" class="node"><title>Node5</title>
<g id="a_node3"><a xlink:href="../../d5/d84/class_parser_interface.html" target="_top" xlink:title="Abstract interface for programming language parsers. ">
<polygon fill="white" stroke="black" points="31,-112.5 31,-131.5 114,-131.5 114,-112.5 31,-112.5"/>
<text text-anchor="middle" x="72.5" y="-119.5" font-family="Helvetica,sans-Serif" font-size="10.00">ParserInterface</text>
</a>
</g>
</g>
<!-- Node5&#45;&gt;Node4 -->
<g id="edge2" class="edge"><title>Node5&#45;&gt;Node4</title>
<path fill="none" stroke="midnightblue" d="M72.5,-101.805C72.5,-92.9102 72.5,-82.7798 72.5,-75.7511"/>
<polygon fill="midnightblue" stroke="midnightblue" points="69.0001,-102.083 72.5,-112.083 76.0001,-102.083 69.0001,-102.083"/>
</g>
</g>
</svg>
