<?xml version="1.0" encoding="UTF-8" standalone="no"?>
<!DOCTYPE svg PUBLIC "-//W3C//DTD SVG 1.1//EN"
 "http://www.w3.org/Graphics/SVG/1.1/DTD/svg11.dtd">
<!-- Generated by graphviz version 2.38.0 (20140413.2041)
 -->
<!-- Title: src/htmlhelp.h Pages: 1 -->
<svg width="496pt" height="140pt"
 viewBox="0.00 0.00 495.50 140.00" xmlns="http://www.w3.org/2000/svg" xmlns:xlink="http://www.w3.org/1999/xlink">
<g id="graph0" class="graph" transform="scale(1 1) rotate(0) translate(4 136)">
<title>src/htmlhelp.h</title>
<polygon fill="white" stroke="none" points="-4,4 -4,-136 491.5,-136 491.5,4 -4,4"/>
<!-- Node0 -->
<g id="node1" class="node"><title>Node0</title>
<polygon fill="#bfbfbf" stroke="black" points="88,-112.5 88,-131.5 166,-131.5 166,-112.5 88,-112.5"/>
<text text-anchor="middle" x="127" y="-119.5" font-family="Helvetica,sans-Serif" font-size="10.00">src/htmlhelp.h</text>
</g>
<!-- Node1 -->
<g id="node2" class="node"><title>Node1</title>
<polygon fill="white" stroke="#bfbfbf" points="0,-56.5 0,-75.5 54,-75.5 54,-56.5 0,-56.5"/>
<text text-anchor="middle" x="27" y="-63.5" font-family="Helvetica,sans-Serif" font-size="10.00">qstrlist.h</text>
</g>
<!-- Node0&#45;&gt;Node1 -->
<g id="edge1" class="edge"><title>Node0&#45;&gt;Node1</title>
<path fill="none" stroke="midnightblue" d="M110.933,-112.324C95.0422,-103.743 70.4926,-90.486 52.0415,-80.5224"/>
<polygon fill="midnightblue" stroke="midnightblue" points="53.489,-77.3264 43.0269,-75.6545 50.1629,-83.4857 53.489,-77.3264"/>
</g>
<!-- Node2 -->
<g id="node3" class="node"><title>Node2</title>
<polygon fill="white" stroke="#bfbfbf" points="72,-56.5 72,-75.5 118,-75.5 118,-56.5 72,-56.5"/>
<text text-anchor="middle" x="95" y="-63.5" font-family="Helvetica,sans-Serif" font-size="10.00">qdict.h</text>
</g>
<!-- Node0&#45;&gt;Node2 -->
<g id="edge2" class="edge"><title>Node0&#45;&gt;Node2</title>
<path fill="none" stroke="midnightblue" d="M121.716,-112.083C117.289,-104.613 110.837,-93.7244 105.382,-84.5199"/>
<polygon fill="midnightblue" stroke="midnightblue" points="108.295,-82.5697 100.186,-75.7511 102.273,-86.1383 108.295,-82.5697"/>
</g>
<!-- Node3 -->
<g id="node4" class="node"><title>Node3</title>
<g id="a_node4"><a xlink:href="../../d1/db5/index_8h.html" target="_top" xlink:title="index.h">
<polygon fill="white" stroke="black" points="136,-56.5 136,-75.5 184,-75.5 184,-56.5 136,-56.5"/>
<text text-anchor="middle" x="160" y="-63.5" font-family="Helvetica,sans-Serif" font-size="10.00">index.h</text>
</a>
</g>
</g>
<!-- Node0&#45;&gt;Node3 -->
<g id="edge3" class="edge"><title>Node0&#45;&gt;Node3</title>
<path fill="none" stroke="midnightblue" d="M132.449,-112.083C137.014,-104.613 143.668,-93.7244 149.293,-84.5199"/>
<polygon fill="midnightblue" stroke="midnightblue" points="152.424,-86.109 154.652,-75.7511 146.451,-82.4588 152.424,-86.109"/>
</g>
<!-- Node6 -->
<g id="node7" class="node"><title>Node6</title>
<g id="a_node7"><a xlink:href="../../df/d83/ftextstream_8h.html" target="_top" xlink:title="ftextstream.h">
<polygon fill="white" stroke="black" points="268,-56.5 268,-75.5 342,-75.5 342,-56.5 268,-56.5"/>
<text text-anchor="middle" x="305" y="-63.5" font-family="Helvetica,sans-Serif" font-size="10.00">ftextstream.h</text>
</a>
</g>
</g>
<!-- Node0&#45;&gt;Node6 -->
<g id="edge6" class="edge"><title>Node0&#45;&gt;Node6</title>
<path fill="none" stroke="midnightblue" d="M155.205,-112.444C185.41,-103.28 233.511,-88.6876 267.029,-78.5192"/>
<polygon fill="midnightblue" stroke="midnightblue" points="268.374,-81.7688 276.927,-75.5164 266.342,-75.0703 268.374,-81.7688"/>
</g>
<!-- Node4 -->
<g id="node5" class="node"><title>Node4</title>
<polygon fill="white" stroke="#bfbfbf" points="69.5,-0.5 69.5,-19.5 112.5,-19.5 112.5,-0.5 69.5,-0.5"/>
<text text-anchor="middle" x="91" y="-7.5" font-family="Helvetica,sans-Serif" font-size="10.00">qlist.h</text>
</g>
<!-- Node3&#45;&gt;Node4 -->
<g id="edge4" class="edge"><title>Node3&#45;&gt;Node4</title>
<path fill="none" stroke="midnightblue" d="M148.914,-56.324C138.514,-48.1849 122.739,-35.8395 110.278,-26.0874"/>
<polygon fill="midnightblue" stroke="midnightblue" points="112.32,-23.2407 102.288,-19.8339 108.006,-28.7533 112.32,-23.2407"/>
</g>
<!-- Node5 -->
<g id="node6" class="node"><title>Node5</title>
<polygon fill="white" stroke="#bfbfbf" points="130.5,-0.5 130.5,-19.5 189.5,-19.5 189.5,-0.5 130.5,-0.5"/>
<text text-anchor="middle" x="160" y="-7.5" font-family="Helvetica,sans-Serif" font-size="10.00">qcstring.h</text>
</g>
<!-- Node3&#45;&gt;Node5 -->
<g id="edge5" class="edge"><title>Node3&#45;&gt;Node5</title>
<path fill="none" stroke="midnightblue" d="M160,-56.083C160,-49.0059 160,-38.8611 160,-29.9865"/>
<polygon fill="midnightblue" stroke="midnightblue" points="163.5,-29.751 160,-19.7511 156.5,-29.7511 163.5,-29.751"/>
</g>
<!-- Node7 -->
<g id="node8" class="node"><title>Node7</title>
<polygon fill="white" stroke="#bfbfbf" points="208,-0.5 208,-19.5 254,-19.5 254,-0.5 208,-0.5"/>
<text text-anchor="middle" x="231" y="-7.5" font-family="Helvetica,sans-Serif" font-size="10.00">stdio.h</text>
</g>
<!-- Node6&#45;&gt;Node7 -->
<g id="edge7" class="edge"><title>Node6&#45;&gt;Node7</title>
<path fill="none" stroke="midnightblue" d="M293.111,-56.324C281.85,-48.1066 264.713,-35.6017 251.291,-25.8069"/>
<polygon fill="midnightblue" stroke="midnightblue" points="253.247,-22.9014 243.106,-19.8339 249.12,-28.5559 253.247,-22.9014"/>
</g>
<!-- Node8 -->
<g id="node9" class="node"><title>Node8</title>
<polygon fill="white" stroke="#bfbfbf" points="272,-0.5 272,-19.5 338,-19.5 338,-0.5 272,-0.5"/>
<text text-anchor="middle" x="305" y="-7.5" font-family="Helvetica,sans-Serif" font-size="10.00">qiodevice.h</text>
</g>
<!-- Node6&#45;&gt;Node8 -->
<g id="edge8" class="edge"><title>Node6&#45;&gt;Node8</title>
<path fill="none" stroke="midnightblue" d="M305,-56.083C305,-49.0059 305,-38.8611 305,-29.9865"/>
<polygon fill="midnightblue" stroke="midnightblue" points="308.5,-29.751 305,-19.7511 301.5,-29.7511 308.5,-29.751"/>
</g>
<!-- Node9 -->
<g id="node10" class="node"><title>Node9</title>
<polygon fill="white" stroke="#bfbfbf" points="356,-0.5 356,-19.5 410,-19.5 410,-0.5 356,-0.5"/>
<text text-anchor="middle" x="383" y="-7.5" font-family="Helvetica,sans-Serif" font-size="10.00">qstring.h</text>
</g>
<!-- Node6&#45;&gt;Node9 -->
<g id="edge9" class="edge"><title>Node6&#45;&gt;Node9</title>
<path fill="none" stroke="midnightblue" d="M317.532,-56.324C329.586,-47.979 348.027,-35.2122 362.269,-25.3524"/>
<polygon fill="midnightblue" stroke="midnightblue" points="364.269,-28.2243 370.499,-19.6545 360.285,-22.469 364.269,-28.2243"/>
</g>
<!-- Node10 -->
<g id="node11" class="node"><title>Node10</title>
<polygon fill="white" stroke="#bfbfbf" points="428.5,-0.5 428.5,-19.5 487.5,-19.5 487.5,-0.5 428.5,-0.5"/>
<text text-anchor="middle" x="458" y="-7.5" font-family="Helvetica,sans-Serif" font-size="10.00">qgstring.h</text>
</g>
<!-- Node6&#45;&gt;Node10 -->
<g id="edge10" class="edge"><title>Node6&#45;&gt;Node10</title>
<path fill="none" stroke="midnightblue" d="M329.243,-56.4435C354.871,-47.3986 395.485,-33.064 424.238,-22.9158"/>
<polygon fill="midnightblue" stroke="midnightblue" points="425.605,-26.1452 433.87,-19.5164 423.275,-19.5442 425.605,-26.1452"/>
</g>
</g>
</svg>
