<?xml version="1.0" encoding="UTF-8" standalone="no"?>
<!DOCTYPE svg PUBLIC "-//W3C//DTD SVG 1.1//EN"
 "http://www.w3.org/Graphics/SVG/1.1/DTD/svg11.dtd">
<!-- Generated by graphviz version 2.38.0 (20140413.2041)
 -->
<!-- Title: src/arguments.h Pages: 1 -->
<svg width="3063pt" height="319pt"
 viewBox="0.00 0.00 3062.50 319.00" xmlns="http://www.w3.org/2000/svg" xmlns:xlink="http://www.w3.org/1999/xlink">
<g id="graph0" class="graph" transform="scale(1 1) rotate(0) translate(4 315)">
<title>src/arguments.h</title>
<polygon fill="white" stroke="none" points="-4,4 -4,-315 3058.5,-315 3058.5,4 -4,4"/>
<!-- Node3 -->
<g id="node1" class="node"><title>Node3</title>
<polygon fill="#bfbfbf" stroke="black" points="2130.5,-291.5 2130.5,-310.5 2217.5,-310.5 2217.5,-291.5 2130.5,-291.5"/>
<text text-anchor="middle" x="2174" y="-298.5" font-family="Helvetica,sans-Serif" font-size="10.00">src/arguments.h</text>
</g>
<!-- Node4 -->
<g id="node2" class="node"><title>Node4</title>
<g id="a_node2"><a xlink:href="../../d4/dd4/arguments_8cpp.html" target="_top" xlink:title="src/arguments.cpp">
<polygon fill="white" stroke="black" points="0,-235.5 0,-254.5 98,-254.5 98,-235.5 0,-235.5"/>
<text text-anchor="middle" x="49" y="-242.5" font-family="Helvetica,sans-Serif" font-size="10.00">src/arguments.cpp</text>
</a>
</g>
</g>
<!-- Node3&#45;&gt;Node4 -->
<g id="edge1" class="edge"><title>Node3&#45;&gt;Node4</title>
<path fill="none" stroke="midnightblue" d="M2120.21,-299.702C1837.26,-298.001 518.936,-288.386 112,-255 107.485,-254.63 102.801,-254.147 98.1165,-253.598"/>
<polygon fill="midnightblue" stroke="midnightblue" points="2120.2,-303.202 2130.22,-299.761 2120.24,-296.202 2120.2,-303.202"/>
</g>
<!-- Node5 -->
<g id="node3" class="node"><title>Node5</title>
<g id="a_node3"><a xlink:href="../../dd/dec/vhdldocgen_8h.html" target="_top" xlink:title="src/vhdldocgen.h">
<polygon fill="white" stroke="black" points="1311.5,-235.5 1311.5,-254.5 1402.5,-254.5 1402.5,-235.5 1311.5,-235.5"/>
<text text-anchor="middle" x="1357" y="-242.5" font-family="Helvetica,sans-Serif" font-size="10.00">src/vhdldocgen.h</text>
</a>
</g>
</g>
<!-- Node3&#45;&gt;Node5 -->
<g id="edge2" class="edge"><title>Node3&#45;&gt;Node5</title>
<path fill="none" stroke="midnightblue" d="M2119.96,-296.428C1968.75,-286.434 1543.25,-258.31 1402.7,-249.02"/>
<polygon fill="midnightblue" stroke="midnightblue" points="2120.15,-299.949 2130.36,-297.116 2120.62,-292.964 2120.15,-299.949"/>
</g>
<!-- Node6 -->
<g id="node4" class="node"><title>Node6</title>
<g id="a_node4"><a xlink:href="../../de/d89/classdef_8cpp.html" target="_top" xlink:title="src/classdef.cpp">
<polygon fill="white" stroke="black" points="154.5,-179.5 154.5,-198.5 243.5,-198.5 243.5,-179.5 154.5,-179.5"/>
<text text-anchor="middle" x="199" y="-186.5" font-family="Helvetica,sans-Serif" font-size="10.00">src/classdef.cpp</text>
</a>
</g>
</g>
<!-- Node3&#45;&gt;Node6 -->
<g id="edge36" class="edge"><title>Node3&#45;&gt;Node6</title>
<path fill="none" stroke="midnightblue" d="M2120.33,-299.57C1877.03,-297.458 875.935,-286.956 564,-255 443.144,-242.619 302.083,-213.16 236.311,-198.537"/>
<polygon fill="midnightblue" stroke="midnightblue" points="2120.32,-303.07 2130.35,-299.656 2120.38,-296.071 2120.32,-303.07"/>
</g>
<!-- Node7 -->
<g id="node5" class="node"><title>Node7</title>
<g id="a_node5"><a xlink:href="../../d6/d10/classlist_8cpp.html" target="_top" xlink:title="src/classlist.cpp">
<polygon fill="white" stroke="black" points="261,-179.5 261,-198.5 349,-198.5 349,-179.5 261,-179.5"/>
<text text-anchor="middle" x="305" y="-186.5" font-family="Helvetica,sans-Serif" font-size="10.00">src/classlist.cpp</text>
</a>
</g>
</g>
<!-- Node3&#45;&gt;Node7 -->
<g id="edge37" class="edge"><title>Node3&#45;&gt;Node7</title>
<path fill="none" stroke="midnightblue" d="M2120.17,-299.163C1892.8,-295.5 1010.13,-279.933 733,-255 591.898,-242.305 426.538,-213.064 349.146,-198.526"/>
<polygon fill="midnightblue" stroke="midnightblue" points="2120.13,-302.663 2130.18,-299.324 2120.24,-295.664 2120.13,-302.663"/>
</g>
<!-- Node8 -->
<g id="node6" class="node"><title>Node8</title>
<g id="a_node6"><a xlink:href="../../db/d12/context_8cpp.html" target="_top" xlink:title="src/context.cpp">
<polygon fill="white" stroke="black" points="367,-179.5 367,-198.5 451,-198.5 451,-179.5 367,-179.5"/>
<text text-anchor="middle" x="409" y="-186.5" font-family="Helvetica,sans-Serif" font-size="10.00">src/context.cpp</text>
</a>
</g>
</g>
<!-- Node3&#45;&gt;Node8 -->
<g id="edge38" class="edge"><title>Node3&#45;&gt;Node8</title>
<path fill="none" stroke="midnightblue" d="M2120.06,-299.406C1950,-297.232 1409.85,-288.015 964,-255 739.237,-238.356 683.089,-231.045 460,-199 457.152,-198.591 454.219,-198.143 451.267,-197.674"/>
<polygon fill="midnightblue" stroke="midnightblue" points="2120.21,-302.908 2130.26,-299.534 2120.3,-295.909 2120.21,-302.908"/>
</g>
<!-- Node10 -->
<g id="node8" class="node"><title>Node10</title>
<g id="a_node8"><a xlink:href="../../da/d17/docparser_8cpp.html" target="_top" xlink:title="src/docparser.cpp">
<polygon fill="white" stroke="black" points="469.5,-179.5 469.5,-198.5 564.5,-198.5 564.5,-179.5 469.5,-179.5"/>
<text text-anchor="middle" x="517" y="-186.5" font-family="Helvetica,sans-Serif" font-size="10.00">src/docparser.cpp</text>
</a>
</g>
</g>
<!-- Node3&#45;&gt;Node10 -->
<g id="edge41" class="edge"><title>Node3&#45;&gt;Node10</title>
<path fill="none" stroke="midnightblue" d="M2120.11,-298.751C1916.86,-293.583 1177.51,-270.67 573,-199 570.262,-198.675 567.453,-198.314 564.621,-197.928"/>
<polygon fill="midnightblue" stroke="midnightblue" points="2120.14,-302.252 2130.22,-299.004 2120.32,-295.255 2120.14,-302.252"/>
</g>
<!-- Node13 -->
<g id="node11" class="node"><title>Node13</title>
<g id="a_node11"><a xlink:href="../../dc/d98/doxygen_8cpp.html" target="_top" xlink:title="src/doxygen.cpp">
<polygon fill="white" stroke="black" points="1905.5,-123.5 1905.5,-142.5 1994.5,-142.5 1994.5,-123.5 1905.5,-123.5"/>
<text text-anchor="middle" x="1950" y="-130.5" font-family="Helvetica,sans-Serif" font-size="10.00">src/doxygen.cpp</text>
</a>
</g>
</g>
<!-- Node3&#45;&gt;Node13 -->
<g id="edge42" class="edge"><title>Node3&#45;&gt;Node13</title>
<path fill="none" stroke="midnightblue" d="M2180.71,-281.724C2191.15,-251.849 2208.79,-194.336 2196,-179 2170.87,-148.861 2058.59,-138.849 1994.76,-135.566"/>
<polygon fill="midnightblue" stroke="midnightblue" points="2177.34,-280.757 2177.27,-291.352 2183.93,-283.117 2177.34,-280.757"/>
</g>
<!-- Node14 -->
<g id="node12" class="node"><title>Node14</title>
<g id="a_node12"><a xlink:href="../../de/dea/vhdldocgen_8cpp.html" target="_top" xlink:title="src/vhdldocgen.cpp">
<polygon fill="white" stroke="black" points="1363.5,-62 1363.5,-81 1464.5,-81 1464.5,-62 1363.5,-62"/>
<text text-anchor="middle" x="1414" y="-69" font-family="Helvetica,sans-Serif" font-size="10.00">src/vhdldocgen.cpp</text>
</a>
</g>
</g>
<!-- Node3&#45;&gt;Node14 -->
<g id="edge50" class="edge"><title>Node3&#45;&gt;Node14</title>
<path fill="none" stroke="midnightblue" d="M2120.16,-299.896C1863.28,-299.205 760.618,-293.982 419,-255 295.506,-240.908 223.599,-295.288 145,-199 65.8083,-101.986 1117.79,-77.6448 1363.36,-73.2976"/>
<polygon fill="midnightblue" stroke="midnightblue" points="2120.34,-303.397 2130.35,-299.922 2120.36,-296.397 2120.34,-303.397"/>
</g>
<!-- Node15 -->
<g id="node13" class="node"><title>Node15</title>
<g id="a_node13"><a xlink:href="../../d1/d86/vhdljjparser_8cpp.html" target="_top" xlink:title="src/vhdljjparser.cpp">
<polygon fill="white" stroke="black" points="1805.5,-0.5 1805.5,-19.5 1906.5,-19.5 1906.5,-0.5 1805.5,-0.5"/>
<text text-anchor="middle" x="1856" y="-7.5" font-family="Helvetica,sans-Serif" font-size="10.00">src/vhdljjparser.cpp</text>
</a>
</g>
</g>
<!-- Node3&#45;&gt;Node15 -->
<g id="edge51" class="edge"><title>Node3&#45;&gt;Node15</title>
<path fill="none" stroke="midnightblue" d="M2187.43,-283.514C2205.57,-259.106 2233.31,-212.623 2212,-179 2144.13,-71.9235 1987.7,-31.8144 1906.68,-17.8438"/>
<polygon fill="midnightblue" stroke="midnightblue" points="2184.64,-281.393 2181.29,-291.443 2190.18,-285.679 2184.64,-281.393"/>
</g>
<!-- Node21 -->
<g id="node19" class="node"><title>Node21</title>
<g id="a_node19"><a xlink:href="../../d6/d42/groupdef_8cpp.html" target="_top" xlink:title="src/groupdef.cpp">
<polygon fill="white" stroke="black" points="1978.5,-179.5 1978.5,-198.5 2067.5,-198.5 2067.5,-179.5 1978.5,-179.5"/>
<text text-anchor="middle" x="2023" y="-186.5" font-family="Helvetica,sans-Serif" font-size="10.00">src/groupdef.cpp</text>
</a>
</g>
</g>
<!-- Node3&#45;&gt;Node21 -->
<g id="edge44" class="edge"><title>Node3&#45;&gt;Node21</title>
<path fill="none" stroke="midnightblue" d="M2153.98,-285.417C2122.04,-262.151 2060.54,-217.35 2034.79,-198.591"/>
<polygon fill="midnightblue" stroke="midnightblue" points="2152.01,-288.309 2162.15,-291.368 2156.13,-282.651 2152.01,-288.309"/>
</g>
<!-- Node26 -->
<g id="node24" class="node"><title>Node26</title>
<g id="a_node24"><a xlink:href="../../d0/d72/memberdef_8cpp.html" target="_top" xlink:title="src/memberdef.cpp">
<polygon fill="white" stroke="black" points="2085.5,-179.5 2085.5,-198.5 2186.5,-198.5 2186.5,-179.5 2085.5,-179.5"/>
<text text-anchor="middle" x="2136" y="-186.5" font-family="Helvetica,sans-Serif" font-size="10.00">src/memberdef.cpp</text>
</a>
</g>
</g>
<!-- Node3&#45;&gt;Node26 -->
<g id="edge46" class="edge"><title>Node3&#45;&gt;Node26</title>
<path fill="none" stroke="midnightblue" d="M2167.67,-281.674C2159.36,-257.625 2145.12,-216.388 2138.97,-198.591"/>
<polygon fill="midnightblue" stroke="midnightblue" points="2164.44,-283.059 2171.02,-291.368 2171.06,-280.774 2164.44,-283.059"/>
</g>
<!-- Node31 -->
<g id="node29" class="node"><title>Node31</title>
<g id="a_node29"><a xlink:href="../../d3/d17/defgen_8cpp.html" target="_top" xlink:title="src/defgen.cpp">
<polygon fill="white" stroke="black" points="2240.5,-235.5 2240.5,-254.5 2321.5,-254.5 2321.5,-235.5 2240.5,-235.5"/>
<text text-anchor="middle" x="2281" y="-242.5" font-family="Helvetica,sans-Serif" font-size="10.00">src/defgen.cpp</text>
</a>
</g>
</g>
<!-- Node3&#45;&gt;Node31 -->
<g id="edge39" class="edge"><title>Node3&#45;&gt;Node31</title>
<path fill="none" stroke="midnightblue" d="M2200.3,-286.726C2220.11,-276.727 2246.71,-263.307 2263.85,-254.655"/>
<polygon fill="midnightblue" stroke="midnightblue" points="2198.54,-283.694 2191.19,-291.324 2201.7,-289.943 2198.54,-283.694"/>
</g>
<!-- Node32 -->
<g id="node30" class="node"><title>Node32</title>
<g id="a_node30"><a xlink:href="../../d8/d29/docbookgen_8cpp.html" target="_top" xlink:title="src/docbookgen.cpp">
<polygon fill="white" stroke="black" points="2340,-235.5 2340,-254.5 2444,-254.5 2444,-235.5 2340,-235.5"/>
<text text-anchor="middle" x="2392" y="-242.5" font-family="Helvetica,sans-Serif" font-size="10.00">src/docbookgen.cpp</text>
</a>
</g>
</g>
<!-- Node3&#45;&gt;Node32 -->
<g id="edge40" class="edge"><title>Node3&#45;&gt;Node32</title>
<path fill="none" stroke="midnightblue" d="M2218.31,-289.024C2259.49,-278.823 2319.97,-263.841 2357.62,-254.516"/>
<polygon fill="midnightblue" stroke="midnightblue" points="2217.41,-285.642 2208.54,-291.444 2219.09,-292.436 2217.41,-285.642"/>
</g>
<!-- Node33 -->
<g id="node31" class="node"><title>Node33</title>
<g id="a_node31"><a xlink:href="../../d2/dd2/entry_8cpp.html" target="_top" xlink:title="src/entry.cpp">
<polygon fill="white" stroke="black" points="2462,-235.5 2462,-254.5 2536,-254.5 2536,-235.5 2462,-235.5"/>
<text text-anchor="middle" x="2499" y="-242.5" font-family="Helvetica,sans-Serif" font-size="10.00">src/entry.cpp</text>
</a>
</g>
</g>
<!-- Node3&#45;&gt;Node33 -->
<g id="edge43" class="edge"><title>Node3&#45;&gt;Node33</title>
<path fill="none" stroke="midnightblue" d="M2227.66,-291.888C2283.9,-283.259 2374.79,-268.954 2453,-255 2455.88,-254.485 2458.87,-253.938 2461.86,-253.376"/>
<polygon fill="midnightblue" stroke="midnightblue" points="2226.93,-288.46 2217.57,-293.432 2227.98,-295.379 2226.93,-288.46"/>
</g>
<!-- Node34 -->
<g id="node32" class="node"><title>Node34</title>
<g id="a_node32"><a xlink:href="../../d9/d85/marshal_8cpp.html" target="_top" xlink:title="src/marshal.cpp">
<polygon fill="white" stroke="black" points="2554,-235.5 2554,-254.5 2640,-254.5 2640,-235.5 2554,-235.5"/>
<text text-anchor="middle" x="2597" y="-242.5" font-family="Helvetica,sans-Serif" font-size="10.00">src/marshal.cpp</text>
</a>
</g>
</g>
<!-- Node3&#45;&gt;Node34 -->
<g id="edge45" class="edge"><title>Node3&#45;&gt;Node34</title>
<path fill="none" stroke="midnightblue" d="M2227.72,-294.348C2299.98,-286.549 2432.42,-271.559 2545,-255 2547.9,-254.573 2550.89,-254.113 2553.9,-253.633"/>
<polygon fill="midnightblue" stroke="midnightblue" points="2227.07,-290.898 2217.5,-295.446 2227.82,-297.857 2227.07,-290.898"/>
</g>
<!-- Node35 -->
<g id="node33" class="node"><title>Node35</title>
<g id="a_node33"><a xlink:href="../../de/dd0/perlmodgen_8cpp.html" target="_top" xlink:title="src/perlmodgen.cpp">
<polygon fill="white" stroke="black" points="2658,-235.5 2658,-254.5 2760,-254.5 2760,-235.5 2658,-235.5"/>
<text text-anchor="middle" x="2709" y="-242.5" font-family="Helvetica,sans-Serif" font-size="10.00">src/perlmodgen.cpp</text>
</a>
</g>
</g>
<!-- Node3&#45;&gt;Node35 -->
<g id="edge47" class="edge"><title>Node3&#45;&gt;Node35</title>
<path fill="none" stroke="midnightblue" d="M2227.66,-295.874C2315.77,-288.885 2496.55,-273.641 2649,-255 2651.93,-254.642 2654.93,-254.255 2657.96,-253.849"/>
<polygon fill="midnightblue" stroke="midnightblue" points="2227.33,-292.389 2217.64,-296.665 2227.88,-299.368 2227.33,-292.389"/>
</g>
<!-- Node36 -->
<g id="node34" class="node"><title>Node36</title>
<g id="a_node34"><a xlink:href="../../d4/d7b/tagreader_8cpp.html" target="_top" xlink:title="src/tagreader.cpp">
<polygon fill="white" stroke="black" points="2778,-235.5 2778,-254.5 2870,-254.5 2870,-235.5 2778,-235.5"/>
<text text-anchor="middle" x="2824" y="-242.5" font-family="Helvetica,sans-Serif" font-size="10.00">src/tagreader.cpp</text>
</a>
</g>
</g>
<!-- Node3&#45;&gt;Node36 -->
<g id="edge48" class="edge"><title>Node3&#45;&gt;Node36</title>
<path fill="none" stroke="midnightblue" d="M2227.79,-297.498C2332.34,-292.288 2570.15,-278.743 2769,-255 2771.88,-254.656 2774.84,-254.269 2777.83,-253.854"/>
<polygon fill="midnightblue" stroke="midnightblue" points="2227.61,-294.002 2217.8,-297.99 2227.96,-300.994 2227.61,-294.002"/>
</g>
<!-- Node37 -->
<g id="node35" class="node"><title>Node37</title>
<g id="a_node35"><a xlink:href="../../df/d2d/util_8cpp.html" target="_top" xlink:title="src/util.cpp">
<polygon fill="white" stroke="black" points="2888.5,-235.5 2888.5,-254.5 2953.5,-254.5 2953.5,-235.5 2888.5,-235.5"/>
<text text-anchor="middle" x="2921" y="-242.5" font-family="Helvetica,sans-Serif" font-size="10.00">src/util.cpp</text>
</a>
</g>
</g>
<!-- Node3&#45;&gt;Node37 -->
<g id="edge49" class="edge"><title>Node3&#45;&gt;Node37</title>
<path fill="none" stroke="midnightblue" d="M2227.77,-299.265C2346.06,-297.058 2637.54,-288.392 2879,-255 2881.95,-254.591 2885.01,-254.091 2888.07,-253.537"/>
<polygon fill="midnightblue" stroke="midnightblue" points="2227.48,-295.77 2217.54,-299.448 2227.61,-302.768 2227.48,-295.77"/>
</g>
<!-- Node38 -->
<g id="node36" class="node"><title>Node38</title>
<g id="a_node36"><a xlink:href="../../d0/dc3/xmlgen_8cpp.html" target="_top" xlink:title="src/xmlgen.cpp">
<polygon fill="white" stroke="black" points="2971.5,-235.5 2971.5,-254.5 3054.5,-254.5 3054.5,-235.5 2971.5,-235.5"/>
<text text-anchor="middle" x="3013" y="-242.5" font-family="Helvetica,sans-Serif" font-size="10.00">src/xmlgen.cpp</text>
</a>
</g>
</g>
<!-- Node3&#45;&gt;Node38 -->
<g id="edge52" class="edge"><title>Node3&#45;&gt;Node38</title>
<path fill="none" stroke="midnightblue" d="M2228.1,-299.17C2356.21,-296.712 2688,-287.471 2963,-255 2965.72,-254.679 2968.51,-254.304 2971.31,-253.893"/>
<polygon fill="midnightblue" stroke="midnightblue" points="2227.72,-295.676 2217.78,-299.361 2227.85,-302.675 2227.72,-295.676"/>
</g>
<!-- Node5&#45;&gt;Node6 -->
<g id="edge3" class="edge"><title>Node5&#45;&gt;Node6</title>
<path fill="none" stroke="midnightblue" d="M1301.1,-244.236C1138.61,-244.381 652.56,-240.993 252,-199 249.308,-198.718 246.546,-198.384 243.764,-198.014"/>
<polygon fill="midnightblue" stroke="midnightblue" points="1301.33,-247.736 1311.33,-244.222 1301.32,-240.736 1301.33,-247.736"/>
</g>
<!-- Node5&#45;&gt;Node7 -->
<g id="edge4" class="edge"><title>Node5&#45;&gt;Node7</title>
<path fill="none" stroke="midnightblue" d="M1301.01,-243.891C1148.96,-243.075 715.751,-237.285 358,-199 355.123,-198.692 352.166,-198.327 349.19,-197.923"/>
<polygon fill="midnightblue" stroke="midnightblue" points="1301.03,-247.391 1311.04,-243.94 1301.06,-240.391 1301.03,-247.391"/>
</g>
<!-- Node5&#45;&gt;Node8 -->
<g id="edge5" class="edge"><title>Node5&#45;&gt;Node8</title>
<path fill="none" stroke="midnightblue" d="M1300.93,-243.609C1159.45,-242.097 776.677,-234.745 460,-199 457.141,-198.677 454.2,-198.295 451.242,-197.872"/>
<polygon fill="midnightblue" stroke="midnightblue" points="1301.06,-247.11 1311.1,-243.712 1301.13,-240.111 1301.06,-247.11"/>
</g>
<!-- Node9 -->
<g id="node7" class="node"><title>Node9</title>
<g id="a_node7"><a xlink:href="../../d3/dea/definition_8cpp.html" target="_top" xlink:title="src/definition.cpp">
<polygon fill="white" stroke="black" points="1465.5,-179.5 1465.5,-198.5 1556.5,-198.5 1556.5,-179.5 1465.5,-179.5"/>
<text text-anchor="middle" x="1511" y="-186.5" font-family="Helvetica,sans-Serif" font-size="10.00">src/definition.cpp</text>
</a>
</g>
</g>
<!-- Node5&#45;&gt;Node9 -->
<g id="edge6" class="edge"><title>Node5&#45;&gt;Node9</title>
<path fill="none" stroke="midnightblue" d="M1391.11,-232.039C1420.09,-221.879 1460.96,-207.546 1486.71,-198.516"/>
<polygon fill="midnightblue" stroke="midnightblue" points="1389.68,-228.832 1381.4,-235.444 1392,-235.437 1389.68,-228.832"/>
</g>
<!-- Node5&#45;&gt;Node10 -->
<g id="edge7" class="edge"><title>Node5&#45;&gt;Node10</title>
<path fill="none" stroke="midnightblue" d="M1301.35,-242.755C1172.76,-239.453 845.172,-228.604 573,-199 570.259,-198.702 567.448,-198.361 564.614,-197.991"/>
<polygon fill="midnightblue" stroke="midnightblue" points="1301.27,-246.254 1311.35,-243.007 1301.44,-239.256 1301.27,-246.254"/>
</g>
<!-- Node11 -->
<g id="node9" class="node"><title>Node11</title>
<g id="a_node9"><a xlink:href="../../de/daa/dot_8cpp.html" target="_top" xlink:title="src/dot.cpp">
<polygon fill="white" stroke="black" points="1574.5,-179.5 1574.5,-198.5 1639.5,-198.5 1639.5,-179.5 1574.5,-179.5"/>
<text text-anchor="middle" x="1607" y="-186.5" font-family="Helvetica,sans-Serif" font-size="10.00">src/dot.cpp</text>
</a>
</g>
</g>
<!-- Node5&#45;&gt;Node11 -->
<g id="edge8" class="edge"><title>Node5&#45;&gt;Node11</title>
<path fill="none" stroke="midnightblue" d="M1406.52,-233.304C1456.3,-222.552 1531.6,-206.286 1574.34,-197.054"/>
<polygon fill="midnightblue" stroke="midnightblue" points="1405.65,-229.911 1396.61,-235.444 1407.13,-236.753 1405.65,-229.911"/>
</g>
<!-- Node12 -->
<g id="node10" class="node"><title>Node12</title>
<g id="a_node10"><a xlink:href="../../d2/d55/vhdljjparser_8h.html" target="_top" xlink:title="src/vhdljjparser.h">
<polygon fill="white" stroke="black" points="1696.5,-179.5 1696.5,-198.5 1787.5,-198.5 1787.5,-179.5 1696.5,-179.5"/>
<text text-anchor="middle" x="1742" y="-186.5" font-family="Helvetica,sans-Serif" font-size="10.00">src/vhdljjparser.h</text>
</a>
</g>
</g>
<!-- Node5&#45;&gt;Node12 -->
<g id="edge9" class="edge"><title>Node5&#45;&gt;Node12</title>
<path fill="none" stroke="midnightblue" d="M1412.49,-236.511C1477.21,-227.731 1587.41,-212.642 1682,-199 1686.69,-198.323 1691.59,-197.607 1696.47,-196.885"/>
<polygon fill="midnightblue" stroke="midnightblue" points="1411.94,-233.053 1402.5,-237.864 1412.88,-239.99 1411.94,-233.053"/>
</g>
<!-- Node5&#45;&gt;Node13 -->
<g id="edge22" class="edge"><title>Node5&#45;&gt;Node13</title>
<path fill="none" stroke="midnightblue" d="M1413.17,-243.17C1549.83,-240.652 1891.4,-231.176 1931,-199 1947.97,-185.21 1950.31,-157.146 1950.32,-142.829"/>
<polygon fill="midnightblue" stroke="midnightblue" points="1412.85,-239.675 1402.91,-243.353 1412.97,-246.674 1412.85,-239.675"/>
</g>
<!-- Node5&#45;&gt;Node14 -->
<g id="edge34" class="edge"><title>Node5&#45;&gt;Node14</title>
<path fill="none" stroke="midnightblue" d="M1412.87,-243.644C1488.74,-241.839 1618.33,-233.613 1648,-199 1653.79,-192.251 1652.81,-186.475 1648,-179 1624.27,-142.123 1499.1,-99.1108 1442.2,-81.1088"/>
<polygon fill="midnightblue" stroke="midnightblue" points="1412.47,-240.152 1402.54,-243.859 1412.61,-247.15 1412.47,-240.152"/>
</g>
<!-- Node5&#45;&gt;Node15 -->
<g id="edge35" class="edge"><title>Node5&#45;&gt;Node15</title>
<path fill="none" stroke="midnightblue" d="M1412.86,-244.266C1516.42,-243.797 1733.37,-238.021 1796,-199 1844.29,-168.914 1845.33,-142.466 1858,-87 1863.47,-63.0666 1859.93,-33.7916 1857.59,-19.5712"/>
<polygon fill="midnightblue" stroke="midnightblue" points="1412.59,-240.767 1402.6,-244.297 1412.61,-247.767 1412.59,-240.767"/>
</g>
<!-- Node20 -->
<g id="node18" class="node"><title>Node20</title>
<g id="a_node18"><a xlink:href="../../d6/ddc/filedef_8cpp.html" target="_top" xlink:title="src/filedef.cpp">
<polygon fill="white" stroke="black" points="1844,-179.5 1844,-198.5 1922,-198.5 1922,-179.5 1844,-179.5"/>
<text text-anchor="middle" x="1883" y="-186.5" font-family="Helvetica,sans-Serif" font-size="10.00">src/filedef.cpp</text>
</a>
</g>
</g>
<!-- Node5&#45;&gt;Node20 -->
<g id="edge23" class="edge"><title>Node5&#45;&gt;Node20</title>
<path fill="none" stroke="midnightblue" d="M1412.89,-240.018C1501.54,-233.401 1679.76,-218.876 1830,-199 1834.53,-198.4 1839.27,-197.7 1843.97,-196.961"/>
<polygon fill="midnightblue" stroke="midnightblue" points="1412.5,-236.537 1402.79,-240.766 1413.02,-243.518 1412.5,-236.537"/>
</g>
<!-- Node5&#45;&gt;Node21 -->
<g id="edge24" class="edge"><title>Node5&#45;&gt;Node21</title>
<path fill="none" stroke="midnightblue" d="M1413.06,-241.297C1520.29,-235.805 1761.78,-221.884 1964,-199 1968.63,-198.476 1973.46,-197.858 1978.27,-197.195"/>
<polygon fill="midnightblue" stroke="midnightblue" points="1412.61,-237.815 1402.8,-241.818 1412.96,-244.806 1412.61,-237.815"/>
</g>
<!-- Node22 -->
<g id="node20" class="node"><title>Node22</title>
<g id="a_node20"><a xlink:href="../../da/db0/htmldocvisitor_8cpp.html" target="_top" xlink:title="src/htmldocvisitor.cpp">
<polygon fill="white" stroke="black" points="582.5,-179.5 582.5,-198.5 695.5,-198.5 695.5,-179.5 582.5,-179.5"/>
<text text-anchor="middle" x="639" y="-186.5" font-family="Helvetica,sans-Serif" font-size="10.00">src/htmldocvisitor.cpp</text>
</a>
</g>
</g>
<!-- Node5&#45;&gt;Node22 -->
<g id="edge25" class="edge"><title>Node5&#45;&gt;Node22</title>
<path fill="none" stroke="midnightblue" d="M1301.35,-241.412C1188.62,-235.892 925.277,-221.595 705,-199 702.009,-198.693 698.945,-198.356 695.853,-197.997"/>
<polygon fill="midnightblue" stroke="midnightblue" points="1301.3,-244.913 1311.46,-241.903 1301.64,-237.922 1301.3,-244.913"/>
</g>
<!-- Node23 -->
<g id="node21" class="node"><title>Node23</title>
<g id="a_node21"><a xlink:href="../../d8/d6e/htmlgen_8cpp.html" target="_top" xlink:title="src/htmlgen.cpp">
<polygon fill="white" stroke="black" points="714,-179.5 714,-198.5 800,-198.5 800,-179.5 714,-179.5"/>
<text text-anchor="middle" x="757" y="-186.5" font-family="Helvetica,sans-Serif" font-size="10.00">src/htmlgen.cpp</text>
</a>
</g>
</g>
<!-- Node5&#45;&gt;Node23 -->
<g id="edge26" class="edge"><title>Node5&#45;&gt;Node23</title>
<path fill="none" stroke="midnightblue" d="M1301.29,-241.076C1202.05,-235.5 988.257,-221.826 809,-199 806.092,-198.63 803.098,-198.211 800.085,-197.763"/>
<polygon fill="midnightblue" stroke="midnightblue" points="1301.21,-244.577 1311.39,-241.638 1301.6,-237.588 1301.21,-244.577"/>
</g>
<!-- Node24 -->
<g id="node22" class="node"><title>Node24</title>
<g id="a_node22"><a xlink:href="../../db/d14/index_8cpp.html" target="_top" xlink:title="This file contains functions for the various index pages. ">
<polygon fill="white" stroke="black" points="818.5,-179.5 818.5,-198.5 893.5,-198.5 893.5,-179.5 818.5,-179.5"/>
<text text-anchor="middle" x="856" y="-186.5" font-family="Helvetica,sans-Serif" font-size="10.00">src/index.cpp</text>
</a>
</g>
</g>
<!-- Node5&#45;&gt;Node24 -->
<g id="edge27" class="edge"><title>Node5&#45;&gt;Node24</title>
<path fill="none" stroke="midnightblue" d="M1301.37,-240.114C1215.57,-233.756 1045.93,-219.725 903,-199 899.958,-198.559 896.813,-198.057 893.659,-197.522"/>
<polygon fill="midnightblue" stroke="midnightblue" points="1301.18,-243.61 1311.41,-240.852 1301.69,-236.629 1301.18,-243.61"/>
</g>
<!-- Node25 -->
<g id="node23" class="node"><title>Node25</title>
<g id="a_node23"><a xlink:href="../../db/d16/layout_8cpp.html" target="_top" xlink:title="src/layout.cpp">
<polygon fill="white" stroke="black" points="912,-179.5 912,-198.5 990,-198.5 990,-179.5 912,-179.5"/>
<text text-anchor="middle" x="951" y="-186.5" font-family="Helvetica,sans-Serif" font-size="10.00">src/layout.cpp</text>
</a>
</g>
</g>
<!-- Node5&#45;&gt;Node25 -->
<g id="edge28" class="edge"><title>Node5&#45;&gt;Node25</title>
<path fill="none" stroke="midnightblue" d="M1301.39,-238.061C1230.87,-230.29 1105.62,-215.681 999,-199 996.152,-198.554 993.214,-198.068 990.26,-197.561"/>
<polygon fill="midnightblue" stroke="midnightblue" points="1301.06,-241.547 1311.38,-239.158 1301.82,-234.589 1301.06,-241.547"/>
</g>
<!-- Node5&#45;&gt;Node26 -->
<g id="edge29" class="edge"><title>Node5&#45;&gt;Node26</title>
<path fill="none" stroke="midnightblue" d="M1412.75,-242.206C1533.9,-237.936 1830.16,-225.488 2077,-199 2079.68,-198.713 2082.42,-198.391 2085.19,-198.044"/>
<polygon fill="midnightblue" stroke="midnightblue" points="1412.48,-238.713 1402.61,-242.558 1412.72,-245.709 1412.48,-238.713"/>
</g>
<!-- Node27 -->
<g id="node25" class="node"><title>Node27</title>
<g id="a_node25"><a xlink:href="../../d0/d14/memberlist_8cpp.html" target="_top" xlink:title="src/memberlist.cpp">
<polygon fill="white" stroke="black" points="1008,-179.5 1008,-198.5 1108,-198.5 1108,-179.5 1008,-179.5"/>
<text text-anchor="middle" x="1058" y="-186.5" font-family="Helvetica,sans-Serif" font-size="10.00">src/memberlist.cpp</text>
</a>
</g>
</g>
<!-- Node5&#45;&gt;Node27 -->
<g id="edge30" class="edge"><title>Node5&#45;&gt;Node27</title>
<path fill="none" stroke="midnightblue" d="M1301.08,-233.901C1244.61,-223.703 1158.35,-208.124 1105.21,-198.527"/>
<polygon fill="midnightblue" stroke="midnightblue" points="1300.8,-237.407 1311.26,-235.74 1302.04,-230.518 1300.8,-237.407"/>
</g>
<!-- Node28 -->
<g id="node26" class="node"><title>Node28</title>
<g id="a_node26"><a xlink:href="../../d7/d1c/namespacedef_8cpp.html" target="_top" xlink:title="src/namespacedef.cpp">
<polygon fill="white" stroke="black" points="1126,-179.5 1126,-198.5 1242,-198.5 1242,-179.5 1126,-179.5"/>
<text text-anchor="middle" x="1184" y="-186.5" font-family="Helvetica,sans-Serif" font-size="10.00">src/namespacedef.cpp</text>
</a>
</g>
</g>
<!-- Node5&#45;&gt;Node28 -->
<g id="edge31" class="edge"><title>Node5&#45;&gt;Node28</title>
<path fill="none" stroke="midnightblue" d="M1319.95,-232.436C1287.34,-222.255 1240.59,-207.664 1211.28,-198.516"/>
<polygon fill="midnightblue" stroke="midnightblue" points="1319,-235.805 1329.59,-235.444 1321.08,-229.123 1319,-235.805"/>
</g>
<!-- Node29 -->
<g id="node27" class="node"><title>Node29</title>
<g id="a_node27"><a xlink:href="../../db/dd8/outputlist_8cpp.html" target="_top" xlink:title="src/outputlist.cpp">
<polygon fill="white" stroke="black" points="1260,-179.5 1260,-198.5 1352,-198.5 1352,-179.5 1260,-179.5"/>
<text text-anchor="middle" x="1306" y="-186.5" font-family="Helvetica,sans-Serif" font-size="10.00">src/outputlist.cpp</text>
</a>
</g>
</g>
<!-- Node5&#45;&gt;Node29 -->
<g id="edge32" class="edge"><title>Node5&#45;&gt;Node29</title>
<path fill="none" stroke="midnightblue" d="M1341.62,-227.718C1332.63,-218.2 1321.64,-206.561 1314.26,-198.751"/>
<polygon fill="midnightblue" stroke="midnightblue" points="1339.17,-230.216 1348.58,-235.083 1344.26,-225.41 1339.17,-230.216"/>
</g>
<!-- Node30 -->
<g id="node28" class="node"><title>Node30</title>
<g id="a_node28"><a xlink:href="../../d0/d9c/rtfgen_8cpp.html" target="_top" xlink:title="src/rtfgen.cpp">
<polygon fill="white" stroke="black" points="1370.5,-179.5 1370.5,-198.5 1447.5,-198.5 1447.5,-179.5 1370.5,-179.5"/>
<text text-anchor="middle" x="1409" y="-186.5" font-family="Helvetica,sans-Serif" font-size="10.00">src/rtfgen.cpp</text>
</a>
</g>
</g>
<!-- Node5&#45;&gt;Node30 -->
<g id="edge33" class="edge"><title>Node5&#45;&gt;Node30</title>
<path fill="none" stroke="midnightblue" d="M1372.68,-227.718C1381.84,-218.2 1393.05,-206.561 1400.57,-198.751"/>
<polygon fill="midnightblue" stroke="midnightblue" points="1370,-225.452 1365.59,-235.083 1375.04,-230.308 1370,-225.452"/>
</g>
<!-- Node12&#45;&gt;Node13 -->
<g id="edge10" class="edge"><title>Node12&#45;&gt;Node13</title>
<path fill="none" stroke="midnightblue" d="M1784.78,-176.894C1824.06,-166.697 1881.43,-151.802 1917.2,-142.516"/>
<polygon fill="midnightblue" stroke="midnightblue" points="1783.76,-173.543 1774.96,-179.444 1785.52,-180.318 1783.76,-173.543"/>
</g>
<!-- Node12&#45;&gt;Node14 -->
<g id="edge11" class="edge"><title>Node12&#45;&gt;Node14</title>
<path fill="none" stroke="midnightblue" d="M1721.23,-173.544C1699.25,-158.859 1663.09,-136.422 1629,-123 1563.19,-97.0893 1542.82,-103.307 1474,-87 1465.97,-85.0974 1457.34,-83.0275 1449.2,-81.0631"/>
<polygon fill="midnightblue" stroke="midnightblue" points="1719.5,-176.596 1729.74,-179.314 1723.42,-170.803 1719.5,-176.596"/>
</g>
<!-- Node12&#45;&gt;Node15 -->
<g id="edge12" class="edge"><title>Node12&#45;&gt;Node15</title>
<path fill="none" stroke="midnightblue" d="M1771.29,-174.604C1785.01,-167.038 1800.59,-156.395 1811,-143 1841.61,-103.62 1852.09,-42.1444 1855.02,-19.6326"/>
<polygon fill="midnightblue" stroke="midnightblue" points="1769.43,-171.626 1762.17,-179.346 1772.66,-177.836 1769.43,-171.626"/>
</g>
<!-- Node16 -->
<g id="node14" class="node"><title>Node16</title>
<g id="a_node14"><a xlink:href="../../d5/df9/_vhdl_parser_8h.html" target="_top" xlink:title="vhdlparser/VhdlParser.h">
<polygon fill="white" stroke="black" points="1681.5,-123.5 1681.5,-142.5 1802.5,-142.5 1802.5,-123.5 1681.5,-123.5"/>
<text text-anchor="middle" x="1742" y="-130.5" font-family="Helvetica,sans-Serif" font-size="10.00">vhdlparser/VhdlParser.h</text>
</a>
</g>
</g>
<!-- Node12&#45;&gt;Node16 -->
<g id="edge13" class="edge"><title>Node12&#45;&gt;Node16</title>
<path fill="none" stroke="midnightblue" d="M1742,-168.805C1742,-159.91 1742,-149.78 1742,-142.751"/>
<polygon fill="midnightblue" stroke="midnightblue" points="1738.5,-169.083 1742,-179.083 1745.5,-169.083 1738.5,-169.083"/>
</g>
<!-- Node16&#45;&gt;Node14 -->
<g id="edge14" class="edge"><title>Node16&#45;&gt;Node14</title>
<path fill="none" stroke="midnightblue" d="M1673.82,-121.915C1619.5,-113.553 1541.63,-100.832 1474,-87 1465.39,-85.2392 1456.14,-83.1187 1447.54,-81.0496"/>
<polygon fill="midnightblue" stroke="midnightblue" points="1673.6,-125.422 1684.01,-123.476 1674.66,-118.503 1673.6,-125.422"/>
</g>
<!-- Node17 -->
<g id="node15" class="node"><title>Node17</title>
<g id="a_node15"><a xlink:href="../../d7/dad/_vhdl_parser_token_manager_8h.html" target="_top" xlink:title="vhdlparser/VhdlParserToken\lManager.h">
<polygon fill="white" stroke="black" points="1483,-56.5 1483,-86.5 1623,-86.5 1623,-56.5 1483,-56.5"/>
<text text-anchor="start" x="1491" y="-74.5" font-family="Helvetica,sans-Serif" font-size="10.00">vhdlparser/VhdlParserToken</text>
<text text-anchor="middle" x="1553" y="-63.5" font-family="Helvetica,sans-Serif" font-size="10.00">Manager.h</text>
</a>
</g>
</g>
<!-- Node16&#45;&gt;Node17 -->
<g id="edge15" class="edge"><title>Node16&#45;&gt;Node17</title>
<path fill="none" stroke="midnightblue" d="M1700.37,-120.609C1667.94,-110.903 1623.38,-96.9159 1591.71,-86.523"/>
<polygon fill="midnightblue" stroke="midnightblue" points="1699.44,-123.982 1710.02,-123.475 1701.43,-117.272 1699.44,-123.982"/>
</g>
<!-- Node18 -->
<g id="node16" class="node"><title>Node18</title>
<g id="a_node16"><a xlink:href="../../da/d40/_vhdl_parser_i_f_8cpp.html" target="_top" xlink:title="vhdlparser/VhdlParserIF.cpp">
<polygon fill="white" stroke="black" points="1581,-0.5 1581,-19.5 1721,-19.5 1721,-0.5 1581,-0.5"/>
<text text-anchor="middle" x="1651" y="-7.5" font-family="Helvetica,sans-Serif" font-size="10.00">vhdlparser/VhdlParserIF.cpp</text>
</a>
</g>
</g>
<!-- Node16&#45;&gt;Node18 -->
<g id="edge18" class="edge"><title>Node16&#45;&gt;Node18</title>
<path fill="none" stroke="midnightblue" d="M1710.45,-119.002C1696.13,-111.603 1680.17,-100.986 1670,-87 1654.97,-66.3183 1651.77,-35.0255 1651.13,-19.8605"/>
<polygon fill="midnightblue" stroke="midnightblue" points="1709.02,-122.197 1719.54,-123.403 1712.07,-115.896 1709.02,-122.197"/>
</g>
<!-- Node19 -->
<g id="node17" class="node"><title>Node19</title>
<g id="a_node17"><a xlink:href="../../dd/d6f/_vhdl_parser_i_f_8h.html" target="_top" xlink:title="vhdlparser/VhdlParserIF.h">
<polygon fill="white" stroke="black" points="1679,-62 1679,-81 1809,-81 1809,-62 1679,-62"/>
<text text-anchor="middle" x="1744" y="-69" font-family="Helvetica,sans-Serif" font-size="10.00">vhdlparser/VhdlParserIF.h</text>
</a>
</g>
</g>
<!-- Node16&#45;&gt;Node19 -->
<g id="edge19" class="edge"><title>Node16&#45;&gt;Node19</title>
<path fill="none" stroke="midnightblue" d="M1742.63,-113.317C1742.99,-102.496 1743.43,-89.398 1743.71,-81.0091"/>
<polygon fill="midnightblue" stroke="midnightblue" points="1739.12,-113.363 1742.29,-123.475 1746.12,-113.598 1739.12,-113.363"/>
</g>
<!-- Node17&#45;&gt;Node16 -->
<g id="edge16" class="edge"><title>Node17&#45;&gt;Node16</title>
<path fill="none" stroke="midnightblue" d="M1613.39,-89.5698C1649.72,-100.668 1693.75,-114.664 1719.82,-123.475"/>
<polygon fill="midnightblue" stroke="midnightblue" points="1613.96,-86.0834 1603.37,-86.523 1611.92,-92.7807 1613.96,-86.0834"/>
</g>
<!-- Node17&#45;&gt;Node18 -->
<g id="edge17" class="edge"><title>Node17&#45;&gt;Node18</title>
<path fill="none" stroke="midnightblue" d="M1585,-51.0688C1602.47,-40.4624 1623.23,-27.8586 1636.74,-19.6578"/>
<polygon fill="midnightblue" stroke="midnightblue" points="1582.96,-48.2177 1576.22,-56.3993 1586.59,-54.2013 1582.96,-48.2177"/>
</g>
<!-- Node19&#45;&gt;Node15 -->
<g id="edge20" class="edge"><title>Node19&#45;&gt;Node15</title>
<path fill="none" stroke="midnightblue" d="M1769.01,-57.2118C1790.7,-45.6881 1821.45,-29.355 1839.98,-19.5091"/>
<polygon fill="midnightblue" stroke="midnightblue" points="1767.24,-54.1926 1760.05,-61.9751 1770.52,-60.3744 1767.24,-54.1926"/>
</g>
<!-- Node19&#45;&gt;Node18 -->
<g id="edge21" class="edge"><title>Node19&#45;&gt;Node18</title>
<path fill="none" stroke="midnightblue" d="M1722.01,-56.4295C1704.08,-44.9589 1679.34,-29.1343 1664.3,-19.5091"/>
<polygon fill="midnightblue" stroke="midnightblue" points="1720.37,-59.534 1730.68,-61.9751 1724.14,-53.6376 1720.37,-59.534"/>
</g>
</g>
</svg>
