<?xml version="1.0" encoding="UTF-8" standalone="no"?>
<!DOCTYPE svg PUBLIC "-//W3C//DTD SVG 1.1//EN"
 "http://www.w3.org/Graphics/SVG/1.1/DTD/svg11.dtd">
<!-- Generated by graphviz version 2.38.0 (20140413.2041)
 -->
<!-- Title: DocSecRefItem Pages: 1 -->
<svg width="308pt" height="152pt"
 viewBox="0.00 0.00 308.00 152.00" xmlns="http://www.w3.org/2000/svg" xmlns:xlink="http://www.w3.org/1999/xlink">
<g id="graph0" class="graph" transform="scale(1 1) rotate(0) translate(4 148)">
<title>DocSecRefItem</title>
<polygon fill="white" stroke="none" points="-4,4 -4,-148 304,-148 304,4 -4,4"/>
<!-- Node4 -->
<g id="node1" class="node"><title>Node4</title>
<polygon fill="#bfbfbf" stroke="black" points="101.5,-0.5 101.5,-19.5 188.5,-19.5 188.5,-0.5 101.5,-0.5"/>
<text text-anchor="middle" x="145" y="-7.5" font-family="Helvetica,sans-Serif" font-size="10.00">DocSecRefItem</text>
</g>
<!-- Node5 -->
<g id="node2" class="node"><title>Node5</title>
<g id="a_node2"><a xlink:href="../../d7/da3/class_comp_accept.html" target="_top" xlink:title="CompAccept\&lt; DocSecRefItem \&gt;">
<polygon fill="white" stroke="black" points="0,-57.5 0,-76.5 162,-76.5 162,-57.5 0,-57.5"/>
<text text-anchor="middle" x="81" y="-64.5" font-family="Helvetica,sans-Serif" font-size="10.00">CompAccept&lt; DocSecRefItem &gt;</text>
</a>
</g>
</g>
<!-- Node5&#45;&gt;Node4 -->
<g id="edge1" class="edge"><title>Node5&#45;&gt;Node4</title>
<path fill="none" stroke="midnightblue" d="M98.7944,-50.708C110.423,-40.715 125.191,-28.0237 134.859,-19.7149"/>
<polygon fill="midnightblue" stroke="midnightblue" points="96.303,-48.2341 91,-57.4062 100.865,-53.543 96.303,-48.2341"/>
</g>
<!-- Node6 -->
<g id="node3" class="node"><title>Node6</title>
<g id="a_node3"><a xlink:href="../../d7/da3/class_comp_accept.html" target="_top" xlink:title="Default accept implementation for compound nodes in the abstract syntax tree. ">
<polygon fill="white" stroke="black" points="32,-124.5 32,-143.5 130,-143.5 130,-124.5 32,-124.5"/>
<text text-anchor="middle" x="81" y="-131.5" font-family="Helvetica,sans-Serif" font-size="10.00">CompAccept&lt; T &gt;</text>
</a>
</g>
</g>
<!-- Node6&#45;&gt;Node5 -->
<g id="edge2" class="edge"><title>Node6&#45;&gt;Node5</title>
<path fill="none" stroke="orange" stroke-dasharray="5,2" d="M81,-114.037C81,-101.67 81,-86.1198 81,-76.6273"/>
<polygon fill="orange" stroke="orange" points="77.5001,-114.234 81,-124.234 84.5001,-114.234 77.5001,-114.234"/>
<text text-anchor="middle" x="127" y="-98" font-family="Helvetica,sans-Serif" font-size="10.00"> &lt; DocSecRefItem &gt;</text>
</g>
<!-- Node7 -->
<g id="node4" class="node"><title>Node7</title>
<g id="a_node4"><a xlink:href="../../d9/d0e/class_doc_node.html" target="_top" xlink:title="Abstract node interface with type information. ">
<polygon fill="white" stroke="black" points="180,-57.5 180,-76.5 238,-76.5 238,-57.5 180,-57.5"/>
<text text-anchor="middle" x="209" y="-64.5" font-family="Helvetica,sans-Serif" font-size="10.00">DocNode</text>
</a>
</g>
</g>
<!-- Node7&#45;&gt;Node4 -->
<g id="edge3" class="edge"><title>Node7&#45;&gt;Node4</title>
<path fill="none" stroke="midnightblue" d="M191.206,-50.708C179.577,-40.715 164.809,-28.0237 155.141,-19.7149"/>
<polygon fill="midnightblue" stroke="midnightblue" points="189.135,-53.543 199,-57.4062 193.697,-48.2341 189.135,-53.543"/>
</g>
<!-- Node7&#45;&gt;Node7 -->
<g id="edge4" class="edge"><title>Node7&#45;&gt;Node7</title>
<path fill="none" stroke="#9a32cd" stroke-dasharray="5,2" d="M248.603,-71.4489C253.091,-70.6158 256,-69.1328 256,-67 256,-63.5 248.167,-61.75 238.375,-61.75"/>
<polygon fill="#9a32cd" stroke="#9a32cd" points="248.071,-67.9798 238.375,-72.25 248.618,-74.9584 248.071,-67.9798"/>
<text text-anchor="middle" x="278" y="-64.5" font-family="Helvetica,sans-Serif" font-size="10.00"> m_parent</text>
</g>
</g>
</svg>
