<?xml version="1.0" encoding="UTF-8" standalone="no"?>
<!DOCTYPE svg PUBLIC "-//W3C//DTD SVG 1.1//EN"
 "http://www.w3.org/Graphics/SVG/1.1/DTD/svg11.dtd">
<!-- Generated by graphviz version 2.38.0 (20140413.2041)
 -->
<!-- Title: DocHtmlListItem Pages: 1 -->
<svg width="250pt" height="152pt"
 viewBox="0.00 0.00 250.00 152.00" xmlns="http://www.w3.org/2000/svg" xmlns:xlink="http://www.w3.org/1999/xlink">
<g id="graph0" class="graph" transform="scale(1 1) rotate(0) translate(4 148)">
<title>DocHtmlListItem</title>
<polygon fill="white" stroke="none" points="-4,4 -4,-148 246,-148 246,4 -4,4"/>
<!-- Node0 -->
<g id="node1" class="node"><title>Node0</title>
<polygon fill="#bfbfbf" stroke="black" points="134.5,-0.5 134.5,-19.5 225.5,-19.5 225.5,-0.5 134.5,-0.5"/>
<text text-anchor="middle" x="180" y="-7.5" font-family="Helvetica,sans-Serif" font-size="10.00">DocHtmlListItem</text>
</g>
<!-- Node1 -->
<g id="node2" class="node"><title>Node1</title>
<g id="a_node2"><a xlink:href="../../d7/da3/class_comp_accept.html" target="_top" xlink:title="CompAccept\&lt; DocHtmlListItem \&gt;">
<polygon fill="white" stroke="black" points="0,-57.5 0,-76.5 166,-76.5 166,-57.5 0,-57.5"/>
<text text-anchor="middle" x="83" y="-64.5" font-family="Helvetica,sans-Serif" font-size="10.00">CompAccept&lt; DocHtmlListItem &gt;</text>
</a>
</g>
</g>
<!-- Node1&#45;&gt;Node0 -->
<g id="edge1" class="edge"><title>Node1&#45;&gt;Node0</title>
<path fill="none" stroke="midnightblue" d="M106.996,-52.394C125.134,-42.1098 149.473,-28.3093 164.95,-19.5334"/>
<polygon fill="midnightblue" stroke="midnightblue" points="105.129,-49.4292 98.1562,-57.4062 108.582,-55.5184 105.129,-49.4292"/>
</g>
<!-- Node2 -->
<g id="node3" class="node"><title>Node2</title>
<g id="a_node3"><a xlink:href="../../d7/da3/class_comp_accept.html" target="_top" xlink:title="Default accept implementation for compound nodes in the abstract syntax tree. ">
<polygon fill="white" stroke="black" points="34,-124.5 34,-143.5 132,-143.5 132,-124.5 34,-124.5"/>
<text text-anchor="middle" x="83" y="-131.5" font-family="Helvetica,sans-Serif" font-size="10.00">CompAccept&lt; T &gt;</text>
</a>
</g>
</g>
<!-- Node2&#45;&gt;Node1 -->
<g id="edge2" class="edge"><title>Node2&#45;&gt;Node1</title>
<path fill="none" stroke="orange" stroke-dasharray="5,2" d="M83,-114.037C83,-101.67 83,-86.1198 83,-76.6273"/>
<polygon fill="orange" stroke="orange" points="79.5001,-114.234 83,-124.234 86.5001,-114.234 79.5001,-114.234"/>
<text text-anchor="middle" x="131" y="-98" font-family="Helvetica,sans-Serif" font-size="10.00"> &lt; DocHtmlListItem &gt;</text>
</g>
<!-- Node3 -->
<g id="node4" class="node"><title>Node3</title>
<g id="a_node4"><a xlink:href="../../d9/d0e/class_doc_node.html" target="_top" xlink:title="Abstract node interface with type information. ">
<polygon fill="white" stroke="black" points="184,-57.5 184,-76.5 242,-76.5 242,-57.5 184,-57.5"/>
<text text-anchor="middle" x="213" y="-64.5" font-family="Helvetica,sans-Serif" font-size="10.00">DocNode</text>
</a>
</g>
</g>
<!-- Node3&#45;&gt;Node0 -->
<g id="edge3" class="edge"><title>Node3&#45;&gt;Node0</title>
<path fill="none" stroke="midnightblue" d="M202.581,-48.6354C196.806,-39.0102 189.875,-27.459 185.229,-19.7149"/>
<polygon fill="midnightblue" stroke="midnightblue" points="199.698,-50.6321 207.844,-57.4062 205.7,-47.0306 199.698,-50.6321"/>
</g>
</g>
</svg>
