<?xml version="1.0" encoding="UTF-8" standalone="no"?>
<!DOCTYPE svg PUBLIC "-//W3C//DTD SVG 1.1//EN"
 "http://www.w3.org/Graphics/SVG/1.1/DTD/svg11.dtd">
<!-- Generated by graphviz version 2.38.0 (20140413.2041)
 -->
<!-- Title: DocAnchor Pages: 1 -->
<svg width="132pt" height="85pt"
 viewBox="0.00 0.00 131.50 85.00" xmlns="http://www.w3.org/2000/svg" xmlns:xlink="http://www.w3.org/1999/xlink">
<g id="graph0" class="graph" transform="scale(1 1) rotate(0) translate(4 81)">
<title>DocAnchor</title>
<polygon fill="white" stroke="none" points="-4,4 -4,-81 127.5,-81 127.5,4 -4,4"/>
<!-- Node2 -->
<g id="node1" class="node"><title>Node2</title>
<polygon fill="#bfbfbf" stroke="black" points="0,-0.5 0,-19.5 65,-19.5 65,-0.5 0,-0.5"/>
<text text-anchor="middle" x="32.5" y="-7.5" font-family="Helvetica,sans-Serif" font-size="10.00">DocAnchor</text>
</g>
<!-- Node3 -->
<g id="node2" class="node"><title>Node3</title>
<g id="a_node2"><a xlink:href="../../d9/d0e/class_doc_node.html" target="_top" xlink:title="Abstract node interface with type information. ">
<polygon fill="white" stroke="black" points="3.5,-57.5 3.5,-76.5 61.5,-76.5 61.5,-57.5 3.5,-57.5"/>
<text text-anchor="middle" x="32.5" y="-64.5" font-family="Helvetica,sans-Serif" font-size="10.00">DocNode</text>
</a>
</g>
</g>
<!-- Node3&#45;&gt;Node2 -->
<g id="edge1" class="edge"><title>Node3&#45;&gt;Node2</title>
<path fill="none" stroke="midnightblue" d="M32.5,-47.1166C32.5,-37.8173 32.5,-27.0557 32.5,-19.7149"/>
<polygon fill="midnightblue" stroke="midnightblue" points="29.0001,-47.4062 32.5,-57.4062 36.0001,-47.4063 29.0001,-47.4062"/>
</g>
<!-- Node3&#45;&gt;Node3 -->
<g id="edge2" class="edge"><title>Node3&#45;&gt;Node3</title>
<path fill="none" stroke="#9a32cd" stroke-dasharray="5,2" d="M72.103,-71.4489C76.5912,-70.6158 79.5,-69.1328 79.5,-67 79.5,-63.5 71.6667,-61.75 61.875,-61.75"/>
<polygon fill="#9a32cd" stroke="#9a32cd" points="71.5711,-67.9798 61.875,-72.25 72.1178,-74.9584 71.5711,-67.9798"/>
<text text-anchor="middle" x="101.5" y="-64.5" font-family="Helvetica,sans-Serif" font-size="10.00"> m_parent</text>
</g>
</g>
</svg>
