<?xml version="1.0" encoding="UTF-8" standalone="no"?>
<!DOCTYPE svg PUBLIC "-//W3C//DTD SVG 1.1//EN"
 "http://www.w3.org/Graphics/SVG/1.1/DTD/svg11.dtd">
<!-- Generated by graphviz version 2.38.0 (20140413.2041)
 -->
<!-- Title: TemplateNodeCloseSubIndex Pages: 1 -->
<svg width="290pt" height="220pt"
 viewBox="0.00 0.00 289.50 220.00" xmlns="http://www.w3.org/2000/svg" xmlns:xlink="http://www.w3.org/1999/xlink">
<g id="graph0" class="graph" transform="scale(1 1) rotate(0) translate(4 216)">
<title>TemplateNodeCloseSubIndex</title>
<polygon fill="white" stroke="none" points="-4,4 -4,-216 285.5,-216 285.5,4 -4,4"/>
<!-- Node0 -->
<g id="node1" class="node"><title>Node0</title>
<polygon fill="#bfbfbf" stroke="black" points="9,-0.5 9,-19.5 156,-19.5 156,-0.5 9,-0.5"/>
<text text-anchor="middle" x="82.5" y="-7.5" font-family="Helvetica,sans-Serif" font-size="10.00">TemplateNodeCloseSubIndex</text>
</g>
<!-- Node1 -->
<g id="node2" class="node"><title>Node1</title>
<g id="a_node2"><a xlink:href="../../d8/d78/class_template_node_creator.html" target="_top" xlink:title="TemplateNodeCreator\l\&lt; TemplateNodeCloseSubIndex \&gt;">
<polygon fill="white" stroke="black" points="0,-57.5 0,-87.5 165,-87.5 165,-57.5 0,-57.5"/>
<text text-anchor="start" x="8" y="-75.5" font-family="Helvetica,sans-Serif" font-size="10.00">TemplateNodeCreator</text>
<text text-anchor="middle" x="82.5" y="-64.5" font-family="Helvetica,sans-Serif" font-size="10.00">&lt; TemplateNodeCloseSubIndex &gt;</text>
</a>
</g>
</g>
<!-- Node1&#45;&gt;Node0 -->
<g id="edge1" class="edge"><title>Node1&#45;&gt;Node0</title>
<path fill="none" stroke="midnightblue" d="M82.5,-47.3524C82.5,-37.5132 82.5,-26.7753 82.5,-19.5399"/>
<polygon fill="midnightblue" stroke="midnightblue" points="79.0001,-47.468 82.5,-57.468 86.0001,-47.4681 79.0001,-47.468"/>
</g>
<!-- Node2 -->
<g id="node3" class="node"><title>Node2</title>
<g id="a_node3"><a xlink:href="../../d6/d53/class_template_node.html" target="_top" xlink:title="Base class of all nodes in a template&#39;s AST. ">
<polygon fill="white" stroke="black" points="56.5,-192.5 56.5,-211.5 136.5,-211.5 136.5,-192.5 56.5,-192.5"/>
<text text-anchor="middle" x="96.5" y="-199.5" font-family="Helvetica,sans-Serif" font-size="10.00">TemplateNode</text>
</a>
</g>
</g>
<!-- Node2&#45;&gt;Node1 -->
<g id="edge2" class="edge"><title>Node2&#45;&gt;Node1</title>
<path fill="none" stroke="midnightblue" d="M91.1925,-182.502C89.0316,-174.169 86.7518,-164.164 85.5,-155 82.2998,-131.572 81.9982,-104.028 82.1753,-87.7075"/>
<polygon fill="midnightblue" stroke="midnightblue" points="87.8528,-183.558 93.8681,-192.28 94.6046,-181.71 87.8528,-183.558"/>
</g>
<!-- Node3 -->
<g id="node4" class="node"><title>Node3</title>
<g id="a_node4"><a xlink:href="../../d8/d78/class_template_node_creator.html" target="_top" xlink:title="Helper class for creating template AST tag nodes and returning the template for a given node...">
<polygon fill="white" stroke="black" points="95,-135.5 95,-154.5 232,-154.5 232,-135.5 95,-135.5"/>
<text text-anchor="middle" x="163.5" y="-142.5" font-family="Helvetica,sans-Serif" font-size="10.00">TemplateNodeCreator&lt; T &gt;</text>
</a>
</g>
</g>
<!-- Node2&#45;&gt;Node3 -->
<g id="edge4" class="edge"><title>Node2&#45;&gt;Node3</title>
<path fill="none" stroke="midnightblue" d="M114.775,-185.998C127.001,-175.962 142.664,-163.104 152.884,-154.715"/>
<polygon fill="midnightblue" stroke="midnightblue" points="112.477,-183.356 106.969,-192.406 116.919,-188.767 112.477,-183.356"/>
</g>
<!-- Node3&#45;&gt;Node1 -->
<g id="edge3" class="edge"><title>Node3&#45;&gt;Node1</title>
<path fill="none" stroke="orange" stroke-dasharray="5,2" d="M146.018,-128.784C131.962,-116.551 112.369,-99.497 98.6726,-87.5762"/>
<polygon fill="orange" stroke="orange" points="143.727,-131.43 153.568,-135.355 148.323,-126.15 143.727,-131.43"/>
<text text-anchor="middle" x="205.5" y="-109" font-family="Helvetica,sans-Serif" font-size="10.00"> &lt; TemplateNodeCloseSubIndex &gt;</text>
</g>
</g>
</svg>
