<?xml version="1.0" encoding="UTF-8" standalone="no"?>
<!DOCTYPE svg PUBLIC "-//W3C//DTD SVG 1.1//EN"
 "http://www.w3.org/Graphics/SVG/1.1/DTD/svg11.dtd">
<!-- Generated by graphviz version 2.38.0 (20140413.2041)
 -->
<!-- Title: src/tooltip.cpp Pages: 1 -->
<!--zoomable 364 -->
<svg id="main" version="1.1" xmlns="http://www.w3.org/2000/svg" xmlns:xlink="http://www.w3.org/1999/xlink" xml:space="preserve" onload="init(evt)">
<style type="text/css"><![CDATA[
.edge:hover path { stroke: red; }
.edge:hover polygon { stroke: red; fill: red; }
]]></style>
<script type="text/javascript"><![CDATA[
var edges = document.getElementsByTagName('g');
if (edges && edges.length) {
  for (var i=0;i<edges.length;i++) {
    if (edges[i].id.substr(0,4)=='edge') {
      edges[i].setAttribute('class','edge');
    }
  }
}
]]></script>
        <defs>
                <circle id="rim" cx="0" cy="0" r="7"/>
                <circle id="rim2" cx="0" cy="0" r="3.5"/>
                <g id="zoomPlus">
                        <use xlink:href="#rim" fill="#404040">
                                <set attributeName="fill" to="#808080" begin="zoomplus.mouseover" end="zoomplus.mouseout"/>
                        </use>
                        <path d="M-4,0h8M0,-4v8" fill="none" stroke="white" stroke-width="1.5" pointer-events="none"/>
                </g>
                <g id="zoomMin">
                        <use xlink:href="#rim" fill="#404040">
                                <set attributeName="fill" to="#808080" begin="zoomminus.mouseover" end="zoomminus.mouseout"/>
                        </use>
                        <path d="M-4,0h8" fill="none" stroke="white" stroke-width="1.5" pointer-events="none"/>
                </g>
                <g id="dirArrow">
                        <path fill="none" stroke="white" stroke-width="1.5" d="M0,-3.0v7 M-2.5,-0.5L0,-3.0L2.5,-0.5"/>
                </g>
               <g id="resetDef">
                       <use xlink:href="#rim2" fill="#404040">
                               <set attributeName="fill" to="#808080" begin="reset.mouseover" end="reset.mouseout"/>
                       </use>
               </g>
        </defs>

<script type="text/javascript">
var viewWidth = 1520;
var viewHeight = 364;
var sectionId = 'dynsection-0';
</script>
<script xlink:href="../../svgpan.js"/>
<svg id="graph" class="graph">
<g id="viewport">
<title>src/tooltip.cpp</title>
<polygon fill="white" stroke="none" points="-4,4 -4,-360 1516,-360 1516,4 -4,4"/>
<!-- Node0 -->
<g id="node1" class="node"><title>Node0</title>
<polygon fill="#bfbfbf" stroke="black" points="818,-336.5 818,-355.5 896,-355.5 896,-336.5 818,-336.5"/>
<text text-anchor="middle" x="857" y="-343.5" font-family="Helvetica,sans-Serif" font-size="10.00">src/tooltip.cpp</text>
</g>
<!-- Node1 -->
<g id="node2" class="node"><title>Node1</title>
<polygon fill="white" stroke="#bfbfbf" points="285,-56.5 285,-75.5 331,-75.5 331,-56.5 285,-56.5"/>
<text text-anchor="middle" x="308" y="-63.5" font-family="Helvetica,sans-Serif" font-size="10.00">qdict.h</text>
</g>
<!-- Node0&#45;&gt;Node1 -->
<g id="edge1" class="edge"><title>Node0&#45;&gt;Node1</title>
<path fill="none" stroke="midnightblue" d="M817.95,-344.157C650.295,-340.029 0,-318.628 0,-235 0,-235 0,-235 0,-177 0,-119.128 195.291,-83.6736 274.86,-71.6301"/>
<polygon fill="midnightblue" stroke="midnightblue" points="275.471,-75.0779 284.85,-70.1496 274.445,-68.1536 275.471,-75.0779"/>
</g>
<!-- Node2 -->
<g id="node3" class="node"><title>Node2</title>
<g id="a_node3"><a xlink:href="../../db/d83/tooltip_8h.html" target="_top" xlink:title="tooltip.h">
<polygon fill="white" stroke="black" points="1049.5,-280.5 1049.5,-299.5 1100.5,-299.5 1100.5,-280.5 1049.5,-280.5"/>
<text text-anchor="middle" x="1075" y="-287.5" font-family="Helvetica,sans-Serif" font-size="10.00">tooltip.h</text>
</a>
</g>
</g>
<!-- Node0&#45;&gt;Node2 -->
<g id="edge2" class="edge"><title>Node0&#45;&gt;Node2</title>
<path fill="none" stroke="midnightblue" d="M891.543,-336.444C932.051,-326.409 998.841,-309.865 1039.68,-299.749"/>
<polygon fill="midnightblue" stroke="midnightblue" points="1040.61,-303.125 1049.47,-297.323 1038.93,-296.33 1040.61,-303.125"/>
</g>
<!-- Node3 -->
<g id="node4" class="node"><title>Node3</title>
<g id="a_node4"><a xlink:href="../../df/da1/definition_8h.html" target="_top" xlink:title="definition.h">
<polygon fill="white" stroke="black" points="496,-112.5 496,-131.5 560,-131.5 560,-112.5 496,-112.5"/>
<text text-anchor="middle" x="528" y="-119.5" font-family="Helvetica,sans-Serif" font-size="10.00">definition.h</text>
</a>
</g>
</g>
<!-- Node0&#45;&gt;Node3 -->
<g id="edge3" class="edge"><title>Node0&#45;&gt;Node3</title>
<path fill="none" stroke="midnightblue" d="M817.849,-342.82C668.775,-334.121 142.6,-299.649 95,-244 41.7491,-181.745 366.961,-140.229 485.778,-127.3"/>
<polygon fill="midnightblue" stroke="midnightblue" points="486.386,-130.754 495.955,-126.207 485.639,-123.794 486.386,-130.754"/>
</g>
<!-- Node7 -->
<g id="node8" class="node"><title>Node7</title>
<g id="a_node8"><a xlink:href="../../df/d06/outputgen_8h.html" target="_top" xlink:title="outputgen.h">
<polygon fill="white" stroke="black" points="925,-280.5 925,-299.5 993,-299.5 993,-280.5 925,-280.5"/>
<text text-anchor="middle" x="959" y="-287.5" font-family="Helvetica,sans-Serif" font-size="10.00">outputgen.h</text>
</a>
</g>
</g>
<!-- Node0&#45;&gt;Node7 -->
<g id="edge8" class="edge"><title>Node0&#45;&gt;Node7</title>
<path fill="none" stroke="midnightblue" d="M873.388,-336.324C889.671,-327.703 914.867,-314.364 933.716,-304.386"/>
<polygon fill="midnightblue" stroke="midnightblue" points="935.452,-307.427 942.653,-299.655 932.177,-301.24 935.452,-307.427"/>
</g>
<!-- Node18 -->
<g id="node19" class="node"><title>Node18</title>
<g id="a_node19"><a xlink:href="../../d8/d3c/util_8h.html" target="_top" xlink:title="A bunch of utility functions. ">
<polygon fill="white" stroke="black" points="1301,-224.5 1301,-243.5 1339,-243.5 1339,-224.5 1301,-224.5"/>
<text text-anchor="middle" x="1320" y="-231.5" font-family="Helvetica,sans-Serif" font-size="10.00">util.h</text>
</a>
</g>
</g>
<!-- Node0&#45;&gt;Node18 -->
<g id="edge23" class="edge"><title>Node0&#45;&gt;Node18</title>
<path fill="none" stroke="midnightblue" d="M890.728,-336.424C920.517,-328.407 964.864,-315.382 1002,-300 1019.63,-292.696 1021.84,-285.88 1040,-280 1144.59,-246.13 1179.76,-268.075 1290.92,-243.867"/>
<polygon fill="midnightblue" stroke="midnightblue" points="1291.85,-247.245 1300.84,-241.63 1290.31,-240.416 1291.85,-247.245"/>
</g>
<!-- Node23 -->
<g id="node24" class="node"><title>Node23</title>
<g id="a_node24"><a xlink:href="../../d4/d3a/filedef_8h.html" target="_top" xlink:title="filedef.h">
<polygon fill="white" stroke="black" points="730.5,-280.5 730.5,-299.5 781.5,-299.5 781.5,-280.5 730.5,-280.5"/>
<text text-anchor="middle" x="756" y="-287.5" font-family="Helvetica,sans-Serif" font-size="10.00">filedef.h</text>
</a>
</g>
</g>
<!-- Node0&#45;&gt;Node23 -->
<g id="edge36" class="edge"><title>Node0&#45;&gt;Node23</title>
<path fill="none" stroke="midnightblue" d="M840.773,-336.324C824.649,-327.703 799.7,-314.364 781.036,-304.386"/>
<polygon fill="midnightblue" stroke="midnightblue" points="782.656,-301.283 772.187,-299.655 779.356,-307.456 782.656,-301.283"/>
</g>
<!-- Node27 -->
<g id="node28" class="node"><title>Node27</title>
<g id="a_node28"><a xlink:href="../../d1/da1/doxygen_8h.html" target="_top" xlink:title="doxygen.h">
<polygon fill="white" stroke="black" points="461,-280.5 461,-299.5 523,-299.5 523,-280.5 461,-280.5"/>
<text text-anchor="middle" x="492" y="-287.5" font-family="Helvetica,sans-Serif" font-size="10.00">doxygen.h</text>
</a>
</g>
</g>
<!-- Node0&#45;&gt;Node27 -->
<g id="edge52" class="edge"><title>Node0&#45;&gt;Node27</title>
<path fill="none" stroke="midnightblue" d="M817.939,-339.221C748.525,-328.952 604.325,-307.618 533.323,-297.114"/>
<polygon fill="midnightblue" stroke="midnightblue" points="533.801,-293.646 523.396,-295.645 532.776,-300.571 533.801,-293.646"/>
</g>
<!-- Node33 -->
<g id="node34" class="node"><title>Node33</title>
<g id="a_node34"><a xlink:href="../../db/d16/config_8h.html" target="_top" xlink:title="config.h">
<polygon fill="white" stroke="black" points="1368.5,-280.5 1368.5,-299.5 1419.5,-299.5 1419.5,-280.5 1368.5,-280.5"/>
<text text-anchor="middle" x="1394" y="-287.5" font-family="Helvetica,sans-Serif" font-size="10.00">config.h</text>
</a>
</g>
</g>
<!-- Node0&#45;&gt;Node33 -->
<g id="edge69" class="edge"><title>Node0&#45;&gt;Node33</title>
<path fill="none" stroke="midnightblue" d="M896.052,-341.073C996.317,-330.99 1261.69,-304.305 1358.24,-294.596"/>
<polygon fill="midnightblue" stroke="midnightblue" points="1358.77,-298.061 1368.37,-293.578 1358.07,-291.096 1358.77,-298.061"/>
</g>
<!-- Node3&#45;&gt;Node1 -->
<g id="edge5" class="edge"><title>Node3&#45;&gt;Node1</title>
<path fill="none" stroke="midnightblue" d="M495.538,-113.032C454.108,-102.863 382.82,-85.3648 341.09,-75.1221"/>
<polygon fill="midnightblue" stroke="midnightblue" points="341.7,-71.668 331.154,-72.6832 340.031,-78.4662 341.7,-71.668"/>
</g>
<!-- Node4 -->
<g id="node5" class="node"><title>Node4</title>
<polygon fill="white" stroke="#bfbfbf" points="918.5,-56.5 918.5,-75.5 961.5,-75.5 961.5,-56.5 918.5,-56.5"/>
<text text-anchor="middle" x="940" y="-63.5" font-family="Helvetica,sans-Serif" font-size="10.00">qlist.h</text>
</g>
<!-- Node3&#45;&gt;Node4 -->
<g id="edge4" class="edge"><title>Node3&#45;&gt;Node4</title>
<path fill="none" stroke="midnightblue" d="M560.329,-116.763C637.51,-106.647 831.78,-81.1842 908.31,-71.1535"/>
<polygon fill="midnightblue" stroke="midnightblue" points="908.843,-74.6138 918.303,-69.8438 907.933,-67.6731 908.843,-74.6138"/>
</g>
<!-- Node5 -->
<g id="node6" class="node"><title>Node5</title>
<g id="a_node6"><a xlink:href="../../d9/d49/types_8h.html" target="_top" xlink:title="This file contains a number of basic enums and types. ">
<polygon fill="white" stroke="black" points="601.5,-56.5 601.5,-75.5 650.5,-75.5 650.5,-56.5 601.5,-56.5"/>
<text text-anchor="middle" x="626" y="-63.5" font-family="Helvetica,sans-Serif" font-size="10.00">types.h</text>
</a>
</g>
</g>
<!-- Node3&#45;&gt;Node5 -->
<g id="edge6" class="edge"><title>Node3&#45;&gt;Node5</title>
<path fill="none" stroke="midnightblue" d="M543.745,-112.324C559.319,-103.743 583.377,-90.486 601.459,-80.5224"/>
<polygon fill="midnightblue" stroke="midnightblue" points="603.224,-83.546 610.294,-75.6545 599.846,-77.4152 603.224,-83.546"/>
</g>
<!-- Node6 -->
<g id="node7" class="node"><title>Node6</title>
<polygon fill="white" stroke="#bfbfbf" points="1286.5,-0.5 1286.5,-19.5 1345.5,-19.5 1345.5,-0.5 1286.5,-0.5"/>
<text text-anchor="middle" x="1316" y="-7.5" font-family="Helvetica,sans-Serif" font-size="10.00">qcstring.h</text>
</g>
<!-- Node5&#45;&gt;Node6 -->
<g id="edge7" class="edge"><title>Node5&#45;&gt;Node6</title>
<path fill="none" stroke="midnightblue" d="M650.557,-63.0781C753.3,-55.0374 1149.22,-24.0523 1276.41,-14.0982"/>
<polygon fill="midnightblue" stroke="midnightblue" points="1276.79,-17.5792 1286.49,-13.3095 1276.25,-10.6005 1276.79,-17.5792"/>
</g>
<!-- Node8 -->
<g id="node9" class="node"><title>Node8</title>
<polygon fill="white" stroke="#bfbfbf" points="1229,-224.5 1229,-243.5 1283,-243.5 1283,-224.5 1229,-224.5"/>
<text text-anchor="middle" x="1256" y="-231.5" font-family="Helvetica,sans-Serif" font-size="10.00">qstack.h</text>
</g>
<!-- Node7&#45;&gt;Node8 -->
<g id="edge9" class="edge"><title>Node7&#45;&gt;Node8</title>
<path fill="none" stroke="midnightblue" d="M993.078,-282.55C997.754,-281.682 1002.49,-280.812 1007,-280 1099.33,-263.355 1122.94,-262.062 1215,-244 1216.25,-243.755 1217.51,-243.502 1218.79,-243.243"/>
<polygon fill="midnightblue" stroke="midnightblue" points="1219.62,-246.647 1228.69,-241.173 1218.18,-239.795 1219.62,-246.647"/>
</g>
<!-- Node9 -->
<g id="node10" class="node"><title>Node9</title>
<g id="a_node10"><a xlink:href="../../d1/db5/index_8h.html" target="_top" xlink:title="index.h">
<polygon fill="white" stroke="black" points="1245,-112.5 1245,-131.5 1293,-131.5 1293,-112.5 1245,-112.5"/>
<text text-anchor="middle" x="1269" y="-119.5" font-family="Helvetica,sans-Serif" font-size="10.00">index.h</text>
</a>
</g>
</g>
<!-- Node7&#45;&gt;Node9 -->
<g id="edge10" class="edge"><title>Node7&#45;&gt;Node9</title>
<path fill="none" stroke="midnightblue" d="M993.331,-285.125C1088.03,-274.425 1346.12,-245.174 1348,-244 1379.72,-224.232 1405.07,-198.871 1384,-168 1379.13,-160.859 1334.73,-144.85 1302.56,-133.984"/>
<polygon fill="midnightblue" stroke="midnightblue" points="1303.62,-130.647 1293.02,-130.792 1301.4,-137.285 1303.62,-130.647"/>
</g>
<!-- Node10 -->
<g id="node11" class="node"><title>Node10</title>
<g id="a_node11"><a xlink:href="../../d1/d2a/section_8h.html" target="_top" xlink:title="section.h">
<polygon fill="white" stroke="black" points="734,-224.5 734,-243.5 790,-243.5 790,-224.5 734,-224.5"/>
<text text-anchor="middle" x="762" y="-231.5" font-family="Helvetica,sans-Serif" font-size="10.00">section.h</text>
</a>
</g>
</g>
<!-- Node7&#45;&gt;Node10 -->
<g id="edge13" class="edge"><title>Node7&#45;&gt;Node10</title>
<path fill="none" stroke="midnightblue" d="M927.785,-280.444C893.174,-270.956 837.334,-255.65 800.155,-245.459"/>
<polygon fill="midnightblue" stroke="midnightblue" points="800.766,-241.997 790.197,-242.729 798.916,-248.748 800.766,-241.997"/>
</g>
<!-- Node13 -->
<g id="node14" class="node"><title>Node13</title>
<g id="a_node14"><a xlink:href="../../df/d83/ftextstream_8h.html" target="_top" xlink:title="ftextstream.h">
<polygon fill="white" stroke="black" points="973,-224.5 973,-243.5 1047,-243.5 1047,-224.5 973,-224.5"/>
<text text-anchor="middle" x="1010" y="-231.5" font-family="Helvetica,sans-Serif" font-size="10.00">ftextstream.h</text>
</a>
</g>
</g>
<!-- Node7&#45;&gt;Node13 -->
<g id="edge18" class="edge"><title>Node7&#45;&gt;Node13</title>
<path fill="none" stroke="midnightblue" d="M967.422,-280.083C974.848,-272.22 985.852,-260.569 994.812,-251.081"/>
<polygon fill="midnightblue" stroke="midnightblue" points="997.413,-253.424 1001.74,-243.751 992.324,-248.618 997.413,-253.424"/>
</g>
<!-- Node9&#45;&gt;Node4 -->
<g id="edge11" class="edge"><title>Node9&#45;&gt;Node4</title>
<path fill="none" stroke="midnightblue" d="M1244.93,-114.09C1241.93,-113.333 1238.9,-112.615 1236,-112 1140.65,-91.8203 1026.19,-77.0608 971.757,-70.607"/>
<polygon fill="midnightblue" stroke="midnightblue" points="972.034,-67.1157 961.695,-69.4279 971.22,-74.0681 972.034,-67.1157"/>
</g>
<!-- Node9&#45;&gt;Node6 -->
<g id="edge12" class="edge"><title>Node9&#45;&gt;Node6</title>
<path fill="none" stroke="midnightblue" d="M1272.69,-112.368C1280.34,-94.4563 1298.09,-52.9233 1308.33,-28.9482"/>
<polygon fill="midnightblue" stroke="midnightblue" points="1311.62,-30.1624 1312.33,-19.5914 1305.18,-27.412 1311.62,-30.1624"/>
</g>
<!-- Node11 -->
<g id="node12" class="node"><title>Node11</title>
<g id="a_node12"><a xlink:href="../../d9/d21/sortdict_8h.html" target="_top" xlink:title="sortdict.h">
<polygon fill="white" stroke="black" points="582.5,-168.5 582.5,-187.5 639.5,-187.5 639.5,-168.5 582.5,-168.5"/>
<text text-anchor="middle" x="611" y="-175.5" font-family="Helvetica,sans-Serif" font-size="10.00">sortdict.h</text>
</a>
</g>
</g>
<!-- Node10&#45;&gt;Node11 -->
<g id="edge14" class="edge"><title>Node10&#45;&gt;Node11</title>
<path fill="none" stroke="midnightblue" d="M738.074,-224.444C712.781,-215.399 672.698,-201.064 644.32,-190.916"/>
<polygon fill="midnightblue" stroke="midnightblue" points="645.409,-187.588 634.814,-187.516 643.052,-194.179 645.409,-187.588"/>
</g>
<!-- Node11&#45;&gt;Node1 -->
<g id="edge16" class="edge"><title>Node11&#45;&gt;Node1</title>
<path fill="none" stroke="midnightblue" d="M587.228,-168.375C562.266,-159.317 521.874,-144.66 487,-132 435.868,-113.438 376.523,-91.8866 340.642,-78.8555"/>
<polygon fill="midnightblue" stroke="midnightblue" points="341.765,-75.5396 331.171,-75.4156 339.375,-82.1191 341.765,-75.5396"/>
</g>
<!-- Node11&#45;&gt;Node4 -->
<g id="edge15" class="edge"><title>Node11&#45;&gt;Node4</title>
<path fill="none" stroke="midnightblue" d="M617.891,-168.158C629.596,-153.823 654.848,-125.733 683,-112 757.909,-75.4592 857.902,-68.1987 908.223,-67.0051"/>
<polygon fill="midnightblue" stroke="midnightblue" points="908.529,-70.5005 918.468,-66.8312 908.41,-63.5015 908.529,-70.5005"/>
</g>
<!-- Node12 -->
<g id="node13" class="node"><title>Node12</title>
<polygon fill="white" stroke="#bfbfbf" points="346,-112.5 346,-131.5 402,-131.5 402,-112.5 346,-112.5"/>
<text text-anchor="middle" x="374" y="-119.5" font-family="Helvetica,sans-Serif" font-size="10.00">qintdict.h</text>
</g>
<!-- Node11&#45;&gt;Node12 -->
<g id="edge17" class="edge"><title>Node11&#45;&gt;Node12</title>
<path fill="none" stroke="midnightblue" d="M582.412,-170.486C539.859,-160.791 459.78,-142.545 412.233,-131.711"/>
<polygon fill="midnightblue" stroke="midnightblue" points="412.848,-128.262 402.32,-129.453 411.293,-135.087 412.848,-128.262"/>
</g>
<!-- Node14 -->
<g id="node15" class="node"><title>Node14</title>
<polygon fill="white" stroke="#bfbfbf" points="1181,-112.5 1181,-131.5 1227,-131.5 1227,-112.5 1181,-112.5"/>
<text text-anchor="middle" x="1204" y="-119.5" font-family="Helvetica,sans-Serif" font-size="10.00">stdio.h</text>
</g>
<!-- Node13&#45;&gt;Node14 -->
<g id="edge19" class="edge"><title>Node13&#45;&gt;Node14</title>
<path fill="none" stroke="midnightblue" d="M1023.98,-224.355C1044.59,-211.678 1084.43,-187.441 1119,-168 1138.59,-156.984 1161.07,-145.114 1177.99,-136.332"/>
<polygon fill="midnightblue" stroke="midnightblue" points="1179.97,-139.248 1187.25,-131.547 1176.76,-133.029 1179.97,-139.248"/>
</g>
<!-- Node15 -->
<g id="node16" class="node"><title>Node15</title>
<polygon fill="white" stroke="#bfbfbf" points="1128,-168.5 1128,-187.5 1194,-187.5 1194,-168.5 1128,-168.5"/>
<text text-anchor="middle" x="1161" y="-175.5" font-family="Helvetica,sans-Serif" font-size="10.00">qiodevice.h</text>
</g>
<!-- Node13&#45;&gt;Node15 -->
<g id="edge20" class="edge"><title>Node13&#45;&gt;Node15</title>
<path fill="none" stroke="midnightblue" d="M1033.93,-224.444C1059.22,-215.399 1099.3,-201.064 1127.68,-190.916"/>
<polygon fill="midnightblue" stroke="midnightblue" points="1128.95,-194.179 1137.19,-187.516 1126.59,-187.588 1128.95,-194.179"/>
</g>
<!-- Node16 -->
<g id="node17" class="node"><title>Node16</title>
<polygon fill="white" stroke="#bfbfbf" points="940,-168.5 940,-187.5 994,-187.5 994,-168.5 940,-168.5"/>
<text text-anchor="middle" x="967" y="-175.5" font-family="Helvetica,sans-Serif" font-size="10.00">qstring.h</text>
</g>
<!-- Node13&#45;&gt;Node16 -->
<g id="edge21" class="edge"><title>Node13&#45;&gt;Node16</title>
<path fill="none" stroke="midnightblue" d="M1002.9,-224.083C996.763,-216.377 987.73,-205.033 980.261,-195.653"/>
<polygon fill="midnightblue" stroke="midnightblue" points="982.936,-193.394 973.968,-187.751 977.46,-197.754 982.936,-193.394"/>
</g>
<!-- Node17 -->
<g id="node18" class="node"><title>Node17</title>
<polygon fill="white" stroke="#bfbfbf" points="1012.5,-168.5 1012.5,-187.5 1071.5,-187.5 1071.5,-168.5 1012.5,-168.5"/>
<text text-anchor="middle" x="1042" y="-175.5" font-family="Helvetica,sans-Serif" font-size="10.00">qgstring.h</text>
</g>
<!-- Node13&#45;&gt;Node17 -->
<g id="edge22" class="edge"><title>Node13&#45;&gt;Node17</title>
<path fill="none" stroke="midnightblue" d="M1015.28,-224.083C1019.71,-216.613 1026.16,-205.724 1031.62,-196.52"/>
<polygon fill="midnightblue" stroke="midnightblue" points="1034.73,-198.138 1036.81,-187.751 1028.71,-194.57 1034.73,-198.138"/>
</g>
<!-- Node18&#45;&gt;Node4 -->
<g id="edge24" class="edge"><title>Node18&#45;&gt;Node4</title>
<path fill="none" stroke="midnightblue" d="M1316.24,-224.449C1309.69,-210.533 1294.86,-183.03 1274,-168 1261.34,-158.882 1052.78,-99.038 971.797,-76.0097"/>
<polygon fill="midnightblue" stroke="midnightblue" points="972.265,-72.5044 961.689,-73.1385 970.352,-79.238 972.265,-72.5044"/>
</g>
<!-- Node18&#45;&gt;Node5 -->
<g id="edge26" class="edge"><title>Node18&#45;&gt;Node5</title>
<path fill="none" stroke="midnightblue" d="M1307.68,-224.313C1287.04,-210.2 1243.74,-182.421 1203,-168 1005.42,-98.0673 752.014,-75.2748 660.714,-69.0457"/>
<polygon fill="midnightblue" stroke="midnightblue" points="660.854,-65.5474 650.645,-68.3818 660.393,-72.5322 660.854,-65.5474"/>
</g>
<!-- Node18&#45;&gt;Node11 -->
<g id="edge27" class="edge"><title>Node18&#45;&gt;Node11</title>
<path fill="none" stroke="midnightblue" d="M1300.88,-226.155C1297.94,-225.306 1294.91,-224.545 1292,-224 1027.24,-174.394 955.307,-211.849 687,-188 674.921,-186.926 661.796,-185.474 649.905,-184.05"/>
<polygon fill="midnightblue" stroke="midnightblue" points="650.181,-180.558 639.83,-182.816 649.33,-187.506 650.181,-180.558"/>
</g>
<!-- Node19 -->
<g id="node20" class="node"><title>Node19</title>
<polygon fill="white" stroke="#bfbfbf" points="1326.5,-168.5 1326.5,-187.5 1375.5,-187.5 1375.5,-168.5 1326.5,-168.5"/>
<text text-anchor="middle" x="1351" y="-175.5" font-family="Helvetica,sans-Serif" font-size="10.00">ctype.h</text>
</g>
<!-- Node18&#45;&gt;Node19 -->
<g id="edge25" class="edge"><title>Node18&#45;&gt;Node19</title>
<path fill="none" stroke="midnightblue" d="M1325.12,-224.083C1329.41,-216.613 1335.66,-205.724 1340.94,-196.52"/>
<polygon fill="midnightblue" stroke="midnightblue" points="1344.03,-198.166 1345.98,-187.751 1337.96,-194.681 1344.03,-198.166"/>
</g>
<!-- Node20 -->
<g id="node21" class="node"><title>Node20</title>
<g id="a_node21"><a xlink:href="../../de/d9c/docparser_8h.html" target="_top" xlink:title="docparser.h">
<polygon fill="white" stroke="black" points="1432,-168.5 1432,-187.5 1500,-187.5 1500,-168.5 1432,-168.5"/>
<text text-anchor="middle" x="1466" y="-175.5" font-family="Helvetica,sans-Serif" font-size="10.00">docparser.h</text>
</a>
</g>
</g>
<!-- Node18&#45;&gt;Node20 -->
<g id="edge28" class="edge"><title>Node18&#45;&gt;Node20</title>
<path fill="none" stroke="midnightblue" d="M1339.09,-225.94C1362.87,-217.143 1403.91,-201.965 1432.87,-191.253"/>
<polygon fill="midnightblue" stroke="midnightblue" points="1434.4,-194.42 1442.56,-187.669 1431.97,-187.855 1434.4,-194.42"/>
</g>
<!-- Node20&#45;&gt;Node4 -->
<g id="edge30" class="edge"><title>Node20&#45;&gt;Node4</title>
<path fill="none" stroke="midnightblue" d="M1438.53,-168.434C1412.71,-160.092 1373.18,-146.569 1340,-132 1322.53,-124.327 1320.21,-117.714 1302,-112 1184.33,-75.0744 1036.21,-68.2874 972.057,-67.1537"/>
<polygon fill="midnightblue" stroke="midnightblue" points="971.837,-63.6504 961.788,-67.009 971.738,-70.6497 971.837,-63.6504"/>
</g>
<!-- Node20&#45;&gt;Node6 -->
<g id="edge31" class="edge"><title>Node20&#45;&gt;Node6</title>
<path fill="none" stroke="midnightblue" d="M1478.49,-168.483C1494.94,-156.163 1520.43,-132.587 1508,-112 1474.97,-57.2968 1401.38,-30.7393 1355.51,-19.0484"/>
<polygon fill="midnightblue" stroke="midnightblue" points="1356.15,-15.6022 1345.61,-16.6451 1354.5,-22.4048 1356.15,-15.6022"/>
</g>
<!-- Node20&#45;&gt;Node14 -->
<g id="edge29" class="edge"><title>Node20&#45;&gt;Node14</title>
<path fill="none" stroke="midnightblue" d="M1431.91,-171.22C1388.78,-163.714 1312.03,-149.712 1237.09,-132.106"/>
<polygon fill="midnightblue" stroke="midnightblue" points="1237.55,-128.618 1227.01,-129.713 1235.93,-135.428 1237.55,-128.618"/>
</g>
<!-- Node21 -->
<g id="node22" class="node"><title>Node21</title>
<g id="a_node22"><a xlink:href="../../d2/d3c/docvisitor_8h.html" target="_top" xlink:title="docvisitor.h">
<polygon fill="white" stroke="black" points="1432.5,-112.5 1432.5,-131.5 1499.5,-131.5 1499.5,-112.5 1432.5,-112.5"/>
<text text-anchor="middle" x="1466" y="-119.5" font-family="Helvetica,sans-Serif" font-size="10.00">docvisitor.h</text>
</a>
</g>
</g>
<!-- Node20&#45;&gt;Node21 -->
<g id="edge32" class="edge"><title>Node20&#45;&gt;Node21</title>
<path fill="none" stroke="midnightblue" d="M1466,-168.083C1466,-161.006 1466,-150.861 1466,-141.986"/>
<polygon fill="midnightblue" stroke="midnightblue" points="1469.5,-141.751 1466,-131.751 1462.5,-141.751 1469.5,-141.751"/>
</g>
<!-- Node22 -->
<g id="node23" class="node"><title>Node22</title>
<g id="a_node23"><a xlink:href="../../d0/d73/htmlattrib_8h.html" target="_top" xlink:title="htmlattrib.h">
<polygon fill="white" stroke="black" points="1349.5,-112.5 1349.5,-131.5 1414.5,-131.5 1414.5,-112.5 1349.5,-112.5"/>
<text text-anchor="middle" x="1382" y="-119.5" font-family="Helvetica,sans-Serif" font-size="10.00">htmlattrib.h</text>
</a>
</g>
</g>
<!-- Node20&#45;&gt;Node22 -->
<g id="edge33" class="edge"><title>Node20&#45;&gt;Node22</title>
<path fill="none" stroke="midnightblue" d="M1452.5,-168.324C1439.4,-159.9 1419.29,-146.971 1403.89,-137.074"/>
<polygon fill="midnightblue" stroke="midnightblue" points="1405.77,-134.118 1395.46,-131.655 1401.98,-140.006 1405.77,-134.118"/>
</g>
<!-- Node22&#45;&gt;Node4 -->
<g id="edge35" class="edge"><title>Node22&#45;&gt;Node4</title>
<path fill="none" stroke="midnightblue" d="M1349.44,-114.434C1344.61,-113.556 1339.68,-112.714 1335,-112 1200.61,-91.5078 1039.19,-75.9105 971.891,-69.8064"/>
<polygon fill="midnightblue" stroke="midnightblue" points="972.189,-66.3192 961.916,-68.9089 971.562,-73.291 972.189,-66.3192"/>
</g>
<!-- Node22&#45;&gt;Node6 -->
<g id="edge34" class="edge"><title>Node22&#45;&gt;Node6</title>
<path fill="none" stroke="midnightblue" d="M1376.82,-112.368C1365.98,-94.2957 1340.71,-52.1764 1326.38,-28.3074"/>
<polygon fill="midnightblue" stroke="midnightblue" points="1329.3,-26.3656 1321.15,-19.5914 1323.3,-29.9671 1329.3,-26.3656"/>
</g>
<!-- Node23&#45;&gt;Node1 -->
<g id="edge40" class="edge"><title>Node23&#45;&gt;Node1</title>
<path fill="none" stroke="midnightblue" d="M730.311,-288.034C661.62,-285.062 475.37,-274.344 423,-244 360.665,-207.882 326.25,-122.854 313.634,-85.3358"/>
<polygon fill="midnightblue" stroke="midnightblue" points="316.929,-84.1504 310.529,-75.707 310.267,-86.2986 316.929,-84.1504"/>
</g>
<!-- Node23&#45;&gt;Node3 -->
<g id="edge41" class="edge"><title>Node23&#45;&gt;Node3</title>
<path fill="none" stroke="midnightblue" d="M730.364,-289.005C693.291,-287.689 624.409,-280.113 581,-244 549.221,-217.562 535.918,-168.367 530.828,-141.569"/>
<polygon fill="midnightblue" stroke="midnightblue" points="534.256,-140.853 529.119,-131.587 527.357,-142.034 534.256,-140.853"/>
</g>
<!-- Node23&#45;&gt;Node4 -->
<g id="edge38" class="edge"><title>Node23&#45;&gt;Node4</title>
<path fill="none" stroke="midnightblue" d="M781.721,-286.768C811.387,-282.895 859.924,-272.379 890,-244 935.057,-201.485 940.538,-121.757 940.551,-85.6339"/>
<polygon fill="midnightblue" stroke="midnightblue" points="944.049,-85.489 940.406,-75.5404 937.05,-85.5896 944.049,-85.489"/>
</g>
<!-- Node23&#45;&gt;Node9 -->
<g id="edge37" class="edge"><title>Node23&#45;&gt;Node9</title>
<path fill="none" stroke="midnightblue" d="M781.52,-289.123C853.691,-288.311 1063.09,-277.853 1203,-188 1223.62,-174.758 1243.08,-154.252 1255.45,-139.82"/>
<polygon fill="midnightblue" stroke="midnightblue" points="1258.47,-141.661 1262.18,-131.738 1253.09,-137.179 1258.47,-141.661"/>
</g>
<!-- Node23&#45;&gt;Node11 -->
<g id="edge42" class="edge"><title>Node23&#45;&gt;Node11</title>
<path fill="none" stroke="midnightblue" d="M744.622,-280.368C719.952,-261.653 661.29,-217.151 630.552,-193.832"/>
<polygon fill="midnightblue" stroke="midnightblue" points="632.407,-190.847 622.325,-187.591 628.177,-196.424 632.407,-190.847"/>
</g>
<!-- Node23&#45;&gt;Node12 -->
<g id="edge39" class="edge"><title>Node23&#45;&gt;Node12</title>
<path fill="none" stroke="midnightblue" d="M730.49,-288.234C664.122,-285.798 487.963,-276.371 441,-244 431.545,-237.483 398.808,-173.141 382.865,-141.032"/>
<polygon fill="midnightblue" stroke="midnightblue" points="385.897,-139.269 378.329,-131.855 379.622,-142.37 385.897,-139.269"/>
</g>
<!-- Node24 -->
<g id="node25" class="node"><title>Node24</title>
<g id="a_node25"><a xlink:href="../../dd/d78/memberlist_8h.html" target="_top" xlink:title="memberlist.h">
<polygon fill="white" stroke="black" points="808.5,-224.5 808.5,-243.5 881.5,-243.5 881.5,-224.5 808.5,-224.5"/>
<text text-anchor="middle" x="845" y="-231.5" font-family="Helvetica,sans-Serif" font-size="10.00">memberlist.h</text>
</a>
</g>
</g>
<!-- Node23&#45;&gt;Node24 -->
<g id="edge43" class="edge"><title>Node23&#45;&gt;Node24</title>
<path fill="none" stroke="midnightblue" d="M770.299,-280.324C784.183,-271.9 805.492,-258.971 821.804,-249.074"/>
<polygon fill="midnightblue" stroke="midnightblue" points="824.002,-251.834 830.736,-243.655 820.371,-245.85 824.002,-251.834"/>
</g>
<!-- Node24&#45;&gt;Node4 -->
<g id="edge44" class="edge"><title>Node24&#45;&gt;Node4</title>
<path fill="none" stroke="midnightblue" d="M852.291,-224.316C866.185,-207.435 896.78,-168.631 916,-132 923.86,-117.02 930.326,-98.8843 934.559,-85.5795"/>
<polygon fill="midnightblue" stroke="midnightblue" points="937.998,-86.3014 937.57,-75.7152 931.303,-84.2575 937.998,-86.3014"/>
</g>
<!-- Node24&#45;&gt;Node5 -->
<g id="edge51" class="edge"><title>Node24&#45;&gt;Node5</title>
<path fill="none" stroke="midnightblue" d="M809.32,-224.447C765.719,-213.749 696.536,-195.881 687,-188 654.313,-160.986 637.415,-112.027 630.276,-85.4176"/>
<polygon fill="midnightblue" stroke="midnightblue" points="633.62,-84.3622 627.797,-75.5112 626.83,-86.0618 633.62,-84.3622"/>
</g>
<!-- Node24&#45;&gt;Node11 -->
<g id="edge50" class="edge"><title>Node24&#45;&gt;Node11</title>
<path fill="none" stroke="midnightblue" d="M808.438,-224.562C765.149,-214.573 693.389,-198.013 649.339,-187.847"/>
<polygon fill="midnightblue" stroke="midnightblue" points="650.107,-184.433 639.576,-185.594 648.533,-191.253 650.107,-184.433"/>
</g>
<!-- Node25 -->
<g id="node26" class="node"><title>Node25</title>
<g id="a_node26"><a xlink:href="../../d4/d46/memberdef_8h.html" target="_top" xlink:title="memberdef.h">
<polygon fill="white" stroke="black" points="696,-168.5 696,-187.5 770,-187.5 770,-168.5 696,-168.5"/>
<text text-anchor="middle" x="733" y="-175.5" font-family="Helvetica,sans-Serif" font-size="10.00">memberdef.h</text>
</a>
</g>
</g>
<!-- Node24&#45;&gt;Node25 -->
<g id="edge45" class="edge"><title>Node24&#45;&gt;Node25</title>
<path fill="none" stroke="midnightblue" d="M827.005,-224.324C808.962,-215.625 780.953,-202.12 760.197,-192.113"/>
<polygon fill="midnightblue" stroke="midnightblue" points="761.478,-188.845 750.95,-187.655 758.438,-195.15 761.478,-188.845"/>
</g>
<!-- Node25&#45;&gt;Node3 -->
<g id="edge49" class="edge"><title>Node25&#45;&gt;Node3</title>
<path fill="none" stroke="midnightblue" d="M700.517,-168.444C665.28,-159.162 608.896,-144.309 570.241,-134.127"/>
<polygon fill="midnightblue" stroke="midnightblue" points="570.893,-130.679 560.331,-131.516 569.109,-137.448 570.893,-130.679"/>
</g>
<!-- Node25&#45;&gt;Node4 -->
<g id="edge46" class="edge"><title>Node25&#45;&gt;Node4</title>
<path fill="none" stroke="midnightblue" d="M741.476,-168.275C755.175,-154.606 783.531,-128.047 812,-112 842.796,-94.6412 881.476,-82.1697 908.211,-74.8211"/>
<polygon fill="midnightblue" stroke="midnightblue" points="909.418,-78.1218 918.18,-72.1661 907.616,-71.3576 909.418,-78.1218"/>
</g>
<!-- Node25&#45;&gt;Node5 -->
<g id="edge48" class="edge"><title>Node25&#45;&gt;Node5</title>
<path fill="none" stroke="midnightblue" d="M722.718,-168.372C712.377,-159.551 696.127,-145.298 683,-132 667.431,-116.228 650.859,-97.0264 639.621,-83.5979"/>
<polygon fill="midnightblue" stroke="midnightblue" points="642.148,-81.1631 633.07,-75.7013 636.761,-85.6325 642.148,-81.1631"/>
</g>
<!-- Node26 -->
<g id="node27" class="node"><title>Node26</title>
<polygon fill="white" stroke="#bfbfbf" points="692,-112.5 692,-131.5 760,-131.5 760,-112.5 692,-112.5"/>
<text text-anchor="middle" x="726" y="-119.5" font-family="Helvetica,sans-Serif" font-size="10.00">sys/types.h</text>
</g>
<!-- Node25&#45;&gt;Node26 -->
<g id="edge47" class="edge"><title>Node25&#45;&gt;Node26</title>
<path fill="none" stroke="midnightblue" d="M731.844,-168.083C730.916,-160.927 729.582,-150.635 728.423,-141.691"/>
<polygon fill="midnightblue" stroke="midnightblue" points="731.891,-141.218 727.134,-131.751 724.949,-142.118 731.891,-141.218"/>
</g>
<!-- Node27&#45;&gt;Node1 -->
<g id="edge56" class="edge"><title>Node27&#45;&gt;Node1</title>
<path fill="none" stroke="midnightblue" d="M460.821,-287.808C371.463,-284.073 119.286,-271.194 95,-244 30.3071,-171.56 200.324,-103.236 274.93,-77.6349"/>
<polygon fill="midnightblue" stroke="midnightblue" points="276.432,-80.822 284.789,-74.31 274.195,-74.189 276.432,-80.822"/>
</g>
<!-- Node27&#45;&gt;Node11 -->
<g id="edge59" class="edge"><title>Node27&#45;&gt;Node11</title>
<path fill="none" stroke="midnightblue" d="M523.114,-284.484C564.169,-277.815 633.003,-263.935 648,-244 659.922,-228.153 644.452,-208.081 630.029,-194.465"/>
<polygon fill="midnightblue" stroke="midnightblue" points="632.114,-191.636 622.305,-187.632 627.476,-196.879 632.114,-191.636"/>
</g>
<!-- Node27&#45;&gt;Node12 -->
<g id="edge57" class="edge"><title>Node27&#45;&gt;Node12</title>
<path fill="none" stroke="midnightblue" d="M464.022,-280.479C445.586,-273.489 422.293,-261.803 408,-244 383.834,-213.898 376.831,-167.618 374.811,-141.893"/>
<polygon fill="midnightblue" stroke="midnightblue" points="378.289,-141.422 374.189,-131.653 371.301,-141.846 378.289,-141.422"/>
</g>
<!-- Node27&#45;&gt;Node13 -->
<g id="edge58" class="edge"><title>Node27&#45;&gt;Node13</title>
<path fill="none" stroke="midnightblue" d="M523.237,-285.744C610.68,-276.628 858.328,-250.811 962.694,-239.932"/>
<polygon fill="midnightblue" stroke="midnightblue" points="963.344,-243.383 972.927,-238.865 962.618,-236.421 963.344,-243.383"/>
</g>
<!-- Node27&#45;&gt;Node24 -->
<g id="edge68" class="edge"><title>Node27&#45;&gt;Node24</title>
<path fill="none" stroke="midnightblue" d="M523.016,-284.951C576.826,-277.82 691.182,-262.192 798.356,-244.037"/>
<polygon fill="midnightblue" stroke="midnightblue" points="799.101,-247.461 808.371,-242.33 797.925,-240.561 799.101,-247.461"/>
</g>
<!-- Node28 -->
<g id="node29" class="node"><title>Node28</title>
<polygon fill="white" stroke="#bfbfbf" points="250,-224.5 250,-243.5 318,-243.5 318,-224.5 250,-224.5"/>
<text text-anchor="middle" x="284" y="-231.5" font-family="Helvetica,sans-Serif" font-size="10.00">qdatetime.h</text>
</g>
<!-- Node27&#45;&gt;Node28 -->
<g id="edge53" class="edge"><title>Node27&#45;&gt;Node28</title>
<path fill="none" stroke="midnightblue" d="M460.86,-280.916C425.234,-271.666 366.684,-256.466 326.789,-246.109"/>
<polygon fill="midnightblue" stroke="midnightblue" points="327.633,-242.712 317.074,-243.587 325.874,-249.487 327.633,-242.712"/>
</g>
<!-- Node29 -->
<g id="node30" class="node"><title>Node29</title>
<polygon fill="white" stroke="#bfbfbf" points="104,-224.5 104,-243.5 160,-243.5 160,-224.5 104,-224.5"/>
<text text-anchor="middle" x="132" y="-231.5" font-family="Helvetica,sans-Serif" font-size="10.00">qcache.h</text>
</g>
<!-- Node27&#45;&gt;Node29 -->
<g id="edge54" class="edge"><title>Node27&#45;&gt;Node29</title>
<path fill="none" stroke="midnightblue" d="M460.649,-285.69C404.438,-279.527 282.636,-265.142 170.356,-244.096"/>
<polygon fill="midnightblue" stroke="midnightblue" points="170.695,-240.598 160.218,-242.172 169.39,-247.475 170.695,-240.598"/>
</g>
<!-- Node30 -->
<g id="node31" class="node"><title>Node30</title>
<polygon fill="white" stroke="#bfbfbf" points="178,-224.5 178,-243.5 232,-243.5 232,-224.5 178,-224.5"/>
<text text-anchor="middle" x="205" y="-231.5" font-family="Helvetica,sans-Serif" font-size="10.00">qstrlist.h</text>
</g>
<!-- Node27&#45;&gt;Node30 -->
<g id="edge55" class="edge"><title>Node27&#45;&gt;Node30</title>
<path fill="none" stroke="midnightblue" d="M460.955,-284.127C415.174,-276.792 326.669,-262.038 241.867,-244.07"/>
<polygon fill="midnightblue" stroke="midnightblue" points="242.592,-240.646 232.081,-241.979 241.129,-247.492 242.592,-240.646"/>
</g>
<!-- Node31 -->
<g id="node32" class="node"><title>Node31</title>
<g id="a_node32"><a xlink:href="../../d9/d11/membergroup_8h.html" target="_top" xlink:title="membergroup.h">
<polygon fill="white" stroke="black" points="450,-224.5 450,-243.5 534,-243.5 534,-224.5 450,-224.5"/>
<text text-anchor="middle" x="492" y="-231.5" font-family="Helvetica,sans-Serif" font-size="10.00">membergroup.h</text>
</a>
</g>
</g>
<!-- Node27&#45;&gt;Node31 -->
<g id="edge60" class="edge"><title>Node27&#45;&gt;Node31</title>
<path fill="none" stroke="midnightblue" d="M492,-280.083C492,-273.006 492,-262.861 492,-253.986"/>
<polygon fill="midnightblue" stroke="midnightblue" points="495.5,-253.751 492,-243.751 488.5,-253.751 495.5,-253.751"/>
</g>
<!-- Node32 -->
<g id="node33" class="node"><title>Node32</title>
<g id="a_node33"><a xlink:href="../../d6/d15/dirdef_8h.html" target="_top" xlink:title="dirdef.h">
<polygon fill="white" stroke="black" points="590.5,-224.5 590.5,-243.5 639.5,-243.5 639.5,-224.5 590.5,-224.5"/>
<text text-anchor="middle" x="615" y="-231.5" font-family="Helvetica,sans-Serif" font-size="10.00">dirdef.h</text>
</a>
</g>
</g>
<!-- Node27&#45;&gt;Node32 -->
<g id="edge64" class="edge"><title>Node27&#45;&gt;Node32</title>
<path fill="none" stroke="midnightblue" d="M511.49,-280.444C531.642,-271.596 563.323,-257.687 586.331,-247.586"/>
<polygon fill="midnightblue" stroke="midnightblue" points="587.852,-250.741 595.601,-243.516 585.038,-244.332 587.852,-250.741"/>
</g>
<!-- Node31&#45;&gt;Node4 -->
<g id="edge61" class="edge"><title>Node31&#45;&gt;Node4</title>
<path fill="none" stroke="midnightblue" d="M534.119,-228.929C602.803,-221.869 735.624,-206.34 779,-188 783.021,-186.3 878.825,-113.556 920.704,-81.6934"/>
<polygon fill="midnightblue" stroke="midnightblue" points="922.931,-84.3964 928.769,-75.555 918.692,-78.8262 922.931,-84.3964"/>
</g>
<!-- Node31&#45;&gt;Node5 -->
<g id="edge63" class="edge"><title>Node31&#45;&gt;Node5</title>
<path fill="none" stroke="midnightblue" d="M488.342,-224.344C479.926,-202.927 461.771,-146.686 487,-112 510.695,-79.4231 558.485,-69.9469 591.356,-67.4471"/>
<polygon fill="midnightblue" stroke="midnightblue" points="591.674,-70.9345 601.454,-66.8601 591.268,-63.9463 591.674,-70.9345"/>
</g>
<!-- Node31&#45;&gt;Node11 -->
<g id="edge62" class="edge"><title>Node31&#45;&gt;Node11</title>
<path fill="none" stroke="midnightblue" d="M510.856,-224.444C530.266,-215.636 560.73,-201.812 582.965,-191.722"/>
<polygon fill="midnightblue" stroke="midnightblue" points="584.572,-194.836 592.232,-187.516 581.68,-188.462 584.572,-194.836"/>
</g>
<!-- Node32&#45;&gt;Node3 -->
<g id="edge66" class="edge"><title>Node32&#45;&gt;Node3</title>
<path fill="none" stroke="midnightblue" d="M606.237,-224.379C597.452,-215.564 583.728,-201.314 573,-188 560.527,-172.52 547.763,-153.749 539.03,-140.366"/>
<polygon fill="midnightblue" stroke="midnightblue" points="541.803,-138.209 533.445,-131.698 535.919,-142 541.803,-138.209"/>
</g>
<!-- Node32&#45;&gt;Node4 -->
<g id="edge67" class="edge"><title>Node32&#45;&gt;Node4</title>
<path fill="none" stroke="midnightblue" d="M639.791,-231.519C678.625,-228.311 755.227,-218.35 812,-188 861.912,-161.318 906.557,-109.972 927.463,-83.5712"/>
<polygon fill="midnightblue" stroke="midnightblue" points="930.249,-85.6909 933.617,-75.6456 924.719,-81.3981 930.249,-85.6909"/>
</g>
<!-- Node32&#45;&gt;Node11 -->
<g id="edge65" class="edge"><title>Node32&#45;&gt;Node11</title>
<path fill="none" stroke="midnightblue" d="M614.339,-224.083C613.815,-217.006 613.064,-206.861 612.406,-197.986"/>
<polygon fill="midnightblue" stroke="midnightblue" points="615.877,-197.465 611.648,-187.751 608.897,-197.982 615.877,-197.465"/>
</g>
<!-- Node34 -->
<g id="node35" class="node"><title>Node34</title>
<polygon fill="white" stroke="#bfbfbf" points="1432,-224.5 1432,-243.5 1512,-243.5 1512,-224.5 1432,-224.5"/>
<text text-anchor="middle" x="1472" y="-231.5" font-family="Helvetica,sans-Serif" font-size="10.00">configvalues.h</text>
</g>
<!-- Node33&#45;&gt;Node34 -->
<g id="edge70" class="edge"><title>Node33&#45;&gt;Node34</title>
<path fill="none" stroke="midnightblue" d="M1406.53,-280.324C1418.59,-271.979 1437.03,-259.212 1451.27,-249.352"/>
<polygon fill="midnightblue" stroke="midnightblue" points="1453.27,-252.224 1459.5,-243.655 1449.28,-246.469 1453.27,-252.224"/>
</g>
</g>
</svg>
        <g id="navigator" transform="translate(0 0)" fill="#404254">
                <rect fill="#f2f5e9" fill-opacity="0.5" stroke="#606060" stroke-width=".5" x="0" y="0" width="60" height="60"/>
                <use id="zoomplus" xlink:href="#zoomPlus" x="17" y="9" onmousedown="handleZoom(evt,'in')"/>
                <use id="zoomminus" xlink:href="#zoomMin" x="42" y="9" onmousedown="handleZoom(evt,'out')"/>
                <use id="reset" xlink:href="#resetDef" x="30" y="36" onmousedown="handleReset()"/>
                <g id="arrowUp" xlink:href="#dirArrow" transform="translate(30 24)" onmousedown="handlePan(0,-1)">
                  <use xlink:href="#rim" fill="#404040">
                        <set attributeName="fill" to="#808080" begin="arrowUp.mouseover" end="arrowUp.mouseout"/>
                  </use>
                  <path fill="none" stroke="white" stroke-width="1.5" d="M0,-3.0v7 M-2.5,-0.5L0,-3.0L2.5,-0.5"/>
                </g>
                <g id="arrowRight" xlink:href="#dirArrow" transform="rotate(90) translate(36 -43)" onmousedown="handlePan(1,0)">
                  <use xlink:href="#rim" fill="#404040">
                        <set attributeName="fill" to="#808080" begin="arrowRight.mouseover" end="arrowRight.mouseout"/>
                  </use>
                  <path fill="none" stroke="white" stroke-width="1.5" d="M0,-3.0v7 M-2.5,-0.5L0,-3.0L2.5,-0.5"/>
                </g>
                <g id="arrowDown" xlink:href="#dirArrow" transform="rotate(180) translate(-30 -48)" onmousedown="handlePan(0,1)">
                  <use xlink:href="#rim" fill="#404040">
                        <set attributeName="fill" to="#808080" begin="arrowDown.mouseover" end="arrowDown.mouseout"/>
                  </use>
                  <path fill="none" stroke="white" stroke-width="1.5" d="M0,-3.0v7 M-2.5,-0.5L0,-3.0L2.5,-0.5"/>
                </g>
                <g id="arrowLeft" xlink:href="#dirArrow" transform="rotate(270) translate(-36 17)" onmousedown="handlePan(-1,0)">
                  <use xlink:href="#rim" fill="#404040">
                        <set attributeName="fill" to="#808080" begin="arrowLeft.mouseover" end="arrowLeft.mouseout"/>
                  </use>
                  <path fill="none" stroke="white" stroke-width="1.5" d="M0,-3.0v7 M-2.5,-0.5L0,-3.0L2.5,-0.5"/>
                </g>
        </g>
        <svg viewBox="0 0 15 15" width="100%" height="30px" preserveAspectRatio="xMaxYMin meet">
         <g id="arrow_out" transform="scale(0.3 0.3)">
          <a xlink:href="tooltip_8cpp__incl_org.svg" target="_base">
           <rect id="button" ry="5" rx="5" y="6" x="6" height="38" width="38"
                fill="#f2f5e9" fill-opacity="0.5" stroke="#606060" stroke-width="1.0"/>
           <path id="arrow"
             d="M 11.500037,31.436501 C 11.940474,20.09759 22.043105,11.32322 32.158766,21.979434 L 37.068811,17.246167 C 37.068811,17.246167 37.088388,32 37.088388,32 L 22.160133,31.978069 C 22.160133,31.978069 26.997745,27.140456 26.997745,27.140456 C 18.528582,18.264221 13.291696,25.230495 11.500037,31.436501 z"
             style="fill:#404040;"/>
          </a>
         </g>
        </svg>
</svg>
