<?xml version="1.0" encoding="UTF-8" standalone="no"?>
<!DOCTYPE svg PUBLIC "-//W3C//DTD SVG 1.1//EN"
 "http://www.w3.org/Graphics/SVG/1.1/DTD/svg11.dtd">
<!-- Generated by graphviz version 2.38.0 (20140413.2041)
 -->
<!-- Title: Definition Pages: 1 -->
<svg width="537pt" height="140pt"
 viewBox="0.00 0.00 536.50 140.00" xmlns="http://www.w3.org/2000/svg" xmlns:xlink="http://www.w3.org/1999/xlink">
<g id="graph0" class="graph" transform="scale(1 1) rotate(0) translate(4 136)">
<title>Definition</title>
<polygon fill="white" stroke="none" points="-4,4 -4,-136 532.5,-136 532.5,4 -4,4"/>
<!-- Node0 -->
<g id="node1" class="node"><title>Node0</title>
<polygon fill="#bfbfbf" stroke="black" points="207,-56.5 207,-75.5 265,-75.5 265,-56.5 207,-56.5"/>
<text text-anchor="middle" x="236" y="-63.5" font-family="Helvetica,sans-Serif" font-size="10.00">Definition</text>
</g>
<!-- Node2 -->
<g id="node3" class="node"><title>Node2</title>
<g id="a_node3"><a xlink:href="../../d1/dcf/class_class_def.html" target="_top" xlink:title="A class representing of a compound symbol. ">
<polygon fill="white" stroke="black" points="0,-0.5 0,-19.5 58,-19.5 58,-0.5 0,-0.5"/>
<text text-anchor="middle" x="29" y="-7.5" font-family="Helvetica,sans-Serif" font-size="10.00">ClassDef</text>
</a>
</g>
</g>
<!-- Node0&#45;&gt;Node2 -->
<g id="edge2" class="edge"><title>Node0&#45;&gt;Node2</title>
<path fill="none" stroke="midnightblue" d="M197.006,-54.8278C156.596,-44.286 94.369,-28.0528 58.0704,-18.5836"/>
<polygon fill="midnightblue" stroke="midnightblue" points="196.221,-58.24 206.781,-57.3776 197.988,-51.4667 196.221,-58.24"/>
</g>
<!-- Node3 -->
<g id="node4" class="node"><title>Node3</title>
<g id="a_node4"><a xlink:href="../../d4/dd4/class_dir_def.html" target="_top" xlink:title="A model of a directory symbol. ">
<polygon fill="white" stroke="black" points="76.5,-0.5 76.5,-19.5 121.5,-19.5 121.5,-0.5 76.5,-0.5"/>
<text text-anchor="middle" x="99" y="-7.5" font-family="Helvetica,sans-Serif" font-size="10.00">DirDef</text>
</a>
</g>
</g>
<!-- Node0&#45;&gt;Node3 -->
<g id="edge3" class="edge"><title>Node0&#45;&gt;Node3</title>
<path fill="none" stroke="midnightblue" d="M204.977,-52.772C179.243,-42.6287 143.314,-28.4669 120.606,-19.5164"/>
<polygon fill="midnightblue" stroke="midnightblue" points="203.705,-56.0326 214.292,-56.4435 206.272,-49.5203 203.705,-56.0326"/>
</g>
<!-- Node4 -->
<g id="node5" class="node"><title>Node4</title>
<g id="a_node5"><a xlink:href="../../de/db0/class_file_def.html" target="_top" xlink:title="A model of a file symbol. ">
<polygon fill="white" stroke="black" points="140,-0.5 140,-19.5 188,-19.5 188,-0.5 140,-0.5"/>
<text text-anchor="middle" x="164" y="-7.5" font-family="Helvetica,sans-Serif" font-size="10.00">FileDef</text>
</a>
</g>
</g>
<!-- Node0&#45;&gt;Node4 -->
<g id="edge4" class="edge"><title>Node0&#45;&gt;Node4</title>
<path fill="none" stroke="midnightblue" d="M216.134,-50.1008C203.177,-40.3824 186.703,-28.0269 175.779,-19.8339"/>
<polygon fill="midnightblue" stroke="midnightblue" points="214.332,-53.1239 224.432,-56.324 218.532,-47.5239 214.332,-53.1239"/>
</g>
<!-- Node5 -->
<g id="node6" class="node"><title>Node5</title>
<g id="a_node6"><a xlink:href="../../d8/d09/class_group_def.html" target="_top" xlink:title="A model of a group of symbols. ">
<polygon fill="white" stroke="black" points="206.5,-0.5 206.5,-19.5 265.5,-19.5 265.5,-0.5 206.5,-0.5"/>
<text text-anchor="middle" x="236" y="-7.5" font-family="Helvetica,sans-Serif" font-size="10.00">GroupDef</text>
</a>
</g>
</g>
<!-- Node0&#45;&gt;Node5 -->
<g id="edge5" class="edge"><title>Node0&#45;&gt;Node5</title>
<path fill="none" stroke="midnightblue" d="M236,-45.8045C236,-36.9102 236,-26.7798 236,-19.7511"/>
<polygon fill="midnightblue" stroke="midnightblue" points="232.5,-46.083 236,-56.083 239.5,-46.083 232.5,-46.083"/>
</g>
<!-- Node6 -->
<g id="node7" class="node"><title>Node6</title>
<g id="a_node7"><a xlink:href="../../da/d09/class_member_def.html" target="_top" xlink:title="A model of a class/file/namespace member symbol. ">
<polygon fill="white" stroke="black" points="284,-0.5 284,-19.5 352,-19.5 352,-0.5 284,-0.5"/>
<text text-anchor="middle" x="318" y="-7.5" font-family="Helvetica,sans-Serif" font-size="10.00">MemberDef</text>
</a>
</g>
</g>
<!-- Node0&#45;&gt;Node6 -->
<g id="edge6" class="edge"><title>Node0&#45;&gt;Node6</title>
<path fill="none" stroke="midnightblue" d="M257.833,-50.6221C272.813,-40.7574 292.197,-27.9919 304.858,-19.6545"/>
<polygon fill="midnightblue" stroke="midnightblue" points="255.601,-47.9009 249.175,-56.324 259.451,-53.7471 255.601,-47.9009"/>
</g>
<!-- Node7 -->
<g id="node8" class="node"><title>Node7</title>
<g id="a_node8"><a xlink:href="../../d0/d07/class_namespace_def.html" target="_top" xlink:title="A model of a namespace symbol. ">
<polygon fill="white" stroke="black" points="370.5,-0.5 370.5,-19.5 455.5,-19.5 455.5,-0.5 370.5,-0.5"/>
<text text-anchor="middle" x="413" y="-7.5" font-family="Helvetica,sans-Serif" font-size="10.00">NamespaceDef</text>
</a>
</g>
</g>
<!-- Node0&#45;&gt;Node7 -->
<g id="edge7" class="edge"><title>Node0&#45;&gt;Node7</title>
<path fill="none" stroke="midnightblue" d="M273.903,-53.4363C307.275,-43.2551 355.101,-28.664 385.085,-19.5164"/>
<polygon fill="midnightblue" stroke="midnightblue" points="272.59,-50.1777 264.046,-56.4435 274.632,-56.8731 272.59,-50.1777"/>
</g>
<!-- Node8 -->
<g id="node9" class="node"><title>Node8</title>
<g id="a_node9"><a xlink:href="../../dd/d41/class_page_def.html" target="_top" xlink:title="A model of a page symbol. ">
<polygon fill="white" stroke="black" points="473.5,-0.5 473.5,-19.5 528.5,-19.5 528.5,-0.5 473.5,-0.5"/>
<text text-anchor="middle" x="501" y="-7.5" font-family="Helvetica,sans-Serif" font-size="10.00">PageDef</text>
</a>
</g>
</g>
<!-- Node0&#45;&gt;Node8 -->
<g id="edge8" class="edge"><title>Node0&#45;&gt;Node8</title>
<path fill="none" stroke="midnightblue" d="M275.09,-57.9458C320.778,-49.5559 398.596,-34.8148 465,-20 467.641,-19.4108 470.384,-18.7727 473.125,-18.1176"/>
<polygon fill="midnightblue" stroke="midnightblue" points="274.226,-54.5457 265.019,-59.7878 275.485,-61.4315 274.226,-54.5457"/>
</g>
<!-- Node1 -->
<g id="node2" class="node"><title>Node1</title>
<g id="a_node2"><a xlink:href="../../d9/d4a/class_definition_intf.html" target="_top" xlink:title="Abstract interface for a Definition or DefinitionList. ">
<polygon fill="white" stroke="black" points="200,-112.5 200,-131.5 272,-131.5 272,-112.5 200,-112.5"/>
<text text-anchor="middle" x="236" y="-119.5" font-family="Helvetica,sans-Serif" font-size="10.00">DefinitionIntf</text>
</a>
</g>
</g>
<!-- Node1&#45;&gt;Node0 -->
<g id="edge1" class="edge"><title>Node1&#45;&gt;Node0</title>
<path fill="none" stroke="midnightblue" d="M236,-101.805C236,-92.9102 236,-82.7798 236,-75.7511"/>
<polygon fill="midnightblue" stroke="midnightblue" points="232.5,-102.083 236,-112.083 239.5,-102.083 232.5,-102.083"/>
</g>
</g>
</svg>
