<?xml version="1.0" encoding="UTF-8" standalone="no"?>
<!DOCTYPE svg PUBLIC "-//W3C//DTD SVG 1.1//EN"
 "http://www.w3.org/Graphics/SVG/1.1/DTD/svg11.dtd">
<!-- Generated by graphviz version 2.38.0 (20140413.2041)
 -->
<!-- Title: ExpressionParser Pages: 1 -->
<svg width="409pt" height="162pt"
 viewBox="0.00 0.00 408.50 162.00" xmlns="http://www.w3.org/2000/svg" xmlns:xlink="http://www.w3.org/1999/xlink">
<g id="graph0" class="graph" transform="scale(1 1) rotate(0) translate(4 158)">
<title>ExpressionParser</title>
<polygon fill="white" stroke="none" points="-4,4 -4,-158 404.5,-158 404.5,4 -4,4"/>
<!-- Node1 -->
<g id="node1" class="node"><title>Node1</title>
<polygon fill="#bfbfbf" stroke="black" points="80.5,-0.5 80.5,-19.5 174.5,-19.5 174.5,-0.5 80.5,-0.5"/>
<text text-anchor="middle" x="127.5" y="-7.5" font-family="Helvetica,sans-Serif" font-size="10.00">ExpressionParser</text>
</g>
<!-- Node2 -->
<g id="node2" class="node"><title>Node2</title>
<g id="a_node2"><a xlink:href="../../d3/d2a/class_expression_parser_1_1_expr_token.html" target="_top" xlink:title="Class representing a token within an expression. ">
<polygon fill="white" stroke="black" points="0,-67.5 0,-86.5 147,-86.5 147,-67.5 0,-67.5"/>
<text text-anchor="middle" x="73.5" y="-74.5" font-family="Helvetica,sans-Serif" font-size="10.00">ExpressionParser::ExprToken</text>
</a>
</g>
</g>
<!-- Node2&#45;&gt;Node1 -->
<g id="edge1" class="edge"><title>Node2&#45;&gt;Node1</title>
<path fill="none" stroke="#9a32cd" stroke-dasharray="5,2" d="M85.3219,-58.9645C90.1492,-52.2775 95.9055,-44.6315 101.5,-38 106.871,-31.6333 113.371,-24.8833 118.528,-19.725"/>
<polygon fill="#9a32cd" stroke="#9a32cd" points="82.3398,-57.1195 79.4175,-67.3034 88.0527,-61.1646 82.3398,-57.1195"/>
<text text-anchor="middle" x="130.5" y="-41" font-family="Helvetica,sans-Serif" font-size="10.00"> m_curToken</text>
</g>
<!-- Node3 -->
<g id="node3" class="node"><title>Node3</title>
<g id="a_node3"><a xlink:href="../../da/d25/class_template_parser.html" target="_top" xlink:title="Parser for templates. ">
<polygon fill="white" stroke="black" points="165.5,-67.5 165.5,-86.5 251.5,-86.5 251.5,-67.5 165.5,-67.5"/>
<text text-anchor="middle" x="208.5" y="-74.5" font-family="Helvetica,sans-Serif" font-size="10.00">TemplateParser</text>
</a>
</g>
</g>
<!-- Node3&#45;&gt;Node1 -->
<g id="edge2" class="edge"><title>Node3&#45;&gt;Node1</title>
<path fill="none" stroke="#9a32cd" stroke-dasharray="5,2" d="M189.451,-60.7134C173.492,-47.907 151.287,-30.0884 138.251,-19.6273"/>
<polygon fill="#9a32cd" stroke="#9a32cd" points="187.586,-63.7048 197.576,-67.2338 191.967,-58.2453 187.586,-63.7048"/>
<text text-anchor="middle" x="194.5" y="-41" font-family="Helvetica,sans-Serif" font-size="10.00"> m_parser</text>
</g>
<!-- Node4 -->
<g id="node4" class="node"><title>Node4</title>
<g id="a_node4"><a xlink:href="../../d0/d1d/class_template_engine.html" target="_top" xlink:title="Engine to create templates and template contexts. ">
<polygon fill="white" stroke="black" points="234,-134.5 234,-153.5 321,-153.5 321,-134.5 234,-134.5"/>
<text text-anchor="middle" x="277.5" y="-141.5" font-family="Helvetica,sans-Serif" font-size="10.00">TemplateEngine</text>
</a>
</g>
</g>
<!-- Node4&#45;&gt;Node3 -->
<g id="edge3" class="edge"><title>Node4&#45;&gt;Node3</title>
<path fill="none" stroke="#9a32cd" stroke-dasharray="5,2" d="M238.768,-130.012C231.977,-126.339 225.497,-121.73 220.5,-116 213.225,-107.657 210.356,-94.8992 209.228,-86.5038"/>
<polygon fill="#9a32cd" stroke="#9a32cd" points="237.576,-133.321 248.11,-134.459 240.585,-127.001 237.576,-133.321"/>
<text text-anchor="middle" x="243.5" y="-108" font-family="Helvetica,sans-Serif" font-size="10.00"> m_engine</text>
</g>
<!-- Node5 -->
<g id="node5" class="node"><title>Node5</title>
<g id="a_node5"><a xlink:href="../../d5/d56/class_template_engine_1_1_private.html" target="_top" xlink:title="Private data of the template engine. ">
<polygon fill="white" stroke="black" points="276.5,-67.5 276.5,-86.5 400.5,-86.5 400.5,-67.5 276.5,-67.5"/>
<text text-anchor="middle" x="338.5" y="-74.5" font-family="Helvetica,sans-Serif" font-size="10.00">TemplateEngine::Private</text>
</a>
</g>
</g>
<!-- Node4&#45;&gt;Node5 -->
<g id="edge5" class="edge"><title>Node4&#45;&gt;Node5</title>
<path fill="none" stroke="#9a32cd" stroke-dasharray="5,2" d="M271.475,-124.245C270.491,-117.69 270.797,-110.582 274.5,-105 280.167,-96.4585 289.126,-90.6125 298.567,-86.6136"/>
<polygon fill="#9a32cd" stroke="#9a32cd" points="268.184,-125.517 273.976,-134.388 274.98,-123.841 268.184,-125.517"/>
<text text-anchor="middle" x="297.5" y="-108" font-family="Helvetica,sans-Serif" font-size="10.00"> m_engine</text>
</g>
<!-- Node5&#45;&gt;Node4 -->
<g id="edge4" class="edge"><title>Node5&#45;&gt;Node4</title>
<path fill="none" stroke="#9a32cd" stroke-dasharray="5,2" d="M334.524,-96.4329C332.393,-103.138 329.203,-110.43 324.5,-116 317.822,-123.909 308.205,-130.007 299.408,-134.389"/>
<polygon fill="#9a32cd" stroke="#9a32cd" points="337.922,-97.2713 337.066,-86.7111 331.15,-95.5001 337.922,-97.2713"/>
<text text-anchor="middle" x="335" y="-108" font-family="Helvetica,sans-Serif" font-size="10.00"> p</text>
</g>
</g>
</svg>
