<?xml version="1.0" encoding="UTF-8" standalone="no"?>
<!DOCTYPE svg PUBLIC "-//W3C//DTD SVG 1.1//EN"
 "http://www.w3.org/Graphics/SVG/1.1/DTD/svg11.dtd">
<!-- Generated by graphviz version 2.38.0 (20140413.2041)
 -->
<!-- Title: src/memberlist.h Pages: 1 -->
<svg width="367pt" height="252pt"
 viewBox="0.00 0.00 367.00 252.00" xmlns="http://www.w3.org/2000/svg" xmlns:xlink="http://www.w3.org/1999/xlink">
<g id="graph0" class="graph" transform="scale(1 1) rotate(0) translate(4 248)">
<title>src/memberlist.h</title>
<polygon fill="white" stroke="none" points="-4,4 -4,-248 363,-248 363,4 -4,4"/>
<!-- Node0 -->
<g id="node1" class="node"><title>Node0</title>
<polygon fill="#bfbfbf" stroke="black" points="156,-224.5 156,-243.5 245,-243.5 245,-224.5 156,-224.5"/>
<text text-anchor="middle" x="200.5" y="-231.5" font-family="Helvetica,sans-Serif" font-size="10.00">src/memberlist.h</text>
</g>
<!-- Node1 -->
<g id="node2" class="node"><title>Node1</title>
<polygon fill="white" stroke="#bfbfbf" points="124,-56.5 124,-75.5 167,-75.5 167,-56.5 124,-56.5"/>
<text text-anchor="middle" x="145.5" y="-63.5" font-family="Helvetica,sans-Serif" font-size="10.00">qlist.h</text>
</g>
<!-- Node0&#45;&gt;Node1 -->
<g id="edge1" class="edge"><title>Node0&#45;&gt;Node1</title>
<path fill="none" stroke="midnightblue" d="M210.144,-224.275C231.779,-203.63 280.339,-150.622 254.5,-112 245.488,-98.5292 205.928,-84.5078 177.055,-75.7698"/>
<polygon fill="midnightblue" stroke="midnightblue" points="177.937,-72.381 167.355,-72.909 175.957,-79.095 177.937,-72.381"/>
</g>
<!-- Node2 -->
<g id="node3" class="node"><title>Node2</title>
<g id="a_node3"><a xlink:href="../../d4/d46/memberdef_8h.html" target="_top" xlink:title="memberdef.h">
<polygon fill="white" stroke="black" points="90.5,-168.5 90.5,-187.5 164.5,-187.5 164.5,-168.5 90.5,-168.5"/>
<text text-anchor="middle" x="127.5" y="-175.5" font-family="Helvetica,sans-Serif" font-size="10.00">memberdef.h</text>
</a>
</g>
</g>
<!-- Node0&#45;&gt;Node2 -->
<g id="edge2" class="edge"><title>Node0&#45;&gt;Node2</title>
<path fill="none" stroke="midnightblue" d="M188.771,-224.324C177.663,-216.107 160.758,-203.602 147.517,-193.807"/>
<polygon fill="midnightblue" stroke="midnightblue" points="149.563,-190.967 139.442,-187.834 145.4,-196.595 149.563,-190.967"/>
</g>
<!-- Node4 -->
<g id="node5" class="node"><title>Node4</title>
<g id="a_node5"><a xlink:href="../../d9/d49/types_8h.html" target="_top" xlink:title="This file contains a number of basic enums and types. ">
<polygon fill="white" stroke="black" points="5,-56.5 5,-75.5 54,-75.5 54,-56.5 5,-56.5"/>
<text text-anchor="middle" x="29.5" y="-63.5" font-family="Helvetica,sans-Serif" font-size="10.00">types.h</text>
</a>
</g>
</g>
<!-- Node0&#45;&gt;Node4 -->
<g id="edge15" class="edge"><title>Node0&#45;&gt;Node4</title>
<path fill="none" stroke="midnightblue" d="M155.744,-225.007C131.216,-218.617 101.77,-207.39 81.5,-188 51.9954,-159.776 38.3506,-112.051 32.7959,-85.7644"/>
<polygon fill="midnightblue" stroke="midnightblue" points="36.1722,-84.7887 30.8363,-75.6356 29.2996,-86.1184 36.1722,-84.7887"/>
</g>
<!-- Node8 -->
<g id="node9" class="node"><title>Node8</title>
<g id="a_node9"><a xlink:href="../../d9/d21/sortdict_8h.html" target="_top" xlink:title="sortdict.h">
<polygon fill="white" stroke="black" points="302,-112.5 302,-131.5 359,-131.5 359,-112.5 302,-112.5"/>
<text text-anchor="middle" x="330.5" y="-119.5" font-family="Helvetica,sans-Serif" font-size="10.00">sortdict.h</text>
</a>
</g>
</g>
<!-- Node0&#45;&gt;Node8 -->
<g id="edge11" class="edge"><title>Node0&#45;&gt;Node8</title>
<path fill="none" stroke="midnightblue" d="M224.654,-224.404C243.33,-216.894 269.03,-204.591 287.5,-188 302.404,-174.613 314.452,-154.968 321.962,-140.782"/>
<polygon fill="midnightblue" stroke="midnightblue" points="325.223,-142.089 326.604,-131.585 318.974,-138.935 325.223,-142.089"/>
</g>
<!-- Node2&#45;&gt;Node1 -->
<g id="edge3" class="edge"><title>Node2&#45;&gt;Node1</title>
<path fill="none" stroke="midnightblue" d="M115.204,-168.297C99.6343,-156.135 76.0243,-133.165 86.5,-112 93.103,-98.6595 105.765,-88.1941 117.671,-80.7262"/>
<polygon fill="midnightblue" stroke="midnightblue" points="119.618,-83.6435 126.516,-75.6018 116.109,-77.5866 119.618,-83.6435"/>
</g>
<!-- Node3 -->
<g id="node4" class="node"><title>Node3</title>
<polygon fill="white" stroke="#bfbfbf" points="177.5,-112.5 177.5,-131.5 245.5,-131.5 245.5,-112.5 177.5,-112.5"/>
<text text-anchor="middle" x="211.5" y="-119.5" font-family="Helvetica,sans-Serif" font-size="10.00">sys/types.h</text>
</g>
<!-- Node2&#45;&gt;Node3 -->
<g id="edge4" class="edge"><title>Node2&#45;&gt;Node3</title>
<path fill="none" stroke="midnightblue" d="M140.996,-168.324C154.1,-159.9 174.212,-146.971 189.607,-137.074"/>
<polygon fill="midnightblue" stroke="midnightblue" points="191.518,-140.006 198.037,-131.655 187.733,-134.118 191.518,-140.006"/>
</g>
<!-- Node2&#45;&gt;Node4 -->
<g id="edge5" class="edge"><title>Node2&#45;&gt;Node4</title>
<path fill="none" stroke="midnightblue" d="M117.749,-168.412C107.962,-159.623 92.637,-145.394 80.5,-132 66.4138,-116.455 51.7773,-97.4574 41.8165,-84.0253"/>
<polygon fill="midnightblue" stroke="midnightblue" points="44.4673,-81.7214 35.7319,-75.7262 38.822,-85.8604 44.4673,-81.7214"/>
</g>
<!-- Node6 -->
<g id="node7" class="node"><title>Node6</title>
<g id="a_node7"><a xlink:href="../../df/da1/definition_8h.html" target="_top" xlink:title="definition.h">
<polygon fill="white" stroke="black" points="95.5,-112.5 95.5,-131.5 159.5,-131.5 159.5,-112.5 95.5,-112.5"/>
<text text-anchor="middle" x="127.5" y="-119.5" font-family="Helvetica,sans-Serif" font-size="10.00">definition.h</text>
</a>
</g>
</g>
<!-- Node2&#45;&gt;Node6 -->
<g id="edge7" class="edge"><title>Node2&#45;&gt;Node6</title>
<path fill="none" stroke="midnightblue" d="M127.5,-168.083C127.5,-161.006 127.5,-150.861 127.5,-141.986"/>
<polygon fill="midnightblue" stroke="midnightblue" points="131,-141.751 127.5,-131.751 124,-141.751 131,-141.751"/>
</g>
<!-- Node5 -->
<g id="node6" class="node"><title>Node5</title>
<polygon fill="white" stroke="#bfbfbf" points="0,-0.5 0,-19.5 59,-19.5 59,-0.5 0,-0.5"/>
<text text-anchor="middle" x="29.5" y="-7.5" font-family="Helvetica,sans-Serif" font-size="10.00">qcstring.h</text>
</g>
<!-- Node4&#45;&gt;Node5 -->
<g id="edge6" class="edge"><title>Node4&#45;&gt;Node5</title>
<path fill="none" stroke="midnightblue" d="M29.5,-56.083C29.5,-49.0059 29.5,-38.8611 29.5,-29.9865"/>
<polygon fill="midnightblue" stroke="midnightblue" points="33.0001,-29.751 29.5,-19.7511 26.0001,-29.7511 33.0001,-29.751"/>
</g>
<!-- Node6&#45;&gt;Node1 -->
<g id="edge8" class="edge"><title>Node6&#45;&gt;Node1</title>
<path fill="none" stroke="midnightblue" d="M130.472,-112.083C132.884,-104.849 136.364,-94.4087 139.368,-85.3968"/>
<polygon fill="midnightblue" stroke="midnightblue" points="142.741,-86.3447 142.583,-75.7511 136.1,-84.1311 142.741,-86.3447"/>
</g>
<!-- Node6&#45;&gt;Node4 -->
<g id="edge10" class="edge"><title>Node6&#45;&gt;Node4</title>
<path fill="none" stroke="midnightblue" d="M111.755,-112.324C96.1813,-103.743 72.1227,-90.486 54.0407,-80.5224"/>
<polygon fill="midnightblue" stroke="midnightblue" points="55.6539,-77.4152 45.2063,-75.6545 52.2756,-83.546 55.6539,-77.4152"/>
</g>
<!-- Node7 -->
<g id="node8" class="node"><title>Node7</title>
<polygon fill="white" stroke="#bfbfbf" points="203.5,-56.5 203.5,-75.5 249.5,-75.5 249.5,-56.5 203.5,-56.5"/>
<text text-anchor="middle" x="226.5" y="-63.5" font-family="Helvetica,sans-Serif" font-size="10.00">qdict.h</text>
</g>
<!-- Node6&#45;&gt;Node7 -->
<g id="edge9" class="edge"><title>Node6&#45;&gt;Node7</title>
<path fill="none" stroke="midnightblue" d="M143.406,-112.324C159.138,-103.743 183.442,-90.486 201.709,-80.5224"/>
<polygon fill="midnightblue" stroke="midnightblue" points="203.53,-83.5157 210.633,-75.6545 200.178,-77.3704 203.53,-83.5157"/>
</g>
<!-- Node8&#45;&gt;Node1 -->
<g id="edge12" class="edge"><title>Node8&#45;&gt;Node1</title>
<path fill="none" stroke="midnightblue" d="M301.999,-112.681C268.144,-102.799 211.853,-86.3679 176.81,-76.1392"/>
<polygon fill="midnightblue" stroke="midnightblue" points="177.676,-72.746 167.096,-73.3037 175.715,-79.4656 177.676,-72.746"/>
</g>
<!-- Node8&#45;&gt;Node7 -->
<g id="edge13" class="edge"><title>Node8&#45;&gt;Node7</title>
<path fill="none" stroke="midnightblue" d="M313.791,-112.324C297.188,-103.703 271.498,-90.3643 252.28,-80.3855"/>
<polygon fill="midnightblue" stroke="midnightblue" points="253.656,-77.1565 243.168,-75.6545 250.43,-83.3689 253.656,-77.1565"/>
</g>
<!-- Node9 -->
<g id="node10" class="node"><title>Node9</title>
<polygon fill="white" stroke="#bfbfbf" points="302.5,-56.5 302.5,-75.5 358.5,-75.5 358.5,-56.5 302.5,-56.5"/>
<text text-anchor="middle" x="330.5" y="-63.5" font-family="Helvetica,sans-Serif" font-size="10.00">qintdict.h</text>
</g>
<!-- Node8&#45;&gt;Node9 -->
<g id="edge14" class="edge"><title>Node8&#45;&gt;Node9</title>
<path fill="none" stroke="midnightblue" d="M330.5,-112.083C330.5,-105.006 330.5,-94.8611 330.5,-85.9865"/>
<polygon fill="midnightblue" stroke="midnightblue" points="334,-85.751 330.5,-75.7511 327,-85.7511 334,-85.751"/>
</g>
</g>
</svg>
