<?xml version="1.0" encoding="UTF-8" standalone="no"?>
<!DOCTYPE svg PUBLIC "-//W3C//DTD SVG 1.1//EN"
 "http://www.w3.org/Graphics/SVG/1.1/DTD/svg11.dtd">
<!-- Generated by graphviz version 2.38.0 (20140413.2041)
 -->
<!-- Title: LodePNG_Encoder Pages: 1 -->
<svg width="378pt" height="162pt"
 viewBox="0.00 0.00 378.00 162.00" xmlns="http://www.w3.org/2000/svg" xmlns:xlink="http://www.w3.org/1999/xlink">
<g id="graph0" class="graph" transform="scale(1 1) rotate(0) translate(4 158)">
<title>LodePNG_Encoder</title>
<polygon fill="white" stroke="none" points="-4,4 -4,-158 374,-158 374,4 -4,4"/>
<!-- Node1 -->
<g id="node1" class="node"><title>Node1</title>
<polygon fill="#bfbfbf" stroke="black" points="116.5,-0.5 116.5,-19.5 217.5,-19.5 217.5,-0.5 116.5,-0.5"/>
<text text-anchor="middle" x="167" y="-7.5" font-family="Helvetica,sans-Serif" font-size="10.00">LodePNG_Encoder</text>
</g>
<!-- Node2 -->
<g id="node2" class="node"><title>Node2</title>
<g id="a_node2"><a xlink:href="../../d7/d1e/struct_lode_p_n_g___info_png.html" target="_top" xlink:title="LodePNG_InfoPng">
<polygon fill="white" stroke="black" points="0,-67.5 0,-86.5 98,-86.5 98,-67.5 0,-67.5"/>
<text text-anchor="middle" x="49" y="-74.5" font-family="Helvetica,sans-Serif" font-size="10.00">LodePNG_InfoPng</text>
</a>
</g>
</g>
<!-- Node2&#45;&gt;Node1 -->
<g id="edge1" class="edge"><title>Node2&#45;&gt;Node1</title>
<path fill="none" stroke="#9a32cd" stroke-dasharray="5,2" d="M73.894,-62.2872C97.2808,-49.4047 131.556,-30.5243 151.338,-19.6273"/>
<polygon fill="#9a32cd" stroke="#9a32cd" points="71.9843,-59.3432 64.914,-67.2338 75.3618,-65.4745 71.9843,-59.3432"/>
<text text-anchor="middle" x="134.5" y="-41" font-family="Helvetica,sans-Serif" font-size="10.00"> infoPng</text>
</g>
<!-- Node3 -->
<g id="node3" class="node"><title>Node3</title>
<g id="a_node3"><a xlink:href="../../d5/d0f/struct_lode_p_n_g___info_color.html" target="_top" xlink:title="LodePNG_InfoColor">
<polygon fill="white" stroke="black" points="57,-134.5 57,-153.5 161,-153.5 161,-134.5 57,-134.5"/>
<text text-anchor="middle" x="109" y="-141.5" font-family="Helvetica,sans-Serif" font-size="10.00">LodePNG_InfoColor</text>
</a>
</g>
</g>
<!-- Node3&#45;&gt;Node2 -->
<g id="edge2" class="edge"><title>Node3&#45;&gt;Node2</title>
<path fill="none" stroke="#9a32cd" stroke-dasharray="5,2" d="M93.8937,-126.635C82.1595,-113.923 66.3518,-96.7978 56.9637,-86.6273"/>
<polygon fill="#9a32cd" stroke="#9a32cd" points="91.5535,-129.26 100.908,-134.234 96.6971,-124.512 91.5535,-129.26"/>
<text text-anchor="middle" x="95.5" y="-108" font-family="Helvetica,sans-Serif" font-size="10.00"> color</text>
</g>
<!-- Node6 -->
<g id="node6" class="node"><title>Node6</title>
<g id="a_node6"><a xlink:href="../../d3/d36/struct_lode_p_n_g___info_raw.html" target="_top" xlink:title="LodePNG_InfoRaw">
<polygon fill="white" stroke="black" points="116.5,-67.5 116.5,-86.5 217.5,-86.5 217.5,-67.5 116.5,-67.5"/>
<text text-anchor="middle" x="167" y="-74.5" font-family="Helvetica,sans-Serif" font-size="10.00">LodePNG_InfoRaw</text>
</a>
</g>
</g>
<!-- Node3&#45;&gt;Node6 -->
<g id="edge6" class="edge"><title>Node3&#45;&gt;Node6</title>
<path fill="none" stroke="#9a32cd" stroke-dasharray="5,2" d="M123.603,-126.635C134.946,-113.923 150.227,-96.7978 159.302,-86.6273"/>
<polygon fill="#9a32cd" stroke="#9a32cd" points="120.869,-124.442 116.822,-134.234 126.092,-129.103 120.869,-124.442"/>
<text text-anchor="middle" x="154.5" y="-108" font-family="Helvetica,sans-Serif" font-size="10.00"> color</text>
</g>
<!-- Node4 -->
<g id="node4" class="node"><title>Node4</title>
<g id="a_node4"><a xlink:href="../../da/da3/struct_lode_p_n_g___encode_settings.html" target="_top" xlink:title="LodePNG_EncodeSettings">
<polygon fill="white" stroke="black" points="236,-67.5 236,-86.5 370,-86.5 370,-67.5 236,-67.5"/>
<text text-anchor="middle" x="303" y="-74.5" font-family="Helvetica,sans-Serif" font-size="10.00">LodePNG_EncodeSettings</text>
</a>
</g>
</g>
<!-- Node4&#45;&gt;Node1 -->
<g id="edge3" class="edge"><title>Node4&#45;&gt;Node1</title>
<path fill="none" stroke="#9a32cd" stroke-dasharray="5,2" d="M275.682,-62.9436C248.745,-50.0691 208.338,-30.7573 185.134,-19.6672"/>
<polygon fill="#9a32cd" stroke="#9a32cd" points="274.408,-66.2141 284.94,-67.3685 277.427,-59.8984 274.408,-66.2141"/>
<text text-anchor="middle" x="263" y="-41" font-family="Helvetica,sans-Serif" font-size="10.00"> settings</text>
</g>
<!-- Node5 -->
<g id="node5" class="node"><title>Node5</title>
<g id="a_node5"><a xlink:href="../../dc/dc3/struct_lode_zlib___deflate_settings.html" target="_top" xlink:title="LodeZlib_DeflateSettings">
<polygon fill="white" stroke="black" points="240,-134.5 240,-153.5 366,-153.5 366,-134.5 240,-134.5"/>
<text text-anchor="middle" x="303" y="-141.5" font-family="Helvetica,sans-Serif" font-size="10.00">LodeZlib_DeflateSettings</text>
</a>
</g>
</g>
<!-- Node5&#45;&gt;Node4 -->
<g id="edge4" class="edge"><title>Node5&#45;&gt;Node4</title>
<path fill="none" stroke="#9a32cd" stroke-dasharray="5,2" d="M303,-124.037C303,-111.67 303,-96.1198 303,-86.6273"/>
<polygon fill="#9a32cd" stroke="#9a32cd" points="299.5,-124.234 303,-134.234 306.5,-124.234 299.5,-124.234"/>
<text text-anchor="middle" x="329.5" y="-108" font-family="Helvetica,sans-Serif" font-size="10.00"> zlibsettings</text>
</g>
<!-- Node6&#45;&gt;Node1 -->
<g id="edge5" class="edge"><title>Node6&#45;&gt;Node1</title>
<path fill="none" stroke="#9a32cd" stroke-dasharray="5,2" d="M167,-57.037C167,-44.6703 167,-29.1198 167,-19.6273"/>
<polygon fill="#9a32cd" stroke="#9a32cd" points="163.5,-57.2338 167,-67.2338 170.5,-57.2338 163.5,-57.2338"/>
<text text-anchor="middle" x="187" y="-41" font-family="Helvetica,sans-Serif" font-size="10.00"> infoRaw</text>
</g>
</g>
</svg>
