<?xml version="1.0" encoding="UTF-8" standalone="no"?>
<!DOCTYPE svg PUBLIC "-//W3C//DTD SVG 1.1//EN"
 "http://www.w3.org/Graphics/SVG/1.1/DTD/svg11.dtd">
<!-- Generated by graphviz version 2.38.0 (20140413.2041)
 -->
<!-- Title: src/translator.h Pages: 1 -->
<svg width="4084pt" height="140pt"
 viewBox="0.00 0.00 4083.50 140.00" xmlns="http://www.w3.org/2000/svg" xmlns:xlink="http://www.w3.org/1999/xlink">
<g id="graph0" class="graph" transform="scale(1 1) rotate(0) translate(4 136)">
<title>src/translator.h</title>
<polygon fill="white" stroke="none" points="-4,4 -4,-136 4079.5,-136 4079.5,4 -4,4"/>
<!-- Node8 -->
<g id="node1" class="node"><title>Node8</title>
<polygon fill="#bfbfbf" stroke="black" points="3887,-112.5 3887,-131.5 3969,-131.5 3969,-112.5 3887,-112.5"/>
<text text-anchor="middle" x="3928" y="-119.5" font-family="Helvetica,sans-Serif" font-size="10.00">src/translator.h</text>
</g>
<!-- Node9 -->
<g id="node2" class="node"><title>Node9</title>
<g id="a_node2"><a xlink:href="../../d8/dce/language_8h.html" target="_top" xlink:title="src/language.h">
<polygon fill="white" stroke="black" points="1980,-56.5 1980,-75.5 2060,-75.5 2060,-56.5 1980,-56.5"/>
<text text-anchor="middle" x="2020" y="-63.5" font-family="Helvetica,sans-Serif" font-size="10.00">src/language.h</text>
</a>
</g>
</g>
<!-- Node8&#45;&gt;Node9 -->
<g id="edge1" class="edge"><title>Node8&#45;&gt;Node9</title>
<path fill="none" stroke="midnightblue" d="M3876.73,-119.549C3601.86,-111.77 2306.12,-75.0978 2060.31,-68.1409"/>
<polygon fill="midnightblue" stroke="midnightblue" points="3876.73,-123.05 3886.82,-119.835 3876.92,-116.053 3876.73,-123.05"/>
</g>
<!-- Node28 -->
<g id="node21" class="node"><title>Node28</title>
<g id="a_node21"><a xlink:href="../../d2/d48/language_8cpp.html" target="_top" xlink:title="src/language.cpp">
<polygon fill="white" stroke="black" points="3970.5,-0.5 3970.5,-19.5 4061.5,-19.5 4061.5,-0.5 3970.5,-0.5"/>
<text text-anchor="middle" x="4016" y="-7.5" font-family="Helvetica,sans-Serif" font-size="10.00">src/language.cpp</text>
</a>
</g>
</g>
<!-- Node8&#45;&gt;Node28 -->
<g id="edge39" class="edge"><title>Node8&#45;&gt;Node28</title>
<path fill="none" stroke="midnightblue" d="M3930.02,-101.84C3932.28,-87.9864 3937.03,-69.4221 3947,-56 3959.36,-39.3499 3979.86,-27.1245 3995.3,-19.6531"/>
<polygon fill="midnightblue" stroke="midnightblue" points="3926.5,-101.779 3928.65,-112.153 3933.43,-102.701 3926.5,-101.779"/>
</g>
<!-- Node47 -->
<g id="node40" class="node"><title>Node47</title>
<g id="a_node40"><a xlink:href="../../da/de6/translator__adapter_8h.html" target="_top" xlink:title="src/translator_adapter.h">
<polygon fill="white" stroke="black" points="3956.5,-56.5 3956.5,-75.5 4075.5,-75.5 4075.5,-56.5 3956.5,-56.5"/>
<text text-anchor="middle" x="4016" y="-63.5" font-family="Helvetica,sans-Serif" font-size="10.00">src/translator_adapter.h</text>
</a>
</g>
</g>
<!-- Node8&#45;&gt;Node47 -->
<g id="edge40" class="edge"><title>Node8&#45;&gt;Node47</title>
<path fill="none" stroke="midnightblue" d="M3950.98,-106.901C3967.11,-96.9986 3988.18,-84.0705 4001.9,-75.6545"/>
<polygon fill="midnightblue" stroke="midnightblue" points="3948.83,-104.111 3942.14,-112.324 3952.49,-110.077 3948.83,-104.111"/>
</g>
<!-- Node10 -->
<g id="node3" class="node"><title>Node10</title>
<g id="a_node3"><a xlink:href="../../d5/d0b/cite_8cpp.html" target="_top" xlink:title="src/cite.cpp">
<polygon fill="white" stroke="black" points="0,-0.5 0,-19.5 68,-19.5 68,-0.5 0,-0.5"/>
<text text-anchor="middle" x="34" y="-7.5" font-family="Helvetica,sans-Serif" font-size="10.00">src/cite.cpp</text>
</a>
</g>
</g>
<!-- Node9&#45;&gt;Node10 -->
<g id="edge2" class="edge"><title>Node9&#45;&gt;Node10</title>
<path fill="none" stroke="midnightblue" d="M1969.77,-65.0826C1704,-65.3303 459.463,-64.0774 77,-20 74.1208,-19.6682 71.1489,-19.2366 68.1753,-18.7421"/>
<polygon fill="midnightblue" stroke="midnightblue" points="1969.9,-68.5826 1979.9,-65.072 1969.89,-61.5826 1969.9,-68.5826"/>
</g>
<!-- Node11 -->
<g id="node4" class="node"><title>Node11</title>
<g id="a_node4"><a xlink:href="../../de/d89/classdef_8cpp.html" target="_top" xlink:title="src/classdef.cpp">
<polygon fill="white" stroke="black" points="86.5,-0.5 86.5,-19.5 175.5,-19.5 175.5,-0.5 86.5,-0.5"/>
<text text-anchor="middle" x="131" y="-7.5" font-family="Helvetica,sans-Serif" font-size="10.00">src/classdef.cpp</text>
</a>
</g>
</g>
<!-- Node9&#45;&gt;Node11 -->
<g id="edge3" class="edge"><title>Node9&#45;&gt;Node11</title>
<path fill="none" stroke="midnightblue" d="M1969.71,-64.7455C1712.78,-63.2961 544.764,-54.8697 184,-20 181.306,-19.7396 178.542,-19.4227 175.759,-19.0655"/>
<polygon fill="midnightblue" stroke="midnightblue" points="1969.85,-68.2462 1979.87,-64.8018 1969.89,-61.2463 1969.85,-68.2462"/>
</g>
<!-- Node12 -->
<g id="node5" class="node"><title>Node12</title>
<g id="a_node5"><a xlink:href="../../d6/d10/classlist_8cpp.html" target="_top" xlink:title="src/classlist.cpp">
<polygon fill="white" stroke="black" points="193,-0.5 193,-19.5 281,-19.5 281,-0.5 193,-0.5"/>
<text text-anchor="middle" x="237" y="-7.5" font-family="Helvetica,sans-Serif" font-size="10.00">src/classlist.cpp</text>
</a>
</g>
</g>
<!-- Node9&#45;&gt;Node12 -->
<g id="edge4" class="edge"><title>Node9&#45;&gt;Node12</title>
<path fill="none" stroke="midnightblue" d="M1969.86,-64.6592C1722.28,-62.8292 628.65,-52.9888 290,-20 287.12,-19.7195 284.161,-19.3749 281.183,-18.986"/>
<polygon fill="midnightblue" stroke="midnightblue" points="1969.97,-68.16 1980,-64.7331 1970.02,-61.1602 1969.97,-68.16"/>
</g>
<!-- Node13 -->
<g id="node6" class="node"><title>Node13</title>
<g id="a_node6"><a xlink:href="../../db/d12/context_8cpp.html" target="_top" xlink:title="src/context.cpp">
<polygon fill="white" stroke="black" points="299,-0.5 299,-19.5 383,-19.5 383,-0.5 299,-0.5"/>
<text text-anchor="middle" x="341" y="-7.5" font-family="Helvetica,sans-Serif" font-size="10.00">src/context.cpp</text>
</a>
</g>
</g>
<!-- Node9&#45;&gt;Node13 -->
<g id="edge5" class="edge"><title>Node9&#45;&gt;Node13</title>
<path fill="none" stroke="midnightblue" d="M1969.76,-64.6074C1730.96,-62.589 709.199,-52.1956 392,-20 389.138,-19.7095 386.194,-19.3509 383.234,-18.946"/>
<polygon fill="midnightblue" stroke="midnightblue" points="1969.85,-68.1082 1979.88,-64.6919 1969.91,-61.1085 1969.85,-68.1082"/>
</g>
<!-- Node14 -->
<g id="node7" class="node"><title>Node14</title>
<g id="a_node7"><a xlink:href="../../d3/dea/definition_8cpp.html" target="_top" xlink:title="src/definition.cpp">
<polygon fill="white" stroke="black" points="401.5,-0.5 401.5,-19.5 492.5,-19.5 492.5,-0.5 401.5,-0.5"/>
<text text-anchor="middle" x="447" y="-7.5" font-family="Helvetica,sans-Serif" font-size="10.00">src/definition.cpp</text>
</a>
</g>
</g>
<!-- Node9&#45;&gt;Node14 -->
<g id="edge6" class="edge"><title>Node9&#45;&gt;Node14</title>
<path fill="none" stroke="midnightblue" d="M1969.86,-64.4083C1741.29,-61.5736 796.498,-48.3343 502,-20 498.918,-19.7035 495.747,-19.3405 492.558,-18.9322"/>
<polygon fill="midnightblue" stroke="midnightblue" points="1969.84,-67.9083 1979.89,-64.5317 1969.93,-60.9088 1969.84,-67.9083"/>
</g>
<!-- Node15 -->
<g id="node8" class="node"><title>Node15</title>
<g id="a_node8"><a xlink:href="../../d8/d52/dirdef_8cpp.html" target="_top" xlink:title="src/dirdef.cpp">
<polygon fill="white" stroke="black" points="511,-0.5 511,-19.5 587,-19.5 587,-0.5 511,-0.5"/>
<text text-anchor="middle" x="549" y="-7.5" font-family="Helvetica,sans-Serif" font-size="10.00">src/dirdef.cpp</text>
</a>
</g>
</g>
<!-- Node9&#45;&gt;Node15 -->
<g id="edge7" class="edge"><title>Node9&#45;&gt;Node15</title>
<path fill="none" stroke="midnightblue" d="M1969.43,-64.4715C1748.93,-62.0024 870.381,-50.4139 596,-20 593.11,-19.6796 590.132,-19.2787 587.143,-18.8251"/>
<polygon fill="midnightblue" stroke="midnightblue" points="1969.69,-67.9745 1979.73,-64.5855 1969.77,-60.9749 1969.69,-67.9745"/>
</g>
<!-- Node16 -->
<g id="node9" class="node"><title>Node16</title>
<g id="a_node9"><a xlink:href="../../d8/d29/docbookgen_8cpp.html" target="_top" xlink:title="src/docbookgen.cpp">
<polygon fill="white" stroke="black" points="605,-0.5 605,-19.5 709,-19.5 709,-0.5 605,-0.5"/>
<text text-anchor="middle" x="657" y="-7.5" font-family="Helvetica,sans-Serif" font-size="10.00">src/docbookgen.cpp</text>
</a>
</g>
</g>
<!-- Node9&#45;&gt;Node16 -->
<g id="edge8" class="edge"><title>Node9&#45;&gt;Node16</title>
<path fill="none" stroke="midnightblue" d="M1969.82,-65.2831C1796.08,-65.8338 1204.18,-64.1281 718,-20 715.122,-19.7387 712.172,-19.4325 709.198,-19.0936"/>
<polygon fill="midnightblue" stroke="midnightblue" points="1969.96,-68.7827 1979.94,-65.2468 1969.93,-61.7828 1969.96,-68.7827"/>
</g>
<!-- Node17 -->
<g id="node10" class="node"><title>Node17</title>
<g id="a_node10"><a xlink:href="../../dc/d05/docbookvisitor_8cpp.html" target="_top" xlink:title="src/docbookvisitor.cpp">
<polygon fill="white" stroke="black" points="727.5,-0.5 727.5,-19.5 842.5,-19.5 842.5,-0.5 727.5,-0.5"/>
<text text-anchor="middle" x="785" y="-7.5" font-family="Helvetica,sans-Serif" font-size="10.00">src/docbookvisitor.cpp</text>
</a>
</g>
</g>
<!-- Node9&#45;&gt;Node17 -->
<g id="edge9" class="edge"><title>Node9&#45;&gt;Node17</title>
<path fill="none" stroke="midnightblue" d="M1969.62,-64.8056C1807.2,-63.8057 1282.86,-57.6674 851,-20 848.235,-19.7588 845.408,-19.4838 842.556,-19.1833"/>
<polygon fill="midnightblue" stroke="midnightblue" points="1969.77,-68.3064 1979.79,-64.8643 1969.81,-61.3065 1969.77,-68.3064"/>
</g>
<!-- Node18 -->
<g id="node11" class="node"><title>Node18</title>
<g id="a_node11"><a xlink:href="../../da/d17/docparser_8cpp.html" target="_top" xlink:title="src/docparser.cpp">
<polygon fill="white" stroke="black" points="860.5,-0.5 860.5,-19.5 955.5,-19.5 955.5,-0.5 860.5,-0.5"/>
<text text-anchor="middle" x="908" y="-7.5" font-family="Helvetica,sans-Serif" font-size="10.00">src/docparser.cpp</text>
</a>
</g>
</g>
<!-- Node9&#45;&gt;Node18 -->
<g id="edge10" class="edge"><title>Node9&#45;&gt;Node18</title>
<path fill="none" stroke="midnightblue" d="M1969.16,-64.9346C1816.53,-64.2876 1349.1,-59.016 964,-20 961.257,-19.7221 958.444,-19.3973 955.609,-19.0392"/>
<polygon fill="midnightblue" stroke="midnightblue" points="1969.58,-68.4361 1979.6,-64.9736 1969.61,-61.4362 1969.58,-68.4361"/>
</g>
<!-- Node19 -->
<g id="node12" class="node"><title>Node19</title>
<g id="a_node12"><a xlink:href="../../de/daa/dot_8cpp.html" target="_top" xlink:title="src/dot.cpp">
<polygon fill="white" stroke="black" points="973.5,-0.5 973.5,-19.5 1038.5,-19.5 1038.5,-0.5 973.5,-0.5"/>
<text text-anchor="middle" x="1006" y="-7.5" font-family="Helvetica,sans-Serif" font-size="10.00">src/dot.cpp</text>
</a>
</g>
</g>
<!-- Node9&#45;&gt;Node19 -->
<g id="edge11" class="edge"><title>Node9&#45;&gt;Node19</title>
<path fill="none" stroke="midnightblue" d="M1969.63,-65.6754C1825.26,-66.9664 1397.83,-66.2776 1047,-20 1044.25,-19.6379 1041.42,-19.1849 1038.59,-18.6761"/>
<polygon fill="midnightblue" stroke="midnightblue" points="1969.97,-69.1724 1979.93,-65.5754 1969.9,-62.1727 1969.97,-69.1724"/>
</g>
<!-- Node20 -->
<g id="node13" class="node"><title>Node20</title>
<g id="a_node13"><a xlink:href="../../dc/d98/doxygen_8cpp.html" target="_top" xlink:title="src/doxygen.cpp">
<polygon fill="white" stroke="black" points="1056.5,-0.5 1056.5,-19.5 1145.5,-19.5 1145.5,-0.5 1056.5,-0.5"/>
<text text-anchor="middle" x="1101" y="-7.5" font-family="Helvetica,sans-Serif" font-size="10.00">src/doxygen.cpp</text>
</a>
</g>
</g>
<!-- Node9&#45;&gt;Node20 -->
<g id="edge12" class="edge"><title>Node9&#45;&gt;Node20</title>
<path fill="none" stroke="midnightblue" d="M1969.46,-64.3669C1836,-62.2635 1463.2,-53.5912 1155,-20 1151.98,-19.6705 1148.87,-19.2827 1145.74,-18.8564"/>
<polygon fill="midnightblue" stroke="midnightblue" points="1969.72,-67.8712 1979.78,-64.5237 1969.83,-60.872 1969.72,-67.8712"/>
</g>
<!-- Node21 -->
<g id="node14" class="node"><title>Node21</title>
<g id="a_node14"><a xlink:href="../../d6/ddc/filedef_8cpp.html" target="_top" xlink:title="src/filedef.cpp">
<polygon fill="white" stroke="black" points="1164,-0.5 1164,-19.5 1242,-19.5 1242,-0.5 1164,-0.5"/>
<text text-anchor="middle" x="1203" y="-7.5" font-family="Helvetica,sans-Serif" font-size="10.00">src/filedef.cpp</text>
</a>
</g>
</g>
<!-- Node9&#45;&gt;Node21 -->
<g id="edge13" class="edge"><title>Node9&#45;&gt;Node21</title>
<path fill="none" stroke="midnightblue" d="M1969.56,-64.2599C1846.38,-61.972 1520.58,-53.0249 1251,-20 1248.14,-19.6495 1245.19,-19.2333 1242.23,-18.7751"/>
<polygon fill="midnightblue" stroke="midnightblue" points="1969.75,-67.7637 1979.81,-64.4434 1969.87,-60.7648 1969.75,-67.7637"/>
</g>
<!-- Node22 -->
<g id="node15" class="node"><title>Node22</title>
<g id="a_node15"><a xlink:href="../../db/d41/ftvhelp_8cpp.html" target="_top" xlink:title="src/ftvhelp.cpp">
<polygon fill="white" stroke="black" points="1260.5,-0.5 1260.5,-19.5 1341.5,-19.5 1341.5,-0.5 1260.5,-0.5"/>
<text text-anchor="middle" x="1301" y="-7.5" font-family="Helvetica,sans-Serif" font-size="10.00">src/ftvhelp.cpp</text>
</a>
</g>
</g>
<!-- Node9&#45;&gt;Node22 -->
<g id="edge14" class="edge"><title>Node9&#45;&gt;Node22</title>
<path fill="none" stroke="midnightblue" d="M1969.51,-63.5847C1857.59,-60.015 1580.3,-48.7873 1350,-20 1347.25,-19.6567 1344.43,-19.2586 1341.59,-18.8248"/>
<polygon fill="midnightblue" stroke="midnightblue" points="1969.72,-67.0927 1979.82,-63.9066 1969.94,-60.0961 1969.72,-67.0927"/>
</g>
<!-- Node23 -->
<g id="node16" class="node"><title>Node23</title>
<g id="a_node16"><a xlink:href="../../d6/d42/groupdef_8cpp.html" target="_top" xlink:title="src/groupdef.cpp">
<polygon fill="white" stroke="black" points="1359.5,-0.5 1359.5,-19.5 1448.5,-19.5 1448.5,-0.5 1359.5,-0.5"/>
<text text-anchor="middle" x="1404" y="-7.5" font-family="Helvetica,sans-Serif" font-size="10.00">src/groupdef.cpp</text>
</a>
</g>
</g>
<!-- Node9&#45;&gt;Node23 -->
<g id="edge15" class="edge"><title>Node9&#45;&gt;Node23</title>
<path fill="none" stroke="midnightblue" d="M1969.67,-62.4745C1871.04,-57.1937 1645.47,-43.4872 1457,-20 1454.31,-19.6653 1451.56,-19.2909 1448.78,-18.8902"/>
<polygon fill="midnightblue" stroke="midnightblue" points="1969.77,-65.9845 1979.94,-63.0182 1970.14,-58.9942 1969.77,-65.9845"/>
</g>
<!-- Node24 -->
<g id="node17" class="node"><title>Node24</title>
<g id="a_node17"><a xlink:href="../../da/db0/htmldocvisitor_8cpp.html" target="_top" xlink:title="src/htmldocvisitor.cpp">
<polygon fill="white" stroke="black" points="1466.5,-0.5 1466.5,-19.5 1579.5,-19.5 1579.5,-0.5 1466.5,-0.5"/>
<text text-anchor="middle" x="1523" y="-7.5" font-family="Helvetica,sans-Serif" font-size="10.00">src/htmldocvisitor.cpp</text>
</a>
</g>
</g>
<!-- Node9&#45;&gt;Node24 -->
<g id="edge16" class="edge"><title>Node9&#45;&gt;Node24</title>
<path fill="none" stroke="midnightblue" d="M1969.5,-60.2475C1888.94,-52.5497 1726.43,-36.5404 1589,-20 1585.9,-19.6269 1582.72,-19.2324 1579.51,-18.8251"/>
<polygon fill="midnightblue" stroke="midnightblue" points="1969.56,-63.7688 1979.84,-61.2334 1970.22,-56.8004 1969.56,-63.7688"/>
</g>
<!-- Node25 -->
<g id="node18" class="node"><title>Node25</title>
<g id="a_node18"><a xlink:href="../../d8/d6e/htmlgen_8cpp.html" target="_top" xlink:title="src/htmlgen.cpp">
<polygon fill="white" stroke="black" points="1598,-0.5 1598,-19.5 1684,-19.5 1684,-0.5 1598,-0.5"/>
<text text-anchor="middle" x="1641" y="-7.5" font-family="Helvetica,sans-Serif" font-size="10.00">src/htmlgen.cpp</text>
</a>
</g>
</g>
<!-- Node9&#45;&gt;Node25 -->
<g id="edge17" class="edge"><title>Node9&#45;&gt;Node25</title>
<path fill="none" stroke="midnightblue" d="M1969.66,-58.6223C1905.38,-50.3524 1790.76,-35.182 1693,-20 1690.1,-19.5501 1687.12,-19.072 1684.11,-18.5799"/>
<polygon fill="midnightblue" stroke="midnightblue" points="1969.55,-62.1371 1979.92,-59.9382 1970.44,-55.194 1969.55,-62.1371"/>
</g>
<!-- Node26 -->
<g id="node19" class="node"><title>Node26</title>
<g id="a_node19"><a xlink:href="../../d3/d4b/htmlhelp_8cpp.html" target="_top" xlink:title="src/htmlhelp.cpp">
<polygon fill="white" stroke="black" points="1702.5,-0.5 1702.5,-19.5 1791.5,-19.5 1791.5,-0.5 1702.5,-0.5"/>
<text text-anchor="middle" x="1747" y="-7.5" font-family="Helvetica,sans-Serif" font-size="10.00">src/htmlhelp.cpp</text>
</a>
</g>
</g>
<!-- Node9&#45;&gt;Node26 -->
<g id="edge18" class="edge"><title>Node9&#45;&gt;Node26</title>
<path fill="none" stroke="midnightblue" d="M1969.8,-55.0706C1918.28,-44.8794 1838.95,-29.1871 1790.15,-19.536"/>
<polygon fill="midnightblue" stroke="midnightblue" points="1969.23,-58.5251 1979.72,-57.0321 1970.59,-51.6581 1969.23,-58.5251"/>
</g>
<!-- Node27 -->
<g id="node20" class="node"><title>Node27</title>
<g id="a_node20"><a xlink:href="../../db/d14/index_8cpp.html" target="_top" xlink:title="This file contains functions for the various index pages. ">
<polygon fill="white" stroke="black" points="1809.5,-0.5 1809.5,-19.5 1884.5,-19.5 1884.5,-0.5 1809.5,-0.5"/>
<text text-anchor="middle" x="1847" y="-7.5" font-family="Helvetica,sans-Serif" font-size="10.00">src/index.cpp</text>
</a>
</g>
</g>
<!-- Node9&#45;&gt;Node27 -->
<g id="edge19" class="edge"><title>Node9&#45;&gt;Node27</title>
<path fill="none" stroke="midnightblue" d="M1982.95,-53.4363C1950.34,-43.2551 1903.59,-28.664 1874.28,-19.5164"/>
<polygon fill="midnightblue" stroke="midnightblue" points="1982,-56.8049 1992.59,-56.4435 1984.08,-50.1228 1982,-56.8049"/>
</g>
<!-- Node9&#45;&gt;Node28 -->
<g id="edge20" class="edge"><title>Node9&#45;&gt;Node28</title>
<path fill="none" stroke="midnightblue" d="M2070.14,-64.7826C2335.49,-63.4885 3578.05,-55.5972 3961,-20 3964.08,-19.7134 3967.25,-19.3579 3970.44,-18.9551"/>
<polygon fill="midnightblue" stroke="midnightblue" points="2070.02,-61.2831 2060.04,-64.831 2070.05,-68.283 2070.02,-61.2831"/>
</g>
<!-- Node29 -->
<g id="node22" class="node"><title>Node29</title>
<g id="a_node22"><a xlink:href="../../d1/d4e/latexdocvisitor_8cpp.html" target="_top" xlink:title="src/latexdocvisitor.cpp">
<polygon fill="white" stroke="black" points="1902.5,-0.5 1902.5,-19.5 2017.5,-19.5 2017.5,-0.5 1902.5,-0.5"/>
<text text-anchor="middle" x="1960" y="-7.5" font-family="Helvetica,sans-Serif" font-size="10.00">src/latexdocvisitor.cpp</text>
</a>
</g>
</g>
<!-- Node9&#45;&gt;Node29 -->
<g id="edge21" class="edge"><title>Node9&#45;&gt;Node29</title>
<path fill="none" stroke="midnightblue" d="M2002.82,-49.5372C1992.12,-39.9087 1978.74,-27.8694 1969.82,-19.8339"/>
<polygon fill="midnightblue" stroke="midnightblue" points="2000.59,-52.2358 2010.36,-56.324 2005.27,-47.0327 2000.59,-52.2358"/>
</g>
<!-- Node30 -->
<g id="node23" class="node"><title>Node30</title>
<g id="a_node23"><a xlink:href="../../d4/d42/latexgen_8cpp.html" target="_top" xlink:title="src/latexgen.cpp">
<polygon fill="white" stroke="black" points="2035.5,-0.5 2035.5,-19.5 2124.5,-19.5 2124.5,-0.5 2035.5,-0.5"/>
<text text-anchor="middle" x="2080" y="-7.5" font-family="Helvetica,sans-Serif" font-size="10.00">src/latexgen.cpp</text>
</a>
</g>
</g>
<!-- Node9&#45;&gt;Node30 -->
<g id="edge22" class="edge"><title>Node9&#45;&gt;Node30</title>
<path fill="none" stroke="midnightblue" d="M2037.18,-49.5372C2047.88,-39.9087 2061.26,-27.8694 2070.18,-19.8339"/>
<polygon fill="midnightblue" stroke="midnightblue" points="2034.73,-47.0327 2029.64,-56.324 2039.41,-52.2358 2034.73,-47.0327"/>
</g>
<!-- Node31 -->
<g id="node24" class="node"><title>Node31</title>
<g id="a_node24"><a xlink:href="../../db/d16/layout_8cpp.html" target="_top" xlink:title="src/layout.cpp">
<polygon fill="white" stroke="black" points="2143,-0.5 2143,-19.5 2221,-19.5 2221,-0.5 2143,-0.5"/>
<text text-anchor="middle" x="2182" y="-7.5" font-family="Helvetica,sans-Serif" font-size="10.00">src/layout.cpp</text>
</a>
</g>
</g>
<!-- Node9&#45;&gt;Node31 -->
<g id="edge23" class="edge"><title>Node9&#45;&gt;Node31</title>
<path fill="none" stroke="midnightblue" d="M2055.48,-53.172C2085.99,-43.0039 2129.24,-28.5852 2156.45,-19.5164"/>
<polygon fill="midnightblue" stroke="midnightblue" points="2054.05,-49.9608 2045.67,-56.4435 2056.26,-56.6016 2054.05,-49.9608"/>
</g>
<!-- Node32 -->
<g id="node25" class="node"><title>Node32</title>
<g id="a_node25"><a xlink:href="../../d8/dde/mandocvisitor_8cpp.html" target="_top" xlink:title="src/mandocvisitor.cpp">
<polygon fill="white" stroke="black" points="2239.5,-0.5 2239.5,-19.5 2352.5,-19.5 2352.5,-0.5 2239.5,-0.5"/>
<text text-anchor="middle" x="2296" y="-7.5" font-family="Helvetica,sans-Serif" font-size="10.00">src/mandocvisitor.cpp</text>
</a>
</g>
</g>
<!-- Node9&#45;&gt;Node32 -->
<g id="edge24" class="edge"><title>Node9&#45;&gt;Node32</title>
<path fill="none" stroke="midnightblue" d="M2070.14,-55.191C2122.13,-45.0171 2202.63,-29.2681 2252.17,-19.5756"/>
<polygon fill="midnightblue" stroke="midnightblue" points="2069.27,-51.7929 2060.13,-57.1479 2070.62,-58.6626 2069.27,-51.7929"/>
</g>
<!-- Node33 -->
<g id="node26" class="node"><title>Node33</title>
<g id="a_node26"><a xlink:href="../../d7/de7/mangen_8cpp.html" target="_top" xlink:title="src/mangen.cpp">
<polygon fill="white" stroke="black" points="2371,-0.5 2371,-19.5 2457,-19.5 2457,-0.5 2371,-0.5"/>
<text text-anchor="middle" x="2414" y="-7.5" font-family="Helvetica,sans-Serif" font-size="10.00">src/mangen.cpp</text>
</a>
</g>
</g>
<!-- Node9&#45;&gt;Node33 -->
<g id="edge25" class="edge"><title>Node9&#45;&gt;Node33</title>
<path fill="none" stroke="midnightblue" d="M2070.44,-58.9356C2137.07,-50.7899 2258.01,-35.5343 2361,-20 2364.23,-19.5128 2367.57,-18.9906 2370.92,-18.452"/>
<polygon fill="midnightblue" stroke="midnightblue" points="2069.73,-55.4964 2060.23,-60.1808 2070.58,-62.445 2069.73,-55.4964"/>
</g>
<!-- Node34 -->
<g id="node27" class="node"><title>Node34</title>
<g id="a_node27"><a xlink:href="../../d0/d72/memberdef_8cpp.html" target="_top" xlink:title="src/memberdef.cpp">
<polygon fill="white" stroke="black" points="2475.5,-0.5 2475.5,-19.5 2576.5,-19.5 2576.5,-0.5 2475.5,-0.5"/>
<text text-anchor="middle" x="2526" y="-7.5" font-family="Helvetica,sans-Serif" font-size="10.00">src/memberdef.cpp</text>
</a>
</g>
</g>
<!-- Node9&#45;&gt;Node34 -->
<g id="edge26" class="edge"><title>Node9&#45;&gt;Node34</title>
<path fill="none" stroke="midnightblue" d="M2070.17,-60.7347C2152.81,-53.5296 2322.71,-37.9649 2466,-20 2469.03,-19.62 2472.15,-19.2106 2475.28,-18.7833"/>
<polygon fill="midnightblue" stroke="midnightblue" points="2069.71,-57.2611 2060.05,-61.6128 2070.32,-64.2348 2069.71,-57.2611"/>
</g>
<!-- Node35 -->
<g id="node28" class="node"><title>Node35</title>
<g id="a_node28"><a xlink:href="../../d6/d18/membergroup_8cpp.html" target="_top" xlink:title="src/membergroup.cpp">
<polygon fill="white" stroke="black" points="2594.5,-0.5 2594.5,-19.5 2705.5,-19.5 2705.5,-0.5 2594.5,-0.5"/>
<text text-anchor="middle" x="2650" y="-7.5" font-family="Helvetica,sans-Serif" font-size="10.00">src/membergroup.cpp</text>
</a>
</g>
</g>
<!-- Node9&#45;&gt;Node35 -->
<g id="edge27" class="edge"><title>Node9&#45;&gt;Node35</title>
<path fill="none" stroke="midnightblue" d="M2070.14,-61.9881C2168.87,-55.841 2395.33,-40.6661 2585,-20 2588.06,-19.6668 2591.19,-19.3038 2594.36,-18.9209"/>
<polygon fill="midnightblue" stroke="midnightblue" points="2069.91,-58.4955 2060.15,-62.6066 2070.35,-65.4821 2069.91,-58.4955"/>
</g>
<!-- Node36 -->
<g id="node29" class="node"><title>Node36</title>
<g id="a_node29"><a xlink:href="../../d0/d14/memberlist_8cpp.html" target="_top" xlink:title="src/memberlist.cpp">
<polygon fill="white" stroke="black" points="2724,-0.5 2724,-19.5 2824,-19.5 2824,-0.5 2724,-0.5"/>
<text text-anchor="middle" x="2774" y="-7.5" font-family="Helvetica,sans-Serif" font-size="10.00">src/memberlist.cpp</text>
</a>
</g>
</g>
<!-- Node9&#45;&gt;Node36 -->
<g id="edge28" class="edge"><title>Node9&#45;&gt;Node36</title>
<path fill="none" stroke="midnightblue" d="M2070.2,-63.1946C2184.65,-58.7618 2473.6,-45.7778 2714,-20 2717.25,-19.6519 2720.59,-19.2561 2723.95,-18.8293"/>
<polygon fill="midnightblue" stroke="midnightblue" points="2069.86,-59.7051 2060,-63.5849 2070.13,-66.6999 2069.86,-59.7051"/>
</g>
<!-- Node37 -->
<g id="node30" class="node"><title>Node37</title>
<g id="a_node30"><a xlink:href="../../d7/d1c/namespacedef_8cpp.html" target="_top" xlink:title="src/namespacedef.cpp">
<polygon fill="white" stroke="black" points="2842,-0.5 2842,-19.5 2958,-19.5 2958,-0.5 2842,-0.5"/>
<text text-anchor="middle" x="2900" y="-7.5" font-family="Helvetica,sans-Serif" font-size="10.00">src/namespacedef.cpp</text>
</a>
</g>
</g>
<!-- Node9&#45;&gt;Node37 -->
<g id="edge29" class="edge"><title>Node9&#45;&gt;Node37</title>
<path fill="none" stroke="midnightblue" d="M2070.53,-63.578C2198.41,-59.6807 2545.2,-47.2526 2833,-20 2835.92,-19.7234 2838.91,-19.415 2841.93,-19.0836"/>
<polygon fill="midnightblue" stroke="midnightblue" points="2070.16,-60.0875 2060.27,-63.8867 2070.37,-67.0843 2070.16,-60.0875"/>
</g>
<!-- Node38 -->
<g id="node31" class="node"><title>Node38</title>
<g id="a_node31"><a xlink:href="../../d9/db4/pagedef_8cpp.html" target="_top" xlink:title="src/pagedef.cpp">
<polygon fill="white" stroke="black" points="2976,-0.5 2976,-19.5 3062,-19.5 3062,-0.5 2976,-0.5"/>
<text text-anchor="middle" x="3019" y="-7.5" font-family="Helvetica,sans-Serif" font-size="10.00">src/pagedef.cpp</text>
</a>
</g>
</g>
<!-- Node9&#45;&gt;Node38 -->
<g id="edge30" class="edge"><title>Node9&#45;&gt;Node38</title>
<path fill="none" stroke="midnightblue" d="M2070.41,-64.7987C2212.11,-63.7604 2625.82,-57.4854 2967,-20 2969.91,-19.6798 2972.91,-19.299 2975.93,-18.8778"/>
<polygon fill="midnightblue" stroke="midnightblue" points="2070.27,-61.2995 2060.29,-64.8672 2070.32,-68.2993 2070.27,-61.2995"/>
</g>
<!-- Node39 -->
<g id="node32" class="node"><title>Node39</title>
<g id="a_node32"><a xlink:href="../../de/d9a/rtfdocvisitor_8cpp.html" target="_top" xlink:title="src/rtfdocvisitor.cpp">
<polygon fill="white" stroke="black" points="3080.5,-0.5 3080.5,-19.5 3183.5,-19.5 3183.5,-0.5 3080.5,-0.5"/>
<text text-anchor="middle" x="3132" y="-7.5" font-family="Helvetica,sans-Serif" font-size="10.00">src/rtfdocvisitor.cpp</text>
</a>
</g>
</g>
<!-- Node9&#45;&gt;Node39 -->
<g id="edge31" class="edge"><title>Node9&#45;&gt;Node39</title>
<path fill="none" stroke="midnightblue" d="M2070.58,-64.6918C2222.42,-63.368 2687.48,-56.4037 3071,-20 3074.09,-19.7066 3077.26,-19.3643 3080.46,-18.9877"/>
<polygon fill="midnightblue" stroke="midnightblue" points="2070.17,-61.195 2060.2,-64.7777 2070.22,-68.1948 2070.17,-61.195"/>
</g>
<!-- Node40 -->
<g id="node33" class="node"><title>Node40</title>
<g id="a_node33"><a xlink:href="../../d0/d9c/rtfgen_8cpp.html" target="_top" xlink:title="src/rtfgen.cpp">
<polygon fill="white" stroke="black" points="3201.5,-0.5 3201.5,-19.5 3278.5,-19.5 3278.5,-0.5 3201.5,-0.5"/>
<text text-anchor="middle" x="3240" y="-7.5" font-family="Helvetica,sans-Serif" font-size="10.00">src/rtfgen.cpp</text>
</a>
</g>
</g>
<!-- Node9&#45;&gt;Node40 -->
<g id="edge32" class="edge"><title>Node9&#45;&gt;Node40</title>
<path fill="none" stroke="midnightblue" d="M2070.26,-64.0551C2264.93,-60.2423 2969.59,-44.984 3192,-20 3195.03,-19.6593 3198.16,-19.2364 3201.3,-18.7612"/>
<polygon fill="midnightblue" stroke="midnightblue" points="2069.97,-60.5601 2060.04,-64.254 2070.1,-67.5587 2069.97,-60.5601"/>
</g>
<!-- Node41 -->
<g id="node34" class="node"><title>Node41</title>
<g id="a_node34"><a xlink:href="../../d7/d79/searchindex_8cpp.html" target="_top" xlink:title="src/searchindex.cpp">
<polygon fill="white" stroke="black" points="3297,-0.5 3297,-19.5 3401,-19.5 3401,-0.5 3297,-0.5"/>
<text text-anchor="middle" x="3349" y="-7.5" font-family="Helvetica,sans-Serif" font-size="10.00">src/searchindex.cpp</text>
</a>
</g>
</g>
<!-- Node9&#45;&gt;Node41 -->
<g id="edge33" class="edge"><title>Node9&#45;&gt;Node41</title>
<path fill="none" stroke="midnightblue" d="M2070.24,-65.1731C2241.07,-65.3445 2815.15,-62.4997 3287,-20 3290.25,-19.7073 3293.59,-19.3596 3296.95,-18.9738"/>
<polygon fill="midnightblue" stroke="midnightblue" points="2070.05,-61.6729 2060.04,-65.1587 2070.04,-68.6729 2070.05,-61.6729"/>
</g>
<!-- Node42 -->
<g id="node35" class="node"><title>Node42</title>
<g id="a_node35"><a xlink:href="../../df/d2d/util_8cpp.html" target="_top" xlink:title="src/util.cpp">
<polygon fill="white" stroke="black" points="3419.5,-0.5 3419.5,-19.5 3484.5,-19.5 3484.5,-0.5 3419.5,-0.5"/>
<text text-anchor="middle" x="3452" y="-7.5" font-family="Helvetica,sans-Serif" font-size="10.00">src/util.cpp</text>
</a>
</g>
</g>
<!-- Node9&#45;&gt;Node42 -->
<g id="edge34" class="edge"><title>Node9&#45;&gt;Node42</title>
<path fill="none" stroke="midnightblue" d="M2070.45,-64.5751C2287.52,-62.5608 3142.96,-52.6679 3410,-20 3412.96,-19.6378 3416.02,-19.1691 3419.08,-18.6359"/>
<polygon fill="midnightblue" stroke="midnightblue" points="2070.27,-61.0764 2060.31,-64.6678 2070.34,-68.0762 2070.27,-61.0764"/>
</g>
<!-- Node43 -->
<g id="node36" class="node"><title>Node43</title>
<g id="a_node36"><a xlink:href="../../de/dea/vhdldocgen_8cpp.html" target="_top" xlink:title="src/vhdldocgen.cpp">
<polygon fill="white" stroke="black" points="3502.5,-0.5 3502.5,-19.5 3603.5,-19.5 3603.5,-0.5 3502.5,-0.5"/>
<text text-anchor="middle" x="3553" y="-7.5" font-family="Helvetica,sans-Serif" font-size="10.00">src/vhdldocgen.cpp</text>
</a>
</g>
</g>
<!-- Node9&#45;&gt;Node43 -->
<g id="edge35" class="edge"><title>Node9&#45;&gt;Node43</title>
<path fill="none" stroke="midnightblue" d="M2070.45,-64.2617C2295.33,-60.8474 3207.83,-45.6531 3493,-20 3496.04,-19.7263 3499.17,-19.3992 3502.31,-19.0341"/>
<polygon fill="midnightblue" stroke="midnightblue" points="2070.21,-60.7648 2060.27,-64.4154 2070.32,-67.764 2070.21,-60.7648"/>
</g>
<!-- Node44 -->
<g id="node37" class="node"><title>Node44</title>
<g id="a_node37"><a xlink:href="../../d1/d86/vhdljjparser_8cpp.html" target="_top" xlink:title="src/vhdljjparser.cpp">
<polygon fill="white" stroke="black" points="3621.5,-0.5 3621.5,-19.5 3722.5,-19.5 3722.5,-0.5 3621.5,-0.5"/>
<text text-anchor="middle" x="3672" y="-7.5" font-family="Helvetica,sans-Serif" font-size="10.00">src/vhdljjparser.cpp</text>
</a>
</g>
</g>
<!-- Node9&#45;&gt;Node44 -->
<g id="edge36" class="edge"><title>Node9&#45;&gt;Node44</title>
<path fill="none" stroke="midnightblue" d="M2070.62,-64.3923C2306.81,-61.4306 3302.1,-47.5211 3612,-20 3615.04,-19.7298 3618.17,-19.4053 3621.31,-19.0423"/>
<polygon fill="midnightblue" stroke="midnightblue" points="2070.23,-60.8968 2060.27,-64.5211 2070.32,-67.8963 2070.23,-60.8968"/>
</g>
<!-- Node45 -->
<g id="node38" class="node"><title>Node45</title>
<g id="a_node38"><a xlink:href="../../dd/db6/xmldocvisitor_8cpp.html" target="_top" xlink:title="src/xmldocvisitor.cpp">
<polygon fill="white" stroke="black" points="3741,-0.5 3741,-19.5 3851,-19.5 3851,-0.5 3741,-0.5"/>
<text text-anchor="middle" x="3796" y="-7.5" font-family="Helvetica,sans-Serif" font-size="10.00">src/xmldocvisitor.cpp</text>
</a>
</g>
</g>
<!-- Node9&#45;&gt;Node45 -->
<g id="edge37" class="edge"><title>Node9&#45;&gt;Node45</title>
<path fill="none" stroke="midnightblue" d="M2070.38,-64.4328C2316.7,-61.5436 3395.98,-47.5137 3731,-20 3734.18,-19.7389 3737.44,-19.4273 3740.73,-19.0793"/>
<polygon fill="midnightblue" stroke="midnightblue" points="2070.24,-60.934 2060.28,-64.5504 2070.32,-67.9336 2070.24,-60.934"/>
</g>
<!-- Node46 -->
<g id="node39" class="node"><title>Node46</title>
<g id="a_node39"><a xlink:href="../../d0/dc3/xmlgen_8cpp.html" target="_top" xlink:title="src/xmlgen.cpp">
<polygon fill="white" stroke="black" points="3869.5,-0.5 3869.5,-19.5 3952.5,-19.5 3952.5,-0.5 3869.5,-0.5"/>
<text text-anchor="middle" x="3911" y="-7.5" font-family="Helvetica,sans-Serif" font-size="10.00">src/xmlgen.cpp</text>
</a>
</g>
</g>
<!-- Node9&#45;&gt;Node46 -->
<g id="edge38" class="edge"><title>Node9&#45;&gt;Node46</title>
<path fill="none" stroke="midnightblue" d="M2070.4,-64.7919C2327.91,-63.5725 3498.56,-56.1046 3860,-20 3863.04,-19.6961 3866.18,-19.3143 3869.32,-18.8804"/>
<polygon fill="midnightblue" stroke="midnightblue" points="2070.21,-61.2927 2060.22,-64.8391 2070.24,-68.2926 2070.21,-61.2927"/>
</g>
<!-- Node47&#45;&gt;Node28 -->
<g id="edge41" class="edge"><title>Node47&#45;&gt;Node28</title>
<path fill="none" stroke="midnightblue" d="M4016,-45.8045C4016,-36.9102 4016,-26.7798 4016,-19.7511"/>
<polygon fill="midnightblue" stroke="midnightblue" points="4012.5,-46.083 4016,-56.083 4019.5,-46.083 4012.5,-46.083"/>
</g>
</g>
</svg>
