<?xml version="1.0" encoding="UTF-8" standalone="no"?>
<!DOCTYPE svg PUBLIC "-//W3C//DTD SVG 1.1//EN"
 "http://www.w3.org/Graphics/SVG/1.1/DTD/svg11.dtd">
<!-- Generated by graphviz version 2.38.0 (20140413.2041)
 -->
<!-- Title: src/section.h Pages: 1 -->
<svg width="2591pt" height="196pt"
 viewBox="0.00 0.00 2590.50 196.00" xmlns="http://www.w3.org/2000/svg" xmlns:xlink="http://www.w3.org/1999/xlink">
<g id="graph0" class="graph" transform="scale(1 1) rotate(0) translate(4 192)">
<title>src/section.h</title>
<polygon fill="white" stroke="none" points="-4,4 -4,-192 2586.5,-192 2586.5,4 -4,4"/>
<!-- Node5 -->
<g id="node1" class="node"><title>Node5</title>
<polygon fill="#bfbfbf" stroke="black" points="1949.5,-168.5 1949.5,-187.5 2022.5,-187.5 2022.5,-168.5 1949.5,-168.5"/>
<text text-anchor="middle" x="1986" y="-175.5" font-family="Helvetica,sans-Serif" font-size="10.00">src/section.h</text>
</g>
<!-- Node6 -->
<g id="node2" class="node"><title>Node6</title>
<g id="a_node2"><a xlink:href="../../df/d06/outputgen_8h.html" target="_top" xlink:title="src/outputgen.h">
<polygon fill="white" stroke="black" points="940,-112.5 940,-131.5 1024,-131.5 1024,-112.5 940,-112.5"/>
<text text-anchor="middle" x="982" y="-119.5" font-family="Helvetica,sans-Serif" font-size="10.00">src/outputgen.h</text>
</a>
</g>
</g>
<!-- Node5&#45;&gt;Node6 -->
<g id="edge1" class="edge"><title>Node5&#45;&gt;Node6</title>
<path fill="none" stroke="midnightblue" d="M1939.26,-174.486C1769.43,-165.352 1186.53,-134.001 1024.24,-125.272"/>
<polygon fill="midnightblue" stroke="midnightblue" points="1939.2,-177.988 1949.38,-175.03 1939.58,-170.998 1939.2,-177.988"/>
</g>
<!-- Node10 -->
<g id="node6" class="node"><title>Node10</title>
<g id="a_node6"><a xlink:href="../../d3/dea/definition_8cpp.html" target="_top" xlink:title="src/definition.cpp">
<polygon fill="white" stroke="black" points="2491.5,-0.5 2491.5,-19.5 2582.5,-19.5 2582.5,-0.5 2491.5,-0.5"/>
<text text-anchor="middle" x="2537" y="-7.5" font-family="Helvetica,sans-Serif" font-size="10.00">src/definition.cpp</text>
</a>
</g>
</g>
<!-- Node5&#45;&gt;Node10 -->
<g id="edge50" class="edge"><title>Node5&#45;&gt;Node10</title>
<path fill="none" stroke="midnightblue" d="M1939.29,-166.858C1900.75,-156.379 1855.74,-137.903 1878,-112 1966.48,-9.02105 2347.89,-41.1852 2482,-20 2485.06,-19.5169 2488.21,-19.0139 2491.39,-18.5036"/>
<polygon fill="midnightblue" stroke="midnightblue" points="1938.86,-170.361 1949.42,-169.475 1940.61,-163.584 1938.86,-170.361"/>
</g>
<!-- Node33 -->
<g id="node29" class="node"><title>Node33</title>
<g id="a_node29"><a xlink:href="../../d8/d29/docbookgen_8cpp.html" target="_top" xlink:title="src/docbookgen.cpp">
<polygon fill="white" stroke="black" points="1625,-56.5 1625,-75.5 1729,-75.5 1729,-56.5 1625,-56.5"/>
<text text-anchor="middle" x="1677" y="-63.5" font-family="Helvetica,sans-Serif" font-size="10.00">src/docbookgen.cpp</text>
</a>
</g>
</g>
<!-- Node5&#45;&gt;Node33 -->
<g id="edge51" class="edge"><title>Node5&#45;&gt;Node33</title>
<path fill="none" stroke="midnightblue" d="M1939.23,-166.601C1905.39,-158.547 1858.8,-146.36 1819,-132 1772.07,-115.07 1719.25,-88.8977 1693.24,-75.515"/>
<polygon fill="midnightblue" stroke="midnightblue" points="1938.77,-170.087 1949.3,-168.966 1940.37,-163.272 1938.77,-170.087"/>
</g>
<!-- Node46 -->
<g id="node42" class="node"><title>Node46</title>
<g id="a_node42"><a xlink:href="../../d0/dc3/xmlgen_8cpp.html" target="_top" xlink:title="src/xmlgen.cpp">
<polygon fill="white" stroke="black" points="1747.5,-56.5 1747.5,-75.5 1830.5,-75.5 1830.5,-56.5 1747.5,-56.5"/>
<text text-anchor="middle" x="1789" y="-63.5" font-family="Helvetica,sans-Serif" font-size="10.00">src/xmlgen.cpp</text>
</a>
</g>
</g>
<!-- Node5&#45;&gt;Node46 -->
<g id="edge58" class="edge"><title>Node5&#45;&gt;Node46</title>
<path fill="none" stroke="midnightblue" d="M1939.56,-168.916C1910.61,-162.31 1873.57,-150.892 1845,-132 1822.14,-116.882 1803.21,-89.9171 1794.37,-75.9451"/>
<polygon fill="midnightblue" stroke="midnightblue" points="1938.92,-172.358 1949.43,-171.056 1940.4,-165.517 1938.92,-172.358"/>
</g>
<!-- Node47 -->
<g id="node43" class="node"><title>Node47</title>
<g id="a_node43"><a xlink:href="../../da/d17/docparser_8cpp.html" target="_top" xlink:title="src/docparser.cpp">
<polygon fill="white" stroke="black" points="1887.5,-112.5 1887.5,-131.5 1982.5,-131.5 1982.5,-112.5 1887.5,-112.5"/>
<text text-anchor="middle" x="1935" y="-119.5" font-family="Helvetica,sans-Serif" font-size="10.00">src/docparser.cpp</text>
</a>
</g>
</g>
<!-- Node5&#45;&gt;Node47 -->
<g id="edge52" class="edge"><title>Node5&#45;&gt;Node47</title>
<path fill="none" stroke="midnightblue" d="M1970.62,-160.718C1961.63,-151.2 1950.64,-139.561 1943.26,-131.751"/>
<polygon fill="midnightblue" stroke="midnightblue" points="1968.17,-163.216 1977.58,-168.083 1973.26,-158.41 1968.17,-163.216"/>
</g>
<!-- Node48 -->
<g id="node44" class="node"><title>Node48</title>
<g id="a_node44"><a xlink:href="../../d2/dd2/entry_8cpp.html" target="_top" xlink:title="src/entry.cpp">
<polygon fill="white" stroke="black" points="2001,-112.5 2001,-131.5 2075,-131.5 2075,-112.5 2001,-112.5"/>
<text text-anchor="middle" x="2038" y="-119.5" font-family="Helvetica,sans-Serif" font-size="10.00">src/entry.cpp</text>
</a>
</g>
</g>
<!-- Node5&#45;&gt;Node48 -->
<g id="edge53" class="edge"><title>Node5&#45;&gt;Node48</title>
<path fill="none" stroke="midnightblue" d="M2001.68,-160.718C2010.84,-151.2 2022.05,-139.561 2029.57,-131.751"/>
<polygon fill="midnightblue" stroke="midnightblue" points="1999,-158.452 1994.59,-168.083 2004.04,-163.308 1999,-158.452"/>
</g>
<!-- Node49 -->
<g id="node45" class="node"><title>Node49</title>
<g id="a_node45"><a xlink:href="../../de/d04/markdown_8cpp.html" target="_top" xlink:title="src/markdown.cpp">
<polygon fill="white" stroke="black" points="2093.5,-112.5 2093.5,-131.5 2190.5,-131.5 2190.5,-112.5 2093.5,-112.5"/>
<text text-anchor="middle" x="2142" y="-119.5" font-family="Helvetica,sans-Serif" font-size="10.00">src/markdown.cpp</text>
</a>
</g>
</g>
<!-- Node5&#45;&gt;Node49 -->
<g id="edge54" class="edge"><title>Node5&#45;&gt;Node49</title>
<path fill="none" stroke="midnightblue" d="M2020.17,-165.172C2049.54,-155.004 2091.2,-140.585 2117.4,-131.516"/>
<polygon fill="midnightblue" stroke="midnightblue" points="2019.02,-161.865 2010.72,-168.444 2021.31,-168.48 2019.02,-161.865"/>
</g>
<!-- Node50 -->
<g id="node46" class="node"><title>Node50</title>
<g id="a_node46"><a xlink:href="../../d9/d85/marshal_8cpp.html" target="_top" xlink:title="src/marshal.cpp">
<polygon fill="white" stroke="black" points="2209,-112.5 2209,-131.5 2295,-131.5 2295,-112.5 2209,-112.5"/>
<text text-anchor="middle" x="2252" y="-119.5" font-family="Helvetica,sans-Serif" font-size="10.00">src/marshal.cpp</text>
</a>
</g>
</g>
<!-- Node5&#45;&gt;Node50 -->
<g id="edge55" class="edge"><title>Node5&#45;&gt;Node50</title>
<path fill="none" stroke="midnightblue" d="M2032.64,-167.532C2082.76,-157.357 2161.71,-141.329 2209.98,-131.531"/>
<polygon fill="midnightblue" stroke="midnightblue" points="2031.81,-164.129 2022.71,-169.548 2033.2,-170.989 2031.81,-164.129"/>
</g>
<!-- Node51 -->
<g id="node47" class="node"><title>Node51</title>
<g id="a_node47"><a xlink:href="../../de/dd0/perlmodgen_8cpp.html" target="_top" xlink:title="src/perlmodgen.cpp">
<polygon fill="white" stroke="black" points="2313,-112.5 2313,-131.5 2415,-131.5 2415,-112.5 2313,-112.5"/>
<text text-anchor="middle" x="2364" y="-119.5" font-family="Helvetica,sans-Serif" font-size="10.00">src/perlmodgen.cpp</text>
</a>
</g>
</g>
<!-- Node5&#45;&gt;Node51 -->
<g id="edge56" class="edge"><title>Node5&#45;&gt;Node51</title>
<path fill="none" stroke="midnightblue" d="M2032.99,-170.475C2095.06,-161.827 2207.77,-146.026 2304,-132 2306.92,-131.575 2309.92,-131.135 2312.94,-130.688"/>
<polygon fill="midnightblue" stroke="midnightblue" points="2032.16,-167.057 2022.74,-171.902 2033.13,-173.99 2032.16,-167.057"/>
</g>
<!-- Node52 -->
<g id="node48" class="node"><title>Node52</title>
<g id="a_node48"><a xlink:href="../../d4/d7b/tagreader_8cpp.html" target="_top" xlink:title="src/tagreader.cpp">
<polygon fill="white" stroke="black" points="2433,-112.5 2433,-131.5 2525,-131.5 2525,-112.5 2433,-112.5"/>
<text text-anchor="middle" x="2479" y="-119.5" font-family="Helvetica,sans-Serif" font-size="10.00">src/tagreader.cpp</text>
</a>
</g>
</g>
<!-- Node5&#45;&gt;Node52 -->
<g id="edge57" class="edge"><title>Node5&#45;&gt;Node52</title>
<path fill="none" stroke="midnightblue" d="M2032.99,-173.102C2113.3,-166.231 2282.05,-150.889 2424,-132 2426.88,-131.617 2429.84,-131.2 2432.82,-130.763"/>
<polygon fill="midnightblue" stroke="midnightblue" points="2032.38,-169.64 2022.72,-173.975 2032.98,-176.615 2032.38,-169.64"/>
</g>
<!-- Node7 -->
<g id="node3" class="node"><title>Node7</title>
<g id="a_node3"><a xlink:href="../../d2/db9/outputlist_8h.html" target="_top" xlink:title="src/outputlist.h">
<polygon fill="white" stroke="black" points="1487.5,-56.5 1487.5,-75.5 1568.5,-75.5 1568.5,-56.5 1487.5,-56.5"/>
<text text-anchor="middle" x="1528" y="-63.5" font-family="Helvetica,sans-Serif" font-size="10.00">src/outputlist.h</text>
</a>
</g>
</g>
<!-- Node6&#45;&gt;Node7 -->
<g id="edge2" class="edge"><title>Node6&#45;&gt;Node7</title>
<path fill="none" stroke="midnightblue" d="M1034.29,-117.769C1124.92,-111.831 1316.91,-97.7636 1478,-76 1481.06,-75.5867 1484.22,-75.1182 1487.39,-74.6173"/>
<polygon fill="midnightblue" stroke="midnightblue" points="1034.03,-114.278 1024.27,-118.419 1034.48,-121.264 1034.03,-114.278"/>
</g>
<!-- Node20 -->
<g id="node16" class="node"><title>Node20</title>
<g id="a_node16"><a xlink:href="../../db/dd8/outputlist_8cpp.html" target="_top" xlink:title="src/outputlist.cpp">
<polygon fill="white" stroke="black" points="2381,-0.5 2381,-19.5 2473,-19.5 2473,-0.5 2381,-0.5"/>
<text text-anchor="middle" x="2427" y="-7.5" font-family="Helvetica,sans-Serif" font-size="10.00">src/outputlist.cpp</text>
</a>
</g>
</g>
<!-- Node6&#45;&gt;Node20 -->
<g id="edge45" class="edge"><title>Node6&#45;&gt;Node20</title>
<path fill="none" stroke="midnightblue" d="M1034.41,-119.694C1160.07,-116.137 1475.65,-104.559 1577,-76 1595.75,-70.7166 1597.18,-61.0219 1616,-56 1778.29,-12.6971 2203.93,-37.3535 2371,-20 2374.23,-19.6643 2377.56,-19.2656 2380.91,-18.8257"/>
<polygon fill="midnightblue" stroke="midnightblue" points="1034.16,-116.2 1024.27,-119.976 1034.36,-123.197 1034.16,-116.2"/>
</g>
<!-- Node25 -->
<g id="node21" class="node"><title>Node25</title>
<g id="a_node21"><a xlink:href="../../d8/d56/htmlgen_8h.html" target="_top" xlink:title="src/htmlgen.h">
<polygon fill="white" stroke="black" points="1393,-56.5 1393,-75.5 1469,-75.5 1469,-56.5 1393,-56.5"/>
<text text-anchor="middle" x="1431" y="-63.5" font-family="Helvetica,sans-Serif" font-size="10.00">src/htmlgen.h</text>
</a>
</g>
</g>
<!-- Node6&#45;&gt;Node25 -->
<g id="edge20" class="edge"><title>Node6&#45;&gt;Node25</title>
<path fill="none" stroke="midnightblue" d="M1034.47,-116.438C1111.39,-109.455 1259.16,-94.9109 1384,-76 1386.87,-75.5645 1389.84,-75.0798 1392.82,-74.5676"/>
<polygon fill="midnightblue" stroke="midnightblue" points="1033.74,-112.99 1024.1,-117.373 1034.37,-119.962 1033.74,-112.99"/>
</g>
<!-- Node28 -->
<g id="node24" class="node"><title>Node28</title>
<g id="a_node24"><a xlink:href="../../da/db0/htmldocvisitor_8cpp.html" target="_top" xlink:title="src/htmldocvisitor.cpp">
<polygon fill="white" stroke="black" points="516.5,-0.5 516.5,-19.5 629.5,-19.5 629.5,-0.5 516.5,-0.5"/>
<text text-anchor="middle" x="573" y="-7.5" font-family="Helvetica,sans-Serif" font-size="10.00">src/htmldocvisitor.cpp</text>
</a>
</g>
</g>
<!-- Node6&#45;&gt;Node28 -->
<g id="edge41" class="edge"><title>Node6&#45;&gt;Node28</title>
<path fill="none" stroke="midnightblue" d="M929.674,-119.384C820.392,-115.469 575.942,-103.682 551,-76 536.326,-59.7146 554.111,-33.2604 565.276,-19.6681"/>
<polygon fill="midnightblue" stroke="midnightblue" points="929.7,-122.887 939.816,-119.739 929.944,-115.891 929.7,-122.887"/>
</g>
<!-- Node30 -->
<g id="node26" class="node"><title>Node30</title>
<g id="a_node26"><a xlink:href="../../d6/d9c/latexgen_8h.html" target="_top" xlink:title="src/latexgen.h">
<polygon fill="white" stroke="black" points="109,-56.5 109,-75.5 187,-75.5 187,-56.5 109,-56.5"/>
<text text-anchor="middle" x="148" y="-63.5" font-family="Helvetica,sans-Serif" font-size="10.00">src/latexgen.h</text>
</a>
</g>
</g>
<!-- Node6&#45;&gt;Node30 -->
<g id="edge27" class="edge"><title>Node6&#45;&gt;Node30</title>
<path fill="none" stroke="midnightblue" d="M929.467,-120.314C802.823,-118.156 470.823,-109.492 196,-76 193.138,-75.6513 190.19,-75.2364 187.229,-74.7792"/>
<polygon fill="midnightblue" stroke="midnightblue" points="929.599,-123.817 939.655,-120.481 929.713,-116.818 929.599,-123.817"/>
</g>
<!-- Node32 -->
<g id="node28" class="node"><title>Node32</title>
<g id="a_node28"><a xlink:href="../../d3/d17/defgen_8cpp.html" target="_top" xlink:title="src/defgen.cpp">
<polygon fill="white" stroke="black" points="205.5,-56.5 205.5,-75.5 286.5,-75.5 286.5,-56.5 205.5,-56.5"/>
<text text-anchor="middle" x="246" y="-63.5" font-family="Helvetica,sans-Serif" font-size="10.00">src/defgen.cpp</text>
</a>
</g>
</g>
<!-- Node6&#45;&gt;Node32 -->
<g id="edge31" class="edge"><title>Node6&#45;&gt;Node32</title>
<path fill="none" stroke="midnightblue" d="M929.318,-119.636C813.962,-116.194 530.513,-105.242 295,-76 292.253,-75.659 289.428,-75.2626 286.586,-74.83"/>
<polygon fill="midnightblue" stroke="midnightblue" points="929.526,-123.144 939.624,-119.937 929.73,-116.147 929.526,-123.144"/>
</g>
<!-- Node6&#45;&gt;Node33 -->
<g id="edge32" class="edge"><title>Node6&#45;&gt;Node33</title>
<path fill="none" stroke="midnightblue" d="M1034.33,-118.393C1142.31,-112.764 1397.59,-98.1611 1611,-76 1615.49,-75.5342 1620.14,-75.0014 1624.8,-74.4328"/>
<polygon fill="midnightblue" stroke="midnightblue" points="1033.85,-114.914 1024.04,-118.926 1034.21,-121.904 1033.85,-114.914"/>
</g>
<!-- Node34 -->
<g id="node30" class="node"><title>Node34</title>
<g id="a_node30"><a xlink:href="../../dc/d05/docbookvisitor_8cpp.html" target="_top" xlink:title="src/docbookvisitor.cpp">
<polygon fill="white" stroke="black" points="304.5,-56.5 304.5,-75.5 419.5,-75.5 419.5,-56.5 304.5,-56.5"/>
<text text-anchor="middle" x="362" y="-63.5" font-family="Helvetica,sans-Serif" font-size="10.00">src/docbookvisitor.cpp</text>
</a>
</g>
</g>
<!-- Node6&#45;&gt;Node34 -->
<g id="edge33" class="edge"><title>Node6&#45;&gt;Node34</title>
<path fill="none" stroke="midnightblue" d="M929.707,-117.661C831.46,-111.183 612.651,-95.7932 429,-76 425.966,-75.673 422.857,-75.3196 419.72,-74.9485"/>
<polygon fill="midnightblue" stroke="midnightblue" points="929.751,-121.171 939.958,-118.333 930.209,-114.186 929.751,-121.171"/>
</g>
<!-- Node35 -->
<g id="node31" class="node"><title>Node35</title>
<g id="a_node31"><a xlink:href="../../da/dc0/mangen_8h.html" target="_top" xlink:title="src/mangen.h">
<polygon fill="white" stroke="black" points="15,-56.5 15,-75.5 91,-75.5 91,-56.5 15,-56.5"/>
<text text-anchor="middle" x="53" y="-63.5" font-family="Helvetica,sans-Serif" font-size="10.00">src/mangen.h</text>
</a>
</g>
</g>
<!-- Node6&#45;&gt;Node35 -->
<g id="edge34" class="edge"><title>Node6&#45;&gt;Node35</title>
<path fill="none" stroke="midnightblue" d="M929.379,-120.846C792.285,-119.898 413.029,-113.773 100,-76 97.1131,-75.6516 94.1371,-75.2303 91.1503,-74.7625"/>
<polygon fill="midnightblue" stroke="midnightblue" points="929.573,-124.347 939.595,-120.91 929.617,-117.347 929.573,-124.347"/>
</g>
<!-- Node37 -->
<g id="node33" class="node"><title>Node37</title>
<g id="a_node33"><a xlink:href="../../d4/daa/rtfgen_8h.html" target="_top" xlink:title="src/rtfgen.h">
<polygon fill="white" stroke="black" points="438,-56.5 438,-75.5 504,-75.5 504,-56.5 438,-56.5"/>
<text text-anchor="middle" x="471" y="-63.5" font-family="Helvetica,sans-Serif" font-size="10.00">src/rtfgen.h</text>
</a>
</g>
</g>
<!-- Node6&#45;&gt;Node37 -->
<g id="edge37" class="edge"><title>Node6&#45;&gt;Node37</title>
<path fill="none" stroke="midnightblue" d="M929.902,-117.527C843.857,-111.437 666.762,-97.41 518,-76 513.477,-75.3491 508.728,-74.5624 504.059,-73.7284"/>
<polygon fill="midnightblue" stroke="midnightblue" points="929.716,-121.022 939.936,-118.23 930.205,-114.04 929.716,-121.022"/>
</g>
<!-- Node39 -->
<g id="node35" class="node"><title>Node39</title>
<g id="a_node35"><a xlink:href="../../d9/d74/fileparser_8cpp.html" target="_top" xlink:title="src/fileparser.cpp">
<polygon fill="white" stroke="black" points="560,-56.5 560,-75.5 652,-75.5 652,-56.5 560,-56.5"/>
<text text-anchor="middle" x="606" y="-63.5" font-family="Helvetica,sans-Serif" font-size="10.00">src/fileparser.cpp</text>
</a>
</g>
</g>
<!-- Node6&#45;&gt;Node39 -->
<g id="edge40" class="edge"><title>Node6&#45;&gt;Node39</title>
<path fill="none" stroke="midnightblue" d="M929.721,-114.046C866.145,-105.502 755.6,-90.3689 661,-76 658.13,-75.5641 655.178,-75.1068 652.201,-74.639"/>
<polygon fill="midnightblue" stroke="midnightblue" points="929.515,-117.549 939.891,-115.41 930.445,-110.611 929.515,-117.549"/>
</g>
<!-- Node40 -->
<g id="node36" class="node"><title>Node40</title>
<g id="a_node36"><a xlink:href="../../d1/d4e/latexdocvisitor_8cpp.html" target="_top" xlink:title="src/latexdocvisitor.cpp">
<polygon fill="white" stroke="black" points="670.5,-56.5 670.5,-75.5 785.5,-75.5 785.5,-56.5 670.5,-56.5"/>
<text text-anchor="middle" x="728" y="-63.5" font-family="Helvetica,sans-Serif" font-size="10.00">src/latexdocvisitor.cpp</text>
</a>
</g>
</g>
<!-- Node6&#45;&gt;Node40 -->
<g id="edge42" class="edge"><title>Node6&#45;&gt;Node40</title>
<path fill="none" stroke="midnightblue" d="M931.885,-110.346C883.883,-100.141 812.385,-84.94 768.059,-75.5164"/>
<polygon fill="midnightblue" stroke="midnightblue" points="931.244,-113.787 941.753,-112.444 932.699,-106.94 931.244,-113.787"/>
</g>
<!-- Node41 -->
<g id="node37" class="node"><title>Node41</title>
<g id="a_node37"><a xlink:href="../../d8/dde/mandocvisitor_8cpp.html" target="_top" xlink:title="src/mandocvisitor.cpp">
<polygon fill="white" stroke="black" points="803.5,-56.5 803.5,-75.5 916.5,-75.5 916.5,-56.5 803.5,-56.5"/>
<text text-anchor="middle" x="860" y="-63.5" font-family="Helvetica,sans-Serif" font-size="10.00">src/mandocvisitor.cpp</text>
</a>
</g>
</g>
<!-- Node6&#45;&gt;Node41 -->
<g id="edge43" class="edge"><title>Node6&#45;&gt;Node41</title>
<path fill="none" stroke="midnightblue" d="M953.461,-108.368C930.614,-98.2553 899.195,-84.3486 879.241,-75.5164"/>
<polygon fill="midnightblue" stroke="midnightblue" points="952.108,-111.597 962.669,-112.444 954.941,-105.196 952.108,-111.597"/>
</g>
<!-- Node42 -->
<g id="node38" class="node"><title>Node42</title>
<g id="a_node38"><a xlink:href="../../d0/d17/outputgen_8cpp.html" target="_top" xlink:title="src/outputgen.cpp">
<polygon fill="white" stroke="black" points="934.5,-56.5 934.5,-75.5 1029.5,-75.5 1029.5,-56.5 934.5,-56.5"/>
<text text-anchor="middle" x="982" y="-63.5" font-family="Helvetica,sans-Serif" font-size="10.00">src/outputgen.cpp</text>
</a>
</g>
</g>
<!-- Node6&#45;&gt;Node42 -->
<g id="edge44" class="edge"><title>Node6&#45;&gt;Node42</title>
<path fill="none" stroke="midnightblue" d="M982,-101.805C982,-92.9102 982,-82.7798 982,-75.7511"/>
<polygon fill="midnightblue" stroke="midnightblue" points="978.5,-102.083 982,-112.083 985.5,-102.083 978.5,-102.083"/>
</g>
<!-- Node43 -->
<g id="node39" class="node"><title>Node43</title>
<g id="a_node39"><a xlink:href="../../de/d9a/rtfdocvisitor_8cpp.html" target="_top" xlink:title="src/rtfdocvisitor.cpp">
<polygon fill="white" stroke="black" points="1047.5,-56.5 1047.5,-75.5 1150.5,-75.5 1150.5,-56.5 1047.5,-56.5"/>
<text text-anchor="middle" x="1099" y="-63.5" font-family="Helvetica,sans-Serif" font-size="10.00">src/rtfdocvisitor.cpp</text>
</a>
</g>
</g>
<!-- Node6&#45;&gt;Node43 -->
<g id="edge46" class="edge"><title>Node6&#45;&gt;Node43</title>
<path fill="none" stroke="midnightblue" d="M1009.66,-108.232C1031.55,-98.1312 1061.5,-84.3091 1080.55,-75.5164"/>
<polygon fill="midnightblue" stroke="midnightblue" points="1008.15,-105.075 1000.54,-112.444 1011.09,-111.431 1008.15,-105.075"/>
</g>
<!-- Node44 -->
<g id="node40" class="node"><title>Node44</title>
<g id="a_node40"><a xlink:href="../../d7/d56/tooltip_8cpp.html" target="_top" xlink:title="src/tooltip.cpp">
<polygon fill="white" stroke="black" points="1169,-56.5 1169,-75.5 1247,-75.5 1247,-56.5 1169,-56.5"/>
<text text-anchor="middle" x="1208" y="-63.5" font-family="Helvetica,sans-Serif" font-size="10.00">src/tooltip.cpp</text>
</a>
</g>
</g>
<!-- Node6&#45;&gt;Node44 -->
<g id="edge47" class="edge"><title>Node6&#45;&gt;Node44</title>
<path fill="none" stroke="midnightblue" d="M1027.67,-110.088C1070.36,-99.8865 1133.25,-84.8612 1172.36,-75.5164"/>
<polygon fill="midnightblue" stroke="midnightblue" points="1026.72,-106.715 1017.81,-112.444 1028.35,-113.524 1026.72,-106.715"/>
</g>
<!-- Node45 -->
<g id="node41" class="node"><title>Node45</title>
<g id="a_node41"><a xlink:href="../../dd/db6/xmldocvisitor_8cpp.html" target="_top" xlink:title="src/xmldocvisitor.cpp">
<polygon fill="white" stroke="black" points="1265,-56.5 1265,-75.5 1375,-75.5 1375,-56.5 1265,-56.5"/>
<text text-anchor="middle" x="1320" y="-63.5" font-family="Helvetica,sans-Serif" font-size="10.00">src/xmldocvisitor.cpp</text>
</a>
</g>
</g>
<!-- Node6&#45;&gt;Node45 -->
<g id="edge48" class="edge"><title>Node6&#45;&gt;Node45</title>
<path fill="none" stroke="midnightblue" d="M1034.26,-112.65C1097.43,-102.558 1203.15,-85.6688 1266.75,-75.5069"/>
<polygon fill="midnightblue" stroke="midnightblue" points="1033.45,-109.236 1024.12,-114.27 1034.55,-116.149 1033.45,-109.236"/>
</g>
<!-- Node6&#45;&gt;Node46 -->
<g id="edge49" class="edge"><title>Node6&#45;&gt;Node46</title>
<path fill="none" stroke="midnightblue" d="M1034.65,-119.952C1157.97,-117.043 1475.03,-106.925 1738,-76 1741.04,-75.643 1744.17,-75.222 1747.31,-74.7604"/>
<polygon fill="midnightblue" stroke="midnightblue" points="1034.28,-116.459 1024.36,-120.188 1034.44,-123.458 1034.28,-116.459"/>
</g>
<!-- Node8 -->
<g id="node4" class="node"><title>Node8</title>
<g id="a_node4"><a xlink:href="../../de/d89/classdef_8cpp.html" target="_top" xlink:title="src/classdef.cpp">
<polygon fill="white" stroke="black" points="1182.5,-0.5 1182.5,-19.5 1271.5,-19.5 1271.5,-0.5 1182.5,-0.5"/>
<text text-anchor="middle" x="1227" y="-7.5" font-family="Helvetica,sans-Serif" font-size="10.00">src/classdef.cpp</text>
</a>
</g>
</g>
<!-- Node7&#45;&gt;Node8 -->
<g id="edge3" class="edge"><title>Node7&#45;&gt;Node8</title>
<path fill="none" stroke="midnightblue" d="M1477.31,-55.8769C1399.07,-41.8239 1320.05,-27.6643 1271.89,-19.0382"/>
<polygon fill="midnightblue" stroke="midnightblue" points="1476.88,-59.3558 1487.34,-57.679 1478.12,-52.466 1476.88,-59.3558"/>
</g>
<!-- Node9 -->
<g id="node5" class="node"><title>Node9</title>
<g id="a_node5"><a xlink:href="../../d6/d10/classlist_8cpp.html" target="_top" xlink:title="src/classlist.cpp">
<polygon fill="white" stroke="black" points="1289,-0.5 1289,-19.5 1377,-19.5 1377,-0.5 1289,-0.5"/>
<text text-anchor="middle" x="1333" y="-7.5" font-family="Helvetica,sans-Serif" font-size="10.00">src/classlist.cpp</text>
</a>
</g>
</g>
<!-- Node7&#45;&gt;Node9 -->
<g id="edge4" class="edge"><title>Node7&#45;&gt;Node9</title>
<path fill="none" stroke="midnightblue" d="M1487.19,-53.6986C1450.39,-43.507 1397.07,-28.7429 1363.75,-19.5164"/>
<polygon fill="midnightblue" stroke="midnightblue" points="1486.53,-57.1477 1497.1,-56.4435 1488.4,-50.4016 1486.53,-57.1477"/>
</g>
<!-- Node7&#45;&gt;Node10 -->
<g id="edge5" class="edge"><title>Node7&#45;&gt;Node10</title>
<path fill="none" stroke="midnightblue" d="M1578.72,-59.2849C1590.92,-58.0567 1603.91,-56.8685 1616,-56 2000.23,-28.3908 2098.78,-59.1757 2482,-20 2485.08,-19.6851 2488.25,-19.3083 2491.44,-18.8901"/>
<polygon fill="midnightblue" stroke="midnightblue" points="1578.29,-55.8108 1568.7,-60.3199 1579.01,-62.7738 1578.29,-55.8108"/>
</g>
<!-- Node11 -->
<g id="node7" class="node"><title>Node11</title>
<g id="a_node7"><a xlink:href="../../d8/d52/dirdef_8cpp.html" target="_top" xlink:title="src/dirdef.cpp">
<polygon fill="white" stroke="black" points="1395,-0.5 1395,-19.5 1471,-19.5 1471,-0.5 1395,-0.5"/>
<text text-anchor="middle" x="1433" y="-7.5" font-family="Helvetica,sans-Serif" font-size="10.00">src/dirdef.cpp</text>
</a>
</g>
</g>
<!-- Node7&#45;&gt;Node11 -->
<g id="edge6" class="edge"><title>Node7&#45;&gt;Node11</title>
<path fill="none" stroke="midnightblue" d="M1503.68,-51.1774C1486.2,-41.2407 1463.17,-28.1492 1448.23,-19.6545"/>
<polygon fill="midnightblue" stroke="midnightblue" points="1502.31,-54.425 1512.74,-56.324 1505.77,-48.3395 1502.31,-54.425"/>
</g>
<!-- Node12 -->
<g id="node8" class="node"><title>Node12</title>
<g id="a_node8"><a xlink:href="../../dc/d98/doxygen_8cpp.html" target="_top" xlink:title="src/doxygen.cpp">
<polygon fill="white" stroke="black" points="314.5,-0.5 314.5,-19.5 403.5,-19.5 403.5,-0.5 314.5,-0.5"/>
<text text-anchor="middle" x="359" y="-7.5" font-family="Helvetica,sans-Serif" font-size="10.00">src/doxygen.cpp</text>
</a>
</g>
</g>
<!-- Node7&#45;&gt;Node12 -->
<g id="edge7" class="edge"><title>Node7&#45;&gt;Node12</title>
<path fill="none" stroke="midnightblue" d="M1477.25,-56.1155C1004.85,-6.75119 880.294,-67.4509 412,-20 409.307,-19.7271 406.544,-19.4006 403.762,-19.0361"/>
<polygon fill="midnightblue" stroke="midnightblue" points="1477.1,-59.6187 1487.41,-57.1884 1477.83,-52.6574 1477.1,-59.6187"/>
</g>
<!-- Node13 -->
<g id="node9" class="node"><title>Node13</title>
<g id="a_node9"><a xlink:href="../../d6/ddc/filedef_8cpp.html" target="_top" xlink:title="src/filedef.cpp">
<polygon fill="white" stroke="black" points="1489,-0.5 1489,-19.5 1567,-19.5 1567,-0.5 1489,-0.5"/>
<text text-anchor="middle" x="1528" y="-7.5" font-family="Helvetica,sans-Serif" font-size="10.00">src/filedef.cpp</text>
</a>
</g>
</g>
<!-- Node7&#45;&gt;Node13 -->
<g id="edge8" class="edge"><title>Node7&#45;&gt;Node13</title>
<path fill="none" stroke="midnightblue" d="M1528,-45.8045C1528,-36.9102 1528,-26.7798 1528,-19.7511"/>
<polygon fill="midnightblue" stroke="midnightblue" points="1524.5,-46.083 1528,-56.083 1531.5,-46.083 1524.5,-46.083"/>
</g>
<!-- Node14 -->
<g id="node10" class="node"><title>Node14</title>
<g id="a_node10"><a xlink:href="../../d6/d42/groupdef_8cpp.html" target="_top" xlink:title="src/groupdef.cpp">
<polygon fill="white" stroke="black" points="1585.5,-0.5 1585.5,-19.5 1674.5,-19.5 1674.5,-0.5 1585.5,-0.5"/>
<text text-anchor="middle" x="1630" y="-7.5" font-family="Helvetica,sans-Serif" font-size="10.00">src/groupdef.cpp</text>
</a>
</g>
</g>
<!-- Node7&#45;&gt;Node14 -->
<g id="edge9" class="edge"><title>Node7&#45;&gt;Node14</title>
<path fill="none" stroke="midnightblue" d="M1553.33,-51.5895C1572.19,-41.6052 1597.38,-28.2672 1613.65,-19.6545"/>
<polygon fill="midnightblue" stroke="midnightblue" points="1551.59,-48.5518 1544.39,-56.324 1554.86,-54.7383 1551.59,-48.5518"/>
</g>
<!-- Node15 -->
<g id="node11" class="node"><title>Node15</title>
<g id="a_node11"><a xlink:href="../../db/d14/index_8cpp.html" target="_top" xlink:title="This file contains functions for the various index pages. ">
<polygon fill="white" stroke="black" points="851.5,-0.5 851.5,-19.5 926.5,-19.5 926.5,-0.5 851.5,-0.5"/>
<text text-anchor="middle" x="889" y="-7.5" font-family="Helvetica,sans-Serif" font-size="10.00">src/index.cpp</text>
</a>
</g>
</g>
<!-- Node7&#45;&gt;Node15 -->
<g id="edge10" class="edge"><title>Node7&#45;&gt;Node15</title>
<path fill="none" stroke="midnightblue" d="M1477.27,-56.0685C1236.18,-27.1969 1171.55,-50.8556 935,-20 932.256,-19.6421 929.43,-19.2206 926.592,-18.7586"/>
<polygon fill="midnightblue" stroke="midnightblue" points="1477.05,-59.5673 1487.4,-57.2996 1477.89,-52.6184 1477.05,-59.5673"/>
</g>
<!-- Node16 -->
<g id="node12" class="node"><title>Node16</title>
<g id="a_node12"><a xlink:href="../../d0/d72/memberdef_8cpp.html" target="_top" xlink:title="src/memberdef.cpp">
<polygon fill="white" stroke="black" points="1692.5,-0.5 1692.5,-19.5 1793.5,-19.5 1793.5,-0.5 1692.5,-0.5"/>
<text text-anchor="middle" x="1743" y="-7.5" font-family="Helvetica,sans-Serif" font-size="10.00">src/memberdef.cpp</text>
</a>
</g>
</g>
<!-- Node7&#45;&gt;Node16 -->
<g id="edge11" class="edge"><title>Node7&#45;&gt;Node16</title>
<path fill="none" stroke="midnightblue" d="M1571.96,-53.959C1612.57,-43.7598 1672.04,-28.8217 1709.09,-19.5164"/>
<polygon fill="midnightblue" stroke="midnightblue" points="1570.91,-50.6129 1562.07,-56.4435 1572.62,-57.4021 1570.91,-50.6129"/>
</g>
<!-- Node17 -->
<g id="node13" class="node"><title>Node17</title>
<g id="a_node13"><a xlink:href="../../d6/d18/membergroup_8cpp.html" target="_top" xlink:title="src/membergroup.cpp">
<polygon fill="white" stroke="black" points="1811.5,-0.5 1811.5,-19.5 1922.5,-19.5 1922.5,-0.5 1811.5,-0.5"/>
<text text-anchor="middle" x="1867" y="-7.5" font-family="Helvetica,sans-Serif" font-size="10.00">src/membergroup.cpp</text>
</a>
</g>
</g>
<!-- Node7&#45;&gt;Node17 -->
<g id="edge12" class="edge"><title>Node7&#45;&gt;Node17</title>
<path fill="none" stroke="midnightblue" d="M1578.55,-56.7174C1580.05,-56.4751 1581.54,-56.2356 1583,-56 1662.97,-43.1221 1755.65,-28.4919 1812.81,-19.5036"/>
<polygon fill="midnightblue" stroke="midnightblue" points="1577.86,-53.2849 1568.55,-58.3415 1578.98,-60.1946 1577.86,-53.2849"/>
</g>
<!-- Node18 -->
<g id="node14" class="node"><title>Node18</title>
<g id="a_node14"><a xlink:href="../../d0/d14/memberlist_8cpp.html" target="_top" xlink:title="src/memberlist.cpp">
<polygon fill="white" stroke="black" points="1941,-0.5 1941,-19.5 2041,-19.5 2041,-0.5 1941,-0.5"/>
<text text-anchor="middle" x="1991" y="-7.5" font-family="Helvetica,sans-Serif" font-size="10.00">src/memberlist.cpp</text>
</a>
</g>
</g>
<!-- Node7&#45;&gt;Node18 -->
<g id="edge13" class="edge"><title>Node7&#45;&gt;Node18</title>
<path fill="none" stroke="midnightblue" d="M1578.54,-56.6124C1580.04,-56.4006 1581.53,-56.1959 1583,-56 1737.13,-35.4359 1776.74,-39.538 1931,-20 1934.24,-19.5897 1937.57,-19.1468 1940.93,-18.6852"/>
<polygon fill="midnightblue" stroke="midnightblue" points="1577.89,-53.1701 1568.51,-58.0928 1578.91,-60.095 1577.89,-53.1701"/>
</g>
<!-- Node19 -->
<g id="node15" class="node"><title>Node19</title>
<g id="a_node15"><a xlink:href="../../d7/d1c/namespacedef_8cpp.html" target="_top" xlink:title="src/namespacedef.cpp">
<polygon fill="white" stroke="black" points="2059,-0.5 2059,-19.5 2175,-19.5 2175,-0.5 2059,-0.5"/>
<text text-anchor="middle" x="2117" y="-7.5" font-family="Helvetica,sans-Serif" font-size="10.00">src/namespacedef.cpp</text>
</a>
</g>
</g>
<!-- Node7&#45;&gt;Node19 -->
<g id="edge14" class="edge"><title>Node7&#45;&gt;Node19</title>
<path fill="none" stroke="midnightblue" d="M1579.07,-56.4919C1580.39,-56.3202 1581.7,-56.1558 1583,-56 1789.69,-31.1688 1842.98,-41.8659 2050,-20 2052.92,-19.6918 2055.9,-19.358 2058.92,-19.0065"/>
<polygon fill="midnightblue" stroke="midnightblue" points="1578.21,-53.0772 1568.79,-57.9277 1579.18,-60.0099 1578.21,-53.0772"/>
</g>
<!-- Node7&#45;&gt;Node20 -->
<g id="edge15" class="edge"><title>Node7&#45;&gt;Node20</title>
<path fill="none" stroke="midnightblue" d="M1579.06,-56.4372C1580.39,-56.2817 1581.7,-56.1355 1583,-56 1931.7,-19.6303 2022.25,-55.8732 2371,-20 2374.23,-19.6675 2377.56,-19.2712 2380.91,-18.833"/>
<polygon fill="midnightblue" stroke="midnightblue" points="1578.24,-53.0151 1568.78,-57.7847 1579.15,-59.9558 1578.24,-53.0151"/>
</g>
<!-- Node21 -->
<g id="node17" class="node"><title>Node21</title>
<g id="a_node17"><a xlink:href="../../d9/db4/pagedef_8cpp.html" target="_top" xlink:title="src/pagedef.cpp">
<polygon fill="white" stroke="black" points="2193,-0.5 2193,-19.5 2279,-19.5 2279,-0.5 2193,-0.5"/>
<text text-anchor="middle" x="2236" y="-7.5" font-family="Helvetica,sans-Serif" font-size="10.00">src/pagedef.cpp</text>
</a>
</g>
</g>
<!-- Node7&#45;&gt;Node21 -->
<g id="edge16" class="edge"><title>Node7&#45;&gt;Node21</title>
<path fill="none" stroke="midnightblue" d="M1579.06,-56.462C1580.39,-56.2992 1581.7,-56.1447 1583,-56 1848.94,-26.3548 1918.2,-50.8656 2184,-20 2186.91,-19.6618 2189.91,-19.2676 2192.92,-18.8365"/>
<polygon fill="midnightblue" stroke="midnightblue" points="1578.22,-53.0432 1568.78,-57.8496 1579.16,-59.9803 1578.22,-53.0432"/>
</g>
<!-- Node22 -->
<g id="node18" class="node"><title>Node22</title>
<g id="a_node18"><a xlink:href="../../df/d2d/util_8cpp.html" target="_top" xlink:title="src/util.cpp">
<polygon fill="white" stroke="black" points="2297.5,-0.5 2297.5,-19.5 2362.5,-19.5 2362.5,-0.5 2297.5,-0.5"/>
<text text-anchor="middle" x="2330" y="-7.5" font-family="Helvetica,sans-Serif" font-size="10.00">src/util.cpp</text>
</a>
</g>
</g>
<!-- Node7&#45;&gt;Node22 -->
<g id="edge17" class="edge"><title>Node7&#45;&gt;Node22</title>
<path fill="none" stroke="midnightblue" d="M1579.06,-56.4466C1580.39,-56.2883 1581.7,-56.139 1583,-56 1894.96,-22.6156 1976.95,-61.0002 2288,-20 2290.96,-19.6102 2294.02,-19.1225 2297.07,-18.577"/>
<polygon fill="midnightblue" stroke="midnightblue" points="1578.23,-53.0258 1568.78,-57.8093 1579.15,-59.9651 1578.23,-53.0258"/>
</g>
<!-- Node23 -->
<g id="node19" class="node"><title>Node23</title>
<g id="a_node19"><a xlink:href="../../de/dea/vhdldocgen_8cpp.html" target="_top" xlink:title="src/vhdldocgen.cpp">
<polygon fill="white" stroke="black" points="944.5,-0.5 944.5,-19.5 1045.5,-19.5 1045.5,-0.5 944.5,-0.5"/>
<text text-anchor="middle" x="995" y="-7.5" font-family="Helvetica,sans-Serif" font-size="10.00">src/vhdldocgen.cpp</text>
</a>
</g>
</g>
<!-- Node7&#45;&gt;Node23 -->
<g id="edge18" class="edge"><title>Node7&#45;&gt;Node23</title>
<path fill="none" stroke="midnightblue" d="M1477.42,-56.0549C1288.8,-31.5892 1238.6,-41.8914 1054,-20 1051.22,-19.6705 1048.37,-19.3105 1045.5,-18.9299"/>
<polygon fill="midnightblue" stroke="midnightblue" points="1477.02,-59.5317 1487.39,-57.363 1477.93,-52.5913 1477.02,-59.5317"/>
</g>
<!-- Node24 -->
<g id="node20" class="node"><title>Node24</title>
<g id="a_node20"><a xlink:href="../../d1/d86/vhdljjparser_8cpp.html" target="_top" xlink:title="src/vhdljjparser.cpp">
<polygon fill="white" stroke="black" points="1063.5,-0.5 1063.5,-19.5 1164.5,-19.5 1164.5,-0.5 1063.5,-0.5"/>
<text text-anchor="middle" x="1114" y="-7.5" font-family="Helvetica,sans-Serif" font-size="10.00">src/vhdljjparser.cpp</text>
</a>
</g>
</g>
<!-- Node7&#45;&gt;Node24 -->
<g id="edge19" class="edge"><title>Node7&#45;&gt;Node24</title>
<path fill="none" stroke="midnightblue" d="M1477.4,-55.997C1341.31,-36.0012 1305.09,-37.8656 1173,-20 1170.23,-19.625 1167.38,-19.2291 1164.51,-18.8207"/>
<polygon fill="midnightblue" stroke="midnightblue" points="1476.97,-59.4712 1487.37,-57.475 1478,-52.5468 1476.97,-59.4712"/>
</g>
<!-- Node25&#45;&gt;Node12 -->
<g id="edge22" class="edge"><title>Node25&#45;&gt;Node12</title>
<path fill="none" stroke="midnightblue" d="M1382.64,-56.0404C952.69,-8.09296 838.663,-63.9356 412,-20 409.308,-19.7228 406.545,-19.3928 403.763,-19.0257"/>
<polygon fill="midnightblue" stroke="midnightblue" points="1382.53,-59.5497 1392.85,-57.1925 1383.31,-52.5938 1382.53,-59.5497"/>
</g>
<!-- Node25&#45;&gt;Node15 -->
<g id="edge26" class="edge"><title>Node25&#45;&gt;Node15</title>
<path fill="none" stroke="midnightblue" d="M1382.64,-55.9647C1183.84,-29.7238 1130.04,-46.811 935,-20 932.259,-19.6232 929.435,-19.1878 926.598,-18.7159"/>
<polygon fill="midnightblue" stroke="midnightblue" points="1382.46,-59.4714 1392.84,-57.3311 1383.39,-52.5335 1382.46,-59.4714"/>
</g>
<!-- Node26 -->
<g id="node22" class="node"><title>Node26</title>
<g id="a_node22"><a xlink:href="../../db/d12/context_8cpp.html" target="_top" xlink:title="src/context.cpp">
<polygon fill="white" stroke="black" points="212,-0.5 212,-19.5 296,-19.5 296,-0.5 212,-0.5"/>
<text text-anchor="middle" x="254" y="-7.5" font-family="Helvetica,sans-Serif" font-size="10.00">src/context.cpp</text>
</a>
</g>
</g>
<!-- Node25&#45;&gt;Node26 -->
<g id="edge21" class="edge"><title>Node25&#45;&gt;Node26</title>
<path fill="none" stroke="midnightblue" d="M1382.59,-56.042C905.359,-3.66195 778.85,-69.4647 305,-20 302.138,-19.7013 299.195,-19.3366 296.236,-18.9272"/>
<polygon fill="midnightblue" stroke="midnightblue" points="1382.53,-59.5565 1392.86,-57.1806 1383.3,-52.5992 1382.53,-59.5565"/>
</g>
<!-- Node27 -->
<g id="node23" class="node"><title>Node27</title>
<g id="a_node23"><a xlink:href="../../db/d41/ftvhelp_8cpp.html" target="_top" xlink:title="src/ftvhelp.cpp">
<polygon fill="white" stroke="black" points="752.5,-0.5 752.5,-19.5 833.5,-19.5 833.5,-0.5 752.5,-0.5"/>
<text text-anchor="middle" x="793" y="-7.5" font-family="Helvetica,sans-Serif" font-size="10.00">src/ftvhelp.cpp</text>
</a>
</g>
</g>
<!-- Node25&#45;&gt;Node27 -->
<g id="edge23" class="edge"><title>Node25&#45;&gt;Node27</title>
<path fill="none" stroke="midnightblue" d="M1382.76,-56.0041C1142.79,-25.9027 1078.29,-49.4478 842,-20 839.253,-19.6577 836.428,-19.2604 833.586,-18.8271"/>
<polygon fill="midnightblue" stroke="midnightblue" points="1382.48,-59.4965 1392.84,-57.287 1383.37,-52.5525 1382.48,-59.4965"/>
</g>
<!-- Node25&#45;&gt;Node28 -->
<g id="edge24" class="edge"><title>Node25&#45;&gt;Node28</title>
<path fill="none" stroke="midnightblue" d="M1382.53,-56.0063C1053.05,-17.4141 965.714,-50.1118 639,-20 636.006,-19.7241 632.939,-19.4113 629.846,-19.0721"/>
<polygon fill="midnightblue" stroke="midnightblue" points="1382.51,-59.5279 1392.85,-57.2288 1383.33,-52.5765 1382.51,-59.5279"/>
</g>
<!-- Node29 -->
<g id="node25" class="node"><title>Node29</title>
<g id="a_node25"><a xlink:href="../../d8/d6e/htmlgen_8cpp.html" target="_top" xlink:title="src/htmlgen.cpp">
<polygon fill="white" stroke="black" points="648,-0.5 648,-19.5 734,-19.5 734,-0.5 648,-0.5"/>
<text text-anchor="middle" x="691" y="-7.5" font-family="Helvetica,sans-Serif" font-size="10.00">src/htmlgen.cpp</text>
</a>
</g>
</g>
<!-- Node25&#45;&gt;Node29 -->
<g id="edge25" class="edge"><title>Node25&#45;&gt;Node29</title>
<path fill="none" stroke="midnightblue" d="M1382.67,-56.0103C1099.04,-21.8154 1023.17,-52.0052 743,-20 740.087,-19.6672 737.09,-19.2771 734.075,-18.849"/>
<polygon fill="midnightblue" stroke="midnightblue" points="1382.5,-59.5151 1392.85,-57.2541 1383.35,-52.5668 1382.5,-59.5151"/>
</g>
<!-- Node30&#45;&gt;Node12 -->
<g id="edge29" class="edge"><title>Node30&#45;&gt;Node12</title>
<path fill="none" stroke="midnightblue" d="M191.142,-53.959C230.994,-43.7598 289.363,-28.8217 325.723,-19.5164"/>
<polygon fill="midnightblue" stroke="midnightblue" points="190.254,-50.5734 181.434,-56.4435 191.989,-57.3549 190.254,-50.5734"/>
</g>
<!-- Node30&#45;&gt;Node26 -->
<g id="edge28" class="edge"><title>Node30&#45;&gt;Node26</title>
<path fill="none" stroke="midnightblue" d="M174.056,-51.7261C193.684,-41.7271 220.028,-28.3065 237.012,-19.6545"/>
<polygon fill="midnightblue" stroke="midnightblue" points="172.352,-48.666 165.031,-56.324 175.53,-54.9033 172.352,-48.666"/>
</g>
<!-- Node31 -->
<g id="node27" class="node"><title>Node31</title>
<g id="a_node27"><a xlink:href="../../d4/d42/latexgen_8cpp.html" target="_top" xlink:title="src/latexgen.cpp">
<polygon fill="white" stroke="black" points="104.5,-0.5 104.5,-19.5 193.5,-19.5 193.5,-0.5 104.5,-0.5"/>
<text text-anchor="middle" x="149" y="-7.5" font-family="Helvetica,sans-Serif" font-size="10.00">src/latexgen.cpp</text>
</a>
</g>
</g>
<!-- Node30&#45;&gt;Node31 -->
<g id="edge30" class="edge"><title>Node30&#45;&gt;Node31</title>
<path fill="none" stroke="midnightblue" d="M148.355,-45.8045C148.52,-36.9102 148.708,-26.7798 148.838,-19.7511"/>
<polygon fill="midnightblue" stroke="midnightblue" points="144.851,-46.0199 148.165,-56.083 151.85,-46.1495 144.851,-46.0199"/>
</g>
<!-- Node35&#45;&gt;Node12 -->
<g id="edge35" class="edge"><title>Node35&#45;&gt;Node12</title>
<path fill="none" stroke="midnightblue" d="M101.532,-55.7438C182.085,-41.0907 264.471,-26.9713 314.04,-18.5707"/>
<polygon fill="midnightblue" stroke="midnightblue" points="100.419,-52.389 91.2093,-57.6265 101.675,-59.2754 100.419,-52.389"/>
</g>
<!-- Node36 -->
<g id="node32" class="node"><title>Node36</title>
<g id="a_node32"><a xlink:href="../../d7/de7/mangen_8cpp.html" target="_top" xlink:title="src/mangen.cpp">
<polygon fill="white" stroke="black" points="0,-0.5 0,-19.5 86,-19.5 86,-0.5 0,-0.5"/>
<text text-anchor="middle" x="43" y="-7.5" font-family="Helvetica,sans-Serif" font-size="10.00">src/mangen.cpp</text>
</a>
</g>
</g>
<!-- Node35&#45;&gt;Node36 -->
<g id="edge36" class="edge"><title>Node35&#45;&gt;Node36</title>
<path fill="none" stroke="midnightblue" d="M49.5001,-46.1005C47.84,-37.1357 45.9367,-26.8579 44.6206,-19.7511"/>
<polygon fill="midnightblue" stroke="midnightblue" points="46.0862,-46.8875 51.3487,-56.083 52.9692,-45.6128 46.0862,-46.8875"/>
</g>
<!-- Node37&#45;&gt;Node12 -->
<g id="edge38" class="edge"><title>Node37&#45;&gt;Node12</title>
<path fill="none" stroke="midnightblue" d="M443.751,-51.8622C422.984,-41.8492 394.977,-28.3458 376.95,-19.6545"/>
<polygon fill="midnightblue" stroke="midnightblue" points="442.477,-55.1336 453.005,-56.324 445.518,-48.8282 442.477,-55.1336"/>
</g>
<!-- Node38 -->
<g id="node34" class="node"><title>Node38</title>
<g id="a_node34"><a xlink:href="../../d0/d9c/rtfgen_8cpp.html" target="_top" xlink:title="src/rtfgen.cpp">
<polygon fill="white" stroke="black" points="421.5,-0.5 421.5,-19.5 498.5,-19.5 498.5,-0.5 421.5,-0.5"/>
<text text-anchor="middle" x="460" y="-7.5" font-family="Helvetica,sans-Serif" font-size="10.00">src/rtfgen.cpp</text>
</a>
</g>
</g>
<!-- Node37&#45;&gt;Node38 -->
<g id="edge39" class="edge"><title>Node37&#45;&gt;Node38</title>
<path fill="none" stroke="midnightblue" d="M467.15,-46.1005C465.324,-37.1357 463.23,-26.8579 461.783,-19.7511"/>
<polygon fill="midnightblue" stroke="midnightblue" points="463.758,-46.9829 469.184,-56.083 470.617,-45.5856 463.758,-46.9829"/>
</g>
</g>
</svg>
