<?xml version="1.0" encoding="UTF-8" standalone="no"?>
<!DOCTYPE svg PUBLIC "-//W3C//DTD SVG 1.1//EN"
 "http://www.w3.org/Graphics/SVG/1.1/DTD/svg11.dtd">
<!-- Generated by graphviz version 2.38.0 (20140413.2041)
 -->
<!-- Title: src/sqlcode.h Pages: 1 -->
<svg width="83pt" height="140pt"
 viewBox="0.00 0.00 83.00 140.00" xmlns="http://www.w3.org/2000/svg" xmlns:xlink="http://www.w3.org/1999/xlink">
<g id="graph0" class="graph" transform="scale(1 1) rotate(0) translate(4 136)">
<title>src/sqlcode.h</title>
<polygon fill="white" stroke="none" points="-4,4 -4,-136 79,-136 79,4 -4,4"/>
<!-- Node0 -->
<g id="node1" class="node"><title>Node0</title>
<polygon fill="#bfbfbf" stroke="black" points="-7.10543e-15,-112.5 -7.10543e-15,-131.5 75,-131.5 75,-112.5 -7.10543e-15,-112.5"/>
<text text-anchor="middle" x="37.5" y="-119.5" font-family="Helvetica,sans-Serif" font-size="10.00">src/sqlcode.h</text>
</g>
<!-- Node1 -->
<g id="node2" class="node"><title>Node1</title>
<g id="a_node2"><a xlink:href="../../d9/d49/types_8h.html" target="_top" xlink:title="This file contains a number of basic enums and types. ">
<polygon fill="white" stroke="black" points="13,-56.5 13,-75.5 62,-75.5 62,-56.5 13,-56.5"/>
<text text-anchor="middle" x="37.5" y="-63.5" font-family="Helvetica,sans-Serif" font-size="10.00">types.h</text>
</a>
</g>
</g>
<!-- Node0&#45;&gt;Node1 -->
<g id="edge1" class="edge"><title>Node0&#45;&gt;Node1</title>
<path fill="none" stroke="midnightblue" d="M37.5,-112.083C37.5,-105.006 37.5,-94.8611 37.5,-85.9865"/>
<polygon fill="midnightblue" stroke="midnightblue" points="41.0001,-85.751 37.5,-75.7511 34.0001,-85.7511 41.0001,-85.751"/>
</g>
<!-- Node2 -->
<g id="node3" class="node"><title>Node2</title>
<polygon fill="white" stroke="#bfbfbf" points="8,-0.5 8,-19.5 67,-19.5 67,-0.5 8,-0.5"/>
<text text-anchor="middle" x="37.5" y="-7.5" font-family="Helvetica,sans-Serif" font-size="10.00">qcstring.h</text>
</g>
<!-- Node1&#45;&gt;Node2 -->
<g id="edge2" class="edge"><title>Node1&#45;&gt;Node2</title>
<path fill="none" stroke="midnightblue" d="M37.5,-56.083C37.5,-49.0059 37.5,-38.8611 37.5,-29.9865"/>
<polygon fill="midnightblue" stroke="midnightblue" points="41.0001,-29.751 37.5,-19.7511 34.0001,-29.7511 41.0001,-29.751"/>
</g>
</g>
</svg>
