<?xml version="1.0" encoding="UTF-8" standalone="no"?>
<!DOCTYPE svg PUBLIC "-//W3C//DTD SVG 1.1//EN"
 "http://www.w3.org/Graphics/SVG/1.1/DTD/svg11.dtd">
<!-- Generated by graphviz version 2.38.0 (20140413.2041)
 -->
<!-- Title: TranslatorAdapter_1_6_3 Pages: 1 -->
<!--zoomable 332 -->
<svg id="main" version="1.1" xmlns="http://www.w3.org/2000/svg" xmlns:xlink="http://www.w3.org/1999/xlink" xml:space="preserve" onload="init(evt)">
<style type="text/css"><![CDATA[
.edge:hover path { stroke: red; }
.edge:hover polygon { stroke: red; fill: red; }
]]></style>
<script type="text/javascript"><![CDATA[
var edges = document.getElementsByTagName('g');
if (edges && edges.length) {
  for (var i=0;i<edges.length;i++) {
    if (edges[i].id.substr(0,4)=='edge') {
      edges[i].setAttribute('class','edge');
    }
  }
}
]]></script>
        <defs>
                <circle id="rim" cx="0" cy="0" r="7"/>
                <circle id="rim2" cx="0" cy="0" r="3.5"/>
                <g id="zoomPlus">
                        <use xlink:href="#rim" fill="#404040">
                                <set attributeName="fill" to="#808080" begin="zoomplus.mouseover" end="zoomplus.mouseout"/>
                        </use>
                        <path d="M-4,0h8M0,-4v8" fill="none" stroke="white" stroke-width="1.5" pointer-events="none"/>
                </g>
                <g id="zoomMin">
                        <use xlink:href="#rim" fill="#404040">
                                <set attributeName="fill" to="#808080" begin="zoomminus.mouseover" end="zoomminus.mouseout"/>
                        </use>
                        <path d="M-4,0h8" fill="none" stroke="white" stroke-width="1.5" pointer-events="none"/>
                </g>
                <g id="dirArrow">
                        <path fill="none" stroke="white" stroke-width="1.5" d="M0,-3.0v7 M-2.5,-0.5L0,-3.0L2.5,-0.5"/>
                </g>
               <g id="resetDef">
                       <use xlink:href="#rim2" fill="#404040">
                               <set attributeName="fill" to="#808080" begin="reset.mouseover" end="reset.mouseout"/>
                       </use>
               </g>
        </defs>

<script type="text/javascript">
var viewWidth = 1651;
var viewHeight = 332;
var sectionId = 'dynsection-0';
</script>
<script xlink:href="../../svgpan.js"/>
<svg id="graph" class="graph">
<g id="viewport">
<title>TranslatorAdapter_1_6_3</title>
<polygon fill="white" stroke="none" points="-4,4 -4,-328 1647,-328 1647,4 -4,4"/>
<!-- Node0 -->
<g id="node1" class="node"><title>Node0</title>
<polygon fill="#bfbfbf" stroke="black" points="892,-114.5 892,-133.5 1017,-133.5 1017,-114.5 892,-114.5"/>
<text text-anchor="middle" x="954.5" y="-121.5" font-family="Helvetica,sans-Serif" font-size="10.00">TranslatorAdapter_1_6_3</text>
</g>
<!-- Node7 -->
<g id="node8" class="node"><title>Node7</title>
<g id="a_node8"><a xlink:href="../../d3/da1/class_translator_adapter__1__6__0.html" target="_top" xlink:title="Adapter class for languages that only contain translations up to version 1.6.0. ">
<polygon fill="white" stroke="black" points="1053,-114.5 1053,-133.5 1178,-133.5 1178,-114.5 1053,-114.5"/>
<text text-anchor="middle" x="1115.5" y="-121.5" font-family="Helvetica,sans-Serif" font-size="10.00">TranslatorAdapter_1_6_0</text>
</a>
</g>
</g>
<!-- Node0&#45;&gt;Node7 -->
<g id="edge7" class="edge"><title>Node0&#45;&gt;Node7</title>
<path fill="none" stroke="midnightblue" d="M1027.59,-124C1035.99,-124 1044.5,-124 1052.74,-124"/>
<polygon fill="midnightblue" stroke="midnightblue" points="1027.43,-120.5 1017.43,-124 1027.43,-127.5 1027.43,-120.5"/>
</g>
<!-- Node1 -->
<g id="node2" class="node"><title>Node1</title>
<g id="a_node2"><a xlink:href="../../da/d24/class_translator_adapter__1__7__5.html" target="_top" xlink:title="Adapter class for languages that only contain translations up to version 1.7.5. ">
<polygon fill="white" stroke="black" points="731,-114.5 731,-133.5 856,-133.5 856,-114.5 731,-114.5"/>
<text text-anchor="middle" x="793.5" y="-121.5" font-family="Helvetica,sans-Serif" font-size="10.00">TranslatorAdapter_1_7_5</text>
</a>
</g>
</g>
<!-- Node1&#45;&gt;Node0 -->
<g id="edge1" class="edge"><title>Node1&#45;&gt;Node0</title>
<path fill="none" stroke="midnightblue" d="M866.592,-124C874.99,-124 883.499,-124 891.74,-124"/>
<polygon fill="midnightblue" stroke="midnightblue" points="866.429,-120.5 856.429,-124 866.429,-127.5 866.429,-120.5"/>
</g>
<!-- Node2 -->
<g id="node3" class="node"><title>Node2</title>
<g id="a_node3"><a xlink:href="../../de/d49/class_translator_adapter__1__8__0.html" target="_top" xlink:title="Adapter class for languages that only contain translations up to version 1.8.0. ">
<polygon fill="white" stroke="black" points="570,-114.5 570,-133.5 695,-133.5 695,-114.5 570,-114.5"/>
<text text-anchor="middle" x="632.5" y="-121.5" font-family="Helvetica,sans-Serif" font-size="10.00">TranslatorAdapter_1_8_0</text>
</a>
</g>
</g>
<!-- Node2&#45;&gt;Node1 -->
<g id="edge2" class="edge"><title>Node2&#45;&gt;Node1</title>
<path fill="none" stroke="midnightblue" d="M705.592,-124C713.99,-124 722.499,-124 730.74,-124"/>
<polygon fill="midnightblue" stroke="midnightblue" points="705.429,-120.5 695.429,-124 705.429,-127.5 705.429,-120.5"/>
</g>
<!-- Node3 -->
<g id="node4" class="node"><title>Node3</title>
<g id="a_node4"><a xlink:href="../../d2/d75/class_translator_adapter__1__8__2.html" target="_top" xlink:title="TranslatorAdapter_1_8_2">
<polygon fill="white" stroke="black" points="409,-114.5 409,-133.5 534,-133.5 534,-114.5 409,-114.5"/>
<text text-anchor="middle" x="471.5" y="-121.5" font-family="Helvetica,sans-Serif" font-size="10.00">TranslatorAdapter_1_8_2</text>
</a>
</g>
</g>
<!-- Node3&#45;&gt;Node2 -->
<g id="edge3" class="edge"><title>Node3&#45;&gt;Node2</title>
<path fill="none" stroke="midnightblue" d="M544.592,-124C552.99,-124 561.499,-124 569.74,-124"/>
<polygon fill="midnightblue" stroke="midnightblue" points="544.429,-120.5 534.429,-124 544.429,-127.5 544.429,-120.5"/>
</g>
<!-- Node4 -->
<g id="node5" class="node"><title>Node4</title>
<g id="a_node5"><a xlink:href="../../de/d2f/class_translator_adapter__1__8__4.html" target="_top" xlink:title="TranslatorAdapter_1_8_4">
<polygon fill="white" stroke="black" points="248,-114.5 248,-133.5 373,-133.5 373,-114.5 248,-114.5"/>
<text text-anchor="middle" x="310.5" y="-121.5" font-family="Helvetica,sans-Serif" font-size="10.00">TranslatorAdapter_1_8_4</text>
</a>
</g>
</g>
<!-- Node4&#45;&gt;Node3 -->
<g id="edge4" class="edge"><title>Node4&#45;&gt;Node3</title>
<path fill="none" stroke="midnightblue" d="M383.592,-124C391.99,-124 400.499,-124 408.74,-124"/>
<polygon fill="midnightblue" stroke="midnightblue" points="383.429,-120.5 373.429,-124 383.429,-127.5 383.429,-120.5"/>
</g>
<!-- Node5 -->
<g id="node6" class="node"><title>Node5</title>
<g id="a_node6"><a xlink:href="../../db/d6c/class_translator_adapter_base.html" target="_top" xlink:title="Base of the translator adapter tree. ">
<polygon fill="white" stroke="black" points="96,-114.5 96,-133.5 212,-133.5 212,-114.5 96,-114.5"/>
<text text-anchor="middle" x="154" y="-121.5" font-family="Helvetica,sans-Serif" font-size="10.00">TranslatorAdapterBase</text>
</a>
</g>
</g>
<!-- Node5&#45;&gt;Node4 -->
<g id="edge5" class="edge"><title>Node5&#45;&gt;Node4</title>
<path fill="none" stroke="midnightblue" d="M222.367,-124C230.88,-124 239.556,-124 247.973,-124"/>
<polygon fill="midnightblue" stroke="midnightblue" points="222.091,-120.5 212.091,-124 222.091,-127.5 222.091,-120.5"/>
</g>
<!-- Node6 -->
<g id="node7" class="node"><title>Node6</title>
<g id="a_node7"><a xlink:href="../../d8/dfb/class_translator.html" target="_top" xlink:title="Abstract base class for all translatable text fragments. ">
<polygon fill="white" stroke="black" points="0,-114.5 0,-133.5 60,-133.5 60,-114.5 0,-114.5"/>
<text text-anchor="middle" x="30" y="-121.5" font-family="Helvetica,sans-Serif" font-size="10.00">Translator</text>
</a>
</g>
</g>
<!-- Node6&#45;&gt;Node5 -->
<g id="edge6" class="edge"><title>Node6&#45;&gt;Node5</title>
<path fill="none" stroke="midnightblue" d="M70.4645,-124C78.5532,-124 87.2216,-124 95.7899,-124"/>
<polygon fill="midnightblue" stroke="midnightblue" points="70.2221,-120.5 60.222,-124 70.222,-127.5 70.2221,-120.5"/>
</g>
<!-- Node8 -->
<g id="node9" class="node"><title>Node8</title>
<g id="a_node9"><a xlink:href="../../df/dc7/class_translator_adapter__1__5__4.html" target="_top" xlink:title="Adapter class for languages that only contain translations up to version 1.5.4. ">
<polygon fill="white" stroke="black" points="1214,-228.5 1214,-247.5 1339,-247.5 1339,-228.5 1214,-228.5"/>
<text text-anchor="middle" x="1276.5" y="-235.5" font-family="Helvetica,sans-Serif" font-size="10.00">TranslatorAdapter_1_5_4</text>
</a>
</g>
</g>
<!-- Node7&#45;&gt;Node8 -->
<g id="edge8" class="edge"><title>Node7&#45;&gt;Node8</title>
<path fill="none" stroke="midnightblue" d="M1130,-141.494C1147.28,-162.746 1179.18,-198.313 1214,-219 1220.44,-222.824 1227.72,-225.948 1234.96,-228.476"/>
<polygon fill="midnightblue" stroke="midnightblue" points="1132.69,-139.248 1123.72,-133.602 1127.21,-143.606 1132.69,-139.248"/>
</g>
<!-- Node15 -->
<g id="node16" class="node"><title>Node15</title>
<g id="a_node16"><a xlink:href="../../d3/d65/class_translator_afrikaans.html" target="_top" xlink:title="TranslatorAfrikaans">
<polygon fill="white" stroke="black" points="1226,-190.5 1226,-209.5 1327,-209.5 1327,-190.5 1226,-190.5"/>
<text text-anchor="middle" x="1276.5" y="-197.5" font-family="Helvetica,sans-Serif" font-size="10.00">TranslatorAfrikaans</text>
</a>
</g>
</g>
<!-- Node7&#45;&gt;Node15 -->
<g id="edge15" class="edge"><title>Node7&#45;&gt;Node15</title>
<path fill="none" stroke="midnightblue" d="M1138.88,-139.082C1158.15,-151.576 1187.04,-169.143 1214,-181 1222.08,-184.554 1231.03,-187.724 1239.54,-190.408"/>
<polygon fill="midnightblue" stroke="midnightblue" points="1140.77,-136.137 1130.49,-133.571 1136.92,-141.987 1140.77,-136.137"/>
</g>
<!-- Node16 -->
<g id="node17" class="node"><title>Node16</title>
<g id="a_node17"><a xlink:href="../../de/df7/class_translator_finnish.html" target="_top" xlink:title="TranslatorFinnish">
<polygon fill="white" stroke="black" points="1230.5,-152.5 1230.5,-171.5 1322.5,-171.5 1322.5,-152.5 1230.5,-152.5"/>
<text text-anchor="middle" x="1276.5" y="-159.5" font-family="Helvetica,sans-Serif" font-size="10.00">TranslatorFinnish</text>
</a>
</g>
</g>
<!-- Node7&#45;&gt;Node16 -->
<g id="edge16" class="edge"><title>Node7&#45;&gt;Node16</title>
<path fill="none" stroke="midnightblue" d="M1166.58,-135.968C1188.86,-141.293 1214.73,-147.476 1235.67,-152.48"/>
<polygon fill="midnightblue" stroke="midnightblue" points="1167.16,-132.509 1156.62,-133.589 1165.53,-139.318 1167.16,-132.509"/>
</g>
<!-- Node17 -->
<g id="node18" class="node"><title>Node17</title>
<g id="a_node18"><a xlink:href="../../d9/ddf/class_translator_macedonian.html" target="_top" xlink:title="TranslatorMacedonian">
<polygon fill="white" stroke="black" points="1220,-114.5 1220,-133.5 1333,-133.5 1333,-114.5 1220,-114.5"/>
<text text-anchor="middle" x="1276.5" y="-121.5" font-family="Helvetica,sans-Serif" font-size="10.00">TranslatorMacedonian</text>
</a>
</g>
</g>
<!-- Node7&#45;&gt;Node17 -->
<g id="edge17" class="edge"><title>Node7&#45;&gt;Node17</title>
<path fill="none" stroke="midnightblue" d="M1188.48,-124C1199.05,-124 1209.79,-124 1219.96,-124"/>
<polygon fill="midnightblue" stroke="midnightblue" points="1188.43,-120.5 1178.43,-124 1188.43,-127.5 1188.43,-120.5"/>
</g>
<!-- Node18 -->
<g id="node19" class="node"><title>Node18</title>
<g id="a_node19"><a xlink:href="../../d5/d0a/class_translator_serbian.html" target="_top" xlink:title="TranslatorSerbian">
<polygon fill="white" stroke="black" points="1230,-76.5 1230,-95.5 1323,-95.5 1323,-76.5 1230,-76.5"/>
<text text-anchor="middle" x="1276.5" y="-83.5" font-family="Helvetica,sans-Serif" font-size="10.00">TranslatorSerbian</text>
</a>
</g>
</g>
<!-- Node7&#45;&gt;Node18 -->
<g id="edge18" class="edge"><title>Node7&#45;&gt;Node18</title>
<path fill="none" stroke="midnightblue" d="M1166.58,-112.032C1188.86,-106.707 1214.73,-100.524 1235.67,-95.5201"/>
<polygon fill="midnightblue" stroke="midnightblue" points="1165.53,-108.682 1156.62,-114.411 1167.16,-115.491 1165.53,-108.682"/>
</g>
<!-- Node19 -->
<g id="node20" class="node"><title>Node19</title>
<g id="a_node20"><a xlink:href="../../dc/d03/class_translator_serbian_cyrillic.html" target="_top" xlink:title="TranslatorSerbianCyrillic">
<polygon fill="white" stroke="black" points="1215,-38.5 1215,-57.5 1338,-57.5 1338,-38.5 1215,-38.5"/>
<text text-anchor="middle" x="1276.5" y="-45.5" font-family="Helvetica,sans-Serif" font-size="10.00">TranslatorSerbianCyrillic</text>
</a>
</g>
</g>
<!-- Node7&#45;&gt;Node19 -->
<g id="edge19" class="edge"><title>Node7&#45;&gt;Node19</title>
<path fill="none" stroke="midnightblue" d="M1138.88,-108.918C1158.15,-96.4241 1187.04,-78.8571 1214,-67 1222.08,-63.4459 1231.03,-60.276 1239.54,-57.5916"/>
<polygon fill="midnightblue" stroke="midnightblue" points="1136.92,-106.013 1130.49,-114.429 1140.77,-111.863 1136.92,-106.013"/>
</g>
<!-- Node20 -->
<g id="node21" class="node"><title>Node20</title>
<g id="a_node21"><a xlink:href="../../df/d20/class_translator_vietnamese.html" target="_top" xlink:title="TranslatorVietnamese">
<polygon fill="white" stroke="black" points="1220.5,-0.5 1220.5,-19.5 1332.5,-19.5 1332.5,-0.5 1220.5,-0.5"/>
<text text-anchor="middle" x="1276.5" y="-7.5" font-family="Helvetica,sans-Serif" font-size="10.00">TranslatorVietnamese</text>
</a>
</g>
</g>
<!-- Node7&#45;&gt;Node20 -->
<g id="edge20" class="edge"><title>Node7&#45;&gt;Node20</title>
<path fill="none" stroke="midnightblue" d="M1130,-106.506C1147.28,-85.2541 1179.18,-49.6868 1214,-29 1220.44,-25.1761 1227.72,-22.0523 1234.96,-19.5241"/>
<polygon fill="midnightblue" stroke="midnightblue" points="1127.21,-104.394 1123.72,-114.398 1132.69,-108.752 1127.21,-104.394"/>
</g>
<!-- Node9 -->
<g id="node10" class="node"><title>Node9</title>
<g id="a_node10"><a xlink:href="../../d4/d2b/class_translator_adapter__1__4__6.html" target="_top" xlink:title="Adapter class for languages that only contain translations up to version 1.4.6. ">
<polygon fill="white" stroke="black" points="1375,-228.5 1375,-247.5 1500,-247.5 1500,-228.5 1375,-228.5"/>
<text text-anchor="middle" x="1437.5" y="-235.5" font-family="Helvetica,sans-Serif" font-size="10.00">TranslatorAdapter_1_4_6</text>
</a>
</g>
</g>
<!-- Node8&#45;&gt;Node9 -->
<g id="edge9" class="edge"><title>Node8&#45;&gt;Node9</title>
<path fill="none" stroke="midnightblue" d="M1349.59,-238C1357.99,-238 1366.5,-238 1374.74,-238"/>
<polygon fill="midnightblue" stroke="midnightblue" points="1349.43,-234.5 1339.43,-238 1349.43,-241.5 1349.43,-234.5"/>
</g>
<!-- Node10 -->
<g id="node11" class="node"><title>Node10</title>
<g id="a_node11"><a xlink:href="../../d3/de9/class_translator_arabic.html" target="_top" xlink:title="TranslatorArabic">
<polygon fill="white" stroke="black" points="1545.5,-304.5 1545.5,-323.5 1633.5,-323.5 1633.5,-304.5 1545.5,-304.5"/>
<text text-anchor="middle" x="1589.5" y="-311.5" font-family="Helvetica,sans-Serif" font-size="10.00">TranslatorArabic</text>
</a>
</g>
</g>
<!-- Node9&#45;&gt;Node10 -->
<g id="edge10" class="edge"><title>Node9&#45;&gt;Node10</title>
<path fill="none" stroke="midnightblue" d="M1461.36,-252.967C1480.72,-265.249 1509.48,-282.576 1536,-295 1543.37,-298.454 1551.56,-301.687 1559.23,-304.473"/>
<polygon fill="midnightblue" stroke="midnightblue" points="1463.22,-250.004 1452.91,-247.552 1459.44,-255.896 1463.22,-250.004"/>
</g>
<!-- Node11 -->
<g id="node12" class="node"><title>Node11</title>
<g id="a_node12"><a xlink:href="../../db/d5f/class_translator_hungarian.html" target="_top" xlink:title="TranslatorHungarian">
<polygon fill="white" stroke="black" points="1537.5,-266.5 1537.5,-285.5 1641.5,-285.5 1641.5,-266.5 1537.5,-266.5"/>
<text text-anchor="middle" x="1589.5" y="-273.5" font-family="Helvetica,sans-Serif" font-size="10.00">TranslatorHungarian</text>
</a>
</g>
</g>
<!-- Node9&#45;&gt;Node11 -->
<g id="edge11" class="edge"><title>Node9&#45;&gt;Node11</title>
<path fill="none" stroke="midnightblue" d="M1486.31,-250.112C1507.2,-255.404 1531.35,-261.521 1550.92,-266.48"/>
<polygon fill="midnightblue" stroke="midnightblue" points="1486.9,-246.652 1476.35,-247.589 1485.19,-253.438 1486.9,-246.652"/>
</g>
<!-- Node12 -->
<g id="node13" class="node"><title>Node12</title>
<g id="a_node13"><a xlink:href="../../dc/d53/class_translator_lithuanian.html" target="_top" xlink:title="TranslatorLithuanian">
<polygon fill="white" stroke="black" points="1537.5,-228.5 1537.5,-247.5 1641.5,-247.5 1641.5,-228.5 1537.5,-228.5"/>
<text text-anchor="middle" x="1589.5" y="-235.5" font-family="Helvetica,sans-Serif" font-size="10.00">TranslatorLithuanian</text>
</a>
</g>
</g>
<!-- Node9&#45;&gt;Node12 -->
<g id="edge12" class="edge"><title>Node9&#45;&gt;Node12</title>
<path fill="none" stroke="midnightblue" d="M1510.52,-238C1519.55,-238 1528.64,-238 1537.26,-238"/>
<polygon fill="midnightblue" stroke="midnightblue" points="1510.38,-234.5 1500.38,-238 1510.38,-241.5 1510.38,-234.5"/>
</g>
<!-- Node13 -->
<g id="node14" class="node"><title>Node13</title>
<g id="a_node14"><a xlink:href="../../dd/d38/class_translator_norwegian.html" target="_top" xlink:title="TranslatorNorwegian">
<polygon fill="white" stroke="black" points="1536,-190.5 1536,-209.5 1643,-209.5 1643,-190.5 1536,-190.5"/>
<text text-anchor="middle" x="1589.5" y="-197.5" font-family="Helvetica,sans-Serif" font-size="10.00">TranslatorNorwegian</text>
</a>
</g>
</g>
<!-- Node9&#45;&gt;Node13 -->
<g id="edge13" class="edge"><title>Node9&#45;&gt;Node13</title>
<path fill="none" stroke="midnightblue" d="M1486.31,-225.888C1507.2,-220.596 1531.35,-214.479 1550.92,-209.52"/>
<polygon fill="midnightblue" stroke="midnightblue" points="1485.19,-222.562 1476.35,-228.411 1486.9,-229.348 1485.19,-222.562"/>
</g>
<!-- Node14 -->
<g id="node15" class="node"><title>Node14</title>
<g id="a_node15"><a xlink:href="../../dd/d0b/class_translator_slovene.html" target="_top" xlink:title="TranslatorSlovene">
<polygon fill="white" stroke="black" points="1542,-152.5 1542,-171.5 1637,-171.5 1637,-152.5 1542,-152.5"/>
<text text-anchor="middle" x="1589.5" y="-159.5" font-family="Helvetica,sans-Serif" font-size="10.00">TranslatorSlovene</text>
</a>
</g>
</g>
<!-- Node9&#45;&gt;Node14 -->
<g id="edge14" class="edge"><title>Node9&#45;&gt;Node14</title>
<path fill="none" stroke="midnightblue" d="M1461.36,-223.033C1480.72,-210.751 1509.48,-193.424 1536,-181 1543.37,-177.546 1551.56,-174.313 1559.23,-171.527"/>
<polygon fill="midnightblue" stroke="midnightblue" points="1459.44,-220.104 1452.91,-228.448 1463.22,-225.996 1459.44,-220.104"/>
</g>
</g>
</svg>
        <g id="navigator" transform="translate(0 0)" fill="#404254">
                <rect fill="#f2f5e9" fill-opacity="0.5" stroke="#606060" stroke-width=".5" x="0" y="0" width="60" height="60"/>
                <use id="zoomplus" xlink:href="#zoomPlus" x="17" y="9" onmousedown="handleZoom(evt,'in')"/>
                <use id="zoomminus" xlink:href="#zoomMin" x="42" y="9" onmousedown="handleZoom(evt,'out')"/>
                <use id="reset" xlink:href="#resetDef" x="30" y="36" onmousedown="handleReset()"/>
                <g id="arrowUp" xlink:href="#dirArrow" transform="translate(30 24)" onmousedown="handlePan(0,-1)">
                  <use xlink:href="#rim" fill="#404040">
                        <set attributeName="fill" to="#808080" begin="arrowUp.mouseover" end="arrowUp.mouseout"/>
                  </use>
                  <path fill="none" stroke="white" stroke-width="1.5" d="M0,-3.0v7 M-2.5,-0.5L0,-3.0L2.5,-0.5"/>
                </g>
                <g id="arrowRight" xlink:href="#dirArrow" transform="rotate(90) translate(36 -43)" onmousedown="handlePan(1,0)">
                  <use xlink:href="#rim" fill="#404040">
                        <set attributeName="fill" to="#808080" begin="arrowRight.mouseover" end="arrowRight.mouseout"/>
                  </use>
                  <path fill="none" stroke="white" stroke-width="1.5" d="M0,-3.0v7 M-2.5,-0.5L0,-3.0L2.5,-0.5"/>
                </g>
                <g id="arrowDown" xlink:href="#dirArrow" transform="rotate(180) translate(-30 -48)" onmousedown="handlePan(0,1)">
                  <use xlink:href="#rim" fill="#404040">
                        <set attributeName="fill" to="#808080" begin="arrowDown.mouseover" end="arrowDown.mouseout"/>
                  </use>
                  <path fill="none" stroke="white" stroke-width="1.5" d="M0,-3.0v7 M-2.5,-0.5L0,-3.0L2.5,-0.5"/>
                </g>
                <g id="arrowLeft" xlink:href="#dirArrow" transform="rotate(270) translate(-36 17)" onmousedown="handlePan(-1,0)">
                  <use xlink:href="#rim" fill="#404040">
                        <set attributeName="fill" to="#808080" begin="arrowLeft.mouseover" end="arrowLeft.mouseout"/>
                  </use>
                  <path fill="none" stroke="white" stroke-width="1.5" d="M0,-3.0v7 M-2.5,-0.5L0,-3.0L2.5,-0.5"/>
                </g>
        </g>
        <svg viewBox="0 0 15 15" width="100%" height="30px" preserveAspectRatio="xMaxYMin meet">
         <g id="arrow_out" transform="scale(0.3 0.3)">
          <a xlink:href="class_translator_adapter__1__6__3__inherit__graph_org.svg" target="_base">
           <rect id="button" ry="5" rx="5" y="6" x="6" height="38" width="38"
                fill="#f2f5e9" fill-opacity="0.5" stroke="#606060" stroke-width="1.0"/>
           <path id="arrow"
             d="M 11.500037,31.436501 C 11.940474,20.09759 22.043105,11.32322 32.158766,21.979434 L 37.068811,17.246167 C 37.068811,17.246167 37.088388,32 37.088388,32 L 22.160133,31.978069 C 22.160133,31.978069 26.997745,27.140456 26.997745,27.140456 C 18.528582,18.264221 13.291696,25.230495 11.500037,31.436501 z"
             style="fill:#404040;"/>
          </a>
         </g>
        </svg>
</svg>
