<?xml version="1.0" encoding="UTF-8" standalone="no"?>
<!DOCTYPE svg PUBLIC "-//W3C//DTD SVG 1.1//EN"
 "http://www.w3.org/Graphics/SVG/1.1/DTD/svg11.dtd">
<!-- Generated by graphviz version 2.38.0 (20140413.2041)
 -->
<!-- Title: TemplateKeyValue Pages: 1 -->
<svg width="258pt" height="162pt"
 viewBox="0.00 0.00 258.00 162.00" xmlns="http://www.w3.org/2000/svg" xmlns:xlink="http://www.w3.org/1999/xlink">
<g id="graph0" class="graph" transform="scale(1 1) rotate(0) translate(4 158)">
<title>TemplateKeyValue</title>
<polygon fill="white" stroke="none" points="-4,4 -4,-158 254,-158 254,4 -4,4"/>
<!-- Node1 -->
<g id="node1" class="node"><title>Node1</title>
<polygon fill="#bfbfbf" stroke="black" points="0,-0.5 0,-19.5 99,-19.5 99,-0.5 0,-0.5"/>
<text text-anchor="middle" x="49.5" y="-7.5" font-family="Helvetica,sans-Serif" font-size="10.00">TemplateKeyValue</text>
</g>
<!-- Node2 -->
<g id="node2" class="node"><title>Node2</title>
<g id="a_node2"><a xlink:href="../../d1/dba/class_template_variant.html" target="_top" xlink:title="Variant type which can hold one value of a fixed set of types. ">
<polygon fill="white" stroke="black" points="67.5,-67.5 67.5,-86.5 155.5,-86.5 155.5,-67.5 67.5,-67.5"/>
<text text-anchor="middle" x="111.5" y="-74.5" font-family="Helvetica,sans-Serif" font-size="10.00">TemplateVariant</text>
</a>
</g>
</g>
<!-- Node2&#45;&gt;Node1 -->
<g id="edge1" class="edge"><title>Node2&#45;&gt;Node1</title>
<path fill="none" stroke="#9a32cd" stroke-dasharray="5,2" d="M79.0591,-62.5925C72.9313,-58.9049 67.0318,-54.3978 62.5,-49 55.4164,-40.5626 52.1246,-28.0651 50.6425,-19.7332"/>
<polygon fill="#9a32cd" stroke="#9a32cd" points="77.5998,-65.7813 88.0676,-67.4172 80.9047,-59.6106 77.5998,-65.7813"/>
<text text-anchor="middle" x="76" y="-41" font-family="Helvetica,sans-Serif" font-size="10.00"> value</text>
</g>
<!-- Node5 -->
<g id="node5" class="node"><title>Node5</title>
<g id="a_node5"><a xlink:href="../../d7/d1d/class_template_variant_1_1_delegate.html" target="_top" xlink:title="Helper class to create a delegate that can store a function/method call. ">
<polygon fill="white" stroke="black" points="117,-0.5 117,-19.5 250,-19.5 250,-0.5 117,-0.5"/>
<text text-anchor="middle" x="183.5" y="-7.5" font-family="Helvetica,sans-Serif" font-size="10.00">TemplateVariant::Delegate</text>
</a>
</g>
</g>
<!-- Node2&#45;&gt;Node5 -->
<g id="edge5" class="edge"><title>Node2&#45;&gt;Node5</title>
<path fill="none" stroke="#9a32cd" stroke-dasharray="5,2" d="M105.388,-57.6136C104.297,-50.9141 104.554,-43.6139 108.5,-38 114.548,-29.3951 123.615,-23.5198 133.375,-19.5116"/>
<polygon fill="#9a32cd" stroke="#9a32cd" points="102.002,-58.5001 107.874,-67.3183 108.783,-56.7624 102.002,-58.5001"/>
<text text-anchor="middle" x="133" y="-41" font-family="Helvetica,sans-Serif" font-size="10.00"> m_stubPtr</text>
</g>
<!-- Node3 -->
<g id="node3" class="node"><title>Node3</title>
<g id="a_node3"><a xlink:href="../../d6/d88/class_template_list_intf.html" target="_top" xlink:title="Abstract read&#45;only interface for a context value of type list. ">
<polygon fill="white" stroke="black" points="13,-134.5 13,-153.5 100,-153.5 100,-134.5 13,-134.5"/>
<text text-anchor="middle" x="56.5" y="-141.5" font-family="Helvetica,sans-Serif" font-size="10.00">TemplateListIntf</text>
</a>
</g>
</g>
<!-- Node3&#45;&gt;Node2 -->
<g id="edge2" class="edge"><title>Node3&#45;&gt;Node2</title>
<path fill="none" stroke="#9a32cd" stroke-dasharray="5,2" d="M70.6558,-126.27C81.3793,-113.597 95.6761,-96.701 104.2,-86.6273"/>
<polygon fill="#9a32cd" stroke="#9a32cd" points="67.7051,-124.339 63.9175,-134.234 73.0489,-128.861 67.7051,-124.339"/>
<text text-anchor="middle" x="102.5" y="-108" font-family="Helvetica,sans-Serif" font-size="10.00"> m_list</text>
</g>
<!-- Node4 -->
<g id="node4" class="node"><title>Node4</title>
<g id="a_node4"><a xlink:href="../../d9/de8/class_template_struct_intf.html" target="_top" xlink:title="Abstract interface for a context value of type struct. ">
<polygon fill="white" stroke="black" points="118.5,-134.5 118.5,-153.5 216.5,-153.5 216.5,-134.5 118.5,-134.5"/>
<text text-anchor="middle" x="167.5" y="-141.5" font-family="Helvetica,sans-Serif" font-size="10.00">TemplateStructIntf</text>
</a>
</g>
</g>
<!-- Node4&#45;&gt;Node2 -->
<g id="edge3" class="edge"><title>Node4&#45;&gt;Node2</title>
<path fill="none" stroke="#9a32cd" stroke-dasharray="5,2" d="M153.401,-126.635C142.449,-113.923 127.695,-96.7978 118.933,-86.6273"/>
<polygon fill="#9a32cd" stroke="#9a32cd" points="150.769,-128.942 159.948,-134.234 156.072,-124.373 150.769,-128.942"/>
<text text-anchor="middle" x="164.5" y="-108" font-family="Helvetica,sans-Serif" font-size="10.00"> m_strukt</text>
</g>
<!-- Node5&#45;&gt;Node2 -->
<g id="edge4" class="edge"><title>Node5&#45;&gt;Node2</title>
<path fill="none" stroke="#9a32cd" stroke-dasharray="5,2" d="M175.68,-29.0229C172.08,-35.8672 167.306,-43.3633 161.5,-49 153.572,-56.6962 143.011,-62.8262 133.638,-67.2873"/>
<polygon fill="#9a32cd" stroke="#9a32cd" points="178.954,-30.2874 180.096,-19.7543 172.635,-27.2764 178.954,-30.2874"/>
<text text-anchor="middle" x="197.5" y="-41" font-family="Helvetica,sans-Serif" font-size="10.00"> m_delegate</text>
</g>
</g>
</svg>
