<?xml version="1.0" encoding="UTF-8" standalone="no"?>
<!DOCTYPE svg PUBLIC "-//W3C//DTD SVG 1.1//EN"
 "http://www.w3.org/Graphics/SVG/1.1/DTD/svg11.dtd">
<!-- Generated by graphviz version 2.38.0 (20140413.2041)
 -->
<!-- Title: ArgumentContext::Private::Cachable Pages: 1 -->
<svg width="357pt" height="240pt"
 viewBox="0.00 0.00 356.50 240.00" xmlns="http://www.w3.org/2000/svg" xmlns:xlink="http://www.w3.org/1999/xlink">
<g id="graph0" class="graph" transform="scale(1 1) rotate(0) translate(4 236)">
<title>ArgumentContext::Private::Cachable</title>
<polygon fill="white" stroke="none" points="-4,4 -4,-236 352.5,-236 352.5,4 -4,4"/>
<!-- Node1 -->
<g id="node1" class="node"><title>Node1</title>
<polygon fill="#bfbfbf" stroke="black" points="184.5,-0.5 184.5,-30.5 314.5,-30.5 314.5,-0.5 184.5,-0.5"/>
<text text-anchor="start" x="192.5" y="-18.5" font-family="Helvetica,sans-Serif" font-size="10.00">ArgumentContext::Private</text>
<text text-anchor="middle" x="249.5" y="-7.5" font-family="Helvetica,sans-Serif" font-size="10.00">::Cachable</text>
</g>
<!-- Node2 -->
<g id="node2" class="node"><title>Node2</title>
<g id="a_node2"><a xlink:href="../../dd/d9b/class_scoped_ptr.html" target="_top" xlink:title="ScopedPtr\&lt; TemplateVariant \&gt;">
<polygon fill="white" stroke="black" points="173.5,-78.5 173.5,-97.5 325.5,-97.5 325.5,-78.5 173.5,-78.5"/>
<text text-anchor="middle" x="249.5" y="-85.5" font-family="Helvetica,sans-Serif" font-size="10.00">ScopedPtr&lt; TemplateVariant &gt;</text>
</a>
</g>
</g>
<!-- Node2&#45;&gt;Node1 -->
<g id="edge1" class="edge"><title>Node2&#45;&gt;Node1</title>
<path fill="none" stroke="#9a32cd" stroke-dasharray="5,2" d="M249.5,-68.2362C249.5,-56.4079 249.5,-41.3829 249.5,-30.5762"/>
<polygon fill="#9a32cd" stroke="#9a32cd" points="246,-68.3553 249.5,-78.3553 253,-68.3554 246,-68.3553"/>
<text text-anchor="middle" x="262" y="-52" font-family="Helvetica,sans-Serif" font-size="10.00"> docs</text>
</g>
<!-- Node3 -->
<g id="node3" class="node"><title>Node3</title>
<g id="a_node3"><a xlink:href="../../d1/dba/class_template_variant.html" target="_top" xlink:title="Variant type which can hold one value of a fixed set of types. ">
<polygon fill="white" stroke="black" points="87.5,-145.5 87.5,-164.5 175.5,-164.5 175.5,-145.5 87.5,-145.5"/>
<text text-anchor="middle" x="131.5" y="-152.5" font-family="Helvetica,sans-Serif" font-size="10.00">TemplateVariant</text>
</a>
</g>
</g>
<!-- Node3&#45;&gt;Node2 -->
<g id="edge2" class="edge"><title>Node3&#45;&gt;Node2</title>
<path fill="none" stroke="#9a32cd" stroke-dasharray="5,2" d="M156.394,-140.287C179.781,-127.405 214.056,-108.524 233.838,-97.6273"/>
<polygon fill="#9a32cd" stroke="#9a32cd" points="154.484,-137.343 147.414,-145.234 157.862,-143.475 154.484,-137.343"/>
<text text-anchor="middle" x="212.5" y="-119" font-family="Helvetica,sans-Serif" font-size="10.00"> m_ptr</text>
</g>
<!-- Node6 -->
<g id="node6" class="node"><title>Node6</title>
<g id="a_node6"><a xlink:href="../../d7/d1d/class_template_variant_1_1_delegate.html" target="_top" xlink:title="Helper class to create a delegate that can store a function/method call. ">
<polygon fill="white" stroke="black" points="12,-78.5 12,-97.5 145,-97.5 145,-78.5 12,-78.5"/>
<text text-anchor="middle" x="78.5" y="-85.5" font-family="Helvetica,sans-Serif" font-size="10.00">TemplateVariant::Delegate</text>
</a>
</g>
</g>
<!-- Node3&#45;&gt;Node6 -->
<g id="edge6" class="edge"><title>Node3&#45;&gt;Node6</title>
<path fill="none" stroke="#9a32cd" stroke-dasharray="5,2" d="M77.8759,-143.954C69.4702,-140.022 61.8179,-134.566 56.5,-127 49.7496,-117.395 59.0821,-105.595 67.5905,-97.7163"/>
<polygon fill="#9a32cd" stroke="#9a32cd" points="76.6314,-147.226 87.2177,-147.65 79.2066,-140.717 76.6314,-147.226"/>
<text text-anchor="middle" x="81" y="-119" font-family="Helvetica,sans-Serif" font-size="10.00"> m_stubPtr</text>
</g>
<!-- Node4 -->
<g id="node4" class="node"><title>Node4</title>
<g id="a_node4"><a xlink:href="../../d6/d88/class_template_list_intf.html" target="_top" xlink:title="Abstract read&#45;only interface for a context value of type list. ">
<polygon fill="white" stroke="black" points="0,-212.5 0,-231.5 87,-231.5 87,-212.5 0,-212.5"/>
<text text-anchor="middle" x="43.5" y="-219.5" font-family="Helvetica,sans-Serif" font-size="10.00">TemplateListIntf</text>
</a>
</g>
</g>
<!-- Node4&#45;&gt;Node3 -->
<g id="edge3" class="edge"><title>Node4&#45;&gt;Node3</title>
<path fill="none" stroke="#9a32cd" stroke-dasharray="5,2" d="M63.7159,-206.068C81.086,-193.238 105.526,-175.185 119.82,-164.627"/>
<polygon fill="#9a32cd" stroke="#9a32cd" points="61.3323,-203.477 55.3681,-212.234 65.4912,-209.108 61.3323,-203.477"/>
<text text-anchor="middle" x="108.5" y="-186" font-family="Helvetica,sans-Serif" font-size="10.00"> m_list</text>
</g>
<!-- Node5 -->
<g id="node5" class="node"><title>Node5</title>
<g id="a_node5"><a xlink:href="../../d9/de8/class_template_struct_intf.html" target="_top" xlink:title="Abstract interface for a context value of type struct. ">
<polygon fill="white" stroke="black" points="105.5,-212.5 105.5,-231.5 203.5,-231.5 203.5,-212.5 105.5,-212.5"/>
<text text-anchor="middle" x="154.5" y="-219.5" font-family="Helvetica,sans-Serif" font-size="10.00">TemplateStructIntf</text>
</a>
</g>
</g>
<!-- Node5&#45;&gt;Node3 -->
<g id="edge4" class="edge"><title>Node5&#45;&gt;Node3</title>
<path fill="none" stroke="#9a32cd" stroke-dasharray="5,2" d="M148.056,-202.79C143.64,-190.308 137.98,-174.314 134.553,-164.627"/>
<polygon fill="#9a32cd" stroke="#9a32cd" points="144.763,-203.974 151.398,-212.234 151.362,-201.639 144.763,-203.974"/>
<text text-anchor="middle" x="165.5" y="-186" font-family="Helvetica,sans-Serif" font-size="10.00"> m_strukt</text>
</g>
<!-- Node6&#45;&gt;Node3 -->
<g id="edge5" class="edge"><title>Node6&#45;&gt;Node3</title>
<path fill="none" stroke="#9a32cd" stroke-dasharray="5,2" d="M98.1929,-104.412C102.173,-107.99 106.157,-111.946 109.5,-116 117.065,-125.175 123.58,-137.279 127.515,-145.335"/>
<polygon fill="#9a32cd" stroke="#9a32cd" points="100.132,-101.469 90.2357,-97.6864 95.6137,-106.815 100.132,-101.469"/>
<text text-anchor="middle" x="144.5" y="-119" font-family="Helvetica,sans-Serif" font-size="10.00"> m_delegate</text>
</g>
<!-- Node7 -->
<g id="node7" class="node"><title>Node7</title>
<g id="a_node7"><a xlink:href="../../dd/d9b/class_scoped_ptr.html" target="_top" xlink:title="Scoped smart pointer. ">
<polygon fill="white" stroke="black" points="216.5,-145.5 216.5,-164.5 302.5,-164.5 302.5,-145.5 216.5,-145.5"/>
<text text-anchor="middle" x="259.5" y="-152.5" font-family="Helvetica,sans-Serif" font-size="10.00">ScopedPtr&lt; T &gt;</text>
</a>
</g>
</g>
<!-- Node7&#45;&gt;Node2 -->
<g id="edge7" class="edge"><title>Node7&#45;&gt;Node2</title>
<path fill="none" stroke="orange" stroke-dasharray="5,2" d="M256.583,-135.037C254.68,-122.67 252.288,-107.12 250.827,-97.6273"/>
<polygon fill="orange" stroke="orange" points="253.171,-135.882 258.151,-145.234 260.09,-134.818 253.171,-135.882"/>
<text text-anchor="middle" x="302" y="-119" font-family="Helvetica,sans-Serif" font-size="10.00"> &lt; TemplateVariant &gt;</text>
</g>
<!-- Node8 -->
<g id="node8" class="node"><title>Node8</title>
<polygon fill="white" stroke="#bfbfbf" points="245,-212.5 245,-231.5 274,-231.5 274,-212.5 245,-212.5"/>
<text text-anchor="middle" x="259.5" y="-219.5" font-family="Helvetica,sans-Serif" font-size="10.00">T</text>
</g>
<!-- Node8&#45;&gt;Node7 -->
<g id="edge8" class="edge"><title>Node8&#45;&gt;Node7</title>
<path fill="none" stroke="#9a32cd" stroke-dasharray="5,2" d="M259.5,-202.037C259.5,-189.67 259.5,-174.12 259.5,-164.627"/>
<polygon fill="#9a32cd" stroke="#9a32cd" points="256,-202.234 259.5,-212.234 263,-202.234 256,-202.234"/>
<text text-anchor="middle" x="273.5" y="-186" font-family="Helvetica,sans-Serif" font-size="10.00"> m_ptr</text>
</g>
</g>
</svg>
