<?xml version="1.0" encoding="UTF-8" standalone="no"?>
<!DOCTYPE svg PUBLIC "-//W3C//DTD SVG 1.1//EN"
 "http://www.w3.org/Graphics/SVG/1.1/DTD/svg11.dtd">
<!-- Generated by graphviz version 2.38.0 (20140413.2041)
 -->
<!-- Title: LayoutParser::StartElementHandlerKind Pages: 1 -->
<svg width="282pt" height="241pt"
 viewBox="0.00 0.00 282.00 241.00" xmlns="http://www.w3.org/2000/svg" xmlns:xlink="http://www.w3.org/1999/xlink">
<g id="graph0" class="graph" transform="scale(1 1) rotate(0) translate(4 237)">
<title>LayoutParser::StartElementHandlerKind</title>
<polygon fill="white" stroke="none" points="-4,4 -4,-237 278,-237 278,4 -4,4"/>
<!-- Node2 -->
<g id="node1" class="node"><title>Node2</title>
<polygon fill="#bfbfbf" stroke="black" points="45,-0.5 45,-30.5 182,-30.5 182,-0.5 45,-0.5"/>
<text text-anchor="start" x="53" y="-18.5" font-family="Helvetica,sans-Serif" font-size="10.00">LayoutParser::StartElement</text>
<text text-anchor="middle" x="113.5" y="-7.5" font-family="Helvetica,sans-Serif" font-size="10.00">HandlerKind</text>
</g>
<!-- Node3 -->
<g id="node2" class="node"><title>Node3</title>
<g id="a_node2"><a xlink:href="../../d9/dc0/class_layout_parser_1_1_start_element_handler.html" target="_top" xlink:title="LayoutParser::StartElement\lHandler">
<polygon fill="white" stroke="black" points="137,-68.5 137,-98.5 274,-98.5 274,-68.5 137,-68.5"/>
<text text-anchor="start" x="145" y="-86.5" font-family="Helvetica,sans-Serif" font-size="10.00">LayoutParser::StartElement</text>
<text text-anchor="middle" x="205.5" y="-75.5" font-family="Helvetica,sans-Serif" font-size="10.00">Handler</text>
</a>
</g>
</g>
<!-- Node3&#45;&gt;Node2 -->
<g id="edge1" class="edge"><title>Node3&#45;&gt;Node2</title>
<path fill="none" stroke="midnightblue" d="M177.063,-62.0994C162.805,-51.8712 145.899,-39.7428 133.108,-30.5663"/>
<polygon fill="midnightblue" stroke="midnightblue" points="175.372,-65.1938 185.537,-68.179 179.452,-59.506 175.372,-65.1938"/>
</g>
<!-- Node4 -->
<g id="node3" class="node"><title>Node4</title>
<g id="a_node3"><a xlink:href="../../d3/de9/class_layout_parser.html" target="_top" xlink:title="LayoutParser">
<polygon fill="white" stroke="black" points="53.5,-146.5 53.5,-165.5 127.5,-165.5 127.5,-146.5 53.5,-146.5"/>
<text text-anchor="middle" x="90.5" y="-153.5" font-family="Helvetica,sans-Serif" font-size="10.00">LayoutParser</text>
</a>
</g>
</g>
<!-- Node4&#45;&gt;Node2 -->
<g id="edge6" class="edge"><title>Node4&#45;&gt;Node2</title>
<path fill="none" stroke="#9a32cd" stroke-dasharray="5,2" d="M85.8275,-136.491C82.1136,-118.655 78.455,-91.055 84.5,-68 88.0914,-54.3027 96.2379,-40.4075 102.985,-30.5081"/>
<polygon fill="#9a32cd" stroke="#9a32cd" points="82.4619,-137.473 88.1175,-146.432 89.2832,-135.901 82.4619,-137.473"/>
<text text-anchor="middle" x="106.5" y="-81" font-family="Helvetica,sans-Serif" font-size="10.00"> m_parent</text>
</g>
<!-- Node4&#45;&gt;Node3 -->
<g id="edge2" class="edge"><title>Node4&#45;&gt;Node3</title>
<path fill="none" stroke="#9a32cd" stroke-dasharray="5,2" d="M113.387,-140.969C133.447,-128.672 162.457,-110.887 182.539,-98.5762"/>
<polygon fill="#9a32cd" stroke="#9a32cd" points="111.297,-138.145 104.601,-146.355 114.956,-144.113 111.297,-138.145"/>
<text text-anchor="middle" x="172.5" y="-120" font-family="Helvetica,sans-Serif" font-size="10.00"> m_parent</text>
</g>
<!-- Node5 -->
<g id="node4" class="node"><title>Node5</title>
<polygon fill="white" stroke="#bfbfbf" points="0,-213.5 0,-232.5 107,-232.5 107,-213.5 0,-213.5"/>
<text text-anchor="middle" x="53.5" y="-220.5" font-family="Helvetica,sans-Serif" font-size="10.00">QXmlDefaultHandler</text>
</g>
<!-- Node5&#45;&gt;Node4 -->
<g id="edge3" class="edge"><title>Node5&#45;&gt;Node4</title>
<path fill="none" stroke="midnightblue" d="M63.4418,-204.535C70.6055,-191.95 79.9651,-175.507 85.5891,-165.627"/>
<polygon fill="midnightblue" stroke="midnightblue" points="60.3953,-202.812 58.49,-213.234 66.4788,-206.275 60.3953,-202.812"/>
</g>
<!-- Node6 -->
<g id="node5" class="node"><title>Node6</title>
<g id="a_node5"><a xlink:href="../../df/de7/struct_layout_nav_entry.html" target="_top" xlink:title="Base class for the layout of a navigation item at the top of the HTML pages. ">
<polygon fill="white" stroke="black" points="125,-213.5 125,-232.5 212,-232.5 212,-213.5 125,-213.5"/>
<text text-anchor="middle" x="168.5" y="-220.5" font-family="Helvetica,sans-Serif" font-size="10.00">LayoutNavEntry</text>
</a>
</g>
</g>
<!-- Node6&#45;&gt;Node4 -->
<g id="edge4" class="edge"><title>Node6&#45;&gt;Node4</title>
<path fill="none" stroke="#9a32cd" stroke-dasharray="5,2" d="M150.156,-206.713C134.788,-193.907 113.406,-176.088 100.853,-165.627"/>
<polygon fill="#9a32cd" stroke="#9a32cd" points="148.058,-209.521 157.981,-213.234 152.539,-204.143 148.058,-209.521"/>
<text text-anchor="middle" x="159.5" y="-187" font-family="Helvetica,sans-Serif" font-size="10.00"> m_rootNav</text>
</g>
<!-- Node6&#45;&gt;Node6 -->
<g id="edge5" class="edge"><title>Node6&#45;&gt;Node6</title>
<path fill="none" stroke="#9a32cd" stroke-dasharray="5,2" d="M222.32,-227.714C227.043,-226.72 230,-225.148 230,-223 230,-219.562 222.43,-217.602 212.169,-217.119"/>
<polygon fill="#9a32cd" stroke="#9a32cd" points="221.704,-224.262 212.169,-228.881 222.504,-231.216 221.704,-224.262"/>
<text text-anchor="middle" x="252" y="-220.5" font-family="Helvetica,sans-Serif" font-size="10.00"> m_parent</text>
</g>
</g>
</svg>
