<?xml version="1.0" encoding="UTF-8" standalone="no"?>
<!DOCTYPE svg PUBLIC "-//W3C//DTD SVG 1.1//EN"
 "http://www.w3.org/Graphics/SVG/1.1/DTD/svg11.dtd">
<!-- Generated by graphviz version 2.38.0 (20140413.2041)
 -->
<!-- Title: DotWorkerThread Pages: 1 -->
<svg width="172pt" height="95pt"
 viewBox="0.00 0.00 172.00 95.00" xmlns="http://www.w3.org/2000/svg" xmlns:xlink="http://www.w3.org/1999/xlink">
<g id="graph0" class="graph" transform="scale(1 1) rotate(0) translate(4 91)">
<title>DotWorkerThread</title>
<polygon fill="white" stroke="none" points="-4,4 -4,-91 168,-91 168,4 -4,4"/>
<!-- Node2 -->
<g id="node1" class="node"><title>Node2</title>
<polygon fill="#bfbfbf" stroke="black" points="25,-0.5 25,-19.5 119,-19.5 119,-0.5 25,-0.5"/>
<text text-anchor="middle" x="72" y="-7.5" font-family="Helvetica,sans-Serif" font-size="10.00">DotWorkerThread</text>
</g>
<!-- Node3 -->
<g id="node2" class="node"><title>Node3</title>
<polygon fill="white" stroke="#bfbfbf" points="0,-67.5 0,-86.5 54,-86.5 54,-67.5 0,-67.5"/>
<text text-anchor="middle" x="27" y="-74.5" font-family="Helvetica,sans-Serif" font-size="10.00">QThread</text>
</g>
<!-- Node3&#45;&gt;Node2 -->
<g id="edge1" class="edge"><title>Node3&#45;&gt;Node2</title>
<path fill="none" stroke="midnightblue" d="M38.8359,-58.9037C47.5803,-46.2729 59.1202,-29.6041 66.0273,-19.6273"/>
<polygon fill="midnightblue" stroke="midnightblue" points="35.8834,-57.0196 33.0689,-67.2338 41.6387,-61.0041 35.8834,-57.0196"/>
</g>
<!-- Node4 -->
<g id="node3" class="node"><title>Node4</title>
<g id="a_node3"><a xlink:href="../../d6/dbb/class_dot_runner_queue.html" target="_top" xlink:title="Queue of dot jobs to run. ">
<polygon fill="white" stroke="black" points="72,-67.5 72,-86.5 164,-86.5 164,-67.5 72,-67.5"/>
<text text-anchor="middle" x="118" y="-74.5" font-family="Helvetica,sans-Serif" font-size="10.00">DotRunnerQueue</text>
</a>
</g>
</g>
<!-- Node4&#45;&gt;Node2 -->
<g id="edge2" class="edge"><title>Node4&#45;&gt;Node2</title>
<path fill="none" stroke="#9a32cd" stroke-dasharray="5,2" d="M105.901,-58.9037C96.9624,-46.2729 85.166,-29.6041 78.1055,-19.6273"/>
<polygon fill="#9a32cd" stroke="#9a32cd" points="103.163,-61.0929 111.796,-67.2338 108.876,-57.0492 103.163,-61.0929"/>
<text text-anchor="middle" x="118.5" y="-41" font-family="Helvetica,sans-Serif" font-size="10.00"> m_queue</text>
</g>
</g>
</svg>
