<?xml version="1.0" encoding="UTF-8" standalone="no"?>
<!DOCTYPE svg PUBLIC "-//W3C//DTD SVG 1.1//EN"
 "http://www.w3.org/Graphics/SVG/1.1/DTD/svg11.dtd">
<!-- Generated by graphviz version 2.38.0 (20140413.2041)
 -->
<!-- Title: XmlDocVisitor Pages: 1 -->
<svg width="288pt" height="95pt"
 viewBox="0.00 0.00 287.50 95.00" xmlns="http://www.w3.org/2000/svg" xmlns:xlink="http://www.w3.org/1999/xlink">
<g id="graph0" class="graph" transform="scale(1 1) rotate(0) translate(4 91)">
<title>XmlDocVisitor</title>
<polygon fill="white" stroke="none" points="-4,4 -4,-91 283.5,-91 283.5,4 -4,4"/>
<!-- Node2 -->
<g id="node1" class="node"><title>Node2</title>
<polygon fill="#bfbfbf" stroke="black" points="77,-0.5 77,-19.5 157,-19.5 157,-0.5 77,-0.5"/>
<text text-anchor="middle" x="117" y="-7.5" font-family="Helvetica,sans-Serif" font-size="10.00">XmlDocVisitor</text>
</g>
<!-- Node3 -->
<g id="node2" class="node"><title>Node3</title>
<g id="a_node2"><a xlink:href="../../d0/d78/class_doc_visitor.html" target="_top" xlink:title="Abstract visitor that participates in the visitor pattern. ">
<polygon fill="white" stroke="black" points="0,-67.5 0,-86.5 62,-86.5 62,-67.5 0,-67.5"/>
<text text-anchor="middle" x="31" y="-74.5" font-family="Helvetica,sans-Serif" font-size="10.00">DocVisitor</text>
</a>
</g>
</g>
<!-- Node3&#45;&gt;Node2 -->
<g id="edge1" class="edge"><title>Node3&#45;&gt;Node2</title>
<path fill="none" stroke="midnightblue" d="M50.7564,-61.0678C67.7318,-48.2376 91.6164,-30.1853 105.585,-19.6273"/>
<polygon fill="midnightblue" stroke="midnightblue" points="48.4657,-58.4119 42.5983,-67.2338 52.6864,-63.9963 48.4657,-58.4119"/>
</g>
<!-- Node4 -->
<g id="node3" class="node"><title>Node4</title>
<g id="a_node3"><a xlink:href="../../dc/d3c/class_f_text_stream.html" target="_top" xlink:title="Simplified and optimized version of QTextStream. ">
<polygon fill="white" stroke="black" points="80,-67.5 80,-86.5 154,-86.5 154,-67.5 80,-67.5"/>
<text text-anchor="middle" x="117" y="-74.5" font-family="Helvetica,sans-Serif" font-size="10.00">FTextStream</text>
</a>
</g>
</g>
<!-- Node4&#45;&gt;Node2 -->
<g id="edge2" class="edge"><title>Node4&#45;&gt;Node2</title>
<path fill="none" stroke="#9a32cd" stroke-dasharray="5,2" d="M117,-57.037C117,-44.6703 117,-29.1198 117,-19.6273"/>
<polygon fill="#9a32cd" stroke="#9a32cd" points="113.5,-57.2338 117,-67.2338 120.5,-57.2338 113.5,-57.2338"/>
<text text-anchor="middle" x="127" y="-41" font-family="Helvetica,sans-Serif" font-size="10.00"> m_t</text>
</g>
<!-- Node5 -->
<g id="node4" class="node"><title>Node5</title>
<g id="a_node4"><a xlink:href="../../d5/d9c/class_code_output_interface.html" target="_top" xlink:title="Output interface for code parser. ">
<polygon fill="white" stroke="black" points="172.5,-67.5 172.5,-86.5 279.5,-86.5 279.5,-67.5 172.5,-67.5"/>
<text text-anchor="middle" x="226" y="-74.5" font-family="Helvetica,sans-Serif" font-size="10.00">CodeOutputInterface</text>
</a>
</g>
</g>
<!-- Node5&#45;&gt;Node2 -->
<g id="edge3" class="edge"><title>Node5&#45;&gt;Node2</title>
<path fill="none" stroke="#9a32cd" stroke-dasharray="5,2" d="M202.426,-61.9422C180.84,-49.0696 149.578,-30.4274 131.467,-19.6273"/>
<polygon fill="#9a32cd" stroke="#9a32cd" points="200.918,-65.1181 211.3,-67.2338 204.504,-59.1059 200.918,-65.1181"/>
<text text-anchor="middle" x="191.5" y="-41" font-family="Helvetica,sans-Serif" font-size="10.00"> m_ci</text>
</g>
</g>
</svg>
