<?xml version="1.0" encoding="UTF-8" standalone="no"?>
<!DOCTYPE svg PUBLIC "-//W3C//DTD SVG 1.1//EN"
 "http://www.w3.org/Graphics/SVG/1.1/DTD/svg11.dtd">
<!-- Generated by graphviz version 2.38.0 (20140413.2041)
 -->
<!-- Title: DocAutoList Pages: 1 -->
<svg width="230pt" height="152pt"
 viewBox="0.00 0.00 230.00 152.00" xmlns="http://www.w3.org/2000/svg" xmlns:xlink="http://www.w3.org/1999/xlink">
<g id="graph0" class="graph" transform="scale(1 1) rotate(0) translate(4 148)">
<title>DocAutoList</title>
<polygon fill="white" stroke="none" points="-4,4 -4,-148 226,-148 226,4 -4,4"/>
<!-- Node0 -->
<g id="node1" class="node"><title>Node0</title>
<polygon fill="#bfbfbf" stroke="black" points="127.5,-0.5 127.5,-19.5 198.5,-19.5 198.5,-0.5 127.5,-0.5"/>
<text text-anchor="middle" x="163" y="-7.5" font-family="Helvetica,sans-Serif" font-size="10.00">DocAutoList</text>
</g>
<!-- Node1 -->
<g id="node2" class="node"><title>Node1</title>
<g id="a_node2"><a xlink:href="../../d7/da3/class_comp_accept.html" target="_top" xlink:title="CompAccept\&lt; DocAutoList \&gt;">
<polygon fill="white" stroke="black" points="0,-57.5 0,-76.5 146,-76.5 146,-57.5 0,-57.5"/>
<text text-anchor="middle" x="73" y="-64.5" font-family="Helvetica,sans-Serif" font-size="10.00">CompAccept&lt; DocAutoList &gt;</text>
</a>
</g>
</g>
<!-- Node1&#45;&gt;Node0 -->
<g id="edge1" class="edge"><title>Node1&#45;&gt;Node0</title>
<path fill="none" stroke="midnightblue" d="M95.729,-52.1101C112.507,-41.857 134.807,-28.2288 149.036,-19.5334"/>
<polygon fill="midnightblue" stroke="midnightblue" points="93.7702,-49.2052 87.0625,-57.4062 97.4204,-55.1782 93.7702,-49.2052"/>
</g>
<!-- Node2 -->
<g id="node3" class="node"><title>Node2</title>
<g id="a_node3"><a xlink:href="../../d7/da3/class_comp_accept.html" target="_top" xlink:title="Default accept implementation for compound nodes in the abstract syntax tree. ">
<polygon fill="white" stroke="black" points="24,-124.5 24,-143.5 122,-143.5 122,-124.5 24,-124.5"/>
<text text-anchor="middle" x="73" y="-131.5" font-family="Helvetica,sans-Serif" font-size="10.00">CompAccept&lt; T &gt;</text>
</a>
</g>
</g>
<!-- Node2&#45;&gt;Node1 -->
<g id="edge2" class="edge"><title>Node2&#45;&gt;Node1</title>
<path fill="none" stroke="orange" stroke-dasharray="5,2" d="M73,-114.037C73,-101.67 73,-86.1198 73,-76.6273"/>
<polygon fill="orange" stroke="orange" points="69.5001,-114.234 73,-124.234 76.5001,-114.234 69.5001,-114.234"/>
<text text-anchor="middle" x="111" y="-98" font-family="Helvetica,sans-Serif" font-size="10.00"> &lt; DocAutoList &gt;</text>
</g>
<!-- Node3 -->
<g id="node4" class="node"><title>Node3</title>
<g id="a_node4"><a xlink:href="../../d9/d0e/class_doc_node.html" target="_top" xlink:title="Abstract node interface with type information. ">
<polygon fill="white" stroke="black" points="164,-57.5 164,-76.5 222,-76.5 222,-57.5 164,-57.5"/>
<text text-anchor="middle" x="193" y="-64.5" font-family="Helvetica,sans-Serif" font-size="10.00">DocNode</text>
</a>
</g>
</g>
<!-- Node3&#45;&gt;Node0 -->
<g id="edge3" class="edge"><title>Node3&#45;&gt;Node0</title>
<path fill="none" stroke="midnightblue" d="M183.364,-48.334C178.147,-38.77 171.934,-27.3784 167.754,-19.7149"/>
<polygon fill="midnightblue" stroke="midnightblue" points="180.451,-50.3033 188.312,-57.4062 186.597,-46.9513 180.451,-50.3033"/>
</g>
</g>
</svg>
