<?xml version="1.0" encoding="UTF-8" standalone="no"?>
<!DOCTYPE svg PUBLIC "-//W3C//DTD SVG 1.1//EN"
 "http://www.w3.org/Graphics/SVG/1.1/DTD/svg11.dtd">
<!-- Generated by graphviz version 2.38.0 (20140413.2041)
 -->
<!-- Title: src/namespacedef.h Pages: 1 -->
<!--zoomable 364 -->
<svg id="main" version="1.1" xmlns="http://www.w3.org/2000/svg" xmlns:xlink="http://www.w3.org/1999/xlink" xml:space="preserve" onload="init(evt)">
<style type="text/css"><![CDATA[
.edge:hover path { stroke: red; }
.edge:hover polygon { stroke: red; fill: red; }
]]></style>
<script type="text/javascript"><![CDATA[
var edges = document.getElementsByTagName('g');
if (edges && edges.length) {
  for (var i=0;i<edges.length;i++) {
    if (edges[i].id.substr(0,4)=='edge') {
      edges[i].setAttribute('class','edge');
    }
  }
}
]]></script>
        <defs>
                <circle id="rim" cx="0" cy="0" r="7"/>
                <circle id="rim2" cx="0" cy="0" r="3.5"/>
                <g id="zoomPlus">
                        <use xlink:href="#rim" fill="#404040">
                                <set attributeName="fill" to="#808080" begin="zoomplus.mouseover" end="zoomplus.mouseout"/>
                        </use>
                        <path d="M-4,0h8M0,-4v8" fill="none" stroke="white" stroke-width="1.5" pointer-events="none"/>
                </g>
                <g id="zoomMin">
                        <use xlink:href="#rim" fill="#404040">
                                <set attributeName="fill" to="#808080" begin="zoomminus.mouseover" end="zoomminus.mouseout"/>
                        </use>
                        <path d="M-4,0h8" fill="none" stroke="white" stroke-width="1.5" pointer-events="none"/>
                </g>
                <g id="dirArrow">
                        <path fill="none" stroke="white" stroke-width="1.5" d="M0,-3.0v7 M-2.5,-0.5L0,-3.0L2.5,-0.5"/>
                </g>
               <g id="resetDef">
                       <use xlink:href="#rim2" fill="#404040">
                               <set attributeName="fill" to="#808080" begin="reset.mouseover" end="reset.mouseout"/>
                       </use>
               </g>
        </defs>

<script type="text/javascript">
var viewWidth = 630;
var viewHeight = 364;
var sectionId = 'dynsection-0';
</script>
<script xlink:href="../../svgpan.js"/>
<svg id="graph" class="graph">
<g id="viewport">
<title>src/namespacedef.h</title>
<polygon fill="white" stroke="none" points="-4,4 -4,-360 626,-360 626,4 -4,4"/>
<!-- Node0 -->
<g id="node1" class="node"><title>Node0</title>
<polygon fill="#bfbfbf" stroke="black" points="173.5,-336.5 173.5,-355.5 278.5,-355.5 278.5,-336.5 173.5,-336.5"/>
<text text-anchor="middle" x="226" y="-343.5" font-family="Helvetica,sans-Serif" font-size="10.00">src/namespacedef.h</text>
</g>
<!-- Node1 -->
<g id="node2" class="node"><title>Node1</title>
<polygon fill="white" stroke="#bfbfbf" points="68,-280.5 68,-299.5 122,-299.5 122,-280.5 68,-280.5"/>
<text text-anchor="middle" x="95" y="-287.5" font-family="Helvetica,sans-Serif" font-size="10.00">qstrlist.h</text>
</g>
<!-- Node0&#45;&gt;Node1 -->
<g id="edge1" class="edge"><title>Node0&#45;&gt;Node1</title>
<path fill="none" stroke="midnightblue" d="M205.243,-336.444C183.684,-327.557 149.737,-313.563 125.206,-303.451"/>
<polygon fill="midnightblue" stroke="midnightblue" points="126.239,-300.092 115.66,-299.516 123.572,-306.563 126.239,-300.092"/>
</g>
<!-- Node2 -->
<g id="node3" class="node"><title>Node2</title>
<polygon fill="white" stroke="#bfbfbf" points="531,-56.5 531,-75.5 577,-75.5 577,-56.5 531,-56.5"/>
<text text-anchor="middle" x="554" y="-63.5" font-family="Helvetica,sans-Serif" font-size="10.00">qdict.h</text>
</g>
<!-- Node0&#45;&gt;Node2 -->
<g id="edge2" class="edge"><title>Node0&#45;&gt;Node2</title>
<path fill="none" stroke="midnightblue" d="M278.586,-341.431C386.305,-332.674 622,-305.461 622,-235 622,-235 622,-235 622,-177 622,-138.548 591.565,-102.313 571.418,-82.538"/>
<polygon fill="midnightblue" stroke="midnightblue" points="573.708,-79.8865 564.034,-75.5666 568.902,-84.9765 573.708,-79.8865"/>
</g>
<!-- Node3 -->
<g id="node4" class="node"><title>Node3</title>
<g id="a_node4"><a xlink:href="../../d9/d21/sortdict_8h.html" target="_top" xlink:title="sortdict.h">
<polygon fill="white" stroke="black" points="131.5,-168.5 131.5,-187.5 188.5,-187.5 188.5,-168.5 131.5,-168.5"/>
<text text-anchor="middle" x="160" y="-175.5" font-family="Helvetica,sans-Serif" font-size="10.00">sortdict.h</text>
</a>
</g>
</g>
<!-- Node0&#45;&gt;Node3 -->
<g id="edge3" class="edge"><title>Node0&#45;&gt;Node3</title>
<path fill="none" stroke="midnightblue" d="M217.567,-336.438C209.604,-327.891 197.885,-314.04 191,-300 174.35,-266.047 165.999,-222.205 162.367,-197.701"/>
<polygon fill="midnightblue" stroke="midnightblue" points="165.812,-197.06 160.982,-187.63 158.877,-198.014 165.812,-197.06"/>
</g>
<!-- Node6 -->
<g id="node7" class="node"><title>Node6</title>
<g id="a_node7"><a xlink:href="../../df/da1/definition_8h.html" target="_top" xlink:title="definition.h">
<polygon fill="white" stroke="black" points="492,-112.5 492,-131.5 556,-131.5 556,-112.5 492,-112.5"/>
<text text-anchor="middle" x="524" y="-119.5" font-family="Helvetica,sans-Serif" font-size="10.00">definition.h</text>
</a>
</g>
</g>
<!-- Node0&#45;&gt;Node6 -->
<g id="edge7" class="edge"><title>Node0&#45;&gt;Node6</title>
<path fill="none" stroke="midnightblue" d="M244.67,-336.456C288.729,-315.667 401.163,-258.912 477,-188 492.041,-173.935 505.388,-154.431 513.979,-140.464"/>
<polygon fill="midnightblue" stroke="midnightblue" points="517.021,-142.197 519.129,-131.815 511.006,-138.616 517.021,-142.197"/>
</g>
<!-- Node9 -->
<g id="node10" class="node"><title>Node9</title>
<g id="a_node10"><a xlink:href="../../d4/d3a/filedef_8h.html" target="_top" xlink:title="filedef.h">
<polygon fill="white" stroke="black" points="200.5,-280.5 200.5,-299.5 251.5,-299.5 251.5,-280.5 200.5,-280.5"/>
<text text-anchor="middle" x="226" y="-287.5" font-family="Helvetica,sans-Serif" font-size="10.00">filedef.h</text>
</a>
</g>
</g>
<!-- Node0&#45;&gt;Node9 -->
<g id="edge12" class="edge"><title>Node0&#45;&gt;Node9</title>
<path fill="none" stroke="midnightblue" d="M226,-336.083C226,-329.006 226,-318.861 226,-309.986"/>
<polygon fill="midnightblue" stroke="midnightblue" points="229.5,-309.751 226,-299.751 222.5,-309.751 229.5,-309.751"/>
</g>
<!-- Node3&#45;&gt;Node2 -->
<g id="edge5" class="edge"><title>Node3&#45;&gt;Node2</title>
<path fill="none" stroke="midnightblue" d="M158.557,-168.368C156.755,-154.334 155.57,-126.667 171,-112 183.661,-99.9648 430.306,-77.6385 520.949,-69.8046"/>
<polygon fill="midnightblue" stroke="midnightblue" points="521.295,-73.2879 530.958,-68.9438 520.695,-66.3137 521.295,-73.2879"/>
</g>
<!-- Node4 -->
<g id="node5" class="node"><title>Node4</title>
<polygon fill="white" stroke="#bfbfbf" points="167.5,-56.5 167.5,-75.5 210.5,-75.5 210.5,-56.5 167.5,-56.5"/>
<text text-anchor="middle" x="189" y="-63.5" font-family="Helvetica,sans-Serif" font-size="10.00">qlist.h</text>
</g>
<!-- Node3&#45;&gt;Node4 -->
<g id="edge4" class="edge"><title>Node3&#45;&gt;Node4</title>
<path fill="none" stroke="midnightblue" d="M153.002,-168.383C143.639,-155.741 129.179,-131.546 138,-112 143.616,-99.5553 154.563,-89.1723 164.879,-81.5273"/>
<polygon fill="midnightblue" stroke="midnightblue" points="167.006,-84.3123 173.266,-75.7643 163.042,-78.5431 167.006,-84.3123"/>
</g>
<!-- Node5 -->
<g id="node6" class="node"><title>Node5</title>
<polygon fill="white" stroke="#bfbfbf" points="180,-112.5 180,-131.5 236,-131.5 236,-112.5 180,-112.5"/>
<text text-anchor="middle" x="208" y="-119.5" font-family="Helvetica,sans-Serif" font-size="10.00">qintdict.h</text>
</g>
<!-- Node3&#45;&gt;Node5 -->
<g id="edge6" class="edge"><title>Node3&#45;&gt;Node5</title>
<path fill="none" stroke="midnightblue" d="M167.926,-168.083C174.846,-160.298 185.065,-148.801 193.452,-139.367"/>
<polygon fill="midnightblue" stroke="midnightblue" points="196.194,-141.55 200.221,-131.751 190.962,-136.9 196.194,-141.55"/>
</g>
<!-- Node6&#45;&gt;Node2 -->
<g id="edge9" class="edge"><title>Node6&#45;&gt;Node2</title>
<path fill="none" stroke="midnightblue" d="M528.954,-112.083C533.104,-104.613 539.153,-93.7244 544.267,-84.5199"/>
<polygon fill="midnightblue" stroke="midnightblue" points="547.341,-86.1924 549.138,-75.7511 541.222,-82.7929 547.341,-86.1924"/>
</g>
<!-- Node6&#45;&gt;Node4 -->
<g id="edge8" class="edge"><title>Node6&#45;&gt;Node4</title>
<path fill="none" stroke="midnightblue" d="M491.879,-115.822C427.788,-105.491 284.714,-82.4285 220.848,-72.1337"/>
<polygon fill="midnightblue" stroke="midnightblue" points="221.019,-68.6162 210.59,-70.4801 219.905,-75.527 221.019,-68.6162"/>
</g>
<!-- Node7 -->
<g id="node8" class="node"><title>Node7</title>
<g id="a_node8"><a xlink:href="../../d9/d49/types_8h.html" target="_top" xlink:title="This file contains a number of basic enums and types. ">
<polygon fill="white" stroke="black" points="377.5,-56.5 377.5,-75.5 426.5,-75.5 426.5,-56.5 377.5,-56.5"/>
<text text-anchor="middle" x="402" y="-63.5" font-family="Helvetica,sans-Serif" font-size="10.00">types.h</text>
</a>
</g>
</g>
<!-- Node6&#45;&gt;Node7 -->
<g id="edge10" class="edge"><title>Node6&#45;&gt;Node7</title>
<path fill="none" stroke="midnightblue" d="M504.669,-112.444C484.68,-103.596 453.257,-89.6875 430.436,-79.5865"/>
<polygon fill="midnightblue" stroke="midnightblue" points="431.802,-76.3635 421.241,-75.5164 428.968,-82.7645 431.802,-76.3635"/>
</g>
<!-- Node8 -->
<g id="node9" class="node"><title>Node8</title>
<polygon fill="white" stroke="#bfbfbf" points="230.5,-0.5 230.5,-19.5 289.5,-19.5 289.5,-0.5 230.5,-0.5"/>
<text text-anchor="middle" x="260" y="-7.5" font-family="Helvetica,sans-Serif" font-size="10.00">qcstring.h</text>
</g>
<!-- Node7&#45;&gt;Node8 -->
<g id="edge11" class="edge"><title>Node7&#45;&gt;Node8</title>
<path fill="none" stroke="midnightblue" d="M379.5,-56.4435C355.923,-47.4776 318.678,-33.314 292.036,-23.1827"/>
<polygon fill="midnightblue" stroke="midnightblue" points="292.986,-19.7995 282.395,-19.5164 290.498,-26.3424 292.986,-19.7995"/>
</g>
<!-- Node9&#45;&gt;Node2 -->
<g id="edge18" class="edge"><title>Node9&#45;&gt;Node2</title>
<path fill="none" stroke="midnightblue" d="M251.533,-283.718C282.999,-276.741 337.732,-263.069 382,-244 469.577,-206.275 519.113,-215.59 565,-132 572.988,-117.449 568.394,-98.5232 562.911,-84.8496"/>
<polygon fill="midnightblue" stroke="midnightblue" points="566.034,-83.2596 558.739,-75.5765 559.65,-86.132 566.034,-83.2596"/>
</g>
<!-- Node9&#45;&gt;Node3 -->
<g id="edge20" class="edge"><title>Node9&#45;&gt;Node3</title>
<path fill="none" stroke="midnightblue" d="M220.821,-280.368C209.977,-262.296 184.706,-220.176 170.384,-196.307"/>
<polygon fill="midnightblue" stroke="midnightblue" points="173.301,-194.366 165.155,-187.591 167.299,-197.967 173.301,-194.366"/>
</g>
<!-- Node9&#45;&gt;Node4 -->
<g id="edge16" class="edge"><title>Node9&#45;&gt;Node4</title>
<path fill="none" stroke="midnightblue" d="M211.402,-280.391C187.373,-265.26 140.329,-231.35 122,-188 114.226,-169.614 124.785,-124.047 132,-112 139.616,-99.2829 152.259,-88.7554 163.705,-81.0885"/>
<polygon fill="midnightblue" stroke="midnightblue" points="165.898,-83.8448 172.509,-75.5659 162.178,-77.9148 165.898,-83.8448"/>
</g>
<!-- Node9&#45;&gt;Node5 -->
<g id="edge17" class="edge"><title>Node9&#45;&gt;Node5</title>
<path fill="none" stroke="midnightblue" d="M225.032,-280.075C222.199,-253.945 213.878,-177.211 210.014,-141.577"/>
<polygon fill="midnightblue" stroke="midnightblue" points="213.487,-141.132 208.929,-131.568 206.528,-141.887 213.487,-141.132"/>
</g>
<!-- Node9&#45;&gt;Node6 -->
<g id="edge19" class="edge"><title>Node9&#45;&gt;Node6</title>
<path fill="none" stroke="midnightblue" d="M251.745,-280.682C295.128,-265.979 384.559,-232.683 451,-188 472.423,-173.592 494.166,-153.352 508.282,-139.301"/>
<polygon fill="midnightblue" stroke="midnightblue" points="511.118,-141.409 515.652,-131.833 506.136,-136.492 511.118,-141.409"/>
</g>
<!-- Node10 -->
<g id="node11" class="node"><title>Node10</title>
<g id="a_node11"><a xlink:href="../../d1/db5/index_8h.html" target="_top" xlink:title="index.h">
<polygon fill="white" stroke="black" points="0,-112.5 0,-131.5 48,-131.5 48,-112.5 0,-112.5"/>
<text text-anchor="middle" x="24" y="-119.5" font-family="Helvetica,sans-Serif" font-size="10.00">index.h</text>
</a>
</g>
</g>
<!-- Node9&#45;&gt;Node10 -->
<g id="edge13" class="edge"><title>Node9&#45;&gt;Node10</title>
<path fill="none" stroke="midnightblue" d="M200.441,-289.182C164.704,-288.026 99.9393,-280.579 62,-244 33.6943,-216.709 26.388,-168.615 24.5577,-142.02"/>
<polygon fill="midnightblue" stroke="midnightblue" points="28.0404,-141.58 24.0546,-131.763 21.0488,-141.923 28.0404,-141.58"/>
</g>
<!-- Node11 -->
<g id="node12" class="node"><title>Node11</title>
<g id="a_node12"><a xlink:href="../../dd/d78/memberlist_8h.html" target="_top" xlink:title="memberlist.h">
<polygon fill="white" stroke="black" points="254.5,-224.5 254.5,-243.5 327.5,-243.5 327.5,-224.5 254.5,-224.5"/>
<text text-anchor="middle" x="291" y="-231.5" font-family="Helvetica,sans-Serif" font-size="10.00">memberlist.h</text>
</a>
</g>
</g>
<!-- Node9&#45;&gt;Node11 -->
<g id="edge21" class="edge"><title>Node9&#45;&gt;Node11</title>
<path fill="none" stroke="midnightblue" d="M236.443,-280.324C246.146,-272.263 260.815,-260.077 272.5,-250.369"/>
<polygon fill="midnightblue" stroke="midnightblue" points="274.911,-252.916 280.367,-243.834 270.438,-247.532 274.911,-252.916"/>
</g>
<!-- Node10&#45;&gt;Node4 -->
<g id="edge14" class="edge"><title>Node10&#45;&gt;Node4</title>
<path fill="none" stroke="midnightblue" d="M48.3463,-113.032C77.3856,-103.528 125.983,-87.6236 157.766,-77.2221"/>
<polygon fill="midnightblue" stroke="midnightblue" points="159.032,-80.4903 167.448,-74.0535 156.855,-73.8376 159.032,-80.4903"/>
</g>
<!-- Node10&#45;&gt;Node8 -->
<g id="edge15" class="edge"><title>Node10&#45;&gt;Node8</title>
<path fill="none" stroke="midnightblue" d="M41.2508,-112.385C66.6753,-99.7443 115.765,-75.5525 158,-56 182.302,-44.7497 210.13,-32.5155 230.573,-23.6473"/>
<polygon fill="midnightblue" stroke="midnightblue" points="232.18,-26.7658 239.968,-19.5832 229.401,-20.3411 232.18,-26.7658"/>
</g>
<!-- Node11&#45;&gt;Node3 -->
<g id="edge28" class="edge"><title>Node11&#45;&gt;Node3</title>
<path fill="none" stroke="midnightblue" d="M270.243,-224.444C248.684,-215.557 214.737,-201.563 190.206,-191.451"/>
<polygon fill="midnightblue" stroke="midnightblue" points="191.239,-188.092 180.66,-187.516 188.572,-194.563 191.239,-188.092"/>
</g>
<!-- Node11&#45;&gt;Node4 -->
<g id="edge22" class="edge"><title>Node11&#45;&gt;Node4</title>
<path fill="none" stroke="midnightblue" d="M289.351,-224.334C285.032,-203.364 271.826,-148.902 245,-112 236.204,-99.9004 223.358,-89.2608 212.188,-81.3691"/>
<polygon fill="midnightblue" stroke="midnightblue" points="213.948,-78.3349 203.698,-75.6538 210.039,-84.1417 213.948,-78.3349"/>
</g>
<!-- Node11&#45;&gt;Node7 -->
<g id="edge29" class="edge"><title>Node11&#45;&gt;Node7</title>
<path fill="none" stroke="midnightblue" d="M294.934,-224.342C304.442,-203.841 330.035,-151.12 359,-112 366.699,-101.602 376.603,-91.0863 384.964,-82.8379"/>
<polygon fill="midnightblue" stroke="midnightblue" points="387.603,-85.1559 392.387,-75.7022 382.752,-80.1097 387.603,-85.1559"/>
</g>
<!-- Node12 -->
<g id="node13" class="node"><title>Node12</title>
<g id="a_node13"><a xlink:href="../../d4/d46/memberdef_8h.html" target="_top" xlink:title="memberdef.h">
<polygon fill="white" stroke="black" points="368,-168.5 368,-187.5 442,-187.5 442,-168.5 368,-168.5"/>
<text text-anchor="middle" x="405" y="-175.5" font-family="Helvetica,sans-Serif" font-size="10.00">memberdef.h</text>
</a>
</g>
</g>
<!-- Node11&#45;&gt;Node12 -->
<g id="edge23" class="edge"><title>Node11&#45;&gt;Node12</title>
<path fill="none" stroke="midnightblue" d="M309.064,-224.444C327.575,-215.675 356.581,-201.935 377.855,-191.858"/>
<polygon fill="midnightblue" stroke="midnightblue" points="379.482,-194.96 387.021,-187.516 376.485,-188.634 379.482,-194.96"/>
</g>
<!-- Node12&#45;&gt;Node4 -->
<g id="edge24" class="edge"><title>Node12&#45;&gt;Node4</title>
<path fill="none" stroke="midnightblue" d="M388.168,-168.352C363.863,-155.872 317.517,-132.103 278,-112 256.906,-101.269 232.965,-89.1687 215.231,-80.2203"/>
<polygon fill="midnightblue" stroke="midnightblue" points="216.579,-76.9804 206.075,-75.6019 213.427,-83.2304 216.579,-76.9804"/>
</g>
<!-- Node12&#45;&gt;Node6 -->
<g id="edge27" class="edge"><title>Node12&#45;&gt;Node6</title>
<path fill="none" stroke="midnightblue" d="M423.856,-168.444C443.266,-159.636 473.73,-145.812 495.965,-135.722"/>
<polygon fill="midnightblue" stroke="midnightblue" points="497.572,-138.836 505.232,-131.516 494.68,-132.462 497.572,-138.836"/>
</g>
<!-- Node12&#45;&gt;Node7 -->
<g id="edge26" class="edge"><title>Node12&#45;&gt;Node7</title>
<path fill="none" stroke="midnightblue" d="M416.82,-168.266C431.518,-156.251 453.679,-133.645 445,-112 440.32,-100.328 431.009,-89.9687 422.244,-82.1405"/>
<polygon fill="midnightblue" stroke="midnightblue" points="424.424,-79.4011 414.497,-75.698 419.948,-84.7832 424.424,-79.4011"/>
</g>
<!-- Node13 -->
<g id="node14" class="node"><title>Node13</title>
<polygon fill="white" stroke="#bfbfbf" points="368,-112.5 368,-131.5 436,-131.5 436,-112.5 368,-112.5"/>
<text text-anchor="middle" x="402" y="-119.5" font-family="Helvetica,sans-Serif" font-size="10.00">sys/types.h</text>
</g>
<!-- Node12&#45;&gt;Node13 -->
<g id="edge25" class="edge"><title>Node12&#45;&gt;Node13</title>
<path fill="none" stroke="midnightblue" d="M404.505,-168.083C404.111,-161.006 403.548,-150.861 403.055,-141.986"/>
<polygon fill="midnightblue" stroke="midnightblue" points="406.536,-141.542 402.486,-131.751 399.546,-141.93 406.536,-141.542"/>
</g>
</g>
</svg>
        <g id="navigator" transform="translate(0 0)" fill="#404254">
                <rect fill="#f2f5e9" fill-opacity="0.5" stroke="#606060" stroke-width=".5" x="0" y="0" width="60" height="60"/>
                <use id="zoomplus" xlink:href="#zoomPlus" x="17" y="9" onmousedown="handleZoom(evt,'in')"/>
                <use id="zoomminus" xlink:href="#zoomMin" x="42" y="9" onmousedown="handleZoom(evt,'out')"/>
                <use id="reset" xlink:href="#resetDef" x="30" y="36" onmousedown="handleReset()"/>
                <g id="arrowUp" xlink:href="#dirArrow" transform="translate(30 24)" onmousedown="handlePan(0,-1)">
                  <use xlink:href="#rim" fill="#404040">
                        <set attributeName="fill" to="#808080" begin="arrowUp.mouseover" end="arrowUp.mouseout"/>
                  </use>
                  <path fill="none" stroke="white" stroke-width="1.5" d="M0,-3.0v7 M-2.5,-0.5L0,-3.0L2.5,-0.5"/>
                </g>
                <g id="arrowRight" xlink:href="#dirArrow" transform="rotate(90) translate(36 -43)" onmousedown="handlePan(1,0)">
                  <use xlink:href="#rim" fill="#404040">
                        <set attributeName="fill" to="#808080" begin="arrowRight.mouseover" end="arrowRight.mouseout"/>
                  </use>
                  <path fill="none" stroke="white" stroke-width="1.5" d="M0,-3.0v7 M-2.5,-0.5L0,-3.0L2.5,-0.5"/>
                </g>
                <g id="arrowDown" xlink:href="#dirArrow" transform="rotate(180) translate(-30 -48)" onmousedown="handlePan(0,1)">
                  <use xlink:href="#rim" fill="#404040">
                        <set attributeName="fill" to="#808080" begin="arrowDown.mouseover" end="arrowDown.mouseout"/>
                  </use>
                  <path fill="none" stroke="white" stroke-width="1.5" d="M0,-3.0v7 M-2.5,-0.5L0,-3.0L2.5,-0.5"/>
                </g>
                <g id="arrowLeft" xlink:href="#dirArrow" transform="rotate(270) translate(-36 17)" onmousedown="handlePan(-1,0)">
                  <use xlink:href="#rim" fill="#404040">
                        <set attributeName="fill" to="#808080" begin="arrowLeft.mouseover" end="arrowLeft.mouseout"/>
                  </use>
                  <path fill="none" stroke="white" stroke-width="1.5" d="M0,-3.0v7 M-2.5,-0.5L0,-3.0L2.5,-0.5"/>
                </g>
        </g>
        <svg viewBox="0 0 15 15" width="100%" height="30px" preserveAspectRatio="xMaxYMin meet">
         <g id="arrow_out" transform="scale(0.3 0.3)">
          <a xlink:href="namespacedef_8h__incl_org.svg" target="_base">
           <rect id="button" ry="5" rx="5" y="6" x="6" height="38" width="38"
                fill="#f2f5e9" fill-opacity="0.5" stroke="#606060" stroke-width="1.0"/>
           <path id="arrow"
             d="M 11.500037,31.436501 C 11.940474,20.09759 22.043105,11.32322 32.158766,21.979434 L 37.068811,17.246167 C 37.068811,17.246167 37.088388,32 37.088388,32 L 22.160133,31.978069 C 22.160133,31.978069 26.997745,27.140456 26.997745,27.140456 C 18.528582,18.264221 13.291696,25.230495 11.500037,31.436501 z"
             style="fill:#404040;"/>
          </a>
         </g>
        </svg>
</svg>
