<?xml version="1.0" encoding="UTF-8" standalone="no"?>
<!DOCTYPE svg PUBLIC "-//W3C//DTD SVG 1.1//EN"
 "http://www.w3.org/Graphics/SVG/1.1/DTD/svg11.dtd">
<!-- Generated by graphviz version 2.38.0 (20140413.2041)
 -->
<!-- Title: ClassMembersIndexContext Pages: 1 -->
<!--zoomable 202 -->
<svg id="main" version="1.1" xmlns="http://www.w3.org/2000/svg" xmlns:xlink="http://www.w3.org/1999/xlink" xml:space="preserve" onload="init(evt)">
<style type="text/css"><![CDATA[
.edge:hover path { stroke: red; }
.edge:hover polygon { stroke: red; fill: red; }
]]></style>
<script type="text/javascript"><![CDATA[
var edges = document.getElementsByTagName('g');
if (edges && edges.length) {
  for (var i=0;i<edges.length;i++) {
    if (edges[i].id.substr(0,4)=='edge') {
      edges[i].setAttribute('class','edge');
    }
  }
}
]]></script>
        <defs>
                <circle id="rim" cx="0" cy="0" r="7"/>
                <circle id="rim2" cx="0" cy="0" r="3.5"/>
                <g id="zoomPlus">
                        <use xlink:href="#rim" fill="#404040">
                                <set attributeName="fill" to="#808080" begin="zoomplus.mouseover" end="zoomplus.mouseout"/>
                        </use>
                        <path d="M-4,0h8M0,-4v8" fill="none" stroke="white" stroke-width="1.5" pointer-events="none"/>
                </g>
                <g id="zoomMin">
                        <use xlink:href="#rim" fill="#404040">
                                <set attributeName="fill" to="#808080" begin="zoomminus.mouseover" end="zoomminus.mouseout"/>
                        </use>
                        <path d="M-4,0h8" fill="none" stroke="white" stroke-width="1.5" pointer-events="none"/>
                </g>
                <g id="dirArrow">
                        <path fill="none" stroke="white" stroke-width="1.5" d="M0,-3.0v7 M-2.5,-0.5L0,-3.0L2.5,-0.5"/>
                </g>
               <g id="resetDef">
                       <use xlink:href="#rim2" fill="#404040">
                               <set attributeName="fill" to="#808080" begin="reset.mouseover" end="reset.mouseout"/>
                       </use>
               </g>
        </defs>

<script type="text/javascript">
var viewWidth = 1254;
var viewHeight = 202;
var sectionId = 'dynsection-1';
</script>
<script xlink:href="../../svgpan.js"/>
<svg id="graph" class="graph">
<g id="viewport">
<title>ClassMembersIndexContext</title>
<polygon fill="white" stroke="none" points="-4,4 -4,-198 1250,-198 1250,4 -4,4"/>
<!-- Node3 -->
<g id="node1" class="node"><title>Node3</title>
<polygon fill="#bfbfbf" stroke="black" points="1105,-136.5 1105,-155.5 1246,-155.5 1246,-136.5 1105,-136.5"/>
<text text-anchor="middle" x="1175.5" y="-143.5" font-family="Helvetica,sans-Serif" font-size="10.00">ClassMembersIndexContext</text>
</g>
<!-- Node4 -->
<g id="node2" class="node"><title>Node4</title>
<g id="a_node2"><a xlink:href="../../d8/d96/class_ref_counted_context.html" target="_top" xlink:title="Helper class to support reference counting. ">
<polygon fill="white" stroke="black" points="937.5,-174.5 937.5,-193.5 1041.5,-193.5 1041.5,-174.5 937.5,-174.5"/>
<text text-anchor="middle" x="989.5" y="-181.5" font-family="Helvetica,sans-Serif" font-size="10.00">RefCountedContext</text>
</a>
</g>
</g>
<!-- Node4&#45;&gt;Node3 -->
<g id="edge1" class="edge"><title>Node4&#45;&gt;Node3</title>
<path fill="none" stroke="midnightblue" d="M1047.06,-172.319C1073.15,-166.93 1103.74,-160.614 1128.4,-155.52"/>
<polygon fill="midnightblue" stroke="midnightblue" points="1046.02,-168.961 1036.93,-174.411 1047.43,-175.816 1046.02,-168.961"/>
</g>
<!-- Node5 -->
<g id="node3" class="node"><title>Node5</title>
<g id="a_node3"><a xlink:href="../../d9/de8/class_template_struct_intf.html" target="_top" xlink:title="Abstract interface for a context value of type struct. ">
<polygon fill="white" stroke="black" points="940.5,-136.5 940.5,-155.5 1038.5,-155.5 1038.5,-136.5 940.5,-136.5"/>
<text text-anchor="middle" x="989.5" y="-143.5" font-family="Helvetica,sans-Serif" font-size="10.00">TemplateStructIntf</text>
</a>
</g>
</g>
<!-- Node5&#45;&gt;Node3 -->
<g id="edge2" class="edge"><title>Node5&#45;&gt;Node3</title>
<path fill="none" stroke="midnightblue" d="M1049.02,-146C1066.71,-146 1086.32,-146 1104.68,-146"/>
<polygon fill="midnightblue" stroke="midnightblue" points="1048.84,-142.5 1038.84,-146 1048.84,-149.5 1048.84,-142.5"/>
</g>
<!-- Node6 -->
<g id="node4" class="node"><title>Node6</title>
<g id="a_node4"><a xlink:href="../../d1/df8/class_class_members_index_context_1_1_private.html" target="_top" xlink:title="ClassMembersIndexContext\l::Private">
<polygon fill="white" stroke="black" points="919,-87 919,-117 1060,-117 1060,-87 919,-87"/>
<text text-anchor="start" x="927" y="-105" font-family="Helvetica,sans-Serif" font-size="10.00">ClassMembersIndexContext</text>
<text text-anchor="middle" x="989.5" y="-94" font-family="Helvetica,sans-Serif" font-size="10.00">::Private</text>
</a>
</g>
</g>
<!-- Node6&#45;&gt;Node3 -->
<g id="edge3" class="edge"><title>Node6&#45;&gt;Node3</title>
<path fill="none" stroke="#9a32cd" stroke-dasharray="5,2" d="M1063.25,-119.396C1087.6,-125.221 1113.84,-131.495 1134.72,-136.488"/>
<polygon fill="#9a32cd" stroke="#9a32cd" points="1063.85,-115.941 1053.31,-117.019 1062.22,-122.749 1063.85,-115.941"/>
<text text-anchor="middle" x="1082.5" y="-127" font-family="Helvetica,sans-Serif" font-size="10.00"> p</text>
</g>
<!-- Node7 -->
<g id="node5" class="node"><title>Node7</title>
<g id="a_node5"><a xlink:href="../../d1/d80/class_property_mapper.html" target="_top" xlink:title="PropertyMapper\&lt; ClassMembers\lIndexContext::Private \&gt;">
<polygon fill="white" stroke="black" points="679,-117 679,-147 840,-147 840,-117 679,-117"/>
<text text-anchor="start" x="687" y="-135" font-family="Helvetica,sans-Serif" font-size="10.00">PropertyMapper&lt; ClassMembers</text>
<text text-anchor="middle" x="759.5" y="-124" font-family="Helvetica,sans-Serif" font-size="10.00">IndexContext::Private &gt;</text>
</a>
</g>
</g>
<!-- Node7&#45;&gt;Node6 -->
<g id="edge4" class="edge"><title>Node7&#45;&gt;Node6</title>
<path fill="none" stroke="#9a32cd" stroke-dasharray="5,2" d="M850.24,-120.192C872.984,-117.199 897.08,-114.029 918.674,-111.188"/>
<polygon fill="#9a32cd" stroke="#9a32cd" points="849.701,-116.733 840.243,-121.507 850.615,-123.673 849.701,-116.733"/>
<text text-anchor="middle" x="879.5" y="-121" font-family="Helvetica,sans-Serif" font-size="10.00"> s_inst</text>
</g>
<!-- Node8 -->
<g id="node6" class="node"><title>Node8</title>
<g id="a_node6"><a xlink:href="../../d1/d80/class_property_mapper.html" target="_top" xlink:title="Helper class to map a property name to a handler member function. ">
<polygon fill="white" stroke="black" points="384,-141.5 384,-160.5 494,-160.5 494,-141.5 384,-141.5"/>
<text text-anchor="middle" x="439" y="-148.5" font-family="Helvetica,sans-Serif" font-size="10.00">PropertyMapper&lt; T &gt;</text>
</a>
</g>
</g>
<!-- Node8&#45;&gt;Node7 -->
<g id="edge5" class="edge"><title>Node8&#45;&gt;Node7</title>
<path fill="none" stroke="orange" stroke-dasharray="5,2" d="M504.135,-147.174C554.47,-144.171 624.812,-139.975 678.769,-136.756"/>
<polygon fill="orange" stroke="orange" points="503.803,-143.688 494.029,-147.777 504.22,-150.675 503.803,-143.688"/>
<text text-anchor="start" x="524" y="-159" font-family="Helvetica,sans-Serif" font-size="10.00"> &lt; ClassMembersIndexContext</text>
<text text-anchor="middle" x="592.5" y="-148" font-family="Helvetica,sans-Serif" font-size="10.00">::Private &gt;</text>
</g>
<!-- Node9 -->
<g id="node7" class="node"><title>Node9</title>
<g id="a_node7"><a xlink:href="../../d2/d77/struct_class_members_index_context_1_1_private_1_1_cachable.html" target="_top" xlink:title="ClassMembersIndexContext\l::Private::Cachable">
<polygon fill="white" stroke="black" points="689,-50 689,-80 830,-80 830,-50 689,-50"/>
<text text-anchor="start" x="697" y="-68" font-family="Helvetica,sans-Serif" font-size="10.00">ClassMembersIndexContext</text>
<text text-anchor="middle" x="759.5" y="-57" font-family="Helvetica,sans-Serif" font-size="10.00">::Private::Cachable</text>
</a>
</g>
</g>
<!-- Node9&#45;&gt;Node6 -->
<g id="edge6" class="edge"><title>Node9&#45;&gt;Node6</title>
<path fill="none" stroke="#9a32cd" stroke-dasharray="5,2" d="M840.207,-77.935C865.845,-82.0955 894.034,-86.67 918.888,-90.7032"/>
<polygon fill="#9a32cd" stroke="#9a32cd" points="840.578,-74.4494 830.146,-76.3023 839.457,-81.359 840.578,-74.4494"/>
<text text-anchor="middle" x="879.5" y="-89" font-family="Helvetica,sans-Serif" font-size="10.00"> m_cache</text>
</g>
<!-- Node10 -->
<g id="node8" class="node"><title>Node10</title>
<g id="a_node8"><a xlink:href="../../df/d12/class_shared_ptr.html" target="_top" xlink:title="SharedPtr\&lt; TemplateList \&gt;">
<polygon fill="white" stroke="black" points="372,-19.5 372,-38.5 506,-38.5 506,-19.5 372,-19.5"/>
<text text-anchor="middle" x="439" y="-26.5" font-family="Helvetica,sans-Serif" font-size="10.00">SharedPtr&lt; TemplateList &gt;</text>
</a>
</g>
</g>
<!-- Node10&#45;&gt;Node9 -->
<g id="edge7" class="edge"><title>Node10&#45;&gt;Node9</title>
<path fill="none" stroke="#9a32cd" stroke-dasharray="5,2" d="M516.267,-26.0046C559.076,-25.5868 613.314,-27.1663 661,-35 680.224,-38.158 700.928,-44.141 718.292,-49.9382"/>
<polygon fill="#9a32cd" stroke="#9a32cd" points="516.152,-22.5057 506.2,-26.1413 516.247,-29.505 516.152,-22.5057"/>
<text text-anchor="middle" x="592.5" y="-126" font-family="Helvetica,sans-Serif" font-size="10.00"> events</text>
<text text-anchor="middle" x="592.5" y="-115" font-family="Helvetica,sans-Serif" font-size="10.00">related</text>
<text text-anchor="middle" x="592.5" y="-104" font-family="Helvetica,sans-Serif" font-size="10.00">typedefs</text>
<text text-anchor="middle" x="592.5" y="-93" font-family="Helvetica,sans-Serif" font-size="10.00">properties</text>
<text text-anchor="middle" x="592.5" y="-82" font-family="Helvetica,sans-Serif" font-size="10.00">enumValues</text>
<text text-anchor="middle" x="592.5" y="-71" font-family="Helvetica,sans-Serif" font-size="10.00">enums</text>
<text text-anchor="middle" x="592.5" y="-60" font-family="Helvetica,sans-Serif" font-size="10.00">all</text>
<text text-anchor="middle" x="592.5" y="-49" font-family="Helvetica,sans-Serif" font-size="10.00">variables</text>
<text text-anchor="middle" x="592.5" y="-38" font-family="Helvetica,sans-Serif" font-size="10.00">functions</text>
</g>
<!-- Node11 -->
<g id="node9" class="node"><title>Node11</title>
<g id="a_node9"><a xlink:href="../../de/dab/class_template_list.html" target="_top" xlink:title="Default implementation of a context value of type list. ">
<polygon fill="white" stroke="black" points="179.5,-38.5 179.5,-57.5 252.5,-57.5 252.5,-38.5 179.5,-38.5"/>
<text text-anchor="middle" x="216" y="-45.5" font-family="Helvetica,sans-Serif" font-size="10.00">TemplateList</text>
</a>
</g>
</g>
<!-- Node11&#45;&gt;Node10 -->
<g id="edge8" class="edge"><title>Node11&#45;&gt;Node10</title>
<path fill="none" stroke="#9a32cd" stroke-dasharray="5,2" d="M262.753,-44.0665C294.269,-41.357 336.641,-37.7141 371.826,-34.6892"/>
<polygon fill="#9a32cd" stroke="#9a32cd" points="262.171,-40.6035 252.507,-44.9473 262.771,-47.5778 262.171,-40.6035"/>
<text text-anchor="middle" x="315" y="-46" font-family="Helvetica,sans-Serif" font-size="10.00"> m_ptr</text>
</g>
<!-- Node12 -->
<g id="node10" class="node"><title>Node12</title>
<g id="a_node10"><a xlink:href="../../d6/d88/class_template_list_intf.html" target="_top" xlink:title="Abstract read&#45;only interface for a context value of type list. ">
<polygon fill="white" stroke="black" points="11.5,-76.5 11.5,-95.5 98.5,-95.5 98.5,-76.5 11.5,-76.5"/>
<text text-anchor="middle" x="55" y="-83.5" font-family="Helvetica,sans-Serif" font-size="10.00">TemplateListIntf</text>
</a>
</g>
</g>
<!-- Node12&#45;&gt;Node11 -->
<g id="edge9" class="edge"><title>Node12&#45;&gt;Node11</title>
<path fill="none" stroke="midnightblue" d="M108.258,-74.2184C123.652,-70.6834 140.519,-66.7478 156,-63 163.601,-61.1598 171.738,-59.1301 179.466,-57.1743"/>
<polygon fill="midnightblue" stroke="midnightblue" points="107.35,-70.8355 98.3827,-76.4776 108.911,-77.6592 107.35,-70.8355"/>
</g>
<!-- Node13 -->
<g id="node11" class="node"><title>Node13</title>
<g id="a_node11"><a xlink:href="../../d5/dee/class_template_list_1_1_private.html" target="_top" xlink:title="Private data of a template list object. ">
<polygon fill="white" stroke="black" points="0,-38.5 0,-57.5 110,-57.5 110,-38.5 0,-38.5"/>
<text text-anchor="middle" x="55" y="-45.5" font-family="Helvetica,sans-Serif" font-size="10.00">TemplateList::Private</text>
</a>
</g>
</g>
<!-- Node13&#45;&gt;Node11 -->
<g id="edge10" class="edge"><title>Node13&#45;&gt;Node11</title>
<path fill="none" stroke="#9a32cd" stroke-dasharray="5,2" d="M120.35,-48C140.51,-48 162.019,-48 179.43,-48"/>
<polygon fill="#9a32cd" stroke="#9a32cd" points="120.274,-44.5001 110.274,-48 120.274,-51.5001 120.274,-44.5001"/>
<text text-anchor="middle" x="142" y="-51" font-family="Helvetica,sans-Serif" font-size="10.00"> p</text>
</g>
<!-- Node14 -->
<g id="node12" class="node"><title>Node14</title>
<g id="a_node12"><a xlink:href="../../df/d12/class_shared_ptr.html" target="_top" xlink:title="Reference counting smart pointer. ">
<polygon fill="white" stroke="black" points="174,-0.5 174,-19.5 258,-19.5 258,-0.5 174,-0.5"/>
<text text-anchor="middle" x="216" y="-7.5" font-family="Helvetica,sans-Serif" font-size="10.00">SharedPtr&lt; T &gt;</text>
</a>
</g>
</g>
<!-- Node14&#45;&gt;Node10 -->
<g id="edge11" class="edge"><title>Node14&#45;&gt;Node10</title>
<path fill="none" stroke="orange" stroke-dasharray="5,2" d="M268.168,-14.3991C299.062,-17.0551 338.751,-20.4673 371.992,-23.3251"/>
<polygon fill="orange" stroke="orange" points="268.314,-10.8987 258.05,-13.5292 267.714,-17.873 268.314,-10.8987"/>
<text text-anchor="middle" x="315" y="-25" font-family="Helvetica,sans-Serif" font-size="10.00"> &lt; TemplateList &gt;</text>
</g>
<!-- Node15 -->
<g id="node13" class="node"><title>Node15</title>
<polygon fill="white" stroke="#bfbfbf" points="40.5,-0.5 40.5,-19.5 69.5,-19.5 69.5,-0.5 40.5,-0.5"/>
<text text-anchor="middle" x="55" y="-7.5" font-family="Helvetica,sans-Serif" font-size="10.00">T</text>
</g>
<!-- Node15&#45;&gt;Node14 -->
<g id="edge12" class="edge"><title>Node15&#45;&gt;Node14</title>
<path fill="none" stroke="#9a32cd" stroke-dasharray="5,2" d="M79.8452,-10C104.647,-10 143.951,-10 173.795,-10"/>
<polygon fill="#9a32cd" stroke="#9a32cd" points="79.5563,-6.5001 69.5563,-10 79.5562,-13.5001 79.5563,-6.5001"/>
<text text-anchor="middle" x="142" y="-13" font-family="Helvetica,sans-Serif" font-size="10.00"> m_ptr</text>
</g>
</g>
</svg>
        <g id="navigator" transform="translate(0 0)" fill="#404254">
                <rect fill="#f2f5e9" fill-opacity="0.5" stroke="#606060" stroke-width=".5" x="0" y="0" width="60" height="60"/>
                <use id="zoomplus" xlink:href="#zoomPlus" x="17" y="9" onmousedown="handleZoom(evt,'in')"/>
                <use id="zoomminus" xlink:href="#zoomMin" x="42" y="9" onmousedown="handleZoom(evt,'out')"/>
                <use id="reset" xlink:href="#resetDef" x="30" y="36" onmousedown="handleReset()"/>
                <g id="arrowUp" xlink:href="#dirArrow" transform="translate(30 24)" onmousedown="handlePan(0,-1)">
                  <use xlink:href="#rim" fill="#404040">
                        <set attributeName="fill" to="#808080" begin="arrowUp.mouseover" end="arrowUp.mouseout"/>
                  </use>
                  <path fill="none" stroke="white" stroke-width="1.5" d="M0,-3.0v7 M-2.5,-0.5L0,-3.0L2.5,-0.5"/>
                </g>
                <g id="arrowRight" xlink:href="#dirArrow" transform="rotate(90) translate(36 -43)" onmousedown="handlePan(1,0)">
                  <use xlink:href="#rim" fill="#404040">
                        <set attributeName="fill" to="#808080" begin="arrowRight.mouseover" end="arrowRight.mouseout"/>
                  </use>
                  <path fill="none" stroke="white" stroke-width="1.5" d="M0,-3.0v7 M-2.5,-0.5L0,-3.0L2.5,-0.5"/>
                </g>
                <g id="arrowDown" xlink:href="#dirArrow" transform="rotate(180) translate(-30 -48)" onmousedown="handlePan(0,1)">
                  <use xlink:href="#rim" fill="#404040">
                        <set attributeName="fill" to="#808080" begin="arrowDown.mouseover" end="arrowDown.mouseout"/>
                  </use>
                  <path fill="none" stroke="white" stroke-width="1.5" d="M0,-3.0v7 M-2.5,-0.5L0,-3.0L2.5,-0.5"/>
                </g>
                <g id="arrowLeft" xlink:href="#dirArrow" transform="rotate(270) translate(-36 17)" onmousedown="handlePan(-1,0)">
                  <use xlink:href="#rim" fill="#404040">
                        <set attributeName="fill" to="#808080" begin="arrowLeft.mouseover" end="arrowLeft.mouseout"/>
                  </use>
                  <path fill="none" stroke="white" stroke-width="1.5" d="M0,-3.0v7 M-2.5,-0.5L0,-3.0L2.5,-0.5"/>
                </g>
        </g>
        <svg viewBox="0 0 15 15" width="100%" height="30px" preserveAspectRatio="xMaxYMin meet">
         <g id="arrow_out" transform="scale(0.3 0.3)">
          <a xlink:href="class_class_members_index_context__coll__graph_org.svg" target="_base">
           <rect id="button" ry="5" rx="5" y="6" x="6" height="38" width="38"
                fill="#f2f5e9" fill-opacity="0.5" stroke="#606060" stroke-width="1.0"/>
           <path id="arrow"
             d="M 11.500037,31.436501 C 11.940474,20.09759 22.043105,11.32322 32.158766,21.979434 L 37.068811,17.246167 C 37.068811,17.246167 37.088388,32 37.088388,32 L 22.160133,31.978069 C 22.160133,31.978069 26.997745,27.140456 26.997745,27.140456 C 18.528582,18.264221 13.291696,25.230495 11.500037,31.436501 z"
             style="fill:#404040;"/>
          </a>
         </g>
        </svg>
</svg>
