<?xml version="1.0" encoding="UTF-8" standalone="no"?>
<!DOCTYPE svg PUBLIC "-//W3C//DTD SVG 1.1//EN"
 "http://www.w3.org/Graphics/SVG/1.1/DTD/svg11.dtd">
<!-- Generated by graphviz version 2.38.0 (20140413.2041)
 -->
<!-- Title: DocVhdlFlow Pages: 1 -->
<svg width="234pt" height="152pt"
 viewBox="0.00 0.00 234.00 152.00" xmlns="http://www.w3.org/2000/svg" xmlns:xlink="http://www.w3.org/1999/xlink">
<g id="graph0" class="graph" transform="scale(1 1) rotate(0) translate(4 148)">
<title>DocVhdlFlow</title>
<polygon fill="white" stroke="none" points="-4,4 -4,-148 230,-148 230,4 -4,4"/>
<!-- Node0 -->
<g id="node1" class="node"><title>Node0</title>
<polygon fill="#bfbfbf" stroke="black" points="128.5,-0.5 128.5,-19.5 203.5,-19.5 203.5,-0.5 128.5,-0.5"/>
<text text-anchor="middle" x="166" y="-7.5" font-family="Helvetica,sans-Serif" font-size="10.00">DocVhdlFlow</text>
</g>
<!-- Node1 -->
<g id="node2" class="node"><title>Node1</title>
<g id="a_node2"><a xlink:href="../../d7/da3/class_comp_accept.html" target="_top" xlink:title="CompAccept\&lt; DocVhdlFlow \&gt;">
<polygon fill="white" stroke="black" points="0,-57.5 0,-76.5 150,-76.5 150,-57.5 0,-57.5"/>
<text text-anchor="middle" x="75" y="-64.5" font-family="Helvetica,sans-Serif" font-size="10.00">CompAccept&lt; DocVhdlFlow &gt;</text>
</a>
</g>
</g>
<!-- Node1&#45;&gt;Node0 -->
<g id="edge1" class="edge"><title>Node1&#45;&gt;Node0</title>
<path fill="none" stroke="midnightblue" d="M97.9815,-52.1101C114.946,-41.857 137.494,-28.2288 151.881,-19.5334"/>
<polygon fill="midnightblue" stroke="midnightblue" points="95.9666,-49.2382 89.2188,-57.4062 99.5875,-55.229 95.9666,-49.2382"/>
</g>
<!-- Node2 -->
<g id="node3" class="node"><title>Node2</title>
<g id="a_node3"><a xlink:href="../../d7/da3/class_comp_accept.html" target="_top" xlink:title="Default accept implementation for compound nodes in the abstract syntax tree. ">
<polygon fill="white" stroke="black" points="26,-124.5 26,-143.5 124,-143.5 124,-124.5 26,-124.5"/>
<text text-anchor="middle" x="75" y="-131.5" font-family="Helvetica,sans-Serif" font-size="10.00">CompAccept&lt; T &gt;</text>
</a>
</g>
</g>
<!-- Node2&#45;&gt;Node1 -->
<g id="edge2" class="edge"><title>Node2&#45;&gt;Node1</title>
<path fill="none" stroke="orange" stroke-dasharray="5,2" d="M75,-114.037C75,-101.67 75,-86.1198 75,-76.6273"/>
<polygon fill="orange" stroke="orange" points="71.5001,-114.234 75,-124.234 78.5001,-114.234 71.5001,-114.234"/>
<text text-anchor="middle" x="115" y="-98" font-family="Helvetica,sans-Serif" font-size="10.00"> &lt; DocVhdlFlow &gt;</text>
</g>
<!-- Node3 -->
<g id="node4" class="node"><title>Node3</title>
<g id="a_node4"><a xlink:href="../../d9/d0e/class_doc_node.html" target="_top" xlink:title="Abstract node interface with type information. ">
<polygon fill="white" stroke="black" points="168,-57.5 168,-76.5 226,-76.5 226,-57.5 168,-57.5"/>
<text text-anchor="middle" x="197" y="-64.5" font-family="Helvetica,sans-Serif" font-size="10.00">DocNode</text>
</a>
</g>
</g>
<!-- Node3&#45;&gt;Node0 -->
<g id="edge3" class="edge"><title>Node3&#45;&gt;Node0</title>
<path fill="none" stroke="midnightblue" d="M187.213,-48.6354C181.788,-39.0102 175.277,-27.459 170.912,-19.7149"/>
<polygon fill="midnightblue" stroke="midnightblue" points="184.197,-50.4133 192.156,-57.4062 190.295,-46.9762 184.197,-50.4133"/>
</g>
</g>
</svg>
