<?xml version="1.0" encoding="UTF-8" standalone="no"?>
<!DOCTYPE svg PUBLIC "-//W3C//DTD SVG 1.1//EN"
 "http://www.w3.org/Graphics/SVG/1.1/DTD/svg11.dtd">
<!-- Generated by graphviz version 2.38.0 (20140413.2041)
 -->
<!-- Title: src/translator_adapter.h Pages: 1 -->
<svg width="239pt" height="308pt"
 viewBox="0.00 0.00 239.00 308.00" xmlns="http://www.w3.org/2000/svg" xmlns:xlink="http://www.w3.org/1999/xlink">
<g id="graph0" class="graph" transform="scale(1 1) rotate(0) translate(4 304)">
<title>src/translator_adapter.h</title>
<polygon fill="white" stroke="none" points="-4,4 -4,-304 235,-304 235,4 -4,4"/>
<!-- Node0 -->
<g id="node1" class="node"><title>Node0</title>
<polygon fill="#bfbfbf" stroke="black" points="16,-280.5 16,-299.5 135,-299.5 135,-280.5 16,-280.5"/>
<text text-anchor="middle" x="75.5" y="-287.5" font-family="Helvetica,sans-Serif" font-size="10.00">src/translator_adapter.h</text>
</g>
<!-- Node1 -->
<g id="node2" class="node"><title>Node1</title>
<g id="a_node2"><a xlink:href="../../df/dfc/version_8h.html" target="_top" xlink:title="version.h">
<polygon fill="white" stroke="black" points="8.5,-224.5 8.5,-243.5 64.5,-243.5 64.5,-224.5 8.5,-224.5"/>
<text text-anchor="middle" x="36.5" y="-231.5" font-family="Helvetica,sans-Serif" font-size="10.00">version.h</text>
</a>
</g>
</g>
<!-- Node0&#45;&gt;Node1 -->
<g id="edge1" class="edge"><title>Node0&#45;&gt;Node1</title>
<path fill="none" stroke="midnightblue" d="M69.0599,-280.083C63.5511,-272.455 55.4688,-261.264 48.735,-251.941"/>
<polygon fill="midnightblue" stroke="midnightblue" points="51.5126,-249.809 42.8202,-243.751 45.8378,-253.907 51.5126,-249.809"/>
</g>
<!-- Node2 -->
<g id="node3" class="node"><title>Node2</title>
<g id="a_node3"><a xlink:href="../../d9/df1/translator_8h.html" target="_top" xlink:title="translator.h">
<polygon fill="white" stroke="black" points="83,-224.5 83,-243.5 148,-243.5 148,-224.5 83,-224.5"/>
<text text-anchor="middle" x="115.5" y="-231.5" font-family="Helvetica,sans-Serif" font-size="10.00">translator.h</text>
</a>
</g>
</g>
<!-- Node0&#45;&gt;Node2 -->
<g id="edge2" class="edge"><title>Node0&#45;&gt;Node2</title>
<path fill="none" stroke="midnightblue" d="M82.1052,-280.083C87.7552,-272.455 96.0448,-261.264 102.951,-251.941"/>
<polygon fill="midnightblue" stroke="midnightblue" points="105.878,-253.87 109.018,-243.751 100.253,-249.703 105.878,-253.87"/>
</g>
<!-- Node3 -->
<g id="node4" class="node"><title>Node3</title>
<g id="a_node4"><a xlink:href="../../d1/da6/classdef_8h.html" target="_top" xlink:title="classdef.h">
<polygon fill="white" stroke="black" points="84.5,-168.5 84.5,-187.5 146.5,-187.5 146.5,-168.5 84.5,-168.5"/>
<text text-anchor="middle" x="115.5" y="-175.5" font-family="Helvetica,sans-Serif" font-size="10.00">classdef.h</text>
</a>
</g>
</g>
<!-- Node2&#45;&gt;Node3 -->
<g id="edge3" class="edge"><title>Node2&#45;&gt;Node3</title>
<path fill="none" stroke="midnightblue" d="M115.5,-224.083C115.5,-217.006 115.5,-206.861 115.5,-197.986"/>
<polygon fill="midnightblue" stroke="midnightblue" points="119,-197.751 115.5,-187.751 112,-197.751 119,-197.751"/>
</g>
<!-- Node4 -->
<g id="node5" class="node"><title>Node4</title>
<polygon fill="white" stroke="#bfbfbf" points="0,-56.5 0,-75.5 43,-75.5 43,-56.5 0,-56.5"/>
<text text-anchor="middle" x="21.5" y="-63.5" font-family="Helvetica,sans-Serif" font-size="10.00">qlist.h</text>
</g>
<!-- Node3&#45;&gt;Node4 -->
<g id="edge4" class="edge"><title>Node3&#45;&gt;Node4</title>
<path fill="none" stroke="midnightblue" d="M94.7953,-168.443C79.0067,-160.955 57.7811,-148.661 44.5,-132 33.7846,-118.558 27.8534,-99.742 24.7108,-85.8117"/>
<polygon fill="midnightblue" stroke="midnightblue" points="28.1213,-85.0158 22.7503,-75.8833 21.254,-86.372 28.1213,-85.0158"/>
</g>
<!-- Node5 -->
<g id="node6" class="node"><title>Node5</title>
<polygon fill="white" stroke="#bfbfbf" points="128.5,-56.5 128.5,-75.5 174.5,-75.5 174.5,-56.5 128.5,-56.5"/>
<text text-anchor="middle" x="151.5" y="-63.5" font-family="Helvetica,sans-Serif" font-size="10.00">qdict.h</text>
</g>
<!-- Node3&#45;&gt;Node5 -->
<g id="edge5" class="edge"><title>Node3&#45;&gt;Node5</title>
<path fill="none" stroke="midnightblue" d="M118.325,-168.368C124.161,-150.537 137.658,-109.295 145.52,-85.2717"/>
<polygon fill="midnightblue" stroke="midnightblue" points="148.904,-86.1841 148.688,-75.5914 142.251,-84.0067 148.904,-86.1841"/>
</g>
<!-- Node6 -->
<g id="node7" class="node"><title>Node6</title>
<polygon fill="white" stroke="#bfbfbf" points="174,-112.5 174,-131.5 231,-131.5 231,-112.5 174,-112.5"/>
<text text-anchor="middle" x="202.5" y="-119.5" font-family="Helvetica,sans-Serif" font-size="10.00">qptrdict.h</text>
</g>
<!-- Node3&#45;&gt;Node6 -->
<g id="edge6" class="edge"><title>Node3&#45;&gt;Node6</title>
<path fill="none" stroke="midnightblue" d="M129.478,-168.324C143.05,-159.9 163.88,-146.971 179.825,-137.074"/>
<polygon fill="midnightblue" stroke="midnightblue" points="181.906,-139.902 188.557,-131.655 178.214,-133.954 181.906,-139.902"/>
</g>
<!-- Node7 -->
<g id="node8" class="node"><title>Node7</title>
<g id="a_node8"><a xlink:href="../../df/da1/definition_8h.html" target="_top" xlink:title="definition.h">
<polygon fill="white" stroke="black" points="53.5,-112.5 53.5,-131.5 117.5,-131.5 117.5,-112.5 53.5,-112.5"/>
<text text-anchor="middle" x="85.5" y="-119.5" font-family="Helvetica,sans-Serif" font-size="10.00">definition.h</text>
</a>
</g>
</g>
<!-- Node3&#45;&gt;Node7 -->
<g id="edge7" class="edge"><title>Node3&#45;&gt;Node7</title>
<path fill="none" stroke="midnightblue" d="M110.546,-168.083C106.396,-160.613 100.347,-149.724 95.2333,-140.52"/>
<polygon fill="midnightblue" stroke="midnightblue" points="98.2777,-138.793 90.3617,-131.751 92.1586,-142.192 98.2777,-138.793"/>
</g>
<!-- Node7&#45;&gt;Node4 -->
<g id="edge8" class="edge"><title>Node7&#45;&gt;Node4</title>
<path fill="none" stroke="midnightblue" d="M75.2173,-112.324C65.6637,-104.263 51.2203,-92.0765 39.7157,-82.3695"/>
<polygon fill="midnightblue" stroke="midnightblue" points="41.8698,-79.6076 31.9698,-75.8339 37.3557,-84.9577 41.8698,-79.6076"/>
</g>
<!-- Node7&#45;&gt;Node5 -->
<g id="edge9" class="edge"><title>Node7&#45;&gt;Node5</title>
<path fill="none" stroke="midnightblue" d="M96.104,-112.324C105.956,-104.263 120.851,-92.0765 132.715,-82.3695"/>
<polygon fill="midnightblue" stroke="midnightblue" points="135.18,-84.8752 140.703,-75.8339 130.747,-79.4575 135.18,-84.8752"/>
</g>
<!-- Node8 -->
<g id="node9" class="node"><title>Node8</title>
<g id="a_node9"><a xlink:href="../../d9/d49/types_8h.html" target="_top" xlink:title="This file contains a number of basic enums and types. ">
<polygon fill="white" stroke="black" points="61,-56.5 61,-75.5 110,-75.5 110,-56.5 61,-56.5"/>
<text text-anchor="middle" x="85.5" y="-63.5" font-family="Helvetica,sans-Serif" font-size="10.00">types.h</text>
</a>
</g>
</g>
<!-- Node7&#45;&gt;Node8 -->
<g id="edge10" class="edge"><title>Node7&#45;&gt;Node8</title>
<path fill="none" stroke="midnightblue" d="M85.5,-112.083C85.5,-105.006 85.5,-94.8611 85.5,-85.9865"/>
<polygon fill="midnightblue" stroke="midnightblue" points="89.0001,-85.751 85.5,-75.7511 82.0001,-85.7511 89.0001,-85.751"/>
</g>
<!-- Node9 -->
<g id="node10" class="node"><title>Node9</title>
<polygon fill="white" stroke="#bfbfbf" points="56,-0.5 56,-19.5 115,-19.5 115,-0.5 56,-0.5"/>
<text text-anchor="middle" x="85.5" y="-7.5" font-family="Helvetica,sans-Serif" font-size="10.00">qcstring.h</text>
</g>
<!-- Node8&#45;&gt;Node9 -->
<g id="edge11" class="edge"><title>Node8&#45;&gt;Node9</title>
<path fill="none" stroke="midnightblue" d="M85.5,-56.083C85.5,-49.0059 85.5,-38.8611 85.5,-29.9865"/>
<polygon fill="midnightblue" stroke="midnightblue" points="89.0001,-29.751 85.5,-19.7511 82.0001,-29.7511 89.0001,-29.751"/>
</g>
</g>
</svg>
