<?xml version="1.0" encoding="UTF-8" standalone="no"?>
<!DOCTYPE svg PUBLIC "-//W3C//DTD SVG 1.1//EN"
 "http://www.w3.org/Graphics/SVG/1.1/DTD/svg11.dtd">
<!-- Generated by graphviz version 2.38.0 (20140413.2041)
 -->
<!-- Title: IndexIntf Pages: 1 -->
<svg width="428pt" height="84pt"
 viewBox="0.00 0.00 428.00 84.00" xmlns="http://www.w3.org/2000/svg" xmlns:xlink="http://www.w3.org/1999/xlink">
<g id="graph0" class="graph" transform="scale(1 1) rotate(0) translate(4 80)">
<title>IndexIntf</title>
<polygon fill="white" stroke="none" points="-4,4 -4,-80 424,-80 424,4 -4,4"/>
<!-- Node0 -->
<g id="node1" class="node"><title>Node0</title>
<polygon fill="#bfbfbf" stroke="black" points="198,-56.5 198,-75.5 253,-75.5 253,-56.5 198,-56.5"/>
<text text-anchor="middle" x="225.5" y="-63.5" font-family="Helvetica,sans-Serif" font-size="10.00">IndexIntf</text>
</g>
<!-- Node1 -->
<g id="node2" class="node"><title>Node1</title>
<g id="a_node2"><a xlink:href="../../db/d32/class_doc_sets.html" target="_top" xlink:title="A class that generates docset files. ">
<polygon fill="white" stroke="black" points="0,-0.5 0,-19.5 55,-19.5 55,-0.5 0,-0.5"/>
<text text-anchor="middle" x="27.5" y="-7.5" font-family="Helvetica,sans-Serif" font-size="10.00">DocSets</text>
</a>
</g>
</g>
<!-- Node0&#45;&gt;Node1 -->
<g id="edge1" class="edge"><title>Node0&#45;&gt;Node1</title>
<path fill="none" stroke="midnightblue" d="M188.12,-54.8055C149.394,-44.2438 89.7841,-27.9866 55.1157,-18.5315"/>
<polygon fill="midnightblue" stroke="midnightblue" points="187.4,-58.237 197.969,-57.4915 189.242,-51.4836 187.4,-58.237"/>
</g>
<!-- Node2 -->
<g id="node3" class="node"><title>Node2</title>
<g id="a_node3"><a xlink:href="../../db/dd3/class_eclipse_help.html" target="_top" xlink:title="Generator for Eclipse help files. ">
<polygon fill="white" stroke="black" points="73,-0.5 73,-19.5 142,-19.5 142,-0.5 73,-0.5"/>
<text text-anchor="middle" x="107.5" y="-7.5" font-family="Helvetica,sans-Serif" font-size="10.00">EclipseHelp</text>
</a>
</g>
</g>
<!-- Node0&#45;&gt;Node2 -->
<g id="edge2" class="edge"><title>Node0&#45;&gt;Node2</title>
<path fill="none" stroke="midnightblue" d="M197.6,-52.2321C175.527,-42.1312 145.324,-28.3091 126.11,-19.5164"/>
<polygon fill="midnightblue" stroke="midnightblue" points="196.253,-55.4648 206.803,-56.4435 199.166,-49.0997 196.253,-55.4648"/>
</g>
<!-- Node3 -->
<g id="node4" class="node"><title>Node3</title>
<g id="a_node4"><a xlink:href="../../d6/d14/class_f_t_v_help.html" target="_top" xlink:title="A class that generates a dynamic tree view side panel. ">
<polygon fill="white" stroke="black" points="160.5,-0.5 160.5,-19.5 216.5,-19.5 216.5,-0.5 160.5,-0.5"/>
<text text-anchor="middle" x="188.5" y="-7.5" font-family="Helvetica,sans-Serif" font-size="10.00">FTVHelp</text>
</a>
</g>
</g>
<!-- Node0&#45;&gt;Node3 -->
<g id="edge3" class="edge"><title>Node0&#45;&gt;Node3</title>
<path fill="none" stroke="midnightblue" d="M213.554,-47.5656C207.188,-38.2747 199.633,-27.2484 194.496,-19.7511"/>
<polygon fill="midnightblue" stroke="midnightblue" points="210.851,-49.812 219.39,-56.083 216.625,-45.8553 210.851,-49.812"/>
</g>
<!-- Node4 -->
<g id="node5" class="node"><title>Node4</title>
<g id="a_node5"><a xlink:href="../../d4/db3/class_html_help.html" target="_top" xlink:title="A class that generated the HTML Help specific files. ">
<polygon fill="white" stroke="black" points="234.5,-0.5 234.5,-19.5 292.5,-19.5 292.5,-0.5 234.5,-0.5"/>
<text text-anchor="middle" x="263.5" y="-7.5" font-family="Helvetica,sans-Serif" font-size="10.00">HtmlHelp</text>
</a>
</g>
</g>
<!-- Node0&#45;&gt;Node4 -->
<g id="edge4" class="edge"><title>Node0&#45;&gt;Node4</title>
<path fill="none" stroke="midnightblue" d="M237.565,-47.8554C244.145,-38.5048 252.011,-27.3265 257.342,-19.7511"/>
<polygon fill="midnightblue" stroke="midnightblue" points="234.668,-45.8907 231.775,-56.083 240.392,-49.9192 234.668,-45.8907"/>
</g>
<!-- Node5 -->
<g id="node6" class="node"><title>Node5</title>
<g id="a_node6"><a xlink:href="../../d9/d57/class_index_list.html" target="_top" xlink:title="A list of index interfaces. ">
<polygon fill="white" stroke="black" points="310.5,-0.5 310.5,-19.5 366.5,-19.5 366.5,-0.5 310.5,-0.5"/>
<text text-anchor="middle" x="338.5" y="-7.5" font-family="Helvetica,sans-Serif" font-size="10.00">IndexList</text>
</a>
</g>
</g>
<!-- Node0&#45;&gt;Node5 -->
<g id="edge5" class="edge"><title>Node0&#45;&gt;Node5</title>
<path fill="none" stroke="midnightblue" d="M252.503,-52.096C273.614,-42.0073 302.362,-28.2697 320.679,-19.5164"/>
<polygon fill="midnightblue" stroke="midnightblue" points="250.919,-48.9738 243.405,-56.4435 253.937,-55.2897 250.919,-48.9738"/>
</g>
<!-- Node6 -->
<g id="node7" class="node"><title>Node6</title>
<g id="a_node7"><a xlink:href="../../de/d4f/class_qhp.html" target="_top" xlink:title="Qhp">
<polygon fill="white" stroke="black" points="385,-0.5 385,-19.5 420,-19.5 420,-0.5 385,-0.5"/>
<text text-anchor="middle" x="402.5" y="-7.5" font-family="Helvetica,sans-Serif" font-size="10.00">Qhp</text>
</a>
</g>
</g>
<!-- Node0&#45;&gt;Node6 -->
<g id="edge6" class="edge"><title>Node0&#45;&gt;Node6</title>
<path fill="none" stroke="midnightblue" d="M262.987,-54.0961C293.389,-45.171 337.308,-32.0911 375.5,-20 378.515,-19.0456 381.71,-18.0058 384.806,-16.9831"/>
<polygon fill="midnightblue" stroke="midnightblue" points="261.836,-50.7862 253.223,-56.9562 263.804,-57.5039 261.836,-50.7862"/>
</g>
</g>
</svg>
