<?xml version="1.0" encoding="UTF-8" standalone="no"?>
<!DOCTYPE svg PUBLIC "-//W3C//DTD SVG 1.1//EN"
 "http://www.w3.org/Graphics/SVG/1.1/DTD/svg11.dtd">
<!-- Generated by graphviz version 2.38.0 (20140413.2041)
 -->
<!-- Title: TooltipManager Pages: 1 -->
<svg width="193pt" height="95pt"
 viewBox="0.00 0.00 192.50 95.00" xmlns="http://www.w3.org/2000/svg" xmlns:xlink="http://www.w3.org/1999/xlink">
<g id="graph0" class="graph" transform="scale(1 1) rotate(0) translate(4 91)">
<title>TooltipManager</title>
<polygon fill="white" stroke="none" points="-4,4 -4,-91 188.5,-91 188.5,4 -4,4"/>
<!-- Node1 -->
<g id="node1" class="node"><title>Node1</title>
<polygon fill="#bfbfbf" stroke="black" points="18.5,-0.5 18.5,-19.5 101.5,-19.5 101.5,-0.5 18.5,-0.5"/>
<text text-anchor="middle" x="60" y="-7.5" font-family="Helvetica,sans-Serif" font-size="10.00">TooltipManager</text>
</g>
<!-- Node1&#45;&gt;Node1 -->
<g id="edge2" class="edge"><title>Node1&#45;&gt;Node1</title>
<path fill="none" stroke="#9a32cd" stroke-dasharray="5,2" d="M111.819,-14.7681C116.534,-13.7769 119.5,-12.1875 119.5,-10 119.5,-6.5 111.908,-4.53125 101.705,-4.09375"/>
<polygon fill="#9a32cd" stroke="#9a32cd" points="111.251,-11.3098 101.705,-15.9062 112.034,-18.2659 111.251,-11.3098"/>
<text text-anchor="middle" x="152" y="-7.5" font-family="Helvetica,sans-Serif" font-size="10.00"> s_theInstance</text>
</g>
<!-- Node2 -->
<g id="node2" class="node"><title>Node2</title>
<g id="a_node2"><a xlink:href="../../d1/d85/class_tooltip_manager_1_1_private.html" target="_top" xlink:title="TooltipManager::Private">
<polygon fill="white" stroke="black" points="-7.10543e-15,-67.5 -7.10543e-15,-86.5 120,-86.5 120,-67.5 -7.10543e-15,-67.5"/>
<text text-anchor="middle" x="60" y="-74.5" font-family="Helvetica,sans-Serif" font-size="10.00">TooltipManager::Private</text>
</a>
</g>
</g>
<!-- Node2&#45;&gt;Node1 -->
<g id="edge1" class="edge"><title>Node2&#45;&gt;Node1</title>
<path fill="none" stroke="#9a32cd" stroke-dasharray="5,2" d="M60,-57.037C60,-44.6703 60,-29.1198 60,-19.6273"/>
<polygon fill="#9a32cd" stroke="#9a32cd" points="56.5001,-57.2338 60,-67.2338 63.5001,-57.2338 56.5001,-57.2338"/>
<text text-anchor="middle" x="64.5" y="-41" font-family="Helvetica,sans-Serif" font-size="10.00"> p</text>
</g>
</g>
</svg>
