<?xml version="1.0" encoding="UTF-8" standalone="no"?>
<!DOCTYPE svg PUBLIC "-//W3C//DTD SVG 1.1//EN"
 "http://www.w3.org/Graphics/SVG/1.1/DTD/svg11.dtd">
<!-- Generated by graphviz version 2.38.0 (20140413.2041)
 -->
<!-- Title: TemplateNodeCreate Pages: 1 -->
<svg width="234pt" height="220pt"
 viewBox="0.00 0.00 234.00 220.00" xmlns="http://www.w3.org/2000/svg" xmlns:xlink="http://www.w3.org/1999/xlink">
<g id="graph0" class="graph" transform="scale(1 1) rotate(0) translate(4 216)">
<title>TemplateNodeCreate</title>
<polygon fill="white" stroke="none" points="-4,4 -4,-216 230,-216 230,4 -4,4"/>
<!-- Node0 -->
<g id="node1" class="node"><title>Node0</title>
<polygon fill="#bfbfbf" stroke="black" points="9,-0.5 9,-19.5 119,-19.5 119,-0.5 9,-0.5"/>
<text text-anchor="middle" x="64" y="-7.5" font-family="Helvetica,sans-Serif" font-size="10.00">TemplateNodeCreate</text>
</g>
<!-- Node1 -->
<g id="node2" class="node"><title>Node1</title>
<g id="a_node2"><a xlink:href="../../d8/d78/class_template_node_creator.html" target="_top" xlink:title="TemplateNodeCreator\l\&lt; TemplateNodeCreate \&gt;">
<polygon fill="white" stroke="black" points="0,-57.5 0,-87.5 128,-87.5 128,-57.5 0,-57.5"/>
<text text-anchor="start" x="8" y="-75.5" font-family="Helvetica,sans-Serif" font-size="10.00">TemplateNodeCreator</text>
<text text-anchor="middle" x="64" y="-64.5" font-family="Helvetica,sans-Serif" font-size="10.00">&lt; TemplateNodeCreate &gt;</text>
</a>
</g>
</g>
<!-- Node1&#45;&gt;Node0 -->
<g id="edge1" class="edge"><title>Node1&#45;&gt;Node0</title>
<path fill="none" stroke="midnightblue" d="M64,-47.3524C64,-37.5132 64,-26.7753 64,-19.5399"/>
<polygon fill="midnightblue" stroke="midnightblue" points="60.5001,-47.468 64,-57.468 67.5001,-47.4681 60.5001,-47.468"/>
</g>
<!-- Node2 -->
<g id="node3" class="node"><title>Node2</title>
<g id="a_node3"><a xlink:href="../../d6/d53/class_template_node.html" target="_top" xlink:title="Base class of all nodes in a template&#39;s AST. ">
<polygon fill="white" stroke="black" points="38,-192.5 38,-211.5 118,-211.5 118,-192.5 38,-192.5"/>
<text text-anchor="middle" x="78" y="-199.5" font-family="Helvetica,sans-Serif" font-size="10.00">TemplateNode</text>
</a>
</g>
</g>
<!-- Node2&#45;&gt;Node1 -->
<g id="edge2" class="edge"><title>Node2&#45;&gt;Node1</title>
<path fill="none" stroke="midnightblue" d="M72.6925,-182.502C70.5316,-174.169 68.2518,-164.164 67,-155 63.7998,-131.572 63.4982,-104.028 63.6753,-87.7075"/>
<polygon fill="midnightblue" stroke="midnightblue" points="69.3528,-183.558 75.3681,-192.28 76.1046,-181.71 69.3528,-183.558"/>
</g>
<!-- Node3 -->
<g id="node4" class="node"><title>Node3</title>
<g id="a_node4"><a xlink:href="../../d8/d78/class_template_node_creator.html" target="_top" xlink:title="Helper class for creating template AST tag nodes and returning the template for a given node...">
<polygon fill="white" stroke="black" points="76.5,-135.5 76.5,-154.5 213.5,-154.5 213.5,-135.5 76.5,-135.5"/>
<text text-anchor="middle" x="145" y="-142.5" font-family="Helvetica,sans-Serif" font-size="10.00">TemplateNodeCreator&lt; T &gt;</text>
</a>
</g>
</g>
<!-- Node2&#45;&gt;Node3 -->
<g id="edge4" class="edge"><title>Node2&#45;&gt;Node3</title>
<path fill="none" stroke="midnightblue" d="M96.2748,-185.998C108.501,-175.962 124.164,-163.104 134.384,-154.715"/>
<polygon fill="midnightblue" stroke="midnightblue" points="93.9773,-183.356 88.4688,-192.406 98.4188,-188.767 93.9773,-183.356"/>
</g>
<!-- Node3&#45;&gt;Node1 -->
<g id="edge3" class="edge"><title>Node3&#45;&gt;Node1</title>
<path fill="none" stroke="orange" stroke-dasharray="5,2" d="M127.518,-128.784C113.462,-116.551 93.8689,-99.497 80.1726,-87.5762"/>
<polygon fill="orange" stroke="orange" points="125.227,-131.43 135.068,-135.355 129.823,-126.15 125.227,-131.43"/>
<text text-anchor="middle" x="168.5" y="-109" font-family="Helvetica,sans-Serif" font-size="10.00"> &lt; TemplateNodeCreate &gt;</text>
</g>
</g>
</svg>
