<?xml version="1.0" encoding="UTF-8" standalone="no"?>
<!DOCTYPE svg PUBLIC "-//W3C//DTD SVG 1.1//EN"
 "http://www.w3.org/Graphics/SVG/1.1/DTD/svg11.dtd">
<!-- Generated by graphviz version 2.38.0 (20140413.2041)
 -->
<!-- Title: MemberSDict Pages: 1 -->
<svg width="136pt" height="152pt"
 viewBox="0.00 0.00 136.00 152.00" xmlns="http://www.w3.org/2000/svg" xmlns:xlink="http://www.w3.org/1999/xlink">
<g id="graph0" class="graph" transform="scale(1 1) rotate(0) translate(4 148)">
<title>MemberSDict</title>
<polygon fill="white" stroke="none" points="-4,4 -4,-148 132,-148 132,4 -4,4"/>
<!-- Node0 -->
<g id="node1" class="node"><title>Node0</title>
<polygon fill="#bfbfbf" stroke="black" points="16.5,-0.5 16.5,-19.5 93.5,-19.5 93.5,-0.5 16.5,-0.5"/>
<text text-anchor="middle" x="55" y="-7.5" font-family="Helvetica,sans-Serif" font-size="10.00">MemberSDict</text>
</g>
<!-- Node1 -->
<g id="node2" class="node"><title>Node1</title>
<g id="a_node2"><a xlink:href="../../d1/d50/class_s_dict.html" target="_top" xlink:title="SDict\&lt; MemberDef \&gt;">
<polygon fill="white" stroke="black" points="0,-57.5 0,-76.5 110,-76.5 110,-57.5 0,-57.5"/>
<text text-anchor="middle" x="55" y="-64.5" font-family="Helvetica,sans-Serif" font-size="10.00">SDict&lt; MemberDef &gt;</text>
</a>
</g>
</g>
<!-- Node1&#45;&gt;Node0 -->
<g id="edge1" class="edge"><title>Node1&#45;&gt;Node0</title>
<path fill="none" stroke="midnightblue" d="M55,-47.1166C55,-37.8173 55,-27.0557 55,-19.7149"/>
<polygon fill="midnightblue" stroke="midnightblue" points="51.5001,-47.4062 55,-57.4062 58.5001,-47.4063 51.5001,-47.4062"/>
</g>
<!-- Node2 -->
<g id="node3" class="node"><title>Node2</title>
<g id="a_node3"><a xlink:href="../../d1/d50/class_s_dict.html" target="_top" xlink:title="Ordered dictionary of elements of type T. ">
<polygon fill="white" stroke="black" points="22.5,-124.5 22.5,-143.5 87.5,-143.5 87.5,-124.5 22.5,-124.5"/>
<text text-anchor="middle" x="55" y="-131.5" font-family="Helvetica,sans-Serif" font-size="10.00">SDict&lt; T &gt;</text>
</a>
</g>
</g>
<!-- Node2&#45;&gt;Node1 -->
<g id="edge2" class="edge"><title>Node2&#45;&gt;Node1</title>
<path fill="none" stroke="orange" stroke-dasharray="5,2" d="M55,-114.037C55,-101.67 55,-86.1198 55,-76.6273"/>
<polygon fill="orange" stroke="orange" points="51.5001,-114.234 55,-124.234 58.5001,-114.234 51.5001,-114.234"/>
<text text-anchor="middle" x="91.5" y="-98" font-family="Helvetica,sans-Serif" font-size="10.00"> &lt; MemberDef &gt;</text>
</g>
</g>
</svg>
