<?xml version="1.0" encoding="UTF-8" standalone="no"?>
<!DOCTYPE svg PUBLIC "-//W3C//DTD SVG 1.1//EN"
 "http://www.w3.org/Graphics/SVG/1.1/DTD/svg11.dtd">
<!-- Generated by graphviz version 2.38.0 (20140413.2041)
 -->
<!-- Title: src/vhdljjparser.h Pages: 1 -->
<!--zoomable 308 -->
<svg id="main" version="1.1" xmlns="http://www.w3.org/2000/svg" xmlns:xlink="http://www.w3.org/1999/xlink" xml:space="preserve" onload="init(evt)">
<style type="text/css"><![CDATA[
.edge:hover path { stroke: red; }
.edge:hover polygon { stroke: red; fill: red; }
]]></style>
<script type="text/javascript"><![CDATA[
var edges = document.getElementsByTagName('g');
if (edges && edges.length) {
  for (var i=0;i<edges.length;i++) {
    if (edges[i].id.substr(0,4)=='edge') {
      edges[i].setAttribute('class','edge');
    }
  }
}
]]></script>
        <defs>
                <circle id="rim" cx="0" cy="0" r="7"/>
                <circle id="rim2" cx="0" cy="0" r="3.5"/>
                <g id="zoomPlus">
                        <use xlink:href="#rim" fill="#404040">
                                <set attributeName="fill" to="#808080" begin="zoomplus.mouseover" end="zoomplus.mouseout"/>
                        </use>
                        <path d="M-4,0h8M0,-4v8" fill="none" stroke="white" stroke-width="1.5" pointer-events="none"/>
                </g>
                <g id="zoomMin">
                        <use xlink:href="#rim" fill="#404040">
                                <set attributeName="fill" to="#808080" begin="zoomminus.mouseover" end="zoomminus.mouseout"/>
                        </use>
                        <path d="M-4,0h8" fill="none" stroke="white" stroke-width="1.5" pointer-events="none"/>
                </g>
                <g id="dirArrow">
                        <path fill="none" stroke="white" stroke-width="1.5" d="M0,-3.0v7 M-2.5,-0.5L0,-3.0L2.5,-0.5"/>
                </g>
               <g id="resetDef">
                       <use xlink:href="#rim2" fill="#404040">
                               <set attributeName="fill" to="#808080" begin="reset.mouseover" end="reset.mouseout"/>
                       </use>
               </g>
        </defs>

<script type="text/javascript">
var viewWidth = 1100;
var viewHeight = 308;
var sectionId = 'dynsection-0';
</script>
<script xlink:href="../../svgpan.js"/>
<svg id="graph" class="graph">
<g id="viewport">
<title>src/vhdljjparser.h</title>
<polygon fill="white" stroke="none" points="-4,4 -4,-304 1096.43,-304 1096.43,4 -4,4"/>
<!-- Node0 -->
<g id="node1" class="node"><title>Node0</title>
<polygon fill="#bfbfbf" stroke="black" points="476.932,-280.5 476.932,-299.5 567.932,-299.5 567.932,-280.5 476.932,-280.5"/>
<text text-anchor="middle" x="522.432" y="-287.5" font-family="Helvetica,sans-Serif" font-size="10.00">src/vhdljjparser.h</text>
</g>
<!-- Node1 -->
<g id="node2" class="node"><title>Node1</title>
<g id="a_node2"><a xlink:href="../../da/d55/parserintf_8h.html" target="_top" xlink:title="parserintf.h">
<polygon fill="white" stroke="black" points="18.9321,-112.5 18.9321,-131.5 83.9321,-131.5 83.9321,-112.5 18.9321,-112.5"/>
<text text-anchor="middle" x="51.4321" y="-119.5" font-family="Helvetica,sans-Serif" font-size="10.00">parserintf.h</text>
</a>
</g>
</g>
<!-- Node0&#45;&gt;Node1 -->
<g id="edge1" class="edge"><title>Node0&#45;&gt;Node1</title>
<path fill="none" stroke="midnightblue" d="M476.606,-286.811C373.119,-281.489 128.013,-266.629 98.4321,-244 66.1686,-219.319 56.038,-169.407 52.8676,-142.03"/>
<polygon fill="midnightblue" stroke="midnightblue" points="56.3269,-141.438 51.8907,-131.816 49.3587,-142.104 56.3269,-141.438"/>
</g>
<!-- Node2 -->
<g id="node3" class="node"><title>Node2</title>
<polygon fill="white" stroke="#bfbfbf" points="165.432,-56.5 165.432,-75.5 211.432,-75.5 211.432,-56.5 165.432,-56.5"/>
<text text-anchor="middle" x="188.432" y="-63.5" font-family="Helvetica,sans-Serif" font-size="10.00">qdict.h</text>
</g>
<!-- Node0&#45;&gt;Node2 -->
<g id="edge12" class="edge"><title>Node0&#45;&gt;Node2</title>
<path fill="none" stroke="midnightblue" d="M476.888,-287.5C398.192,-284.139 240.822,-273.799 195.432,-244 171.092,-228.02 169.278,-216.04 161.432,-188 151.277,-151.708 167.643,-108.458 179.003,-84.7446"/>
<polygon fill="midnightblue" stroke="midnightblue" points="182.243,-86.092 183.615,-75.5863 175.991,-82.9436 182.243,-86.092"/>
</g>
<!-- Node4 -->
<g id="node5" class="node"><title>Node4</title>
<g id="a_node5"><a xlink:href="../../d9/d49/types_8h.html" target="_top" xlink:title="This file contains a number of basic enums and types. ">
<polygon fill="white" stroke="black" points="239.932,-56.5 239.932,-75.5 288.932,-75.5 288.932,-56.5 239.932,-56.5"/>
<text text-anchor="middle" x="264.432" y="-63.5" font-family="Helvetica,sans-Serif" font-size="10.00">types.h</text>
</a>
</g>
</g>
<!-- Node0&#45;&gt;Node4 -->
<g id="edge14" class="edge"><title>Node0&#45;&gt;Node4</title>
<path fill="none" stroke="midnightblue" d="M476.499,-288.7C418.986,-286.776 318.535,-278.228 240.432,-244 203.622,-227.868 186.967,-224.163 169.432,-188 148.359,-144.541 204.464,-102.101 239.225,-80.9272"/>
<polygon fill="midnightblue" stroke="midnightblue" points="241.126,-83.8693 247.962,-75.7747 237.57,-77.8397 241.126,-83.8693"/>
</g>
<!-- Node6 -->
<g id="node7" class="node"><title>Node6</title>
<polygon fill="white" stroke="#bfbfbf" points="400.432,-224.5 400.432,-243.5 446.432,-243.5 446.432,-224.5 400.432,-224.5"/>
<text text-anchor="middle" x="423.432" y="-231.5" font-family="Helvetica,sans-Serif" font-size="10.00">stdio.h</text>
</g>
<!-- Node0&#45;&gt;Node6 -->
<g id="edge6" class="edge"><title>Node0&#45;&gt;Node6</title>
<path fill="none" stroke="midnightblue" d="M506.526,-280.324C490.794,-271.743 466.49,-258.486 448.223,-248.522"/>
<polygon fill="midnightblue" stroke="midnightblue" points="449.754,-245.37 439.299,-243.655 446.402,-251.516 449.754,-245.37"/>
</g>
<!-- Node7 -->
<g id="node8" class="node"><title>Node7</title>
<polygon fill="white" stroke="#bfbfbf" points="464.432,-224.5 464.432,-243.5 512.432,-243.5 512.432,-224.5 464.432,-224.5"/>
<text text-anchor="middle" x="488.432" y="-231.5" font-family="Helvetica,sans-Serif" font-size="10.00">stdlib.h</text>
</g>
<!-- Node0&#45;&gt;Node7 -->
<g id="edge7" class="edge"><title>Node0&#45;&gt;Node7</title>
<path fill="none" stroke="midnightblue" d="M516.818,-280.083C512.065,-272.534 505.114,-261.495 499.28,-252.23"/>
<polygon fill="midnightblue" stroke="midnightblue" points="502.232,-250.349 493.942,-243.751 496.308,-254.078 502.232,-250.349"/>
</g>
<!-- Node8 -->
<g id="node9" class="node"><title>Node8</title>
<polygon fill="white" stroke="#bfbfbf" points="530.432,-224.5 530.432,-243.5 582.432,-243.5 582.432,-224.5 530.432,-224.5"/>
<text text-anchor="middle" x="556.432" y="-231.5" font-family="Helvetica,sans-Serif" font-size="10.00">assert.h</text>
</g>
<!-- Node0&#45;&gt;Node8 -->
<g id="edge8" class="edge"><title>Node0&#45;&gt;Node8</title>
<path fill="none" stroke="midnightblue" d="M528.046,-280.083C532.8,-272.534 539.75,-261.495 545.584,-252.23"/>
<polygon fill="midnightblue" stroke="midnightblue" points="548.556,-254.078 550.922,-243.751 542.632,-250.349 548.556,-254.078"/>
</g>
<!-- Node9 -->
<g id="node10" class="node"><title>Node9</title>
<polygon fill="white" stroke="#bfbfbf" points="600.932,-224.5 600.932,-243.5 649.932,-243.5 649.932,-224.5 600.932,-224.5"/>
<text text-anchor="middle" x="625.432" y="-231.5" font-family="Helvetica,sans-Serif" font-size="10.00">ctype.h</text>
</g>
<!-- Node0&#45;&gt;Node9 -->
<g id="edge9" class="edge"><title>Node0&#45;&gt;Node9</title>
<path fill="none" stroke="midnightblue" d="M538.981,-280.324C555.424,-271.703 580.867,-258.364 599.9,-248.386"/>
<polygon fill="midnightblue" stroke="midnightblue" points="601.693,-251.398 608.924,-243.655 598.443,-245.198 601.693,-251.398"/>
</g>
<!-- Node10 -->
<g id="node11" class="node"><title>Node10</title>
<polygon fill="white" stroke="#bfbfbf" points="668.432,-224.5 668.432,-243.5 720.432,-243.5 720.432,-224.5 668.432,-224.5"/>
<text text-anchor="middle" x="694.432" y="-231.5" font-family="Helvetica,sans-Serif" font-size="10.00">qarray.h</text>
</g>
<!-- Node0&#45;&gt;Node10 -->
<g id="edge10" class="edge"><title>Node0&#45;&gt;Node10</title>
<path fill="none" stroke="midnightblue" d="M549.686,-280.444C579.217,-271.172 626.449,-256.343 658.879,-246.162"/>
<polygon fill="midnightblue" stroke="midnightblue" points="659.939,-249.498 668.432,-243.163 657.842,-242.819 659.939,-249.498"/>
</g>
<!-- Node11 -->
<g id="node12" class="node"><title>Node11</title>
<polygon fill="white" stroke="#bfbfbf" points="738.932,-224.5 738.932,-243.5 781.932,-243.5 781.932,-224.5 738.932,-224.5"/>
<text text-anchor="middle" x="760.432" y="-231.5" font-family="Helvetica,sans-Serif" font-size="10.00">qfile.h</text>
</g>
<!-- Node0&#45;&gt;Node11 -->
<g id="edge11" class="edge"><title>Node0&#45;&gt;Node11</title>
<path fill="none" stroke="midnightblue" d="M565.848,-280.463C605.739,-272.418 666.702,-259.619 728.826,-244.013"/>
<polygon fill="midnightblue" stroke="midnightblue" points="729.97,-247.334 738.804,-241.484 728.25,-240.548 729.97,-247.334"/>
</g>
<!-- Node12 -->
<g id="node13" class="node"><title>Node12</title>
<polygon fill="white" stroke="#bfbfbf" points="799.932,-224.5 799.932,-243.5 840.932,-243.5 840.932,-224.5 799.932,-224.5"/>
<text text-anchor="middle" x="820.432" y="-231.5" font-family="Helvetica,sans-Serif" font-size="10.00">string</text>
</g>
<!-- Node0&#45;&gt;Node12 -->
<g id="edge13" class="edge"><title>Node0&#45;&gt;Node12</title>
<path fill="none" stroke="midnightblue" d="M568.3,-283.079C619.901,-276.024 706.339,-263.024 789.95,-243.846"/>
<polygon fill="midnightblue" stroke="midnightblue" points="790.92,-247.214 799.866,-241.539 789.333,-240.396 790.92,-247.214"/>
</g>
<!-- Node13 -->
<g id="node14" class="node"><title>Node13</title>
<g id="a_node14"><a xlink:href="../../d1/dc6/entry_8h.html" target="_top" xlink:title="entry.h">
<polygon fill="white" stroke="black" points="443.932,-112.5 443.932,-131.5 490.932,-131.5 490.932,-112.5 443.932,-112.5"/>
<text text-anchor="middle" x="467.432" y="-119.5" font-family="Helvetica,sans-Serif" font-size="10.00">entry.h</text>
</a>
</g>
</g>
<!-- Node0&#45;&gt;Node13 -->
<g id="edge15" class="edge"><title>Node0&#45;&gt;Node13</title>
<path fill="none" stroke="midnightblue" d="M476.91,-286.424C418.316,-282.049 321.413,-270.859 299.432,-244 276.744,-216.277 316.32,-184.181 337.432,-168 345.359,-161.924 398.43,-144.576 434.265,-133.28"/>
<polygon fill="midnightblue" stroke="midnightblue" points="435.37,-136.602 443.864,-130.269 433.275,-129.923 435.37,-136.602"/>
</g>
<!-- Node16 -->
<g id="node17" class="node"><title>Node16</title>
<g id="a_node17"><a xlink:href="../../dd/dec/vhdldocgen_8h.html" target="_top" xlink:title="vhdldocgen.h">
<polygon fill="white" stroke="black" points="178.432,-168.5 178.432,-187.5 252.432,-187.5 252.432,-168.5 178.432,-168.5"/>
<text text-anchor="middle" x="215.432" y="-175.5" font-family="Helvetica,sans-Serif" font-size="10.00">vhdldocgen.h</text>
</a>
</g>
</g>
<!-- Node0&#45;&gt;Node16 -->
<g id="edge19" class="edge"><title>Node0&#45;&gt;Node16</title>
<path fill="none" stroke="midnightblue" d="M476.821,-284.922C413.057,-278.564 301.175,-264.814 266.432,-244 247.658,-232.753 233.146,-211.823 224.485,-196.747"/>
<polygon fill="midnightblue" stroke="midnightblue" points="227.5,-194.965 219.653,-187.847 221.349,-198.305 227.5,-194.965"/>
</g>
<!-- Node19 -->
<g id="node20" class="node"><title>Node19</title>
<polygon fill="white" stroke="#bfbfbf" points="858.932,-224.5 858.932,-243.5 925.932,-243.5 925.932,-224.5 858.932,-224.5"/>
<text text-anchor="middle" x="892.432" y="-231.5" font-family="Helvetica,sans-Serif" font-size="10.00">qstringlist.h</text>
</g>
<!-- Node0&#45;&gt;Node19 -->
<g id="edge29" class="edge"><title>Node0&#45;&gt;Node19</title>
<path fill="none" stroke="midnightblue" d="M568.081,-283.735C629.511,-276.426 742.391,-262.209 848.735,-244.013"/>
<polygon fill="midnightblue" stroke="midnightblue" points="849.415,-247.447 858.674,-242.297 848.224,-240.549 849.415,-247.447"/>
</g>
<!-- Node20 -->
<g id="node21" class="node"><title>Node20</title>
<g id="a_node21"><a xlink:href="../../d7/dfe/vhdlcode_8h.html" target="_top" xlink:title="vhdlcode.h">
<polygon fill="white" stroke="black" points="944.432,-224.5 944.432,-243.5 1008.43,-243.5 1008.43,-224.5 944.432,-224.5"/>
<text text-anchor="middle" x="976.432" y="-231.5" font-family="Helvetica,sans-Serif" font-size="10.00">vhdlcode.h</text>
</a>
</g>
</g>
<!-- Node0&#45;&gt;Node20 -->
<g id="edge30" class="edge"><title>Node0&#45;&gt;Node20</title>
<path fill="none" stroke="midnightblue" d="M568.056,-285.552C644.261,-279.449 802.13,-265.343 934.432,-244 934.533,-243.984 934.635,-243.967 934.736,-243.951"/>
<polygon fill="midnightblue" stroke="midnightblue" points="935.167,-247.429 944.392,-242.219 933.931,-240.539 935.167,-247.429"/>
</g>
<!-- Node21 -->
<g id="node22" class="node"><title>Node21</title>
<g id="a_node22"><a xlink:href="../../dd/d78/memberlist_8h.html" target="_top" xlink:title="memberlist.h">
<polygon fill="white" stroke="black" points="308.932,-224.5 308.932,-243.5 381.932,-243.5 381.932,-224.5 308.932,-224.5"/>
<text text-anchor="middle" x="345.432" y="-231.5" font-family="Helvetica,sans-Serif" font-size="10.00">memberlist.h</text>
</a>
</g>
</g>
<!-- Node0&#45;&gt;Node21 -->
<g id="edge31" class="edge"><title>Node0&#45;&gt;Node21</title>
<path fill="none" stroke="midnightblue" d="M494.386,-280.444C464.35,-271.28 416.519,-256.688 383.189,-246.519"/>
<polygon fill="midnightblue" stroke="midnightblue" points="383.933,-243.087 373.347,-243.516 381.89,-249.782 383.933,-243.087"/>
</g>
<!-- Node27 -->
<g id="node28" class="node"><title>Node27</title>
<g id="a_node28"><a xlink:href="../../db/d16/config_8h.html" target="_top" xlink:title="config.h">
<polygon fill="white" stroke="black" points="1026.93,-224.5 1026.93,-243.5 1077.93,-243.5 1077.93,-224.5 1026.93,-224.5"/>
<text text-anchor="middle" x="1052.43" y="-231.5" font-family="Helvetica,sans-Serif" font-size="10.00">config.h</text>
</a>
</g>
</g>
<!-- Node0&#45;&gt;Node27 -->
<g id="edge46" class="edge"><title>Node0&#45;&gt;Node27</title>
<path fill="none" stroke="midnightblue" d="M568.136,-287.305C654.157,-283.583 846.045,-272.755 1016.99,-243.774"/>
<polygon fill="midnightblue" stroke="midnightblue" points="1017.66,-247.211 1026.92,-242.066 1016.47,-240.312 1017.66,-247.211"/>
</g>
<!-- Node1&#45;&gt;Node2 -->
<g id="edge2" class="edge"><title>Node1&#45;&gt;Node2</title>
<path fill="none" stroke="midnightblue" d="M73.1401,-112.444C95.7869,-103.517 131.504,-89.4387 157.184,-79.3168"/>
<polygon fill="midnightblue" stroke="midnightblue" points="158.806,-82.4397 166.826,-75.5164 156.239,-75.9273 158.806,-82.4397"/>
</g>
<!-- Node3 -->
<g id="node4" class="node"><title>Node3</title>
<polygon fill="white" stroke="#bfbfbf" points="24.4321,-56.5 24.4321,-75.5 78.4321,-75.5 78.4321,-56.5 24.4321,-56.5"/>
<text text-anchor="middle" x="51.4321" y="-63.5" font-family="Helvetica,sans-Serif" font-size="10.00">qstrlist.h</text>
</g>
<!-- Node1&#45;&gt;Node3 -->
<g id="edge3" class="edge"><title>Node1&#45;&gt;Node3</title>
<path fill="none" stroke="midnightblue" d="M51.4321,-112.083C51.4321,-105.006 51.4321,-94.8611 51.4321,-85.9865"/>
<polygon fill="midnightblue" stroke="midnightblue" points="54.9322,-85.751 51.4321,-75.7511 47.9322,-85.7511 54.9322,-85.751"/>
</g>
<!-- Node1&#45;&gt;Node4 -->
<g id="edge4" class="edge"><title>Node1&#45;&gt;Node4</title>
<path fill="none" stroke="midnightblue" d="M84.2465,-112.681C123.752,-102.665 189.789,-85.9237 230.001,-75.7289"/>
<polygon fill="midnightblue" stroke="midnightblue" points="231.048,-79.0743 239.881,-73.2241 229.328,-72.289 231.048,-79.0743"/>
</g>
<!-- Node5 -->
<g id="node6" class="node"><title>Node5</title>
<polygon fill="white" stroke="#bfbfbf" points="234.932,-0.5 234.932,-19.5 293.932,-19.5 293.932,-0.5 234.932,-0.5"/>
<text text-anchor="middle" x="264.432" y="-7.5" font-family="Helvetica,sans-Serif" font-size="10.00">qcstring.h</text>
</g>
<!-- Node4&#45;&gt;Node5 -->
<g id="edge5" class="edge"><title>Node4&#45;&gt;Node5</title>
<path fill="none" stroke="midnightblue" d="M264.432,-56.083C264.432,-49.0059 264.432,-38.8611 264.432,-29.9865"/>
<polygon fill="midnightblue" stroke="midnightblue" points="267.932,-29.751 264.432,-19.7511 260.932,-29.7511 267.932,-29.751"/>
</g>
<!-- Node13&#45;&gt;Node4 -->
<g id="edge16" class="edge"><title>Node13&#45;&gt;Node4</title>
<path fill="none" stroke="midnightblue" d="M443.645,-114.49C440.547,-113.648 437.414,-112.801 434.432,-112 387.538,-99.399 333.295,-85.0861 298.935,-76.0522"/>
<polygon fill="midnightblue" stroke="midnightblue" points="299.501,-72.5822 288.94,-73.4258 297.722,-79.3524 299.501,-72.5822"/>
</g>
<!-- Node14 -->
<g id="node15" class="node"><title>Node14</title>
<polygon fill="white" stroke="#bfbfbf" points="493.932,-56.5 493.932,-75.5 536.932,-75.5 536.932,-56.5 493.932,-56.5"/>
<text text-anchor="middle" x="515.432" y="-63.5" font-family="Helvetica,sans-Serif" font-size="10.00">qlist.h</text>
</g>
<!-- Node13&#45;&gt;Node14 -->
<g id="edge17" class="edge"><title>Node13&#45;&gt;Node14</title>
<path fill="none" stroke="midnightblue" d="M475.358,-112.083C482.278,-104.298 492.497,-92.8015 500.884,-83.3665"/>
<polygon fill="midnightblue" stroke="midnightblue" points="503.626,-85.5505 507.653,-75.7511 498.394,-80.8999 503.626,-85.5505"/>
</g>
<!-- Node15 -->
<g id="node16" class="node"><title>Node15</title>
<polygon fill="white" stroke="#bfbfbf" points="416.932,-56.5 416.932,-75.5 475.932,-75.5 475.932,-56.5 416.932,-56.5"/>
<text text-anchor="middle" x="446.432" y="-63.5" font-family="Helvetica,sans-Serif" font-size="10.00">qgstring.h</text>
</g>
<!-- Node13&#45;&gt;Node15 -->
<g id="edge18" class="edge"><title>Node13&#45;&gt;Node15</title>
<path fill="none" stroke="midnightblue" d="M463.964,-112.083C461.12,-104.77 457.003,-94.1814 453.472,-85.1034"/>
<polygon fill="midnightblue" stroke="midnightblue" points="456.722,-83.8025 449.835,-75.7511 450.198,-86.3397 456.722,-83.8025"/>
</g>
<!-- Node16&#45;&gt;Node2 -->
<g id="edge20" class="edge"><title>Node16&#45;&gt;Node2</title>
<path fill="none" stroke="midnightblue" d="M213.313,-168.368C208.956,-150.617 198.905,-109.666 192.997,-85.5974"/>
<polygon fill="midnightblue" stroke="midnightblue" points="196.324,-84.4688 190.541,-75.5914 189.526,-86.1375 196.324,-84.4688"/>
</g>
<!-- Node16&#45;&gt;Node5 -->
<g id="edge21" class="edge"><title>Node16&#45;&gt;Node5</title>
<path fill="none" stroke="midnightblue" d="M178.099,-174.321C124.584,-169.615 30.2086,-157.805 9.43207,-132 -1.55685,-118.351 -6.56607,-79.6433 15.4321,-56 43.1536,-26.2053 161.179,-15.9668 224.272,-12.5838"/>
<polygon fill="midnightblue" stroke="midnightblue" points="224.831,-16.0602 234.642,-12.063 224.479,-9.06903 224.831,-16.0602"/>
</g>
<!-- Node16&#45;&gt;Node13 -->
<g id="edge28" class="edge"><title>Node16&#45;&gt;Node13</title>
<path fill="none" stroke="midnightblue" d="M252.791,-170.074C294.548,-162.167 364.376,-148.452 433.883,-132.008"/>
<polygon fill="midnightblue" stroke="midnightblue" points="434.77,-135.395 443.685,-129.67 433.146,-128.586 434.77,-135.395"/>
</g>
<!-- Node17 -->
<g id="node18" class="node"><title>Node17</title>
<g id="a_node18"><a xlink:href="../../db/d51/layout_8h.html" target="_top" xlink:title="layout.h">
<polygon fill="white" stroke="black" points="374.932,-112.5 374.932,-131.5 425.932,-131.5 425.932,-112.5 374.932,-112.5"/>
<text text-anchor="middle" x="400.432" y="-119.5" font-family="Helvetica,sans-Serif" font-size="10.00">layout.h</text>
</a>
</g>
</g>
<!-- Node16&#45;&gt;Node17 -->
<g id="edge22" class="edge"><title>Node16&#45;&gt;Node17</title>
<path fill="none" stroke="midnightblue" d="M244.746,-168.444C277.387,-158.916 330.137,-143.519 365.049,-133.328"/>
<polygon fill="midnightblue" stroke="midnightblue" points="366.211,-136.635 374.83,-130.473 364.25,-129.915 366.211,-136.635"/>
</g>
<!-- Node18 -->
<g id="node19" class="node"><title>Node18</title>
<g id="a_node19"><a xlink:href="../../df/d9b/arguments_8h.html" target="_top" xlink:title="arguments.h">
<polygon fill="white" stroke="black" points="508.932,-112.5 508.932,-131.5 579.932,-131.5 579.932,-112.5 508.932,-112.5"/>
<text text-anchor="middle" x="544.432" y="-119.5" font-family="Helvetica,sans-Serif" font-size="10.00">arguments.h</text>
</a>
</g>
</g>
<!-- Node16&#45;&gt;Node18 -->
<g id="edge25" class="edge"><title>Node16&#45;&gt;Node18</title>
<path fill="none" stroke="midnightblue" d="M252.728,-171.58C305.232,-163.842 404.168,-148.87 498.59,-132.091"/>
<polygon fill="midnightblue" stroke="midnightblue" points="499.367,-135.507 508.595,-130.303 498.136,-128.616 499.367,-135.507"/>
</g>
<!-- Node17&#45;&gt;Node4 -->
<g id="edge24" class="edge"><title>Node17&#45;&gt;Node4</title>
<path fill="none" stroke="midnightblue" d="M378.882,-112.444C356.401,-103.517 320.944,-89.4387 295.452,-79.3168"/>
<polygon fill="midnightblue" stroke="midnightblue" points="296.467,-75.9539 285.881,-75.5164 293.883,-82.4598 296.467,-75.9539"/>
</g>
<!-- Node17&#45;&gt;Node14 -->
<g id="edge23" class="edge"><title>Node17&#45;&gt;Node14</title>
<path fill="none" stroke="midnightblue" d="M418.654,-112.444C437.328,-103.675 466.588,-89.9355 488.049,-79.8579"/>
<polygon fill="midnightblue" stroke="midnightblue" points="489.731,-82.935 497.295,-75.5164 486.756,-76.5988 489.731,-82.935"/>
</g>
<!-- Node18&#45;&gt;Node5 -->
<g id="edge27" class="edge"><title>Node18&#45;&gt;Node5</title>
<path fill="none" stroke="midnightblue" d="M547.822,-112.217C552.494,-98.468 558.905,-71.8024 545.432,-56 514.943,-20.2394 374.598,-12.7773 304.502,-11.3034"/>
<polygon fill="midnightblue" stroke="midnightblue" points="304.348,-7.80019 294.287,-11.1208 304.222,-14.7991 304.348,-7.80019"/>
</g>
<!-- Node18&#45;&gt;Node14 -->
<g id="edge26" class="edge"><title>Node18&#45;&gt;Node14</title>
<path fill="none" stroke="midnightblue" d="M539.643,-112.083C535.674,-104.691 529.907,-93.9533 524.997,-84.8111"/>
<polygon fill="midnightblue" stroke="midnightblue" points="527.947,-82.9051 520.132,-75.7511 521.78,-86.217 527.947,-82.9051"/>
</g>
<!-- Node21&#45;&gt;Node4 -->
<g id="edge45" class="edge"><title>Node21&#45;&gt;Node4</title>
<path fill="none" stroke="midnightblue" d="M336.084,-224.357C319.254,-208.135 284.234,-171.213 269.432,-132 263.868,-117.258 262.877,-99.3271 263.13,-86.0351"/>
<polygon fill="midnightblue" stroke="midnightblue" points="266.64,-85.8916 263.59,-75.7453 259.647,-85.5791 266.64,-85.8916"/>
</g>
<!-- Node21&#45;&gt;Node14 -->
<g id="edge32" class="edge"><title>Node21&#45;&gt;Node14</title>
<path fill="none" stroke="midnightblue" d="M382.17,-224.947C467.693,-205.84 674.306,-157.466 693.432,-132 732.012,-80.631 608.165,-69.8094 547.239,-67.5658"/>
<polygon fill="midnightblue" stroke="midnightblue" points="547.098,-64.0599 536.994,-67.2476 546.881,-71.0565 547.098,-64.0599"/>
</g>
<!-- Node22 -->
<g id="node23" class="node"><title>Node22</title>
<g id="a_node23"><a xlink:href="../../d4/d46/memberdef_8h.html" target="_top" xlink:title="memberdef.h">
<polygon fill="white" stroke="black" points="346.432,-168.5 346.432,-187.5 420.432,-187.5 420.432,-168.5 346.432,-168.5"/>
<text text-anchor="middle" x="383.432" y="-175.5" font-family="Helvetica,sans-Serif" font-size="10.00">memberdef.h</text>
</a>
</g>
</g>
<!-- Node21&#45;&gt;Node22 -->
<g id="edge33" class="edge"><title>Node21&#45;&gt;Node22</title>
<path fill="none" stroke="midnightblue" d="M351.707,-224.083C357.075,-216.455 364.95,-205.264 371.511,-195.941"/>
<polygon fill="midnightblue" stroke="midnightblue" points="374.381,-197.943 377.274,-187.751 368.657,-193.915 374.381,-197.943"/>
</g>
<!-- Node25 -->
<g id="node26" class="node"><title>Node25</title>
<g id="a_node26"><a xlink:href="../../d9/d21/sortdict_8h.html" target="_top" xlink:title="sortdict.h">
<polygon fill="white" stroke="black" points="760.932,-112.5 760.932,-131.5 817.932,-131.5 817.932,-112.5 760.932,-112.5"/>
<text text-anchor="middle" x="789.432" y="-119.5" font-family="Helvetica,sans-Serif" font-size="10.00">sortdict.h</text>
</a>
</g>
</g>
<!-- Node21&#45;&gt;Node25 -->
<g id="edge41" class="edge"><title>Node21&#45;&gt;Node25</title>
<path fill="none" stroke="midnightblue" d="M382.038,-225.522C385.209,-224.97 388.373,-224.453 391.432,-224 469.869,-212.375 678.573,-229.02 746.432,-188 764.12,-177.308 776.009,-156.234 782.722,-140.974"/>
<polygon fill="midnightblue" stroke="midnightblue" points="786.034,-142.119 786.55,-131.537 779.547,-139.488 786.034,-142.119"/>
</g>
<!-- Node22&#45;&gt;Node4 -->
<g id="edge36" class="edge"><title>Node22&#45;&gt;Node4</title>
<path fill="none" stroke="midnightblue" d="M346.412,-168.595C325.213,-161.982 299.68,-150.669 283.432,-132 272.226,-119.124 267.619,-99.9458 265.731,-85.7556"/>
<polygon fill="midnightblue" stroke="midnightblue" points="269.2,-85.264 264.725,-75.6603 262.234,-85.958 269.2,-85.264"/>
</g>
<!-- Node22&#45;&gt;Node14 -->
<g id="edge34" class="edge"><title>Node22&#45;&gt;Node14</title>
<path fill="none" stroke="midnightblue" d="M420.543,-177.009C491.663,-176.152 642.999,-169.814 675.432,-132 712.933,-88.2774 604.037,-73.5715 547.354,-68.9548"/>
<polygon fill="midnightblue" stroke="midnightblue" points="547.333,-65.4434 537.099,-68.1828 546.808,-72.4236 547.333,-65.4434"/>
</g>
<!-- Node23 -->
<g id="node24" class="node"><title>Node23</title>
<polygon fill="white" stroke="#bfbfbf" points="598.432,-112.5 598.432,-131.5 666.432,-131.5 666.432,-112.5 598.432,-112.5"/>
<text text-anchor="middle" x="632.432" y="-119.5" font-family="Helvetica,sans-Serif" font-size="10.00">sys/types.h</text>
</g>
<!-- Node22&#45;&gt;Node23 -->
<g id="edge35" class="edge"><title>Node22&#45;&gt;Node23</title>
<path fill="none" stroke="midnightblue" d="M420.441,-168.974C465.247,-159.257 540.624,-142.91 588.38,-132.553"/>
<polygon fill="midnightblue" stroke="midnightblue" points="589.393,-135.915 598.424,-130.375 587.909,-129.074 589.393,-135.915"/>
</g>
<!-- Node24 -->
<g id="node25" class="node"><title>Node24</title>
<g id="a_node25"><a xlink:href="../../df/da1/definition_8h.html" target="_top" xlink:title="definition.h">
<polygon fill="white" stroke="black" points="292.432,-112.5 292.432,-131.5 356.432,-131.5 356.432,-112.5 292.432,-112.5"/>
<text text-anchor="middle" x="324.432" y="-119.5" font-family="Helvetica,sans-Serif" font-size="10.00">definition.h</text>
</a>
</g>
</g>
<!-- Node22&#45;&gt;Node24 -->
<g id="edge37" class="edge"><title>Node22&#45;&gt;Node24</title>
<path fill="none" stroke="midnightblue" d="M373.953,-168.324C365.231,-160.341 352.089,-148.313 341.534,-138.653"/>
<polygon fill="midnightblue" stroke="midnightblue" points="343.824,-136.004 334.084,-131.834 339.098,-141.167 343.824,-136.004"/>
</g>
<!-- Node24&#45;&gt;Node2 -->
<g id="edge39" class="edge"><title>Node24&#45;&gt;Node2</title>
<path fill="none" stroke="midnightblue" d="M302.882,-112.444C280.401,-103.517 244.944,-89.4387 219.452,-79.3168"/>
<polygon fill="midnightblue" stroke="midnightblue" points="220.467,-75.9539 209.881,-75.5164 217.883,-82.4598 220.467,-75.9539"/>
</g>
<!-- Node24&#45;&gt;Node4 -->
<g id="edge40" class="edge"><title>Node24&#45;&gt;Node4</title>
<path fill="none" stroke="midnightblue" d="M314.792,-112.324C305.922,-104.341 292.557,-92.3128 281.824,-82.6529"/>
<polygon fill="midnightblue" stroke="midnightblue" points="284.022,-79.922 274.248,-75.8339 279.339,-85.1251 284.022,-79.922"/>
</g>
<!-- Node24&#45;&gt;Node14 -->
<g id="edge38" class="edge"><title>Node24&#45;&gt;Node14</title>
<path fill="none" stroke="midnightblue" d="M355.127,-112.449C385.401,-103.998 433.246,-90.5933 483.928,-76.1267"/>
<polygon fill="midnightblue" stroke="midnightblue" points="485.105,-79.4304 493.759,-73.3174 483.182,-72.6998 485.105,-79.4304"/>
</g>
<!-- Node25&#45;&gt;Node2 -->
<g id="edge43" class="edge"><title>Node25&#45;&gt;Node2</title>
<path fill="none" stroke="midnightblue" d="M760.548,-118.7C646.987,-109.655 237.07,-76.9741 230.432,-76 227.527,-75.5737 224.522,-75.0656 221.516,-74.5109"/>
<polygon fill="midnightblue" stroke="midnightblue" points="221.933,-71.025 211.441,-72.4972 220.561,-77.8892 221.933,-71.025"/>
</g>
<!-- Node25&#45;&gt;Node14 -->
<g id="edge42" class="edge"><title>Node25&#45;&gt;Node14</title>
<path fill="none" stroke="midnightblue" d="M760.762,-114.941C755.979,-113.947 751.067,-112.936 746.432,-112 675.245,-97.6172 591.548,-81.5128 547.032,-73.0115"/>
<polygon fill="midnightblue" stroke="midnightblue" points="547.587,-69.5542 537.108,-71.1183 546.275,-76.4302 547.587,-69.5542"/>
</g>
<!-- Node26 -->
<g id="node27" class="node"><title>Node26</title>
<polygon fill="white" stroke="#bfbfbf" points="761.432,-56.5 761.432,-75.5 817.432,-75.5 817.432,-56.5 761.432,-56.5"/>
<text text-anchor="middle" x="789.432" y="-63.5" font-family="Helvetica,sans-Serif" font-size="10.00">qintdict.h</text>
</g>
<!-- Node25&#45;&gt;Node26 -->
<g id="edge44" class="edge"><title>Node25&#45;&gt;Node26</title>
<path fill="none" stroke="midnightblue" d="M789.432,-112.083C789.432,-105.006 789.432,-94.8611 789.432,-85.9865"/>
<polygon fill="midnightblue" stroke="midnightblue" points="792.932,-85.751 789.432,-75.7511 785.932,-85.7511 792.932,-85.751"/>
</g>
<!-- Node28 -->
<g id="node29" class="node"><title>Node28</title>
<polygon fill="white" stroke="#bfbfbf" points="1012.43,-168.5 1012.43,-187.5 1092.43,-187.5 1092.43,-168.5 1012.43,-168.5"/>
<text text-anchor="middle" x="1052.43" y="-175.5" font-family="Helvetica,sans-Serif" font-size="10.00">configvalues.h</text>
</g>
<!-- Node27&#45;&gt;Node28 -->
<g id="edge47" class="edge"><title>Node27&#45;&gt;Node28</title>
<path fill="none" stroke="midnightblue" d="M1052.43,-224.083C1052.43,-217.006 1052.43,-206.861 1052.43,-197.986"/>
<polygon fill="midnightblue" stroke="midnightblue" points="1055.93,-197.751 1052.43,-187.751 1048.93,-197.751 1055.93,-197.751"/>
</g>
</g>
</svg>
        <g id="navigator" transform="translate(0 0)" fill="#404254">
                <rect fill="#f2f5e9" fill-opacity="0.5" stroke="#606060" stroke-width=".5" x="0" y="0" width="60" height="60"/>
                <use id="zoomplus" xlink:href="#zoomPlus" x="17" y="9" onmousedown="handleZoom(evt,'in')"/>
                <use id="zoomminus" xlink:href="#zoomMin" x="42" y="9" onmousedown="handleZoom(evt,'out')"/>
                <use id="reset" xlink:href="#resetDef" x="30" y="36" onmousedown="handleReset()"/>
                <g id="arrowUp" xlink:href="#dirArrow" transform="translate(30 24)" onmousedown="handlePan(0,-1)">
                  <use xlink:href="#rim" fill="#404040">
                        <set attributeName="fill" to="#808080" begin="arrowUp.mouseover" end="arrowUp.mouseout"/>
                  </use>
                  <path fill="none" stroke="white" stroke-width="1.5" d="M0,-3.0v7 M-2.5,-0.5L0,-3.0L2.5,-0.5"/>
                </g>
                <g id="arrowRight" xlink:href="#dirArrow" transform="rotate(90) translate(36 -43)" onmousedown="handlePan(1,0)">
                  <use xlink:href="#rim" fill="#404040">
                        <set attributeName="fill" to="#808080" begin="arrowRight.mouseover" end="arrowRight.mouseout"/>
                  </use>
                  <path fill="none" stroke="white" stroke-width="1.5" d="M0,-3.0v7 M-2.5,-0.5L0,-3.0L2.5,-0.5"/>
                </g>
                <g id="arrowDown" xlink:href="#dirArrow" transform="rotate(180) translate(-30 -48)" onmousedown="handlePan(0,1)">
                  <use xlink:href="#rim" fill="#404040">
                        <set attributeName="fill" to="#808080" begin="arrowDown.mouseover" end="arrowDown.mouseout"/>
                  </use>
                  <path fill="none" stroke="white" stroke-width="1.5" d="M0,-3.0v7 M-2.5,-0.5L0,-3.0L2.5,-0.5"/>
                </g>
                <g id="arrowLeft" xlink:href="#dirArrow" transform="rotate(270) translate(-36 17)" onmousedown="handlePan(-1,0)">
                  <use xlink:href="#rim" fill="#404040">
                        <set attributeName="fill" to="#808080" begin="arrowLeft.mouseover" end="arrowLeft.mouseout"/>
                  </use>
                  <path fill="none" stroke="white" stroke-width="1.5" d="M0,-3.0v7 M-2.5,-0.5L0,-3.0L2.5,-0.5"/>
                </g>
        </g>
        <svg viewBox="0 0 15 15" width="100%" height="30px" preserveAspectRatio="xMaxYMin meet">
         <g id="arrow_out" transform="scale(0.3 0.3)">
          <a xlink:href="vhdljjparser_8h__incl_org.svg" target="_base">
           <rect id="button" ry="5" rx="5" y="6" x="6" height="38" width="38"
                fill="#f2f5e9" fill-opacity="0.5" stroke="#606060" stroke-width="1.0"/>
           <path id="arrow"
             d="M 11.500037,31.436501 C 11.940474,20.09759 22.043105,11.32322 32.158766,21.979434 L 37.068811,17.246167 C 37.068811,17.246167 37.088388,32 37.088388,32 L 22.160133,31.978069 C 22.160133,31.978069 26.997745,27.140456 26.997745,27.140456 C 18.528582,18.264221 13.291696,25.230495 11.500037,31.436501 z"
             style="fill:#404040;"/>
          </a>
         </g>
        </svg>
</svg>
