<?xml version="1.0" encoding="UTF-8" standalone="no"?>
<!DOCTYPE svg PUBLIC "-//W3C//DTD SVG 1.1//EN"
 "http://www.w3.org/Graphics/SVG/1.1/DTD/svg11.dtd">
<!-- Generated by graphviz version 2.38.0 (20140413.2041)
 -->
<!-- Title: src/doctokenizer.h Pages: 1 -->
<svg width="186pt" height="140pt"
 viewBox="0.00 0.00 186.00 140.00" xmlns="http://www.w3.org/2000/svg" xmlns:xlink="http://www.w3.org/1999/xlink">
<g id="graph0" class="graph" transform="scale(1 1) rotate(0) translate(4 136)">
<title>src/doctokenizer.h</title>
<polygon fill="white" stroke="none" points="-4,4 -4,-136 182,-136 182,4 -4,4"/>
<!-- Node0 -->
<g id="node1" class="node"><title>Node0</title>
<polygon fill="#bfbfbf" stroke="black" points="50,-112.5 50,-131.5 147,-131.5 147,-112.5 50,-112.5"/>
<text text-anchor="middle" x="98.5" y="-119.5" font-family="Helvetica,sans-Serif" font-size="10.00">src/doctokenizer.h</text>
</g>
<!-- Node1 -->
<g id="node2" class="node"><title>Node1</title>
<polygon fill="white" stroke="#bfbfbf" points="0,-0.5 0,-19.5 59,-19.5 59,-0.5 0,-0.5"/>
<text text-anchor="middle" x="29.5" y="-7.5" font-family="Helvetica,sans-Serif" font-size="10.00">qcstring.h</text>
</g>
<!-- Node0&#45;&gt;Node1 -->
<g id="edge1" class="edge"><title>Node0&#45;&gt;Node1</title>
<path fill="none" stroke="midnightblue" d="M68.6193,-112.387C50.9604,-105.587 30.0494,-94.15 19.5,-76 11.1789,-61.6837 15.4956,-42.7265 20.8015,-28.9818"/>
<polygon fill="midnightblue" stroke="midnightblue" points="24.0811,-30.2165 24.8588,-19.6503 17.6616,-27.4253 24.0811,-30.2165"/>
</g>
<!-- Node2 -->
<g id="node3" class="node"><title>Node2</title>
<polygon fill="white" stroke="#bfbfbf" points="135,-0.5 135,-19.5 178,-19.5 178,-0.5 135,-0.5"/>
<text text-anchor="middle" x="156.5" y="-7.5" font-family="Helvetica,sans-Serif" font-size="10.00">qlist.h</text>
</g>
<!-- Node0&#45;&gt;Node2 -->
<g id="edge2" class="edge"><title>Node0&#45;&gt;Node2</title>
<path fill="none" stroke="midnightblue" d="M122.288,-112.499C138.221,-105.413 157.963,-93.6052 167.5,-76 175.406,-61.4048 170.824,-42.4847 165.365,-28.8245"/>
<polygon fill="midnightblue" stroke="midnightblue" points="168.498,-27.2556 161.213,-19.5625 162.11,-30.1193 168.498,-27.2556"/>
</g>
<!-- Node3 -->
<g id="node4" class="node"><title>Node3</title>
<polygon fill="white" stroke="#bfbfbf" points="112.5,-56.5 112.5,-75.5 158.5,-75.5 158.5,-56.5 112.5,-56.5"/>
<text text-anchor="middle" x="135.5" y="-63.5" font-family="Helvetica,sans-Serif" font-size="10.00">stdio.h</text>
</g>
<!-- Node0&#45;&gt;Node3 -->
<g id="edge3" class="edge"><title>Node0&#45;&gt;Node3</title>
<path fill="none" stroke="midnightblue" d="M104.61,-112.083C109.782,-104.534 117.346,-93.4948 123.694,-84.2298"/>
<polygon fill="midnightblue" stroke="midnightblue" points="126.739,-85.9787 129.504,-75.7511 120.964,-82.0221 126.739,-85.9787"/>
</g>
<!-- Node4 -->
<g id="node5" class="node"><title>Node4</title>
<g id="a_node5"><a xlink:href="../../d0/d73/htmlattrib_8h.html" target="_top" xlink:title="htmlattrib.h">
<polygon fill="white" stroke="black" points="29,-56.5 29,-75.5 94,-75.5 94,-56.5 29,-56.5"/>
<text text-anchor="middle" x="61.5" y="-63.5" font-family="Helvetica,sans-Serif" font-size="10.00">htmlattrib.h</text>
</a>
</g>
</g>
<!-- Node0&#45;&gt;Node4 -->
<g id="edge4" class="edge"><title>Node0&#45;&gt;Node4</title>
<path fill="none" stroke="midnightblue" d="M92.3902,-112.083C87.2178,-104.534 79.6539,-93.4948 73.3056,-84.2298"/>
<polygon fill="midnightblue" stroke="midnightblue" points="76.0357,-82.0221 67.4961,-75.7511 70.2612,-85.9787 76.0357,-82.0221"/>
</g>
<!-- Node4&#45;&gt;Node1 -->
<g id="edge5" class="edge"><title>Node4&#45;&gt;Node1</title>
<path fill="none" stroke="midnightblue" d="M56.2159,-56.083C51.789,-48.6127 45.3367,-37.7244 39.8821,-28.5199"/>
<polygon fill="midnightblue" stroke="midnightblue" points="42.7949,-26.5697 34.6858,-19.7511 36.7729,-30.1383 42.7949,-26.5697"/>
</g>
<!-- Node4&#45;&gt;Node2 -->
<g id="edge6" class="edge"><title>Node4&#45;&gt;Node2</title>
<path fill="none" stroke="midnightblue" d="M76.7634,-56.324C91.7214,-47.8215 114.755,-34.7288 132.227,-24.7975"/>
<polygon fill="midnightblue" stroke="midnightblue" points="134.31,-27.639 141.274,-19.6545 130.851,-21.5534 134.31,-27.639"/>
</g>
</g>
</svg>
