<?xml version="1.0" encoding="UTF-8" standalone="no"?>
<!DOCTYPE svg PUBLIC "-//W3C//DTD SVG 1.1//EN"
 "http://www.w3.org/Graphics/SVG/1.1/DTD/svg11.dtd">
<!-- Generated by graphviz version 2.38.0 (20140413.2041)
 -->
<!-- Title: src/latexdocvisitor.h Pages: 1 -->
<svg width="286pt" height="84pt"
 viewBox="0.00 0.00 286.00 84.00" xmlns="http://www.w3.org/2000/svg" xmlns:xlink="http://www.w3.org/1999/xlink">
<g id="graph0" class="graph" transform="scale(1 1) rotate(0) translate(4 80)">
<title>src/latexdocvisitor.h</title>
<polygon fill="white" stroke="none" points="-4,4 -4,-80 282,-80 282,4 -4,4"/>
<!-- Node0 -->
<g id="node1" class="node"><title>Node0</title>
<polygon fill="#bfbfbf" stroke="black" points="97.5,-56.5 97.5,-75.5 201.5,-75.5 201.5,-56.5 97.5,-56.5"/>
<text text-anchor="middle" x="149.5" y="-63.5" font-family="Helvetica,sans-Serif" font-size="10.00">src/latexdocvisitor.h</text>
</g>
<!-- Node1 -->
<g id="node2" class="node"><title>Node1</title>
<g id="a_node2"><a xlink:href="../../d2/d3c/docvisitor_8h.html" target="_top" xlink:title="docvisitor.h">
<polygon fill="white" stroke="black" points="0,-0.5 0,-19.5 67,-19.5 67,-0.5 0,-0.5"/>
<text text-anchor="middle" x="33.5" y="-7.5" font-family="Helvetica,sans-Serif" font-size="10.00">docvisitor.h</text>
</a>
</g>
</g>
<!-- Node0&#45;&gt;Node1 -->
<g id="edge1" class="edge"><title>Node0&#45;&gt;Node1</title>
<path fill="none" stroke="midnightblue" d="M131.119,-56.4435C112.284,-47.6751 82.7688,-33.9355 61.1207,-23.8579"/>
<polygon fill="midnightblue" stroke="midnightblue" points="62.3375,-20.5637 51.7946,-19.5164 59.3833,-26.9098 62.3375,-20.5637"/>
</g>
<!-- Node2 -->
<g id="node3" class="node"><title>Node2</title>
<polygon fill="white" stroke="#bfbfbf" points="85.5,-0.5 85.5,-19.5 139.5,-19.5 139.5,-0.5 85.5,-0.5"/>
<text text-anchor="middle" x="112.5" y="-7.5" font-family="Helvetica,sans-Serif" font-size="10.00">qstack.h</text>
</g>
<!-- Node0&#45;&gt;Node2 -->
<g id="edge2" class="edge"><title>Node0&#45;&gt;Node2</title>
<path fill="none" stroke="midnightblue" d="M143.39,-56.083C138.218,-48.5341 130.654,-37.4948 124.306,-28.2298"/>
<polygon fill="midnightblue" stroke="midnightblue" points="127.036,-26.0221 118.496,-19.7511 121.261,-29.9787 127.036,-26.0221"/>
</g>
<!-- Node3 -->
<g id="node4" class="node"><title>Node3</title>
<polygon fill="white" stroke="#bfbfbf" points="158,-0.5 158,-19.5 217,-19.5 217,-0.5 158,-0.5"/>
<text text-anchor="middle" x="187.5" y="-7.5" font-family="Helvetica,sans-Serif" font-size="10.00">qcstring.h</text>
</g>
<!-- Node0&#45;&gt;Node3 -->
<g id="edge3" class="edge"><title>Node0&#45;&gt;Node3</title>
<path fill="none" stroke="midnightblue" d="M155.775,-56.083C161.142,-48.4554 169.018,-37.2645 175.579,-27.9408"/>
<polygon fill="midnightblue" stroke="midnightblue" points="178.449,-29.9434 181.342,-19.7511 172.725,-25.9149 178.449,-29.9434"/>
</g>
<!-- Node4 -->
<g id="node5" class="node"><title>Node4</title>
<polygon fill="white" stroke="#bfbfbf" points="235,-0.5 235,-19.5 278,-19.5 278,-0.5 235,-0.5"/>
<text text-anchor="middle" x="256.5" y="-7.5" font-family="Helvetica,sans-Serif" font-size="10.00">qlist.h</text>
</g>
<!-- Node0&#45;&gt;Node4 -->
<g id="edge4" class="edge"><title>Node0&#45;&gt;Node4</title>
<path fill="none" stroke="midnightblue" d="M166.691,-56.324C183.851,-47.6641 210.446,-34.2424 230.247,-24.249"/>
<polygon fill="midnightblue" stroke="midnightblue" points="232.001,-27.2847 239.351,-19.6545 228.847,-21.0354 232.001,-27.2847"/>
</g>
</g>
</svg>
