<?xml version="1.0" encoding="UTF-8" standalone="no"?>
<!DOCTYPE svg PUBLIC "-//W3C//DTD SVG 1.1//EN"
 "http://www.w3.org/Graphics/SVG/1.1/DTD/svg11.dtd">
<!-- Generated by graphviz version 2.38.0 (20140413.2041)
 -->
<!-- Title: DotGfxHierarchyTable Pages: 1 -->
<svg width="145pt" height="152pt"
 viewBox="0.00 0.00 145.00 152.00" xmlns="http://www.w3.org/2000/svg" xmlns:xlink="http://www.w3.org/1999/xlink">
<g id="graph0" class="graph" transform="scale(1 1) rotate(0) translate(4 148)">
<title>DotGfxHierarchyTable</title>
<polygon fill="white" stroke="none" points="-4,4 -4,-148 141,-148 141,4 -4,4"/>
<!-- Node1 -->
<g id="node1" class="node"><title>Node1</title>
<polygon fill="#bfbfbf" stroke="black" points="0,-0.5 0,-19.5 114,-19.5 114,-0.5 0,-0.5"/>
<text text-anchor="middle" x="57" y="-7.5" font-family="Helvetica,sans-Serif" font-size="10.00">DotGfxHierarchyTable</text>
</g>
<!-- Node2 -->
<g id="node2" class="node"><title>Node2</title>
<g id="a_node2"><a xlink:href="../../d9/df9/class_dot_node_list.html" target="_top" xlink:title="Class representing a list of DotNode objects. ">
<polygon fill="white" stroke="black" points="21.5,-67.5 21.5,-86.5 92.5,-86.5 92.5,-67.5 21.5,-67.5"/>
<text text-anchor="middle" x="57" y="-74.5" font-family="Helvetica,sans-Serif" font-size="10.00">DotNodeList</text>
</a>
</g>
</g>
<!-- Node2&#45;&gt;Node1 -->
<g id="edge1" class="edge"><title>Node2&#45;&gt;Node1</title>
<path fill="none" stroke="#9a32cd" stroke-dasharray="5,2" d="M57,-57.037C57,-44.6703 57,-29.1198 57,-19.6273"/>
<polygon fill="#9a32cd" stroke="#9a32cd" points="53.5001,-57.2338 57,-67.2338 60.5001,-57.2338 53.5001,-57.2338"/>
<text text-anchor="middle" x="97" y="-41" font-family="Helvetica,sans-Serif" font-size="10.00"> m_rootSubgraphs</text>
</g>
<!-- Node3 -->
<g id="node3" class="node"><title>Node3</title>
<polygon fill="white" stroke="#bfbfbf" points="8.5,-124.5 8.5,-143.5 105.5,-143.5 105.5,-124.5 8.5,-124.5"/>
<text text-anchor="middle" x="57" y="-131.5" font-family="Helvetica,sans-Serif" font-size="10.00">QList&lt; DotNode &gt;</text>
</g>
<!-- Node3&#45;&gt;Node2 -->
<g id="edge2" class="edge"><title>Node3&#45;&gt;Node2</title>
<path fill="none" stroke="midnightblue" d="M57,-114.117C57,-104.817 57,-94.0557 57,-86.7149"/>
<polygon fill="midnightblue" stroke="midnightblue" points="53.5001,-114.406 57,-124.406 60.5001,-114.406 53.5001,-114.406"/>
</g>
</g>
</svg>
