<?xml version="1.0" encoding="UTF-8" standalone="no"?>
<!DOCTYPE svg PUBLIC "-//W3C//DTD SVG 1.1//EN"
 "http://www.w3.org/Graphics/SVG/1.1/DTD/svg11.dtd">
<!-- Generated by graphviz version 2.38.0 (20140413.2041)
 -->
<!-- Title: src/dia.cpp Pages: 1 -->
<!--zoomable 252 -->
<svg id="main" version="1.1" xmlns="http://www.w3.org/2000/svg" xmlns:xlink="http://www.w3.org/1999/xlink" xml:space="preserve" onload="init(evt)">
<style type="text/css"><![CDATA[
.edge:hover path { stroke: red; }
.edge:hover polygon { stroke: red; fill: red; }
]]></style>
<script type="text/javascript"><![CDATA[
var edges = document.getElementsByTagName('g');
if (edges && edges.length) {
  for (var i=0;i<edges.length;i++) {
    if (edges[i].id.substr(0,4)=='edge') {
      edges[i].setAttribute('class','edge');
    }
  }
}
]]></script>
        <defs>
                <circle id="rim" cx="0" cy="0" r="7"/>
                <circle id="rim2" cx="0" cy="0" r="3.5"/>
                <g id="zoomPlus">
                        <use xlink:href="#rim" fill="#404040">
                                <set attributeName="fill" to="#808080" begin="zoomplus.mouseover" end="zoomplus.mouseout"/>
                        </use>
                        <path d="M-4,0h8M0,-4v8" fill="none" stroke="white" stroke-width="1.5" pointer-events="none"/>
                </g>
                <g id="zoomMin">
                        <use xlink:href="#rim" fill="#404040">
                                <set attributeName="fill" to="#808080" begin="zoomminus.mouseover" end="zoomminus.mouseout"/>
                        </use>
                        <path d="M-4,0h8" fill="none" stroke="white" stroke-width="1.5" pointer-events="none"/>
                </g>
                <g id="dirArrow">
                        <path fill="none" stroke="white" stroke-width="1.5" d="M0,-3.0v7 M-2.5,-0.5L0,-3.0L2.5,-0.5"/>
                </g>
               <g id="resetDef">
                       <use xlink:href="#rim2" fill="#404040">
                               <set attributeName="fill" to="#808080" begin="reset.mouseover" end="reset.mouseout"/>
                       </use>
               </g>
        </defs>

<script type="text/javascript">
var viewWidth = 735;
var viewHeight = 252;
var sectionId = 'dynsection-0';
</script>
<script xlink:href="../../svgpan.js"/>
<svg id="graph" class="graph">
<g id="viewport">
<title>src/dia.cpp</title>
<polygon fill="white" stroke="none" points="-4,4 -4,-248 730.629,-248 730.629,4 -4,4"/>
<!-- Node0 -->
<g id="node1" class="node"><title>Node0</title>
<polygon fill="#bfbfbf" stroke="black" points="239.5,-224.5 239.5,-243.5 304.5,-243.5 304.5,-224.5 239.5,-224.5"/>
<text text-anchor="middle" x="272" y="-231.5" font-family="Helvetica,sans-Serif" font-size="10.00">src/dia.cpp</text>
</g>
<!-- Node1 -->
<g id="node2" class="node"><title>Node1</title>
<g id="a_node2"><a xlink:href="../../da/d49/dia_8h.html" target="_top" xlink:title="dia.h">
<polygon fill="white" stroke="black" points="15,-168.5 15,-187.5 53,-187.5 53,-168.5 15,-168.5"/>
<text text-anchor="middle" x="34" y="-175.5" font-family="Helvetica,sans-Serif" font-size="10.00">dia.h</text>
</a>
</g>
</g>
<!-- Node0&#45;&gt;Node1 -->
<g id="edge1" class="edge"><title>Node0&#45;&gt;Node1</title>
<path fill="none" stroke="midnightblue" d="M239.382,-227.059C199.831,-219.626 130.982,-205.959 63.1949,-188.115"/>
<polygon fill="midnightblue" stroke="midnightblue" points="63.7689,-184.645 53.2048,-185.452 61.9659,-191.409 63.7689,-184.645"/>
</g>
<!-- Node2 -->
<g id="node3" class="node"><title>Node2</title>
<g id="a_node3"><a xlink:href="../../d2/de2/portable_8h.html" target="_top" xlink:title="Portable versions of functions that are platform dependent. ">
<polygon fill="white" stroke="black" points="201.5,-168.5 201.5,-187.5 260.5,-187.5 260.5,-168.5 201.5,-168.5"/>
<text text-anchor="middle" x="231" y="-175.5" font-family="Helvetica,sans-Serif" font-size="10.00">portable.h</text>
</a>
</g>
</g>
<!-- Node0&#45;&gt;Node2 -->
<g id="edge2" class="edge"><title>Node0&#45;&gt;Node2</title>
<path fill="none" stroke="midnightblue" d="M265.23,-224.083C259.438,-216.455 250.942,-205.264 243.862,-195.941"/>
<polygon fill="midnightblue" stroke="midnightblue" points="246.479,-193.599 237.644,-187.751 240.904,-197.832 246.479,-193.599"/>
</g>
<!-- Node6 -->
<g id="node7" class="node"><title>Node6</title>
<g id="a_node7"><a xlink:href="../../db/d16/config_8h.html" target="_top" xlink:title="config.h">
<polygon fill="white" stroke="black" points="287.5,-168.5 287.5,-187.5 338.5,-187.5 338.5,-168.5 287.5,-168.5"/>
<text text-anchor="middle" x="313" y="-175.5" font-family="Helvetica,sans-Serif" font-size="10.00">config.h</text>
</a>
</g>
</g>
<!-- Node0&#45;&gt;Node6 -->
<g id="edge6" class="edge"><title>Node0&#45;&gt;Node6</title>
<path fill="none" stroke="midnightblue" d="M278.77,-224.083C284.562,-216.455 293.058,-205.264 300.138,-195.941"/>
<polygon fill="midnightblue" stroke="midnightblue" points="303.096,-197.832 306.356,-187.751 297.521,-193.599 303.096,-197.832"/>
</g>
<!-- Node8 -->
<g id="node9" class="node"><title>Node8</title>
<g id="a_node9"><a xlink:href="../../d2/d0d/message_8h.html" target="_top" xlink:title="message.h">
<polygon fill="white" stroke="black" points="71.5,-168.5 71.5,-187.5 136.5,-187.5 136.5,-168.5 71.5,-168.5"/>
<text text-anchor="middle" x="104" y="-175.5" font-family="Helvetica,sans-Serif" font-size="10.00">message.h</text>
</a>
</g>
</g>
<!-- Node0&#45;&gt;Node8 -->
<g id="edge8" class="edge"><title>Node0&#45;&gt;Node8</title>
<path fill="none" stroke="midnightblue" d="M245.38,-224.444C216.994,-215.32 171.863,-200.813 140.247,-190.651"/>
<polygon fill="midnightblue" stroke="midnightblue" points="141.087,-187.244 130.496,-187.516 138.945,-193.909 141.087,-187.244"/>
</g>
<!-- Node10 -->
<g id="node11" class="node"><title>Node10</title>
<g id="a_node11"><a xlink:href="../../d8/d3c/util_8h.html" target="_top" xlink:title="A bunch of utility functions. ">
<polygon fill="white" stroke="black" points="457,-168.5 457,-187.5 495,-187.5 495,-168.5 457,-168.5"/>
<text text-anchor="middle" x="476" y="-175.5" font-family="Helvetica,sans-Serif" font-size="10.00">util.h</text>
</a>
</g>
</g>
<!-- Node0&#45;&gt;Node10 -->
<g id="edge11" class="edge"><title>Node0&#45;&gt;Node10</title>
<path fill="none" stroke="midnightblue" d="M304.324,-224.444C343.656,-214.032 409.464,-196.612 447.153,-186.636"/>
<polygon fill="midnightblue" stroke="midnightblue" points="448.221,-189.974 456.992,-184.032 446.429,-183.207 448.221,-189.974"/>
</g>
<!-- Node21 -->
<g id="node22" class="node"><title>Node21</title>
<polygon fill="white" stroke="#bfbfbf" points="513.5,-168.5 513.5,-187.5 554.5,-187.5 554.5,-168.5 513.5,-168.5"/>
<text text-anchor="middle" x="534" y="-175.5" font-family="Helvetica,sans-Serif" font-size="10.00">qdir.h</text>
</g>
<!-- Node0&#45;&gt;Node21 -->
<g id="edge28" class="edge"><title>Node0&#45;&gt;Node21</title>
<path fill="none" stroke="midnightblue" d="M304.883,-227.687C348.196,-220.457 426.89,-206.524 503.59,-187.887"/>
<polygon fill="midnightblue" stroke="midnightblue" points="504.543,-191.257 513.418,-185.47 502.871,-184.459 504.543,-191.257"/>
</g>
<!-- Node3 -->
<g id="node4" class="node"><title>Node3</title>
<polygon fill="white" stroke="#bfbfbf" points="220,-112.5 220,-131.5 288,-131.5 288,-112.5 220,-112.5"/>
<text text-anchor="middle" x="254" y="-119.5" font-family="Helvetica,sans-Serif" font-size="10.00">sys/types.h</text>
</g>
<!-- Node2&#45;&gt;Node3 -->
<g id="edge3" class="edge"><title>Node2&#45;&gt;Node3</title>
<path fill="none" stroke="midnightblue" d="M234.798,-168.083C237.913,-160.77 242.423,-150.181 246.289,-141.103"/>
<polygon fill="midnightblue" stroke="midnightblue" points="249.574,-142.323 250.273,-131.751 243.134,-139.58 249.574,-142.323"/>
</g>
<!-- Node4 -->
<g id="node5" class="node"><title>Node4</title>
<polygon fill="white" stroke="#bfbfbf" points="95,-56.5 95,-75.5 141,-75.5 141,-56.5 95,-56.5"/>
<text text-anchor="middle" x="118" y="-63.5" font-family="Helvetica,sans-Serif" font-size="10.00">stdio.h</text>
</g>
<!-- Node2&#45;&gt;Node4 -->
<g id="edge4" class="edge"><title>Node2&#45;&gt;Node4</title>
<path fill="none" stroke="midnightblue" d="M201.136,-169.685C180.358,-163.117 153.52,-151.44 137,-132 125.947,-118.992 121.32,-99.832 119.385,-85.6817"/>
<polygon fill="midnightblue" stroke="midnightblue" points="122.854,-85.2053 118.339,-75.6207 115.892,-85.929 122.854,-85.2053"/>
</g>
<!-- Node5 -->
<g id="node6" class="node"><title>Node5</title>
<polygon fill="white" stroke="#bfbfbf" points="146,-112.5 146,-131.5 202,-131.5 202,-112.5 146,-112.5"/>
<text text-anchor="middle" x="174" y="-119.5" font-family="Helvetica,sans-Serif" font-size="10.00">qglobal.h</text>
</g>
<!-- Node2&#45;&gt;Node5 -->
<g id="edge5" class="edge"><title>Node2&#45;&gt;Node5</title>
<path fill="none" stroke="midnightblue" d="M221.842,-168.324C213.499,-160.42 200.968,-148.548 190.823,-138.938"/>
<polygon fill="midnightblue" stroke="midnightblue" points="192.991,-136.171 183.325,-131.834 188.177,-141.252 192.991,-136.171"/>
</g>
<!-- Node7 -->
<g id="node8" class="node"><title>Node7</title>
<polygon fill="white" stroke="#bfbfbf" points="306,-112.5 306,-131.5 386,-131.5 386,-112.5 306,-112.5"/>
<text text-anchor="middle" x="346" y="-119.5" font-family="Helvetica,sans-Serif" font-size="10.00">configvalues.h</text>
</g>
<!-- Node6&#45;&gt;Node7 -->
<g id="edge7" class="edge"><title>Node6&#45;&gt;Node7</title>
<path fill="none" stroke="midnightblue" d="M318.449,-168.083C323.014,-160.613 329.668,-149.724 335.293,-140.52"/>
<polygon fill="midnightblue" stroke="midnightblue" points="338.424,-142.109 340.652,-131.751 332.451,-138.459 338.424,-142.109"/>
</g>
<!-- Node8&#45;&gt;Node4 -->
<g id="edge9" class="edge"><title>Node8&#45;&gt;Node4</title>
<path fill="none" stroke="midnightblue" d="M103.16,-168.105C102.161,-155.526 100.982,-131.859 104,-112 105.368,-103.001 108.19,-93.3251 110.945,-85.2601"/>
<polygon fill="midnightblue" stroke="midnightblue" points="114.265,-86.3722 114.4,-75.7782 107.688,-83.9759 114.265,-86.3722"/>
</g>
<!-- Node9 -->
<g id="node10" class="node"><title>Node9</title>
<polygon fill="white" stroke="#bfbfbf" points="0,-112.5 0,-131.5 52,-131.5 52,-112.5 0,-112.5"/>
<text text-anchor="middle" x="26" y="-119.5" font-family="Helvetica,sans-Serif" font-size="10.00">stdarg.h</text>
</g>
<!-- Node8&#45;&gt;Node9 -->
<g id="edge10" class="edge"><title>Node8&#45;&gt;Node9</title>
<path fill="none" stroke="midnightblue" d="M91.468,-168.324C79.4141,-159.979 60.9732,-147.212 46.7313,-137.352"/>
<polygon fill="midnightblue" stroke="midnightblue" points="48.7151,-134.469 38.5009,-131.655 44.7306,-140.224 48.7151,-134.469"/>
</g>
<!-- Node11 -->
<g id="node12" class="node"><title>Node11</title>
<polygon fill="white" stroke="#bfbfbf" points="525.5,-0.5 525.5,-19.5 568.5,-19.5 568.5,-0.5 525.5,-0.5"/>
<text text-anchor="middle" x="547" y="-7.5" font-family="Helvetica,sans-Serif" font-size="10.00">qlist.h</text>
</g>
<!-- Node10&#45;&gt;Node11 -->
<g id="edge12" class="edge"><title>Node10&#45;&gt;Node11</title>
<path fill="none" stroke="midnightblue" d="M495.275,-170.761C498.508,-169.788 501.839,-168.832 505,-168 578.009,-148.794 605.411,-169.379 671,-132 700.509,-115.183 710.585,-107.614 723,-76 745.818,-17.8943 635.834,-10.3588 579.098,-10.242"/>
<polygon fill="midnightblue" stroke="midnightblue" points="578.821,-6.74343 568.841,-10.3003 578.861,-13.7433 578.821,-6.74343"/>
</g>
<!-- Node12 -->
<g id="node13" class="node"><title>Node12</title>
<polygon fill="white" stroke="#bfbfbf" points="612.5,-112.5 612.5,-131.5 661.5,-131.5 661.5,-112.5 612.5,-112.5"/>
<text text-anchor="middle" x="637" y="-119.5" font-family="Helvetica,sans-Serif" font-size="10.00">ctype.h</text>
</g>
<!-- Node10&#45;&gt;Node12 -->
<g id="edge13" class="edge"><title>Node10&#45;&gt;Node12</title>
<path fill="none" stroke="midnightblue" d="M495.101,-170.593C521.597,-161.707 569.941,-145.492 602.759,-134.485"/>
<polygon fill="midnightblue" stroke="midnightblue" points="604.036,-137.748 612.404,-131.25 601.81,-131.111 604.036,-137.748"/>
</g>
<!-- Node13 -->
<g id="node14" class="node"><title>Node13</title>
<g id="a_node14"><a xlink:href="../../d9/d49/types_8h.html" target="_top" xlink:title="This file contains a number of basic enums and types. ">
<polygon fill="white" stroke="black" points="243.5,-56.5 243.5,-75.5 292.5,-75.5 292.5,-56.5 243.5,-56.5"/>
<text text-anchor="middle" x="268" y="-63.5" font-family="Helvetica,sans-Serif" font-size="10.00">types.h</text>
</a>
</g>
</g>
<!-- Node10&#45;&gt;Node13 -->
<g id="edge14" class="edge"><title>Node10&#45;&gt;Node13</title>
<path fill="none" stroke="midnightblue" d="M467.26,-168.3C453.146,-154.663 423.98,-128.149 395,-112 365.597,-95.6152 329.122,-83.4321 302.816,-75.904"/>
<polygon fill="midnightblue" stroke="midnightblue" points="303.49,-72.4588 292.917,-73.1533 301.615,-79.2032 303.49,-72.4588"/>
</g>
<!-- Node15 -->
<g id="node16" class="node"><title>Node15</title>
<g id="a_node16"><a xlink:href="../../d9/d21/sortdict_8h.html" target="_top" xlink:title="sortdict.h">
<polygon fill="white" stroke="black" points="537.5,-112.5 537.5,-131.5 594.5,-131.5 594.5,-112.5 537.5,-112.5"/>
<text text-anchor="middle" x="566" y="-119.5" font-family="Helvetica,sans-Serif" font-size="10.00">sortdict.h</text>
</a>
</g>
</g>
<!-- Node10&#45;&gt;Node15 -->
<g id="edge16" class="edge"><title>Node10&#45;&gt;Node15</title>
<path fill="none" stroke="midnightblue" d="M490.46,-168.324C504.5,-159.9 526.048,-146.971 542.543,-137.074"/>
<polygon fill="midnightblue" stroke="midnightblue" points="544.802,-139.801 551.576,-131.655 541.2,-133.798 544.802,-139.801"/>
</g>
<!-- Node18 -->
<g id="node19" class="node"><title>Node18</title>
<g id="a_node19"><a xlink:href="../../de/d9c/docparser_8h.html" target="_top" xlink:title="docparser.h">
<polygon fill="white" stroke="black" points="442,-112.5 442,-131.5 510,-131.5 510,-112.5 442,-112.5"/>
<text text-anchor="middle" x="476" y="-119.5" font-family="Helvetica,sans-Serif" font-size="10.00">docparser.h</text>
</a>
</g>
</g>
<!-- Node10&#45;&gt;Node18 -->
<g id="edge20" class="edge"><title>Node10&#45;&gt;Node18</title>
<path fill="none" stroke="midnightblue" d="M476,-168.083C476,-161.006 476,-150.861 476,-141.986"/>
<polygon fill="midnightblue" stroke="midnightblue" points="479.5,-141.751 476,-131.751 472.5,-141.751 479.5,-141.751"/>
</g>
<!-- Node14 -->
<g id="node15" class="node"><title>Node14</title>
<polygon fill="white" stroke="#bfbfbf" points="291.5,-0.5 291.5,-19.5 350.5,-19.5 350.5,-0.5 291.5,-0.5"/>
<text text-anchor="middle" x="321" y="-7.5" font-family="Helvetica,sans-Serif" font-size="10.00">qcstring.h</text>
</g>
<!-- Node13&#45;&gt;Node14 -->
<g id="edge15" class="edge"><title>Node13&#45;&gt;Node14</title>
<path fill="none" stroke="midnightblue" d="M276.752,-56.083C284.47,-48.2195 295.905,-36.5688 305.217,-27.0813"/>
<polygon fill="midnightblue" stroke="midnightblue" points="307.904,-29.3396 312.411,-19.7511 302.908,-24.4363 307.904,-29.3396"/>
</g>
<!-- Node15&#45;&gt;Node11 -->
<g id="edge17" class="edge"><title>Node15&#45;&gt;Node11</title>
<path fill="none" stroke="midnightblue" d="M564.509,-112.368C561.443,-94.617 554.37,-53.6664 550.212,-29.5974"/>
<polygon fill="midnightblue" stroke="midnightblue" points="553.635,-28.8498 548.484,-19.5914 546.737,-30.0413 553.635,-28.8498"/>
</g>
<!-- Node16 -->
<g id="node17" class="node"><title>Node16</title>
<polygon fill="white" stroke="#bfbfbf" points="668,-56.5 668,-75.5 714,-75.5 714,-56.5 668,-56.5"/>
<text text-anchor="middle" x="691" y="-63.5" font-family="Helvetica,sans-Serif" font-size="10.00">qdict.h</text>
</g>
<!-- Node15&#45;&gt;Node16 -->
<g id="edge18" class="edge"><title>Node15&#45;&gt;Node16</title>
<path fill="none" stroke="midnightblue" d="M585.807,-112.444C606.287,-103.596 638.483,-89.6875 661.865,-79.5865"/>
<polygon fill="midnightblue" stroke="midnightblue" points="663.494,-82.6953 671.286,-75.5164 660.718,-76.2692 663.494,-82.6953"/>
</g>
<!-- Node17 -->
<g id="node18" class="node"><title>Node17</title>
<polygon fill="white" stroke="#bfbfbf" points="594,-56.5 594,-75.5 650,-75.5 650,-56.5 594,-56.5"/>
<text text-anchor="middle" x="622" y="-63.5" font-family="Helvetica,sans-Serif" font-size="10.00">qintdict.h</text>
</g>
<!-- Node15&#45;&gt;Node17 -->
<g id="edge19" class="edge"><title>Node15&#45;&gt;Node17</title>
<path fill="none" stroke="midnightblue" d="M574.997,-112.324C583.194,-104.42 595.506,-92.5482 605.472,-82.9377"/>
<polygon fill="midnightblue" stroke="midnightblue" points="608.07,-85.2947 612.839,-75.8339 603.211,-80.2558 608.07,-85.2947"/>
</g>
<!-- Node18&#45;&gt;Node4 -->
<g id="edge21" class="edge"><title>Node18&#45;&gt;Node4</title>
<path fill="none" stroke="midnightblue" d="M441.997,-115.871C373.409,-105.525 219.239,-82.2707 151.267,-72.0179"/>
<polygon fill="midnightblue" stroke="midnightblue" points="151.535,-68.5188 141.124,-70.488 150.49,-75.4405 151.535,-68.5188"/>
</g>
<!-- Node18&#45;&gt;Node11 -->
<g id="edge22" class="edge"><title>Node18&#45;&gt;Node11</title>
<path fill="none" stroke="midnightblue" d="M482.853,-112.229C489.73,-103.297 500.494,-88.9584 509,-76 519.289,-60.3258 529.978,-41.8101 537.388,-28.5579"/>
<polygon fill="midnightblue" stroke="midnightblue" points="540.575,-30.0283 542.355,-19.5841 534.45,-26.6385 540.575,-30.0283"/>
</g>
<!-- Node18&#45;&gt;Node14 -->
<g id="edge23" class="edge"><title>Node18&#45;&gt;Node14</title>
<path fill="none" stroke="midnightblue" d="M441.743,-113.503C406.312,-105.101 354.208,-90.7163 340,-76 328.144,-63.7197 323.625,-44.4616 321.934,-30.0905"/>
<polygon fill="midnightblue" stroke="midnightblue" points="325.399,-29.5219 321.098,-19.8394 318.422,-30.0908 325.399,-29.5219"/>
</g>
<!-- Node19 -->
<g id="node20" class="node"><title>Node19</title>
<g id="a_node20"><a xlink:href="../../d2/d3c/docvisitor_8h.html" target="_top" xlink:title="docvisitor.h">
<polygon fill="white" stroke="black" points="432.5,-56.5 432.5,-75.5 499.5,-75.5 499.5,-56.5 432.5,-56.5"/>
<text text-anchor="middle" x="466" y="-63.5" font-family="Helvetica,sans-Serif" font-size="10.00">docvisitor.h</text>
</a>
</g>
</g>
<!-- Node18&#45;&gt;Node19 -->
<g id="edge24" class="edge"><title>Node18&#45;&gt;Node19</title>
<path fill="none" stroke="midnightblue" d="M474.349,-112.083C473.024,-104.927 471.118,-94.6353 469.461,-85.6911"/>
<polygon fill="midnightblue" stroke="midnightblue" points="472.883,-84.9466 467.621,-75.7511 466,-86.2212 472.883,-84.9466"/>
</g>
<!-- Node20 -->
<g id="node21" class="node"><title>Node20</title>
<g id="a_node21"><a xlink:href="../../d0/d73/htmlattrib_8h.html" target="_top" xlink:title="htmlattrib.h">
<polygon fill="white" stroke="black" points="349.5,-56.5 349.5,-75.5 414.5,-75.5 414.5,-56.5 349.5,-56.5"/>
<text text-anchor="middle" x="382" y="-63.5" font-family="Helvetica,sans-Serif" font-size="10.00">htmlattrib.h</text>
</a>
</g>
</g>
<!-- Node18&#45;&gt;Node20 -->
<g id="edge25" class="edge"><title>Node18&#45;&gt;Node20</title>
<path fill="none" stroke="midnightblue" d="M460.897,-112.324C446.097,-103.822 423.306,-90.7288 406.018,-80.7975"/>
<polygon fill="midnightblue" stroke="midnightblue" points="407.48,-77.6009 397.065,-75.6545 403.993,-83.6707 407.48,-77.6009"/>
</g>
<!-- Node20&#45;&gt;Node11 -->
<g id="edge27" class="edge"><title>Node20&#45;&gt;Node11</title>
<path fill="none" stroke="midnightblue" d="M408.145,-56.4435C437.291,-46.9049 484.412,-31.4834 515.549,-21.293"/>
<polygon fill="midnightblue" stroke="midnightblue" points="517.032,-24.4906 525.447,-18.0537 514.854,-17.8378 517.032,-24.4906"/>
</g>
<!-- Node20&#45;&gt;Node14 -->
<g id="edge26" class="edge"><title>Node20&#45;&gt;Node14</title>
<path fill="none" stroke="midnightblue" d="M372.199,-56.324C363.182,-48.3414 349.594,-36.3128 338.682,-26.6529"/>
<polygon fill="midnightblue" stroke="midnightblue" points="340.787,-23.8416 330.979,-19.8339 336.147,-29.083 340.787,-23.8416"/>
</g>
</g>
</svg>
        <g id="navigator" transform="translate(0 0)" fill="#404254">
                <rect fill="#f2f5e9" fill-opacity="0.5" stroke="#606060" stroke-width=".5" x="0" y="0" width="60" height="60"/>
                <use id="zoomplus" xlink:href="#zoomPlus" x="17" y="9" onmousedown="handleZoom(evt,'in')"/>
                <use id="zoomminus" xlink:href="#zoomMin" x="42" y="9" onmousedown="handleZoom(evt,'out')"/>
                <use id="reset" xlink:href="#resetDef" x="30" y="36" onmousedown="handleReset()"/>
                <g id="arrowUp" xlink:href="#dirArrow" transform="translate(30 24)" onmousedown="handlePan(0,-1)">
                  <use xlink:href="#rim" fill="#404040">
                        <set attributeName="fill" to="#808080" begin="arrowUp.mouseover" end="arrowUp.mouseout"/>
                  </use>
                  <path fill="none" stroke="white" stroke-width="1.5" d="M0,-3.0v7 M-2.5,-0.5L0,-3.0L2.5,-0.5"/>
                </g>
                <g id="arrowRight" xlink:href="#dirArrow" transform="rotate(90) translate(36 -43)" onmousedown="handlePan(1,0)">
                  <use xlink:href="#rim" fill="#404040">
                        <set attributeName="fill" to="#808080" begin="arrowRight.mouseover" end="arrowRight.mouseout"/>
                  </use>
                  <path fill="none" stroke="white" stroke-width="1.5" d="M0,-3.0v7 M-2.5,-0.5L0,-3.0L2.5,-0.5"/>
                </g>
                <g id="arrowDown" xlink:href="#dirArrow" transform="rotate(180) translate(-30 -48)" onmousedown="handlePan(0,1)">
                  <use xlink:href="#rim" fill="#404040">
                        <set attributeName="fill" to="#808080" begin="arrowDown.mouseover" end="arrowDown.mouseout"/>
                  </use>
                  <path fill="none" stroke="white" stroke-width="1.5" d="M0,-3.0v7 M-2.5,-0.5L0,-3.0L2.5,-0.5"/>
                </g>
                <g id="arrowLeft" xlink:href="#dirArrow" transform="rotate(270) translate(-36 17)" onmousedown="handlePan(-1,0)">
                  <use xlink:href="#rim" fill="#404040">
                        <set attributeName="fill" to="#808080" begin="arrowLeft.mouseover" end="arrowLeft.mouseout"/>
                  </use>
                  <path fill="none" stroke="white" stroke-width="1.5" d="M0,-3.0v7 M-2.5,-0.5L0,-3.0L2.5,-0.5"/>
                </g>
        </g>
        <svg viewBox="0 0 15 15" width="100%" height="30px" preserveAspectRatio="xMaxYMin meet">
         <g id="arrow_out" transform="scale(0.3 0.3)">
          <a xlink:href="dia_8cpp__incl_org.svg" target="_base">
           <rect id="button" ry="5" rx="5" y="6" x="6" height="38" width="38"
                fill="#f2f5e9" fill-opacity="0.5" stroke="#606060" stroke-width="1.0"/>
           <path id="arrow"
             d="M 11.500037,31.436501 C 11.940474,20.09759 22.043105,11.32322 32.158766,21.979434 L 37.068811,17.246167 C 37.068811,17.246167 37.088388,32 37.088388,32 L 22.160133,31.978069 C 22.160133,31.978069 26.997745,27.140456 26.997745,27.140456 C 18.528582,18.264221 13.291696,25.230495 11.500037,31.436501 z"
             style="fill:#404040;"/>
          </a>
         </g>
        </svg>
</svg>
