<?xml version="1.0" encoding="UTF-8" standalone="no"?>
<!DOCTYPE svg PUBLIC "-//W3C//DTD SVG 1.1//EN"
 "http://www.w3.org/Graphics/SVG/1.1/DTD/svg11.dtd">
<!-- Generated by graphviz version 2.38.0 (20140413.2041)
 -->
<!-- Title: DirSDict Pages: 1 -->
<svg width="332pt" height="162pt"
 viewBox="0.00 0.00 332.00 162.00" xmlns="http://www.w3.org/2000/svg" xmlns:xlink="http://www.w3.org/1999/xlink">
<g id="graph0" class="graph" transform="scale(1 1) rotate(0) translate(4 158)">
<title>DirSDict</title>
<polygon fill="white" stroke="none" points="-4,4 -4,-158 328,-158 328,4 -4,4"/>
<!-- Node3 -->
<g id="node1" class="node"><title>Node3</title>
<polygon fill="#bfbfbf" stroke="black" points="270,-0.5 270,-19.5 324,-19.5 324,-0.5 270,-0.5"/>
<text text-anchor="middle" x="297" y="-7.5" font-family="Helvetica,sans-Serif" font-size="10.00">DirSDict</text>
</g>
<!-- Node4 -->
<g id="node2" class="node"><title>Node4</title>
<g id="a_node2"><a xlink:href="../../d1/d50/class_s_dict.html" target="_top" xlink:title="SDict\&lt; DirDef \&gt;">
<polygon fill="white" stroke="black" points="208,-67.5 208,-86.5 296,-86.5 296,-67.5 208,-67.5"/>
<text text-anchor="middle" x="252" y="-74.5" font-family="Helvetica,sans-Serif" font-size="10.00">SDict&lt; DirDef &gt;</text>
</a>
</g>
</g>
<!-- Node4&#45;&gt;Node3 -->
<g id="edge1" class="edge"><title>Node4&#45;&gt;Node3</title>
<path fill="none" stroke="midnightblue" d="M272.432,-60.8271C276.31,-57.2657 280.065,-53.2563 283,-49 289.226,-39.9703 293.063,-27.8347 295.11,-19.7316"/>
<polygon fill="midnightblue" stroke="midnightblue" points="269.949,-58.3415 264.527,-67.4437 274.441,-63.7094 269.949,-58.3415"/>
</g>
<!-- Node5 -->
<g id="node3" class="node"><title>Node5</title>
<g id="a_node3"><a xlink:href="../../df/dce/class_s_list.html" target="_top" xlink:title="SList\&lt; DirDef \&gt;">
<polygon fill="white" stroke="black" points="106,-0.5 106,-19.5 192,-19.5 192,-0.5 106,-0.5"/>
<text text-anchor="middle" x="149" y="-7.5" font-family="Helvetica,sans-Serif" font-size="10.00">SList&lt; DirDef &gt;</text>
</a>
</g>
</g>
<!-- Node4&#45;&gt;Node5 -->
<g id="edge4" class="edge"><title>Node4&#45;&gt;Node5</title>
<path fill="none" stroke="#9a32cd" stroke-dasharray="5,2" d="M211.621,-63.8381C201.795,-59.9184 191.638,-54.9979 183,-49 171.366,-40.9215 160.993,-28.0974 154.85,-19.6153"/>
<polygon fill="#9a32cd" stroke="#9a32cd" points="210.674,-67.2203 221.267,-67.4269 213.115,-60.6596 210.674,-67.2203"/>
<text text-anchor="middle" x="204.5" y="-41" font-family="Helvetica,sans-Serif" font-size="10.00"> m_owner</text>
</g>
<!-- Node5&#45;&gt;Node4 -->
<g id="edge2" class="edge"><title>Node5&#45;&gt;Node4</title>
<path fill="none" stroke="#9a32cd" stroke-dasharray="5,2" d="M201.885,-22.4663C211.914,-26.2795 221.815,-31.3287 230,-38 239.454,-45.7061 245.684,-58.6233 249.028,-67.2276"/>
<polygon fill="#9a32cd" stroke="#9a32cd" points="202.877,-19.1064 192.282,-19.1764 200.608,-25.7286 202.877,-19.1064"/>
<text text-anchor="middle" x="255" y="-41" font-family="Helvetica,sans-Serif" font-size="10.00"> m_list</text>
</g>
<!-- Node6 -->
<g id="node4" class="node"><title>Node6</title>
<polygon fill="white" stroke="#bfbfbf" points="0,-67.5 0,-86.5 86,-86.5 86,-67.5 0,-67.5"/>
<text text-anchor="middle" x="43" y="-74.5" font-family="Helvetica,sans-Serif" font-size="10.00">QList&lt; DirDef &gt;</text>
</g>
<!-- Node6&#45;&gt;Node5 -->
<g id="edge3" class="edge"><title>Node6&#45;&gt;Node5</title>
<path fill="none" stroke="midnightblue" d="M65.925,-61.9422C86.9172,-49.0696 117.318,-30.4274 134.931,-19.6273"/>
<polygon fill="midnightblue" stroke="midnightblue" points="63.9909,-59.0226 57.2956,-67.2338 67.6501,-64.99 63.9909,-59.0226"/>
</g>
<!-- Node7 -->
<g id="node5" class="node"><title>Node7</title>
<g id="a_node5"><a xlink:href="../../df/dce/class_s_list.html" target="_top" xlink:title="internal wrapper class that redirects compareValues() to the dictionary ">
<polygon fill="white" stroke="black" points="104.5,-67.5 104.5,-86.5 167.5,-86.5 167.5,-67.5 104.5,-67.5"/>
<text text-anchor="middle" x="136" y="-74.5" font-family="Helvetica,sans-Serif" font-size="10.00">SList&lt; T &gt;</text>
</a>
</g>
</g>
<!-- Node7&#45;&gt;Node5 -->
<g id="edge5" class="edge"><title>Node7&#45;&gt;Node5</title>
<path fill="none" stroke="orange" stroke-dasharray="5,2" d="M118.643,-59.7822C113.647,-53.1413 110.406,-45.3116 114,-38 117.792,-30.2863 124.965,-24.1541 131.835,-19.6961"/>
<polygon fill="orange" stroke="orange" points="116.235,-62.3388 125.527,-67.4297 121.438,-57.6557 116.235,-62.3388"/>
<text text-anchor="middle" x="139" y="-41" font-family="Helvetica,sans-Serif" font-size="10.00"> &lt; DirDef &gt;</text>
</g>
<!-- Node8 -->
<g id="node6" class="node"><title>Node8</title>
<polygon fill="white" stroke="#bfbfbf" points="104,-134.5 104,-153.5 168,-153.5 168,-134.5 104,-134.5"/>
<text text-anchor="middle" x="136" y="-141.5" font-family="Helvetica,sans-Serif" font-size="10.00">QList&lt; T &gt;</text>
</g>
<!-- Node8&#45;&gt;Node7 -->
<g id="edge6" class="edge"><title>Node8&#45;&gt;Node7</title>
<path fill="none" stroke="midnightblue" d="M136,-124.037C136,-111.67 136,-96.1198 136,-86.6273"/>
<polygon fill="midnightblue" stroke="midnightblue" points="132.5,-124.234 136,-134.234 139.5,-124.234 132.5,-124.234"/>
</g>
<!-- Node9 -->
<g id="node7" class="node"><title>Node9</title>
<g id="a_node7"><a xlink:href="../../d1/d50/class_s_dict.html" target="_top" xlink:title="Ordered dictionary of elements of type T. ">
<polygon fill="white" stroke="black" points="219.5,-134.5 219.5,-153.5 284.5,-153.5 284.5,-134.5 219.5,-134.5"/>
<text text-anchor="middle" x="252" y="-141.5" font-family="Helvetica,sans-Serif" font-size="10.00">SDict&lt; T &gt;</text>
</a>
</g>
</g>
<!-- Node9&#45;&gt;Node4 -->
<g id="edge7" class="edge"><title>Node9&#45;&gt;Node4</title>
<path fill="none" stroke="orange" stroke-dasharray="5,2" d="M252,-124.037C252,-111.67 252,-96.1198 252,-86.6273"/>
<polygon fill="orange" stroke="orange" points="248.5,-124.234 252,-134.234 255.5,-124.234 248.5,-124.234"/>
<text text-anchor="middle" x="277" y="-108" font-family="Helvetica,sans-Serif" font-size="10.00"> &lt; DirDef &gt;</text>
</g>
</g>
</svg>
