<?xml version="1.0" encoding="UTF-8" standalone="no"?>
<!DOCTYPE svg PUBLIC "-//W3C//DTD SVG 1.1//EN"
 "http://www.w3.org/Graphics/SVG/1.1/DTD/svg11.dtd">
<!-- Generated by graphviz version 2.38.0 (20140413.2041)
 -->
<!-- Title: vhdlparser/ErrorHandler.h Pages: 1 -->
<svg width="356pt" height="263pt"
 viewBox="0.00 0.00 356.00 263.00" xmlns="http://www.w3.org/2000/svg" xmlns:xlink="http://www.w3.org/1999/xlink">
<g id="graph0" class="graph" transform="scale(1 1) rotate(0) translate(4 259)">
<title>vhdlparser/ErrorHandler.h</title>
<polygon fill="white" stroke="none" points="-4,4 -4,-259 352,-259 352,4 -4,4"/>
<!-- Node10 -->
<g id="node1" class="node"><title>Node10</title>
<polygon fill="#bfbfbf" stroke="black" points="63,-235.5 63,-254.5 191,-254.5 191,-235.5 63,-235.5"/>
<text text-anchor="middle" x="127" y="-242.5" font-family="Helvetica,sans-Serif" font-size="10.00">vhdlparser/ErrorHandler.h</text>
</g>
<!-- Node11 -->
<g id="node2" class="node"><title>Node11</title>
<g id="a_node2"><a xlink:href="../../d7/dad/_vhdl_parser_token_manager_8h.html" target="_top" xlink:title="vhdlparser/VhdlParserToken\lManager.h">
<polygon fill="white" stroke="black" points="8,-168.5 8,-198.5 148,-198.5 148,-168.5 8,-168.5"/>
<text text-anchor="start" x="16" y="-186.5" font-family="Helvetica,sans-Serif" font-size="10.00">vhdlparser/VhdlParserToken</text>
<text text-anchor="middle" x="78" y="-175.5" font-family="Helvetica,sans-Serif" font-size="10.00">Manager.h</text>
</a>
</g>
</g>
<!-- Node10&#45;&gt;Node11 -->
<g id="edge1" class="edge"><title>Node10&#45;&gt;Node11</title>
<path fill="none" stroke="midnightblue" d="M113.436,-227.53C105.932,-218.417 96.7053,-207.214 89.5483,-198.523"/>
<polygon fill="midnightblue" stroke="midnightblue" points="110.921,-229.981 119.979,-235.475 116.324,-225.531 110.921,-229.981"/>
</g>
<!-- Node12 -->
<g id="node3" class="node"><title>Node12</title>
<g id="a_node3"><a xlink:href="../../d5/df9/_vhdl_parser_8h.html" target="_top" xlink:title="vhdlparser/VhdlParser.h">
<polygon fill="white" stroke="black" points="64.5,-112.5 64.5,-131.5 185.5,-131.5 185.5,-112.5 64.5,-112.5"/>
<text text-anchor="middle" x="125" y="-119.5" font-family="Helvetica,sans-Serif" font-size="10.00">vhdlparser/VhdlParser.h</text>
</a>
</g>
</g>
<!-- Node10&#45;&gt;Node12 -->
<g id="edge10" class="edge"><title>Node10&#45;&gt;Node12</title>
<path fill="none" stroke="midnightblue" d="M141.499,-227.398C147.548,-219.388 153.883,-209.295 157,-199 160.993,-185.813 161.191,-181.125 157,-168 152.451,-153.754 141.563,-140.16 133.751,-131.714"/>
<polygon fill="midnightblue" stroke="midnightblue" points="138.772,-225.203 135.214,-235.182 144.219,-229.601 138.772,-225.203"/>
</g>
<!-- Node11&#45;&gt;Node12 -->
<g id="edge2" class="edge"><title>Node11&#45;&gt;Node12</title>
<path fill="none" stroke="midnightblue" d="M89.1276,-160.104C96.4482,-150.187 105.746,-139.106 113.232,-131.658"/>
<polygon fill="midnightblue" stroke="midnightblue" points="86.1843,-158.205 83.2984,-168.399 91.9117,-162.23 86.1843,-158.205"/>
</g>
<!-- Node14 -->
<g id="node5" class="node"><title>Node14</title>
<g id="a_node5"><a xlink:href="../../da/d40/_vhdl_parser_i_f_8cpp.html" target="_top" xlink:title="vhdlparser/VhdlParserIF.cpp">
<polygon fill="white" stroke="black" points="0,-0.5 0,-19.5 140,-19.5 140,-0.5 0,-0.5"/>
<text text-anchor="middle" x="70" y="-7.5" font-family="Helvetica,sans-Serif" font-size="10.00">vhdlparser/VhdlParserIF.cpp</text>
</a>
</g>
</g>
<!-- Node11&#45;&gt;Node14 -->
<g id="edge9" class="edge"><title>Node11&#45;&gt;Node14</title>
<path fill="none" stroke="midnightblue" d="M64.9637,-159.38C60.9353,-151.021 57.0264,-141.338 55,-132 45.9773,-90.4205 60.3701,-39.5409 66.971,-19.5978"/>
<polygon fill="midnightblue" stroke="midnightblue" points="61.9583,-161.189 69.6419,-168.484 68.1844,-157.99 61.9583,-161.189"/>
</g>
<!-- Node12&#45;&gt;Node11 -->
<g id="edge4" class="edge"><title>Node12&#45;&gt;Node11</title>
<path fill="none" stroke="midnightblue" d="M117.641,-140.139C111.424,-149.099 102.754,-159.932 94.9783,-168.399"/>
<polygon fill="midnightblue" stroke="midnightblue" points="120.629,-141.963 123.09,-131.658 114.74,-138.179 120.629,-141.963"/>
</g>
<!-- Node13 -->
<g id="node4" class="node"><title>Node13</title>
<g id="a_node4"><a xlink:href="../../de/dea/vhdldocgen_8cpp.html" target="_top" xlink:title="src/vhdldocgen.cpp">
<polygon fill="white" stroke="black" points="98.5,-56.5 98.5,-75.5 199.5,-75.5 199.5,-56.5 98.5,-56.5"/>
<text text-anchor="middle" x="149" y="-63.5" font-family="Helvetica,sans-Serif" font-size="10.00">src/vhdldocgen.cpp</text>
</a>
</g>
</g>
<!-- Node12&#45;&gt;Node13 -->
<g id="edge3" class="edge"><title>Node12&#45;&gt;Node13</title>
<path fill="none" stroke="midnightblue" d="M133.138,-102.69C137.183,-93.589 141.883,-83.0141 145.111,-75.7511"/>
<polygon fill="midnightblue" stroke="midnightblue" points="129.826,-101.523 128.963,-112.083 136.223,-104.366 129.826,-101.523"/>
</g>
<!-- Node12&#45;&gt;Node14 -->
<g id="edge5" class="edge"><title>Node12&#45;&gt;Node14</title>
<path fill="none" stroke="midnightblue" d="M109.51,-104.847C102.421,-96.724 94.4132,-86.4088 89,-76 79.2358,-57.2247 73.8092,-32.7172 71.4477,-19.8206"/>
<polygon fill="midnightblue" stroke="midnightblue" points="107.097,-107.395 116.419,-112.431 112.272,-102.681 107.097,-107.395"/>
</g>
<!-- Node15 -->
<g id="node6" class="node"><title>Node15</title>
<g id="a_node6"><a xlink:href="../../dd/d6f/_vhdl_parser_i_f_8h.html" target="_top" xlink:title="vhdlparser/VhdlParserIF.h">
<polygon fill="white" stroke="black" points="218,-56.5 218,-75.5 348,-75.5 348,-56.5 218,-56.5"/>
<text text-anchor="middle" x="283" y="-63.5" font-family="Helvetica,sans-Serif" font-size="10.00">vhdlparser/VhdlParserIF.h</text>
</a>
</g>
</g>
<!-- Node12&#45;&gt;Node15 -->
<g id="edge6" class="edge"><title>Node12&#45;&gt;Node15</title>
<path fill="none" stroke="midnightblue" d="M159.608,-109.172C189.359,-99.0039 231.547,-84.5852 258.082,-75.5164"/>
<polygon fill="midnightblue" stroke="midnightblue" points="158.366,-105.898 150.036,-112.444 160.63,-112.521 158.366,-105.898"/>
</g>
<!-- Node15&#45;&gt;Node14 -->
<g id="edge8" class="edge"><title>Node15&#45;&gt;Node14</title>
<path fill="none" stroke="midnightblue" d="M239.449,-53.959C199.219,-43.7598 140.297,-28.8217 103.593,-19.5164"/>
<polygon fill="midnightblue" stroke="midnightblue" points="238.696,-57.3787 249.25,-56.4435 240.416,-50.5933 238.696,-57.3787"/>
</g>
<!-- Node16 -->
<g id="node7" class="node"><title>Node16</title>
<g id="a_node7"><a xlink:href="../../d1/d86/vhdljjparser_8cpp.html" target="_top" xlink:title="src/vhdljjparser.cpp">
<polygon fill="white" stroke="black" points="232.5,-0.5 232.5,-19.5 333.5,-19.5 333.5,-0.5 232.5,-0.5"/>
<text text-anchor="middle" x="283" y="-7.5" font-family="Helvetica,sans-Serif" font-size="10.00">src/vhdljjparser.cpp</text>
</a>
</g>
</g>
<!-- Node15&#45;&gt;Node16 -->
<g id="edge7" class="edge"><title>Node15&#45;&gt;Node16</title>
<path fill="none" stroke="midnightblue" d="M283,-45.8045C283,-36.9102 283,-26.7798 283,-19.7511"/>
<polygon fill="midnightblue" stroke="midnightblue" points="279.5,-46.083 283,-56.083 286.5,-46.083 279.5,-46.083"/>
</g>
</g>
</svg>
