<?xml version="1.0" encoding="UTF-8" standalone="no"?>
<!DOCTYPE svg PUBLIC "-//W3C//DTD SVG 1.1//EN"
 "http://www.w3.org/Graphics/SVG/1.1/DTD/svg11.dtd">
<!-- Generated by graphviz version 2.38.0 (20140413.2041)
 -->
<!-- Title: IndexFieldSDict Pages: 1 -->
<svg width="378pt" height="162pt"
 viewBox="0.00 0.00 377.50 162.00" xmlns="http://www.w3.org/2000/svg" xmlns:xlink="http://www.w3.org/1999/xlink">
<g id="graph0" class="graph" transform="scale(1 1) rotate(0) translate(4 158)">
<title>IndexFieldSDict</title>
<polygon fill="white" stroke="none" points="-4,4 -4,-158 373.5,-158 373.5,4 -4,4"/>
<!-- Node3 -->
<g id="node1" class="node"><title>Node3</title>
<polygon fill="#bfbfbf" stroke="black" points="283.5,-0.5 283.5,-19.5 369.5,-19.5 369.5,-0.5 283.5,-0.5"/>
<text text-anchor="middle" x="326.5" y="-7.5" font-family="Helvetica,sans-Serif" font-size="10.00">IndexFieldSDict</text>
</g>
<!-- Node4 -->
<g id="node2" class="node"><title>Node4</title>
<g id="a_node2"><a xlink:href="../../d1/d50/class_s_dict.html" target="_top" xlink:title="SDict\&lt; IndexField \&gt;">
<polygon fill="white" stroke="black" points="229.5,-67.5 229.5,-86.5 333.5,-86.5 333.5,-67.5 229.5,-67.5"/>
<text text-anchor="middle" x="281.5" y="-74.5" font-family="Helvetica,sans-Serif" font-size="10.00">SDict&lt; IndexField &gt;</text>
</a>
</g>
</g>
<!-- Node4&#45;&gt;Node3 -->
<g id="edge1" class="edge"><title>Node4&#45;&gt;Node3</title>
<path fill="none" stroke="midnightblue" d="M301.932,-60.8271C305.81,-57.2657 309.565,-53.2563 312.5,-49 318.726,-39.9703 322.563,-27.8347 324.61,-19.7316"/>
<polygon fill="midnightblue" stroke="midnightblue" points="299.449,-58.3415 294.027,-67.4437 303.941,-63.7094 299.449,-58.3415"/>
</g>
<!-- Node5 -->
<g id="node3" class="node"><title>Node5</title>
<g id="a_node3"><a xlink:href="../../df/dce/class_s_list.html" target="_top" xlink:title="SList\&lt; IndexField \&gt;">
<polygon fill="white" stroke="black" points="118.5,-0.5 118.5,-19.5 220.5,-19.5 220.5,-0.5 118.5,-0.5"/>
<text text-anchor="middle" x="169.5" y="-7.5" font-family="Helvetica,sans-Serif" font-size="10.00">SList&lt; IndexField &gt;</text>
</a>
</g>
</g>
<!-- Node4&#45;&gt;Node5 -->
<g id="edge4" class="edge"><title>Node4&#45;&gt;Node5</title>
<path fill="none" stroke="#9a32cd" stroke-dasharray="5,2" d="M243.852,-64.0085C233.344,-59.9409 222.165,-54.9042 212.5,-49 198.897,-40.6905 185.501,-27.9241 177.367,-19.5179"/>
<polygon fill="#9a32cd" stroke="#9a32cd" points="242.658,-67.2983 253.251,-67.4686 245.076,-60.7293 242.658,-67.2983"/>
<text text-anchor="middle" x="234" y="-41" font-family="Helvetica,sans-Serif" font-size="10.00"> m_owner</text>
</g>
<!-- Node5&#45;&gt;Node4 -->
<g id="edge2" class="edge"><title>Node5&#45;&gt;Node4</title>
<path fill="none" stroke="#9a32cd" stroke-dasharray="5,2" d="M230.393,-22.4061C240.792,-26.2042 250.974,-31.2632 259.5,-38 269.189,-45.6565 275.426,-58.8399 278.699,-67.4892"/>
<polygon fill="#9a32cd" stroke="#9a32cd" points="231.416,-19.0581 220.823,-19.2604 229.23,-25.7081 231.416,-19.0581"/>
<text text-anchor="middle" x="284.5" y="-41" font-family="Helvetica,sans-Serif" font-size="10.00"> m_list</text>
</g>
<!-- Node6 -->
<g id="node4" class="node"><title>Node6</title>
<polygon fill="white" stroke="#bfbfbf" points="0,-67.5 0,-86.5 103,-86.5 103,-67.5 0,-67.5"/>
<text text-anchor="middle" x="51.5" y="-74.5" font-family="Helvetica,sans-Serif" font-size="10.00">QList&lt; IndexField &gt;</text>
</g>
<!-- Node6&#45;&gt;Node5 -->
<g id="edge3" class="edge"><title>Node6&#45;&gt;Node5</title>
<path fill="none" stroke="midnightblue" d="M76.394,-62.2872C99.7808,-49.4047 134.056,-30.5243 153.838,-19.6273"/>
<polygon fill="midnightblue" stroke="midnightblue" points="74.4843,-59.3432 67.414,-67.2338 77.8618,-65.4745 74.4843,-59.3432"/>
</g>
<!-- Node7 -->
<g id="node5" class="node"><title>Node7</title>
<g id="a_node5"><a xlink:href="../../df/dce/class_s_list.html" target="_top" xlink:title="internal wrapper class that redirects compareValues() to the dictionary ">
<polygon fill="white" stroke="black" points="121,-67.5 121,-86.5 184,-86.5 184,-67.5 121,-67.5"/>
<text text-anchor="middle" x="152.5" y="-74.5" font-family="Helvetica,sans-Serif" font-size="10.00">SList&lt; T &gt;</text>
</a>
</g>
</g>
<!-- Node7&#45;&gt;Node5 -->
<g id="edge5" class="edge"><title>Node7&#45;&gt;Node5</title>
<path fill="none" stroke="orange" stroke-dasharray="5,2" d="M132.258,-60.124C126.284,-53.4714 122.33,-45.5422 126.5,-38 131.021,-29.8228 139.17,-23.7882 147.168,-19.5239"/>
<polygon fill="orange" stroke="orange" points="130.152,-62.9473 139.835,-67.2474 134.947,-57.8475 130.152,-62.9473"/>
<text text-anchor="middle" x="160" y="-41" font-family="Helvetica,sans-Serif" font-size="10.00"> &lt; IndexField &gt;</text>
</g>
<!-- Node8 -->
<g id="node6" class="node"><title>Node8</title>
<polygon fill="white" stroke="#bfbfbf" points="120.5,-134.5 120.5,-153.5 184.5,-153.5 184.5,-134.5 120.5,-134.5"/>
<text text-anchor="middle" x="152.5" y="-141.5" font-family="Helvetica,sans-Serif" font-size="10.00">QList&lt; T &gt;</text>
</g>
<!-- Node8&#45;&gt;Node7 -->
<g id="edge6" class="edge"><title>Node8&#45;&gt;Node7</title>
<path fill="none" stroke="midnightblue" d="M152.5,-124.037C152.5,-111.67 152.5,-96.1198 152.5,-86.6273"/>
<polygon fill="midnightblue" stroke="midnightblue" points="149,-124.234 152.5,-134.234 156,-124.234 149,-124.234"/>
</g>
<!-- Node9 -->
<g id="node7" class="node"><title>Node9</title>
<g id="a_node7"><a xlink:href="../../d1/d50/class_s_dict.html" target="_top" xlink:title="Ordered dictionary of elements of type T. ">
<polygon fill="white" stroke="black" points="249,-134.5 249,-153.5 314,-153.5 314,-134.5 249,-134.5"/>
<text text-anchor="middle" x="281.5" y="-141.5" font-family="Helvetica,sans-Serif" font-size="10.00">SDict&lt; T &gt;</text>
</a>
</g>
</g>
<!-- Node9&#45;&gt;Node4 -->
<g id="edge7" class="edge"><title>Node9&#45;&gt;Node4</title>
<path fill="none" stroke="orange" stroke-dasharray="5,2" d="M281.5,-124.037C281.5,-111.67 281.5,-96.1198 281.5,-86.6273"/>
<polygon fill="orange" stroke="orange" points="278,-124.234 281.5,-134.234 285,-124.234 278,-124.234"/>
<text text-anchor="middle" x="315" y="-108" font-family="Helvetica,sans-Serif" font-size="10.00"> &lt; IndexField &gt;</text>
</g>
</g>
</svg>
