<?xml version="1.0" encoding="UTF-8" standalone="no"?>
<!DOCTYPE svg PUBLIC "-//W3C//DTD SVG 1.1//EN"
 "http://www.w3.org/Graphics/SVG/1.1/DTD/svg11.dtd">
<!-- Generated by graphviz version 2.38.0 (20140413.2041)
 -->
<!-- Title: Graphical Class Hierarchy Pages: 1 -->
<svg width="430pt" height="104pt"
 viewBox="0.00 0.00 430.00 104.00" xmlns="http://www.w3.org/2000/svg" xmlns:xlink="http://www.w3.org/1999/xlink">
<g id="graph0" class="graph" transform="scale(1 1) rotate(0) translate(4 100)">
<title>Graphical Class Hierarchy</title>
<polygon fill="white" stroke="none" points="-4,4 -4,-100 426,-100 426,4 -4,4"/>
<!-- Node0 -->
<g id="node1" class="node"><title>Node0</title>
<g id="a_node1"><a xlink:href="d9/dba/struct_layout_doc_entry.html" target="_top" xlink:title="Base class representing a piece of a documentation page. ">
<polygon fill="white" stroke="black" points="0,-38.5 0,-57.5 87,-57.5 87,-38.5 0,-38.5"/>
<text text-anchor="middle" x="43.5" y="-45.5" font-family="Helvetica,sans-Serif" font-size="10.00">LayoutDocEntry</text>
</a>
</g>
</g>
<!-- Node1 -->
<g id="node2" class="node"><title>Node1</title>
<g id="a_node2"><a xlink:href="df/df4/struct_layout_doc_entry_member_decl.html" target="_top" xlink:title="Represents of a member declaration list with configurable title and subtitle. ">
<polygon fill="white" stroke="black" points="123,-76.5 123,-95.5 266,-95.5 266,-76.5 123,-76.5"/>
<text text-anchor="middle" x="194.5" y="-83.5" font-family="Helvetica,sans-Serif" font-size="10.00">LayoutDocEntryMemberDecl</text>
</a>
</g>
</g>
<!-- Node0&#45;&gt;Node1 -->
<g id="edge1" class="edge"><title>Node0&#45;&gt;Node1</title>
<path fill="none" stroke="midnightblue" d="M91.9922,-60.1121C112.744,-65.4044 136.728,-71.5213 156.171,-76.4799"/>
<polygon fill="midnightblue" stroke="midnightblue" points="92.6538,-56.6689 82.099,-57.589 90.9239,-63.4518 92.6538,-56.6689"/>
</g>
<!-- Node2 -->
<g id="node3" class="node"><title>Node2</title>
<g id="a_node3"><a xlink:href="d2/def/struct_layout_doc_entry_member_def.html" target="_top" xlink:title="Represents of a member definition list with configurable title. ">
<polygon fill="white" stroke="black" points="125.5,-38.5 125.5,-57.5 263.5,-57.5 263.5,-38.5 125.5,-38.5"/>
<text text-anchor="middle" x="194.5" y="-45.5" font-family="Helvetica,sans-Serif" font-size="10.00">LayoutDocEntryMemberDef</text>
</a>
</g>
</g>
<!-- Node0&#45;&gt;Node2 -->
<g id="edge2" class="edge"><title>Node0&#45;&gt;Node2</title>
<path fill="none" stroke="midnightblue" d="M97.2715,-48C106.403,-48 116.012,-48 125.48,-48"/>
<polygon fill="midnightblue" stroke="midnightblue" points="97.1975,-44.5001 87.1974,-48 97.1974,-51.5001 97.1975,-44.5001"/>
</g>
<!-- Node3 -->
<g id="node4" class="node"><title>Node3</title>
<g id="a_node4"><a xlink:href="d4/dc3/struct_layout_doc_entry_simple.html" target="_top" xlink:title="Represents of a piece of a documentation page without configurable parts. ">
<polygon fill="white" stroke="black" points="136,-0.5 136,-19.5 253,-19.5 253,-0.5 136,-0.5"/>
<text text-anchor="middle" x="194.5" y="-7.5" font-family="Helvetica,sans-Serif" font-size="10.00">LayoutDocEntrySimple</text>
</a>
</g>
</g>
<!-- Node0&#45;&gt;Node3 -->
<g id="edge3" class="edge"><title>Node0&#45;&gt;Node3</title>
<path fill="none" stroke="midnightblue" d="M91.9922,-35.8879C112.744,-30.5956 136.728,-24.4787 156.171,-19.5201"/>
<polygon fill="midnightblue" stroke="midnightblue" points="90.9239,-32.5482 82.099,-38.411 92.6538,-39.3311 90.9239,-32.5482"/>
</g>
<!-- Node4 -->
<g id="node5" class="node"><title>Node4</title>
<g id="a_node5"><a xlink:href="dd/da0/struct_layout_doc_entry_section.html" target="_top" xlink:title="LayoutDocEntrySection">
<polygon fill="white" stroke="black" points="302,-0.5 302,-19.5 422,-19.5 422,-0.5 302,-0.5"/>
<text text-anchor="middle" x="362" y="-7.5" font-family="Helvetica,sans-Serif" font-size="10.00">LayoutDocEntrySection</text>
</a>
</g>
</g>
<!-- Node3&#45;&gt;Node4 -->
<g id="edge4" class="edge"><title>Node3&#45;&gt;Node4</title>
<path fill="none" stroke="midnightblue" d="M263.445,-10C276.148,-10 289.332,-10 301.747,-10"/>
<polygon fill="midnightblue" stroke="midnightblue" points="263.384,-6.5001 253.384,-10 263.384,-13.5001 263.384,-6.5001"/>
</g>
</g>
</svg>
