<?xml version="1.0" encoding="UTF-8" standalone="no"?>
<!DOCTYPE svg PUBLIC "-//W3C//DTD SVG 1.1//EN"
 "http://www.w3.org/Graphics/SVG/1.1/DTD/svg11.dtd">
<!-- Generated by graphviz version 2.38.0 (20140413.2041)
 -->
<!-- Title: Graphical Class Hierarchy Pages: 1 -->
<svg width="225pt" height="66pt"
 viewBox="0.00 0.00 225.00 66.00" xmlns="http://www.w3.org/2000/svg" xmlns:xlink="http://www.w3.org/1999/xlink">
<g id="graph0" class="graph" transform="scale(1 1) rotate(0) translate(4 62)">
<title>Graphical Class Hierarchy</title>
<polygon fill="white" stroke="none" points="-4,4 -4,-62 221,-62 221,4 -4,4"/>
<!-- Node0 -->
<g id="node1" class="node"><title>Node0</title>
<g id="a_node1"><a xlink:href="d4/d9c/class_template_escape_intf.html" target="_top" xlink:title="Interface used to escape characters in a string. ">
<polygon fill="white" stroke="black" points="0,-19.5 0,-38.5 104,-38.5 104,-19.5 0,-19.5"/>
<text text-anchor="middle" x="52" y="-26.5" font-family="Helvetica,sans-Serif" font-size="10.00">TemplateEscapeIntf</text>
</a>
</g>
</g>
<!-- Node1 -->
<g id="node2" class="node"><title>Node1</title>
<g id="a_node2"><a xlink:href="dc/d97/class_html_escaper.html" target="_top" xlink:title="HtmlEscaper">
<polygon fill="white" stroke="black" points="141.5,-38.5 141.5,-57.5 215.5,-57.5 215.5,-38.5 141.5,-38.5"/>
<text text-anchor="middle" x="178.5" y="-45.5" font-family="Helvetica,sans-Serif" font-size="10.00">HtmlEscaper</text>
</a>
</g>
</g>
<!-- Node0&#45;&gt;Node1 -->
<g id="edge1" class="edge"><title>Node0&#45;&gt;Node1</title>
<path fill="none" stroke="midnightblue" d="M114.374,-38.3663C123.65,-39.7819 132.952,-41.2015 141.455,-42.4992"/>
<polygon fill="midnightblue" stroke="midnightblue" points="114.771,-34.8865 104.358,-36.8377 113.715,-41.8064 114.771,-34.8865"/>
</g>
<!-- Node2 -->
<g id="node3" class="node"><title>Node2</title>
<g id="a_node3"><a xlink:href="da/dd3/class_latex_escaper.html" target="_top" xlink:title="LatexEscaper">
<polygon fill="white" stroke="black" points="140,-0.5 140,-19.5 217,-19.5 217,-0.5 140,-0.5"/>
<text text-anchor="middle" x="178.5" y="-7.5" font-family="Helvetica,sans-Serif" font-size="10.00">LatexEscaper</text>
</a>
</g>
</g>
<!-- Node0&#45;&gt;Node2 -->
<g id="edge2" class="edge"><title>Node0&#45;&gt;Node2</title>
<path fill="none" stroke="midnightblue" d="M114.508,-19.6133C123.196,-18.2874 131.904,-16.9585 139.953,-15.73"/>
<polygon fill="midnightblue" stroke="midnightblue" points="113.715,-16.1936 104.358,-21.1623 114.771,-23.1135 113.715,-16.1936"/>
</g>
</g>
</svg>
