<?xml version="1.0" encoding="UTF-8" standalone="no"?>
<!DOCTYPE svg PUBLIC "-//W3C//DTD SVG 1.1//EN"
 "http://www.w3.org/Graphics/SVG/1.1/DTD/svg11.dtd">
<!-- Generated by graphviz version 2.38.0 (20140413.2041)
 -->
<!-- Title: Graphical Class Hierarchy Pages: 1 -->
<svg width="168pt" height="218pt"
 viewBox="0.00 0.00 168.00 218.00" xmlns="http://www.w3.org/2000/svg" xmlns:xlink="http://www.w3.org/1999/xlink">
<g id="graph0" class="graph" transform="scale(1 1) rotate(0) translate(4 214)">
<title>Graphical Class Hierarchy</title>
<polygon fill="white" stroke="none" points="-4,4 -4,-214 164,-214 164,4 -4,4"/>
<!-- Node0 -->
<g id="node1" class="node"><title>Node0</title>
<g id="a_node1"><a xlink:href="d9/dd5/class_index_intf.html" target="_top" xlink:title="Abstract interface for index generators. ">
<polygon fill="white" stroke="black" points="0,-95.5 0,-114.5 55,-114.5 55,-95.5 0,-95.5"/>
<text text-anchor="middle" x="27.5" y="-102.5" font-family="Helvetica,sans-Serif" font-size="10.00">IndexIntf</text>
</a>
</g>
</g>
<!-- Node1 -->
<g id="node2" class="node"><title>Node1</title>
<g id="a_node2"><a xlink:href="db/d32/class_doc_sets.html" target="_top" xlink:title="A class that generates docset files. ">
<polygon fill="white" stroke="black" points="98,-190.5 98,-209.5 153,-209.5 153,-190.5 98,-190.5"/>
<text text-anchor="middle" x="125.5" y="-197.5" font-family="Helvetica,sans-Serif" font-size="10.00">DocSets</text>
</a>
</g>
</g>
<!-- Node0&#45;&gt;Node1 -->
<g id="edge1" class="edge"><title>Node0&#45;&gt;Node1</title>
<path fill="none" stroke="midnightblue" d="M40.4901,-123.117C52.0376,-139.613 70.7024,-163.93 91,-181 95.1961,-184.529 100.141,-187.747 104.925,-190.49"/>
<polygon fill="midnightblue" stroke="midnightblue" points="43.3741,-121.134 34.8419,-114.853 37.5949,-125.083 43.3741,-121.134"/>
</g>
<!-- Node2 -->
<g id="node3" class="node"><title>Node2</title>
<g id="a_node3"><a xlink:href="db/dd3/class_eclipse_help.html" target="_top" xlink:title="Generator for Eclipse help files. ">
<polygon fill="white" stroke="black" points="91,-152.5 91,-171.5 160,-171.5 160,-152.5 91,-152.5"/>
<text text-anchor="middle" x="125.5" y="-159.5" font-family="Helvetica,sans-Serif" font-size="10.00">EclipseHelp</text>
</a>
</g>
</g>
<!-- Node0&#45;&gt;Node2 -->
<g id="edge2" class="edge"><title>Node0&#45;&gt;Node2</title>
<path fill="none" stroke="midnightblue" d="M52.5028,-119.827C64.0861,-126.923 78.213,-135.489 91,-143 96.304,-146.116 102.122,-149.446 107.4,-152.434"/>
<polygon fill="midnightblue" stroke="midnightblue" points="54.1853,-116.753 43.8328,-114.501 50.5209,-122.718 54.1853,-116.753"/>
</g>
<!-- Node3 -->
<g id="node4" class="node"><title>Node3</title>
<g id="a_node4"><a xlink:href="d6/d14/class_f_t_v_help.html" target="_top" xlink:title="A class that generates a dynamic tree view side panel. ">
<polygon fill="white" stroke="black" points="97.5,-114.5 97.5,-133.5 153.5,-133.5 153.5,-114.5 97.5,-114.5"/>
<text text-anchor="middle" x="125.5" y="-121.5" font-family="Helvetica,sans-Serif" font-size="10.00">FTVHelp</text>
</a>
</g>
</g>
<!-- Node0&#45;&gt;Node3 -->
<g id="edge3" class="edge"><title>Node0&#45;&gt;Node3</title>
<path fill="none" stroke="midnightblue" d="M65.1456,-112.253C75.8065,-114.363 87.2602,-116.63 97.235,-118.604"/>
<polygon fill="midnightblue" stroke="midnightblue" points="65.7306,-108.801 55.2414,-110.293 64.3715,-115.668 65.7306,-108.801"/>
</g>
<!-- Node4 -->
<g id="node5" class="node"><title>Node4</title>
<g id="a_node5"><a xlink:href="d4/db3/class_html_help.html" target="_top" xlink:title="A class that generated the HTML Help specific files. ">
<polygon fill="white" stroke="black" points="96.5,-76.5 96.5,-95.5 154.5,-95.5 154.5,-76.5 96.5,-76.5"/>
<text text-anchor="middle" x="125.5" y="-83.5" font-family="Helvetica,sans-Serif" font-size="10.00">HtmlHelp</text>
</a>
</g>
</g>
<!-- Node0&#45;&gt;Node4 -->
<g id="edge4" class="edge"><title>Node0&#45;&gt;Node4</title>
<path fill="none" stroke="midnightblue" d="M65.2071,-97.7351C75.4928,-95.6993 86.512,-93.5185 96.2262,-91.5959"/>
<polygon fill="midnightblue" stroke="midnightblue" points="64.3715,-94.3325 55.2414,-99.7074 65.7306,-101.199 64.3715,-94.3325"/>
</g>
<!-- Node5 -->
<g id="node6" class="node"><title>Node5</title>
<g id="a_node6"><a xlink:href="d9/d57/class_index_list.html" target="_top" xlink:title="A list of index interfaces. ">
<polygon fill="white" stroke="black" points="97.5,-38.5 97.5,-57.5 153.5,-57.5 153.5,-38.5 97.5,-38.5"/>
<text text-anchor="middle" x="125.5" y="-45.5" font-family="Helvetica,sans-Serif" font-size="10.00">IndexList</text>
</a>
</g>
</g>
<!-- Node0&#45;&gt;Node5 -->
<g id="edge5" class="edge"><title>Node0&#45;&gt;Node5</title>
<path fill="none" stroke="midnightblue" d="M52.5028,-90.1726C64.0861,-83.0771 78.213,-74.5111 91,-67 96.304,-63.8844 102.122,-60.5543 107.4,-57.5662"/>
<polygon fill="midnightblue" stroke="midnightblue" points="50.5209,-87.2824 43.8328,-95.4994 54.1853,-93.2466 50.5209,-87.2824"/>
</g>
<!-- Node6 -->
<g id="node7" class="node"><title>Node6</title>
<g id="a_node7"><a xlink:href="de/d4f/class_qhp.html" target="_top" xlink:title="Qhp">
<polygon fill="white" stroke="black" points="108,-0.5 108,-19.5 143,-19.5 143,-0.5 108,-0.5"/>
<text text-anchor="middle" x="125.5" y="-7.5" font-family="Helvetica,sans-Serif" font-size="10.00">Qhp</text>
</a>
</g>
</g>
<!-- Node0&#45;&gt;Node6 -->
<g id="edge6" class="edge"><title>Node0&#45;&gt;Node6</title>
<path fill="none" stroke="midnightblue" d="M40.4901,-86.8832C52.0376,-70.3871 70.7024,-46.0703 91,-29 96.0149,-24.7825 102.099,-21.0097 107.7,-17.9591"/>
<polygon fill="midnightblue" stroke="midnightblue" points="37.5949,-84.9165 34.8419,-95.1474 43.3741,-88.8663 37.5949,-84.9165"/>
</g>
</g>
</svg>
