<?xml version="1.0" encoding="UTF-8" standalone="no"?>
<!DOCTYPE svg PUBLIC "-//W3C//DTD SVG 1.1//EN"
 "http://www.w3.org/Graphics/SVG/1.1/DTD/svg11.dtd">
<!-- Generated by graphviz version 2.38.0 (20140413.2041)
 -->
<!-- Title: GlobalsIndexContext Pages: 1 -->
<!--zoomable 150 -->
<svg id="main" version="1.1" xmlns="http://www.w3.org/2000/svg" xmlns:xlink="http://www.w3.org/1999/xlink" xml:space="preserve" onload="init(evt)">
<style type="text/css"><![CDATA[
.edge:hover path { stroke: red; }
.edge:hover polygon { stroke: red; fill: red; }
]]></style>
<script type="text/javascript"><![CDATA[
var edges = document.getElementsByTagName('g');
if (edges && edges.length) {
  for (var i=0;i<edges.length;i++) {
    if (edges[i].id.substr(0,4)=='edge') {
      edges[i].setAttribute('class','edge');
    }
  }
}
]]></script>
        <defs>
                <circle id="rim" cx="0" cy="0" r="7"/>
                <circle id="rim2" cx="0" cy="0" r="3.5"/>
                <g id="zoomPlus">
                        <use xlink:href="#rim" fill="#404040">
                                <set attributeName="fill" to="#808080" begin="zoomplus.mouseover" end="zoomplus.mouseout"/>
                        </use>
                        <path d="M-4,0h8M0,-4v8" fill="none" stroke="white" stroke-width="1.5" pointer-events="none"/>
                </g>
                <g id="zoomMin">
                        <use xlink:href="#rim" fill="#404040">
                                <set attributeName="fill" to="#808080" begin="zoomminus.mouseover" end="zoomminus.mouseout"/>
                        </use>
                        <path d="M-4,0h8" fill="none" stroke="white" stroke-width="1.5" pointer-events="none"/>
                </g>
                <g id="dirArrow">
                        <path fill="none" stroke="white" stroke-width="1.5" d="M0,-3.0v7 M-2.5,-0.5L0,-3.0L2.5,-0.5"/>
                </g>
               <g id="resetDef">
                       <use xlink:href="#rim2" fill="#404040">
                               <set attributeName="fill" to="#808080" begin="reset.mouseover" end="reset.mouseout"/>
                       </use>
               </g>
        </defs>

<script type="text/javascript">
var viewWidth = 1146;
var viewHeight = 150;
var sectionId = 'dynsection-1';
</script>
<script xlink:href="../../svgpan.js"/>
<svg id="graph" class="graph">
<g id="viewport">
<title>GlobalsIndexContext</title>
<polygon fill="white" stroke="none" points="-4,4 -4,-145.5 1142,-145.5 1142,4 -4,4"/>
<!-- Node3 -->
<g id="node1" class="node"><title>Node3</title>
<polygon fill="#bfbfbf" stroke="black" points="1030,-76 1030,-95 1138,-95 1138,-76 1030,-76"/>
<text text-anchor="middle" x="1084" y="-83" font-family="Helvetica,sans-Serif" font-size="10.00">GlobalsIndexContext</text>
</g>
<!-- Node4 -->
<g id="node2" class="node"><title>Node4</title>
<g id="a_node2"><a xlink:href="../../d8/d96/class_ref_counted_context.html" target="_top" xlink:title="Helper class to support reference counting. ">
<polygon fill="white" stroke="black" points="879,-114 879,-133 983,-133 983,-114 879,-114"/>
<text text-anchor="middle" x="931" y="-121" font-family="Helvetica,sans-Serif" font-size="10.00">RefCountedContext</text>
</a>
</g>
</g>
<!-- Node4&#45;&gt;Node3 -->
<g id="edge1" class="edge"><title>Node4&#45;&gt;Node3</title>
<path fill="none" stroke="midnightblue" d="M979.843,-111.46C1000.94,-106.151 1025.38,-100.001 1045.17,-95.0201"/>
<polygon fill="midnightblue" stroke="midnightblue" points="978.947,-108.076 970.104,-113.911 980.656,-114.865 978.947,-108.076"/>
</g>
<!-- Node5 -->
<g id="node3" class="node"><title>Node5</title>
<g id="a_node3"><a xlink:href="../../d9/de8/class_template_struct_intf.html" target="_top" xlink:title="Abstract interface for a context value of type struct. ">
<polygon fill="white" stroke="black" points="882,-76 882,-95 980,-95 980,-76 882,-76"/>
<text text-anchor="middle" x="931" y="-83" font-family="Helvetica,sans-Serif" font-size="10.00">TemplateStructIntf</text>
</a>
</g>
</g>
<!-- Node5&#45;&gt;Node3 -->
<g id="edge2" class="edge"><title>Node5&#45;&gt;Node3</title>
<path fill="none" stroke="midnightblue" d="M990.402,-85.5C1003.36,-85.5 1017.03,-85.5 1029.77,-85.5"/>
<polygon fill="midnightblue" stroke="midnightblue" points="990.193,-82.0001 980.193,-85.5 990.192,-89.0001 990.193,-82.0001"/>
</g>
<!-- Node6 -->
<g id="node4" class="node"><title>Node6</title>
<g id="a_node4"><a xlink:href="../../d9/da5/class_globals_index_context_1_1_private.html" target="_top" xlink:title="GlobalsIndexContext\l::Private">
<polygon fill="white" stroke="black" points="877,-26.5 877,-56.5 985,-56.5 985,-26.5 877,-26.5"/>
<text text-anchor="start" x="885" y="-44.5" font-family="Helvetica,sans-Serif" font-size="10.00">GlobalsIndexContext</text>
<text text-anchor="middle" x="931" y="-33.5" font-family="Helvetica,sans-Serif" font-size="10.00">::Private</text>
</a>
</g>
</g>
<!-- Node6&#45;&gt;Node3 -->
<g id="edge3" class="edge"><title>Node6&#45;&gt;Node3</title>
<path fill="none" stroke="#9a32cd" stroke-dasharray="5,2" d="M993.265,-59.3521C1012.72,-65.0207 1033.48,-71.0705 1050.13,-75.9217"/>
<polygon fill="#9a32cd" stroke="#9a32cd" points="994.123,-55.9566 983.543,-56.5192 992.165,-62.6771 994.123,-55.9566"/>
<text text-anchor="middle" x="1007.5" y="-66.5" font-family="Helvetica,sans-Serif" font-size="10.00"> p</text>
</g>
<!-- Node7 -->
<g id="node5" class="node"><title>Node7</title>
<g id="a_node5"><a xlink:href="../../dc/dfb/struct_globals_index_context_1_1_private_1_1_cachable.html" target="_top" xlink:title="GlobalsIndexContext\l::Private::Cachable">
<polygon fill="white" stroke="black" points="668,-49.5 668,-79.5 776,-79.5 776,-49.5 668,-49.5"/>
<text text-anchor="start" x="676" y="-67.5" font-family="Helvetica,sans-Serif" font-size="10.00">GlobalsIndexContext</text>
<text text-anchor="middle" x="722" y="-56.5" font-family="Helvetica,sans-Serif" font-size="10.00">::Private::Cachable</text>
</a>
</g>
</g>
<!-- Node7&#45;&gt;Node6 -->
<g id="edge4" class="edge"><title>Node7&#45;&gt;Node6</title>
<path fill="none" stroke="#9a32cd" stroke-dasharray="5,2" d="M786.064,-57.4929C815.051,-54.2721 849.06,-50.4933 876.74,-47.4178"/>
<polygon fill="#9a32cd" stroke="#9a32cd" points="785.591,-54.0238 776.039,-58.6068 786.364,-60.981 785.591,-54.0238"/>
<text text-anchor="middle" x="837.5" y="-57.5" font-family="Helvetica,sans-Serif" font-size="10.00"> m_cache</text>
</g>
<!-- Node8 -->
<g id="node6" class="node"><title>Node8</title>
<g id="a_node6"><a xlink:href="../../df/d12/class_shared_ptr.html" target="_top" xlink:title="SharedPtr\&lt; TemplateList \&gt;">
<polygon fill="white" stroke="black" points="372,-55 372,-74 506,-74 506,-55 372,-55"/>
<text text-anchor="middle" x="439" y="-62" font-family="Helvetica,sans-Serif" font-size="10.00">SharedPtr&lt; TemplateList &gt;</text>
</a>
</g>
</g>
<!-- Node8&#45;&gt;Node7 -->
<g id="edge5" class="edge"><title>Node8&#45;&gt;Node7</title>
<path fill="none" stroke="#9a32cd" stroke-dasharray="5,2" d="M516.28,-64.5C564.3,-64.5 625.073,-64.5 667.888,-64.5"/>
<polygon fill="#9a32cd" stroke="#9a32cd" points="516.237,-61.0001 506.237,-64.5 516.237,-68.0001 516.237,-61.0001"/>
<text text-anchor="middle" x="576" y="-133.5" font-family="Helvetica,sans-Serif" font-size="10.00"> macros</text>
<text text-anchor="middle" x="576" y="-122.5" font-family="Helvetica,sans-Serif" font-size="10.00">typedefs</text>
<text text-anchor="middle" x="576" y="-111.5" font-family="Helvetica,sans-Serif" font-size="10.00">enumValues</text>
<text text-anchor="middle" x="576" y="-100.5" font-family="Helvetica,sans-Serif" font-size="10.00">enums</text>
<text text-anchor="middle" x="576" y="-89.5" font-family="Helvetica,sans-Serif" font-size="10.00">all</text>
<text text-anchor="middle" x="576" y="-78.5" font-family="Helvetica,sans-Serif" font-size="10.00">variables</text>
<text text-anchor="middle" x="576" y="-67.5" font-family="Helvetica,sans-Serif" font-size="10.00">functions</text>
</g>
<!-- Node9 -->
<g id="node7" class="node"><title>Node9</title>
<g id="a_node7"><a xlink:href="../../de/dab/class_template_list.html" target="_top" xlink:title="Default implementation of a context value of type list. ">
<polygon fill="white" stroke="black" points="179.5,-75 179.5,-94 252.5,-94 252.5,-75 179.5,-75"/>
<text text-anchor="middle" x="216" y="-82" font-family="Helvetica,sans-Serif" font-size="10.00">TemplateList</text>
</a>
</g>
</g>
<!-- Node9&#45;&gt;Node8 -->
<g id="edge6" class="edge"><title>Node9&#45;&gt;Node8</title>
<path fill="none" stroke="#9a32cd" stroke-dasharray="5,2" d="M262.753,-80.3594C294.269,-77.5073 336.641,-73.6727 371.826,-70.4886"/>
<polygon fill="#9a32cd" stroke="#9a32cd" points="262.151,-76.8995 252.507,-81.2867 262.782,-83.871 262.151,-76.8995"/>
<text text-anchor="middle" x="315" y="-82.5" font-family="Helvetica,sans-Serif" font-size="10.00"> m_ptr</text>
</g>
<!-- Node10 -->
<g id="node8" class="node"><title>Node10</title>
<g id="a_node8"><a xlink:href="../../d6/d88/class_template_list_intf.html" target="_top" xlink:title="Abstract read&#45;only interface for a context value of type list. ">
<polygon fill="white" stroke="black" points="11.5,-113 11.5,-132 98.5,-132 98.5,-113 11.5,-113"/>
<text text-anchor="middle" x="55" y="-120" font-family="Helvetica,sans-Serif" font-size="10.00">TemplateListIntf</text>
</a>
</g>
</g>
<!-- Node10&#45;&gt;Node9 -->
<g id="edge7" class="edge"><title>Node10&#45;&gt;Node9</title>
<path fill="none" stroke="midnightblue" d="M108.258,-110.718C123.652,-107.183 140.519,-103.248 156,-99.5 163.601,-97.6598 171.738,-95.6301 179.466,-93.6743"/>
<polygon fill="midnightblue" stroke="midnightblue" points="107.35,-107.335 98.3827,-112.978 108.911,-114.159 107.35,-107.335"/>
</g>
<!-- Node11 -->
<g id="node9" class="node"><title>Node11</title>
<g id="a_node9"><a xlink:href="../../d5/dee/class_template_list_1_1_private.html" target="_top" xlink:title="Private data of a template list object. ">
<polygon fill="white" stroke="black" points="0,-75 0,-94 110,-94 110,-75 0,-75"/>
<text text-anchor="middle" x="55" y="-82" font-family="Helvetica,sans-Serif" font-size="10.00">TemplateList::Private</text>
</a>
</g>
</g>
<!-- Node11&#45;&gt;Node9 -->
<g id="edge8" class="edge"><title>Node11&#45;&gt;Node9</title>
<path fill="none" stroke="#9a32cd" stroke-dasharray="5,2" d="M120.35,-84.5C140.51,-84.5 162.019,-84.5 179.43,-84.5"/>
<polygon fill="#9a32cd" stroke="#9a32cd" points="120.274,-81.0001 110.274,-84.5 120.274,-88.0001 120.274,-81.0001"/>
<text text-anchor="middle" x="142" y="-87.5" font-family="Helvetica,sans-Serif" font-size="10.00"> p</text>
</g>
<!-- Node12 -->
<g id="node10" class="node"><title>Node12</title>
<g id="a_node10"><a xlink:href="../../df/d12/class_shared_ptr.html" target="_top" xlink:title="Reference counting smart pointer. ">
<polygon fill="white" stroke="black" points="174,-37 174,-56 258,-56 258,-37 174,-37"/>
<text text-anchor="middle" x="216" y="-44" font-family="Helvetica,sans-Serif" font-size="10.00">SharedPtr&lt; T &gt;</text>
</a>
</g>
</g>
<!-- Node12&#45;&gt;Node8 -->
<g id="edge9" class="edge"><title>Node12&#45;&gt;Node8</title>
<path fill="none" stroke="orange" stroke-dasharray="5,2" d="M268.44,-46.3496C294.184,-46.6938 325.796,-47.7508 354,-50.5 364.889,-51.5614 376.501,-53.179 387.509,-54.9425"/>
<polygon fill="orange" stroke="orange" points="268.192,-42.847 258.157,-46.2453 268.121,-49.8466 268.192,-42.847"/>
<text text-anchor="middle" x="315" y="-53.5" font-family="Helvetica,sans-Serif" font-size="10.00"> &lt; TemplateList &gt;</text>
</g>
<!-- Node13 -->
<g id="node11" class="node"><title>Node13</title>
<polygon fill="white" stroke="#bfbfbf" points="40.5,-37 40.5,-56 69.5,-56 69.5,-37 40.5,-37"/>
<text text-anchor="middle" x="55" y="-44" font-family="Helvetica,sans-Serif" font-size="10.00">T</text>
</g>
<!-- Node13&#45;&gt;Node12 -->
<g id="edge10" class="edge"><title>Node13&#45;&gt;Node12</title>
<path fill="none" stroke="#9a32cd" stroke-dasharray="5,2" d="M79.8452,-46.5C104.647,-46.5 143.951,-46.5 173.795,-46.5"/>
<polygon fill="#9a32cd" stroke="#9a32cd" points="79.5563,-43.0001 69.5563,-46.5 79.5562,-50.0001 79.5563,-43.0001"/>
<text text-anchor="middle" x="142" y="-49.5" font-family="Helvetica,sans-Serif" font-size="10.00"> m_ptr</text>
</g>
<!-- Node14 -->
<g id="node12" class="node"><title>Node14</title>
<g id="a_node12"><a xlink:href="../../d1/d80/class_property_mapper.html" target="_top" xlink:title="PropertyMapper\&lt; GlobalsIndex\lContext::Private \&gt;">
<polygon fill="white" stroke="black" points="646,-0.5 646,-30.5 798,-30.5 798,-0.5 646,-0.5"/>
<text text-anchor="start" x="654" y="-18.5" font-family="Helvetica,sans-Serif" font-size="10.00">PropertyMapper&lt; GlobalsIndex</text>
<text text-anchor="middle" x="722" y="-7.5" font-family="Helvetica,sans-Serif" font-size="10.00">Context::Private &gt;</text>
</a>
</g>
</g>
<!-- Node14&#45;&gt;Node6 -->
<g id="edge11" class="edge"><title>Node14&#45;&gt;Node6</title>
<path fill="none" stroke="#9a32cd" stroke-dasharray="5,2" d="M808.252,-26.208C831.513,-29.1297 856.044,-32.2109 876.943,-34.8359"/>
<polygon fill="#9a32cd" stroke="#9a32cd" points="808.383,-22.697 798.024,-24.9234 807.51,-29.6424 808.383,-22.697"/>
<text text-anchor="middle" x="837.5" y="-35.5" font-family="Helvetica,sans-Serif" font-size="10.00"> s_inst</text>
</g>
<!-- Node15 -->
<g id="node13" class="node"><title>Node15</title>
<g id="a_node13"><a xlink:href="../../d1/d80/class_property_mapper.html" target="_top" xlink:title="Helper class to map a property name to a handler member function. ">
<polygon fill="white" stroke="black" points="384,-6 384,-25 494,-25 494,-6 384,-6"/>
<text text-anchor="middle" x="439" y="-13" font-family="Helvetica,sans-Serif" font-size="10.00">PropertyMapper&lt; T &gt;</text>
</a>
</g>
</g>
<!-- Node15&#45;&gt;Node14 -->
<g id="edge12" class="edge"><title>Node15&#45;&gt;Node14</title>
<path fill="none" stroke="orange" stroke-dasharray="5,2" d="M504.314,-15.5C546.416,-15.5 601.602,-15.5 645.743,-15.5"/>
<polygon fill="orange" stroke="orange" points="504.18,-12.0001 494.18,-15.5 504.18,-19.0001 504.18,-12.0001"/>
<text text-anchor="start" x="524" y="-29.5" font-family="Helvetica,sans-Serif" font-size="10.00"> &lt; GlobalsIndexContext</text>
<text text-anchor="middle" x="576" y="-18.5" font-family="Helvetica,sans-Serif" font-size="10.00">::Private &gt;</text>
</g>
</g>
</svg>
        <g id="navigator" transform="translate(0 0)" fill="#404254">
                <rect fill="#f2f5e9" fill-opacity="0.5" stroke="#606060" stroke-width=".5" x="0" y="0" width="60" height="60"/>
                <use id="zoomplus" xlink:href="#zoomPlus" x="17" y="9" onmousedown="handleZoom(evt,'in')"/>
                <use id="zoomminus" xlink:href="#zoomMin" x="42" y="9" onmousedown="handleZoom(evt,'out')"/>
                <use id="reset" xlink:href="#resetDef" x="30" y="36" onmousedown="handleReset()"/>
                <g id="arrowUp" xlink:href="#dirArrow" transform="translate(30 24)" onmousedown="handlePan(0,-1)">
                  <use xlink:href="#rim" fill="#404040">
                        <set attributeName="fill" to="#808080" begin="arrowUp.mouseover" end="arrowUp.mouseout"/>
                  </use>
                  <path fill="none" stroke="white" stroke-width="1.5" d="M0,-3.0v7 M-2.5,-0.5L0,-3.0L2.5,-0.5"/>
                </g>
                <g id="arrowRight" xlink:href="#dirArrow" transform="rotate(90) translate(36 -43)" onmousedown="handlePan(1,0)">
                  <use xlink:href="#rim" fill="#404040">
                        <set attributeName="fill" to="#808080" begin="arrowRight.mouseover" end="arrowRight.mouseout"/>
                  </use>
                  <path fill="none" stroke="white" stroke-width="1.5" d="M0,-3.0v7 M-2.5,-0.5L0,-3.0L2.5,-0.5"/>
                </g>
                <g id="arrowDown" xlink:href="#dirArrow" transform="rotate(180) translate(-30 -48)" onmousedown="handlePan(0,1)">
                  <use xlink:href="#rim" fill="#404040">
                        <set attributeName="fill" to="#808080" begin="arrowDown.mouseover" end="arrowDown.mouseout"/>
                  </use>
                  <path fill="none" stroke="white" stroke-width="1.5" d="M0,-3.0v7 M-2.5,-0.5L0,-3.0L2.5,-0.5"/>
                </g>
                <g id="arrowLeft" xlink:href="#dirArrow" transform="rotate(270) translate(-36 17)" onmousedown="handlePan(-1,0)">
                  <use xlink:href="#rim" fill="#404040">
                        <set attributeName="fill" to="#808080" begin="arrowLeft.mouseover" end="arrowLeft.mouseout"/>
                  </use>
                  <path fill="none" stroke="white" stroke-width="1.5" d="M0,-3.0v7 M-2.5,-0.5L0,-3.0L2.5,-0.5"/>
                </g>
        </g>
        <svg viewBox="0 0 15 15" width="100%" height="30px" preserveAspectRatio="xMaxYMin meet">
         <g id="arrow_out" transform="scale(0.3 0.3)">
          <a xlink:href="class_globals_index_context__coll__graph_org.svg" target="_base">
           <rect id="button" ry="5" rx="5" y="6" x="6" height="38" width="38"
                fill="#f2f5e9" fill-opacity="0.5" stroke="#606060" stroke-width="1.0"/>
           <path id="arrow"
             d="M 11.500037,31.436501 C 11.940474,20.09759 22.043105,11.32322 32.158766,21.979434 L 37.068811,17.246167 C 37.068811,17.246167 37.088388,32 37.088388,32 L 22.160133,31.978069 C 22.160133,31.978069 26.997745,27.140456 26.997745,27.140456 C 18.528582,18.264221 13.291696,25.230495 11.500037,31.436501 z"
             style="fill:#404040;"/>
          </a>
         </g>
        </svg>
</svg>
