<?xml version="1.0" encoding="UTF-8" standalone="no"?>
<!DOCTYPE svg PUBLIC "-//W3C//DTD SVG 1.1//EN"
 "http://www.w3.org/Graphics/SVG/1.1/DTD/svg11.dtd">
<!-- Generated by graphviz version 2.38.0 (20140413.2041)
 -->
<!-- Title: TemplateNodeCreator&lt; T &gt; Pages: 1 -->
<svg width="799pt" height="1028pt"
 viewBox="0.00 0.00 799.00 1027.91" xmlns="http://www.w3.org/2000/svg" xmlns:xlink="http://www.w3.org/1999/xlink">
<g id="graph0" class="graph" transform="scale(1 1) rotate(0) translate(4 1023.91)">
<title>TemplateNodeCreator&lt; T &gt;</title>
<polygon fill="white" stroke="none" points="-4,4 -4,-1023.91 795,-1023.91 795,4 -4,4"/>
<!-- Node0 -->
<g id="node1" class="node"><title>Node0</title>
<polygon fill="#bfbfbf" stroke="black" points="117,-500.406 117,-519.406 254,-519.406 254,-500.406 117,-500.406"/>
<text text-anchor="middle" x="185.5" y="-507.406" font-family="Helvetica,sans-Serif" font-size="10.00">TemplateNodeCreator&lt; T &gt;</text>
</g>
<!-- Node2 -->
<g id="node3" class="node"><title>Node2</title>
<g id="a_node3"><a xlink:href="../../d8/d78/class_template_node_creator.html" target="_top" xlink:title="TemplateNodeCreator\l\&lt; TemplateNodeCycle \&gt;">
<polygon fill="white" stroke="black" points="462.5,-984.906 462.5,-1014.91 586.5,-1014.91 586.5,-984.906 462.5,-984.906"/>
<text text-anchor="start" x="470.5" y="-1002.91" font-family="Helvetica,sans-Serif" font-size="10.00">TemplateNodeCreator</text>
<text text-anchor="middle" x="524.5" y="-991.906" font-family="Helvetica,sans-Serif" font-size="10.00">&lt; TemplateNodeCycle &gt;</text>
</a>
</g>
</g>
<!-- Node0&#45;&gt;Node2 -->
<g id="edge2" class="edge"><title>Node0&#45;&gt;Node2</title>
<path fill="none" stroke="orange" stroke-dasharray="5,2" d="M187.325,-529.836C191.028,-608.985 208.798,-899.787 272,-960.906 321.947,-1009.21 405.427,-1012.88 462.399,-1008.54"/>
<polygon fill="orange" stroke="orange" points="190.818,-529.581 186.877,-519.746 183.824,-529.891 190.818,-529.581"/>
<text text-anchor="middle" x="348" y="-1011.91" font-family="Helvetica,sans-Serif" font-size="10.00"> &lt; TemplateNodeCycle &gt;</text>
</g>
<!-- Node4 -->
<g id="node5" class="node"><title>Node4</title>
<g id="a_node5"><a xlink:href="../../d8/d78/class_template_node_creator.html" target="_top" xlink:title="TemplateNodeCreator\l\&lt; TemplateNodeFor \&gt;">
<polygon fill="white" stroke="black" points="468,-935.906 468,-965.906 581,-965.906 581,-935.906 468,-935.906"/>
<text text-anchor="start" x="476" y="-953.906" font-family="Helvetica,sans-Serif" font-size="10.00">TemplateNodeCreator</text>
<text text-anchor="middle" x="524.5" y="-942.906" font-family="Helvetica,sans-Serif" font-size="10.00">&lt; TemplateNodeFor &gt;</text>
</a>
</g>
</g>
<!-- Node0&#45;&gt;Node4 -->
<g id="edge4" class="edge"><title>Node0&#45;&gt;Node4</title>
<path fill="none" stroke="orange" stroke-dasharray="5,2" d="M187.848,-529.934C193.225,-603.517 215.636,-857.419 272,-910.906 299.42,-936.927 402.423,-946.033 467.801,-949.211"/>
<polygon fill="orange" stroke="orange" points="191.324,-529.46 187.129,-519.731 184.341,-529.953 191.324,-529.46"/>
<text text-anchor="middle" x="348" y="-948.906" font-family="Helvetica,sans-Serif" font-size="10.00"> &lt; TemplateNodeFor &gt;</text>
</g>
<!-- Node6 -->
<g id="node7" class="node"><title>Node6</title>
<g id="a_node7"><a xlink:href="../../d8/d78/class_template_node_creator.html" target="_top" xlink:title="TemplateNodeCreator\l\&lt; TemplateNodeRepeat \&gt;">
<polygon fill="white" stroke="black" points="459.5,-886.906 459.5,-916.906 589.5,-916.906 589.5,-886.906 459.5,-886.906"/>
<text text-anchor="start" x="467.5" y="-904.906" font-family="Helvetica,sans-Serif" font-size="10.00">TemplateNodeCreator</text>
<text text-anchor="middle" x="524.5" y="-893.906" font-family="Helvetica,sans-Serif" font-size="10.00">&lt; TemplateNodeRepeat &gt;</text>
</a>
</g>
</g>
<!-- Node0&#45;&gt;Node6 -->
<g id="edge6" class="edge"><title>Node0&#45;&gt;Node6</title>
<path fill="none" stroke="orange" stroke-dasharray="5,2" d="M188.453,-529.625C195.53,-596.913 222.078,-815.852 272,-861.906 298.606,-886.451 394.076,-895.962 459.427,-899.629"/>
<polygon fill="orange" stroke="orange" points="191.92,-529.124 187.42,-519.533 184.957,-529.837 191.92,-529.124"/>
<text text-anchor="middle" x="348" y="-898.906" font-family="Helvetica,sans-Serif" font-size="10.00"> &lt; TemplateNodeRepeat &gt;</text>
</g>
<!-- Node8 -->
<g id="node9" class="node"><title>Node8</title>
<g id="a_node9"><a xlink:href="../../d8/d78/class_template_node_creator.html" target="_top" xlink:title="TemplateNodeCreator\l\&lt; TemplateNodeSet \&gt;">
<polygon fill="white" stroke="black" points="468,-837.906 468,-867.906 581,-867.906 581,-837.906 468,-837.906"/>
<text text-anchor="start" x="476" y="-855.906" font-family="Helvetica,sans-Serif" font-size="10.00">TemplateNodeCreator</text>
<text text-anchor="middle" x="524.5" y="-844.906" font-family="Helvetica,sans-Serif" font-size="10.00">&lt; TemplateNodeSet &gt;</text>
</a>
</g>
</g>
<!-- Node0&#45;&gt;Node8 -->
<g id="edge8" class="edge"><title>Node0&#45;&gt;Node8</title>
<path fill="none" stroke="orange" stroke-dasharray="5,2" d="M189.348,-529.923C198.456,-591.039 228.827,-773.405 272,-811.906 300.189,-837.045 402.661,-846.889 467.783,-850.658"/>
<polygon fill="orange" stroke="orange" points="192.762,-529.078 187.854,-519.688 185.835,-530.089 192.762,-529.078"/>
<text text-anchor="middle" x="348" y="-849.906" font-family="Helvetica,sans-Serif" font-size="10.00"> &lt; TemplateNodeSet &gt;</text>
</g>
<!-- Node10 -->
<g id="node11" class="node"><title>Node10</title>
<g id="a_node11"><a xlink:href="../../d8/d78/class_template_node_creator.html" target="_top" xlink:title="TemplateNodeCreator\l\&lt; TemplateNodeTabbing \&gt;">
<polygon fill="white" stroke="black" points="458,-788.906 458,-818.906 591,-818.906 591,-788.906 458,-788.906"/>
<text text-anchor="start" x="466" y="-806.906" font-family="Helvetica,sans-Serif" font-size="10.00">TemplateNodeCreator</text>
<text text-anchor="middle" x="524.5" y="-795.906" font-family="Helvetica,sans-Serif" font-size="10.00">&lt; TemplateNodeTabbing &gt;</text>
</a>
</g>
</g>
<!-- Node0&#45;&gt;Node10 -->
<g id="edge10" class="edge"><title>Node0&#45;&gt;Node10</title>
<path fill="none" stroke="orange" stroke-dasharray="5,2" d="M186.728,-529.643C188.436,-577.8 199.974,-701.838 272,-762.906 299.332,-786.08 392.786,-796.343 457.73,-800.756"/>
<polygon fill="orange" stroke="orange" points="190.226,-529.506 186.481,-519.595 183.228,-529.678 190.226,-529.506"/>
<text text-anchor="middle" x="348" y="-799.906" font-family="Helvetica,sans-Serif" font-size="10.00"> &lt; TemplateNodeTabbing &gt;</text>
</g>
<!-- Node12 -->
<g id="node13" class="node"><title>Node12</title>
<g id="a_node13"><a xlink:href="../../d8/d78/class_template_node_creator.html" target="_top" xlink:title="TemplateNodeCreator\l\&lt; TemplateNodeExtend \&gt;">
<polygon fill="white" stroke="black" points="460,-739.906 460,-769.906 589,-769.906 589,-739.906 460,-739.906"/>
<text text-anchor="start" x="468" y="-757.906" font-family="Helvetica,sans-Serif" font-size="10.00">TemplateNodeCreator</text>
<text text-anchor="middle" x="524.5" y="-746.906" font-family="Helvetica,sans-Serif" font-size="10.00">&lt; TemplateNodeExtend &gt;</text>
</a>
</g>
</g>
<!-- Node0&#45;&gt;Node12 -->
<g id="edge12" class="edge"><title>Node0&#45;&gt;Node12</title>
<path fill="none" stroke="orange" stroke-dasharray="5,2" d="M188.449,-529.524C193.691,-571.017 212.04,-667.725 272,-714.906 300.404,-737.257 395.114,-747.374 459.848,-751.768"/>
<polygon fill="orange" stroke="orange" points="191.926,-529.124 187.316,-519.584 184.971,-529.917 191.926,-529.124"/>
<text text-anchor="middle" x="348" y="-750.906" font-family="Helvetica,sans-Serif" font-size="10.00"> &lt; TemplateNodeExtend &gt;</text>
</g>
<!-- Node14 -->
<g id="node15" class="node"><title>Node14</title>
<g id="a_node15"><a xlink:href="../../d8/d78/class_template_node_creator.html" target="_top" xlink:title="TemplateNodeCreator\l\&lt; TemplateNodeWith \&gt;">
<polygon fill="white" stroke="black" points="465,-690.906 465,-720.906 584,-720.906 584,-690.906 465,-690.906"/>
<text text-anchor="start" x="473" y="-708.906" font-family="Helvetica,sans-Serif" font-size="10.00">TemplateNodeCreator</text>
<text text-anchor="middle" x="524.5" y="-697.906" font-family="Helvetica,sans-Serif" font-size="10.00">&lt; TemplateNodeWith &gt;</text>
</a>
</g>
</g>
<!-- Node0&#45;&gt;Node14 -->
<g id="edge14" class="edge"><title>Node0&#45;&gt;Node14</title>
<path fill="none" stroke="orange" stroke-dasharray="5,2" d="M190.969,-529.619C199.892,-564.068 223.38,-634.798 272,-668.906 302.258,-690.133 400.589,-699.423 464.959,-703.309"/>
<polygon fill="orange" stroke="orange" points="194.344,-528.685 188.571,-519.801 187.544,-530.346 194.344,-528.685"/>
<text text-anchor="middle" x="348" y="-702.906" font-family="Helvetica,sans-Serif" font-size="10.00"> &lt; TemplateNodeWith &gt;</text>
</g>
<!-- Node16 -->
<g id="node17" class="node"><title>Node16</title>
<g id="a_node17"><a xlink:href="../../d8/d78/class_template_node_creator.html" target="_top" xlink:title="TemplateNodeCreator\l\&lt; TemplateNodeCloseSubIndex \&gt;">
<polygon fill="white" stroke="black" points="442,-641.906 442,-671.906 607,-671.906 607,-641.906 442,-641.906"/>
<text text-anchor="start" x="450" y="-659.906" font-family="Helvetica,sans-Serif" font-size="10.00">TemplateNodeCreator</text>
<text text-anchor="middle" x="524.5" y="-648.906" font-family="Helvetica,sans-Serif" font-size="10.00">&lt; TemplateNodeCloseSubIndex &gt;</text>
</a>
</g>
</g>
<!-- Node0&#45;&gt;Node16 -->
<g id="edge16" class="edge"><title>Node0&#45;&gt;Node16</title>
<path fill="none" stroke="orange" stroke-dasharray="5,2" d="M196.727,-528.494C210.57,-551.76 237.55,-590.97 272,-610.906 323.577,-640.754 390.223,-651.947 441.95,-655.842"/>
<polygon fill="orange" stroke="orange" points="199.633,-526.527 191.615,-519.602 193.564,-530.016 199.633,-526.527"/>
<text text-anchor="middle" x="348" y="-656.906" font-family="Helvetica,sans-Serif" font-size="10.00"> &lt; TemplateNodeCloseSubIndex &gt;</text>
</g>
<!-- Node18 -->
<g id="node19" class="node"><title>Node18</title>
<g id="a_node19"><a xlink:href="../../d8/d78/class_template_node_creator.html" target="_top" xlink:title="TemplateNodeCreator\l\&lt; TemplateNodeRange \&gt;">
<polygon fill="white" stroke="black" points="461,-592.906 461,-622.906 588,-622.906 588,-592.906 461,-592.906"/>
<text text-anchor="start" x="469" y="-610.906" font-family="Helvetica,sans-Serif" font-size="10.00">TemplateNodeCreator</text>
<text text-anchor="middle" x="524.5" y="-599.906" font-family="Helvetica,sans-Serif" font-size="10.00">&lt; TemplateNodeRange &gt;</text>
</a>
</g>
</g>
<!-- Node0&#45;&gt;Node18 -->
<g id="edge18" class="edge"><title>Node0&#45;&gt;Node18</title>
<path fill="none" stroke="orange" stroke-dasharray="5,2" d="M207.81,-525.531C224.481,-537.013 248.673,-552.091 272,-560.906 333.912,-584.301 408.953,-596.385 460.866,-602.399"/>
<polygon fill="orange" stroke="orange" points="209.564,-522.486 199.374,-519.585 205.531,-528.207 209.564,-522.486"/>
<text text-anchor="middle" x="348" y="-598.906" font-family="Helvetica,sans-Serif" font-size="10.00"> &lt; TemplateNodeRange &gt;</text>
</g>
<!-- Node20 -->
<g id="node21" class="node"><title>Node20</title>
<g id="a_node21"><a xlink:href="../../d8/d78/class_template_node_creator.html" target="_top" xlink:title="TemplateNodeCreator\l\&lt; TemplateNodeIndexEntry \&gt;">
<polygon fill="white" stroke="black" points="451.5,-543.906 451.5,-573.906 597.5,-573.906 597.5,-543.906 451.5,-543.906"/>
<text text-anchor="start" x="459.5" y="-561.906" font-family="Helvetica,sans-Serif" font-size="10.00">TemplateNodeCreator</text>
<text text-anchor="middle" x="524.5" y="-550.906" font-family="Helvetica,sans-Serif" font-size="10.00">&lt; TemplateNodeIndexEntry &gt;</text>
</a>
</g>
</g>
<!-- Node0&#45;&gt;Node20 -->
<g id="edge20" class="edge"><title>Node0&#45;&gt;Node20</title>
<path fill="none" stroke="orange" stroke-dasharray="5,2" d="M248.996,-521.163C256.735,-522.471 264.545,-523.749 272,-524.906 332.301,-534.268 400.968,-543.452 451.299,-549.91"/>
<polygon fill="orange" stroke="orange" points="249.344,-517.672 238.897,-519.434 248.164,-524.571 249.344,-517.672"/>
<text text-anchor="middle" x="348" y="-548.906" font-family="Helvetica,sans-Serif" font-size="10.00"> &lt; TemplateNodeIndexEntry &gt;</text>
</g>
<!-- Node22 -->
<g id="node23" class="node"><title>Node22</title>
<g id="a_node23"><a xlink:href="../../d8/d78/class_template_node_creator.html" target="_top" xlink:title="TemplateNodeCreator\l\&lt; TemplateNodeResource \&gt;">
<polygon fill="white" stroke="black" points="454.5,-494.906 454.5,-524.906 594.5,-524.906 594.5,-494.906 454.5,-494.906"/>
<text text-anchor="start" x="462.5" y="-512.906" font-family="Helvetica,sans-Serif" font-size="10.00">TemplateNodeCreator</text>
<text text-anchor="middle" x="524.5" y="-501.906" font-family="Helvetica,sans-Serif" font-size="10.00">&lt; TemplateNodeResource &gt;</text>
</a>
</g>
</g>
<!-- Node0&#45;&gt;Node22 -->
<g id="edge22" class="edge"><title>Node0&#45;&gt;Node22</title>
<path fill="none" stroke="orange" stroke-dasharray="5,2" d="M264.405,-509.906C321.803,-509.906 399.16,-509.906 454.371,-509.906"/>
<polygon fill="orange" stroke="orange" points="264.292,-506.406 254.292,-509.906 264.292,-513.406 264.292,-506.406"/>
<text text-anchor="middle" x="348" y="-512.906" font-family="Helvetica,sans-Serif" font-size="10.00"> &lt; TemplateNodeResource &gt;</text>
</g>
<!-- Node24 -->
<g id="node25" class="node"><title>Node24</title>
<g id="a_node25"><a xlink:href="../../d8/d78/class_template_node_creator.html" target="_top" xlink:title="TemplateNodeCreator\l\&lt; TemplateNodeInclude \&gt;">
<polygon fill="white" stroke="black" points="459.5,-445.906 459.5,-475.906 589.5,-475.906 589.5,-445.906 459.5,-445.906"/>
<text text-anchor="start" x="467.5" y="-463.906" font-family="Helvetica,sans-Serif" font-size="10.00">TemplateNodeCreator</text>
<text text-anchor="middle" x="524.5" y="-452.906" font-family="Helvetica,sans-Serif" font-size="10.00">&lt; TemplateNodeInclude &gt;</text>
</a>
</g>
</g>
<!-- Node0&#45;&gt;Node24 -->
<g id="edge24" class="edge"><title>Node0&#45;&gt;Node24</title>
<path fill="none" stroke="orange" stroke-dasharray="5,2" d="M248.996,-498.65C256.735,-497.342 264.545,-496.064 272,-494.906 335.567,-485.038 408.43,-475.367 459.31,-468.878"/>
<polygon fill="orange" stroke="orange" points="248.164,-495.242 238.897,-500.378 249.344,-502.141 248.164,-495.242"/>
<text text-anchor="middle" x="348" y="-497.906" font-family="Helvetica,sans-Serif" font-size="10.00"> &lt; TemplateNodeInclude &gt;</text>
</g>
<!-- Node26 -->
<g id="node27" class="node"><title>Node26</title>
<g id="a_node27"><a xlink:href="../../d8/d78/class_template_node_creator.html" target="_top" xlink:title="TemplateNodeCreator\l\&lt; TemplateNodeCreate \&gt;">
<polygon fill="white" stroke="black" points="460.5,-396.906 460.5,-426.906 588.5,-426.906 588.5,-396.906 460.5,-396.906"/>
<text text-anchor="start" x="468.5" y="-414.906" font-family="Helvetica,sans-Serif" font-size="10.00">TemplateNodeCreator</text>
<text text-anchor="middle" x="524.5" y="-403.906" font-family="Helvetica,sans-Serif" font-size="10.00">&lt; TemplateNodeCreate &gt;</text>
</a>
</g>
</g>
<!-- Node0&#45;&gt;Node26 -->
<g id="edge26" class="edge"><title>Node0&#45;&gt;Node26</title>
<path fill="none" stroke="orange" stroke-dasharray="5,2" d="M207.81,-494.282C224.481,-482.8 248.673,-467.721 272,-458.906 333.704,-435.59 408.449,-423.509 460.343,-417.475"/>
<polygon fill="orange" stroke="orange" points="205.531,-491.606 199.374,-500.228 209.564,-497.327 205.531,-491.606"/>
<text text-anchor="middle" x="348" y="-461.906" font-family="Helvetica,sans-Serif" font-size="10.00"> &lt; TemplateNodeCreate &gt;</text>
</g>
<!-- Node28 -->
<g id="node29" class="node"><title>Node28</title>
<g id="a_node29"><a xlink:href="../../d8/d78/class_template_node_creator.html" target="_top" xlink:title="TemplateNodeCreator\l\&lt; TemplateNodeOpenSubIndex \&gt;">
<polygon fill="white" stroke="black" points="443,-347.906 443,-377.906 606,-377.906 606,-347.906 443,-347.906"/>
<text text-anchor="start" x="451" y="-365.906" font-family="Helvetica,sans-Serif" font-size="10.00">TemplateNodeCreator</text>
<text text-anchor="middle" x="524.5" y="-354.906" font-family="Helvetica,sans-Serif" font-size="10.00">&lt; TemplateNodeOpenSubIndex &gt;</text>
</a>
</g>
</g>
<!-- Node0&#45;&gt;Node28 -->
<g id="edge28" class="edge"><title>Node0&#45;&gt;Node28</title>
<path fill="none" stroke="orange" stroke-dasharray="5,2" d="M196.727,-491.319C210.57,-468.053 237.55,-428.842 272,-408.906 323.865,-378.892 390.968,-367.742 442.815,-363.906"/>
<polygon fill="orange" stroke="orange" points="193.564,-489.797 191.615,-500.211 199.633,-493.286 193.564,-489.797"/>
<text text-anchor="middle" x="348" y="-411.906" font-family="Helvetica,sans-Serif" font-size="10.00"> &lt; TemplateNodeOpenSubIndex &gt;</text>
</g>
<!-- Node30 -->
<g id="node31" class="node"><title>Node30</title>
<g id="a_node31"><a xlink:href="../../d8/d78/class_template_node_creator.html" target="_top" xlink:title="TemplateNodeCreator\l\&lt; TemplateNodeIf \&gt;">
<polygon fill="white" stroke="black" points="468,-298.906 468,-328.906 581,-328.906 581,-298.906 468,-298.906"/>
<text text-anchor="start" x="476" y="-316.906" font-family="Helvetica,sans-Serif" font-size="10.00">TemplateNodeCreator</text>
<text text-anchor="middle" x="524.5" y="-305.906" font-family="Helvetica,sans-Serif" font-size="10.00">&lt; TemplateNodeIf &gt;</text>
</a>
</g>
</g>
<!-- Node0&#45;&gt;Node30 -->
<g id="edge30" class="edge"><title>Node0&#45;&gt;Node30</title>
<path fill="none" stroke="orange" stroke-dasharray="5,2" d="M190.969,-490.194C199.892,-455.745 223.38,-385.014 272,-350.906 329.627,-310.48 413.074,-306.066 467.797,-308.482"/>
<polygon fill="orange" stroke="orange" points="187.544,-489.466 188.571,-500.011 194.344,-491.128 187.544,-489.466"/>
<text text-anchor="middle" x="348" y="-353.906" font-family="Helvetica,sans-Serif" font-size="10.00"> &lt; TemplateNodeIf &gt;</text>
</g>
<!-- Node32 -->
<g id="node33" class="node"><title>Node32</title>
<g id="a_node33"><a xlink:href="../../d8/d78/class_template_node_creator.html" target="_top" xlink:title="TemplateNodeCreator\l\&lt; TemplateNodeMsg \&gt;">
<polygon fill="white" stroke="black" points="466,-249.906 466,-279.906 583,-279.906 583,-249.906 466,-249.906"/>
<text text-anchor="start" x="474" y="-267.906" font-family="Helvetica,sans-Serif" font-size="10.00">TemplateNodeCreator</text>
<text text-anchor="middle" x="524.5" y="-256.906" font-family="Helvetica,sans-Serif" font-size="10.00">&lt; TemplateNodeMsg &gt;</text>
</a>
</g>
</g>
<!-- Node0&#45;&gt;Node32 -->
<g id="edge32" class="edge"><title>Node0&#45;&gt;Node32</title>
<path fill="none" stroke="orange" stroke-dasharray="5,2" d="M187.845,-489.946C191.945,-446.387 208.255,-342.804 272,-293.906 327.275,-251.506 410.513,-250.492 465.899,-255.871"/>
<polygon fill="orange" stroke="orange" points="184.341,-489.851 187.014,-500.103 191.318,-490.422 184.341,-489.851"/>
<text text-anchor="middle" x="348" y="-296.906" font-family="Helvetica,sans-Serif" font-size="10.00"> &lt; TemplateNodeMsg &gt;</text>
</g>
<!-- Node34 -->
<g id="node35" class="node"><title>Node34</title>
<g id="a_node35"><a xlink:href="../../d8/d78/class_template_node_creator.html" target="_top" xlink:title="TemplateNodeCreator\l\&lt; TemplateNodeTree \&gt;">
<polygon fill="white" stroke="black" points="465.5,-200.906 465.5,-230.906 583.5,-230.906 583.5,-200.906 465.5,-200.906"/>
<text text-anchor="start" x="473.5" y="-218.906" font-family="Helvetica,sans-Serif" font-size="10.00">TemplateNodeCreator</text>
<text text-anchor="middle" x="524.5" y="-207.906" font-family="Helvetica,sans-Serif" font-size="10.00">&lt; TemplateNodeTree &gt;</text>
</a>
</g>
</g>
<!-- Node0&#45;&gt;Node34 -->
<g id="edge34" class="edge"><title>Node0&#45;&gt;Node34</title>
<path fill="none" stroke="orange" stroke-dasharray="5,2" d="M185.954,-490.173C185.728,-439.193 192.889,-302.644 272,-238.906 326.116,-195.306 409.63,-196.879 465.395,-204.401"/>
<polygon fill="orange" stroke="orange" points="182.454,-490.256 186.104,-500.203 189.454,-490.152 182.454,-490.256"/>
<text text-anchor="middle" x="348" y="-241.906" font-family="Helvetica,sans-Serif" font-size="10.00"> &lt; TemplateNodeTree &gt;</text>
</g>
<!-- Node36 -->
<g id="node37" class="node"><title>Node36</title>
<g id="a_node37"><a xlink:href="../../d8/d78/class_template_node_creator.html" target="_top" xlink:title="TemplateNodeCreator\l\&lt; TemplateNodeMarkers \&gt;">
<polygon fill="white" stroke="black" points="457.5,-151.906 457.5,-181.906 591.5,-181.906 591.5,-151.906 457.5,-151.906"/>
<text text-anchor="start" x="465.5" y="-169.906" font-family="Helvetica,sans-Serif" font-size="10.00">TemplateNodeCreator</text>
<text text-anchor="middle" x="524.5" y="-158.906" font-family="Helvetica,sans-Serif" font-size="10.00">&lt; TemplateNodeMarkers &gt;</text>
</a>
</g>
</g>
<!-- Node0&#45;&gt;Node36 -->
<g id="edge36" class="edge"><title>Node0&#45;&gt;Node36</title>
<path fill="none" stroke="orange" stroke-dasharray="5,2" d="M188.719,-490.372C196.396,-426.528 224.017,-225.84 272,-185.906 322.99,-143.47 401.71,-144.607 457.48,-152.606"/>
<polygon fill="orange" stroke="orange" points="185.24,-489.988 187.552,-500.328 192.193,-490.803 185.24,-489.988"/>
<text text-anchor="middle" x="348" y="-188.906" font-family="Helvetica,sans-Serif" font-size="10.00"> &lt; TemplateNodeMarkers &gt;</text>
</g>
<!-- Node38 -->
<g id="node39" class="node"><title>Node38</title>
<g id="a_node39"><a xlink:href="../../d8/d78/class_template_node_creator.html" target="_top" xlink:title="TemplateNodeCreator\l\&lt; TemplateNodeSpaceless \&gt;">
<polygon fill="white" stroke="black" points="452.5,-102.906 452.5,-132.906 596.5,-132.906 596.5,-102.906 452.5,-102.906"/>
<text text-anchor="start" x="460.5" y="-120.906" font-family="Helvetica,sans-Serif" font-size="10.00">TemplateNodeCreator</text>
<text text-anchor="middle" x="524.5" y="-109.906" font-family="Helvetica,sans-Serif" font-size="10.00">&lt; TemplateNodeSpaceless &gt;</text>
</a>
</g>
</g>
<!-- Node0&#45;&gt;Node38 -->
<g id="edge38" class="edge"><title>Node0&#45;&gt;Node38</title>
<path fill="none" stroke="orange" stroke-dasharray="5,2" d="M187.967,-490.054C193.633,-419.288 216.597,-181.083 272,-133.906 298.274,-111.534 387.666,-110.658 452.411,-113.281"/>
<polygon fill="orange" stroke="orange" points="184.459,-490.015 187.179,-500.254 191.439,-490.554 184.459,-490.015"/>
<text text-anchor="middle" x="348" y="-136.906" font-family="Helvetica,sans-Serif" font-size="10.00"> &lt; TemplateNodeSpaceless &gt;</text>
</g>
<!-- Node40 -->
<g id="node41" class="node"><title>Node40</title>
<g id="a_node41"><a xlink:href="../../d8/d78/class_template_node_creator.html" target="_top" xlink:title="TemplateNodeCreator\l\&lt; TemplateNodeEncoding \&gt;">
<polygon fill="white" stroke="black" points="455,-53.9064 455,-83.9064 594,-83.9064 594,-53.9064 455,-53.9064"/>
<text text-anchor="start" x="463" y="-71.9064" font-family="Helvetica,sans-Serif" font-size="10.00">TemplateNodeCreator</text>
<text text-anchor="middle" x="524.5" y="-60.9064" font-family="Helvetica,sans-Serif" font-size="10.00">&lt; TemplateNodeEncoding &gt;</text>
</a>
</g>
</g>
<!-- Node0&#45;&gt;Node40 -->
<g id="edge40" class="edge"><title>Node0&#45;&gt;Node40</title>
<path fill="none" stroke="orange" stroke-dasharray="5,2" d="M187.655,-489.746C192.4,-414.526 213.01,-151.822 272,-97.9064 320.665,-53.4276 398.646,-51.1161 454.881,-56.8276"/>
<polygon fill="orange" stroke="orange" points="184.136,-489.955 187.026,-500.148 191.123,-490.377 184.136,-489.955"/>
<text text-anchor="middle" x="348" y="-100.906" font-family="Helvetica,sans-Serif" font-size="10.00"> &lt; TemplateNodeEncoding &gt;</text>
</g>
<!-- Node42 -->
<g id="node43" class="node"><title>Node42</title>
<g id="a_node43"><a xlink:href="../../d8/d78/class_template_node_creator.html" target="_top" xlink:title="TemplateNodeCreator\l\&lt; TemplateNodeBlock \&gt;">
<polygon fill="white" stroke="black" points="463,-4.90639 463,-34.9064 586,-34.9064 586,-4.90639 463,-4.90639"/>
<text text-anchor="start" x="471" y="-22.9064" font-family="Helvetica,sans-Serif" font-size="10.00">TemplateNodeCreator</text>
<text text-anchor="middle" x="524.5" y="-11.9064" font-family="Helvetica,sans-Serif" font-size="10.00">&lt; TemplateNodeBlock &gt;</text>
</a>
</g>
</g>
<!-- Node0&#45;&gt;Node42 -->
<g id="edge42" class="edge"><title>Node0&#45;&gt;Node42</title>
<path fill="none" stroke="orange" stroke-dasharray="5,2" d="M187.024,-490.067C189.615,-408.648 203.836,-101.536 272,-39.9064 323.09,6.28697 406.31,3.27732 462.91,-5.91802"/>
<polygon fill="orange" stroke="orange" points="183.516,-490.288 186.721,-500.387 190.513,-490.494 183.516,-490.288"/>
<text text-anchor="middle" x="348" y="-42.9064" font-family="Helvetica,sans-Serif" font-size="10.00"> &lt; TemplateNodeBlock &gt;</text>
</g>
<!-- Node1 -->
<g id="node2" class="node"><title>Node1</title>
<g id="a_node2"><a xlink:href="../../d6/d53/class_template_node.html" target="_top" xlink:title="Base class of all nodes in a template&#39;s AST. ">
<polygon fill="white" stroke="black" points="0,-500.406 0,-519.406 80,-519.406 80,-500.406 0,-500.406"/>
<text text-anchor="middle" x="40" y="-507.406" font-family="Helvetica,sans-Serif" font-size="10.00">TemplateNode</text>
</a>
</g>
</g>
<!-- Node1&#45;&gt;Node0 -->
<g id="edge1" class="edge"><title>Node1&#45;&gt;Node0</title>
<path fill="none" stroke="midnightblue" d="M90.38,-509.906C98.9385,-509.906 107.969,-509.906 116.913,-509.906"/>
<polygon fill="midnightblue" stroke="midnightblue" points="90.212,-506.406 80.212,-509.906 90.212,-513.406 90.212,-506.406"/>
</g>
<!-- Node3 -->
<g id="node4" class="node"><title>Node3</title>
<g id="a_node4"><a xlink:href="../../d3/d37/class_template_node_cycle.html" target="_top" xlink:title="Class representing an &#39;cycle&#39; tag in a template. ">
<polygon fill="white" stroke="black" points="664.5,-990.406 664.5,-1009.41 770.5,-1009.41 770.5,-990.406 664.5,-990.406"/>
<text text-anchor="middle" x="717.5" y="-997.406" font-family="Helvetica,sans-Serif" font-size="10.00">TemplateNodeCycle</text>
</a>
</g>
</g>
<!-- Node2&#45;&gt;Node3 -->
<g id="edge3" class="edge"><title>Node2&#45;&gt;Node3</title>
<path fill="none" stroke="midnightblue" d="M596.849,-999.906C619.224,-999.906 643.491,-999.906 664.285,-999.906"/>
<polygon fill="midnightblue" stroke="midnightblue" points="596.722,-996.406 586.722,-999.906 596.722,-1003.41 596.722,-996.406"/>
</g>
<!-- Node5 -->
<g id="node6" class="node"><title>Node5</title>
<g id="a_node6"><a xlink:href="../../d5/da1/class_template_node_for.html" target="_top" xlink:title="Class representing a &#39;for&#39; tag in a template. ">
<polygon fill="white" stroke="black" points="670,-941.406 670,-960.406 765,-960.406 765,-941.406 670,-941.406"/>
<text text-anchor="middle" x="717.5" y="-948.406" font-family="Helvetica,sans-Serif" font-size="10.00">TemplateNodeFor</text>
</a>
</g>
</g>
<!-- Node4&#45;&gt;Node5 -->
<g id="edge5" class="edge"><title>Node4&#45;&gt;Node5</title>
<path fill="none" stroke="midnightblue" d="M591.128,-950.906C617.041,-950.906 646.216,-950.906 669.898,-950.906"/>
<polygon fill="midnightblue" stroke="midnightblue" points="591.002,-947.406 581.002,-950.906 591.002,-954.406 591.002,-947.406"/>
</g>
<!-- Node7 -->
<g id="node8" class="node"><title>Node7</title>
<g id="a_node8"><a xlink:href="../../db/d54/class_template_node_repeat.html" target="_top" xlink:title="Class representing a &#39;for&#39; tag in a template. ">
<polygon fill="white" stroke="black" points="661.5,-892.406 661.5,-911.406 773.5,-911.406 773.5,-892.406 661.5,-892.406"/>
<text text-anchor="middle" x="717.5" y="-899.406" font-family="Helvetica,sans-Serif" font-size="10.00">TemplateNodeRepeat</text>
</a>
</g>
</g>
<!-- Node6&#45;&gt;Node7 -->
<g id="edge7" class="edge"><title>Node6&#45;&gt;Node7</title>
<path fill="none" stroke="midnightblue" d="M599.891,-901.906C620.401,-901.906 642.279,-901.906 661.478,-901.906"/>
<polygon fill="midnightblue" stroke="midnightblue" points="599.632,-898.406 589.632,-901.906 599.632,-905.406 599.632,-898.406"/>
</g>
<!-- Node9 -->
<g id="node10" class="node"><title>Node9</title>
<g id="a_node10"><a xlink:href="../../d3/d86/class_template_node_set.html" target="_top" xlink:title="Class representing an &#39;set&#39; tag in a template. ">
<polygon fill="white" stroke="black" points="670,-843.406 670,-862.406 765,-862.406 765,-843.406 670,-843.406"/>
<text text-anchor="middle" x="717.5" y="-850.406" font-family="Helvetica,sans-Serif" font-size="10.00">TemplateNodeSet</text>
</a>
</g>
</g>
<!-- Node8&#45;&gt;Node9 -->
<g id="edge9" class="edge"><title>Node8&#45;&gt;Node9</title>
<path fill="none" stroke="midnightblue" d="M591.128,-852.906C617.041,-852.906 646.216,-852.906 669.898,-852.906"/>
<polygon fill="midnightblue" stroke="midnightblue" points="591.002,-849.406 581.002,-852.906 591.002,-856.406 591.002,-849.406"/>
</g>
<!-- Node11 -->
<g id="node12" class="node"><title>Node11</title>
<g id="a_node12"><a xlink:href="../../da/da1/class_template_node_tabbing.html" target="_top" xlink:title="Class representing an &#39;tabbing&#39; tag in a template. ">
<polygon fill="white" stroke="black" points="660,-794.406 660,-813.406 775,-813.406 775,-794.406 660,-794.406"/>
<text text-anchor="middle" x="717.5" y="-801.406" font-family="Helvetica,sans-Serif" font-size="10.00">TemplateNodeTabbing</text>
</a>
</g>
</g>
<!-- Node10&#45;&gt;Node11 -->
<g id="edge11" class="edge"><title>Node10&#45;&gt;Node11</title>
<path fill="none" stroke="midnightblue" d="M601.32,-803.906C620.846,-803.906 641.521,-803.906 659.882,-803.906"/>
<polygon fill="midnightblue" stroke="midnightblue" points="601.231,-800.406 591.231,-803.906 601.231,-807.406 601.231,-800.406"/>
</g>
<!-- Node13 -->
<g id="node14" class="node"><title>Node13</title>
<g id="a_node14"><a xlink:href="../../d0/d21/class_template_node_extend.html" target="_top" xlink:title="Class representing a &#39;extend&#39; tag in a template. ">
<polygon fill="white" stroke="black" points="662,-745.406 662,-764.406 773,-764.406 773,-745.406 662,-745.406"/>
<text text-anchor="middle" x="717.5" y="-752.406" font-family="Helvetica,sans-Serif" font-size="10.00">TemplateNodeExtend</text>
</a>
</g>
</g>
<!-- Node12&#45;&gt;Node13 -->
<g id="edge13" class="edge"><title>Node12&#45;&gt;Node13</title>
<path fill="none" stroke="midnightblue" d="M599.19,-754.906C620.019,-754.906 642.312,-754.906 661.809,-754.906"/>
<polygon fill="midnightblue" stroke="midnightblue" points="599.1,-751.406 589.1,-754.906 599.1,-758.406 599.1,-751.406"/>
</g>
<!-- Node15 -->
<g id="node16" class="node"><title>Node15</title>
<g id="a_node16"><a xlink:href="../../d6/df7/class_template_node_with.html" target="_top" xlink:title="Class representing an &#39;with&#39; tag in a template. ">
<polygon fill="white" stroke="black" points="667,-696.406 667,-715.406 768,-715.406 768,-696.406 667,-696.406"/>
<text text-anchor="middle" x="717.5" y="-703.406" font-family="Helvetica,sans-Serif" font-size="10.00">TemplateNodeWith</text>
</a>
</g>
</g>
<!-- Node14&#45;&gt;Node15 -->
<g id="edge15" class="edge"><title>Node14&#45;&gt;Node15</title>
<path fill="none" stroke="midnightblue" d="M594.204,-705.906C618.165,-705.906 644.575,-705.906 666.702,-705.906"/>
<polygon fill="midnightblue" stroke="midnightblue" points="594.104,-702.406 584.104,-705.906 594.104,-709.406 594.104,-702.406"/>
</g>
<!-- Node17 -->
<g id="node18" class="node"><title>Node17</title>
<g id="a_node18"><a xlink:href="../../dd/dff/class_template_node_close_sub_index.html" target="_top" xlink:title="Class representing an &#39;closesubindex&#39; tag in a template. ">
<polygon fill="white" stroke="black" points="644,-647.406 644,-666.406 791,-666.406 791,-647.406 644,-647.406"/>
<text text-anchor="middle" x="717.5" y="-654.406" font-family="Helvetica,sans-Serif" font-size="10.00">TemplateNodeCloseSubIndex</text>
</a>
</g>
</g>
<!-- Node16&#45;&gt;Node17 -->
<g id="edge17" class="edge"><title>Node16&#45;&gt;Node17</title>
<path fill="none" stroke="midnightblue" d="M617.173,-656.906C626.166,-656.906 635.204,-656.906 643.969,-656.906"/>
<polygon fill="midnightblue" stroke="midnightblue" points="617.055,-653.406 607.055,-656.906 617.055,-660.406 617.055,-653.406"/>
</g>
<!-- Node19 -->
<g id="node20" class="node"><title>Node19</title>
<g id="a_node20"><a xlink:href="../../d6/d83/class_template_node_range.html" target="_top" xlink:title="Class representing a &#39;range&#39; tag in a template. ">
<polygon fill="white" stroke="black" points="663,-598.406 663,-617.406 772,-617.406 772,-598.406 663,-598.406"/>
<text text-anchor="middle" x="717.5" y="-605.406" font-family="Helvetica,sans-Serif" font-size="10.00">TemplateNodeRange</text>
</a>
</g>
</g>
<!-- Node18&#45;&gt;Node19 -->
<g id="edge19" class="edge"><title>Node18&#45;&gt;Node19</title>
<path fill="none" stroke="midnightblue" d="M598.108,-607.906C619.597,-607.906 642.73,-607.906 662.796,-607.906"/>
<polygon fill="midnightblue" stroke="midnightblue" points="598.041,-604.406 588.041,-607.906 598.041,-611.406 598.041,-604.406"/>
</g>
<!-- Node21 -->
<g id="node22" class="node"><title>Node21</title>
<g id="a_node22"><a xlink:href="../../da/ddd/class_template_node_index_entry.html" target="_top" xlink:title="Class representing an &#39;indexentry&#39; tag in a template. ">
<polygon fill="white" stroke="black" points="653.5,-549.406 653.5,-568.406 781.5,-568.406 781.5,-549.406 653.5,-549.406"/>
<text text-anchor="middle" x="717.5" y="-556.406" font-family="Helvetica,sans-Serif" font-size="10.00">TemplateNodeIndexEntry</text>
</a>
</g>
</g>
<!-- Node20&#45;&gt;Node21 -->
<g id="edge21" class="edge"><title>Node20&#45;&gt;Node21</title>
<path fill="none" stroke="midnightblue" d="M608.098,-558.906C623.233,-558.906 638.809,-558.906 653.267,-558.906"/>
<polygon fill="midnightblue" stroke="midnightblue" points="607.709,-555.406 597.709,-558.906 607.709,-562.406 607.709,-555.406"/>
</g>
<!-- Node23 -->
<g id="node24" class="node"><title>Node23</title>
<g id="a_node24"><a xlink:href="../../d8/d57/class_template_node_resource.html" target="_top" xlink:title="Class representing an &#39;markers&#39; tag in a template. ">
<polygon fill="white" stroke="black" points="656.5,-500.406 656.5,-519.406 778.5,-519.406 778.5,-500.406 656.5,-500.406"/>
<text text-anchor="middle" x="717.5" y="-507.406" font-family="Helvetica,sans-Serif" font-size="10.00">TemplateNodeResource</text>
</a>
</g>
</g>
<!-- Node22&#45;&gt;Node23 -->
<g id="edge23" class="edge"><title>Node22&#45;&gt;Node23</title>
<path fill="none" stroke="midnightblue" d="M604.776,-509.906C622.018,-509.906 639.988,-509.906 656.346,-509.906"/>
<polygon fill="midnightblue" stroke="midnightblue" points="604.725,-506.406 594.725,-509.906 604.725,-513.406 604.725,-506.406"/>
</g>
<!-- Node25 -->
<g id="node26" class="node"><title>Node25</title>
<g id="a_node26"><a xlink:href="../../da/d4b/class_template_node_include.html" target="_top" xlink:title="Class representing an &#39;include&#39; tag in a template. ">
<polygon fill="white" stroke="black" points="661.5,-451.406 661.5,-470.406 773.5,-470.406 773.5,-451.406 661.5,-451.406"/>
<text text-anchor="middle" x="717.5" y="-458.406" font-family="Helvetica,sans-Serif" font-size="10.00">TemplateNodeInclude</text>
</a>
</g>
</g>
<!-- Node24&#45;&gt;Node25 -->
<g id="edge25" class="edge"><title>Node24&#45;&gt;Node25</title>
<path fill="none" stroke="midnightblue" d="M599.891,-460.906C620.401,-460.906 642.279,-460.906 661.478,-460.906"/>
<polygon fill="midnightblue" stroke="midnightblue" points="599.632,-457.406 589.632,-460.906 599.632,-464.406 599.632,-457.406"/>
</g>
<!-- Node27 -->
<g id="node28" class="node"><title>Node27</title>
<g id="a_node28"><a xlink:href="../../d5/dcd/class_template_node_create.html" target="_top" xlink:title="Class representing an &#39;create&#39; tag in a template. ">
<polygon fill="white" stroke="black" points="662.5,-402.406 662.5,-421.406 772.5,-421.406 772.5,-402.406 662.5,-402.406"/>
<text text-anchor="middle" x="717.5" y="-409.406" font-family="Helvetica,sans-Serif" font-size="10.00">TemplateNodeCreate</text>
</a>
</g>
</g>
<!-- Node26&#45;&gt;Node27 -->
<g id="edge27" class="edge"><title>Node26&#45;&gt;Node27</title>
<path fill="none" stroke="midnightblue" d="M598.818,-411.906C619.985,-411.906 642.691,-411.906 662.457,-411.906"/>
<polygon fill="midnightblue" stroke="midnightblue" points="598.57,-408.406 588.57,-411.906 598.57,-415.406 598.57,-408.406"/>
</g>
<!-- Node29 -->
<g id="node30" class="node"><title>Node29</title>
<g id="a_node30"><a xlink:href="../../d6/d20/class_template_node_open_sub_index.html" target="_top" xlink:title="Class representing an &#39;opensubindex&#39; tag in a template. ">
<polygon fill="white" stroke="black" points="645,-353.406 645,-372.406 790,-372.406 790,-353.406 645,-353.406"/>
<text text-anchor="middle" x="717.5" y="-360.406" font-family="Helvetica,sans-Serif" font-size="10.00">TemplateNodeOpenSubIndex</text>
</a>
</g>
</g>
<!-- Node28&#45;&gt;Node29 -->
<g id="edge29" class="edge"><title>Node28&#45;&gt;Node29</title>
<path fill="none" stroke="midnightblue" d="M616.506,-362.906C626.02,-362.906 635.593,-362.906 644.847,-362.906"/>
<polygon fill="midnightblue" stroke="midnightblue" points="616.224,-359.406 606.224,-362.906 616.224,-366.406 616.224,-359.406"/>
</g>
<!-- Node31 -->
<g id="node32" class="node"><title>Node31</title>
<g id="a_node32"><a xlink:href="../../d8/d38/class_template_node_if.html" target="_top" xlink:title="Class representing an &#39;if&#39; tag in a template. ">
<polygon fill="white" stroke="black" points="674.5,-304.406 674.5,-323.406 760.5,-323.406 760.5,-304.406 674.5,-304.406"/>
<text text-anchor="middle" x="717.5" y="-311.406" font-family="Helvetica,sans-Serif" font-size="10.00">TemplateNodeIf</text>
</a>
</g>
</g>
<!-- Node30&#45;&gt;Node31 -->
<g id="edge31" class="edge"><title>Node30&#45;&gt;Node31</title>
<path fill="none" stroke="midnightblue" d="M591.33,-313.906C618.798,-313.906 649.903,-313.906 674.234,-313.906"/>
<polygon fill="midnightblue" stroke="midnightblue" points="591.002,-310.406 581.002,-313.906 591.002,-317.406 591.002,-310.406"/>
</g>
<!-- Node33 -->
<g id="node34" class="node"><title>Node33</title>
<g id="a_node34"><a xlink:href="../../d4/d50/class_template_node_msg.html" target="_top" xlink:title="Class representing an &#39;markers&#39; tag in a template. ">
<polygon fill="white" stroke="black" points="668,-255.406 668,-274.406 767,-274.406 767,-255.406 668,-255.406"/>
<text text-anchor="middle" x="717.5" y="-262.406" font-family="Helvetica,sans-Serif" font-size="10.00">TemplateNodeMsg</text>
</a>
</g>
</g>
<!-- Node32&#45;&gt;Node33 -->
<g id="edge33" class="edge"><title>Node32&#45;&gt;Node33</title>
<path fill="none" stroke="midnightblue" d="M593.075,-264.906C617.713,-264.906 645.071,-264.906 667.755,-264.906"/>
<polygon fill="midnightblue" stroke="midnightblue" points="593.065,-261.406 583.065,-264.906 593.065,-268.406 593.065,-261.406"/>
</g>
<!-- Node35 -->
<g id="node36" class="node"><title>Node35</title>
<g id="a_node36"><a xlink:href="../../d8/d31/class_template_node_tree.html" target="_top" xlink:title="Class representing an &#39;tree&#39; tag in a template. ">
<polygon fill="white" stroke="black" points="667.5,-206.406 667.5,-225.406 767.5,-225.406 767.5,-206.406 667.5,-206.406"/>
<text text-anchor="middle" x="717.5" y="-213.406" font-family="Helvetica,sans-Serif" font-size="10.00">TemplateNodeTree</text>
</a>
</g>
</g>
<!-- Node34&#45;&gt;Node35 -->
<g id="edge35" class="edge"><title>Node34&#45;&gt;Node35</title>
<path fill="none" stroke="midnightblue" d="M593.825,-215.906C618.133,-215.906 645.003,-215.906 667.384,-215.906"/>
<polygon fill="midnightblue" stroke="midnightblue" points="593.584,-212.406 583.584,-215.906 593.584,-219.406 593.584,-212.406"/>
</g>
<!-- Node37 -->
<g id="node38" class="node"><title>Node37</title>
<g id="a_node38"><a xlink:href="../../d9/d8f/class_template_node_markers.html" target="_top" xlink:title="Class representing an &#39;markers&#39; tag in a template. ">
<polygon fill="white" stroke="black" points="659.5,-157.406 659.5,-176.406 775.5,-176.406 775.5,-157.406 659.5,-157.406"/>
<text text-anchor="middle" x="717.5" y="-164.406" font-family="Helvetica,sans-Serif" font-size="10.00">TemplateNodeMarkers</text>
</a>
</g>
</g>
<!-- Node36&#45;&gt;Node37 -->
<g id="edge37" class="edge"><title>Node36&#45;&gt;Node37</title>
<path fill="none" stroke="midnightblue" d="M601.952,-166.906C621.07,-166.906 641.249,-166.906 659.254,-166.906"/>
<polygon fill="midnightblue" stroke="midnightblue" points="601.767,-163.406 591.766,-166.906 601.766,-170.406 601.767,-163.406"/>
</g>
<!-- Node39 -->
<g id="node40" class="node"><title>Node39</title>
<g id="a_node40"><a xlink:href="../../df/dc6/class_template_node_spaceless.html" target="_top" xlink:title="Class representing an &#39;spaceless&#39; tag in a template. ">
<polygon fill="white" stroke="black" points="654.5,-108.406 654.5,-127.406 780.5,-127.406 780.5,-108.406 654.5,-108.406"/>
<text text-anchor="middle" x="717.5" y="-115.406" font-family="Helvetica,sans-Serif" font-size="10.00">TemplateNodeSpaceless</text>
</a>
</g>
</g>
<!-- Node38&#45;&gt;Node39 -->
<g id="edge39" class="edge"><title>Node38&#45;&gt;Node39</title>
<path fill="none" stroke="midnightblue" d="M606.97,-117.906C622.863,-117.906 639.286,-117.906 654.426,-117.906"/>
<polygon fill="midnightblue" stroke="midnightblue" points="606.621,-114.406 596.621,-117.906 606.621,-121.406 606.621,-114.406"/>
</g>
<!-- Node41 -->
<g id="node42" class="node"><title>Node41</title>
<g id="a_node42"><a xlink:href="../../d3/d38/class_template_node_encoding.html" target="_top" xlink:title="Class representing the &#39;encoding&#39; tag in a template. ">
<polygon fill="white" stroke="black" points="657,-59.4064 657,-78.4064 778,-78.4064 778,-59.4064 657,-59.4064"/>
<text text-anchor="middle" x="717.5" y="-66.4064" font-family="Helvetica,sans-Serif" font-size="10.00">TemplateNodeEncoding</text>
</a>
</g>
</g>
<!-- Node40&#45;&gt;Node41 -->
<g id="edge41" class="edge"><title>Node40&#45;&gt;Node41</title>
<path fill="none" stroke="midnightblue" d="M604.419,-68.9064C621.982,-68.9064 640.318,-68.9064 656.95,-68.9064"/>
<polygon fill="midnightblue" stroke="midnightblue" points="604.186,-65.4065 594.186,-68.9064 604.186,-72.4065 604.186,-65.4065"/>
</g>
<!-- Node43 -->
<g id="node44" class="node"><title>Node43</title>
<g id="a_node44"><a xlink:href="../../d2/de0/class_template_node_block.html" target="_top" xlink:title="Class representing a &#39;block&#39; tag in a template. ">
<polygon fill="white" stroke="black" points="665,-10.4064 665,-29.4064 770,-29.4064 770,-10.4064 665,-10.4064"/>
<text text-anchor="middle" x="717.5" y="-17.4064" font-family="Helvetica,sans-Serif" font-size="10.00">TemplateNodeBlock</text>
</a>
</g>
</g>
<!-- Node42&#45;&gt;Node43 -->
<g id="edge43" class="edge"><title>Node42&#45;&gt;Node43</title>
<path fill="none" stroke="midnightblue" d="M596.474,-19.9064C619.19,-19.9064 643.893,-19.9064 664.95,-19.9064"/>
<polygon fill="midnightblue" stroke="midnightblue" points="596.196,-16.4065 586.196,-19.9064 596.196,-23.4065 596.196,-16.4065"/>
</g>
</g>
</svg>
