<?xml version="1.0" encoding="UTF-8" standalone="no"?>
<!DOCTYPE svg PUBLIC "-//W3C//DTD SVG 1.1//EN"
 "http://www.w3.org/Graphics/SVG/1.1/DTD/svg11.dtd">
<!-- Generated by graphviz version 2.38.0 (20140413.2041)
 -->
<!-- Title: DocHtmlDescList Pages: 1 -->
<svg width="254pt" height="152pt"
 viewBox="0.00 0.00 254.00 152.00" xmlns="http://www.w3.org/2000/svg" xmlns:xlink="http://www.w3.org/1999/xlink">
<g id="graph0" class="graph" transform="scale(1 1) rotate(0) translate(4 148)">
<title>DocHtmlDescList</title>
<polygon fill="white" stroke="none" points="-4,4 -4,-148 250,-148 250,4 -4,4"/>
<!-- Node0 -->
<g id="node1" class="node"><title>Node0</title>
<polygon fill="#bfbfbf" stroke="black" points="136.5,-0.5 136.5,-19.5 231.5,-19.5 231.5,-0.5 136.5,-0.5"/>
<text text-anchor="middle" x="184" y="-7.5" font-family="Helvetica,sans-Serif" font-size="10.00">DocHtmlDescList</text>
</g>
<!-- Node1 -->
<g id="node2" class="node"><title>Node1</title>
<g id="a_node2"><a xlink:href="../../d7/da3/class_comp_accept.html" target="_top" xlink:title="CompAccept\&lt; DocHtmlDescList \&gt;">
<polygon fill="white" stroke="black" points="0,-57.5 0,-76.5 170,-76.5 170,-57.5 0,-57.5"/>
<text text-anchor="middle" x="85" y="-64.5" font-family="Helvetica,sans-Serif" font-size="10.00">CompAccept&lt; DocHtmlDescList &gt;</text>
</a>
</g>
</g>
<!-- Node1&#45;&gt;Node0 -->
<g id="edge1" class="edge"><title>Node1&#45;&gt;Node0</title>
<path fill="none" stroke="midnightblue" d="M109.236,-52.5353C127.774,-42.2365 152.771,-28.3496 168.64,-19.5334"/>
<polygon fill="midnightblue" stroke="midnightblue" points="107.511,-49.4902 100.469,-57.4062 110.91,-55.6093 107.511,-49.4902"/>
</g>
<!-- Node2 -->
<g id="node3" class="node"><title>Node2</title>
<g id="a_node3"><a xlink:href="../../d7/da3/class_comp_accept.html" target="_top" xlink:title="Default accept implementation for compound nodes in the abstract syntax tree. ">
<polygon fill="white" stroke="black" points="36,-124.5 36,-143.5 134,-143.5 134,-124.5 36,-124.5"/>
<text text-anchor="middle" x="85" y="-131.5" font-family="Helvetica,sans-Serif" font-size="10.00">CompAccept&lt; T &gt;</text>
</a>
</g>
</g>
<!-- Node2&#45;&gt;Node1 -->
<g id="edge2" class="edge"><title>Node2&#45;&gt;Node1</title>
<path fill="none" stroke="orange" stroke-dasharray="5,2" d="M85,-114.037C85,-101.67 85,-86.1198 85,-76.6273"/>
<polygon fill="orange" stroke="orange" points="81.5001,-114.234 85,-124.234 88.5001,-114.234 81.5001,-114.234"/>
<text text-anchor="middle" x="135" y="-98" font-family="Helvetica,sans-Serif" font-size="10.00"> &lt; DocHtmlDescList &gt;</text>
</g>
<!-- Node3 -->
<g id="node4" class="node"><title>Node3</title>
<g id="a_node4"><a xlink:href="../../d9/d0e/class_doc_node.html" target="_top" xlink:title="Abstract node interface with type information. ">
<polygon fill="white" stroke="black" points="188,-57.5 188,-76.5 246,-76.5 246,-57.5 188,-57.5"/>
<text text-anchor="middle" x="217" y="-64.5" font-family="Helvetica,sans-Serif" font-size="10.00">DocNode</text>
</a>
</g>
</g>
<!-- Node3&#45;&gt;Node0 -->
<g id="edge3" class="edge"><title>Node3&#45;&gt;Node0</title>
<path fill="none" stroke="midnightblue" d="M206.581,-48.6354C200.806,-39.0102 193.875,-27.459 189.229,-19.7149"/>
<polygon fill="midnightblue" stroke="midnightblue" points="203.698,-50.6321 211.844,-57.4062 209.7,-47.0306 203.698,-50.6321"/>
</g>
</g>
</svg>
