<?xml version="1.0" encoding="UTF-8" standalone="no"?>
<!DOCTYPE svg PUBLIC "-//W3C//DTD SVG 1.1//EN"
 "http://www.w3.org/Graphics/SVG/1.1/DTD/svg11.dtd">
<!-- Generated by graphviz version 2.38.0 (20140413.2041)
 -->
<!-- Title: CompAccept&lt; T &gt; Pages: 1 -->
<svg width="573pt" height="1356pt"
 viewBox="0.00 0.00 573.00 1355.87" xmlns="http://www.w3.org/2000/svg" xmlns:xlink="http://www.w3.org/1999/xlink">
<g id="graph0" class="graph" transform="scale(1 1) rotate(0) translate(4 1351.87)">
<title>CompAccept&lt; T &gt;</title>
<polygon fill="white" stroke="none" points="-4,4 -4,-1351.87 569,-1351.87 569,4 -4,4"/>
<!-- Node0 -->
<g id="node1" class="node"><title>Node0</title>
<polygon fill="#bfbfbf" stroke="black" points="0,-657.365 0,-676.365 98,-676.365 98,-657.365 0,-657.365"/>
<text text-anchor="middle" x="49" y="-664.365" font-family="Helvetica,sans-Serif" font-size="10.00">CompAccept&lt; T &gt;</text>
</g>
<!-- Node1 -->
<g id="node2" class="node"><title>Node1</title>
<g id="a_node2"><a xlink:href="../../d7/da3/class_comp_accept.html" target="_top" xlink:title="CompAccept\&lt; DocParamSect \&gt;">
<polygon fill="white" stroke="black" points="254.5,-1315.37 254.5,-1334.37 412.5,-1334.37 412.5,-1315.37 254.5,-1315.37"/>
<text text-anchor="middle" x="333.5" y="-1322.37" font-family="Helvetica,sans-Serif" font-size="10.00">CompAccept&lt; DocParamSect &gt;</text>
</a>
</g>
</g>
<!-- Node0&#45;&gt;Node1 -->
<g id="edge1" class="edge"><title>Node0&#45;&gt;Node1</title>
<path fill="none" stroke="orange" stroke-dasharray="5,2" d="M50.6311,-686.621C54.0772,-788.668 72.1016,-1253.09 116,-1297.87 158.824,-1341.55 233.78,-1340.86 283.283,-1334.4"/>
<polygon fill="orange" stroke="orange" points="54.1245,-686.361 50.2969,-676.481 47.1283,-686.591 54.1245,-686.361"/>
<text text-anchor="middle" x="172" y="-1339.87" font-family="Helvetica,sans-Serif" font-size="10.00"> &lt; DocParamSect &gt;</text>
</g>
<!-- Node3 -->
<g id="node4" class="node"><title>Node3</title>
<g id="a_node4"><a xlink:href="../../d7/da3/class_comp_accept.html" target="_top" xlink:title="CompAccept\&lt; DocHtmlDescList \&gt;">
<polygon fill="white" stroke="black" points="248.5,-1277.37 248.5,-1296.37 418.5,-1296.37 418.5,-1277.37 248.5,-1277.37"/>
<text text-anchor="middle" x="333.5" y="-1284.37" font-family="Helvetica,sans-Serif" font-size="10.00">CompAccept&lt; DocHtmlDescList &gt;</text>
</a>
</g>
</g>
<!-- Node0&#45;&gt;Node3 -->
<g id="edge3" class="edge"><title>Node0&#45;&gt;Node3</title>
<path fill="none" stroke="orange" stroke-dasharray="5,2" d="M50.7843,-686.97C54.8336,-785.919 74.7935,-1218.11 116,-1259.87 134.325,-1278.43 195.614,-1284.84 248.324,-1286.79"/>
<polygon fill="orange" stroke="orange" points="54.2756,-686.681 50.3778,-676.829 47.2812,-686.961 54.2756,-686.681"/>
<text text-anchor="middle" x="172" y="-1287.87" font-family="Helvetica,sans-Serif" font-size="10.00"> &lt; DocHtmlDescList &gt;</text>
</g>
<!-- Node5 -->
<g id="node6" class="node"><title>Node5</title>
<g id="a_node6"><a xlink:href="../../d7/da3/class_comp_accept.html" target="_top" xlink:title="CompAccept\&lt; DocSimpleList \&gt;">
<polygon fill="white" stroke="black" points="256,-1239.37 256,-1258.37 411,-1258.37 411,-1239.37 256,-1239.37"/>
<text text-anchor="middle" x="333.5" y="-1246.37" font-family="Helvetica,sans-Serif" font-size="10.00">CompAccept&lt; DocSimpleList &gt;</text>
</a>
</g>
</g>
<!-- Node0&#45;&gt;Node5 -->
<g id="edge5" class="edge"><title>Node0&#45;&gt;Node5</title>
<path fill="none" stroke="orange" stroke-dasharray="5,2" d="M50.9392,-686.855C55.5817,-781.667 77.4146,-1183.06 116,-1221.87 135.263,-1241.24 201.557,-1247.35 255.765,-1249"/>
<polygon fill="orange" stroke="orange" points="54.4244,-686.461 50.4481,-676.64 47.4325,-686.797 54.4244,-686.461"/>
<text text-anchor="middle" x="172" y="-1249.87" font-family="Helvetica,sans-Serif" font-size="10.00"> &lt; DocSimpleList &gt;</text>
</g>
<!-- Node7 -->
<g id="node8" class="node"><title>Node7</title>
<g id="a_node8"><a xlink:href="../../d7/da3/class_comp_accept.html" target="_top" xlink:title="CompAccept\&lt; DocHtmlCaption \&gt;">
<polygon fill="white" stroke="black" points="251.5,-1201.37 251.5,-1220.37 415.5,-1220.37 415.5,-1201.37 251.5,-1201.37"/>
<text text-anchor="middle" x="333.5" y="-1208.37" font-family="Helvetica,sans-Serif" font-size="10.00">CompAccept&lt; DocHtmlCaption &gt;</text>
</a>
</g>
</g>
<!-- Node0&#45;&gt;Node7 -->
<g id="edge7" class="edge"><title>Node0&#45;&gt;Node7</title>
<path fill="none" stroke="orange" stroke-dasharray="5,2" d="M51.1077,-686.608C56.3606,-776.939 80.0131,-1147.98 116,-1183.87 134.809,-1202.62 197.99,-1208.93 251.278,-1210.8"/>
<polygon fill="orange" stroke="orange" points="54.5892,-686.184 50.5235,-676.4 47.6006,-686.583 54.5892,-686.184"/>
<text text-anchor="middle" x="172" y="-1211.87" font-family="Helvetica,sans-Serif" font-size="10.00"> &lt; DocHtmlCaption &gt;</text>
</g>
<!-- Node9 -->
<g id="node10" class="node"><title>Node9</title>
<g id="a_node10"><a xlink:href="../../d7/da3/class_comp_accept.html" target="_top" xlink:title="CompAccept\&lt; DocParBlock \&gt;">
<polygon fill="white" stroke="black" points="259,-1163.37 259,-1182.37 408,-1182.37 408,-1163.37 259,-1163.37"/>
<text text-anchor="middle" x="333.5" y="-1170.37" font-family="Helvetica,sans-Serif" font-size="10.00">CompAccept&lt; DocParBlock &gt;</text>
</a>
</g>
</g>
<!-- Node0&#45;&gt;Node9 -->
<g id="edge9" class="edge"><title>Node0&#45;&gt;Node9</title>
<path fill="none" stroke="orange" stroke-dasharray="5,2" d="M49.6694,-686.947C48.7571,-769.381 49.8091,-1080.52 116,-1145.87 135.812,-1165.42 204.257,-1171.42 258.951,-1172.99"/>
<polygon fill="orange" stroke="orange" points="53.1751,-686.546 49.8108,-676.5 46.1757,-686.452 53.1751,-686.546"/>
<text text-anchor="middle" x="172" y="-1174.87" font-family="Helvetica,sans-Serif" font-size="10.00"> &lt; DocParBlock &gt;</text>
</g>
<!-- Node11 -->
<g id="node12" class="node"><title>Node11</title>
<g id="a_node12"><a xlink:href="../../d7/da3/class_comp_accept.html" target="_top" xlink:title="CompAccept\&lt; DocRef \&gt;">
<polygon fill="white" stroke="black" points="271,-1125.37 271,-1144.37 396,-1144.37 396,-1125.37 271,-1125.37"/>
<text text-anchor="middle" x="333.5" y="-1132.37" font-family="Helvetica,sans-Serif" font-size="10.00">CompAccept&lt; DocRef &gt;</text>
</a>
</g>
</g>
<!-- Node0&#45;&gt;Node11 -->
<g id="edge11" class="edge"><title>Node0&#45;&gt;Node11</title>
<path fill="none" stroke="orange" stroke-dasharray="5,2" d="M49.9322,-686.838C50.1071,-764.944 54.998,-1048.34 116,-1107.87 137.383,-1128.73 214.621,-1134.13 270.759,-1135.21"/>
<polygon fill="orange" stroke="orange" points="53.4322,-686.491 49.9356,-676.49 46.4322,-686.489 53.4322,-686.491"/>
<text text-anchor="middle" x="172" y="-1136.87" font-family="Helvetica,sans-Serif" font-size="10.00"> &lt; DocRef &gt;</text>
</g>
<!-- Node13 -->
<g id="node14" class="node"><title>Node13</title>
<g id="a_node14"><a xlink:href="../../d7/da3/class_comp_accept.html" target="_top" xlink:title="CompAccept\&lt; DocXRefItem \&gt;">
<polygon fill="white" stroke="black" points="257.5,-1087.37 257.5,-1106.37 409.5,-1106.37 409.5,-1087.37 257.5,-1087.37"/>
<text text-anchor="middle" x="333.5" y="-1094.37" font-family="Helvetica,sans-Serif" font-size="10.00">CompAccept&lt; DocXRefItem &gt;</text>
</a>
</g>
</g>
<!-- Node0&#45;&gt;Node13 -->
<g id="edge13" class="edge"><title>Node0&#45;&gt;Node13</title>
<path fill="none" stroke="orange" stroke-dasharray="5,2" d="M50.2605,-686.941C51.6567,-760.7 60.485,-1015.21 116,-1068.87 135.826,-1088.03 203.052,-1094.45 257.393,-1096.43"/>
<polygon fill="orange" stroke="orange" points="53.7564,-686.655 50.0943,-676.714 46.7574,-686.769 53.7564,-686.655"/>
<text text-anchor="middle" x="172" y="-1097.87" font-family="Helvetica,sans-Serif" font-size="10.00"> &lt; DocXRefItem &gt;</text>
</g>
<!-- Node15 -->
<g id="node16" class="node"><title>Node15</title>
<g id="a_node16"><a xlink:href="../../d7/da3/class_comp_accept.html" target="_top" xlink:title="CompAccept\&lt; DocLink \&gt;">
<polygon fill="white" stroke="black" points="269.5,-1049.37 269.5,-1068.37 397.5,-1068.37 397.5,-1049.37 269.5,-1049.37"/>
<text text-anchor="middle" x="333.5" y="-1056.37" font-family="Helvetica,sans-Serif" font-size="10.00">CompAccept&lt; DocLink &gt;</text>
</a>
</g>
</g>
<!-- Node0&#45;&gt;Node15 -->
<g id="edge15" class="edge"><title>Node0&#45;&gt;Node15</title>
<path fill="none" stroke="orange" stroke-dasharray="5,2" d="M50.6472,-686.728C53.3192,-755.519 65.8444,-981.999 116,-1029.87 137.433,-1050.32 213.355,-1056.61 269.267,-1058.4"/>
<polygon fill="orange" stroke="orange" points="54.1344,-686.305 50.2771,-676.437 47.1389,-686.557 54.1344,-686.305"/>
<text text-anchor="middle" x="172" y="-1059.87" font-family="Helvetica,sans-Serif" font-size="10.00"> &lt; DocLink &gt;</text>
</g>
<!-- Node17 -->
<g id="node18" class="node"><title>Node17</title>
<g id="a_node18"><a xlink:href="../../d7/da3/class_comp_accept.html" target="_top" xlink:title="CompAccept\&lt; DocHtmlRow \&gt;">
<polygon fill="white" stroke="black" points="258,-1011.37 258,-1030.37 409,-1030.37 409,-1011.37 258,-1011.37"/>
<text text-anchor="middle" x="333.5" y="-1018.37" font-family="Helvetica,sans-Serif" font-size="10.00">CompAccept&lt; DocHtmlRow &gt;</text>
</a>
</g>
</g>
<!-- Node0&#45;&gt;Node17 -->
<g id="edge17" class="edge"><title>Node0&#45;&gt;Node17</title>
<path fill="none" stroke="orange" stroke-dasharray="5,2" d="M51.1825,-686.902C55.3716,-750.638 71.7069,-946.961 116,-988.865 136.114,-1007.89 203.502,-1015.63 257.814,-1018.76"/>
<polygon fill="orange" stroke="orange" points="54.6563,-686.373 50.5377,-676.612 47.67,-686.811 54.6563,-686.373"/>
<text text-anchor="middle" x="172" y="-1019.87" font-family="Helvetica,sans-Serif" font-size="10.00"> &lt; DocHtmlRow &gt;</text>
</g>
<!-- Node19 -->
<g id="node20" class="node"><title>Node19</title>
<g id="a_node20"><a xlink:href="../../d7/da3/class_comp_accept.html" target="_top" xlink:title="CompAccept\&lt; DocHtmlBlock\lQuote \&gt;">
<polygon fill="white" stroke="black" points="260.5,-961.865 260.5,-991.865 406.5,-991.865 406.5,-961.865 260.5,-961.865"/>
<text text-anchor="start" x="268.5" y="-979.865" font-family="Helvetica,sans-Serif" font-size="10.00">CompAccept&lt; DocHtmlBlock</text>
<text text-anchor="middle" x="333.5" y="-968.865" font-family="Helvetica,sans-Serif" font-size="10.00">Quote &gt;</text>
</a>
</g>
</g>
<!-- Node0&#45;&gt;Node19 -->
<g id="edge19" class="edge"><title>Node0&#45;&gt;Node19</title>
<path fill="none" stroke="orange" stroke-dasharray="5,2" d="M51.7943,-686.542C57.4773,-744.28 77.0482,-911.406 116,-946.865 136.73,-965.736 205.647,-972.817 260.225,-975.432"/>
<polygon fill="orange" stroke="orange" points="55.2727,-686.148 50.8413,-676.524 48.3042,-686.811 55.2727,-686.148"/>
<text text-anchor="middle" x="172" y="-976.865" font-family="Helvetica,sans-Serif" font-size="10.00"> &lt; DocHtmlBlockQuote &gt;</text>
</g>
<!-- Node21 -->
<g id="node22" class="node"><title>Node21</title>
<g id="a_node22"><a xlink:href="../../d7/da3/class_comp_accept.html" target="_top" xlink:title="CompAccept\&lt; DocMscFile \&gt;">
<polygon fill="white" stroke="black" points="261.5,-923.365 261.5,-942.365 405.5,-942.365 405.5,-923.365 261.5,-923.365"/>
<text text-anchor="middle" x="333.5" y="-930.365" font-family="Helvetica,sans-Serif" font-size="10.00">CompAccept&lt; DocMscFile &gt;</text>
</a>
</g>
</g>
<!-- Node0&#45;&gt;Node21 -->
<g id="edge21" class="edge"><title>Node0&#45;&gt;Node21</title>
<path fill="none" stroke="orange" stroke-dasharray="5,2" d="M52.5731,-686.451C59.8118,-738.385 82.0625,-877.637 116,-906.865 137.299,-925.208 206.738,-931.019 261.3,-932.665"/>
<polygon fill="orange" stroke="orange" points="56.0367,-685.946 51.2234,-676.507 49.1003,-686.887 56.0367,-685.946"/>
<text text-anchor="middle" x="172" y="-934.865" font-family="Helvetica,sans-Serif" font-size="10.00"> &lt; DocMscFile &gt;</text>
</g>
<!-- Node23 -->
<g id="node24" class="node"><title>Node23</title>
<g id="a_node24"><a xlink:href="../../d7/da3/class_comp_accept.html" target="_top" xlink:title="CompAccept\&lt; DocTitle \&gt;">
<polygon fill="white" stroke="black" points="269.5,-885.365 269.5,-904.365 397.5,-904.365 397.5,-885.365 269.5,-885.365"/>
<text text-anchor="middle" x="333.5" y="-892.365" font-family="Helvetica,sans-Serif" font-size="10.00">CompAccept&lt; DocTitle &gt;</text>
</a>
</g>
</g>
<!-- Node0&#45;&gt;Node23 -->
<g id="edge23" class="edge"><title>Node0&#45;&gt;Node23</title>
<path fill="none" stroke="orange" stroke-dasharray="5,2" d="M49.8908,-686.601C50.8331,-727.921 59.3699,-823.533 116,-869.865 138.805,-888.523 213.998,-893.732 269.393,-894.95"/>
<polygon fill="orange" stroke="orange" points="53.3895,-686.438 49.7928,-676.472 46.3898,-686.505 53.3895,-686.438"/>
<text text-anchor="middle" x="172" y="-896.865" font-family="Helvetica,sans-Serif" font-size="10.00"> &lt; DocTitle &gt;</text>
</g>
<!-- Node25 -->
<g id="node26" class="node"><title>Node25</title>
<g id="a_node26"><a xlink:href="../../d7/da3/class_comp_accept.html" target="_top" xlink:title="CompAccept\&lt; DocHtmlDescTitle \&gt;">
<polygon fill="white" stroke="black" points="247,-847.365 247,-866.365 420,-866.365 420,-847.365 247,-847.365"/>
<text text-anchor="middle" x="333.5" y="-854.365" font-family="Helvetica,sans-Serif" font-size="10.00">CompAccept&lt; DocHtmlDescTitle &gt;</text>
</a>
</g>
</g>
<!-- Node0&#45;&gt;Node25 -->
<g id="edge25" class="edge"><title>Node0&#45;&gt;Node25</title>
<path fill="none" stroke="orange" stroke-dasharray="5,2" d="M51.5301,-686.93C55.4253,-722.696 69.042,-797.065 116,-832.865 136.3,-848.342 195.396,-854.169 246.726,-856.221"/>
<polygon fill="orange" stroke="orange" points="54.996,-686.401 50.5771,-676.772 48.0266,-687.055 54.996,-686.401"/>
<text text-anchor="middle" x="172" y="-858.865" font-family="Helvetica,sans-Serif" font-size="10.00"> &lt; DocHtmlDescTitle &gt;</text>
</g>
<!-- Node27 -->
<g id="node28" class="node"><title>Node27</title>
<g id="a_node28"><a xlink:href="../../d7/da3/class_comp_accept.html" target="_top" xlink:title="CompAccept\&lt; DocHtmlListItem \&gt;">
<polygon fill="white" stroke="red" points="250.5,-809.365 250.5,-828.365 416.5,-828.365 416.5,-809.365 250.5,-809.365"/>
<text text-anchor="middle" x="333.5" y="-816.365" font-family="Helvetica,sans-Serif" font-size="10.00">CompAccept&lt; DocHtmlListItem &gt;</text>
</a>
</g>
</g>
<!-- Node0&#45;&gt;Node27 -->
<g id="edge27" class="edge"><title>Node0&#45;&gt;Node27</title>
<path fill="none" stroke="orange" stroke-dasharray="5,2" d="M53.7583,-686.32C60.5517,-715.696 77.8704,-770.715 116,-796.865 137.459,-811.582 198.51,-816.831 250.331,-818.54"/>
<polygon fill="orange" stroke="orange" points="57.158,-685.48 51.6486,-676.43 50.312,-686.941 57.158,-685.48"/>
<text text-anchor="middle" x="172" y="-820.865" font-family="Helvetica,sans-Serif" font-size="10.00"> &lt; DocHtmlListItem &gt;</text>
</g>
<!-- Node29 -->
<g id="node29" class="node"><title>Node29</title>
<g id="a_node29"><a xlink:href="../../d7/da3/class_comp_accept.html" target="_top" xlink:title="CompAccept\&lt; DocImage \&gt;">
<polygon fill="white" stroke="red" points="265,-771.365 265,-790.365 402,-790.365 402,-771.365 265,-771.365"/>
<text text-anchor="middle" x="333.5" y="-778.365" font-family="Helvetica,sans-Serif" font-size="10.00">CompAccept&lt; DocImage &gt;</text>
</a>
</g>
</g>
<!-- Node0&#45;&gt;Node29 -->
<g id="edge28" class="edge"><title>Node0&#45;&gt;Node29</title>
<path fill="none" stroke="orange" stroke-dasharray="5,2" d="M58.8681,-685.827C69.4245,-706.083 89.071,-737.36 116,-752.865 160.997,-778.774 219.837,-784.971 264.817,-785.134"/>
<polygon fill="orange" stroke="orange" points="61.8859,-684.035 54.3047,-676.634 55.6158,-687.147 61.8859,-684.035"/>
<text text-anchor="middle" x="172" y="-786.865" font-family="Helvetica,sans-Serif" font-size="10.00"> &lt; DocImage &gt;</text>
</g>
<!-- Node31 -->
<g id="node30" class="node"><title>Node31</title>
<g id="a_node30"><a xlink:href="../../d7/da3/class_comp_accept.html" target="_top" xlink:title="CompAccept\&lt; DocInternal \&gt;">
<polygon fill="white" stroke="red" points="262.5,-733.365 262.5,-752.365 404.5,-752.365 404.5,-733.365 262.5,-733.365"/>
<text text-anchor="middle" x="333.5" y="-740.365" font-family="Helvetica,sans-Serif" font-size="10.00">CompAccept&lt; DocInternal &gt;</text>
</a>
</g>
</g>
<!-- Node0&#45;&gt;Node31 -->
<g id="edge29" class="edge"><title>Node0&#45;&gt;Node31</title>
<path fill="none" stroke="orange" stroke-dasharray="5,2" d="M68.6333,-683.008C81.1796,-692.968 98.5632,-705.096 116,-711.865 162.723,-730.004 218.824,-737.68 262.209,-740.859"/>
<polygon fill="orange" stroke="orange" points="70.7264,-680.198 60.779,-676.551 66.281,-685.605 70.7264,-680.198"/>
<text text-anchor="middle" x="172" y="-740.865" font-family="Helvetica,sans-Serif" font-size="10.00"> &lt; DocInternal &gt;</text>
</g>
<!-- Node33 -->
<g id="node31" class="node"><title>Node33</title>
<g id="a_node31"><a xlink:href="../../d7/da3/class_comp_accept.html" target="_top" xlink:title="CompAccept\&lt; DocDiaFile \&gt;">
<polygon fill="white" stroke="red" points="263.5,-695.365 263.5,-714.365 403.5,-714.365 403.5,-695.365 263.5,-695.365"/>
<text text-anchor="middle" x="333.5" y="-702.365" font-family="Helvetica,sans-Serif" font-size="10.00">CompAccept&lt; DocDiaFile &gt;</text>
</a>
</g>
</g>
<!-- Node0&#45;&gt;Node33 -->
<g id="edge30" class="edge"><title>Node0&#45;&gt;Node33</title>
<path fill="none" stroke="orange" stroke-dasharray="5,2" d="M98.4129,-678.551C104.317,-679.774 110.282,-680.915 116,-681.865 165.033,-690.012 220.817,-695.858 263.48,-699.618"/>
<polygon fill="orange" stroke="orange" points="99.1005,-675.119 88.5877,-676.435 97.6266,-681.962 99.1005,-675.119"/>
<text text-anchor="middle" x="172" y="-699.865" font-family="Helvetica,sans-Serif" font-size="10.00"> &lt; DocDiaFile &gt;</text>
</g>
<!-- Node35 -->
<g id="node32" class="node"><title>Node35</title>
<g id="a_node32"><a xlink:href="../../d7/da3/class_comp_accept.html" target="_top" xlink:title="CompAccept\&lt; DocDotFile \&gt;">
<polygon fill="white" stroke="red" points="263,-657.365 263,-676.365 404,-676.365 404,-657.365 263,-657.365"/>
<text text-anchor="middle" x="333.5" y="-664.365" font-family="Helvetica,sans-Serif" font-size="10.00">CompAccept&lt; DocDotFile &gt;</text>
</a>
</g>
</g>
<!-- Node0&#45;&gt;Node35 -->
<g id="edge31" class="edge"><title>Node0&#45;&gt;Node35</title>
<path fill="none" stroke="orange" stroke-dasharray="5,2" d="M108.392,-666.865C153.229,-666.865 215.296,-666.865 262.746,-666.865"/>
<polygon fill="orange" stroke="orange" points="108.243,-663.365 98.2425,-666.865 108.242,-670.365 108.243,-663.365"/>
<text text-anchor="middle" x="172" y="-669.865" font-family="Helvetica,sans-Serif" font-size="10.00"> &lt; DocDotFile &gt;</text>
</g>
<!-- Node37 -->
<g id="node33" class="node"><title>Node37</title>
<g id="a_node33"><a xlink:href="../../d7/da3/class_comp_accept.html" target="_top" xlink:title="CompAccept\&lt; DocRoot \&gt;">
<polygon fill="white" stroke="red" points="268,-619.365 268,-638.365 399,-638.365 399,-619.365 268,-619.365"/>
<text text-anchor="middle" x="333.5" y="-626.365" font-family="Helvetica,sans-Serif" font-size="10.00">CompAccept&lt; DocRoot &gt;</text>
</a>
</g>
</g>
<!-- Node0&#45;&gt;Node37 -->
<g id="edge32" class="edge"><title>Node0&#45;&gt;Node37</title>
<path fill="none" stroke="orange" stroke-dasharray="5,2" d="M98.4129,-655.179C104.317,-653.956 110.282,-652.815 116,-651.865 166.71,-643.439 224.643,-637.474 267.813,-633.734"/>
<polygon fill="orange" stroke="orange" points="97.6266,-651.768 88.5877,-657.295 99.1005,-658.611 97.6266,-651.768"/>
<text text-anchor="middle" x="172" y="-654.865" font-family="Helvetica,sans-Serif" font-size="10.00"> &lt; DocRoot &gt;</text>
</g>
<!-- Node39 -->
<g id="node34" class="node"><title>Node39</title>
<g id="a_node34"><a xlink:href="../../d7/da3/class_comp_accept.html" target="_top" xlink:title="CompAccept\&lt; DocSection \&gt;">
<polygon fill="white" stroke="red" points="262,-581.365 262,-600.365 405,-600.365 405,-581.365 262,-581.365"/>
<text text-anchor="middle" x="333.5" y="-588.365" font-family="Helvetica,sans-Serif" font-size="10.00">CompAccept&lt; DocSection &gt;</text>
</a>
</g>
</g>
<!-- Node0&#45;&gt;Node39 -->
<g id="edge33" class="edge"><title>Node0&#45;&gt;Node39</title>
<path fill="none" stroke="orange" stroke-dasharray="5,2" d="M69.1586,-650.764C81.6954,-641.106 98.8743,-629.456 116,-622.865 162.63,-604.92 218.48,-596.967 261.775,-593.476"/>
<polygon fill="orange" stroke="orange" points="66.917,-648.075 61.2786,-657.045 71.2801,-653.549 66.917,-648.075"/>
<text text-anchor="middle" x="172" y="-625.865" font-family="Helvetica,sans-Serif" font-size="10.00"> &lt; DocSection &gt;</text>
</g>
<!-- Node41 -->
<g id="node35" class="node"><title>Node41</title>
<g id="a_node35"><a xlink:href="../../d7/da3/class_comp_accept.html" target="_top" xlink:title="CompAccept\&lt; DocText \&gt;">
<polygon fill="white" stroke="red" points="269,-543.365 269,-562.365 398,-562.365 398,-543.365 269,-543.365"/>
<text text-anchor="middle" x="333.5" y="-550.365" font-family="Helvetica,sans-Serif" font-size="10.00">CompAccept&lt; DocText &gt;</text>
</a>
</g>
</g>
<!-- Node0&#45;&gt;Node41 -->
<g id="edge34" class="edge"><title>Node0&#45;&gt;Node41</title>
<path fill="none" stroke="orange" stroke-dasharray="5,2" d="M59.0098,-648.383C69.6906,-628.633 89.4457,-598.114 116,-582.865 162.398,-556.222 223.363,-549.827 268.774,-549.458"/>
<polygon fill="orange" stroke="orange" points="55.8603,-646.854 54.3843,-657.346 62.0808,-650.065 55.8603,-646.854"/>
<text text-anchor="middle" x="172" y="-585.865" font-family="Helvetica,sans-Serif" font-size="10.00"> &lt; DocText &gt;</text>
</g>
<!-- Node43 -->
<g id="node36" class="node"><title>Node43</title>
<g id="a_node36"><a xlink:href="../../d7/da3/class_comp_accept.html" target="_top" xlink:title="CompAccept\&lt; DocHtmlList \&gt;">
<polygon fill="white" stroke="red" points="260.5,-505.365 260.5,-524.365 406.5,-524.365 406.5,-505.365 260.5,-505.365"/>
<text text-anchor="middle" x="333.5" y="-512.365" font-family="Helvetica,sans-Serif" font-size="10.00">CompAccept&lt; DocHtmlList &gt;</text>
</a>
</g>
</g>
<!-- Node0&#45;&gt;Node43 -->
<g id="edge35" class="edge"><title>Node0&#45;&gt;Node43</title>
<path fill="none" stroke="orange" stroke-dasharray="5,2" d="M53.9212,-647.151C60.8657,-617.92 78.3061,-563.756 116,-537.865 157.75,-509.188 215.111,-504.231 260.301,-506.019"/>
<polygon fill="orange" stroke="orange" points="50.4799,-646.504 51.7532,-657.022 57.3169,-648.006 50.4799,-646.504"/>
<text text-anchor="middle" x="172" y="-540.865" font-family="Helvetica,sans-Serif" font-size="10.00"> &lt; DocHtmlList &gt;</text>
</g>
<!-- Node45 -->
<g id="node37" class="node"><title>Node45</title>
<g id="a_node37"><a xlink:href="../../d7/da3/class_comp_accept.html" target="_top" xlink:title="CompAccept\&lt; DocHtmlCell \&gt;">
<polygon fill="white" stroke="red" points="259.5,-467.365 259.5,-486.365 407.5,-486.365 407.5,-467.365 259.5,-467.365"/>
<text text-anchor="middle" x="333.5" y="-474.365" font-family="Helvetica,sans-Serif" font-size="10.00">CompAccept&lt; DocHtmlCell &gt;</text>
</a>
</g>
</g>
<!-- Node0&#45;&gt;Node45 -->
<g id="edge36" class="edge"><title>Node0&#45;&gt;Node45</title>
<path fill="none" stroke="orange" stroke-dasharray="5,2" d="M50.8876,-647.101C53.7367,-609.769 65.7128,-529.28 116,-491.865 166.33,-454.419 242.773,-459.337 290.071,-467.353"/>
<polygon fill="orange" stroke="orange" points="47.3867,-647.009 50.2641,-657.206 54.3734,-647.441 47.3867,-647.009"/>
<text text-anchor="middle" x="172" y="-494.865" font-family="Helvetica,sans-Serif" font-size="10.00"> &lt; DocHtmlCell &gt;</text>
</g>
<!-- Node47 -->
<g id="node38" class="node"><title>Node47</title>
<g id="a_node38"><a xlink:href="../../d7/da3/class_comp_accept.html" target="_top" xlink:title="CompAccept\&lt; DocHRef \&gt;">
<polygon fill="white" stroke="red" points="267,-429.365 267,-448.365 400,-448.365 400,-429.365 267,-429.365"/>
<text text-anchor="middle" x="333.5" y="-436.365" font-family="Helvetica,sans-Serif" font-size="10.00">CompAccept&lt; DocHRef &gt;</text>
</a>
</g>
</g>
<!-- Node0&#45;&gt;Node47 -->
<g id="edge37" class="edge"><title>Node0&#45;&gt;Node47</title>
<path fill="none" stroke="orange" stroke-dasharray="5,2" d="M52.9611,-647.148C60.787,-597.937 83.6593,-471.868 116,-446.865 169.115,-405.8 253.417,-418.112 299.592,-429.33"/>
<polygon fill="orange" stroke="orange" points="49.4817,-646.746 51.4089,-657.164 56.3991,-647.818 49.4817,-646.746"/>
<text text-anchor="middle" x="172" y="-449.865" font-family="Helvetica,sans-Serif" font-size="10.00"> &lt; DocHRef &gt;</text>
</g>
<!-- Node49 -->
<g id="node39" class="node"><title>Node49</title>
<g id="a_node39"><a xlink:href="../../d7/da3/class_comp_accept.html" target="_top" xlink:title="CompAccept\&lt; DocPara \&gt;">
<polygon fill="white" stroke="red" points="268.5,-391.365 268.5,-410.365 398.5,-410.365 398.5,-391.365 268.5,-391.365"/>
<text text-anchor="middle" x="333.5" y="-398.365" font-family="Helvetica,sans-Serif" font-size="10.00">CompAccept&lt; DocPara &gt;</text>
</a>
</g>
</g>
<!-- Node0&#45;&gt;Node49 -->
<g id="edge38" class="edge"><title>Node0&#45;&gt;Node49</title>
<path fill="none" stroke="orange" stroke-dasharray="5,2" d="M51.9088,-647.064C57.7392,-591.209 77.3183,-434.472 116,-403.865 138.809,-385.817 213.154,-388.493 268.394,-393.432"/>
<polygon fill="orange" stroke="orange" points="48.4181,-646.797 50.8978,-657.098 55.3828,-647.499 48.4181,-646.797"/>
<text text-anchor="middle" x="172" y="-406.865" font-family="Helvetica,sans-Serif" font-size="10.00"> &lt; DocPara &gt;</text>
</g>
<!-- Node51 -->
<g id="node40" class="node"><title>Node51</title>
<g id="a_node40"><a xlink:href="../../d7/da3/class_comp_accept.html" target="_top" xlink:title="CompAccept\&lt; DocAutoList \&gt;">
<polygon fill="white" stroke="red" points="260.5,-353.365 260.5,-372.365 406.5,-372.365 406.5,-353.365 260.5,-353.365"/>
<text text-anchor="middle" x="333.5" y="-360.365" font-family="Helvetica,sans-Serif" font-size="10.00">CompAccept&lt; DocAutoList &gt;</text>
</a>
</g>
</g>
<!-- Node0&#45;&gt;Node51 -->
<g id="edge39" class="edge"><title>Node0&#45;&gt;Node51</title>
<path fill="none" stroke="orange" stroke-dasharray="5,2" d="M51.4593,-646.999C56.2979,-587.136 73.9572,-410.417 116,-374.865 166.879,-331.842 250.898,-342.575 297.908,-353.297"/>
<polygon fill="orange" stroke="orange" points="47.9413,-647.097 50.6591,-657.337 54.9205,-647.637 47.9413,-647.097"/>
<text text-anchor="middle" x="172" y="-377.865" font-family="Helvetica,sans-Serif" font-size="10.00"> &lt; DocAutoList &gt;</text>
</g>
<!-- Node53 -->
<g id="node41" class="node"><title>Node53</title>
<g id="a_node41"><a xlink:href="../../d7/da3/class_comp_accept.html" target="_top" xlink:title="CompAccept\&lt; DocHtmlDescData \&gt;">
<polygon fill="white" stroke="red" points="246,-315.365 246,-334.365 421,-334.365 421,-315.365 246,-315.365"/>
<text text-anchor="middle" x="333.5" y="-322.365" font-family="Helvetica,sans-Serif" font-size="10.00">CompAccept&lt; DocHtmlDescData &gt;</text>
</a>
</g>
</g>
<!-- Node0&#45;&gt;Node53 -->
<g id="edge40" class="edge"><title>Node0&#45;&gt;Node53</title>
<path fill="none" stroke="orange" stroke-dasharray="5,2" d="M50.7445,-646.892C53.6675,-580.672 66.7478,-370.2 116,-328.865 135.401,-312.583 194.362,-312.333 245.862,-315.749"/>
<polygon fill="orange" stroke="orange" points="47.2349,-647.057 50.3222,-657.192 54.229,-647.344 47.2349,-647.057"/>
<text text-anchor="middle" x="172" y="-331.865" font-family="Helvetica,sans-Serif" font-size="10.00"> &lt; DocHtmlDescData &gt;</text>
</g>
<!-- Node55 -->
<g id="node42" class="node"><title>Node55</title>
<g id="a_node42"><a xlink:href="../../d7/da3/class_comp_accept.html" target="_top" xlink:title="CompAccept\&lt; DocSecRefItem \&gt;">
<polygon fill="white" stroke="red" points="252.5,-277.365 252.5,-296.365 414.5,-296.365 414.5,-277.365 252.5,-277.365"/>
<text text-anchor="middle" x="333.5" y="-284.365" font-family="Helvetica,sans-Serif" font-size="10.00">CompAccept&lt; DocSecRefItem &gt;</text>
</a>
</g>
</g>
<!-- Node0&#45;&gt;Node55 -->
<g id="edge41" class="edge"><title>Node0&#45;&gt;Node55</title>
<path fill="none" stroke="orange" stroke-dasharray="5,2" d="M50.4749,-647.083C52.5866,-577.615 63.5099,-346.502 116,-299.865 166.105,-255.347 251.202,-266.452 298.406,-277.352"/>
<polygon fill="orange" stroke="orange" points="46.9751,-647.029 50.1985,-657.122 53.9724,-647.222 46.9751,-647.029"/>
<text text-anchor="middle" x="172" y="-302.865" font-family="Helvetica,sans-Serif" font-size="10.00"> &lt; DocSecRefItem &gt;</text>
</g>
<!-- Node57 -->
<g id="node43" class="node"><title>Node57</title>
<g id="a_node43"><a xlink:href="../../d7/da3/class_comp_accept.html" target="_top" xlink:title="CompAccept\&lt; DocVhdlFlow \&gt;">
<polygon fill="white" stroke="red" points="258.5,-239.365 258.5,-258.365 408.5,-258.365 408.5,-239.365 258.5,-239.365"/>
<text text-anchor="middle" x="333.5" y="-246.365" font-family="Helvetica,sans-Serif" font-size="10.00">CompAccept&lt; DocVhdlFlow &gt;</text>
</a>
</g>
</g>
<!-- Node0&#45;&gt;Node57 -->
<g id="edge42" class="edge"><title>Node0&#45;&gt;Node57</title>
<path fill="none" stroke="orange" stroke-dasharray="5,2" d="M49.9671,-646.951C50.3006,-571.551 55.7849,-305.21 116,-252.865 136.711,-234.861 204.217,-236.092 258.405,-240.474"/>
<polygon fill="orange" stroke="orange" points="46.4671,-646.992 49.9497,-656.998 53.4671,-647.004 46.4671,-646.992"/>
<text text-anchor="middle" x="172" y="-255.865" font-family="Helvetica,sans-Serif" font-size="10.00"> &lt; DocVhdlFlow &gt;</text>
</g>
<!-- Node59 -->
<g id="node44" class="node"><title>Node59</title>
<g id="a_node44"><a xlink:href="../../d7/da3/class_comp_accept.html" target="_top" xlink:title="CompAccept\&lt; DocInternalRef \&gt;">
<polygon fill="white" stroke="red" points="254.5,-201.365 254.5,-220.365 412.5,-220.365 412.5,-201.365 254.5,-201.365"/>
<text text-anchor="middle" x="333.5" y="-208.365" font-family="Helvetica,sans-Serif" font-size="10.00">CompAccept&lt; DocInternalRef &gt;</text>
</a>
</g>
</g>
<!-- Node0&#45;&gt;Node59 -->
<g id="edge43" class="edge"><title>Node0&#45;&gt;Node59</title>
<path fill="none" stroke="orange" stroke-dasharray="5,2" d="M49.7914,-646.632C49.436,-567.526 52.599,-280.675 116,-222.865 166.071,-177.21 252.764,-189.825 299.825,-201.339"/>
<polygon fill="orange" stroke="orange" points="46.2948,-647.139 49.8663,-657.114 53.2947,-647.089 46.2948,-647.139"/>
<text text-anchor="middle" x="172" y="-225.865" font-family="Helvetica,sans-Serif" font-size="10.00"> &lt; DocInternalRef &gt;</text>
</g>
<!-- Node61 -->
<g id="node45" class="node"><title>Node61</title>
<g id="a_node45"><a xlink:href="../../d7/da3/class_comp_accept.html" target="_top" xlink:title="CompAccept\&lt; DocHtmlHeader \&gt;">
<polygon fill="white" stroke="red" points="252.5,-163.365 252.5,-182.365 414.5,-182.365 414.5,-163.365 252.5,-163.365"/>
<text text-anchor="middle" x="333.5" y="-170.365" font-family="Helvetica,sans-Serif" font-size="10.00">CompAccept&lt; DocHtmlHeader &gt;</text>
</a>
</g>
</g>
<!-- Node0&#45;&gt;Node61 -->
<g id="edge44" class="edge"><title>Node0&#45;&gt;Node61</title>
<path fill="none" stroke="orange" stroke-dasharray="5,2" d="M51.1507,-647.201C56.4714,-559.605 79.9735,-207.816 116,-175.865 135.792,-158.312 199.265,-159.154 252.405,-163.469"/>
<polygon fill="orange" stroke="orange" points="47.6471,-647.159 50.5445,-657.35 54.6346,-647.576 47.6471,-647.159"/>
<text text-anchor="middle" x="172" y="-178.865" font-family="Helvetica,sans-Serif" font-size="10.00"> &lt; DocHtmlHeader &gt;</text>
</g>
<!-- Node63 -->
<g id="node46" class="node"><title>Node63</title>
<g id="a_node46"><a xlink:href="../../d7/da3/class_comp_accept.html" target="_top" xlink:title="CompAccept\&lt; DocAutoListItem \&gt;">
<polygon fill="white" stroke="red" points="251,-125.365 251,-144.365 416,-144.365 416,-125.365 251,-125.365"/>
<text text-anchor="middle" x="333.5" y="-132.365" font-family="Helvetica,sans-Serif" font-size="10.00">CompAccept&lt; DocAutoListItem &gt;</text>
</a>
</g>
</g>
<!-- Node0&#45;&gt;Node63 -->
<g id="edge45" class="edge"><title>Node0&#45;&gt;Node63</title>
<path fill="none" stroke="orange" stroke-dasharray="5,2" d="M51.0226,-647.187C55.9333,-556.377 78.4171,-180.721 116,-145.865 135.247,-128.014 197.805,-126.352 250.757,-128.535"/>
<polygon fill="orange" stroke="orange" points="47.5247,-647.055 50.4891,-657.227 54.5149,-647.427 47.5247,-647.055"/>
<text text-anchor="middle" x="172" y="-148.865" font-family="Helvetica,sans-Serif" font-size="10.00"> &lt; DocAutoListItem &gt;</text>
</g>
<!-- Node65 -->
<g id="node47" class="node"><title>Node65</title>
<g id="a_node47"><a xlink:href="../../d7/da3/class_comp_accept.html" target="_top" xlink:title="CompAccept\&lt; DocSimpleSect \&gt;">
<polygon fill="white" stroke="red" points="253.5,-87.3651 253.5,-106.365 413.5,-106.365 413.5,-87.3651 253.5,-87.3651"/>
<text text-anchor="middle" x="333.5" y="-94.3651" font-family="Helvetica,sans-Serif" font-size="10.00">CompAccept&lt; DocSimpleSect &gt;</text>
</a>
</g>
</g>
<!-- Node0&#45;&gt;Node65 -->
<g id="edge46" class="edge"><title>Node0&#45;&gt;Node65</title>
<path fill="none" stroke="orange" stroke-dasharray="5,2" d="M50.9012,-646.869C55.3685,-552.036 76.5171,-150.617 116,-112.865 164.216,-66.7625 249.255,-76.7625 297.148,-87.3247"/>
<polygon fill="orange" stroke="orange" points="47.3945,-646.936 50.4292,-657.087 54.3871,-647.259 47.3945,-646.936"/>
<text text-anchor="middle" x="172" y="-115.865" font-family="Helvetica,sans-Serif" font-size="10.00"> &lt; DocSimpleSect &gt;</text>
</g>
<!-- Node67 -->
<g id="node48" class="node"><title>Node67</title>
<g id="a_node48"><a xlink:href="../../d7/da3/class_comp_accept.html" target="_top" xlink:title="CompAccept\&lt; DocSecRefList \&gt;">
<polygon fill="white" stroke="red" points="254.5,-49.3651 254.5,-68.3651 412.5,-68.3651 412.5,-49.3651 254.5,-49.3651"/>
<text text-anchor="middle" x="333.5" y="-56.3651" font-family="Helvetica,sans-Serif" font-size="10.00">CompAccept&lt; DocSecRefList &gt;</text>
</a>
</g>
</g>
<!-- Node0&#45;&gt;Node67 -->
<g id="edge47" class="edge"><title>Node0&#45;&gt;Node67</title>
<path fill="none" stroke="orange" stroke-dasharray="5,2" d="M50.6531,-646.975C54.1273,-547.186 71.9614,-104.273 116,-63.8651 135.773,-45.7226 200.812,-46.2586 254.487,-50.2833"/>
<polygon fill="orange" stroke="orange" points="47.1485,-647.055 50.3073,-657.168 54.1445,-647.293 47.1485,-647.055"/>
<text text-anchor="middle" x="172" y="-66.8651" font-family="Helvetica,sans-Serif" font-size="10.00"> &lt; DocSecRefList &gt;</text>
</g>
<!-- Node69 -->
<g id="node49" class="node"><title>Node69</title>
<g id="a_node49"><a xlink:href="../../d7/da3/class_comp_accept.html" target="_top" xlink:title="CompAccept\&lt; DocHtmlTable \&gt;">
<polygon fill="white" stroke="red" points="256,-11.3651 256,-30.3651 411,-30.3651 411,-11.3651 256,-11.3651"/>
<text text-anchor="middle" x="333.5" y="-18.3651" font-family="Helvetica,sans-Serif" font-size="10.00">CompAccept&lt; DocHtmlTable &gt;</text>
</a>
</g>
</g>
<!-- Node0&#45;&gt;Node69 -->
<g id="edge48" class="edge"><title>Node0&#45;&gt;Node69</title>
<path fill="none" stroke="orange" stroke-dasharray="5,2" d="M50.5744,-646.995C53.7354,-544.36 70.5544,-77.3575 116,-33.8651 165.103,13.1276 252.593,0.315986 299.927,-11.3282"/>
<polygon fill="orange" stroke="orange" points="47.07,-647.092 50.269,-657.193 54.0669,-647.302 47.07,-647.092"/>
<text text-anchor="middle" x="172" y="-36.8651" font-family="Helvetica,sans-Serif" font-size="10.00"> &lt; DocHtmlTable &gt;</text>
</g>
<!-- Node2 -->
<g id="node3" class="node"><title>Node2</title>
<g id="a_node3"><a xlink:href="../../d1/d01/class_doc_param_sect.html" target="_top" xlink:title="Node representing a parameter section. ">
<polygon fill="white" stroke="black" points="470,-1315.37 470,-1334.37 553,-1334.37 553,-1315.37 470,-1315.37"/>
<text text-anchor="middle" x="511.5" y="-1322.37" font-family="Helvetica,sans-Serif" font-size="10.00">DocParamSect</text>
</a>
</g>
</g>
<!-- Node1&#45;&gt;Node2 -->
<g id="edge2" class="edge"><title>Node1&#45;&gt;Node2</title>
<path fill="none" stroke="midnightblue" d="M422.89,-1324.87C439.25,-1324.87 455.591,-1324.87 469.654,-1324.87"/>
<polygon fill="midnightblue" stroke="midnightblue" points="422.721,-1321.37 412.721,-1324.87 422.721,-1328.37 422.721,-1321.37"/>
</g>
<!-- Node4 -->
<g id="node5" class="node"><title>Node4</title>
<g id="a_node5"><a xlink:href="../../df/d6f/class_doc_html_desc_list.html" target="_top" xlink:title="Node representing a Html description list. ">
<polygon fill="white" stroke="black" points="464,-1277.37 464,-1296.37 559,-1296.37 559,-1277.37 464,-1277.37"/>
<text text-anchor="middle" x="511.5" y="-1284.37" font-family="Helvetica,sans-Serif" font-size="10.00">DocHtmlDescList</text>
</a>
</g>
</g>
<!-- Node3&#45;&gt;Node4 -->
<g id="edge4" class="edge"><title>Node3&#45;&gt;Node4</title>
<path fill="none" stroke="midnightblue" d="M428.844,-1286.87C440.979,-1286.87 452.952,-1286.87 463.833,-1286.87"/>
<polygon fill="midnightblue" stroke="midnightblue" points="428.634,-1283.37 418.634,-1286.87 428.634,-1290.37 428.634,-1283.37"/>
</g>
<!-- Node6 -->
<g id="node7" class="node"><title>Node6</title>
<g id="a_node7"><a xlink:href="../../dc/de6/class_doc_simple_list.html" target="_top" xlink:title="Node representing a simple list. ">
<polygon fill="white" stroke="black" points="471.5,-1239.37 471.5,-1258.37 551.5,-1258.37 551.5,-1239.37 471.5,-1239.37"/>
<text text-anchor="middle" x="511.5" y="-1246.37" font-family="Helvetica,sans-Serif" font-size="10.00">DocSimpleList</text>
</a>
</g>
</g>
<!-- Node5&#45;&gt;Node6 -->
<g id="edge6" class="edge"><title>Node5&#45;&gt;Node6</title>
<path fill="none" stroke="midnightblue" d="M421.445,-1248.87C438.919,-1248.87 456.448,-1248.87 471.276,-1248.87"/>
<polygon fill="midnightblue" stroke="midnightblue" points="421.184,-1245.37 411.184,-1248.87 421.184,-1252.37 421.184,-1245.37"/>
</g>
<!-- Node8 -->
<g id="node9" class="node"><title>Node8</title>
<g id="a_node9"><a xlink:href="../../d0/dc7/class_doc_html_caption.html" target="_top" xlink:title="Node representing a HTML table caption. ">
<polygon fill="white" stroke="black" points="467,-1201.37 467,-1220.37 556,-1220.37 556,-1201.37 467,-1201.37"/>
<text text-anchor="middle" x="511.5" y="-1208.37" font-family="Helvetica,sans-Serif" font-size="10.00">DocHtmlCaption</text>
</a>
</g>
</g>
<!-- Node7&#45;&gt;Node8 -->
<g id="edge8" class="edge"><title>Node7&#45;&gt;Node8</title>
<path fill="none" stroke="midnightblue" d="M425.928,-1210.87C440.187,-1210.87 454.326,-1210.87 466.844,-1210.87"/>
<polygon fill="midnightblue" stroke="midnightblue" points="425.546,-1207.37 415.546,-1210.87 425.545,-1214.37 425.546,-1207.37"/>
</g>
<!-- Node10 -->
<g id="node11" class="node"><title>Node10</title>
<g id="a_node11"><a xlink:href="../../d9/dd2/class_doc_par_block.html" target="_top" xlink:title="Node representing an block of paragraphs. ">
<polygon fill="white" stroke="black" points="474.5,-1163.37 474.5,-1182.37 548.5,-1182.37 548.5,-1163.37 474.5,-1163.37"/>
<text text-anchor="middle" x="511.5" y="-1170.37" font-family="Helvetica,sans-Serif" font-size="10.00">DocParBlock</text>
</a>
</g>
</g>
<!-- Node9&#45;&gt;Node10 -->
<g id="edge10" class="edge"><title>Node9&#45;&gt;Node10</title>
<path fill="none" stroke="midnightblue" d="M418.338,-1172.87C437.965,-1172.87 457.869,-1172.87 474.133,-1172.87"/>
<polygon fill="midnightblue" stroke="midnightblue" points="418.12,-1169.37 408.12,-1172.87 418.12,-1176.37 418.12,-1169.37"/>
</g>
<!-- Node12 -->
<g id="node13" class="node"><title>Node12</title>
<g id="a_node13"><a xlink:href="../../d5/d68/class_doc_ref.html" target="_top" xlink:title="Node representing a reference to some item. ">
<polygon fill="white" stroke="black" points="486.5,-1125.37 486.5,-1144.37 536.5,-1144.37 536.5,-1125.37 486.5,-1125.37"/>
<text text-anchor="middle" x="511.5" y="-1132.37" font-family="Helvetica,sans-Serif" font-size="10.00">DocRef</text>
</a>
</g>
</g>
<!-- Node11&#45;&gt;Node12 -->
<g id="edge12" class="edge"><title>Node11&#45;&gt;Node12</title>
<path fill="none" stroke="midnightblue" d="M406.421,-1134.87C434.902,-1134.87 465.71,-1134.87 486.357,-1134.87"/>
<polygon fill="midnightblue" stroke="midnightblue" points="406.056,-1131.37 396.056,-1134.87 406.056,-1138.37 406.056,-1131.37"/>
</g>
<!-- Node14 -->
<g id="node15" class="node"><title>Node14</title>
<g id="a_node15"><a xlink:href="../../d0/d90/class_doc_x_ref_item.html" target="_top" xlink:title="Node representing an item of a cross&#45;referenced list. ">
<polygon fill="white" stroke="black" points="473,-1087.37 473,-1106.37 550,-1106.37 550,-1087.37 473,-1087.37"/>
<text text-anchor="middle" x="511.5" y="-1094.37" font-family="Helvetica,sans-Serif" font-size="10.00">DocXRefItem</text>
</a>
</g>
</g>
<!-- Node13&#45;&gt;Node14 -->
<g id="edge14" class="edge"><title>Node13&#45;&gt;Node14</title>
<path fill="none" stroke="midnightblue" d="M419.698,-1096.87C438.4,-1096.87 457.271,-1096.87 472.927,-1096.87"/>
<polygon fill="midnightblue" stroke="midnightblue" points="419.65,-1093.37 409.65,-1096.87 419.65,-1100.37 419.65,-1093.37"/>
</g>
<!-- Node16 -->
<g id="node17" class="node"><title>Node16</title>
<g id="a_node17"><a xlink:href="../../d5/dd3/class_doc_link.html" target="_top" xlink:title="Node representing a link to some item. ">
<polygon fill="white" stroke="black" points="485,-1049.37 485,-1068.37 538,-1068.37 538,-1049.37 485,-1049.37"/>
<text text-anchor="middle" x="511.5" y="-1056.37" font-family="Helvetica,sans-Serif" font-size="10.00">DocLink</text>
</a>
</g>
</g>
<!-- Node15&#45;&gt;Node16 -->
<g id="edge16" class="edge"><title>Node15&#45;&gt;Node16</title>
<path fill="none" stroke="midnightblue" d="M407.873,-1058.87C435.131,-1058.87 464.315,-1058.87 484.566,-1058.87"/>
<polygon fill="midnightblue" stroke="midnightblue" points="407.543,-1055.37 397.543,-1058.87 407.543,-1062.37 407.543,-1055.37"/>
</g>
<!-- Node18 -->
<g id="node19" class="node"><title>Node18</title>
<g id="a_node19"><a xlink:href="../../d3/d16/class_doc_html_row.html" target="_top" xlink:title="Node representing a HTML table row. ">
<polygon fill="white" stroke="black" points="473.5,-1011.37 473.5,-1030.37 549.5,-1030.37 549.5,-1011.37 473.5,-1011.37"/>
<text text-anchor="middle" x="511.5" y="-1018.37" font-family="Helvetica,sans-Serif" font-size="10.00">DocHtmlRow</text>
</a>
</g>
</g>
<!-- Node17&#45;&gt;Node18 -->
<g id="edge18" class="edge"><title>Node17&#45;&gt;Node18</title>
<path fill="none" stroke="midnightblue" d="M419.305,-1020.87C438.231,-1020.87 457.355,-1020.87 473.168,-1020.87"/>
<polygon fill="midnightblue" stroke="midnightblue" points="419.14,-1017.37 409.14,-1020.87 419.14,-1024.37 419.14,-1017.37"/>
</g>
<!-- Node20 -->
<g id="node21" class="node"><title>Node20</title>
<g id="a_node21"><a xlink:href="../../d9/dd3/class_doc_html_block_quote.html" target="_top" xlink:title="Node representing an HTML blockquote. ">
<polygon fill="white" stroke="black" points="458,-967.365 458,-986.365 565,-986.365 565,-967.365 458,-967.365"/>
<text text-anchor="middle" x="511.5" y="-974.365" font-family="Helvetica,sans-Serif" font-size="10.00">DocHtmlBlockQuote</text>
</a>
</g>
</g>
<!-- Node19&#45;&gt;Node20 -->
<g id="edge20" class="edge"><title>Node19&#45;&gt;Node20</title>
<path fill="none" stroke="midnightblue" d="M416.737,-976.865C430.743,-976.865 444.944,-976.865 457.913,-976.865"/>
<polygon fill="midnightblue" stroke="midnightblue" points="416.594,-973.365 406.594,-976.865 416.594,-980.365 416.594,-973.365"/>
</g>
<!-- Node22 -->
<g id="node23" class="node"><title>Node22</title>
<g id="a_node23"><a xlink:href="../../d3/d7d/class_doc_msc_file.html" target="_top" xlink:title="Node representing a msc file. ">
<polygon fill="white" stroke="black" points="477,-923.365 477,-942.365 546,-942.365 546,-923.365 477,-923.365"/>
<text text-anchor="middle" x="511.5" y="-930.365" font-family="Helvetica,sans-Serif" font-size="10.00">DocMscFile</text>
</a>
</g>
</g>
<!-- Node21&#45;&gt;Node22 -->
<g id="edge22" class="edge"><title>Node21&#45;&gt;Node22</title>
<path fill="none" stroke="midnightblue" d="M415.756,-932.865C437.308,-932.865 459.402,-932.865 476.827,-932.865"/>
<polygon fill="midnightblue" stroke="midnightblue" points="415.579,-929.365 405.579,-932.865 415.579,-936.365 415.579,-929.365"/>
</g>
<!-- Node24 -->
<g id="node25" class="node"><title>Node24</title>
<g id="a_node25"><a xlink:href="../../d3/d1c/class_doc_title.html" target="_top" xlink:title="Node representing a simple section title. ">
<polygon fill="white" stroke="black" points="485,-885.365 485,-904.365 538,-904.365 538,-885.365 485,-885.365"/>
<text text-anchor="middle" x="511.5" y="-892.365" font-family="Helvetica,sans-Serif" font-size="10.00">DocTitle</text>
</a>
</g>
</g>
<!-- Node23&#45;&gt;Node24 -->
<g id="edge24" class="edge"><title>Node23&#45;&gt;Node24</title>
<path fill="none" stroke="midnightblue" d="M407.873,-894.865C435.131,-894.865 464.315,-894.865 484.566,-894.865"/>
<polygon fill="midnightblue" stroke="midnightblue" points="407.543,-891.365 397.543,-894.865 407.543,-898.365 407.543,-891.365"/>
</g>
<!-- Node26 -->
<g id="node27" class="node"><title>Node26</title>
<g id="a_node27"><a xlink:href="../../dd/dd1/class_doc_html_desc_title.html" target="_top" xlink:title="Node representing a Html description item. ">
<polygon fill="white" stroke="black" points="462.5,-847.365 462.5,-866.365 560.5,-866.365 560.5,-847.365 462.5,-847.365"/>
<text text-anchor="middle" x="511.5" y="-854.365" font-family="Helvetica,sans-Serif" font-size="10.00">DocHtmlDescTitle</text>
</a>
</g>
</g>
<!-- Node25&#45;&gt;Node26 -->
<g id="edge26" class="edge"><title>Node25&#45;&gt;Node26</title>
<path fill="none" stroke="midnightblue" d="M430.377,-856.865C441.452,-856.865 452.358,-856.865 462.388,-856.865"/>
<polygon fill="midnightblue" stroke="midnightblue" points="430.18,-853.365 420.18,-856.865 430.18,-860.365 430.18,-853.365"/>
</g>
</g>
</svg>
