<?xml version="1.0" encoding="UTF-8" standalone="no"?>
<!DOCTYPE svg PUBLIC "-//W3C//DTD SVG 1.1//EN"
 "http://www.w3.org/Graphics/SVG/1.1/DTD/svg11.dtd">
<!-- Generated by graphviz version 2.38.0 (20140413.2041)
 -->
<!-- Title: src/condparser.cpp Pages: 1 -->
<svg width="303pt" height="140pt"
 viewBox="0.00 0.00 302.50 140.00" xmlns="http://www.w3.org/2000/svg" xmlns:xlink="http://www.w3.org/1999/xlink">
<g id="graph0" class="graph" transform="scale(1 1) rotate(0) translate(4 136)">
<title>src/condparser.cpp</title>
<polygon fill="white" stroke="none" points="-4,4 -4,-136 298.5,-136 298.5,4 -4,4"/>
<!-- Node0 -->
<g id="node1" class="node"><title>Node0</title>
<polygon fill="#bfbfbf" stroke="black" points="70.5,-112.5 70.5,-131.5 170.5,-131.5 170.5,-112.5 70.5,-112.5"/>
<text text-anchor="middle" x="120.5" y="-119.5" font-family="Helvetica,sans-Serif" font-size="10.00">src/condparser.cpp</text>
</g>
<!-- Node1 -->
<g id="node2" class="node"><title>Node1</title>
<g id="a_node2"><a xlink:href="../../d7/d6f/condparser_8h.html" target="_top" xlink:title="condparser.h">
<polygon fill="white" stroke="black" points="0,-56.5 0,-75.5 73,-75.5 73,-56.5 0,-56.5"/>
<text text-anchor="middle" x="36.5" y="-63.5" font-family="Helvetica,sans-Serif" font-size="10.00">condparser.h</text>
</a>
</g>
</g>
<!-- Node0&#45;&gt;Node1 -->
<g id="edge1" class="edge"><title>Node0&#45;&gt;Node1</title>
<path fill="none" stroke="midnightblue" d="M107.004,-112.324C93.9004,-103.9 73.7881,-90.9709 58.3931,-81.0741"/>
<polygon fill="midnightblue" stroke="midnightblue" points="60.267,-78.118 49.9626,-75.6545 56.4817,-84.0063 60.267,-78.118"/>
</g>
<!-- Node3 -->
<g id="node4" class="node"><title>Node3</title>
<g id="a_node4"><a xlink:href="../../db/d16/config_8h.html" target="_top" xlink:title="config.h">
<polygon fill="white" stroke="black" points="95,-56.5 95,-75.5 146,-75.5 146,-56.5 95,-56.5"/>
<text text-anchor="middle" x="120.5" y="-63.5" font-family="Helvetica,sans-Serif" font-size="10.00">config.h</text>
</a>
</g>
</g>
<!-- Node0&#45;&gt;Node3 -->
<g id="edge3" class="edge"><title>Node0&#45;&gt;Node3</title>
<path fill="none" stroke="midnightblue" d="M120.5,-112.083C120.5,-105.006 120.5,-94.8611 120.5,-85.9865"/>
<polygon fill="midnightblue" stroke="midnightblue" points="124,-85.751 120.5,-75.7511 117,-85.7511 124,-85.751"/>
</g>
<!-- Node5 -->
<g id="node6" class="node"><title>Node5</title>
<g id="a_node6"><a xlink:href="../../d2/d0d/message_8h.html" target="_top" xlink:title="message.h">
<polygon fill="white" stroke="black" points="169,-56.5 169,-75.5 234,-75.5 234,-56.5 169,-56.5"/>
<text text-anchor="middle" x="201.5" y="-63.5" font-family="Helvetica,sans-Serif" font-size="10.00">message.h</text>
</a>
</g>
</g>
<!-- Node0&#45;&gt;Node5 -->
<g id="edge5" class="edge"><title>Node0&#45;&gt;Node5</title>
<path fill="none" stroke="midnightblue" d="M133.514,-112.324C146.032,-103.979 165.182,-91.2122 179.971,-81.3524"/>
<polygon fill="midnightblue" stroke="midnightblue" points="182.139,-84.1137 188.518,-75.6545 178.256,-78.2894 182.139,-84.1137"/>
</g>
<!-- Node2 -->
<g id="node3" class="node"><title>Node2</title>
<polygon fill="white" stroke="#bfbfbf" points="3,-0.5 3,-19.5 62,-19.5 62,-0.5 3,-0.5"/>
<text text-anchor="middle" x="32.5" y="-7.5" font-family="Helvetica,sans-Serif" font-size="10.00">qcstring.h</text>
</g>
<!-- Node1&#45;&gt;Node2 -->
<g id="edge2" class="edge"><title>Node1&#45;&gt;Node2</title>
<path fill="none" stroke="midnightblue" d="M35.8395,-56.083C35.3152,-49.0059 34.5638,-38.8611 33.9064,-29.9865"/>
<polygon fill="midnightblue" stroke="midnightblue" points="37.3775,-29.4652 33.1482,-19.7511 30.3966,-29.9823 37.3775,-29.4652"/>
</g>
<!-- Node4 -->
<g id="node5" class="node"><title>Node4</title>
<polygon fill="white" stroke="#bfbfbf" points="80.5,-0.5 80.5,-19.5 160.5,-19.5 160.5,-0.5 80.5,-0.5"/>
<text text-anchor="middle" x="120.5" y="-7.5" font-family="Helvetica,sans-Serif" font-size="10.00">configvalues.h</text>
</g>
<!-- Node3&#45;&gt;Node4 -->
<g id="edge4" class="edge"><title>Node3&#45;&gt;Node4</title>
<path fill="none" stroke="midnightblue" d="M120.5,-56.083C120.5,-49.0059 120.5,-38.8611 120.5,-29.9865"/>
<polygon fill="midnightblue" stroke="midnightblue" points="124,-29.751 120.5,-19.7511 117,-29.7511 124,-29.751"/>
</g>
<!-- Node6 -->
<g id="node7" class="node"><title>Node6</title>
<polygon fill="white" stroke="#bfbfbf" points="178.5,-0.5 178.5,-19.5 224.5,-19.5 224.5,-0.5 178.5,-0.5"/>
<text text-anchor="middle" x="201.5" y="-7.5" font-family="Helvetica,sans-Serif" font-size="10.00">stdio.h</text>
</g>
<!-- Node5&#45;&gt;Node6 -->
<g id="edge6" class="edge"><title>Node5&#45;&gt;Node6</title>
<path fill="none" stroke="midnightblue" d="M201.5,-56.083C201.5,-49.0059 201.5,-38.8611 201.5,-29.9865"/>
<polygon fill="midnightblue" stroke="midnightblue" points="205,-29.751 201.5,-19.7511 198,-29.7511 205,-29.751"/>
</g>
<!-- Node7 -->
<g id="node8" class="node"><title>Node7</title>
<polygon fill="white" stroke="#bfbfbf" points="242.5,-0.5 242.5,-19.5 294.5,-19.5 294.5,-0.5 242.5,-0.5"/>
<text text-anchor="middle" x="268.5" y="-7.5" font-family="Helvetica,sans-Serif" font-size="10.00">stdarg.h</text>
</g>
<!-- Node5&#45;&gt;Node7 -->
<g id="edge7" class="edge"><title>Node5&#45;&gt;Node7</title>
<path fill="none" stroke="midnightblue" d="M212.265,-56.324C222.266,-48.2631 237.387,-36.0765 249.43,-26.3695"/>
<polygon fill="midnightblue" stroke="midnightblue" points="251.95,-28.8343 257.539,-19.8339 247.557,-23.3841 251.95,-28.8343"/>
</g>
</g>
</svg>
