<?xml version="1.0" encoding="UTF-8" standalone="no"?>
<!DOCTYPE svg PUBLIC "-//W3C//DTD SVG 1.1//EN"
 "http://www.w3.org/Graphics/SVG/1.1/DTD/svg11.dtd">
<!-- Generated by graphviz version 2.38.0 (20140413.2041)
 -->
<!-- Title: TranslatorAdapterBase Pages: 1 -->
<svg width="1651pt" height="522pt"
 viewBox="0.00 0.00 1651.00 522.00" xmlns="http://www.w3.org/2000/svg" xmlns:xlink="http://www.w3.org/1999/xlink">
<g id="graph0" class="graph" transform="scale(1 1) rotate(0) translate(4 518)">
<title>TranslatorAdapterBase</title>
<polygon fill="white" stroke="none" points="-4,4 -4,-518 1647,-518 1647,4 -4,4"/>
<!-- Node0 -->
<g id="node1" class="node"><title>Node0</title>
<polygon fill="#bfbfbf" stroke="black" points="96,-76.5 96,-95.5 212,-95.5 212,-76.5 96,-76.5"/>
<text text-anchor="middle" x="154" y="-83.5" font-family="Helvetica,sans-Serif" font-size="10.00">TranslatorAdapterBase</text>
</g>
<!-- Node2 -->
<g id="node3" class="node"><title>Node2</title>
<g id="a_node3"><a xlink:href="../../de/d2f/class_translator_adapter__1__8__4.html" target="_top" xlink:title="TranslatorAdapter_1_8_4">
<polygon fill="white" stroke="black" points="248,-76.5 248,-95.5 373,-95.5 373,-76.5 248,-76.5"/>
<text text-anchor="middle" x="310.5" y="-83.5" font-family="Helvetica,sans-Serif" font-size="10.00">TranslatorAdapter_1_8_4</text>
</a>
</g>
</g>
<!-- Node0&#45;&gt;Node2 -->
<g id="edge2" class="edge"><title>Node0&#45;&gt;Node2</title>
<path fill="none" stroke="midnightblue" d="M222.367,-86C230.88,-86 239.556,-86 247.973,-86"/>
<polygon fill="midnightblue" stroke="midnightblue" points="222.091,-82.5001 212.091,-86 222.091,-89.5001 222.091,-82.5001"/>
</g>
<!-- Node1 -->
<g id="node2" class="node"><title>Node1</title>
<g id="a_node2"><a xlink:href="../../d8/dfb/class_translator.html" target="_top" xlink:title="Abstract base class for all translatable text fragments. ">
<polygon fill="white" stroke="black" points="0,-76.5 0,-95.5 60,-95.5 60,-76.5 0,-76.5"/>
<text text-anchor="middle" x="30" y="-83.5" font-family="Helvetica,sans-Serif" font-size="10.00">Translator</text>
</a>
</g>
</g>
<!-- Node1&#45;&gt;Node0 -->
<g id="edge1" class="edge"><title>Node1&#45;&gt;Node0</title>
<path fill="none" stroke="midnightblue" d="M70.4645,-86C78.5532,-86 87.2216,-86 95.7899,-86"/>
<polygon fill="midnightblue" stroke="midnightblue" points="70.2221,-82.5001 60.222,-86 70.222,-89.5001 70.2221,-82.5001"/>
</g>
<!-- Node3 -->
<g id="node4" class="node"><title>Node3</title>
<g id="a_node4"><a xlink:href="../../d2/d75/class_translator_adapter__1__8__2.html" target="_top" xlink:title="TranslatorAdapter_1_8_2">
<polygon fill="white" stroke="black" points="409,-152.5 409,-171.5 534,-171.5 534,-152.5 409,-152.5"/>
<text text-anchor="middle" x="471.5" y="-159.5" font-family="Helvetica,sans-Serif" font-size="10.00">TranslatorAdapter_1_8_2</text>
</a>
</g>
</g>
<!-- Node2&#45;&gt;Node3 -->
<g id="edge3" class="edge"><title>Node2&#45;&gt;Node3</title>
<path fill="none" stroke="midnightblue" d="M333.877,-101.082C353.15,-113.576 382.04,-131.143 409,-143 417.081,-146.554 426.032,-149.724 434.545,-152.408"/>
<polygon fill="midnightblue" stroke="midnightblue" points="335.769,-98.1372 325.489,-95.5705 331.924,-103.987 335.769,-98.1372"/>
</g>
<!-- Node29 -->
<g id="node30" class="node"><title>Node29</title>
<g id="a_node30"><a xlink:href="../../d2/d07/class_translator_esperanto.html" target="_top" xlink:title="TranslatorEsperanto">
<polygon fill="white" stroke="black" points="419.5,-114.5 419.5,-133.5 523.5,-133.5 523.5,-114.5 419.5,-114.5"/>
<text text-anchor="middle" x="471.5" y="-121.5" font-family="Helvetica,sans-Serif" font-size="10.00">TranslatorEsperanto</text>
</a>
</g>
</g>
<!-- Node2&#45;&gt;Node29 -->
<g id="edge29" class="edge"><title>Node2&#45;&gt;Node29</title>
<path fill="none" stroke="midnightblue" d="M361.577,-97.968C383.858,-103.293 409.729,-109.476 430.666,-114.48"/>
<polygon fill="midnightblue" stroke="midnightblue" points="362.162,-94.5094 351.622,-95.589 360.535,-101.318 362.162,-94.5094"/>
</g>
<!-- Node30 -->
<g id="node31" class="node"><title>Node30</title>
<g id="a_node31"><a xlink:href="../../d6/d07/class_translator_german.html" target="_top" xlink:title="TranslatorGerman">
<polygon fill="white" stroke="black" points="424,-76.5 424,-95.5 519,-95.5 519,-76.5 424,-76.5"/>
<text text-anchor="middle" x="471.5" y="-83.5" font-family="Helvetica,sans-Serif" font-size="10.00">TranslatorGerman</text>
</a>
</g>
</g>
<!-- Node2&#45;&gt;Node30 -->
<g id="edge30" class="edge"><title>Node2&#45;&gt;Node30</title>
<path fill="none" stroke="midnightblue" d="M383.74,-86C397.331,-86 411.207,-86 423.762,-86"/>
<polygon fill="midnightblue" stroke="midnightblue" points="383.429,-82.5001 373.429,-86 383.429,-89.5001 383.429,-82.5001"/>
</g>
<!-- Node31 -->
<g id="node32" class="node"><title>Node31</title>
<g id="a_node32"><a xlink:href="../../d8/d83/class_translator_latvian.html" target="_top" xlink:title="TranslatorLatvian">
<polygon fill="white" stroke="black" points="425.5,-38.5 425.5,-57.5 517.5,-57.5 517.5,-38.5 425.5,-38.5"/>
<text text-anchor="middle" x="471.5" y="-45.5" font-family="Helvetica,sans-Serif" font-size="10.00">TranslatorLatvian</text>
</a>
</g>
</g>
<!-- Node2&#45;&gt;Node31 -->
<g id="edge31" class="edge"><title>Node2&#45;&gt;Node31</title>
<path fill="none" stroke="midnightblue" d="M361.577,-74.032C383.858,-68.7069 409.729,-62.5238 430.666,-57.5201"/>
<polygon fill="midnightblue" stroke="midnightblue" points="360.535,-70.6823 351.622,-76.411 362.162,-77.4906 360.535,-70.6823"/>
</g>
<!-- Node32 -->
<g id="node33" class="node"><title>Node32</title>
<g id="a_node33"><a xlink:href="../../d1/d56/class_translator_ukrainian.html" target="_top" xlink:title="TranslatorUkrainian">
<polygon fill="white" stroke="black" points="421,-0.5 421,-19.5 522,-19.5 522,-0.5 421,-0.5"/>
<text text-anchor="middle" x="471.5" y="-7.5" font-family="Helvetica,sans-Serif" font-size="10.00">TranslatorUkrainian</text>
</a>
</g>
</g>
<!-- Node2&#45;&gt;Node32 -->
<g id="edge32" class="edge"><title>Node2&#45;&gt;Node32</title>
<path fill="none" stroke="midnightblue" d="M333.877,-70.918C353.15,-58.4241 382.04,-40.8571 409,-29 417.081,-25.4459 426.032,-22.276 434.545,-19.5916"/>
<polygon fill="midnightblue" stroke="midnightblue" points="331.924,-68.0128 325.489,-76.4295 335.769,-73.8628 331.924,-68.0128"/>
</g>
<!-- Node4 -->
<g id="node5" class="node"><title>Node4</title>
<g id="a_node5"><a xlink:href="../../de/d49/class_translator_adapter__1__8__0.html" target="_top" xlink:title="Adapter class for languages that only contain translations up to version 1.8.0. ">
<polygon fill="white" stroke="black" points="570,-190.5 570,-209.5 695,-209.5 695,-190.5 570,-190.5"/>
<text text-anchor="middle" x="632.5" y="-197.5" font-family="Helvetica,sans-Serif" font-size="10.00">TranslatorAdapter_1_8_0</text>
</a>
</g>
</g>
<!-- Node3&#45;&gt;Node4 -->
<g id="edge4" class="edge"><title>Node3&#45;&gt;Node4</title>
<path fill="none" stroke="midnightblue" d="M522.577,-173.968C544.858,-179.293 570.729,-185.476 591.666,-190.48"/>
<polygon fill="midnightblue" stroke="midnightblue" points="523.162,-170.509 512.622,-171.589 521.535,-177.318 523.162,-170.509"/>
</g>
<!-- Node27 -->
<g id="node28" class="node"><title>Node27</title>
<g id="a_node28"><a xlink:href="../../d9/d82/class_translator_croatian.html" target="_top" xlink:title="TranslatorCroatian">
<polygon fill="white" stroke="black" points="584,-152.5 584,-171.5 681,-171.5 681,-152.5 584,-152.5"/>
<text text-anchor="middle" x="632.5" y="-159.5" font-family="Helvetica,sans-Serif" font-size="10.00">TranslatorCroatian</text>
</a>
</g>
</g>
<!-- Node3&#45;&gt;Node27 -->
<g id="edge27" class="edge"><title>Node3&#45;&gt;Node27</title>
<path fill="none" stroke="midnightblue" d="M544.523,-162C557.828,-162 571.415,-162 583.775,-162"/>
<polygon fill="midnightblue" stroke="midnightblue" points="544.429,-158.5 534.429,-162 544.429,-165.5 544.429,-158.5"/>
</g>
<!-- Node28 -->
<g id="node29" class="node"><title>Node28</title>
<g id="a_node29"><a xlink:href="../../de/d82/class_translator_polish.html" target="_top" xlink:title="TranslatorPolish">
<polygon fill="white" stroke="black" points="589,-114.5 589,-133.5 676,-133.5 676,-114.5 589,-114.5"/>
<text text-anchor="middle" x="632.5" y="-121.5" font-family="Helvetica,sans-Serif" font-size="10.00">TranslatorPolish</text>
</a>
</g>
</g>
<!-- Node3&#45;&gt;Node28 -->
<g id="edge28" class="edge"><title>Node3&#45;&gt;Node28</title>
<path fill="none" stroke="midnightblue" d="M522.577,-150.032C544.858,-144.707 570.729,-138.524 591.666,-133.52"/>
<polygon fill="midnightblue" stroke="midnightblue" points="521.535,-146.682 512.622,-152.411 523.162,-153.491 521.535,-146.682"/>
</g>
<!-- Node5 -->
<g id="node6" class="node"><title>Node5</title>
<g id="a_node6"><a xlink:href="../../da/d24/class_translator_adapter__1__7__5.html" target="_top" xlink:title="Adapter class for languages that only contain translations up to version 1.7.5. ">
<polygon fill="white" stroke="black" points="731,-266.5 731,-285.5 856,-285.5 856,-266.5 731,-266.5"/>
<text text-anchor="middle" x="793.5" y="-273.5" font-family="Helvetica,sans-Serif" font-size="10.00">TranslatorAdapter_1_7_5</text>
</a>
</g>
</g>
<!-- Node4&#45;&gt;Node5 -->
<g id="edge5" class="edge"><title>Node4&#45;&gt;Node5</title>
<path fill="none" stroke="midnightblue" d="M655.877,-215.082C675.15,-227.576 704.04,-245.143 731,-257 739.081,-260.554 748.032,-263.724 756.545,-266.408"/>
<polygon fill="midnightblue" stroke="midnightblue" points="657.769,-212.137 647.489,-209.571 653.924,-217.987 657.769,-212.137"/>
</g>
<!-- Node23 -->
<g id="node24" class="node"><title>Node23</title>
<g id="a_node24"><a xlink:href="../../da/db8/class_translator_armenian.html" target="_top" xlink:title="TranslatorArmenian">
<polygon fill="white" stroke="black" points="743,-228.5 743,-247.5 844,-247.5 844,-228.5 743,-228.5"/>
<text text-anchor="middle" x="793.5" y="-235.5" font-family="Helvetica,sans-Serif" font-size="10.00">TranslatorArmenian</text>
</a>
</g>
</g>
<!-- Node4&#45;&gt;Node23 -->
<g id="edge23" class="edge"><title>Node4&#45;&gt;Node23</title>
<path fill="none" stroke="midnightblue" d="M683.577,-211.968C705.858,-217.293 731.729,-223.476 752.666,-228.48"/>
<polygon fill="midnightblue" stroke="midnightblue" points="684.162,-208.509 673.622,-209.589 682.535,-215.318 684.162,-208.509"/>
</g>
<!-- Node24 -->
<g id="node25" class="node"><title>Node24</title>
<g id="a_node25"><a xlink:href="../../d9/dc1/class_translator_catalan.html" target="_top" xlink:title="TranslatorCatalan">
<polygon fill="white" stroke="black" points="746.5,-190.5 746.5,-209.5 840.5,-209.5 840.5,-190.5 746.5,-190.5"/>
<text text-anchor="middle" x="793.5" y="-197.5" font-family="Helvetica,sans-Serif" font-size="10.00">TranslatorCatalan</text>
</a>
</g>
</g>
<!-- Node4&#45;&gt;Node24 -->
<g id="edge24" class="edge"><title>Node4&#45;&gt;Node24</title>
<path fill="none" stroke="midnightblue" d="M705.444,-200C719.307,-200 733.479,-200 746.254,-200"/>
<polygon fill="midnightblue" stroke="midnightblue" points="705.429,-196.5 695.429,-200 705.429,-203.5 705.429,-196.5"/>
</g>
<!-- Node25 -->
<g id="node26" class="node"><title>Node25</title>
<g id="a_node26"><a xlink:href="../../d7/d21/class_translator_danish.html" target="_top" xlink:title="TranslatorDanish">
<polygon fill="white" stroke="black" points="748,-152.5 748,-171.5 839,-171.5 839,-152.5 748,-152.5"/>
<text text-anchor="middle" x="793.5" y="-159.5" font-family="Helvetica,sans-Serif" font-size="10.00">TranslatorDanish</text>
</a>
</g>
</g>
<!-- Node4&#45;&gt;Node25 -->
<g id="edge25" class="edge"><title>Node4&#45;&gt;Node25</title>
<path fill="none" stroke="midnightblue" d="M683.577,-188.032C705.858,-182.707 731.729,-176.524 752.666,-171.52"/>
<polygon fill="midnightblue" stroke="midnightblue" points="682.535,-184.682 673.622,-190.411 684.162,-191.491 682.535,-184.682"/>
</g>
<!-- Node26 -->
<g id="node27" class="node"><title>Node26</title>
<g id="a_node27"><a xlink:href="../../df/dc8/class_translator_indonesian.html" target="_top" xlink:title="TranslatorIndonesian">
<polygon fill="white" stroke="black" points="740,-114.5 740,-133.5 847,-133.5 847,-114.5 740,-114.5"/>
<text text-anchor="middle" x="793.5" y="-121.5" font-family="Helvetica,sans-Serif" font-size="10.00">TranslatorIndonesian</text>
</a>
</g>
</g>
<!-- Node4&#45;&gt;Node26 -->
<g id="edge26" class="edge"><title>Node4&#45;&gt;Node26</title>
<path fill="none" stroke="midnightblue" d="M684.266,-186.662C688.003,-184.977 691.626,-183.097 695,-181 714.76,-168.721 711.24,-155.279 731,-143 737.17,-139.166 744.171,-136.054 751.184,-133.545"/>
<polygon fill="midnightblue" stroke="midnightblue" points="682.792,-183.482 674.816,-190.455 685.4,-189.978 682.792,-183.482"/>
</g>
<!-- Node6 -->
<g id="node7" class="node"><title>Node6</title>
<g id="a_node7"><a xlink:href="../../d7/d29/class_translator_adapter__1__6__3.html" target="_top" xlink:title="Adapter class for languages that only contain translations up to version 1.6.3. ">
<polygon fill="white" stroke="black" points="892,-304.5 892,-323.5 1017,-323.5 1017,-304.5 892,-304.5"/>
<text text-anchor="middle" x="954.5" y="-311.5" font-family="Helvetica,sans-Serif" font-size="10.00">TranslatorAdapter_1_6_3</text>
</a>
</g>
</g>
<!-- Node5&#45;&gt;Node6 -->
<g id="edge6" class="edge"><title>Node5&#45;&gt;Node6</title>
<path fill="none" stroke="midnightblue" d="M844.577,-287.968C866.858,-293.293 892.729,-299.476 913.666,-304.48"/>
<polygon fill="midnightblue" stroke="midnightblue" points="845.162,-284.509 834.622,-285.589 843.535,-291.318 845.162,-284.509"/>
</g>
<!-- Node21 -->
<g id="node22" class="node"><title>Node21</title>
<g id="a_node22"><a xlink:href="../../d5/d43/class_translator_persian.html" target="_top" xlink:title="TranslatorPersian">
<polygon fill="white" stroke="black" points="908,-266.5 908,-285.5 1001,-285.5 1001,-266.5 908,-266.5"/>
<text text-anchor="middle" x="954.5" y="-273.5" font-family="Helvetica,sans-Serif" font-size="10.00">TranslatorPersian</text>
</a>
</g>
</g>
<!-- Node5&#45;&gt;Node21 -->
<g id="edge21" class="edge"><title>Node5&#45;&gt;Node21</title>
<path fill="none" stroke="midnightblue" d="M866.548,-276C880.555,-276 894.874,-276 907.744,-276"/>
<polygon fill="midnightblue" stroke="midnightblue" points="866.429,-272.5 856.429,-276 866.429,-279.5 866.429,-272.5"/>
</g>
<!-- Node22 -->
<g id="node23" class="node"><title>Node22</title>
<g id="a_node23"><a xlink:href="../../dd/d80/class_translator_turkish.html" target="_top" xlink:title="TranslatorTurkish">
<polygon fill="white" stroke="black" points="908.5,-228.5 908.5,-247.5 1000.5,-247.5 1000.5,-228.5 908.5,-228.5"/>
<text text-anchor="middle" x="954.5" y="-235.5" font-family="Helvetica,sans-Serif" font-size="10.00">TranslatorTurkish</text>
</a>
</g>
</g>
<!-- Node5&#45;&gt;Node22 -->
<g id="edge22" class="edge"><title>Node5&#45;&gt;Node22</title>
<path fill="none" stroke="midnightblue" d="M844.577,-264.032C866.858,-258.707 892.729,-252.524 913.666,-247.52"/>
<polygon fill="midnightblue" stroke="midnightblue" points="843.535,-260.682 834.622,-266.411 845.162,-267.491 843.535,-260.682"/>
</g>
<!-- Node7 -->
<g id="node8" class="node"><title>Node7</title>
<g id="a_node8"><a xlink:href="../../d3/da1/class_translator_adapter__1__6__0.html" target="_top" xlink:title="Adapter class for languages that only contain translations up to version 1.6.0. ">
<polygon fill="white" stroke="black" points="1053,-304.5 1053,-323.5 1178,-323.5 1178,-304.5 1053,-304.5"/>
<text text-anchor="middle" x="1115.5" y="-311.5" font-family="Helvetica,sans-Serif" font-size="10.00">TranslatorAdapter_1_6_0</text>
</a>
</g>
</g>
<!-- Node6&#45;&gt;Node7 -->
<g id="edge7" class="edge"><title>Node6&#45;&gt;Node7</title>
<path fill="none" stroke="midnightblue" d="M1027.59,-314C1035.99,-314 1044.5,-314 1052.74,-314"/>
<polygon fill="midnightblue" stroke="midnightblue" points="1027.43,-310.5 1017.43,-314 1027.43,-317.5 1027.43,-310.5"/>
</g>
<!-- Node8 -->
<g id="node9" class="node"><title>Node8</title>
<g id="a_node9"><a xlink:href="../../df/dc7/class_translator_adapter__1__5__4.html" target="_top" xlink:title="Adapter class for languages that only contain translations up to version 1.5.4. ">
<polygon fill="white" stroke="black" points="1214,-418.5 1214,-437.5 1339,-437.5 1339,-418.5 1214,-418.5"/>
<text text-anchor="middle" x="1276.5" y="-425.5" font-family="Helvetica,sans-Serif" font-size="10.00">TranslatorAdapter_1_5_4</text>
</a>
</g>
</g>
<!-- Node7&#45;&gt;Node8 -->
<g id="edge8" class="edge"><title>Node7&#45;&gt;Node8</title>
<path fill="none" stroke="midnightblue" d="M1130,-331.494C1147.28,-352.746 1179.18,-388.313 1214,-409 1220.44,-412.824 1227.72,-415.948 1234.96,-418.476"/>
<polygon fill="midnightblue" stroke="midnightblue" points="1132.69,-329.248 1123.72,-323.602 1127.21,-333.606 1132.69,-329.248"/>
</g>
<!-- Node15 -->
<g id="node16" class="node"><title>Node15</title>
<g id="a_node16"><a xlink:href="../../d3/d65/class_translator_afrikaans.html" target="_top" xlink:title="TranslatorAfrikaans">
<polygon fill="white" stroke="black" points="1226,-380.5 1226,-399.5 1327,-399.5 1327,-380.5 1226,-380.5"/>
<text text-anchor="middle" x="1276.5" y="-387.5" font-family="Helvetica,sans-Serif" font-size="10.00">TranslatorAfrikaans</text>
</a>
</g>
</g>
<!-- Node7&#45;&gt;Node15 -->
<g id="edge15" class="edge"><title>Node7&#45;&gt;Node15</title>
<path fill="none" stroke="midnightblue" d="M1138.88,-329.082C1158.15,-341.576 1187.04,-359.143 1214,-371 1222.08,-374.554 1231.03,-377.724 1239.54,-380.408"/>
<polygon fill="midnightblue" stroke="midnightblue" points="1140.77,-326.137 1130.49,-323.571 1136.92,-331.987 1140.77,-326.137"/>
</g>
<!-- Node16 -->
<g id="node17" class="node"><title>Node16</title>
<g id="a_node17"><a xlink:href="../../de/df7/class_translator_finnish.html" target="_top" xlink:title="TranslatorFinnish">
<polygon fill="white" stroke="black" points="1230.5,-342.5 1230.5,-361.5 1322.5,-361.5 1322.5,-342.5 1230.5,-342.5"/>
<text text-anchor="middle" x="1276.5" y="-349.5" font-family="Helvetica,sans-Serif" font-size="10.00">TranslatorFinnish</text>
</a>
</g>
</g>
<!-- Node7&#45;&gt;Node16 -->
<g id="edge16" class="edge"><title>Node7&#45;&gt;Node16</title>
<path fill="none" stroke="midnightblue" d="M1166.58,-325.968C1188.86,-331.293 1214.73,-337.476 1235.67,-342.48"/>
<polygon fill="midnightblue" stroke="midnightblue" points="1167.16,-322.509 1156.62,-323.589 1165.53,-329.318 1167.16,-322.509"/>
</g>
<!-- Node17 -->
<g id="node18" class="node"><title>Node17</title>
<g id="a_node18"><a xlink:href="../../d9/ddf/class_translator_macedonian.html" target="_top" xlink:title="TranslatorMacedonian">
<polygon fill="white" stroke="black" points="1220,-304.5 1220,-323.5 1333,-323.5 1333,-304.5 1220,-304.5"/>
<text text-anchor="middle" x="1276.5" y="-311.5" font-family="Helvetica,sans-Serif" font-size="10.00">TranslatorMacedonian</text>
</a>
</g>
</g>
<!-- Node7&#45;&gt;Node17 -->
<g id="edge17" class="edge"><title>Node7&#45;&gt;Node17</title>
<path fill="none" stroke="midnightblue" d="M1188.48,-314C1199.05,-314 1209.79,-314 1219.96,-314"/>
<polygon fill="midnightblue" stroke="midnightblue" points="1188.43,-310.5 1178.43,-314 1188.43,-317.5 1188.43,-310.5"/>
</g>
<!-- Node18 -->
<g id="node19" class="node"><title>Node18</title>
<g id="a_node19"><a xlink:href="../../d5/d0a/class_translator_serbian.html" target="_top" xlink:title="TranslatorSerbian">
<polygon fill="white" stroke="black" points="1230,-266.5 1230,-285.5 1323,-285.5 1323,-266.5 1230,-266.5"/>
<text text-anchor="middle" x="1276.5" y="-273.5" font-family="Helvetica,sans-Serif" font-size="10.00">TranslatorSerbian</text>
</a>
</g>
</g>
<!-- Node7&#45;&gt;Node18 -->
<g id="edge18" class="edge"><title>Node7&#45;&gt;Node18</title>
<path fill="none" stroke="midnightblue" d="M1166.58,-302.032C1188.86,-296.707 1214.73,-290.524 1235.67,-285.52"/>
<polygon fill="midnightblue" stroke="midnightblue" points="1165.53,-298.682 1156.62,-304.411 1167.16,-305.491 1165.53,-298.682"/>
</g>
<!-- Node19 -->
<g id="node20" class="node"><title>Node19</title>
<g id="a_node20"><a xlink:href="../../dc/d03/class_translator_serbian_cyrillic.html" target="_top" xlink:title="TranslatorSerbianCyrillic">
<polygon fill="white" stroke="black" points="1215,-228.5 1215,-247.5 1338,-247.5 1338,-228.5 1215,-228.5"/>
<text text-anchor="middle" x="1276.5" y="-235.5" font-family="Helvetica,sans-Serif" font-size="10.00">TranslatorSerbianCyrillic</text>
</a>
</g>
</g>
<!-- Node7&#45;&gt;Node19 -->
<g id="edge19" class="edge"><title>Node7&#45;&gt;Node19</title>
<path fill="none" stroke="midnightblue" d="M1138.88,-298.918C1158.15,-286.424 1187.04,-268.857 1214,-257 1222.08,-253.446 1231.03,-250.276 1239.54,-247.592"/>
<polygon fill="midnightblue" stroke="midnightblue" points="1136.92,-296.013 1130.49,-304.429 1140.77,-301.863 1136.92,-296.013"/>
</g>
<!-- Node20 -->
<g id="node21" class="node"><title>Node20</title>
<g id="a_node21"><a xlink:href="../../df/d20/class_translator_vietnamese.html" target="_top" xlink:title="TranslatorVietnamese">
<polygon fill="white" stroke="black" points="1220.5,-190.5 1220.5,-209.5 1332.5,-209.5 1332.5,-190.5 1220.5,-190.5"/>
<text text-anchor="middle" x="1276.5" y="-197.5" font-family="Helvetica,sans-Serif" font-size="10.00">TranslatorVietnamese</text>
</a>
</g>
</g>
<!-- Node7&#45;&gt;Node20 -->
<g id="edge20" class="edge"><title>Node7&#45;&gt;Node20</title>
<path fill="none" stroke="midnightblue" d="M1130,-296.506C1147.28,-275.254 1179.18,-239.687 1214,-219 1220.44,-215.176 1227.72,-212.052 1234.96,-209.524"/>
<polygon fill="midnightblue" stroke="midnightblue" points="1127.21,-294.394 1123.72,-304.398 1132.69,-298.752 1127.21,-294.394"/>
</g>
<!-- Node9 -->
<g id="node10" class="node"><title>Node9</title>
<g id="a_node10"><a xlink:href="../../d4/d2b/class_translator_adapter__1__4__6.html" target="_top" xlink:title="Adapter class for languages that only contain translations up to version 1.4.6. ">
<polygon fill="white" stroke="black" points="1375,-418.5 1375,-437.5 1500,-437.5 1500,-418.5 1375,-418.5"/>
<text text-anchor="middle" x="1437.5" y="-425.5" font-family="Helvetica,sans-Serif" font-size="10.00">TranslatorAdapter_1_4_6</text>
</a>
</g>
</g>
<!-- Node8&#45;&gt;Node9 -->
<g id="edge9" class="edge"><title>Node8&#45;&gt;Node9</title>
<path fill="none" stroke="midnightblue" d="M1349.59,-428C1357.99,-428 1366.5,-428 1374.74,-428"/>
<polygon fill="midnightblue" stroke="midnightblue" points="1349.43,-424.5 1339.43,-428 1349.43,-431.5 1349.43,-424.5"/>
</g>
<!-- Node10 -->
<g id="node11" class="node"><title>Node10</title>
<g id="a_node11"><a xlink:href="../../d3/de9/class_translator_arabic.html" target="_top" xlink:title="TranslatorArabic">
<polygon fill="white" stroke="black" points="1545.5,-494.5 1545.5,-513.5 1633.5,-513.5 1633.5,-494.5 1545.5,-494.5"/>
<text text-anchor="middle" x="1589.5" y="-501.5" font-family="Helvetica,sans-Serif" font-size="10.00">TranslatorArabic</text>
</a>
</g>
</g>
<!-- Node9&#45;&gt;Node10 -->
<g id="edge10" class="edge"><title>Node9&#45;&gt;Node10</title>
<path fill="none" stroke="midnightblue" d="M1461.36,-442.967C1480.72,-455.249 1509.48,-472.576 1536,-485 1543.37,-488.454 1551.56,-491.687 1559.23,-494.473"/>
<polygon fill="midnightblue" stroke="midnightblue" points="1463.22,-440.004 1452.91,-437.552 1459.44,-445.896 1463.22,-440.004"/>
</g>
<!-- Node11 -->
<g id="node12" class="node"><title>Node11</title>
<g id="a_node12"><a xlink:href="../../db/d5f/class_translator_hungarian.html" target="_top" xlink:title="TranslatorHungarian">
<polygon fill="white" stroke="black" points="1537.5,-456.5 1537.5,-475.5 1641.5,-475.5 1641.5,-456.5 1537.5,-456.5"/>
<text text-anchor="middle" x="1589.5" y="-463.5" font-family="Helvetica,sans-Serif" font-size="10.00">TranslatorHungarian</text>
</a>
</g>
</g>
<!-- Node9&#45;&gt;Node11 -->
<g id="edge11" class="edge"><title>Node9&#45;&gt;Node11</title>
<path fill="none" stroke="midnightblue" d="M1486.31,-440.112C1507.2,-445.404 1531.35,-451.521 1550.92,-456.48"/>
<polygon fill="midnightblue" stroke="midnightblue" points="1486.9,-436.652 1476.35,-437.589 1485.19,-443.438 1486.9,-436.652"/>
</g>
<!-- Node12 -->
<g id="node13" class="node"><title>Node12</title>
<g id="a_node13"><a xlink:href="../../dc/d53/class_translator_lithuanian.html" target="_top" xlink:title="TranslatorLithuanian">
<polygon fill="white" stroke="black" points="1537.5,-418.5 1537.5,-437.5 1641.5,-437.5 1641.5,-418.5 1537.5,-418.5"/>
<text text-anchor="middle" x="1589.5" y="-425.5" font-family="Helvetica,sans-Serif" font-size="10.00">TranslatorLithuanian</text>
</a>
</g>
</g>
<!-- Node9&#45;&gt;Node12 -->
<g id="edge12" class="edge"><title>Node9&#45;&gt;Node12</title>
<path fill="none" stroke="midnightblue" d="M1510.52,-428C1519.55,-428 1528.64,-428 1537.26,-428"/>
<polygon fill="midnightblue" stroke="midnightblue" points="1510.38,-424.5 1500.38,-428 1510.38,-431.5 1510.38,-424.5"/>
</g>
<!-- Node13 -->
<g id="node14" class="node"><title>Node13</title>
<g id="a_node14"><a xlink:href="../../dd/d38/class_translator_norwegian.html" target="_top" xlink:title="TranslatorNorwegian">
<polygon fill="white" stroke="black" points="1536,-380.5 1536,-399.5 1643,-399.5 1643,-380.5 1536,-380.5"/>
<text text-anchor="middle" x="1589.5" y="-387.5" font-family="Helvetica,sans-Serif" font-size="10.00">TranslatorNorwegian</text>
</a>
</g>
</g>
<!-- Node9&#45;&gt;Node13 -->
<g id="edge13" class="edge"><title>Node9&#45;&gt;Node13</title>
<path fill="none" stroke="midnightblue" d="M1486.31,-415.888C1507.2,-410.596 1531.35,-404.479 1550.92,-399.52"/>
<polygon fill="midnightblue" stroke="midnightblue" points="1485.19,-412.562 1476.35,-418.411 1486.9,-419.348 1485.19,-412.562"/>
</g>
<!-- Node14 -->
<g id="node15" class="node"><title>Node14</title>
<g id="a_node15"><a xlink:href="../../dd/d0b/class_translator_slovene.html" target="_top" xlink:title="TranslatorSlovene">
<polygon fill="white" stroke="black" points="1542,-342.5 1542,-361.5 1637,-361.5 1637,-342.5 1542,-342.5"/>
<text text-anchor="middle" x="1589.5" y="-349.5" font-family="Helvetica,sans-Serif" font-size="10.00">TranslatorSlovene</text>
</a>
</g>
</g>
<!-- Node9&#45;&gt;Node14 -->
<g id="edge14" class="edge"><title>Node9&#45;&gt;Node14</title>
<path fill="none" stroke="midnightblue" d="M1461.36,-413.033C1480.72,-400.751 1509.48,-383.424 1536,-371 1543.37,-367.546 1551.56,-364.313 1559.23,-361.527"/>
<polygon fill="midnightblue" stroke="midnightblue" points="1459.44,-410.104 1452.91,-418.448 1463.22,-415.996 1459.44,-410.104"/>
</g>
</g>
</svg>
