<?xml version="1.0" encoding="UTF-8" standalone="no"?>
<!DOCTYPE svg PUBLIC "-//W3C//DTD SVG 1.1//EN"
 "http://www.w3.org/Graphics/SVG/1.1/DTD/svg11.dtd">
<!-- Generated by graphviz version 2.38.0 (20140413.2041)
 -->
<!-- Title: src/debug.cpp Pages: 1 -->
<svg width="245pt" height="140pt"
 viewBox="0.00 0.00 244.87 140.00" xmlns="http://www.w3.org/2000/svg" xmlns:xlink="http://www.w3.org/1999/xlink">
<g id="graph0" class="graph" transform="scale(1 1) rotate(0) translate(4 136)">
<title>src/debug.cpp</title>
<polygon fill="white" stroke="none" points="-4,4 -4,-136 240.867,-136 240.867,4 -4,4"/>
<!-- Node0 -->
<g id="node1" class="node"><title>Node0</title>
<polygon fill="#bfbfbf" stroke="black" points="92,-112.5 92,-131.5 170,-131.5 170,-112.5 92,-112.5"/>
<text text-anchor="middle" x="131" y="-119.5" font-family="Helvetica,sans-Serif" font-size="10.00">src/debug.cpp</text>
</g>
<!-- Node1 -->
<g id="node2" class="node"><title>Node1</title>
<polygon fill="white" stroke="#bfbfbf" points="0,-0.5 0,-19.5 52,-19.5 52,-0.5 0,-0.5"/>
<text text-anchor="middle" x="26" y="-7.5" font-family="Helvetica,sans-Serif" font-size="10.00">stdarg.h</text>
</g>
<!-- Node0&#45;&gt;Node1 -->
<g id="edge1" class="edge"><title>Node0&#45;&gt;Node1</title>
<path fill="none" stroke="midnightblue" d="M91.9396,-117.078C65.4121,-112.151 32.1459,-101.042 15,-76 5.53047,-62.1694 10.4957,-42.8902 16.4791,-28.9229"/>
<polygon fill="midnightblue" stroke="midnightblue" points="19.6637,-30.3764 20.8241,-19.8453 13.3497,-27.3542 19.6637,-30.3764"/>
</g>
<!-- Node2 -->
<g id="node3" class="node"><title>Node2</title>
<polygon fill="white" stroke="#bfbfbf" points="164,-0.5 164,-19.5 210,-19.5 210,-0.5 164,-0.5"/>
<text text-anchor="middle" x="187" y="-7.5" font-family="Helvetica,sans-Serif" font-size="10.00">stdio.h</text>
</g>
<!-- Node0&#45;&gt;Node2 -->
<g id="edge2" class="edge"><title>Node0&#45;&gt;Node2</title>
<path fill="none" stroke="midnightblue" d="M170.047,-114.552C192.568,-108.613 219.102,-97.3223 233,-76 244.443,-58.4448 226.208,-38.8905 209.428,-25.8591"/>
<polygon fill="midnightblue" stroke="midnightblue" points="211.095,-22.7429 200.951,-19.6842 206.974,-28.401 211.095,-22.7429"/>
</g>
<!-- Node3 -->
<g id="node4" class="node"><title>Node3</title>
<polygon fill="white" stroke="#bfbfbf" points="108,-56.5 108,-75.5 154,-75.5 154,-56.5 108,-56.5"/>
<text text-anchor="middle" x="131" y="-63.5" font-family="Helvetica,sans-Serif" font-size="10.00">qdict.h</text>
</g>
<!-- Node0&#45;&gt;Node3 -->
<g id="edge3" class="edge"><title>Node0&#45;&gt;Node3</title>
<path fill="none" stroke="midnightblue" d="M131,-112.083C131,-105.006 131,-94.8611 131,-85.9865"/>
<polygon fill="midnightblue" stroke="midnightblue" points="134.5,-85.751 131,-75.7511 127.5,-85.7511 134.5,-85.751"/>
</g>
<!-- Node4 -->
<g id="node5" class="node"><title>Node4</title>
<g id="a_node5"><a xlink:href="../../db/d16/debug_8h.html" target="_top" xlink:title="debug.h">
<polygon fill="white" stroke="black" points="172.5,-56.5 172.5,-75.5 223.5,-75.5 223.5,-56.5 172.5,-56.5"/>
<text text-anchor="middle" x="198" y="-63.5" font-family="Helvetica,sans-Serif" font-size="10.00">debug.h</text>
</a>
</g>
</g>
<!-- Node0&#45;&gt;Node4 -->
<g id="edge4" class="edge"><title>Node0&#45;&gt;Node4</title>
<path fill="none" stroke="midnightblue" d="M141.765,-112.324C151.766,-104.263 166.887,-92.0765 178.93,-82.3695"/>
<polygon fill="midnightblue" stroke="midnightblue" points="181.45,-84.8343 187.039,-75.8339 177.057,-79.3841 181.45,-84.8343"/>
</g>
<!-- Node5 -->
<g id="node6" class="node"><title>Node5</title>
<g id="a_node6"><a xlink:href="../../d2/d0d/message_8h.html" target="_top" xlink:title="message.h">
<polygon fill="white" stroke="black" points="24.5,-56.5 24.5,-75.5 89.5,-75.5 89.5,-56.5 24.5,-56.5"/>
<text text-anchor="middle" x="57" y="-63.5" font-family="Helvetica,sans-Serif" font-size="10.00">message.h</text>
</a>
</g>
</g>
<!-- Node0&#45;&gt;Node5 -->
<g id="edge5" class="edge"><title>Node0&#45;&gt;Node5</title>
<path fill="none" stroke="midnightblue" d="M119.111,-112.324C107.85,-104.107 90.7134,-91.6017 77.2909,-81.8069"/>
<polygon fill="midnightblue" stroke="midnightblue" points="79.2468,-78.9014 69.1057,-75.8339 75.1205,-84.5559 79.2468,-78.9014"/>
</g>
<!-- Node5&#45;&gt;Node1 -->
<g id="edge7" class="edge"><title>Node5&#45;&gt;Node1</title>
<path fill="none" stroke="midnightblue" d="M51.881,-56.083C47.5925,-48.6127 41.3418,-37.7244 36.0577,-28.5199"/>
<polygon fill="midnightblue" stroke="midnightblue" points="39.0379,-26.6811 31.0238,-19.7511 32.9671,-30.1662 39.0379,-26.6811"/>
</g>
<!-- Node5&#45;&gt;Node2 -->
<g id="edge6" class="edge"><title>Node5&#45;&gt;Node2</title>
<path fill="none" stroke="midnightblue" d="M77.5989,-56.4435C98.9934,-47.5566 132.681,-33.5632 157.024,-23.4514"/>
<polygon fill="midnightblue" stroke="midnightblue" points="158.605,-26.5848 166.497,-19.5164 155.92,-20.1203 158.605,-26.5848"/>
</g>
</g>
</svg>
