<?xml version="1.0" encoding="UTF-8" standalone="no"?>
<!DOCTYPE svg PUBLIC "-//W3C//DTD SVG 1.1//EN"
 "http://www.w3.org/Graphics/SVG/1.1/DTD/svg11.dtd">
<!-- Generated by graphviz version 2.38.0 (20140413.2041)
 -->
<!-- Title: src/membername.h Pages: 1 -->
<svg width="1209pt" height="84pt"
 viewBox="0.00 0.00 1209.00 84.00" xmlns="http://www.w3.org/2000/svg" xmlns:xlink="http://www.w3.org/1999/xlink">
<g id="graph0" class="graph" transform="scale(1 1) rotate(0) translate(4 80)">
<title>src/membername.h</title>
<polygon fill="white" stroke="none" points="-4,4 -4,-80 1205,-80 1205,4 -4,4"/>
<!-- Node10 -->
<g id="node1" class="node"><title>Node10</title>
<polygon fill="#bfbfbf" stroke="black" points="545,-56.5 545,-75.5 646,-75.5 646,-56.5 545,-56.5"/>
<text text-anchor="middle" x="595.5" y="-63.5" font-family="Helvetica,sans-Serif" font-size="10.00">src/membername.h</text>
</g>
<!-- Node11 -->
<g id="node2" class="node"><title>Node11</title>
<g id="a_node2"><a xlink:href="../../de/d89/classdef_8cpp.html" target="_top" xlink:title="src/classdef.cpp">
<polygon fill="white" stroke="black" points="0,-0.5 0,-19.5 89,-19.5 89,-0.5 0,-0.5"/>
<text text-anchor="middle" x="44.5" y="-7.5" font-family="Helvetica,sans-Serif" font-size="10.00">src/classdef.cpp</text>
</a>
</g>
</g>
<!-- Node10&#45;&gt;Node11 -->
<g id="edge1" class="edge"><title>Node10&#45;&gt;Node11</title>
<path fill="none" stroke="midnightblue" d="M534.635,-61.0387C440.626,-54.5735 254.534,-40.3963 97.5,-20 94.8159,-19.6514 92.0599,-19.2663 89.2825,-18.8574"/>
<polygon fill="midnightblue" stroke="midnightblue" points="534.598,-64.5442 544.813,-61.7332 535.075,-57.5605 534.598,-64.5442"/>
</g>
<!-- Node12 -->
<g id="node3" class="node"><title>Node12</title>
<g id="a_node3"><a xlink:href="../../db/d12/context_8cpp.html" target="_top" xlink:title="src/context.cpp">
<polygon fill="white" stroke="black" points="106.5,-0.5 106.5,-19.5 190.5,-19.5 190.5,-0.5 106.5,-0.5"/>
<text text-anchor="middle" x="148.5" y="-7.5" font-family="Helvetica,sans-Serif" font-size="10.00">src/context.cpp</text>
</a>
</g>
</g>
<!-- Node10&#45;&gt;Node12 -->
<g id="edge2" class="edge"><title>Node10&#45;&gt;Node12</title>
<path fill="none" stroke="midnightblue" d="M534.625,-59.2564C456.751,-51.6396 317.79,-37.1419 199.5,-20 196.653,-19.5874 193.72,-19.1373 190.769,-18.6655"/>
<polygon fill="midnightblue" stroke="midnightblue" points="534.446,-62.7553 544.738,-60.2403 535.124,-55.7882 534.446,-62.7553"/>
</g>
<!-- Node13 -->
<g id="node4" class="node"><title>Node13</title>
<g id="a_node4"><a xlink:href="../../d8/d29/docbookgen_8cpp.html" target="_top" xlink:title="src/docbookgen.cpp">
<polygon fill="white" stroke="black" points="208.5,-0.5 208.5,-19.5 312.5,-19.5 312.5,-0.5 208.5,-0.5"/>
<text text-anchor="middle" x="260.5" y="-7.5" font-family="Helvetica,sans-Serif" font-size="10.00">src/docbookgen.cpp</text>
</a>
</g>
</g>
<!-- Node10&#45;&gt;Node13 -->
<g id="edge3" class="edge"><title>Node10&#45;&gt;Node13</title>
<path fill="none" stroke="midnightblue" d="M535.107,-55.265C471.597,-45.0276 372.702,-29.0863 312.531,-19.3872"/>
<polygon fill="midnightblue" stroke="midnightblue" points="534.555,-58.7211 544.984,-56.8572 535.669,-51.8103 534.555,-58.7211"/>
</g>
<!-- Node14 -->
<g id="node5" class="node"><title>Node14</title>
<g id="a_node5"><a xlink:href="../../dc/d98/doxygen_8cpp.html" target="_top" xlink:title="src/doxygen.cpp">
<polygon fill="white" stroke="black" points="331,-0.5 331,-19.5 420,-19.5 420,-0.5 331,-0.5"/>
<text text-anchor="middle" x="375.5" y="-7.5" font-family="Helvetica,sans-Serif" font-size="10.00">src/doxygen.cpp</text>
</a>
</g>
</g>
<!-- Node10&#45;&gt;Node14 -->
<g id="edge4" class="edge"><title>Node10&#45;&gt;Node14</title>
<path fill="none" stroke="midnightblue" d="M550.782,-54.0237C509.224,-43.8232 448.187,-28.8414 410.197,-19.5164"/>
<polygon fill="midnightblue" stroke="midnightblue" points="550.094,-57.4588 560.64,-56.4435 551.763,-50.6606 550.094,-57.4588"/>
</g>
<!-- Node15 -->
<g id="node6" class="node"><title>Node15</title>
<g id="a_node6"><a xlink:href="../../d6/d42/groupdef_8cpp.html" target="_top" xlink:title="src/groupdef.cpp">
<polygon fill="white" stroke="black" points="438,-0.5 438,-19.5 527,-19.5 527,-0.5 438,-0.5"/>
<text text-anchor="middle" x="482.5" y="-7.5" font-family="Helvetica,sans-Serif" font-size="10.00">src/groupdef.cpp</text>
</a>
</g>
</g>
<!-- Node10&#45;&gt;Node15 -->
<g id="edge5" class="edge"><title>Node10&#45;&gt;Node15</title>
<path fill="none" stroke="midnightblue" d="M568.497,-52.096C547.386,-42.0073 518.638,-28.2697 500.321,-19.5164"/>
<polygon fill="midnightblue" stroke="midnightblue" points="567.063,-55.2897 577.595,-56.4435 570.081,-48.9738 567.063,-55.2897"/>
</g>
<!-- Node16 -->
<g id="node7" class="node"><title>Node16</title>
<g id="a_node7"><a xlink:href="../../d0/d72/memberdef_8cpp.html" target="_top" xlink:title="src/memberdef.cpp">
<polygon fill="white" stroke="black" points="545,-0.5 545,-19.5 646,-19.5 646,-0.5 545,-0.5"/>
<text text-anchor="middle" x="595.5" y="-7.5" font-family="Helvetica,sans-Serif" font-size="10.00">src/memberdef.cpp</text>
</a>
</g>
</g>
<!-- Node10&#45;&gt;Node16 -->
<g id="edge6" class="edge"><title>Node10&#45;&gt;Node16</title>
<path fill="none" stroke="midnightblue" d="M595.5,-45.8045C595.5,-36.9102 595.5,-26.7798 595.5,-19.7511"/>
<polygon fill="midnightblue" stroke="midnightblue" points="592,-46.083 595.5,-56.083 599,-46.083 592,-46.083"/>
</g>
<!-- Node17 -->
<g id="node8" class="node"><title>Node17</title>
<g id="a_node8"><a xlink:href="../../de/d1d/membername_8cpp.html" target="_top" xlink:title="src/membername.cpp">
<polygon fill="white" stroke="black" points="664,-0.5 664,-19.5 775,-19.5 775,-0.5 664,-0.5"/>
<text text-anchor="middle" x="719.5" y="-7.5" font-family="Helvetica,sans-Serif" font-size="10.00">src/membername.cpp</text>
</a>
</g>
</g>
<!-- Node10&#45;&gt;Node17 -->
<g id="edge7" class="edge"><title>Node10&#45;&gt;Node17</title>
<path fill="none" stroke="midnightblue" d="M624.507,-52.3678C647.729,-42.2553 679.663,-28.3486 699.944,-19.5164"/>
<polygon fill="midnightblue" stroke="midnightblue" points="622.919,-49.2419 615.148,-56.4435 625.714,-55.6597 622.919,-49.2419"/>
</g>
<!-- Node18 -->
<g id="node9" class="node"><title>Node18</title>
<g id="a_node9"><a xlink:href="../../de/dd0/perlmodgen_8cpp.html" target="_top" xlink:title="src/perlmodgen.cpp">
<polygon fill="white" stroke="black" points="792.5,-0.5 792.5,-19.5 894.5,-19.5 894.5,-0.5 792.5,-0.5"/>
<text text-anchor="middle" x="843.5" y="-7.5" font-family="Helvetica,sans-Serif" font-size="10.00">src/perlmodgen.cpp</text>
</a>
</g>
</g>
<!-- Node10&#45;&gt;Node18 -->
<g id="edge8" class="edge"><title>Node10&#45;&gt;Node18</title>
<path fill="none" stroke="midnightblue" d="M644.726,-54.2815C691.591,-44.0769 761.199,-28.9203 804.388,-19.5164"/>
<polygon fill="midnightblue" stroke="midnightblue" points="643.823,-50.896 634.796,-56.4435 645.312,-57.7358 643.823,-50.896"/>
</g>
<!-- Node19 -->
<g id="node10" class="node"><title>Node19</title>
<g id="a_node10"><a xlink:href="../../d7/d79/searchindex_8cpp.html" target="_top" xlink:title="src/searchindex.cpp">
<polygon fill="white" stroke="black" points="912.5,-0.5 912.5,-19.5 1016.5,-19.5 1016.5,-0.5 912.5,-0.5"/>
<text text-anchor="middle" x="964.5" y="-7.5" font-family="Helvetica,sans-Serif" font-size="10.00">src/searchindex.cpp</text>
</a>
</g>
</g>
<!-- Node10&#45;&gt;Node19 -->
<g id="edge9" class="edge"><title>Node10&#45;&gt;Node19</title>
<path fill="none" stroke="midnightblue" d="M656.21,-56.1558C718.333,-47.0996 817.653,-32.6043 903.5,-20 906.36,-19.5801 909.295,-19.1487 912.257,-18.7129"/>
<polygon fill="midnightblue" stroke="midnightblue" points="655.58,-52.7105 646.189,-57.6164 656.59,-59.6373 655.58,-52.7105"/>
</g>
<!-- Node20 -->
<g id="node11" class="node"><title>Node20</title>
<g id="a_node11"><a xlink:href="../../df/d2d/util_8cpp.html" target="_top" xlink:title="src/util.cpp">
<polygon fill="white" stroke="black" points="1035,-0.5 1035,-19.5 1100,-19.5 1100,-0.5 1035,-0.5"/>
<text text-anchor="middle" x="1067.5" y="-7.5" font-family="Helvetica,sans-Serif" font-size="10.00">src/util.cpp</text>
</a>
</g>
</g>
<!-- Node10&#45;&gt;Node20 -->
<g id="edge10" class="edge"><title>Node10&#45;&gt;Node20</title>
<path fill="none" stroke="midnightblue" d="M656.108,-60.7093C739.606,-54.3319 894.563,-40.8192 1025.5,-20 1028.45,-19.5316 1031.5,-18.9898 1034.55,-18.4091"/>
<polygon fill="midnightblue" stroke="midnightblue" points="655.748,-57.2265 646.04,-61.4701 656.276,-64.2066 655.748,-57.2265"/>
</g>
<!-- Node21 -->
<g id="node12" class="node"><title>Node21</title>
<g id="a_node12"><a xlink:href="../../d0/dc3/xmlgen_8cpp.html" target="_top" xlink:title="src/xmlgen.cpp">
<polygon fill="white" stroke="black" points="1118,-0.5 1118,-19.5 1201,-19.5 1201,-0.5 1118,-0.5"/>
<text text-anchor="middle" x="1159.5" y="-7.5" font-family="Helvetica,sans-Serif" font-size="10.00">src/xmlgen.cpp</text>
</a>
</g>
</g>
<!-- Node10&#45;&gt;Node21 -->
<g id="edge11" class="edge"><title>Node10&#45;&gt;Node21</title>
<path fill="none" stroke="midnightblue" d="M656.145,-61.4797C752.485,-55.4854 946.302,-41.786 1109.5,-20 1112.21,-19.6382 1115,-19.2321 1117.8,-18.7976"/>
<polygon fill="midnightblue" stroke="midnightblue" points="655.774,-57.9959 646.008,-62.1043 656.205,-64.9826 655.774,-57.9959"/>
</g>
</g>
</svg>
