<?xml version="1.0" encoding="UTF-8" standalone="no"?>
<!DOCTYPE svg PUBLIC "-//W3C//DTD SVG 1.1//EN"
 "http://www.w3.org/Graphics/SVG/1.1/DTD/svg11.dtd">
<!-- Generated by graphviz version 2.38.0 (20140413.2041)
 -->
<!-- Title: TranslateContext::Private Pages: 1 -->
<svg width="164pt" height="184pt"
 viewBox="0.00 0.00 163.50 184.00" xmlns="http://www.w3.org/2000/svg" xmlns:xlink="http://www.w3.org/1999/xlink">
<g id="graph0" class="graph" transform="scale(1 1) rotate(0) translate(4 180)">
<title>TranslateContext::Private</title>
<polygon fill="white" stroke="none" points="-4,4 -4,-180 159.5,-180 159.5,4 -4,4"/>
<!-- Node1 -->
<g id="node1" class="node"><title>Node1</title>
<polygon fill="#bfbfbf" stroke="black" points="3.5,-0.5 3.5,-19.5 131.5,-19.5 131.5,-0.5 3.5,-0.5"/>
<text text-anchor="middle" x="67.5" y="-7.5" font-family="Helvetica,sans-Serif" font-size="10.00">TranslateContext::Private</text>
</g>
<!-- Node2 -->
<g id="node2" class="node"><title>Node2</title>
<g id="a_node2"><a xlink:href="../../d1/d80/class_property_mapper.html" target="_top" xlink:title="PropertyMapper\&lt; Translate\lContext::Private \&gt;">
<polygon fill="white" stroke="black" points="0,-67.5 0,-97.5 135,-97.5 135,-67.5 0,-67.5"/>
<text text-anchor="start" x="8" y="-85.5" font-family="Helvetica,sans-Serif" font-size="10.00">PropertyMapper&lt; Translate</text>
<text text-anchor="middle" x="67.5" y="-74.5" font-family="Helvetica,sans-Serif" font-size="10.00">Context::Private &gt;</text>
</a>
</g>
</g>
<!-- Node2&#45;&gt;Node1 -->
<g id="edge1" class="edge"><title>Node2&#45;&gt;Node1</title>
<path fill="none" stroke="#9a32cd" stroke-dasharray="5,2" d="M67.5,-57.0913C67.5,-44.2136 67.5,-29.1974 67.5,-19.8932"/>
<polygon fill="#9a32cd" stroke="#9a32cd" points="64.0001,-57.2332 67.5,-67.2333 71.0001,-57.2333 64.0001,-57.2332"/>
<text text-anchor="middle" x="82.5" y="-41" font-family="Helvetica,sans-Serif" font-size="10.00"> s_inst</text>
</g>
<!-- Node3 -->
<g id="node3" class="node"><title>Node3</title>
<g id="a_node3"><a xlink:href="../../d1/d80/class_property_mapper.html" target="_top" xlink:title="Helper class to map a property name to a handler member function. ">
<polygon fill="white" stroke="black" points="12.5,-156.5 12.5,-175.5 122.5,-175.5 122.5,-156.5 12.5,-156.5"/>
<text text-anchor="middle" x="67.5" y="-163.5" font-family="Helvetica,sans-Serif" font-size="10.00">PropertyMapper&lt; T &gt;</text>
</a>
</g>
</g>
<!-- Node3&#45;&gt;Node2 -->
<g id="edge2" class="edge"><title>Node3&#45;&gt;Node2</title>
<path fill="none" stroke="orange" stroke-dasharray="5,2" d="M67.5,-146.229C67.5,-131.408 67.5,-111.051 67.5,-97.5974"/>
<polygon fill="orange" stroke="orange" points="64.0001,-146.278 67.5,-156.278 71.0001,-146.278 64.0001,-146.278"/>
<text text-anchor="start" x="67.5" y="-130" font-family="Helvetica,sans-Serif" font-size="10.00"> &lt; TranslateContext</text>
<text text-anchor="middle" x="111.5" y="-119" font-family="Helvetica,sans-Serif" font-size="10.00">::Private &gt;</text>
</g>
</g>
</svg>
