<?xml version="1.0" encoding="UTF-8" standalone="no"?>
<!DOCTYPE svg PUBLIC "-//W3C//DTD SVG 1.1//EN"
 "http://www.w3.org/Graphics/SVG/1.1/DTD/svg11.dtd">
<!-- Generated by graphviz version 2.38.0 (20140413.2041)
 -->
<!-- Title: ObjCache Pages: 1 -->
<svg width="258pt" height="95pt"
 viewBox="0.00 0.00 257.50 95.00" xmlns="http://www.w3.org/2000/svg" xmlns:xlink="http://www.w3.org/1999/xlink">
<g id="graph0" class="graph" transform="scale(1 1) rotate(0) translate(4 91)">
<title>ObjCache</title>
<polygon fill="white" stroke="none" points="-4,4 -4,-91 253.5,-91 253.5,4 -4,4"/>
<!-- Node1 -->
<g id="node1" class="node"><title>Node1</title>
<polygon fill="#bfbfbf" stroke="black" points="96,-0.5 96,-19.5 156,-19.5 156,-0.5 96,-0.5"/>
<text text-anchor="middle" x="126" y="-7.5" font-family="Helvetica,sans-Serif" font-size="10.00">ObjCache</text>
</g>
<!-- Node2 -->
<g id="node2" class="node"><title>Node2</title>
<g id="a_node2"><a xlink:href="../../dd/d20/struct_obj_cache_1_1_cache_node.html" target="_top" xlink:title="ObjCache::CacheNode">
<polygon fill="white" stroke="black" points="0,-67.5 0,-86.5 118,-86.5 118,-67.5 0,-67.5"/>
<text text-anchor="middle" x="59" y="-74.5" font-family="Helvetica,sans-Serif" font-size="10.00">ObjCache::CacheNode</text>
</a>
</g>
</g>
<!-- Node2&#45;&gt;Node1 -->
<g id="edge1" class="edge"><title>Node2&#45;&gt;Node1</title>
<path fill="none" stroke="#9a32cd" stroke-dasharray="5,2" d="M75.4956,-59.9968C88.635,-47.2496 106.524,-29.8947 117.107,-19.6273"/>
<polygon fill="#9a32cd" stroke="#9a32cd" points="72.7762,-57.7586 68.0359,-67.2338 77.6504,-62.7827 72.7762,-57.7586"/>
<text text-anchor="middle" x="118.5" y="-41" font-family="Helvetica,sans-Serif" font-size="10.00"> m_cache</text>
</g>
<!-- Node3 -->
<g id="node3" class="node"><title>Node3</title>
<g id="a_node3"><a xlink:href="../../d4/dc4/struct_obj_cache_1_1_hash_node.html" target="_top" xlink:title="ObjCache::HashNode">
<polygon fill="white" stroke="black" points="136.5,-67.5 136.5,-86.5 249.5,-86.5 249.5,-67.5 136.5,-67.5"/>
<text text-anchor="middle" x="193" y="-74.5" font-family="Helvetica,sans-Serif" font-size="10.00">ObjCache::HashNode</text>
</a>
</g>
</g>
<!-- Node3&#45;&gt;Node1 -->
<g id="edge2" class="edge"><title>Node3&#45;&gt;Node1</title>
<path fill="none" stroke="#9a32cd" stroke-dasharray="5,2" d="M176.504,-59.9968C163.365,-47.2496 145.476,-29.8947 134.893,-19.6273"/>
<polygon fill="#9a32cd" stroke="#9a32cd" points="174.35,-62.7827 183.964,-67.2338 179.224,-57.7586 174.35,-62.7827"/>
<text text-anchor="middle" x="183" y="-41" font-family="Helvetica,sans-Serif" font-size="10.00"> m_hash</text>
</g>
</g>
</svg>
