<?xml version="1.0" encoding="UTF-8" standalone="no"?>
<!DOCTYPE svg PUBLIC "-//W3C//DTD SVG 1.1//EN"
 "http://www.w3.org/Graphics/SVG/1.1/DTD/svg11.dtd">
<!-- Generated by graphviz version 2.38.0 (20140413.2041)
 -->
<!-- Title: LayoutDocManager::Private Pages: 1 -->
<svg width="183pt" height="95pt"
 viewBox="0.00 0.00 182.50 95.00" xmlns="http://www.w3.org/2000/svg" xmlns:xlink="http://www.w3.org/1999/xlink">
<g id="graph0" class="graph" transform="scale(1 1) rotate(0) translate(4 91)">
<title>LayoutDocManager::Private</title>
<polygon fill="white" stroke="none" points="-4,4 -4,-91 178.5,-91 178.5,4 -4,4"/>
<!-- Node1 -->
<g id="node1" class="node"><title>Node1</title>
<polygon fill="#bfbfbf" stroke="black" points="0,-0.5 0,-19.5 138,-19.5 138,-0.5 0,-0.5"/>
<text text-anchor="middle" x="69" y="-7.5" font-family="Helvetica,sans-Serif" font-size="10.00">LayoutDocManager::Private</text>
</g>
<!-- Node2 -->
<g id="node2" class="node"><title>Node2</title>
<g id="a_node2"><a xlink:href="../../df/de7/struct_layout_nav_entry.html" target="_top" xlink:title="Base class for the layout of a navigation item at the top of the HTML pages. ">
<polygon fill="white" stroke="black" points="25.5,-67.5 25.5,-86.5 112.5,-86.5 112.5,-67.5 25.5,-67.5"/>
<text text-anchor="middle" x="69" y="-74.5" font-family="Helvetica,sans-Serif" font-size="10.00">LayoutNavEntry</text>
</a>
</g>
</g>
<!-- Node2&#45;&gt;Node1 -->
<g id="edge1" class="edge"><title>Node2&#45;&gt;Node1</title>
<path fill="none" stroke="#9a32cd" stroke-dasharray="5,2" d="M69,-57.037C69,-44.6703 69,-29.1198 69,-19.6273"/>
<polygon fill="#9a32cd" stroke="#9a32cd" points="65.5001,-57.2338 69,-67.2338 72.5001,-57.2338 65.5001,-57.2338"/>
<text text-anchor="middle" x="88" y="-41" font-family="Helvetica,sans-Serif" font-size="10.00"> rootNav</text>
</g>
<!-- Node2&#45;&gt;Node2 -->
<g id="edge2" class="edge"><title>Node2&#45;&gt;Node2</title>
<path fill="none" stroke="#9a32cd" stroke-dasharray="5,2" d="M122.82,-81.7144C127.543,-80.7199 130.5,-79.1484 130.5,-77 130.5,-73.5625 122.93,-71.6021 112.669,-71.1187"/>
<polygon fill="#9a32cd" stroke="#9a32cd" points="122.204,-78.2621 112.669,-82.8813 123.004,-85.2163 122.204,-78.2621"/>
<text text-anchor="middle" x="152.5" y="-74.5" font-family="Helvetica,sans-Serif" font-size="10.00"> m_parent</text>
</g>
</g>
</svg>
