<?xml version="1.0" encoding="UTF-8" standalone="no"?>
<!DOCTYPE svg PUBLIC "-//W3C//DTD SVG 1.1//EN"
 "http://www.w3.org/Graphics/SVG/1.1/DTD/svg11.dtd">
<!-- Generated by graphviz version 2.38.0 (20140413.2041)
 -->
<!-- Title: BaseOutputDocInterface Pages: 1 -->
<svg width="464pt" height="196pt"
 viewBox="0.00 0.00 463.50 196.00" xmlns="http://www.w3.org/2000/svg" xmlns:xlink="http://www.w3.org/1999/xlink">
<g id="graph0" class="graph" transform="scale(1 1) rotate(0) translate(4 192)">
<title>BaseOutputDocInterface</title>
<polygon fill="white" stroke="none" points="-4,4 -4,-192 459.5,-192 459.5,4 -4,4"/>
<!-- Node0 -->
<g id="node1" class="node"><title>Node0</title>
<polygon fill="#bfbfbf" stroke="black" points="100.5,-112.5 100.5,-131.5 225.5,-131.5 225.5,-112.5 100.5,-112.5"/>
<text text-anchor="middle" x="163" y="-119.5" font-family="Helvetica,sans-Serif" font-size="10.00">BaseOutputDocInterface</text>
</g>
<!-- Node2 -->
<g id="node3" class="node"><title>Node2</title>
<g id="a_node3"><a xlink:href="../../d2/d1a/class_output_doc_interface.html" target="_top" xlink:title="Interface used for generating documentation. ">
<polygon fill="white" stroke="black" points="18,-56.5 18,-75.5 120,-75.5 120,-56.5 18,-56.5"/>
<text text-anchor="middle" x="69" y="-63.5" font-family="Helvetica,sans-Serif" font-size="10.00">OutputDocInterface</text>
</a>
</g>
</g>
<!-- Node0&#45;&gt;Node2 -->
<g id="edge2" class="edge"><title>Node0&#45;&gt;Node2</title>
<path fill="none" stroke="midnightblue" d="M138.938,-107.177C121.641,-97.2407 98.8523,-84.1492 84.0652,-75.6545"/>
<polygon fill="midnightblue" stroke="midnightblue" points="137.483,-110.378 147.897,-112.324 140.97,-104.308 137.483,-110.378"/>
</g>
<!-- Node4 -->
<g id="node5" class="node"><title>Node4</title>
<g id="a_node5"><a xlink:href="../../d3/d8e/class_output_generator.html" target="_top" xlink:title="Abstract output generator. ">
<polygon fill="white" stroke="black" points="175.5,-56.5 175.5,-75.5 264.5,-75.5 264.5,-56.5 175.5,-56.5"/>
<text text-anchor="middle" x="220" y="-63.5" font-family="Helvetica,sans-Serif" font-size="10.00">OutputGenerator</text>
</a>
</g>
</g>
<!-- Node0&#45;&gt;Node4 -->
<g id="edge4" class="edge"><title>Node0&#45;&gt;Node4</title>
<path fill="none" stroke="midnightblue" d="M179.621,-105.253C189.734,-95.6731 202.277,-83.7906 210.675,-75.8339"/>
<polygon fill="midnightblue" stroke="midnightblue" points="177.01,-102.906 172.158,-112.324 181.825,-107.987 177.01,-102.906"/>
</g>
<!-- Node1 -->
<g id="node2" class="node"><title>Node1</title>
<g id="a_node2"><a xlink:href="../../d5/d9c/class_code_output_interface.html" target="_top" xlink:title="Output interface for code parser. ">
<polygon fill="white" stroke="black" points="109.5,-168.5 109.5,-187.5 216.5,-187.5 216.5,-168.5 109.5,-168.5"/>
<text text-anchor="middle" x="163" y="-175.5" font-family="Helvetica,sans-Serif" font-size="10.00">CodeOutputInterface</text>
</a>
</g>
</g>
<!-- Node1&#45;&gt;Node0 -->
<g id="edge1" class="edge"><title>Node1&#45;&gt;Node0</title>
<path fill="none" stroke="midnightblue" d="M163,-157.805C163,-148.91 163,-138.78 163,-131.751"/>
<polygon fill="midnightblue" stroke="midnightblue" points="159.5,-158.083 163,-168.083 166.5,-158.083 159.5,-158.083"/>
</g>
<!-- Node3 -->
<g id="node4" class="node"><title>Node3</title>
<g id="a_node4"><a xlink:href="../../df/dc8/class_output_list.html" target="_top" xlink:title="Class representing a list of output generators that are written to in parallel. ">
<polygon fill="white" stroke="black" points="0,-0.5 0,-19.5 62,-19.5 62,-0.5 0,-0.5"/>
<text text-anchor="middle" x="31" y="-7.5" font-family="Helvetica,sans-Serif" font-size="10.00">OutputList</text>
</a>
</g>
</g>
<!-- Node2&#45;&gt;Node3 -->
<g id="edge3" class="edge"><title>Node2&#45;&gt;Node3</title>
<path fill="none" stroke="midnightblue" d="M56.9353,-47.8554C50.3553,-38.5048 42.489,-27.3265 37.1582,-19.7511"/>
<polygon fill="midnightblue" stroke="midnightblue" points="54.1078,-49.9192 62.7251,-56.083 59.8324,-45.8907 54.1078,-49.9192"/>
</g>
<!-- Node5 -->
<g id="node6" class="node"><title>Node5</title>
<g id="a_node6"><a xlink:href="../../d7/d41/class_html_generator.html" target="_top" xlink:title="Generator for HTML output. ">
<polygon fill="white" stroke="black" points="80,-0.5 80,-19.5 160,-19.5 160,-0.5 80,-0.5"/>
<text text-anchor="middle" x="120" y="-7.5" font-family="Helvetica,sans-Serif" font-size="10.00">HtmlGenerator</text>
</a>
</g>
</g>
<!-- Node4&#45;&gt;Node5 -->
<g id="edge5" class="edge"><title>Node4&#45;&gt;Node5</title>
<path fill="none" stroke="midnightblue" d="M194.912,-51.4526C176.451,-41.4835 151.903,-28.2279 136.027,-19.6545"/>
<polygon fill="midnightblue" stroke="midnightblue" points="193.471,-54.6521 203.933,-56.324 196.797,-48.4928 193.471,-54.6521"/>
</g>
<!-- Node6 -->
<g id="node7" class="node"><title>Node6</title>
<g id="a_node7"><a xlink:href="../../d3/d77/class_latex_generator.html" target="_top" xlink:title="Generator for LaTeX output. ">
<polygon fill="white" stroke="black" points="178.5,-0.5 178.5,-19.5 261.5,-19.5 261.5,-0.5 178.5,-0.5"/>
<text text-anchor="middle" x="220" y="-7.5" font-family="Helvetica,sans-Serif" font-size="10.00">LatexGenerator</text>
</a>
</g>
</g>
<!-- Node4&#45;&gt;Node6 -->
<g id="edge6" class="edge"><title>Node4&#45;&gt;Node6</title>
<path fill="none" stroke="midnightblue" d="M220,-45.8045C220,-36.9102 220,-26.7798 220,-19.7511"/>
<polygon fill="midnightblue" stroke="midnightblue" points="216.5,-46.083 220,-56.083 223.5,-46.083 216.5,-46.083"/>
</g>
<!-- Node7 -->
<g id="node8" class="node"><title>Node7</title>
<g id="a_node8"><a xlink:href="../../de/da5/class_man_generator.html" target="_top" xlink:title="Generator for Man page output. ">
<polygon fill="white" stroke="black" points="280,-0.5 280,-19.5 358,-19.5 358,-0.5 280,-0.5"/>
<text text-anchor="middle" x="319" y="-7.5" font-family="Helvetica,sans-Serif" font-size="10.00">ManGenerator</text>
</a>
</g>
</g>
<!-- Node4&#45;&gt;Node7 -->
<g id="edge7" class="edge"><title>Node4&#45;&gt;Node7</title>
<path fill="none" stroke="midnightblue" d="M244.837,-51.4526C263.114,-41.4835 287.416,-28.2279 303.133,-19.6545"/>
<polygon fill="midnightblue" stroke="midnightblue" points="243.009,-48.4628 235.906,-56.324 246.361,-54.608 243.009,-48.4628"/>
</g>
<!-- Node8 -->
<g id="node9" class="node"><title>Node8</title>
<g id="a_node9"><a xlink:href="../../d0/da4/class_r_t_f_generator.html" target="_top" xlink:title="Generator for RTF output. ">
<polygon fill="white" stroke="black" points="376.5,-0.5 376.5,-19.5 455.5,-19.5 455.5,-0.5 376.5,-0.5"/>
<text text-anchor="middle" x="416" y="-7.5" font-family="Helvetica,sans-Serif" font-size="10.00">RTFGenerator</text>
</a>
</g>
</g>
<!-- Node4&#45;&gt;Node8 -->
<g id="edge8" class="edge"><title>Node4&#45;&gt;Node8</title>
<path fill="none" stroke="midnightblue" d="M261.02,-53.6986C298.011,-43.507 351.6,-28.7429 385.089,-19.5164"/>
<polygon fill="midnightblue" stroke="midnightblue" points="259.768,-50.4131 251.057,-56.4435 261.627,-57.1616 259.768,-50.4131"/>
</g>
</g>
</svg>
