<?xml version="1.0" encoding="UTF-8" standalone="no"?>
<!DOCTYPE svg PUBLIC "-//W3C//DTD SVG 1.1//EN"
 "http://www.w3.org/Graphics/SVG/1.1/DTD/svg11.dtd">
<!-- Generated by graphviz version 2.38.0 (20140413.2041)
 -->
<!-- Title: TemplateStructIntf Pages: 1 -->
<!--zoomable 1472 -->
<svg id="main" version="1.1" xmlns="http://www.w3.org/2000/svg" xmlns:xlink="http://www.w3.org/1999/xlink" xml:space="preserve" onload="init(evt)">
<style type="text/css"><![CDATA[
.edge:hover path { stroke: red; }
.edge:hover polygon { stroke: red; fill: red; }
]]></style>
<script type="text/javascript"><![CDATA[
var edges = document.getElementsByTagName('g');
if (edges && edges.length) {
  for (var i=0;i<edges.length;i++) {
    if (edges[i].id.substr(0,4)=='edge') {
      edges[i].setAttribute('class','edge');
    }
  }
}
]]></script>
        <defs>
                <circle id="rim" cx="0" cy="0" r="7"/>
                <circle id="rim2" cx="0" cy="0" r="3.5"/>
                <g id="zoomPlus">
                        <use xlink:href="#rim" fill="#404040">
                                <set attributeName="fill" to="#808080" begin="zoomplus.mouseover" end="zoomplus.mouseout"/>
                        </use>
                        <path d="M-4,0h8M0,-4v8" fill="none" stroke="white" stroke-width="1.5" pointer-events="none"/>
                </g>
                <g id="zoomMin">
                        <use xlink:href="#rim" fill="#404040">
                                <set attributeName="fill" to="#808080" begin="zoomminus.mouseover" end="zoomminus.mouseout"/>
                        </use>
                        <path d="M-4,0h8" fill="none" stroke="white" stroke-width="1.5" pointer-events="none"/>
                </g>
                <g id="dirArrow">
                        <path fill="none" stroke="white" stroke-width="1.5" d="M0,-3.0v7 M-2.5,-0.5L0,-3.0L2.5,-0.5"/>
                </g>
               <g id="resetDef">
                       <use xlink:href="#rim2" fill="#404040">
                               <set attributeName="fill" to="#808080" begin="reset.mouseover" end="reset.mouseout"/>
                       </use>
               </g>
        </defs>

<script type="text/javascript">
var viewWidth = 310;
var viewHeight = 1472;
var sectionId = 'dynsection-0';
</script>
<script xlink:href="../../svgpan.js"/>
<svg id="graph" class="graph">
<g id="viewport">
<title>TemplateStructIntf</title>
<polygon fill="white" stroke="none" points="-4,4 -4,-1468 306,-1468 306,4 -4,4"/>
<!-- Node0 -->
<g id="node1" class="node"><title>Node0</title>
<polygon fill="#bfbfbf" stroke="black" points="0,-722.5 0,-741.5 98,-741.5 98,-722.5 0,-722.5"/>
<text text-anchor="middle" x="49" y="-729.5" font-family="Helvetica,sans-Serif" font-size="10.00">TemplateStructIntf</text>
</g>
<!-- Node1 -->
<g id="node2" class="node"><title>Node1</title>
<g id="a_node2"><a xlink:href="../../d4/d24/class_argument_context.html" target="_top" xlink:title="ArgumentContext">
<polygon fill="white" stroke="black" points="171.5,-1444.5 171.5,-1463.5 264.5,-1463.5 264.5,-1444.5 171.5,-1444.5"/>
<text text-anchor="middle" x="218" y="-1451.5" font-family="Helvetica,sans-Serif" font-size="10.00">ArgumentContext</text>
</a>
</g>
</g>
<!-- Node0&#45;&gt;Node1 -->
<g id="edge1" class="edge"><title>Node0&#45;&gt;Node1</title>
<path fill="none" stroke="midnightblue" d="M51.0245,-751.849C56.8202,-860.746 86.9189,-1382.64 134,-1435 143.488,-1445.55 157.532,-1450.86 171.381,-1453.38"/>
<polygon fill="midnightblue" stroke="midnightblue" points="54.5077,-751.436 50.4881,-741.633 47.5174,-751.803 54.5077,-751.436"/>
</g>
<!-- Node2 -->
<g id="node3" class="node"><title>Node2</title>
<g id="a_node3"><a xlink:href="../../dc/d38/class_class_context.html" target="_top" xlink:title="ClassContext">
<polygon fill="white" stroke="black" points="179.5,-1406.5 179.5,-1425.5 256.5,-1425.5 256.5,-1406.5 179.5,-1406.5"/>
<text text-anchor="middle" x="218" y="-1413.5" font-family="Helvetica,sans-Serif" font-size="10.00">ClassContext</text>
</a>
</g>
</g>
<!-- Node0&#45;&gt;Node2 -->
<g id="edge2" class="edge"><title>Node0&#45;&gt;Node2</title>
<path fill="none" stroke="midnightblue" d="M49.5774,-751.883C47.8713,-851.9 45.3562,-1299.08 134,-1397 145.31,-1409.49 163.006,-1414.63 179.158,-1416.48"/>
<polygon fill="midnightblue" stroke="midnightblue" points="53.0806,-751.743 49.7706,-741.678 46.0819,-751.61 53.0806,-751.743"/>
</g>
<!-- Node3 -->
<g id="node4" class="node"><title>Node3</title>
<g id="a_node4"><a xlink:href="../../de/d04/class_class_hierarchy_context.html" target="_top" xlink:title="ClassHierarchyContext">
<polygon fill="white" stroke="black" points="158.5,-1368.5 158.5,-1387.5 277.5,-1387.5 277.5,-1368.5 158.5,-1368.5"/>
<text text-anchor="middle" x="218" y="-1375.5" font-family="Helvetica,sans-Serif" font-size="10.00">ClassHierarchyContext</text>
</a>
</g>
</g>
<!-- Node0&#45;&gt;Node3 -->
<g id="edge3" class="edge"><title>Node0&#45;&gt;Node3</title>
<path fill="none" stroke="midnightblue" d="M49.748,-751.651C48.9287,-847.738 50.2555,-1267.19 134,-1359 140.475,-1366.1 149.013,-1370.82 158.149,-1373.91"/>
<polygon fill="midnightblue" stroke="midnightblue" points="53.2485,-751.616 49.8532,-741.58 46.2488,-751.543 53.2485,-751.616"/>
</g>
<!-- Node4 -->
<g id="node5" class="node"><title>Node4</title>
<g id="a_node5"><a xlink:href="../../dc/dfb/class_class_index_context.html" target="_top" xlink:title="ClassIndexContext">
<polygon fill="white" stroke="black" points="167.5,-1330.5 167.5,-1349.5 268.5,-1349.5 268.5,-1330.5 167.5,-1330.5"/>
<text text-anchor="middle" x="218" y="-1337.5" font-family="Helvetica,sans-Serif" font-size="10.00">ClassIndexContext</text>
</a>
</g>
</g>
<!-- Node0&#45;&gt;Node4 -->
<g id="edge4" class="edge"><title>Node0&#45;&gt;Node4</title>
<path fill="none" stroke="midnightblue" d="M49.9359,-751.919C50.0534,-844.915 55.2892,-1235.44 134,-1321 142.607,-1330.36 154.798,-1335.57 167.194,-1338.37"/>
<polygon fill="midnightblue" stroke="midnightblue" points="53.4358,-751.882 49.9429,-741.879 46.4358,-751.877 53.4358,-751.882"/>
</g>
<!-- Node5 -->
<g id="node6" class="node"><title>Node5</title>
<g id="a_node6"><a xlink:href="../../dc/da3/class_class_inheritance_node_context.html" target="_top" xlink:title="ClassInheritanceNodeContext">
<polygon fill="white" stroke="black" points="144,-1292.5 144,-1311.5 292,-1311.5 292,-1292.5 144,-1292.5"/>
<text text-anchor="middle" x="218" y="-1299.5" font-family="Helvetica,sans-Serif" font-size="10.00">ClassInheritanceNodeContext</text>
</a>
</g>
</g>
<!-- Node0&#45;&gt;Node5 -->
<g id="edge5" class="edge"><title>Node0&#45;&gt;Node5</title>
<path fill="none" stroke="midnightblue" d="M50.1495,-751.746C51.2345,-840.726 60.1863,-1203.53 134,-1283 137.521,-1286.79 141.631,-1289.9 146.102,-1292.44"/>
<polygon fill="midnightblue" stroke="midnightblue" points="53.6486,-751.635 50.0474,-741.671 46.649,-751.706 53.6486,-751.635"/>
</g>
<!-- Node6 -->
<g id="node7" class="node"><title>Node6</title>
<g id="a_node7"><a xlink:href="../../d1/d32/class_class_members_index_context.html" target="_top" xlink:title="ClassMembersIndexContext">
<polygon fill="white" stroke="black" points="147.5,-1254.5 147.5,-1273.5 288.5,-1273.5 288.5,-1254.5 147.5,-1254.5"/>
<text text-anchor="middle" x="218" y="-1261.5" font-family="Helvetica,sans-Serif" font-size="10.00">ClassMembersIndexContext</text>
</a>
</g>
</g>
<!-- Node0&#45;&gt;Node6 -->
<g id="edge6" class="edge"><title>Node0&#45;&gt;Node6</title>
<path fill="none" stroke="midnightblue" d="M50.4003,-751.994C52.5275,-837.541 65.1864,-1171.73 134,-1245 137.846,-1249.09 142.378,-1252.39 147.309,-1255.04"/>
<polygon fill="midnightblue" stroke="midnightblue" points="53.8956,-751.741 50.1693,-741.823 46.8974,-751.9 53.8956,-751.741"/>
</g>
<!-- Node7 -->
<g id="node8" class="node"><title>Node7</title>
<g id="a_node8"><a xlink:href="../../dc/d6f/class_class_tree_context.html" target="_top" xlink:title="ClassTreeContext">
<polygon fill="white" stroke="black" points="170,-1216.5 170,-1235.5 266,-1235.5 266,-1216.5 170,-1216.5"/>
<text text-anchor="middle" x="218" y="-1223.5" font-family="Helvetica,sans-Serif" font-size="10.00">ClassTreeContext</text>
</a>
</g>
</g>
<!-- Node0&#45;&gt;Node7 -->
<g id="edge7" class="edge"><title>Node0&#45;&gt;Node7</title>
<path fill="none" stroke="midnightblue" d="M50.6991,-752.309C53.941,-834.325 70.186,-1139.91 134,-1207 143.373,-1216.85 156.729,-1222.08 169.994,-1224.73"/>
<polygon fill="midnightblue" stroke="midnightblue" points="54.1808,-751.749 50.3111,-741.886 47.1856,-752.009 54.1808,-751.749"/>
</g>
<!-- Node8 -->
<g id="node9" class="node"><title>Node8</title>
<g id="a_node9"><a xlink:href="../../d0/dd1/class_config_context.html" target="_top" xlink:title="ConfigContext">
<polygon fill="white" stroke="black" points="178,-1178.5 178,-1197.5 258,-1197.5 258,-1178.5 178,-1178.5"/>
<text text-anchor="middle" x="218" y="-1185.5" font-family="Helvetica,sans-Serif" font-size="10.00">ConfigContext</text>
</a>
</g>
</g>
<!-- Node0&#45;&gt;Node8 -->
<g id="edge8" class="edge"><title>Node0&#45;&gt;Node8</title>
<path fill="none" stroke="midnightblue" d="M51.031,-752.163C55.4124,-829.777 75.048,-1107.94 134,-1169 145.294,-1180.7 162.207,-1185.85 177.824,-1187.92"/>
<polygon fill="midnightblue" stroke="midnightblue" points="54.5084,-751.649 50.4736,-741.852 47.5186,-752.026 54.5084,-751.649"/>
</g>
<!-- Node9 -->
<g id="node10" class="node"><title>Node9</title>
<g id="a_node10"><a xlink:href="../../d5/dca/class_dir_context.html" target="_top" xlink:title="DirContext">
<polygon fill="white" stroke="black" points="186,-1140.5 186,-1159.5 250,-1159.5 250,-1140.5 186,-1140.5"/>
<text text-anchor="middle" x="218" y="-1147.5" font-family="Helvetica,sans-Serif" font-size="10.00">DirContext</text>
</a>
</g>
</g>
<!-- Node0&#45;&gt;Node9 -->
<g id="edge9" class="edge"><title>Node0&#45;&gt;Node9</title>
<path fill="none" stroke="midnightblue" d="M51.4037,-751.805C56.9645,-824.586 79.8406,-1075.88 134,-1131 147.365,-1144.6 168.336,-1149.32 185.854,-1150.65"/>
<polygon fill="midnightblue" stroke="midnightblue" points="54.8855,-751.429 50.6578,-741.714 47.9046,-751.945 54.8855,-751.429"/>
</g>
<!-- Node10 -->
<g id="node11" class="node"><title>Node10</title>
<g id="a_node11"><a xlink:href="../../de/d68/class_doxygen_context.html" target="_top" xlink:title="DoxygenContext">
<polygon fill="white" stroke="black" points="173,-1102.5 173,-1121.5 263,-1121.5 263,-1102.5 173,-1102.5"/>
<text text-anchor="middle" x="218" y="-1109.5" font-family="Helvetica,sans-Serif" font-size="10.00">DoxygenContext</text>
</a>
</g>
</g>
<!-- Node0&#45;&gt;Node10 -->
<g id="edge10" class="edge"><title>Node0&#45;&gt;Node10</title>
<path fill="none" stroke="midnightblue" d="M51.9055,-752.09C58.8143,-820.662 84.7703,-1043.95 134,-1093 144.262,-1103.23 158.83,-1108.41 172.904,-1110.91"/>
<polygon fill="midnightblue" stroke="midnightblue" points="55.3563,-751.416 50.8968,-741.806 48.3897,-752.1 55.3563,-751.416"/>
</g>
<!-- Node11 -->
<g id="node12" class="node"><title>Node11</title>
<g id="a_node12"><a xlink:href="../../d5/d67/class_example_tree_context.html" target="_top" xlink:title="ExampleTreeContext">
<polygon fill="white" stroke="black" points="163.5,-1064.5 163.5,-1083.5 272.5,-1083.5 272.5,-1064.5 163.5,-1064.5"/>
<text text-anchor="middle" x="218" y="-1071.5" font-family="Helvetica,sans-Serif" font-size="10.00">ExampleTreeContext</text>
</a>
</g>
</g>
<!-- Node0&#45;&gt;Node11 -->
<g id="edge11" class="edge"><title>Node0&#45;&gt;Node11</title>
<path fill="none" stroke="midnightblue" d="M52.4844,-752.01C60.7881,-815.671 89.5842,-1011.87 134,-1055 141.954,-1062.72 152.371,-1067.55 163.126,-1070.52"/>
<polygon fill="midnightblue" stroke="midnightblue" points="55.9107,-751.209 51.1733,-741.732 48.9669,-752.095 55.9107,-751.209"/>
</g>
<!-- Node12 -->
<g id="node13" class="node"><title>Node12</title>
<g id="a_node13"><a xlink:href="../../d3/db7/class_file_context.html" target="_top" xlink:title="FileContext">
<polygon fill="white" stroke="black" points="184.5,-1026.5 184.5,-1045.5 251.5,-1045.5 251.5,-1026.5 184.5,-1026.5"/>
<text text-anchor="middle" x="218" y="-1033.5" font-family="Helvetica,sans-Serif" font-size="10.00">FileContext</text>
</a>
</g>
</g>
<!-- Node0&#45;&gt;Node12 -->
<g id="edge12" class="edge"><title>Node0&#45;&gt;Node12</title>
<path fill="none" stroke="midnightblue" d="M49.5026,-751.744C49.3403,-803.491 56.4369,-944.072 134,-1017 147.354,-1029.56 167.245,-1034.41 184.207,-1036.07"/>
<polygon fill="midnightblue" stroke="midnightblue" points="53.0042,-751.641 49.6366,-741.595 46.0048,-751.548 53.0042,-751.641"/>
</g>
<!-- Node13 -->
<g id="node14" class="node"><title>Node13</title>
<g id="a_node14"><a xlink:href="../../d6/dfa/class_file_tree_context.html" target="_top" xlink:title="FileTreeContext">
<polygon fill="white" stroke="black" points="175,-988.5 175,-1007.5 261,-1007.5 261,-988.5 175,-988.5"/>
<text text-anchor="middle" x="218" y="-995.5" font-family="Helvetica,sans-Serif" font-size="10.00">FileTreeContext</text>
</a>
</g>
</g>
<!-- Node0&#45;&gt;Node13 -->
<g id="edge13" class="edge"><title>Node0&#45;&gt;Node13</title>
<path fill="none" stroke="midnightblue" d="M50.5397,-751.609C52.9407,-798.442 65.8042,-917.476 134,-979 145.086,-989.001 160.343,-994.068 174.756,-996.538"/>
<polygon fill="midnightblue" stroke="midnightblue" points="54.035,-751.421 50.134,-741.57 47.0407,-751.703 54.035,-751.421"/>
</g>
<!-- Node14 -->
<g id="node15" class="node"><title>Node14</title>
<g id="a_node15"><a xlink:href="../../da/dba/class_globals_index_context.html" target="_top" xlink:title="GlobalsIndexContext">
<polygon fill="white" stroke="black" points="164,-950.5 164,-969.5 272,-969.5 272,-950.5 164,-950.5"/>
<text text-anchor="middle" x="218" y="-957.5" font-family="Helvetica,sans-Serif" font-size="10.00">GlobalsIndexContext</text>
</a>
</g>
</g>
<!-- Node0&#45;&gt;Node14 -->
<g id="edge14" class="edge"><title>Node0&#45;&gt;Node14</title>
<path fill="none" stroke="midnightblue" d="M51.9257,-751.668C57.097,-793.328 75.1632,-890.751 134,-941 142.431,-948.2 153.045,-952.812 163.841,-955.735"/>
<polygon fill="midnightblue" stroke="midnightblue" points="55.4,-751.243 50.807,-741.695 48.4437,-752.023 55.4,-751.243"/>
</g>
<!-- Node15 -->
<g id="node16" class="node"><title>Node15</title>
<g id="a_node16"><a xlink:href="../../d2/dfe/class_include_info_context.html" target="_top" xlink:title="IncludeInfoContext">
<polygon fill="white" stroke="black" points="168.5,-912.5 168.5,-931.5 267.5,-931.5 267.5,-912.5 168.5,-912.5"/>
<text text-anchor="middle" x="218" y="-919.5" font-family="Helvetica,sans-Serif" font-size="10.00">IncludeInfoContext</text>
</a>
</g>
</g>
<!-- Node0&#45;&gt;Node15 -->
<g id="edge15" class="edge"><title>Node0&#45;&gt;Node15</title>
<path fill="none" stroke="midnightblue" d="M53.8781,-751.723C62.0178,-787.664 84.3898,-863.727 134,-903 143.736,-910.707 156.019,-915.402 168.129,-918.232"/>
<polygon fill="midnightblue" stroke="midnightblue" points="57.221,-750.615 51.7189,-741.561 50.3738,-752.07 57.221,-750.615"/>
</g>
<!-- Node16 -->
<g id="node17" class="node"><title>Node16</title>
<g id="a_node17"><a xlink:href="../../d2/d30/class_inheritance_graph_context.html" target="_top" xlink:title="InheritanceGraphContext">
<polygon fill="white" stroke="black" points="155.5,-874.5 155.5,-893.5 280.5,-893.5 280.5,-874.5 155.5,-874.5"/>
<text text-anchor="middle" x="218" y="-881.5" font-family="Helvetica,sans-Serif" font-size="10.00">InheritanceGraphContext</text>
</a>
</g>
</g>
<!-- Node0&#45;&gt;Node16 -->
<g id="edge16" class="edge"><title>Node0&#45;&gt;Node16</title>
<path fill="none" stroke="midnightblue" d="M56.5613,-751.005C67.6864,-780.278 93.1118,-836.04 134,-865 140.393,-869.528 147.697,-872.996 155.26,-875.648"/>
<polygon fill="midnightblue" stroke="midnightblue" points="59.8171,-749.717 53.1074,-741.518 53.2394,-752.112 59.8171,-749.717"/>
</g>
<!-- Node17 -->
<g id="node18" class="node"><title>Node17</title>
<g id="a_node18"><a xlink:href="../../d6/d29/class_inheritance_node_context.html" target="_top" xlink:title="InheritanceNodeContext">
<polygon fill="white" stroke="black" points="157,-836.5 157,-855.5 279,-855.5 279,-836.5 157,-836.5"/>
<text text-anchor="middle" x="218" y="-843.5" font-family="Helvetica,sans-Serif" font-size="10.00">InheritanceNodeContext</text>
</a>
</g>
</g>
<!-- Node0&#45;&gt;Node17 -->
<g id="edge17" class="edge"><title>Node0&#45;&gt;Node17</title>
<path fill="none" stroke="midnightblue" d="M60.9923,-750.208C75.1082,-771.959 101.681,-807.807 134,-827 140.991,-831.152 148.808,-834.396 156.775,-836.932"/>
<polygon fill="midnightblue" stroke="midnightblue" points="63.8518,-748.181 55.5657,-741.578 57.9259,-751.907 63.8518,-748.181"/>
</g>
<!-- Node18 -->
<g id="node19" class="node"><title>Node18</title>
<g id="a_node19"><a xlink:href="../../d7/dd6/class_inherited_member_info_context.html" target="_top" xlink:title="InheritedMemberInfoContext">
<polygon fill="white" stroke="black" points="148,-798.5 148,-817.5 288,-817.5 288,-798.5 148,-798.5"/>
<text text-anchor="middle" x="218" y="-805.5" font-family="Helvetica,sans-Serif" font-size="10.00">InheritedMemberInfoContext</text>
</a>
</g>
</g>
<!-- Node0&#45;&gt;Node18 -->
<g id="edge18" class="edge"><title>Node0&#45;&gt;Node18</title>
<path fill="none" stroke="midnightblue" d="M69.3025,-748.185C85.582,-761.046 110.004,-778.553 134,-789 142.81,-792.836 152.497,-795.948 162.048,-798.458"/>
<polygon fill="midnightblue" stroke="midnightblue" points="71.1269,-745.159 61.1505,-741.593 66.7252,-750.602 71.1269,-745.159"/>
</g>
<!-- Node19 -->
<g id="node20" class="node"><title>Node19</title>
<g id="a_node20"><a xlink:href="../../d5/d43/class_member_context.html" target="_top" xlink:title="MemberContext">
<polygon fill="white" stroke="black" points="175,-760.5 175,-779.5 261,-779.5 261,-760.5 175,-760.5"/>
<text text-anchor="middle" x="218" y="-767.5" font-family="Helvetica,sans-Serif" font-size="10.00">MemberContext</text>
</a>
</g>
</g>
<!-- Node0&#45;&gt;Node19 -->
<g id="edge19" class="edge"><title>Node0&#45;&gt;Node19</title>
<path fill="none" stroke="midnightblue" d="M101.965,-743.824C125.509,-749.182 152.974,-755.431 175.162,-760.48"/>
<polygon fill="midnightblue" stroke="midnightblue" points="102.668,-740.395 92.1412,-741.589 101.115,-747.221 102.668,-740.395"/>
</g>
<!-- Node20 -->
<g id="node21" class="node"><title>Node20</title>
<g id="a_node21"><a xlink:href="../../d1/d7e/class_member_group_info_context.html" target="_top" xlink:title="MemberGroupInfoContext">
<polygon fill="white" stroke="black" points="153.5,-722.5 153.5,-741.5 282.5,-741.5 282.5,-722.5 153.5,-722.5"/>
<text text-anchor="middle" x="218" y="-729.5" font-family="Helvetica,sans-Serif" font-size="10.00">MemberGroupInfoContext</text>
</a>
</g>
</g>
<!-- Node0&#45;&gt;Node20 -->
<g id="edge20" class="edge"><title>Node0&#45;&gt;Node20</title>
<path fill="none" stroke="midnightblue" d="M108.6,-732C123.044,-732 138.583,-732 153.258,-732"/>
<polygon fill="midnightblue" stroke="midnightblue" points="108.303,-728.5 98.3033,-732 108.303,-735.5 108.303,-728.5"/>
</g>
<!-- Node21 -->
<g id="node22" class="node"><title>Node21</title>
<g id="a_node22"><a xlink:href="../../d4/d22/class_member_info_context.html" target="_top" xlink:title="MemberInfoContext">
<polygon fill="white" stroke="black" points="166.5,-684.5 166.5,-703.5 269.5,-703.5 269.5,-684.5 166.5,-684.5"/>
<text text-anchor="middle" x="218" y="-691.5" font-family="Helvetica,sans-Serif" font-size="10.00">MemberInfoContext</text>
</a>
</g>
</g>
<!-- Node0&#45;&gt;Node21 -->
<g id="edge21" class="edge"><title>Node0&#45;&gt;Node21</title>
<path fill="none" stroke="midnightblue" d="M101.965,-720.176C125.509,-714.818 152.974,-708.569 175.162,-703.52"/>
<polygon fill="midnightblue" stroke="midnightblue" points="101.115,-716.779 92.1412,-722.411 102.668,-723.605 101.115,-716.779"/>
</g>
<!-- Node22 -->
<g id="node23" class="node"><title>Node22</title>
<g id="a_node23"><a xlink:href="../../d8/df1/class_member_list_info_context.html" target="_top" xlink:title="MemberListInfoContext">
<polygon fill="white" stroke="black" points="158.5,-646.5 158.5,-665.5 277.5,-665.5 277.5,-646.5 158.5,-646.5"/>
<text text-anchor="middle" x="218" y="-653.5" font-family="Helvetica,sans-Serif" font-size="10.00">MemberListInfoContext</text>
</a>
</g>
</g>
<!-- Node0&#45;&gt;Node22 -->
<g id="edge22" class="edge"><title>Node0&#45;&gt;Node22</title>
<path fill="none" stroke="midnightblue" d="M69.3025,-715.815C85.582,-702.954 110.004,-685.447 134,-675 142.81,-671.164 152.497,-668.052 162.048,-665.542"/>
<polygon fill="midnightblue" stroke="midnightblue" points="66.7252,-713.398 61.1505,-722.407 71.1269,-718.841 66.7252,-713.398"/>
</g>
<!-- Node23 -->
<g id="node24" class="node"><title>Node23</title>
<g id="a_node24"><a xlink:href="../../d2/d73/class_module_context.html" target="_top" xlink:title="ModuleContext">
<polygon fill="white" stroke="black" points="176.5,-608.5 176.5,-627.5 259.5,-627.5 259.5,-608.5 176.5,-608.5"/>
<text text-anchor="middle" x="218" y="-615.5" font-family="Helvetica,sans-Serif" font-size="10.00">ModuleContext</text>
</a>
</g>
</g>
<!-- Node0&#45;&gt;Node23 -->
<g id="edge23" class="edge"><title>Node0&#45;&gt;Node23</title>
<path fill="none" stroke="midnightblue" d="M60.9923,-713.792C75.1082,-692.041 101.681,-656.193 134,-637 146.71,-629.452 162.155,-624.901 176.259,-622.159"/>
<polygon fill="midnightblue" stroke="midnightblue" points="57.9259,-712.093 55.5657,-722.422 63.8518,-715.819 57.9259,-712.093"/>
</g>
<!-- Node24 -->
<g id="node25" class="node"><title>Node24</title>
<g id="a_node25"><a xlink:href="../../dc/d32/class_module_node_context.html" target="_top" xlink:title="ModuleNodeContext">
<polygon fill="white" stroke="black" points="165,-570.5 165,-589.5 271,-589.5 271,-570.5 165,-570.5"/>
<text text-anchor="middle" x="218" y="-577.5" font-family="Helvetica,sans-Serif" font-size="10.00">ModuleNodeContext</text>
</a>
</g>
</g>
<!-- Node0&#45;&gt;Node24 -->
<g id="edge24" class="edge"><title>Node0&#45;&gt;Node24</title>
<path fill="none" stroke="midnightblue" d="M56.5613,-712.995C67.6864,-683.722 93.1118,-627.96 134,-599 143.047,-592.592 153.918,-588.308 164.766,-585.453"/>
<polygon fill="midnightblue" stroke="midnightblue" points="53.2394,-711.888 53.1074,-722.482 59.8171,-714.283 53.2394,-711.888"/>
</g>
<!-- Node25 -->
<g id="node26" class="node"><title>Node25</title>
<g id="a_node26"><a xlink:href="../../d3/d7a/class_module_tree_context.html" target="_top" xlink:title="ModuleTreeContext">
<polygon fill="white" stroke="black" points="167,-532.5 167,-551.5 269,-551.5 269,-532.5 167,-532.5"/>
<text text-anchor="middle" x="218" y="-539.5" font-family="Helvetica,sans-Serif" font-size="10.00">ModuleTreeContext</text>
</a>
</g>
</g>
<!-- Node0&#45;&gt;Node25 -->
<g id="edge25" class="edge"><title>Node0&#45;&gt;Node25</title>
<path fill="none" stroke="midnightblue" d="M53.8781,-712.277C62.0178,-676.336 84.3898,-600.273 134,-561 143.388,-553.568 155.145,-548.937 166.831,-546.078"/>
<polygon fill="midnightblue" stroke="midnightblue" points="50.3738,-711.93 51.7189,-722.439 57.221,-713.385 50.3738,-711.93"/>
</g>
<!-- Node26 -->
<g id="node27" class="node"><title>Node26</title>
<g id="a_node27"><a xlink:href="../../de/d00/class_namespace_context.html" target="_top" xlink:title="NamespaceContext">
<polygon fill="white" stroke="black" points="166,-494.5 166,-513.5 270,-513.5 270,-494.5 166,-494.5"/>
<text text-anchor="middle" x="218" y="-501.5" font-family="Helvetica,sans-Serif" font-size="10.00">NamespaceContext</text>
</a>
</g>
</g>
<!-- Node0&#45;&gt;Node26 -->
<g id="edge26" class="edge"><title>Node0&#45;&gt;Node26</title>
<path fill="none" stroke="midnightblue" d="M51.9257,-712.332C57.097,-670.672 75.1632,-573.249 134,-523 142.88,-515.416 154.184,-510.703 165.569,-507.812"/>
<polygon fill="midnightblue" stroke="midnightblue" points="48.4437,-711.977 50.807,-722.305 55.4,-712.757 48.4437,-711.977"/>
</g>
<!-- Node27 -->
<g id="node28" class="node"><title>Node27</title>
<g id="a_node28"><a xlink:href="../../d2/d4a/class_namespace_members_index_context.html" target="_top" xlink:title="NamespaceMembersIndexContext">
<polygon fill="white" stroke="black" points="134,-456.5 134,-475.5 302,-475.5 302,-456.5 134,-456.5"/>
<text text-anchor="middle" x="218" y="-463.5" font-family="Helvetica,sans-Serif" font-size="10.00">NamespaceMembersIndexContext</text>
</a>
</g>
</g>
<!-- Node0&#45;&gt;Node27 -->
<g id="edge27" class="edge"><title>Node0&#45;&gt;Node27</title>
<path fill="none" stroke="midnightblue" d="M50.5397,-712.391C52.9407,-665.558 65.8042,-546.524 134,-485 138.171,-481.237 142.932,-478.173 148.017,-475.683"/>
<polygon fill="midnightblue" stroke="midnightblue" points="47.0407,-712.297 50.134,-722.43 54.035,-712.579 47.0407,-712.297"/>
</g>
<!-- Node28 -->
<g id="node29" class="node"><title>Node28</title>
<g id="a_node29"><a xlink:href="../../d8/dd0/class_namespace_tree_context.html" target="_top" xlink:title="NamespaceTreeContext">
<polygon fill="white" stroke="black" points="156.5,-418.5 156.5,-437.5 279.5,-437.5 279.5,-418.5 156.5,-418.5"/>
<text text-anchor="middle" x="218" y="-425.5" font-family="Helvetica,sans-Serif" font-size="10.00">NamespaceTreeContext</text>
</a>
</g>
</g>
<!-- Node0&#45;&gt;Node28 -->
<g id="edge28" class="edge"><title>Node0&#45;&gt;Node28</title>
<path fill="none" stroke="midnightblue" d="M49.5026,-712.256C49.3403,-660.509 56.4369,-519.928 134,-447 140.354,-441.026 148.188,-436.796 156.482,-433.824"/>
<polygon fill="midnightblue" stroke="midnightblue" points="46.0048,-712.452 49.6366,-722.405 53.0042,-712.359 46.0048,-712.452"/>
</g>
<!-- Node29 -->
<g id="node30" class="node"><title>Node29</title>
<g id="a_node30"><a xlink:href="../../df/d82/class_nav_path_elem_context.html" target="_top" xlink:title="NavPathElemContext">
<polygon fill="white" stroke="black" points="162,-380.5 162,-399.5 274,-399.5 274,-380.5 162,-380.5"/>
<text text-anchor="middle" x="218" y="-387.5" font-family="Helvetica,sans-Serif" font-size="10.00">NavPathElemContext</text>
</a>
</g>
</g>
<!-- Node0&#45;&gt;Node29 -->
<g id="edge29" class="edge"><title>Node0&#45;&gt;Node29</title>
<path fill="none" stroke="midnightblue" d="M52.4844,-711.99C60.7881,-648.329 89.5842,-452.129 134,-409 141.636,-401.585 151.542,-396.839 161.837,-393.845"/>
<polygon fill="midnightblue" stroke="midnightblue" points="48.9669,-711.905 51.1733,-722.268 55.9107,-712.791 48.9669,-711.905"/>
</g>
<!-- Node30 -->
<g id="node31" class="node"><title>Node30</title>
<g id="a_node31"><a xlink:href="../../db/dc9/class_nesting_node_context.html" target="_top" xlink:title="NestingNodeContext">
<polygon fill="white" stroke="black" points="164,-342.5 164,-361.5 272,-361.5 272,-342.5 164,-342.5"/>
<text text-anchor="middle" x="218" y="-349.5" font-family="Helvetica,sans-Serif" font-size="10.00">NestingNodeContext</text>
</a>
</g>
</g>
<!-- Node0&#45;&gt;Node30 -->
<g id="edge30" class="edge"><title>Node0&#45;&gt;Node30</title>
<path fill="none" stroke="midnightblue" d="M51.9055,-711.91C58.8143,-643.338 84.7703,-420.054 134,-371 142.063,-362.966 152.785,-358.046 163.836,-355.093"/>
<polygon fill="midnightblue" stroke="midnightblue" points="48.3897,-711.9 50.8968,-722.194 55.3563,-712.584 48.3897,-711.9"/>
</g>
<!-- Node31 -->
<g id="node32" class="node"><title>Node31</title>
<g id="a_node32"><a xlink:href="../../db/dc8/class_page_context.html" target="_top" xlink:title="PageContext">
<polygon fill="white" stroke="black" points="181,-304.5 181,-323.5 255,-323.5 255,-304.5 181,-304.5"/>
<text text-anchor="middle" x="218" y="-311.5" font-family="Helvetica,sans-Serif" font-size="10.00">PageContext</text>
</a>
</g>
</g>
<!-- Node0&#45;&gt;Node31 -->
<g id="edge31" class="edge"><title>Node0&#45;&gt;Node31</title>
<path fill="none" stroke="midnightblue" d="M51.4037,-712.195C56.9645,-639.414 79.8406,-388.118 134,-333 146.122,-320.663 164.501,-315.635 180.885,-313.811"/>
<polygon fill="midnightblue" stroke="midnightblue" points="47.9046,-712.055 50.6578,-722.286 54.8855,-712.571 47.9046,-712.055"/>
</g>
<!-- Node32 -->
<g id="node33" class="node"><title>Node32</title>
<g id="a_node33"><a xlink:href="../../d7/dea/class_page_tree_context.html" target="_top" xlink:title="PageTreeContext">
<polygon fill="white" stroke="black" points="171.5,-266.5 171.5,-285.5 264.5,-285.5 264.5,-266.5 171.5,-266.5"/>
<text text-anchor="middle" x="218" y="-273.5" font-family="Helvetica,sans-Serif" font-size="10.00">PageTreeContext</text>
</a>
</g>
</g>
<!-- Node0&#45;&gt;Node32 -->
<g id="edge32" class="edge"><title>Node0&#45;&gt;Node32</title>
<path fill="none" stroke="midnightblue" d="M51.031,-711.837C55.4124,-634.223 75.048,-356.061 134,-295 143.754,-284.897 157.699,-279.676 171.381,-277.104"/>
<polygon fill="midnightblue" stroke="midnightblue" points="47.5186,-711.974 50.4736,-722.148 54.5084,-712.351 47.5186,-711.974"/>
</g>
<!-- Node33 -->
<g id="node34" class="node"><title>Node33</title>
<g id="a_node34"><a xlink:href="../../da/ddb/class_search_index_context.html" target="_top" xlink:title="SearchIndexContext">
<polygon fill="white" stroke="black" points="165,-228.5 165,-247.5 271,-247.5 271,-228.5 165,-228.5"/>
<text text-anchor="middle" x="218" y="-235.5" font-family="Helvetica,sans-Serif" font-size="10.00">SearchIndexContext</text>
</a>
</g>
</g>
<!-- Node0&#45;&gt;Node33 -->
<g id="edge33" class="edge"><title>Node0&#45;&gt;Node33</title>
<path fill="none" stroke="midnightblue" d="M50.6991,-711.691C53.941,-629.675 70.186,-324.088 134,-257 142.151,-248.431 153.312,-243.363 164.808,-240.443"/>
<polygon fill="midnightblue" stroke="midnightblue" points="47.1856,-711.991 50.3111,-722.114 54.1808,-712.251 47.1856,-711.991"/>
</g>
<!-- Node34 -->
<g id="node35" class="node"><title>Node34</title>
<g id="a_node35"><a xlink:href="../../d0/d4b/class_symbol_context.html" target="_top" xlink:title="SymbolContext">
<polygon fill="white" stroke="black" points="176,-190.5 176,-209.5 260,-209.5 260,-190.5 176,-190.5"/>
<text text-anchor="middle" x="218" y="-197.5" font-family="Helvetica,sans-Serif" font-size="10.00">SymbolContext</text>
</a>
</g>
</g>
<!-- Node0&#45;&gt;Node34 -->
<g id="edge34" class="edge"><title>Node0&#45;&gt;Node34</title>
<path fill="none" stroke="midnightblue" d="M50.4003,-712.006C52.5275,-626.459 65.1864,-292.272 134,-219 144.727,-207.578 160.801,-202.357 175.955,-200.161"/>
<polygon fill="midnightblue" stroke="midnightblue" points="46.8974,-712.1 50.1693,-722.177 53.8956,-712.259 46.8974,-712.1"/>
</g>
<!-- Node35 -->
<g id="node36" class="node"><title>Node35</title>
<g id="a_node36"><a xlink:href="../../d7/d10/class_symbol_group_context.html" target="_top" xlink:title="SymbolGroupContext">
<polygon fill="white" stroke="black" points="163,-152.5 163,-171.5 273,-171.5 273,-152.5 163,-152.5"/>
<text text-anchor="middle" x="218" y="-159.5" font-family="Helvetica,sans-Serif" font-size="10.00">SymbolGroupContext</text>
</a>
</g>
</g>
<!-- Node0&#45;&gt;Node35 -->
<g id="edge35" class="edge"><title>Node0&#45;&gt;Node35</title>
<path fill="none" stroke="midnightblue" d="M50.1495,-712.254C51.2345,-623.274 60.1863,-260.469 134,-181 141.646,-172.768 152.067,-167.75 162.942,-164.762"/>
<polygon fill="midnightblue" stroke="midnightblue" points="46.649,-712.294 50.0474,-722.329 53.6486,-712.365 46.649,-712.294"/>
</g>
<!-- Node36 -->
<g id="node37" class="node"><title>Node36</title>
<g id="a_node37"><a xlink:href="../../d3/db8/class_symbol_index_context.html" target="_top" xlink:title="SymbolIndexContext">
<polygon fill="white" stroke="black" points="164,-114.5 164,-133.5 272,-133.5 272,-114.5 164,-114.5"/>
<text text-anchor="middle" x="218" y="-121.5" font-family="Helvetica,sans-Serif" font-size="10.00">SymbolIndexContext</text>
</a>
</g>
</g>
<!-- Node0&#45;&gt;Node36 -->
<g id="edge36" class="edge"><title>Node0&#45;&gt;Node36</title>
<path fill="none" stroke="midnightblue" d="M49.9359,-712.081C50.0534,-619.085 55.2892,-228.563 134,-143 141.806,-134.514 152.561,-129.435 163.742,-126.476"/>
<polygon fill="midnightblue" stroke="midnightblue" points="46.4358,-712.123 49.9429,-722.121 53.4358,-712.118 46.4358,-712.123"/>
</g>
<!-- Node37 -->
<g id="node38" class="node"><title>Node37</title>
<g id="a_node38"><a xlink:href="../../d8/d4b/class_template_struct.html" target="_top" xlink:title="Default implementation of a context value of type struct. ">
<polygon fill="white" stroke="black" points="176.5,-76.5 176.5,-95.5 259.5,-95.5 259.5,-76.5 176.5,-76.5"/>
<text text-anchor="middle" x="218" y="-83.5" font-family="Helvetica,sans-Serif" font-size="10.00">TemplateStruct</text>
</a>
</g>
</g>
<!-- Node0&#45;&gt;Node37 -->
<g id="edge37" class="edge"><title>Node0&#45;&gt;Node37</title>
<path fill="none" stroke="midnightblue" d="M49.748,-712.349C48.9287,-616.262 50.2555,-196.814 134,-105 144.659,-93.3138 160.908,-88.0773 176.211,-85.9405"/>
<polygon fill="midnightblue" stroke="midnightblue" points="46.2488,-712.457 49.8532,-722.42 53.2485,-712.384 46.2488,-712.457"/>
</g>
<!-- Node38 -->
<g id="node39" class="node"><title>Node38</title>
<g id="a_node39"><a xlink:href="../../d7/db4/class_template_struct_weak_ref.html" target="_top" xlink:title="Weak reference wrapper for TemplateStructIntf that provides access to the wrapped struct without hold...">
<polygon fill="white" stroke="black" points="155.5,-38.5 155.5,-57.5 280.5,-57.5 280.5,-38.5 155.5,-38.5"/>
<text text-anchor="middle" x="218" y="-45.5" font-family="Helvetica,sans-Serif" font-size="10.00">TemplateStructWeakRef</text>
</a>
</g>
</g>
<!-- Node0&#45;&gt;Node38 -->
<g id="edge38" class="edge"><title>Node0&#45;&gt;Node38</title>
<path fill="none" stroke="midnightblue" d="M49.5774,-712.117C47.8713,-612.1 45.3562,-164.923 134,-67 139.754,-60.6437 147.161,-56.1924 155.177,-53.109"/>
<polygon fill="midnightblue" stroke="midnightblue" points="46.0819,-712.39 49.7706,-722.322 53.0806,-712.257 46.0819,-712.39"/>
</g>
<!-- Node39 -->
<g id="node40" class="node"><title>Node39</title>
<g id="a_node40"><a xlink:href="../../d2/dbb/class_translate_context.html" target="_top" xlink:title="TranslateContext">
<polygon fill="white" stroke="black" points="172,-0.5 172,-19.5 264,-19.5 264,-0.5 172,-0.5"/>
<text text-anchor="middle" x="218" y="-7.5" font-family="Helvetica,sans-Serif" font-size="10.00">TranslateContext</text>
</a>
</g>
</g>
<!-- Node0&#45;&gt;Node39 -->
<g id="edge39" class="edge"><title>Node0&#45;&gt;Node39</title>
<path fill="none" stroke="midnightblue" d="M51.0245,-712.151C56.8202,-603.254 86.9189,-81.3622 134,-29 143.587,-18.3374 157.825,-13.0272 171.814,-10.5441"/>
<polygon fill="midnightblue" stroke="midnightblue" points="47.5174,-712.197 50.4881,-722.367 54.5077,-712.564 47.5174,-712.197"/>
</g>
</g>
</svg>
        <g id="navigator" transform="translate(0 0)" fill="#404254">
                <rect fill="#f2f5e9" fill-opacity="0.5" stroke="#606060" stroke-width=".5" x="0" y="0" width="60" height="60"/>
                <use id="zoomplus" xlink:href="#zoomPlus" x="17" y="9" onmousedown="handleZoom(evt,'in')"/>
                <use id="zoomminus" xlink:href="#zoomMin" x="42" y="9" onmousedown="handleZoom(evt,'out')"/>
                <use id="reset" xlink:href="#resetDef" x="30" y="36" onmousedown="handleReset()"/>
                <g id="arrowUp" xlink:href="#dirArrow" transform="translate(30 24)" onmousedown="handlePan(0,-1)">
                  <use xlink:href="#rim" fill="#404040">
                        <set attributeName="fill" to="#808080" begin="arrowUp.mouseover" end="arrowUp.mouseout"/>
                  </use>
                  <path fill="none" stroke="white" stroke-width="1.5" d="M0,-3.0v7 M-2.5,-0.5L0,-3.0L2.5,-0.5"/>
                </g>
                <g id="arrowRight" xlink:href="#dirArrow" transform="rotate(90) translate(36 -43)" onmousedown="handlePan(1,0)">
                  <use xlink:href="#rim" fill="#404040">
                        <set attributeName="fill" to="#808080" begin="arrowRight.mouseover" end="arrowRight.mouseout"/>
                  </use>
                  <path fill="none" stroke="white" stroke-width="1.5" d="M0,-3.0v7 M-2.5,-0.5L0,-3.0L2.5,-0.5"/>
                </g>
                <g id="arrowDown" xlink:href="#dirArrow" transform="rotate(180) translate(-30 -48)" onmousedown="handlePan(0,1)">
                  <use xlink:href="#rim" fill="#404040">
                        <set attributeName="fill" to="#808080" begin="arrowDown.mouseover" end="arrowDown.mouseout"/>
                  </use>
                  <path fill="none" stroke="white" stroke-width="1.5" d="M0,-3.0v7 M-2.5,-0.5L0,-3.0L2.5,-0.5"/>
                </g>
                <g id="arrowLeft" xlink:href="#dirArrow" transform="rotate(270) translate(-36 17)" onmousedown="handlePan(-1,0)">
                  <use xlink:href="#rim" fill="#404040">
                        <set attributeName="fill" to="#808080" begin="arrowLeft.mouseover" end="arrowLeft.mouseout"/>
                  </use>
                  <path fill="none" stroke="white" stroke-width="1.5" d="M0,-3.0v7 M-2.5,-0.5L0,-3.0L2.5,-0.5"/>
                </g>
        </g>
        <svg viewBox="0 0 15 15" width="100%" height="30px" preserveAspectRatio="xMaxYMin meet">
         <g id="arrow_out" transform="scale(0.3 0.3)">
          <a xlink:href="class_template_struct_intf__inherit__graph_org.svg" target="_base">
           <rect id="button" ry="5" rx="5" y="6" x="6" height="38" width="38"
                fill="#f2f5e9" fill-opacity="0.5" stroke="#606060" stroke-width="1.0"/>
           <path id="arrow"
             d="M 11.500037,31.436501 C 11.940474,20.09759 22.043105,11.32322 32.158766,21.979434 L 37.068811,17.246167 C 37.068811,17.246167 37.088388,32 37.088388,32 L 22.160133,31.978069 C 22.160133,31.978069 26.997745,27.140456 26.997745,27.140456 C 18.528582,18.264221 13.291696,25.230495 11.500037,31.436501 z"
             style="fill:#404040;"/>
          </a>
         </g>
        </svg>
</svg>
