<?xml version="1.0" encoding="UTF-8" standalone="no"?>
<!DOCTYPE svg PUBLIC "-//W3C//DTD SVG 1.1//EN"
 "http://www.w3.org/Graphics/SVG/1.1/DTD/svg11.dtd">
<!-- Generated by graphviz version 2.38.0 (20140413.2041)
 -->
<!-- Title: DocMscFile Pages: 1 -->
<svg width="228pt" height="152pt"
 viewBox="0.00 0.00 228.00 152.00" xmlns="http://www.w3.org/2000/svg" xmlns:xlink="http://www.w3.org/1999/xlink">
<g id="graph0" class="graph" transform="scale(1 1) rotate(0) translate(4 148)">
<title>DocMscFile</title>
<polygon fill="white" stroke="none" points="-4,4 -4,-148 224,-148 224,4 -4,4"/>
<!-- Node0 -->
<g id="node1" class="node"><title>Node0</title>
<polygon fill="#bfbfbf" stroke="black" points="126.5,-0.5 126.5,-19.5 195.5,-19.5 195.5,-0.5 126.5,-0.5"/>
<text text-anchor="middle" x="161" y="-7.5" font-family="Helvetica,sans-Serif" font-size="10.00">DocMscFile</text>
</g>
<!-- Node1 -->
<g id="node2" class="node"><title>Node1</title>
<g id="a_node2"><a xlink:href="../../d7/da3/class_comp_accept.html" target="_top" xlink:title="CompAccept\&lt; DocMscFile \&gt;">
<polygon fill="white" stroke="black" points="0,-57.5 0,-76.5 144,-76.5 144,-57.5 0,-57.5"/>
<text text-anchor="middle" x="72" y="-64.5" font-family="Helvetica,sans-Serif" font-size="10.00">CompAccept&lt; DocMscFile &gt;</text>
</a>
</g>
</g>
<!-- Node1&#45;&gt;Node0 -->
<g id="edge1" class="edge"><title>Node1&#45;&gt;Node0</title>
<path fill="none" stroke="midnightblue" d="M94.4764,-52.1101C111.068,-41.857 133.121,-28.2288 147.191,-19.5334"/>
<polygon fill="midnightblue" stroke="midnightblue" points="92.573,-49.1719 85.9062,-57.4062 96.2529,-55.1266 92.573,-49.1719"/>
</g>
<!-- Node2 -->
<g id="node3" class="node"><title>Node2</title>
<g id="a_node3"><a xlink:href="../../d7/da3/class_comp_accept.html" target="_top" xlink:title="Default accept implementation for compound nodes in the abstract syntax tree. ">
<polygon fill="white" stroke="black" points="23,-124.5 23,-143.5 121,-143.5 121,-124.5 23,-124.5"/>
<text text-anchor="middle" x="72" y="-131.5" font-family="Helvetica,sans-Serif" font-size="10.00">CompAccept&lt; T &gt;</text>
</a>
</g>
</g>
<!-- Node2&#45;&gt;Node1 -->
<g id="edge2" class="edge"><title>Node2&#45;&gt;Node1</title>
<path fill="none" stroke="orange" stroke-dasharray="5,2" d="M72,-114.037C72,-101.67 72,-86.1198 72,-76.6273"/>
<polygon fill="orange" stroke="orange" points="68.5001,-114.234 72,-124.234 75.5001,-114.234 68.5001,-114.234"/>
<text text-anchor="middle" x="109" y="-98" font-family="Helvetica,sans-Serif" font-size="10.00"> &lt; DocMscFile &gt;</text>
</g>
<!-- Node3 -->
<g id="node4" class="node"><title>Node3</title>
<g id="a_node4"><a xlink:href="../../d9/d0e/class_doc_node.html" target="_top" xlink:title="Abstract node interface with type information. ">
<polygon fill="white" stroke="black" points="162,-57.5 162,-76.5 220,-76.5 220,-57.5 162,-57.5"/>
<text text-anchor="middle" x="191" y="-64.5" font-family="Helvetica,sans-Serif" font-size="10.00">DocNode</text>
</a>
</g>
</g>
<!-- Node3&#45;&gt;Node0 -->
<g id="edge3" class="edge"><title>Node3&#45;&gt;Node0</title>
<path fill="none" stroke="midnightblue" d="M181.364,-48.334C176.147,-38.77 169.934,-27.3784 165.754,-19.7149"/>
<polygon fill="midnightblue" stroke="midnightblue" points="178.451,-50.3033 186.312,-57.4062 184.597,-46.9513 178.451,-50.3033"/>
</g>
</g>
</svg>
