<?xml version="1.0" encoding="UTF-8" standalone="no"?>
<!DOCTYPE svg PUBLIC "-//W3C//DTD SVG 1.1//EN"
 "http://www.w3.org/Graphics/SVG/1.1/DTD/svg11.dtd">
<!-- Generated by graphviz version 2.38.0 (20140413.2041)
 -->
<!-- Title: src/dirdef.h Pages: 1 -->
<svg width="263pt" height="196pt"
 viewBox="0.00 0.00 262.50 196.00" xmlns="http://www.w3.org/2000/svg" xmlns:xlink="http://www.w3.org/1999/xlink">
<g id="graph0" class="graph" transform="scale(1 1) rotate(0) translate(4 192)">
<title>src/dirdef.h</title>
<polygon fill="white" stroke="none" points="-4,4 -4,-192 258.5,-192 258.5,4 -4,4"/>
<!-- Node0 -->
<g id="node1" class="node"><title>Node0</title>
<polygon fill="#bfbfbf" stroke="black" points="123,-168.5 123,-187.5 188,-187.5 188,-168.5 123,-168.5"/>
<text text-anchor="middle" x="155.5" y="-175.5" font-family="Helvetica,sans-Serif" font-size="10.00">src/dirdef.h</text>
</g>
<!-- Node1 -->
<g id="node2" class="node"><title>Node1</title>
<g id="a_node2"><a xlink:href="../../d9/d21/sortdict_8h.html" target="_top" xlink:title="sortdict.h">
<polygon fill="white" stroke="black" points="184,-112.5 184,-131.5 241,-131.5 241,-112.5 184,-112.5"/>
<text text-anchor="middle" x="212.5" y="-119.5" font-family="Helvetica,sans-Serif" font-size="10.00">sortdict.h</text>
</a>
</g>
</g>
<!-- Node0&#45;&gt;Node1 -->
<g id="edge1" class="edge"><title>Node0&#45;&gt;Node1</title>
<path fill="none" stroke="midnightblue" d="M164.658,-168.324C173.001,-160.42 185.532,-148.548 195.677,-138.938"/>
<polygon fill="midnightblue" stroke="midnightblue" points="198.323,-141.252 203.175,-131.834 193.509,-136.171 198.323,-141.252"/>
</g>
<!-- Node2 -->
<g id="node3" class="node"><title>Node2</title>
<polygon fill="white" stroke="#bfbfbf" points="137,-56.5 137,-75.5 180,-75.5 180,-56.5 137,-56.5"/>
<text text-anchor="middle" x="158.5" y="-63.5" font-family="Helvetica,sans-Serif" font-size="10.00">qlist.h</text>
</g>
<!-- Node0&#45;&gt;Node2 -->
<g id="edge10" class="edge"><title>Node0&#45;&gt;Node2</title>
<path fill="none" stroke="midnightblue" d="M155.735,-168.368C156.22,-150.617 157.336,-109.666 157.993,-85.5974"/>
<polygon fill="midnightblue" stroke="midnightblue" points="161.492,-85.6832 158.266,-75.5914 154.494,-85.4922 161.492,-85.6832"/>
</g>
<!-- Node5 -->
<g id="node6" class="node"><title>Node5</title>
<g id="a_node6"><a xlink:href="../../df/da1/definition_8h.html" target="_top" xlink:title="definition.h">
<polygon fill="white" stroke="black" points="63.5,-112.5 63.5,-131.5 127.5,-131.5 127.5,-112.5 63.5,-112.5"/>
<text text-anchor="middle" x="95.5" y="-119.5" font-family="Helvetica,sans-Serif" font-size="10.00">definition.h</text>
</a>
</g>
</g>
<!-- Node0&#45;&gt;Node5 -->
<g id="edge5" class="edge"><title>Node0&#45;&gt;Node5</title>
<path fill="none" stroke="midnightblue" d="M145.86,-168.324C136.99,-160.341 123.625,-148.313 112.892,-138.653"/>
<polygon fill="midnightblue" stroke="midnightblue" points="115.09,-135.922 105.315,-131.834 110.407,-141.125 115.09,-135.922"/>
</g>
<!-- Node1&#45;&gt;Node2 -->
<g id="edge2" class="edge"><title>Node1&#45;&gt;Node2</title>
<path fill="none" stroke="midnightblue" d="M203.583,-112.083C195.72,-104.22 184.069,-92.5688 174.581,-83.0813"/>
<polygon fill="midnightblue" stroke="midnightblue" points="176.797,-80.3473 167.251,-75.7511 171.847,-85.2971 176.797,-80.3473"/>
</g>
<!-- Node3 -->
<g id="node4" class="node"><title>Node3</title>
<polygon fill="white" stroke="#bfbfbf" points="72.5,-56.5 72.5,-75.5 118.5,-75.5 118.5,-56.5 72.5,-56.5"/>
<text text-anchor="middle" x="95.5" y="-63.5" font-family="Helvetica,sans-Serif" font-size="10.00">qdict.h</text>
</g>
<!-- Node1&#45;&gt;Node3 -->
<g id="edge3" class="edge"><title>Node1&#45;&gt;Node3</title>
<path fill="none" stroke="midnightblue" d="M193.961,-112.444C174.877,-103.636 144.925,-89.8116 123.064,-79.722"/>
<polygon fill="midnightblue" stroke="midnightblue" points="124.499,-76.5292 113.952,-75.5164 121.565,-82.8849 124.499,-76.5292"/>
</g>
<!-- Node4 -->
<g id="node5" class="node"><title>Node4</title>
<polygon fill="white" stroke="#bfbfbf" points="198.5,-56.5 198.5,-75.5 254.5,-75.5 254.5,-56.5 198.5,-56.5"/>
<text text-anchor="middle" x="226.5" y="-63.5" font-family="Helvetica,sans-Serif" font-size="10.00">qintdict.h</text>
</g>
<!-- Node1&#45;&gt;Node4 -->
<g id="edge4" class="edge"><title>Node1&#45;&gt;Node4</title>
<path fill="none" stroke="midnightblue" d="M214.812,-112.083C216.667,-104.927 219.335,-94.6353 221.654,-85.6911"/>
<polygon fill="midnightblue" stroke="midnightblue" points="225.109,-86.3094 224.231,-75.7511 218.334,-84.5527 225.109,-86.3094"/>
</g>
<!-- Node5&#45;&gt;Node2 -->
<g id="edge6" class="edge"><title>Node5&#45;&gt;Node2</title>
<path fill="none" stroke="midnightblue" d="M105.622,-112.324C115.026,-104.263 129.244,-92.0765 140.569,-82.3695"/>
<polygon fill="midnightblue" stroke="midnightblue" points="142.879,-84.9993 148.194,-75.8339 138.323,-79.6844 142.879,-84.9993"/>
</g>
<!-- Node5&#45;&gt;Node3 -->
<g id="edge7" class="edge"><title>Node5&#45;&gt;Node3</title>
<path fill="none" stroke="midnightblue" d="M95.5,-112.083C95.5,-105.006 95.5,-94.8611 95.5,-85.9865"/>
<polygon fill="midnightblue" stroke="midnightblue" points="99.0001,-85.751 95.5,-75.7511 92.0001,-85.7511 99.0001,-85.751"/>
</g>
<!-- Node6 -->
<g id="node7" class="node"><title>Node6</title>
<g id="a_node7"><a xlink:href="../../d9/d49/types_8h.html" target="_top" xlink:title="This file contains a number of basic enums and types. ">
<polygon fill="white" stroke="black" points="5,-56.5 5,-75.5 54,-75.5 54,-56.5 5,-56.5"/>
<text text-anchor="middle" x="29.5" y="-63.5" font-family="Helvetica,sans-Serif" font-size="10.00">types.h</text>
</a>
</g>
</g>
<!-- Node5&#45;&gt;Node6 -->
<g id="edge8" class="edge"><title>Node5&#45;&gt;Node6</title>
<path fill="none" stroke="midnightblue" d="M84.896,-112.324C75.0438,-104.263 60.1491,-92.0765 48.2849,-82.3695"/>
<polygon fill="midnightblue" stroke="midnightblue" points="50.2529,-79.4575 40.297,-75.8339 45.8202,-84.8752 50.2529,-79.4575"/>
</g>
<!-- Node7 -->
<g id="node8" class="node"><title>Node7</title>
<polygon fill="white" stroke="#bfbfbf" points="0,-0.5 0,-19.5 59,-19.5 59,-0.5 0,-0.5"/>
<text text-anchor="middle" x="29.5" y="-7.5" font-family="Helvetica,sans-Serif" font-size="10.00">qcstring.h</text>
</g>
<!-- Node6&#45;&gt;Node7 -->
<g id="edge9" class="edge"><title>Node6&#45;&gt;Node7</title>
<path fill="none" stroke="midnightblue" d="M29.5,-56.083C29.5,-49.0059 29.5,-38.8611 29.5,-29.9865"/>
<polygon fill="midnightblue" stroke="midnightblue" points="33.0001,-29.751 29.5,-19.7511 26.0001,-29.7511 33.0001,-29.751"/>
</g>
</g>
</svg>
