<?xml version="1.0" encoding="UTF-8" standalone="no"?>
<!DOCTYPE svg PUBLIC "-//W3C//DTD SVG 1.1//EN"
 "http://www.w3.org/Graphics/SVG/1.1/DTD/svg11.dtd">
<!-- Generated by graphviz version 2.38.0 (20140413.2041)
 -->
<!-- Title: src/rtfstyle.h Pages: 1 -->
<svg width="307pt" height="84pt"
 viewBox="0.00 0.00 306.50 84.00" xmlns="http://www.w3.org/2000/svg" xmlns:xlink="http://www.w3.org/1999/xlink">
<g id="graph0" class="graph" transform="scale(1 1) rotate(0) translate(4 80)">
<title>src/rtfstyle.h</title>
<polygon fill="white" stroke="none" points="-4,4 -4,-80 302.5,-80 302.5,4 -4,4"/>
<!-- Node3 -->
<g id="node1" class="node"><title>Node3</title>
<polygon fill="#bfbfbf" stroke="black" points="124,-56.5 124,-75.5 195,-75.5 195,-56.5 124,-56.5"/>
<text text-anchor="middle" x="159.5" y="-63.5" font-family="Helvetica,sans-Serif" font-size="10.00">src/rtfstyle.h</text>
</g>
<!-- Node4 -->
<g id="node2" class="node"><title>Node4</title>
<g id="a_node2"><a xlink:href="../../de/d9a/rtfdocvisitor_8cpp.html" target="_top" xlink:title="src/rtfdocvisitor.cpp">
<polygon fill="white" stroke="black" points="0,-0.5 0,-19.5 103,-19.5 103,-0.5 0,-0.5"/>
<text text-anchor="middle" x="51.5" y="-7.5" font-family="Helvetica,sans-Serif" font-size="10.00">src/rtfdocvisitor.cpp</text>
</a>
</g>
</g>
<!-- Node3&#45;&gt;Node4 -->
<g id="edge1" class="edge"><title>Node3&#45;&gt;Node4</title>
<path fill="none" stroke="midnightblue" d="M132.952,-51.7261C112.954,-41.7271 86.113,-28.3065 68.809,-19.6545"/>
<polygon fill="midnightblue" stroke="midnightblue" points="131.638,-54.9823 142.148,-56.324 134.769,-48.7213 131.638,-54.9823"/>
</g>
<!-- Node5 -->
<g id="node3" class="node"><title>Node5</title>
<g id="a_node3"><a xlink:href="../../d0/d9c/rtfgen_8cpp.html" target="_top" xlink:title="src/rtfgen.cpp">
<polygon fill="white" stroke="black" points="121,-0.5 121,-19.5 198,-19.5 198,-0.5 121,-0.5"/>
<text text-anchor="middle" x="159.5" y="-7.5" font-family="Helvetica,sans-Serif" font-size="10.00">src/rtfgen.cpp</text>
</a>
</g>
</g>
<!-- Node3&#45;&gt;Node5 -->
<g id="edge2" class="edge"><title>Node3&#45;&gt;Node5</title>
<path fill="none" stroke="midnightblue" d="M159.5,-45.8045C159.5,-36.9102 159.5,-26.7798 159.5,-19.7511"/>
<polygon fill="midnightblue" stroke="midnightblue" points="156,-46.083 159.5,-56.083 163,-46.083 156,-46.083"/>
</g>
<!-- Node6 -->
<g id="node4" class="node"><title>Node6</title>
<g id="a_node4"><a xlink:href="../../de/d5c/rtfstyle_8cpp.html" target="_top" xlink:title="src/rtfstyle.cpp">
<polygon fill="white" stroke="black" points="216.5,-0.5 216.5,-19.5 298.5,-19.5 298.5,-0.5 216.5,-0.5"/>
<text text-anchor="middle" x="257.5" y="-7.5" font-family="Helvetica,sans-Serif" font-size="10.00">src/rtfstyle.cpp</text>
</a>
</g>
</g>
<!-- Node3&#45;&gt;Node6 -->
<g id="edge3" class="edge"><title>Node3&#45;&gt;Node6</title>
<path fill="none" stroke="midnightblue" d="M184.086,-51.4526C202.178,-41.4835 226.235,-28.2279 241.794,-19.6545"/>
<polygon fill="midnightblue" stroke="midnightblue" points="182.315,-48.4324 175.245,-56.324 185.693,-54.5633 182.315,-48.4324"/>
</g>
</g>
</svg>
