<?xml version="1.0" encoding="UTF-8" standalone="no"?>
<!DOCTYPE svg PUBLIC "-//W3C//DTD SVG 1.1//EN"
 "http://www.w3.org/Graphics/SVG/1.1/DTD/svg11.dtd">
<!-- Generated by graphviz version 2.38.0 (20140413.2041)
 -->
<!-- Title: DocRef Pages: 1 -->
<svg width="209pt" height="152pt"
 viewBox="0.00 0.00 208.50 152.00" xmlns="http://www.w3.org/2000/svg" xmlns:xlink="http://www.w3.org/1999/xlink">
<g id="graph0" class="graph" transform="scale(1 1) rotate(0) translate(4 148)">
<title>DocRef</title>
<polygon fill="white" stroke="none" points="-4,4 -4,-148 204.5,-148 204.5,4 -4,4"/>
<!-- Node0 -->
<g id="node1" class="node"><title>Node0</title>
<polygon fill="#bfbfbf" stroke="black" points="118.5,-0.5 118.5,-19.5 168.5,-19.5 168.5,-0.5 118.5,-0.5"/>
<text text-anchor="middle" x="143.5" y="-7.5" font-family="Helvetica,sans-Serif" font-size="10.00">DocRef</text>
</g>
<!-- Node1 -->
<g id="node2" class="node"><title>Node1</title>
<g id="a_node2"><a xlink:href="../../d7/da3/class_comp_accept.html" target="_top" xlink:title="CompAccept\&lt; DocRef \&gt;">
<polygon fill="white" stroke="black" points="0,-57.5 0,-76.5 125,-76.5 125,-57.5 0,-57.5"/>
<text text-anchor="middle" x="62.5" y="-64.5" font-family="Helvetica,sans-Serif" font-size="10.00">CompAccept&lt; DocRef &gt;</text>
</a>
</g>
</g>
<!-- Node1&#45;&gt;Node0 -->
<g id="edge1" class="edge"><title>Node1&#45;&gt;Node0</title>
<path fill="none" stroke="midnightblue" d="M83.8,-51.537C98.7969,-41.3539 118.364,-28.0678 130.933,-19.5334"/>
<polygon fill="midnightblue" stroke="midnightblue" points="81.4632,-48.8931 75.1562,-57.4062 85.3955,-54.6843 81.4632,-48.8931"/>
</g>
<!-- Node2 -->
<g id="node3" class="node"><title>Node2</title>
<g id="a_node3"><a xlink:href="../../d7/da3/class_comp_accept.html" target="_top" xlink:title="Default accept implementation for compound nodes in the abstract syntax tree. ">
<polygon fill="white" stroke="black" points="13.5,-124.5 13.5,-143.5 111.5,-143.5 111.5,-124.5 13.5,-124.5"/>
<text text-anchor="middle" x="62.5" y="-131.5" font-family="Helvetica,sans-Serif" font-size="10.00">CompAccept&lt; T &gt;</text>
</a>
</g>
</g>
<!-- Node2&#45;&gt;Node1 -->
<g id="edge2" class="edge"><title>Node2&#45;&gt;Node1</title>
<path fill="none" stroke="orange" stroke-dasharray="5,2" d="M62.5,-114.037C62.5,-101.67 62.5,-86.1198 62.5,-76.6273"/>
<polygon fill="orange" stroke="orange" points="59.0001,-114.234 62.5,-124.234 66.0001,-114.234 59.0001,-114.234"/>
<text text-anchor="middle" x="90" y="-98" font-family="Helvetica,sans-Serif" font-size="10.00"> &lt; DocRef &gt;</text>
</g>
<!-- Node3 -->
<g id="node4" class="node"><title>Node3</title>
<g id="a_node4"><a xlink:href="../../d9/d0e/class_doc_node.html" target="_top" xlink:title="Abstract node interface with type information. ">
<polygon fill="white" stroke="black" points="142.5,-57.5 142.5,-76.5 200.5,-76.5 200.5,-57.5 142.5,-57.5"/>
<text text-anchor="middle" x="171.5" y="-64.5" font-family="Helvetica,sans-Serif" font-size="10.00">DocNode</text>
</a>
</g>
</g>
<!-- Node3&#45;&gt;Node0 -->
<g id="edge3" class="edge"><title>Node3&#45;&gt;Node0</title>
<path fill="none" stroke="midnightblue" d="M162.506,-48.334C157.637,-38.77 151.838,-27.3784 147.937,-19.7149"/>
<polygon fill="midnightblue" stroke="midnightblue" points="159.469,-50.0825 167.125,-57.4062 165.707,-46.9067 159.469,-50.0825"/>
</g>
</g>
</svg>
