<?xml version="1.0" encoding="UTF-8" standalone="no"?>
<!DOCTYPE svg PUBLIC "-//W3C//DTD SVG 1.1//EN"
 "http://www.w3.org/Graphics/SVG/1.1/DTD/svg11.dtd">
<!-- Generated by graphviz version 2.38.0 (20140413.2041)
 -->
<!-- Title: src/mandocvisitor.h Pages: 1 -->
<svg width="226pt" height="84pt"
 viewBox="0.00 0.00 225.50 84.00" xmlns="http://www.w3.org/2000/svg" xmlns:xlink="http://www.w3.org/1999/xlink">
<g id="graph0" class="graph" transform="scale(1 1) rotate(0) translate(4 80)">
<title>src/mandocvisitor.h</title>
<polygon fill="white" stroke="none" points="-4,4 -4,-80 221.5,-80 221.5,4 -4,4"/>
<!-- Node4 -->
<g id="node1" class="node"><title>Node4</title>
<polygon fill="#bfbfbf" stroke="black" points="64.5,-56.5 64.5,-75.5 166.5,-75.5 166.5,-56.5 64.5,-56.5"/>
<text text-anchor="middle" x="115.5" y="-63.5" font-family="Helvetica,sans-Serif" font-size="10.00">src/mandocvisitor.h</text>
</g>
<!-- Node5 -->
<g id="node2" class="node"><title>Node5</title>
<g id="a_node2"><a xlink:href="../../d8/dde/mandocvisitor_8cpp.html" target="_top" xlink:title="src/mandocvisitor.cpp">
<polygon fill="white" stroke="black" points="0,-0.5 0,-19.5 113,-19.5 113,-0.5 0,-0.5"/>
<text text-anchor="middle" x="56.5" y="-7.5" font-family="Helvetica,sans-Serif" font-size="10.00">src/mandocvisitor.cpp</text>
</a>
</g>
</g>
<!-- Node4&#45;&gt;Node5 -->
<g id="edge1" class="edge"><title>Node4&#45;&gt;Node5</title>
<path fill="none" stroke="midnightblue" d="M98.6055,-49.5372C88.0855,-39.9087 74.9313,-27.8694 66.1519,-19.8339"/>
<polygon fill="midnightblue" stroke="midnightblue" points="96.2808,-52.1542 106.021,-56.324 101.007,-46.9905 96.2808,-52.1542"/>
</g>
<!-- Node6 -->
<g id="node3" class="node"><title>Node6</title>
<g id="a_node3"><a xlink:href="../../d7/de7/mangen_8cpp.html" target="_top" xlink:title="src/mangen.cpp">
<polygon fill="white" stroke="black" points="131.5,-0.5 131.5,-19.5 217.5,-19.5 217.5,-0.5 131.5,-0.5"/>
<text text-anchor="middle" x="174.5" y="-7.5" font-family="Helvetica,sans-Serif" font-size="10.00">src/mangen.cpp</text>
</a>
</g>
</g>
<!-- Node4&#45;&gt;Node6 -->
<g id="edge2" class="edge"><title>Node4&#45;&gt;Node6</title>
<path fill="none" stroke="midnightblue" d="M132.395,-49.5372C142.915,-39.9087 156.069,-27.8694 164.848,-19.8339"/>
<polygon fill="midnightblue" stroke="midnightblue" points="129.993,-46.9905 124.979,-56.324 134.719,-52.1542 129.993,-46.9905"/>
</g>
</g>
</svg>
