<?xml version="1.0" encoding="UTF-8" standalone="no"?>
<!DOCTYPE svg PUBLIC "-//W3C//DTD SVG 1.1//EN"
 "http://www.w3.org/Graphics/SVG/1.1/DTD/svg11.dtd">
<!-- Generated by graphviz version 2.38.0 (20140413.2041)
 -->
<!-- Title: DocHtmlListItem Pages: 1 -->
<svg width="420pt" height="162pt"
 viewBox="0.00 0.00 420.00 162.00" xmlns="http://www.w3.org/2000/svg" xmlns:xlink="http://www.w3.org/1999/xlink">
<g id="graph0" class="graph" transform="scale(1 1) rotate(0) translate(4 158)">
<title>DocHtmlListItem</title>
<polygon fill="white" stroke="none" points="-4,4 -4,-158 416,-158 416,4 -4,4"/>
<!-- Node4 -->
<g id="node1" class="node"><title>Node4</title>
<polygon fill="#bfbfbf" stroke="black" points="167.5,-0.5 167.5,-19.5 258.5,-19.5 258.5,-0.5 167.5,-0.5"/>
<text text-anchor="middle" x="213" y="-7.5" font-family="Helvetica,sans-Serif" font-size="10.00">DocHtmlListItem</text>
</g>
<!-- Node5 -->
<g id="node2" class="node"><title>Node5</title>
<g id="a_node2"><a xlink:href="../../d7/da3/class_comp_accept.html" target="_top" xlink:title="CompAccept\&lt; DocHtmlListItem \&gt;">
<polygon fill="white" stroke="black" points="0,-67.5 0,-86.5 166,-86.5 166,-67.5 0,-67.5"/>
<text text-anchor="middle" x="83" y="-74.5" font-family="Helvetica,sans-Serif" font-size="10.00">CompAccept&lt; DocHtmlListItem &gt;</text>
</a>
</g>
</g>
<!-- Node5&#45;&gt;Node4 -->
<g id="edge1" class="edge"><title>Node5&#45;&gt;Node4</title>
<path fill="none" stroke="midnightblue" d="M109.452,-62.7739C135.2,-49.8999 173.583,-30.7086 195.666,-19.6672"/>
<polygon fill="midnightblue" stroke="midnightblue" points="107.642,-59.7658 100.263,-67.3685 110.773,-66.0268 107.642,-59.7658"/>
</g>
<!-- Node6 -->
<g id="node3" class="node"><title>Node6</title>
<g id="a_node3"><a xlink:href="../../d7/da3/class_comp_accept.html" target="_top" xlink:title="Default accept implementation for compound nodes in the abstract syntax tree. ">
<polygon fill="white" stroke="black" points="34,-134.5 34,-153.5 132,-153.5 132,-134.5 34,-134.5"/>
<text text-anchor="middle" x="83" y="-141.5" font-family="Helvetica,sans-Serif" font-size="10.00">CompAccept&lt; T &gt;</text>
</a>
</g>
</g>
<!-- Node6&#45;&gt;Node5 -->
<g id="edge2" class="edge"><title>Node6&#45;&gt;Node5</title>
<path fill="none" stroke="orange" stroke-dasharray="5,2" d="M83,-124.037C83,-111.67 83,-96.1198 83,-86.6273"/>
<polygon fill="orange" stroke="orange" points="79.5001,-124.234 83,-134.234 86.5001,-124.234 79.5001,-124.234"/>
<text text-anchor="middle" x="131" y="-108" font-family="Helvetica,sans-Serif" font-size="10.00"> &lt; DocHtmlListItem &gt;</text>
</g>
<!-- Node7 -->
<g id="node4" class="node"><title>Node7</title>
<g id="a_node4"><a xlink:href="../../d9/d0e/class_doc_node.html" target="_top" xlink:title="Abstract node interface with type information. ">
<polygon fill="white" stroke="black" points="184,-67.5 184,-86.5 242,-86.5 242,-67.5 184,-67.5"/>
<text text-anchor="middle" x="213" y="-74.5" font-family="Helvetica,sans-Serif" font-size="10.00">DocNode</text>
</a>
</g>
</g>
<!-- Node7&#45;&gt;Node4 -->
<g id="edge3" class="edge"><title>Node7&#45;&gt;Node4</title>
<path fill="none" stroke="midnightblue" d="M213,-57.037C213,-44.6703 213,-29.1198 213,-19.6273"/>
<polygon fill="midnightblue" stroke="midnightblue" points="209.5,-57.2338 213,-67.2338 216.5,-57.2338 209.5,-57.2338"/>
</g>
<!-- Node7&#45;&gt;Node7 -->
<g id="edge4" class="edge"><title>Node7&#45;&gt;Node7</title>
<path fill="none" stroke="#9a32cd" stroke-dasharray="5,2" d="M252.603,-82.0845C257.091,-81.1323 260,-79.4375 260,-77 260,-73 252.167,-71 242.375,-71"/>
<polygon fill="#9a32cd" stroke="#9a32cd" points="252.023,-78.6223 242.375,-83 252.647,-85.5944 252.023,-78.6223"/>
<text text-anchor="middle" x="282" y="-74.5" font-family="Helvetica,sans-Serif" font-size="10.00"> m_parent</text>
</g>
<!-- Node8 -->
<g id="node5" class="node"><title>Node8</title>
<g id="a_node5"><a xlink:href="../../db/d4d/class_html_attrib_list.html" target="_top" xlink:title="A list of Html attributes. ">
<polygon fill="white" stroke="black" points="322.5,-67.5 322.5,-86.5 399.5,-86.5 399.5,-67.5 322.5,-67.5"/>
<text text-anchor="middle" x="361" y="-74.5" font-family="Helvetica,sans-Serif" font-size="10.00">HtmlAttribList</text>
</a>
</g>
</g>
<!-- Node8&#45;&gt;Node4 -->
<g id="edge5" class="edge"><title>Node8&#45;&gt;Node4</title>
<path fill="none" stroke="#9a32cd" stroke-dasharray="5,2" d="M332.04,-63.281C302.73,-50.4085 258.207,-30.8545 232.735,-19.6672"/>
<polygon fill="#9a32cd" stroke="#9a32cd" points="330.783,-66.5518 341.347,-67.3685 333.598,-60.1427 330.783,-66.5518"/>
<text text-anchor="middle" x="318" y="-41" font-family="Helvetica,sans-Serif" font-size="10.00"> m_attribs</text>
</g>
<!-- Node9 -->
<g id="node6" class="node"><title>Node9</title>
<polygon fill="white" stroke="#bfbfbf" points="310,-134.5 310,-153.5 412,-153.5 412,-134.5 310,-134.5"/>
<text text-anchor="middle" x="361" y="-141.5" font-family="Helvetica,sans-Serif" font-size="10.00">QList&lt; HtmlAttrib &gt;</text>
</g>
<!-- Node9&#45;&gt;Node8 -->
<g id="edge6" class="edge"><title>Node9&#45;&gt;Node8</title>
<path fill="none" stroke="midnightblue" d="M361,-124.037C361,-111.67 361,-96.1198 361,-86.6273"/>
<polygon fill="midnightblue" stroke="midnightblue" points="357.5,-124.234 361,-134.234 364.5,-124.234 357.5,-124.234"/>
</g>
</g>
</svg>
