<?xml version="1.0" encoding="UTF-8" standalone="no"?>
<!DOCTYPE svg PUBLIC "-//W3C//DTD SVG 1.1//EN"
 "http://www.w3.org/Graphics/SVG/1.1/DTD/svg11.dtd">
<!-- Generated by graphviz version 2.38.0 (20140413.2041)
 -->
<!-- Title: src/filename.h Pages: 1 -->
<svg width="2016pt" height="84pt"
 viewBox="0.00 0.00 2015.50 84.00" xmlns="http://www.w3.org/2000/svg" xmlns:xlink="http://www.w3.org/1999/xlink">
<g id="graph0" class="graph" transform="scale(1 1) rotate(0) translate(4 80)">
<title>src/filename.h</title>
<polygon fill="white" stroke="none" points="-4,4 -4,-80 2011.5,-80 2011.5,4 -4,4"/>
<!-- Node13 -->
<g id="node1" class="node"><title>Node13</title>
<polygon fill="#bfbfbf" stroke="black" points="944,-56.5 944,-75.5 1022,-75.5 1022,-56.5 944,-56.5"/>
<text text-anchor="middle" x="983" y="-63.5" font-family="Helvetica,sans-Serif" font-size="10.00">src/filename.h</text>
</g>
<!-- Node14 -->
<g id="node2" class="node"><title>Node14</title>
<g id="a_node2"><a xlink:href="../../db/d12/context_8cpp.html" target="_top" xlink:title="src/context.cpp">
<polygon fill="white" stroke="black" points="0,-0.5 0,-19.5 84,-19.5 84,-0.5 0,-0.5"/>
<text text-anchor="middle" x="42" y="-7.5" font-family="Helvetica,sans-Serif" font-size="10.00">src/context.cpp</text>
</a>
</g>
</g>
<!-- Node13&#45;&gt;Node14 -->
<g id="edge1" class="edge"><title>Node13&#45;&gt;Node14</title>
<path fill="none" stroke="midnightblue" d="M933.798,-64.6523C798.928,-63.2378 412.134,-56.0857 93,-20 90.1411,-19.6767 87.2001,-19.2937 84.2421,-18.8708"/>
<polygon fill="midnightblue" stroke="midnightblue" points="933.787,-68.1522 943.821,-64.7516 933.856,-61.1526 933.787,-68.1522"/>
</g>
<!-- Node15 -->
<g id="node3" class="node"><title>Node15</title>
<g id="a_node3"><a xlink:href="../../d3/d17/defgen_8cpp.html" target="_top" xlink:title="src/defgen.cpp">
<polygon fill="white" stroke="black" points="102.5,-0.5 102.5,-19.5 183.5,-19.5 183.5,-0.5 102.5,-0.5"/>
<text text-anchor="middle" x="143" y="-7.5" font-family="Helvetica,sans-Serif" font-size="10.00">src/defgen.cpp</text>
</a>
</g>
</g>
<!-- Node13&#45;&gt;Node15 -->
<g id="edge2" class="edge"><title>Node13&#45;&gt;Node15</title>
<path fill="none" stroke="midnightblue" d="M933.448,-64.2607C808.698,-61.9479 471.716,-52.8998 193,-20 189.934,-19.6381 186.772,-19.207 183.597,-18.7322"/>
<polygon fill="midnightblue" stroke="midnightblue" points="933.748,-67.7665 943.809,-64.4462 933.873,-60.7677 933.748,-67.7665"/>
</g>
<!-- Node16 -->
<g id="node4" class="node"><title>Node16</title>
<g id="a_node4"><a xlink:href="../../d8/d52/dirdef_8cpp.html" target="_top" xlink:title="src/dirdef.cpp">
<polygon fill="white" stroke="black" points="202,-0.5 202,-19.5 278,-19.5 278,-0.5 202,-0.5"/>
<text text-anchor="middle" x="240" y="-7.5" font-family="Helvetica,sans-Serif" font-size="10.00">src/dirdef.cpp</text>
</a>
</g>
</g>
<!-- Node13&#45;&gt;Node16 -->
<g id="edge3" class="edge"><title>Node13&#45;&gt;Node16</title>
<path fill="none" stroke="midnightblue" d="M933.816,-63.9248C819.731,-60.9723 528.397,-50.7944 287,-20 284.116,-19.632 281.141,-19.1965 278.156,-18.7186"/>
<polygon fill="midnightblue" stroke="midnightblue" points="933.891,-67.4277 943.976,-64.1807 934.067,-60.43 933.891,-67.4277"/>
</g>
<!-- Node17 -->
<g id="node5" class="node"><title>Node17</title>
<g id="a_node5"><a xlink:href="../../d8/d29/docbookgen_8cpp.html" target="_top" xlink:title="src/docbookgen.cpp">
<polygon fill="white" stroke="black" points="296,-0.5 296,-19.5 400,-19.5 400,-0.5 296,-0.5"/>
<text text-anchor="middle" x="348" y="-7.5" font-family="Helvetica,sans-Serif" font-size="10.00">src/docbookgen.cpp</text>
</a>
</g>
</g>
<!-- Node13&#45;&gt;Node17 -->
<g id="edge4" class="edge"><title>Node13&#45;&gt;Node17</title>
<path fill="none" stroke="midnightblue" d="M933.898,-62.2837C834.576,-56.5395 602.785,-41.8659 409,-20 406.128,-19.6759 403.183,-19.3201 400.213,-18.9428"/>
<polygon fill="midnightblue" stroke="midnightblue" points="933.753,-65.7811 943.938,-62.86 934.155,-58.7926 933.753,-65.7811"/>
</g>
<!-- Node18 -->
<g id="node6" class="node"><title>Node18</title>
<g id="a_node6"><a xlink:href="../../dc/d05/docbookvisitor_8cpp.html" target="_top" xlink:title="src/docbookvisitor.cpp">
<polygon fill="white" stroke="black" points="418.5,-0.5 418.5,-19.5 533.5,-19.5 533.5,-0.5 418.5,-0.5"/>
<text text-anchor="middle" x="476" y="-7.5" font-family="Helvetica,sans-Serif" font-size="10.00">src/docbookvisitor.cpp</text>
</a>
</g>
</g>
<!-- Node13&#45;&gt;Node18 -->
<g id="edge5" class="edge"><title>Node13&#45;&gt;Node18</title>
<path fill="none" stroke="midnightblue" d="M933.738,-60.5218C852.177,-52.9844 683.99,-36.9206 542,-20 539.244,-19.6716 536.425,-19.3256 533.578,-18.9683"/>
<polygon fill="midnightblue" stroke="midnightblue" points="933.439,-64.009 943.718,-61.4415 934.082,-57.0385 933.439,-64.009"/>
</g>
<!-- Node19 -->
<g id="node7" class="node"><title>Node19</title>
<g id="a_node7"><a xlink:href="../../de/daa/dot_8cpp.html" target="_top" xlink:title="src/dot.cpp">
<polygon fill="white" stroke="black" points="551.5,-0.5 551.5,-19.5 616.5,-19.5 616.5,-0.5 551.5,-0.5"/>
<text text-anchor="middle" x="584" y="-7.5" font-family="Helvetica,sans-Serif" font-size="10.00">src/dot.cpp</text>
</a>
</g>
</g>
<!-- Node13&#45;&gt;Node19 -->
<g id="edge6" class="edge"><title>Node13&#45;&gt;Node19</title>
<path fill="none" stroke="midnightblue" d="M933.721,-60.2405C864.5,-53.2293 734.657,-38.887 625,-20 622.271,-19.53 619.449,-19.0011 616.621,-18.4414"/>
<polygon fill="midnightblue" stroke="midnightblue" points="933.592,-63.745 943.891,-61.2619 934.291,-56.78 933.592,-63.745"/>
</g>
<!-- Node20 -->
<g id="node8" class="node"><title>Node20</title>
<g id="a_node8"><a xlink:href="../../dc/d98/doxygen_8cpp.html" target="_top" xlink:title="src/doxygen.cpp">
<polygon fill="white" stroke="black" points="634.5,-0.5 634.5,-19.5 723.5,-19.5 723.5,-0.5 634.5,-0.5"/>
<text text-anchor="middle" x="679" y="-7.5" font-family="Helvetica,sans-Serif" font-size="10.00">src/doxygen.cpp</text>
</a>
</g>
</g>
<!-- Node13&#45;&gt;Node20 -->
<g id="edge7" class="edge"><title>Node13&#45;&gt;Node20</title>
<path fill="none" stroke="midnightblue" d="M933.832,-56.2662C875.687,-45.9378 779.739,-28.8945 723.644,-18.9302"/>
<polygon fill="midnightblue" stroke="midnightblue" points="933.422,-59.748 943.88,-58.051 934.646,-52.8559 933.422,-59.748"/>
</g>
<!-- Node21 -->
<g id="node9" class="node"><title>Node21</title>
<g id="a_node9"><a xlink:href="../../d6/ddc/filedef_8cpp.html" target="_top" xlink:title="src/filedef.cpp">
<polygon fill="white" stroke="black" points="742,-0.5 742,-19.5 820,-19.5 820,-0.5 742,-0.5"/>
<text text-anchor="middle" x="781" y="-7.5" font-family="Helvetica,sans-Serif" font-size="10.00">src/filedef.cpp</text>
</a>
</g>
</g>
<!-- Node13&#45;&gt;Node21 -->
<g id="edge8" class="edge"><title>Node13&#45;&gt;Node21</title>
<path fill="none" stroke="midnightblue" d="M941.212,-53.8291C903.073,-43.6333 847.519,-28.7823 812.858,-19.5164"/>
<polygon fill="midnightblue" stroke="midnightblue" points="940.428,-57.2422 950.992,-56.4435 942.236,-50.4796 940.428,-57.2422"/>
</g>
<!-- Node22 -->
<g id="node10" class="node"><title>Node22</title>
<g id="a_node10"><a xlink:href="../../de/d36/filename_8cpp.html" target="_top" xlink:title="src/filename.cpp">
<polygon fill="white" stroke="black" points="838.5,-0.5 838.5,-19.5 927.5,-19.5 927.5,-0.5 838.5,-0.5"/>
<text text-anchor="middle" x="883" y="-7.5" font-family="Helvetica,sans-Serif" font-size="10.00">src/filename.cpp</text>
</a>
</g>
</g>
<!-- Node13&#45;&gt;Node22 -->
<g id="edge9" class="edge"><title>Node13&#45;&gt;Node22</title>
<path fill="none" stroke="midnightblue" d="M957.912,-51.4526C939.451,-41.4835 914.903,-28.2279 899.027,-19.6545"/>
<polygon fill="midnightblue" stroke="midnightblue" points="956.471,-54.6521 966.933,-56.324 959.797,-48.4928 956.471,-54.6521"/>
</g>
<!-- Node23 -->
<g id="node11" class="node"><title>Node23</title>
<g id="a_node11"><a xlink:href="../../db/d14/index_8cpp.html" target="_top" xlink:title="This file contains functions for the various index pages. ">
<polygon fill="white" stroke="black" points="945.5,-0.5 945.5,-19.5 1020.5,-19.5 1020.5,-0.5 945.5,-0.5"/>
<text text-anchor="middle" x="983" y="-7.5" font-family="Helvetica,sans-Serif" font-size="10.00">src/index.cpp</text>
</a>
</g>
</g>
<!-- Node13&#45;&gt;Node23 -->
<g id="edge10" class="edge"><title>Node13&#45;&gt;Node23</title>
<path fill="none" stroke="midnightblue" d="M983,-45.8045C983,-36.9102 983,-26.7798 983,-19.7511"/>
<polygon fill="midnightblue" stroke="midnightblue" points="979.5,-46.083 983,-56.083 986.5,-46.083 979.5,-46.083"/>
</g>
<!-- Node24 -->
<g id="node12" class="node"><title>Node24</title>
<g id="a_node12"><a xlink:href="../../d4/d42/latexgen_8cpp.html" target="_top" xlink:title="src/latexgen.cpp">
<polygon fill="white" stroke="black" points="1038.5,-0.5 1038.5,-19.5 1127.5,-19.5 1127.5,-0.5 1038.5,-0.5"/>
<text text-anchor="middle" x="1083" y="-7.5" font-family="Helvetica,sans-Serif" font-size="10.00">src/latexgen.cpp</text>
</a>
</g>
</g>
<!-- Node13&#45;&gt;Node24 -->
<g id="edge11" class="edge"><title>Node13&#45;&gt;Node24</title>
<path fill="none" stroke="midnightblue" d="M1008.09,-51.4526C1026.55,-41.4835 1051.1,-28.2279 1066.97,-19.6545"/>
<polygon fill="midnightblue" stroke="midnightblue" points="1006.2,-48.4928 999.067,-56.324 1009.53,-54.6521 1006.2,-48.4928"/>
</g>
<!-- Node25 -->
<g id="node13" class="node"><title>Node25</title>
<g id="a_node13"><a xlink:href="../../de/dd0/perlmodgen_8cpp.html" target="_top" xlink:title="src/perlmodgen.cpp">
<polygon fill="white" stroke="black" points="1145,-0.5 1145,-19.5 1247,-19.5 1247,-0.5 1145,-0.5"/>
<text text-anchor="middle" x="1196" y="-7.5" font-family="Helvetica,sans-Serif" font-size="10.00">src/perlmodgen.cpp</text>
</a>
</g>
</g>
<!-- Node13&#45;&gt;Node25 -->
<g id="edge12" class="edge"><title>Node13&#45;&gt;Node25</title>
<path fill="none" stroke="midnightblue" d="M1026.55,-53.959C1066.78,-43.7598 1125.7,-28.8217 1162.41,-19.5164"/>
<polygon fill="midnightblue" stroke="midnightblue" points="1025.58,-50.5933 1016.75,-56.4435 1027.3,-57.3787 1025.58,-50.5933"/>
</g>
<!-- Node26 -->
<g id="node14" class="node"><title>Node26</title>
<g id="a_node14"><a xlink:href="../../d0/d9c/rtfgen_8cpp.html" target="_top" xlink:title="src/rtfgen.cpp">
<polygon fill="white" stroke="black" points="1265.5,-0.5 1265.5,-19.5 1342.5,-19.5 1342.5,-0.5 1265.5,-0.5"/>
<text text-anchor="middle" x="1304" y="-7.5" font-family="Helvetica,sans-Serif" font-size="10.00">src/rtfgen.cpp</text>
</a>
</g>
</g>
<!-- Node13&#45;&gt;Node26 -->
<g id="edge13" class="edge"><title>Node13&#45;&gt;Node26</title>
<path fill="none" stroke="midnightblue" d="M1032.5,-57.1762C1087.24,-48.4464 1178,-33.7389 1256,-20 1259.01,-19.4705 1262.12,-18.912 1265.24,-18.343"/>
<polygon fill="midnightblue" stroke="midnightblue" points="1031.7,-53.7587 1022.38,-58.7877 1032.8,-60.6716 1031.7,-53.7587"/>
</g>
<!-- Node27 -->
<g id="node15" class="node"><title>Node27</title>
<g id="a_node15"><a xlink:href="../../d7/d79/searchindex_8cpp.html" target="_top" xlink:title="src/searchindex.cpp">
<polygon fill="white" stroke="black" points="1361,-0.5 1361,-19.5 1465,-19.5 1465,-0.5 1361,-0.5"/>
<text text-anchor="middle" x="1413" y="-7.5" font-family="Helvetica,sans-Serif" font-size="10.00">src/searchindex.cpp</text>
</a>
</g>
</g>
<!-- Node13&#45;&gt;Node27 -->
<g id="edge14" class="edge"><title>Node13&#45;&gt;Node27</title>
<path fill="none" stroke="midnightblue" d="M1032.05,-59.415C1102.8,-51.2704 1237.55,-35.4198 1352,-20 1354.86,-19.6141 1357.8,-19.2095 1360.77,-18.7944"/>
<polygon fill="midnightblue" stroke="midnightblue" points="1031.63,-55.9411 1022.09,-60.5598 1032.43,-62.8953 1031.63,-55.9411"/>
</g>
<!-- Node28 -->
<g id="node16" class="node"><title>Node28</title>
<g id="a_node16"><a xlink:href="../../d4/d7b/tagreader_8cpp.html" target="_top" xlink:title="src/tagreader.cpp">
<polygon fill="white" stroke="black" points="1483,-0.5 1483,-19.5 1575,-19.5 1575,-0.5 1483,-0.5"/>
<text text-anchor="middle" x="1529" y="-7.5" font-family="Helvetica,sans-Serif" font-size="10.00">src/tagreader.cpp</text>
</a>
</g>
</g>
<!-- Node13&#45;&gt;Node28 -->
<g id="edge15" class="edge"><title>Node13&#45;&gt;Node28</title>
<path fill="none" stroke="midnightblue" d="M1032.28,-61.6442C1120.88,-55.3518 1312.89,-40.5387 1474,-20 1476.88,-19.6329 1479.84,-19.2283 1482.82,-18.8"/>
<polygon fill="midnightblue" stroke="midnightblue" points="1031.97,-58.1566 1022.25,-62.3514 1032.47,-65.1393 1031.97,-58.1566"/>
</g>
<!-- Node29 -->
<g id="node17" class="node"><title>Node29</title>
<g id="a_node17"><a xlink:href="../../df/d2d/util_8cpp.html" target="_top" xlink:title="src/util.cpp">
<polygon fill="white" stroke="black" points="1593.5,-0.5 1593.5,-19.5 1658.5,-19.5 1658.5,-0.5 1593.5,-0.5"/>
<text text-anchor="middle" x="1626" y="-7.5" font-family="Helvetica,sans-Serif" font-size="10.00">src/util.cpp</text>
</a>
</g>
</g>
<!-- Node13&#45;&gt;Node29 -->
<g id="edge16" class="edge"><title>Node13&#45;&gt;Node29</title>
<path fill="none" stroke="midnightblue" d="M1032.32,-63.5831C1135.3,-60.1254 1380.49,-49.2839 1584,-20 1586.95,-19.5752 1590.01,-19.0633 1593.06,-18.5021"/>
<polygon fill="midnightblue" stroke="midnightblue" points="1032.1,-60.0883 1022.22,-63.9136 1032.33,-67.0845 1032.1,-60.0883"/>
</g>
<!-- Node30 -->
<g id="node18" class="node"><title>Node30</title>
<g id="a_node18"><a xlink:href="../../de/dea/vhdldocgen_8cpp.html" target="_top" xlink:title="src/vhdldocgen.cpp">
<polygon fill="white" stroke="black" points="1676.5,-0.5 1676.5,-19.5 1777.5,-19.5 1777.5,-0.5 1676.5,-0.5"/>
<text text-anchor="middle" x="1727" y="-7.5" font-family="Helvetica,sans-Serif" font-size="10.00">src/vhdldocgen.cpp</text>
</a>
</g>
</g>
<!-- Node13&#45;&gt;Node30 -->
<g id="edge17" class="edge"><title>Node13&#45;&gt;Node30</title>
<path fill="none" stroke="midnightblue" d="M1032.15,-63.2195C1144.84,-58.8205 1430.46,-45.8717 1668,-20 1670.68,-19.7083 1673.42,-19.383 1676.19,-19.034"/>
<polygon fill="midnightblue" stroke="midnightblue" points="1031.96,-59.7239 1022.1,-63.6066 1032.23,-66.7187 1031.96,-59.7239"/>
</g>
<!-- Node31 -->
<g id="node19" class="node"><title>Node31</title>
<g id="a_node19"><a xlink:href="../../dd/db6/xmldocvisitor_8cpp.html" target="_top" xlink:title="src/xmldocvisitor.cpp">
<polygon fill="white" stroke="black" points="1796,-0.5 1796,-19.5 1906,-19.5 1906,-0.5 1796,-0.5"/>
<text text-anchor="middle" x="1851" y="-7.5" font-family="Helvetica,sans-Serif" font-size="10.00">src/xmldocvisitor.cpp</text>
</a>
</g>
</g>
<!-- Node13&#45;&gt;Node31 -->
<g id="edge18" class="edge"><title>Node13&#45;&gt;Node31</title>
<path fill="none" stroke="midnightblue" d="M1032.53,-63.6722C1158.65,-59.9774 1502.13,-47.9522 1787,-20 1789.9,-19.7151 1792.88,-19.3953 1795.88,-19.0505"/>
<polygon fill="midnightblue" stroke="midnightblue" points="1032.31,-60.177 1022.41,-63.9642 1032.51,-67.1741 1032.31,-60.177"/>
</g>
<!-- Node32 -->
<g id="node20" class="node"><title>Node32</title>
<g id="a_node20"><a xlink:href="../../d0/dc3/xmlgen_8cpp.html" target="_top" xlink:title="src/xmlgen.cpp">
<polygon fill="white" stroke="black" points="1924.5,-0.5 1924.5,-19.5 2007.5,-19.5 2007.5,-0.5 1924.5,-0.5"/>
<text text-anchor="middle" x="1966" y="-7.5" font-family="Helvetica,sans-Serif" font-size="10.00">src/xmlgen.cpp</text>
</a>
</g>
</g>
<!-- Node13&#45;&gt;Node32 -->
<g id="edge19" class="edge"><title>Node13&#45;&gt;Node32</title>
<path fill="none" stroke="midnightblue" d="M1032.55,-64.8083C1171.95,-63.7953 1579.23,-57.5802 1915,-20 1918.04,-19.66 1921.17,-19.2515 1924.31,-18.7988"/>
<polygon fill="midnightblue" stroke="midnightblue" points="1032.18,-61.3106 1022.21,-64.8774 1032.23,-68.3104 1032.18,-61.3106"/>
</g>
</g>
</svg>
