<?xml version="1.0" encoding="UTF-8" standalone="no"?>
<!DOCTYPE svg PUBLIC "-//W3C//DTD SVG 1.1//EN"
 "http://www.w3.org/Graphics/SVG/1.1/DTD/svg11.dtd">
<!-- Generated by graphviz version 2.38.0 (20140413.2041)
 -->
<!-- Title: src/ftvhelp.h Pages: 1 -->
<svg width="128pt" height="140pt"
 viewBox="0.00 0.00 128.00 140.00" xmlns="http://www.w3.org/2000/svg" xmlns:xlink="http://www.w3.org/1999/xlink">
<g id="graph0" class="graph" transform="scale(1 1) rotate(0) translate(4 136)">
<title>src/ftvhelp.h</title>
<polygon fill="white" stroke="none" points="-4,4 -4,-136 124,-136 124,4 -4,4"/>
<!-- Node0 -->
<g id="node1" class="node"><title>Node0</title>
<polygon fill="#bfbfbf" stroke="black" points="12,-112.5 12,-131.5 83,-131.5 83,-112.5 12,-112.5"/>
<text text-anchor="middle" x="47.5" y="-119.5" font-family="Helvetica,sans-Serif" font-size="10.00">src/ftvhelp.h</text>
</g>
<!-- Node1 -->
<g id="node2" class="node"><title>Node1</title>
<polygon fill="white" stroke="#bfbfbf" points="0,-0.5 0,-19.5 43,-19.5 43,-0.5 0,-0.5"/>
<text text-anchor="middle" x="21.5" y="-7.5" font-family="Helvetica,sans-Serif" font-size="10.00">qlist.h</text>
</g>
<!-- Node0&#45;&gt;Node1 -->
<g id="edge1" class="edge"><title>Node0&#45;&gt;Node1</title>
<path fill="none" stroke="midnightblue" d="M45.4598,-112.368C41.264,-94.617 31.5848,-53.6664 25.8958,-29.5974"/>
<polygon fill="midnightblue" stroke="midnightblue" points="29.2372,-28.5182 23.5307,-19.5914 22.4249,-30.1284 29.2372,-28.5182"/>
</g>
<!-- Node2 -->
<g id="node3" class="node"><title>Node2</title>
<g id="a_node3"><a xlink:href="../../d1/db5/index_8h.html" target="_top" xlink:title="index.h">
<polygon fill="white" stroke="black" points="49.5,-56.5 49.5,-75.5 97.5,-75.5 97.5,-56.5 49.5,-56.5"/>
<text text-anchor="middle" x="73.5" y="-63.5" font-family="Helvetica,sans-Serif" font-size="10.00">index.h</text>
</a>
</g>
</g>
<!-- Node0&#45;&gt;Node2 -->
<g id="edge2" class="edge"><title>Node0&#45;&gt;Node2</title>
<path fill="none" stroke="midnightblue" d="M51.7934,-112.083C55.3523,-104.691 60.5225,-93.9533 64.9243,-84.8111"/>
<polygon fill="midnightblue" stroke="midnightblue" points="68.1018,-86.2795 69.2865,-75.7511 61.7948,-83.2427 68.1018,-86.2795"/>
</g>
<!-- Node2&#45;&gt;Node1 -->
<g id="edge3" class="edge"><title>Node2&#45;&gt;Node1</title>
<path fill="none" stroke="midnightblue" d="M64.9133,-56.083C57.341,-48.2195 46.1218,-36.5688 36.9856,-27.0813"/>
<polygon fill="midnightblue" stroke="midnightblue" points="39.3845,-24.5266 29.927,-19.7511 34.3423,-29.3821 39.3845,-24.5266"/>
</g>
<!-- Node3 -->
<g id="node4" class="node"><title>Node3</title>
<polygon fill="white" stroke="#bfbfbf" points="61,-0.5 61,-19.5 120,-19.5 120,-0.5 61,-0.5"/>
<text text-anchor="middle" x="90.5" y="-7.5" font-family="Helvetica,sans-Serif" font-size="10.00">qcstring.h</text>
</g>
<!-- Node2&#45;&gt;Node3 -->
<g id="edge4" class="edge"><title>Node2&#45;&gt;Node3</title>
<path fill="none" stroke="midnightblue" d="M76.3072,-56.083C78.5847,-48.8486 81.8713,-38.4087 84.7084,-29.3968"/>
<polygon fill="midnightblue" stroke="midnightblue" points="88.0806,-30.3406 87.745,-19.7511 81.4036,-28.2385 88.0806,-30.3406"/>
</g>
</g>
</svg>
