<?xml version="1.0" encoding="UTF-8" standalone="no"?>
<!DOCTYPE svg PUBLIC "-//W3C//DTD SVG 1.1//EN"
 "http://www.w3.org/Graphics/SVG/1.1/DTD/svg11.dtd">
<!-- Generated by graphviz version 2.38.0 (20140413.2041)
 -->
<!-- Title: DocSimpleListItem Pages: 1 -->
<svg width="276pt" height="219pt"
 viewBox="0.00 0.00 276.00 219.00" xmlns="http://www.w3.org/2000/svg" xmlns:xlink="http://www.w3.org/1999/xlink">
<g id="graph0" class="graph" transform="scale(1 1) rotate(0) translate(4 215)">
<title>DocSimpleListItem</title>
<polygon fill="white" stroke="none" points="-4,4 -4,-215 272,-215 272,4 -4,4"/>
<!-- Node2 -->
<g id="node1" class="node"><title>Node2</title>
<polygon fill="#bfbfbf" stroke="black" points="1,-0.5 1,-19.5 101,-19.5 101,-0.5 1,-0.5"/>
<text text-anchor="middle" x="51" y="-7.5" font-family="Helvetica,sans-Serif" font-size="10.00">DocSimpleListItem</text>
</g>
<!-- Node3 -->
<g id="node2" class="node"><title>Node3</title>
<g id="a_node2"><a xlink:href="../../d9/d0e/class_doc_node.html" target="_top" xlink:title="Abstract node interface with type information. ">
<polygon fill="white" stroke="black" points="0,-124.5 0,-143.5 58,-143.5 58,-124.5 0,-124.5"/>
<text text-anchor="middle" x="29" y="-131.5" font-family="Helvetica,sans-Serif" font-size="10.00">DocNode</text>
</a>
</g>
</g>
<!-- Node3&#45;&gt;Node2 -->
<g id="edge1" class="edge"><title>Node3&#45;&gt;Node2</title>
<path fill="none" stroke="midnightblue" d="M32.3917,-114.191C37.2235,-87.3972 45.8942,-39.314 49.4322,-19.6944"/>
<polygon fill="midnightblue" stroke="midnightblue" points="28.9125,-113.764 30.5822,-124.226 35.8014,-115.006 28.9125,-113.764"/>
</g>
<!-- Node3&#45;&gt;Node3 -->
<g id="edge2" class="edge"><title>Node3&#45;&gt;Node3</title>
<path fill="none" stroke="#9a32cd" stroke-dasharray="5,2" d="M68.603,-138.449C73.0912,-137.616 76,-136.133 76,-134 76,-130.5 68.1667,-128.75 58.375,-128.75"/>
<polygon fill="#9a32cd" stroke="#9a32cd" points="68.0711,-134.98 58.375,-139.25 68.6178,-141.958 68.0711,-134.98"/>
<text text-anchor="middle" x="98" y="-131.5" font-family="Helvetica,sans-Serif" font-size="10.00"> m_parent</text>
</g>
<!-- Node4 -->
<g id="node3" class="node"><title>Node4</title>
<g id="a_node3"><a xlink:href="../../d3/d01/class_doc_para.html" target="_top" xlink:title="Node representing a paragraph in the documentation tree. ">
<polygon fill="white" stroke="black" points="57.5,-67.5 57.5,-86.5 112.5,-86.5 112.5,-67.5 57.5,-67.5"/>
<text text-anchor="middle" x="85" y="-74.5" font-family="Helvetica,sans-Serif" font-size="10.00">DocPara</text>
</a>
</g>
</g>
<!-- Node3&#45;&gt;Node4 -->
<g id="edge6" class="edge"><title>Node3&#45;&gt;Node4</title>
<path fill="none" stroke="midnightblue" d="M45.1658,-117.123C55.2448,-107.224 67.831,-94.8624 76.1266,-86.7149"/>
<polygon fill="midnightblue" stroke="midnightblue" points="42.432,-114.902 37.75,-124.406 47.337,-119.896 42.432,-114.902"/>
</g>
<!-- Node4&#45;&gt;Node2 -->
<g id="edge3" class="edge"><title>Node4&#45;&gt;Node2</title>
<path fill="none" stroke="#9a32cd" stroke-dasharray="5,2" d="M75.6701,-58.1635C69.1132,-45.6281 60.63,-29.4104 55.5127,-19.6273"/>
<polygon fill="#9a32cd" stroke="#9a32cd" points="72.6782,-59.9951 80.4146,-67.2338 78.8809,-56.7506 72.6782,-59.9951"/>
<text text-anchor="middle" x="101" y="-41" font-family="Helvetica,sans-Serif" font-size="10.00"> m_paragraph</text>
</g>
<!-- Node5 -->
<g id="node4" class="node"><title>Node5</title>
<g id="a_node4"><a xlink:href="../../d7/da3/class_comp_accept.html" target="_top" xlink:title="CompAccept\&lt; DocPara \&gt;">
<polygon fill="white" stroke="black" points="138,-124.5 138,-143.5 268,-143.5 268,-124.5 138,-124.5"/>
<text text-anchor="middle" x="203" y="-131.5" font-family="Helvetica,sans-Serif" font-size="10.00">CompAccept&lt; DocPara &gt;</text>
</a>
</g>
</g>
<!-- Node5&#45;&gt;Node4 -->
<g id="edge4" class="edge"><title>Node5&#45;&gt;Node4</title>
<path fill="none" stroke="midnightblue" d="M175.315,-120.096C153.108,-109.745 122.568,-95.5106 103.308,-86.5334"/>
<polygon fill="midnightblue" stroke="midnightblue" points="174.02,-123.354 184.562,-124.406 176.977,-117.009 174.02,-123.354"/>
</g>
<!-- Node6 -->
<g id="node5" class="node"><title>Node6</title>
<g id="a_node5"><a xlink:href="../../d7/da3/class_comp_accept.html" target="_top" xlink:title="Default accept implementation for compound nodes in the abstract syntax tree. ">
<polygon fill="white" stroke="black" points="154,-191.5 154,-210.5 252,-210.5 252,-191.5 154,-191.5"/>
<text text-anchor="middle" x="203" y="-198.5" font-family="Helvetica,sans-Serif" font-size="10.00">CompAccept&lt; T &gt;</text>
</a>
</g>
</g>
<!-- Node6&#45;&gt;Node5 -->
<g id="edge5" class="edge"><title>Node6&#45;&gt;Node5</title>
<path fill="none" stroke="orange" stroke-dasharray="5,2" d="M203,-181.037C203,-168.67 203,-153.12 203,-143.627"/>
<polygon fill="orange" stroke="orange" points="199.5,-181.234 203,-191.234 206.5,-181.234 199.5,-181.234"/>
<text text-anchor="middle" x="233" y="-165" font-family="Helvetica,sans-Serif" font-size="10.00"> &lt; DocPara &gt;</text>
</g>
</g>
</svg>
