<?xml version="1.0" encoding="UTF-8" standalone="no"?>
<!DOCTYPE svg PUBLIC "-//W3C//DTD SVG 1.1//EN"
 "http://www.w3.org/Graphics/SVG/1.1/DTD/svg11.dtd">
<!-- Generated by graphviz version 2.38.0 (20140413.2041)
 -->
<!-- Title: src/constexp.h Pages: 1 -->
<svg width="175pt" height="140pt"
 viewBox="0.00 0.00 174.50 140.00" xmlns="http://www.w3.org/2000/svg" xmlns:xlink="http://www.w3.org/1999/xlink">
<g id="graph0" class="graph" transform="scale(1 1) rotate(0) translate(4 136)">
<title>src/constexp.h</title>
<polygon fill="white" stroke="none" points="-4,4 -4,-136 170.5,-136 170.5,4 -4,4"/>
<!-- Node0 -->
<g id="node1" class="node"><title>Node0</title>
<polygon fill="#bfbfbf" stroke="black" points="56.5,-112.5 56.5,-131.5 137.5,-131.5 137.5,-112.5 56.5,-112.5"/>
<text text-anchor="middle" x="97" y="-119.5" font-family="Helvetica,sans-Serif" font-size="10.00">src/constexp.h</text>
</g>
<!-- Node1 -->
<g id="node2" class="node"><title>Node1</title>
<g id="a_node2"><a xlink:href="../../d6/dcc/cppvalue_8h.html" target="_top" xlink:title="cppvalue.h">
<polygon fill="white" stroke="black" points="25,-56.5 25,-75.5 89,-75.5 89,-56.5 25,-56.5"/>
<text text-anchor="middle" x="57" y="-63.5" font-family="Helvetica,sans-Serif" font-size="10.00">cppvalue.h</text>
</a>
</g>
</g>
<!-- Node0&#45;&gt;Node1 -->
<g id="edge1" class="edge"><title>Node0&#45;&gt;Node1</title>
<path fill="none" stroke="midnightblue" d="M90.3948,-112.083C84.7448,-104.455 76.4552,-93.2645 69.5488,-83.9408"/>
<polygon fill="midnightblue" stroke="midnightblue" points="72.2471,-81.7034 63.4823,-75.7511 66.6221,-85.87 72.2471,-81.7034"/>
</g>
<!-- Node4 -->
<g id="node5" class="node"><title>Node4</title>
<polygon fill="white" stroke="#bfbfbf" points="107.5,-56.5 107.5,-75.5 166.5,-75.5 166.5,-56.5 107.5,-56.5"/>
<text text-anchor="middle" x="137" y="-63.5" font-family="Helvetica,sans-Serif" font-size="10.00">qcstring.h</text>
</g>
<!-- Node0&#45;&gt;Node4 -->
<g id="edge4" class="edge"><title>Node0&#45;&gt;Node4</title>
<path fill="none" stroke="midnightblue" d="M103.605,-112.083C109.255,-104.455 117.545,-93.2645 124.451,-83.9408"/>
<polygon fill="midnightblue" stroke="midnightblue" points="127.378,-85.87 130.518,-75.7511 121.753,-81.7034 127.378,-85.87"/>
</g>
<!-- Node2 -->
<g id="node3" class="node"><title>Node2</title>
<polygon fill="white" stroke="#bfbfbf" points="0,-0.5 0,-19.5 46,-19.5 46,-0.5 0,-0.5"/>
<text text-anchor="middle" x="23" y="-7.5" font-family="Helvetica,sans-Serif" font-size="10.00">stdio.h</text>
</g>
<!-- Node1&#45;&gt;Node2 -->
<g id="edge2" class="edge"><title>Node1&#45;&gt;Node2</title>
<path fill="none" stroke="midnightblue" d="M51.3856,-56.083C46.6326,-48.5341 39.6819,-37.4948 33.8484,-28.2298"/>
<polygon fill="midnightblue" stroke="midnightblue" points="36.7999,-26.3486 28.5099,-19.7511 30.8763,-30.0783 36.7999,-26.3486"/>
</g>
<!-- Node3 -->
<g id="node4" class="node"><title>Node3</title>
<polygon fill="white" stroke="#bfbfbf" points="64,-0.5 64,-19.5 120,-19.5 120,-0.5 64,-0.5"/>
<text text-anchor="middle" x="92" y="-7.5" font-family="Helvetica,sans-Serif" font-size="10.00">qglobal.h</text>
</g>
<!-- Node1&#45;&gt;Node3 -->
<g id="edge3" class="edge"><title>Node1&#45;&gt;Node3</title>
<path fill="none" stroke="midnightblue" d="M62.7795,-56.083C67.6724,-48.5341 74.8274,-37.4948 80.8326,-28.2298"/>
<polygon fill="midnightblue" stroke="midnightblue" points="83.826,-30.0463 86.328,-19.7511 77.952,-26.239 83.826,-30.0463"/>
</g>
</g>
</svg>
