<?xml version="1.0" encoding="UTF-8" standalone="no"?>
<!DOCTYPE svg PUBLIC "-//W3C//DTD SVG 1.1//EN"
 "http://www.w3.org/Graphics/SVG/1.1/DTD/svg11.dtd">
<!-- Generated by graphviz version 2.38.0 (20140413.2041)
 -->
<!-- Title: src/store.h Pages: 1 -->
<svg width="214pt" height="140pt"
 viewBox="0.00 0.00 214.00 140.00" xmlns="http://www.w3.org/2000/svg" xmlns:xlink="http://www.w3.org/1999/xlink">
<g id="graph0" class="graph" transform="scale(1 1) rotate(0) translate(4 136)">
<title>src/store.h</title>
<polygon fill="white" stroke="none" points="-4,4 -4,-136 210,-136 210,4 -4,4"/>
<!-- Node0 -->
<g id="node1" class="node"><title>Node0</title>
<polygon fill="#bfbfbf" stroke="black" points="76.5,-112.5 76.5,-131.5 139.5,-131.5 139.5,-112.5 76.5,-112.5"/>
<text text-anchor="middle" x="108" y="-119.5" font-family="Helvetica,sans-Serif" font-size="10.00">src/store.h</text>
</g>
<!-- Node1 -->
<g id="node2" class="node"><title>Node1</title>
<polygon fill="white" stroke="#bfbfbf" points="0,-0.5 0,-19.5 56,-19.5 56,-0.5 0,-0.5"/>
<text text-anchor="middle" x="28" y="-7.5" font-family="Helvetica,sans-Serif" font-size="10.00">qglobal.h</text>
</g>
<!-- Node0&#45;&gt;Node1 -->
<g id="edge1" class="edge"><title>Node0&#45;&gt;Node1</title>
<path fill="none" stroke="midnightblue" d="M99.8187,-112.366C91.6273,-103.541 78.8573,-89.2833 69,-76 57.4837,-60.4811 45.874,-41.7151 37.9633,-28.3444"/>
<polygon fill="midnightblue" stroke="midnightblue" points="40.9738,-26.5589 32.911,-19.6856 34.9277,-30.0868 40.9738,-26.5589"/>
</g>
<!-- Node2 -->
<g id="node3" class="node"><title>Node2</title>
<polygon fill="white" stroke="#bfbfbf" points="160,-0.5 160,-19.5 206,-19.5 206,-0.5 160,-0.5"/>
<text text-anchor="middle" x="183" y="-7.5" font-family="Helvetica,sans-Serif" font-size="10.00">stdio.h</text>
</g>
<!-- Node0&#45;&gt;Node2 -->
<g id="edge2" class="edge"><title>Node0&#45;&gt;Node2</title>
<path fill="none" stroke="midnightblue" d="M116.073,-112.422C124.133,-103.64 136.636,-89.4158 146,-76 156.66,-60.7272 166.99,-42.1631 174.014,-28.7907"/>
<polygon fill="midnightblue" stroke="midnightblue" points="177.22,-30.2096 178.69,-19.7173 170.998,-27.0024 177.22,-30.2096"/>
</g>
<!-- Node3 -->
<g id="node4" class="node"><title>Node3</title>
<g id="a_node4"><a xlink:href="../../d2/de2/portable_8h.html" target="_top" xlink:title="Portable versions of functions that are platform dependent. ">
<polygon fill="white" stroke="black" points="78.5,-56.5 78.5,-75.5 137.5,-75.5 137.5,-56.5 78.5,-56.5"/>
<text text-anchor="middle" x="108" y="-63.5" font-family="Helvetica,sans-Serif" font-size="10.00">portable.h</text>
</a>
</g>
</g>
<!-- Node0&#45;&gt;Node3 -->
<g id="edge3" class="edge"><title>Node0&#45;&gt;Node3</title>
<path fill="none" stroke="midnightblue" d="M108,-112.083C108,-105.006 108,-94.8611 108,-85.9865"/>
<polygon fill="midnightblue" stroke="midnightblue" points="111.5,-85.751 108,-75.7511 104.5,-85.7511 111.5,-85.751"/>
</g>
<!-- Node3&#45;&gt;Node1 -->
<g id="edge6" class="edge"><title>Node3&#45;&gt;Node1</title>
<path fill="none" stroke="midnightblue" d="M95.1466,-56.324C82.7836,-47.979 63.8699,-35.2122 49.2628,-25.3524"/>
<polygon fill="midnightblue" stroke="midnightblue" points="51.0682,-22.3483 40.8215,-19.6545 47.1518,-28.1503 51.0682,-22.3483"/>
</g>
<!-- Node3&#45;&gt;Node2 -->
<g id="edge5" class="edge"><title>Node3&#45;&gt;Node2</title>
<path fill="none" stroke="midnightblue" d="M120.05,-56.324C131.463,-48.1066 148.831,-35.6017 162.435,-25.8069"/>
<polygon fill="midnightblue" stroke="midnightblue" points="164.66,-28.5174 170.731,-19.8339 160.57,-22.8366 164.66,-28.5174"/>
</g>
<!-- Node4 -->
<g id="node5" class="node"><title>Node4</title>
<polygon fill="white" stroke="#bfbfbf" points="74,-0.5 74,-19.5 142,-19.5 142,-0.5 74,-0.5"/>
<text text-anchor="middle" x="108" y="-7.5" font-family="Helvetica,sans-Serif" font-size="10.00">sys/types.h</text>
</g>
<!-- Node3&#45;&gt;Node4 -->
<g id="edge4" class="edge"><title>Node3&#45;&gt;Node4</title>
<path fill="none" stroke="midnightblue" d="M108,-56.083C108,-49.0059 108,-38.8611 108,-29.9865"/>
<polygon fill="midnightblue" stroke="midnightblue" points="111.5,-29.751 108,-19.7511 104.5,-29.7511 111.5,-29.751"/>
</g>
</g>
</svg>
