<?xml version="1.0" encoding="UTF-8" standalone="no"?>
<!DOCTYPE svg PUBLIC "-//W3C//DTD SVG 1.1//EN"
 "http://www.w3.org/Graphics/SVG/1.1/DTD/svg11.dtd">
<!-- Generated by graphviz version 2.38.0 (20140413.2041)
 -->
<!-- Title: ClassSDict Pages: 1 -->
<svg width="361pt" height="162pt"
 viewBox="0.00 0.00 361.00 162.00" xmlns="http://www.w3.org/2000/svg" xmlns:xlink="http://www.w3.org/1999/xlink">
<g id="graph0" class="graph" transform="scale(1 1) rotate(0) translate(4 158)">
<title>ClassSDict</title>
<polygon fill="white" stroke="none" points="-4,4 -4,-158 357,-158 357,4 -4,4"/>
<!-- Node3 -->
<g id="node1" class="node"><title>Node3</title>
<polygon fill="#bfbfbf" stroke="black" points="286,-0.5 286,-19.5 353,-19.5 353,-0.5 286,-0.5"/>
<text text-anchor="middle" x="319.5" y="-7.5" font-family="Helvetica,sans-Serif" font-size="10.00">ClassSDict</text>
</g>
<!-- Node4 -->
<g id="node2" class="node"><title>Node4</title>
<g id="a_node2"><a xlink:href="../../d1/d50/class_s_dict.html" target="_top" xlink:title="SDict\&lt; ClassDef \&gt;">
<polygon fill="white" stroke="black" points="224,-67.5 224,-86.5 325,-86.5 325,-67.5 224,-67.5"/>
<text text-anchor="middle" x="274.5" y="-74.5" font-family="Helvetica,sans-Serif" font-size="10.00">SDict&lt; ClassDef &gt;</text>
</a>
</g>
</g>
<!-- Node4&#45;&gt;Node3 -->
<g id="edge1" class="edge"><title>Node4&#45;&gt;Node3</title>
<path fill="none" stroke="midnightblue" d="M294.932,-60.8271C298.81,-57.2657 302.565,-53.2563 305.5,-49 311.726,-39.9703 315.563,-27.8347 317.61,-19.7316"/>
<polygon fill="midnightblue" stroke="midnightblue" points="292.449,-58.3415 287.027,-67.4437 296.941,-63.7094 292.449,-58.3415"/>
</g>
<!-- Node5 -->
<g id="node3" class="node"><title>Node5</title>
<g id="a_node3"><a xlink:href="../../df/dce/class_s_list.html" target="_top" xlink:title="SList\&lt; ClassDef \&gt;">
<polygon fill="white" stroke="black" points="116.5,-0.5 116.5,-19.5 214.5,-19.5 214.5,-0.5 116.5,-0.5"/>
<text text-anchor="middle" x="165.5" y="-7.5" font-family="Helvetica,sans-Serif" font-size="10.00">SList&lt; ClassDef &gt;</text>
</a>
</g>
</g>
<!-- Node4&#45;&gt;Node5 -->
<g id="edge4" class="edge"><title>Node4&#45;&gt;Node5</title>
<path fill="none" stroke="#9a32cd" stroke-dasharray="5,2" d="M235.847,-63.8954C225.593,-59.8881 214.795,-54.9107 205.5,-49 192.567,-40.7766 180.176,-27.9887 172.7,-19.5542"/>
<polygon fill="#9a32cd" stroke="#9a32cd" points="234.852,-67.2589 245.445,-67.4389 237.276,-60.6921 234.852,-67.2589"/>
<text text-anchor="middle" x="227" y="-41" font-family="Helvetica,sans-Serif" font-size="10.00"> m_owner</text>
</g>
<!-- Node5&#45;&gt;Node4 -->
<g id="edge2" class="edge"><title>Node5&#45;&gt;Node4</title>
<path fill="none" stroke="#9a32cd" stroke-dasharray="5,2" d="M224.34,-22.6665C234.404,-26.4392 244.256,-31.4222 252.5,-38 262.034,-45.6072 268.244,-58.5491 271.561,-67.1858"/>
<polygon fill="#9a32cd" stroke="#9a32cd" points="225.266,-19.2853 214.672,-19.4077 223.03,-25.9186 225.266,-19.2853"/>
<text text-anchor="middle" x="277.5" y="-41" font-family="Helvetica,sans-Serif" font-size="10.00"> m_list</text>
</g>
<!-- Node6 -->
<g id="node4" class="node"><title>Node6</title>
<polygon fill="white" stroke="#bfbfbf" points="0,-67.5 0,-86.5 99,-86.5 99,-67.5 0,-67.5"/>
<text text-anchor="middle" x="49.5" y="-74.5" font-family="Helvetica,sans-Serif" font-size="10.00">QList&lt; ClassDef &gt;</text>
</g>
<!-- Node6&#45;&gt;Node5 -->
<g id="edge3" class="edge"><title>Node6&#45;&gt;Node5</title>
<path fill="none" stroke="midnightblue" d="M73.9721,-62.2872C96.9624,-49.4047 130.657,-30.5243 150.104,-19.6273"/>
<polygon fill="midnightblue" stroke="midnightblue" points="72.1571,-59.2921 65.1443,-67.2338 75.579,-65.3988 72.1571,-59.2921"/>
</g>
<!-- Node7 -->
<g id="node5" class="node"><title>Node7</title>
<g id="a_node5"><a xlink:href="../../df/dce/class_s_list.html" target="_top" xlink:title="internal wrapper class that redirects compareValues() to the dictionary ">
<polygon fill="white" stroke="black" points="117,-67.5 117,-86.5 180,-86.5 180,-67.5 117,-67.5"/>
<text text-anchor="middle" x="148.5" y="-74.5" font-family="Helvetica,sans-Serif" font-size="10.00">SList&lt; T &gt;</text>
</a>
</g>
</g>
<!-- Node7&#45;&gt;Node5 -->
<g id="edge5" class="edge"><title>Node7&#45;&gt;Node5</title>
<path fill="none" stroke="orange" stroke-dasharray="5,2" d="M129.198,-60.32C123.313,-53.6022 119.366,-45.5724 123.5,-38 127.903,-29.9351 135.861,-23.9199 143.674,-19.6396"/>
<polygon fill="orange" stroke="orange" points="127.003,-63.0663 136.627,-67.4974 131.867,-58.032 127.003,-63.0663"/>
<text text-anchor="middle" x="155" y="-41" font-family="Helvetica,sans-Serif" font-size="10.00"> &lt; ClassDef &gt;</text>
</g>
<!-- Node8 -->
<g id="node6" class="node"><title>Node8</title>
<polygon fill="white" stroke="#bfbfbf" points="116.5,-134.5 116.5,-153.5 180.5,-153.5 180.5,-134.5 116.5,-134.5"/>
<text text-anchor="middle" x="148.5" y="-141.5" font-family="Helvetica,sans-Serif" font-size="10.00">QList&lt; T &gt;</text>
</g>
<!-- Node8&#45;&gt;Node7 -->
<g id="edge6" class="edge"><title>Node8&#45;&gt;Node7</title>
<path fill="none" stroke="midnightblue" d="M148.5,-124.037C148.5,-111.67 148.5,-96.1198 148.5,-86.6273"/>
<polygon fill="midnightblue" stroke="midnightblue" points="145,-124.234 148.5,-134.234 152,-124.234 145,-124.234"/>
</g>
<!-- Node9 -->
<g id="node7" class="node"><title>Node9</title>
<g id="a_node7"><a xlink:href="../../d1/d50/class_s_dict.html" target="_top" xlink:title="Ordered dictionary of elements of type T. ">
<polygon fill="white" stroke="black" points="242,-134.5 242,-153.5 307,-153.5 307,-134.5 242,-134.5"/>
<text text-anchor="middle" x="274.5" y="-141.5" font-family="Helvetica,sans-Serif" font-size="10.00">SDict&lt; T &gt;</text>
</a>
</g>
</g>
<!-- Node9&#45;&gt;Node4 -->
<g id="edge7" class="edge"><title>Node9&#45;&gt;Node4</title>
<path fill="none" stroke="orange" stroke-dasharray="5,2" d="M274.5,-124.037C274.5,-111.67 274.5,-96.1198 274.5,-86.6273"/>
<polygon fill="orange" stroke="orange" points="271,-124.234 274.5,-134.234 278,-124.234 271,-124.234"/>
<text text-anchor="middle" x="306" y="-108" font-family="Helvetica,sans-Serif" font-size="10.00"> &lt; ClassDef &gt;</text>
</g>
</g>
</svg>
