<?xml version="1.0" encoding="UTF-8" standalone="no"?>
<!DOCTYPE svg PUBLIC "-//W3C//DTD SVG 1.1//EN"
 "http://www.w3.org/Graphics/SVG/1.1/DTD/svg11.dtd">
<!-- Generated by graphviz version 2.38.0 (20140413.2041)
 -->
<!-- Title: src/language.cpp Pages: 1 -->
<!--zoomable 364 -->
<svg id="main" version="1.1" xmlns="http://www.w3.org/2000/svg" xmlns:xlink="http://www.w3.org/1999/xlink" xml:space="preserve" onload="init(evt)">
<style type="text/css"><![CDATA[
.edge:hover path { stroke: red; }
.edge:hover polygon { stroke: red; fill: red; }
]]></style>
<script type="text/javascript"><![CDATA[
var edges = document.getElementsByTagName('g');
if (edges && edges.length) {
  for (var i=0;i<edges.length;i++) {
    if (edges[i].id.substr(0,4)=='edge') {
      edges[i].setAttribute('class','edge');
    }
  }
}
]]></script>
        <defs>
                <circle id="rim" cx="0" cy="0" r="7"/>
                <circle id="rim2" cx="0" cy="0" r="3.5"/>
                <g id="zoomPlus">
                        <use xlink:href="#rim" fill="#404040">
                                <set attributeName="fill" to="#808080" begin="zoomplus.mouseover" end="zoomplus.mouseout"/>
                        </use>
                        <path d="M-4,0h8M0,-4v8" fill="none" stroke="white" stroke-width="1.5" pointer-events="none"/>
                </g>
                <g id="zoomMin">
                        <use xlink:href="#rim" fill="#404040">
                                <set attributeName="fill" to="#808080" begin="zoomminus.mouseover" end="zoomminus.mouseout"/>
                        </use>
                        <path d="M-4,0h8" fill="none" stroke="white" stroke-width="1.5" pointer-events="none"/>
                </g>
                <g id="dirArrow">
                        <path fill="none" stroke="white" stroke-width="1.5" d="M0,-3.0v7 M-2.5,-0.5L0,-3.0L2.5,-0.5"/>
                </g>
               <g id="resetDef">
                       <use xlink:href="#rim2" fill="#404040">
                               <set attributeName="fill" to="#808080" begin="reset.mouseover" end="reset.mouseout"/>
                       </use>
               </g>
        </defs>

<script type="text/javascript">
var viewWidth = 752;
var viewHeight = 364;
var sectionId = 'dynsection-0';
</script>
<script xlink:href="../../svgpan.js"/>
<svg id="graph" class="graph">
<g id="viewport">
<title>src/language.cpp</title>
<polygon fill="white" stroke="none" points="-4,4 -4,-360 747.5,-360 747.5,4 -4,4"/>
<!-- Node0 -->
<g id="node1" class="node"><title>Node0</title>
<polygon fill="#bfbfbf" stroke="black" points="357.5,-336.5 357.5,-355.5 448.5,-355.5 448.5,-336.5 357.5,-336.5"/>
<text text-anchor="middle" x="403" y="-343.5" font-family="Helvetica,sans-Serif" font-size="10.00">src/language.cpp</text>
</g>
<!-- Node1 -->
<g id="node2" class="node"><title>Node1</title>
<g id="a_node2"><a xlink:href="../../d2/d0d/message_8h.html" target="_top" xlink:title="message.h">
<polygon fill="white" stroke="black" points="85.5,-280.5 85.5,-299.5 150.5,-299.5 150.5,-280.5 85.5,-280.5"/>
<text text-anchor="middle" x="118" y="-287.5" font-family="Helvetica,sans-Serif" font-size="10.00">message.h</text>
</a>
</g>
</g>
<!-- Node0&#45;&gt;Node1 -->
<g id="edge1" class="edge"><title>Node0&#45;&gt;Node1</title>
<path fill="none" stroke="midnightblue" d="M357.841,-336.444C303.691,-326.183 213.618,-309.117 160.62,-299.075"/>
<polygon fill="midnightblue" stroke="midnightblue" points="161.014,-295.588 150.537,-297.165 159.711,-302.465 161.014,-295.588"/>
</g>
<!-- Node4 -->
<g id="node5" class="node"><title>Node4</title>
<g id="a_node5"><a xlink:href="../../db/d16/config_8h.html" target="_top" xlink:title="config.h">
<polygon fill="white" stroke="black" points="227.5,-280.5 227.5,-299.5 278.5,-299.5 278.5,-280.5 227.5,-280.5"/>
<text text-anchor="middle" x="253" y="-287.5" font-family="Helvetica,sans-Serif" font-size="10.00">config.h</text>
</a>
</g>
</g>
<!-- Node0&#45;&gt;Node4 -->
<g id="edge4" class="edge"><title>Node0&#45;&gt;Node4</title>
<path fill="none" stroke="midnightblue" d="M379.232,-336.444C354.107,-327.399 314.289,-313.064 286.1,-302.916"/>
<polygon fill="midnightblue" stroke="midnightblue" points="287.251,-299.611 276.657,-299.516 284.88,-306.197 287.251,-299.611"/>
</g>
<!-- Node6 -->
<g id="node7" class="node"><title>Node6</title>
<g id="a_node7"><a xlink:href="../../d8/d3c/util_8h.html" target="_top" xlink:title="A bunch of utility functions. ">
<polygon fill="white" stroke="black" points="300,-224.5 300,-243.5 338,-243.5 338,-224.5 300,-224.5"/>
<text text-anchor="middle" x="319" y="-231.5" font-family="Helvetica,sans-Serif" font-size="10.00">util.h</text>
</a>
</g>
</g>
<!-- Node0&#45;&gt;Node6 -->
<g id="edge6" class="edge"><title>Node0&#45;&gt;Node6</title>
<path fill="none" stroke="midnightblue" d="M380.616,-336.493C364.582,-329.23 343.812,-317.204 332,-300 322.738,-286.51 319.755,-267.953 318.932,-254.12"/>
<polygon fill="midnightblue" stroke="midnightblue" points="322.423,-253.729 318.659,-243.825 315.425,-253.915 322.423,-253.729"/>
</g>
<!-- Node17 -->
<g id="node18" class="node"><title>Node17</title>
<g id="a_node18"><a xlink:href="../../d8/dce/language_8h.html" target="_top" xlink:title="language.h">
<polygon fill="white" stroke="black" points="341,-280.5 341,-299.5 405,-299.5 405,-280.5 341,-280.5"/>
<text text-anchor="middle" x="373" y="-287.5" font-family="Helvetica,sans-Serif" font-size="10.00">language.h</text>
</a>
</g>
</g>
<!-- Node0&#45;&gt;Node17 -->
<g id="edge23" class="edge"><title>Node0&#45;&gt;Node17</title>
<path fill="none" stroke="midnightblue" d="M398.046,-336.083C393.896,-328.613 387.847,-317.724 382.733,-308.52"/>
<polygon fill="midnightblue" stroke="midnightblue" points="385.778,-306.793 377.862,-299.751 379.659,-310.192 385.778,-306.793"/>
</g>
<!-- Node18 -->
<g id="node19" class="node"><title>Node18</title>
<g id="a_node19"><a xlink:href="../../d9/df1/translator_8h.html" target="_top" xlink:title="translator.h">
<polygon fill="white" stroke="black" points="449.5,-224.5 449.5,-243.5 514.5,-243.5 514.5,-224.5 449.5,-224.5"/>
<text text-anchor="middle" x="482" y="-231.5" font-family="Helvetica,sans-Serif" font-size="10.00">translator.h</text>
</a>
</g>
</g>
<!-- Node0&#45;&gt;Node18 -->
<g id="edge34" class="edge"><title>Node0&#45;&gt;Node18</title>
<path fill="none" stroke="midnightblue" d="M409.199,-336.368C422.236,-318.215 452.697,-275.802 469.798,-251.99"/>
<polygon fill="midnightblue" stroke="midnightblue" points="472.839,-253.755 475.83,-243.591 467.154,-249.672 472.839,-253.755"/>
</g>
<!-- Node22 -->
<g id="node23" class="node"><title>Node22</title>
<polygon fill="white" stroke="#bfbfbf" points="461,-280.5 461,-299.5 523,-299.5 523,-280.5 461,-280.5"/>
<text text-anchor="middle" x="492" y="-287.5" font-family="Helvetica,sans-Serif" font-size="10.00">lang_cfg.h</text>
</g>
<!-- Node0&#45;&gt;Node22 -->
<g id="edge33" class="edge"><title>Node0&#45;&gt;Node22</title>
<path fill="none" stroke="midnightblue" d="M417.299,-336.324C431.183,-327.9 452.492,-314.971 468.804,-305.074"/>
<polygon fill="midnightblue" stroke="midnightblue" points="471.002,-307.834 477.736,-299.655 467.371,-301.85 471.002,-307.834"/>
</g>
<!-- Node23 -->
<g id="node24" class="node"><title>Node23</title>
<g id="a_node24"><a xlink:href="../../da/d46/translator__en_8h.html" target="_top" xlink:title="translator_en.h">
<polygon fill="white" stroke="black" points="541.5,-280.5 541.5,-299.5 622.5,-299.5 622.5,-280.5 541.5,-280.5"/>
<text text-anchor="middle" x="582" y="-287.5" font-family="Helvetica,sans-Serif" font-size="10.00">translator_en.h</text>
</a>
</g>
</g>
<!-- Node0&#45;&gt;Node23 -->
<g id="edge35" class="edge"><title>Node0&#45;&gt;Node23</title>
<path fill="none" stroke="midnightblue" d="M431.363,-336.444C461.738,-327.28 510.11,-312.688 543.816,-302.519"/>
<polygon fill="midnightblue" stroke="midnightblue" points="545.207,-305.756 553.77,-299.516 543.185,-299.054 545.207,-305.756"/>
</g>
<!-- Node24 -->
<g id="node25" class="node"><title>Node24</title>
<g id="a_node25"><a xlink:href="../../da/de6/translator__adapter_8h.html" target="_top" xlink:title="translator_adapter.h">
<polygon fill="white" stroke="black" points="640.5,-280.5 640.5,-299.5 743.5,-299.5 743.5,-280.5 640.5,-280.5"/>
<text text-anchor="middle" x="692" y="-287.5" font-family="Helvetica,sans-Serif" font-size="10.00">translator_adapter.h</text>
</a>
</g>
</g>
<!-- Node0&#45;&gt;Node24 -->
<g id="edge36" class="edge"><title>Node0&#45;&gt;Node24</title>
<path fill="none" stroke="midnightblue" d="M448.793,-336.444C499.737,-326.925 582.034,-311.547 636.574,-301.356"/>
<polygon fill="midnightblue" stroke="midnightblue" points="637.234,-304.794 646.421,-299.516 635.949,-297.913 637.234,-304.794"/>
</g>
<!-- Node2 -->
<g id="node3" class="node"><title>Node2</title>
<polygon fill="white" stroke="#bfbfbf" points="0,-112.5 0,-131.5 46,-131.5 46,-112.5 0,-112.5"/>
<text text-anchor="middle" x="23" y="-119.5" font-family="Helvetica,sans-Serif" font-size="10.00">stdio.h</text>
</g>
<!-- Node1&#45;&gt;Node2 -->
<g id="edge2" class="edge"><title>Node1&#45;&gt;Node2</title>
<path fill="none" stroke="midnightblue" d="M110.478,-280.42C102.988,-271.636 91.421,-257.411 83,-244 61.0597,-209.058 40.9338,-164.985 30.4937,-140.841"/>
<polygon fill="midnightblue" stroke="midnightblue" points="33.6634,-139.351 26.5207,-131.526 27.2246,-142.097 33.6634,-139.351"/>
</g>
<!-- Node3 -->
<g id="node4" class="node"><title>Node3</title>
<polygon fill="white" stroke="#bfbfbf" points="92,-224.5 92,-243.5 144,-243.5 144,-224.5 92,-224.5"/>
<text text-anchor="middle" x="118" y="-231.5" font-family="Helvetica,sans-Serif" font-size="10.00">stdarg.h</text>
</g>
<!-- Node1&#45;&gt;Node3 -->
<g id="edge3" class="edge"><title>Node1&#45;&gt;Node3</title>
<path fill="none" stroke="midnightblue" d="M118,-280.083C118,-273.006 118,-262.861 118,-253.986"/>
<polygon fill="midnightblue" stroke="midnightblue" points="121.5,-253.751 118,-243.751 114.5,-253.751 121.5,-253.751"/>
</g>
<!-- Node5 -->
<g id="node6" class="node"><title>Node5</title>
<polygon fill="white" stroke="#bfbfbf" points="202,-224.5 202,-243.5 282,-243.5 282,-224.5 202,-224.5"/>
<text text-anchor="middle" x="242" y="-231.5" font-family="Helvetica,sans-Serif" font-size="10.00">configvalues.h</text>
</g>
<!-- Node4&#45;&gt;Node5 -->
<g id="edge5" class="edge"><title>Node4&#45;&gt;Node5</title>
<path fill="none" stroke="midnightblue" d="M251.184,-280.083C249.726,-272.927 247.629,-262.635 245.807,-253.691"/>
<polygon fill="midnightblue" stroke="midnightblue" points="249.208,-252.851 243.783,-243.751 242.349,-254.248 249.208,-252.851"/>
</g>
<!-- Node7 -->
<g id="node8" class="node"><title>Node7</title>
<polygon fill="white" stroke="#bfbfbf" points="303.5,-56.5 303.5,-75.5 346.5,-75.5 346.5,-56.5 303.5,-56.5"/>
<text text-anchor="middle" x="325" y="-63.5" font-family="Helvetica,sans-Serif" font-size="10.00">qlist.h</text>
</g>
<!-- Node6&#45;&gt;Node7 -->
<g id="edge7" class="edge"><title>Node6&#45;&gt;Node7</title>
<path fill="none" stroke="midnightblue" d="M319.323,-224.075C320.267,-197.945 323.041,-121.211 324.329,-85.577"/>
<polygon fill="midnightblue" stroke="midnightblue" points="327.827,-85.688 324.69,-75.5681 320.831,-85.4351 327.827,-85.688"/>
</g>
<!-- Node8 -->
<g id="node9" class="node"><title>Node8</title>
<polygon fill="white" stroke="#bfbfbf" points="117.5,-168.5 117.5,-187.5 166.5,-187.5 166.5,-168.5 117.5,-168.5"/>
<text text-anchor="middle" x="142" y="-175.5" font-family="Helvetica,sans-Serif" font-size="10.00">ctype.h</text>
</g>
<!-- Node6&#45;&gt;Node8 -->
<g id="edge8" class="edge"><title>Node6&#45;&gt;Node8</title>
<path fill="none" stroke="midnightblue" d="M299.735,-226.758C296.811,-225.825 293.827,-224.881 291,-224 251.714,-211.755 206.442,-198.154 176.207,-189.144"/>
<polygon fill="midnightblue" stroke="midnightblue" points="177.144,-185.771 166.561,-186.273 175.147,-192.48 177.144,-185.771"/>
</g>
<!-- Node9 -->
<g id="node10" class="node"><title>Node9</title>
<g id="a_node10"><a xlink:href="../../d9/d49/types_8h.html" target="_top" xlink:title="This file contains a number of basic enums and types. ">
<polygon fill="white" stroke="black" points="446.5,-56.5 446.5,-75.5 495.5,-75.5 495.5,-56.5 446.5,-56.5"/>
<text text-anchor="middle" x="471" y="-63.5" font-family="Helvetica,sans-Serif" font-size="10.00">types.h</text>
</a>
</g>
</g>
<!-- Node6&#45;&gt;Node9 -->
<g id="edge9" class="edge"><title>Node6&#45;&gt;Node9</title>
<path fill="none" stroke="midnightblue" d="M336.44,-224.429C364.811,-209.587 420.816,-176.379 451,-132 460.441,-118.119 465.565,-99.6053 468.254,-85.8877"/>
<polygon fill="midnightblue" stroke="midnightblue" points="471.76,-86.1443 469.982,-75.6998 464.859,-84.9736 471.76,-86.1443"/>
</g>
<!-- Node11 -->
<g id="node12" class="node"><title>Node11</title>
<g id="a_node12"><a xlink:href="../../d9/d21/sortdict_8h.html" target="_top" xlink:title="sortdict.h">
<polygon fill="white" stroke="black" points="385.5,-112.5 385.5,-131.5 442.5,-131.5 442.5,-112.5 385.5,-112.5"/>
<text text-anchor="middle" x="414" y="-119.5" font-family="Helvetica,sans-Serif" font-size="10.00">sortdict.h</text>
</a>
</g>
</g>
<!-- Node6&#45;&gt;Node11 -->
<g id="edge11" class="edge"><title>Node6&#45;&gt;Node11</title>
<path fill="none" stroke="midnightblue" d="M326.454,-224.368C342.271,-206.055 379.412,-163.049 399.869,-139.362"/>
<polygon fill="midnightblue" stroke="midnightblue" points="402.693,-141.447 406.58,-131.591 397.395,-136.872 402.693,-141.447"/>
</g>
<!-- Node14 -->
<g id="node15" class="node"><title>Node14</title>
<g id="a_node15"><a xlink:href="../../de/d9c/docparser_8h.html" target="_top" xlink:title="docparser.h">
<polygon fill="white" stroke="black" points="185,-168.5 185,-187.5 253,-187.5 253,-168.5 185,-168.5"/>
<text text-anchor="middle" x="219" y="-175.5" font-family="Helvetica,sans-Serif" font-size="10.00">docparser.h</text>
</a>
</g>
</g>
<!-- Node6&#45;&gt;Node14 -->
<g id="edge15" class="edge"><title>Node6&#45;&gt;Node14</title>
<path fill="none" stroke="midnightblue" d="M302.933,-224.324C287.042,-215.743 262.493,-202.486 244.042,-192.522"/>
<polygon fill="midnightblue" stroke="midnightblue" points="245.489,-189.326 235.027,-187.655 242.163,-195.486 245.489,-189.326"/>
</g>
<!-- Node10 -->
<g id="node11" class="node"><title>Node10</title>
<polygon fill="white" stroke="#bfbfbf" points="105.5,-0.5 105.5,-19.5 164.5,-19.5 164.5,-0.5 105.5,-0.5"/>
<text text-anchor="middle" x="135" y="-7.5" font-family="Helvetica,sans-Serif" font-size="10.00">qcstring.h</text>
</g>
<!-- Node9&#45;&gt;Node10 -->
<g id="edge10" class="edge"><title>Node9&#45;&gt;Node10</title>
<path fill="none" stroke="midnightblue" d="M446.193,-58.0935C443.109,-57.3356 439.99,-56.6165 437,-56 343.893,-36.8018 233.028,-22.4178 174.978,-15.5246"/>
<polygon fill="midnightblue" stroke="midnightblue" points="175.11,-12.016 164.77,-14.3251 174.293,-18.9682 175.11,-12.016"/>
</g>
<!-- Node11&#45;&gt;Node7 -->
<g id="edge12" class="edge"><title>Node11&#45;&gt;Node7</title>
<path fill="none" stroke="midnightblue" d="M399.701,-112.324C385.817,-103.9 364.508,-90.9709 348.196,-81.0741"/>
<polygon fill="midnightblue" stroke="midnightblue" points="349.629,-77.8495 339.264,-75.6545 345.998,-83.8341 349.629,-77.8495"/>
</g>
<!-- Node12 -->
<g id="node13" class="node"><title>Node12</title>
<polygon fill="white" stroke="#bfbfbf" points="514,-56.5 514,-75.5 560,-75.5 560,-56.5 514,-56.5"/>
<text text-anchor="middle" x="537" y="-63.5" font-family="Helvetica,sans-Serif" font-size="10.00">qdict.h</text>
</g>
<!-- Node11&#45;&gt;Node12 -->
<g id="edge13" class="edge"><title>Node11&#45;&gt;Node12</title>
<path fill="none" stroke="midnightblue" d="M433.49,-112.444C453.642,-103.596 485.323,-89.6875 508.331,-79.5865"/>
<polygon fill="midnightblue" stroke="midnightblue" points="509.852,-82.7411 517.601,-75.5164 507.038,-76.3316 509.852,-82.7411"/>
</g>
<!-- Node13 -->
<g id="node14" class="node"><title>Node13</title>
<polygon fill="white" stroke="#bfbfbf" points="372,-56.5 372,-75.5 428,-75.5 428,-56.5 372,-56.5"/>
<text text-anchor="middle" x="400" y="-63.5" font-family="Helvetica,sans-Serif" font-size="10.00">qintdict.h</text>
</g>
<!-- Node11&#45;&gt;Node13 -->
<g id="edge14" class="edge"><title>Node11&#45;&gt;Node13</title>
<path fill="none" stroke="midnightblue" d="M411.688,-112.083C409.833,-104.927 407.165,-94.6353 404.846,-85.6911"/>
<polygon fill="midnightblue" stroke="midnightblue" points="408.166,-84.5527 402.269,-75.7511 401.391,-86.3094 408.166,-84.5527"/>
</g>
<!-- Node14&#45;&gt;Node2 -->
<g id="edge16" class="edge"><title>Node14&#45;&gt;Node2</title>
<path fill="none" stroke="midnightblue" d="M187.943,-168.444C151.93,-158.522 92.8134,-142.234 55.9948,-132.09"/>
<polygon fill="midnightblue" stroke="midnightblue" points="56.8095,-128.685 46.2391,-129.403 54.9502,-135.433 56.8095,-128.685"/>
</g>
<!-- Node14&#45;&gt;Node7 -->
<g id="edge17" class="edge"><title>Node14&#45;&gt;Node7</title>
<path fill="none" stroke="midnightblue" d="M227.318,-168.368C245.043,-149.974 286.771,-106.671 309.532,-83.0519"/>
<polygon fill="midnightblue" stroke="midnightblue" points="312.302,-85.2209 316.721,-75.5914 307.262,-80.3636 312.302,-85.2209"/>
</g>
<!-- Node14&#45;&gt;Node10 -->
<g id="edge18" class="edge"><title>Node14&#45;&gt;Node10</title>
<path fill="none" stroke="midnightblue" d="M184.895,-169.475C151.416,-161.315 103.838,-147.38 93,-132 69.7397,-98.9935 100.611,-51.9304 120.522,-27.3598"/>
<polygon fill="midnightblue" stroke="midnightblue" points="123.236,-29.5702 127.001,-19.6669 117.882,-25.0609 123.236,-29.5702"/>
</g>
<!-- Node15 -->
<g id="node16" class="node"><title>Node15</title>
<g id="a_node16"><a xlink:href="../../d2/d3c/docvisitor_8h.html" target="_top" xlink:title="docvisitor.h">
<polygon fill="white" stroke="black" points="185.5,-112.5 185.5,-131.5 252.5,-131.5 252.5,-112.5 185.5,-112.5"/>
<text text-anchor="middle" x="219" y="-119.5" font-family="Helvetica,sans-Serif" font-size="10.00">docvisitor.h</text>
</a>
</g>
</g>
<!-- Node14&#45;&gt;Node15 -->
<g id="edge19" class="edge"><title>Node14&#45;&gt;Node15</title>
<path fill="none" stroke="midnightblue" d="M219,-168.083C219,-161.006 219,-150.861 219,-141.986"/>
<polygon fill="midnightblue" stroke="midnightblue" points="222.5,-141.751 219,-131.751 215.5,-141.751 222.5,-141.751"/>
</g>
<!-- Node16 -->
<g id="node17" class="node"><title>Node16</title>
<g id="a_node17"><a xlink:href="../../d0/d73/htmlattrib_8h.html" target="_top" xlink:title="htmlattrib.h">
<polygon fill="white" stroke="black" points="102.5,-112.5 102.5,-131.5 167.5,-131.5 167.5,-112.5 102.5,-112.5"/>
<text text-anchor="middle" x="135" y="-119.5" font-family="Helvetica,sans-Serif" font-size="10.00">htmlattrib.h</text>
</a>
</g>
</g>
<!-- Node14&#45;&gt;Node16 -->
<g id="edge20" class="edge"><title>Node14&#45;&gt;Node16</title>
<path fill="none" stroke="midnightblue" d="M205.504,-168.324C192.4,-159.9 172.288,-146.971 156.893,-137.074"/>
<polygon fill="midnightblue" stroke="midnightblue" points="158.767,-134.118 148.463,-131.655 154.982,-140.006 158.767,-134.118"/>
</g>
<!-- Node16&#45;&gt;Node7 -->
<g id="edge22" class="edge"><title>Node16&#45;&gt;Node7</title>
<path fill="none" stroke="midnightblue" d="M165.106,-112.444C200.153,-102.483 257.772,-86.1068 293.433,-75.9717"/>
<polygon fill="midnightblue" stroke="midnightblue" points="294.647,-79.2655 303.309,-73.1649 292.733,-72.5321 294.647,-79.2655"/>
</g>
<!-- Node16&#45;&gt;Node10 -->
<g id="edge21" class="edge"><title>Node16&#45;&gt;Node10</title>
<path fill="none" stroke="midnightblue" d="M135,-112.368C135,-94.617 135,-53.6664 135,-29.5974"/>
<polygon fill="midnightblue" stroke="midnightblue" points="138.5,-29.5914 135,-19.5914 131.5,-29.5915 138.5,-29.5914"/>
</g>
<!-- Node17&#45;&gt;Node18 -->
<g id="edge24" class="edge"><title>Node17&#45;&gt;Node18</title>
<path fill="none" stroke="midnightblue" d="M390.513,-280.324C408.072,-271.625 435.331,-258.12 455.531,-248.113"/>
<polygon fill="midnightblue" stroke="midnightblue" points="457.124,-251.23 464.531,-243.655 454.016,-244.958 457.124,-251.23"/>
</g>
<!-- Node19 -->
<g id="node20" class="node"><title>Node19</title>
<g id="a_node20"><a xlink:href="../../d1/da6/classdef_8h.html" target="_top" xlink:title="classdef.h">
<polygon fill="white" stroke="black" points="500,-168.5 500,-187.5 562,-187.5 562,-168.5 500,-168.5"/>
<text text-anchor="middle" x="531" y="-175.5" font-family="Helvetica,sans-Serif" font-size="10.00">classdef.h</text>
</a>
</g>
</g>
<!-- Node18&#45;&gt;Node19 -->
<g id="edge25" class="edge"><title>Node18&#45;&gt;Node19</title>
<path fill="none" stroke="midnightblue" d="M490.091,-224.083C497.155,-216.298 507.588,-204.801 516.149,-195.367"/>
<polygon fill="midnightblue" stroke="midnightblue" points="518.931,-197.509 523.059,-187.751 513.747,-192.805 518.931,-197.509"/>
</g>
<!-- Node19&#45;&gt;Node7 -->
<g id="edge26" class="edge"><title>Node19&#45;&gt;Node7</title>
<path fill="none" stroke="midnightblue" d="M499.785,-173.664C466.661,-168.886 413.966,-157.642 376,-132 357.864,-119.751 343.23,-99.013 334.366,-84.2566"/>
<polygon fill="midnightblue" stroke="midnightblue" points="337.4,-82.5128 329.395,-75.5726 331.325,-85.9901 337.4,-82.5128"/>
</g>
<!-- Node19&#45;&gt;Node12 -->
<g id="edge27" class="edge"><title>Node19&#45;&gt;Node12</title>
<path fill="none" stroke="midnightblue" d="M562.079,-174.537C589.789,-170.506 628.841,-159.896 648,-132 670.098,-99.8249 610.278,-81.2852 570.099,-72.7602"/>
<polygon fill="midnightblue" stroke="midnightblue" points="570.612,-69.2936 560.119,-70.7592 569.236,-76.157 570.612,-69.2936"/>
</g>
<!-- Node20 -->
<g id="node21" class="node"><title>Node20</title>
<polygon fill="white" stroke="#bfbfbf" points="581.5,-112.5 581.5,-131.5 638.5,-131.5 638.5,-112.5 581.5,-112.5"/>
<text text-anchor="middle" x="610" y="-119.5" font-family="Helvetica,sans-Serif" font-size="10.00">qptrdict.h</text>
</g>
<!-- Node19&#45;&gt;Node20 -->
<g id="edge28" class="edge"><title>Node19&#45;&gt;Node20</title>
<path fill="none" stroke="midnightblue" d="M543.693,-168.324C555.901,-159.979 574.578,-147.212 589.003,-137.352"/>
<polygon fill="midnightblue" stroke="midnightblue" points="591.058,-140.187 597.339,-131.655 587.108,-134.408 591.058,-140.187"/>
</g>
<!-- Node21 -->
<g id="node22" class="node"><title>Node21</title>
<g id="a_node22"><a xlink:href="../../df/da1/definition_8h.html" target="_top" xlink:title="definition.h">
<polygon fill="white" stroke="black" points="499,-112.5 499,-131.5 563,-131.5 563,-112.5 499,-112.5"/>
<text text-anchor="middle" x="531" y="-119.5" font-family="Helvetica,sans-Serif" font-size="10.00">definition.h</text>
</a>
</g>
</g>
<!-- Node19&#45;&gt;Node21 -->
<g id="edge29" class="edge"><title>Node19&#45;&gt;Node21</title>
<path fill="none" stroke="midnightblue" d="M531,-168.083C531,-161.006 531,-150.861 531,-141.986"/>
<polygon fill="midnightblue" stroke="midnightblue" points="534.5,-141.751 531,-131.751 527.5,-141.751 534.5,-141.751"/>
</g>
<!-- Node21&#45;&gt;Node7 -->
<g id="edge30" class="edge"><title>Node21&#45;&gt;Node7</title>
<path fill="none" stroke="midnightblue" d="M498.812,-112.562C460.025,-102.395 395.269,-85.42 356.7,-75.3097"/>
<polygon fill="midnightblue" stroke="midnightblue" points="357.12,-71.8016 346.559,-72.6515 355.345,-78.5729 357.12,-71.8016"/>
</g>
<!-- Node21&#45;&gt;Node9 -->
<g id="edge32" class="edge"><title>Node21&#45;&gt;Node9</title>
<path fill="none" stroke="midnightblue" d="M521.36,-112.324C512.49,-104.341 499.125,-92.3128 488.392,-82.6529"/>
<polygon fill="midnightblue" stroke="midnightblue" points="490.59,-79.922 480.815,-75.8339 485.907,-85.1251 490.59,-79.922"/>
</g>
<!-- Node21&#45;&gt;Node12 -->
<g id="edge31" class="edge"><title>Node21&#45;&gt;Node12</title>
<path fill="none" stroke="midnightblue" d="M531.991,-112.083C532.786,-104.927 533.929,-94.6353 534.923,-85.6911"/>
<polygon fill="midnightblue" stroke="midnightblue" points="538.402,-86.0765 536.028,-75.7511 531.445,-85.3034 538.402,-86.0765"/>
</g>
<!-- Node24&#45;&gt;Node18 -->
<g id="edge38" class="edge"><title>Node24&#45;&gt;Node18</title>
<path fill="none" stroke="midnightblue" d="M658.725,-280.444C622.445,-271.115 564.283,-256.158 524.67,-245.972"/>
<polygon fill="midnightblue" stroke="midnightblue" points="525.33,-242.528 514.774,-243.428 523.587,-249.308 525.33,-242.528"/>
</g>
<!-- Node25 -->
<g id="node26" class="node"><title>Node25</title>
<g id="a_node26"><a xlink:href="../../df/dfc/version_8h.html" target="_top" xlink:title="version.h">
<polygon fill="white" stroke="black" points="664,-224.5 664,-243.5 720,-243.5 720,-224.5 664,-224.5"/>
<text text-anchor="middle" x="692" y="-231.5" font-family="Helvetica,sans-Serif" font-size="10.00">version.h</text>
</a>
</g>
</g>
<!-- Node24&#45;&gt;Node25 -->
<g id="edge37" class="edge"><title>Node24&#45;&gt;Node25</title>
<path fill="none" stroke="midnightblue" d="M692,-280.083C692,-273.006 692,-262.861 692,-253.986"/>
<polygon fill="midnightblue" stroke="midnightblue" points="695.5,-253.751 692,-243.751 688.5,-253.751 695.5,-253.751"/>
</g>
</g>
</svg>
        <g id="navigator" transform="translate(0 0)" fill="#404254">
                <rect fill="#f2f5e9" fill-opacity="0.5" stroke="#606060" stroke-width=".5" x="0" y="0" width="60" height="60"/>
                <use id="zoomplus" xlink:href="#zoomPlus" x="17" y="9" onmousedown="handleZoom(evt,'in')"/>
                <use id="zoomminus" xlink:href="#zoomMin" x="42" y="9" onmousedown="handleZoom(evt,'out')"/>
                <use id="reset" xlink:href="#resetDef" x="30" y="36" onmousedown="handleReset()"/>
                <g id="arrowUp" xlink:href="#dirArrow" transform="translate(30 24)" onmousedown="handlePan(0,-1)">
                  <use xlink:href="#rim" fill="#404040">
                        <set attributeName="fill" to="#808080" begin="arrowUp.mouseover" end="arrowUp.mouseout"/>
                  </use>
                  <path fill="none" stroke="white" stroke-width="1.5" d="M0,-3.0v7 M-2.5,-0.5L0,-3.0L2.5,-0.5"/>
                </g>
                <g id="arrowRight" xlink:href="#dirArrow" transform="rotate(90) translate(36 -43)" onmousedown="handlePan(1,0)">
                  <use xlink:href="#rim" fill="#404040">
                        <set attributeName="fill" to="#808080" begin="arrowRight.mouseover" end="arrowRight.mouseout"/>
                  </use>
                  <path fill="none" stroke="white" stroke-width="1.5" d="M0,-3.0v7 M-2.5,-0.5L0,-3.0L2.5,-0.5"/>
                </g>
                <g id="arrowDown" xlink:href="#dirArrow" transform="rotate(180) translate(-30 -48)" onmousedown="handlePan(0,1)">
                  <use xlink:href="#rim" fill="#404040">
                        <set attributeName="fill" to="#808080" begin="arrowDown.mouseover" end="arrowDown.mouseout"/>
                  </use>
                  <path fill="none" stroke="white" stroke-width="1.5" d="M0,-3.0v7 M-2.5,-0.5L0,-3.0L2.5,-0.5"/>
                </g>
                <g id="arrowLeft" xlink:href="#dirArrow" transform="rotate(270) translate(-36 17)" onmousedown="handlePan(-1,0)">
                  <use xlink:href="#rim" fill="#404040">
                        <set attributeName="fill" to="#808080" begin="arrowLeft.mouseover" end="arrowLeft.mouseout"/>
                  </use>
                  <path fill="none" stroke="white" stroke-width="1.5" d="M0,-3.0v7 M-2.5,-0.5L0,-3.0L2.5,-0.5"/>
                </g>
        </g>
        <svg viewBox="0 0 15 15" width="100%" height="30px" preserveAspectRatio="xMaxYMin meet">
         <g id="arrow_out" transform="scale(0.3 0.3)">
          <a xlink:href="language_8cpp__incl_org.svg" target="_base">
           <rect id="button" ry="5" rx="5" y="6" x="6" height="38" width="38"
                fill="#f2f5e9" fill-opacity="0.5" stroke="#606060" stroke-width="1.0"/>
           <path id="arrow"
             d="M 11.500037,31.436501 C 11.940474,20.09759 22.043105,11.32322 32.158766,21.979434 L 37.068811,17.246167 C 37.068811,17.246167 37.088388,32 37.088388,32 L 22.160133,31.978069 C 22.160133,31.978069 26.997745,27.140456 26.997745,27.140456 C 18.528582,18.264221 13.291696,25.230495 11.500037,31.436501 z"
             style="fill:#404040;"/>
          </a>
         </g>
        </svg>
</svg>
