<?xml version="1.0" encoding="UTF-8" standalone="no"?>
<!DOCTYPE svg PUBLIC "-//W3C//DTD SVG 1.1//EN"
 "http://www.w3.org/Graphics/SVG/1.1/DTD/svg11.dtd">
<!-- Generated by graphviz version 2.38.0 (20140413.2041)
 -->
<!-- Title: LayoutDocManager Pages: 1 -->
<svg width="183pt" height="162pt"
 viewBox="0.00 0.00 182.50 162.00" xmlns="http://www.w3.org/2000/svg" xmlns:xlink="http://www.w3.org/1999/xlink">
<g id="graph0" class="graph" transform="scale(1 1) rotate(0) translate(4 158)">
<title>LayoutDocManager</title>
<polygon fill="white" stroke="none" points="-4,4 -4,-158 178.5,-158 178.5,4 -4,4"/>
<!-- Node1 -->
<g id="node1" class="node"><title>Node1</title>
<polygon fill="#bfbfbf" stroke="black" points="18.5,-0.5 18.5,-19.5 119.5,-19.5 119.5,-0.5 18.5,-0.5"/>
<text text-anchor="middle" x="69" y="-7.5" font-family="Helvetica,sans-Serif" font-size="10.00">LayoutDocManager</text>
</g>
<!-- Node2 -->
<g id="node2" class="node"><title>Node2</title>
<g id="a_node2"><a xlink:href="../../d2/da4/class_layout_doc_manager_1_1_private.html" target="_top" xlink:title="LayoutDocManager::Private">
<polygon fill="white" stroke="black" points="0,-67.5 0,-86.5 138,-86.5 138,-67.5 0,-67.5"/>
<text text-anchor="middle" x="69" y="-74.5" font-family="Helvetica,sans-Serif" font-size="10.00">LayoutDocManager::Private</text>
</a>
</g>
</g>
<!-- Node2&#45;&gt;Node1 -->
<g id="edge1" class="edge"><title>Node2&#45;&gt;Node1</title>
<path fill="none" stroke="#9a32cd" stroke-dasharray="5,2" d="M69,-57.037C69,-44.6703 69,-29.1198 69,-19.6273"/>
<polygon fill="#9a32cd" stroke="#9a32cd" points="65.5001,-57.2338 69,-67.2338 72.5001,-57.2338 65.5001,-57.2338"/>
<text text-anchor="middle" x="73.5" y="-41" font-family="Helvetica,sans-Serif" font-size="10.00"> d</text>
</g>
<!-- Node3 -->
<g id="node3" class="node"><title>Node3</title>
<g id="a_node3"><a xlink:href="../../df/de7/struct_layout_nav_entry.html" target="_top" xlink:title="Base class for the layout of a navigation item at the top of the HTML pages. ">
<polygon fill="white" stroke="black" points="25.5,-134.5 25.5,-153.5 112.5,-153.5 112.5,-134.5 25.5,-134.5"/>
<text text-anchor="middle" x="69" y="-141.5" font-family="Helvetica,sans-Serif" font-size="10.00">LayoutNavEntry</text>
</a>
</g>
</g>
<!-- Node3&#45;&gt;Node2 -->
<g id="edge2" class="edge"><title>Node3&#45;&gt;Node2</title>
<path fill="none" stroke="#9a32cd" stroke-dasharray="5,2" d="M69,-124.037C69,-111.67 69,-96.1198 69,-86.6273"/>
<polygon fill="#9a32cd" stroke="#9a32cd" points="65.5001,-124.234 69,-134.234 72.5001,-124.234 65.5001,-124.234"/>
<text text-anchor="middle" x="88" y="-108" font-family="Helvetica,sans-Serif" font-size="10.00"> rootNav</text>
</g>
<!-- Node3&#45;&gt;Node3 -->
<g id="edge3" class="edge"><title>Node3&#45;&gt;Node3</title>
<path fill="none" stroke="#9a32cd" stroke-dasharray="5,2" d="M122.82,-148.714C127.543,-147.72 130.5,-146.148 130.5,-144 130.5,-140.562 122.93,-138.602 112.669,-138.119"/>
<polygon fill="#9a32cd" stroke="#9a32cd" points="122.204,-145.262 112.669,-149.881 123.004,-152.216 122.204,-145.262"/>
<text text-anchor="middle" x="152.5" y="-141.5" font-family="Helvetica,sans-Serif" font-size="10.00"> m_parent</text>
</g>
</g>
</svg>
