<?xml version="1.0" encoding="UTF-8" standalone="no"?>
<!DOCTYPE svg PUBLIC "-//W3C//DTD SVG 1.1//EN"
 "http://www.w3.org/Graphics/SVG/1.1/DTD/svg11.dtd">
<!-- Generated by graphviz version 2.38.0 (20140413.2041)
 -->
<!-- Title: DocSimpleSectSep Pages: 1 -->
<svg width="150pt" height="85pt"
 viewBox="0.00 0.00 150.00 85.00" xmlns="http://www.w3.org/2000/svg" xmlns:xlink="http://www.w3.org/1999/xlink">
<g id="graph0" class="graph" transform="scale(1 1) rotate(0) translate(4 81)">
<title>DocSimpleSectSep</title>
<polygon fill="white" stroke="none" points="-4,4 -4,-81 146,-81 146,4 -4,4"/>
<!-- Node2 -->
<g id="node1" class="node"><title>Node2</title>
<polygon fill="#bfbfbf" stroke="black" points="-7.10543e-15,-0.5 -7.10543e-15,-19.5 102,-19.5 102,-0.5 -7.10543e-15,-0.5"/>
<text text-anchor="middle" x="51" y="-7.5" font-family="Helvetica,sans-Serif" font-size="10.00">DocSimpleSectSep</text>
</g>
<!-- Node3 -->
<g id="node2" class="node"><title>Node3</title>
<g id="a_node2"><a xlink:href="../../d9/d0e/class_doc_node.html" target="_top" xlink:title="Abstract node interface with type information. ">
<polygon fill="white" stroke="black" points="22,-57.5 22,-76.5 80,-76.5 80,-57.5 22,-57.5"/>
<text text-anchor="middle" x="51" y="-64.5" font-family="Helvetica,sans-Serif" font-size="10.00">DocNode</text>
</a>
</g>
</g>
<!-- Node3&#45;&gt;Node2 -->
<g id="edge1" class="edge"><title>Node3&#45;&gt;Node2</title>
<path fill="none" stroke="midnightblue" d="M51,-47.1166C51,-37.8173 51,-27.0557 51,-19.7149"/>
<polygon fill="midnightblue" stroke="midnightblue" points="47.5001,-47.4062 51,-57.4062 54.5001,-47.4063 47.5001,-47.4062"/>
</g>
<!-- Node3&#45;&gt;Node3 -->
<g id="edge2" class="edge"><title>Node3&#45;&gt;Node3</title>
<path fill="none" stroke="#9a32cd" stroke-dasharray="5,2" d="M90.603,-71.4489C95.0912,-70.6158 98,-69.1328 98,-67 98,-63.5 90.1667,-61.75 80.375,-61.75"/>
<polygon fill="#9a32cd" stroke="#9a32cd" points="90.0711,-67.9798 80.375,-72.25 90.6178,-74.9584 90.0711,-67.9798"/>
<text text-anchor="middle" x="120" y="-64.5" font-family="Helvetica,sans-Serif" font-size="10.00"> m_parent</text>
</g>
</g>
</svg>
