<?xml version="1.0" encoding="UTF-8" standalone="no"?>
<!DOCTYPE svg PUBLIC "-//W3C//DTD SVG 1.1//EN"
 "http://www.w3.org/Graphics/SVG/1.1/DTD/svg11.dtd">
<!-- Generated by graphviz version 2.38.0 (20140413.2041)
 -->
<!-- Title: SearchIndexIntf Pages: 1 -->
<svg width="204pt" height="84pt"
 viewBox="0.00 0.00 204.00 84.00" xmlns="http://www.w3.org/2000/svg" xmlns:xlink="http://www.w3.org/1999/xlink">
<g id="graph0" class="graph" transform="scale(1 1) rotate(0) translate(4 80)">
<title>SearchIndexIntf</title>
<polygon fill="white" stroke="none" points="-4,4 -4,-80 200,-80 200,4 -4,4"/>
<!-- Node0 -->
<g id="node1" class="node"><title>Node0</title>
<polygon fill="#bfbfbf" stroke="black" points="45.5,-56.5 45.5,-75.5 131.5,-75.5 131.5,-56.5 45.5,-56.5"/>
<text text-anchor="middle" x="88.5" y="-63.5" font-family="Helvetica,sans-Serif" font-size="10.00">SearchIndexIntf</text>
</g>
<!-- Node1 -->
<g id="node2" class="node"><title>Node1</title>
<g id="a_node2"><a xlink:href="../../da/d36/class_search_index.html" target="_top" xlink:title="SearchIndex">
<polygon fill="white" stroke="black" points="0,-0.5 0,-19.5 71,-19.5 71,-0.5 0,-0.5"/>
<text text-anchor="middle" x="35.5" y="-7.5" font-family="Helvetica,sans-Serif" font-size="10.00">SearchIndex</text>
</a>
</g>
</g>
<!-- Node0&#45;&gt;Node1 -->
<g id="edge1" class="edge"><title>Node0&#45;&gt;Node1</title>
<path fill="none" stroke="midnightblue" d="M72.5191,-48.7175C63.1775,-39.1997 51.7541,-27.5608 44.089,-19.7511"/>
<polygon fill="midnightblue" stroke="midnightblue" points="70.2455,-51.3978 79.7481,-56.083 75.2413,-46.4945 70.2455,-51.3978"/>
</g>
<!-- Node2 -->
<g id="node3" class="node"><title>Node2</title>
<g id="a_node3"><a xlink:href="../../d8/d83/class_search_index_external.html" target="_top" xlink:title="SearchIndexExternal">
<polygon fill="white" stroke="black" points="89,-0.5 89,-19.5 196,-19.5 196,-0.5 89,-0.5"/>
<text text-anchor="middle" x="142.5" y="-7.5" font-family="Helvetica,sans-Serif" font-size="10.00">SearchIndexExternal</text>
</a>
</g>
</g>
<!-- Node0&#45;&gt;Node2 -->
<g id="edge2" class="edge"><title>Node0&#45;&gt;Node2</title>
<path fill="none" stroke="midnightblue" d="M104.498,-49.0024C114.067,-39.4329 125.861,-27.6389 133.749,-19.7511"/>
<polygon fill="midnightblue" stroke="midnightblue" points="102.013,-46.537 97.417,-56.083 106.963,-51.4868 102.013,-46.537"/>
</g>
</g>
</svg>
