<?xml version="1.0" encoding="UTF-8" standalone="no"?>
<!DOCTYPE svg PUBLIC "-//W3C//DTD SVG 1.1//EN"
 "http://www.w3.org/Graphics/SVG/1.1/DTD/svg11.dtd">
<!-- Generated by graphviz version 2.38.0 (20140413.2041)
 -->
<!-- Title: TemplateNodeCreator&lt; T &gt; Pages: 1 -->
<svg width="179pt" height="85pt"
 viewBox="0.00 0.00 178.50 85.00" xmlns="http://www.w3.org/2000/svg" xmlns:xlink="http://www.w3.org/1999/xlink">
<g id="graph0" class="graph" transform="scale(1 1) rotate(0) translate(4 81)">
<title>TemplateNodeCreator&lt; T &gt;</title>
<polygon fill="white" stroke="none" points="-4,4 -4,-81 174.5,-81 174.5,4 -4,4"/>
<!-- Node44 -->
<g id="node1" class="node"><title>Node44</title>
<polygon fill="#bfbfbf" stroke="black" points="0,-0.5 0,-19.5 137,-19.5 137,-0.5 0,-0.5"/>
<text text-anchor="middle" x="68.5" y="-7.5" font-family="Helvetica,sans-Serif" font-size="10.00">TemplateNodeCreator&lt; T &gt;</text>
</g>
<!-- Node45 -->
<g id="node2" class="node"><title>Node45</title>
<g id="a_node2"><a xlink:href="../../d6/d53/class_template_node.html" target="_top" xlink:title="Base class of all nodes in a template&#39;s AST. ">
<polygon fill="white" stroke="black" points="28.5,-57.5 28.5,-76.5 108.5,-76.5 108.5,-57.5 28.5,-57.5"/>
<text text-anchor="middle" x="68.5" y="-64.5" font-family="Helvetica,sans-Serif" font-size="10.00">TemplateNode</text>
</a>
</g>
</g>
<!-- Node45&#45;&gt;Node44 -->
<g id="edge1" class="edge"><title>Node45&#45;&gt;Node44</title>
<path fill="none" stroke="midnightblue" d="M68.5,-47.1166C68.5,-37.8173 68.5,-27.0557 68.5,-19.7149"/>
<polygon fill="midnightblue" stroke="midnightblue" points="65.0001,-47.4062 68.5,-57.4062 72.0001,-47.4063 65.0001,-47.4062"/>
</g>
<!-- Node45&#45;&gt;Node45 -->
<g id="edge2" class="edge"><title>Node45&#45;&gt;Node45</title>
<path fill="none" stroke="#9a32cd" stroke-dasharray="5,2" d="M118.765,-71.218C123.505,-70.3542 126.5,-68.9482 126.5,-67 126.5,-63.8828 118.832,-62.1537 108.619,-61.8128"/>
<polygon fill="#9a32cd" stroke="#9a32cd" points="118.24,-67.7521 108.619,-72.1872 118.906,-74.7204 118.24,-67.7521"/>
<text text-anchor="middle" x="148.5" y="-64.5" font-family="Helvetica,sans-Serif" font-size="10.00"> m_parent</text>
</g>
</g>
</svg>
