<?xml version="1.0" encoding="UTF-8" standalone="no"?>
<!DOCTYPE svg PUBLIC "-//W3C//DTD SVG 1.1//EN"
 "http://www.w3.org/Graphics/SVG/1.1/DTD/svg11.dtd">
<!-- Generated by graphviz version 2.38.0 (20140413.2041)
 -->
<!-- Title: TranslatorAdapter_1_8_4 Pages: 1 -->
<svg width="175pt" height="209pt"
 viewBox="0.00 0.00 174.50 209.00" xmlns="http://www.w3.org/2000/svg" xmlns:xlink="http://www.w3.org/1999/xlink">
<g id="graph0" class="graph" transform="scale(1 1) rotate(0) translate(4 205)">
<title>TranslatorAdapter_1_8_4</title>
<polygon fill="white" stroke="none" points="-4,4 -4,-205 170.5,-205 170.5,4 -4,4"/>
<!-- Node33 -->
<g id="node1" class="node"><title>Node33</title>
<polygon fill="#bfbfbf" stroke="black" points="-7.10543e-15,-0.5 -7.10543e-15,-19.5 125,-19.5 125,-0.5 -7.10543e-15,-0.5"/>
<text text-anchor="middle" x="62.5" y="-7.5" font-family="Helvetica,sans-Serif" font-size="10.00">TranslatorAdapter_1_8_4</text>
</g>
<!-- Node34 -->
<g id="node2" class="node"><title>Node34</title>
<g id="a_node2"><a xlink:href="../../db/d6c/class_translator_adapter_base.html" target="_top" xlink:title="Base of the translator adapter tree. ">
<polygon fill="white" stroke="black" points="4.5,-57.5 4.5,-76.5 120.5,-76.5 120.5,-57.5 4.5,-57.5"/>
<text text-anchor="middle" x="62.5" y="-64.5" font-family="Helvetica,sans-Serif" font-size="10.00">TranslatorAdapterBase</text>
</a>
</g>
</g>
<!-- Node34&#45;&gt;Node33 -->
<g id="edge1" class="edge"><title>Node34&#45;&gt;Node33</title>
<path fill="none" stroke="midnightblue" d="M62.5,-47.1166C62.5,-37.8173 62.5,-27.0557 62.5,-19.7149"/>
<polygon fill="midnightblue" stroke="midnightblue" points="59.0001,-47.4062 62.5,-57.4062 66.0001,-47.4063 59.0001,-47.4062"/>
</g>
<!-- Node35 -->
<g id="node3" class="node"><title>Node35</title>
<g id="a_node3"><a xlink:href="../../d8/dfb/class_translator.html" target="_top" xlink:title="Abstract base class for all translatable text fragments. ">
<polygon fill="white" stroke="black" points="40.5,-181.5 40.5,-200.5 100.5,-200.5 100.5,-181.5 40.5,-181.5"/>
<text text-anchor="middle" x="70.5" y="-188.5" font-family="Helvetica,sans-Serif" font-size="10.00">Translator</text>
</a>
</g>
</g>
<!-- Node35&#45;&gt;Node34 -->
<g id="edge2" class="edge"><title>Node35&#45;&gt;Node34</title>
<path fill="none" stroke="midnightblue" d="M68.1478,-171.087C67.1924,-162.788 66.1602,-152.923 65.5,-144 63.707,-119.77 62.9417,-91.1087 62.653,-76.9036"/>
<polygon fill="midnightblue" stroke="midnightblue" points="64.6945,-171.686 69.3611,-181.198 71.6446,-170.852 64.6945,-171.686"/>
</g>
<!-- Node36 -->
<g id="node4" class="node"><title>Node36</title>
<g id="a_node4"><a xlink:href="../../d6/d78/class_translator_english.html" target="_top" xlink:title="TranslatorEnglish">
<polygon fill="white" stroke="black" points="74.5,-124.5 74.5,-143.5 166.5,-143.5 166.5,-124.5 74.5,-124.5"/>
<text text-anchor="middle" x="120.5" y="-131.5" font-family="Helvetica,sans-Serif" font-size="10.00">TranslatorEnglish</text>
</a>
</g>
</g>
<!-- Node35&#45;&gt;Node36 -->
<g id="edge4" class="edge"><title>Node35&#45;&gt;Node36</title>
<path fill="none" stroke="midnightblue" d="M85.2017,-173.828C94.1551,-163.979 105.244,-151.782 112.577,-143.715"/>
<polygon fill="midnightblue" stroke="midnightblue" points="82.4495,-171.652 78.3125,-181.406 87.6291,-176.361 82.4495,-171.652"/>
</g>
<!-- Node36&#45;&gt;Node34 -->
<g id="edge3" class="edge"><title>Node36&#45;&gt;Node34</title>
<path fill="none" stroke="#9a32cd" stroke-dasharray="5,2" d="M105.897,-116.635C94.5542,-103.923 79.2734,-86.7978 70.1982,-76.6273"/>
<polygon fill="#9a32cd" stroke="#9a32cd" points="103.408,-119.103 112.678,-124.234 108.631,-114.442 103.408,-119.103"/>
<text text-anchor="middle" x="111.5" y="-98" font-family="Helvetica,sans-Serif" font-size="10.00"> english</text>
</g>
</g>
</svg>
