<?xml version="1.0" encoding="UTF-8" standalone="no"?>
<!DOCTYPE svg PUBLIC "-//W3C//DTD SVG 1.1//EN"
 "http://www.w3.org/Graphics/SVG/1.1/DTD/svg11.dtd">
<!-- Generated by graphviz version 2.38.0 (20140413.2041)
 -->
<!-- Title: src/membergroup.h Pages: 1 -->
<svg width="267pt" height="140pt"
 viewBox="0.00 0.00 267.00 140.00" xmlns="http://www.w3.org/2000/svg" xmlns:xlink="http://www.w3.org/1999/xlink">
<g id="graph0" class="graph" transform="scale(1 1) rotate(0) translate(4 136)">
<title>src/membergroup.h</title>
<polygon fill="white" stroke="none" points="-4,4 -4,-136 263,-136 263,4 -4,4"/>
<!-- Node0 -->
<g id="node1" class="node"><title>Node0</title>
<polygon fill="#bfbfbf" stroke="black" points="34,-112.5 34,-131.5 135,-131.5 135,-112.5 34,-112.5"/>
<text text-anchor="middle" x="84.5" y="-119.5" font-family="Helvetica,sans-Serif" font-size="10.00">src/membergroup.h</text>
</g>
<!-- Node1 -->
<g id="node2" class="node"><title>Node1</title>
<polygon fill="white" stroke="#bfbfbf" points="0,-0.5 0,-19.5 43,-19.5 43,-0.5 0,-0.5"/>
<text text-anchor="middle" x="21.5" y="-7.5" font-family="Helvetica,sans-Serif" font-size="10.00">qlist.h</text>
</g>
<!-- Node0&#45;&gt;Node1 -->
<g id="edge1" class="edge"><title>Node0&#45;&gt;Node1</title>
<path fill="none" stroke="midnightblue" d="M75.6739,-112.378C67.2731,-103.787 54.7262,-89.905 46.5,-76 37.8429,-61.3666 31.1531,-43.1962 26.8815,-29.7904"/>
<polygon fill="midnightblue" stroke="midnightblue" points="30.1153,-28.3922 23.872,-19.8323 23.4146,-30.4173 30.1153,-28.3922"/>
</g>
<!-- Node2 -->
<g id="node3" class="node"><title>Node2</title>
<g id="a_node3"><a xlink:href="../../d9/d21/sortdict_8h.html" target="_top" xlink:title="sortdict.h">
<polygon fill="white" stroke="black" points="56,-56.5 56,-75.5 113,-75.5 113,-56.5 56,-56.5"/>
<text text-anchor="middle" x="84.5" y="-63.5" font-family="Helvetica,sans-Serif" font-size="10.00">sortdict.h</text>
</a>
</g>
</g>
<!-- Node0&#45;&gt;Node2 -->
<g id="edge2" class="edge"><title>Node0&#45;&gt;Node2</title>
<path fill="none" stroke="midnightblue" d="M84.5,-112.083C84.5,-105.006 84.5,-94.8611 84.5,-85.9865"/>
<polygon fill="midnightblue" stroke="midnightblue" points="88.0001,-85.751 84.5,-75.7511 81.0001,-85.7511 88.0001,-85.751"/>
</g>
<!-- Node5 -->
<g id="node6" class="node"><title>Node5</title>
<g id="a_node6"><a xlink:href="../../d9/d49/types_8h.html" target="_top" xlink:title="This file contains a number of basic enums and types. ">
<polygon fill="white" stroke="black" points="168,-56.5 168,-75.5 217,-75.5 217,-56.5 168,-56.5"/>
<text text-anchor="middle" x="192.5" y="-63.5" font-family="Helvetica,sans-Serif" font-size="10.00">types.h</text>
</a>
</g>
</g>
<!-- Node0&#45;&gt;Node5 -->
<g id="edge6" class="edge"><title>Node0&#45;&gt;Node5</title>
<path fill="none" stroke="midnightblue" d="M101.852,-112.324C119.172,-103.664 146.015,-90.2424 166.002,-80.249"/>
<polygon fill="midnightblue" stroke="midnightblue" points="167.812,-83.2572 175.191,-75.6545 164.681,-76.9962 167.812,-83.2572"/>
</g>
<!-- Node2&#45;&gt;Node1 -->
<g id="edge3" class="edge"><title>Node2&#45;&gt;Node1</title>
<path fill="none" stroke="midnightblue" d="M74.378,-56.324C64.9736,-48.2631 50.7559,-36.0765 39.431,-26.3695"/>
<polygon fill="midnightblue" stroke="midnightblue" points="41.6766,-23.6844 31.8062,-19.8339 37.121,-28.9993 41.6766,-23.6844"/>
</g>
<!-- Node3 -->
<g id="node4" class="node"><title>Node3</title>
<polygon fill="white" stroke="#bfbfbf" points="61.5,-0.5 61.5,-19.5 107.5,-19.5 107.5,-0.5 61.5,-0.5"/>
<text text-anchor="middle" x="84.5" y="-7.5" font-family="Helvetica,sans-Serif" font-size="10.00">qdict.h</text>
</g>
<!-- Node2&#45;&gt;Node3 -->
<g id="edge4" class="edge"><title>Node2&#45;&gt;Node3</title>
<path fill="none" stroke="midnightblue" d="M84.5,-56.083C84.5,-49.0059 84.5,-38.8611 84.5,-29.9865"/>
<polygon fill="midnightblue" stroke="midnightblue" points="88.0001,-29.751 84.5,-19.7511 81.0001,-29.7511 88.0001,-29.751"/>
</g>
<!-- Node4 -->
<g id="node5" class="node"><title>Node4</title>
<polygon fill="white" stroke="#bfbfbf" points="125.5,-0.5 125.5,-19.5 181.5,-19.5 181.5,-0.5 125.5,-0.5"/>
<text text-anchor="middle" x="153.5" y="-7.5" font-family="Helvetica,sans-Serif" font-size="10.00">qintdict.h</text>
</g>
<!-- Node2&#45;&gt;Node4 -->
<g id="edge5" class="edge"><title>Node2&#45;&gt;Node4</title>
<path fill="none" stroke="midnightblue" d="M95.586,-56.324C105.986,-48.1849 121.761,-35.8395 134.222,-26.0874"/>
<polygon fill="midnightblue" stroke="midnightblue" points="136.494,-28.7533 142.212,-19.8339 132.18,-23.2407 136.494,-28.7533"/>
</g>
<!-- Node6 -->
<g id="node7" class="node"><title>Node6</title>
<polygon fill="white" stroke="#bfbfbf" points="200,-0.5 200,-19.5 259,-19.5 259,-0.5 200,-0.5"/>
<text text-anchor="middle" x="229.5" y="-7.5" font-family="Helvetica,sans-Serif" font-size="10.00">qcstring.h</text>
</g>
<!-- Node5&#45;&gt;Node6 -->
<g id="edge7" class="edge"><title>Node5&#45;&gt;Node6</title>
<path fill="none" stroke="midnightblue" d="M198.61,-56.083C203.782,-48.5341 211.346,-37.4948 217.694,-28.2298"/>
<polygon fill="midnightblue" stroke="midnightblue" points="220.739,-29.9787 223.504,-19.7511 214.964,-26.0221 220.739,-29.9787"/>
</g>
</g>
</svg>
