<?xml version="1.0" encoding="UTF-8" standalone="no"?>
<!DOCTYPE svg PUBLIC "-//W3C//DTD SVG 1.1//EN"
 "http://www.w3.org/Graphics/SVG/1.1/DTD/svg11.dtd">
<!-- Generated by graphviz version 2.38.0 (20140413.2041)
 -->
<!-- Title: TemplateListIntf Pages: 1 -->
<!--zoomable 1038 -->
<svg id="main" version="1.1" xmlns="http://www.w3.org/2000/svg" xmlns:xlink="http://www.w3.org/1999/xlink" xml:space="preserve" onload="init(evt)">
<style type="text/css"><![CDATA[
.edge:hover path { stroke: red; }
.edge:hover polygon { stroke: red; fill: red; }
]]></style>
<script type="text/javascript"><![CDATA[
var edges = document.getElementsByTagName('g');
if (edges && edges.length) {
  for (var i=0;i<edges.length;i++) {
    if (edges[i].id.substr(0,4)=='edge') {
      edges[i].setAttribute('class','edge');
    }
  }
}
]]></script>
        <defs>
                <circle id="rim" cx="0" cy="0" r="7"/>
                <circle id="rim2" cx="0" cy="0" r="3.5"/>
                <g id="zoomPlus">
                        <use xlink:href="#rim" fill="#404040">
                                <set attributeName="fill" to="#808080" begin="zoomplus.mouseover" end="zoomplus.mouseout"/>
                        </use>
                        <path d="M-4,0h8M0,-4v8" fill="none" stroke="white" stroke-width="1.5" pointer-events="none"/>
                </g>
                <g id="zoomMin">
                        <use xlink:href="#rim" fill="#404040">
                                <set attributeName="fill" to="#808080" begin="zoomminus.mouseover" end="zoomminus.mouseout"/>
                        </use>
                        <path d="M-4,0h8" fill="none" stroke="white" stroke-width="1.5" pointer-events="none"/>
                </g>
                <g id="dirArrow">
                        <path fill="none" stroke="white" stroke-width="1.5" d="M0,-3.0v7 M-2.5,-0.5L0,-3.0L2.5,-0.5"/>
                </g>
               <g id="resetDef">
                       <use xlink:href="#rim2" fill="#404040">
                               <set attributeName="fill" to="#808080" begin="reset.mouseover" end="reset.mouseout"/>
                       </use>
               </g>
        </defs>

<script type="text/javascript">
var viewWidth = 479;
var viewHeight = 1038;
var sectionId = 'dynsection-0';
</script>
<script xlink:href="../../svgpan.js"/>
<svg id="graph" class="graph">
<g id="viewport">
<title>TemplateListIntf</title>
<polygon fill="white" stroke="none" points="-4,4 -4,-1033.5 475,-1033.5 475,4 -4,4"/>
<!-- Node0 -->
<g id="node1" class="node"><title>Node0</title>
<polygon fill="#bfbfbf" stroke="black" points="0,-418.5 0,-437.5 87,-437.5 87,-418.5 0,-418.5"/>
<text text-anchor="middle" x="43.5" y="-425.5" font-family="Helvetica,sans-Serif" font-size="10.00">TemplateListIntf</text>
</g>
<!-- Node1 -->
<g id="node2" class="node"><title>Node1</title>
<g id="a_node2"><a xlink:href="../../d6/d10/class_all_members_list_context.html" target="_top" xlink:title="AllMembersListContext">
<polygon fill="white" stroke="black" points="141.5,-836.5 141.5,-855.5 260.5,-855.5 260.5,-836.5 141.5,-836.5"/>
<text text-anchor="middle" x="201" y="-843.5" font-family="Helvetica,sans-Serif" font-size="10.00">AllMembersListContext</text>
</a>
</g>
</g>
<!-- Node0&#45;&gt;Node1 -->
<g id="edge1" class="edge"><title>Node0&#45;&gt;Node1</title>
<path fill="none" stroke="midnightblue" d="M45.645,-447.762C50.253,-520.392 69.8202,-771.223 123,-827 128.131,-832.381 134.523,-836.338 141.416,-839.231"/>
<polygon fill="midnightblue" stroke="midnightblue" points="49.1332,-447.461 45.031,-437.693 42.1462,-447.887 49.1332,-447.461"/>
</g>
<!-- Node2 -->
<g id="node3" class="node"><title>Node2</title>
<g id="a_node3"><a xlink:href="../../d3/d8a/class_argument_list_context.html" target="_top" xlink:title="ArgumentListContext">
<polygon fill="white" stroke="black" points="146.5,-798.5 146.5,-817.5 255.5,-817.5 255.5,-798.5 146.5,-798.5"/>
<text text-anchor="middle" x="201" y="-805.5" font-family="Helvetica,sans-Serif" font-size="10.00">ArgumentListContext</text>
</a>
</g>
</g>
<!-- Node0&#45;&gt;Node2 -->
<g id="edge2" class="edge"><title>Node0&#45;&gt;Node2</title>
<path fill="none" stroke="midnightblue" d="M46.113,-448.046C52.0217,-516.473 74.7039,-739.342 123,-789 129.336,-795.515 137.523,-799.933 146.185,-802.903"/>
<polygon fill="midnightblue" stroke="midnightblue" points="49.5761,-447.457 45.2543,-437.784 42.6005,-448.041 49.5761,-447.457"/>
</g>
<!-- Node3 -->
<g id="node4" class="node"><title>Node3</title>
<g id="a_node4"><a xlink:href="../../d3/d7c/class_class_inheritance_context.html" target="_top" xlink:title="ClassInheritanceContext">
<polygon fill="white" stroke="black" points="138.5,-760.5 138.5,-779.5 263.5,-779.5 263.5,-760.5 138.5,-760.5"/>
<text text-anchor="middle" x="201" y="-767.5" font-family="Helvetica,sans-Serif" font-size="10.00">ClassInheritanceContext</text>
</a>
</g>
</g>
<!-- Node0&#45;&gt;Node3 -->
<g id="edge3" class="edge"><title>Node0&#45;&gt;Node3</title>
<path fill="none" stroke="midnightblue" d="M46.6565,-447.965C53.9151,-511.49 79.4753,-707.322 123,-751 127.374,-755.389 132.589,-758.822 138.215,-761.5"/>
<polygon fill="midnightblue" stroke="midnightblue" points="50.0998,-447.261 45.514,-437.71 43.1428,-448.036 50.0998,-447.261"/>
</g>
<!-- Node4 -->
<g id="node5" class="node"><title>Node4</title>
<g id="a_node5"><a xlink:href="../../da/d8d/class_class_list_context.html" target="_top" xlink:title="ClassListContext">
<polygon fill="white" stroke="black" points="155,-722.5 155,-741.5 247,-741.5 247,-722.5 155,-722.5"/>
<text text-anchor="middle" x="201" y="-729.5" font-family="Helvetica,sans-Serif" font-size="10.00">ClassListContext</text>
</a>
</g>
</g>
<!-- Node0&#45;&gt;Node4 -->
<g id="edge4" class="edge"><title>Node0&#45;&gt;Node4</title>
<path fill="none" stroke="midnightblue" d="M43.6506,-447.636C42.5606,-499.119 47.102,-639.113 123,-713 131.583,-721.356 143.226,-726.227 154.857,-729.016"/>
<polygon fill="midnightblue" stroke="midnightblue" points="47.1519,-447.645 43.9661,-437.541 40.1554,-447.426 47.1519,-447.645"/>
</g>
<!-- Node5 -->
<g id="node6" class="node"><title>Node5</title>
<g id="a_node6"><a xlink:href="../../dc/d3e/class_dir_list_context.html" target="_top" xlink:title="DirListContext">
<polygon fill="white" stroke="black" points="161,-684.5 161,-703.5 241,-703.5 241,-684.5 161,-684.5"/>
<text text-anchor="middle" x="201" y="-691.5" font-family="Helvetica,sans-Serif" font-size="10.00">DirListContext</text>
</a>
</g>
</g>
<!-- Node0&#45;&gt;Node5 -->
<g id="edge5" class="edge"><title>Node0&#45;&gt;Node5</title>
<path fill="none" stroke="midnightblue" d="M44.6408,-447.797C46.097,-494.595 56.5357,-612.771 123,-675 133.152,-684.505 147.278,-689.467 160.664,-691.992"/>
<polygon fill="midnightblue" stroke="midnightblue" points="48.1345,-447.443 44.4354,-437.515 41.1359,-447.583 48.1345,-447.443"/>
</g>
<!-- Node6 -->
<g id="node7" class="node"><title>Node6</title>
<g id="a_node7"><a xlink:href="../../d1/d02/class_example_list_context.html" target="_top" xlink:title="ExampleListContext">
<polygon fill="white" stroke="black" points="148.5,-646.5 148.5,-665.5 253.5,-665.5 253.5,-646.5 148.5,-646.5"/>
<text text-anchor="middle" x="201" y="-653.5" font-family="Helvetica,sans-Serif" font-size="10.00">ExampleListContext</text>
</a>
</g>
</g>
<!-- Node0&#45;&gt;Node6 -->
<g id="edge6" class="edge"><title>Node0&#45;&gt;Node6</title>
<path fill="none" stroke="midnightblue" d="M45.9656,-447.825C50.1404,-489.422 65.8071,-586.155 123,-637 130.1,-643.312 138.967,-647.602 148.132,-650.501"/>
<polygon fill="midnightblue" stroke="midnightblue" points="49.4323,-447.293 45.0678,-437.639 42.4594,-447.908 49.4323,-447.293"/>
</g>
<!-- Node7 -->
<g id="node8" class="node"><title>Node7</title>
<g id="a_node8"><a xlink:href="../../d8/d25/class_file_list_context.html" target="_top" xlink:title="FileListContext">
<polygon fill="white" stroke="black" points="159.5,-608.5 159.5,-627.5 242.5,-627.5 242.5,-608.5 159.5,-608.5"/>
<text text-anchor="middle" x="201" y="-615.5" font-family="Helvetica,sans-Serif" font-size="10.00">FileListContext</text>
</a>
</g>
</g>
<!-- Node0&#45;&gt;Node7 -->
<g id="edge7" class="edge"><title>Node0&#45;&gt;Node7</title>
<path fill="none" stroke="midnightblue" d="M47.7819,-447.615C54.8281,-483.38 74.852,-559.167 123,-599 133.185,-607.426 146.559,-612.204 159.298,-614.886"/>
<polygon fill="midnightblue" stroke="midnightblue" points="51.1748,-446.712 45.9309,-437.506 44.2892,-447.973 51.1748,-446.712"/>
</g>
<!-- Node8 -->
<g id="node9" class="node"><title>Node8</title>
<g id="a_node9"><a xlink:href="../../d6/dcb/class_generic_node_list_context.html" target="_top" xlink:title="standard template list implementation ">
<polygon fill="white" stroke="black" points="139,-570.5 139,-589.5 263,-589.5 263,-570.5 139,-570.5"/>
<text text-anchor="middle" x="201" y="-577.5" font-family="Helvetica,sans-Serif" font-size="10.00">GenericNodeListContext</text>
</a>
</g>
</g>
<!-- Node0&#45;&gt;Node8 -->
<g id="edge8" class="edge"><title>Node0&#45;&gt;Node8</title>
<path fill="none" stroke="midnightblue" d="M50.4763,-447.333C60.5442,-476.586 83.7277,-531.775 123,-561 128.192,-564.863 134.072,-567.949 140.214,-570.411"/>
<polygon fill="midnightblue" stroke="midnightblue" points="53.7996,-446.235 47.355,-437.825 47.1488,-448.418 53.7996,-446.235"/>
</g>
<!-- Node29 -->
<g id="node30" class="node"><title>Node29</title>
<g id="a_node30"><a xlink:href="../../d3/d57/class_include_info_list_context.html" target="_top" xlink:title="IncludeInfoListContext">
<polygon fill="white" stroke="black" points="143.5,-532.5 143.5,-551.5 258.5,-551.5 258.5,-532.5 143.5,-532.5"/>
<text text-anchor="middle" x="201" y="-539.5" font-family="Helvetica,sans-Serif" font-size="10.00">IncludeInfoListContext</text>
</a>
</g>
</g>
<!-- Node0&#45;&gt;Node29 -->
<g id="edge29" class="edge"><title>Node0&#45;&gt;Node29</title>
<path fill="none" stroke="midnightblue" d="M54.7059,-446.42C67.7013,-468.117 92.21,-503.65 123,-523 129.179,-526.883 136.1,-529.973 143.19,-532.431"/>
<polygon fill="midnightblue" stroke="midnightblue" points="57.6013,-444.435 49.564,-437.532 51.5423,-447.941 57.6013,-444.435"/>
</g>
<!-- Node30 -->
<g id="node31" class="node"><title>Node30</title>
<g id="a_node31"><a xlink:href="../../d8/d77/class_inheritance_list_context.html" target="_top" xlink:title="InheritanceListContext">
<polygon fill="white" stroke="black" points="143.5,-494.5 143.5,-513.5 258.5,-513.5 258.5,-494.5 143.5,-494.5"/>
<text text-anchor="middle" x="201" y="-501.5" font-family="Helvetica,sans-Serif" font-size="10.00">InheritanceListContext</text>
</a>
</g>
</g>
<!-- Node0&#45;&gt;Node30 -->
<g id="edge30" class="edge"><title>Node0&#45;&gt;Node30</title>
<path fill="none" stroke="midnightblue" d="M62.4027,-444.137C77.5363,-456.969 100.318,-474.461 123,-485 131.241,-488.829 140.351,-491.947 149.334,-494.466"/>
<polygon fill="midnightblue" stroke="midnightblue" points="64.6763,-441.475 54.8312,-437.561 60.0863,-446.76 64.6763,-441.475"/>
</g>
<!-- Node31 -->
<g id="node32" class="node"><title>Node31</title>
<g id="a_node32"><a xlink:href="../../d3/d67/class_inherited_member_info_list_context.html" target="_top" xlink:title="InheritedMemberInfoListContext">
<polygon fill="white" stroke="black" points="123,-456.5 123,-475.5 279,-475.5 279,-456.5 123,-456.5"/>
<text text-anchor="middle" x="201" y="-463.5" font-family="Helvetica,sans-Serif" font-size="10.00">InheritedMemberInfoListContext</text>
</a>
</g>
</g>
<!-- Node0&#45;&gt;Node31 -->
<g id="edge31" class="edge"><title>Node0&#45;&gt;Node31</title>
<path fill="none" stroke="midnightblue" d="M93.4742,-439.968C115.265,-445.293 140.567,-451.476 161.043,-456.48"/>
<polygon fill="midnightblue" stroke="midnightblue" points="94.2843,-436.563 83.7392,-437.589 92.6225,-443.363 94.2843,-436.563"/>
</g>
<!-- Node32 -->
<g id="node33" class="node"><title>Node32</title>
<g id="a_node33"><a xlink:href="../../d4/d1c/class_member_group_list_context.html" target="_top" xlink:title="MemberGroupListContext">
<polygon fill="white" stroke="black" points="137,-418.5 137,-437.5 265,-437.5 265,-418.5 137,-418.5"/>
<text text-anchor="middle" x="201" y="-425.5" font-family="Helvetica,sans-Serif" font-size="10.00">MemberGroupListContext</text>
</a>
</g>
</g>
<!-- Node0&#45;&gt;Node32 -->
<g id="edge32" class="edge"><title>Node0&#45;&gt;Node32</title>
<path fill="none" stroke="midnightblue" d="M97.7235,-428C110.318,-428 123.869,-428 136.856,-428"/>
<polygon fill="midnightblue" stroke="midnightblue" points="97.4027,-424.5 87.4027,-428 97.4027,-431.5 97.4027,-424.5"/>
</g>
<!-- Node33 -->
<g id="node34" class="node"><title>Node33</title>
<g id="a_node34"><a xlink:href="../../df/dda/class_member_list_context.html" target="_top" xlink:title="MemberListContext">
<polygon fill="white" stroke="black" points="150,-380.5 150,-399.5 252,-399.5 252,-380.5 150,-380.5"/>
<text text-anchor="middle" x="201" y="-387.5" font-family="Helvetica,sans-Serif" font-size="10.00">MemberListContext</text>
</a>
</g>
</g>
<!-- Node0&#45;&gt;Node33 -->
<g id="edge33" class="edge"><title>Node0&#45;&gt;Node33</title>
<path fill="none" stroke="midnightblue" d="M93.4742,-416.032C115.265,-410.707 140.567,-404.524 161.043,-399.52"/>
<polygon fill="midnightblue" stroke="midnightblue" points="92.6225,-412.637 83.7392,-418.411 94.2843,-419.437 92.6225,-412.637"/>
</g>
<!-- Node34 -->
<g id="node35" class="node"><title>Node34</title>
<g id="a_node35"><a xlink:href="../../d3/d5a/class_module_list_context.html" target="_top" xlink:title="ModuleListContext">
<polygon fill="white" stroke="black" points="152,-342.5 152,-361.5 250,-361.5 250,-342.5 152,-342.5"/>
<text text-anchor="middle" x="201" y="-349.5" font-family="Helvetica,sans-Serif" font-size="10.00">ModuleListContext</text>
</a>
</g>
</g>
<!-- Node0&#45;&gt;Node34 -->
<g id="edge34" class="edge"><title>Node0&#45;&gt;Node34</title>
<path fill="none" stroke="midnightblue" d="M62.4027,-411.863C77.5363,-399.031 100.318,-381.539 123,-371 131.991,-366.822 142.015,-363.492 151.78,-360.862"/>
<polygon fill="midnightblue" stroke="midnightblue" points="60.0863,-409.24 54.8312,-418.439 64.6763,-414.525 60.0863,-409.24"/>
</g>
<!-- Node35 -->
<g id="node36" class="node"><title>Node35</title>
<g id="a_node36"><a xlink:href="../../d2/dfb/class_namespace_list_context.html" target="_top" xlink:title="NamespaceListContext">
<polygon fill="white" stroke="black" points="141.5,-304.5 141.5,-323.5 260.5,-323.5 260.5,-304.5 141.5,-304.5"/>
<text text-anchor="middle" x="201" y="-311.5" font-family="Helvetica,sans-Serif" font-size="10.00">NamespaceListContext</text>
</a>
</g>
</g>
<!-- Node0&#45;&gt;Node35 -->
<g id="edge35" class="edge"><title>Node0&#45;&gt;Node35</title>
<path fill="none" stroke="midnightblue" d="M54.7059,-409.58C67.7013,-387.883 92.21,-352.35 123,-333 129.179,-329.117 136.1,-326.027 143.19,-323.569"/>
<polygon fill="midnightblue" stroke="midnightblue" points="51.5423,-408.059 49.564,-418.468 57.6013,-411.565 51.5423,-408.059"/>
</g>
<!-- Node36 -->
<g id="node37" class="node"><title>Node36</title>
<g id="a_node37"><a xlink:href="../../db/d7e/class_nesting_context.html" target="_top" xlink:title="NestingContext">
<polygon fill="white" stroke="black" points="158.5,-266.5 158.5,-285.5 243.5,-285.5 243.5,-266.5 158.5,-266.5"/>
<text text-anchor="middle" x="201" y="-273.5" font-family="Helvetica,sans-Serif" font-size="10.00">NestingContext</text>
</a>
</g>
</g>
<!-- Node0&#45;&gt;Node36 -->
<g id="edge36" class="edge"><title>Node0&#45;&gt;Node36</title>
<path fill="none" stroke="midnightblue" d="M50.4763,-408.667C60.5442,-379.414 83.7277,-324.225 123,-295 133.162,-287.437 145.965,-282.857 158.198,-280.091"/>
<polygon fill="midnightblue" stroke="midnightblue" points="47.1488,-407.582 47.355,-418.175 53.7996,-409.765 47.1488,-407.582"/>
</g>
<!-- Node37 -->
<g id="node38" class="node"><title>Node37</title>
<g id="a_node38"><a xlink:href="../../dc/dbf/class_page_list_context.html" target="_top" xlink:title="PageListContext">
<polygon fill="white" stroke="black" points="156.5,-228.5 156.5,-247.5 245.5,-247.5 245.5,-228.5 156.5,-228.5"/>
<text text-anchor="middle" x="201" y="-235.5" font-family="Helvetica,sans-Serif" font-size="10.00">PageListContext</text>
</a>
</g>
</g>
<!-- Node0&#45;&gt;Node37 -->
<g id="edge37" class="edge"><title>Node0&#45;&gt;Node37</title>
<path fill="none" stroke="midnightblue" d="M47.7819,-408.385C54.8281,-372.62 74.852,-296.833 123,-257 132.336,-249.276 144.352,-244.617 156.103,-241.829"/>
<polygon fill="midnightblue" stroke="midnightblue" points="44.2892,-408.027 45.9309,-418.494 51.1748,-409.288 44.2892,-408.027"/>
</g>
<!-- Node38 -->
<g id="node39" class="node"><title>Node38</title>
<g id="a_node39"><a xlink:href="../../db/da2/class_search_indices_context.html" target="_top" xlink:title="SearchIndicesContext">
<polygon fill="white" stroke="black" points="144.5,-190.5 144.5,-209.5 257.5,-209.5 257.5,-190.5 144.5,-190.5"/>
<text text-anchor="middle" x="201" y="-197.5" font-family="Helvetica,sans-Serif" font-size="10.00">SearchIndicesContext</text>
</a>
</g>
</g>
<!-- Node0&#45;&gt;Node38 -->
<g id="edge38" class="edge"><title>Node0&#45;&gt;Node38</title>
<path fill="none" stroke="midnightblue" d="M45.9656,-408.175C50.1404,-366.578 65.8071,-269.845 123,-219 129.071,-213.602 136.434,-209.684 144.171,-206.849"/>
<polygon fill="midnightblue" stroke="midnightblue" points="42.4594,-408.092 45.0678,-418.361 49.4323,-408.707 42.4594,-408.092"/>
</g>
<!-- Node39 -->
<g id="node40" class="node"><title>Node39</title>
<g id="a_node40"><a xlink:href="../../d1/dc6/class_symbol_group_list_context.html" target="_top" xlink:title="SymbolGroupListContext">
<polygon fill="white" stroke="black" points="138,-152.5 138,-171.5 264,-171.5 264,-152.5 138,-152.5"/>
<text text-anchor="middle" x="201" y="-159.5" font-family="Helvetica,sans-Serif" font-size="10.00">SymbolGroupListContext</text>
</a>
</g>
</g>
<!-- Node0&#45;&gt;Node39 -->
<g id="edge39" class="edge"><title>Node0&#45;&gt;Node39</title>
<path fill="none" stroke="midnightblue" d="M44.6408,-408.203C46.097,-361.405 56.5357,-243.229 123,-181 127.322,-176.953 132.365,-173.73 137.764,-171.168"/>
<polygon fill="midnightblue" stroke="midnightblue" points="41.1359,-408.417 44.4354,-418.485 48.1345,-408.557 41.1359,-408.417"/>
</g>
<!-- Node40 -->
<g id="node41" class="node"><title>Node40</title>
<g id="a_node41"><a xlink:href="../../d8/d39/class_symbol_indices_context.html" target="_top" xlink:title="SymbolIndicesContext">
<polygon fill="white" stroke="black" points="143,-114.5 143,-133.5 259,-133.5 259,-114.5 143,-114.5"/>
<text text-anchor="middle" x="201" y="-121.5" font-family="Helvetica,sans-Serif" font-size="10.00">SymbolIndicesContext</text>
</a>
</g>
</g>
<!-- Node0&#45;&gt;Node40 -->
<g id="edge40" class="edge"><title>Node0&#45;&gt;Node40</title>
<path fill="none" stroke="midnightblue" d="M43.6506,-408.364C42.5606,-356.881 47.102,-216.887 123,-143 128.624,-137.525 135.56,-133.547 142.947,-130.669"/>
<polygon fill="midnightblue" stroke="midnightblue" points="40.1554,-408.574 43.9661,-418.459 47.1519,-408.355 40.1554,-408.574"/>
</g>
<!-- Node41 -->
<g id="node42" class="node"><title>Node41</title>
<g id="a_node42"><a xlink:href="../../dd/d7d/class_symbol_list_context.html" target="_top" xlink:title="SymbolListContext">
<polygon fill="white" stroke="black" points="151,-76.5 151,-95.5 251,-95.5 251,-76.5 151,-76.5"/>
<text text-anchor="middle" x="201" y="-83.5" font-family="Helvetica,sans-Serif" font-size="10.00">SymbolListContext</text>
</a>
</g>
</g>
<!-- Node0&#45;&gt;Node41 -->
<g id="edge41" class="edge"><title>Node0&#45;&gt;Node41</title>
<path fill="none" stroke="midnightblue" d="M46.6565,-408.035C53.9151,-344.51 79.4753,-148.678 123,-105 130.484,-97.49 140.432,-92.7788 150.684,-89.8622"/>
<polygon fill="midnightblue" stroke="midnightblue" points="43.1428,-407.964 45.514,-418.29 50.0998,-408.739 43.1428,-407.964"/>
</g>
<!-- Node42 -->
<g id="node43" class="node"><title>Node42</title>
<g id="a_node43"><a xlink:href="../../de/dab/class_template_list.html" target="_top" xlink:title="Default implementation of a context value of type list. ">
<polygon fill="white" stroke="black" points="164.5,-38.5 164.5,-57.5 237.5,-57.5 237.5,-38.5 164.5,-38.5"/>
<text text-anchor="middle" x="201" y="-45.5" font-family="Helvetica,sans-Serif" font-size="10.00">TemplateList</text>
</a>
</g>
</g>
<!-- Node0&#45;&gt;Node42 -->
<g id="edge42" class="edge"><title>Node0&#45;&gt;Node42</title>
<path fill="none" stroke="midnightblue" d="M46.113,-407.954C52.0217,-339.527 74.7039,-116.658 123,-67 133.656,-56.0437 149.547,-51.0165 164.131,-48.8366"/>
<polygon fill="midnightblue" stroke="midnightblue" points="42.6005,-407.959 45.2543,-418.216 49.5761,-408.543 42.6005,-407.959"/>
</g>
<!-- Node43 -->
<g id="node44" class="node"><title>Node43</title>
<g id="a_node44"><a xlink:href="../../dc/dd4/class_used_files_context.html" target="_top" xlink:title="UsedFilesContext">
<polygon fill="white" stroke="black" points="153.5,-0.5 153.5,-19.5 248.5,-19.5 248.5,-0.5 153.5,-0.5"/>
<text text-anchor="middle" x="201" y="-7.5" font-family="Helvetica,sans-Serif" font-size="10.00">UsedFilesContext</text>
</a>
</g>
</g>
<!-- Node0&#45;&gt;Node43 -->
<g id="edge43" class="edge"><title>Node0&#45;&gt;Node43</title>
<path fill="none" stroke="midnightblue" d="M45.645,-408.238C50.253,-335.608 69.8202,-84.7767 123,-29 130.981,-20.6291 142.015,-15.7059 153.239,-12.8692"/>
<polygon fill="midnightblue" stroke="midnightblue" points="42.1462,-408.113 45.031,-418.307 49.1332,-408.539 42.1462,-408.113"/>
</g>
<!-- Node9 -->
<g id="node10" class="node"><title>Node9</title>
<g id="a_node10"><a xlink:href="../../d6/db0/class_all_members_list_context_1_1_private.html" target="_top" xlink:title="AllMembersListContext\l::Private">
<polygon fill="white" stroke="black" points="333.5,-999 333.5,-1029 452.5,-1029 452.5,-999 333.5,-999"/>
<text text-anchor="start" x="341.5" y="-1017" font-family="Helvetica,sans-Serif" font-size="10.00">AllMembersListContext</text>
<text text-anchor="middle" x="393" y="-1006" font-family="Helvetica,sans-Serif" font-size="10.00">::Private</text>
</a>
</g>
</g>
<!-- Node8&#45;&gt;Node9 -->
<g id="edge9" class="edge"><title>Node8&#45;&gt;Node9</title>
<path fill="none" stroke="midnightblue" d="M272.278,-592.723C274.72,-594.569 276.98,-596.651 279,-599 335.899,-665.152 260.118,-922.165 315,-990 319.932,-996.096 326.391,-1000.67 333.472,-1004.11"/>
<polygon fill="midnightblue" stroke="midnightblue" points="273.726,-589.508 263.359,-587.323 270.1,-595.496 273.726,-589.508"/>
</g>
<!-- Node10 -->
<g id="node11" class="node"><title>Node10</title>
<g id="a_node11"><a xlink:href="../../d7/dc4/class_argument_list_context_1_1_private.html" target="_top" xlink:title="ArgumentListContext\l::Private">
<polygon fill="white" stroke="black" points="338.5,-950 338.5,-980 447.5,-980 447.5,-950 338.5,-950"/>
<text text-anchor="start" x="346.5" y="-968" font-family="Helvetica,sans-Serif" font-size="10.00">ArgumentListContext</text>
<text text-anchor="middle" x="393" y="-957" font-family="Helvetica,sans-Serif" font-size="10.00">::Private</text>
</a>
</g>
</g>
<!-- Node8&#45;&gt;Node10 -->
<g id="edge10" class="edge"><title>Node8&#45;&gt;Node10</title>
<path fill="none" stroke="midnightblue" d="M272.239,-592.757C274.691,-594.593 276.964,-596.665 279,-599 379.148,-713.872 219.052,-821.597 315,-940 321.017,-947.425 329.271,-952.67 338.148,-956.368"/>
<polygon fill="midnightblue" stroke="midnightblue" points="273.667,-589.532 263.293,-587.38 270.061,-595.532 273.667,-589.532"/>
</g>
<!-- Node11 -->
<g id="node12" class="node"><title>Node11</title>
<g id="a_node12"><a xlink:href="../../d4/d4e/class_class_list_context_1_1_private.html" target="_top" xlink:title="ClassListContext::Private">
<polygon fill="white" stroke="black" points="328.5,-911.5 328.5,-930.5 457.5,-930.5 457.5,-911.5 328.5,-911.5"/>
<text text-anchor="middle" x="393" y="-918.5" font-family="Helvetica,sans-Serif" font-size="10.00">ClassListContext::Private</text>
</a>
</g>
</g>
<!-- Node8&#45;&gt;Node11 -->
<g id="edge11" class="edge"><title>Node8&#45;&gt;Node11</title>
<path fill="none" stroke="midnightblue" d="M272.201,-592.791C274.664,-594.618 276.949,-596.678 279,-599 368.785,-700.636 225.215,-800.364 315,-902 318.738,-906.231 323.253,-909.594 328.201,-912.259"/>
<polygon fill="midnightblue" stroke="midnightblue" points="273.609,-589.555 263.228,-587.437 270.022,-595.566 273.609,-589.555"/>
</g>
<!-- Node12 -->
<g id="node13" class="node"><title>Node12</title>
<g id="a_node13"><a xlink:href="../../d7/d7d/class_dir_list_context_1_1_private.html" target="_top" xlink:title="DirListContext::Private">
<polygon fill="white" stroke="black" points="335,-873.5 335,-892.5 451,-892.5 451,-873.5 335,-873.5"/>
<text text-anchor="middle" x="393" y="-880.5" font-family="Helvetica,sans-Serif" font-size="10.00">DirListContext::Private</text>
</a>
</g>
</g>
<!-- Node8&#45;&gt;Node12 -->
<g id="edge12" class="edge"><title>Node8&#45;&gt;Node12</title>
<path fill="none" stroke="midnightblue" d="M272.153,-592.834C274.628,-594.649 276.93,-596.695 279,-599 358.436,-687.416 235.564,-775.584 315,-864 320.337,-869.941 327.208,-874.165 334.645,-877.145"/>
<polygon fill="midnightblue" stroke="midnightblue" points="273.536,-589.586 263.146,-587.51 269.974,-595.612 273.536,-589.586"/>
</g>
<!-- Node13 -->
<g id="node14" class="node"><title>Node13</title>
<g id="a_node14"><a xlink:href="../../da/d6f/class_example_list_context_1_1_private.html" target="_top" xlink:title="ExampleListContext\l::Private">
<polygon fill="white" stroke="black" points="340.5,-824 340.5,-854 445.5,-854 445.5,-824 340.5,-824"/>
<text text-anchor="start" x="348.5" y="-842" font-family="Helvetica,sans-Serif" font-size="10.00">ExampleListContext</text>
<text text-anchor="middle" x="393" y="-831" font-family="Helvetica,sans-Serif" font-size="10.00">::Private</text>
</a>
</g>
</g>
<!-- Node8&#45;&gt;Node13 -->
<g id="edge13" class="edge"><title>Node8&#45;&gt;Node13</title>
<path fill="none" stroke="midnightblue" d="M272.22,-593.027C274.661,-594.792 276.938,-596.775 279,-599 344.856,-670.062 251.745,-740.613 315,-814 321.699,-821.772 330.838,-827.144 340.482,-830.853"/>
<polygon fill="midnightblue" stroke="midnightblue" points="273.765,-589.875 263.371,-587.823 270.217,-595.909 273.765,-589.875"/>
</g>
<!-- Node14 -->
<g id="node15" class="node"><title>Node14</title>
<g id="a_node15"><a xlink:href="../../d1/d6e/class_file_list_context_1_1_private.html" target="_top" xlink:title="FileListContext::Private">
<polygon fill="white" stroke="black" points="333.5,-785.5 333.5,-804.5 452.5,-804.5 452.5,-785.5 333.5,-785.5"/>
<text text-anchor="middle" x="393" y="-792.5" font-family="Helvetica,sans-Serif" font-size="10.00">FileListContext::Private</text>
</a>
</g>
</g>
<!-- Node8&#45;&gt;Node14 -->
<g id="edge14" class="edge"><title>Node8&#45;&gt;Node14</title>
<path fill="none" stroke="midnightblue" d="M272.124,-593.117C274.591,-594.858 276.9,-596.811 279,-599 334.581,-656.924 259.419,-718.076 315,-776 320.148,-781.365 326.55,-785.312 333.448,-788.2"/>
<polygon fill="midnightblue" stroke="midnightblue" points="273.619,-589.939 263.208,-587.977 270.123,-596.004 273.619,-589.939"/>
</g>
<!-- Node15 -->
<g id="node16" class="node"><title>Node15</title>
<g id="a_node16"><a xlink:href="../../dc/d85/class_include_info_list_context_1_1_private.html" target="_top" xlink:title="IncludeInfoListContext\l::Private">
<polygon fill="white" stroke="black" points="335.5,-736 335.5,-766 450.5,-766 450.5,-736 335.5,-736"/>
<text text-anchor="start" x="343.5" y="-754" font-family="Helvetica,sans-Serif" font-size="10.00">IncludeInfoListContext</text>
<text text-anchor="middle" x="393" y="-743" font-family="Helvetica,sans-Serif" font-size="10.00">::Private</text>
</a>
</g>
</g>
<!-- Node8&#45;&gt;Node15 -->
<g id="edge15" class="edge"><title>Node8&#45;&gt;Node15</title>
<path fill="none" stroke="midnightblue" d="M272.087,-593.422C274.547,-595.083 276.867,-596.935 279,-599 321.456,-640.108 273.801,-684.632 315,-727 320.662,-732.822 327.711,-737.239 335.227,-740.587"/>
<polygon fill="midnightblue" stroke="midnightblue" points="273.686,-590.307 263.249,-588.486 270.273,-596.418 273.686,-590.307"/>
</g>
<!-- Node16 -->
<g id="node17" class="node"><title>Node16</title>
<g id="a_node17"><a xlink:href="../../d3/dfa/class_inheritance_list_context_1_1_private.html" target="_top" xlink:title="InheritanceListContext\l::Private">
<polygon fill="white" stroke="black" points="335.5,-687 335.5,-717 450.5,-717 450.5,-687 335.5,-687"/>
<text text-anchor="start" x="343.5" y="-705" font-family="Helvetica,sans-Serif" font-size="10.00">InheritanceListContext</text>
<text text-anchor="middle" x="393" y="-694" font-family="Helvetica,sans-Serif" font-size="10.00">::Private</text>
</a>
</g>
</g>
<!-- Node8&#45;&gt;Node16 -->
<g id="edge16" class="edge"><title>Node8&#45;&gt;Node16</title>
<path fill="none" stroke="midnightblue" d="M272.525,-594.351C274.792,-595.762 276.96,-597.308 279,-599 308.695,-623.637 286.06,-652.48 315,-678 320.881,-683.186 327.874,-687.252 335.211,-690.439"/>
<polygon fill="midnightblue" stroke="midnightblue" points="273.847,-591.093 263.365,-589.55 270.598,-597.293 273.847,-591.093"/>
</g>
<!-- Node17 -->
<g id="node18" class="node"><title>Node17</title>
<g id="a_node18"><a xlink:href="../../d0/de8/class_inherited_member_info_list_context_1_1_private.html" target="_top" xlink:title="InheritedMemberInfoListContext\l::Private">
<polygon fill="white" stroke="black" points="315,-638 315,-668 471,-668 471,-638 315,-638"/>
<text text-anchor="start" x="323" y="-656" font-family="Helvetica,sans-Serif" font-size="10.00">InheritedMemberInfoListContext</text>
<text text-anchor="middle" x="393" y="-645" font-family="Helvetica,sans-Serif" font-size="10.00">::Private</text>
</a>
</g>
</g>
<!-- Node8&#45;&gt;Node17 -->
<g id="edge17" class="edge"><title>Node8&#45;&gt;Node17</title>
<path fill="none" stroke="midnightblue" d="M264.345,-592.762C269.409,-594.583 274.358,-596.652 279,-599 297.585,-608.401 296.707,-619.043 315,-629 321.149,-632.347 327.834,-635.302 334.61,-637.891"/>
<polygon fill="midnightblue" stroke="midnightblue" points="265.107,-589.329 254.515,-589.558 262.937,-595.984 265.107,-589.329"/>
</g>
<!-- Node18 -->
<g id="node19" class="node"><title>Node18</title>
<g id="a_node19"><a xlink:href="../../d3/d09/class_member_group_list_context_1_1_private.html" target="_top" xlink:title="MemberGroupListContext\l::Private">
<polygon fill="white" stroke="black" points="329,-589 329,-619 457,-619 457,-589 329,-589"/>
<text text-anchor="start" x="337" y="-607" font-family="Helvetica,sans-Serif" font-size="10.00">MemberGroupListContext</text>
<text text-anchor="middle" x="393" y="-596" font-family="Helvetica,sans-Serif" font-size="10.00">::Private</text>
</a>
</g>
</g>
<!-- Node8&#45;&gt;Node18 -->
<g id="edge18" class="edge"><title>Node8&#45;&gt;Node18</title>
<path fill="none" stroke="midnightblue" d="M273.196,-588.993C291.523,-591.308 311.114,-593.783 328.993,-596.041"/>
<polygon fill="midnightblue" stroke="midnightblue" points="273.523,-585.507 263.163,-587.726 272.646,-592.452 273.523,-585.507"/>
</g>
<!-- Node19 -->
<g id="node20" class="node"><title>Node19</title>
<g id="a_node20"><a xlink:href="../../df/db1/class_member_list_context_1_1_private.html" target="_top" xlink:title="MemberListContext::\lPrivate">
<polygon fill="white" stroke="black" points="339,-540 339,-570 447,-570 447,-540 339,-540"/>
<text text-anchor="start" x="347" y="-558" font-family="Helvetica,sans-Serif" font-size="10.00">MemberListContext::</text>
<text text-anchor="middle" x="393" y="-547" font-family="Helvetica,sans-Serif" font-size="10.00">Private</text>
</a>
</g>
</g>
<!-- Node8&#45;&gt;Node19 -->
<g id="edge19" class="edge"><title>Node8&#45;&gt;Node19</title>
<path fill="none" stroke="midnightblue" d="M273.347,-570.612C295.103,-567.75 318.626,-564.654 338.946,-561.981"/>
<polygon fill="midnightblue" stroke="midnightblue" points="272.621,-567.178 263.163,-571.952 273.534,-574.118 272.621,-567.178"/>
</g>
<!-- Node20 -->
<g id="node21" class="node"><title>Node20</title>
<g id="a_node21"><a xlink:href="../../da/d0c/class_module_list_context_1_1_private.html" target="_top" xlink:title="ModuleListContext::\lPrivate">
<polygon fill="white" stroke="black" points="341,-491 341,-521 445,-521 445,-491 341,-491"/>
<text text-anchor="start" x="349" y="-509" font-family="Helvetica,sans-Serif" font-size="10.00">ModuleListContext::</text>
<text text-anchor="middle" x="393" y="-498" font-family="Helvetica,sans-Serif" font-size="10.00">Private</text>
</a>
</g>
</g>
<!-- Node8&#45;&gt;Node20 -->
<g id="edge20" class="edge"><title>Node8&#45;&gt;Node20</title>
<path fill="none" stroke="midnightblue" d="M264.345,-567.238C269.409,-565.417 274.358,-563.348 279,-561 297.585,-551.599 296.766,-541.064 315,-531 322.998,-526.585 331.899,-522.801 340.728,-519.611"/>
<polygon fill="midnightblue" stroke="midnightblue" points="262.937,-564.016 254.515,-570.442 265.107,-570.671 262.937,-564.016"/>
</g>
<!-- Node21 -->
<g id="node22" class="node"><title>Node21</title>
<g id="a_node22"><a xlink:href="../../d1/d49/class_namespace_list_context_1_1_private.html" target="_top" xlink:title="NamespaceListContext\l::Private">
<polygon fill="white" stroke="black" points="333.5,-442 333.5,-472 452.5,-472 452.5,-442 333.5,-442"/>
<text text-anchor="start" x="341.5" y="-460" font-family="Helvetica,sans-Serif" font-size="10.00">NamespaceListContext</text>
<text text-anchor="middle" x="393" y="-449" font-family="Helvetica,sans-Serif" font-size="10.00">::Private</text>
</a>
</g>
</g>
<!-- Node8&#45;&gt;Node21 -->
<g id="edge21" class="edge"><title>Node8&#45;&gt;Node21</title>
<path fill="none" stroke="midnightblue" d="M272.525,-565.649C274.792,-564.238 276.96,-562.692 279,-561 308.695,-536.363 286.211,-507.69 315,-482 320.348,-477.227 326.622,-473.364 333.239,-470.238"/>
<polygon fill="midnightblue" stroke="midnightblue" points="270.598,-562.707 263.365,-570.45 273.847,-568.907 270.598,-562.707"/>
</g>
<!-- Node22 -->
<g id="node23" class="node"><title>Node22</title>
<g id="a_node23"><a xlink:href="../../d7/db8/class_nesting_context_1_1_private.html" target="_top" xlink:title="NestingContext::Private">
<polygon fill="white" stroke="black" points="332,-403.5 332,-422.5 454,-422.5 454,-403.5 332,-403.5"/>
<text text-anchor="middle" x="393" y="-410.5" font-family="Helvetica,sans-Serif" font-size="10.00">NestingContext::Private</text>
</a>
</g>
</g>
<!-- Node8&#45;&gt;Node22 -->
<g id="edge22" class="edge"><title>Node8&#45;&gt;Node22</title>
<path fill="none" stroke="midnightblue" d="M272.087,-566.578C274.547,-564.917 276.867,-563.065 279,-561 321.456,-519.892 272.796,-474.366 315,-433 319.833,-428.263 325.637,-424.606 331.863,-421.79"/>
<polygon fill="midnightblue" stroke="midnightblue" points="270.273,-563.582 263.249,-571.514 273.686,-569.693 270.273,-563.582"/>
</g>
<!-- Node23 -->
<g id="node24" class="node"><title>Node23</title>
<g id="a_node24"><a xlink:href="../../dc/d0a/class_page_list_context_1_1_private.html" target="_top" xlink:title="PageListContext::Private">
<polygon fill="white" stroke="black" points="330,-365.5 330,-384.5 456,-384.5 456,-365.5 330,-365.5"/>
<text text-anchor="middle" x="393" y="-372.5" font-family="Helvetica,sans-Serif" font-size="10.00">PageListContext::Private</text>
</a>
</g>
</g>
<!-- Node8&#45;&gt;Node23 -->
<g id="edge23" class="edge"><title>Node8&#45;&gt;Node23</title>
<path fill="none" stroke="midnightblue" d="M272.092,-566.852C274.567,-565.119 276.887,-563.177 279,-561 331.888,-506.523 262.112,-448.477 315,-394 319.22,-389.653 324.264,-386.239 329.724,-383.566"/>
<polygon fill="midnightblue" stroke="midnightblue" points="270.092,-563.964 263.153,-571.971 273.57,-570.039 270.092,-563.964"/>
</g>
<!-- Node24 -->
<g id="node25" class="node"><title>Node24</title>
<g id="a_node25"><a xlink:href="../../d7/d01/class_search_indices_context_1_1_private.html" target="_top" xlink:title="SearchIndicesContext\l::Private">
<polygon fill="white" stroke="black" points="336.5,-316 336.5,-346 449.5,-346 449.5,-316 336.5,-316"/>
<text text-anchor="start" x="344.5" y="-334" font-family="Helvetica,sans-Serif" font-size="10.00">SearchIndicesContext</text>
<text text-anchor="middle" x="393" y="-323" font-family="Helvetica,sans-Serif" font-size="10.00">::Private</text>
</a>
</g>
</g>
<!-- Node8&#45;&gt;Node24 -->
<g id="edge24" class="edge"><title>Node8&#45;&gt;Node24</title>
<path fill="none" stroke="midnightblue" d="M272.198,-566.953C274.645,-565.193 276.929,-563.217 279,-561 342.147,-493.4 254.328,-425.829 315,-356 320.715,-349.422 328.179,-344.564 336.208,-340.978"/>
<polygon fill="midnightblue" stroke="midnightblue" points="270.195,-564.07 263.334,-572.142 273.732,-570.111 270.195,-564.07"/>
</g>
<!-- Node25 -->
<g id="node26" class="node"><title>Node25</title>
<g id="a_node26"><a xlink:href="../../d4/d0d/class_symbol_group_list_context_1_1_private.html" target="_top" xlink:title="SymbolGroupListContext\l::Private">
<polygon fill="white" stroke="black" points="330,-267 330,-297 456,-297 456,-267 330,-267"/>
<text text-anchor="start" x="338" y="-285" font-family="Helvetica,sans-Serif" font-size="10.00">SymbolGroupListContext</text>
<text text-anchor="middle" x="393" y="-274" font-family="Helvetica,sans-Serif" font-size="10.00">::Private</text>
</a>
</g>
</g>
<!-- Node8&#45;&gt;Node25 -->
<g id="edge25" class="edge"><title>Node8&#45;&gt;Node25</title>
<path fill="none" stroke="midnightblue" d="M272.138,-567.153C274.617,-565.341 276.924,-563.299 279,-561 355.716,-476.059 240.876,-393.213 315,-306 319.171,-301.092 324.33,-297.173 329.986,-294.046"/>
<polygon fill="midnightblue" stroke="midnightblue" points="269.959,-564.374 263.121,-572.467 273.513,-570.405 269.959,-564.374"/>
</g>
<!-- Node26 -->
<g id="node27" class="node"><title>Node26</title>
<g id="a_node27"><a xlink:href="../../d6/d8b/class_symbol_indices_context_1_1_private.html" target="_top" xlink:title="SymbolIndicesContext\l::Private">
<polygon fill="white" stroke="black" points="335,-218 335,-248 451,-248 451,-218 335,-218"/>
<text text-anchor="start" x="343" y="-236" font-family="Helvetica,sans-Serif" font-size="10.00">SymbolIndicesContext</text>
<text text-anchor="middle" x="393" y="-225" font-family="Helvetica,sans-Serif" font-size="10.00">::Private</text>
</a>
</g>
</g>
<!-- Node8&#45;&gt;Node26 -->
<g id="edge26" class="edge"><title>Node8&#45;&gt;Node26</title>
<path fill="none" stroke="midnightblue" d="M272.202,-567.21C274.664,-565.383 276.949,-563.322 279,-561 369.057,-459.016 228.054,-361.649 315,-257 320.279,-250.646 327.215,-245.945 334.764,-242.474"/>
<polygon fill="midnightblue" stroke="midnightblue" points="270.024,-564.435 263.23,-572.565 273.611,-570.446 270.024,-564.435"/>
</g>
<!-- Node27 -->
<g id="node28" class="node"><title>Node27</title>
<g id="a_node28"><a xlink:href="../../da/d36/class_symbol_list_context_1_1_private.html" target="_top" xlink:title="SymbolListContext::\lPrivate">
<polygon fill="white" stroke="black" points="340,-169 340,-199 446,-199 446,-169 340,-169"/>
<text text-anchor="start" x="348" y="-187" font-family="Helvetica,sans-Serif" font-size="10.00">SymbolListContext::</text>
<text text-anchor="middle" x="393" y="-176" font-family="Helvetica,sans-Serif" font-size="10.00">Private</text>
</a>
</g>
</g>
<!-- Node8&#45;&gt;Node27 -->
<g id="edge27" class="edge"><title>Node8&#45;&gt;Node27</title>
<path fill="none" stroke="midnightblue" d="M272.249,-567.252C274.699,-565.413 276.968,-563.339 279,-561 382.423,-441.946 215.209,-330.114 315,-208 321.38,-200.193 330.261,-194.88 339.733,-191.274"/>
<polygon fill="midnightblue" stroke="midnightblue" points="270.071,-564.478 263.31,-572.635 273.682,-570.474 270.071,-564.478"/>
</g>
<!-- Node28 -->
<g id="node29" class="node"><title>Node28</title>
<g id="a_node29"><a xlink:href="../../db/da0/class_used_files_context_1_1_private.html" target="_top" xlink:title="UsedFilesContext::Private">
<polygon fill="white" stroke="black" points="327,-130.5 327,-149.5 459,-149.5 459,-130.5 327,-130.5"/>
<text text-anchor="middle" x="393" y="-137.5" font-family="Helvetica,sans-Serif" font-size="10.00">UsedFilesContext::Private</text>
</a>
</g>
</g>
<!-- Node8&#45;&gt;Node28 -->
<g id="edge28" class="edge"><title>Node8&#45;&gt;Node28</title>
<path fill="none" stroke="midnightblue" d="M272.285,-567.283C274.725,-565.436 276.983,-563.351 279,-561 337.402,-492.929 256.598,-227.071 315,-159 318.407,-155.029 322.499,-151.818 326.998,-149.23"/>
<polygon fill="midnightblue" stroke="midnightblue" points="270.108,-564.51 263.371,-572.687 273.737,-570.496 270.108,-564.51"/>
</g>
</g>
</svg>
        <g id="navigator" transform="translate(0 0)" fill="#404254">
                <rect fill="#f2f5e9" fill-opacity="0.5" stroke="#606060" stroke-width=".5" x="0" y="0" width="60" height="60"/>
                <use id="zoomplus" xlink:href="#zoomPlus" x="17" y="9" onmousedown="handleZoom(evt,'in')"/>
                <use id="zoomminus" xlink:href="#zoomMin" x="42" y="9" onmousedown="handleZoom(evt,'out')"/>
                <use id="reset" xlink:href="#resetDef" x="30" y="36" onmousedown="handleReset()"/>
                <g id="arrowUp" xlink:href="#dirArrow" transform="translate(30 24)" onmousedown="handlePan(0,-1)">
                  <use xlink:href="#rim" fill="#404040">
                        <set attributeName="fill" to="#808080" begin="arrowUp.mouseover" end="arrowUp.mouseout"/>
                  </use>
                  <path fill="none" stroke="white" stroke-width="1.5" d="M0,-3.0v7 M-2.5,-0.5L0,-3.0L2.5,-0.5"/>
                </g>
                <g id="arrowRight" xlink:href="#dirArrow" transform="rotate(90) translate(36 -43)" onmousedown="handlePan(1,0)">
                  <use xlink:href="#rim" fill="#404040">
                        <set attributeName="fill" to="#808080" begin="arrowRight.mouseover" end="arrowRight.mouseout"/>
                  </use>
                  <path fill="none" stroke="white" stroke-width="1.5" d="M0,-3.0v7 M-2.5,-0.5L0,-3.0L2.5,-0.5"/>
                </g>
                <g id="arrowDown" xlink:href="#dirArrow" transform="rotate(180) translate(-30 -48)" onmousedown="handlePan(0,1)">
                  <use xlink:href="#rim" fill="#404040">
                        <set attributeName="fill" to="#808080" begin="arrowDown.mouseover" end="arrowDown.mouseout"/>
                  </use>
                  <path fill="none" stroke="white" stroke-width="1.5" d="M0,-3.0v7 M-2.5,-0.5L0,-3.0L2.5,-0.5"/>
                </g>
                <g id="arrowLeft" xlink:href="#dirArrow" transform="rotate(270) translate(-36 17)" onmousedown="handlePan(-1,0)">
                  <use xlink:href="#rim" fill="#404040">
                        <set attributeName="fill" to="#808080" begin="arrowLeft.mouseover" end="arrowLeft.mouseout"/>
                  </use>
                  <path fill="none" stroke="white" stroke-width="1.5" d="M0,-3.0v7 M-2.5,-0.5L0,-3.0L2.5,-0.5"/>
                </g>
        </g>
        <svg viewBox="0 0 15 15" width="100%" height="30px" preserveAspectRatio="xMaxYMin meet">
         <g id="arrow_out" transform="scale(0.3 0.3)">
          <a xlink:href="class_template_list_intf__inherit__graph_org.svg" target="_base">
           <rect id="button" ry="5" rx="5" y="6" x="6" height="38" width="38"
                fill="#f2f5e9" fill-opacity="0.5" stroke="#606060" stroke-width="1.0"/>
           <path id="arrow"
             d="M 11.500037,31.436501 C 11.940474,20.09759 22.043105,11.32322 32.158766,21.979434 L 37.068811,17.246167 C 37.068811,17.246167 37.088388,32 37.088388,32 L 22.160133,31.978069 C 22.160133,31.978069 26.997745,27.140456 26.997745,27.140456 C 18.528582,18.264221 13.291696,25.230495 11.500037,31.436501 z"
             style="fill:#404040;"/>
          </a>
         </g>
        </svg>
</svg>
