<?xml version="1.0" encoding="UTF-8" standalone="no"?>
<!DOCTYPE svg PUBLIC "-//W3C//DTD SVG 1.1//EN"
 "http://www.w3.org/Graphics/SVG/1.1/DTD/svg11.dtd">
<!-- Generated by graphviz version 2.38.0 (20140413.2041)
 -->
<!-- Title: ExprAstNegate Pages: 1 -->
<svg width="91pt" height="95pt"
 viewBox="0.00 0.00 91.00 95.00" xmlns="http://www.w3.org/2000/svg" xmlns:xlink="http://www.w3.org/1999/xlink">
<g id="graph0" class="graph" transform="scale(1 1) rotate(0) translate(4 91)">
<title>ExprAstNegate</title>
<polygon fill="white" stroke="none" points="-4,4 -4,-91 87,-91 87,4 -4,4"/>
<!-- Node2 -->
<g id="node1" class="node"><title>Node2</title>
<polygon fill="#bfbfbf" stroke="black" points="0,-0.5 0,-19.5 83,-19.5 83,-0.5 0,-0.5"/>
<text text-anchor="middle" x="41.5" y="-7.5" font-family="Helvetica,sans-Serif" font-size="10.00">ExprAstNegate</text>
</g>
<!-- Node3 -->
<g id="node2" class="node"><title>Node3</title>
<g id="a_node2"><a xlink:href="../../dc/dfa/class_expr_ast.html" target="_top" xlink:title="Base class for all nodes in the abstract syntax tree of an expression. ">
<polygon fill="white" stroke="black" points="15.5,-67.5 15.5,-86.5 67.5,-86.5 67.5,-67.5 15.5,-67.5"/>
<text text-anchor="middle" x="41.5" y="-74.5" font-family="Helvetica,sans-Serif" font-size="10.00">ExprAst</text>
</a>
</g>
</g>
<!-- Node3&#45;&gt;Node2 -->
<g id="edge1" class="edge"><title>Node3&#45;&gt;Node2</title>
<path fill="none" stroke="midnightblue" d="M39.9399,-57.3825C39.7572,-54.5753 39.6003,-51.7126 39.5,-49 39.1288,-38.9652 39.9035,-27.4502 40.5942,-19.7505"/>
<polygon fill="midnightblue" stroke="midnightblue" points="36.4607,-57.7906 40.7083,-67.4967 43.4406,-57.2602 36.4607,-57.7906"/>
</g>
<!-- Node3&#45;&gt;Node2 -->
<g id="edge2" class="edge"><title>Node3&#45;&gt;Node2</title>
<path fill="none" stroke="#9a32cd" stroke-dasharray="5,2" d="M41.5,-57.037C41.5,-44.6703 41.5,-29.1198 41.5,-19.6273"/>
<polygon fill="#9a32cd" stroke="#9a32cd" points="38.0001,-57.2338 41.5,-67.2338 45.0001,-57.2338 38.0001,-57.2338"/>
<text text-anchor="middle" x="59.5" y="-41" font-family="Helvetica,sans-Serif" font-size="10.00"> m_expr</text>
</g>
</g>
</svg>
