<?xml version="1.0" encoding="UTF-8" standalone="no"?>
<!DOCTYPE svg PUBLIC "-//W3C//DTD SVG 1.1//EN"
 "http://www.w3.org/Graphics/SVG/1.1/DTD/svg11.dtd">
<!-- Generated by graphviz version 2.38.0 (20140413.2041)
 -->
<!-- Title: src/dia.h Pages: 1 -->
<svg width="591pt" height="84pt"
 viewBox="0.00 0.00 591.00 84.00" xmlns="http://www.w3.org/2000/svg" xmlns:xlink="http://www.w3.org/1999/xlink">
<g id="graph0" class="graph" transform="scale(1 1) rotate(0) translate(4 80)">
<title>src/dia.h</title>
<polygon fill="white" stroke="none" points="-4,4 -4,-80 587,-80 587,4 -4,4"/>
<!-- Node1 -->
<g id="node1" class="node"><title>Node1</title>
<polygon fill="#bfbfbf" stroke="black" points="245.5,-56.5 245.5,-75.5 299.5,-75.5 299.5,-56.5 245.5,-56.5"/>
<text text-anchor="middle" x="272.5" y="-63.5" font-family="Helvetica,sans-Serif" font-size="10.00">src/dia.h</text>
</g>
<!-- Node2 -->
<g id="node2" class="node"><title>Node2</title>
<g id="a_node2"><a xlink:href="../../d1/df5/dia_8cpp.html" target="_top" xlink:title="src/dia.cpp">
<polygon fill="white" stroke="black" points="0,-0.5 0,-19.5 65,-19.5 65,-0.5 0,-0.5"/>
<text text-anchor="middle" x="32.5" y="-7.5" font-family="Helvetica,sans-Serif" font-size="10.00">src/dia.cpp</text>
</a>
</g>
</g>
<!-- Node1&#45;&gt;Node2 -->
<g id="edge1" class="edge"><title>Node1&#45;&gt;Node2</title>
<path fill="none" stroke="midnightblue" d="M235.456,-56.665C188.872,-46.1837 109.627,-28.3537 65.1935,-18.356"/>
<polygon fill="midnightblue" stroke="midnightblue" points="234.911,-60.1299 245.435,-58.9105 236.448,-53.3006 234.911,-60.1299"/>
</g>
<!-- Node3 -->
<g id="node3" class="node"><title>Node3</title>
<g id="a_node3"><a xlink:href="../../dc/d05/docbookvisitor_8cpp.html" target="_top" xlink:title="src/docbookvisitor.cpp">
<polygon fill="white" stroke="black" points="83,-0.5 83,-19.5 198,-19.5 198,-0.5 83,-0.5"/>
<text text-anchor="middle" x="140.5" y="-7.5" font-family="Helvetica,sans-Serif" font-size="10.00">src/docbookvisitor.cpp</text>
</a>
</g>
</g>
<!-- Node1&#45;&gt;Node3 -->
<g id="edge2" class="edge"><title>Node1&#45;&gt;Node3</title>
<path fill="none" stroke="midnightblue" d="M242.281,-52.6377C217.51,-42.504 183.1,-28.4274 161.318,-19.5164"/>
<polygon fill="midnightblue" stroke="midnightblue" points="241.003,-55.8966 251.584,-56.4435 243.654,-49.4177 241.003,-55.8966"/>
</g>
<!-- Node4 -->
<g id="node4" class="node"><title>Node4</title>
<g id="a_node4"><a xlink:href="../../da/db0/htmldocvisitor_8cpp.html" target="_top" xlink:title="src/htmldocvisitor.cpp">
<polygon fill="white" stroke="black" points="216,-0.5 216,-19.5 329,-19.5 329,-0.5 216,-0.5"/>
<text text-anchor="middle" x="272.5" y="-7.5" font-family="Helvetica,sans-Serif" font-size="10.00">src/htmldocvisitor.cpp</text>
</a>
</g>
</g>
<!-- Node1&#45;&gt;Node4 -->
<g id="edge3" class="edge"><title>Node1&#45;&gt;Node4</title>
<path fill="none" stroke="midnightblue" d="M272.5,-45.8045C272.5,-36.9102 272.5,-26.7798 272.5,-19.7511"/>
<polygon fill="midnightblue" stroke="midnightblue" points="269,-46.083 272.5,-56.083 276,-46.083 269,-46.083"/>
</g>
<!-- Node5 -->
<g id="node5" class="node"><title>Node5</title>
<g id="a_node5"><a xlink:href="../../d1/d4e/latexdocvisitor_8cpp.html" target="_top" xlink:title="src/latexdocvisitor.cpp">
<polygon fill="white" stroke="black" points="347,-0.5 347,-19.5 462,-19.5 462,-0.5 347,-0.5"/>
<text text-anchor="middle" x="404.5" y="-7.5" font-family="Helvetica,sans-Serif" font-size="10.00">src/latexdocvisitor.cpp</text>
</a>
</g>
</g>
<!-- Node1&#45;&gt;Node5 -->
<g id="edge4" class="edge"><title>Node1&#45;&gt;Node5</title>
<path fill="none" stroke="midnightblue" d="M302.719,-52.6377C327.49,-42.504 361.9,-28.4274 383.682,-19.5164"/>
<polygon fill="midnightblue" stroke="midnightblue" points="301.346,-49.4177 293.416,-56.4435 303.997,-55.8966 301.346,-49.4177"/>
</g>
<!-- Node6 -->
<g id="node6" class="node"><title>Node6</title>
<g id="a_node6"><a xlink:href="../../de/d9a/rtfdocvisitor_8cpp.html" target="_top" xlink:title="src/rtfdocvisitor.cpp">
<polygon fill="white" stroke="black" points="480,-0.5 480,-19.5 583,-19.5 583,-0.5 480,-0.5"/>
<text text-anchor="middle" x="531.5" y="-7.5" font-family="Helvetica,sans-Serif" font-size="10.00">src/rtfdocvisitor.cpp</text>
</a>
</g>
</g>
<!-- Node1&#45;&gt;Node6 -->
<g id="edge5" class="edge"><title>Node1&#45;&gt;Node6</title>
<path fill="none" stroke="midnightblue" d="M309.701,-57.2439C357.714,-47.2334 440.972,-29.8745 490.683,-19.5102"/>
<polygon fill="midnightblue" stroke="midnightblue" points="308.803,-53.8557 299.728,-59.3231 310.232,-60.7083 308.803,-53.8557"/>
</g>
</g>
</svg>
