<?xml version="1.0" encoding="UTF-8" standalone="no"?>
<!DOCTYPE svg PUBLIC "-//W3C//DTD SVG 1.1//EN"
 "http://www.w3.org/Graphics/SVG/1.1/DTD/svg11.dtd">
<!-- Generated by graphviz version 2.38.0 (20140413.2041)
 -->
<!-- Title: src/entry.cpp Pages: 1 -->
<svg width="1736pt" height="364pt"
 viewBox="0.00 0.00 1736.00 364.00" xmlns="http://www.w3.org/2000/svg" xmlns:xlink="http://www.w3.org/1999/xlink">
<g id="graph0" class="graph" transform="scale(1 1) rotate(0) translate(4 360)">
<title>src/entry.cpp</title>
<polygon fill="white" stroke="none" points="-4,4 -4,-360 1732,-360 1732,4 -4,4"/>
<!-- Node0 -->
<g id="node1" class="node"><title>Node0</title>
<polygon fill="#bfbfbf" stroke="black" points="500,-336.5 500,-355.5 574,-355.5 574,-336.5 500,-336.5"/>
<text text-anchor="middle" x="537" y="-343.5" font-family="Helvetica,sans-Serif" font-size="10.00">src/entry.cpp</text>
</g>
<!-- Node1 -->
<g id="node2" class="node"><title>Node1</title>
<polygon fill="white" stroke="#bfbfbf" points="0,-280.5 0,-299.5 48,-299.5 48,-280.5 0,-280.5"/>
<text text-anchor="middle" x="24" y="-287.5" font-family="Helvetica,sans-Serif" font-size="10.00">stdlib.h</text>
</g>
<!-- Node0&#45;&gt;Node1 -->
<g id="edge1" class="edge"><title>Node0&#45;&gt;Node1</title>
<path fill="none" stroke="midnightblue" d="M499.822,-343.228C419.475,-339.017 223.825,-326.698 62,-300 60.7207,-299.789 59.4204,-299.559 58.1095,-299.315"/>
<polygon fill="midnightblue" stroke="midnightblue" points="58.5244,-295.826 48.0214,-297.218 57.1,-302.68 58.5244,-295.826"/>
</g>
<!-- Node2 -->
<g id="node3" class="node"><title>Node2</title>
<polygon fill="white" stroke="#bfbfbf" points="360.5,-224.5 360.5,-243.5 403.5,-243.5 403.5,-224.5 360.5,-224.5"/>
<text text-anchor="middle" x="382" y="-231.5" font-family="Helvetica,sans-Serif" font-size="10.00">qfile.h</text>
</g>
<!-- Node0&#45;&gt;Node2 -->
<g id="edge2" class="edge"><title>Node0&#45;&gt;Node2</title>
<path fill="none" stroke="midnightblue" d="M499.991,-342.091C469.431,-337.747 426.997,-326.928 401,-300 389.144,-287.72 384.625,-268.462 382.934,-254.09"/>
<polygon fill="midnightblue" stroke="midnightblue" points="386.399,-253.522 382.098,-243.839 379.422,-254.091 386.399,-253.522"/>
</g>
<!-- Node3 -->
<g id="node4" class="node"><title>Node3</title>
<g id="a_node4"><a xlink:href="../../d1/dc6/entry_8h.html" target="_top" xlink:title="entry.h">
<polygon fill="white" stroke="black" points="621.5,-168.5 621.5,-187.5 668.5,-187.5 668.5,-168.5 621.5,-168.5"/>
<text text-anchor="middle" x="645" y="-175.5" font-family="Helvetica,sans-Serif" font-size="10.00">entry.h</text>
</a>
</g>
</g>
<!-- Node0&#45;&gt;Node3 -->
<g id="edge3" class="edge"><title>Node0&#45;&gt;Node3</title>
<path fill="none" stroke="midnightblue" d="M556.289,-336.37C571.251,-328.769 591.485,-316.36 604,-300 627.841,-268.835 638.311,-222.961 642.505,-197.589"/>
<polygon fill="midnightblue" stroke="midnightblue" points="645.996,-197.909 644.015,-187.501 639.073,-196.872 645.996,-197.909"/>
</g>
<!-- Node8 -->
<g id="node9" class="node"><title>Node8</title>
<g id="a_node9"><a xlink:href="../../d9/de0/marshal_8h.html" target="_top" xlink:title="marshal.h">
<polygon fill="white" stroke="black" points="536.5,-280.5 536.5,-299.5 595.5,-299.5 595.5,-280.5 536.5,-280.5"/>
<text text-anchor="middle" x="566" y="-287.5" font-family="Helvetica,sans-Serif" font-size="10.00">marshal.h</text>
</a>
</g>
</g>
<!-- Node0&#45;&gt;Node8 -->
<g id="edge8" class="edge"><title>Node0&#45;&gt;Node8</title>
<path fill="none" stroke="midnightblue" d="M541.789,-336.083C545.758,-328.691 551.525,-317.953 556.435,-308.811"/>
<polygon fill="midnightblue" stroke="midnightblue" points="559.653,-310.217 561.3,-299.751 553.486,-306.905 559.653,-310.217"/>
</g>
<!-- Node17 -->
<g id="node18" class="node"><title>Node17</title>
<g id="a_node18"><a xlink:href="../../d8/d3c/util_8h.html" target="_top" xlink:title="A bunch of utility functions. ">
<polygon fill="white" stroke="black" points="422,-224.5 422,-243.5 460,-243.5 460,-224.5 422,-224.5"/>
<text text-anchor="middle" x="441" y="-231.5" font-family="Helvetica,sans-Serif" font-size="10.00">util.h</text>
</a>
</g>
</g>
<!-- Node0&#45;&gt;Node17 -->
<g id="edge22" class="edge"><title>Node0&#45;&gt;Node17</title>
<path fill="none" stroke="midnightblue" d="M531.257,-336.204C522.693,-323.338 505.78,-298.869 489,-280 479.724,-269.569 468.366,-258.842 459.028,-250.479"/>
<polygon fill="midnightblue" stroke="midnightblue" points="461.263,-247.785 451.444,-243.805 456.639,-253.04 461.263,-247.785"/>
</g>
<!-- Node22 -->
<g id="node23" class="node"><title>Node22</title>
<g id="a_node23"><a xlink:href="../../d1/d2a/section_8h.html" target="_top" xlink:title="section.h">
<polygon fill="white" stroke="black" points="792,-280.5 792,-299.5 848,-299.5 848,-280.5 792,-280.5"/>
<text text-anchor="middle" x="820" y="-287.5" font-family="Helvetica,sans-Serif" font-size="10.00">section.h</text>
</a>
</g>
</g>
<!-- Node0&#45;&gt;Node22 -->
<g id="edge35" class="edge"><title>Node0&#45;&gt;Node22</title>
<path fill="none" stroke="midnightblue" d="M574.288,-337.885C628.152,-327.607 727.223,-308.703 781.665,-298.315"/>
<polygon fill="midnightblue" stroke="midnightblue" points="782.444,-301.729 791.611,-296.417 781.132,-294.853 782.444,-301.729"/>
</g>
<!-- Node23 -->
<g id="node24" class="node"><title>Node23</title>
<g id="a_node24"><a xlink:href="../../d1/da1/doxygen_8h.html" target="_top" xlink:title="doxygen.h">
<polygon fill="white" stroke="black" points="1249,-280.5 1249,-299.5 1311,-299.5 1311,-280.5 1249,-280.5"/>
<text text-anchor="middle" x="1280" y="-287.5" font-family="Helvetica,sans-Serif" font-size="10.00">doxygen.h</text>
</a>
</g>
</g>
<!-- Node0&#45;&gt;Node23 -->
<g id="edge37" class="edge"><title>Node0&#45;&gt;Node23</title>
<path fill="none" stroke="midnightblue" d="M574.1,-342.304C699.568,-333.185 1107.5,-303.537 1238.85,-293.991"/>
<polygon fill="midnightblue" stroke="midnightblue" points="1239.18,-297.476 1248.9,-293.26 1238.67,-290.494 1239.18,-297.476"/>
</g>
<!-- Node35 -->
<g id="node36" class="node"><title>Node35</title>
<g id="a_node36"><a xlink:href="../../dd/da1/filestorage_8h.html" target="_top" xlink:title="filestorage.h">
<polygon fill="white" stroke="black" points="410,-280.5 410,-299.5 480,-299.5 480,-280.5 410,-280.5"/>
<text text-anchor="middle" x="445" y="-287.5" font-family="Helvetica,sans-Serif" font-size="10.00">filestorage.h</text>
</a>
</g>
</g>
<!-- Node0&#45;&gt;Node35 -->
<g id="edge69" class="edge"><title>Node0&#45;&gt;Node35</title>
<path fill="none" stroke="midnightblue" d="M522.219,-336.324C507.733,-327.822 485.427,-314.729 468.507,-304.797"/>
<polygon fill="midnightblue" stroke="midnightblue" points="470.141,-301.698 459.745,-299.655 466.597,-307.735 470.141,-301.698"/>
</g>
<!-- Node37 -->
<g id="node38" class="node"><title>Node37</title>
<g id="a_node38"><a xlink:href="../../df/d9b/arguments_8h.html" target="_top" xlink:title="arguments.h">
<polygon fill="white" stroke="black" points="14.5,-112.5 14.5,-131.5 85.5,-131.5 85.5,-112.5 14.5,-112.5"/>
<text text-anchor="middle" x="50" y="-119.5" font-family="Helvetica,sans-Serif" font-size="10.00">arguments.h</text>
</a>
</g>
</g>
<!-- Node0&#45;&gt;Node37 -->
<g id="edge73" class="edge"><title>Node0&#45;&gt;Node37</title>
<path fill="none" stroke="midnightblue" d="M501.241,-336.45C470.212,-328.537 424.374,-315.65 386,-300 263.04,-249.853 125.583,-169.054 72.5481,-136.874"/>
<polygon fill="midnightblue" stroke="midnightblue" points="74.2901,-133.836 63.9297,-131.62 70.6466,-139.813 74.2901,-133.836"/>
</g>
<!-- Node38 -->
<g id="node39" class="node"><title>Node38</title>
<g id="a_node39"><a xlink:href="../../db/d16/config_8h.html" target="_top" xlink:title="config.h">
<polygon fill="white" stroke="black" points="1496.5,-280.5 1496.5,-299.5 1547.5,-299.5 1547.5,-280.5 1496.5,-280.5"/>
<text text-anchor="middle" x="1522" y="-287.5" font-family="Helvetica,sans-Serif" font-size="10.00">config.h</text>
</a>
</g>
</g>
<!-- Node0&#45;&gt;Node38 -->
<g id="edge76" class="edge"><title>Node0&#45;&gt;Node38</title>
<path fill="none" stroke="midnightblue" d="M574.112,-342.965C730.12,-334.413 1331.8,-301.427 1485.89,-292.98"/>
<polygon fill="midnightblue" stroke="midnightblue" points="1486.4,-296.457 1496.2,-292.415 1486.02,-289.467 1486.4,-296.457"/>
</g>
<!-- Node4 -->
<g id="node5" class="node"><title>Node4</title>
<g id="a_node5"><a xlink:href="../../d9/d49/types_8h.html" target="_top" xlink:title="This file contains a number of basic enums and types. ">
<polygon fill="white" stroke="black" points="786.5,-56.5 786.5,-75.5 835.5,-75.5 835.5,-56.5 786.5,-56.5"/>
<text text-anchor="middle" x="811" y="-63.5" font-family="Helvetica,sans-Serif" font-size="10.00">types.h</text>
</a>
</g>
</g>
<!-- Node3&#45;&gt;Node4 -->
<g id="edge4" class="edge"><title>Node3&#45;&gt;Node4</title>
<path fill="none" stroke="midnightblue" d="M645.674,-168.098C647.205,-154.184 652.154,-127.298 668,-112 697.272,-83.7411 744.119,-73.2146 776.16,-69.3015"/>
<polygon fill="midnightblue" stroke="midnightblue" points="776.838,-72.7492 786.412,-68.2119 776.098,-65.7884 776.838,-72.7492"/>
</g>
<!-- Node6 -->
<g id="node7" class="node"><title>Node6</title>
<polygon fill="white" stroke="#bfbfbf" points="657.5,-56.5 657.5,-75.5 700.5,-75.5 700.5,-56.5 657.5,-56.5"/>
<text text-anchor="middle" x="679" y="-63.5" font-family="Helvetica,sans-Serif" font-size="10.00">qlist.h</text>
</g>
<!-- Node3&#45;&gt;Node6 -->
<g id="edge6" class="edge"><title>Node3&#45;&gt;Node6</title>
<path fill="none" stroke="midnightblue" d="M640.828,-168.247C635.338,-155.435 627.242,-131.031 635,-112 639.8,-100.225 649.329,-89.8564 658.295,-82.0486"/>
<polygon fill="midnightblue" stroke="midnightblue" points="660.65,-84.6448 666.219,-75.6314 656.245,-79.2048 660.65,-84.6448"/>
</g>
<!-- Node7 -->
<g id="node8" class="node"><title>Node7</title>
<polygon fill="white" stroke="#bfbfbf" points="839.5,-112.5 839.5,-131.5 898.5,-131.5 898.5,-112.5 839.5,-112.5"/>
<text text-anchor="middle" x="869" y="-119.5" font-family="Helvetica,sans-Serif" font-size="10.00">qgstring.h</text>
</g>
<!-- Node3&#45;&gt;Node7 -->
<g id="edge7" class="edge"><title>Node3&#45;&gt;Node7</title>
<path fill="none" stroke="midnightblue" d="M668.549,-171.323C706.85,-162.09 783.041,-143.722 829.667,-132.482"/>
<polygon fill="midnightblue" stroke="midnightblue" points="830.525,-135.876 839.426,-130.129 828.884,-129.071 830.525,-135.876"/>
</g>
<!-- Node5 -->
<g id="node6" class="node"><title>Node5</title>
<polygon fill="white" stroke="#bfbfbf" points="168.5,-0.5 168.5,-19.5 227.5,-19.5 227.5,-0.5 168.5,-0.5"/>
<text text-anchor="middle" x="198" y="-7.5" font-family="Helvetica,sans-Serif" font-size="10.00">qcstring.h</text>
</g>
<!-- Node4&#45;&gt;Node5 -->
<g id="edge5" class="edge"><title>Node4&#45;&gt;Node5</title>
<path fill="none" stroke="midnightblue" d="M786.267,-62.8165C765.61,-60.9931 735.386,-58.3259 709,-56 533.352,-40.5168 323.74,-22.0662 237.765,-14.4995"/>
<polygon fill="midnightblue" stroke="midnightblue" points="237.933,-11.0008 227.664,-13.6105 237.319,-17.9738 237.933,-11.0008"/>
</g>
<!-- Node8&#45;&gt;Node2 -->
<g id="edge10" class="edge"><title>Node8&#45;&gt;Node2</title>
<path fill="none" stroke="midnightblue" d="M536.845,-280.444C503.233,-270.579 448.186,-254.424 413.581,-244.268"/>
<polygon fill="midnightblue" stroke="midnightblue" points="414.126,-240.781 403.545,-241.323 412.155,-247.497 414.126,-240.781"/>
</g>
<!-- Node8&#45;&gt;Node6 -->
<g id="edge9" class="edge"><title>Node8&#45;&gt;Node6</title>
<path fill="none" stroke="midnightblue" d="M567.45,-280.186C572.233,-253.07 589.46,-169.266 628,-112 635.932,-100.214 647.673,-89.5668 657.891,-81.5913"/>
<polygon fill="midnightblue" stroke="midnightblue" points="660.068,-84.3337 665.998,-75.5539 655.887,-78.7193 660.068,-84.3337"/>
</g>
<!-- Node9 -->
<g id="node10" class="node"><title>Node9</title>
<g id="a_node10"><a xlink:href="../../d9/d21/sortdict_8h.html" target="_top" xlink:title="sortdict.h">
<polygon fill="white" stroke="black" points="936.5,-168.5 936.5,-187.5 993.5,-187.5 993.5,-168.5 936.5,-168.5"/>
<text text-anchor="middle" x="965" y="-175.5" font-family="Helvetica,sans-Serif" font-size="10.00">sortdict.h</text>
</a>
</g>
</g>
<!-- Node8&#45;&gt;Node9 -->
<g id="edge11" class="edge"><title>Node8&#45;&gt;Node9</title>
<path fill="none" stroke="midnightblue" d="M595.562,-287.724C668.138,-284.178 853.099,-272.524 907,-244 927.812,-232.987 944.761,-211.328 954.849,-196.046"/>
<polygon fill="midnightblue" stroke="midnightblue" points="957.858,-197.836 960.217,-187.507 951.932,-194.111 957.858,-197.836"/>
</g>
<!-- Node12 -->
<g id="node13" class="node"><title>Node12</title>
<g id="a_node13"><a xlink:href="../../d5/d3f/store_8h.html" target="_top" xlink:title="store.h">
<polygon fill="white" stroke="black" points="478.5,-224.5 478.5,-243.5 525.5,-243.5 525.5,-224.5 478.5,-224.5"/>
<text text-anchor="middle" x="502" y="-231.5" font-family="Helvetica,sans-Serif" font-size="10.00">store.h</text>
</a>
</g>
</g>
<!-- Node8&#45;&gt;Node12 -->
<g id="edge15" class="edge"><title>Node8&#45;&gt;Node12</title>
<path fill="none" stroke="midnightblue" d="M555.717,-280.324C546.164,-272.263 531.72,-260.077 520.216,-250.369"/>
<polygon fill="midnightblue" stroke="midnightblue" points="522.37,-247.608 512.47,-243.834 517.856,-252.958 522.37,-247.608"/>
</g>
<!-- Node9&#45;&gt;Node6 -->
<g id="edge12" class="edge"><title>Node9&#45;&gt;Node6</title>
<path fill="none" stroke="midnightblue" d="M962.09,-168.197C956.884,-153.918 944.554,-125.907 924,-112 889.606,-88.729 768.936,-75.0482 710.791,-69.6651"/>
<polygon fill="midnightblue" stroke="midnightblue" points="710.971,-66.1671 700.697,-68.756 710.343,-73.1389 710.971,-66.1671"/>
</g>
<!-- Node10 -->
<g id="node11" class="node"><title>Node10</title>
<polygon fill="white" stroke="#bfbfbf" points="1138,-56.5 1138,-75.5 1184,-75.5 1184,-56.5 1138,-56.5"/>
<text text-anchor="middle" x="1161" y="-63.5" font-family="Helvetica,sans-Serif" font-size="10.00">qdict.h</text>
</g>
<!-- Node9&#45;&gt;Node10 -->
<g id="edge13" class="edge"><title>Node9&#45;&gt;Node10</title>
<path fill="none" stroke="midnightblue" d="M993.628,-177.923C1032.46,-177.566 1101.62,-170.974 1142,-132 1154.42,-120.017 1158.84,-100.41 1160.36,-85.8588"/>
<polygon fill="midnightblue" stroke="midnightblue" points="1163.87,-85.7261 1161.04,-75.5156 1156.89,-85.2609 1163.87,-85.7261"/>
</g>
<!-- Node11 -->
<g id="node12" class="node"><title>Node11</title>
<polygon fill="white" stroke="#bfbfbf" points="1189,-112.5 1189,-131.5 1245,-131.5 1245,-112.5 1189,-112.5"/>
<text text-anchor="middle" x="1217" y="-119.5" font-family="Helvetica,sans-Serif" font-size="10.00">qintdict.h</text>
</g>
<!-- Node9&#45;&gt;Node11 -->
<g id="edge14" class="edge"><title>Node9&#45;&gt;Node11</title>
<path fill="none" stroke="midnightblue" d="M993.908,-170.806C1039.51,-161.035 1128.15,-142.04 1178.89,-131.166"/>
<polygon fill="midnightblue" stroke="midnightblue" points="1179.77,-134.557 1188.81,-129.04 1178.3,-127.713 1179.77,-134.557"/>
</g>
<!-- Node13 -->
<g id="node14" class="node"><title>Node13</title>
<polygon fill="white" stroke="#bfbfbf" points="425,-112.5 425,-131.5 481,-131.5 481,-112.5 425,-112.5"/>
<text text-anchor="middle" x="453" y="-119.5" font-family="Helvetica,sans-Serif" font-size="10.00">qglobal.h</text>
</g>
<!-- Node12&#45;&gt;Node13 -->
<g id="edge16" class="edge"><title>Node12&#45;&gt;Node13</title>
<path fill="none" stroke="midnightblue" d="M487.692,-224.303C476.22,-216.426 460.932,-203.669 454,-188 447.579,-173.486 447.911,-155.304 449.514,-141.863"/>
<polygon fill="midnightblue" stroke="midnightblue" points="452.989,-142.286 451.039,-131.873 446.07,-141.23 452.989,-142.286"/>
</g>
<!-- Node14 -->
<g id="node15" class="node"><title>Node14</title>
<polygon fill="white" stroke="#bfbfbf" points="499,-112.5 499,-131.5 545,-131.5 545,-112.5 499,-112.5"/>
<text text-anchor="middle" x="522" y="-119.5" font-family="Helvetica,sans-Serif" font-size="10.00">stdio.h</text>
</g>
<!-- Node12&#45;&gt;Node14 -->
<g id="edge17" class="edge"><title>Node12&#45;&gt;Node14</title>
<path fill="none" stroke="midnightblue" d="M509.673,-224.459C516.779,-215.927 526.854,-202.088 531,-188 535.523,-172.631 532.361,-154.533 528.593,-141.342"/>
<polygon fill="midnightblue" stroke="midnightblue" points="531.845,-140.023 525.439,-131.583 525.184,-142.175 531.845,-140.023"/>
</g>
<!-- Node15 -->
<g id="node16" class="node"><title>Node15</title>
<g id="a_node16"><a xlink:href="../../d2/de2/portable_8h.html" target="_top" xlink:title="Portable versions of functions that are platform dependent. ">
<polygon fill="white" stroke="black" points="463.5,-168.5 463.5,-187.5 522.5,-187.5 522.5,-168.5 463.5,-168.5"/>
<text text-anchor="middle" x="493" y="-175.5" font-family="Helvetica,sans-Serif" font-size="10.00">portable.h</text>
</a>
</g>
</g>
<!-- Node12&#45;&gt;Node15 -->
<g id="edge18" class="edge"><title>Node12&#45;&gt;Node15</title>
<path fill="none" stroke="midnightblue" d="M500.514,-224.083C499.321,-216.927 497.606,-206.635 496.115,-197.691"/>
<polygon fill="midnightblue" stroke="midnightblue" points="499.555,-197.04 494.459,-187.751 492.65,-198.19 499.555,-197.04"/>
</g>
<!-- Node15&#45;&gt;Node13 -->
<g id="edge21" class="edge"><title>Node15&#45;&gt;Node13</title>
<path fill="none" stroke="midnightblue" d="M486.395,-168.083C480.745,-160.455 472.455,-149.264 465.549,-139.941"/>
<polygon fill="midnightblue" stroke="midnightblue" points="468.247,-137.703 459.482,-131.751 462.622,-141.87 468.247,-137.703"/>
</g>
<!-- Node15&#45;&gt;Node14 -->
<g id="edge20" class="edge"><title>Node15&#45;&gt;Node14</title>
<path fill="none" stroke="midnightblue" d="M497.789,-168.083C501.758,-160.691 507.525,-149.953 512.435,-140.811"/>
<polygon fill="midnightblue" stroke="midnightblue" points="515.653,-142.217 517.3,-131.751 509.486,-138.905 515.653,-142.217"/>
</g>
<!-- Node16 -->
<g id="node17" class="node"><title>Node16</title>
<polygon fill="white" stroke="#bfbfbf" points="677,-112.5 677,-131.5 745,-131.5 745,-112.5 677,-112.5"/>
<text text-anchor="middle" x="711" y="-119.5" font-family="Helvetica,sans-Serif" font-size="10.00">sys/types.h</text>
</g>
<!-- Node15&#45;&gt;Node16 -->
<g id="edge19" class="edge"><title>Node15&#45;&gt;Node16</title>
<path fill="none" stroke="midnightblue" d="M522.855,-169.605C560.1,-160.379 624.093,-144.527 666.969,-133.907"/>
<polygon fill="midnightblue" stroke="midnightblue" points="667.984,-137.261 676.849,-131.46 666.3,-130.467 667.984,-137.261"/>
</g>
<!-- Node17&#45;&gt;Node4 -->
<g id="edge25" class="edge"><title>Node17&#45;&gt;Node4</title>
<path fill="none" stroke="midnightblue" d="M421.742,-226.694C418.507,-225.73 415.171,-224.793 412,-224 329.468,-203.36 298.616,-228.865 224,-188 187.882,-168.219 142.87,-142.075 171,-112 211.925,-68.2448 649.268,-80.6332 709,-76 731.385,-74.2636 756.51,-72.0499 776.222,-70.2525"/>
<polygon fill="midnightblue" stroke="midnightblue" points="776.641,-73.7289 786.279,-69.329 776.001,-66.7583 776.641,-73.7289"/>
</g>
<!-- Node17&#45;&gt;Node6 -->
<g id="edge23" class="edge"><title>Node17&#45;&gt;Node6</title>
<path fill="none" stroke="midnightblue" d="M434.832,-224.191C420.414,-202.425 387.787,-145.45 416,-112 445.221,-77.3548 583.433,-69.3814 646.943,-67.5473"/>
<polygon fill="midnightblue" stroke="midnightblue" points="647.272,-71.0402 657.18,-67.2867 647.094,-64.0424 647.272,-71.0402"/>
</g>
<!-- Node17&#45;&gt;Node9 -->
<g id="edge26" class="edge"><title>Node17&#45;&gt;Node9</title>
<path fill="none" stroke="midnightblue" d="M460.125,-226.205C463.068,-225.348 466.094,-224.573 469,-224 666.097,-185.129 723.439,-218.51 926.371,-187.818"/>
<polygon fill="midnightblue" stroke="midnightblue" points="927.112,-191.245 936.46,-186.258 926.042,-184.327 927.112,-191.245"/>
</g>
<!-- Node18 -->
<g id="node19" class="node"><title>Node18</title>
<polygon fill="white" stroke="#bfbfbf" points="233.5,-168.5 233.5,-187.5 282.5,-187.5 282.5,-168.5 233.5,-168.5"/>
<text text-anchor="middle" x="258" y="-175.5" font-family="Helvetica,sans-Serif" font-size="10.00">ctype.h</text>
</g>
<!-- Node17&#45;&gt;Node18 -->
<g id="edge24" class="edge"><title>Node17&#45;&gt;Node18</title>
<path fill="none" stroke="midnightblue" d="M421.983,-227.048C418.658,-226.022 415.23,-224.973 412,-224 371.026,-211.656 323.767,-197.921 292.525,-188.911"/>
<polygon fill="midnightblue" stroke="midnightblue" points="293.153,-185.449 282.575,-186.045 291.216,-192.176 293.153,-185.449"/>
</g>
<!-- Node19 -->
<g id="node20" class="node"><title>Node19</title>
<g id="a_node20"><a xlink:href="../../de/d9c/docparser_8h.html" target="_top" xlink:title="docparser.h">
<polygon fill="white" stroke="black" points="301,-168.5 301,-187.5 369,-187.5 369,-168.5 301,-168.5"/>
<text text-anchor="middle" x="335" y="-175.5" font-family="Helvetica,sans-Serif" font-size="10.00">docparser.h</text>
</a>
</g>
</g>
<!-- Node17&#45;&gt;Node19 -->
<g id="edge27" class="edge"><title>Node17&#45;&gt;Node19</title>
<path fill="none" stroke="midnightblue" d="M423.969,-224.324C406.97,-215.664 380.624,-202.242 361.007,-192.249"/>
<polygon fill="midnightblue" stroke="midnightblue" points="362.488,-189.075 351.988,-187.655 359.31,-195.312 362.488,-189.075"/>
</g>
<!-- Node19&#45;&gt;Node5 -->
<g id="edge30" class="edge"><title>Node19&#45;&gt;Node5</title>
<path fill="none" stroke="midnightblue" d="M300.822,-169.923C255.142,-160.122 178.967,-142.447 171,-132 147.391,-101.041 170.627,-53.4192 186.294,-28.1405"/>
<polygon fill="midnightblue" stroke="midnightblue" points="189.311,-29.922 191.815,-19.6274 183.437,-26.1134 189.311,-29.922"/>
</g>
<!-- Node19&#45;&gt;Node6 -->
<g id="edge29" class="edge"><title>Node19&#45;&gt;Node6</title>
<path fill="none" stroke="midnightblue" d="M338.793,-168.101C345.443,-153.684 360.658,-125.478 383,-112 427.058,-85.4224 580.002,-73.0391 647.067,-68.7912"/>
<polygon fill="midnightblue" stroke="midnightblue" points="647.668,-72.261 657.435,-68.1563 647.24,-65.2741 647.668,-72.261"/>
</g>
<!-- Node19&#45;&gt;Node14 -->
<g id="edge28" class="edge"><title>Node19&#45;&gt;Node14</title>
<path fill="none" stroke="midnightblue" d="M364.631,-168.444C398.562,-158.645 453.99,-142.639 489.198,-132.472"/>
<polygon fill="midnightblue" stroke="midnightblue" points="490.356,-135.781 498.993,-129.644 488.414,-129.056 490.356,-135.781"/>
</g>
<!-- Node20 -->
<g id="node21" class="node"><title>Node20</title>
<g id="a_node21"><a xlink:href="../../d2/d3c/docvisitor_8h.html" target="_top" xlink:title="docvisitor.h">
<polygon fill="white" stroke="black" points="180.5,-112.5 180.5,-131.5 247.5,-131.5 247.5,-112.5 180.5,-112.5"/>
<text text-anchor="middle" x="214" y="-119.5" font-family="Helvetica,sans-Serif" font-size="10.00">docvisitor.h</text>
</a>
</g>
</g>
<!-- Node19&#45;&gt;Node20 -->
<g id="edge31" class="edge"><title>Node19&#45;&gt;Node20</title>
<path fill="none" stroke="midnightblue" d="M315.827,-168.444C296.091,-159.636 265.115,-145.812 242.507,-135.722"/>
<polygon fill="midnightblue" stroke="midnightblue" points="243.641,-132.396 233.083,-131.516 240.789,-138.788 243.641,-132.396"/>
</g>
<!-- Node21 -->
<g id="node22" class="node"><title>Node21</title>
<g id="a_node22"><a xlink:href="../../d0/d73/htmlattrib_8h.html" target="_top" xlink:title="htmlattrib.h">
<polygon fill="white" stroke="black" points="265.5,-112.5 265.5,-131.5 330.5,-131.5 330.5,-112.5 265.5,-112.5"/>
<text text-anchor="middle" x="298" y="-119.5" font-family="Helvetica,sans-Serif" font-size="10.00">htmlattrib.h</text>
</a>
</g>
</g>
<!-- Node19&#45;&gt;Node21 -->
<g id="edge32" class="edge"><title>Node19&#45;&gt;Node21</title>
<path fill="none" stroke="midnightblue" d="M328.89,-168.083C323.718,-160.534 316.154,-149.495 309.806,-140.23"/>
<polygon fill="midnightblue" stroke="midnightblue" points="312.536,-138.022 303.996,-131.751 306.761,-141.979 312.536,-138.022"/>
</g>
<!-- Node21&#45;&gt;Node5 -->
<g id="edge33" class="edge"><title>Node21&#45;&gt;Node5</title>
<path fill="none" stroke="midnightblue" d="M290.153,-112.368C273.431,-93.9744 234.065,-50.6712 212.593,-27.0519"/>
<polygon fill="midnightblue" stroke="midnightblue" points="215.127,-24.6365 205.81,-19.5914 209.947,-29.3452 215.127,-24.6365"/>
</g>
<!-- Node21&#45;&gt;Node6 -->
<g id="edge34" class="edge"><title>Node21&#45;&gt;Node6</title>
<path fill="none" stroke="midnightblue" d="M330.575,-114.521C335.404,-113.63 340.326,-112.762 345,-112 455.632,-93.969 587.729,-77.7239 647.208,-70.6895"/>
<polygon fill="midnightblue" stroke="midnightblue" points="647.925,-74.1294 657.448,-69.4849 647.107,-67.1773 647.925,-74.1294"/>
</g>
<!-- Node22&#45;&gt;Node9 -->
<g id="edge36" class="edge"><title>Node22&#45;&gt;Node9</title>
<path fill="none" stroke="midnightblue" d="M848.111,-285.38C875.25,-280.477 915.831,-269.228 941,-244 953.335,-231.636 959.398,-212.389 962.336,-198.043"/>
<polygon fill="midnightblue" stroke="midnightblue" points="965.85,-198.261 964.082,-187.814 958.949,-197.083 965.85,-198.261"/>
</g>
<!-- Node23&#45;&gt;Node9 -->
<g id="edge48" class="edge"><title>Node23&#45;&gt;Node9</title>
<path fill="none" stroke="midnightblue" d="M1248.62,-288.198C1201.36,-285.893 1110.11,-277.113 1041,-244 1016.43,-232.226 993.421,-210.46 979.295,-195.378"/>
<polygon fill="midnightblue" stroke="midnightblue" points="981.721,-192.843 972.407,-187.792 976.538,-197.548 981.721,-192.843"/>
</g>
<!-- Node23&#45;&gt;Node10 -->
<g id="edge41" class="edge"><title>Node23&#45;&gt;Node10</title>
<path fill="none" stroke="midnightblue" d="M1295.59,-280.408C1349.01,-250.47 1519.53,-150.488 1486,-112 1448.47,-68.9125 1270.14,-65.7223 1194.76,-66.3579"/>
<polygon fill="midnightblue" stroke="midnightblue" points="1194.38,-62.8619 1184.42,-66.4751 1194.46,-69.8615 1194.38,-62.8619"/>
</g>
<!-- Node23&#45;&gt;Node11 -->
<g id="edge42" class="edge"><title>Node23&#45;&gt;Node11</title>
<path fill="none" stroke="midnightblue" d="M1265.16,-280.352C1253.2,-272.505 1237.07,-259.765 1229,-244 1212.14,-211.073 1212.74,-166.524 1214.79,-141.695"/>
<polygon fill="midnightblue" stroke="midnightblue" points="1218.3,-141.807 1215.82,-131.507 1211.34,-141.107 1218.3,-141.807"/>
</g>
<!-- Node24 -->
<g id="node25" class="node"><title>Node24</title>
<polygon fill="white" stroke="#bfbfbf" points="1416,-224.5 1416,-243.5 1484,-243.5 1484,-224.5 1416,-224.5"/>
<text text-anchor="middle" x="1450" y="-231.5" font-family="Helvetica,sans-Serif" font-size="10.00">qdatetime.h</text>
</g>
<!-- Node23&#45;&gt;Node24 -->
<g id="edge38" class="edge"><title>Node23&#45;&gt;Node24</title>
<path fill="none" stroke="midnightblue" d="M1306.94,-280.444C1335.66,-271.32 1381.33,-256.813 1413.32,-246.651"/>
<polygon fill="midnightblue" stroke="midnightblue" points="1414.72,-249.88 1423.19,-243.516 1412.6,-243.208 1414.72,-249.88"/>
</g>
<!-- Node25 -->
<g id="node26" class="node"><title>Node25</title>
<polygon fill="white" stroke="#bfbfbf" points="1502,-224.5 1502,-243.5 1558,-243.5 1558,-224.5 1502,-224.5"/>
<text text-anchor="middle" x="1530" y="-231.5" font-family="Helvetica,sans-Serif" font-size="10.00">qcache.h</text>
</g>
<!-- Node23&#45;&gt;Node25 -->
<g id="edge39" class="edge"><title>Node23&#45;&gt;Node25</title>
<path fill="none" stroke="midnightblue" d="M1311.11,-282.737C1350.78,-274.681 1421.76,-260.045 1491.86,-244.21"/>
<polygon fill="midnightblue" stroke="midnightblue" points="1492.76,-247.594 1501.74,-241.968 1491.21,-240.767 1492.76,-247.594"/>
</g>
<!-- Node26 -->
<g id="node27" class="node"><title>Node26</title>
<polygon fill="white" stroke="#bfbfbf" points="1576,-224.5 1576,-243.5 1630,-243.5 1630,-224.5 1576,-224.5"/>
<text text-anchor="middle" x="1603" y="-231.5" font-family="Helvetica,sans-Serif" font-size="10.00">qstrlist.h</text>
</g>
<!-- Node23&#45;&gt;Node26 -->
<g id="edge40" class="edge"><title>Node23&#45;&gt;Node26</title>
<path fill="none" stroke="midnightblue" d="M1311.17,-285.044C1362.33,-278.347 1467.51,-263.742 1566.11,-244.029"/>
<polygon fill="midnightblue" stroke="midnightblue" points="1566.82,-247.455 1575.93,-242.043 1565.44,-240.593 1566.82,-247.455"/>
</g>
<!-- Node27 -->
<g id="node28" class="node"><title>Node27</title>
<g id="a_node28"><a xlink:href="../../df/d83/ftextstream_8h.html" target="_top" xlink:title="ftextstream.h">
<polygon fill="white" stroke="black" points="1339,-168.5 1339,-187.5 1413,-187.5 1413,-168.5 1339,-168.5"/>
<text text-anchor="middle" x="1376" y="-175.5" font-family="Helvetica,sans-Serif" font-size="10.00">ftextstream.h</text>
</a>
</g>
</g>
<!-- Node23&#45;&gt;Node27 -->
<g id="edge43" class="edge"><title>Node23&#45;&gt;Node27</title>
<path fill="none" stroke="midnightblue" d="M1291.25,-280.396C1302.08,-271.817 1318.6,-257.944 1331,-244 1344.21,-229.142 1356.88,-210.289 1365.39,-196.718"/>
<polygon fill="midnightblue" stroke="midnightblue" points="1368.55,-198.256 1370.8,-187.903 1362.58,-194.595 1368.55,-198.256"/>
</g>
<!-- Node30 -->
<g id="node31" class="node"><title>Node30</title>
<g id="a_node31"><a xlink:href="../../d9/d11/membergroup_8h.html" target="_top" xlink:title="membergroup.h">
<polygon fill="white" stroke="black" points="1238,-224.5 1238,-243.5 1322,-243.5 1322,-224.5 1238,-224.5"/>
<text text-anchor="middle" x="1280" y="-231.5" font-family="Helvetica,sans-Serif" font-size="10.00">membergroup.h</text>
</a>
</g>
</g>
<!-- Node23&#45;&gt;Node30 -->
<g id="edge49" class="edge"><title>Node23&#45;&gt;Node30</title>
<path fill="none" stroke="midnightblue" d="M1280,-280.083C1280,-273.006 1280,-262.861 1280,-253.986"/>
<polygon fill="midnightblue" stroke="midnightblue" points="1283.5,-253.751 1280,-243.751 1276.5,-253.751 1283.5,-253.751"/>
</g>
<!-- Node31 -->
<g id="node32" class="node"><title>Node31</title>
<g id="a_node32"><a xlink:href="../../d6/d15/dirdef_8h.html" target="_top" xlink:title="dirdef.h">
<polygon fill="white" stroke="black" points="1049.5,-224.5 1049.5,-243.5 1098.5,-243.5 1098.5,-224.5 1049.5,-224.5"/>
<text text-anchor="middle" x="1074" y="-231.5" font-family="Helvetica,sans-Serif" font-size="10.00">dirdef.h</text>
</a>
</g>
</g>
<!-- Node23&#45;&gt;Node31 -->
<g id="edge53" class="edge"><title>Node23&#45;&gt;Node31</title>
<path fill="none" stroke="midnightblue" d="M1248.71,-280.799C1211,-270.913 1147.83,-254.352 1108.66,-244.087"/>
<polygon fill="midnightblue" stroke="midnightblue" points="1109.34,-240.645 1098.78,-241.495 1107.56,-247.416 1109.34,-240.645"/>
</g>
<!-- Node33 -->
<g id="node34" class="node"><title>Node33</title>
<g id="a_node34"><a xlink:href="../../dd/d78/memberlist_8h.html" target="_top" xlink:title="memberlist.h">
<polygon fill="white" stroke="black" points="825.5,-224.5 825.5,-243.5 898.5,-243.5 898.5,-224.5 825.5,-224.5"/>
<text text-anchor="middle" x="862" y="-231.5" font-family="Helvetica,sans-Serif" font-size="10.00">memberlist.h</text>
</a>
</g>
</g>
<!-- Node23&#45;&gt;Node33 -->
<g id="edge60" class="edge"><title>Node23&#45;&gt;Node33</title>
<path fill="none" stroke="midnightblue" d="M1248.92,-284.985C1176.2,-275.59 994.598,-252.13 908.582,-241.018"/>
<polygon fill="midnightblue" stroke="midnightblue" points="908.946,-237.536 898.58,-239.726 908.049,-244.478 908.946,-237.536"/>
</g>
<!-- Node27&#45;&gt;Node7 -->
<g id="edge47" class="edge"><title>Node27&#45;&gt;Node7</title>
<path fill="none" stroke="midnightblue" d="M1338.72,-173.029C1245.81,-163.134 1004.6,-137.442 908.933,-127.253"/>
<polygon fill="midnightblue" stroke="midnightblue" points="909.119,-123.753 898.804,-126.174 908.377,-130.714 909.119,-123.753"/>
</g>
<!-- Node27&#45;&gt;Node14 -->
<g id="edge44" class="edge"><title>Node27&#45;&gt;Node14</title>
<path fill="none" stroke="midnightblue" d="M1338.76,-174.645C1196.69,-165.662 690.083,-133.628 555.195,-125.099"/>
<polygon fill="midnightblue" stroke="midnightblue" points="555.27,-121.597 545.069,-124.459 554.828,-128.583 555.27,-121.597"/>
</g>
<!-- Node28 -->
<g id="node29" class="node"><title>Node28</title>
<polygon fill="white" stroke="#bfbfbf" points="1339,-112.5 1339,-131.5 1405,-131.5 1405,-112.5 1339,-112.5"/>
<text text-anchor="middle" x="1372" y="-119.5" font-family="Helvetica,sans-Serif" font-size="10.00">qiodevice.h</text>
</g>
<!-- Node27&#45;&gt;Node28 -->
<g id="edge45" class="edge"><title>Node27&#45;&gt;Node28</title>
<path fill="none" stroke="midnightblue" d="M1375.34,-168.083C1374.82,-161.006 1374.06,-150.861 1373.41,-141.986"/>
<polygon fill="midnightblue" stroke="midnightblue" points="1376.88,-141.465 1372.65,-131.751 1369.9,-141.982 1376.88,-141.465"/>
</g>
<!-- Node29 -->
<g id="node30" class="node"><title>Node29</title>
<polygon fill="white" stroke="#bfbfbf" points="1423,-112.5 1423,-131.5 1477,-131.5 1477,-112.5 1423,-112.5"/>
<text text-anchor="middle" x="1450" y="-119.5" font-family="Helvetica,sans-Serif" font-size="10.00">qstring.h</text>
</g>
<!-- Node27&#45;&gt;Node29 -->
<g id="edge46" class="edge"><title>Node27&#45;&gt;Node29</title>
<path fill="none" stroke="midnightblue" d="M1387.89,-168.324C1399.15,-160.107 1416.29,-147.602 1429.71,-137.807"/>
<polygon fill="midnightblue" stroke="midnightblue" points="1431.88,-140.556 1437.89,-131.834 1427.75,-134.901 1431.88,-140.556"/>
</g>
<!-- Node30&#45;&gt;Node4 -->
<g id="edge52" class="edge"><title>Node30&#45;&gt;Node4</title>
<path fill="none" stroke="midnightblue" d="M1284.18,-224.305C1294.08,-202.303 1316.03,-143.905 1287,-112 1257.4,-79.4652 950.472,-69.9567 845.771,-67.6483"/>
<polygon fill="midnightblue" stroke="midnightblue" points="845.791,-64.148 835.719,-67.4353 845.642,-71.1465 845.791,-64.148"/>
</g>
<!-- Node30&#45;&gt;Node6 -->
<g id="edge50" class="edge"><title>Node30&#45;&gt;Node6</title>
<path fill="none" stroke="midnightblue" d="M1281.23,-224.285C1283.87,-201.715 1287.36,-141.094 1254,-112 1213.94,-77.0639 829.966,-80.4305 777,-76 754.877,-74.1494 729.964,-71.8588 710.794,-70.0516"/>
<polygon fill="midnightblue" stroke="midnightblue" points="711.074,-66.5626 700.788,-69.1032 710.413,-73.5313 711.074,-66.5626"/>
</g>
<!-- Node30&#45;&gt;Node9 -->
<g id="edge51" class="edge"><title>Node30&#45;&gt;Node9</title>
<path fill="none" stroke="midnightblue" d="M1237.84,-225.773C1176.48,-215.254 1063.41,-195.871 1003.93,-185.673"/>
<polygon fill="midnightblue" stroke="midnightblue" points="1004.26,-182.179 993.813,-183.939 1003.08,-189.079 1004.26,-182.179"/>
</g>
<!-- Node31&#45;&gt;Node6 -->
<g id="edge59" class="edge"><title>Node31&#45;&gt;Node6</title>
<path fill="none" stroke="midnightblue" d="M1068.08,-224.495C1051.86,-201.899 1004.1,-140.177 948,-112 906.801,-91.3073 772.628,-76.0571 710.767,-69.9429"/>
<polygon fill="midnightblue" stroke="midnightblue" points="711.08,-66.4569 700.789,-68.9742 710.404,-73.4242 711.08,-66.4569"/>
</g>
<!-- Node31&#45;&gt;Node9 -->
<g id="edge54" class="edge"><title>Node31&#45;&gt;Node9</title>
<path fill="none" stroke="midnightblue" d="M1056.49,-224.324C1038.93,-215.625 1011.67,-202.12 991.469,-192.113"/>
<polygon fill="midnightblue" stroke="midnightblue" points="992.984,-188.958 982.469,-187.655 989.876,-195.23 992.984,-188.958"/>
</g>
<!-- Node32 -->
<g id="node33" class="node"><title>Node32</title>
<g id="a_node33"><a xlink:href="../../df/da1/definition_8h.html" target="_top" xlink:title="definition.h">
<polygon fill="white" stroke="black" points="1069,-112.5 1069,-131.5 1133,-131.5 1133,-112.5 1069,-112.5"/>
<text text-anchor="middle" x="1101" y="-119.5" font-family="Helvetica,sans-Serif" font-size="10.00">definition.h</text>
</a>
</g>
</g>
<!-- Node31&#45;&gt;Node32 -->
<g id="edge55" class="edge"><title>Node31&#45;&gt;Node32</title>
<path fill="none" stroke="midnightblue" d="M1076.12,-224.368C1080.48,-206.617 1090.53,-165.666 1096.44,-141.597"/>
<polygon fill="midnightblue" stroke="midnightblue" points="1099.91,-142.137 1098.89,-131.591 1093.11,-140.469 1099.91,-142.137"/>
</g>
<!-- Node32&#45;&gt;Node4 -->
<g id="edge58" class="edge"><title>Node32&#45;&gt;Node4</title>
<path fill="none" stroke="midnightblue" d="M1068.84,-114.661C1064.2,-113.76 1059.48,-112.851 1055,-112 980.446,-97.8322 892.947,-81.8525 845.63,-73.2647"/>
<polygon fill="midnightblue" stroke="midnightblue" points="846.07,-69.7876 835.606,-71.447 844.821,-76.6753 846.07,-69.7876"/>
</g>
<!-- Node32&#45;&gt;Node6 -->
<g id="edge56" class="edge"><title>Node32&#45;&gt;Node6</title>
<path fill="none" stroke="midnightblue" d="M1068.94,-116.897C990.494,-106.859 789.62,-81.1552 711.121,-71.1103"/>
<polygon fill="midnightblue" stroke="midnightblue" points="711.245,-67.5977 700.882,-69.8001 710.357,-74.5411 711.245,-67.5977"/>
</g>
<!-- Node32&#45;&gt;Node10 -->
<g id="edge57" class="edge"><title>Node32&#45;&gt;Node10</title>
<path fill="none" stroke="midnightblue" d="M1110.64,-112.324C1119.51,-104.341 1132.87,-92.3128 1143.61,-82.6529"/>
<polygon fill="midnightblue" stroke="midnightblue" points="1146.09,-85.1251 1151.18,-75.8339 1141.41,-79.922 1146.09,-85.1251"/>
</g>
<!-- Node33&#45;&gt;Node4 -->
<g id="edge68" class="edge"><title>Node33&#45;&gt;Node4</title>
<path fill="none" stroke="midnightblue" d="M855.67,-224.5C849.481,-215.779 840.246,-201.601 835,-188 821.627,-153.328 815.357,-110.068 812.704,-85.7904"/>
<polygon fill="midnightblue" stroke="midnightblue" points="816.182,-85.3951 811.702,-75.794 809.217,-86.0932 816.182,-85.3951"/>
</g>
<!-- Node33&#45;&gt;Node6 -->
<g id="edge61" class="edge"><title>Node33&#45;&gt;Node6</title>
<path fill="none" stroke="midnightblue" d="M854.708,-224.159C834.308,-199.537 776.67,-130.759 754,-112 739.221,-99.7709 720.764,-88.6531 705.859,-80.5278"/>
<polygon fill="midnightblue" stroke="midnightblue" points="707.125,-77.2371 696.651,-75.6388 703.842,-83.4196 707.125,-77.2371"/>
</g>
<!-- Node33&#45;&gt;Node9 -->
<g id="edge67" class="edge"><title>Node33&#45;&gt;Node9</title>
<path fill="none" stroke="midnightblue" d="M878.549,-224.324C894.992,-215.703 920.435,-202.364 939.468,-192.386"/>
<polygon fill="midnightblue" stroke="midnightblue" points="941.261,-195.398 948.492,-187.655 938.011,-189.198 941.261,-195.398"/>
</g>
<!-- Node34 -->
<g id="node35" class="node"><title>Node34</title>
<g id="a_node35"><a xlink:href="../../d4/d46/memberdef_8h.html" target="_top" xlink:title="memberdef.h">
<polygon fill="white" stroke="black" points="844,-168.5 844,-187.5 918,-187.5 918,-168.5 844,-168.5"/>
<text text-anchor="middle" x="881" y="-175.5" font-family="Helvetica,sans-Serif" font-size="10.00">memberdef.h</text>
</a>
</g>
</g>
<!-- Node33&#45;&gt;Node34 -->
<g id="edge62" class="edge"><title>Node33&#45;&gt;Node34</title>
<path fill="none" stroke="midnightblue" d="M865.137,-224.083C867.683,-216.849 871.356,-206.409 874.527,-197.397"/>
<polygon fill="midnightblue" stroke="midnightblue" points="877.903,-198.346 877.921,-187.751 871.3,-196.023 877.903,-198.346"/>
</g>
<!-- Node34&#45;&gt;Node4 -->
<g id="edge65" class="edge"><title>Node34&#45;&gt;Node4</title>
<path fill="none" stroke="midnightblue" d="M899.509,-168.375C922.439,-156.484 956.678,-134.018 941,-112 919.562,-81.8924 876.537,-71.741 845.858,-68.4207"/>
<polygon fill="midnightblue" stroke="midnightblue" points="845.847,-64.9061 835.577,-67.5096 845.229,-71.8788 845.847,-64.9061"/>
</g>
<!-- Node34&#45;&gt;Node6 -->
<g id="edge63" class="edge"><title>Node34&#45;&gt;Node6</title>
<path fill="none" stroke="midnightblue" d="M889.782,-168.13C901.979,-154.733 921.046,-129.089 907,-112 894.584,-96.8936 770.225,-78.861 710.585,-70.9968"/>
<polygon fill="midnightblue" stroke="midnightblue" points="710.949,-67.5147 700.58,-69.6931 710.044,-74.456 710.949,-67.5147"/>
</g>
<!-- Node34&#45;&gt;Node16 -->
<g id="edge64" class="edge"><title>Node34&#45;&gt;Node16</title>
<path fill="none" stroke="midnightblue" d="M854.063,-168.444C825.34,-159.32 779.671,-144.813 747.679,-134.651"/>
<polygon fill="midnightblue" stroke="midnightblue" points="748.401,-131.208 737.811,-131.516 746.282,-137.88 748.401,-131.208"/>
</g>
<!-- Node34&#45;&gt;Node32 -->
<g id="edge66" class="edge"><title>Node34&#45;&gt;Node32</title>
<path fill="none" stroke="midnightblue" d="M915.86,-168.444C954.7,-158.91 1017.48,-143.5 1059,-133.31"/>
<polygon fill="midnightblue" stroke="midnightblue" points="1059.93,-136.684 1068.81,-130.902 1058.26,-129.886 1059.93,-136.684"/>
</g>
<!-- Node35&#45;&gt;Node2 -->
<g id="edge70" class="edge"><title>Node35&#45;&gt;Node2</title>
<path fill="none" stroke="midnightblue" d="M434.878,-280.324C425.474,-272.263 411.256,-260.077 399.931,-250.369"/>
<polygon fill="midnightblue" stroke="midnightblue" points="402.177,-247.684 392.306,-243.834 397.621,-252.999 402.177,-247.684"/>
</g>
<!-- Node35&#45;&gt;Node12 -->
<g id="edge72" class="edge"><title>Node35&#45;&gt;Node12</title>
<path fill="none" stroke="midnightblue" d="M454.158,-280.324C462.501,-272.42 475.032,-260.548 485.177,-250.938"/>
<polygon fill="midnightblue" stroke="midnightblue" points="487.823,-253.252 492.675,-243.834 483.009,-248.171 487.823,-253.252"/>
</g>
<!-- Node36 -->
<g id="node37" class="node"><title>Node36</title>
<polygon fill="white" stroke="#bfbfbf" points="290,-224.5 290,-243.5 342,-243.5 342,-224.5 290,-224.5"/>
<text text-anchor="middle" x="316" y="-231.5" font-family="Helvetica,sans-Serif" font-size="10.00">assert.h</text>
</g>
<!-- Node35&#45;&gt;Node36 -->
<g id="edge71" class="edge"><title>Node35&#45;&gt;Node36</title>
<path fill="none" stroke="midnightblue" d="M424.56,-280.444C403.33,-271.557 369.901,-257.563 345.745,-247.451"/>
<polygon fill="midnightblue" stroke="midnightblue" points="346.921,-244.149 336.345,-243.516 344.218,-250.606 346.921,-244.149"/>
</g>
<!-- Node37&#45;&gt;Node5 -->
<g id="edge75" class="edge"><title>Node37&#45;&gt;Node5</title>
<path fill="none" stroke="midnightblue" d="M61.6133,-112.368C86.794,-93.6531 146.67,-49.1509 178.044,-25.8324"/>
<polygon fill="midnightblue" stroke="midnightblue" points="180.503,-28.3658 186.441,-19.5914 176.327,-22.7476 180.503,-28.3658"/>
</g>
<!-- Node37&#45;&gt;Node6 -->
<g id="edge74" class="edge"><title>Node37&#45;&gt;Node6</title>
<path fill="none" stroke="midnightblue" d="M85.7118,-114.122C90.5037,-113.331 95.3635,-112.596 100,-112 307.834,-85.2872 559.823,-72.2886 647.292,-68.3428"/>
<polygon fill="midnightblue" stroke="midnightblue" points="647.528,-71.8358 657.363,-67.8959 647.218,-64.8427 647.528,-71.8358"/>
</g>
<!-- Node39 -->
<g id="node40" class="node"><title>Node39</title>
<polygon fill="white" stroke="#bfbfbf" points="1648,-224.5 1648,-243.5 1728,-243.5 1728,-224.5 1648,-224.5"/>
<text text-anchor="middle" x="1688" y="-231.5" font-family="Helvetica,sans-Serif" font-size="10.00">configvalues.h</text>
</g>
<!-- Node38&#45;&gt;Node39 -->
<g id="edge77" class="edge"><title>Node38&#45;&gt;Node39</title>
<path fill="none" stroke="midnightblue" d="M1547.57,-280.681C1575.56,-271.578 1620.62,-256.917 1652.13,-246.667"/>
<polygon fill="midnightblue" stroke="midnightblue" points="1653.42,-249.929 1661.85,-243.507 1651.26,-243.272 1653.42,-249.929"/>
</g>
</g>
</svg>
