<?xml version="1.0" encoding="UTF-8" standalone="no"?>
<!DOCTYPE svg PUBLIC "-//W3C//DTD SVG 1.1//EN"
 "http://www.w3.org/Graphics/SVG/1.1/DTD/svg11.dtd">
<!-- Generated by graphviz version 2.38.0 (20140413.2041)
 -->
<!-- Title: FilterListSort::ListElem Pages: 1 -->
<svg width="276pt" height="162pt"
 viewBox="0.00 0.00 275.50 162.00" xmlns="http://www.w3.org/2000/svg" xmlns:xlink="http://www.w3.org/1999/xlink">
<g id="graph0" class="graph" transform="scale(1 1) rotate(0) translate(4 158)">
<title>FilterListSort::ListElem</title>
<polygon fill="white" stroke="none" points="-4,4 -4,-158 271.5,-158 271.5,4 -4,4"/>
<!-- Node1 -->
<g id="node1" class="node"><title>Node1</title>
<polygon fill="#bfbfbf" stroke="black" points="0,-0.5 0,-19.5 116,-19.5 116,-0.5 0,-0.5"/>
<text text-anchor="middle" x="58" y="-7.5" font-family="Helvetica,sans-Serif" font-size="10.00">FilterListSort::ListElem</text>
</g>
<!-- Node2 -->
<g id="node2" class="node"><title>Node2</title>
<g id="a_node2"><a xlink:href="../../d1/dba/class_template_variant.html" target="_top" xlink:title="Variant type which can hold one value of a fixed set of types. ">
<polygon fill="white" stroke="black" points="85,-67.5 85,-86.5 173,-86.5 173,-67.5 85,-67.5"/>
<text text-anchor="middle" x="129" y="-74.5" font-family="Helvetica,sans-Serif" font-size="10.00">TemplateVariant</text>
</a>
</g>
</g>
<!-- Node2&#45;&gt;Node1 -->
<g id="edge1" class="edge"><title>Node2&#45;&gt;Node1</title>
<path fill="none" stroke="#9a32cd" stroke-dasharray="5,2" d="M98.8222,-62.7341C92.1411,-58.921 85.4395,-54.3256 80,-49 71.3936,-40.5739 65.0305,-28.0738 61.4199,-19.7382"/>
<polygon fill="#9a32cd" stroke="#9a32cd" points="97.3182,-65.8975 107.8,-67.4441 100.57,-59.6988 97.3182,-65.8975"/>
<text text-anchor="middle" x="93.5" y="-41" font-family="Helvetica,sans-Serif" font-size="10.00"> value</text>
</g>
<!-- Node5 -->
<g id="node5" class="node"><title>Node5</title>
<g id="a_node5"><a xlink:href="../../d7/d1d/class_template_variant_1_1_delegate.html" target="_top" xlink:title="Helper class to create a delegate that can store a function/method call. ">
<polygon fill="white" stroke="black" points="134.5,-0.5 134.5,-19.5 267.5,-19.5 267.5,-0.5 134.5,-0.5"/>
<text text-anchor="middle" x="201" y="-7.5" font-family="Helvetica,sans-Serif" font-size="10.00">TemplateVariant::Delegate</text>
</a>
</g>
</g>
<!-- Node2&#45;&gt;Node5 -->
<g id="edge5" class="edge"><title>Node2&#45;&gt;Node5</title>
<path fill="none" stroke="#9a32cd" stroke-dasharray="5,2" d="M122.888,-57.6136C121.797,-50.9141 122.054,-43.6139 126,-38 132.048,-29.3951 141.115,-23.5198 150.875,-19.5116"/>
<polygon fill="#9a32cd" stroke="#9a32cd" points="119.502,-58.5001 125.374,-67.3183 126.283,-56.7624 119.502,-58.5001"/>
<text text-anchor="middle" x="150.5" y="-41" font-family="Helvetica,sans-Serif" font-size="10.00"> m_stubPtr</text>
</g>
<!-- Node3 -->
<g id="node3" class="node"><title>Node3</title>
<g id="a_node3"><a xlink:href="../../d6/d88/class_template_list_intf.html" target="_top" xlink:title="Abstract read&#45;only interface for a context value of type list. ">
<polygon fill="white" stroke="black" points="30.5,-134.5 30.5,-153.5 117.5,-153.5 117.5,-134.5 30.5,-134.5"/>
<text text-anchor="middle" x="74" y="-141.5" font-family="Helvetica,sans-Serif" font-size="10.00">TemplateListIntf</text>
</a>
</g>
</g>
<!-- Node3&#45;&gt;Node2 -->
<g id="edge2" class="edge"><title>Node3&#45;&gt;Node2</title>
<path fill="none" stroke="#9a32cd" stroke-dasharray="5,2" d="M88.1558,-126.27C98.8793,-113.597 113.176,-96.701 121.7,-86.6273"/>
<polygon fill="#9a32cd" stroke="#9a32cd" points="85.2051,-124.339 81.4175,-134.234 90.5489,-128.861 85.2051,-124.339"/>
<text text-anchor="middle" x="120" y="-108" font-family="Helvetica,sans-Serif" font-size="10.00"> m_list</text>
</g>
<!-- Node4 -->
<g id="node4" class="node"><title>Node4</title>
<g id="a_node4"><a xlink:href="../../d9/de8/class_template_struct_intf.html" target="_top" xlink:title="Abstract interface for a context value of type struct. ">
<polygon fill="white" stroke="black" points="136,-134.5 136,-153.5 234,-153.5 234,-134.5 136,-134.5"/>
<text text-anchor="middle" x="185" y="-141.5" font-family="Helvetica,sans-Serif" font-size="10.00">TemplateStructIntf</text>
</a>
</g>
</g>
<!-- Node4&#45;&gt;Node2 -->
<g id="edge3" class="edge"><title>Node4&#45;&gt;Node2</title>
<path fill="none" stroke="#9a32cd" stroke-dasharray="5,2" d="M170.901,-126.635C159.949,-113.923 145.195,-96.7978 136.433,-86.6273"/>
<polygon fill="#9a32cd" stroke="#9a32cd" points="168.269,-128.942 177.448,-134.234 173.572,-124.373 168.269,-128.942"/>
<text text-anchor="middle" x="182" y="-108" font-family="Helvetica,sans-Serif" font-size="10.00"> m_strukt</text>
</g>
<!-- Node5&#45;&gt;Node2 -->
<g id="edge4" class="edge"><title>Node5&#45;&gt;Node2</title>
<path fill="none" stroke="#9a32cd" stroke-dasharray="5,2" d="M193.18,-29.0229C189.58,-35.8672 184.806,-43.3633 179,-49 171.072,-56.6962 160.511,-62.8262 151.138,-67.2873"/>
<polygon fill="#9a32cd" stroke="#9a32cd" points="196.454,-30.2874 197.596,-19.7543 190.135,-27.2764 196.454,-30.2874"/>
<text text-anchor="middle" x="215" y="-41" font-family="Helvetica,sans-Serif" font-size="10.00"> m_delegate</text>
</g>
</g>
</svg>
