<?xml version="1.0" encoding="UTF-8" standalone="no"?>
<!DOCTYPE svg PUBLIC "-//W3C//DTD SVG 1.1//EN"
 "http://www.w3.org/Graphics/SVG/1.1/DTD/svg11.dtd">
<!-- Generated by graphviz version 2.38.0 (20140413.2041)
 -->
<!-- Title: src/example.h Pages: 1 -->
<svg width="211pt" height="140pt"
 viewBox="0.00 0.00 210.50 140.00" xmlns="http://www.w3.org/2000/svg" xmlns:xlink="http://www.w3.org/1999/xlink">
<g id="graph0" class="graph" transform="scale(1 1) rotate(0) translate(4 136)">
<title>src/example.h</title>
<polygon fill="white" stroke="none" points="-4,4 -4,-136 206.5,-136 206.5,4 -4,4"/>
<!-- Node0 -->
<g id="node1" class="node"><title>Node0</title>
<polygon fill="#bfbfbf" stroke="black" points="28.5,-112.5 28.5,-131.5 106.5,-131.5 106.5,-112.5 28.5,-112.5"/>
<text text-anchor="middle" x="67.5" y="-119.5" font-family="Helvetica,sans-Serif" font-size="10.00">src/example.h</text>
</g>
<!-- Node1 -->
<g id="node2" class="node"><title>Node1</title>
<polygon fill="white" stroke="#bfbfbf" points="0,-56.5 0,-75.5 59,-75.5 59,-56.5 0,-56.5"/>
<text text-anchor="middle" x="29.5" y="-63.5" font-family="Helvetica,sans-Serif" font-size="10.00">qcstring.h</text>
</g>
<!-- Node0&#45;&gt;Node1 -->
<g id="edge1" class="edge"><title>Node0&#45;&gt;Node1</title>
<path fill="none" stroke="midnightblue" d="M61.2251,-112.083C55.8575,-104.455 47.9824,-93.2645 41.4213,-83.9408"/>
<polygon fill="midnightblue" stroke="midnightblue" points="44.2755,-81.9149 35.6582,-75.7511 38.5508,-85.9434 44.2755,-81.9149"/>
</g>
<!-- Node2 -->
<g id="node3" class="node"><title>Node2</title>
<g id="a_node3"><a xlink:href="../../d9/d21/sortdict_8h.html" target="_top" xlink:title="sortdict.h">
<polygon fill="white" stroke="black" points="77,-56.5 77,-75.5 134,-75.5 134,-56.5 77,-56.5"/>
<text text-anchor="middle" x="105.5" y="-63.5" font-family="Helvetica,sans-Serif" font-size="10.00">sortdict.h</text>
</a>
</g>
</g>
<!-- Node0&#45;&gt;Node2 -->
<g id="edge2" class="edge"><title>Node0&#45;&gt;Node2</title>
<path fill="none" stroke="midnightblue" d="M73.7749,-112.083C79.1425,-104.455 87.0176,-93.2645 93.5787,-83.9408"/>
<polygon fill="midnightblue" stroke="midnightblue" points="96.4492,-85.9434 99.3418,-75.7511 90.7245,-81.9149 96.4492,-85.9434"/>
</g>
<!-- Node3 -->
<g id="node4" class="node"><title>Node3</title>
<polygon fill="white" stroke="#bfbfbf" points="21,-0.5 21,-19.5 64,-19.5 64,-0.5 21,-0.5"/>
<text text-anchor="middle" x="42.5" y="-7.5" font-family="Helvetica,sans-Serif" font-size="10.00">qlist.h</text>
</g>
<!-- Node2&#45;&gt;Node3 -->
<g id="edge3" class="edge"><title>Node2&#45;&gt;Node3</title>
<path fill="none" stroke="midnightblue" d="M95.378,-56.324C85.9736,-48.2631 71.7559,-36.0765 60.431,-26.3695"/>
<polygon fill="midnightblue" stroke="midnightblue" points="62.6766,-23.6844 52.8062,-19.8339 58.121,-28.9993 62.6766,-23.6844"/>
</g>
<!-- Node4 -->
<g id="node5" class="node"><title>Node4</title>
<polygon fill="white" stroke="#bfbfbf" points="82.5,-0.5 82.5,-19.5 128.5,-19.5 128.5,-0.5 82.5,-0.5"/>
<text text-anchor="middle" x="105.5" y="-7.5" font-family="Helvetica,sans-Serif" font-size="10.00">qdict.h</text>
</g>
<!-- Node2&#45;&gt;Node4 -->
<g id="edge4" class="edge"><title>Node2&#45;&gt;Node4</title>
<path fill="none" stroke="midnightblue" d="M105.5,-56.083C105.5,-49.0059 105.5,-38.8611 105.5,-29.9865"/>
<polygon fill="midnightblue" stroke="midnightblue" points="109,-29.751 105.5,-19.7511 102,-29.7511 109,-29.751"/>
</g>
<!-- Node5 -->
<g id="node6" class="node"><title>Node5</title>
<polygon fill="white" stroke="#bfbfbf" points="146.5,-0.5 146.5,-19.5 202.5,-19.5 202.5,-0.5 146.5,-0.5"/>
<text text-anchor="middle" x="174.5" y="-7.5" font-family="Helvetica,sans-Serif" font-size="10.00">qintdict.h</text>
</g>
<!-- Node2&#45;&gt;Node5 -->
<g id="edge5" class="edge"><title>Node2&#45;&gt;Node5</title>
<path fill="none" stroke="midnightblue" d="M116.586,-56.324C126.986,-48.1849 142.761,-35.8395 155.222,-26.0874"/>
<polygon fill="midnightblue" stroke="midnightblue" points="157.494,-28.7533 163.212,-19.8339 153.18,-23.2407 157.494,-28.7533"/>
</g>
</g>
</svg>
