<?xml version="1.0" encoding="UTF-8" standalone="no"?>
<!DOCTYPE svg PUBLIC "-//W3C//DTD SVG 1.1//EN"
 "http://www.w3.org/Graphics/SVG/1.1/DTD/svg11.dtd">
<!-- Generated by graphviz version 2.38.0 (20140413.2041)
 -->
<!-- Title: Definition::Cookie Pages: 1 -->
<!--zoomable 650 -->
<svg id="main" version="1.1" xmlns="http://www.w3.org/2000/svg" xmlns:xlink="http://www.w3.org/1999/xlink" xml:space="preserve" onload="init(evt)">
<style type="text/css"><![CDATA[
.edge:hover path { stroke: red; }
.edge:hover polygon { stroke: red; fill: red; }
]]></style>
<script type="text/javascript"><![CDATA[
var edges = document.getElementsByTagName('g');
if (edges && edges.length) {
  for (var i=0;i<edges.length;i++) {
    if (edges[i].id.substr(0,4)=='edge') {
      edges[i].setAttribute('class','edge');
    }
  }
}
]]></script>
        <defs>
                <circle id="rim" cx="0" cy="0" r="7"/>
                <circle id="rim2" cx="0" cy="0" r="3.5"/>
                <g id="zoomPlus">
                        <use xlink:href="#rim" fill="#404040">
                                <set attributeName="fill" to="#808080" begin="zoomplus.mouseover" end="zoomplus.mouseout"/>
                        </use>
                        <path d="M-4,0h8M0,-4v8" fill="none" stroke="white" stroke-width="1.5" pointer-events="none"/>
                </g>
                <g id="zoomMin">
                        <use xlink:href="#rim" fill="#404040">
                                <set attributeName="fill" to="#808080" begin="zoomminus.mouseover" end="zoomminus.mouseout"/>
                        </use>
                        <path d="M-4,0h8" fill="none" stroke="white" stroke-width="1.5" pointer-events="none"/>
                </g>
                <g id="dirArrow">
                        <path fill="none" stroke="white" stroke-width="1.5" d="M0,-3.0v7 M-2.5,-0.5L0,-3.0L2.5,-0.5"/>
                </g>
               <g id="resetDef">
                       <use xlink:href="#rim2" fill="#404040">
                               <set attributeName="fill" to="#808080" begin="reset.mouseover" end="reset.mouseout"/>
                       </use>
               </g>
        </defs>

<script type="text/javascript">
var viewWidth = 580;
var viewHeight = 650;
var sectionId = 'dynsection-0';
</script>
<script xlink:href="../../svgpan.js"/>
<svg id="graph" class="graph">
<g id="viewport">
<title>Definition::Cookie</title>
<polygon fill="white" stroke="none" points="-4,4 -4,-646 576,-646 576,4 -4,4"/>
<!-- Node0 -->
<g id="node1" class="node"><title>Node0</title>
<polygon fill="#bfbfbf" stroke="black" points="0,-311.5 0,-330.5 95,-330.5 95,-311.5 0,-311.5"/>
<text text-anchor="middle" x="47.5" y="-318.5" font-family="Helvetica,sans-Serif" font-size="10.00">Definition::Cookie</text>
</g>
<!-- Node1 -->
<g id="node2" class="node"><title>Node1</title>
<g id="a_node2"><a xlink:href="../../d9/d7b/struct_definition_context_1_1_cachable.html" target="_top" xlink:title="DefinitionContext\&lt;\l T \&gt;::Cachable">
<polygon fill="white" stroke="black" points="132,-306 132,-336 230,-336 230,-306 132,-306"/>
<text text-anchor="start" x="140" y="-324" font-family="Helvetica,sans-Serif" font-size="10.00">DefinitionContext&lt;</text>
<text text-anchor="middle" x="181" y="-313" font-family="Helvetica,sans-Serif" font-size="10.00"> T &gt;::Cachable</text>
</a>
</g>
</g>
<!-- Node0&#45;&gt;Node1 -->
<g id="edge1" class="edge"><title>Node0&#45;&gt;Node1</title>
<path fill="none" stroke="midnightblue" d="M105.373,-321C114.127,-321 123.095,-321 131.641,-321"/>
<polygon fill="midnightblue" stroke="midnightblue" points="105.232,-317.5 95.2322,-321 105.232,-324.5 105.232,-317.5"/>
</g>
<!-- Node2 -->
<g id="node3" class="node"><title>Node2</title>
<g id="a_node3"><a xlink:href="../../d5/dc4/struct_class_context_1_1_private_1_1_cachable.html" target="_top" xlink:title="ClassContext::Private\l::Cachable\&lt; ClassContext\l::Private \&gt;">
<polygon fill="white" stroke="black" points="416.5,-600.5 416.5,-641.5 549.5,-641.5 549.5,-600.5 416.5,-600.5"/>
<text text-anchor="start" x="424.5" y="-629.5" font-family="Helvetica,sans-Serif" font-size="10.00">ClassContext::Private</text>
<text text-anchor="start" x="424.5" y="-618.5" font-family="Helvetica,sans-Serif" font-size="10.00">::Cachable&lt; ClassContext</text>
<text text-anchor="middle" x="483" y="-607.5" font-family="Helvetica,sans-Serif" font-size="10.00">::Private &gt;</text>
</a>
</g>
</g>
<!-- Node1&#45;&gt;Node2 -->
<g id="edge2" class="edge"><title>Node1&#45;&gt;Node2</title>
<path fill="none" stroke="midnightblue" d="M185.915,-346.044C192.805,-383.185 210.123,-453.48 248,-500 291.098,-552.933 363.479,-585.273 416.35,-603.04"/>
<polygon fill="midnightblue" stroke="midnightblue" points="189.341,-345.316 184.17,-336.069 182.446,-346.522 189.341,-345.316"/>
</g>
<!-- Node3 -->
<g id="node4" class="node"><title>Node3</title>
<g id="a_node4"><a xlink:href="../../d3/d0e/struct_dir_context_1_1_private_1_1_cachable.html" target="_top" xlink:title="DirContext::Private\l::Cachable\&lt; DirContext\l::Private \&gt;">
<polygon fill="white" stroke="black" points="423,-540.5 423,-581.5 543,-581.5 543,-540.5 423,-540.5"/>
<text text-anchor="start" x="431" y="-569.5" font-family="Helvetica,sans-Serif" font-size="10.00">DirContext::Private</text>
<text text-anchor="start" x="431" y="-558.5" font-family="Helvetica,sans-Serif" font-size="10.00">::Cachable&lt; DirContext</text>
<text text-anchor="middle" x="483" y="-547.5" font-family="Helvetica,sans-Serif" font-size="10.00">::Private &gt;</text>
</a>
</g>
</g>
<!-- Node1&#45;&gt;Node3 -->
<g id="edge3" class="edge"><title>Node1&#45;&gt;Node3</title>
<path fill="none" stroke="midnightblue" d="M190.237,-345.902C200.318,-373.338 219.625,-417.479 248,-447 296.147,-497.092 370.866,-528.135 422.872,-544.942"/>
<polygon fill="midnightblue" stroke="midnightblue" points="193.463,-344.528 186.825,-336.27 186.865,-346.865 193.463,-344.528"/>
</g>
<!-- Node4 -->
<g id="node5" class="node"><title>Node4</title>
<g id="a_node5"><a xlink:href="../../d1/d8e/struct_file_context_1_1_private_1_1_cachable.html" target="_top" xlink:title="FileContext::Private\l::Cachable\&lt; FileContext\l::Private \&gt;">
<polygon fill="white" stroke="black" points="421.5,-480.5 421.5,-521.5 544.5,-521.5 544.5,-480.5 421.5,-480.5"/>
<text text-anchor="start" x="429.5" y="-509.5" font-family="Helvetica,sans-Serif" font-size="10.00">FileContext::Private</text>
<text text-anchor="start" x="429.5" y="-498.5" font-family="Helvetica,sans-Serif" font-size="10.00">::Cachable&lt; FileContext</text>
<text text-anchor="middle" x="483" y="-487.5" font-family="Helvetica,sans-Serif" font-size="10.00">::Private &gt;</text>
</a>
</g>
</g>
<!-- Node1&#45;&gt;Node4 -->
<g id="edge4" class="edge"><title>Node1&#45;&gt;Node4</title>
<path fill="none" stroke="midnightblue" d="M197.746,-344.325C209.963,-361.121 228.123,-383.466 248,-399 300.204,-439.796 371.238,-467.729 421.306,-483.91"/>
<polygon fill="midnightblue" stroke="midnightblue" points="200.561,-342.245 191.921,-336.113 194.852,-346.295 200.561,-342.245"/>
</g>
<!-- Node5 -->
<g id="node6" class="node"><title>Node5</title>
<g id="a_node6"><a xlink:href="../../d7/d88/struct_member_context_1_1_private_1_1_cachable.html" target="_top" xlink:title="MemberContext::Private\l::Cachable\&lt; MemberContext\l::Private \&gt;">
<polygon fill="white" stroke="black" points="411.5,-420.5 411.5,-461.5 554.5,-461.5 554.5,-420.5 411.5,-420.5"/>
<text text-anchor="start" x="419.5" y="-449.5" font-family="Helvetica,sans-Serif" font-size="10.00">MemberContext::Private</text>
<text text-anchor="start" x="419.5" y="-438.5" font-family="Helvetica,sans-Serif" font-size="10.00">::Cachable&lt; MemberContext</text>
<text text-anchor="middle" x="483" y="-427.5" font-family="Helvetica,sans-Serif" font-size="10.00">::Private &gt;</text>
</a>
</g>
</g>
<!-- Node1&#45;&gt;Node5 -->
<g id="edge5" class="edge"><title>Node1&#45;&gt;Node5</title>
<path fill="none" stroke="midnightblue" d="M212.911,-341.617C223.733,-348.323 236.147,-355.458 248,-361 301.087,-385.824 364.089,-406.92 411.34,-421.206"/>
<polygon fill="midnightblue" stroke="midnightblue" points="214.563,-338.521 204.242,-336.13 210.819,-344.436 214.563,-338.521"/>
</g>
<!-- Node6 -->
<g id="node7" class="node"><title>Node6</title>
<g id="a_node7"><a xlink:href="../../d4/deb/struct_module_context_1_1_private_1_1_cachable.html" target="_top" xlink:title="ModuleContext::Private\l::Cachable\&lt; ModuleContext\l::Private \&gt;">
<polygon fill="white" stroke="black" points="413.5,-360.5 413.5,-401.5 552.5,-401.5 552.5,-360.5 413.5,-360.5"/>
<text text-anchor="start" x="421.5" y="-389.5" font-family="Helvetica,sans-Serif" font-size="10.00">ModuleContext::Private</text>
<text text-anchor="start" x="421.5" y="-378.5" font-family="Helvetica,sans-Serif" font-size="10.00">::Cachable&lt; ModuleContext</text>
<text text-anchor="middle" x="483" y="-367.5" font-family="Helvetica,sans-Serif" font-size="10.00">::Private &gt;</text>
</a>
</g>
</g>
<!-- Node1&#45;&gt;Node6 -->
<g id="edge6" class="edge"><title>Node1&#45;&gt;Node6</title>
<path fill="none" stroke="midnightblue" d="M240.338,-333.424C242.926,-333.959 245.49,-334.487 248,-335 303.573,-346.356 366.681,-358.731 413.344,-367.783"/>
<polygon fill="midnightblue" stroke="midnightblue" points="240.788,-329.942 230.284,-331.329 239.36,-336.795 240.788,-329.942"/>
</g>
<!-- Node7 -->
<g id="node8" class="node"><title>Node7</title>
<g id="a_node8"><a xlink:href="../../d1/d10/struct_namespace_context_1_1_private_1_1_cachable.html" target="_top" xlink:title="NamespaceContext::Private\l::Cachable\&lt; NamespaceContext\l::Private \&gt;">
<polygon fill="white" stroke="black" points="403,-300.5 403,-341.5 563,-341.5 563,-300.5 403,-300.5"/>
<text text-anchor="start" x="411" y="-329.5" font-family="Helvetica,sans-Serif" font-size="10.00">NamespaceContext::Private</text>
<text text-anchor="start" x="411" y="-318.5" font-family="Helvetica,sans-Serif" font-size="10.00">::Cachable&lt; NamespaceContext</text>
<text text-anchor="middle" x="483" y="-307.5" font-family="Helvetica,sans-Serif" font-size="10.00">::Private &gt;</text>
</a>
</g>
</g>
<!-- Node1&#45;&gt;Node7 -->
<g id="edge7" class="edge"><title>Node1&#45;&gt;Node7</title>
<path fill="none" stroke="midnightblue" d="M240.371,-321C286.688,-321 351.9,-321 402.906,-321"/>
<polygon fill="midnightblue" stroke="midnightblue" points="240.2,-317.5 230.2,-321 240.2,-324.5 240.2,-317.5"/>
</g>
<!-- Node8 -->
<g id="node9" class="node"><title>Node8</title>
<g id="a_node9"><a xlink:href="../../db/de3/struct_page_context_1_1_private_1_1_cachable.html" target="_top" xlink:title="PageContext::Private\l::Cachable\&lt; PageContext\l::Private \&gt;">
<polygon fill="white" stroke="black" points="418,-240.5 418,-281.5 548,-281.5 548,-240.5 418,-240.5"/>
<text text-anchor="start" x="426" y="-269.5" font-family="Helvetica,sans-Serif" font-size="10.00">PageContext::Private</text>
<text text-anchor="start" x="426" y="-258.5" font-family="Helvetica,sans-Serif" font-size="10.00">::Cachable&lt; PageContext</text>
<text text-anchor="middle" x="483" y="-247.5" font-family="Helvetica,sans-Serif" font-size="10.00">::Private &gt;</text>
</a>
</g>
</g>
<!-- Node1&#45;&gt;Node8 -->
<g id="edge8" class="edge"><title>Node1&#45;&gt;Node8</title>
<path fill="none" stroke="midnightblue" d="M240.084,-309.383C291.109,-299.178 365.226,-284.355 417.954,-273.809"/>
<polygon fill="midnightblue" stroke="midnightblue" points="239.32,-305.967 230.2,-311.36 240.692,-312.831 239.32,-305.967"/>
</g>
<!-- Node9 -->
<g id="node10" class="node"><title>Node9</title>
<g id="a_node10"><a xlink:href="../../d9/d7b/struct_definition_context_1_1_cachable.html" target="_top" xlink:title="DefinitionContext\&lt;\l T \&gt;::Cachable\&lt; PageContext\l::Private \&gt;">
<polygon fill="white" stroke="black" points="409,-180.5 409,-221.5 557,-221.5 557,-180.5 409,-180.5"/>
<text text-anchor="start" x="417" y="-209.5" font-family="Helvetica,sans-Serif" font-size="10.00">DefinitionContext&lt;</text>
<text text-anchor="start" x="417" y="-198.5" font-family="Helvetica,sans-Serif" font-size="10.00"> T &gt;::Cachable&lt; PageContext</text>
<text text-anchor="middle" x="483" y="-187.5" font-family="Helvetica,sans-Serif" font-size="10.00">::Private &gt;</text>
</a>
</g>
</g>
<!-- Node1&#45;&gt;Node9 -->
<g id="edge9" class="edge"><title>Node1&#45;&gt;Node9</title>
<path fill="none" stroke="orange" stroke-dasharray="5,2" d="M205.325,-298.986C217.313,-288.66 232.612,-276.915 248,-269 298.882,-242.829 361.315,-225.331 408.891,-214.647"/>
<polygon fill="orange" stroke="orange" points="202.753,-296.59 197.595,-305.844 207.398,-301.826 202.753,-296.59"/>
<text text-anchor="middle" x="312" y="-272" font-family="Helvetica,sans-Serif" font-size="10.00"> &lt; PageContext::Private &gt;</text>
</g>
<!-- Node10 -->
<g id="node11" class="node"><title>Node10</title>
<g id="a_node11"><a xlink:href="../../d9/d7b/struct_definition_context_1_1_cachable.html" target="_top" xlink:title="DefinitionContext\&lt;\l T \&gt;::Cachable\&lt; MemberContext\l::Private \&gt;">
<polygon fill="white" stroke="black" points="402.5,-120.5 402.5,-161.5 563.5,-161.5 563.5,-120.5 402.5,-120.5"/>
<text text-anchor="start" x="410.5" y="-149.5" font-family="Helvetica,sans-Serif" font-size="10.00">DefinitionContext&lt;</text>
<text text-anchor="start" x="410.5" y="-138.5" font-family="Helvetica,sans-Serif" font-size="10.00"> T &gt;::Cachable&lt; MemberContext</text>
<text text-anchor="middle" x="483" y="-127.5" font-family="Helvetica,sans-Serif" font-size="10.00">::Private &gt;</text>
</a>
</g>
</g>
<!-- Node1&#45;&gt;Node10 -->
<g id="edge10" class="edge"><title>Node1&#45;&gt;Node10</title>
<path fill="none" stroke="orange" stroke-dasharray="5,2" d="M190.374,-296.144C200.229,-270.612 219.022,-231.516 248,-209 292.348,-174.543 353.624,-157.536 402.348,-149.148"/>
<polygon fill="orange" stroke="orange" points="186.973,-295.252 186.806,-305.845 193.542,-297.668 186.973,-295.252"/>
<text text-anchor="middle" x="312" y="-212" font-family="Helvetica,sans-Serif" font-size="10.00"> &lt; MemberContext::Private &gt;</text>
</g>
<!-- Node11 -->
<g id="node12" class="node"><title>Node11</title>
<g id="a_node12"><a xlink:href="../../d9/d7b/struct_definition_context_1_1_cachable.html" target="_top" xlink:title="DefinitionContext\&lt;\l T \&gt;::Cachable\&lt; ClassContext\l::Private \&gt;">
<polygon fill="white" stroke="black" points="407.5,-60.5 407.5,-101.5 558.5,-101.5 558.5,-60.5 407.5,-60.5"/>
<text text-anchor="start" x="415.5" y="-89.5" font-family="Helvetica,sans-Serif" font-size="10.00">DefinitionContext&lt;</text>
<text text-anchor="start" x="415.5" y="-78.5" font-family="Helvetica,sans-Serif" font-size="10.00"> T &gt;::Cachable&lt; ClassContext</text>
<text text-anchor="middle" x="483" y="-67.5" font-family="Helvetica,sans-Serif" font-size="10.00">::Private &gt;</text>
</a>
</g>
</g>
<!-- Node1&#45;&gt;Node11 -->
<g id="edge11" class="edge"><title>Node1&#45;&gt;Node11</title>
<path fill="none" stroke="orange" stroke-dasharray="5,2" d="M183.902,-295.71C188.244,-256.471 202.374,-181.166 248,-140 291.316,-100.918 356.744,-86.8962 407.412,-82.2353"/>
<polygon fill="orange" stroke="orange" points="180.408,-295.469 182.918,-305.763 187.375,-296.151 180.408,-295.469"/>
<text text-anchor="middle" x="312" y="-143" font-family="Helvetica,sans-Serif" font-size="10.00"> &lt; ClassContext::Private &gt;</text>
</g>
<!-- Node12 -->
<g id="node13" class="node"><title>Node12</title>
<g id="a_node13"><a xlink:href="../../d9/d7b/struct_definition_context_1_1_cachable.html" target="_top" xlink:title="DefinitionContext\&lt;\l T \&gt;::Cachable\&lt; NamespaceContext\l::Private \&gt;">
<polygon fill="white" stroke="black" points="394,-0.5 394,-41.5 572,-41.5 572,-0.5 394,-0.5"/>
<text text-anchor="start" x="402" y="-29.5" font-family="Helvetica,sans-Serif" font-size="10.00">DefinitionContext&lt;</text>
<text text-anchor="start" x="402" y="-18.5" font-family="Helvetica,sans-Serif" font-size="10.00"> T &gt;::Cachable&lt; NamespaceContext</text>
<text text-anchor="middle" x="483" y="-7.5" font-family="Helvetica,sans-Serif" font-size="10.00">::Private &gt;</text>
</a>
</g>
</g>
<!-- Node1&#45;&gt;Node12 -->
<g id="edge12" class="edge"><title>Node1&#45;&gt;Node12</title>
<path fill="none" stroke="orange" stroke-dasharray="5,2" d="M184.984,-295.526C192.409,-236.673 213.627,-93.8527 248,-62 286.646,-26.1867 344.994,-15.9068 393.755,-14.5951"/>
<polygon fill="orange" stroke="orange" points="181.467,-295.455 183.721,-305.807 188.415,-296.309 181.467,-295.455"/>
<text text-anchor="start" x="262" y="-76" font-family="Helvetica,sans-Serif" font-size="10.00"> &lt; NamespaceContext</text>
<text text-anchor="middle" x="312" y="-65" font-family="Helvetica,sans-Serif" font-size="10.00">::Private &gt;</text>
</g>
</g>
</svg>
        <g id="navigator" transform="translate(0 0)" fill="#404254">
                <rect fill="#f2f5e9" fill-opacity="0.5" stroke="#606060" stroke-width=".5" x="0" y="0" width="60" height="60"/>
                <use id="zoomplus" xlink:href="#zoomPlus" x="17" y="9" onmousedown="handleZoom(evt,'in')"/>
                <use id="zoomminus" xlink:href="#zoomMin" x="42" y="9" onmousedown="handleZoom(evt,'out')"/>
                <use id="reset" xlink:href="#resetDef" x="30" y="36" onmousedown="handleReset()"/>
                <g id="arrowUp" xlink:href="#dirArrow" transform="translate(30 24)" onmousedown="handlePan(0,-1)">
                  <use xlink:href="#rim" fill="#404040">
                        <set attributeName="fill" to="#808080" begin="arrowUp.mouseover" end="arrowUp.mouseout"/>
                  </use>
                  <path fill="none" stroke="white" stroke-width="1.5" d="M0,-3.0v7 M-2.5,-0.5L0,-3.0L2.5,-0.5"/>
                </g>
                <g id="arrowRight" xlink:href="#dirArrow" transform="rotate(90) translate(36 -43)" onmousedown="handlePan(1,0)">
                  <use xlink:href="#rim" fill="#404040">
                        <set attributeName="fill" to="#808080" begin="arrowRight.mouseover" end="arrowRight.mouseout"/>
                  </use>
                  <path fill="none" stroke="white" stroke-width="1.5" d="M0,-3.0v7 M-2.5,-0.5L0,-3.0L2.5,-0.5"/>
                </g>
                <g id="arrowDown" xlink:href="#dirArrow" transform="rotate(180) translate(-30 -48)" onmousedown="handlePan(0,1)">
                  <use xlink:href="#rim" fill="#404040">
                        <set attributeName="fill" to="#808080" begin="arrowDown.mouseover" end="arrowDown.mouseout"/>
                  </use>
                  <path fill="none" stroke="white" stroke-width="1.5" d="M0,-3.0v7 M-2.5,-0.5L0,-3.0L2.5,-0.5"/>
                </g>
                <g id="arrowLeft" xlink:href="#dirArrow" transform="rotate(270) translate(-36 17)" onmousedown="handlePan(-1,0)">
                  <use xlink:href="#rim" fill="#404040">
                        <set attributeName="fill" to="#808080" begin="arrowLeft.mouseover" end="arrowLeft.mouseout"/>
                  </use>
                  <path fill="none" stroke="white" stroke-width="1.5" d="M0,-3.0v7 M-2.5,-0.5L0,-3.0L2.5,-0.5"/>
                </g>
        </g>
        <svg viewBox="0 0 15 15" width="100%" height="30px" preserveAspectRatio="xMaxYMin meet">
         <g id="arrow_out" transform="scale(0.3 0.3)">
          <a xlink:href="struct_definition_1_1_cookie__inherit__graph_org.svg" target="_base">
           <rect id="button" ry="5" rx="5" y="6" x="6" height="38" width="38"
                fill="#f2f5e9" fill-opacity="0.5" stroke="#606060" stroke-width="1.0"/>
           <path id="arrow"
             d="M 11.500037,31.436501 C 11.940474,20.09759 22.043105,11.32322 32.158766,21.979434 L 37.068811,17.246167 C 37.068811,17.246167 37.088388,32 37.088388,32 L 22.160133,31.978069 C 22.160133,31.978069 26.997745,27.140456 26.997745,27.140456 C 18.528582,18.264221 13.291696,25.230495 11.500037,31.436501 z"
             style="fill:#404040;"/>
          </a>
         </g>
        </svg>
</svg>
