<?xml version="1.0" encoding="UTF-8" standalone="no"?>
<!DOCTYPE svg PUBLIC "-//W3C//DTD SVG 1.1//EN"
 "http://www.w3.org/Graphics/SVG/1.1/DTD/svg11.dtd">
<!-- Generated by graphviz version 2.38.0 (20140413.2041)
 -->
<!-- Title: UsedIndexLetters Pages: 1 -->
<svg width="341pt" height="162pt"
 viewBox="0.00 0.00 341.00 162.00" xmlns="http://www.w3.org/2000/svg" xmlns:xlink="http://www.w3.org/1999/xlink">
<g id="graph0" class="graph" transform="scale(1 1) rotate(0) translate(4 158)">
<title>UsedIndexLetters</title>
<polygon fill="white" stroke="none" points="-4,4 -4,-158 337,-158 337,4 -4,4"/>
<!-- Node3 -->
<g id="node1" class="node"><title>Node3</title>
<polygon fill="#bfbfbf" stroke="black" points="239,-0.5 239,-19.5 333,-19.5 333,-0.5 239,-0.5"/>
<text text-anchor="middle" x="286" y="-7.5" font-family="Helvetica,sans-Serif" font-size="10.00">UsedIndexLetters</text>
</g>
<!-- Node4 -->
<g id="node2" class="node"><title>Node4</title>
<g id="a_node2"><a xlink:href="../../d0/d9f/class_s_int_dict.html" target="_top" xlink:title="SIntDict\&lt; uint \&gt;">
<polygon fill="white" stroke="black" points="198,-67.5 198,-86.5 284,-86.5 284,-67.5 198,-67.5"/>
<text text-anchor="middle" x="241" y="-74.5" font-family="Helvetica,sans-Serif" font-size="10.00">SIntDict&lt; uint &gt;</text>
</a>
</g>
</g>
<!-- Node4&#45;&gt;Node3 -->
<g id="edge1" class="edge"><title>Node4&#45;&gt;Node3</title>
<path fill="none" stroke="midnightblue" d="M261.432,-60.8271C265.31,-57.2657 269.065,-53.2563 272,-49 278.226,-39.9703 282.063,-27.8347 284.11,-19.7316"/>
<polygon fill="midnightblue" stroke="midnightblue" points="258.949,-58.3415 253.527,-67.4437 263.441,-63.7094 258.949,-58.3415"/>
</g>
<!-- Node5 -->
<g id="node3" class="node"><title>Node5</title>
<g id="a_node3"><a xlink:href="../../d8/d9a/class_s_int_list.html" target="_top" xlink:title="SIntList\&lt; uint \&gt;">
<polygon fill="white" stroke="black" points="103,-0.5 103,-19.5 187,-19.5 187,-0.5 103,-0.5"/>
<text text-anchor="middle" x="145" y="-7.5" font-family="Helvetica,sans-Serif" font-size="10.00">SIntList&lt; uint &gt;</text>
</a>
</g>
</g>
<!-- Node4&#45;&gt;Node5 -->
<g id="edge4" class="edge"><title>Node4&#45;&gt;Node5</title>
<path fill="none" stroke="#9a32cd" stroke-dasharray="5,2" d="M198.49,-63.8284C189.205,-59.9919 179.826,-55.1113 172,-49 161.795,-41.0301 153.799,-28.1788 149.238,-19.6611"/>
<polygon fill="#9a32cd" stroke="#9a32cd" points="197.471,-67.1851 208.062,-67.4563 199.951,-60.6394 197.471,-67.1851"/>
<text text-anchor="middle" x="193.5" y="-41" font-family="Helvetica,sans-Serif" font-size="10.00"> m_owner</text>
</g>
<!-- Node5&#45;&gt;Node4 -->
<g id="edge2" class="edge"><title>Node5&#45;&gt;Node4</title>
<path fill="none" stroke="#9a32cd" stroke-dasharray="5,2" d="M193.33,-23.106C202.492,-26.8706 211.534,-31.7383 219,-38 228.345,-45.8381 234.602,-58.7224 237.981,-67.2833"/>
<polygon fill="#9a32cd" stroke="#9a32cd" points="194.391,-19.7669 183.798,-19.5701 191.956,-26.3298 194.391,-19.7669"/>
<text text-anchor="middle" x="244" y="-41" font-family="Helvetica,sans-Serif" font-size="10.00"> m_list</text>
</g>
<!-- Node6 -->
<g id="node4" class="node"><title>Node6</title>
<polygon fill="white" stroke="#bfbfbf" points="0,-67.5 0,-86.5 74,-86.5 74,-67.5 0,-67.5"/>
<text text-anchor="middle" x="37" y="-74.5" font-family="Helvetica,sans-Serif" font-size="10.00">QList&lt; uint &gt;</text>
</g>
<!-- Node6&#45;&gt;Node5 -->
<g id="edge3" class="edge"><title>Node6&#45;&gt;Node5</title>
<path fill="none" stroke="midnightblue" d="M60.3575,-61.9422C81.7458,-49.0696 112.721,-30.4274 130.665,-19.6273"/>
<polygon fill="midnightblue" stroke="midnightblue" points="58.3285,-59.0784 51.5654,-67.2338 61.9381,-65.0759 58.3285,-59.0784"/>
</g>
<!-- Node7 -->
<g id="node5" class="node"><title>Node7</title>
<g id="a_node5"><a xlink:href="../../d8/d9a/class_s_int_list.html" target="_top" xlink:title="internal wrapper class that redirects compareValues() to the dictionary ">
<polygon fill="white" stroke="black" points="92,-67.5 92,-86.5 166,-86.5 166,-67.5 92,-67.5"/>
<text text-anchor="middle" x="129" y="-74.5" font-family="Helvetica,sans-Serif" font-size="10.00">SIntList&lt; T &gt;</text>
</a>
</g>
</g>
<!-- Node7&#45;&gt;Node5 -->
<g id="edge5" class="edge"><title>Node7&#45;&gt;Node5</title>
<path fill="none" stroke="orange" stroke-dasharray="5,2" d="M117.388,-58.1908C114.622,-51.7431 113.188,-44.4611 116,-38 119.24,-30.5573 125.654,-24.2393 131.628,-19.5905"/>
<polygon fill="orange" stroke="orange" points="114.55,-60.2968 122.412,-67.3984 120.695,-56.9438 114.55,-60.2968"/>
<text text-anchor="middle" x="134.5" y="-41" font-family="Helvetica,sans-Serif" font-size="10.00"> &lt; uint &gt;</text>
</g>
<!-- Node8 -->
<g id="node6" class="node"><title>Node8</title>
<polygon fill="white" stroke="#bfbfbf" points="97,-134.5 97,-153.5 161,-153.5 161,-134.5 97,-134.5"/>
<text text-anchor="middle" x="129" y="-141.5" font-family="Helvetica,sans-Serif" font-size="10.00">QList&lt; T &gt;</text>
</g>
<!-- Node8&#45;&gt;Node7 -->
<g id="edge6" class="edge"><title>Node8&#45;&gt;Node7</title>
<path fill="none" stroke="midnightblue" d="M129,-124.037C129,-111.67 129,-96.1198 129,-86.6273"/>
<polygon fill="midnightblue" stroke="midnightblue" points="125.5,-124.234 129,-134.234 132.5,-124.234 125.5,-124.234"/>
</g>
<!-- Node9 -->
<g id="node7" class="node"><title>Node9</title>
<g id="a_node7"><a xlink:href="../../d0/d9f/class_s_int_dict.html" target="_top" xlink:title="Ordered dictionary of elements of type T. ">
<polygon fill="white" stroke="black" points="202.5,-134.5 202.5,-153.5 279.5,-153.5 279.5,-134.5 202.5,-134.5"/>
<text text-anchor="middle" x="241" y="-141.5" font-family="Helvetica,sans-Serif" font-size="10.00">SIntDict&lt; T &gt;</text>
</a>
</g>
</g>
<!-- Node9&#45;&gt;Node4 -->
<g id="edge7" class="edge"><title>Node9&#45;&gt;Node4</title>
<path fill="none" stroke="orange" stroke-dasharray="5,2" d="M241,-124.037C241,-111.67 241,-96.1198 241,-86.6273"/>
<polygon fill="orange" stroke="orange" points="237.5,-124.234 241,-134.234 244.5,-124.234 237.5,-124.234"/>
<text text-anchor="middle" x="259.5" y="-108" font-family="Helvetica,sans-Serif" font-size="10.00"> &lt; uint &gt;</text>
</g>
</g>
</svg>
