<?xml version="1.0" encoding="UTF-8" standalone="no"?>
<!DOCTYPE svg PUBLIC "-//W3C//DTD SVG 1.1//EN"
 "http://www.w3.org/Graphics/SVG/1.1/DTD/svg11.dtd">
<!-- Generated by graphviz version 2.38.0 (20140413.2041)
 -->
<!-- Title: src/htmlentity.h Pages: 1 -->
<svg width="1473pt" height="140pt"
 viewBox="0.00 0.00 1473.00 140.00" xmlns="http://www.w3.org/2000/svg" xmlns:xlink="http://www.w3.org/1999/xlink">
<g id="graph0" class="graph" transform="scale(1 1) rotate(0) translate(4 136)">
<title>src/htmlentity.h</title>
<polygon fill="white" stroke="none" points="-4,4 -4,-136 1469,-136 1469,4 -4,4"/>
<!-- Node8 -->
<g id="node1" class="node"><title>Node8</title>
<polygon fill="#bfbfbf" stroke="black" points="682.5,-112.5 682.5,-131.5 766.5,-131.5 766.5,-112.5 682.5,-112.5"/>
<text text-anchor="middle" x="724.5" y="-119.5" font-family="Helvetica,sans-Serif" font-size="10.00">src/htmlentity.h</text>
</g>
<!-- Node9 -->
<g id="node2" class="node"><title>Node9</title>
<g id="a_node2"><a xlink:href="../../dc/d05/docbookvisitor_8cpp.html" target="_top" xlink:title="src/docbookvisitor.cpp">
<polygon fill="white" stroke="black" points="0,-56.5 0,-75.5 115,-75.5 115,-56.5 0,-56.5"/>
<text text-anchor="middle" x="57.5" y="-63.5" font-family="Helvetica,sans-Serif" font-size="10.00">src/docbookvisitor.cpp</text>
</a>
</g>
</g>
<!-- Node8&#45;&gt;Node9 -->
<g id="edge1" class="edge"><title>Node8&#45;&gt;Node9</title>
<path fill="none" stroke="midnightblue" d="M671.87,-118.138C567.232,-112.21 325.705,-97.3369 123.5,-76 120.74,-75.7087 117.917,-75.393 115.068,-75.0599"/>
<polygon fill="midnightblue" stroke="midnightblue" points="671.978,-121.65 682.159,-118.717 672.372,-114.661 671.978,-121.65"/>
</g>
<!-- Node10 -->
<g id="node3" class="node"><title>Node10</title>
<g id="a_node3"><a xlink:href="../../db/d73/printdocvisitor_8h.html" target="_top" xlink:title="src/printdocvisitor.h">
<polygon fill="white" stroke="black" points="132.5,-56.5 132.5,-75.5 234.5,-75.5 234.5,-56.5 132.5,-56.5"/>
<text text-anchor="middle" x="183.5" y="-63.5" font-family="Helvetica,sans-Serif" font-size="10.00">src/printdocvisitor.h</text>
</a>
</g>
</g>
<!-- Node8&#45;&gt;Node10 -->
<g id="edge2" class="edge"><title>Node8&#45;&gt;Node10</title>
<path fill="none" stroke="midnightblue" d="M672.19,-116.801C584.469,-109.592 402.205,-93.8981 248.5,-76 243.974,-75.4729 239.275,-74.8908 234.568,-74.2838"/>
<polygon fill="midnightblue" stroke="midnightblue" points="672.158,-120.31 682.411,-117.638 672.73,-113.333 672.158,-120.31"/>
</g>
<!-- Node11 -->
<g id="node4" class="node"><title>Node11</title>
<g id="a_node4"><a xlink:href="../../da/d17/docparser_8cpp.html" target="_top" xlink:title="src/docparser.cpp">
<polygon fill="white" stroke="black" points="175,-0.5 175,-19.5 270,-19.5 270,-0.5 175,-0.5"/>
<text text-anchor="middle" x="222.5" y="-7.5" font-family="Helvetica,sans-Serif" font-size="10.00">src/docparser.cpp</text>
</a>
</g>
</g>
<!-- Node8&#45;&gt;Node11 -->
<g id="edge4" class="edge"><title>Node8&#45;&gt;Node11</title>
<path fill="none" stroke="midnightblue" d="M672.333,-120.272C570.583,-118.114 349.707,-109.584 282.5,-76 256.673,-63.0939 236.421,-34.0887 227.484,-19.5903"/>
<polygon fill="midnightblue" stroke="midnightblue" points="672.316,-123.773 682.384,-120.473 672.456,-116.774 672.316,-123.773"/>
</g>
<!-- Node12 -->
<g id="node5" class="node"><title>Node12</title>
<g id="a_node5"><a xlink:href="../../da/db0/htmldocvisitor_8cpp.html" target="_top" xlink:title="src/htmldocvisitor.cpp">
<polygon fill="white" stroke="black" points="291,-56.5 291,-75.5 404,-75.5 404,-56.5 291,-56.5"/>
<text text-anchor="middle" x="347.5" y="-63.5" font-family="Helvetica,sans-Serif" font-size="10.00">src/htmldocvisitor.cpp</text>
</a>
</g>
</g>
<!-- Node8&#45;&gt;Node12 -->
<g id="edge5" class="edge"><title>Node8&#45;&gt;Node12</title>
<path fill="none" stroke="midnightblue" d="M672.363,-113.532C601.894,-103.438 476.724,-85.5095 404.051,-75.1001"/>
<polygon fill="midnightblue" stroke="midnightblue" points="671.955,-117.009 682.351,-114.963 672.948,-110.08 671.955,-117.009"/>
</g>
<!-- Node13 -->
<g id="node6" class="node"><title>Node13</title>
<g id="a_node6"><a xlink:href="../../d2/db2/htmlentity_8cpp.html" target="_top" xlink:title="src/htmlentity.cpp">
<polygon fill="white" stroke="black" points="422,-56.5 422,-75.5 517,-75.5 517,-56.5 422,-56.5"/>
<text text-anchor="middle" x="469.5" y="-63.5" font-family="Helvetica,sans-Serif" font-size="10.00">src/htmlentity.cpp</text>
</a>
</g>
</g>
<!-- Node8&#45;&gt;Node13 -->
<g id="edge6" class="edge"><title>Node8&#45;&gt;Node13</title>
<path fill="none" stroke="midnightblue" d="M674.188,-110.346C625.997,-100.141 554.217,-84.94 509.716,-75.5164"/>
<polygon fill="midnightblue" stroke="midnightblue" points="673.586,-113.796 684.094,-112.444 675.037,-106.948 673.586,-113.796"/>
</g>
<!-- Node14 -->
<g id="node7" class="node"><title>Node14</title>
<g id="a_node7"><a xlink:href="../../d1/d4e/latexdocvisitor_8cpp.html" target="_top" xlink:title="src/latexdocvisitor.cpp">
<polygon fill="white" stroke="black" points="535,-56.5 535,-75.5 650,-75.5 650,-56.5 535,-56.5"/>
<text text-anchor="middle" x="592.5" y="-63.5" font-family="Helvetica,sans-Serif" font-size="10.00">src/latexdocvisitor.cpp</text>
</a>
</g>
</g>
<!-- Node8&#45;&gt;Node14 -->
<g id="edge7" class="edge"><title>Node8&#45;&gt;Node14</title>
<path fill="none" stroke="midnightblue" d="M694.281,-108.638C669.51,-98.504 635.1,-84.4274 613.318,-75.5164"/>
<polygon fill="midnightblue" stroke="midnightblue" points="693.003,-111.897 703.584,-112.444 695.654,-105.418 693.003,-111.897"/>
</g>
<!-- Node15 -->
<g id="node8" class="node"><title>Node15</title>
<g id="a_node8"><a xlink:href="../../d8/dde/mandocvisitor_8cpp.html" target="_top" xlink:title="src/mandocvisitor.cpp">
<polygon fill="white" stroke="black" points="668,-56.5 668,-75.5 781,-75.5 781,-56.5 668,-56.5"/>
<text text-anchor="middle" x="724.5" y="-63.5" font-family="Helvetica,sans-Serif" font-size="10.00">src/mandocvisitor.cpp</text>
</a>
</g>
</g>
<!-- Node8&#45;&gt;Node15 -->
<g id="edge8" class="edge"><title>Node8&#45;&gt;Node15</title>
<path fill="none" stroke="midnightblue" d="M724.5,-101.805C724.5,-92.9102 724.5,-82.7798 724.5,-75.7511"/>
<polygon fill="midnightblue" stroke="midnightblue" points="721,-102.083 724.5,-112.083 728,-102.083 721,-102.083"/>
</g>
<!-- Node16 -->
<g id="node9" class="node"><title>Node16</title>
<g id="a_node9"><a xlink:href="../../de/dd0/perlmodgen_8cpp.html" target="_top" xlink:title="src/perlmodgen.cpp">
<polygon fill="white" stroke="black" points="799.5,-56.5 799.5,-75.5 901.5,-75.5 901.5,-56.5 799.5,-56.5"/>
<text text-anchor="middle" x="850.5" y="-63.5" font-family="Helvetica,sans-Serif" font-size="10.00">src/perlmodgen.cpp</text>
</a>
</g>
</g>
<!-- Node8&#45;&gt;Node16 -->
<g id="edge9" class="edge"><title>Node8&#45;&gt;Node16</title>
<path fill="none" stroke="midnightblue" d="M753.66,-108.503C777.281,-98.3795 809.928,-84.388 830.628,-75.5164"/>
<polygon fill="midnightblue" stroke="midnightblue" points="752.278,-105.287 744.465,-112.444 755.035,-111.721 752.278,-105.287"/>
</g>
<!-- Node17 -->
<g id="node10" class="node"><title>Node17</title>
<g id="a_node10"><a xlink:href="../../de/d9a/rtfdocvisitor_8cpp.html" target="_top" xlink:title="src/rtfdocvisitor.cpp">
<polygon fill="white" stroke="black" points="920,-56.5 920,-75.5 1023,-75.5 1023,-56.5 920,-56.5"/>
<text text-anchor="middle" x="971.5" y="-63.5" font-family="Helvetica,sans-Serif" font-size="10.00">src/rtfdocvisitor.cpp</text>
</a>
</g>
</g>
<!-- Node8&#45;&gt;Node17 -->
<g id="edge10" class="edge"><title>Node8&#45;&gt;Node17</title>
<path fill="none" stroke="midnightblue" d="M773.527,-110.281C820.204,-100.077 889.531,-84.9203 932.545,-75.5164"/>
<polygon fill="midnightblue" stroke="midnightblue" points="772.66,-106.888 763.638,-112.444 774.155,-113.727 772.66,-106.888"/>
</g>
<!-- Node18 -->
<g id="node11" class="node"><title>Node18</title>
<g id="a_node11"><a xlink:href="../../d3/da6/textdocvisitor_8cpp.html" target="_top" xlink:title="src/textdocvisitor.cpp">
<polygon fill="white" stroke="black" points="1041.5,-56.5 1041.5,-75.5 1151.5,-75.5 1151.5,-56.5 1041.5,-56.5"/>
<text text-anchor="middle" x="1096.5" y="-63.5" font-family="Helvetica,sans-Serif" font-size="10.00">src/textdocvisitor.cpp</text>
</a>
</g>
</g>
<!-- Node8&#45;&gt;Node18 -->
<g id="edge11" class="edge"><title>Node8&#45;&gt;Node18</title>
<path fill="none" stroke="midnightblue" d="M776.717,-113.42C846.575,-103.279 969.905,-85.3768 1041.26,-75.018"/>
<polygon fill="midnightblue" stroke="midnightblue" points="776.204,-109.958 766.811,-114.858 777.21,-116.885 776.204,-109.958"/>
</g>
<!-- Node19 -->
<g id="node12" class="node"><title>Node19</title>
<g id="a_node12"><a xlink:href="../../df/d2d/util_8cpp.html" target="_top" xlink:title="src/util.cpp">
<polygon fill="white" stroke="black" points="1170,-56.5 1170,-75.5 1235,-75.5 1235,-56.5 1170,-56.5"/>
<text text-anchor="middle" x="1202.5" y="-63.5" font-family="Helvetica,sans-Serif" font-size="10.00">src/util.cpp</text>
</a>
</g>
</g>
<!-- Node8&#45;&gt;Node19 -->
<g id="edge12" class="edge"><title>Node8&#45;&gt;Node19</title>
<path fill="none" stroke="midnightblue" d="M776.863,-117.436C858.963,-111.435 1022.83,-97.7892 1160.5,-76 1163.45,-75.5337 1166.5,-74.9934 1169.55,-74.4136"/>
<polygon fill="midnightblue" stroke="midnightblue" points="776.508,-113.953 766.786,-118.164 777.012,-120.935 776.508,-113.953"/>
</g>
<!-- Node20 -->
<g id="node13" class="node"><title>Node20</title>
<g id="a_node13"><a xlink:href="../../dd/db6/xmldocvisitor_8cpp.html" target="_top" xlink:title="src/xmldocvisitor.cpp">
<polygon fill="white" stroke="black" points="1253.5,-56.5 1253.5,-75.5 1363.5,-75.5 1363.5,-56.5 1253.5,-56.5"/>
<text text-anchor="middle" x="1308.5" y="-63.5" font-family="Helvetica,sans-Serif" font-size="10.00">src/xmldocvisitor.cpp</text>
</a>
</g>
</g>
<!-- Node8&#45;&gt;Node20 -->
<g id="edge13" class="edge"><title>Node8&#45;&gt;Node20</title>
<path fill="none" stroke="midnightblue" d="M776.788,-117.403C870.623,-110.741 1073.75,-95.3798 1244.5,-76 1247.4,-75.671 1250.37,-75.316 1253.37,-74.9437"/>
<polygon fill="midnightblue" stroke="midnightblue" points="776.431,-113.919 766.703,-118.115 776.925,-120.902 776.431,-113.919"/>
</g>
<!-- Node21 -->
<g id="node14" class="node"><title>Node21</title>
<g id="a_node14"><a xlink:href="../../d0/dc3/xmlgen_8cpp.html" target="_top" xlink:title="src/xmlgen.cpp">
<polygon fill="white" stroke="black" points="1382,-56.5 1382,-75.5 1465,-75.5 1465,-56.5 1382,-56.5"/>
<text text-anchor="middle" x="1423.5" y="-63.5" font-family="Helvetica,sans-Serif" font-size="10.00">src/xmlgen.cpp</text>
</a>
</g>
</g>
<!-- Node8&#45;&gt;Node21 -->
<g id="edge14" class="edge"><title>Node8&#45;&gt;Node21</title>
<path fill="none" stroke="midnightblue" d="M776.926,-119.233C887.401,-115.098 1152.11,-103.023 1372.5,-76 1375.53,-75.628 1378.66,-75.196 1381.81,-74.7266"/>
<polygon fill="midnightblue" stroke="midnightblue" points="776.587,-115.743 766.723,-119.609 776.845,-122.738 776.587,-115.743"/>
</g>
<!-- Node10&#45;&gt;Node11 -->
<g id="edge3" class="edge"><title>Node10&#45;&gt;Node11</title>
<path fill="none" stroke="midnightblue" d="M195.882,-47.8554C202.635,-38.5048 210.709,-27.3265 216.18,-19.7511"/>
<polygon fill="midnightblue" stroke="midnightblue" points="192.958,-45.927 189.94,-56.083 198.632,-50.0254 192.958,-45.927"/>
</g>
</g>
</svg>
