<?xml version="1.0" encoding="UTF-8" standalone="no"?>
<!DOCTYPE svg PUBLIC "-//W3C//DTD SVG 1.1//EN"
 "http://www.w3.org/Graphics/SVG/1.1/DTD/svg11.dtd">
<!-- Generated by graphviz version 2.38.0 (20140413.2041)
 -->
<!-- Title: Graphical Class Hierarchy Pages: 1 -->
<svg width="244pt" height="66pt"
 viewBox="0.00 0.00 244.00 66.00" xmlns="http://www.w3.org/2000/svg" xmlns:xlink="http://www.w3.org/1999/xlink">
<g id="graph0" class="graph" transform="scale(1 1) rotate(0) translate(4 62)">
<title>Graphical Class Hierarchy</title>
<polygon fill="white" stroke="none" points="-4,4 -4,-62 240,-62 240,4 -4,4"/>
<!-- Node347 -->
<g id="node1" class="node"><title>Node347</title>
<polygon fill="white" stroke="#bfbfbf" points="0,-19.5 0,-38.5 96,-38.5 96,-19.5 0,-19.5"/>
<text text-anchor="middle" x="48" y="-26.5" font-family="Helvetica,sans-Serif" font-size="10.00">QXmlErrorHandler</text>
</g>
<!-- Node0 -->
<g id="node2" class="node"><title>Node0</title>
<g id="a_node2"><a xlink:href="df/d38/class_layout_error_handler.html" target="_top" xlink:title="LayoutErrorHandler">
<polygon fill="white" stroke="black" points="133.5,-38.5 133.5,-57.5 234.5,-57.5 234.5,-38.5 133.5,-38.5"/>
<text text-anchor="middle" x="184" y="-45.5" font-family="Helvetica,sans-Serif" font-size="10.00">LayoutErrorHandler</text>
</a>
</g>
</g>
<!-- Node347&#45;&gt;Node0 -->
<g id="edge1" class="edge"><title>Node347&#45;&gt;Node0</title>
<path fill="none" stroke="midnightblue" d="M106.307,-37.1257C115.343,-38.4069 124.62,-39.7222 133.46,-40.9757"/>
<polygon fill="midnightblue" stroke="midnightblue" points="106.636,-33.6373 96.2434,-35.6987 105.653,-40.568 106.636,-33.6373"/>
</g>
<!-- Node349 -->
<g id="node3" class="node"><title>Node349</title>
<g id="a_node3"><a xlink:href="dc/d99/class_tag_file_error_handler.html" target="_top" xlink:title="Error handler for the XML tag file parser. ">
<polygon fill="white" stroke="black" points="132,-0.5 132,-19.5 236,-19.5 236,-0.5 132,-0.5"/>
<text text-anchor="middle" x="184" y="-7.5" font-family="Helvetica,sans-Serif" font-size="10.00">TagFileErrorHandler</text>
</a>
</g>
</g>
<!-- Node347&#45;&gt;Node349 -->
<g id="edge2" class="edge"><title>Node347&#45;&gt;Node349</title>
<path fill="none" stroke="midnightblue" d="M106.351,-20.8681C114.751,-19.677 123.359,-18.4566 131.629,-17.2839"/>
<polygon fill="midnightblue" stroke="midnightblue" points="105.653,-17.432 96.2434,-22.3013 106.636,-24.3627 105.653,-17.432"/>
</g>
</g>
</svg>
