<?xml version="1.0" encoding="UTF-8" standalone="no"?>
<!DOCTYPE svg PUBLIC "-//W3C//DTD SVG 1.1//EN"
 "http://www.w3.org/Graphics/SVG/1.1/DTD/svg11.dtd">
<!-- Generated by graphviz version 2.38.0 (20140413.2041)
 -->
<!-- Title: Graphical Class Hierarchy Pages: 1 -->
<svg width="261pt" height="560pt"
 viewBox="0.00 0.00 261.00 560.00" xmlns="http://www.w3.org/2000/svg" xmlns:xlink="http://www.w3.org/1999/xlink">
<g id="graph0" class="graph" transform="scale(1 1) rotate(0) translate(4 556)">
<title>Graphical Class Hierarchy</title>
<polygon fill="white" stroke="none" points="-4,4 -4,-556 257,-556 257,4 -4,4"/>
<!-- Node355 -->
<g id="node1" class="node"><title>Node355</title>
<polygon fill="white" stroke="#bfbfbf" points="0,-266.5 0,-285.5 71,-285.5 71,-266.5 0,-266.5"/>
<text text-anchor="middle" x="35.5" y="-273.5" font-family="Helvetica,sans-Serif" font-size="10.00">QListIterator</text>
</g>
<!-- Node0 -->
<g id="node2" class="node"><title>Node0</title>
<g id="a_node2"><a xlink:href="d6/d7d/class_alpha_index_table_rows_iterator.html" target="_top" xlink:title="Iterator for the cells in a row of the alphabetical class index. ">
<polygon fill="white" stroke="black" points="107,-532.5 107,-551.5 253,-551.5 253,-532.5 107,-532.5"/>
<text text-anchor="middle" x="180" y="-539.5" font-family="Helvetica,sans-Serif" font-size="10.00">AlphaIndexTableRowsIterator</text>
</a>
</g>
</g>
<!-- Node355&#45;&gt;Node0 -->
<g id="edge1" class="edge"><title>Node355&#45;&gt;Node0</title>
<path fill="none" stroke="midnightblue" d="M36,-295.993C35.9728,-342.738 42.7035,-459.978 107,-523 110.878,-526.801 115.421,-529.866 120.307,-532.334"/>
<polygon fill="midnightblue" stroke="midnightblue" points="39.5031,-295.744 36.1216,-285.703 32.5036,-295.661 39.5031,-295.744"/>
</g>
<!-- Node357 -->
<g id="node3" class="node"><title>Node357</title>
<g id="a_node3"><a xlink:href="df/dc5/class_base_class_list_iterator.html" target="_top" xlink:title="Iterator for a list of base classes. ">
<polygon fill="white" stroke="black" points="124.5,-494.5 124.5,-513.5 235.5,-513.5 235.5,-494.5 124.5,-494.5"/>
<text text-anchor="middle" x="180" y="-501.5" font-family="Helvetica,sans-Serif" font-size="10.00">BaseClassListIterator</text>
</a>
</g>
</g>
<!-- Node355&#45;&gt;Node357 -->
<g id="edge2" class="edge"><title>Node355&#45;&gt;Node357</title>
<path fill="none" stroke="midnightblue" d="M37.2093,-295.702C39.7968,-337.062 51.7697,-433.368 107,-485 112.005,-489.679 118.024,-493.235 124.422,-495.933"/>
<polygon fill="midnightblue" stroke="midnightblue" points="40.698,-295.388 36.7002,-285.576 33.7068,-295.739 40.698,-295.388"/>
</g>
<!-- Node358 -->
<g id="node4" class="node"><title>Node358</title>
<g id="a_node4"><a xlink:href="d4/dd1/class_class_list_iterator.html" target="_top" xlink:title="An iterator for ClassDef objects in a ClassList. ">
<polygon fill="white" stroke="black" points="135.5,-456.5 135.5,-475.5 224.5,-475.5 224.5,-456.5 135.5,-456.5"/>
<text text-anchor="middle" x="180" y="-463.5" font-family="Helvetica,sans-Serif" font-size="10.00">ClassListIterator</text>
</a>
</g>
</g>
<!-- Node355&#45;&gt;Node358 -->
<g id="edge3" class="edge"><title>Node355&#45;&gt;Node358</title>
<path fill="none" stroke="midnightblue" d="M38.9521,-296.003C44.4223,-331.778 60.9903,-406.738 107,-447 114.978,-453.981 125.232,-458.439 135.486,-461.275"/>
<polygon fill="midnightblue" stroke="midnightblue" points="42.3855,-295.281 37.5428,-285.858 35.4521,-296.244 42.3855,-295.281"/>
</g>
<!-- Node359 -->
<g id="node5" class="node"><title>Node359</title>
<g id="a_node5"><a xlink:href="d2/d0b/class_definition_list_iterator.html" target="_top" xlink:title="An iterator for Definition objects in a DefinitionList. ">
<polygon fill="white" stroke="black" points="128,-418.5 128,-437.5 232,-437.5 232,-418.5 128,-418.5"/>
<text text-anchor="middle" x="180" y="-425.5" font-family="Helvetica,sans-Serif" font-size="10.00">DefinitionListIterator</text>
</a>
</g>
</g>
<!-- Node355&#45;&gt;Node359 -->
<g id="edge4" class="edge"><title>Node355&#45;&gt;Node359</title>
<path fill="none" stroke="midnightblue" d="M41.4574,-295.611C49.8745,-324.821 69.7849,-379.474 107,-409 113.077,-413.821 120.26,-417.426 127.697,-420.12"/>
<polygon fill="midnightblue" stroke="midnightblue" points="44.7824,-294.5 38.7821,-285.768 38.0274,-296.336 44.7824,-294.5"/>
</g>
<!-- Node360 -->
<g id="node6" class="node"><title>Node360</title>
<g id="a_node6"><a xlink:href="dd/d0b/class_diagram_row_iterator.html" target="_top" xlink:title="Class representing iterator for the rows in the built&#45;in class diagram. ">
<polygon fill="white" stroke="black" points="128,-380.5 128,-399.5 232,-399.5 232,-380.5 128,-380.5"/>
<text text-anchor="middle" x="180" y="-387.5" font-family="Helvetica,sans-Serif" font-size="10.00">DiagramRowIterator</text>
</a>
</g>
</g>
<!-- Node355&#45;&gt;Node360 -->
<g id="edge5" class="edge"><title>Node355&#45;&gt;Node360</title>
<path fill="none" stroke="midnightblue" d="M45.5673,-294.97C56.9087,-316.646 78.3709,-351.615 107,-371 113.316,-375.276 120.545,-378.591 127.931,-381.16"/>
<polygon fill="midnightblue" stroke="midnightblue" points="48.5698,-293.15 40.9521,-285.786 42.3153,-296.293 48.5698,-293.15"/>
</g>
<!-- Node361 -->
<g id="node7" class="node"><title>Node361</title>
<g id="a_node7"><a xlink:href="d0/d01/class_file_name_iterator.html" target="_top" xlink:title="Iterator for FileDef objects in a FileName list. ">
<polygon fill="white" stroke="black" points="135.5,-342.5 135.5,-361.5 224.5,-361.5 224.5,-342.5 135.5,-342.5"/>
<text text-anchor="middle" x="180" y="-349.5" font-family="Helvetica,sans-Serif" font-size="10.00">FileNameIterator</text>
</a>
</g>
</g>
<!-- Node355&#45;&gt;Node361 -->
<g id="edge6" class="edge"><title>Node355&#45;&gt;Node361</title>
<path fill="none" stroke="midnightblue" d="M53.0784,-292.841C66.5218,-305.593 86.5362,-322.632 107,-333 115.764,-337.441 125.671,-340.919 135.268,-343.615"/>
<polygon fill="midnightblue" stroke="midnightblue" points="55.2125,-290.033 45.6118,-285.552 50.3228,-295.042 55.2125,-290.033"/>
</g>
<!-- Node362 -->
<g id="node8" class="node"><title>Node362</title>
<g id="a_node8"><a xlink:href="db/d32/class_file_name_list_iterator.html" target="_top" xlink:title="Iterator for FileName objects in a FileNameList. ">
<polygon fill="white" stroke="black" points="127.5,-304.5 127.5,-323.5 232.5,-323.5 232.5,-304.5 127.5,-304.5"/>
<text text-anchor="middle" x="180" y="-311.5" font-family="Helvetica,sans-Serif" font-size="10.00">FileNameListIterator</text>
</a>
</g>
</g>
<!-- Node355&#45;&gt;Node362 -->
<g id="edge7" class="edge"><title>Node355&#45;&gt;Node362</title>
<path fill="none" stroke="midnightblue" d="M81.1385,-288.068C89.7194,-290.377 98.6368,-292.77 107,-295 118.617,-298.098 131.295,-301.453 142.731,-304.469"/>
<polygon fill="midnightblue" stroke="midnightblue" points="81.8394,-284.632 71.2732,-285.41 80.0184,-291.391 81.8394,-284.632"/>
</g>
<!-- Node363 -->
<g id="node9" class="node"><title>Node363</title>
<g id="a_node9"><a xlink:href="d0/d60/class_formula_list_iterator.html" target="_top" xlink:title="Iterator for Formula objects in a FormulaList. ">
<polygon fill="white" stroke="black" points="131,-266.5 131,-285.5 229,-285.5 229,-266.5 131,-266.5"/>
<text text-anchor="middle" x="180" y="-273.5" font-family="Helvetica,sans-Serif" font-size="10.00">FormulaListIterator</text>
</a>
</g>
</g>
<!-- Node355&#45;&gt;Node363 -->
<g id="edge8" class="edge"><title>Node355&#45;&gt;Node363</title>
<path fill="none" stroke="midnightblue" d="M81.3635,-276C97.0839,-276 114.8,-276 130.783,-276"/>
<polygon fill="midnightblue" stroke="midnightblue" points="81.3595,-272.5 71.3594,-276 81.3594,-279.5 81.3595,-272.5"/>
</g>
<!-- Node364 -->
<g id="node10" class="node"><title>Node364</title>
<g id="a_node10"><a xlink:href="df/dc4/class_group_list_iterator.html" target="_top" xlink:title="An iterator for GroupDef objects in a GroupList. ">
<polygon fill="white" stroke="black" points="135.5,-228.5 135.5,-247.5 224.5,-247.5 224.5,-228.5 135.5,-228.5"/>
<text text-anchor="middle" x="180" y="-235.5" font-family="Helvetica,sans-Serif" font-size="10.00">GroupListIterator</text>
</a>
</g>
</g>
<!-- Node355&#45;&gt;Node364 -->
<g id="edge9" class="edge"><title>Node355&#45;&gt;Node364</title>
<path fill="none" stroke="midnightblue" d="M81.1385,-263.932C89.7194,-261.623 98.6368,-259.23 107,-257 118.617,-253.902 131.295,-250.547 142.731,-247.531"/>
<polygon fill="midnightblue" stroke="midnightblue" points="80.0184,-260.609 71.2732,-266.59 81.8394,-267.368 80.0184,-260.609"/>
</g>
<!-- Node365 -->
<g id="node11" class="node"><title>Node365</title>
<g id="a_node11"><a xlink:href="d6/dfa/class_html_attrib_list_iterator.html" target="_top" xlink:title="Html attribute list iterator. ">
<polygon fill="white" stroke="black" points="126.5,-190.5 126.5,-209.5 233.5,-209.5 233.5,-190.5 126.5,-190.5"/>
<text text-anchor="middle" x="180" y="-197.5" font-family="Helvetica,sans-Serif" font-size="10.00">HtmlAttribListIterator</text>
</a>
</g>
</g>
<!-- Node355&#45;&gt;Node365 -->
<g id="edge10" class="edge"><title>Node355&#45;&gt;Node365</title>
<path fill="none" stroke="midnightblue" d="M53.0784,-259.159C66.5218,-246.407 86.5362,-229.368 107,-219 114.496,-215.202 122.827,-212.108 131.086,-209.605"/>
<polygon fill="midnightblue" stroke="midnightblue" points="50.3228,-256.958 45.6118,-266.448 55.2125,-261.967 50.3228,-256.958"/>
</g>
<!-- Node366 -->
<g id="node12" class="node"><title>Node366</title>
<g id="a_node12"><a xlink:href="db/d7e/class_member_group_list_iterator.html" target="_top" xlink:title="An iterator for MemberGroup objects in a MemberGroupList. ">
<polygon fill="white" stroke="black" points="117.5,-152.5 117.5,-171.5 242.5,-171.5 242.5,-152.5 117.5,-152.5"/>
<text text-anchor="middle" x="180" y="-159.5" font-family="Helvetica,sans-Serif" font-size="10.00">MemberGroupListIterator</text>
</a>
</g>
</g>
<!-- Node355&#45;&gt;Node366 -->
<g id="edge11" class="edge"><title>Node355&#45;&gt;Node366</title>
<path fill="none" stroke="midnightblue" d="M45.5673,-257.03C56.9087,-235.354 78.3709,-200.385 107,-181 112.781,-177.086 119.326,-173.978 126.057,-171.51"/>
<polygon fill="midnightblue" stroke="midnightblue" points="42.3153,-255.707 40.9521,-266.214 48.5698,-258.85 42.3153,-255.707"/>
</g>
<!-- Node367 -->
<g id="node13" class="node"><title>Node367</title>
<g id="a_node13"><a xlink:href="d0/d3c/class_member_list_iterator.html" target="_top" xlink:title="An iterator for MemberDef objects in a MemberList. ">
<polygon fill="white" stroke="black" points="131,-114.5 131,-133.5 229,-133.5 229,-114.5 131,-114.5"/>
<text text-anchor="middle" x="180" y="-121.5" font-family="Helvetica,sans-Serif" font-size="10.00">MemberListIterator</text>
</a>
</g>
</g>
<!-- Node355&#45;&gt;Node367 -->
<g id="edge12" class="edge"><title>Node355&#45;&gt;Node367</title>
<path fill="none" stroke="midnightblue" d="M41.4574,-256.389C49.8745,-227.179 69.7849,-172.526 107,-143 113.887,-137.536 122.195,-133.634 130.684,-130.85"/>
<polygon fill="midnightblue" stroke="midnightblue" points="38.0274,-255.664 38.7821,-266.232 44.7824,-257.5 38.0274,-255.664"/>
</g>
<!-- Node368 -->
<g id="node14" class="node"><title>Node368</title>
<g id="a_node14"><a xlink:href="d2/d1b/class_member_name_info_iterator.html" target="_top" xlink:title="Iterator for MemberInfo objects in a MemberNameInfo list. ">
<polygon fill="white" stroke="black" points="117.5,-76.5 117.5,-95.5 242.5,-95.5 242.5,-76.5 117.5,-76.5"/>
<text text-anchor="middle" x="180" y="-83.5" font-family="Helvetica,sans-Serif" font-size="10.00">MemberNameInfoIterator</text>
</a>
</g>
</g>
<!-- Node355&#45;&gt;Node368 -->
<g id="edge13" class="edge"><title>Node355&#45;&gt;Node368</title>
<path fill="none" stroke="midnightblue" d="M38.9521,-255.997C44.4223,-220.222 60.9903,-145.262 107,-105 111.378,-101.169 116.442,-98.0976 121.814,-95.6373"/>
<polygon fill="midnightblue" stroke="midnightblue" points="35.4521,-255.756 37.5428,-266.142 42.3855,-256.719 35.4521,-255.756"/>
</g>
<!-- Node369 -->
<g id="node15" class="node"><title>Node369</title>
<g id="a_node15"><a xlink:href="df/d28/class_member_name_iterator.html" target="_top" xlink:title="Iterator for MemberDef objects in a MemberName list. ">
<polygon fill="white" stroke="black" points="125.5,-38.5 125.5,-57.5 234.5,-57.5 234.5,-38.5 125.5,-38.5"/>
<text text-anchor="middle" x="180" y="-45.5" font-family="Helvetica,sans-Serif" font-size="10.00">MemberNameIterator</text>
</a>
</g>
</g>
<!-- Node355&#45;&gt;Node369 -->
<g id="edge14" class="edge"><title>Node355&#45;&gt;Node369</title>
<path fill="none" stroke="midnightblue" d="M37.2093,-256.298C39.7968,-214.938 51.7697,-118.632 107,-67 112.194,-62.1443 118.48,-58.498 125.148,-55.7656"/>
<polygon fill="midnightblue" stroke="midnightblue" points="33.7068,-256.261 36.7002,-266.424 40.698,-256.612 33.7068,-256.261"/>
</g>
<!-- Node370 -->
<g id="node16" class="node"><title>Node370</title>
<g id="a_node16"><a xlink:href="d7/d5a/class_namespace_list_iterator.html" target="_top" xlink:title="An iterator for NamespaceDef objects in a NamespaceList. ">
<polygon fill="white" stroke="black" points="122,-0.5 122,-19.5 238,-19.5 238,-0.5 122,-0.5"/>
<text text-anchor="middle" x="180" y="-7.5" font-family="Helvetica,sans-Serif" font-size="10.00">NamespaceListIterator</text>
</a>
</g>
</g>
<!-- Node355&#45;&gt;Node370 -->
<g id="edge15" class="edge"><title>Node355&#45;&gt;Node370</title>
<path fill="none" stroke="midnightblue" d="M36,-256.007C35.9728,-209.262 42.7035,-92.0217 107,-29 111.247,-24.8373 116.292,-21.557 121.712,-18.9766"/>
<polygon fill="midnightblue" stroke="midnightblue" points="32.5036,-256.339 36.1216,-266.297 39.5031,-256.256 32.5036,-256.339"/>
</g>
</g>
</svg>
