<?xml version="1.0" encoding="UTF-8" standalone="no"?>
<!DOCTYPE svg PUBLIC "-//W3C//DTD SVG 1.1//EN"
 "http://www.w3.org/Graphics/SVG/1.1/DTD/svg11.dtd">
<!-- Generated by graphviz version 2.38.0 (20140413.2041)
 -->
<!-- Title: Graphical Class Hierarchy Pages: 1 -->
<svg width="175pt" height="66pt"
 viewBox="0.00 0.00 175.00 66.00" xmlns="http://www.w3.org/2000/svg" xmlns:xlink="http://www.w3.org/1999/xlink">
<g id="graph0" class="graph" transform="scale(1 1) rotate(0) translate(4 62)">
<title>Graphical Class Hierarchy</title>
<polygon fill="white" stroke="none" points="-4,4 -4,-62 171,-62 171,4 -4,4"/>
<!-- Node0 -->
<g id="node1" class="node"><title>Node0</title>
<g id="a_node1"><a xlink:href="d7/db0/class_storage_intf.html" target="_top" xlink:title="Abstract interface for file based memory storage operations. ">
<polygon fill="white" stroke="black" points="0,-19.5 0,-38.5 65,-38.5 65,-19.5 0,-19.5"/>
<text text-anchor="middle" x="32.5" y="-26.5" font-family="Helvetica,sans-Serif" font-size="10.00">StorageIntf</text>
</a>
</g>
</g>
<!-- Node1 -->
<g id="node2" class="node"><title>Node1</title>
<g id="a_node2"><a xlink:href="d3/d94/class_file_storage.html" target="_top" xlink:title="Store implementation based on a file. ">
<polygon fill="white" stroke="black" points="101,-38.5 101,-57.5 167,-57.5 167,-38.5 101,-38.5"/>
<text text-anchor="middle" x="134" y="-45.5" font-family="Helvetica,sans-Serif" font-size="10.00">FileStorage</text>
</a>
</g>
</g>
<!-- Node0&#45;&gt;Node1 -->
<g id="edge1" class="edge"><title>Node0&#45;&gt;Node1</title>
<path fill="none" stroke="midnightblue" d="M75.1338,-36.9502C83.7327,-38.5922 92.664,-40.2977 100.863,-41.8632"/>
<polygon fill="midnightblue" stroke="midnightblue" points="75.735,-33.5018 65.256,-35.064 74.422,-40.3776 75.735,-33.5018"/>
</g>
<!-- Node2 -->
<g id="node3" class="node"><title>Node2</title>
<g id="a_node3"><a xlink:href="db/d9d/class_store.html" target="_top" xlink:title="The Store is a file based memory manager. ">
<polygon fill="white" stroke="black" points="114,-0.5 114,-19.5 154,-19.5 154,-0.5 114,-0.5"/>
<text text-anchor="middle" x="134" y="-7.5" font-family="Helvetica,sans-Serif" font-size="10.00">Store</text>
</a>
</g>
</g>
<!-- Node0&#45;&gt;Node2 -->
<g id="edge2" class="edge"><title>Node0&#45;&gt;Node2</title>
<path fill="none" stroke="midnightblue" d="M75.3189,-21.0145C88.7686,-18.4462 103.012,-15.7263 113.98,-13.632"/>
<polygon fill="midnightblue" stroke="midnightblue" points="74.422,-17.6224 65.256,-22.936 75.735,-24.4982 74.422,-17.6224"/>
</g>
</g>
</svg>
