<?xml version="1.0" encoding="UTF-8" standalone="no"?>
<!DOCTYPE svg PUBLIC "-//W3C//DTD SVG 1.1//EN"
 "http://www.w3.org/Graphics/SVG/1.1/DTD/svg11.dtd">
<!-- Generated by graphviz version 2.38.0 (20140413.2041)
 -->
<!-- Title: Graphical Class Hierarchy Pages: 1 -->
<svg width="221pt" height="332pt"
 viewBox="0.00 0.00 221.00 332.00" xmlns="http://www.w3.org/2000/svg" xmlns:xlink="http://www.w3.org/1999/xlink">
<g id="graph0" class="graph" transform="scale(1 1) rotate(0) translate(4 328)">
<title>Graphical Class Hierarchy</title>
<polygon fill="white" stroke="none" points="-4,4 -4,-328 217,-328 217,4 -4,4"/>
<!-- Node0 -->
<g id="node1" class="node"><title>Node0</title>
<g id="a_node1"><a xlink:href="dc/dfa/class_expr_ast.html" target="_top" xlink:title="Base class for all nodes in the abstract syntax tree of an expression. ">
<polygon fill="white" stroke="black" points="0,-152.5 0,-171.5 52,-171.5 52,-152.5 0,-152.5"/>
<text text-anchor="middle" x="26" y="-159.5" font-family="Helvetica,sans-Serif" font-size="10.00">ExprAst</text>
</a>
</g>
</g>
<!-- Node1 -->
<g id="node2" class="node"><title>Node1</title>
<g id="a_node2"><a xlink:href="dc/d11/class_expr_ast_binary.html" target="_top" xlink:title="Class representing a binary operator in the AST. ">
<polygon fill="white" stroke="black" points="110.5,-304.5 110.5,-323.5 190.5,-323.5 190.5,-304.5 110.5,-304.5"/>
<text text-anchor="middle" x="150.5" y="-311.5" font-family="Helvetica,sans-Serif" font-size="10.00">ExprAstBinary</text>
</a>
</g>
</g>
<!-- Node0&#45;&gt;Node1 -->
<g id="edge1" class="edge"><title>Node0&#45;&gt;Node1</title>
<path fill="none" stroke="midnightblue" d="M30.7425,-181.76C37.2599,-210.759 53.4431,-264.679 88,-295 94.2999,-300.528 102.187,-304.447 110.191,-307.227"/>
<polygon fill="midnightblue" stroke="midnightblue" points="34.1012,-180.72 28.6377,-171.643 27.2479,-182.146 34.1012,-180.72"/>
</g>
<!-- Node2 -->
<g id="node3" class="node"><title>Node2</title>
<g id="a_node3"><a xlink:href="d4/d32/class_expr_ast_filter.html" target="_top" xlink:title="Class representing a filter in the AST. ">
<polygon fill="white" stroke="black" points="113.5,-266.5 113.5,-285.5 187.5,-285.5 187.5,-266.5 113.5,-266.5"/>
<text text-anchor="middle" x="150.5" y="-273.5" font-family="Helvetica,sans-Serif" font-size="10.00">ExprAstFilter</text>
</a>
</g>
</g>
<!-- Node0&#45;&gt;Node2 -->
<g id="edge2" class="edge"><title>Node0&#45;&gt;Node2</title>
<path fill="none" stroke="midnightblue" d="M34.445,-181.059C43.7957,-202.564 61.8482,-237.127 88,-257 95.3849,-262.612 104.446,-266.582 113.32,-269.385"/>
<polygon fill="midnightblue" stroke="midnightblue" points="37.6173,-179.571 30.5564,-171.672 31.1503,-182.25 37.6173,-179.571"/>
</g>
<!-- Node3 -->
<g id="node4" class="node"><title>Node3</title>
<g id="a_node4"><a xlink:href="d3/dce/class_expr_ast_filter_appl.html" target="_top" xlink:title="Class representing a filter applied to an expression in the AST. ">
<polygon fill="white" stroke="black" points="104,-228.5 104,-247.5 197,-247.5 197,-228.5 104,-228.5"/>
<text text-anchor="middle" x="150.5" y="-235.5" font-family="Helvetica,sans-Serif" font-size="10.00">ExprAstFilterAppl</text>
</a>
</g>
</g>
<!-- Node0&#45;&gt;Node3 -->
<g id="edge3" class="edge"><title>Node0&#45;&gt;Node3</title>
<path fill="none" stroke="midnightblue" d="M41.7471,-179.505C53.201,-192.096 70.104,-208.62 88,-219 94.5734,-222.813 101.994,-225.94 109.348,-228.478"/>
<polygon fill="midnightblue" stroke="midnightblue" points="44.2876,-177.094 35.0514,-171.903 39.0348,-181.721 44.2876,-177.094"/>
</g>
<!-- Node4 -->
<g id="node5" class="node"><title>Node4</title>
<g id="a_node5"><a xlink:href="d1/da7/class_expr_ast_function_variable.html" target="_top" xlink:title="ExprAstFunctionVariable">
<polygon fill="white" stroke="black" points="88,-190.5 88,-209.5 213,-209.5 213,-190.5 88,-190.5"/>
<text text-anchor="middle" x="150.5" y="-197.5" font-family="Helvetica,sans-Serif" font-size="10.00">ExprAstFunctionVariable</text>
</a>
</g>
</g>
<!-- Node0&#45;&gt;Node4 -->
<g id="edge4" class="edge"><title>Node0&#45;&gt;Node4</title>
<path fill="none" stroke="midnightblue" d="M61.9046,-172.887C70.4394,-175.545 79.5479,-178.378 88,-181 97.9261,-184.079 108.757,-187.429 118.525,-190.446"/>
<polygon fill="midnightblue" stroke="midnightblue" points="62.8111,-169.504 52.2226,-169.871 60.7288,-176.187 62.8111,-169.504"/>
</g>
<!-- Node5 -->
<g id="node6" class="node"><title>Node5</title>
<g id="a_node6"><a xlink:href="d0/d31/class_expr_ast_literal.html" target="_top" xlink:title="Class representing a string literal in the AST. ">
<polygon fill="white" stroke="black" points="111.5,-152.5 111.5,-171.5 189.5,-171.5 189.5,-152.5 111.5,-152.5"/>
<text text-anchor="middle" x="150.5" y="-159.5" font-family="Helvetica,sans-Serif" font-size="10.00">ExprAstLiteral</text>
</a>
</g>
</g>
<!-- Node0&#45;&gt;Node5 -->
<g id="edge5" class="edge"><title>Node0&#45;&gt;Node5</title>
<path fill="none" stroke="midnightblue" d="M62.2467,-162C77.6348,-162 95.7119,-162 111.409,-162"/>
<polygon fill="midnightblue" stroke="midnightblue" points="62.0853,-158.5 52.0853,-162 62.0853,-165.5 62.0853,-158.5"/>
</g>
<!-- Node6 -->
<g id="node7" class="node"><title>Node6</title>
<g id="a_node7"><a xlink:href="d5/d4c/class_expr_ast_negate.html" target="_top" xlink:title="Class representing a negation (not) operator in the AST. ">
<polygon fill="white" stroke="black" points="109,-114.5 109,-133.5 192,-133.5 192,-114.5 109,-114.5"/>
<text text-anchor="middle" x="150.5" y="-121.5" font-family="Helvetica,sans-Serif" font-size="10.00">ExprAstNegate</text>
</a>
</g>
</g>
<!-- Node0&#45;&gt;Node6 -->
<g id="edge6" class="edge"><title>Node0&#45;&gt;Node6</title>
<path fill="none" stroke="midnightblue" d="M61.9046,-151.113C70.4394,-148.455 79.5479,-145.622 88,-143 97.9261,-139.921 108.757,-136.571 118.525,-133.554"/>
<polygon fill="midnightblue" stroke="midnightblue" points="60.7288,-147.813 52.2226,-154.129 62.8111,-154.496 60.7288,-147.813"/>
</g>
<!-- Node7 -->
<g id="node8" class="node"><title>Node7</title>
<g id="a_node8"><a xlink:href="de/d0a/class_expr_ast_number.html" target="_top" xlink:title="Class representing a number in the AST. ">
<polygon fill="white" stroke="black" points="107.5,-76.5 107.5,-95.5 193.5,-95.5 193.5,-76.5 107.5,-76.5"/>
<text text-anchor="middle" x="150.5" y="-83.5" font-family="Helvetica,sans-Serif" font-size="10.00">ExprAstNumber</text>
</a>
</g>
</g>
<!-- Node0&#45;&gt;Node7 -->
<g id="edge7" class="edge"><title>Node0&#45;&gt;Node7</title>
<path fill="none" stroke="midnightblue" d="M41.7471,-144.495C53.201,-131.904 70.104,-115.38 88,-105 94.5734,-101.187 101.994,-98.0598 109.348,-95.5221"/>
<polygon fill="midnightblue" stroke="midnightblue" points="39.0348,-142.279 35.0514,-152.097 44.2876,-146.906 39.0348,-142.279"/>
</g>
<!-- Node8 -->
<g id="node9" class="node"><title>Node8</title>
<g id="a_node9"><a xlink:href="dc/db5/class_expr_ast_unary.html" target="_top" xlink:title="ExprAstUnary">
<polygon fill="white" stroke="black" points="111.5,-38.5 111.5,-57.5 189.5,-57.5 189.5,-38.5 111.5,-38.5"/>
<text text-anchor="middle" x="150.5" y="-45.5" font-family="Helvetica,sans-Serif" font-size="10.00">ExprAstUnary</text>
</a>
</g>
</g>
<!-- Node0&#45;&gt;Node8 -->
<g id="edge8" class="edge"><title>Node0&#45;&gt;Node8</title>
<path fill="none" stroke="midnightblue" d="M34.445,-142.941C43.7957,-121.436 61.8482,-86.8731 88,-67 94.8511,-61.7938 103.145,-58.0005 111.393,-55.2412"/>
<polygon fill="midnightblue" stroke="midnightblue" points="31.1503,-141.75 30.5564,-152.328 37.6173,-144.429 31.1503,-141.75"/>
</g>
<!-- Node9 -->
<g id="node10" class="node"><title>Node9</title>
<g id="a_node10"><a xlink:href="de/dc0/class_expr_ast_variable.html" target="_top" xlink:title="Class representing a variable in the AST. ">
<polygon fill="white" stroke="black" points="107,-0.5 107,-19.5 194,-19.5 194,-0.5 107,-0.5"/>
<text text-anchor="middle" x="150.5" y="-7.5" font-family="Helvetica,sans-Serif" font-size="10.00">ExprAstVariable</text>
</a>
</g>
</g>
<!-- Node0&#45;&gt;Node9 -->
<g id="edge9" class="edge"><title>Node0&#45;&gt;Node9</title>
<path fill="none" stroke="midnightblue" d="M30.7425,-142.24C37.2599,-113.241 53.4431,-59.3215 88,-29 93.4599,-24.2093 100.112,-20.6264 106.999,-17.9469"/>
<polygon fill="midnightblue" stroke="midnightblue" points="27.2479,-141.854 28.6377,-152.357 34.1012,-143.28 27.2479,-141.854"/>
</g>
</g>
</svg>
