<?xml version="1.0" encoding="UTF-8" standalone="no"?>
<!DOCTYPE svg PUBLIC "-//W3C//DTD SVG 1.1//EN"
 "http://www.w3.org/Graphics/SVG/1.1/DTD/svg11.dtd">
<!-- Generated by graphviz version 2.38.0 (20140413.2041)
 -->
<!-- Title: Graphical Class Hierarchy Pages: 1 -->
<svg width="247pt" height="66pt"
 viewBox="0.00 0.00 247.00 66.00" xmlns="http://www.w3.org/2000/svg" xmlns:xlink="http://www.w3.org/1999/xlink">
<g id="graph0" class="graph" transform="scale(1 1) rotate(0) translate(4 62)">
<title>Graphical Class Hierarchy</title>
<polygon fill="white" stroke="none" points="-4,4 -4,-62 243,-62 243,4 -4,4"/>
<!-- Node0 -->
<g id="node1" class="node"><title>Node0</title>
<g id="a_node1"><a xlink:href="df/d80/class_template_spaceless_intf.html" target="_top" xlink:title="Interface used to remove redundant spaces inside a spaceless block. ">
<polygon fill="white" stroke="black" points="0,-19.5 0,-38.5 117,-38.5 117,-19.5 0,-19.5"/>
<text text-anchor="middle" x="58.5" y="-26.5" font-family="Helvetica,sans-Serif" font-size="10.00">TemplateSpacelessIntf</text>
</a>
</g>
</g>
<!-- Node1 -->
<g id="node2" class="node"><title>Node1</title>
<g id="a_node2"><a xlink:href="d0/dc2/class_html_spaceless.html" target="_top" xlink:title="HtmlSpaceless">
<polygon fill="white" stroke="black" points="154.5,-38.5 154.5,-57.5 237.5,-57.5 237.5,-38.5 154.5,-38.5"/>
<text text-anchor="middle" x="196" y="-45.5" font-family="Helvetica,sans-Serif" font-size="10.00">HtmlSpaceless</text>
</a>
</g>
</g>
<!-- Node0&#45;&gt;Node1 -->
<g id="edge1" class="edge"><title>Node0&#45;&gt;Node1</title>
<path fill="none" stroke="midnightblue" d="M127.28,-38.5042C136.453,-39.7904 145.625,-41.0766 154.124,-42.2684"/>
<polygon fill="midnightblue" stroke="midnightblue" points="127.746,-35.0354 117.357,-37.1128 126.774,-41.9676 127.746,-35.0354"/>
</g>
<!-- Node2 -->
<g id="node3" class="node"><title>Node2</title>
<g id="a_node3"><a xlink:href="dc/dc0/class_latex_spaceless.html" target="_top" xlink:title="LatexSpaceless">
<polygon fill="white" stroke="black" points="153,-0.5 153,-19.5 239,-19.5 239,-0.5 153,-0.5"/>
<text text-anchor="middle" x="196" y="-7.5" font-family="Helvetica,sans-Serif" font-size="10.00">LatexSpaceless</text>
</a>
</g>
</g>
<!-- Node0&#45;&gt;Node2 -->
<g id="edge2" class="edge"><title>Node0&#45;&gt;Node2</title>
<path fill="none" stroke="midnightblue" d="M127.497,-19.4653C136.162,-18.2503 144.822,-17.0361 152.909,-15.9021"/>
<polygon fill="midnightblue" stroke="midnightblue" points="126.774,-16.0324 117.357,-20.8872 127.746,-22.9646 126.774,-16.0324"/>
</g>
</g>
</svg>
