<?xml version="1.0" encoding="UTF-8" standalone="no"?>
<!DOCTYPE svg PUBLIC "-//W3C//DTD SVG 1.1//EN"
 "http://www.w3.org/Graphics/SVG/1.1/DTD/svg11.dtd">
<!-- Generated by graphviz version 2.38.0 (20140413.2041)
 -->
<!-- Title: Graphical Class Hierarchy Pages: 1 -->
<svg width="472pt" height="1172pt"
 viewBox="0.00 0.00 472.00 1172.00" xmlns="http://www.w3.org/2000/svg" xmlns:xlink="http://www.w3.org/1999/xlink">
<g id="graph0" class="graph" transform="scale(1 1) rotate(0) translate(4 1168)">
<title>Graphical Class Hierarchy</title>
<polygon fill="white" stroke="none" points="-4,4 -4,-1168 468,-1168 468,4 -4,4"/>
<!-- Node226 -->
<g id="node1" class="node"><title>Node226</title>
<g id="a_node1"><a xlink:href="d5/de9/class_template.html" target="_top" xlink:title="Abstract interface for a template. ">
<polygon fill="white" stroke="black" points="11.5,-1144.5 11.5,-1163.5 68.5,-1163.5 68.5,-1144.5 11.5,-1144.5"/>
<text text-anchor="middle" x="40" y="-1151.5" font-family="Helvetica,sans-Serif" font-size="10.00">Template</text>
</a>
</g>
</g>
<!-- Node1 -->
<g id="node2" class="node"><title>Node1</title>
<g id="a_node2"><a xlink:href="d6/d07/class_template_impl.html" target="_top" xlink:title="Internal class representing the implementation of a template. ">
<polygon fill="white" stroke="black" points="160.5,-1144.5 160.5,-1163.5 236.5,-1163.5 236.5,-1144.5 160.5,-1144.5"/>
<text text-anchor="middle" x="198.5" y="-1151.5" font-family="Helvetica,sans-Serif" font-size="10.00">TemplateImpl</text>
</a>
</g>
</g>
<!-- Node226&#45;&gt;Node1 -->
<g id="edge1" class="edge"><title>Node226&#45;&gt;Node1</title>
<path fill="none" stroke="midnightblue" d="M78.7414,-1154C103.534,-1154 135.817,-1154 160.465,-1154"/>
<polygon fill="midnightblue" stroke="midnightblue" points="78.6188,-1150.5 68.6188,-1154 78.6188,-1157.5 78.6188,-1150.5"/>
</g>
<!-- Node0 -->
<g id="node3" class="node"><title>Node0</title>
<g id="a_node3"><a xlink:href="d6/d53/class_template_node.html" target="_top" xlink:title="Base class of all nodes in a template&#39;s AST. ">
<polygon fill="white" stroke="black" points="0,-572.5 0,-591.5 80,-591.5 80,-572.5 0,-572.5"/>
<text text-anchor="middle" x="40" y="-579.5" font-family="Helvetica,sans-Serif" font-size="10.00">TemplateNode</text>
</a>
</g>
</g>
<!-- Node0&#45;&gt;Node1 -->
<g id="edge2" class="edge"><title>Node0&#45;&gt;Node1</title>
<path fill="none" stroke="midnightblue" d="M40.8005,-601.792C40.3164,-690.981 42.9128,-1054.68 116,-1135 127.147,-1147.25 144.528,-1152.36 160.38,-1154.26"/>
<polygon fill="midnightblue" stroke="midnightblue" points="44.301,-601.719 40.8762,-591.693 37.3012,-601.666 44.301,-601.719"/>
</g>
<!-- Node2 -->
<g id="node4" class="node"><title>Node2</title>
<g id="a_node4"><a xlink:href="d8/d78/class_template_node_creator.html" target="_top" xlink:title="Helper class for creating template AST tag nodes and returning the template for a given node...">
<polygon fill="white" stroke="black" points="130,-1106.5 130,-1125.5 267,-1125.5 267,-1106.5 130,-1106.5"/>
<text text-anchor="middle" x="198.5" y="-1113.5" font-family="Helvetica,sans-Serif" font-size="10.00">TemplateNodeCreator&lt; T &gt;</text>
</a>
</g>
</g>
<!-- Node0&#45;&gt;Node2 -->
<g id="edge3" class="edge"><title>Node0&#45;&gt;Node2</title>
<path fill="none" stroke="midnightblue" d="M41.021,-602.044C41.5291,-687.812 47.9063,-1022.9 116,-1097 119.932,-1101.28 124.625,-1104.68 129.746,-1107.39"/>
<polygon fill="midnightblue" stroke="midnightblue" points="44.5203,-601.834 40.9827,-591.847 37.5203,-601.86 44.5203,-601.834"/>
</g>
<!-- Node3 -->
<g id="node5" class="node"><title>Node3</title>
<g id="a_node5"><a xlink:href="d8/d78/class_template_node_creator.html" target="_top" xlink:title="TemplateNodeCreator\l\&lt; TemplateNodeBlock \&gt;">
<polygon fill="white" stroke="black" points="137,-1057 137,-1087 260,-1087 260,-1057 137,-1057"/>
<text text-anchor="start" x="145" y="-1075" font-family="Helvetica,sans-Serif" font-size="10.00">TemplateNodeCreator</text>
<text text-anchor="middle" x="198.5" y="-1064" font-family="Helvetica,sans-Serif" font-size="10.00">&lt; TemplateNodeBlock &gt;</text>
</a>
</g>
</g>
<!-- Node0&#45;&gt;Node3 -->
<g id="edge4" class="edge"><title>Node0&#45;&gt;Node3</title>
<path fill="none" stroke="midnightblue" d="M41.4628,-601.803C43.7289,-681.793 56.1245,-980.006 116,-1048 121.654,-1054.42 128.929,-1059.16 136.801,-1062.66"/>
<polygon fill="midnightblue" stroke="midnightblue" points="44.9573,-601.543 41.1976,-591.638 37.9597,-601.726 44.9573,-601.543"/>
</g>
<!-- Node5 -->
<g id="node7" class="node"><title>Node5</title>
<g id="a_node7"><a xlink:href="d8/d78/class_template_node_creator.html" target="_top" xlink:title="TemplateNodeCreator\l\&lt; TemplateNodeCloseSubIndex \&gt;">
<polygon fill="white" stroke="black" points="116,-1008 116,-1038 281,-1038 281,-1008 116,-1008"/>
<text text-anchor="start" x="124" y="-1026" font-family="Helvetica,sans-Serif" font-size="10.00">TemplateNodeCreator</text>
<text text-anchor="middle" x="198.5" y="-1015" font-family="Helvetica,sans-Serif" font-size="10.00">&lt; TemplateNodeCloseSubIndex &gt;</text>
</a>
</g>
</g>
<!-- Node0&#45;&gt;Node5 -->
<g id="edge6" class="edge"><title>Node0&#45;&gt;Node5</title>
<path fill="none" stroke="midnightblue" d="M41.8871,-602.067C45.5972,-676.989 62.2661,-939.099 116,-999 119.053,-1002.4 122.562,-1005.34 126.372,-1007.86"/>
<polygon fill="midnightblue" stroke="midnightblue" points="45.3659,-601.534 41.3992,-591.71 38.3737,-601.863 45.3659,-601.534"/>
</g>
<!-- Node7 -->
<g id="node9" class="node"><title>Node7</title>
<g id="a_node9"><a xlink:href="d8/d78/class_template_node_creator.html" target="_top" xlink:title="TemplateNodeCreator\l\&lt; TemplateNodeCreate \&gt;">
<polygon fill="white" stroke="black" points="134.5,-959 134.5,-989 262.5,-989 262.5,-959 134.5,-959"/>
<text text-anchor="start" x="142.5" y="-977" font-family="Helvetica,sans-Serif" font-size="10.00">TemplateNodeCreator</text>
<text text-anchor="middle" x="198.5" y="-966" font-family="Helvetica,sans-Serif" font-size="10.00">&lt; TemplateNodeCreate &gt;</text>
</a>
</g>
</g>
<!-- Node0&#45;&gt;Node7 -->
<g id="edge8" class="edge"><title>Node0&#45;&gt;Node7</title>
<path fill="none" stroke="midnightblue" d="M42.3981,-601.889C47.6329,-670.806 68.2708,-898.014 116,-950 121.088,-955.541 127.383,-959.827 134.202,-963.138"/>
<polygon fill="midnightblue" stroke="midnightblue" points="45.8643,-601.299 41.6419,-591.582 38.883,-601.811 45.8643,-601.299"/>
</g>
<!-- Node9 -->
<g id="node11" class="node"><title>Node9</title>
<g id="a_node11"><a xlink:href="d8/d78/class_template_node_creator.html" target="_top" xlink:title="TemplateNodeCreator\l\&lt; TemplateNodeCycle \&gt;">
<polygon fill="white" stroke="black" points="136.5,-910 136.5,-940 260.5,-940 260.5,-910 136.5,-910"/>
<text text-anchor="start" x="144.5" y="-928" font-family="Helvetica,sans-Serif" font-size="10.00">TemplateNodeCreator</text>
<text text-anchor="middle" x="198.5" y="-917" font-family="Helvetica,sans-Serif" font-size="10.00">&lt; TemplateNodeCycle &gt;</text>
</a>
</g>
</g>
<!-- Node0&#45;&gt;Node9 -->
<g id="edge10" class="edge"><title>Node0&#45;&gt;Node9</title>
<path fill="none" stroke="midnightblue" d="M43.0447,-601.634C49.932,-664.118 74.2243,-856.84 116,-901 121.677,-907 128.769,-911.524 136.388,-914.93"/>
<polygon fill="midnightblue" stroke="midnightblue" points="46.5093,-601.116 41.9609,-591.548 39.5494,-601.864 46.5093,-601.116"/>
</g>
<!-- Node11 -->
<g id="node13" class="node"><title>Node11</title>
<g id="a_node13"><a xlink:href="d8/d78/class_template_node_creator.html" target="_top" xlink:title="TemplateNodeCreator\l\&lt; TemplateNodeEncoding \&gt;">
<polygon fill="white" stroke="black" points="129,-861 129,-891 268,-891 268,-861 129,-861"/>
<text text-anchor="start" x="137" y="-879" font-family="Helvetica,sans-Serif" font-size="10.00">TemplateNodeCreator</text>
<text text-anchor="middle" x="198.5" y="-868" font-family="Helvetica,sans-Serif" font-size="10.00">&lt; TemplateNodeEncoding &gt;</text>
</a>
</g>
</g>
<!-- Node0&#45;&gt;Node11 -->
<g id="edge12" class="edge"><title>Node0&#45;&gt;Node11</title>
<path fill="none" stroke="midnightblue" d="M40.4099,-601.73C40.0513,-651.101 46.1734,-781.087 116,-852 119.726,-855.784 124.015,-858.978 128.636,-861.673"/>
<polygon fill="midnightblue" stroke="midnightblue" points="43.9094,-601.786 40.5847,-591.727 36.9105,-601.664 43.9094,-601.786"/>
</g>
<!-- Node13 -->
<g id="node15" class="node"><title>Node13</title>
<g id="a_node15"><a xlink:href="d8/d78/class_template_node_creator.html" target="_top" xlink:title="TemplateNodeCreator\l\&lt; TemplateNodeExtend \&gt;">
<polygon fill="white" stroke="black" points="134,-812 134,-842 263,-842 263,-812 134,-812"/>
<text text-anchor="start" x="142" y="-830" font-family="Helvetica,sans-Serif" font-size="10.00">TemplateNodeCreator</text>
<text text-anchor="middle" x="198.5" y="-819" font-family="Helvetica,sans-Serif" font-size="10.00">&lt; TemplateNodeExtend &gt;</text>
</a>
</g>
</g>
<!-- Node0&#45;&gt;Node13 -->
<g id="edge14" class="edge"><title>Node0&#45;&gt;Node13</title>
<path fill="none" stroke="midnightblue" d="M41.8581,-601.831C44.8085,-644.823 57.9013,-747.224 116,-803 121.107,-807.903 127.165,-811.811 133.636,-814.925"/>
<polygon fill="midnightblue" stroke="midnightblue" points="45.3377,-601.37 41.2755,-591.585 38.349,-601.768 45.3377,-601.37"/>
</g>
<!-- Node15 -->
<g id="node17" class="node"><title>Node15</title>
<g id="a_node17"><a xlink:href="d8/d78/class_template_node_creator.html" target="_top" xlink:title="TemplateNodeCreator\l\&lt; TemplateNodeFor \&gt;">
<polygon fill="white" stroke="black" points="142,-763 142,-793 255,-793 255,-763 142,-763"/>
<text text-anchor="start" x="150" y="-781" font-family="Helvetica,sans-Serif" font-size="10.00">TemplateNodeCreator</text>
<text text-anchor="middle" x="198.5" y="-770" font-family="Helvetica,sans-Serif" font-size="10.00">&lt; TemplateNodeFor &gt;</text>
</a>
</g>
</g>
<!-- Node0&#45;&gt;Node15 -->
<g id="edge16" class="edge"><title>Node0&#45;&gt;Node15</title>
<path fill="none" stroke="midnightblue" d="M44.0892,-602.013C50.6782,-637.828 69.4928,-712.963 116,-754 123.41,-760.539 132.524,-765.299 141.942,-768.763"/>
<polygon fill="midnightblue" stroke="midnightblue" points="47.4893,-601.13 42.3599,-591.86 40.5887,-602.305 47.4893,-601.13"/>
</g>
<!-- Node17 -->
<g id="node19" class="node"><title>Node17</title>
<g id="a_node19"><a xlink:href="d8/d78/class_template_node_creator.html" target="_top" xlink:title="TemplateNodeCreator\l\&lt; TemplateNodeIf \&gt;">
<polygon fill="white" stroke="black" points="142,-714 142,-744 255,-744 255,-714 142,-714"/>
<text text-anchor="start" x="150" y="-732" font-family="Helvetica,sans-Serif" font-size="10.00">TemplateNodeCreator</text>
<text text-anchor="middle" x="198.5" y="-721" font-family="Helvetica,sans-Serif" font-size="10.00">&lt; TemplateNodeIf &gt;</text>
</a>
</g>
</g>
<!-- Node0&#45;&gt;Node17 -->
<g id="edge18" class="edge"><title>Node0&#45;&gt;Node17</title>
<path fill="none" stroke="midnightblue" d="M47.5998,-601.193C57.9177,-628.347 80.4486,-677.703 116,-705 123.604,-710.839 132.601,-715.26 141.794,-718.607"/>
<polygon fill="midnightblue" stroke="midnightblue" points="50.8395,-599.861 44.1346,-591.657 44.2604,-602.251 50.8395,-599.861"/>
</g>
<!-- Node19 -->
<g id="node21" class="node"><title>Node19</title>
<g id="a_node21"><a xlink:href="d8/d78/class_template_node_creator.html" target="_top" xlink:title="TemplateNodeCreator\l\&lt; TemplateNodeInclude \&gt;">
<polygon fill="white" stroke="black" points="133.5,-665 133.5,-695 263.5,-695 263.5,-665 133.5,-665"/>
<text text-anchor="start" x="141.5" y="-683" font-family="Helvetica,sans-Serif" font-size="10.00">TemplateNodeCreator</text>
<text text-anchor="middle" x="198.5" y="-672" font-family="Helvetica,sans-Serif" font-size="10.00">&lt; TemplateNodeInclude &gt;</text>
</a>
</g>
</g>
<!-- Node0&#45;&gt;Node19 -->
<g id="edge20" class="edge"><title>Node0&#45;&gt;Node19</title>
<path fill="none" stroke="midnightblue" d="M54.5094,-599.655C68.2553,-616.455 91.0394,-641.29 116,-656 121.718,-659.37 127.945,-662.297 134.324,-664.832"/>
<polygon fill="midnightblue" stroke="midnightblue" points="57.1453,-597.346 48.1815,-591.698 51.6666,-601.703 57.1453,-597.346"/>
</g>
<!-- Node21 -->
<g id="node23" class="node"><title>Node21</title>
<g id="a_node23"><a xlink:href="d8/d78/class_template_node_creator.html" target="_top" xlink:title="TemplateNodeCreator\l\&lt; TemplateNodeIndexEntry \&gt;">
<polygon fill="white" stroke="black" points="125.5,-616 125.5,-646 271.5,-646 271.5,-616 125.5,-616"/>
<text text-anchor="start" x="133.5" y="-634" font-family="Helvetica,sans-Serif" font-size="10.00">TemplateNodeCreator</text>
<text text-anchor="middle" x="198.5" y="-623" font-family="Helvetica,sans-Serif" font-size="10.00">&lt; TemplateNodeIndexEntry &gt;</text>
</a>
</g>
</g>
<!-- Node0&#45;&gt;Node21 -->
<g id="edge22" class="edge"><title>Node0&#45;&gt;Node21</title>
<path fill="none" stroke="midnightblue" d="M78.6972,-594.855C90.6019,-598.837 103.825,-603.18 116,-607 125.429,-609.959 135.505,-613.013 145.244,-615.91"/>
<polygon fill="midnightblue" stroke="midnightblue" points="79.6534,-591.484 69.0594,-591.615 77.4226,-598.119 79.6534,-591.484"/>
</g>
<!-- Node23 -->
<g id="node25" class="node"><title>Node23</title>
<g id="a_node25"><a xlink:href="d8/d78/class_template_node_creator.html" target="_top" xlink:title="TemplateNodeCreator\l\&lt; TemplateNodeMarkers \&gt;">
<polygon fill="white" stroke="black" points="131.5,-567 131.5,-597 265.5,-597 265.5,-567 131.5,-567"/>
<text text-anchor="start" x="139.5" y="-585" font-family="Helvetica,sans-Serif" font-size="10.00">TemplateNodeCreator</text>
<text text-anchor="middle" x="198.5" y="-574" font-family="Helvetica,sans-Serif" font-size="10.00">&lt; TemplateNodeMarkers &gt;</text>
</a>
</g>
</g>
<!-- Node0&#45;&gt;Node23 -->
<g id="edge24" class="edge"><title>Node0&#45;&gt;Node23</title>
<path fill="none" stroke="midnightblue" d="M90.2191,-582C103.227,-582 117.482,-582 131.232,-582"/>
<polygon fill="midnightblue" stroke="midnightblue" points="90.0879,-578.5 80.0879,-582 90.0878,-585.5 90.0879,-578.5"/>
</g>
<!-- Node25 -->
<g id="node27" class="node"><title>Node25</title>
<g id="a_node27"><a xlink:href="d8/d78/class_template_node_creator.html" target="_top" xlink:title="TemplateNodeCreator\l\&lt; TemplateNodeMsg \&gt;">
<polygon fill="white" stroke="black" points="140,-518 140,-548 257,-548 257,-518 140,-518"/>
<text text-anchor="start" x="148" y="-536" font-family="Helvetica,sans-Serif" font-size="10.00">TemplateNodeCreator</text>
<text text-anchor="middle" x="198.5" y="-525" font-family="Helvetica,sans-Serif" font-size="10.00">&lt; TemplateNodeMsg &gt;</text>
</a>
</g>
</g>
<!-- Node0&#45;&gt;Node25 -->
<g id="edge26" class="edge"><title>Node0&#45;&gt;Node25</title>
<path fill="none" stroke="midnightblue" d="M80.3066,-569.323C91.8023,-565.643 104.396,-561.636 116,-558 126.31,-554.769 137.367,-551.348 147.907,-548.108"/>
<polygon fill="midnightblue" stroke="midnightblue" points="78.9926,-566.069 70.5397,-572.457 81.1309,-572.735 78.9926,-566.069"/>
</g>
<!-- Node27 -->
<g id="node29" class="node"><title>Node27</title>
<g id="a_node29"><a xlink:href="d8/d78/class_template_node_creator.html" target="_top" xlink:title="TemplateNodeCreator\l\&lt; TemplateNodeOpenSubIndex \&gt;">
<polygon fill="white" stroke="black" points="117,-469 117,-499 280,-499 280,-469 117,-469"/>
<text text-anchor="start" x="125" y="-487" font-family="Helvetica,sans-Serif" font-size="10.00">TemplateNodeCreator</text>
<text text-anchor="middle" x="198.5" y="-476" font-family="Helvetica,sans-Serif" font-size="10.00">&lt; TemplateNodeOpenSubIndex &gt;</text>
</a>
</g>
</g>
<!-- Node0&#45;&gt;Node27 -->
<g id="edge28" class="edge"><title>Node0&#45;&gt;Node27</title>
<path fill="none" stroke="midnightblue" d="M54.596,-564.652C68.4066,-548.13 91.2378,-523.667 116,-509 122.494,-505.153 129.636,-501.847 136.908,-499.019"/>
<polygon fill="midnightblue" stroke="midnightblue" points="51.8284,-562.508 48.2337,-572.474 57.2589,-566.925 51.8284,-562.508"/>
</g>
<!-- Node29 -->
<g id="node31" class="node"><title>Node29</title>
<g id="a_node31"><a xlink:href="d8/d78/class_template_node_creator.html" target="_top" xlink:title="TemplateNodeCreator\l\&lt; TemplateNodeRange \&gt;">
<polygon fill="white" stroke="black" points="135,-420 135,-450 262,-450 262,-420 135,-420"/>
<text text-anchor="start" x="143" y="-438" font-family="Helvetica,sans-Serif" font-size="10.00">TemplateNodeCreator</text>
<text text-anchor="middle" x="198.5" y="-427" font-family="Helvetica,sans-Serif" font-size="10.00">&lt; TemplateNodeRange &gt;</text>
</a>
</g>
</g>
<!-- Node0&#45;&gt;Node29 -->
<g id="edge30" class="edge"><title>Node0&#45;&gt;Node29</title>
<path fill="none" stroke="midnightblue" d="M47.6846,-563.015C58.1062,-536.147 80.7627,-487.27 116,-460 121.618,-455.652 127.995,-452.056 134.648,-449.082"/>
<polygon fill="midnightblue" stroke="midnightblue" points="44.3813,-561.857 44.1804,-572.45 50.9433,-564.294 44.3813,-561.857"/>
</g>
<!-- Node31 -->
<g id="node33" class="node"><title>Node31</title>
<g id="a_node33"><a xlink:href="d8/d78/class_template_node_creator.html" target="_top" xlink:title="TemplateNodeCreator\l\&lt; TemplateNodeRepeat \&gt;">
<polygon fill="white" stroke="black" points="133.5,-371 133.5,-401 263.5,-401 263.5,-371 133.5,-371"/>
<text text-anchor="start" x="141.5" y="-389" font-family="Helvetica,sans-Serif" font-size="10.00">TemplateNodeCreator</text>
<text text-anchor="middle" x="198.5" y="-378" font-family="Helvetica,sans-Serif" font-size="10.00">&lt; TemplateNodeRepeat &gt;</text>
</a>
</g>
</g>
<!-- Node0&#45;&gt;Node31 -->
<g id="edge32" class="edge"><title>Node0&#45;&gt;Node31</title>
<path fill="none" stroke="midnightblue" d="M44.1707,-562.152C50.8902,-526.624 69.9064,-452.047 116,-411 121.084,-406.472 126.973,-402.765 133.212,-399.728"/>
<polygon fill="midnightblue" stroke="midnightblue" points="40.6846,-561.768 42.4024,-572.223 47.5791,-562.979 40.6846,-561.768"/>
</g>
<!-- Node33 -->
<g id="node35" class="node"><title>Node33</title>
<g id="a_node35"><a xlink:href="d8/d78/class_template_node_creator.html" target="_top" xlink:title="TemplateNodeCreator\l\&lt; TemplateNodeResource \&gt;">
<polygon fill="white" stroke="black" points="128.5,-322 128.5,-352 268.5,-352 268.5,-322 128.5,-322"/>
<text text-anchor="start" x="136.5" y="-340" font-family="Helvetica,sans-Serif" font-size="10.00">TemplateNodeCreator</text>
<text text-anchor="middle" x="198.5" y="-329" font-family="Helvetica,sans-Serif" font-size="10.00">&lt; TemplateNodeResource &gt;</text>
</a>
</g>
</g>
<!-- Node0&#45;&gt;Node33 -->
<g id="edge34" class="edge"><title>Node0&#45;&gt;Node33</title>
<path fill="none" stroke="midnightblue" d="M41.9347,-562.306C45.0367,-519.6 58.4118,-417.835 116,-362 119.932,-358.188 124.429,-354.956 129.247,-352.216"/>
<polygon fill="midnightblue" stroke="midnightblue" points="38.4294,-562.288 41.3143,-572.482 45.4164,-562.713 38.4294,-562.288"/>
</g>
<!-- Node35 -->
<g id="node37" class="node"><title>Node35</title>
<g id="a_node37"><a xlink:href="d8/d78/class_template_node_creator.html" target="_top" xlink:title="TemplateNodeCreator\l\&lt; TemplateNodeSet \&gt;">
<polygon fill="white" stroke="black" points="142,-273 142,-303 255,-303 255,-273 142,-273"/>
<text text-anchor="start" x="150" y="-291" font-family="Helvetica,sans-Serif" font-size="10.00">TemplateNodeCreator</text>
<text text-anchor="middle" x="198.5" y="-280" font-family="Helvetica,sans-Serif" font-size="10.00">&lt; TemplateNodeSet &gt;</text>
</a>
</g>
</g>
<!-- Node0&#45;&gt;Node35 -->
<g id="edge36" class="edge"><title>Node0&#45;&gt;Node35</title>
<path fill="none" stroke="midnightblue" d="M40.4821,-562.077C40.3219,-512.762 46.9239,-383.877 116,-313 123.127,-305.687 132.334,-300.5 141.98,-296.824"/>
<polygon fill="midnightblue" stroke="midnightblue" points="36.9858,-562.382 40.6223,-572.333 43.9852,-562.286 36.9858,-562.382"/>
</g>
<!-- Node37 -->
<g id="node39" class="node"><title>Node37</title>
<g id="a_node39"><a xlink:href="d8/d78/class_template_node_creator.html" target="_top" xlink:title="TemplateNodeCreator\l\&lt; TemplateNodeSpaceless \&gt;">
<polygon fill="white" stroke="black" points="126.5,-224 126.5,-254 270.5,-254 270.5,-224 126.5,-224"/>
<text text-anchor="start" x="134.5" y="-242" font-family="Helvetica,sans-Serif" font-size="10.00">TemplateNodeCreator</text>
<text text-anchor="middle" x="198.5" y="-231" font-family="Helvetica,sans-Serif" font-size="10.00">&lt; TemplateNodeSpaceless &gt;</text>
</a>
</g>
</g>
<!-- Node0&#45;&gt;Node37 -->
<g id="edge38" class="edge"><title>Node0&#45;&gt;Node37</title>
<path fill="none" stroke="midnightblue" d="M43.0739,-562.446C50.05,-500.214 74.5812,-308.248 116,-264 119.641,-260.11 123.87,-256.82 128.449,-254.038"/>
<polygon fill="midnightblue" stroke="midnightblue" points="39.5833,-562.17 41.9755,-572.492 46.5418,-562.931 39.5833,-562.17"/>
</g>
<!-- Node39 -->
<g id="node41" class="node"><title>Node39</title>
<g id="a_node41"><a xlink:href="d8/d78/class_template_node_creator.html" target="_top" xlink:title="TemplateNodeCreator\l\&lt; TemplateNodeTabbing \&gt;">
<polygon fill="white" stroke="black" points="132,-175 132,-205 265,-205 265,-175 132,-175"/>
<text text-anchor="start" x="140" y="-193" font-family="Helvetica,sans-Serif" font-size="10.00">TemplateNodeCreator</text>
<text text-anchor="middle" x="198.5" y="-182" font-family="Helvetica,sans-Serif" font-size="10.00">&lt; TemplateNodeTabbing &gt;</text>
</a>
</g>
</g>
<!-- Node0&#45;&gt;Node39 -->
<g id="edge40" class="edge"><title>Node0&#45;&gt;Node39</title>
<path fill="none" stroke="midnightblue" d="M42.4269,-562.184C47.7574,-493.515 68.6739,-267.105 116,-215 120.478,-210.07 125.9,-206.101 131.795,-202.907"/>
<polygon fill="midnightblue" stroke="midnightblue" points="38.9145,-562.219 41.6562,-572.453 45.8948,-562.743 38.9145,-562.219"/>
</g>
<!-- Node41 -->
<g id="node43" class="node"><title>Node41</title>
<g id="a_node43"><a xlink:href="d8/d78/class_template_node_creator.html" target="_top" xlink:title="TemplateNodeCreator\l\&lt; TemplateNodeTree \&gt;">
<polygon fill="white" stroke="black" points="139.5,-126 139.5,-156 257.5,-156 257.5,-126 139.5,-126"/>
<text text-anchor="start" x="147.5" y="-144" font-family="Helvetica,sans-Serif" font-size="10.00">TemplateNodeCreator</text>
<text text-anchor="middle" x="198.5" y="-133" font-family="Helvetica,sans-Serif" font-size="10.00">&lt; TemplateNodeTree &gt;</text>
</a>
</g>
</g>
<!-- Node0&#45;&gt;Node41 -->
<g id="edge42" class="edge"><title>Node0&#45;&gt;Node41</title>
<path fill="none" stroke="midnightblue" d="M41.9155,-561.999C45.7278,-487.325 62.7154,-226.051 116,-166 122.287,-158.915 130.524,-153.81 139.343,-150.138"/>
<polygon fill="midnightblue" stroke="midnightblue" points="38.4035,-562.164 41.4133,-572.323 45.3952,-562.505 38.4035,-562.164"/>
</g>
<!-- Node43 -->
<g id="node45" class="node"><title>Node43</title>
<g id="a_node45"><a xlink:href="d8/d78/class_template_node_creator.html" target="_top" xlink:title="TemplateNodeCreator\l\&lt; TemplateNodeWith \&gt;">
<polygon fill="white" stroke="black" points="139,-77 139,-107 258,-107 258,-77 139,-77"/>
<text text-anchor="start" x="147" y="-95" font-family="Helvetica,sans-Serif" font-size="10.00">TemplateNodeCreator</text>
<text text-anchor="middle" x="198.5" y="-84" font-family="Helvetica,sans-Serif" font-size="10.00">&lt; TemplateNodeWith &gt;</text>
</a>
</g>
</g>
<!-- Node0&#45;&gt;Node43 -->
<g id="edge44" class="edge"><title>Node0&#45;&gt;Node43</title>
<path fill="none" stroke="midnightblue" d="M41.4905,-562.258C43.8642,-482.511 56.621,-185.177 116,-117 122.124,-109.969 130.169,-104.884 138.82,-101.214"/>
<polygon fill="midnightblue" stroke="midnightblue" points="37.9881,-562.299 41.2113,-572.392 44.9855,-562.492 37.9881,-562.299"/>
</g>
<!-- Node45 -->
<g id="node47" class="node"><title>Node45</title>
<g id="a_node47"><a xlink:href="d9/daf/class_template_node_text.html" target="_top" xlink:title="Class representing a piece of plain text in a template. ">
<polygon fill="white" stroke="black" points="148.5,-38.5 148.5,-57.5 248.5,-57.5 248.5,-38.5 148.5,-38.5"/>
<text text-anchor="middle" x="198.5" y="-45.5" font-family="Helvetica,sans-Serif" font-size="10.00">TemplateNodeText</text>
</a>
</g>
</g>
<!-- Node0&#45;&gt;Node45 -->
<g id="edge46" class="edge"><title>Node0&#45;&gt;Node45</title>
<path fill="none" stroke="midnightblue" d="M41.0487,-562.014C41.6717,-476.494 48.4558,-142.342 116,-68 124.328,-58.8343 136.11,-53.5503 148.135,-50.5808"/>
<polygon fill="midnightblue" stroke="midnightblue" points="37.548,-562.164 40.9966,-572.182 44.5479,-562.2 37.548,-562.164"/>
</g>
<!-- Node46 -->
<g id="node48" class="node"><title>Node46</title>
<g id="a_node48"><a xlink:href="d9/d06/class_template_node_variable.html" target="_top" xlink:title="Class representing a variable in a template. ">
<polygon fill="white" stroke="black" points="140.5,-0.5 140.5,-19.5 256.5,-19.5 256.5,-0.5 140.5,-0.5"/>
<text text-anchor="middle" x="198.5" y="-7.5" font-family="Helvetica,sans-Serif" font-size="10.00">TemplateNodeVariable</text>
</a>
</g>
</g>
<!-- Node0&#45;&gt;Node46 -->
<g id="edge47" class="edge"><title>Node0&#45;&gt;Node46</title>
<path fill="none" stroke="midnightblue" d="M40.8005,-562.208C40.3164,-473.019 42.9128,-109.321 116,-29 122.454,-21.9077 130.997,-17.2096 140.123,-14.1424"/>
<polygon fill="midnightblue" stroke="midnightblue" points="37.3012,-562.334 40.8762,-572.307 44.301,-562.281 37.3012,-562.334"/>
</g>
<!-- Node4 -->
<g id="node6" class="node"><title>Node4</title>
<g id="a_node6"><a xlink:href="d2/de0/class_template_node_block.html" target="_top" xlink:title="Class representing a &#39;block&#39; tag in a template. ">
<polygon fill="white" stroke="black" points="338,-1062.5 338,-1081.5 443,-1081.5 443,-1062.5 338,-1062.5"/>
<text text-anchor="middle" x="390.5" y="-1069.5" font-family="Helvetica,sans-Serif" font-size="10.00">TemplateNodeBlock</text>
</a>
</g>
</g>
<!-- Node3&#45;&gt;Node4 -->
<g id="edge5" class="edge"><title>Node3&#45;&gt;Node4</title>
<path fill="none" stroke="midnightblue" d="M270.266,-1072C292.644,-1072 316.944,-1072 337.733,-1072"/>
<polygon fill="midnightblue" stroke="midnightblue" points="270.14,-1068.5 260.14,-1072 270.14,-1075.5 270.14,-1068.5"/>
</g>
<!-- Node6 -->
<g id="node8" class="node"><title>Node6</title>
<g id="a_node8"><a xlink:href="dd/dff/class_template_node_close_sub_index.html" target="_top" xlink:title="Class representing an &#39;closesubindex&#39; tag in a template. ">
<polygon fill="white" stroke="black" points="317,-1013.5 317,-1032.5 464,-1032.5 464,-1013.5 317,-1013.5"/>
<text text-anchor="middle" x="390.5" y="-1020.5" font-family="Helvetica,sans-Serif" font-size="10.00">TemplateNodeCloseSubIndex</text>
</a>
</g>
</g>
<!-- Node5&#45;&gt;Node6 -->
<g id="edge7" class="edge"><title>Node5&#45;&gt;Node6</title>
<path fill="none" stroke="midnightblue" d="M291.244,-1023C299.845,-1023 308.483,-1023 316.873,-1023"/>
<polygon fill="midnightblue" stroke="midnightblue" points="291.18,-1019.5 281.18,-1023 291.18,-1026.5 291.18,-1019.5"/>
</g>
<!-- Node8 -->
<g id="node10" class="node"><title>Node8</title>
<g id="a_node10"><a xlink:href="d5/dcd/class_template_node_create.html" target="_top" xlink:title="Class representing an &#39;create&#39; tag in a template. ">
<polygon fill="white" stroke="black" points="335.5,-964.5 335.5,-983.5 445.5,-983.5 445.5,-964.5 335.5,-964.5"/>
<text text-anchor="middle" x="390.5" y="-971.5" font-family="Helvetica,sans-Serif" font-size="10.00">TemplateNodeCreate</text>
</a>
</g>
</g>
<!-- Node7&#45;&gt;Node8 -->
<g id="edge9" class="edge"><title>Node7&#45;&gt;Node8</title>
<path fill="none" stroke="midnightblue" d="M272.595,-974C293.435,-974 315.762,-974 335.261,-974"/>
<polygon fill="midnightblue" stroke="midnightblue" points="272.503,-970.5 262.503,-974 272.503,-977.5 272.503,-970.5"/>
</g>
<!-- Node10 -->
<g id="node12" class="node"><title>Node10</title>
<g id="a_node12"><a xlink:href="d3/d37/class_template_node_cycle.html" target="_top" xlink:title="Class representing an &#39;cycle&#39; tag in a template. ">
<polygon fill="white" stroke="black" points="337.5,-915.5 337.5,-934.5 443.5,-934.5 443.5,-915.5 337.5,-915.5"/>
<text text-anchor="middle" x="390.5" y="-922.5" font-family="Helvetica,sans-Serif" font-size="10.00">TemplateNodeCycle</text>
</a>
</g>
</g>
<!-- Node9&#45;&gt;Node10 -->
<g id="edge11" class="edge"><title>Node9&#45;&gt;Node10</title>
<path fill="none" stroke="midnightblue" d="M270.685,-925C292.822,-925 316.803,-925 337.385,-925"/>
<polygon fill="midnightblue" stroke="midnightblue" points="270.663,-921.5 260.663,-925 270.663,-928.5 270.663,-921.5"/>
</g>
<!-- Node12 -->
<g id="node14" class="node"><title>Node12</title>
<g id="a_node14"><a xlink:href="d3/d38/class_template_node_encoding.html" target="_top" xlink:title="Class representing the &#39;encoding&#39; tag in a template. ">
<polygon fill="white" stroke="black" points="330,-866.5 330,-885.5 451,-885.5 451,-866.5 330,-866.5"/>
<text text-anchor="middle" x="390.5" y="-873.5" font-family="Helvetica,sans-Serif" font-size="10.00">TemplateNodeEncoding</text>
</a>
</g>
</g>
<!-- Node11&#45;&gt;Node12 -->
<g id="edge13" class="edge"><title>Node11&#45;&gt;Node12</title>
<path fill="none" stroke="midnightblue" d="M278.156,-876C295.422,-876 313.43,-876 329.806,-876"/>
<polygon fill="midnightblue" stroke="midnightblue" points="278.094,-872.5 268.094,-876 278.094,-879.5 278.094,-872.5"/>
</g>
<!-- Node14 -->
<g id="node16" class="node"><title>Node14</title>
<g id="a_node16"><a xlink:href="d0/d21/class_template_node_extend.html" target="_top" xlink:title="Class representing a &#39;extend&#39; tag in a template. ">
<polygon fill="white" stroke="black" points="335,-817.5 335,-836.5 446,-836.5 446,-817.5 335,-817.5"/>
<text text-anchor="middle" x="390.5" y="-824.5" font-family="Helvetica,sans-Serif" font-size="10.00">TemplateNodeExtend</text>
</a>
</g>
</g>
<!-- Node13&#45;&gt;Node14 -->
<g id="edge15" class="edge"><title>Node13&#45;&gt;Node14</title>
<path fill="none" stroke="midnightblue" d="M273.294,-827C293.815,-827 315.727,-827 334.93,-827"/>
<polygon fill="midnightblue" stroke="midnightblue" points="273.031,-823.5 263.031,-827 273.031,-830.5 273.031,-823.5"/>
</g>
<!-- Node16 -->
<g id="node18" class="node"><title>Node16</title>
<g id="a_node18"><a xlink:href="d5/da1/class_template_node_for.html" target="_top" xlink:title="Class representing a &#39;for&#39; tag in a template. ">
<polygon fill="white" stroke="black" points="343,-768.5 343,-787.5 438,-787.5 438,-768.5 343,-768.5"/>
<text text-anchor="middle" x="390.5" y="-775.5" font-family="Helvetica,sans-Serif" font-size="10.00">TemplateNodeFor</text>
</a>
</g>
</g>
<!-- Node15&#45;&gt;Node16 -->
<g id="edge17" class="edge"><title>Node15&#45;&gt;Node16</title>
<path fill="none" stroke="midnightblue" d="M265.544,-778C290.992,-778 319.504,-778 342.761,-778"/>
<polygon fill="midnightblue" stroke="midnightblue" points="265.223,-774.5 255.222,-778 265.222,-781.5 265.223,-774.5"/>
</g>
<!-- Node18 -->
<g id="node20" class="node"><title>Node18</title>
<g id="a_node20"><a xlink:href="d8/d38/class_template_node_if.html" target="_top" xlink:title="Class representing an &#39;if&#39; tag in a template. ">
<polygon fill="white" stroke="black" points="347.5,-719.5 347.5,-738.5 433.5,-738.5 433.5,-719.5 347.5,-719.5"/>
<text text-anchor="middle" x="390.5" y="-726.5" font-family="Helvetica,sans-Serif" font-size="10.00">TemplateNodeIf</text>
</a>
</g>
</g>
<!-- Node17&#45;&gt;Node18 -->
<g id="edge19" class="edge"><title>Node17&#45;&gt;Node18</title>
<path fill="none" stroke="midnightblue" d="M265.447,-729C292.628,-729 323.32,-729 347.376,-729"/>
<polygon fill="midnightblue" stroke="midnightblue" points="265.223,-725.5 255.222,-729 265.222,-732.5 265.223,-725.5"/>
</g>
<!-- Node20 -->
<g id="node22" class="node"><title>Node20</title>
<g id="a_node22"><a xlink:href="da/d4b/class_template_node_include.html" target="_top" xlink:title="Class representing an &#39;include&#39; tag in a template. ">
<polygon fill="white" stroke="black" points="334.5,-670.5 334.5,-689.5 446.5,-689.5 446.5,-670.5 334.5,-670.5"/>
<text text-anchor="middle" x="390.5" y="-677.5" font-family="Helvetica,sans-Serif" font-size="10.00">TemplateNodeInclude</text>
</a>
</g>
</g>
<!-- Node19&#45;&gt;Node20 -->
<g id="edge21" class="edge"><title>Node19&#45;&gt;Node20</title>
<path fill="none" stroke="midnightblue" d="M273.661,-680C293.849,-680 315.357,-680 334.291,-680"/>
<polygon fill="midnightblue" stroke="midnightblue" points="273.56,-676.5 263.56,-680 273.56,-683.5 273.56,-676.5"/>
</g>
<!-- Node22 -->
<g id="node24" class="node"><title>Node22</title>
<g id="a_node24"><a xlink:href="da/ddd/class_template_node_index_entry.html" target="_top" xlink:title="Class representing an &#39;indexentry&#39; tag in a template. ">
<polygon fill="white" stroke="black" points="326.5,-621.5 326.5,-640.5 454.5,-640.5 454.5,-621.5 326.5,-621.5"/>
<text text-anchor="middle" x="390.5" y="-628.5" font-family="Helvetica,sans-Serif" font-size="10.00">TemplateNodeIndexEntry</text>
</a>
</g>
</g>
<!-- Node21&#45;&gt;Node22 -->
<g id="edge23" class="edge"><title>Node21&#45;&gt;Node22</title>
<path fill="none" stroke="midnightblue" d="M281.864,-631C296.811,-631 312.184,-631 326.466,-631"/>
<polygon fill="midnightblue" stroke="midnightblue" points="281.602,-627.5 271.602,-631 281.602,-634.5 281.602,-627.5"/>
</g>
<!-- Node24 -->
<g id="node26" class="node"><title>Node24</title>
<g id="a_node26"><a xlink:href="d9/d8f/class_template_node_markers.html" target="_top" xlink:title="Class representing an &#39;markers&#39; tag in a template. ">
<polygon fill="white" stroke="black" points="332.5,-572.5 332.5,-591.5 448.5,-591.5 448.5,-572.5 332.5,-572.5"/>
<text text-anchor="middle" x="390.5" y="-579.5" font-family="Helvetica,sans-Serif" font-size="10.00">TemplateNodeMarkers</text>
</a>
</g>
</g>
<!-- Node23&#45;&gt;Node24 -->
<g id="edge25" class="edge"><title>Node23&#45;&gt;Node24</title>
<path fill="none" stroke="midnightblue" d="M275.759,-582C294.66,-582 314.592,-582 332.399,-582"/>
<polygon fill="midnightblue" stroke="midnightblue" points="275.686,-578.5 265.686,-582 275.686,-585.5 275.686,-578.5"/>
</g>
<!-- Node26 -->
<g id="node28" class="node"><title>Node26</title>
<g id="a_node28"><a xlink:href="d4/d50/class_template_node_msg.html" target="_top" xlink:title="Class representing an &#39;markers&#39; tag in a template. ">
<polygon fill="white" stroke="black" points="341,-523.5 341,-542.5 440,-542.5 440,-523.5 341,-523.5"/>
<text text-anchor="middle" x="390.5" y="-530.5" font-family="Helvetica,sans-Serif" font-size="10.00">TemplateNodeMsg</text>
</a>
</g>
</g>
<!-- Node25&#45;&gt;Node26 -->
<g id="edge27" class="edge"><title>Node25&#45;&gt;Node26</title>
<path fill="none" stroke="midnightblue" d="M267.257,-533C291.56,-533 318.461,-533 340.826,-533"/>
<polygon fill="midnightblue" stroke="midnightblue" points="267.022,-529.5 257.022,-533 267.022,-536.5 267.022,-529.5"/>
</g>
<!-- Node28 -->
<g id="node30" class="node"><title>Node28</title>
<g id="a_node30"><a xlink:href="d6/d20/class_template_node_open_sub_index.html" target="_top" xlink:title="Class representing an &#39;opensubindex&#39; tag in a template. ">
<polygon fill="white" stroke="black" points="318,-474.5 318,-493.5 463,-493.5 463,-474.5 318,-474.5"/>
<text text-anchor="middle" x="390.5" y="-481.5" font-family="Helvetica,sans-Serif" font-size="10.00">TemplateNodeOpenSubIndex</text>
</a>
</g>
</g>
<!-- Node27&#45;&gt;Node28 -->
<g id="edge29" class="edge"><title>Node27&#45;&gt;Node28</title>
<path fill="none" stroke="midnightblue" d="M290.127,-484C299.424,-484 308.778,-484 317.83,-484"/>
<polygon fill="midnightblue" stroke="midnightblue" points="290.077,-480.5 280.077,-484 290.077,-487.5 290.077,-480.5"/>
</g>
<!-- Node30 -->
<g id="node32" class="node"><title>Node30</title>
<g id="a_node32"><a xlink:href="d6/d83/class_template_node_range.html" target="_top" xlink:title="Class representing a &#39;range&#39; tag in a template. ">
<polygon fill="white" stroke="black" points="336,-425.5 336,-444.5 445,-444.5 445,-425.5 336,-425.5"/>
<text text-anchor="middle" x="390.5" y="-432.5" font-family="Helvetica,sans-Serif" font-size="10.00">TemplateNodeRange</text>
</a>
</g>
</g>
<!-- Node29&#45;&gt;Node30 -->
<g id="edge31" class="edge"><title>Node29&#45;&gt;Node30</title>
<path fill="none" stroke="midnightblue" d="M272.434,-435C293.49,-435 316.078,-435 335.74,-435"/>
<polygon fill="midnightblue" stroke="midnightblue" points="272.24,-431.5 262.24,-435 272.24,-438.5 272.24,-431.5"/>
</g>
<!-- Node32 -->
<g id="node34" class="node"><title>Node32</title>
<g id="a_node34"><a xlink:href="db/d54/class_template_node_repeat.html" target="_top" xlink:title="Class representing a &#39;for&#39; tag in a template. ">
<polygon fill="white" stroke="black" points="334.5,-376.5 334.5,-395.5 446.5,-395.5 446.5,-376.5 334.5,-376.5"/>
<text text-anchor="middle" x="390.5" y="-383.5" font-family="Helvetica,sans-Serif" font-size="10.00">TemplateNodeRepeat</text>
</a>
</g>
</g>
<!-- Node31&#45;&gt;Node32 -->
<g id="edge33" class="edge"><title>Node31&#45;&gt;Node32</title>
<path fill="none" stroke="midnightblue" d="M273.661,-386C293.849,-386 315.357,-386 334.291,-386"/>
<polygon fill="midnightblue" stroke="midnightblue" points="273.56,-382.5 263.56,-386 273.56,-389.5 273.56,-382.5"/>
</g>
<!-- Node34 -->
<g id="node36" class="node"><title>Node34</title>
<g id="a_node36"><a xlink:href="d8/d57/class_template_node_resource.html" target="_top" xlink:title="Class representing an &#39;markers&#39; tag in a template. ">
<polygon fill="white" stroke="black" points="329.5,-327.5 329.5,-346.5 451.5,-346.5 451.5,-327.5 329.5,-327.5"/>
<text text-anchor="middle" x="390.5" y="-334.5" font-family="Helvetica,sans-Serif" font-size="10.00">TemplateNodeResource</text>
</a>
</g>
</g>
<!-- Node33&#45;&gt;Node34 -->
<g id="edge35" class="edge"><title>Node33&#45;&gt;Node34</title>
<path fill="none" stroke="midnightblue" d="M278.988,-337C295.789,-337 313.256,-337 329.208,-337"/>
<polygon fill="midnightblue" stroke="midnightblue" points="278.632,-333.5 268.632,-337 278.632,-340.5 278.632,-333.5"/>
</g>
<!-- Node36 -->
<g id="node38" class="node"><title>Node36</title>
<g id="a_node38"><a xlink:href="d3/d86/class_template_node_set.html" target="_top" xlink:title="Class representing an &#39;set&#39; tag in a template. ">
<polygon fill="white" stroke="black" points="343,-278.5 343,-297.5 438,-297.5 438,-278.5 343,-278.5"/>
<text text-anchor="middle" x="390.5" y="-285.5" font-family="Helvetica,sans-Serif" font-size="10.00">TemplateNodeSet</text>
</a>
</g>
</g>
<!-- Node35&#45;&gt;Node36 -->
<g id="edge37" class="edge"><title>Node35&#45;&gt;Node36</title>
<path fill="none" stroke="midnightblue" d="M265.544,-288C290.992,-288 319.504,-288 342.761,-288"/>
<polygon fill="midnightblue" stroke="midnightblue" points="265.223,-284.5 255.222,-288 265.222,-291.5 265.223,-284.5"/>
</g>
<!-- Node38 -->
<g id="node40" class="node"><title>Node38</title>
<g id="a_node40"><a xlink:href="df/dc6/class_template_node_spaceless.html" target="_top" xlink:title="Class representing an &#39;spaceless&#39; tag in a template. ">
<polygon fill="white" stroke="black" points="327.5,-229.5 327.5,-248.5 453.5,-248.5 453.5,-229.5 327.5,-229.5"/>
<text text-anchor="middle" x="390.5" y="-236.5" font-family="Helvetica,sans-Serif" font-size="10.00">TemplateNodeSpaceless</text>
</a>
</g>
</g>
<!-- Node37&#45;&gt;Node38 -->
<g id="edge39" class="edge"><title>Node37&#45;&gt;Node38</title>
<path fill="none" stroke="midnightblue" d="M280.686,-239C296.296,-239 312.415,-239 327.307,-239"/>
<polygon fill="midnightblue" stroke="midnightblue" points="280.519,-235.5 270.519,-239 280.519,-242.5 280.519,-235.5"/>
</g>
<!-- Node40 -->
<g id="node42" class="node"><title>Node40</title>
<g id="a_node42"><a xlink:href="da/da1/class_template_node_tabbing.html" target="_top" xlink:title="Class representing an &#39;tabbing&#39; tag in a template. ">
<polygon fill="white" stroke="black" points="333,-180.5 333,-199.5 448,-199.5 448,-180.5 333,-180.5"/>
<text text-anchor="middle" x="390.5" y="-187.5" font-family="Helvetica,sans-Serif" font-size="10.00">TemplateNodeTabbing</text>
</a>
</g>
</g>
<!-- Node39&#45;&gt;Node40 -->
<g id="edge41" class="edge"><title>Node39&#45;&gt;Node40</title>
<path fill="none" stroke="midnightblue" d="M275.346,-190C294.48,-190 314.695,-190 332.71,-190"/>
<polygon fill="midnightblue" stroke="midnightblue" points="275.153,-186.5 265.153,-190 275.153,-193.5 275.153,-186.5"/>
</g>
<!-- Node42 -->
<g id="node44" class="node"><title>Node42</title>
<g id="a_node44"><a xlink:href="d8/d31/class_template_node_tree.html" target="_top" xlink:title="Class representing an &#39;tree&#39; tag in a template. ">
<polygon fill="white" stroke="black" points="340.5,-131.5 340.5,-150.5 440.5,-150.5 440.5,-131.5 340.5,-131.5"/>
<text text-anchor="middle" x="390.5" y="-138.5" font-family="Helvetica,sans-Serif" font-size="10.00">TemplateNodeTree</text>
</a>
</g>
</g>
<!-- Node41&#45;&gt;Node42 -->
<g id="edge43" class="edge"><title>Node41&#45;&gt;Node42</title>
<path fill="none" stroke="midnightblue" d="M267.677,-141C291.736,-141 318.295,-141 340.458,-141"/>
<polygon fill="midnightblue" stroke="midnightblue" points="267.539,-137.5 257.539,-141 267.539,-144.5 267.539,-137.5"/>
</g>
<!-- Node44 -->
<g id="node46" class="node"><title>Node44</title>
<g id="a_node46"><a xlink:href="d6/df7/class_template_node_with.html" target="_top" xlink:title="Class representing an &#39;with&#39; tag in a template. ">
<polygon fill="white" stroke="black" points="340,-82.5 340,-101.5 441,-101.5 441,-82.5 340,-82.5"/>
<text text-anchor="middle" x="390.5" y="-89.5" font-family="Helvetica,sans-Serif" font-size="10.00">TemplateNodeWith</text>
</a>
</g>
</g>
<!-- Node43&#45;&gt;Node44 -->
<g id="edge45" class="edge"><title>Node43&#45;&gt;Node44</title>
<path fill="none" stroke="midnightblue" d="M268.372,-92C292.002,-92 317.97,-92 339.781,-92"/>
<polygon fill="midnightblue" stroke="midnightblue" points="268.057,-88.5001 258.057,-92 268.057,-95.5001 268.057,-88.5001"/>
</g>
</g>
</svg>
