<?xml version="1.0" encoding="UTF-8" standalone="no"?>
<!DOCTYPE svg PUBLIC "-//W3C//DTD SVG 1.1//EN"
 "http://www.w3.org/Graphics/SVG/1.1/DTD/svg11.dtd">
<!-- Generated by graphviz version 2.38.0 (20140413.2041)
 -->
<!-- Title: Graphical Class Hierarchy Pages: 1 -->
<svg width="218pt" height="104pt"
 viewBox="0.00 0.00 218.00 104.00" xmlns="http://www.w3.org/2000/svg" xmlns:xlink="http://www.w3.org/1999/xlink">
<g id="graph0" class="graph" transform="scale(1 1) rotate(0) translate(4 100)">
<title>Graphical Class Hierarchy</title>
<polygon fill="white" stroke="none" points="-4,4 -4,-100 214,-100 214,4 -4,4"/>
<!-- Node437 -->
<g id="node1" class="node"><title>Node437</title>
<polygon fill="white" stroke="#bfbfbf" points="0,-38.5 0,-57.5 53,-57.5 53,-38.5 0,-38.5"/>
<text text-anchor="middle" x="26.5" y="-45.5" font-family="Helvetica,sans-Serif" font-size="10.00">QIntDict</text>
</g>
<!-- Node0 -->
<g id="node2" class="node"><title>Node0</title>
<g id="a_node2"><a xlink:href="dc/d93/class_docbook_section_mapper.html" target="_top" xlink:title="DocbookSectionMapper">
<polygon fill="white" stroke="black" points="89,-76.5 89,-95.5 210,-95.5 210,-76.5 89,-76.5"/>
<text text-anchor="middle" x="149.5" y="-83.5" font-family="Helvetica,sans-Serif" font-size="10.00">DocbookSectionMapper</text>
</a>
</g>
</g>
<!-- Node437&#45;&gt;Node0 -->
<g id="edge1" class="edge"><title>Node437&#45;&gt;Node0</title>
<path fill="none" stroke="midnightblue" d="M63.0215,-59.1555C80.5299,-64.654 101.424,-71.2157 118.172,-76.4754"/>
<polygon fill="midnightblue" stroke="midnightblue" points="63.7503,-55.7159 53.161,-56.0588 61.6529,-62.3943 63.7503,-55.7159"/>
</g>
<!-- Node439 -->
<g id="node3" class="node"><title>Node439</title>
<g id="a_node3"><a xlink:href="d4/de4/class_generics_collection.html" target="_top" xlink:title="GenericsCollection">
<polygon fill="white" stroke="black" points="100,-38.5 100,-57.5 199,-57.5 199,-38.5 100,-38.5"/>
<text text-anchor="middle" x="149.5" y="-45.5" font-family="Helvetica,sans-Serif" font-size="10.00">GenericsCollection</text>
</a>
</g>
</g>
<!-- Node437&#45;&gt;Node439 -->
<g id="edge2" class="edge"><title>Node437&#45;&gt;Node439</title>
<path fill="none" stroke="midnightblue" d="M63.2475,-48C74.7372,-48 87.6663,-48 99.9166,-48"/>
<polygon fill="midnightblue" stroke="midnightblue" points="63.161,-44.5001 53.161,-48 63.161,-51.5001 63.161,-44.5001"/>
</g>
<!-- Node440 -->
<g id="node4" class="node"><title>Node440</title>
<g id="a_node4"><a xlink:href="d8/d78/class_xml_section_mapper.html" target="_top" xlink:title="Helper class mapping MemberList::ListType to a string representing. ">
<polygon fill="white" stroke="black" points="100,-0.5 100,-19.5 199,-19.5 199,-0.5 100,-0.5"/>
<text text-anchor="middle" x="149.5" y="-7.5" font-family="Helvetica,sans-Serif" font-size="10.00">XmlSectionMapper</text>
</a>
</g>
</g>
<!-- Node437&#45;&gt;Node440 -->
<g id="edge3" class="edge"><title>Node437&#45;&gt;Node440</title>
<path fill="none" stroke="midnightblue" d="M63.0215,-36.8445C80.5299,-31.346 101.424,-24.7843 118.172,-19.5246"/>
<polygon fill="midnightblue" stroke="midnightblue" points="61.6529,-33.6057 53.161,-39.9412 63.7503,-40.2841 61.6529,-33.6057"/>
</g>
</g>
</svg>
