<?xml version="1.0" encoding="UTF-8" standalone="no"?>
<!DOCTYPE svg PUBLIC "-//W3C//DTD SVG 1.1//EN"
 "http://www.w3.org/Graphics/SVG/1.1/DTD/svg11.dtd">
<!-- Generated by graphviz version 2.38.0 (20140413.2041)
 -->
<!-- Title: Graphical Class Hierarchy Pages: 1 -->
<svg width="253pt" height="66pt"
 viewBox="0.00 0.00 253.00 66.00" xmlns="http://www.w3.org/2000/svg" xmlns:xlink="http://www.w3.org/1999/xlink">
<g id="graph0" class="graph" transform="scale(1 1) rotate(0) translate(4 62)">
<title>Graphical Class Hierarchy</title>
<polygon fill="white" stroke="none" points="-4,4 -4,-62 249,-62 249,4 -4,4"/>
<!-- Node442 -->
<g id="node1" class="node"><title>Node442</title>
<polygon fill="white" stroke="#bfbfbf" points="0,-19.5 0,-38.5 73,-38.5 73,-19.5 0,-19.5"/>
<text text-anchor="middle" x="36.5" y="-26.5" font-family="Helvetica,sans-Serif" font-size="10.00">QDictIterator</text>
</g>
<!-- Node0 -->
<g id="node2" class="node"><title>Node0</title>
<g id="a_node2"><a xlink:href="d9/d7c/class_constraint_class_dict_iterator.html" target="_top" xlink:title="Iterator class to iterate over a dictionary of constraint relations. ">
<polygon fill="white" stroke="black" points="109,-38.5 109,-57.5 245,-57.5 245,-38.5 109,-38.5"/>
<text text-anchor="middle" x="177" y="-45.5" font-family="Helvetica,sans-Serif" font-size="10.00">ConstraintClassDictIterator</text>
</a>
</g>
</g>
<!-- Node442&#45;&gt;Node0 -->
<g id="edge1" class="edge"><title>Node442&#45;&gt;Node0</title>
<path fill="none" stroke="midnightblue" d="M83.2983,-35.2828C91.5415,-36.4136 100.287,-37.6134 108.986,-38.8068"/>
<polygon fill="midnightblue" stroke="midnightblue" points="83.5501,-31.7846 73.1672,-33.893 82.5987,-38.7197 83.5501,-31.7846"/>
</g>
<!-- Node444 -->
<g id="node3" class="node"><title>Node444</title>
<g id="a_node3"><a xlink:href="df/d88/class_uses_class_dict_iterator.html" target="_top" xlink:title="Iterator class to iterate over a dictionary of usage relations. ">
<polygon fill="white" stroke="black" points="120,-0.5 120,-19.5 234,-19.5 234,-0.5 120,-0.5"/>
<text text-anchor="middle" x="177" y="-7.5" font-family="Helvetica,sans-Serif" font-size="10.00">UsesClassDictIterator</text>
</a>
</g>
</g>
<!-- Node442&#45;&gt;Node444 -->
<g id="edge2" class="edge"><title>Node442&#45;&gt;Node444</title>
<path fill="none" stroke="midnightblue" d="M83.1519,-22.7373C94.8584,-21.1313 107.587,-19.3852 119.759,-17.7154"/>
<polygon fill="midnightblue" stroke="midnightblue" points="82.5987,-19.2803 73.1672,-24.107 83.5501,-26.2154 82.5987,-19.2803"/>
</g>
</g>
</svg>
