<?xml version="1.0" encoding="UTF-8" standalone="no"?>
<!DOCTYPE svg PUBLIC "-//W3C//DTD SVG 1.1//EN"
 "http://www.w3.org/Graphics/SVG/1.1/DTD/svg11.dtd">
<!-- Generated by graphviz version 2.38.0 (20140413.2041)
 -->
<!-- Title: ExprAstUnary Pages: 1 -->
<svg width="86pt" height="95pt"
 viewBox="0.00 0.00 86.00 95.00" xmlns="http://www.w3.org/2000/svg" xmlns:xlink="http://www.w3.org/1999/xlink">
<g id="graph0" class="graph" transform="scale(1 1) rotate(0) translate(4 91)">
<title>ExprAstUnary</title>
<polygon fill="white" stroke="none" points="-4,4 -4,-91 82,-91 82,4 -4,4"/>
<!-- Node2 -->
<g id="node1" class="node"><title>Node2</title>
<polygon fill="#bfbfbf" stroke="black" points="0,-0.5 0,-19.5 78,-19.5 78,-0.5 0,-0.5"/>
<text text-anchor="middle" x="39" y="-7.5" font-family="Helvetica,sans-Serif" font-size="10.00">ExprAstUnary</text>
</g>
<!-- Node3 -->
<g id="node2" class="node"><title>Node3</title>
<g id="a_node2"><a xlink:href="../../dc/dfa/class_expr_ast.html" target="_top" xlink:title="Base class for all nodes in the abstract syntax tree of an expression. ">
<polygon fill="white" stroke="black" points="13,-67.5 13,-86.5 65,-86.5 65,-67.5 13,-67.5"/>
<text text-anchor="middle" x="39" y="-74.5" font-family="Helvetica,sans-Serif" font-size="10.00">ExprAst</text>
</a>
</g>
</g>
<!-- Node3&#45;&gt;Node2 -->
<g id="edge1" class="edge"><title>Node3&#45;&gt;Node2</title>
<path fill="none" stroke="midnightblue" d="M37.4399,-57.3825C37.2572,-54.5753 37.1003,-51.7126 37,-49 36.6288,-38.9652 37.4035,-27.4502 38.0942,-19.7505"/>
<polygon fill="midnightblue" stroke="midnightblue" points="33.9607,-57.7906 38.2083,-67.4967 40.9406,-57.2602 33.9607,-57.7906"/>
</g>
<!-- Node3&#45;&gt;Node2 -->
<g id="edge2" class="edge"><title>Node3&#45;&gt;Node2</title>
<path fill="none" stroke="#9a32cd" stroke-dasharray="5,2" d="M39,-57.037C39,-44.6703 39,-29.1198 39,-19.6273"/>
<polygon fill="#9a32cd" stroke="#9a32cd" points="35.5001,-57.2338 39,-67.2338 42.5001,-57.2338 35.5001,-57.2338"/>
<text text-anchor="middle" x="55.5" y="-41" font-family="Helvetica,sans-Serif" font-size="10.00"> m_exp</text>
</g>
</g>
</svg>
