<?xml version="1.0" encoding="UTF-8" standalone="no"?>
<!DOCTYPE svg PUBLIC "-//W3C//DTD SVG 1.1//EN"
 "http://www.w3.org/Graphics/SVG/1.1/DTD/svg11.dtd">
<!-- Generated by graphviz version 2.38.0 (20140413.2041)
 -->
<!-- Title: src/searchindex.h Pages: 1 -->
<svg width="695pt" height="252pt"
 viewBox="0.00 0.00 695.36 252.00" xmlns="http://www.w3.org/2000/svg" xmlns:xlink="http://www.w3.org/1999/xlink">
<g id="graph0" class="graph" transform="scale(1 1) rotate(0) translate(4 248)">
<title>src/searchindex.h</title>
<polygon fill="white" stroke="none" points="-4,4 -4,-248 691.363,-248 691.363,4 -4,4"/>
<!-- Node0 -->
<g id="node1" class="node"><title>Node0</title>
<polygon fill="#bfbfbf" stroke="black" points="129,-224.5 129,-243.5 223,-243.5 223,-224.5 129,-224.5"/>
<text text-anchor="middle" x="176" y="-231.5" font-family="Helvetica,sans-Serif" font-size="10.00">src/searchindex.h</text>
</g>
<!-- Node1 -->
<g id="node2" class="node"><title>Node1</title>
<polygon fill="white" stroke="#bfbfbf" points="0,-56.5 0,-75.5 56,-75.5 56,-56.5 0,-56.5"/>
<text text-anchor="middle" x="28" y="-63.5" font-family="Helvetica,sans-Serif" font-size="10.00">qintdict.h</text>
</g>
<!-- Node0&#45;&gt;Node1 -->
<g id="edge1" class="edge"><title>Node0&#45;&gt;Node1</title>
<path fill="none" stroke="midnightblue" d="M154.108,-224.391C135.837,-216.568 109.697,-203.841 90,-188 64.6795,-167.636 57.4986,-161.079 43,-132 35.733,-117.425 31.9236,-99.2489 29.9659,-85.826"/>
<polygon fill="midnightblue" stroke="midnightblue" points="33.4327,-85.3419 28.7217,-75.8521 26.4865,-86.2085 33.4327,-85.3419"/>
</g>
<!-- Node2 -->
<g id="node3" class="node"><title>Node2</title>
<polygon fill="white" stroke="#bfbfbf" points="278.5,-0.5 278.5,-19.5 321.5,-19.5 321.5,-0.5 278.5,-0.5"/>
<text text-anchor="middle" x="300" y="-7.5" font-family="Helvetica,sans-Serif" font-size="10.00">qlist.h</text>
</g>
<!-- Node0&#45;&gt;Node2 -->
<g id="edge2" class="edge"><title>Node0&#45;&gt;Node2</title>
<path fill="none" stroke="midnightblue" d="M185.358,-224.256C193.853,-215.788 206.079,-202.179 213,-188 228.183,-156.895 216.106,-143.701 230,-112 244.259,-79.4657 269.581,-46.5276 285.543,-27.4732"/>
<polygon fill="midnightblue" stroke="midnightblue" points="288.31,-29.623 292.146,-19.7468 282.988,-25.0756 288.31,-29.623"/>
</g>
<!-- Node3 -->
<g id="node4" class="node"><title>Node3</title>
<polygon fill="white" stroke="#bfbfbf" points="115,-56.5 115,-75.5 161,-75.5 161,-56.5 115,-56.5"/>
<text text-anchor="middle" x="138" y="-63.5" font-family="Helvetica,sans-Serif" font-size="10.00">qdict.h</text>
</g>
<!-- Node0&#45;&gt;Node3 -->
<g id="edge3" class="edge"><title>Node0&#45;&gt;Node3</title>
<path fill="none" stroke="midnightblue" d="M165.286,-224.305C156.062,-216.069 143.409,-202.789 138,-188 125.417,-153.596 129.977,-109.918 134.163,-85.5638"/>
<polygon fill="midnightblue" stroke="midnightblue" points="137.636,-86.0368 136.054,-75.5606 130.757,-84.7363 137.636,-86.0368"/>
</g>
<!-- Node4 -->
<g id="node5" class="node"><title>Node4</title>
<polygon fill="white" stroke="#bfbfbf" points="147.5,-168.5 147.5,-187.5 204.5,-187.5 204.5,-168.5 147.5,-168.5"/>
<text text-anchor="middle" x="176" y="-175.5" font-family="Helvetica,sans-Serif" font-size="10.00">qvector.h</text>
</g>
<!-- Node0&#45;&gt;Node4 -->
<g id="edge4" class="edge"><title>Node0&#45;&gt;Node4</title>
<path fill="none" stroke="midnightblue" d="M176,-224.083C176,-217.006 176,-206.861 176,-197.986"/>
<polygon fill="midnightblue" stroke="midnightblue" points="179.5,-197.751 176,-187.751 172.5,-197.751 179.5,-197.751"/>
</g>
<!-- Node5 -->
<g id="node6" class="node"><title>Node5</title>
<g id="a_node6"><a xlink:href="../../d9/d21/sortdict_8h.html" target="_top" xlink:title="sortdict.h">
<polygon fill="white" stroke="black" points="52.5,-112.5 52.5,-131.5 109.5,-131.5 109.5,-112.5 52.5,-112.5"/>
<text text-anchor="middle" x="81" y="-119.5" font-family="Helvetica,sans-Serif" font-size="10.00">sortdict.h</text>
</a>
</g>
</g>
<!-- Node0&#45;&gt;Node5 -->
<g id="edge5" class="edge"><title>Node0&#45;&gt;Node5</title>
<path fill="none" stroke="midnightblue" d="M155.358,-224.393C139.604,-216.877 118.394,-204.57 105,-188 94.1401,-174.565 87.9119,-155.748 84.5363,-141.816"/>
<polygon fill="midnightblue" stroke="midnightblue" points="87.9258,-140.929 82.4068,-131.886 81.0814,-142.397 87.9258,-140.929"/>
</g>
<!-- Node6 -->
<g id="node7" class="node"><title>Node6</title>
<g id="a_node7"><a xlink:href="../../df/da1/definition_8h.html" target="_top" xlink:title="definition.h">
<polygon fill="white" stroke="black" points="239,-112.5 239,-131.5 303,-131.5 303,-112.5 239,-112.5"/>
<text text-anchor="middle" x="271" y="-119.5" font-family="Helvetica,sans-Serif" font-size="10.00">definition.h</text>
</a>
</g>
</g>
<!-- Node0&#45;&gt;Node6 -->
<g id="edge9" class="edge"><title>Node0&#45;&gt;Node6</title>
<path fill="none" stroke="midnightblue" d="M196.642,-224.393C212.396,-216.877 233.606,-204.57 247,-188 257.86,-174.565 264.088,-155.748 267.464,-141.816"/>
<polygon fill="midnightblue" stroke="midnightblue" points="270.919,-142.397 269.593,-131.886 264.074,-140.929 270.919,-142.397"/>
</g>
<!-- Node9 -->
<g id="node10" class="node"><title>Node9</title>
<g id="a_node10"><a xlink:href="../../d8/d3c/util_8h.html" target="_top" xlink:title="A bunch of utility functions. ">
<polygon fill="white" stroke="black" points="338,-168.5 338,-187.5 376,-187.5 376,-168.5 338,-168.5"/>
<text text-anchor="middle" x="357" y="-175.5" font-family="Helvetica,sans-Serif" font-size="10.00">util.h</text>
</a>
</g>
</g>
<!-- Node0&#45;&gt;Node9 -->
<g id="edge14" class="edge"><title>Node0&#45;&gt;Node9</title>
<path fill="none" stroke="midnightblue" d="M204.68,-224.444C238.466,-214.364 294.271,-197.715 328.136,-187.611"/>
<polygon fill="midnightblue" stroke="midnightblue" points="329.311,-190.913 337.893,-184.7 327.31,-184.205 329.311,-190.913"/>
</g>
<!-- Node5&#45;&gt;Node1 -->
<g id="edge8" class="edge"><title>Node5&#45;&gt;Node1</title>
<path fill="none" stroke="midnightblue" d="M72.2481,-112.083C64.5303,-104.22 53.0953,-92.5688 43.7835,-83.0813"/>
<polygon fill="midnightblue" stroke="midnightblue" points="46.0916,-80.4363 36.589,-75.7511 41.0958,-85.3396 46.0916,-80.4363"/>
</g>
<!-- Node5&#45;&gt;Node2 -->
<g id="edge6" class="edge"><title>Node5&#45;&gt;Node2</title>
<path fill="none" stroke="midnightblue" d="M81.7791,-112.388C83.5225,-98.3833 89.0305,-70.757 106,-56 130.002,-35.1271 219.721,-21.012 268.29,-14.7233"/>
<polygon fill="midnightblue" stroke="midnightblue" points="268.79,-18.188 278.274,-13.4658 267.915,-11.2429 268.79,-18.188"/>
</g>
<!-- Node5&#45;&gt;Node3 -->
<g id="edge7" class="edge"><title>Node5&#45;&gt;Node3</title>
<path fill="none" stroke="midnightblue" d="M90.158,-112.324C98.5015,-104.42 111.032,-92.5482 121.177,-82.9377"/>
<polygon fill="midnightblue" stroke="midnightblue" points="123.823,-85.2522 128.675,-75.8339 119.009,-80.1705 123.823,-85.2522"/>
</g>
<!-- Node6&#45;&gt;Node2 -->
<g id="edge10" class="edge"><title>Node6&#45;&gt;Node2</title>
<path fill="none" stroke="midnightblue" d="M273.276,-112.368C277.977,-94.5366 288.849,-53.2953 295.183,-29.2717"/>
<polygon fill="midnightblue" stroke="midnightblue" points="298.57,-30.1533 297.735,-19.5914 291.801,-28.3688 298.57,-30.1533"/>
</g>
<!-- Node6&#45;&gt;Node3 -->
<g id="edge11" class="edge"><title>Node6&#45;&gt;Node3</title>
<path fill="none" stroke="midnightblue" d="M249.926,-112.444C227.94,-103.517 193.266,-89.4387 168.336,-79.3168"/>
<polygon fill="midnightblue" stroke="midnightblue" points="169.558,-76.0355 158.976,-75.5164 166.924,-82.5213 169.558,-76.0355"/>
</g>
<!-- Node7 -->
<g id="node8" class="node"><title>Node7</title>
<g id="a_node8"><a xlink:href="../../d9/d49/types_8h.html" target="_top" xlink:title="This file contains a number of basic enums and types. ">
<polygon fill="white" stroke="black" points="353.5,-56.5 353.5,-75.5 402.5,-75.5 402.5,-56.5 353.5,-56.5"/>
<text text-anchor="middle" x="378" y="-63.5" font-family="Helvetica,sans-Serif" font-size="10.00">types.h</text>
</a>
</g>
</g>
<!-- Node6&#45;&gt;Node7 -->
<g id="edge12" class="edge"><title>Node6&#45;&gt;Node7</title>
<path fill="none" stroke="midnightblue" d="M288.191,-112.324C305.351,-103.664 331.946,-90.2424 351.747,-80.249"/>
<polygon fill="midnightblue" stroke="midnightblue" points="353.501,-83.2847 360.851,-75.6545 350.347,-77.0354 353.501,-83.2847"/>
</g>
<!-- Node8 -->
<g id="node9" class="node"><title>Node8</title>
<polygon fill="white" stroke="#bfbfbf" points="611.5,-0.5 611.5,-19.5 670.5,-19.5 670.5,-0.5 611.5,-0.5"/>
<text text-anchor="middle" x="641" y="-7.5" font-family="Helvetica,sans-Serif" font-size="10.00">qcstring.h</text>
</g>
<!-- Node7&#45;&gt;Node8 -->
<g id="edge13" class="edge"><title>Node7&#45;&gt;Node8</title>
<path fill="none" stroke="midnightblue" d="M402.742,-59.9198C448.392,-50.547 546.214,-30.4618 601.261,-19.1593"/>
<polygon fill="midnightblue" stroke="midnightblue" points="602.254,-22.5285 611.346,-17.0887 600.846,-15.6716 602.254,-22.5285"/>
</g>
<!-- Node9&#45;&gt;Node2 -->
<g id="edge15" class="edge"><title>Node9&#45;&gt;Node2</title>
<path fill="none" stroke="midnightblue" d="M353.935,-168.075C344.924,-141.832 318.386,-64.5453 306.221,-29.1165"/>
<polygon fill="midnightblue" stroke="midnightblue" points="309.5,-27.8894 302.942,-19.5681 302.879,-30.1628 309.5,-27.8894"/>
</g>
<!-- Node9&#45;&gt;Node5 -->
<g id="edge18" class="edge"><title>Node9&#45;&gt;Node5</title>
<path fill="none" stroke="midnightblue" d="M337.592,-173.203C292.355,-164.352 179.225,-142.218 119.431,-130.519"/>
<polygon fill="midnightblue" stroke="midnightblue" points="120.098,-127.083 109.612,-128.598 118.754,-133.953 120.098,-127.083"/>
</g>
<!-- Node9&#45;&gt;Node7 -->
<g id="edge17" class="edge"><title>Node9&#45;&gt;Node7</title>
<path fill="none" stroke="midnightblue" d="M376.005,-168.633C390.178,-161.249 408.498,-149.003 417,-132 425.757,-114.485 411.159,-95.3717 397.396,-82.4349"/>
<polygon fill="midnightblue" stroke="midnightblue" points="399.404,-79.5407 389.573,-75.5904 394.795,-84.8091 399.404,-79.5407"/>
</g>
<!-- Node10 -->
<g id="node11" class="node"><title>Node10</title>
<polygon fill="white" stroke="#bfbfbf" points="359.5,-112.5 359.5,-131.5 408.5,-131.5 408.5,-112.5 359.5,-112.5"/>
<text text-anchor="middle" x="384" y="-119.5" font-family="Helvetica,sans-Serif" font-size="10.00">ctype.h</text>
</g>
<!-- Node9&#45;&gt;Node10 -->
<g id="edge16" class="edge"><title>Node9&#45;&gt;Node10</title>
<path fill="none" stroke="midnightblue" d="M361.459,-168.083C365.154,-160.691 370.523,-149.953 375.094,-140.811"/>
<polygon fill="midnightblue" stroke="midnightblue" points="378.283,-142.261 379.624,-131.751 372.022,-139.13 378.283,-142.261"/>
</g>
<!-- Node11 -->
<g id="node12" class="node"><title>Node11</title>
<g id="a_node12"><a xlink:href="../../de/d9c/docparser_8h.html" target="_top" xlink:title="docparser.h">
<polygon fill="white" stroke="black" points="486,-112.5 486,-131.5 554,-131.5 554,-112.5 486,-112.5"/>
<text text-anchor="middle" x="520" y="-119.5" font-family="Helvetica,sans-Serif" font-size="10.00">docparser.h</text>
</a>
</g>
</g>
<!-- Node9&#45;&gt;Node11 -->
<g id="edge19" class="edge"><title>Node9&#45;&gt;Node11</title>
<path fill="none" stroke="midnightblue" d="M376.017,-170.7C402.502,-161.926 450.989,-145.863 484.324,-134.819"/>
<polygon fill="midnightblue" stroke="midnightblue" points="485.749,-138.034 494.141,-131.567 483.548,-131.389 485.749,-138.034"/>
</g>
<!-- Node11&#45;&gt;Node2 -->
<g id="edge21" class="edge"><title>Node11&#45;&gt;Node2</title>
<path fill="none" stroke="midnightblue" d="M506.943,-112.322C486.85,-99.1749 446.906,-73.8539 411,-56 384.725,-42.9349 353.688,-30.5999 331.124,-22.1601"/>
<polygon fill="midnightblue" stroke="midnightblue" points="332.3,-18.8631 321.706,-18.6794 329.873,-25.4291 332.3,-18.8631"/>
</g>
<!-- Node11&#45;&gt;Node8 -->
<g id="edge22" class="edge"><title>Node11&#45;&gt;Node8</title>
<path fill="none" stroke="midnightblue" d="M554.325,-116.418C597.385,-109.885 667.484,-96.3799 683,-76 695.475,-59.6143 677.954,-39.5476 661.885,-26.0824"/>
<polygon fill="midnightblue" stroke="midnightblue" points="663.801,-23.1368 653.781,-19.6972 659.469,-28.6352 663.801,-23.1368"/>
</g>
<!-- Node12 -->
<g id="node13" class="node"><title>Node12</title>
<polygon fill="white" stroke="#bfbfbf" points="459,-56.5 459,-75.5 505,-75.5 505,-56.5 459,-56.5"/>
<text text-anchor="middle" x="482" y="-63.5" font-family="Helvetica,sans-Serif" font-size="10.00">stdio.h</text>
</g>
<!-- Node11&#45;&gt;Node12 -->
<g id="edge20" class="edge"><title>Node11&#45;&gt;Node12</title>
<path fill="none" stroke="midnightblue" d="M513.725,-112.083C508.358,-104.455 500.482,-93.2645 493.921,-83.9408"/>
<polygon fill="midnightblue" stroke="midnightblue" points="496.775,-81.9149 488.158,-75.7511 491.051,-85.9434 496.775,-81.9149"/>
</g>
<!-- Node13 -->
<g id="node14" class="node"><title>Node13</title>
<g id="a_node14"><a xlink:href="../../d2/d3c/docvisitor_8h.html" target="_top" xlink:title="docvisitor.h">
<polygon fill="white" stroke="black" points="523.5,-56.5 523.5,-75.5 590.5,-75.5 590.5,-56.5 523.5,-56.5"/>
<text text-anchor="middle" x="557" y="-63.5" font-family="Helvetica,sans-Serif" font-size="10.00">docvisitor.h</text>
</a>
</g>
</g>
<!-- Node11&#45;&gt;Node13 -->
<g id="edge23" class="edge"><title>Node11&#45;&gt;Node13</title>
<path fill="none" stroke="midnightblue" d="M526.11,-112.083C531.282,-104.534 538.846,-93.4948 545.194,-84.2298"/>
<polygon fill="midnightblue" stroke="midnightblue" points="548.239,-85.9787 551.004,-75.7511 542.464,-82.0221 548.239,-85.9787"/>
</g>
<!-- Node14 -->
<g id="node15" class="node"><title>Node14</title>
<g id="a_node15"><a xlink:href="../../d0/d73/htmlattrib_8h.html" target="_top" xlink:title="htmlattrib.h">
<polygon fill="white" stroke="black" points="608.5,-56.5 608.5,-75.5 673.5,-75.5 673.5,-56.5 608.5,-56.5"/>
<text text-anchor="middle" x="641" y="-63.5" font-family="Helvetica,sans-Serif" font-size="10.00">htmlattrib.h</text>
</a>
</g>
</g>
<!-- Node11&#45;&gt;Node14 -->
<g id="edge24" class="edge"><title>Node11&#45;&gt;Node14</title>
<path fill="none" stroke="midnightblue" d="M539.173,-112.444C558.909,-103.636 589.885,-89.8116 612.493,-79.722"/>
<polygon fill="midnightblue" stroke="midnightblue" points="614.211,-82.788 621.917,-75.5164 611.359,-76.3957 614.211,-82.788"/>
</g>
<!-- Node14&#45;&gt;Node2 -->
<g id="edge26" class="edge"><title>Node14&#45;&gt;Node2</title>
<path fill="none" stroke="midnightblue" d="M608.366,-57.6293C605.541,-57.0542 602.723,-56.5026 600,-56 502.648,-38.0346 386.52,-22.1908 331.673,-15.0386"/>
<polygon fill="midnightblue" stroke="midnightblue" points="331.912,-11.5403 321.545,-13.726 331.012,-18.4823 331.912,-11.5403"/>
</g>
<!-- Node14&#45;&gt;Node8 -->
<g id="edge25" class="edge"><title>Node14&#45;&gt;Node8</title>
<path fill="none" stroke="midnightblue" d="M641,-56.083C641,-49.0059 641,-38.8611 641,-29.9865"/>
<polygon fill="midnightblue" stroke="midnightblue" points="644.5,-29.751 641,-19.7511 637.5,-29.7511 644.5,-29.751"/>
</g>
</g>
</svg>
