<?xml version="1.0" encoding="UTF-8" standalone="no"?>
<!DOCTYPE svg PUBLIC "-//W3C//DTD SVG 1.1//EN"
 "http://www.w3.org/Graphics/SVG/1.1/DTD/svg11.dtd">
<!-- Generated by graphviz version 2.38.0 (20140413.2041)
 -->
<!-- Title: DocWhiteSpace Pages: 1 -->
<svg width="143pt" height="85pt"
 viewBox="0.00 0.00 143.00 85.00" xmlns="http://www.w3.org/2000/svg" xmlns:xlink="http://www.w3.org/1999/xlink">
<g id="graph0" class="graph" transform="scale(1 1) rotate(0) translate(4 81)">
<title>DocWhiteSpace</title>
<polygon fill="white" stroke="none" points="-4,4 -4,-81 139,-81 139,4 -4,4"/>
<!-- Node2 -->
<g id="node1" class="node"><title>Node2</title>
<polygon fill="#bfbfbf" stroke="black" points="-7.10543e-15,-0.5 -7.10543e-15,-19.5 88,-19.5 88,-0.5 -7.10543e-15,-0.5"/>
<text text-anchor="middle" x="44" y="-7.5" font-family="Helvetica,sans-Serif" font-size="10.00">DocWhiteSpace</text>
</g>
<!-- Node3 -->
<g id="node2" class="node"><title>Node3</title>
<g id="a_node2"><a xlink:href="../../d9/d0e/class_doc_node.html" target="_top" xlink:title="Abstract node interface with type information. ">
<polygon fill="white" stroke="black" points="15,-57.5 15,-76.5 73,-76.5 73,-57.5 15,-57.5"/>
<text text-anchor="middle" x="44" y="-64.5" font-family="Helvetica,sans-Serif" font-size="10.00">DocNode</text>
</a>
</g>
</g>
<!-- Node3&#45;&gt;Node2 -->
<g id="edge1" class="edge"><title>Node3&#45;&gt;Node2</title>
<path fill="none" stroke="midnightblue" d="M44,-47.1166C44,-37.8173 44,-27.0557 44,-19.7149"/>
<polygon fill="midnightblue" stroke="midnightblue" points="40.5001,-47.4062 44,-57.4062 47.5001,-47.4063 40.5001,-47.4062"/>
</g>
<!-- Node3&#45;&gt;Node3 -->
<g id="edge2" class="edge"><title>Node3&#45;&gt;Node3</title>
<path fill="none" stroke="#9a32cd" stroke-dasharray="5,2" d="M83.603,-71.4489C88.0912,-70.6158 91,-69.1328 91,-67 91,-63.5 83.1667,-61.75 73.375,-61.75"/>
<polygon fill="#9a32cd" stroke="#9a32cd" points="83.0711,-67.9798 73.375,-72.25 83.6178,-74.9584 83.0711,-67.9798"/>
<text text-anchor="middle" x="113" y="-64.5" font-family="Helvetica,sans-Serif" font-size="10.00"> m_parent</text>
</g>
</g>
</svg>
