<?xml version="1.0" encoding="UTF-8" standalone="no"?>
<!DOCTYPE svg PUBLIC "-//W3C//DTD SVG 1.1//EN"
 "http://www.w3.org/Graphics/SVG/1.1/DTD/svg11.dtd">
<!-- Generated by graphviz version 2.38.0 (20140413.2041)
 -->
<!-- Title: SIntDict&lt; T &gt; Pages: 1 -->
<svg width="617pt" height="142pt"
 viewBox="0.00 0.00 617.00 142.00" xmlns="http://www.w3.org/2000/svg" xmlns:xlink="http://www.w3.org/1999/xlink">
<g id="graph0" class="graph" transform="scale(1 1) rotate(0) translate(4 138)">
<title>SIntDict&lt; T &gt;</title>
<polygon fill="white" stroke="none" points="-4,4 -4,-138 613,-138 613,4 -4,4"/>
<!-- Node0 -->
<g id="node1" class="node"><title>Node0</title>
<polygon fill="#bfbfbf" stroke="black" points="0,-56.5 0,-75.5 77,-75.5 77,-56.5 0,-56.5"/>
<text text-anchor="middle" x="38.5" y="-63.5" font-family="Helvetica,sans-Serif" font-size="10.00">SIntDict&lt; T &gt;</text>
</g>
<!-- Node1 -->
<g id="node2" class="node"><title>Node1</title>
<g id="a_node2"><a xlink:href="../../d7/d17/class_letter_to_index_map.html" target="_top" xlink:title="maps a unicode character code to a list of T::ElementType&#39;s ">
<polygon fill="white" stroke="black" points="216,-38.5 216,-57.5 335,-57.5 335,-38.5 216,-38.5"/>
<text text-anchor="middle" x="275.5" y="-45.5" font-family="Helvetica,sans-Serif" font-size="10.00">LetterToIndexMap&lt; T &gt;</text>
</a>
</g>
</g>
<!-- Node0&#45;&gt;Node1 -->
<g id="edge1" class="edge"><title>Node0&#45;&gt;Node1</title>
<path fill="none" stroke="midnightblue" d="M87.3196,-62.3372C124.441,-59.4939 176.088,-55.5379 215.73,-52.5015"/>
<polygon fill="midnightblue" stroke="midnightblue" points="86.9603,-58.8544 77.2568,-63.108 87.4949,-65.834 86.9603,-58.8544"/>
</g>
<!-- Node3 -->
<g id="node4" class="node"><title>Node3</title>
<g id="a_node4"><a xlink:href="../../d0/d9f/class_s_int_dict.html" target="_top" xlink:title="SIntDict\&lt; MemberGroup \&gt;">
<polygon fill="white" stroke="black" points="209.5,-114.5 209.5,-133.5 341.5,-133.5 341.5,-114.5 209.5,-114.5"/>
<text text-anchor="middle" x="275.5" y="-121.5" font-family="Helvetica,sans-Serif" font-size="10.00">SIntDict&lt; MemberGroup &gt;</text>
</a>
</g>
</g>
<!-- Node0&#45;&gt;Node3 -->
<g id="edge3" class="edge"><title>Node0&#45;&gt;Node3</title>
<path fill="none" stroke="orange" stroke-dasharray="5,2" d="M64.2314,-80.4883C73.6027,-85.4338 84.5385,-90.5746 95,-94 131.933,-106.093 174.813,-113.491 209.4,-117.914"/>
<polygon fill="orange" stroke="orange" points="65.9085,-77.4163 55.4571,-75.6786 62.5437,-83.5546 65.9085,-77.4163"/>
<text text-anchor="middle" x="141" y="-117" font-family="Helvetica,sans-Serif" font-size="10.00"> &lt; MemberGroup &gt;</text>
</g>
<!-- Node5 -->
<g id="node6" class="node"><title>Node5</title>
<g id="a_node6"><a xlink:href="../../d0/d9f/class_s_int_dict.html" target="_top" xlink:title="SIntDict\&lt; uint \&gt;">
<polygon fill="white" stroke="black" points="232.5,-0.5 232.5,-19.5 318.5,-19.5 318.5,-0.5 232.5,-0.5"/>
<text text-anchor="middle" x="275.5" y="-7.5" font-family="Helvetica,sans-Serif" font-size="10.00">SIntDict&lt; uint &gt;</text>
</a>
</g>
</g>
<!-- Node0&#45;&gt;Node5 -->
<g id="edge5" class="edge"><title>Node0&#45;&gt;Node5</title>
<path fill="none" stroke="orange" stroke-dasharray="5,2" d="M66.1597,-51.7133C75.1176,-47.4033 85.3011,-43.0199 95,-40 140.854,-25.7226 195.537,-17.8235 232.399,-13.7617"/>
<polygon fill="orange" stroke="orange" points="64.38,-48.69 57.0015,-56.2932 67.511,-54.9508 64.38,-48.69"/>
<text text-anchor="middle" x="141" y="-43" font-family="Helvetica,sans-Serif" font-size="10.00"> &lt; uint &gt;</text>
</g>
<!-- Node7 -->
<g id="node8" class="node"><title>Node7</title>
<g id="a_node8"><a xlink:href="../../d0/d9f/class_s_int_dict.html" target="_top" xlink:title="SIntDict\&lt; SearchIndexList \&gt;">
<polygon fill="white" stroke="black" points="205,-76.5 205,-95.5 346,-95.5 346,-76.5 205,-76.5"/>
<text text-anchor="middle" x="275.5" y="-83.5" font-family="Helvetica,sans-Serif" font-size="10.00">SIntDict&lt; SearchIndexList &gt;</text>
</a>
</g>
</g>
<!-- Node0&#45;&gt;Node7 -->
<g id="edge7" class="edge"><title>Node0&#45;&gt;Node7</title>
<path fill="none" stroke="orange" stroke-dasharray="5,2" d="M87.3196,-70.0698C121.057,-72.941 166.792,-76.8334 204.609,-80.0518"/>
<polygon fill="orange" stroke="orange" points="87.5176,-66.574 77.2568,-69.2133 86.924,-73.5488 87.5176,-66.574"/>
<text text-anchor="middle" x="141" y="-82" font-family="Helvetica,sans-Serif" font-size="10.00"> &lt; SearchIndexList &gt;</text>
</g>
<!-- Node2 -->
<g id="node3" class="node"><title>Node2</title>
<g id="a_node3"><a xlink:href="../../d7/d17/class_letter_to_index_map.html" target="_top" xlink:title="LetterToIndexMap\&lt; Search\lIndexList \&gt;">
<polygon fill="white" stroke="black" points="474,-52 474,-82 609,-82 609,-52 474,-52"/>
<text text-anchor="start" x="482" y="-70" font-family="Helvetica,sans-Serif" font-size="10.00">LetterToIndexMap&lt; Search</text>
<text text-anchor="middle" x="541.5" y="-59" font-family="Helvetica,sans-Serif" font-size="10.00">IndexList &gt;</text>
</a>
</g>
</g>
<!-- Node1&#45;&gt;Node2 -->
<g id="edge2" class="edge"><title>Node1&#45;&gt;Node2</title>
<path fill="none" stroke="orange" stroke-dasharray="5,2" d="M345.291,-51.0181C378.731,-52.693 419.49,-55.0406 456,-58 461.735,-58.4649 467.684,-58.997 473.648,-59.565"/>
<polygon fill="orange" stroke="orange" points="345.321,-47.5155 335.161,-50.52 344.977,-54.507 345.321,-47.5155"/>
<text text-anchor="middle" x="410" y="-61" font-family="Helvetica,sans-Serif" font-size="10.00"> &lt; SearchIndexList &gt;</text>
</g>
<!-- Node4 -->
<g id="node5" class="node"><title>Node4</title>
<g id="a_node5"><a xlink:href="../../dc/d1e/class_member_group_s_dict.html" target="_top" xlink:title="A sorted dictionary of MemberGroup objects. ">
<polygon fill="white" stroke="black" points="490,-114.5 490,-133.5 593,-133.5 593,-114.5 490,-114.5"/>
<text text-anchor="middle" x="541.5" y="-121.5" font-family="Helvetica,sans-Serif" font-size="10.00">MemberGroupSDict</text>
</a>
</g>
</g>
<!-- Node3&#45;&gt;Node4 -->
<g id="edge4" class="edge"><title>Node3&#45;&gt;Node4</title>
<path fill="none" stroke="midnightblue" d="M351.87,-124C396.007,-124 450.566,-124 489.635,-124"/>
<polygon fill="midnightblue" stroke="midnightblue" points="351.758,-120.5 341.758,-124 351.758,-127.5 351.758,-120.5"/>
</g>
<!-- Node6 -->
<g id="node7" class="node"><title>Node6</title>
<g id="a_node7"><a xlink:href="../../d7/d02/class_used_index_letters.html" target="_top" xlink:title="UsedIndexLetters">
<polygon fill="white" stroke="black" points="494.5,-0.5 494.5,-19.5 588.5,-19.5 588.5,-0.5 494.5,-0.5"/>
<text text-anchor="middle" x="541.5" y="-7.5" font-family="Helvetica,sans-Serif" font-size="10.00">UsedIndexLetters</text>
</a>
</g>
</g>
<!-- Node5&#45;&gt;Node6 -->
<g id="edge6" class="edge"><title>Node5&#45;&gt;Node6</title>
<path fill="none" stroke="midnightblue" d="M328.848,-10C377.043,-10 447.866,-10 494.083,-10"/>
<polygon fill="midnightblue" stroke="midnightblue" points="328.624,-6.5001 318.624,-10 328.623,-13.5001 328.624,-6.5001"/>
</g>
<!-- Node7&#45;&gt;Node2 -->
<g id="edge8" class="edge"><title>Node7&#45;&gt;Node2</title>
<path fill="none" stroke="midnightblue" d="M356.57,-80.2374C393.974,-77.5455 437.995,-74.3772 473.592,-71.8153"/>
<polygon fill="midnightblue" stroke="midnightblue" points="355.931,-76.7742 346.208,-80.9831 356.434,-83.7562 355.931,-76.7742"/>
</g>
</g>
</svg>
