<?xml version="1.0" encoding="UTF-8" standalone="no"?>
<!DOCTYPE svg PUBLIC "-//W3C//DTD SVG 1.1//EN"
 "http://www.w3.org/Graphics/SVG/1.1/DTD/svg11.dtd">
<!-- Generated by graphviz version 2.38.0 (20140413.2041)
 -->
<!-- Title: src/qhp.cpp Pages: 1 -->
<!--zoomable 364 -->
<svg id="main" version="1.1" xmlns="http://www.w3.org/2000/svg" xmlns:xlink="http://www.w3.org/1999/xlink" xml:space="preserve" onload="init(evt)">
<style type="text/css"><![CDATA[
.edge:hover path { stroke: red; }
.edge:hover polygon { stroke: red; fill: red; }
]]></style>
<script type="text/javascript"><![CDATA[
var edges = document.getElementsByTagName('g');
if (edges && edges.length) {
  for (var i=0;i<edges.length;i++) {
    if (edges[i].id.substr(0,4)=='edge') {
      edges[i].setAttribute('class','edge');
    }
  }
}
]]></script>
        <defs>
                <circle id="rim" cx="0" cy="0" r="7"/>
                <circle id="rim2" cx="0" cy="0" r="3.5"/>
                <g id="zoomPlus">
                        <use xlink:href="#rim" fill="#404040">
                                <set attributeName="fill" to="#808080" begin="zoomplus.mouseover" end="zoomplus.mouseout"/>
                        </use>
                        <path d="M-4,0h8M0,-4v8" fill="none" stroke="white" stroke-width="1.5" pointer-events="none"/>
                </g>
                <g id="zoomMin">
                        <use xlink:href="#rim" fill="#404040">
                                <set attributeName="fill" to="#808080" begin="zoomminus.mouseover" end="zoomminus.mouseout"/>
                        </use>
                        <path d="M-4,0h8" fill="none" stroke="white" stroke-width="1.5" pointer-events="none"/>
                </g>
                <g id="dirArrow">
                        <path fill="none" stroke="white" stroke-width="1.5" d="M0,-3.0v7 M-2.5,-0.5L0,-3.0L2.5,-0.5"/>
                </g>
               <g id="resetDef">
                       <use xlink:href="#rim2" fill="#404040">
                               <set attributeName="fill" to="#808080" begin="reset.mouseover" end="reset.mouseout"/>
                       </use>
               </g>
        </defs>

<script type="text/javascript">
var viewWidth = 1395;
var viewHeight = 364;
var sectionId = 'dynsection-0';
</script>
<script xlink:href="../../svgpan.js"/>
<svg id="graph" class="graph">
<g id="viewport">
<title>src/qhp.cpp</title>
<polygon fill="white" stroke="none" points="-4,4 -4,-360 1390.5,-360 1390.5,4 -4,4"/>
<!-- Node0 -->
<g id="node1" class="node"><title>Node0</title>
<polygon fill="#bfbfbf" stroke="black" points="974,-336.5 974,-355.5 1042,-355.5 1042,-336.5 974,-336.5"/>
<text text-anchor="middle" x="1008" y="-343.5" font-family="Helvetica,sans-Serif" font-size="10.00">src/qhp.cpp</text>
</g>
<!-- Node1 -->
<g id="node2" class="node"><title>Node1</title>
<g id="a_node2"><a xlink:href="../../dc/d20/qhp_8h.html" target="_top" xlink:title="qhp.h">
<polygon fill="white" stroke="black" points="331.5,-280.5 331.5,-299.5 372.5,-299.5 372.5,-280.5 331.5,-280.5"/>
<text text-anchor="middle" x="352" y="-287.5" font-family="Helvetica,sans-Serif" font-size="10.00">qhp.h</text>
</a>
</g>
</g>
<!-- Node0&#45;&gt;Node1 -->
<g id="edge1" class="edge"><title>Node0&#45;&gt;Node1</title>
<path fill="none" stroke="midnightblue" d="M973.654,-342.173C859.1,-332.743 491.225,-302.461 382.522,-293.512"/>
<polygon fill="midnightblue" stroke="midnightblue" points="382.797,-290.023 372.544,-292.691 382.223,-297 382.797,-290.023"/>
</g>
<!-- Node5 -->
<g id="node6" class="node"><title>Node5</title>
<g id="a_node6"><a xlink:href="../../d8/df8/qhpxmlwriter_8h.html" target="_top" xlink:title="qhpxmlwriter.h">
<polygon fill="white" stroke="black" points="206,-224.5 206,-243.5 286,-243.5 286,-224.5 206,-224.5"/>
<text text-anchor="middle" x="246" y="-231.5" font-family="Helvetica,sans-Serif" font-size="10.00">qhpxmlwriter.h</text>
</a>
</g>
</g>
<!-- Node0&#45;&gt;Node5 -->
<g id="edge12" class="edge"><title>Node0&#45;&gt;Node5</title>
<path fill="none" stroke="midnightblue" d="M973.84,-344.022C843.627,-340.123 382.663,-324.69 322,-300 296.491,-289.618 273.415,-267.146 259.551,-251.553"/>
<polygon fill="midnightblue" stroke="midnightblue" points="262.003,-249.035 252.839,-243.718 256.687,-253.589 262.003,-249.035"/>
</g>
<!-- Node11 -->
<g id="node12" class="node"><title>Node11</title>
<g id="a_node12"><a xlink:href="../../d2/d0d/message_8h.html" target="_top" xlink:title="message.h">
<polygon fill="white" stroke="black" points="47.5,-280.5 47.5,-299.5 112.5,-299.5 112.5,-280.5 47.5,-280.5"/>
<text text-anchor="middle" x="80" y="-287.5" font-family="Helvetica,sans-Serif" font-size="10.00">message.h</text>
</a>
</g>
</g>
<!-- Node0&#45;&gt;Node11 -->
<g id="edge13" class="edge"><title>Node0&#45;&gt;Node11</title>
<path fill="none" stroke="midnightblue" d="M973.73,-344.059C858.037,-340.699 471.356,-327.968 153,-300 143.181,-299.137 132.647,-297.977 122.721,-296.776"/>
<polygon fill="midnightblue" stroke="midnightblue" points="123.01,-293.285 112.654,-295.522 122.144,-300.232 123.01,-293.285"/>
</g>
<!-- Node13 -->
<g id="node14" class="node"><title>Node13</title>
<g id="a_node14"><a xlink:href="../../db/d16/config_8h.html" target="_top" xlink:title="config.h">
<polygon fill="white" stroke="black" points="162.5,-280.5 162.5,-299.5 213.5,-299.5 213.5,-280.5 162.5,-280.5"/>
<text text-anchor="middle" x="188" y="-287.5" font-family="Helvetica,sans-Serif" font-size="10.00">config.h</text>
</a>
</g>
</g>
<!-- Node0&#45;&gt;Node13 -->
<g id="edge16" class="edge"><title>Node0&#45;&gt;Node13</title>
<path fill="none" stroke="midnightblue" d="M973.692,-343.697C867.572,-339.504 535.286,-325.145 261,-300 248.804,-298.882 235.501,-297.338 223.631,-295.845"/>
<polygon fill="midnightblue" stroke="midnightblue" points="223.999,-292.364 213.634,-294.558 223.105,-299.306 223.999,-292.364"/>
</g>
<!-- Node15 -->
<g id="node16" class="node"><title>Node15</title>
<g id="a_node16"><a xlink:href="../../d4/d46/memberdef_8h.html" target="_top" xlink:title="memberdef.h">
<polygon fill="white" stroke="black" points="1128,-168.5 1128,-187.5 1202,-187.5 1202,-168.5 1128,-168.5"/>
<text text-anchor="middle" x="1165" y="-175.5" font-family="Helvetica,sans-Serif" font-size="10.00">memberdef.h</text>
</a>
</g>
</g>
<!-- Node0&#45;&gt;Node15 -->
<g id="edge18" class="edge"><title>Node0&#45;&gt;Node15</title>
<path fill="none" stroke="midnightblue" d="M1038.41,-336.471C1077.54,-323.659 1143.84,-295.297 1172,-244 1179.84,-229.712 1176.68,-210.999 1172.4,-197.323"/>
<polygon fill="midnightblue" stroke="midnightblue" points="1175.59,-195.841 1168.91,-187.615 1169,-198.209 1175.59,-195.841"/>
</g>
<!-- Node20 -->
<g id="node21" class="node"><title>Node20</title>
<g id="a_node21"><a xlink:href="../../d1/de6/groupdef_8h.html" target="_top" xlink:title="groupdef.h">
<polygon fill="white" stroke="black" points="1101,-224.5 1101,-243.5 1163,-243.5 1163,-224.5 1101,-224.5"/>
<text text-anchor="middle" x="1132" y="-231.5" font-family="Helvetica,sans-Serif" font-size="10.00">groupdef.h</text>
</a>
</g>
</g>
<!-- Node0&#45;&gt;Node20 -->
<g id="edge27" class="edge"><title>Node0&#45;&gt;Node20</title>
<path fill="none" stroke="midnightblue" d="M1017.73,-336.368C1038.65,-317.814 1088.13,-273.913 1114.6,-250.438"/>
<polygon fill="midnightblue" stroke="midnightblue" points="1117.16,-252.846 1122.32,-243.591 1112.51,-247.609 1117.16,-252.846"/>
</g>
<!-- Node23 -->
<g id="node24" class="node"><title>Node23</title>
<g id="a_node24"><a xlink:href="../../d1/da1/doxygen_8h.html" target="_top" xlink:title="doxygen.h">
<polygon fill="white" stroke="black" points="699,-280.5 699,-299.5 761,-299.5 761,-280.5 699,-280.5"/>
<text text-anchor="middle" x="730" y="-287.5" font-family="Helvetica,sans-Serif" font-size="10.00">doxygen.h</text>
</a>
</g>
</g>
<!-- Node0&#45;&gt;Node23 -->
<g id="edge33" class="edge"><title>Node0&#45;&gt;Node23</title>
<path fill="none" stroke="midnightblue" d="M973.912,-338.379C922.833,-328.457 826.567,-309.758 771.481,-299.057"/>
<polygon fill="midnightblue" stroke="midnightblue" points="771.851,-295.564 761.367,-297.093 770.516,-302.435 771.851,-295.564"/>
</g>
<!-- Node30 -->
<g id="node31" class="node"><title>Node30</title>
<g id="a_node31"><a xlink:href="../../d4/d3a/filedef_8h.html" target="_top" xlink:title="filedef.h">
<polygon fill="white" stroke="black" points="982.5,-280.5 982.5,-299.5 1033.5,-299.5 1033.5,-280.5 982.5,-280.5"/>
<text text-anchor="middle" x="1008" y="-287.5" font-family="Helvetica,sans-Serif" font-size="10.00">filedef.h</text>
</a>
</g>
</g>
<!-- Node0&#45;&gt;Node30 -->
<g id="edge54" class="edge"><title>Node0&#45;&gt;Node30</title>
<path fill="none" stroke="midnightblue" d="M1008,-336.083C1008,-329.006 1008,-318.861 1008,-309.986"/>
<polygon fill="midnightblue" stroke="midnightblue" points="1011.5,-309.751 1008,-299.751 1004.5,-309.751 1011.5,-309.751"/>
</g>
<!-- Node31 -->
<g id="node32" class="node"><title>Node31</title>
<polygon fill="white" stroke="#bfbfbf" points="1191.5,-280.5 1191.5,-299.5 1258.5,-299.5 1258.5,-280.5 1191.5,-280.5"/>
<text text-anchor="middle" x="1225" y="-287.5" font-family="Helvetica,sans-Serif" font-size="10.00">qstringlist.h</text>
</g>
<!-- Node0&#45;&gt;Node31 -->
<g id="edge62" class="edge"><title>Node0&#45;&gt;Node31</title>
<path fill="none" stroke="midnightblue" d="M1042.38,-336.444C1080.06,-327.067 1140.58,-312.007 1181.53,-301.818"/>
<polygon fill="midnightblue" stroke="midnightblue" points="1182.63,-305.15 1191.49,-299.339 1180.94,-298.357 1182.63,-305.15"/>
</g>
<!-- Node32 -->
<g id="node33" class="node"><title>Node32</title>
<polygon fill="white" stroke="#bfbfbf" points="1276.5,-280.5 1276.5,-299.5 1325.5,-299.5 1325.5,-280.5 1276.5,-280.5"/>
<text text-anchor="middle" x="1301" y="-287.5" font-family="Helvetica,sans-Serif" font-size="10.00">string.h</text>
</g>
<!-- Node0&#45;&gt;Node32 -->
<g id="edge63" class="edge"><title>Node0&#45;&gt;Node32</title>
<path fill="none" stroke="midnightblue" d="M1042.27,-340.128C1090.35,-333.064 1180.7,-318.948 1266.32,-300.221"/>
<polygon fill="midnightblue" stroke="midnightblue" points="1267.19,-303.614 1276.2,-298.036 1265.68,-296.779 1267.19,-303.614"/>
</g>
<!-- Node33 -->
<g id="node34" class="node"><title>Node33</title>
<polygon fill="white" stroke="#bfbfbf" points="1343.5,-280.5 1343.5,-299.5 1386.5,-299.5 1386.5,-280.5 1343.5,-280.5"/>
<text text-anchor="middle" x="1365" y="-287.5" font-family="Helvetica,sans-Serif" font-size="10.00">qfile.h</text>
</g>
<!-- Node0&#45;&gt;Node33 -->
<g id="edge64" class="edge"><title>Node0&#45;&gt;Node33</title>
<path fill="none" stroke="midnightblue" d="M1042.2,-342.051C1100.29,-336.664 1222.04,-323.739 1333.42,-300.065"/>
<polygon fill="midnightblue" stroke="midnightblue" points="1334.44,-303.426 1343.47,-297.892 1332.96,-296.584 1334.44,-303.426"/>
</g>
<!-- Node2 -->
<g id="node3" class="node"><title>Node2</title>
<g id="a_node3"><a xlink:href="../../d1/db5/index_8h.html" target="_top" xlink:title="index.h">
<polygon fill="white" stroke="black" points="590,-168.5 590,-187.5 638,-187.5 638,-168.5 590,-168.5"/>
<text text-anchor="middle" x="614" y="-175.5" font-family="Helvetica,sans-Serif" font-size="10.00">index.h</text>
</a>
</g>
</g>
<!-- Node1&#45;&gt;Node2 -->
<g id="edge2" class="edge"><title>Node1&#45;&gt;Node2</title>
<path fill="none" stroke="midnightblue" d="M351.845,-280.366C352.097,-266.33 354.774,-238.66 371,-224 401.182,-196.73 519.966,-185.169 579.542,-181.007"/>
<polygon fill="midnightblue" stroke="midnightblue" points="579.856,-184.494 589.601,-180.336 579.39,-177.51 579.856,-184.494"/>
</g>
<!-- Node1&#45;&gt;Node5 -->
<g id="edge5" class="edge"><title>Node1&#45;&gt;Node5</title>
<path fill="none" stroke="midnightblue" d="M334.969,-280.324C317.97,-271.664 291.624,-258.242 272.007,-248.249"/>
<polygon fill="midnightblue" stroke="midnightblue" points="273.488,-245.075 262.988,-243.655 270.31,-251.312 273.488,-245.075"/>
</g>
<!-- Node3 -->
<g id="node4" class="node"><title>Node3</title>
<polygon fill="white" stroke="#bfbfbf" points="905.5,-56.5 905.5,-75.5 948.5,-75.5 948.5,-56.5 905.5,-56.5"/>
<text text-anchor="middle" x="927" y="-63.5" font-family="Helvetica,sans-Serif" font-size="10.00">qlist.h</text>
</g>
<!-- Node2&#45;&gt;Node3 -->
<g id="edge3" class="edge"><title>Node2&#45;&gt;Node3</title>
<path fill="none" stroke="midnightblue" d="M618.607,-168.145C626.579,-153.79 644.384,-125.672 668,-112 706.285,-89.835 835.11,-75.4343 895.395,-69.7491"/>
<polygon fill="midnightblue" stroke="midnightblue" points="895.842,-73.2229 905.478,-68.8196 895.199,-66.2524 895.842,-73.2229"/>
</g>
<!-- Node4 -->
<g id="node5" class="node"><title>Node4</title>
<polygon fill="white" stroke="#bfbfbf" points="822.5,-0.5 822.5,-19.5 881.5,-19.5 881.5,-0.5 822.5,-0.5"/>
<text text-anchor="middle" x="852" y="-7.5" font-family="Helvetica,sans-Serif" font-size="10.00">qcstring.h</text>
</g>
<!-- Node2&#45;&gt;Node4 -->
<g id="edge4" class="edge"><title>Node2&#45;&gt;Node4</title>
<path fill="none" stroke="midnightblue" d="M615.685,-168.339C618.731,-154.756 626.349,-128.315 642,-112 689.487,-62.498 766.194,-34.2622 812.582,-20.838"/>
<polygon fill="midnightblue" stroke="midnightblue" points="813.596,-24.1888 822.28,-18.1196 811.707,-17.4486 813.596,-24.1888"/>
</g>
<!-- Node6 -->
<g id="node7" class="node"><title>Node6</title>
<polygon fill="white" stroke="#bfbfbf" points="210,-112.5 210,-131.5 264,-131.5 264,-112.5 210,-112.5"/>
<text text-anchor="middle" x="237" y="-119.5" font-family="Helvetica,sans-Serif" font-size="10.00">qstring.h</text>
</g>
<!-- Node5&#45;&gt;Node6 -->
<g id="edge6" class="edge"><title>Node5&#45;&gt;Node6</title>
<path fill="none" stroke="midnightblue" d="M245.294,-224.368C243.841,-206.617 240.491,-165.666 238.522,-141.597"/>
<polygon fill="midnightblue" stroke="midnightblue" points="242.007,-141.273 237.703,-131.591 235.03,-141.844 242.007,-141.273"/>
</g>
<!-- Node7 -->
<g id="node8" class="node"><title>Node7</title>
<g id="a_node8"><a xlink:href="../../df/d83/ftextstream_8h.html" target="_top" xlink:title="ftextstream.h">
<polygon fill="white" stroke="black" points="273,-168.5 273,-187.5 347,-187.5 347,-168.5 273,-168.5"/>
<text text-anchor="middle" x="310" y="-175.5" font-family="Helvetica,sans-Serif" font-size="10.00">ftextstream.h</text>
</a>
</g>
</g>
<!-- Node5&#45;&gt;Node7 -->
<g id="edge7" class="edge"><title>Node5&#45;&gt;Node7</title>
<path fill="none" stroke="midnightblue" d="M256.283,-224.324C265.836,-216.263 280.28,-204.077 291.784,-194.369"/>
<polygon fill="midnightblue" stroke="midnightblue" points="294.144,-196.958 299.53,-187.834 289.63,-191.608 294.144,-196.958"/>
</g>
<!-- Node7&#45;&gt;Node6 -->
<g id="edge10" class="edge"><title>Node7&#45;&gt;Node6</title>
<path fill="none" stroke="midnightblue" d="M298.271,-168.324C287.163,-160.107 270.258,-147.602 257.017,-137.807"/>
<polygon fill="midnightblue" stroke="midnightblue" points="259.063,-134.967 248.942,-131.834 254.9,-140.595 259.063,-134.967"/>
</g>
<!-- Node8 -->
<g id="node9" class="node"><title>Node8</title>
<polygon fill="white" stroke="#bfbfbf" points="101,-112.5 101,-131.5 147,-131.5 147,-112.5 101,-112.5"/>
<text text-anchor="middle" x="124" y="-119.5" font-family="Helvetica,sans-Serif" font-size="10.00">stdio.h</text>
</g>
<!-- Node7&#45;&gt;Node8 -->
<g id="edge8" class="edge"><title>Node7&#45;&gt;Node8</title>
<path fill="none" stroke="midnightblue" d="M280.528,-168.444C246.871,-158.672 191.95,-142.727 156.918,-132.557"/>
<polygon fill="midnightblue" stroke="midnightblue" points="157.743,-129.152 147.164,-129.725 155.792,-135.874 157.743,-129.152"/>
</g>
<!-- Node9 -->
<g id="node10" class="node"><title>Node9</title>
<polygon fill="white" stroke="#bfbfbf" points="282,-112.5 282,-131.5 348,-131.5 348,-112.5 282,-112.5"/>
<text text-anchor="middle" x="315" y="-119.5" font-family="Helvetica,sans-Serif" font-size="10.00">qiodevice.h</text>
</g>
<!-- Node7&#45;&gt;Node9 -->
<g id="edge9" class="edge"><title>Node7&#45;&gt;Node9</title>
<path fill="none" stroke="midnightblue" d="M310.826,-168.083C311.481,-161.006 312.42,-150.861 313.242,-141.986"/>
<polygon fill="midnightblue" stroke="midnightblue" points="316.753,-142.031 314.19,-131.751 309.783,-141.386 316.753,-142.031"/>
</g>
<!-- Node10 -->
<g id="node11" class="node"><title>Node10</title>
<polygon fill="white" stroke="#bfbfbf" points="366.5,-112.5 366.5,-131.5 425.5,-131.5 425.5,-112.5 366.5,-112.5"/>
<text text-anchor="middle" x="396" y="-119.5" font-family="Helvetica,sans-Serif" font-size="10.00">qgstring.h</text>
</g>
<!-- Node7&#45;&gt;Node10 -->
<g id="edge11" class="edge"><title>Node7&#45;&gt;Node10</title>
<path fill="none" stroke="midnightblue" d="M323.817,-168.324C337.233,-159.9 357.824,-146.971 373.586,-137.074"/>
<polygon fill="midnightblue" stroke="midnightblue" points="375.609,-139.936 382.217,-131.655 371.887,-134.008 375.609,-139.936"/>
</g>
<!-- Node11&#45;&gt;Node8 -->
<g id="edge14" class="edge"><title>Node11&#45;&gt;Node8</title>
<path fill="none" stroke="midnightblue" d="M82.3656,-280.075C89.2916,-253.945 109.631,-177.211 119.076,-141.577"/>
<polygon fill="midnightblue" stroke="midnightblue" points="122.55,-142.131 121.729,-131.568 115.784,-140.338 122.55,-142.131"/>
</g>
<!-- Node12 -->
<g id="node13" class="node"><title>Node12</title>
<polygon fill="white" stroke="#bfbfbf" points="0,-224.5 0,-243.5 52,-243.5 52,-224.5 0,-224.5"/>
<text text-anchor="middle" x="26" y="-231.5" font-family="Helvetica,sans-Serif" font-size="10.00">stdarg.h</text>
</g>
<!-- Node11&#45;&gt;Node12 -->
<g id="edge15" class="edge"><title>Node11&#45;&gt;Node12</title>
<path fill="none" stroke="midnightblue" d="M71.083,-280.083C63.2195,-272.22 51.5688,-260.569 42.0813,-251.081"/>
<polygon fill="midnightblue" stroke="midnightblue" points="44.2971,-248.347 34.7511,-243.751 39.3473,-253.297 44.2971,-248.347"/>
</g>
<!-- Node14 -->
<g id="node15" class="node"><title>Node14</title>
<polygon fill="white" stroke="#bfbfbf" points="108,-224.5 108,-243.5 188,-243.5 188,-224.5 108,-224.5"/>
<text text-anchor="middle" x="148" y="-231.5" font-family="Helvetica,sans-Serif" font-size="10.00">configvalues.h</text>
</g>
<!-- Node13&#45;&gt;Node14 -->
<g id="edge17" class="edge"><title>Node13&#45;&gt;Node14</title>
<path fill="none" stroke="midnightblue" d="M181.395,-280.083C175.745,-272.455 167.455,-261.264 160.549,-251.941"/>
<polygon fill="midnightblue" stroke="midnightblue" points="163.247,-249.703 154.482,-243.751 157.622,-253.87 163.247,-249.703"/>
</g>
<!-- Node15&#45;&gt;Node3 -->
<g id="edge19" class="edge"><title>Node15&#45;&gt;Node3</title>
<path fill="none" stroke="midnightblue" d="M1146.32,-168.368C1104.61,-149.091 1003.71,-102.454 954.672,-79.7894"/>
<polygon fill="midnightblue" stroke="midnightblue" points="956.134,-76.6098 945.589,-75.5914 953.198,-82.964 956.134,-76.6098"/>
</g>
<!-- Node16 -->
<g id="node17" class="node"><title>Node16</title>
<polygon fill="white" stroke="#bfbfbf" points="1164,-112.5 1164,-131.5 1232,-131.5 1232,-112.5 1164,-112.5"/>
<text text-anchor="middle" x="1198" y="-119.5" font-family="Helvetica,sans-Serif" font-size="10.00">sys/types.h</text>
</g>
<!-- Node15&#45;&gt;Node16 -->
<g id="edge20" class="edge"><title>Node15&#45;&gt;Node16</title>
<path fill="none" stroke="midnightblue" d="M1170.45,-168.083C1175.01,-160.613 1181.67,-149.724 1187.29,-140.52"/>
<polygon fill="midnightblue" stroke="midnightblue" points="1190.42,-142.109 1192.65,-131.751 1184.45,-138.459 1190.42,-142.109"/>
</g>
<!-- Node17 -->
<g id="node18" class="node"><title>Node17</title>
<g id="a_node18"><a xlink:href="../../d9/d49/types_8h.html" target="_top" xlink:title="This file contains a number of basic enums and types. ">
<polygon fill="white" stroke="black" points="1073.5,-56.5 1073.5,-75.5 1122.5,-75.5 1122.5,-56.5 1073.5,-56.5"/>
<text text-anchor="middle" x="1098" y="-63.5" font-family="Helvetica,sans-Serif" font-size="10.00">types.h</text>
</a>
</g>
</g>
<!-- Node15&#45;&gt;Node17 -->
<g id="edge21" class="edge"><title>Node15&#45;&gt;Node17</title>
<path fill="none" stroke="midnightblue" d="M1159.74,-168.368C1148.73,-150.296 1123.08,-108.176 1108.54,-84.3074"/>
<polygon fill="midnightblue" stroke="midnightblue" points="1111.42,-82.3112 1103.23,-75.5914 1105.45,-85.9526 1111.42,-82.3112"/>
</g>
<!-- Node18 -->
<g id="node19" class="node"><title>Node18</title>
<g id="a_node19"><a xlink:href="../../df/da1/definition_8h.html" target="_top" xlink:title="definition.h">
<polygon fill="white" stroke="black" points="1250,-112.5 1250,-131.5 1314,-131.5 1314,-112.5 1250,-112.5"/>
<text text-anchor="middle" x="1282" y="-119.5" font-family="Helvetica,sans-Serif" font-size="10.00">definition.h</text>
</a>
</g>
</g>
<!-- Node15&#45;&gt;Node18 -->
<g id="edge23" class="edge"><title>Node15&#45;&gt;Node18</title>
<path fill="none" stroke="midnightblue" d="M1183.54,-168.444C1202.62,-159.636 1232.57,-145.812 1254.44,-135.722"/>
<polygon fill="midnightblue" stroke="midnightblue" points="1255.93,-138.885 1263.55,-131.516 1253,-132.529 1255.93,-138.885"/>
</g>
<!-- Node17&#45;&gt;Node4 -->
<g id="edge22" class="edge"><title>Node17&#45;&gt;Node4</title>
<path fill="none" stroke="midnightblue" d="M1073.06,-59.525C1030.32,-50.1432 942.756,-30.9221 891.594,-19.6913"/>
<polygon fill="midnightblue" stroke="midnightblue" points="892.082,-16.2153 881.564,-17.4898 890.581,-23.0525 892.082,-16.2153"/>
</g>
<!-- Node18&#45;&gt;Node3 -->
<g id="edge24" class="edge"><title>Node18&#45;&gt;Node3</title>
<path fill="none" stroke="midnightblue" d="M1249.82,-113.7C1246.84,-113.097 1243.87,-112.52 1241,-112 1138.42,-93.417 1015.85,-77.7109 958.949,-70.7881"/>
<polygon fill="midnightblue" stroke="midnightblue" points="959.136,-67.2852 948.788,-69.5606 958.296,-74.2347 959.136,-67.2852"/>
</g>
<!-- Node18&#45;&gt;Node17 -->
<g id="edge26" class="edge"><title>Node18&#45;&gt;Node17</title>
<path fill="none" stroke="midnightblue" d="M1252.84,-112.444C1220.1,-102.835 1167.02,-87.2558 1132.31,-77.0686"/>
<polygon fill="midnightblue" stroke="midnightblue" points="1133.18,-73.678 1122.6,-74.2203 1131.21,-80.3948 1133.18,-73.678"/>
</g>
<!-- Node19 -->
<g id="node20" class="node"><title>Node19</title>
<polygon fill="white" stroke="#bfbfbf" points="1289,-56.5 1289,-75.5 1335,-75.5 1335,-56.5 1289,-56.5"/>
<text text-anchor="middle" x="1312" y="-63.5" font-family="Helvetica,sans-Serif" font-size="10.00">qdict.h</text>
</g>
<!-- Node18&#45;&gt;Node19 -->
<g id="edge25" class="edge"><title>Node18&#45;&gt;Node19</title>
<path fill="none" stroke="midnightblue" d="M1286.95,-112.083C1291.1,-104.613 1297.15,-93.7244 1302.27,-84.5199"/>
<polygon fill="midnightblue" stroke="midnightblue" points="1305.34,-86.1924 1307.14,-75.7511 1299.22,-82.7929 1305.34,-86.1924"/>
</g>
<!-- Node20&#45;&gt;Node18 -->
<g id="edge32" class="edge"><title>Node20&#45;&gt;Node18</title>
<path fill="none" stroke="midnightblue" d="M1149.63,-224.402C1166.12,-216.037 1191.1,-202.498 1211,-188 1231.55,-173.03 1252.75,-152.896 1266.57,-139.023"/>
<polygon fill="midnightblue" stroke="midnightblue" points="1269.29,-141.253 1273.79,-131.665 1264.29,-136.349 1269.29,-141.253"/>
</g>
<!-- Node21 -->
<g id="node22" class="node"><title>Node21</title>
<g id="a_node22"><a xlink:href="../../d9/d21/sortdict_8h.html" target="_top" xlink:title="sortdict.h">
<polygon fill="white" stroke="black" points="880.5,-168.5 880.5,-187.5 937.5,-187.5 937.5,-168.5 880.5,-168.5"/>
<text text-anchor="middle" x="909" y="-175.5" font-family="Helvetica,sans-Serif" font-size="10.00">sortdict.h</text>
</a>
</g>
</g>
<!-- Node20&#45;&gt;Node21 -->
<g id="edge28" class="edge"><title>Node20&#45;&gt;Node21</title>
<path fill="none" stroke="midnightblue" d="M1100.99,-225.492C1060.89,-215.779 991.025,-198.863 947.545,-188.334"/>
<polygon fill="midnightblue" stroke="midnightblue" points="948.169,-184.884 937.626,-185.932 946.521,-191.687 948.169,-184.884"/>
</g>
<!-- Node21&#45;&gt;Node3 -->
<g id="edge29" class="edge"><title>Node21&#45;&gt;Node3</title>
<path fill="none" stroke="midnightblue" d="M910.412,-168.368C913.317,-150.617 920.018,-109.666 923.957,-85.5974"/>
<polygon fill="midnightblue" stroke="midnightblue" points="927.433,-86.0254 925.594,-75.5914 920.525,-84.8949 927.433,-86.0254"/>
</g>
<!-- Node21&#45;&gt;Node19 -->
<g id="edge30" class="edge"><title>Node21&#45;&gt;Node19</title>
<path fill="none" stroke="midnightblue" d="M937.66,-169.177C1010.46,-149.307 1202.16,-96.9812 1279.23,-75.9452"/>
<polygon fill="midnightblue" stroke="midnightblue" points="1280.17,-79.3166 1288.89,-73.3068 1278.33,-72.5636 1280.17,-79.3166"/>
</g>
<!-- Node22 -->
<g id="node23" class="node"><title>Node22</title>
<polygon fill="white" stroke="#bfbfbf" points="824,-112.5 824,-131.5 880,-131.5 880,-112.5 824,-112.5"/>
<text text-anchor="middle" x="852" y="-119.5" font-family="Helvetica,sans-Serif" font-size="10.00">qintdict.h</text>
</g>
<!-- Node21&#45;&gt;Node22 -->
<g id="edge31" class="edge"><title>Node21&#45;&gt;Node22</title>
<path fill="none" stroke="midnightblue" d="M899.842,-168.324C891.499,-160.42 878.968,-148.548 868.823,-138.938"/>
<polygon fill="midnightblue" stroke="midnightblue" points="870.991,-136.171 861.325,-131.834 866.177,-141.252 870.991,-136.171"/>
</g>
<!-- Node23&#45;&gt;Node7 -->
<g id="edge39" class="edge"><title>Node23&#45;&gt;Node7</title>
<path fill="none" stroke="midnightblue" d="M698.929,-287.795C622.64,-284.412 428.167,-273.105 371,-244 349.529,-233.069 331.612,-211.393 320.868,-196.084"/>
<polygon fill="midnightblue" stroke="midnightblue" points="323.61,-193.889 315.137,-187.528 317.794,-197.784 323.61,-193.889"/>
</g>
<!-- Node23&#45;&gt;Node19 -->
<g id="edge37" class="edge"><title>Node23&#45;&gt;Node19</title>
<path fill="none" stroke="midnightblue" d="M761.309,-287.964C849.212,-284.719 1096.76,-273.169 1172,-244 1249.91,-213.799 1285.43,-206.636 1323,-132 1330.38,-117.336 1326.04,-98.6986 1320.79,-85.1439"/>
<polygon fill="midnightblue" stroke="midnightblue" points="1323.98,-83.6956 1316.78,-75.9193 1317.56,-86.4857 1323.98,-83.6956"/>
</g>
<!-- Node23&#45;&gt;Node21 -->
<g id="edge40" class="edge"><title>Node23&#45;&gt;Node21</title>
<path fill="none" stroke="midnightblue" d="M761.094,-281.126C785.756,-273.952 820.383,-261.748 847,-244 866.771,-230.817 884.971,-210.299 896.466,-195.849"/>
<polygon fill="midnightblue" stroke="midnightblue" points="899.373,-197.81 902.711,-187.755 893.831,-193.534 899.373,-197.81"/>
</g>
<!-- Node23&#45;&gt;Node22 -->
<g id="edge38" class="edge"><title>Node23&#45;&gt;Node22</title>
<path fill="none" stroke="midnightblue" d="M714.489,-280.338C695.249,-268.406 666.43,-245.893 679,-224 707.875,-173.706 772.535,-146.079 814.109,-132.929"/>
<polygon fill="midnightblue" stroke="midnightblue" points="815.333,-136.216 823.889,-129.967 813.304,-129.516 815.333,-136.216"/>
</g>
<!-- Node24 -->
<g id="node25" class="node"><title>Node24</title>
<polygon fill="white" stroke="#bfbfbf" points="526,-224.5 526,-243.5 594,-243.5 594,-224.5 526,-224.5"/>
<text text-anchor="middle" x="560" y="-231.5" font-family="Helvetica,sans-Serif" font-size="10.00">qdatetime.h</text>
</g>
<!-- Node23&#45;&gt;Node24 -->
<g id="edge34" class="edge"><title>Node23&#45;&gt;Node24</title>
<path fill="none" stroke="midnightblue" d="M703.063,-280.444C674.34,-271.32 628.671,-256.813 596.679,-246.651"/>
<polygon fill="midnightblue" stroke="midnightblue" points="597.401,-243.208 586.811,-243.516 595.282,-249.88 597.401,-243.208"/>
</g>
<!-- Node25 -->
<g id="node26" class="node"><title>Node25</title>
<polygon fill="white" stroke="#bfbfbf" points="380,-224.5 380,-243.5 436,-243.5 436,-224.5 380,-224.5"/>
<text text-anchor="middle" x="408" y="-231.5" font-family="Helvetica,sans-Serif" font-size="10.00">qcache.h</text>
</g>
<!-- Node23&#45;&gt;Node25 -->
<g id="edge35" class="edge"><title>Node23&#45;&gt;Node25</title>
<path fill="none" stroke="midnightblue" d="M698.643,-284.906C647.745,-278.076 543.806,-263.361 446.254,-244.117"/>
<polygon fill="midnightblue" stroke="midnightblue" points="446.72,-240.641 436.229,-242.119 445.351,-247.506 446.72,-240.641"/>
</g>
<!-- Node26 -->
<g id="node27" class="node"><title>Node26</title>
<polygon fill="white" stroke="#bfbfbf" points="454,-224.5 454,-243.5 508,-243.5 508,-224.5 454,-224.5"/>
<text text-anchor="middle" x="481" y="-231.5" font-family="Helvetica,sans-Serif" font-size="10.00">qstrlist.h</text>
</g>
<!-- Node23&#45;&gt;Node26 -->
<g id="edge36" class="edge"><title>Node23&#45;&gt;Node26</title>
<path fill="none" stroke="midnightblue" d="M698.879,-282.798C659.187,-274.808 588.198,-260.244 517.998,-244.167"/>
<polygon fill="midnightblue" stroke="midnightblue" points="518.631,-240.721 508.101,-241.889 517.061,-247.543 518.631,-240.721"/>
</g>
<!-- Node27 -->
<g id="node28" class="node"><title>Node27</title>
<g id="a_node28"><a xlink:href="../../d9/d11/membergroup_8h.html" target="_top" xlink:title="membergroup.h">
<polygon fill="white" stroke="black" points="688,-224.5 688,-243.5 772,-243.5 772,-224.5 688,-224.5"/>
<text text-anchor="middle" x="730" y="-231.5" font-family="Helvetica,sans-Serif" font-size="10.00">membergroup.h</text>
</a>
</g>
</g>
<!-- Node23&#45;&gt;Node27 -->
<g id="edge41" class="edge"><title>Node23&#45;&gt;Node27</title>
<path fill="none" stroke="midnightblue" d="M730,-280.083C730,-273.006 730,-262.861 730,-253.986"/>
<polygon fill="midnightblue" stroke="midnightblue" points="733.5,-253.751 730,-243.751 726.5,-253.751 733.5,-253.751"/>
</g>
<!-- Node28 -->
<g id="node29" class="node"><title>Node28</title>
<g id="a_node29"><a xlink:href="../../d6/d15/dirdef_8h.html" target="_top" xlink:title="dirdef.h">
<polygon fill="white" stroke="black" points="789.5,-224.5 789.5,-243.5 838.5,-243.5 838.5,-224.5 789.5,-224.5"/>
<text text-anchor="middle" x="814" y="-231.5" font-family="Helvetica,sans-Serif" font-size="10.00">dirdef.h</text>
</a>
</g>
</g>
<!-- Node23&#45;&gt;Node28 -->
<g id="edge45" class="edge"><title>Node23&#45;&gt;Node28</title>
<path fill="none" stroke="midnightblue" d="M743.496,-280.324C756.6,-271.9 776.712,-258.971 792.107,-249.074"/>
<polygon fill="midnightblue" stroke="midnightblue" points="794.018,-252.006 800.537,-243.655 790.233,-246.118 794.018,-252.006"/>
</g>
<!-- Node29 -->
<g id="node30" class="node"><title>Node29</title>
<g id="a_node30"><a xlink:href="../../dd/d78/memberlist_8h.html" target="_top" xlink:title="memberlist.h">
<polygon fill="white" stroke="black" points="971.5,-224.5 971.5,-243.5 1044.5,-243.5 1044.5,-224.5 971.5,-224.5"/>
<text text-anchor="middle" x="1008" y="-231.5" font-family="Helvetica,sans-Serif" font-size="10.00">memberlist.h</text>
</a>
</g>
</g>
<!-- Node23&#45;&gt;Node29 -->
<g id="edge49" class="edge"><title>Node23&#45;&gt;Node29</title>
<path fill="none" stroke="midnightblue" d="M761.081,-282.963C809.867,-273.486 904.709,-255.064 961.597,-244.014"/>
<polygon fill="midnightblue" stroke="midnightblue" points="962.266,-247.449 971.415,-242.107 960.931,-240.578 962.266,-247.449"/>
</g>
<!-- Node27&#45;&gt;Node3 -->
<g id="edge42" class="edge"><title>Node27&#45;&gt;Node3</title>
<path fill="none" stroke="midnightblue" d="M732.911,-224.309C740.709,-202.317 764.148,-143.938 803,-112 829.707,-90.0458 868.035,-78.3359 894.992,-72.4226"/>
<polygon fill="midnightblue" stroke="midnightblue" points="895.975,-75.7942 905.072,-70.3638 894.574,-68.9358 895.975,-75.7942"/>
</g>
<!-- Node27&#45;&gt;Node17 -->
<g id="edge44" class="edge"><title>Node27&#45;&gt;Node17</title>
<path fill="none" stroke="midnightblue" d="M737.708,-224.295C745.438,-215.416 757.522,-201.117 767,-188 790.399,-155.619 781.64,-133.98 815,-112 855.237,-85.4888 996.625,-73.3328 1063.04,-68.9871"/>
<polygon fill="midnightblue" stroke="midnightblue" points="1063.65,-72.456 1073.41,-68.3328 1063.21,-65.4699 1063.65,-72.456"/>
</g>
<!-- Node27&#45;&gt;Node21 -->
<g id="edge43" class="edge"><title>Node27&#45;&gt;Node21</title>
<path fill="none" stroke="midnightblue" d="M758.363,-224.444C788.738,-215.28 837.11,-200.688 870.816,-190.519"/>
<polygon fill="midnightblue" stroke="midnightblue" points="872.207,-193.756 880.77,-187.516 870.185,-187.054 872.207,-193.756"/>
</g>
<!-- Node28&#45;&gt;Node3 -->
<g id="edge48" class="edge"><title>Node28&#45;&gt;Node3</title>
<path fill="none" stroke="midnightblue" d="M811.118,-224.433C804.556,-203.22 790.855,-147.406 815,-112 832.927,-85.7117 868.991,-74.777 895.369,-70.2309"/>
<polygon fill="midnightblue" stroke="midnightblue" points="895.929,-73.6862 905.297,-68.7372 894.887,-66.7641 895.929,-73.6862"/>
</g>
<!-- Node28&#45;&gt;Node18 -->
<g id="edge47" class="edge"><title>Node28&#45;&gt;Node18</title>
<path fill="none" stroke="midnightblue" d="M838.503,-227.241C914.173,-209.455 1144.78,-155.252 1240.09,-132.85"/>
<polygon fill="midnightblue" stroke="midnightblue" points="1241.03,-136.226 1249.96,-130.531 1239.43,-129.412 1241.03,-136.226"/>
</g>
<!-- Node28&#45;&gt;Node21 -->
<g id="edge46" class="edge"><title>Node28&#45;&gt;Node21</title>
<path fill="none" stroke="midnightblue" d="M829.263,-224.324C844.221,-215.822 867.255,-202.729 884.727,-192.797"/>
<polygon fill="midnightblue" stroke="midnightblue" points="886.81,-195.639 893.774,-187.655 883.351,-189.553 886.81,-195.639"/>
</g>
<!-- Node29&#45;&gt;Node3 -->
<g id="edge50" class="edge"><title>Node29&#45;&gt;Node3</title>
<path fill="none" stroke="midnightblue" d="M1003.65,-224.075C990.785,-197.719 952.802,-119.878 935.618,-84.6608"/>
<polygon fill="midnightblue" stroke="midnightblue" points="938.712,-83.0204 931.181,-75.5681 932.421,-86.0902 938.712,-83.0204"/>
</g>
<!-- Node29&#45;&gt;Node15 -->
<g id="edge51" class="edge"><title>Node29&#45;&gt;Node15</title>
<path fill="none" stroke="midnightblue" d="M1032.88,-224.444C1059.29,-215.359 1101.22,-200.939 1130.74,-190.783"/>
<polygon fill="midnightblue" stroke="midnightblue" points="1131.92,-194.079 1140.24,-187.516 1129.64,-187.459 1131.92,-194.079"/>
</g>
<!-- Node29&#45;&gt;Node17 -->
<g id="edge53" class="edge"><title>Node29&#45;&gt;Node17</title>
<path fill="none" stroke="midnightblue" d="M1012.84,-224.075C1027.13,-197.719 1069.33,-119.878 1088.42,-84.6608"/>
<polygon fill="midnightblue" stroke="midnightblue" points="1091.67,-86.0274 1093.35,-75.5681 1085.51,-82.691 1091.67,-86.0274"/>
</g>
<!-- Node29&#45;&gt;Node21 -->
<g id="edge52" class="edge"><title>Node29&#45;&gt;Node21</title>
<path fill="none" stroke="midnightblue" d="M992.094,-224.324C976.362,-215.743 952.058,-202.486 933.791,-192.522"/>
<polygon fill="midnightblue" stroke="midnightblue" points="935.322,-189.37 924.867,-187.655 931.97,-195.516 935.322,-189.37"/>
</g>
<!-- Node30&#45;&gt;Node2 -->
<g id="edge55" class="edge"><title>Node30&#45;&gt;Node2</title>
<path fill="none" stroke="midnightblue" d="M982.328,-287.601C914.568,-283.576 732.448,-270.525 679,-244 656.773,-232.969 637.568,-211.36 625.913,-196.091"/>
<polygon fill="midnightblue" stroke="midnightblue" points="628.691,-193.961 619.958,-187.962 623.044,-198.098 628.691,-193.961"/>
</g>
<!-- Node30&#45;&gt;Node3 -->
<g id="edge56" class="edge"><title>Node30&#45;&gt;Node3</title>
<path fill="none" stroke="midnightblue" d="M1021.79,-280.189C1032.83,-272.241 1047.5,-259.447 1054,-244 1057.45,-235.807 1056.86,-232.417 1054,-224 1033.17,-162.667 976.254,-108.086 946.191,-82.4581"/>
<polygon fill="midnightblue" stroke="midnightblue" points="948.054,-79.4548 938.133,-75.7365 943.57,-84.83 948.054,-79.4548"/>
</g>
<!-- Node30&#45;&gt;Node18 -->
<g id="edge59" class="edge"><title>Node30&#45;&gt;Node18</title>
<path fill="none" stroke="midnightblue" d="M1033.74,-285.541C1067.19,-280.262 1126.66,-268.154 1172,-244 1218.19,-219.392 1254.9,-167.474 1271.83,-140.343"/>
<polygon fill="midnightblue" stroke="midnightblue" points="1274.96,-141.931 1277.15,-131.565 1268.98,-138.301 1274.96,-141.931"/>
</g>
<!-- Node30&#45;&gt;Node19 -->
<g id="edge58" class="edge"><title>Node30&#45;&gt;Node19</title>
<path fill="none" stroke="midnightblue" d="M1033.69,-287.602C1110.55,-283.161 1334.71,-268.222 1356,-244 1394.73,-199.937 1378.15,-166.326 1356,-112 1351.2,-100.225 1341.67,-89.8564 1332.71,-82.0486"/>
<polygon fill="midnightblue" stroke="midnightblue" points="1334.75,-79.2048 1324.78,-75.6314 1330.35,-84.6448 1334.75,-79.2048"/>
</g>
<!-- Node30&#45;&gt;Node21 -->
<g id="edge60" class="edge"><title>Node30&#45;&gt;Node21</title>
<path fill="none" stroke="midnightblue" d="M998.531,-280.329C989.011,-271.476 974.056,-257.198 962,-244 947.638,-228.278 932.388,-209.305 921.952,-195.927"/>
<polygon fill="midnightblue" stroke="midnightblue" points="924.452,-193.439 915.566,-187.668 918.914,-197.72 924.452,-193.439"/>
</g>
<!-- Node30&#45;&gt;Node22 -->
<g id="edge57" class="edge"><title>Node30&#45;&gt;Node22</title>
<path fill="none" stroke="midnightblue" d="M989.288,-280.459C959.509,-265.88 901.581,-233.313 871,-188 861.648,-174.144 856.824,-155.627 854.382,-141.902"/>
<polygon fill="midnightblue" stroke="midnightblue" points="857.797,-141.074 852.844,-131.708 850.875,-142.118 857.797,-141.074"/>
</g>
<!-- Node30&#45;&gt;Node29 -->
<g id="edge61" class="edge"><title>Node30&#45;&gt;Node29</title>
<path fill="none" stroke="midnightblue" d="M1008,-280.083C1008,-273.006 1008,-262.861 1008,-253.986"/>
<polygon fill="midnightblue" stroke="midnightblue" points="1011.5,-253.751 1008,-243.751 1004.5,-253.751 1011.5,-253.751"/>
</g>
</g>
</svg>
        <g id="navigator" transform="translate(0 0)" fill="#404254">
                <rect fill="#f2f5e9" fill-opacity="0.5" stroke="#606060" stroke-width=".5" x="0" y="0" width="60" height="60"/>
                <use id="zoomplus" xlink:href="#zoomPlus" x="17" y="9" onmousedown="handleZoom(evt,'in')"/>
                <use id="zoomminus" xlink:href="#zoomMin" x="42" y="9" onmousedown="handleZoom(evt,'out')"/>
                <use id="reset" xlink:href="#resetDef" x="30" y="36" onmousedown="handleReset()"/>
                <g id="arrowUp" xlink:href="#dirArrow" transform="translate(30 24)" onmousedown="handlePan(0,-1)">
                  <use xlink:href="#rim" fill="#404040">
                        <set attributeName="fill" to="#808080" begin="arrowUp.mouseover" end="arrowUp.mouseout"/>
                  </use>
                  <path fill="none" stroke="white" stroke-width="1.5" d="M0,-3.0v7 M-2.5,-0.5L0,-3.0L2.5,-0.5"/>
                </g>
                <g id="arrowRight" xlink:href="#dirArrow" transform="rotate(90) translate(36 -43)" onmousedown="handlePan(1,0)">
                  <use xlink:href="#rim" fill="#404040">
                        <set attributeName="fill" to="#808080" begin="arrowRight.mouseover" end="arrowRight.mouseout"/>
                  </use>
                  <path fill="none" stroke="white" stroke-width="1.5" d="M0,-3.0v7 M-2.5,-0.5L0,-3.0L2.5,-0.5"/>
                </g>
                <g id="arrowDown" xlink:href="#dirArrow" transform="rotate(180) translate(-30 -48)" onmousedown="handlePan(0,1)">
                  <use xlink:href="#rim" fill="#404040">
                        <set attributeName="fill" to="#808080" begin="arrowDown.mouseover" end="arrowDown.mouseout"/>
                  </use>
                  <path fill="none" stroke="white" stroke-width="1.5" d="M0,-3.0v7 M-2.5,-0.5L0,-3.0L2.5,-0.5"/>
                </g>
                <g id="arrowLeft" xlink:href="#dirArrow" transform="rotate(270) translate(-36 17)" onmousedown="handlePan(-1,0)">
                  <use xlink:href="#rim" fill="#404040">
                        <set attributeName="fill" to="#808080" begin="arrowLeft.mouseover" end="arrowLeft.mouseout"/>
                  </use>
                  <path fill="none" stroke="white" stroke-width="1.5" d="M0,-3.0v7 M-2.5,-0.5L0,-3.0L2.5,-0.5"/>
                </g>
        </g>
        <svg viewBox="0 0 15 15" width="100%" height="30px" preserveAspectRatio="xMaxYMin meet">
         <g id="arrow_out" transform="scale(0.3 0.3)">
          <a xlink:href="qhp_8cpp__incl_org.svg" target="_base">
           <rect id="button" ry="5" rx="5" y="6" x="6" height="38" width="38"
                fill="#f2f5e9" fill-opacity="0.5" stroke="#606060" stroke-width="1.0"/>
           <path id="arrow"
             d="M 11.500037,31.436501 C 11.940474,20.09759 22.043105,11.32322 32.158766,21.979434 L 37.068811,17.246167 C 37.068811,17.246167 37.088388,32 37.088388,32 L 22.160133,31.978069 C 22.160133,31.978069 26.997745,27.140456 26.997745,27.140456 C 18.528582,18.264221 13.291696,25.230495 11.500037,31.436501 z"
             style="fill:#404040;"/>
          </a>
         </g>
        </svg>
</svg>
