<?xml version="1.0" encoding="UTF-8" standalone="no"?>
<!DOCTYPE svg PUBLIC "-//W3C//DTD SVG 1.1//EN"
 "http://www.w3.org/Graphics/SVG/1.1/DTD/svg11.dtd">
<!-- Generated by graphviz version 2.38.0 (20140413.2041)
 -->
<!-- Title: SearchIndexContext::Private Pages: 1 -->
<!--zoomable 320 -->
<svg id="main" version="1.1" xmlns="http://www.w3.org/2000/svg" xmlns:xlink="http://www.w3.org/1999/xlink" xml:space="preserve" onload="init(evt)">
<style type="text/css"><![CDATA[
.edge:hover path { stroke: red; }
.edge:hover polygon { stroke: red; fill: red; }
]]></style>
<script type="text/javascript"><![CDATA[
var edges = document.getElementsByTagName('g');
if (edges && edges.length) {
  for (var i=0;i<edges.length;i++) {
    if (edges[i].id.substr(0,4)=='edge') {
      edges[i].setAttribute('class','edge');
    }
  }
}
]]></script>
        <defs>
                <circle id="rim" cx="0" cy="0" r="7"/>
                <circle id="rim2" cx="0" cy="0" r="3.5"/>
                <g id="zoomPlus">
                        <use xlink:href="#rim" fill="#404040">
                                <set attributeName="fill" to="#808080" begin="zoomplus.mouseover" end="zoomplus.mouseout"/>
                        </use>
                        <path d="M-4,0h8M0,-4v8" fill="none" stroke="white" stroke-width="1.5" pointer-events="none"/>
                </g>
                <g id="zoomMin">
                        <use xlink:href="#rim" fill="#404040">
                                <set attributeName="fill" to="#808080" begin="zoomminus.mouseover" end="zoomminus.mouseout"/>
                        </use>
                        <path d="M-4,0h8" fill="none" stroke="white" stroke-width="1.5" pointer-events="none"/>
                </g>
                <g id="dirArrow">
                        <path fill="none" stroke="white" stroke-width="1.5" d="M0,-3.0v7 M-2.5,-0.5L0,-3.0L2.5,-0.5"/>
                </g>
               <g id="resetDef">
                       <use xlink:href="#rim2" fill="#404040">
                               <set attributeName="fill" to="#808080" begin="reset.mouseover" end="reset.mouseout"/>
                       </use>
               </g>
        </defs>

<script type="text/javascript">
var viewWidth = 1446;
var viewHeight = 320;
var sectionId = 'dynsection-0';
</script>
<script xlink:href="../../svgpan.js"/>
<svg id="graph" class="graph">
<g id="viewport">
<title>SearchIndexContext::Private</title>
<polygon fill="white" stroke="none" points="-4,4 -4,-316 1442,-316 1442,4 -4,4"/>
<!-- Node1 -->
<g id="node1" class="node"><title>Node1</title>
<polygon fill="#bfbfbf" stroke="black" points="1332,-177 1332,-207 1438,-207 1438,-177 1332,-177"/>
<text text-anchor="start" x="1340" y="-195" font-family="Helvetica,sans-Serif" font-size="10.00">SearchIndexContext</text>
<text text-anchor="middle" x="1385" y="-184" font-family="Helvetica,sans-Serif" font-size="10.00">::Private</text>
</g>
<!-- Node2 -->
<g id="node2" class="node"><title>Node2</title>
<g id="a_node2"><a xlink:href="../../d1/d80/class_property_mapper.html" target="_top" xlink:title="PropertyMapper\&lt; SearchIndex\lContext::Private \&gt;">
<polygon fill="white" stroke="black" points="1104,-226 1104,-256 1253,-256 1253,-226 1104,-226"/>
<text text-anchor="start" x="1112" y="-244" font-family="Helvetica,sans-Serif" font-size="10.00">PropertyMapper&lt; SearchIndex</text>
<text text-anchor="middle" x="1178.5" y="-233" font-family="Helvetica,sans-Serif" font-size="10.00">Context::Private &gt;</text>
</a>
</g>
</g>
<!-- Node2&#45;&gt;Node1 -->
<g id="edge1" class="edge"><title>Node2&#45;&gt;Node1</title>
<path fill="none" stroke="#9a32cd" stroke-dasharray="5,2" d="M1252.15,-223.591C1278.41,-217.3 1307.52,-210.325 1331.69,-204.534"/>
<polygon fill="#9a32cd" stroke="#9a32cd" points="1251.16,-220.232 1242.25,-225.965 1252.79,-227.039 1251.16,-220.232"/>
<text text-anchor="middle" x="1292.5" y="-220" font-family="Helvetica,sans-Serif" font-size="10.00"> s_inst</text>
</g>
<!-- Node3 -->
<g id="node3" class="node"><title>Node3</title>
<g id="a_node3"><a xlink:href="../../d1/d80/class_property_mapper.html" target="_top" xlink:title="Helper class to map a property name to a handler member function. ">
<polygon fill="white" stroke="black" points="841.5,-231.5 841.5,-250.5 951.5,-250.5 951.5,-231.5 841.5,-231.5"/>
<text text-anchor="middle" x="896.5" y="-238.5" font-family="Helvetica,sans-Serif" font-size="10.00">PropertyMapper&lt; T &gt;</text>
</a>
</g>
</g>
<!-- Node3&#45;&gt;Node2 -->
<g id="edge2" class="edge"><title>Node3&#45;&gt;Node2</title>
<path fill="none" stroke="orange" stroke-dasharray="5,2" d="M961.999,-241C1004.29,-241 1059.7,-241 1103.74,-241"/>
<polygon fill="orange" stroke="orange" points="961.819,-237.5 951.819,-241 961.819,-244.5 961.819,-237.5"/>
<text text-anchor="start" x="984" y="-255" font-family="Helvetica,sans-Serif" font-size="10.00"> &lt; SearchIndexContext</text>
<text text-anchor="middle" x="1035" y="-244" font-family="Helvetica,sans-Serif" font-size="10.00">::Private &gt;</text>
</g>
<!-- Node4 -->
<g id="node4" class="node"><title>Node4</title>
<g id="a_node4"><a xlink:href="../../d0/dc5/struct_search_index_context_1_1_private_1_1_cachable.html" target="_top" xlink:title="SearchIndexContext\l::Private::Cachable">
<polygon fill="white" stroke="black" points="1125.5,-177 1125.5,-207 1231.5,-207 1231.5,-177 1125.5,-177"/>
<text text-anchor="start" x="1133.5" y="-195" font-family="Helvetica,sans-Serif" font-size="10.00">SearchIndexContext</text>
<text text-anchor="middle" x="1178.5" y="-184" font-family="Helvetica,sans-Serif" font-size="10.00">::Private::Cachable</text>
</a>
</g>
</g>
<!-- Node4&#45;&gt;Node1 -->
<g id="edge3" class="edge"><title>Node4&#45;&gt;Node1</title>
<path fill="none" stroke="#9a32cd" stroke-dasharray="5,2" d="M1242,-192C1270.79,-192 1304.57,-192 1331.96,-192"/>
<polygon fill="#9a32cd" stroke="#9a32cd" points="1241.63,-188.5 1231.63,-192 1241.63,-195.5 1241.63,-188.5"/>
<text text-anchor="middle" x="1292.5" y="-195" font-family="Helvetica,sans-Serif" font-size="10.00"> m_cache</text>
</g>
<!-- Node5 -->
<g id="node5" class="node"><title>Node5</title>
<g id="a_node5"><a xlink:href="../../df/d12/class_shared_ptr.html" target="_top" xlink:title="SharedPtr\&lt; SymbolIndices\lContext \&gt;">
<polygon fill="white" stroke="black" points="829.5,-180 829.5,-210 963.5,-210 963.5,-180 829.5,-180"/>
<text text-anchor="start" x="837.5" y="-198" font-family="Helvetica,sans-Serif" font-size="10.00">SharedPtr&lt; SymbolIndices</text>
<text text-anchor="middle" x="896.5" y="-187" font-family="Helvetica,sans-Serif" font-size="10.00">Context &gt;</text>
</a>
</g>
</g>
<!-- Node5&#45;&gt;Node4 -->
<g id="edge4" class="edge"><title>Node5&#45;&gt;Node4</title>
<path fill="none" stroke="#9a32cd" stroke-dasharray="5,2" d="M973.575,-194.185C1021.75,-193.669 1082.79,-193.015 1125.48,-192.557"/>
<polygon fill="#9a32cd" stroke="#9a32cd" points="973.463,-190.686 963.502,-194.293 973.538,-197.685 973.463,-190.686"/>
<text text-anchor="middle" x="1035" y="-197" font-family="Helvetica,sans-Serif" font-size="10.00"> symbolIndices</text>
</g>
<!-- Node6 -->
<g id="node6" class="node"><title>Node6</title>
<g id="a_node6"><a xlink:href="../../d8/d39/class_symbol_indices_context.html" target="_top" xlink:title="SymbolIndicesContext">
<polygon fill="white" stroke="black" points="541.5,-250.5 541.5,-269.5 657.5,-269.5 657.5,-250.5 541.5,-250.5"/>
<text text-anchor="middle" x="599.5" y="-257.5" font-family="Helvetica,sans-Serif" font-size="10.00">SymbolIndicesContext</text>
</a>
</g>
</g>
<!-- Node6&#45;&gt;Node5 -->
<g id="edge5" class="edge"><title>Node6&#45;&gt;Node5</title>
<path fill="none" stroke="#9a32cd" stroke-dasharray="5,2" d="M653.524,-248.317C702.74,-237.473 776.186,-221.29 829.245,-209.598"/>
<polygon fill="#9a32cd" stroke="#9a32cd" points="652.724,-244.909 643.711,-250.479 654.23,-251.745 652.724,-244.909"/>
<text text-anchor="middle" x="748.5" y="-241" font-family="Helvetica,sans-Serif" font-size="10.00"> m_ptr</text>
</g>
<!-- Node7 -->
<g id="node7" class="node"><title>Node7</title>
<g id="a_node7"><a xlink:href="../../d8/d96/class_ref_counted_context.html" target="_top" xlink:title="Helper class to support reference counting. ">
<polygon fill="white" stroke="black" points="291,-292.5 291,-311.5 395,-311.5 395,-292.5 291,-292.5"/>
<text text-anchor="middle" x="343" y="-299.5" font-family="Helvetica,sans-Serif" font-size="10.00">RefCountedContext</text>
</a>
</g>
</g>
<!-- Node7&#45;&gt;Node6 -->
<g id="edge6" class="edge"><title>Node7&#45;&gt;Node6</title>
<path fill="none" stroke="midnightblue" d="M405.282,-294.092C436.924,-289.781 476.111,-284.09 511,-278 525.209,-275.52 540.641,-272.466 554.534,-269.583"/>
<polygon fill="midnightblue" stroke="midnightblue" points="404.731,-290.634 395.289,-295.441 405.668,-297.571 404.731,-290.634"/>
</g>
<!-- Node8 -->
<g id="node8" class="node"><title>Node8</title>
<g id="a_node8"><a xlink:href="../../d6/d88/class_template_list_intf.html" target="_top" xlink:title="Abstract read&#45;only interface for a context value of type list. ">
<polygon fill="white" stroke="black" points="0,-238.5 0,-257.5 87,-257.5 87,-238.5 0,-238.5"/>
<text text-anchor="middle" x="43.5" y="-245.5" font-family="Helvetica,sans-Serif" font-size="10.00">TemplateListIntf</text>
</a>
</g>
</g>
<!-- Node8&#45;&gt;Node6 -->
<g id="edge7" class="edge"><title>Node8&#45;&gt;Node6</title>
<path fill="none" stroke="midnightblue" d="M97.2719,-249.784C99.8849,-249.86 102.472,-249.933 105,-250 262.836,-254.208 449.111,-257.539 541.128,-259.075"/>
<polygon fill="midnightblue" stroke="midnightblue" points="97.2376,-246.282 87.1364,-249.478 97.026,-253.279 97.2376,-246.282"/>
</g>
<!-- Node10 -->
<g id="node10" class="node"><title>Node10</title>
<g id="a_node10"><a xlink:href="../../d6/dcb/class_generic_node_list_context.html" target="_top" xlink:title="standard template list implementation ">
<polygon fill="white" stroke="black" points="124,-215.5 124,-234.5 248,-234.5 248,-215.5 124,-215.5"/>
<text text-anchor="middle" x="186" y="-222.5" font-family="Helvetica,sans-Serif" font-size="10.00">GenericNodeListContext</text>
</a>
</g>
</g>
<!-- Node8&#45;&gt;Node10 -->
<g id="edge10" class="edge"><title>Node8&#45;&gt;Node10</title>
<path fill="none" stroke="midnightblue" d="M96.9632,-239.412C106.691,-237.819 116.907,-236.147 126.794,-234.528"/>
<polygon fill="midnightblue" stroke="midnightblue" points="96.3391,-235.967 87.0359,-241.037 97.47,-242.875 96.3391,-235.967"/>
</g>
<!-- Node9 -->
<g id="node9" class="node"><title>Node9</title>
<g id="a_node9"><a xlink:href="../../d6/d8b/class_symbol_indices_context_1_1_private.html" target="_top" xlink:title="SymbolIndicesContext\l::Private">
<polygon fill="white" stroke="black" points="285,-205 285,-235 401,-235 401,-205 285,-205"/>
<text text-anchor="start" x="293" y="-223" font-family="Helvetica,sans-Serif" font-size="10.00">SymbolIndicesContext</text>
<text text-anchor="middle" x="343" y="-212" font-family="Helvetica,sans-Serif" font-size="10.00">::Private</text>
</a>
</g>
</g>
<!-- Node9&#45;&gt;Node6 -->
<g id="edge8" class="edge"><title>Node9&#45;&gt;Node6</title>
<path fill="none" stroke="#9a32cd" stroke-dasharray="5,2" d="M411.186,-225.753C441.763,-228.855 478.339,-233.245 511,-239 528.232,-242.036 547.134,-246.435 562.946,-250.424"/>
<polygon fill="#9a32cd" stroke="#9a32cd" points="411.357,-222.252 401.06,-224.75 410.667,-229.218 411.357,-222.252"/>
<text text-anchor="middle" x="465" y="-242" font-family="Helvetica,sans-Serif" font-size="10.00"> p</text>
</g>
<!-- Node10&#45;&gt;Node9 -->
<g id="edge9" class="edge"><title>Node10&#45;&gt;Node9</title>
<path fill="none" stroke="midnightblue" d="M258.285,-222.7C267.228,-222.412 276.283,-222.12 284.968,-221.84"/>
<polygon fill="midnightblue" stroke="midnightblue" points="258.142,-219.203 248.26,-223.024 258.368,-226.2 258.142,-219.203"/>
</g>
<!-- Node11 -->
<g id="node11" class="node"><title>Node11</title>
<g id="a_node11"><a xlink:href="../../df/d12/class_shared_ptr.html" target="_top" xlink:title="Reference counting smart pointer. ">
<polygon fill="white" stroke="black" points="557.5,-185.5 557.5,-204.5 641.5,-204.5 641.5,-185.5 557.5,-185.5"/>
<text text-anchor="middle" x="599.5" y="-192.5" font-family="Helvetica,sans-Serif" font-size="10.00">SharedPtr&lt; T &gt;</text>
</a>
</g>
</g>
<!-- Node11&#45;&gt;Node5 -->
<g id="edge11" class="edge"><title>Node11&#45;&gt;Node5</title>
<path fill="none" stroke="orange" stroke-dasharray="5,2" d="M651.621,-195C700.857,-195 775.577,-195 829.331,-195"/>
<polygon fill="orange" stroke="orange" points="651.519,-191.5 641.518,-195 651.518,-198.5 651.519,-191.5"/>
<text text-anchor="middle" x="748.5" y="-198" font-family="Helvetica,sans-Serif" font-size="10.00"> &lt; SymbolIndicesContext &gt;</text>
</g>
<!-- Node12 -->
<g id="node12" class="node"><title>Node12</title>
<polygon fill="white" stroke="#bfbfbf" points="328.5,-166.5 328.5,-185.5 357.5,-185.5 357.5,-166.5 328.5,-166.5"/>
<text text-anchor="middle" x="343" y="-173.5" font-family="Helvetica,sans-Serif" font-size="10.00">T</text>
</g>
<!-- Node12&#45;&gt;Node11 -->
<g id="edge12" class="edge"><title>Node12&#45;&gt;Node11</title>
<path fill="none" stroke="#9a32cd" stroke-dasharray="5,2" d="M367.839,-177.78C411.209,-181.018 503.489,-187.907 557.256,-191.921"/>
<polygon fill="#9a32cd" stroke="#9a32cd" points="367.916,-174.276 357.683,-177.022 367.395,-181.256 367.916,-174.276"/>
<text text-anchor="middle" x="465" y="-192" font-family="Helvetica,sans-Serif" font-size="10.00"> m_ptr</text>
</g>
<!-- Node13 -->
<g id="node13" class="node"><title>Node13</title>
<g id="a_node13"><a xlink:href="../../d4/db6/struct_search_index_info.html" target="_top" xlink:title="SearchIndexInfo">
<polygon fill="white" stroke="black" points="1134.5,-109.5 1134.5,-128.5 1222.5,-128.5 1222.5,-109.5 1134.5,-109.5"/>
<text text-anchor="middle" x="1178.5" y="-116.5" font-family="Helvetica,sans-Serif" font-size="10.00">SearchIndexInfo</text>
</a>
</g>
</g>
<!-- Node13&#45;&gt;Node1 -->
<g id="edge13" class="edge"><title>Node13&#45;&gt;Node1</title>
<path fill="none" stroke="#9a32cd" stroke-dasharray="5,2" d="M1215.65,-131.906C1250.87,-144.478 1304.4,-163.584 1341.6,-176.866"/>
<polygon fill="#9a32cd" stroke="#9a32cd" points="1216.83,-128.609 1206.23,-128.543 1214.48,-135.202 1216.83,-128.609"/>
<text text-anchor="middle" x="1292.5" y="-170" font-family="Helvetica,sans-Serif" font-size="10.00"> m_info</text>
</g>
<!-- Node14 -->
<g id="node14" class="node"><title>Node14</title>
<g id="a_node14"><a xlink:href="../../d7/d17/class_letter_to_index_map.html" target="_top" xlink:title="LetterToIndexMap\&lt; Search\lIndexList \&gt;">
<polygon fill="white" stroke="black" points="829,-15 829,-45 964,-45 964,-15 829,-15"/>
<text text-anchor="start" x="837" y="-33" font-family="Helvetica,sans-Serif" font-size="10.00">LetterToIndexMap&lt; Search</text>
<text text-anchor="middle" x="896.5" y="-22" font-family="Helvetica,sans-Serif" font-size="10.00">IndexList &gt;</text>
</a>
</g>
</g>
<!-- Node14&#45;&gt;Node13 -->
<g id="edge14" class="edge"><title>Node14&#45;&gt;Node13</title>
<path fill="none" stroke="#9a32cd" stroke-dasharray="5,2" d="M954.824,-48.2207C1013.25,-66.7919 1101.61,-94.8782 1147.48,-109.459"/>
<polygon fill="#9a32cd" stroke="#9a32cd" points="955.589,-44.7914 944.998,-45.0976 953.468,-51.4625 955.589,-44.7914"/>
<text text-anchor="middle" x="1035" y="-91" font-family="Helvetica,sans-Serif" font-size="10.00"> symbolList</text>
</g>
<!-- Node15 -->
<g id="node15" class="node"><title>Node15</title>
<g id="a_node15"><a xlink:href="../../d0/d9f/class_s_int_dict.html" target="_top" xlink:title="SIntDict\&lt; SearchIndexList \&gt;">
<polygon fill="white" stroke="black" points="529,-43.5 529,-62.5 670,-62.5 670,-43.5 529,-43.5"/>
<text text-anchor="middle" x="599.5" y="-50.5" font-family="Helvetica,sans-Serif" font-size="10.00">SIntDict&lt; SearchIndexList &gt;</text>
</a>
</g>
</g>
<!-- Node15&#45;&gt;Node14 -->
<g id="edge15" class="edge"><title>Node15&#45;&gt;Node14</title>
<path fill="none" stroke="midnightblue" d="M680.306,-44.6739C682.9,-44.4407 685.47,-44.2154 688,-44 734.949,-40.0029 787.953,-36.4429 828.639,-33.9131"/>
<polygon fill="midnightblue" stroke="midnightblue" points="679.845,-41.2014 670.21,-45.607 680.489,-48.1717 679.845,-41.2014"/>
</g>
<!-- Node16 -->
<g id="node16" class="node"><title>Node16</title>
<g id="a_node16"><a xlink:href="../../d8/d9a/class_s_int_list.html" target="_top" xlink:title="SIntList\&lt; SearchIndexList \&gt;">
<polygon fill="white" stroke="black" points="827,-104.5 827,-123.5 966,-123.5 966,-104.5 827,-104.5"/>
<text text-anchor="middle" x="896.5" y="-111.5" font-family="Helvetica,sans-Serif" font-size="10.00">SIntList&lt; SearchIndexList &gt;</text>
</a>
</g>
</g>
<!-- Node15&#45;&gt;Node16 -->
<g id="edge18" class="edge"><title>Node15&#45;&gt;Node16</title>
<path fill="none" stroke="#9a32cd" stroke-dasharray="5,2" d="M646.49,-65.1188C659.84,-68.4857 674.467,-72.0298 688,-75 739.198,-86.2369 797.944,-97.0892 839.83,-104.48"/>
<polygon fill="#9a32cd" stroke="#9a32cd" points="647.124,-61.6687 636.57,-62.5912 645.396,-68.4519 647.124,-61.6687"/>
<text text-anchor="middle" x="748.5" y="-102" font-family="Helvetica,sans-Serif" font-size="10.00"> m_owner</text>
</g>
<!-- Node16&#45;&gt;Node15 -->
<g id="edge16" class="edge"><title>Node16&#45;&gt;Node15</title>
<path fill="none" stroke="#9a32cd" stroke-dasharray="5,2" d="M874.75,-98.2209C857.989,-86.4464 833.274,-71.2015 809,-64 764.171,-50.7 711.579,-48.0108 670.43,-48.6158"/>
<polygon fill="#9a32cd" stroke="#9a32cd" points="873.038,-101.302 883.19,-104.332 877.143,-95.6324 873.038,-101.302"/>
<text text-anchor="middle" x="748.5" y="-67" font-family="Helvetica,sans-Serif" font-size="10.00"> m_list</text>
</g>
<!-- Node17 -->
<g id="node17" class="node"><title>Node17</title>
<polygon fill="white" stroke="#bfbfbf" points="535.5,-147.5 535.5,-166.5 663.5,-166.5 663.5,-147.5 535.5,-147.5"/>
<text text-anchor="middle" x="599.5" y="-154.5" font-family="Helvetica,sans-Serif" font-size="10.00">QList&lt; SearchIndexList &gt;</text>
</g>
<!-- Node17&#45;&gt;Node16 -->
<g id="edge17" class="edge"><title>Node17&#45;&gt;Node16</title>
<path fill="none" stroke="midnightblue" d="M673.651,-150.416C713.756,-146.346 764.272,-140.467 809,-133 824.469,-130.418 841.343,-126.877 856.047,-123.551"/>
<polygon fill="midnightblue" stroke="midnightblue" points="673.291,-146.934 663.689,-151.412 673.988,-153.9 673.291,-146.934"/>
</g>
<!-- Node18 -->
<g id="node18" class="node"><title>Node18</title>
<g id="a_node18"><a xlink:href="../../d8/d9a/class_s_int_list.html" target="_top" xlink:title="internal wrapper class that redirects compareValues() to the dictionary ">
<polygon fill="white" stroke="black" points="562.5,-109.5 562.5,-128.5 636.5,-128.5 636.5,-109.5 562.5,-109.5"/>
<text text-anchor="middle" x="599.5" y="-116.5" font-family="Helvetica,sans-Serif" font-size="10.00">SIntList&lt; T &gt;</text>
</a>
</g>
</g>
<!-- Node18&#45;&gt;Node16 -->
<g id="edge19" class="edge"><title>Node18&#45;&gt;Node16</title>
<path fill="none" stroke="orange" stroke-dasharray="5,2" d="M646.85,-118.214C695.229,-117.394 771.614,-116.1 826.964,-115.162"/>
<polygon fill="orange" stroke="orange" points="646.612,-114.718 636.673,-118.387 646.731,-121.717 646.612,-114.718"/>
<text text-anchor="middle" x="748.5" y="-121" font-family="Helvetica,sans-Serif" font-size="10.00"> &lt; SearchIndexList &gt;</text>
</g>
<!-- Node19 -->
<g id="node19" class="node"><title>Node19</title>
<polygon fill="white" stroke="#bfbfbf" points="311,-109.5 311,-128.5 375,-128.5 375,-109.5 311,-109.5"/>
<text text-anchor="middle" x="343" y="-116.5" font-family="Helvetica,sans-Serif" font-size="10.00">QList&lt; T &gt;</text>
</g>
<!-- Node19&#45;&gt;Node18 -->
<g id="edge20" class="edge"><title>Node19&#45;&gt;Node18</title>
<path fill="none" stroke="midnightblue" d="M385.463,-119C434.511,-119 515.383,-119 562.104,-119"/>
<polygon fill="midnightblue" stroke="midnightblue" points="385.207,-115.5 375.207,-119 385.207,-122.5 385.207,-115.5"/>
</g>
<!-- Node20 -->
<g id="node20" class="node"><title>Node20</title>
<g id="a_node20"><a xlink:href="../../d0/d9f/class_s_int_dict.html" target="_top" xlink:title="Ordered dictionary of elements of type T. ">
<polygon fill="white" stroke="black" points="304.5,-24.5 304.5,-43.5 381.5,-43.5 381.5,-24.5 304.5,-24.5"/>
<text text-anchor="middle" x="343" y="-31.5" font-family="Helvetica,sans-Serif" font-size="10.00">SIntDict&lt; T &gt;</text>
</a>
</g>
</g>
<!-- Node20&#45;&gt;Node15 -->
<g id="edge21" class="edge"><title>Node20&#45;&gt;Node15</title>
<path fill="none" stroke="orange" stroke-dasharray="5,2" d="M391.99,-37.5828C430.6,-40.4653 485.387,-44.5554 528.828,-47.7986"/>
<polygon fill="orange" stroke="orange" points="391.785,-34.0578 381.552,-36.8035 391.264,-41.0384 391.785,-34.0578"/>
<text text-anchor="middle" x="465" y="-50" font-family="Helvetica,sans-Serif" font-size="10.00"> &lt; SearchIndexList &gt;</text>
</g>
<!-- Node21 -->
<g id="node21" class="node"><title>Node21</title>
<g id="a_node21"><a xlink:href="../../d7/d17/class_letter_to_index_map.html" target="_top" xlink:title="maps a unicode character code to a list of T::ElementType&#39;s ">
<polygon fill="white" stroke="black" points="540,-0.5 540,-19.5 659,-19.5 659,-0.5 540,-0.5"/>
<text text-anchor="middle" x="599.5" y="-7.5" font-family="Helvetica,sans-Serif" font-size="10.00">LetterToIndexMap&lt; T &gt;</text>
</a>
</g>
</g>
<!-- Node20&#45;&gt;Node21 -->
<g id="edge23" class="edge"><title>Node20&#45;&gt;Node21</title>
<path fill="none" stroke="midnightblue" d="M391.762,-29.4959C433.628,-25.5478 494.641,-19.7942 539.538,-15.5603"/>
<polygon fill="midnightblue" stroke="midnightblue" points="391.18,-26.0352 381.552,-30.4587 391.837,-33.0043 391.18,-26.0352"/>
</g>
<!-- Node21&#45;&gt;Node14 -->
<g id="edge22" class="edge"><title>Node21&#45;&gt;Node14</title>
<path fill="none" stroke="orange" stroke-dasharray="5,2" d="M669.323,-2.69815C710.12,0.227064 762.73,1.55229 809,-5 823.394,-7.03837 838.746,-10.8951 852.459,-14.9799"/>
<polygon fill="orange" stroke="orange" points="668.92,0.781307 659.217,-3.47251 669.455,-6.19824 668.92,0.781307"/>
<text text-anchor="middle" x="748.5" y="-8" font-family="Helvetica,sans-Serif" font-size="10.00"> &lt; SearchIndexList &gt;</text>
</g>
</g>
</svg>
        <g id="navigator" transform="translate(0 0)" fill="#404254">
                <rect fill="#f2f5e9" fill-opacity="0.5" stroke="#606060" stroke-width=".5" x="0" y="0" width="60" height="60"/>
                <use id="zoomplus" xlink:href="#zoomPlus" x="17" y="9" onmousedown="handleZoom(evt,'in')"/>
                <use id="zoomminus" xlink:href="#zoomMin" x="42" y="9" onmousedown="handleZoom(evt,'out')"/>
                <use id="reset" xlink:href="#resetDef" x="30" y="36" onmousedown="handleReset()"/>
                <g id="arrowUp" xlink:href="#dirArrow" transform="translate(30 24)" onmousedown="handlePan(0,-1)">
                  <use xlink:href="#rim" fill="#404040">
                        <set attributeName="fill" to="#808080" begin="arrowUp.mouseover" end="arrowUp.mouseout"/>
                  </use>
                  <path fill="none" stroke="white" stroke-width="1.5" d="M0,-3.0v7 M-2.5,-0.5L0,-3.0L2.5,-0.5"/>
                </g>
                <g id="arrowRight" xlink:href="#dirArrow" transform="rotate(90) translate(36 -43)" onmousedown="handlePan(1,0)">
                  <use xlink:href="#rim" fill="#404040">
                        <set attributeName="fill" to="#808080" begin="arrowRight.mouseover" end="arrowRight.mouseout"/>
                  </use>
                  <path fill="none" stroke="white" stroke-width="1.5" d="M0,-3.0v7 M-2.5,-0.5L0,-3.0L2.5,-0.5"/>
                </g>
                <g id="arrowDown" xlink:href="#dirArrow" transform="rotate(180) translate(-30 -48)" onmousedown="handlePan(0,1)">
                  <use xlink:href="#rim" fill="#404040">
                        <set attributeName="fill" to="#808080" begin="arrowDown.mouseover" end="arrowDown.mouseout"/>
                  </use>
                  <path fill="none" stroke="white" stroke-width="1.5" d="M0,-3.0v7 M-2.5,-0.5L0,-3.0L2.5,-0.5"/>
                </g>
                <g id="arrowLeft" xlink:href="#dirArrow" transform="rotate(270) translate(-36 17)" onmousedown="handlePan(-1,0)">
                  <use xlink:href="#rim" fill="#404040">
                        <set attributeName="fill" to="#808080" begin="arrowLeft.mouseover" end="arrowLeft.mouseout"/>
                  </use>
                  <path fill="none" stroke="white" stroke-width="1.5" d="M0,-3.0v7 M-2.5,-0.5L0,-3.0L2.5,-0.5"/>
                </g>
        </g>
        <svg viewBox="0 0 15 15" width="100%" height="30px" preserveAspectRatio="xMaxYMin meet">
         <g id="arrow_out" transform="scale(0.3 0.3)">
          <a xlink:href="class_search_index_context_1_1_private__coll__graph_org.svg" target="_base">
           <rect id="button" ry="5" rx="5" y="6" x="6" height="38" width="38"
                fill="#f2f5e9" fill-opacity="0.5" stroke="#606060" stroke-width="1.0"/>
           <path id="arrow"
             d="M 11.500037,31.436501 C 11.940474,20.09759 22.043105,11.32322 32.158766,21.979434 L 37.068811,17.246167 C 37.068811,17.246167 37.088388,32 37.088388,32 L 22.160133,31.978069 C 22.160133,31.978069 26.997745,27.140456 26.997745,27.140456 C 18.528582,18.264221 13.291696,25.230495 11.500037,31.436501 z"
             style="fill:#404040;"/>
          </a>
         </g>
        </svg>
</svg>
