<?xml version="1.0" encoding="UTF-8" standalone="no"?>
<!DOCTYPE svg PUBLIC "-//W3C//DTD SVG 1.1//EN"
 "http://www.w3.org/Graphics/SVG/1.1/DTD/svg11.dtd">
<!-- Generated by graphviz version 2.38.0 (20140413.2041)
 -->
<!-- Title: src/fileparser.h Pages: 1 -->
<svg width="208pt" height="84pt"
 viewBox="0.00 0.00 207.50 84.00" xmlns="http://www.w3.org/2000/svg" xmlns:xlink="http://www.w3.org/1999/xlink">
<g id="graph0" class="graph" transform="scale(1 1) rotate(0) translate(4 80)">
<title>src/fileparser.h</title>
<polygon fill="white" stroke="none" points="-4,4 -4,-80 203.5,-80 203.5,4 -4,4"/>
<!-- Node6 -->
<g id="node1" class="node"><title>Node6</title>
<polygon fill="#bfbfbf" stroke="black" points="58,-56.5 58,-75.5 139,-75.5 139,-56.5 58,-56.5"/>
<text text-anchor="middle" x="98.5" y="-63.5" font-family="Helvetica,sans-Serif" font-size="10.00">src/fileparser.h</text>
</g>
<!-- Node7 -->
<g id="node2" class="node"><title>Node7</title>
<g id="a_node2"><a xlink:href="../../dc/d98/doxygen_8cpp.html" target="_top" xlink:title="src/doxygen.cpp">
<polygon fill="white" stroke="black" points="0,-0.5 0,-19.5 89,-19.5 89,-0.5 0,-0.5"/>
<text text-anchor="middle" x="44.5" y="-7.5" font-family="Helvetica,sans-Serif" font-size="10.00">src/doxygen.cpp</text>
</a>
</g>
</g>
<!-- Node6&#45;&gt;Node7 -->
<g id="edge1" class="edge"><title>Node6&#45;&gt;Node7</title>
<path fill="none" stroke="midnightblue" d="M82.5024,-49.0024C72.9329,-39.4329 61.1389,-27.6389 53.2511,-19.7511"/>
<polygon fill="midnightblue" stroke="midnightblue" points="80.037,-51.4868 89.583,-56.083 84.9868,-46.537 80.037,-51.4868"/>
</g>
<!-- Node8 -->
<g id="node3" class="node"><title>Node8</title>
<g id="a_node3"><a xlink:href="../../d9/d74/fileparser_8cpp.html" target="_top" xlink:title="src/fileparser.cpp">
<polygon fill="white" stroke="black" points="107.5,-0.5 107.5,-19.5 199.5,-19.5 199.5,-0.5 107.5,-0.5"/>
<text text-anchor="middle" x="153.5" y="-7.5" font-family="Helvetica,sans-Serif" font-size="10.00">src/fileparser.cpp</text>
</a>
</g>
</g>
<!-- Node6&#45;&gt;Node8 -->
<g id="edge2" class="edge"><title>Node6&#45;&gt;Node8</title>
<path fill="none" stroke="midnightblue" d="M114.794,-49.0024C124.541,-39.4329 136.553,-27.6389 144.587,-19.7511"/>
<polygon fill="midnightblue" stroke="midnightblue" points="112.266,-46.5796 107.582,-56.083 117.17,-51.5746 112.266,-46.5796"/>
</g>
</g>
</svg>
