<?xml version="1.0" encoding="UTF-8" standalone="no"?>
<!DOCTYPE svg PUBLIC "-//W3C//DTD SVG 1.1//EN"
 "http://www.w3.org/Graphics/SVG/1.1/DTD/svg11.dtd">
<!-- Generated by graphviz version 2.38.0 (20140413.2041)
 -->
<!-- Title: src/cppvalue.cpp Pages: 1 -->
<svg width="194pt" height="196pt"
 viewBox="0.00 0.00 193.50 196.00" xmlns="http://www.w3.org/2000/svg" xmlns:xlink="http://www.w3.org/1999/xlink">
<g id="graph0" class="graph" transform="scale(1 1) rotate(0) translate(4 192)">
<title>src/cppvalue.cpp</title>
<polygon fill="white" stroke="none" points="-4,4 -4,-192 189.5,-192 189.5,4 -4,4"/>
<!-- Node0 -->
<g id="node1" class="node"><title>Node0</title>
<polygon fill="#bfbfbf" stroke="black" points="30.5,-168.5 30.5,-187.5 121.5,-187.5 121.5,-168.5 30.5,-168.5"/>
<text text-anchor="middle" x="76" y="-175.5" font-family="Helvetica,sans-Serif" font-size="10.00">src/cppvalue.cpp</text>
</g>
<!-- Node1 -->
<g id="node2" class="node"><title>Node1</title>
<polygon fill="white" stroke="#bfbfbf" points="0,-112.5 0,-131.5 48,-131.5 48,-112.5 0,-112.5"/>
<text text-anchor="middle" x="24" y="-119.5" font-family="Helvetica,sans-Serif" font-size="10.00">stdlib.h</text>
</g>
<!-- Node0&#45;&gt;Node1 -->
<g id="edge1" class="edge"><title>Node0&#45;&gt;Node1</title>
<path fill="none" stroke="midnightblue" d="M67.4133,-168.083C59.841,-160.22 48.6218,-148.569 39.4856,-139.081"/>
<polygon fill="midnightblue" stroke="midnightblue" points="41.8845,-136.527 32.427,-131.751 36.8423,-141.382 41.8845,-136.527"/>
</g>
<!-- Node2 -->
<g id="node3" class="node"><title>Node2</title>
<g id="a_node3"><a xlink:href="../../d6/dcc/cppvalue_8h.html" target="_top" xlink:title="cppvalue.h">
<polygon fill="white" stroke="black" points="44,-56.5 44,-75.5 108,-75.5 108,-56.5 44,-56.5"/>
<text text-anchor="middle" x="76" y="-63.5" font-family="Helvetica,sans-Serif" font-size="10.00">cppvalue.h</text>
</a>
</g>
</g>
<!-- Node0&#45;&gt;Node2 -->
<g id="edge2" class="edge"><title>Node0&#45;&gt;Node2</title>
<path fill="none" stroke="midnightblue" d="M76,-168.368C76,-150.617 76,-109.666 76,-85.5974"/>
<polygon fill="midnightblue" stroke="midnightblue" points="79.5001,-85.5914 76,-75.5914 72.5001,-85.5915 79.5001,-85.5914"/>
</g>
<!-- Node5 -->
<g id="node6" class="node"><title>Node5</title>
<g id="a_node6"><a xlink:href="../../d6/dd8/constexp_8h.html" target="_top" xlink:title="constexp.h">
<polygon fill="white" stroke="black" points="104.5,-112.5 104.5,-131.5 169.5,-131.5 169.5,-112.5 104.5,-112.5"/>
<text text-anchor="middle" x="137" y="-119.5" font-family="Helvetica,sans-Serif" font-size="10.00">constexp.h</text>
</a>
</g>
</g>
<!-- Node0&#45;&gt;Node5 -->
<g id="edge5" class="edge"><title>Node0&#45;&gt;Node5</title>
<path fill="none" stroke="midnightblue" d="M85.8007,-168.324C94.8181,-160.341 108.406,-148.313 119.318,-138.653"/>
<polygon fill="midnightblue" stroke="midnightblue" points="121.853,-141.083 127.021,-131.834 117.213,-135.842 121.853,-141.083"/>
</g>
<!-- Node3 -->
<g id="node4" class="node"><title>Node3</title>
<polygon fill="white" stroke="#bfbfbf" points="19,-0.5 19,-19.5 65,-19.5 65,-0.5 19,-0.5"/>
<text text-anchor="middle" x="42" y="-7.5" font-family="Helvetica,sans-Serif" font-size="10.00">stdio.h</text>
</g>
<!-- Node2&#45;&gt;Node3 -->
<g id="edge3" class="edge"><title>Node2&#45;&gt;Node3</title>
<path fill="none" stroke="midnightblue" d="M70.3856,-56.083C65.6326,-48.5341 58.6819,-37.4948 52.8484,-28.2298"/>
<polygon fill="midnightblue" stroke="midnightblue" points="55.7999,-26.3486 47.5099,-19.7511 49.8763,-30.0783 55.7999,-26.3486"/>
</g>
<!-- Node4 -->
<g id="node5" class="node"><title>Node4</title>
<polygon fill="white" stroke="#bfbfbf" points="83,-0.5 83,-19.5 139,-19.5 139,-0.5 83,-0.5"/>
<text text-anchor="middle" x="111" y="-7.5" font-family="Helvetica,sans-Serif" font-size="10.00">qglobal.h</text>
</g>
<!-- Node2&#45;&gt;Node4 -->
<g id="edge4" class="edge"><title>Node2&#45;&gt;Node4</title>
<path fill="none" stroke="midnightblue" d="M81.7795,-56.083C86.6724,-48.5341 93.8274,-37.4948 99.8326,-28.2298"/>
<polygon fill="midnightblue" stroke="midnightblue" points="102.826,-30.0463 105.328,-19.7511 96.952,-26.239 102.826,-30.0463"/>
</g>
<!-- Node5&#45;&gt;Node2 -->
<g id="edge6" class="edge"><title>Node5&#45;&gt;Node2</title>
<path fill="none" stroke="midnightblue" d="M127.199,-112.324C118.182,-104.341 104.594,-92.3128 93.682,-82.6529"/>
<polygon fill="midnightblue" stroke="midnightblue" points="95.7866,-79.8416 85.979,-75.8339 91.1467,-85.083 95.7866,-79.8416"/>
</g>
<!-- Node6 -->
<g id="node7" class="node"><title>Node6</title>
<polygon fill="white" stroke="#bfbfbf" points="126.5,-56.5 126.5,-75.5 185.5,-75.5 185.5,-56.5 126.5,-56.5"/>
<text text-anchor="middle" x="156" y="-63.5" font-family="Helvetica,sans-Serif" font-size="10.00">qcstring.h</text>
</g>
<!-- Node5&#45;&gt;Node6 -->
<g id="edge7" class="edge"><title>Node5&#45;&gt;Node6</title>
<path fill="none" stroke="midnightblue" d="M140.137,-112.083C142.683,-104.849 146.356,-94.4087 149.527,-85.3968"/>
<polygon fill="midnightblue" stroke="midnightblue" points="152.903,-86.3459 152.921,-75.7511 146.3,-84.0225 152.903,-86.3459"/>
</g>
</g>
</svg>
