<?xml version="1.0" encoding="UTF-8" standalone="no"?>
<!DOCTYPE svg PUBLIC "-//W3C//DTD SVG 1.1//EN"
 "http://www.w3.org/Graphics/SVG/1.1/DTD/svg11.dtd">
<!-- Generated by graphviz version 2.38.0 (20140413.2041)
 -->
<!-- Title: MemberNameSDict Pages: 1 -->
<svg width="414pt" height="162pt"
 viewBox="0.00 0.00 414.00 162.00" xmlns="http://www.w3.org/2000/svg" xmlns:xlink="http://www.w3.org/1999/xlink">
<g id="graph0" class="graph" transform="scale(1 1) rotate(0) translate(4 158)">
<title>MemberNameSDict</title>
<polygon fill="white" stroke="none" points="-4,4 -4,-158 410,-158 410,4 -4,4"/>
<!-- Node3 -->
<g id="node1" class="node"><title>Node3</title>
<polygon fill="#bfbfbf" stroke="black" points="303,-0.5 303,-19.5 406,-19.5 406,-0.5 303,-0.5"/>
<text text-anchor="middle" x="354.5" y="-7.5" font-family="Helvetica,sans-Serif" font-size="10.00">MemberNameSDict</text>
</g>
<!-- Node4 -->
<g id="node2" class="node"><title>Node4</title>
<g id="a_node2"><a xlink:href="../../d1/d50/class_s_dict.html" target="_top" xlink:title="SDict\&lt; MemberName \&gt;">
<polygon fill="white" stroke="black" points="249,-67.5 249,-86.5 370,-86.5 370,-67.5 249,-67.5"/>
<text text-anchor="middle" x="309.5" y="-74.5" font-family="Helvetica,sans-Serif" font-size="10.00">SDict&lt; MemberName &gt;</text>
</a>
</g>
</g>
<!-- Node4&#45;&gt;Node3 -->
<g id="edge1" class="edge"><title>Node4&#45;&gt;Node3</title>
<path fill="none" stroke="midnightblue" d="M329.932,-60.8271C333.81,-57.2657 337.565,-53.2563 340.5,-49 346.726,-39.9703 350.563,-27.8347 352.61,-19.7316"/>
<polygon fill="midnightblue" stroke="midnightblue" points="327.449,-58.3415 322.027,-67.4437 331.941,-63.7094 327.449,-58.3415"/>
</g>
<!-- Node5 -->
<g id="node3" class="node"><title>Node5</title>
<g id="a_node3"><a xlink:href="../../df/dce/class_s_list.html" target="_top" xlink:title="SList\&lt; MemberName \&gt;">
<polygon fill="white" stroke="black" points="122,-0.5 122,-19.5 241,-19.5 241,-0.5 122,-0.5"/>
<text text-anchor="middle" x="181.5" y="-7.5" font-family="Helvetica,sans-Serif" font-size="10.00">SList&lt; MemberName &gt;</text>
</a>
</g>
</g>
<!-- Node4&#45;&gt;Node5 -->
<g id="edge4" class="edge"><title>Node4&#45;&gt;Node5</title>
<path fill="none" stroke="#9a32cd" stroke-dasharray="5,2" d="M274.639,-63.9088C263.522,-59.6455 251.308,-54.5252 240.5,-49 231.333,-44.3137 208.557,-29.2541 194.135,-19.5596"/>
<polygon fill="#9a32cd" stroke="#9a32cd" points="273.469,-67.208 284.062,-67.4233 275.915,-60.6493 273.469,-67.208"/>
<text text-anchor="middle" x="262" y="-41" font-family="Helvetica,sans-Serif" font-size="10.00"> m_owner</text>
</g>
<!-- Node5&#45;&gt;Node4 -->
<g id="edge2" class="edge"><title>Node5&#45;&gt;Node4</title>
<path fill="none" stroke="#9a32cd" stroke-dasharray="5,2" d="M250.98,-20.2567C263.98,-24.2419 276.82,-29.9194 287.5,-38 297.348,-45.4511 303.542,-58.6891 306.763,-67.4061"/>
<polygon fill="#9a32cd" stroke="#9a32cd" points="251.611,-16.8005 241.041,-17.5273 249.757,-23.5506 251.611,-16.8005"/>
<text text-anchor="middle" x="312.5" y="-41" font-family="Helvetica,sans-Serif" font-size="10.00"> m_list</text>
</g>
<!-- Node6 -->
<g id="node4" class="node"><title>Node6</title>
<polygon fill="white" stroke="#bfbfbf" points="0,-67.5 0,-86.5 119,-86.5 119,-67.5 0,-67.5"/>
<text text-anchor="middle" x="59.5" y="-74.5" font-family="Helvetica,sans-Serif" font-size="10.00">QList&lt; MemberName &gt;</text>
</g>
<!-- Node6&#45;&gt;Node5 -->
<g id="edge3" class="edge"><title>Node6&#45;&gt;Node5</title>
<path fill="none" stroke="midnightblue" d="M84.6444,-62.6034C108.805,-49.7309 144.6,-30.66 165.232,-19.6672"/>
<polygon fill="midnightblue" stroke="midnightblue" points="82.8804,-59.5774 75.7007,-67.3685 86.172,-65.7553 82.8804,-59.5774"/>
</g>
<!-- Node7 -->
<g id="node5" class="node"><title>Node7</title>
<g id="a_node5"><a xlink:href="../../df/dce/class_s_list.html" target="_top" xlink:title="internal wrapper class that redirects compareValues() to the dictionary ">
<polygon fill="white" stroke="black" points="137,-67.5 137,-86.5 200,-86.5 200,-67.5 137,-67.5"/>
<text text-anchor="middle" x="168.5" y="-74.5" font-family="Helvetica,sans-Serif" font-size="10.00">SList&lt; T &gt;</text>
</a>
</g>
</g>
<!-- Node7&#45;&gt;Node5 -->
<g id="edge5" class="edge"><title>Node7&#45;&gt;Node5</title>
<path fill="none" stroke="orange" stroke-dasharray="5,2" d="M145.74,-60.6747C138.82,-54.0508 134.08,-45.995 138.5,-38 143.021,-29.8228 151.17,-23.7882 159.168,-19.5239"/>
<polygon fill="orange" stroke="orange" points="143.812,-63.6193 153.773,-67.2297 148.238,-58.1958 143.812,-63.6193"/>
<text text-anchor="middle" x="180" y="-41" font-family="Helvetica,sans-Serif" font-size="10.00"> &lt; MemberName &gt;</text>
</g>
<!-- Node8 -->
<g id="node6" class="node"><title>Node8</title>
<polygon fill="white" stroke="#bfbfbf" points="136.5,-134.5 136.5,-153.5 200.5,-153.5 200.5,-134.5 136.5,-134.5"/>
<text text-anchor="middle" x="168.5" y="-141.5" font-family="Helvetica,sans-Serif" font-size="10.00">QList&lt; T &gt;</text>
</g>
<!-- Node8&#45;&gt;Node7 -->
<g id="edge6" class="edge"><title>Node8&#45;&gt;Node7</title>
<path fill="none" stroke="midnightblue" d="M168.5,-124.037C168.5,-111.67 168.5,-96.1198 168.5,-86.6273"/>
<polygon fill="midnightblue" stroke="midnightblue" points="165,-124.234 168.5,-134.234 172,-124.234 165,-124.234"/>
</g>
<!-- Node9 -->
<g id="node7" class="node"><title>Node9</title>
<g id="a_node7"><a xlink:href="../../d1/d50/class_s_dict.html" target="_top" xlink:title="Ordered dictionary of elements of type T. ">
<polygon fill="white" stroke="black" points="277,-134.5 277,-153.5 342,-153.5 342,-134.5 277,-134.5"/>
<text text-anchor="middle" x="309.5" y="-141.5" font-family="Helvetica,sans-Serif" font-size="10.00">SDict&lt; T &gt;</text>
</a>
</g>
</g>
<!-- Node9&#45;&gt;Node4 -->
<g id="edge7" class="edge"><title>Node9&#45;&gt;Node4</title>
<path fill="none" stroke="orange" stroke-dasharray="5,2" d="M309.5,-124.037C309.5,-111.67 309.5,-96.1198 309.5,-86.6273"/>
<polygon fill="orange" stroke="orange" points="306,-124.234 309.5,-134.234 313,-124.234 306,-124.234"/>
<text text-anchor="middle" x="351" y="-108" font-family="Helvetica,sans-Serif" font-size="10.00"> &lt; MemberName &gt;</text>
</g>
</g>
</svg>
