<?xml version="1.0" encoding="UTF-8" standalone="no"?>
<!DOCTYPE svg PUBLIC "-//W3C//DTD SVG 1.1//EN"
 "http://www.w3.org/Graphics/SVG/1.1/DTD/svg11.dtd">
<!-- Generated by graphviz version 2.38.0 (20140413.2041)
 -->
<!-- Title: FileDef Pages: 1 -->
<svg width="80pt" height="140pt"
 viewBox="0.00 0.00 80.00 140.00" xmlns="http://www.w3.org/2000/svg" xmlns:xlink="http://www.w3.org/1999/xlink">
<g id="graph0" class="graph" transform="scale(1 1) rotate(0) translate(4 136)">
<title>FileDef</title>
<polygon fill="white" stroke="none" points="-4,4 -4,-136 76,-136 76,4 -4,4"/>
<!-- Node0 -->
<g id="node1" class="node"><title>Node0</title>
<polygon fill="#bfbfbf" stroke="black" points="12,-0.5 12,-19.5 60,-19.5 60,-0.5 12,-0.5"/>
<text text-anchor="middle" x="36" y="-7.5" font-family="Helvetica,sans-Serif" font-size="10.00">FileDef</text>
</g>
<!-- Node1 -->
<g id="node2" class="node"><title>Node1</title>
<g id="a_node2"><a xlink:href="../../d5/dcc/class_definition.html" target="_top" xlink:title="The common base class of all entity definitions found in the sources. ">
<polygon fill="white" stroke="black" points="7,-56.5 7,-75.5 65,-75.5 65,-56.5 7,-56.5"/>
<text text-anchor="middle" x="36" y="-63.5" font-family="Helvetica,sans-Serif" font-size="10.00">Definition</text>
</a>
</g>
</g>
<!-- Node1&#45;&gt;Node0 -->
<g id="edge1" class="edge"><title>Node1&#45;&gt;Node0</title>
<path fill="none" stroke="midnightblue" d="M36,-45.8045C36,-36.9102 36,-26.7798 36,-19.7511"/>
<polygon fill="midnightblue" stroke="midnightblue" points="32.5001,-46.083 36,-56.083 39.5001,-46.083 32.5001,-46.083"/>
</g>
<!-- Node2 -->
<g id="node3" class="node"><title>Node2</title>
<g id="a_node3"><a xlink:href="../../d9/d4a/class_definition_intf.html" target="_top" xlink:title="Abstract interface for a Definition or DefinitionList. ">
<polygon fill="white" stroke="black" points="0,-112.5 0,-131.5 72,-131.5 72,-112.5 0,-112.5"/>
<text text-anchor="middle" x="36" y="-119.5" font-family="Helvetica,sans-Serif" font-size="10.00">DefinitionIntf</text>
</a>
</g>
</g>
<!-- Node2&#45;&gt;Node1 -->
<g id="edge2" class="edge"><title>Node2&#45;&gt;Node1</title>
<path fill="none" stroke="midnightblue" d="M36,-101.805C36,-92.9102 36,-82.7798 36,-75.7511"/>
<polygon fill="midnightblue" stroke="midnightblue" points="32.5001,-102.083 36,-112.083 39.5001,-102.083 32.5001,-102.083"/>
</g>
</g>
</svg>
