<?xml version="1.0" encoding="UTF-8" standalone="no"?>
<!DOCTYPE svg PUBLIC "-//W3C//DTD SVG 1.1//EN"
 "http://www.w3.org/Graphics/SVG/1.1/DTD/svg11.dtd">
<!-- Generated by graphviz version 2.38.0 (20140413.2041)
 -->
<!-- Title: EclipseHelp Pages: 1 -->
<svg width="162pt" height="95pt"
 viewBox="0.00 0.00 161.50 95.00" xmlns="http://www.w3.org/2000/svg" xmlns:xlink="http://www.w3.org/1999/xlink">
<g id="graph0" class="graph" transform="scale(1 1) rotate(0) translate(4 91)">
<title>EclipseHelp</title>
<polygon fill="white" stroke="none" points="-4,4 -4,-91 157.5,-91 157.5,4 -4,4"/>
<!-- Node2 -->
<g id="node1" class="node"><title>Node2</title>
<polygon fill="#bfbfbf" stroke="black" points="34,-0.5 34,-19.5 103,-19.5 103,-0.5 34,-0.5"/>
<text text-anchor="middle" x="68.5" y="-7.5" font-family="Helvetica,sans-Serif" font-size="10.00">EclipseHelp</text>
</g>
<!-- Node3 -->
<g id="node2" class="node"><title>Node3</title>
<g id="a_node2"><a xlink:href="../../d9/dd5/class_index_intf.html" target="_top" xlink:title="Abstract interface for index generators. ">
<polygon fill="white" stroke="black" points="0,-67.5 0,-86.5 55,-86.5 55,-67.5 0,-67.5"/>
<text text-anchor="middle" x="27.5" y="-74.5" font-family="Helvetica,sans-Serif" font-size="10.00">IndexIntf</text>
</a>
</g>
</g>
<!-- Node3&#45;&gt;Node2 -->
<g id="edge1" class="edge"><title>Node3&#45;&gt;Node2</title>
<path fill="none" stroke="midnightblue" d="M38.5166,-58.5347C46.4547,-45.9499 56.8262,-29.5072 63.0582,-19.6273"/>
<polygon fill="midnightblue" stroke="midnightblue" points="35.4042,-56.9085 33.0294,-67.2338 41.3248,-60.6431 35.4042,-56.9085"/>
</g>
<!-- Node4 -->
<g id="node3" class="node"><title>Node4</title>
<g id="a_node3"><a xlink:href="../../dc/d3c/class_f_text_stream.html" target="_top" xlink:title="Simplified and optimized version of QTextStream. ">
<polygon fill="white" stroke="black" points="73.5,-67.5 73.5,-86.5 147.5,-86.5 147.5,-67.5 73.5,-67.5"/>
<text text-anchor="middle" x="110.5" y="-74.5" font-family="Helvetica,sans-Serif" font-size="10.00">FTextStream</text>
</a>
</g>
</g>
<!-- Node4&#45;&gt;Node2 -->
<g id="edge2" class="edge"><title>Node4&#45;&gt;Node2</title>
<path fill="none" stroke="#9a32cd" stroke-dasharray="5,2" d="M99.2147,-58.5347C91.083,-45.9499 80.4585,-29.5072 74.0746,-19.6273"/>
<polygon fill="#9a32cd" stroke="#9a32cd" points="96.4688,-60.7341 104.836,-67.2338 102.348,-56.9351 96.4688,-60.7341"/>
<text text-anchor="middle" x="123" y="-41" font-family="Helvetica,sans-Serif" font-size="10.00"> m_tocstream</text>
</g>
</g>
</svg>
