<?xml version="1.0" encoding="UTF-8" standalone="no"?>
<!DOCTYPE svg PUBLIC "-//W3C//DTD SVG 1.1//EN"
 "http://www.w3.org/Graphics/SVG/1.1/DTD/svg11.dtd">
<!-- Generated by graphviz version 2.38.0 (20140413.2041)
 -->
<!-- Title: PerlModDocVisitor Pages: 1 -->
<svg width="186pt" height="229pt"
 viewBox="0.00 0.00 185.50 229.00" xmlns="http://www.w3.org/2000/svg" xmlns:xlink="http://www.w3.org/1999/xlink">
<g id="graph0" class="graph" transform="scale(1 1) rotate(0) translate(4 225)">
<title>PerlModDocVisitor</title>
<polygon fill="white" stroke="none" points="-4,4 -4,-225 181.5,-225 181.5,4 -4,4"/>
<!-- Node2 -->
<g id="node1" class="node"><title>Node2</title>
<polygon fill="#bfbfbf" stroke="black" points="12,-0.5 12,-19.5 110,-19.5 110,-0.5 12,-0.5"/>
<text text-anchor="middle" x="61" y="-7.5" font-family="Helvetica,sans-Serif" font-size="10.00">PerlModDocVisitor</text>
</g>
<!-- Node3 -->
<g id="node2" class="node"><title>Node3</title>
<g id="a_node2"><a xlink:href="../../d0/d78/class_doc_visitor.html" target="_top" xlink:title="Abstract visitor that participates in the visitor pattern. ">
<polygon fill="white" stroke="black" points="-3.55271e-15,-67.5 -3.55271e-15,-86.5 62,-86.5 62,-67.5 -3.55271e-15,-67.5"/>
<text text-anchor="middle" x="31" y="-74.5" font-family="Helvetica,sans-Serif" font-size="10.00">DocVisitor</text>
</a>
</g>
</g>
<!-- Node3&#45;&gt;Node2 -->
<g id="edge1" class="edge"><title>Node3&#45;&gt;Node2</title>
<path fill="none" stroke="midnightblue" d="M39.4046,-57.79C45.1657,-45.3076 52.5476,-29.3135 57.0182,-19.6273"/>
<polygon fill="midnightblue" stroke="midnightblue" points="36.0587,-56.6875 35.0459,-67.2338 42.4144,-59.6209 36.0587,-56.6875"/>
</g>
<!-- Node4 -->
<g id="node3" class="node"><title>Node4</title>
<g id="a_node3"><a xlink:href="../../d5/d6c/class_perl_mod_output.html" target="_top" xlink:title="PerlModOutput">
<polygon fill="white" stroke="black" points="80,-67.5 80,-86.5 162,-86.5 162,-67.5 80,-67.5"/>
<text text-anchor="middle" x="121" y="-74.5" font-family="Helvetica,sans-Serif" font-size="10.00">PerlModOutput</text>
</a>
</g>
</g>
<!-- Node4&#45;&gt;Node2 -->
<g id="edge2" class="edge"><title>Node4&#45;&gt;Node2</title>
<path fill="none" stroke="#9a32cd" stroke-dasharray="5,2" d="M105.894,-59.6348C94.1595,-46.9228 78.3518,-29.7978 68.9637,-19.6273"/>
<polygon fill="#9a32cd" stroke="#9a32cd" points="103.553,-62.2597 112.908,-67.2338 108.697,-57.5118 103.553,-62.2597"/>
<text text-anchor="middle" x="116" y="-41" font-family="Helvetica,sans-Serif" font-size="10.00"> m_output</text>
</g>
<!-- Node5 -->
<g id="node4" class="node"><title>Node5</title>
<g id="a_node4"><a xlink:href="../../d4/de6/class_perl_mod_output_stream.html" target="_top" xlink:title="PerlModOutputStream">
<polygon fill="white" stroke="black" points="64.5,-134.5 64.5,-153.5 177.5,-153.5 177.5,-134.5 64.5,-134.5"/>
<text text-anchor="middle" x="121" y="-141.5" font-family="Helvetica,sans-Serif" font-size="10.00">PerlModOutputStream</text>
</a>
</g>
</g>
<!-- Node5&#45;&gt;Node4 -->
<g id="edge3" class="edge"><title>Node5&#45;&gt;Node4</title>
<path fill="none" stroke="#9a32cd" stroke-dasharray="5,2" d="M121,-124.037C121,-111.67 121,-96.1198 121,-86.6273"/>
<polygon fill="#9a32cd" stroke="#9a32cd" points="117.5,-124.234 121,-134.234 124.5,-124.234 117.5,-124.234"/>
<text text-anchor="middle" x="144.5" y="-108" font-family="Helvetica,sans-Serif" font-size="10.00"> m_stream</text>
</g>
<!-- Node6 -->
<g id="node5" class="node"><title>Node6</title>
<g id="a_node5"><a xlink:href="../../dc/d3c/class_f_text_stream.html" target="_top" xlink:title="Simplified and optimized version of QTextStream. ">
<polygon fill="white" stroke="black" points="84,-201.5 84,-220.5 158,-220.5 158,-201.5 84,-201.5"/>
<text text-anchor="middle" x="121" y="-208.5" font-family="Helvetica,sans-Serif" font-size="10.00">FTextStream</text>
</a>
</g>
</g>
<!-- Node6&#45;&gt;Node5 -->
<g id="edge4" class="edge"><title>Node6&#45;&gt;Node5</title>
<path fill="none" stroke="#9a32cd" stroke-dasharray="5,2" d="M121,-191.037C121,-178.67 121,-163.12 121,-153.627"/>
<polygon fill="#9a32cd" stroke="#9a32cd" points="117.5,-191.234 121,-201.234 124.5,-191.234 117.5,-191.234"/>
<text text-anchor="middle" x="131" y="-175" font-family="Helvetica,sans-Serif" font-size="10.00"> m_t</text>
</g>
</g>
</svg>
