<?xml version="1.0" encoding="UTF-8" standalone="no"?>
<!DOCTYPE svg PUBLIC "-//W3C//DTD SVG 1.1//EN"
 "http://www.w3.org/Graphics/SVG/1.1/DTD/svg11.dtd">
<!-- Generated by graphviz version 2.38.0 (20140413.2041)
 -->
<!-- Title: TemplateNodeTree Pages: 1 -->
<svg width="219pt" height="220pt"
 viewBox="0.00 0.00 219.00 220.00" xmlns="http://www.w3.org/2000/svg" xmlns:xlink="http://www.w3.org/1999/xlink">
<g id="graph0" class="graph" transform="scale(1 1) rotate(0) translate(4 216)">
<title>TemplateNodeTree</title>
<polygon fill="white" stroke="none" points="-4,4 -4,-216 215,-216 215,4 -4,4"/>
<!-- Node0 -->
<g id="node1" class="node"><title>Node0</title>
<polygon fill="#bfbfbf" stroke="black" points="9,-0.5 9,-19.5 109,-19.5 109,-0.5 9,-0.5"/>
<text text-anchor="middle" x="59" y="-7.5" font-family="Helvetica,sans-Serif" font-size="10.00">TemplateNodeTree</text>
</g>
<!-- Node1 -->
<g id="node2" class="node"><title>Node1</title>
<g id="a_node2"><a xlink:href="../../d8/d78/class_template_node_creator.html" target="_top" xlink:title="TemplateNodeCreator\l\&lt; TemplateNodeTree \&gt;">
<polygon fill="white" stroke="black" points="0,-57.5 0,-87.5 118,-87.5 118,-57.5 0,-57.5"/>
<text text-anchor="start" x="8" y="-75.5" font-family="Helvetica,sans-Serif" font-size="10.00">TemplateNodeCreator</text>
<text text-anchor="middle" x="59" y="-64.5" font-family="Helvetica,sans-Serif" font-size="10.00">&lt; TemplateNodeTree &gt;</text>
</a>
</g>
</g>
<!-- Node1&#45;&gt;Node0 -->
<g id="edge1" class="edge"><title>Node1&#45;&gt;Node0</title>
<path fill="none" stroke="midnightblue" d="M59,-47.3524C59,-37.5132 59,-26.7753 59,-19.5399"/>
<polygon fill="midnightblue" stroke="midnightblue" points="55.5001,-47.468 59,-57.468 62.5001,-47.4681 55.5001,-47.468"/>
</g>
<!-- Node2 -->
<g id="node3" class="node"><title>Node2</title>
<g id="a_node3"><a xlink:href="../../d6/d53/class_template_node.html" target="_top" xlink:title="Base class of all nodes in a template&#39;s AST. ">
<polygon fill="white" stroke="black" points="33,-192.5 33,-211.5 113,-211.5 113,-192.5 33,-192.5"/>
<text text-anchor="middle" x="73" y="-199.5" font-family="Helvetica,sans-Serif" font-size="10.00">TemplateNode</text>
</a>
</g>
</g>
<!-- Node2&#45;&gt;Node1 -->
<g id="edge2" class="edge"><title>Node2&#45;&gt;Node1</title>
<path fill="none" stroke="midnightblue" d="M67.6925,-182.502C65.5316,-174.169 63.2518,-164.164 62,-155 58.7998,-131.572 58.4982,-104.028 58.6753,-87.7075"/>
<polygon fill="midnightblue" stroke="midnightblue" points="64.3528,-183.558 70.3681,-192.28 71.1046,-181.71 64.3528,-183.558"/>
</g>
<!-- Node3 -->
<g id="node4" class="node"><title>Node3</title>
<g id="a_node4"><a xlink:href="../../d8/d78/class_template_node_creator.html" target="_top" xlink:title="Helper class for creating template AST tag nodes and returning the template for a given node...">
<polygon fill="white" stroke="black" points="71.5,-135.5 71.5,-154.5 208.5,-154.5 208.5,-135.5 71.5,-135.5"/>
<text text-anchor="middle" x="140" y="-142.5" font-family="Helvetica,sans-Serif" font-size="10.00">TemplateNodeCreator&lt; T &gt;</text>
</a>
</g>
</g>
<!-- Node2&#45;&gt;Node3 -->
<g id="edge4" class="edge"><title>Node2&#45;&gt;Node3</title>
<path fill="none" stroke="midnightblue" d="M91.2748,-185.998C103.501,-175.962 119.164,-163.104 129.384,-154.715"/>
<polygon fill="midnightblue" stroke="midnightblue" points="88.9773,-183.356 83.4688,-192.406 93.4188,-188.767 88.9773,-183.356"/>
</g>
<!-- Node3&#45;&gt;Node1 -->
<g id="edge3" class="edge"><title>Node3&#45;&gt;Node1</title>
<path fill="none" stroke="orange" stroke-dasharray="5,2" d="M122.518,-128.784C108.462,-116.551 88.8689,-99.497 75.1726,-87.5762"/>
<polygon fill="orange" stroke="orange" points="120.227,-131.43 130.068,-135.355 124.823,-126.15 120.227,-131.43"/>
<text text-anchor="middle" x="158.5" y="-109" font-family="Helvetica,sans-Serif" font-size="10.00"> &lt; TemplateNodeTree &gt;</text>
</g>
</g>
</svg>
