<?xml version="1.0" encoding="UTF-8" standalone="no"?>
<!DOCTYPE svg PUBLIC "-//W3C//DTD SVG 1.1//EN"
 "http://www.w3.org/Graphics/SVG/1.1/DTD/svg11.dtd">
<!-- Generated by graphviz version 2.38.0 (20140413.2041)
 -->
<!-- Title: RefItem Pages: 1 -->
<svg width="1697pt" height="654pt"
 viewBox="0.00 0.00 1697.00 654.00" xmlns="http://www.w3.org/2000/svg" xmlns:xlink="http://www.w3.org/1999/xlink">
<g id="graph0" class="graph" transform="scale(1 1) rotate(0) translate(4 650)">
<title>RefItem</title>
<polygon fill="white" stroke="none" points="-4,4 -4,-650 1693,-650 1693,4 -4,4"/>
<!-- Node1 -->
<g id="node1" class="node"><title>Node1</title>
<polygon fill="#bfbfbf" stroke="black" points="1017.5,-28.5 1017.5,-47.5 1069.5,-47.5 1069.5,-28.5 1017.5,-28.5"/>
<text text-anchor="middle" x="1043.5" y="-35.5" font-family="Helvetica,sans-Serif" font-size="10.00">RefItem</text>
</g>
<!-- Node2 -->
<g id="node2" class="node"><title>Node2</title>
<g id="a_node2"><a xlink:href="../../d5/dcc/class_definition.html" target="_top" xlink:title="The common base class of all entity definitions found in the sources. ">
<polygon fill="white" stroke="black" points="758,-62.5 758,-81.5 816,-81.5 816,-62.5 758,-62.5"/>
<text text-anchor="middle" x="787" y="-69.5" font-family="Helvetica,sans-Serif" font-size="10.00">Definition</text>
</a>
</g>
</g>
<!-- Node2&#45;&gt;Node1 -->
<g id="edge1" class="edge"><title>Node2&#45;&gt;Node1</title>
<path fill="none" stroke="#9a32cd" stroke-dasharray="5,2" d="M826.095,-60.6253C839.541,-57.0108 854.838,-53.3469 869,-51 921.298,-42.333 983.431,-39.4396 1017.34,-38.4769"/>
<polygon fill="#9a32cd" stroke="#9a32cd" points="824.927,-57.3168 816.223,-63.3571 826.794,-64.0633 824.927,-57.3168"/>
<text text-anchor="middle" x="920.5" y="-54" font-family="Helvetica,sans-Serif" font-size="10.00"> scope</text>
</g>
<!-- Node5 -->
<g id="node5" class="node"><title>Node5</title>
<g id="a_node5"><a xlink:href="../../d3/ddf/class_definition_impl.html" target="_top" xlink:title="Private data associated with a Symbol Definition object. ">
<polygon fill="white" stroke="black" points="1612,-167.5 1612,-186.5 1689,-186.5 1689,-167.5 1612,-167.5"/>
<text text-anchor="middle" x="1650.5" y="-174.5" font-family="Helvetica,sans-Serif" font-size="10.00">DefinitionImpl</text>
</a>
</g>
</g>
<!-- Node2&#45;&gt;Node5 -->
<g id="edge62" class="edge"><title>Node2&#45;&gt;Node5</title>
<path fill="none" stroke="#9a32cd" stroke-dasharray="5,2" d="M816.729,-58.2487C863.104,-37.351 957.834,-0 1042.5,-0 1042.5,-0 1042.5,-0 1477,-0 1571.4,-0 1630.95,-130.719 1645.83,-167.484"/>
<polygon fill="#9a32cd" stroke="#9a32cd" points="815.22,-55.0902 807.589,-62.439 818.137,-61.4535 815.22,-55.0902"/>
<text text-anchor="middle" x="1275" y="-3" font-family="Helvetica,sans-Serif" font-size="10.00"> outerScope</text>
</g>
<!-- Node14 -->
<g id="node14" class="node"><title>Node14</title>
<g id="a_node14"><a xlink:href="../../de/db0/class_file_def.html" target="_top" xlink:title="A model of a file symbol. ">
<polygon fill="white" stroke="black" points="1251,-227.5 1251,-246.5 1299,-246.5 1299,-227.5 1251,-227.5"/>
<text text-anchor="middle" x="1275" y="-234.5" font-family="Helvetica,sans-Serif" font-size="10.00">FileDef</text>
</a>
</g>
</g>
<!-- Node2&#45;&gt;Node14 -->
<g id="edge15" class="edge"><title>Node2&#45;&gt;Node14</title>
<path fill="none" stroke="midnightblue" d="M825.995,-80.8206C839.54,-83.865 854.925,-87.2091 869,-90 1018.58,-119.659 1094.82,-45.7017 1207,-149 1230.31,-170.469 1203.91,-194.342 1225,-218 1231.68,-225.492 1241.66,-230.054 1250.88,-232.82"/>
<polygon fill="midnightblue" stroke="midnightblue" points="826.574,-77.3632 816.048,-78.5651 825.026,-84.1899 826.574,-77.3632"/>
</g>
<!-- Node28 -->
<g id="node28" class="node"><title>Node28</title>
<g id="a_node28"><a xlink:href="../../d4/dd4/class_dir_def.html" target="_top" xlink:title="A model of a directory symbol. ">
<polygon fill="white" stroke="black" points="1021,-185.5 1021,-204.5 1066,-204.5 1066,-185.5 1021,-185.5"/>
<text text-anchor="middle" x="1043.5" y="-192.5" font-family="Helvetica,sans-Serif" font-size="10.00">DirDef</text>
</a>
</g>
</g>
<!-- Node2&#45;&gt;Node28 -->
<g id="edge38" class="edge"><title>Node2&#45;&gt;Node28</title>
<path fill="none" stroke="midnightblue" d="M812.958,-86.7695C828.848,-96.0235 849.951,-108.041 869,-118 921.85,-145.631 935.004,-152.935 990,-176 1000.01,-180.199 1011.31,-184.36 1020.86,-187.714"/>
<polygon fill="midnightblue" stroke="midnightblue" points="814.658,-83.709 804.26,-81.6767 811.121,-89.7498 814.658,-83.709"/>
</g>
<!-- Node3 -->
<g id="node3" class="node"><title>Node3</title>
<g id="a_node3"><a xlink:href="../../d9/d4a/class_definition_intf.html" target="_top" xlink:title="Abstract interface for a Definition or DefinitionList. ">
<polygon fill="white" stroke="black" points="483,-24.5 483,-43.5 555,-43.5 555,-24.5 483,-24.5"/>
<text text-anchor="middle" x="519" y="-31.5" font-family="Helvetica,sans-Serif" font-size="10.00">DefinitionIntf</text>
</a>
</g>
</g>
<!-- Node3&#45;&gt;Node2 -->
<g id="edge2" class="edge"><title>Node3&#45;&gt;Node2</title>
<path fill="none" stroke="midnightblue" d="M565.231,-40.4616C620.352,-48.336 711.807,-61.401 757.78,-67.9686"/>
<polygon fill="midnightblue" stroke="midnightblue" points="565.443,-36.9564 555.048,-39.0069 564.453,-43.886 565.443,-36.9564"/>
</g>
<!-- Node4 -->
<g id="node4" class="node"><title>Node4</title>
<g id="a_node4"><a xlink:href="../../d1/d2f/struct_definition_1_1_cookie.html" target="_top" xlink:title="Definition::Cookie">
<polygon fill="white" stroke="black" points="471.5,-62.5 471.5,-81.5 566.5,-81.5 566.5,-62.5 471.5,-62.5"/>
<text text-anchor="middle" x="519" y="-69.5" font-family="Helvetica,sans-Serif" font-size="10.00">Definition::Cookie</text>
</a>
</g>
</g>
<!-- Node4&#45;&gt;Node2 -->
<g id="edge3" class="edge"><title>Node4&#45;&gt;Node2</title>
<path fill="none" stroke="#9a32cd" stroke-dasharray="5,2" d="M576.7,-72C632.35,-72 714.932,-72 757.831,-72"/>
<polygon fill="#9a32cd" stroke="#9a32cd" points="576.638,-68.5001 566.638,-72 576.638,-75.5001 576.638,-68.5001"/>
<text text-anchor="middle" x="653.5" y="-75" font-family="Helvetica,sans-Serif" font-size="10.00"> m_cookie</text>
</g>
<!-- Node5&#45;&gt;Node2 -->
<g id="edge4" class="edge"><title>Node5&#45;&gt;Node2</title>
<path fill="none" stroke="#9a32cd" stroke-dasharray="5,2" d="M1636.52,-158.756C1626.29,-145.549 1610.97,-128.132 1594,-117 1547.93,-86.7715 1532.1,-76 1477,-76 1042.5,-76 1042.5,-76 1042.5,-76 960.308,-76 863.202,-73.8884 816.243,-72.7337"/>
<polygon fill="#9a32cd" stroke="#9a32cd" points="1633.96,-161.175 1642.74,-167.098 1639.57,-156.99 1633.96,-161.175"/>
<text text-anchor="middle" x="1275" y="-79" font-family="Helvetica,sans-Serif" font-size="10.00"> m_impl</text>
</g>
<!-- Node6 -->
<g id="node6" class="node"><title>Node6</title>
<g id="a_node6"><a xlink:href="../../de/d9a/class_section_dict.html" target="_top" xlink:title="Unsorted dictionary of SectionInfo objects. ">
<polygon fill="white" stroke="black" points="1127,-389.5 1127,-408.5 1195,-408.5 1195,-389.5 1127,-389.5"/>
<text text-anchor="middle" x="1161" y="-396.5" font-family="Helvetica,sans-Serif" font-size="10.00">SectionDict</text>
</a>
</g>
</g>
<!-- Node6&#45;&gt;Node5 -->
<g id="edge5" class="edge"><title>Node6&#45;&gt;Node5</title>
<path fill="none" stroke="#9a32cd" stroke-dasharray="5,2" d="M1205.04,-390.347C1286.57,-372.457 1466.72,-325.645 1594,-239 1615.26,-224.53 1633.79,-200.208 1643.1,-186.73"/>
<polygon fill="#9a32cd" stroke="#9a32cd" points="1204.17,-386.954 1195.13,-392.484 1205.65,-393.796 1204.17,-386.954"/>
<text text-anchor="middle" x="1381.5" y="-356" font-family="Helvetica,sans-Serif" font-size="10.00"> sectionDict</text>
</g>
<!-- Node7 -->
<g id="node7" class="node"><title>Node7</title>
<g id="a_node7"><a xlink:href="../../d1/d50/class_s_dict.html" target="_top" xlink:title="SDict\&lt; SectionInfo \&gt;">
<polygon fill="white" stroke="black" points="732.5,-480.5 732.5,-499.5 841.5,-499.5 841.5,-480.5 732.5,-480.5"/>
<text text-anchor="middle" x="787" y="-487.5" font-family="Helvetica,sans-Serif" font-size="10.00">SDict&lt; SectionInfo &gt;</text>
</a>
</g>
</g>
<!-- Node7&#45;&gt;Node6 -->
<g id="edge6" class="edge"><title>Node7&#45;&gt;Node6</title>
<path fill="none" stroke="midnightblue" d="M837.033,-478.005C913.977,-459.183 1061.07,-423.201 1126.82,-407.118"/>
<polygon fill="midnightblue" stroke="midnightblue" points="835.989,-474.657 827.107,-480.433 837.653,-481.457 835.989,-474.657"/>
</g>
<!-- Node8 -->
<g id="node8" class="node"><title>Node8</title>
<g id="a_node8"><a xlink:href="../../df/dce/class_s_list.html" target="_top" xlink:title="SList\&lt; SectionInfo \&gt;">
<polygon fill="white" stroke="black" points="990,-516.5 990,-535.5 1097,-535.5 1097,-516.5 990,-516.5"/>
<text text-anchor="middle" x="1043.5" y="-523.5" font-family="Helvetica,sans-Serif" font-size="10.00">SList&lt; SectionInfo &gt;</text>
</a>
</g>
</g>
<!-- Node7&#45;&gt;Node8 -->
<g id="edge9" class="edge"><title>Node7&#45;&gt;Node8</title>
<path fill="none" stroke="#9a32cd" stroke-dasharray="5,2" d="M852.032,-479.337C887.902,-475.566 933.106,-474.513 972,-485 994.42,-491.045 1017.05,-506.171 1030.42,-516.263"/>
<polygon fill="#9a32cd" stroke="#9a32cd" points="851.233,-475.906 841.698,-480.525 852.032,-482.86 851.233,-475.906"/>
<text text-anchor="middle" x="920.5" y="-488" font-family="Helvetica,sans-Serif" font-size="10.00"> m_owner</text>
</g>
<!-- Node8&#45;&gt;Node7 -->
<g id="edge7" class="edge"><title>Node8&#45;&gt;Node7</title>
<path fill="none" stroke="#9a32cd" stroke-dasharray="5,2" d="M979.697,-515.182C977.099,-514.775 974.525,-514.379 972,-514 928.196,-507.418 878.366,-500.983 841.619,-496.435"/>
<polygon fill="#9a32cd" stroke="#9a32cd" points="979.367,-518.674 989.795,-516.799 980.474,-511.762 979.367,-518.674"/>
<text text-anchor="middle" x="920.5" y="-517" font-family="Helvetica,sans-Serif" font-size="10.00"> m_list</text>
</g>
<!-- Node9 -->
<g id="node9" class="node"><title>Node9</title>
<polygon fill="white" stroke="#bfbfbf" points="733.5,-529.5 733.5,-548.5 840.5,-548.5 840.5,-529.5 733.5,-529.5"/>
<text text-anchor="middle" x="787" y="-536.5" font-family="Helvetica,sans-Serif" font-size="10.00">QList&lt; SectionInfo &gt;</text>
</g>
<!-- Node9&#45;&gt;Node8 -->
<g id="edge8" class="edge"><title>Node9&#45;&gt;Node8</title>
<path fill="none" stroke="midnightblue" d="M850.742,-535.795C893.479,-533.612 949.416,-530.755 989.835,-528.69"/>
<polygon fill="midnightblue" stroke="midnightblue" points="850.541,-532.301 840.733,-536.306 850.898,-539.292 850.541,-532.301"/>
</g>
<!-- Node10 -->
<g id="node10" class="node"><title>Node10</title>
<g id="a_node10"><a xlink:href="../../df/dce/class_s_list.html" target="_top" xlink:title="internal wrapper class that redirects compareValues() to the dictionary ">
<polygon fill="white" stroke="black" points="230.5,-396.5 230.5,-415.5 293.5,-415.5 293.5,-396.5 230.5,-396.5"/>
<text text-anchor="middle" x="262" y="-403.5" font-family="Helvetica,sans-Serif" font-size="10.00">SList&lt; T &gt;</text>
</a>
</g>
</g>
<!-- Node10&#45;&gt;Node8 -->
<g id="edge10" class="edge"><title>Node10&#45;&gt;Node8</title>
<path fill="none" stroke="orange" stroke-dasharray="5,2" d="M287.277,-420.92C341.344,-453.171 476.79,-528.591 602,-555 762.952,-588.947 810.394,-576.684 972,-546 985.749,-543.389 1000.7,-539.33 1013.28,-535.548"/>
<polygon fill="orange" stroke="orange" points="288.811,-417.758 278.438,-415.598 285.2,-423.755 288.811,-417.758"/>
<text text-anchor="middle" x="653.5" y="-575" font-family="Helvetica,sans-Serif" font-size="10.00"> &lt; SectionInfo &gt;</text>
</g>
<!-- Node17 -->
<g id="node17" class="node"><title>Node17</title>
<g id="a_node17"><a xlink:href="../../df/dce/class_s_list.html" target="_top" xlink:title="SList\&lt; ClassDef \&gt;">
<polygon fill="white" stroke="black" points="470,-380.5 470,-399.5 568,-399.5 568,-380.5 470,-380.5"/>
<text text-anchor="middle" x="519" y="-387.5" font-family="Helvetica,sans-Serif" font-size="10.00">SList&lt; ClassDef &gt;</text>
</a>
</g>
</g>
<!-- Node10&#45;&gt;Node17 -->
<g id="edge21" class="edge"><title>Node10&#45;&gt;Node17</title>
<path fill="none" stroke="orange" stroke-dasharray="5,2" d="M303.986,-405.137C339.069,-404.207 390.906,-402.383 436,-399 446.997,-398.175 458.797,-397.032 469.922,-395.837"/>
<polygon fill="orange" stroke="orange" points="303.571,-401.646 293.662,-405.397 303.747,-408.644 303.571,-401.646"/>
<text text-anchor="middle" x="391" y="-406" font-family="Helvetica,sans-Serif" font-size="10.00"> &lt; ClassDef &gt;</text>
</g>
<!-- Node20 -->
<g id="node20" class="node"><title>Node20</title>
<g id="a_node20"><a xlink:href="../../df/dce/class_s_list.html" target="_top" xlink:title="SList\&lt; Definition \&gt;">
<polygon fill="white" stroke="black" points="470,-293.5 470,-312.5 568,-312.5 568,-293.5 470,-293.5"/>
<text text-anchor="middle" x="519" y="-300.5" font-family="Helvetica,sans-Serif" font-size="10.00">SList&lt; Definition &gt;</text>
</a>
</g>
</g>
<!-- Node10&#45;&gt;Node20 -->
<g id="edge27" class="edge"><title>Node10&#45;&gt;Node20</title>
<path fill="none" stroke="orange" stroke-dasharray="5,2" d="M302.055,-393.085C337.416,-381.084 390.744,-362.216 436,-343 458.307,-333.528 483.24,-321.09 499.692,-312.615"/>
<polygon fill="orange" stroke="orange" points="300.489,-389.919 292.133,-396.432 302.727,-396.552 300.489,-389.919"/>
<text text-anchor="middle" x="391" y="-380" font-family="Helvetica,sans-Serif" font-size="10.00"> &lt; Definition &gt;</text>
</g>
<!-- Node35 -->
<g id="node35" class="node"><title>Node35</title>
<g id="a_node35"><a xlink:href="../../df/dce/class_s_list.html" target="_top" xlink:title="SList\&lt; NamespaceDef \&gt;">
<polygon fill="white" stroke="black" points="456.5,-138.5 456.5,-157.5 581.5,-157.5 581.5,-138.5 456.5,-138.5"/>
<text text-anchor="middle" x="519" y="-145.5" font-family="Helvetica,sans-Serif" font-size="10.00">SList&lt; NamespaceDef &gt;</text>
</a>
</g>
</g>
<!-- Node10&#45;&gt;Node35 -->
<g id="edge49" class="edge"><title>Node10&#45;&gt;Node35</title>
<path fill="none" stroke="orange" stroke-dasharray="5,2" d="M301.329,-392.233C310.993,-387.337 320.686,-380.998 328,-373 342.537,-357.104 335.666,-346.9 346,-328 379.016,-267.618 400.169,-260.755 436,-202 445.108,-187.066 440.534,-178.164 454,-167 458.64,-163.153 464.035,-160.086 469.688,-157.639"/>
<polygon fill="orange" stroke="orange" points="299.75,-389.107 292.153,-396.492 302.697,-395.457 299.75,-389.107"/>
<text text-anchor="middle" x="391" y="-331" font-family="Helvetica,sans-Serif" font-size="10.00"> &lt; NamespaceDef &gt;</text>
</g>
<!-- Node39 -->
<g id="node39" class="node"><title>Node39</title>
<g id="a_node39"><a xlink:href="../../df/dce/class_s_list.html" target="_top" xlink:title="SList\&lt; MemberDef \&gt;">
<polygon fill="white" stroke="black" points="465,-616.5 465,-635.5 573,-635.5 573,-616.5 465,-616.5"/>
<text text-anchor="middle" x="519" y="-623.5" font-family="Helvetica,sans-Serif" font-size="10.00">SList&lt; MemberDef &gt;</text>
</a>
</g>
</g>
<!-- Node10&#45;&gt;Node39 -->
<g id="edge56" class="edge"><title>Node10&#45;&gt;Node39</title>
<path fill="none" stroke="orange" stroke-dasharray="5,2" d="M266.135,-425.965C273.171,-463.781 293.883,-545.839 346,-588 355.332,-595.549 417.909,-608.131 464.913,-616.734"/>
<polygon fill="orange" stroke="orange" points="269.521,-425.001 264.371,-415.742 262.622,-426.191 269.521,-425.001"/>
<text text-anchor="middle" x="391" y="-613" font-family="Helvetica,sans-Serif" font-size="10.00"> &lt; MemberDef &gt;</text>
</g>
<!-- Node11 -->
<g id="node11" class="node"><title>Node11</title>
<polygon fill="white" stroke="#bfbfbf" points="6.5,-228.5 6.5,-247.5 70.5,-247.5 70.5,-228.5 6.5,-228.5"/>
<text text-anchor="middle" x="38.5" y="-235.5" font-family="Helvetica,sans-Serif" font-size="10.00">QList&lt; T &gt;</text>
</g>
<!-- Node11&#45;&gt;Node10 -->
<g id="edge11" class="edge"><title>Node11&#45;&gt;Node10</title>
<path fill="none" stroke="midnightblue" d="M56.3209,-254.965C83.8376,-282.128 140.94,-336.072 196,-373 209.559,-382.094 225.958,-390.402 238.892,-396.407"/>
<polygon fill="midnightblue" stroke="midnightblue" points="58.6243,-252.32 49.0674,-247.746 53.6863,-257.281 58.6243,-252.32"/>
</g>
<!-- Node26 -->
<g id="node26" class="node"><title>Node26</title>
<g id="a_node26"><a xlink:href="../../d8/d9a/class_s_int_list.html" target="_top" xlink:title="internal wrapper class that redirects compareValues() to the dictionary ">
<polygon fill="white" stroke="black" points="225,-164.5 225,-183.5 299,-183.5 299,-164.5 225,-164.5"/>
<text text-anchor="middle" x="262" y="-171.5" font-family="Helvetica,sans-Serif" font-size="10.00">SIntList&lt; T &gt;</text>
</a>
</g>
</g>
<!-- Node11&#45;&gt;Node26 -->
<g id="edge35" class="edge"><title>Node11&#45;&gt;Node26</title>
<path fill="none" stroke="midnightblue" d="M80.5299,-226.145C123.091,-213.847 188.804,-194.86 228.089,-183.509"/>
<polygon fill="midnightblue" stroke="midnightblue" points="79.4012,-222.828 70.7658,-228.966 81.3443,-229.553 79.4012,-222.828"/>
</g>
<!-- Node12 -->
<g id="node12" class="node"><title>Node12</title>
<g id="a_node12"><a xlink:href="../../d1/d50/class_s_dict.html" target="_top" xlink:title="Ordered dictionary of elements of type T. ">
<polygon fill="white" stroke="black" points="486.5,-465.5 486.5,-484.5 551.5,-484.5 551.5,-465.5 486.5,-465.5"/>
<text text-anchor="middle" x="519" y="-472.5" font-family="Helvetica,sans-Serif" font-size="10.00">SDict&lt; T &gt;</text>
</a>
</g>
</g>
<!-- Node12&#45;&gt;Node7 -->
<g id="edge12" class="edge"><title>Node12&#45;&gt;Node7</title>
<path fill="none" stroke="orange" stroke-dasharray="5,2" d="M561.794,-482.179C574.651,-484.1 588.874,-485.937 602,-487 645.786,-490.546 695.618,-491.148 732.369,-490.946"/>
<polygon fill="orange" stroke="orange" points="562.241,-478.706 551.823,-480.633 561.169,-485.623 562.241,-478.706"/>
<text text-anchor="middle" x="653.5" y="-493" font-family="Helvetica,sans-Serif" font-size="10.00"> &lt; SectionInfo &gt;</text>
</g>
<!-- Node16 -->
<g id="node16" class="node"><title>Node16</title>
<g id="a_node16"><a xlink:href="../../d1/d50/class_s_dict.html" target="_top" xlink:title="SDict\&lt; ClassDef \&gt;">
<polygon fill="white" stroke="black" points="736.5,-390.5 736.5,-409.5 837.5,-409.5 837.5,-390.5 736.5,-390.5"/>
<text text-anchor="middle" x="787" y="-397.5" font-family="Helvetica,sans-Serif" font-size="10.00">SDict&lt; ClassDef &gt;</text>
</a>
</g>
</g>
<!-- Node12&#45;&gt;Node16 -->
<g id="edge22" class="edge"><title>Node12&#45;&gt;Node16</title>
<path fill="none" stroke="orange" stroke-dasharray="5,2" d="M562.055,-475.423C600.396,-474.558 658.046,-470.08 705,-453 732.638,-442.946 760.341,-421.871 775.105,-409.541"/>
<polygon fill="orange" stroke="orange" points="561.724,-471.928 551.778,-475.579 561.83,-478.927 561.724,-471.928"/>
<text text-anchor="middle" x="653.5" y="-475" font-family="Helvetica,sans-Serif" font-size="10.00"> &lt; ClassDef &gt;</text>
</g>
<!-- Node19 -->
<g id="node19" class="node"><title>Node19</title>
<g id="a_node19"><a xlink:href="../../d1/d50/class_s_dict.html" target="_top" xlink:title="SDict\&lt; Definition \&gt;">
<polygon fill="white" stroke="black" points="736.5,-297.5 736.5,-316.5 837.5,-316.5 837.5,-297.5 736.5,-297.5"/>
<text text-anchor="middle" x="787" y="-304.5" font-family="Helvetica,sans-Serif" font-size="10.00">SDict&lt; Definition &gt;</text>
</a>
</g>
</g>
<!-- Node12&#45;&gt;Node19 -->
<g id="edge28" class="edge"><title>Node12&#45;&gt;Node19</title>
<path fill="none" stroke="orange" stroke-dasharray="5,2" d="M549.782,-461.19C565.183,-454.331 584.397,-446.206 602,-440 646.852,-424.188 667.21,-439.872 705,-411 717.356,-401.56 713.929,-393.629 723,-381 740.52,-356.607 764.134,-330.359 776.898,-316.629"/>
<polygon fill="orange" stroke="orange" points="547.944,-458.18 540.267,-465.482 550.822,-464.561 547.944,-458.18"/>
<text text-anchor="middle" x="653.5" y="-443" font-family="Helvetica,sans-Serif" font-size="10.00"> &lt; Definition &gt;</text>
</g>
<!-- Node34 -->
<g id="node34" class="node"><title>Node34</title>
<g id="a_node34"><a xlink:href="../../d1/d50/class_s_dict.html" target="_top" xlink:title="SDict\&lt; NamespaceDef \&gt;">
<polygon fill="white" stroke="black" points="723,-138.5 723,-157.5 851,-157.5 851,-138.5 723,-138.5"/>
<text text-anchor="middle" x="787" y="-145.5" font-family="Helvetica,sans-Serif" font-size="10.00">SDict&lt; NamespaceDef &gt;</text>
</a>
</g>
</g>
<!-- Node12&#45;&gt;Node34 -->
<g id="edge50" class="edge"><title>Node12&#45;&gt;Node34</title>
<path fill="none" stroke="orange" stroke-dasharray="5,2" d="M540.019,-458.745C554.064,-446.401 572.346,-428.303 584,-409 597.293,-386.981 584.075,-372.445 602,-354 635.9,-319.117 674.692,-355.045 705,-317 746.837,-264.482 679.813,-218.413 723,-167 726.233,-163.151 730.216,-160.064 734.595,-157.59"/>
<polygon fill="orange" stroke="orange" points="537.656,-456.161 532.321,-465.314 542.199,-461.486 537.656,-456.161"/>
<text text-anchor="middle" x="653.5" y="-357" font-family="Helvetica,sans-Serif" font-size="10.00"> &lt; NamespaceDef &gt;</text>
</g>
<!-- Node38 -->
<g id="node38" class="node"><title>Node38</title>
<g id="a_node38"><a xlink:href="../../d1/d50/class_s_dict.html" target="_top" xlink:title="SDict\&lt; MemberDef \&gt;">
<polygon fill="white" stroke="black" points="732,-605.5 732,-624.5 842,-624.5 842,-605.5 732,-605.5"/>
<text text-anchor="middle" x="787" y="-612.5" font-family="Helvetica,sans-Serif" font-size="10.00">SDict&lt; MemberDef &gt;</text>
</a>
</g>
</g>
<!-- Node12&#45;&gt;Node38 -->
<g id="edge57" class="edge"><title>Node12&#45;&gt;Node38</title>
<path fill="none" stroke="orange" stroke-dasharray="5,2" d="M555.562,-488.08C608.348,-507.522 701.63,-541.988 705,-544 712.787,-548.65 755.288,-587.026 775.418,-605.342"/>
<polygon fill="orange" stroke="orange" points="556.488,-484.692 545.895,-484.521 554.07,-491.261 556.488,-484.692"/>
<text text-anchor="middle" x="653.5" y="-547" font-family="Helvetica,sans-Serif" font-size="10.00"> &lt; MemberDef &gt;</text>
</g>
<!-- Node13 -->
<g id="node13" class="node"><title>Node13</title>
<g id="a_node13"><a xlink:href="../../db/dab/struct_body_info.html" target="_top" xlink:title="Data associated with description found in the body. ">
<polygon fill="white" stroke="black" points="1448,-227.5 1448,-246.5 1504,-246.5 1504,-227.5 1448,-227.5"/>
<text text-anchor="middle" x="1476" y="-234.5" font-family="Helvetica,sans-Serif" font-size="10.00">BodyInfo</text>
</a>
</g>
</g>
<!-- Node13&#45;&gt;Node5 -->
<g id="edge13" class="edge"><title>Node13&#45;&gt;Node5</title>
<path fill="none" stroke="#9a32cd" stroke-dasharray="5,2" d="M1513.88,-229.445C1537.26,-224.118 1567.89,-216.134 1594,-206 1607.78,-200.65 1622.59,-192.8 1633.43,-186.616"/>
<polygon fill="#9a32cd" stroke="#9a32cd" points="1513.03,-226.05 1504.02,-231.633 1514.54,-232.883 1513.03,-226.05"/>
<text text-anchor="middle" x="1563" y="-227" font-family="Helvetica,sans-Serif" font-size="10.00"> body</text>
</g>
<!-- Node14&#45;&gt;Node13 -->
<g id="edge14" class="edge"><title>Node14&#45;&gt;Node13</title>
<path fill="none" stroke="#9a32cd" stroke-dasharray="5,2" d="M1309.5,-237C1348.4,-237 1411.82,-237 1447.81,-237"/>
<polygon fill="#9a32cd" stroke="#9a32cd" points="1309.22,-233.5 1299.22,-237 1309.22,-240.5 1309.22,-233.5"/>
<text text-anchor="middle" x="1381.5" y="-240" font-family="Helvetica,sans-Serif" font-size="10.00"> fileDef</text>
</g>
<!-- Node15 -->
<g id="node15" class="node"><title>Node15</title>
<g id="a_node15"><a xlink:href="../../d9/d3d/class_class_s_dict.html" target="_top" xlink:title="A sorted dictionary of ClassDef objects. ">
<polygon fill="white" stroke="black" points="1010,-345.5 1010,-364.5 1077,-364.5 1077,-345.5 1010,-345.5"/>
<text text-anchor="middle" x="1043.5" y="-352.5" font-family="Helvetica,sans-Serif" font-size="10.00">ClassSDict</text>
</a>
</g>
</g>
<!-- Node15&#45;&gt;Node14 -->
<g id="edge16" class="edge"><title>Node15&#45;&gt;Node14</title>
<path fill="none" stroke="#9a32cd" stroke-dasharray="5,2" d="M1087.37,-354.27C1121.96,-351.892 1170.68,-344.361 1207,-322 1237.72,-303.087 1260.05,-264.731 1269.29,-246.735"/>
<polygon fill="#9a32cd" stroke="#9a32cd" points="1086.9,-350.79 1077.12,-354.853 1087.3,-357.779 1086.9,-350.79"/>
<text text-anchor="middle" x="1161" y="-353" font-family="Helvetica,sans-Serif" font-size="10.00"> m_classSDict</text>
</g>
<!-- Node16&#45;&gt;Node15 -->
<g id="edge17" class="edge"><title>Node16&#45;&gt;Node15</title>
<path fill="none" stroke="midnightblue" d="M847.838,-389.42C898.47,-380.467 969.121,-367.975 1009.91,-360.762"/>
<polygon fill="midnightblue" stroke="midnightblue" points="846.912,-386.029 837.674,-391.217 848.131,-392.922 846.912,-386.029"/>
</g>
<!-- Node16&#45;&gt;Node17 -->
<g id="edge20" class="edge"><title>Node16&#45;&gt;Node17</title>
<path fill="none" stroke="#9a32cd" stroke-dasharray="5,2" d="M726.193,-397.752C678.483,-395.958 612.525,-393.478 568.171,-391.811"/>
<polygon fill="#9a32cd" stroke="#9a32cd" points="726.26,-401.257 736.384,-398.135 726.523,-394.261 726.26,-401.257"/>
<text text-anchor="middle" x="653.5" y="-399" font-family="Helvetica,sans-Serif" font-size="10.00"> m_owner</text>
</g>
<!-- Node17&#45;&gt;Node16 -->
<g id="edge18" class="edge"><title>Node17&#45;&gt;Node16</title>
<path fill="none" stroke="#9a32cd" stroke-dasharray="5,2" d="M570.736,-378.522C581.031,-376.639 591.822,-374.984 602,-374 647.565,-369.596 659.773,-366.919 705,-374 724.99,-377.13 746.782,-384.356 762.723,-390.398"/>
<polygon fill="#9a32cd" stroke="#9a32cd" points="569.806,-375.136 560.648,-380.463 571.129,-382.01 569.806,-375.136"/>
<text text-anchor="middle" x="653.5" y="-377" font-family="Helvetica,sans-Serif" font-size="10.00"> m_list</text>
</g>
<!-- Node18 -->
<g id="node18" class="node"><title>Node18</title>
<polygon fill="white" stroke="#bfbfbf" points="212.5,-344.5 212.5,-363.5 311.5,-363.5 311.5,-344.5 212.5,-344.5"/>
<text text-anchor="middle" x="262" y="-351.5" font-family="Helvetica,sans-Serif" font-size="10.00">QList&lt; ClassDef &gt;</text>
</g>
<!-- Node18&#45;&gt;Node17 -->
<g id="edge19" class="edge"><title>Node18&#45;&gt;Node17</title>
<path fill="none" stroke="midnightblue" d="M321.889,-356.114C355.505,-357.982 398.329,-361.478 436,-368 453.283,-370.992 472.217,-375.956 487.532,-380.413"/>
<polygon fill="midnightblue" stroke="midnightblue" points="321.936,-352.612 311.767,-355.586 321.571,-359.603 321.936,-352.612"/>
</g>
<!-- Node19&#45;&gt;Node14 -->
<g id="edge23" class="edge"><title>Node19&#45;&gt;Node14</title>
<path fill="none" stroke="#9a32cd" stroke-dasharray="5,2" d="M847.94,-310.887C930.704,-314.405 1083.73,-314.201 1207,-276 1227.57,-269.626 1248.6,-255.985 1261.48,-246.651"/>
<polygon fill="#9a32cd" stroke="#9a32cd" points="847.864,-307.38 837.714,-310.418 847.543,-314.373 847.864,-307.38"/>
<text text-anchor="middle" x="1043.5" y="-313" font-family="Helvetica,sans-Serif" font-size="10.00"> m_usingDeclList</text>
</g>
<!-- Node19&#45;&gt;Node20 -->
<g id="edge26" class="edge"><title>Node19&#45;&gt;Node20</title>
<path fill="none" stroke="#9a32cd" stroke-dasharray="5,2" d="M726.193,-306.101C678.483,-305.383 612.525,-304.391 568.171,-303.724"/>
<polygon fill="#9a32cd" stroke="#9a32cd" points="726.333,-309.603 736.384,-306.254 726.438,-302.604 726.333,-309.603"/>
<text text-anchor="middle" x="653.5" y="-308" font-family="Helvetica,sans-Serif" font-size="10.00"> m_owner</text>
</g>
<!-- Node20&#45;&gt;Node19 -->
<g id="edge24" class="edge"><title>Node20&#45;&gt;Node19</title>
<path fill="none" stroke="#9a32cd" stroke-dasharray="5,2" d="M548.782,-289.191C564.183,-282.561 583.701,-275.344 602,-272 647.032,-263.772 660.171,-262.729 705,-272 728.403,-276.84 753.362,-288.778 769.29,-297.366"/>
<polygon fill="#9a32cd" stroke="#9a32cd" points="547.016,-286.146 539.309,-293.416 549.868,-292.539 547.016,-286.146"/>
<text text-anchor="middle" x="653.5" y="-275" font-family="Helvetica,sans-Serif" font-size="10.00"> m_list</text>
</g>
<!-- Node21 -->
<g id="node21" class="node"><title>Node21</title>
<polygon fill="white" stroke="#bfbfbf" points="212.5,-285.5 212.5,-304.5 311.5,-304.5 311.5,-285.5 212.5,-285.5"/>
<text text-anchor="middle" x="262" y="-292.5" font-family="Helvetica,sans-Serif" font-size="10.00">QList&lt; Definition &gt;</text>
</g>
<!-- Node21&#45;&gt;Node20 -->
<g id="edge25" class="edge"><title>Node21&#45;&gt;Node20</title>
<path fill="none" stroke="midnightblue" d="M321.729,-296.842C366.559,-298.249 427.576,-300.163 469.617,-301.482"/>
<polygon fill="midnightblue" stroke="midnightblue" points="321.669,-293.339 311.564,-296.524 321.449,-300.336 321.669,-293.339"/>
</g>
<!-- Node22 -->
<g id="node22" class="node"><title>Node22</title>
<g id="a_node22"><a xlink:href="../../dc/d1e/class_member_group_s_dict.html" target="_top" xlink:title="A sorted dictionary of MemberGroup objects. ">
<polygon fill="white" stroke="black" points="602,-228.5 602,-247.5 705,-247.5 705,-228.5 602,-228.5"/>
<text text-anchor="middle" x="653.5" y="-235.5" font-family="Helvetica,sans-Serif" font-size="10.00">MemberGroupSDict</text>
</a>
</g>
</g>
<!-- Node22&#45;&gt;Node14 -->
<g id="edge29" class="edge"><title>Node22&#45;&gt;Node14</title>
<path fill="none" stroke="#9a32cd" stroke-dasharray="5,2" d="M715.367,-242.674C717.945,-242.799 720.498,-242.909 723,-243 889.112,-249.054 930.802,-245.816 1097,-243 1152.18,-242.065 1217,-239.491 1250.81,-238.037"/>
<polygon fill="#9a32cd" stroke="#9a32cd" points="715.527,-239.178 705.351,-242.126 715.144,-246.167 715.527,-239.178"/>
<text text-anchor="middle" x="920.5" y="-249" font-family="Helvetica,sans-Serif" font-size="10.00"> m_memberGroupSDict</text>
</g>
<!-- Node23 -->
<g id="node23" class="node"><title>Node23</title>
<g id="a_node23"><a xlink:href="../../d0/d9f/class_s_int_dict.html" target="_top" xlink:title="SIntDict\&lt; MemberGroup \&gt;">
<polygon fill="white" stroke="black" points="196,-88.5 196,-107.5 328,-107.5 328,-88.5 196,-88.5"/>
<text text-anchor="middle" x="262" y="-95.5" font-family="Helvetica,sans-Serif" font-size="10.00">SIntDict&lt; MemberGroup &gt;</text>
</a>
</g>
</g>
<!-- Node23&#45;&gt;Node22 -->
<g id="edge30" class="edge"><title>Node23&#45;&gt;Node22</title>
<path fill="none" stroke="midnightblue" d="M323.293,-112.944C324.954,-114.191 326.53,-115.54 328,-117 347.756,-136.617 329,-154.952 346,-177 380.35,-221.548 399.849,-227.764 454,-243 502.781,-256.725 560.991,-253.039 601.717,-247.412"/>
<polygon fill="midnightblue" stroke="midnightblue" points="324.754,-109.736 314.391,-107.529 321.115,-115.716 324.754,-109.736"/>
</g>
<!-- Node24 -->
<g id="node24" class="node"><title>Node24</title>
<g id="a_node24"><a xlink:href="../../d8/d9a/class_s_int_list.html" target="_top" xlink:title="SIntList\&lt; MemberGroup \&gt;">
<polygon fill="white" stroke="black" points="454,-100.5 454,-119.5 584,-119.5 584,-100.5 454,-100.5"/>
<text text-anchor="middle" x="519" y="-107.5" font-family="Helvetica,sans-Serif" font-size="10.00">SIntList&lt; MemberGroup &gt;</text>
</a>
</g>
</g>
<!-- Node23&#45;&gt;Node24 -->
<g id="edge33" class="edge"><title>Node23&#45;&gt;Node24</title>
<path fill="none" stroke="#9a32cd" stroke-dasharray="5,2" d="M331.764,-87.3366C363.589,-84.0111 401.833,-82.299 436,-87 441.09,-87.7003 464.827,-94.4209 485.462,-100.418"/>
<polygon fill="#9a32cd" stroke="#9a32cd" points="331.218,-83.8758 321.67,-88.467 331.997,-90.8323 331.218,-83.8758"/>
<text text-anchor="middle" x="391" y="-90" font-family="Helvetica,sans-Serif" font-size="10.00"> m_owner</text>
</g>
<!-- Node24&#45;&gt;Node23 -->
<g id="edge31" class="edge"><title>Node24&#45;&gt;Node23</title>
<path fill="none" stroke="#9a32cd" stroke-dasharray="5,2" d="M443.857,-106.511C407.192,-104.786 363.345,-102.722 328.007,-101.059"/>
<polygon fill="#9a32cd" stroke="#9a32cd" points="443.841,-110.014 453.995,-106.988 444.17,-103.022 443.841,-110.014"/>
<text text-anchor="middle" x="391" y="-109" font-family="Helvetica,sans-Serif" font-size="10.00"> m_list</text>
</g>
<!-- Node25 -->
<g id="node25" class="node"><title>Node25</title>
<polygon fill="white" stroke="#bfbfbf" points="202.5,-126.5 202.5,-145.5 321.5,-145.5 321.5,-126.5 202.5,-126.5"/>
<text text-anchor="middle" x="262" y="-133.5" font-family="Helvetica,sans-Serif" font-size="10.00">QList&lt; MemberGroup &gt;</text>
</g>
<!-- Node25&#45;&gt;Node24 -->
<g id="edge32" class="edge"><title>Node25&#45;&gt;Node24</title>
<path fill="none" stroke="midnightblue" d="M331.605,-130.795C363.398,-128.193 401.66,-124.79 436,-121 441.711,-120.37 447.639,-119.668 453.577,-118.932"/>
<polygon fill="midnightblue" stroke="midnightblue" points="331.209,-127.316 321.524,-131.612 331.774,-134.293 331.209,-127.316"/>
</g>
<!-- Node26&#45;&gt;Node24 -->
<g id="edge34" class="edge"><title>Node26&#45;&gt;Node24</title>
<path fill="none" stroke="orange" stroke-dasharray="5,2" d="M309.066,-168.608C344.544,-163.526 394.395,-154.346 436,-139 444.586,-135.833 445.563,-132.546 454,-129 462.441,-125.453 471.767,-122.285 480.628,-119.601"/>
<polygon fill="orange" stroke="orange" points="308.43,-165.163 299.002,-169.995 309.386,-172.097 308.43,-165.163"/>
<text text-anchor="middle" x="391" y="-165" font-family="Helvetica,sans-Serif" font-size="10.00"> &lt; MemberGroup &gt;</text>
</g>
<!-- Node27 -->
<g id="node27" class="node"><title>Node27</title>
<g id="a_node27"><a xlink:href="../../d0/d9f/class_s_int_dict.html" target="_top" xlink:title="Ordered dictionary of elements of type T. ">
<polygon fill="white" stroke="black" points="0,-88.5 0,-107.5 77,-107.5 77,-88.5 0,-88.5"/>
<text text-anchor="middle" x="38.5" y="-95.5" font-family="Helvetica,sans-Serif" font-size="10.00">SIntDict&lt; T &gt;</text>
</a>
</g>
</g>
<!-- Node27&#45;&gt;Node23 -->
<g id="edge36" class="edge"><title>Node27&#45;&gt;Node23</title>
<path fill="none" stroke="orange" stroke-dasharray="5,2" d="M87.4095,-98C119.121,-98 161.105,-98 195.841,-98"/>
<polygon fill="orange" stroke="orange" points="87.0745,-94.5001 77.0745,-98 87.0744,-101.5 87.0745,-94.5001"/>
<text text-anchor="middle" x="136.5" y="-101" font-family="Helvetica,sans-Serif" font-size="10.00"> &lt; MemberGroup &gt;</text>
</g>
<!-- Node28&#45;&gt;Node14 -->
<g id="edge37" class="edge"><title>Node28&#45;&gt;Node14</title>
<path fill="none" stroke="#9a32cd" stroke-dasharray="5,2" d="M1075.98,-200.762C1122.78,-209.325 1209.59,-225.212 1250.94,-232.78"/>
<polygon fill="#9a32cd" stroke="#9a32cd" points="1076.56,-197.309 1066.09,-198.951 1075.3,-204.194 1076.56,-197.309"/>
<text text-anchor="middle" x="1161" y="-227" font-family="Helvetica,sans-Serif" font-size="10.00"> m_dir</text>
</g>
<!-- Node28&#45;&gt;Node28 -->
<g id="edge43" class="edge"><title>Node28&#45;&gt;Node28</title>
<path fill="none" stroke="#9a32cd" stroke-dasharray="5,2" d="M1022.02,-214.4C1023.45,-219.315 1030.61,-223 1043.5,-223 1064.12,-223 1070.08,-213.565 1061.38,-204.757"/>
<polygon fill="#9a32cd" stroke="#9a32cd" points="1025.4,-215.35 1025.62,-204.757 1018.84,-212.9 1025.4,-215.35"/>
<text text-anchor="middle" x="1043.5" y="-226" font-family="Helvetica,sans-Serif" font-size="10.00"> m_parent</text>
</g>
<!-- Node29 -->
<g id="node29" class="node"><title>Node29</title>
<g id="a_node29"><a xlink:href="../../dc/d2a/class_dir_list.html" target="_top" xlink:title="A list of directories. ">
<polygon fill="white" stroke="black" points="764.5,-176.5 764.5,-195.5 809.5,-195.5 809.5,-176.5 764.5,-176.5"/>
<text text-anchor="middle" x="787" y="-183.5" font-family="Helvetica,sans-Serif" font-size="10.00">DirList</text>
</a>
</g>
</g>
<!-- Node29&#45;&gt;Node28 -->
<g id="edge39" class="edge"><title>Node29&#45;&gt;Node28</title>
<path fill="none" stroke="#9a32cd" stroke-dasharray="5,2" d="M819.612,-186.576C856.276,-187.309 918.53,-188.757 972,-191 988.413,-191.688 1006.96,-192.752 1020.91,-193.61"/>
<polygon fill="#9a32cd" stroke="#9a32cd" points="819.602,-183.075 809.536,-186.379 819.466,-190.074 819.602,-183.075"/>
<text text-anchor="middle" x="920.5" y="-194" font-family="Helvetica,sans-Serif" font-size="10.00"> m_subdirs</text>
</g>
<!-- Node30 -->
<g id="node30" class="node"><title>Node30</title>
<polygon fill="white" stroke="#bfbfbf" points="476,-176.5 476,-195.5 562,-195.5 562,-176.5 476,-176.5"/>
<text text-anchor="middle" x="519" y="-183.5" font-family="Helvetica,sans-Serif" font-size="10.00">QList&lt; DirDef &gt;</text>
</g>
<!-- Node30&#45;&gt;Node29 -->
<g id="edge40" class="edge"><title>Node30&#45;&gt;Node29</title>
<path fill="none" stroke="midnightblue" d="M572.305,-186C630.801,-186 722.78,-186 764.338,-186"/>
<polygon fill="midnightblue" stroke="midnightblue" points="572.149,-182.5 562.148,-186 572.148,-189.5 572.149,-182.5"/>
</g>
<!-- Node31 -->
<g id="node31" class="node"><title>Node31</title>
<g id="a_node31"><a xlink:href="../../d0/d18/class_file_list.html" target="_top" xlink:title="Class representing a list of FileDef objects. ">
<polygon fill="white" stroke="black" points="763,-214.5 763,-233.5 811,-233.5 811,-214.5 763,-214.5"/>
<text text-anchor="middle" x="787" y="-221.5" font-family="Helvetica,sans-Serif" font-size="10.00">FileList</text>
</a>
</g>
</g>
<!-- Node31&#45;&gt;Node28 -->
<g id="edge41" class="edge"><title>Node31&#45;&gt;Node28</title>
<path fill="none" stroke="#9a32cd" stroke-dasharray="5,2" d="M821.243,-220.212C874.187,-214.179 976.224,-202.552 1020.79,-197.474"/>
<polygon fill="#9a32cd" stroke="#9a32cd" points="820.573,-216.766 811.034,-221.375 821.366,-223.721 820.573,-216.766"/>
<text text-anchor="middle" x="920.5" y="-217" font-family="Helvetica,sans-Serif" font-size="10.00"> m_fileList</text>
</g>
<!-- Node32 -->
<g id="node32" class="node"><title>Node32</title>
<polygon fill="white" stroke="#bfbfbf" points="474.5,-214.5 474.5,-233.5 563.5,-233.5 563.5,-214.5 474.5,-214.5"/>
<text text-anchor="middle" x="519" y="-221.5" font-family="Helvetica,sans-Serif" font-size="10.00">QList&lt; FileDef &gt;</text>
</g>
<!-- Node32&#45;&gt;Node31 -->
<g id="edge42" class="edge"><title>Node32&#45;&gt;Node31</title>
<path fill="none" stroke="midnightblue" d="M573.695,-224C631.58,-224 721.039,-224 762.908,-224"/>
<polygon fill="midnightblue" stroke="midnightblue" points="573.627,-220.5 563.627,-224 573.627,-227.5 573.627,-220.5"/>
</g>
<!-- Node33 -->
<g id="node33" class="node"><title>Node33</title>
<g id="a_node33"><a xlink:href="../../d4/d8d/class_namespace_s_dict.html" target="_top" xlink:title="A sorted dictionary of NamespaceDef objects. ">
<polygon fill="white" stroke="black" points="996.5,-147.5 996.5,-166.5 1090.5,-166.5 1090.5,-147.5 996.5,-147.5"/>
<text text-anchor="middle" x="1043.5" y="-154.5" font-family="Helvetica,sans-Serif" font-size="10.00">NamespaceSDict</text>
</a>
</g>
</g>
<!-- Node33&#45;&gt;Node14 -->
<g id="edge44" class="edge"><title>Node33&#45;&gt;Node14</title>
<path fill="none" stroke="#9a32cd" stroke-dasharray="5,2" d="M1100.97,-153.3C1134.68,-153.906 1176.69,-159.905 1207,-182 1221.46,-192.537 1211.77,-205.957 1225,-218 1232.15,-224.511 1241.78,-228.887 1250.61,-231.781"/>
<polygon fill="#9a32cd" stroke="#9a32cd" points="1100.8,-149.8 1090.8,-153.274 1100.79,-156.8 1100.8,-149.8"/>
<text text-anchor="middle" x="1161" y="-196" font-family="Helvetica,sans-Serif" font-size="10.00"> m_namespaceSDict</text>
<text text-anchor="middle" x="1161" y="-185" font-family="Helvetica,sans-Serif" font-size="10.00">m_usingDirList</text>
</g>
<!-- Node34&#45;&gt;Node33 -->
<g id="edge45" class="edge"><title>Node34&#45;&gt;Node33</title>
<path fill="none" stroke="midnightblue" d="M861.493,-150.599C905.015,-152.138 958.817,-154.041 996.406,-155.37"/>
<polygon fill="midnightblue" stroke="midnightblue" points="861.355,-147.092 851.237,-150.236 861.107,-154.088 861.355,-147.092"/>
</g>
<!-- Node34&#45;&gt;Node35 -->
<g id="edge48" class="edge"><title>Node34&#45;&gt;Node35</title>
<path fill="none" stroke="#9a32cd" stroke-dasharray="5,2" d="M732.376,-136.645C723.279,-135.129 713.899,-133.817 705,-133 659.414,-128.815 647.591,-128.864 602,-133 589.605,-134.124 576.283,-136.186 564.057,-138.429"/>
<polygon fill="#9a32cd" stroke="#9a32cd" points="732.029,-140.138 742.485,-138.429 733.245,-133.244 732.029,-140.138"/>
<text text-anchor="middle" x="653.5" y="-136" font-family="Helvetica,sans-Serif" font-size="10.00"> m_owner</text>
</g>
<!-- Node35&#45;&gt;Node34 -->
<g id="edge46" class="edge"><title>Node35&#45;&gt;Node34</title>
<path fill="none" stroke="#9a32cd" stroke-dasharray="5,2" d="M591.86,-148C632.731,-148 683.447,-148 722.793,-148"/>
<polygon fill="#9a32cd" stroke="#9a32cd" points="591.694,-144.5 581.694,-148 591.694,-151.5 591.694,-144.5"/>
<text text-anchor="middle" x="653.5" y="-151" font-family="Helvetica,sans-Serif" font-size="10.00"> m_list</text>
</g>
<!-- Node36 -->
<g id="node36" class="node"><title>Node36</title>
<polygon fill="white" stroke="#bfbfbf" points="199,-202.5 199,-221.5 325,-221.5 325,-202.5 199,-202.5"/>
<text text-anchor="middle" x="262" y="-209.5" font-family="Helvetica,sans-Serif" font-size="10.00">QList&lt; NamespaceDef &gt;</text>
</g>
<!-- Node36&#45;&gt;Node35 -->
<g id="edge47" class="edge"><title>Node36&#45;&gt;Node35</title>
<path fill="none" stroke="midnightblue" d="M335.162,-202.493C366.734,-197.044 403.831,-188.865 436,-177 444.586,-173.833 445.563,-170.546 454,-167 462.441,-163.453 471.767,-160.285 480.628,-157.601"/>
<polygon fill="midnightblue" stroke="midnightblue" points="334.407,-199.071 325.119,-204.168 335.558,-205.976 334.407,-199.071"/>
</g>
<!-- Node37 -->
<g id="node37" class="node"><title>Node37</title>
<g id="a_node37"><a xlink:href="../../d6/dd6/class_member_s_dict.html" target="_top" xlink:title="A sorted dictionary of MemberDef objects. ">
<polygon fill="white" stroke="black" points="1343,-541.5 1343,-560.5 1420,-560.5 1420,-541.5 1343,-541.5"/>
<text text-anchor="middle" x="1381.5" y="-548.5" font-family="Helvetica,sans-Serif" font-size="10.00">MemberSDict</text>
</a>
</g>
</g>
<!-- Node37&#45;&gt;Node5 -->
<g id="edge51" class="edge"><title>Node37&#45;&gt;Node5</title>
<path fill="none" stroke="#9a32cd" stroke-dasharray="5,2" d="M1405.01,-535.636C1447.96,-505.186 1541.95,-432.908 1594,-350 1629.05,-294.168 1643.86,-214.191 1648.12,-186.707"/>
<polygon fill="#9a32cd" stroke="#9a32cd" points="1402.84,-532.885 1396.65,-541.488 1406.85,-538.619 1402.84,-532.885"/>
<text text-anchor="middle" x="1476" y="-523" font-family="Helvetica,sans-Serif" font-size="10.00"> sourceRefsDict</text>
<text text-anchor="middle" x="1476" y="-512" font-family="Helvetica,sans-Serif" font-size="10.00">sourceRefByDict</text>
</g>
<!-- Node38&#45;&gt;Node37 -->
<g id="edge52" class="edge"><title>Node38&#45;&gt;Node37</title>
<path fill="none" stroke="midnightblue" d="M852.244,-608.061C976.06,-594.686 1244.21,-565.721 1342.99,-555.052"/>
<polygon fill="midnightblue" stroke="midnightblue" points="851.717,-604.597 842.151,-609.151 852.469,-611.557 851.717,-604.597"/>
</g>
<!-- Node38&#45;&gt;Node39 -->
<g id="edge55" class="edge"><title>Node38&#45;&gt;Node39</title>
<path fill="none" stroke="#9a32cd" stroke-dasharray="5,2" d="M721.569,-623.649C715.973,-624.189 710.391,-624.654 705,-625 660.607,-627.85 610.1,-627.909 573.087,-627.363"/>
<polygon fill="#9a32cd" stroke="#9a32cd" points="722.035,-627.119 731.619,-622.603 721.311,-620.157 722.035,-627.119"/>
<text text-anchor="middle" x="653.5" y="-630" font-family="Helvetica,sans-Serif" font-size="10.00"> m_owner</text>
</g>
<!-- Node39&#45;&gt;Node38 -->
<g id="edge53" class="edge"><title>Node39&#45;&gt;Node38</title>
<path fill="none" stroke="#9a32cd" stroke-dasharray="5,2" d="M583.175,-615.817C589.521,-615.076 595.879,-614.446 602,-614 645.649,-610.823 695.276,-611.333 731.982,-612.493"/>
<polygon fill="#9a32cd" stroke="#9a32cd" points="582.736,-612.344 573.249,-617.062 583.607,-619.29 582.736,-612.344"/>
<text text-anchor="middle" x="653.5" y="-617" font-family="Helvetica,sans-Serif" font-size="10.00"> m_list</text>
</g>
<!-- Node40 -->
<g id="node40" class="node"><title>Node40</title>
<polygon fill="white" stroke="#bfbfbf" points="207.5,-626.5 207.5,-645.5 316.5,-645.5 316.5,-626.5 207.5,-626.5"/>
<text text-anchor="middle" x="262" y="-633.5" font-family="Helvetica,sans-Serif" font-size="10.00">QList&lt; MemberDef &gt;</text>
</g>
<!-- Node40&#45;&gt;Node39 -->
<g id="edge54" class="edge"><title>Node40&#45;&gt;Node39</title>
<path fill="none" stroke="midnightblue" d="M327.007,-633.49C369.506,-631.823 424.644,-629.661 464.744,-628.088"/>
<polygon fill="midnightblue" stroke="midnightblue" points="326.622,-630.002 316.767,-633.891 326.897,-636.997 326.622,-630.002"/>
</g>
<!-- Node41 -->
<g id="node41" class="node"><title>Node41</title>
<g id="a_node41"><a xlink:href="../../d3/d3b/class_group_list.html" target="_top" xlink:title="A list of GroupDef objects. ">
<polygon fill="white" stroke="black" points="1446.5,-189.5 1446.5,-208.5 1505.5,-208.5 1505.5,-189.5 1446.5,-189.5"/>
<text text-anchor="middle" x="1476" y="-196.5" font-family="Helvetica,sans-Serif" font-size="10.00">GroupList</text>
</a>
</g>
</g>
<!-- Node41&#45;&gt;Node5 -->
<g id="edge58" class="edge"><title>Node41&#45;&gt;Node5</title>
<path fill="none" stroke="#9a32cd" stroke-dasharray="5,2" d="M1515.94,-194.034C1544.61,-190.377 1583.39,-185.432 1611.77,-181.812"/>
<polygon fill="#9a32cd" stroke="#9a32cd" points="1515.35,-190.581 1505.87,-195.318 1516.24,-197.524 1515.35,-190.581"/>
<text text-anchor="middle" x="1563" y="-194" font-family="Helvetica,sans-Serif" font-size="10.00"> partOfGroups</text>
</g>
<!-- Node42 -->
<g id="node42" class="node"><title>Node42</title>
<polygon fill="white" stroke="#bfbfbf" points="1225,-189.5 1225,-208.5 1325,-208.5 1325,-189.5 1225,-189.5"/>
<text text-anchor="middle" x="1275" y="-196.5" font-family="Helvetica,sans-Serif" font-size="10.00">QList&lt; GroupDef &gt;</text>
</g>
<!-- Node42&#45;&gt;Node41 -->
<g id="edge59" class="edge"><title>Node42&#45;&gt;Node41</title>
<path fill="none" stroke="midnightblue" d="M1335.29,-199C1371.98,-199 1417.46,-199 1446.35,-199"/>
<polygon fill="midnightblue" stroke="midnightblue" points="1335.19,-195.5 1325.19,-199 1335.19,-202.5 1335.19,-195.5"/>
</g>
<!-- Node43 -->
<g id="node43" class="node"><title>Node43</title>
<g id="a_node43"><a xlink:href="../../d7/dd5/struct_doc_info.html" target="_top" xlink:title="Data associated with a detailed description. ">
<polygon fill="white" stroke="black" points="1450.5,-145.5 1450.5,-164.5 1501.5,-164.5 1501.5,-145.5 1450.5,-145.5"/>
<text text-anchor="middle" x="1476" y="-152.5" font-family="Helvetica,sans-Serif" font-size="10.00">DocInfo</text>
</a>
</g>
</g>
<!-- Node43&#45;&gt;Node5 -->
<g id="edge60" class="edge"><title>Node43&#45;&gt;Node5</title>
<path fill="none" stroke="#9a32cd" stroke-dasharray="5,2" d="M1512.02,-153.141C1535.41,-152.572 1566.77,-153.109 1594,-158 1605.03,-159.981 1616.82,-163.767 1626.69,-167.442"/>
<polygon fill="#9a32cd" stroke="#9a32cd" points="1511.75,-149.647 1501.87,-153.468 1511.98,-156.644 1511.75,-149.647"/>
<text text-anchor="middle" x="1563" y="-172" font-family="Helvetica,sans-Serif" font-size="10.00"> inbodyDocs</text>
<text text-anchor="middle" x="1563" y="-161" font-family="Helvetica,sans-Serif" font-size="10.00">details</text>
</g>
<!-- Node44 -->
<g id="node44" class="node"><title>Node44</title>
<g id="a_node44"><a xlink:href="../../d0/da7/struct_brief_info.html" target="_top" xlink:title="Data associated with a brief description. ">
<polygon fill="white" stroke="black" points="1449.5,-107.5 1449.5,-126.5 1502.5,-126.5 1502.5,-107.5 1449.5,-107.5"/>
<text text-anchor="middle" x="1476" y="-114.5" font-family="Helvetica,sans-Serif" font-size="10.00">BriefInfo</text>
</a>
</g>
</g>
<!-- Node44&#45;&gt;Node5 -->
<g id="edge61" class="edge"><title>Node44&#45;&gt;Node5</title>
<path fill="none" stroke="#9a32cd" stroke-dasharray="5,2" d="M1512.59,-118.884C1536.4,-121.143 1568.01,-126.106 1594,-137 1611.53,-144.346 1628.82,-158.135 1639.33,-167.443"/>
<polygon fill="#9a32cd" stroke="#9a32cd" points="1512.83,-115.393 1502.57,-118.049 1512.25,-122.368 1512.83,-115.393"/>
<text text-anchor="middle" x="1563" y="-140" font-family="Helvetica,sans-Serif" font-size="10.00"> brief</text>
</g>
</g>
</svg>
