<?xml version="1.0" encoding="UTF-8" standalone="no"?>
<!DOCTYPE svg PUBLIC "-//W3C//DTD SVG 1.1//EN"
 "http://www.w3.org/Graphics/SVG/1.1/DTD/svg11.dtd">
<!-- Generated by graphviz version 2.38.0 (20140413.2041)
 -->
<!-- Title: src/message.cpp Pages: 1 -->
<svg width="1546pt" height="364pt"
 viewBox="0.00 0.00 1545.50 364.00" xmlns="http://www.w3.org/2000/svg" xmlns:xlink="http://www.w3.org/1999/xlink">
<g id="graph0" class="graph" transform="scale(1 1) rotate(0) translate(4 360)">
<title>src/message.cpp</title>
<polygon fill="white" stroke="none" points="-4,4 -4,-360 1541.5,-360 1541.5,4 -4,4"/>
<!-- Node0 -->
<g id="node1" class="node"><title>Node0</title>
<polygon fill="#bfbfbf" stroke="black" points="791.5,-336.5 791.5,-355.5 883.5,-355.5 883.5,-336.5 791.5,-336.5"/>
<text text-anchor="middle" x="837.5" y="-343.5" font-family="Helvetica,sans-Serif" font-size="10.00">src/message.cpp</text>
</g>
<!-- Node1 -->
<g id="node2" class="node"><title>Node1</title>
<polygon fill="white" stroke="#bfbfbf" points="102.5,-112.5 102.5,-131.5 148.5,-131.5 148.5,-112.5 102.5,-112.5"/>
<text text-anchor="middle" x="125.5" y="-119.5" font-family="Helvetica,sans-Serif" font-size="10.00">stdio.h</text>
</g>
<!-- Node0&#45;&gt;Node1 -->
<g id="edge1" class="edge"><title>Node0&#45;&gt;Node1</title>
<path fill="none" stroke="midnightblue" d="M791.145,-343.111C689.477,-337.686 440.578,-317.353 247.5,-244 203.46,-227.269 189.121,-222.922 157.5,-188 145.256,-174.478 136.614,-155.415 131.423,-141.429"/>
<polygon fill="midnightblue" stroke="midnightblue" points="134.703,-140.204 128.124,-131.9 128.089,-142.495 134.703,-140.204"/>
</g>
<!-- Node2 -->
<g id="node3" class="node"><title>Node2</title>
<polygon fill="white" stroke="#bfbfbf" points="945.5,-224.5 945.5,-243.5 1013.5,-243.5 1013.5,-224.5 945.5,-224.5"/>
<text text-anchor="middle" x="979.5" y="-231.5" font-family="Helvetica,sans-Serif" font-size="10.00">qdatetime.h</text>
</g>
<!-- Node0&#45;&gt;Node2 -->
<g id="edge2" class="edge"><title>Node0&#45;&gt;Node2</title>
<path fill="none" stroke="midnightblue" d="M848.643,-336.368C872.802,-317.653 930.251,-273.151 960.353,-249.832"/>
<polygon fill="midnightblue" stroke="midnightblue" points="962.647,-252.482 968.409,-243.591 958.36,-246.949 962.647,-252.482"/>
</g>
<!-- Node3 -->
<g id="node4" class="node"><title>Node3</title>
<g id="a_node4"><a xlink:href="../../db/d16/config_8h.html" target="_top" xlink:title="config.h">
<polygon fill="white" stroke="black" points="1188,-280.5 1188,-299.5 1239,-299.5 1239,-280.5 1188,-280.5"/>
<text text-anchor="middle" x="1213.5" y="-287.5" font-family="Helvetica,sans-Serif" font-size="10.00">config.h</text>
</a>
</g>
</g>
<!-- Node0&#45;&gt;Node3 -->
<g id="edge3" class="edge"><title>Node0&#45;&gt;Node3</title>
<path fill="none" stroke="midnightblue" d="M883.563,-340.701C947.427,-334.35 1066.61,-321.089 1177.91,-299.886"/>
<polygon fill="midnightblue" stroke="midnightblue" points="1178.81,-303.277 1187.97,-297.945 1177.48,-296.404 1178.81,-303.277"/>
</g>
<!-- Node5 -->
<g id="node6" class="node"><title>Node5</title>
<g id="a_node6"><a xlink:href="../../d8/d3c/util_8h.html" target="_top" xlink:title="A bunch of utility functions. ">
<polygon fill="white" stroke="black" points="497.5,-224.5 497.5,-243.5 535.5,-243.5 535.5,-224.5 497.5,-224.5"/>
<text text-anchor="middle" x="516.5" y="-231.5" font-family="Helvetica,sans-Serif" font-size="10.00">util.h</text>
</a>
</g>
</g>
<!-- Node0&#45;&gt;Node5 -->
<g id="edge5" class="edge"><title>Node0&#45;&gt;Node5</title>
<path fill="none" stroke="midnightblue" d="M812.579,-336.46C753.973,-316.377 607.671,-266.242 545.349,-244.886"/>
<polygon fill="midnightblue" stroke="midnightblue" points="546.345,-241.528 535.751,-241.597 544.076,-248.15 546.345,-241.528"/>
</g>
<!-- Node16 -->
<g id="node17" class="node"><title>Node16</title>
<g id="a_node17"><a xlink:href="../../db/d16/debug_8h.html" target="_top" xlink:title="debug.h">
<polygon fill="white" stroke="black" points="1257,-280.5 1257,-299.5 1308,-299.5 1308,-280.5 1257,-280.5"/>
<text text-anchor="middle" x="1282.5" y="-287.5" font-family="Helvetica,sans-Serif" font-size="10.00">debug.h</text>
</a>
</g>
</g>
<!-- Node0&#45;&gt;Node16 -->
<g id="edge22" class="edge"><title>Node0&#45;&gt;Node16</title>
<path fill="none" stroke="midnightblue" d="M883.618,-342.088C958.044,-336.921 1109.34,-324.48 1247.09,-299.808"/>
<polygon fill="midnightblue" stroke="midnightblue" points="1247.77,-303.242 1256.98,-298.01 1246.51,-296.354 1247.77,-303.242"/>
</g>
<!-- Node17 -->
<g id="node18" class="node"><title>Node17</title>
<g id="a_node18"><a xlink:href="../../d1/da1/doxygen_8h.html" target="_top" xlink:title="doxygen.h">
<polygon fill="white" stroke="black" points="806.5,-280.5 806.5,-299.5 868.5,-299.5 868.5,-280.5 806.5,-280.5"/>
<text text-anchor="middle" x="837.5" y="-287.5" font-family="Helvetica,sans-Serif" font-size="10.00">doxygen.h</text>
</a>
</g>
</g>
<!-- Node0&#45;&gt;Node17 -->
<g id="edge23" class="edge"><title>Node0&#45;&gt;Node17</title>
<path fill="none" stroke="midnightblue" d="M837.5,-336.083C837.5,-329.006 837.5,-318.861 837.5,-309.986"/>
<polygon fill="midnightblue" stroke="midnightblue" points="841,-309.751 837.5,-299.751 834,-309.751 841,-309.751"/>
</g>
<!-- Node30 -->
<g id="node31" class="node"><title>Node30</title>
<g id="a_node31"><a xlink:href="../../d2/de2/portable_8h.html" target="_top" xlink:title="Portable versions of functions that are platform dependent. ">
<polygon fill="white" stroke="black" points="0,-168.5 0,-187.5 59,-187.5 59,-168.5 0,-168.5"/>
<text text-anchor="middle" x="29.5" y="-175.5" font-family="Helvetica,sans-Serif" font-size="10.00">portable.h</text>
</a>
</g>
</g>
<!-- Node0&#45;&gt;Node30 -->
<g id="edge55" class="edge"><title>Node0&#45;&gt;Node30</title>
<path fill="none" stroke="midnightblue" d="M791.325,-344.827C637.822,-343.897 150.995,-337.952 92.5,-300 56.353,-276.547 39.7648,-225.317 33.1919,-197.635"/>
<polygon fill="midnightblue" stroke="midnightblue" points="36.5691,-196.695 31.0204,-187.669 29.7296,-198.185 36.5691,-196.695"/>
</g>
<!-- Node32 -->
<g id="node33" class="node"><title>Node32</title>
<g id="a_node33"><a xlink:href="../../d4/d3a/filedef_8h.html" target="_top" xlink:title="filedef.h">
<polygon fill="white" stroke="black" points="1119,-280.5 1119,-299.5 1170,-299.5 1170,-280.5 1119,-280.5"/>
<text text-anchor="middle" x="1144.5" y="-287.5" font-family="Helvetica,sans-Serif" font-size="10.00">filedef.h</text>
</a>
</g>
</g>
<!-- Node0&#45;&gt;Node32 -->
<g id="edge59" class="edge"><title>Node0&#45;&gt;Node32</title>
<path fill="none" stroke="midnightblue" d="M883.793,-336.857C945.323,-326.034 1052.75,-307.138 1108.55,-297.323"/>
<polygon fill="midnightblue" stroke="midnightblue" points="1109.43,-300.722 1118.67,-295.543 1108.22,-293.828 1109.43,-300.722"/>
</g>
<!-- Node34 -->
<g id="node35" class="node"><title>Node34</title>
<g id="a_node35"><a xlink:href="../../d2/d0d/message_8h.html" target="_top" xlink:title="message.h">
<polygon fill="white" stroke="black" points="102,-280.5 102,-299.5 167,-299.5 167,-280.5 102,-280.5"/>
<text text-anchor="middle" x="134.5" y="-287.5" font-family="Helvetica,sans-Serif" font-size="10.00">message.h</text>
</a>
</g>
</g>
<!-- Node0&#45;&gt;Node34 -->
<g id="edge69" class="edge"><title>Node0&#45;&gt;Node34</title>
<path fill="none" stroke="midnightblue" d="M791.182,-343.744C683.681,-340.409 409.053,-329.482 181.5,-300 180.032,-299.81 178.542,-299.603 177.038,-299.382"/>
<polygon fill="midnightblue" stroke="midnightblue" points="177.466,-295.905 167.034,-297.757 176.344,-302.815 177.466,-295.905"/>
</g>
<!-- Node4 -->
<g id="node5" class="node"><title>Node4</title>
<polygon fill="white" stroke="#bfbfbf" points="1457.5,-224.5 1457.5,-243.5 1537.5,-243.5 1537.5,-224.5 1457.5,-224.5"/>
<text text-anchor="middle" x="1497.5" y="-231.5" font-family="Helvetica,sans-Serif" font-size="10.00">configvalues.h</text>
</g>
<!-- Node3&#45;&gt;Node4 -->
<g id="edge4" class="edge"><title>Node3&#45;&gt;Node4</title>
<path fill="none" stroke="midnightblue" d="M1239.07,-281.996C1241.9,-281.289 1244.76,-280.609 1247.5,-280 1284.71,-271.74 1385.67,-254.114 1447.31,-243.54"/>
<polygon fill="midnightblue" stroke="midnightblue" points="1447.96,-246.98 1457.22,-241.842 1446.78,-240.08 1447.96,-246.98"/>
</g>
<!-- Node6 -->
<g id="node7" class="node"><title>Node6</title>
<polygon fill="white" stroke="#bfbfbf" points="994,-56.5 994,-75.5 1037,-75.5 1037,-56.5 994,-56.5"/>
<text text-anchor="middle" x="1015.5" y="-63.5" font-family="Helvetica,sans-Serif" font-size="10.00">qlist.h</text>
</g>
<!-- Node5&#45;&gt;Node6 -->
<g id="edge6" class="edge"><title>Node5&#45;&gt;Node6</title>
<path fill="none" stroke="midnightblue" d="M534.985,-224.345C553.675,-215.503 583.316,-201.234 608.5,-188 669.451,-155.971 678.549,-134.855 743.5,-112 826.961,-82.6317 931.711,-72.2129 983.489,-68.6902"/>
<polygon fill="midnightblue" stroke="midnightblue" points="983.95,-72.168 993.707,-68.0388 983.505,-65.1822 983.95,-72.168"/>
</g>
<!-- Node7 -->
<g id="node8" class="node"><title>Node7</title>
<polygon fill="white" stroke="#bfbfbf" points="426,-168.5 426,-187.5 475,-187.5 475,-168.5 426,-168.5"/>
<text text-anchor="middle" x="450.5" y="-175.5" font-family="Helvetica,sans-Serif" font-size="10.00">ctype.h</text>
</g>
<!-- Node5&#45;&gt;Node7 -->
<g id="edge7" class="edge"><title>Node5&#45;&gt;Node7</title>
<path fill="none" stroke="midnightblue" d="M505.896,-224.324C496.044,-216.263 481.149,-204.077 469.285,-194.369"/>
<polygon fill="midnightblue" stroke="midnightblue" points="471.253,-191.457 461.297,-187.834 466.82,-196.875 471.253,-191.457"/>
</g>
<!-- Node8 -->
<g id="node9" class="node"><title>Node8</title>
<g id="a_node9"><a xlink:href="../../d9/d49/types_8h.html" target="_top" xlink:title="This file contains a number of basic enums and types. ">
<polygon fill="white" stroke="black" points="765,-56.5 765,-75.5 814,-75.5 814,-56.5 765,-56.5"/>
<text text-anchor="middle" x="789.5" y="-63.5" font-family="Helvetica,sans-Serif" font-size="10.00">types.h</text>
</a>
</g>
</g>
<!-- Node5&#45;&gt;Node8 -->
<g id="edge8" class="edge"><title>Node5&#45;&gt;Node8</title>
<path fill="none" stroke="midnightblue" d="M513.441,-224.345C508.526,-211.229 497.937,-185.947 483.5,-168 463.661,-143.337 418.594,-135.766 439.5,-112 460.139,-88.5375 670.186,-73.8906 754.628,-68.9102"/>
<polygon fill="midnightblue" stroke="midnightblue" points="754.968,-72.3965 764.749,-68.3243 754.563,-65.4082 754.968,-72.3965"/>
</g>
<!-- Node10 -->
<g id="node11" class="node"><title>Node10</title>
<g id="a_node11"><a xlink:href="../../d9/d21/sortdict_8h.html" target="_top" xlink:title="sortdict.h">
<polygon fill="white" stroke="black" points="920,-168.5 920,-187.5 977,-187.5 977,-168.5 920,-168.5"/>
<text text-anchor="middle" x="948.5" y="-175.5" font-family="Helvetica,sans-Serif" font-size="10.00">sortdict.h</text>
</a>
</g>
</g>
<!-- Node5&#45;&gt;Node10 -->
<g id="edge10" class="edge"><title>Node5&#45;&gt;Node10</title>
<path fill="none" stroke="midnightblue" d="M535.643,-226.29C538.583,-225.421 541.604,-224.62 544.5,-224 676.704,-195.688 837.29,-184.55 909.741,-180.736"/>
<polygon fill="midnightblue" stroke="midnightblue" points="909.967,-184.229 919.777,-180.226 909.612,-177.238 909.967,-184.229"/>
</g>
<!-- Node13 -->
<g id="node14" class="node"><title>Node13</title>
<g id="a_node14"><a xlink:href="../../de/d9c/docparser_8h.html" target="_top" xlink:title="docparser.h">
<polygon fill="white" stroke="black" points="531.5,-168.5 531.5,-187.5 599.5,-187.5 599.5,-168.5 531.5,-168.5"/>
<text text-anchor="middle" x="565.5" y="-175.5" font-family="Helvetica,sans-Serif" font-size="10.00">docparser.h</text>
</a>
</g>
</g>
<!-- Node5&#45;&gt;Node13 -->
<g id="edge14" class="edge"><title>Node5&#45;&gt;Node13</title>
<path fill="none" stroke="midnightblue" d="M524.591,-224.083C531.655,-216.298 542.088,-204.801 550.649,-195.367"/>
<polygon fill="midnightblue" stroke="midnightblue" points="553.431,-197.509 557.559,-187.751 548.247,-192.805 553.431,-197.509"/>
</g>
<!-- Node9 -->
<g id="node10" class="node"><title>Node9</title>
<polygon fill="white" stroke="#bfbfbf" points="691,-0.5 691,-19.5 750,-19.5 750,-0.5 691,-0.5"/>
<text text-anchor="middle" x="720.5" y="-7.5" font-family="Helvetica,sans-Serif" font-size="10.00">qcstring.h</text>
</g>
<!-- Node8&#45;&gt;Node9 -->
<g id="edge9" class="edge"><title>Node8&#45;&gt;Node9</title>
<path fill="none" stroke="midnightblue" d="M778.414,-56.324C768.014,-48.1849 752.239,-35.8395 739.778,-26.0874"/>
<polygon fill="midnightblue" stroke="midnightblue" points="741.82,-23.2407 731.788,-19.8339 737.506,-28.7533 741.82,-23.2407"/>
</g>
<!-- Node10&#45;&gt;Node6 -->
<g id="edge11" class="edge"><title>Node10&#45;&gt;Node6</title>
<path fill="none" stroke="midnightblue" d="M953.757,-168.368C964.765,-150.296 990.42,-108.176 1004.96,-84.3074"/>
<polygon fill="midnightblue" stroke="midnightblue" points="1008.05,-85.9526 1010.27,-75.5914 1002.08,-82.3112 1008.05,-85.9526"/>
</g>
<!-- Node11 -->
<g id="node12" class="node"><title>Node11</title>
<polygon fill="white" stroke="#bfbfbf" points="1200.5,-56.5 1200.5,-75.5 1246.5,-75.5 1246.5,-56.5 1200.5,-56.5"/>
<text text-anchor="middle" x="1223.5" y="-63.5" font-family="Helvetica,sans-Serif" font-size="10.00">qdict.h</text>
</g>
<!-- Node10&#45;&gt;Node11 -->
<g id="edge12" class="edge"><title>Node10&#45;&gt;Node11</title>
<path fill="none" stroke="midnightblue" d="M970.079,-168.368C1018.57,-148.97 1136.33,-101.87 1192.58,-79.3673"/>
<polygon fill="midnightblue" stroke="midnightblue" points="1194.04,-82.5551 1202.02,-75.5914 1191.44,-76.0557 1194.04,-82.5551"/>
</g>
<!-- Node12 -->
<g id="node13" class="node"><title>Node12</title>
<polygon fill="white" stroke="#bfbfbf" points="893.5,-112.5 893.5,-131.5 949.5,-131.5 949.5,-112.5 893.5,-112.5"/>
<text text-anchor="middle" x="921.5" y="-119.5" font-family="Helvetica,sans-Serif" font-size="10.00">qintdict.h</text>
</g>
<!-- Node10&#45;&gt;Node12 -->
<g id="edge13" class="edge"><title>Node10&#45;&gt;Node12</title>
<path fill="none" stroke="midnightblue" d="M944.041,-168.083C940.346,-160.691 934.977,-149.953 930.406,-140.811"/>
<polygon fill="midnightblue" stroke="midnightblue" points="933.478,-139.13 925.876,-131.751 927.217,-142.261 933.478,-139.13"/>
</g>
<!-- Node13&#45;&gt;Node1 -->
<g id="edge15" class="edge"><title>Node13&#45;&gt;Node1</title>
<path fill="none" stroke="midnightblue" d="M531.34,-172.808C449.021,-162.705 240.472,-137.11 158.918,-127.101"/>
<polygon fill="midnightblue" stroke="midnightblue" points="159.075,-123.594 148.724,-125.85 158.223,-130.542 159.075,-123.594"/>
</g>
<!-- Node13&#45;&gt;Node6 -->
<g id="edge16" class="edge"><title>Node13&#45;&gt;Node6</title>
<path fill="none" stroke="midnightblue" d="M578.235,-168.401C600.002,-154.157 646.214,-125.865 689.5,-112 793.738,-78.6106 924.53,-69.9939 983.758,-67.7716"/>
<polygon fill="midnightblue" stroke="midnightblue" points="984.086,-71.2626 993.962,-67.4265 983.849,-64.2666 984.086,-71.2626"/>
</g>
<!-- Node13&#45;&gt;Node9 -->
<g id="edge17" class="edge"><title>Node13&#45;&gt;Node9</title>
<path fill="none" stroke="midnightblue" d="M531.281,-172.678C485.856,-165.46 414.156,-148.041 439.5,-112 494.723,-33.4694 617.099,-15.7028 680.572,-11.8825"/>
<polygon fill="midnightblue" stroke="midnightblue" points="680.797,-15.3757 690.603,-11.3661 680.437,-8.38495 680.797,-15.3757"/>
</g>
<!-- Node14 -->
<g id="node15" class="node"><title>Node14</title>
<g id="a_node15"><a xlink:href="../../d2/d3c/docvisitor_8h.html" target="_top" xlink:title="docvisitor.h">
<polygon fill="white" stroke="black" points="449,-112.5 449,-131.5 516,-131.5 516,-112.5 449,-112.5"/>
<text text-anchor="middle" x="482.5" y="-119.5" font-family="Helvetica,sans-Serif" font-size="10.00">docvisitor.h</text>
</a>
</g>
</g>
<!-- Node13&#45;&gt;Node14 -->
<g id="edge18" class="edge"><title>Node13&#45;&gt;Node14</title>
<path fill="none" stroke="midnightblue" d="M552.165,-168.324C539.338,-159.979 519.715,-147.212 504.56,-137.352"/>
<polygon fill="midnightblue" stroke="midnightblue" points="506.093,-134.174 495.802,-131.655 502.276,-140.042 506.093,-134.174"/>
</g>
<!-- Node15 -->
<g id="node16" class="node"><title>Node15</title>
<g id="a_node16"><a xlink:href="../../d0/d73/htmlattrib_8h.html" target="_top" xlink:title="htmlattrib.h">
<polygon fill="white" stroke="black" points="534,-112.5 534,-131.5 599,-131.5 599,-112.5 534,-112.5"/>
<text text-anchor="middle" x="566.5" y="-119.5" font-family="Helvetica,sans-Serif" font-size="10.00">htmlattrib.h</text>
</a>
</g>
</g>
<!-- Node13&#45;&gt;Node15 -->
<g id="edge19" class="edge"><title>Node13&#45;&gt;Node15</title>
<path fill="none" stroke="midnightblue" d="M565.665,-168.083C565.796,-161.006 565.984,-150.861 566.148,-141.986"/>
<polygon fill="midnightblue" stroke="midnightblue" points="569.652,-141.814 566.338,-131.751 562.653,-141.685 569.652,-141.814"/>
</g>
<!-- Node15&#45;&gt;Node6 -->
<g id="edge21" class="edge"><title>Node15&#45;&gt;Node6</title>
<path fill="none" stroke="midnightblue" d="M599.153,-117.073C682.38,-107.063 901.673,-80.6896 983.825,-70.8095"/>
<polygon fill="midnightblue" stroke="midnightblue" points="984.303,-74.2772 993.814,-69.6081 983.467,-67.3273 984.303,-74.2772"/>
</g>
<!-- Node15&#45;&gt;Node9 -->
<g id="edge20" class="edge"><title>Node15&#45;&gt;Node9</title>
<path fill="none" stroke="midnightblue" d="M578.584,-112.368C604.898,-93.5728 667.624,-48.7684 700.153,-25.5334"/>
<polygon fill="midnightblue" stroke="midnightblue" points="702.369,-28.2519 708.472,-19.5914 698.3,-22.5558 702.369,-28.2519"/>
</g>
<!-- Node17&#45;&gt;Node2 -->
<g id="edge24" class="edge"><title>Node17&#45;&gt;Node2</title>
<path fill="none" stroke="midnightblue" d="M860,-280.444C883.577,-271.478 920.822,-257.314 947.464,-247.183"/>
<polygon fill="midnightblue" stroke="midnightblue" points="949.002,-250.342 957.105,-243.516 946.514,-243.8 949.002,-250.342"/>
</g>
<!-- Node17&#45;&gt;Node10 -->
<g id="edge34" class="edge"><title>Node17&#45;&gt;Node10</title>
<path fill="none" stroke="midnightblue" d="M851.167,-280.268C863.877,-271.808 882.981,-258.206 897.5,-244 912.661,-229.166 927.324,-209.781 937.005,-196.053"/>
<polygon fill="midnightblue" stroke="midnightblue" points="940.055,-197.795 942.857,-187.577 934.295,-193.818 940.055,-197.795"/>
</g>
<!-- Node17&#45;&gt;Node11 -->
<g id="edge27" class="edge"><title>Node17&#45;&gt;Node11</title>
<path fill="none" stroke="midnightblue" d="M868.749,-288.127C944.457,-285.523 1135.44,-275.891 1189.5,-244 1238.14,-215.307 1240.31,-187.717 1249.5,-132 1250.95,-123.23 1251.8,-120.586 1249.5,-112 1246.85,-102.103 1241.43,-92.1315 1236.23,-84.099"/>
<polygon fill="midnightblue" stroke="midnightblue" points="1238.96,-81.9055 1230.39,-75.6811 1233.21,-85.8935 1238.96,-81.9055"/>
</g>
<!-- Node17&#45;&gt;Node12 -->
<g id="edge28" class="edge"><title>Node17&#45;&gt;Node12</title>
<path fill="none" stroke="midnightblue" d="M834.079,-280.258C829.612,-267.459 823.175,-243.072 830.5,-224 844.619,-187.237 878.99,-155.491 901.216,-137.839"/>
<polygon fill="midnightblue" stroke="midnightblue" points="903.562,-140.451 909.349,-131.576 899.291,-134.904 903.562,-140.451"/>
</g>
<!-- Node18 -->
<g id="node19" class="node"><title>Node18</title>
<polygon fill="white" stroke="#bfbfbf" points="625.5,-224.5 625.5,-243.5 681.5,-243.5 681.5,-224.5 625.5,-224.5"/>
<text text-anchor="middle" x="653.5" y="-231.5" font-family="Helvetica,sans-Serif" font-size="10.00">qcache.h</text>
</g>
<!-- Node17&#45;&gt;Node18 -->
<g id="edge25" class="edge"><title>Node17&#45;&gt;Node18</title>
<path fill="none" stroke="midnightblue" d="M808.345,-280.444C776.71,-271.159 726.085,-256.302 691.389,-246.12"/>
<polygon fill="midnightblue" stroke="midnightblue" points="692.195,-242.709 681.614,-243.251 690.224,-249.425 692.195,-242.709"/>
</g>
<!-- Node19 -->
<g id="node20" class="node"><title>Node19</title>
<polygon fill="white" stroke="#bfbfbf" points="553.5,-224.5 553.5,-243.5 607.5,-243.5 607.5,-224.5 553.5,-224.5"/>
<text text-anchor="middle" x="580.5" y="-231.5" font-family="Helvetica,sans-Serif" font-size="10.00">qstrlist.h</text>
</g>
<!-- Node17&#45;&gt;Node19 -->
<g id="edge26" class="edge"><title>Node17&#45;&gt;Node19</title>
<path fill="none" stroke="midnightblue" d="M806.298,-283.097C765.255,-275.233 690.665,-260.606 617.447,-244.139"/>
<polygon fill="midnightblue" stroke="midnightblue" points="618.122,-240.703 607.596,-241.91 616.577,-247.531 618.122,-240.703"/>
</g>
<!-- Node20 -->
<g id="node21" class="node"><title>Node20</title>
<g id="a_node21"><a xlink:href="../../df/d83/ftextstream_8h.html" target="_top" xlink:title="ftextstream.h">
<polygon fill="white" stroke="black" points="256.5,-224.5 256.5,-243.5 330.5,-243.5 330.5,-224.5 256.5,-224.5"/>
<text text-anchor="middle" x="293.5" y="-231.5" font-family="Helvetica,sans-Serif" font-size="10.00">ftextstream.h</text>
</a>
</g>
</g>
<!-- Node17&#45;&gt;Node20 -->
<g id="edge29" class="edge"><title>Node17&#45;&gt;Node20</title>
<path fill="none" stroke="midnightblue" d="M806.298,-285.903C715.205,-276.86 449.221,-250.458 340.565,-239.672"/>
<polygon fill="midnightblue" stroke="midnightblue" points="340.849,-236.183 330.552,-238.678 340.158,-243.149 340.849,-236.183"/>
</g>
<!-- Node24 -->
<g id="node25" class="node"><title>Node24</title>
<g id="a_node25"><a xlink:href="../../d9/d11/membergroup_8h.html" target="_top" xlink:title="membergroup.h">
<polygon fill="white" stroke="black" points="699.5,-224.5 699.5,-243.5 783.5,-243.5 783.5,-224.5 699.5,-224.5"/>
<text text-anchor="middle" x="741.5" y="-231.5" font-family="Helvetica,sans-Serif" font-size="10.00">membergroup.h</text>
</a>
</g>
</g>
<!-- Node17&#45;&gt;Node24 -->
<g id="edge35" class="edge"><title>Node17&#45;&gt;Node24</title>
<path fill="none" stroke="midnightblue" d="M822.076,-280.324C806.96,-271.822 783.685,-258.729 766.029,-248.797"/>
<polygon fill="midnightblue" stroke="midnightblue" points="767.317,-245.507 756.886,-243.655 763.886,-251.608 767.317,-245.507"/>
</g>
<!-- Node25 -->
<g id="node26" class="node"><title>Node25</title>
<g id="a_node26"><a xlink:href="../../d6/d15/dirdef_8h.html" target="_top" xlink:title="dirdef.h">
<polygon fill="white" stroke="black" points="840,-224.5 840,-243.5 889,-243.5 889,-224.5 840,-224.5"/>
<text text-anchor="middle" x="864.5" y="-231.5" font-family="Helvetica,sans-Serif" font-size="10.00">dirdef.h</text>
</a>
</g>
</g>
<!-- Node17&#45;&gt;Node25 -->
<g id="edge39" class="edge"><title>Node17&#45;&gt;Node25</title>
<path fill="none" stroke="midnightblue" d="M841.959,-280.083C845.654,-272.691 851.023,-261.953 855.594,-252.811"/>
<polygon fill="midnightblue" stroke="midnightblue" points="858.783,-254.261 860.124,-243.751 852.522,-251.13 858.783,-254.261"/>
</g>
<!-- Node27 -->
<g id="node28" class="node"><title>Node27</title>
<g id="a_node28"><a xlink:href="../../dd/d78/memberlist_8h.html" target="_top" xlink:title="memberlist.h">
<polygon fill="white" stroke="black" points="1108,-224.5 1108,-243.5 1181,-243.5 1181,-224.5 1108,-224.5"/>
<text text-anchor="middle" x="1144.5" y="-231.5" font-family="Helvetica,sans-Serif" font-size="10.00">memberlist.h</text>
</a>
</g>
</g>
<!-- Node17&#45;&gt;Node27 -->
<g id="edge46" class="edge"><title>Node17&#45;&gt;Node27</title>
<path fill="none" stroke="midnightblue" d="M868.626,-283.525C922.632,-274.026 1033.99,-254.439 1097.47,-243.273"/>
<polygon fill="midnightblue" stroke="midnightblue" points="1098.36,-246.669 1107.6,-241.49 1097.15,-239.775 1098.36,-246.669"/>
</g>
<!-- Node20&#45;&gt;Node1 -->
<g id="edge30" class="edge"><title>Node20&#45;&gt;Node1</title>
<path fill="none" stroke="midnightblue" d="M261.386,-224.355C238.086,-217.083 206.566,-205.109 182.5,-188 164.036,-174.874 147.53,-154.63 137.092,-140.225"/>
<polygon fill="midnightblue" stroke="midnightblue" points="139.751,-137.92 131.149,-131.735 134.016,-141.935 139.751,-137.92"/>
</g>
<!-- Node21 -->
<g id="node22" class="node"><title>Node21</title>
<polygon fill="white" stroke="#bfbfbf" points="341.5,-168.5 341.5,-187.5 407.5,-187.5 407.5,-168.5 341.5,-168.5"/>
<text text-anchor="middle" x="374.5" y="-175.5" font-family="Helvetica,sans-Serif" font-size="10.00">qiodevice.h</text>
</g>
<!-- Node20&#45;&gt;Node21 -->
<g id="edge31" class="edge"><title>Node20&#45;&gt;Node21</title>
<path fill="none" stroke="midnightblue" d="M306.514,-224.324C319.032,-215.979 338.182,-203.212 352.971,-193.352"/>
<polygon fill="midnightblue" stroke="midnightblue" points="355.139,-196.114 361.518,-187.655 351.256,-190.289 355.139,-196.114"/>
</g>
<!-- Node22 -->
<g id="node23" class="node"><title>Node22</title>
<polygon fill="white" stroke="#bfbfbf" points="191.5,-168.5 191.5,-187.5 245.5,-187.5 245.5,-168.5 191.5,-168.5"/>
<text text-anchor="middle" x="218.5" y="-175.5" font-family="Helvetica,sans-Serif" font-size="10.00">qstring.h</text>
</g>
<!-- Node20&#45;&gt;Node22 -->
<g id="edge32" class="edge"><title>Node20&#45;&gt;Node22</title>
<path fill="none" stroke="midnightblue" d="M281.45,-224.324C270.037,-216.107 252.669,-203.602 239.065,-193.807"/>
<polygon fill="midnightblue" stroke="midnightblue" points="240.93,-190.837 230.769,-187.834 236.84,-196.517 240.93,-190.837"/>
</g>
<!-- Node23 -->
<g id="node24" class="node"><title>Node23</title>
<polygon fill="white" stroke="#bfbfbf" points="264,-168.5 264,-187.5 323,-187.5 323,-168.5 264,-168.5"/>
<text text-anchor="middle" x="293.5" y="-175.5" font-family="Helvetica,sans-Serif" font-size="10.00">qgstring.h</text>
</g>
<!-- Node20&#45;&gt;Node23 -->
<g id="edge33" class="edge"><title>Node20&#45;&gt;Node23</title>
<path fill="none" stroke="midnightblue" d="M293.5,-224.083C293.5,-217.006 293.5,-206.861 293.5,-197.986"/>
<polygon fill="midnightblue" stroke="midnightblue" points="297,-197.751 293.5,-187.751 290,-197.751 297,-197.751"/>
</g>
<!-- Node24&#45;&gt;Node6 -->
<g id="edge36" class="edge"><title>Node24&#45;&gt;Node6</title>
<path fill="none" stroke="midnightblue" d="M739.827,-224.211C736.151,-201.988 729.969,-143.114 760.5,-112 791.093,-80.8222 922.182,-71.048 983.563,-68.1482"/>
<polygon fill="midnightblue" stroke="midnightblue" points="983.992,-71.6328 993.829,-67.697 983.685,-64.6395 983.992,-71.6328"/>
</g>
<!-- Node24&#45;&gt;Node8 -->
<g id="edge38" class="edge"><title>Node24&#45;&gt;Node8</title>
<path fill="none" stroke="midnightblue" d="M737.304,-224.2C728.031,-203.392 708.098,-150.057 727.5,-112 734.5,-98.2698 747.866,-87.7496 760.4,-80.3465"/>
<polygon fill="midnightblue" stroke="midnightblue" points="762.174,-83.366 769.277,-75.5055 758.822,-77.2204 762.174,-83.366"/>
</g>
<!-- Node24&#45;&gt;Node10 -->
<g id="edge37" class="edge"><title>Node24&#45;&gt;Node10</title>
<path fill="none" stroke="midnightblue" d="M774.3,-224.444C811.136,-214.834 870.86,-199.254 909.911,-189.067"/>
<polygon fill="midnightblue" stroke="midnightblue" points="911.061,-192.384 919.853,-186.473 909.294,-185.611 911.061,-192.384"/>
</g>
<!-- Node25&#45;&gt;Node6 -->
<g id="edge45" class="edge"><title>Node25&#45;&gt;Node6</title>
<path fill="none" stroke="midnightblue" d="M863.21,-224.475C860.447,-202.872 856.319,-145.332 884.5,-112 909.083,-82.9244 953.368,-72.6009 983.581,-68.9558"/>
<polygon fill="midnightblue" stroke="midnightblue" points="984.035,-72.4277 993.625,-67.9252 983.32,-65.4642 984.035,-72.4277"/>
</g>
<!-- Node25&#45;&gt;Node10 -->
<g id="edge40" class="edge"><title>Node25&#45;&gt;Node10</title>
<path fill="none" stroke="midnightblue" d="M877.996,-224.324C891.1,-215.9 911.212,-202.971 926.607,-193.074"/>
<polygon fill="midnightblue" stroke="midnightblue" points="928.518,-196.006 935.037,-187.655 924.733,-190.118 928.518,-196.006"/>
</g>
<!-- Node26 -->
<g id="node27" class="node"><title>Node26</title>
<g id="a_node27"><a xlink:href="../../df/da1/definition_8h.html" target="_top" xlink:title="definition.h">
<polygon fill="white" stroke="black" points="1157.5,-112.5 1157.5,-131.5 1221.5,-131.5 1221.5,-112.5 1157.5,-112.5"/>
<text text-anchor="middle" x="1189.5" y="-119.5" font-family="Helvetica,sans-Serif" font-size="10.00">definition.h</text>
</a>
</g>
</g>
<!-- Node25&#45;&gt;Node26 -->
<g id="edge41" class="edge"><title>Node25&#45;&gt;Node26</title>
<path fill="none" stroke="midnightblue" d="M889.137,-229.784C957.219,-220.815 1143.63,-195.684 1154.5,-188 1170.16,-176.926 1179.48,-156.582 1184.51,-141.594"/>
<polygon fill="midnightblue" stroke="midnightblue" points="1187.91,-142.42 1187.45,-131.835 1181.21,-140.401 1187.91,-142.42"/>
</g>
<!-- Node26&#45;&gt;Node6 -->
<g id="edge42" class="edge"><title>Node26&#45;&gt;Node6</title>
<path fill="none" stroke="midnightblue" d="M1161.93,-112.444C1130.71,-102.756 1079.95,-87.0008 1047.14,-76.8199"/>
<polygon fill="midnightblue" stroke="midnightblue" points="1047.76,-73.3464 1037.17,-73.7251 1045.68,-80.0319 1047.76,-73.3464"/>
</g>
<!-- Node26&#45;&gt;Node8 -->
<g id="edge44" class="edge"><title>Node26&#45;&gt;Node8</title>
<path fill="none" stroke="midnightblue" d="M1157.44,-116.672C1083.43,-106.681 901.136,-82.0708 824.419,-71.714"/>
<polygon fill="midnightblue" stroke="midnightblue" points="824.695,-68.2196 814.316,-70.3502 823.758,-75.1567 824.695,-68.2196"/>
</g>
<!-- Node26&#45;&gt;Node11 -->
<g id="edge43" class="edge"><title>Node26&#45;&gt;Node11</title>
<path fill="none" stroke="midnightblue" d="M1195.11,-112.083C1199.87,-104.534 1206.82,-93.4948 1212.65,-84.2298"/>
<polygon fill="midnightblue" stroke="midnightblue" points="1215.62,-86.0783 1217.99,-75.7511 1209.7,-82.3486 1215.62,-86.0783"/>
</g>
<!-- Node27&#45;&gt;Node6 -->
<g id="edge47" class="edge"><title>Node27&#45;&gt;Node6</title>
<path fill="none" stroke="midnightblue" d="M1159.23,-224.212C1191.52,-203.869 1263.16,-152.207 1230.5,-112 1207.79,-84.0426 1101.52,-72.8422 1047.38,-68.8917"/>
<polygon fill="midnightblue" stroke="midnightblue" points="1047.51,-65.392 1037.29,-68.1954 1047.03,-72.3754 1047.51,-65.392"/>
</g>
<!-- Node27&#45;&gt;Node8 -->
<g id="edge54" class="edge"><title>Node27&#45;&gt;Node8</title>
<path fill="none" stroke="midnightblue" d="M1127.49,-224.482C1110.64,-215.86 1084.29,-201.857 1062.5,-188 1038.35,-172.638 984.329,-124.339 958.5,-112 914.678,-91.0656 859.64,-78.7237 824.511,-72.4096"/>
<polygon fill="midnightblue" stroke="midnightblue" points="824.732,-68.896 814.282,-70.6407 823.539,-75.7936 824.732,-68.896"/>
</g>
<!-- Node27&#45;&gt;Node10 -->
<g id="edge53" class="edge"><title>Node27&#45;&gt;Node10</title>
<path fill="none" stroke="midnightblue" d="M1113.44,-224.444C1079.21,-215.011 1024.09,-199.825 987.099,-189.634"/>
<polygon fill="midnightblue" stroke="midnightblue" points="987.75,-186.183 977.18,-186.902 985.891,-192.932 987.75,-186.183"/>
</g>
<!-- Node28 -->
<g id="node29" class="node"><title>Node28</title>
<g id="a_node29"><a xlink:href="../../d4/d46/memberdef_8h.html" target="_top" xlink:title="memberdef.h">
<polygon fill="white" stroke="black" points="1071.5,-168.5 1071.5,-187.5 1145.5,-187.5 1145.5,-168.5 1071.5,-168.5"/>
<text text-anchor="middle" x="1108.5" y="-175.5" font-family="Helvetica,sans-Serif" font-size="10.00">memberdef.h</text>
</a>
</g>
</g>
<!-- Node27&#45;&gt;Node28 -->
<g id="edge48" class="edge"><title>Node27&#45;&gt;Node28</title>
<path fill="none" stroke="midnightblue" d="M1138.56,-224.083C1133.52,-216.534 1126.16,-205.495 1119.99,-196.23"/>
<polygon fill="midnightblue" stroke="midnightblue" points="1122.79,-194.13 1114.33,-187.751 1116.97,-198.013 1122.79,-194.13"/>
</g>
<!-- Node28&#45;&gt;Node6 -->
<g id="edge49" class="edge"><title>Node28&#45;&gt;Node6</title>
<path fill="none" stroke="midnightblue" d="M1104.17,-168.462C1097.37,-155.498 1083.33,-130.414 1067.5,-112 1058.01,-100.966 1045.78,-90.2392 1035.55,-82.0276"/>
<polygon fill="midnightblue" stroke="midnightblue" points="1037.58,-79.1702 1027.55,-75.7699 1033.27,-84.6856 1037.58,-79.1702"/>
</g>
<!-- Node28&#45;&gt;Node8 -->
<g id="edge51" class="edge"><title>Node28&#45;&gt;Node8</title>
<path fill="none" stroke="midnightblue" d="M1095.77,-168.298C1074.89,-154.415 1031.68,-127.27 991.5,-112 934.805,-90.456 865.049,-77.7579 824.107,-71.6072"/>
<polygon fill="midnightblue" stroke="midnightblue" points="824.498,-68.1273 814.098,-70.1483 823.489,-75.0541 824.498,-68.1273"/>
</g>
<!-- Node28&#45;&gt;Node26 -->
<g id="edge52" class="edge"><title>Node28&#45;&gt;Node26</title>
<path fill="none" stroke="midnightblue" d="M1121.51,-168.324C1134.03,-159.979 1153.18,-147.212 1167.97,-137.352"/>
<polygon fill="midnightblue" stroke="midnightblue" points="1170.14,-140.114 1176.52,-131.655 1166.26,-134.289 1170.14,-140.114"/>
</g>
<!-- Node29 -->
<g id="node30" class="node"><title>Node29</title>
<polygon fill="white" stroke="#bfbfbf" points="769.5,-112.5 769.5,-131.5 837.5,-131.5 837.5,-112.5 769.5,-112.5"/>
<text text-anchor="middle" x="803.5" y="-119.5" font-family="Helvetica,sans-Serif" font-size="10.00">sys/types.h</text>
</g>
<!-- Node28&#45;&gt;Node29 -->
<g id="edge50" class="edge"><title>Node28&#45;&gt;Node29</title>
<path fill="none" stroke="midnightblue" d="M1071.41,-170.433C1014.98,-160.442 907.784,-141.463 847.503,-130.791"/>
<polygon fill="midnightblue" stroke="midnightblue" points="847.988,-127.322 837.531,-129.025 846.767,-134.215 847.988,-127.322"/>
</g>
<!-- Node30&#45;&gt;Node1 -->
<g id="edge57" class="edge"><title>Node30&#45;&gt;Node1</title>
<path fill="none" stroke="midnightblue" d="M44.9241,-168.324C60.0395,-159.822 83.3154,-146.729 100.971,-136.797"/>
<polygon fill="midnightblue" stroke="midnightblue" points="103.114,-139.608 110.114,-131.655 99.6825,-133.507 103.114,-139.608"/>
</g>
<!-- Node30&#45;&gt;Node29 -->
<g id="edge56" class="edge"><title>Node30&#45;&gt;Node29</title>
<path fill="none" stroke="midnightblue" d="M59.3675,-174.916C178.217,-166.624 617.954,-135.945 759.382,-126.078"/>
<polygon fill="midnightblue" stroke="midnightblue" points="759.697,-129.565 769.429,-125.377 759.21,-122.582 759.697,-129.565"/>
</g>
<!-- Node31 -->
<g id="node32" class="node"><title>Node31</title>
<polygon fill="white" stroke="#bfbfbf" points="1.5,-112.5 1.5,-131.5 57.5,-131.5 57.5,-112.5 1.5,-112.5"/>
<text text-anchor="middle" x="29.5" y="-119.5" font-family="Helvetica,sans-Serif" font-size="10.00">qglobal.h</text>
</g>
<!-- Node30&#45;&gt;Node31 -->
<g id="edge58" class="edge"><title>Node30&#45;&gt;Node31</title>
<path fill="none" stroke="midnightblue" d="M29.5,-168.083C29.5,-161.006 29.5,-150.861 29.5,-141.986"/>
<polygon fill="midnightblue" stroke="midnightblue" points="33.0001,-141.751 29.5,-131.751 26.0001,-141.751 33.0001,-141.751"/>
</g>
<!-- Node32&#45;&gt;Node6 -->
<g id="edge63" class="edge"><title>Node32&#45;&gt;Node6</title>
<path fill="none" stroke="midnightblue" d="M1160.91,-280.419C1174.65,-272.529 1193.97,-259.693 1206.5,-244 1245.01,-195.788 1288.79,-159.571 1249.5,-112 1224.2,-81.373 1105.17,-71.3729 1047.28,-68.2878"/>
<polygon fill="midnightblue" stroke="midnightblue" points="1047.38,-64.7885 1037.22,-67.7888 1047.03,-71.7799 1047.38,-64.7885"/>
</g>
<!-- Node32&#45;&gt;Node10 -->
<g id="edge67" class="edge"><title>Node32&#45;&gt;Node10</title>
<path fill="none" stroke="midnightblue" d="M1129.12,-280.368C1095.13,-261.292 1013.4,-215.422 972.564,-192.505"/>
<polygon fill="midnightblue" stroke="midnightblue" points="974.242,-189.433 963.808,-187.591 970.816,-195.538 974.242,-189.433"/>
</g>
<!-- Node32&#45;&gt;Node11 -->
<g id="edge65" class="edge"><title>Node32&#45;&gt;Node11</title>
<path fill="none" stroke="midnightblue" d="M1170.11,-282.163C1172.94,-281.425 1175.78,-280.691 1178.5,-280 1244.11,-263.338 1269.98,-281.266 1326.5,-244 1378.45,-209.747 1390.82,-191.029 1410.5,-132 1413.31,-123.567 1416,-118.982 1410.5,-112 1391.68,-88.1139 1304.98,-75.4378 1256.52,-70.1114"/>
<polygon fill="midnightblue" stroke="midnightblue" points="1256.82,-66.6241 1246.51,-69.0561 1256.09,-73.5855 1256.82,-66.6241"/>
</g>
<!-- Node32&#45;&gt;Node12 -->
<g id="edge64" class="edge"><title>Node32&#45;&gt;Node12</title>
<path fill="none" stroke="midnightblue" d="M1133.45,-280.31C1107.78,-260.173 1041.96,-208.913 985.5,-168 971.162,-157.61 954.831,-146.133 942.255,-137.37"/>
<polygon fill="midnightblue" stroke="midnightblue" points="944.052,-134.357 933.843,-131.523 940.057,-140.105 944.052,-134.357"/>
</g>
<!-- Node32&#45;&gt;Node26 -->
<g id="edge66" class="edge"><title>Node32&#45;&gt;Node26</title>
<path fill="none" stroke="midnightblue" d="M1157.56,-280.436C1168.41,-272.471 1183.07,-259.515 1189.5,-244 1203.52,-210.156 1198.44,-166.275 1193.77,-141.735"/>
<polygon fill="midnightblue" stroke="midnightblue" points="1197.14,-140.72 1191.67,-131.647 1190.29,-142.152 1197.14,-140.72"/>
</g>
<!-- Node32&#45;&gt;Node27 -->
<g id="edge68" class="edge"><title>Node32&#45;&gt;Node27</title>
<path fill="none" stroke="midnightblue" d="M1144.5,-280.083C1144.5,-273.006 1144.5,-262.861 1144.5,-253.986"/>
<polygon fill="midnightblue" stroke="midnightblue" points="1148,-253.751 1144.5,-243.751 1141,-253.751 1148,-253.751"/>
</g>
<!-- Node33 -->
<g id="node34" class="node"><title>Node33</title>
<g id="a_node34"><a xlink:href="../../d1/db5/index_8h.html" target="_top" xlink:title="index.h">
<polygon fill="white" stroke="black" points="1353.5,-112.5 1353.5,-131.5 1401.5,-131.5 1401.5,-112.5 1353.5,-112.5"/>
<text text-anchor="middle" x="1377.5" y="-119.5" font-family="Helvetica,sans-Serif" font-size="10.00">index.h</text>
</a>
</g>
</g>
<!-- Node32&#45;&gt;Node33 -->
<g id="edge60" class="edge"><title>Node32&#45;&gt;Node33</title>
<path fill="none" stroke="midnightblue" d="M1170.02,-282.174C1213.09,-270.585 1296.07,-247.93 1301.5,-244 1337.87,-217.653 1360.81,-168.05 1371.13,-141.265"/>
<polygon fill="midnightblue" stroke="midnightblue" points="1374.51,-142.207 1374.67,-131.614 1367.94,-139.793 1374.51,-142.207"/>
</g>
<!-- Node33&#45;&gt;Node6 -->
<g id="edge61" class="edge"><title>Node33&#45;&gt;Node6</title>
<path fill="none" stroke="midnightblue" d="M1353.47,-117.415C1290.23,-107.982 1119.18,-82.4654 1047.64,-71.7937"/>
<polygon fill="midnightblue" stroke="midnightblue" points="1047.84,-68.2856 1037.43,-70.2718 1046.81,-75.209 1047.84,-68.2856"/>
</g>
<!-- Node33&#45;&gt;Node9 -->
<g id="edge62" class="edge"><title>Node33&#45;&gt;Node9</title>
<path fill="none" stroke="midnightblue" d="M1365.41,-112.379C1344.29,-97.8337 1298.78,-68.76 1255.5,-56 1162.6,-28.6073 867.933,-16.0329 760.331,-12.2706"/>
<polygon fill="midnightblue" stroke="midnightblue" points="760.332,-8.76872 750.218,-11.9239 760.092,-15.7646 760.332,-8.76872"/>
</g>
<!-- Node34&#45;&gt;Node1 -->
<g id="edge70" class="edge"><title>Node34&#45;&gt;Node1</title>
<path fill="none" stroke="midnightblue" d="M127.088,-280.411C120.224,-271.844 110.494,-257.979 106.5,-244 96.3175,-208.361 108.809,-165.159 117.819,-141.215"/>
<polygon fill="midnightblue" stroke="midnightblue" points="121.174,-142.25 121.62,-131.665 114.67,-139.662 121.174,-142.25"/>
</g>
<!-- Node35 -->
<g id="node36" class="node"><title>Node35</title>
<polygon fill="white" stroke="#bfbfbf" points="115.5,-224.5 115.5,-243.5 167.5,-243.5 167.5,-224.5 115.5,-224.5"/>
<text text-anchor="middle" x="141.5" y="-231.5" font-family="Helvetica,sans-Serif" font-size="10.00">stdarg.h</text>
</g>
<!-- Node34&#45;&gt;Node35 -->
<g id="edge71" class="edge"><title>Node34&#45;&gt;Node35</title>
<path fill="none" stroke="midnightblue" d="M135.656,-280.083C136.584,-272.927 137.918,-262.635 139.077,-253.691"/>
<polygon fill="midnightblue" stroke="midnightblue" points="142.551,-254.118 140.366,-243.751 135.609,-253.218 142.551,-254.118"/>
</g>
</g>
</svg>
