<?xml version="1.0" encoding="UTF-8" standalone="no"?>
<!DOCTYPE svg PUBLIC "-//W3C//DTD SVG 1.1//EN"
 "http://www.w3.org/Graphics/SVG/1.1/DTD/svg11.dtd">
<!-- Generated by graphviz version 2.38.0 (20140413.2041)
 -->
<!-- Title: src/docparser.h Pages: 1 -->
<svg width="280pt" height="140pt"
 viewBox="0.00 0.00 279.50 140.00" xmlns="http://www.w3.org/2000/svg" xmlns:xlink="http://www.w3.org/1999/xlink">
<g id="graph0" class="graph" transform="scale(1 1) rotate(0) translate(4 136)">
<title>src/docparser.h</title>
<polygon fill="white" stroke="none" points="-4,4 -4,-136 275.5,-136 275.5,4 -4,4"/>
<!-- Node0 -->
<g id="node1" class="node"><title>Node0</title>
<polygon fill="#bfbfbf" stroke="black" points="93,-112.5 93,-131.5 177,-131.5 177,-112.5 93,-112.5"/>
<text text-anchor="middle" x="135" y="-119.5" font-family="Helvetica,sans-Serif" font-size="10.00">src/docparser.h</text>
</g>
<!-- Node1 -->
<g id="node2" class="node"><title>Node1</title>
<polygon fill="white" stroke="#bfbfbf" points="0,-56.5 0,-75.5 46,-75.5 46,-56.5 0,-56.5"/>
<text text-anchor="middle" x="23" y="-63.5" font-family="Helvetica,sans-Serif" font-size="10.00">stdio.h</text>
</g>
<!-- Node0&#45;&gt;Node1 -->
<g id="edge1" class="edge"><title>Node0&#45;&gt;Node1</title>
<path fill="none" stroke="midnightblue" d="M117.005,-112.324C98.9623,-103.625 70.9531,-90.1202 50.1973,-80.113"/>
<polygon fill="midnightblue" stroke="midnightblue" points="51.4778,-76.8449 40.9501,-75.6545 48.4377,-83.1502 51.4778,-76.8449"/>
</g>
<!-- Node2 -->
<g id="node3" class="node"><title>Node2</title>
<polygon fill="white" stroke="#bfbfbf" points="82.5,-0.5 82.5,-19.5 125.5,-19.5 125.5,-0.5 82.5,-0.5"/>
<text text-anchor="middle" x="104" y="-7.5" font-family="Helvetica,sans-Serif" font-size="10.00">qlist.h</text>
</g>
<!-- Node0&#45;&gt;Node2 -->
<g id="edge2" class="edge"><title>Node0&#45;&gt;Node2</title>
<path fill="none" stroke="midnightblue" d="M122.786,-112.236C112.646,-104.143 98.9566,-91.1121 93,-76 87.0389,-60.8767 91.0783,-42.5266 95.8564,-29.1854"/>
<polygon fill="midnightblue" stroke="midnightblue" points="99.1803,-30.3007 99.6697,-19.7172 92.6872,-27.6856 99.1803,-30.3007"/>
</g>
<!-- Node3 -->
<g id="node4" class="node"><title>Node3</title>
<polygon fill="white" stroke="#bfbfbf" points="212.5,-0.5 212.5,-19.5 271.5,-19.5 271.5,-0.5 212.5,-0.5"/>
<text text-anchor="middle" x="242" y="-7.5" font-family="Helvetica,sans-Serif" font-size="10.00">qcstring.h</text>
</g>
<!-- Node0&#45;&gt;Node3 -->
<g id="edge3" class="edge"><title>Node0&#45;&gt;Node3</title>
<path fill="none" stroke="midnightblue" d="M177.028,-118.269C206.113,-113.929 242.899,-103.032 262,-76 272.075,-61.741 263.838,-42.2669 255.082,-28.3602"/>
<polygon fill="midnightblue" stroke="midnightblue" points="257.71,-26.0057 249.156,-19.7546 251.945,-29.9758 257.71,-26.0057"/>
</g>
<!-- Node4 -->
<g id="node5" class="node"><title>Node4</title>
<g id="a_node5"><a xlink:href="../../d2/d3c/docvisitor_8h.html" target="_top" xlink:title="docvisitor.h">
<polygon fill="white" stroke="black" points="185.5,-56.5 185.5,-75.5 252.5,-75.5 252.5,-56.5 185.5,-56.5"/>
<text text-anchor="middle" x="219" y="-63.5" font-family="Helvetica,sans-Serif" font-size="10.00">docvisitor.h</text>
</a>
</g>
</g>
<!-- Node0&#45;&gt;Node4 -->
<g id="edge4" class="edge"><title>Node0&#45;&gt;Node4</title>
<path fill="none" stroke="midnightblue" d="M148.496,-112.324C161.6,-103.9 181.712,-90.9709 197.107,-81.0741"/>
<polygon fill="midnightblue" stroke="midnightblue" points="199.018,-84.0063 205.537,-75.6545 195.233,-78.118 199.018,-84.0063"/>
</g>
<!-- Node5 -->
<g id="node6" class="node"><title>Node5</title>
<g id="a_node6"><a xlink:href="../../d0/d73/htmlattrib_8h.html" target="_top" xlink:title="htmlattrib.h">
<polygon fill="white" stroke="black" points="102.5,-56.5 102.5,-75.5 167.5,-75.5 167.5,-56.5 102.5,-56.5"/>
<text text-anchor="middle" x="135" y="-63.5" font-family="Helvetica,sans-Serif" font-size="10.00">htmlattrib.h</text>
</a>
</g>
</g>
<!-- Node0&#45;&gt;Node5 -->
<g id="edge5" class="edge"><title>Node0&#45;&gt;Node5</title>
<path fill="none" stroke="midnightblue" d="M135,-112.083C135,-105.006 135,-94.8611 135,-85.9865"/>
<polygon fill="midnightblue" stroke="midnightblue" points="138.5,-85.751 135,-75.7511 131.5,-85.7511 138.5,-85.751"/>
</g>
<!-- Node5&#45;&gt;Node2 -->
<g id="edge7" class="edge"><title>Node5&#45;&gt;Node2</title>
<path fill="none" stroke="midnightblue" d="M129.881,-56.083C125.592,-48.6127 119.342,-37.7244 114.058,-28.5199"/>
<polygon fill="midnightblue" stroke="midnightblue" points="117.038,-26.6811 109.024,-19.7511 110.967,-30.1662 117.038,-26.6811"/>
</g>
<!-- Node5&#45;&gt;Node3 -->
<g id="edge6" class="edge"><title>Node5&#45;&gt;Node3</title>
<path fill="none" stroke="midnightblue" d="M152.191,-56.324C169.351,-47.6641 195.946,-34.2424 215.747,-24.249"/>
<polygon fill="midnightblue" stroke="midnightblue" points="217.501,-27.2847 224.851,-19.6545 214.347,-21.0354 217.501,-27.2847"/>
</g>
</g>
</svg>
