<?xml version="1.0" encoding="UTF-8" standalone="no"?>
<!DOCTYPE svg PUBLIC "-//W3C//DTD SVG 1.1//EN"
 "http://www.w3.org/Graphics/SVG/1.1/DTD/svg11.dtd">
<!-- Generated by graphviz version 2.38.0 (20140413.2041)
 -->
<!-- Title: src/cite.h Pages: 1 -->
<svg width="537pt" height="84pt"
 viewBox="0.00 0.00 536.50 84.00" xmlns="http://www.w3.org/2000/svg" xmlns:xlink="http://www.w3.org/1999/xlink">
<g id="graph0" class="graph" transform="scale(1 1) rotate(0) translate(4 80)">
<title>src/cite.h</title>
<polygon fill="white" stroke="none" points="-4,4 -4,-80 532.5,-80 532.5,4 -4,4"/>
<!-- Node2 -->
<g id="node1" class="node"><title>Node2</title>
<polygon fill="#bfbfbf" stroke="black" points="215.5,-56.5 215.5,-75.5 272.5,-75.5 272.5,-56.5 215.5,-56.5"/>
<text text-anchor="middle" x="244" y="-63.5" font-family="Helvetica,sans-Serif" font-size="10.00">src/cite.h</text>
</g>
<!-- Node3 -->
<g id="node2" class="node"><title>Node3</title>
<g id="a_node2"><a xlink:href="../../d5/d0b/cite_8cpp.html" target="_top" xlink:title="src/cite.cpp">
<polygon fill="white" stroke="black" points="0,-0.5 0,-19.5 68,-19.5 68,-0.5 0,-0.5"/>
<text text-anchor="middle" x="34" y="-7.5" font-family="Helvetica,sans-Serif" font-size="10.00">src/cite.cpp</text>
</a>
</g>
</g>
<!-- Node2&#45;&gt;Node3 -->
<g id="edge1" class="edge"><title>Node2&#45;&gt;Node3</title>
<path fill="none" stroke="midnightblue" d="M205.412,-55.0774C165.801,-44.8916 104.799,-29.2054 67.2534,-19.5509"/>
<polygon fill="midnightblue" stroke="midnightblue" points="204.684,-58.504 215.241,-57.6048 206.427,-51.7245 204.684,-58.504"/>
</g>
<!-- Node4 -->
<g id="node3" class="node"><title>Node4</title>
<g id="a_node3"><a xlink:href="../../da/d17/docparser_8cpp.html" target="_top" xlink:title="src/docparser.cpp">
<polygon fill="white" stroke="black" points="86.5,-0.5 86.5,-19.5 181.5,-19.5 181.5,-0.5 86.5,-0.5"/>
<text text-anchor="middle" x="134" y="-7.5" font-family="Helvetica,sans-Serif" font-size="10.00">src/docparser.cpp</text>
</a>
</g>
</g>
<!-- Node2&#45;&gt;Node4 -->
<g id="edge2" class="edge"><title>Node2&#45;&gt;Node4</title>
<path fill="none" stroke="midnightblue" d="M217.238,-51.8622C196.841,-41.8492 169.334,-28.3458 151.63,-19.6545"/>
<polygon fill="midnightblue" stroke="midnightblue" points="215.808,-55.059 226.327,-56.324 218.892,-48.7753 215.808,-55.059"/>
</g>
<!-- Node5 -->
<g id="node4" class="node"><title>Node5</title>
<g id="a_node4"><a xlink:href="../../dc/d98/doxygen_8cpp.html" target="_top" xlink:title="src/doxygen.cpp">
<polygon fill="white" stroke="black" points="199.5,-0.5 199.5,-19.5 288.5,-19.5 288.5,-0.5 199.5,-0.5"/>
<text text-anchor="middle" x="244" y="-7.5" font-family="Helvetica,sans-Serif" font-size="10.00">src/doxygen.cpp</text>
</a>
</g>
</g>
<!-- Node2&#45;&gt;Node5 -->
<g id="edge3" class="edge"><title>Node2&#45;&gt;Node5</title>
<path fill="none" stroke="midnightblue" d="M244,-45.8045C244,-36.9102 244,-26.7798 244,-19.7511"/>
<polygon fill="midnightblue" stroke="midnightblue" points="240.5,-46.083 244,-56.083 247.5,-46.083 240.5,-46.083"/>
</g>
<!-- Node6 -->
<g id="node5" class="node"><title>Node6</title>
<g id="a_node5"><a xlink:href="../../d1/d4e/latexdocvisitor_8cpp.html" target="_top" xlink:title="src/latexdocvisitor.cpp">
<polygon fill="white" stroke="black" points="306.5,-0.5 306.5,-19.5 421.5,-19.5 421.5,-0.5 306.5,-0.5"/>
<text text-anchor="middle" x="364" y="-7.5" font-family="Helvetica,sans-Serif" font-size="10.00">src/latexdocvisitor.cpp</text>
</a>
</g>
</g>
<!-- Node2&#45;&gt;Node6 -->
<g id="edge4" class="edge"><title>Node2&#45;&gt;Node6</title>
<path fill="none" stroke="midnightblue" d="M272.373,-52.2321C294.82,-42.1312 325.535,-28.3091 345.075,-19.5164"/>
<polygon fill="midnightblue" stroke="midnightblue" points="270.697,-49.1481 263.014,-56.4435 273.57,-55.5316 270.697,-49.1481"/>
</g>
<!-- Node7 -->
<g id="node6" class="node"><title>Node7</title>
<g id="a_node6"><a xlink:href="../../d4/d42/latexgen_8cpp.html" target="_top" xlink:title="src/latexgen.cpp">
<polygon fill="white" stroke="black" points="439.5,-0.5 439.5,-19.5 528.5,-19.5 528.5,-0.5 439.5,-0.5"/>
<text text-anchor="middle" x="484" y="-7.5" font-family="Helvetica,sans-Serif" font-size="10.00">src/latexgen.cpp</text>
</a>
</g>
</g>
<!-- Node2&#45;&gt;Node7 -->
<g id="edge5" class="edge"><title>Node2&#45;&gt;Node7</title>
<path fill="none" stroke="midnightblue" d="M282.902,-56.2472C327.825,-46.1395 401.248,-29.6192 445.85,-19.5837"/>
<polygon fill="midnightblue" stroke="midnightblue" points="281.937,-52.8765 272.95,-58.4863 283.474,-59.7058 281.937,-52.8765"/>
</g>
</g>
</svg>
