<?xml version="1.0" encoding="UTF-8" standalone="no"?>
<!DOCTYPE svg PUBLIC "-//W3C//DTD SVG 1.1//EN"
 "http://www.w3.org/Graphics/SVG/1.1/DTD/svg11.dtd">
<!-- Generated by graphviz version 2.38.0 (20140413.2041)
 -->
<!-- Title: DocInternal Pages: 1 -->
<svg width="226pt" height="152pt"
 viewBox="0.00 0.00 226.00 152.00" xmlns="http://www.w3.org/2000/svg" xmlns:xlink="http://www.w3.org/1999/xlink">
<g id="graph0" class="graph" transform="scale(1 1) rotate(0) translate(4 148)">
<title>DocInternal</title>
<polygon fill="white" stroke="none" points="-4,4 -4,-148 222,-148 222,4 -4,4"/>
<!-- Node0 -->
<g id="node1" class="node"><title>Node0</title>
<polygon fill="#bfbfbf" stroke="black" points="125.5,-0.5 125.5,-19.5 192.5,-19.5 192.5,-0.5 125.5,-0.5"/>
<text text-anchor="middle" x="159" y="-7.5" font-family="Helvetica,sans-Serif" font-size="10.00">DocInternal</text>
</g>
<!-- Node1 -->
<g id="node2" class="node"><title>Node1</title>
<g id="a_node2"><a xlink:href="../../d7/da3/class_comp_accept.html" target="_top" xlink:title="CompAccept\&lt; DocInternal \&gt;">
<polygon fill="white" stroke="black" points="0,-57.5 0,-76.5 142,-76.5 142,-57.5 0,-57.5"/>
<text text-anchor="middle" x="71" y="-64.5" font-family="Helvetica,sans-Serif" font-size="10.00">CompAccept&lt; DocInternal &gt;</text>
</a>
</g>
</g>
<!-- Node1&#45;&gt;Node0 -->
<g id="edge1" class="edge"><title>Node1&#45;&gt;Node0</title>
<path fill="none" stroke="midnightblue" d="M93.681,-51.8244C110.032,-41.605 131.563,-28.1483 145.347,-19.5334"/>
<polygon fill="midnightblue" stroke="midnightblue" points="91.375,-49.1382 84.75,-57.4062 95.085,-55.0742 91.375,-49.1382"/>
</g>
<!-- Node2 -->
<g id="node3" class="node"><title>Node2</title>
<g id="a_node3"><a xlink:href="../../d7/da3/class_comp_accept.html" target="_top" xlink:title="Default accept implementation for compound nodes in the abstract syntax tree. ">
<polygon fill="white" stroke="black" points="22,-124.5 22,-143.5 120,-143.5 120,-124.5 22,-124.5"/>
<text text-anchor="middle" x="71" y="-131.5" font-family="Helvetica,sans-Serif" font-size="10.00">CompAccept&lt; T &gt;</text>
</a>
</g>
</g>
<!-- Node2&#45;&gt;Node1 -->
<g id="edge2" class="edge"><title>Node2&#45;&gt;Node1</title>
<path fill="none" stroke="orange" stroke-dasharray="5,2" d="M71,-114.037C71,-101.67 71,-86.1198 71,-76.6273"/>
<polygon fill="orange" stroke="orange" points="67.5001,-114.234 71,-124.234 74.5001,-114.234 67.5001,-114.234"/>
<text text-anchor="middle" x="107" y="-98" font-family="Helvetica,sans-Serif" font-size="10.00"> &lt; DocInternal &gt;</text>
</g>
<!-- Node3 -->
<g id="node4" class="node"><title>Node3</title>
<g id="a_node4"><a xlink:href="../../d9/d0e/class_doc_node.html" target="_top" xlink:title="Abstract node interface with type information. ">
<polygon fill="white" stroke="black" points="160,-57.5 160,-76.5 218,-76.5 218,-57.5 160,-57.5"/>
<text text-anchor="middle" x="189" y="-64.5" font-family="Helvetica,sans-Serif" font-size="10.00">DocNode</text>
</a>
</g>
</g>
<!-- Node3&#45;&gt;Node0 -->
<g id="edge3" class="edge"><title>Node3&#45;&gt;Node0</title>
<path fill="none" stroke="midnightblue" d="M179.364,-48.334C174.147,-38.77 167.934,-27.3784 163.754,-19.7149"/>
<polygon fill="midnightblue" stroke="midnightblue" points="176.451,-50.3033 184.312,-57.4062 182.597,-46.9513 176.451,-50.3033"/>
</g>
</g>
</svg>
