<?xml version="1.0" encoding="UTF-8" standalone="no"?>
<!DOCTYPE svg PUBLIC "-//W3C//DTD SVG 1.1//EN"
 "http://www.w3.org/Graphics/SVG/1.1/DTD/svg11.dtd">
<!-- Generated by graphviz version 2.38.0 (20140413.2041)
 -->
<!-- Title: DocLink Pages: 1 -->
<svg width="274pt" height="152pt"
 viewBox="0.00 0.00 274.00 152.00" xmlns="http://www.w3.org/2000/svg" xmlns:xlink="http://www.w3.org/1999/xlink">
<g id="graph0" class="graph" transform="scale(1 1) rotate(0) translate(4 148)">
<title>DocLink</title>
<polygon fill="white" stroke="none" points="-4,4 -4,-148 270,-148 270,4 -4,4"/>
<!-- Node4 -->
<g id="node1" class="node"><title>Node4</title>
<polygon fill="#bfbfbf" stroke="black" points="92.5,-0.5 92.5,-19.5 145.5,-19.5 145.5,-0.5 92.5,-0.5"/>
<text text-anchor="middle" x="119" y="-7.5" font-family="Helvetica,sans-Serif" font-size="10.00">DocLink</text>
</g>
<!-- Node5 -->
<g id="node2" class="node"><title>Node5</title>
<g id="a_node2"><a xlink:href="../../d7/da3/class_comp_accept.html" target="_top" xlink:title="CompAccept\&lt; DocLink \&gt;">
<polygon fill="white" stroke="black" points="0,-57.5 0,-76.5 128,-76.5 128,-57.5 0,-57.5"/>
<text text-anchor="middle" x="64" y="-64.5" font-family="Helvetica,sans-Serif" font-size="10.00">CompAccept&lt; DocLink &gt;</text>
</a>
</g>
</g>
<!-- Node5&#45;&gt;Node4 -->
<g id="edge1" class="edge"><title>Node5&#45;&gt;Node4</title>
<path fill="none" stroke="midnightblue" d="M79.8771,-50.1229C89.7762,-40.2238 102.138,-27.8624 110.285,-19.7149"/>
<polygon fill="midnightblue" stroke="midnightblue" points="77.19,-47.8603 72.5938,-57.4062 82.1397,-52.81 77.19,-47.8603"/>
</g>
<!-- Node6 -->
<g id="node3" class="node"><title>Node6</title>
<g id="a_node3"><a xlink:href="../../d7/da3/class_comp_accept.html" target="_top" xlink:title="Default accept implementation for compound nodes in the abstract syntax tree. ">
<polygon fill="white" stroke="black" points="15,-124.5 15,-143.5 113,-143.5 113,-124.5 15,-124.5"/>
<text text-anchor="middle" x="64" y="-131.5" font-family="Helvetica,sans-Serif" font-size="10.00">CompAccept&lt; T &gt;</text>
</a>
</g>
</g>
<!-- Node6&#45;&gt;Node5 -->
<g id="edge2" class="edge"><title>Node6&#45;&gt;Node5</title>
<path fill="none" stroke="orange" stroke-dasharray="5,2" d="M64,-114.037C64,-101.67 64,-86.1198 64,-76.6273"/>
<polygon fill="orange" stroke="orange" points="60.5001,-114.234 64,-124.234 67.5001,-114.234 60.5001,-114.234"/>
<text text-anchor="middle" x="93" y="-98" font-family="Helvetica,sans-Serif" font-size="10.00"> &lt; DocLink &gt;</text>
</g>
<!-- Node7 -->
<g id="node4" class="node"><title>Node7</title>
<g id="a_node4"><a xlink:href="../../d9/d0e/class_doc_node.html" target="_top" xlink:title="Abstract node interface with type information. ">
<polygon fill="white" stroke="black" points="146,-57.5 146,-76.5 204,-76.5 204,-57.5 146,-57.5"/>
<text text-anchor="middle" x="175" y="-64.5" font-family="Helvetica,sans-Serif" font-size="10.00">DocNode</text>
</a>
</g>
</g>
<!-- Node7&#45;&gt;Node4 -->
<g id="edge3" class="edge"><title>Node7&#45;&gt;Node4</title>
<path fill="none" stroke="midnightblue" d="M158.834,-50.1229C148.755,-40.2238 136.169,-27.8624 127.873,-19.7149"/>
<polygon fill="midnightblue" stroke="midnightblue" points="156.663,-52.8962 166.25,-57.4062 161.568,-47.9021 156.663,-52.8962"/>
</g>
<!-- Node7&#45;&gt;Node7 -->
<g id="edge4" class="edge"><title>Node7&#45;&gt;Node7</title>
<path fill="none" stroke="#9a32cd" stroke-dasharray="5,2" d="M214.603,-71.4489C219.091,-70.6158 222,-69.1328 222,-67 222,-63.5 214.167,-61.75 204.375,-61.75"/>
<polygon fill="#9a32cd" stroke="#9a32cd" points="214.071,-67.9798 204.375,-72.25 214.618,-74.9584 214.071,-67.9798"/>
<text text-anchor="middle" x="244" y="-64.5" font-family="Helvetica,sans-Serif" font-size="10.00"> m_parent</text>
</g>
</g>
</svg>
