<?xml version="1.0" encoding="UTF-8" standalone="no"?>
<!DOCTYPE svg PUBLIC "-//W3C//DTD SVG 1.1//EN"
 "http://www.w3.org/Graphics/SVG/1.1/DTD/svg11.dtd">
<!-- Generated by graphviz version 2.38.0 (20140413.2041)
 -->
<!-- Title: src/clangparser.cpp Pages: 1 -->
<svg width="254pt" height="140pt"
 viewBox="0.00 0.00 253.50 140.00" xmlns="http://www.w3.org/2000/svg" xmlns:xlink="http://www.w3.org/1999/xlink">
<g id="graph0" class="graph" transform="scale(1 1) rotate(0) translate(4 136)">
<title>src/clangparser.cpp</title>
<polygon fill="white" stroke="none" points="-4,4 -4,-136 249.5,-136 249.5,4 -4,4"/>
<!-- Node0 -->
<g id="node1" class="node"><title>Node0</title>
<polygon fill="#bfbfbf" stroke="black" points="100.5,-112.5 100.5,-131.5 202.5,-131.5 202.5,-112.5 100.5,-112.5"/>
<text text-anchor="middle" x="151.5" y="-119.5" font-family="Helvetica,sans-Serif" font-size="10.00">src/clangparser.cpp</text>
</g>
<!-- Node1 -->
<g id="node2" class="node"><title>Node1</title>
<g id="a_node2"><a xlink:href="../../d5/df7/clangparser_8h.html" target="_top" xlink:title="clangparser.h">
<polygon fill="white" stroke="black" points="29,-56.5 29,-75.5 104,-75.5 104,-56.5 29,-56.5"/>
<text text-anchor="middle" x="66.5" y="-63.5" font-family="Helvetica,sans-Serif" font-size="10.00">clangparser.h</text>
</a>
</g>
</g>
<!-- Node0&#45;&gt;Node1 -->
<g id="edge1" class="edge"><title>Node0&#45;&gt;Node1</title>
<path fill="none" stroke="midnightblue" d="M137.843,-112.324C124.584,-103.9 104.232,-90.9709 88.6538,-81.0741"/>
<polygon fill="midnightblue" stroke="midnightblue" points="90.4404,-78.0626 80.1228,-75.6545 86.6867,-83.9711 90.4404,-78.0626"/>
</g>
<!-- Node4 -->
<g id="node5" class="node"><title>Node4</title>
<polygon fill="white" stroke="#bfbfbf" points="122,-56.5 122,-75.5 181,-75.5 181,-56.5 122,-56.5"/>
<text text-anchor="middle" x="151.5" y="-63.5" font-family="Helvetica,sans-Serif" font-size="10.00">settings.h</text>
</g>
<!-- Node0&#45;&gt;Node4 -->
<g id="edge4" class="edge"><title>Node0&#45;&gt;Node4</title>
<path fill="none" stroke="midnightblue" d="M151.5,-112.083C151.5,-105.006 151.5,-94.8611 151.5,-85.9865"/>
<polygon fill="midnightblue" stroke="midnightblue" points="155,-85.751 151.5,-75.7511 148,-85.7511 155,-85.751"/>
</g>
<!-- Node5 -->
<g id="node6" class="node"><title>Node5</title>
<polygon fill="white" stroke="#bfbfbf" points="199.5,-56.5 199.5,-75.5 245.5,-75.5 245.5,-56.5 199.5,-56.5"/>
<text text-anchor="middle" x="222.5" y="-63.5" font-family="Helvetica,sans-Serif" font-size="10.00">stdio.h</text>
</g>
<!-- Node0&#45;&gt;Node5 -->
<g id="edge5" class="edge"><title>Node0&#45;&gt;Node5</title>
<path fill="none" stroke="midnightblue" d="M162.907,-112.324C173.609,-104.185 189.841,-91.8395 202.663,-82.0874"/>
<polygon fill="midnightblue" stroke="midnightblue" points="205.044,-84.6734 210.885,-75.8339 200.807,-79.1018 205.044,-84.6734"/>
</g>
<!-- Node2 -->
<g id="node3" class="node"><title>Node2</title>
<polygon fill="white" stroke="#bfbfbf" points="0,-0.5 0,-19.5 59,-19.5 59,-0.5 0,-0.5"/>
<text text-anchor="middle" x="29.5" y="-7.5" font-family="Helvetica,sans-Serif" font-size="10.00">qcstring.h</text>
</g>
<!-- Node1&#45;&gt;Node2 -->
<g id="edge2" class="edge"><title>Node1&#45;&gt;Node2</title>
<path fill="none" stroke="midnightblue" d="M60.3902,-56.083C55.2178,-48.5341 47.6539,-37.4948 41.3056,-28.2298"/>
<polygon fill="midnightblue" stroke="midnightblue" points="44.0357,-26.0221 35.4961,-19.7511 38.2612,-29.9787 44.0357,-26.0221"/>
</g>
<!-- Node3 -->
<g id="node4" class="node"><title>Node3</title>
<polygon fill="white" stroke="#bfbfbf" points="77.5,-0.5 77.5,-19.5 131.5,-19.5 131.5,-0.5 77.5,-0.5"/>
<text text-anchor="middle" x="104.5" y="-7.5" font-family="Helvetica,sans-Serif" font-size="10.00">qstrlist.h</text>
</g>
<!-- Node1&#45;&gt;Node3 -->
<g id="edge3" class="edge"><title>Node1&#45;&gt;Node3</title>
<path fill="none" stroke="midnightblue" d="M72.7749,-56.083C78.1425,-48.4554 86.0176,-37.2645 92.5787,-27.9408"/>
<polygon fill="midnightblue" stroke="midnightblue" points="95.4492,-29.9434 98.3418,-19.7511 89.7245,-25.9149 95.4492,-29.9434"/>
</g>
</g>
</svg>
