<?xml version="1.0" encoding="UTF-8" standalone="no"?>
<!DOCTYPE svg PUBLIC "-//W3C//DTD SVG 1.1//EN"
 "http://www.w3.org/Graphics/SVG/1.1/DTD/svg11.dtd">
<!-- Generated by graphviz version 2.38.0 (20140413.2041)
 -->
<!-- Title: src/formula.cpp Pages: 1 -->
<svg width="1651pt" height="364pt"
 viewBox="0.00 0.00 1651.00 364.00" xmlns="http://www.w3.org/2000/svg" xmlns:xlink="http://www.w3.org/1999/xlink">
<g id="graph0" class="graph" transform="scale(1 1) rotate(0) translate(4 360)">
<title>src/formula.cpp</title>
<polygon fill="white" stroke="none" points="-4,4 -4,-360 1647,-360 1647,4 -4,4"/>
<!-- Node0 -->
<g id="node1" class="node"><title>Node0</title>
<polygon fill="#bfbfbf" stroke="black" points="395,-336.5 395,-355.5 479,-355.5 479,-336.5 395,-336.5"/>
<text text-anchor="middle" x="437" y="-343.5" font-family="Helvetica,sans-Serif" font-size="10.00">src/formula.cpp</text>
</g>
<!-- Node1 -->
<g id="node2" class="node"><title>Node1</title>
<polygon fill="white" stroke="#bfbfbf" points="0,-280.5 0,-299.5 48,-299.5 48,-280.5 0,-280.5"/>
<text text-anchor="middle" x="24" y="-287.5" font-family="Helvetica,sans-Serif" font-size="10.00">stdlib.h</text>
</g>
<!-- Node0&#45;&gt;Node1 -->
<g id="edge1" class="edge"><title>Node0&#45;&gt;Node1</title>
<path fill="none" stroke="midnightblue" d="M394.793,-342.059C326.113,-336.826 185.815,-324.277 58.0149,-299.93"/>
<polygon fill="midnightblue" stroke="midnightblue" points="58.5361,-296.466 48.0534,-298.003 57.2066,-303.339 58.5361,-296.466"/>
</g>
<!-- Node2 -->
<g id="node3" class="node"><title>Node2</title>
<polygon fill="white" stroke="#bfbfbf" points="66.5,-280.5 66.5,-299.5 109.5,-299.5 109.5,-280.5 66.5,-280.5"/>
<text text-anchor="middle" x="88" y="-287.5" font-family="Helvetica,sans-Serif" font-size="10.00">qfile.h</text>
</g>
<!-- Node0&#45;&gt;Node2 -->
<g id="edge2" class="edge"><title>Node0&#45;&gt;Node2</title>
<path fill="none" stroke="midnightblue" d="M394.838,-341.105C335.362,-335.164 223.348,-322.332 119.545,-300.068"/>
<polygon fill="midnightblue" stroke="midnightblue" points="120.044,-296.594 109.528,-297.883 118.553,-303.433 120.044,-296.594"/>
</g>
<!-- Node3 -->
<g id="node4" class="node"><title>Node3</title>
<polygon fill="white" stroke="#bfbfbf" points="127.5,-280.5 127.5,-299.5 186.5,-299.5 186.5,-280.5 127.5,-280.5"/>
<text text-anchor="middle" x="157" y="-287.5" font-family="Helvetica,sans-Serif" font-size="10.00">qfileinfo.h</text>
</g>
<!-- Node0&#45;&gt;Node3 -->
<g id="edge3" class="edge"><title>Node0&#45;&gt;Node3</title>
<path fill="none" stroke="midnightblue" d="M394.908,-337.814C348.612,-329.768 271.785,-315.999 196.91,-300.334"/>
<polygon fill="midnightblue" stroke="midnightblue" points="197.347,-296.849 186.84,-298.212 195.904,-303.698 197.347,-296.849"/>
</g>
<!-- Node4 -->
<g id="node5" class="node"><title>Node4</title>
<polygon fill="white" stroke="#bfbfbf" points="204.5,-280.5 204.5,-299.5 281.5,-299.5 281.5,-280.5 204.5,-280.5"/>
<text text-anchor="middle" x="243" y="-287.5" font-family="Helvetica,sans-Serif" font-size="10.00">qtextstream.h</text>
</g>
<!-- Node0&#45;&gt;Node4 -->
<g id="edge4" class="edge"><title>Node0&#45;&gt;Node4</title>
<path fill="none" stroke="midnightblue" d="M406.26,-336.444C373.056,-327.201 320.009,-312.436 283.443,-302.257"/>
<polygon fill="midnightblue" stroke="midnightblue" points="284.168,-298.826 273.596,-299.516 282.291,-305.57 284.168,-298.826"/>
</g>
<!-- Node5 -->
<g id="node6" class="node"><title>Node5</title>
<polygon fill="white" stroke="#bfbfbf" points="299.5,-280.5 299.5,-299.5 340.5,-299.5 340.5,-280.5 299.5,-280.5"/>
<text text-anchor="middle" x="320" y="-287.5" font-family="Helvetica,sans-Serif" font-size="10.00">qdir.h</text>
</g>
<!-- Node0&#45;&gt;Node5 -->
<g id="edge5" class="edge"><title>Node0&#45;&gt;Node5</title>
<path fill="none" stroke="midnightblue" d="M418.461,-336.444C399.377,-327.636 369.425,-313.812 347.564,-303.722"/>
<polygon fill="midnightblue" stroke="midnightblue" points="348.999,-300.529 338.452,-299.516 346.065,-306.885 348.999,-300.529"/>
</g>
<!-- Node6 -->
<g id="node7" class="node"><title>Node6</title>
<g id="a_node7"><a xlink:href="../../d3/d9a/formula_8h.html" target="_top" xlink:title="formula.h">
<polygon fill="white" stroke="black" points="1335.5,-112.5 1335.5,-131.5 1392.5,-131.5 1392.5,-112.5 1335.5,-112.5"/>
<text text-anchor="middle" x="1364" y="-119.5" font-family="Helvetica,sans-Serif" font-size="10.00">formula.h</text>
</a>
</g>
</g>
<!-- Node0&#45;&gt;Node6 -->
<g id="edge6" class="edge"><title>Node0&#45;&gt;Node6</title>
<path fill="none" stroke="midnightblue" d="M479.02,-344.34C665.696,-340.961 1413.54,-322.57 1478,-244 1512.02,-202.527 1436.55,-157.494 1392.64,-135.932"/>
<polygon fill="midnightblue" stroke="midnightblue" points="1394.08,-132.736 1383.54,-131.575 1391.05,-139.05 1394.08,-132.736"/>
</g>
<!-- Node9 -->
<g id="node10" class="node"><title>Node9</title>
<g id="a_node10"><a xlink:href="../../d5/db2/image_8h.html" target="_top" xlink:title="image.h">
<polygon fill="white" stroke="black" points="595.5,-280.5 595.5,-299.5 646.5,-299.5 646.5,-280.5 595.5,-280.5"/>
<text text-anchor="middle" x="621" y="-287.5" font-family="Helvetica,sans-Serif" font-size="10.00">image.h</text>
</a>
</g>
</g>
<!-- Node0&#45;&gt;Node9 -->
<g id="edge9" class="edge"><title>Node0&#45;&gt;Node9</title>
<path fill="none" stroke="midnightblue" d="M466.155,-336.444C498.528,-326.943 550.787,-311.606 585.512,-301.415"/>
<polygon fill="midnightblue" stroke="midnightblue" points="586.637,-304.732 595.247,-298.558 584.666,-298.016 586.637,-304.732"/>
</g>
<!-- Node11 -->
<g id="node12" class="node"><title>Node11</title>
<g id="a_node12"><a xlink:href="../../d8/d3c/util_8h.html" target="_top" xlink:title="A bunch of utility functions. ">
<polygon fill="white" stroke="black" points="343,-224.5 343,-243.5 381,-243.5 381,-224.5 343,-224.5"/>
<text text-anchor="middle" x="362" y="-231.5" font-family="Helvetica,sans-Serif" font-size="10.00">util.h</text>
</a>
</g>
</g>
<!-- Node0&#45;&gt;Node11 -->
<g id="edge11" class="edge"><title>Node0&#45;&gt;Node11</title>
<path fill="none" stroke="midnightblue" d="M431.115,-336.368C418.738,-318.215 389.819,-275.802 373.584,-251.99"/>
<polygon fill="midnightblue" stroke="midnightblue" points="376.383,-249.882 367.858,-243.591 370.599,-253.825 376.383,-249.882"/>
</g>
<!-- Node21 -->
<g id="node22" class="node"><title>Node21</title>
<g id="a_node22"><a xlink:href="../../d2/d0d/message_8h.html" target="_top" xlink:title="message.h">
<polygon fill="white" stroke="black" points="435.5,-280.5 435.5,-299.5 500.5,-299.5 500.5,-280.5 435.5,-280.5"/>
<text text-anchor="middle" x="468" y="-287.5" font-family="Helvetica,sans-Serif" font-size="10.00">message.h</text>
</a>
</g>
</g>
<!-- Node0&#45;&gt;Node21 -->
<g id="edge28" class="edge"><title>Node0&#45;&gt;Node21</title>
<path fill="none" stroke="midnightblue" d="M442.119,-336.083C446.408,-328.613 452.658,-317.724 457.942,-308.52"/>
<polygon fill="midnightblue" stroke="midnightblue" points="461.033,-310.166 462.976,-299.751 454.962,-306.681 461.033,-310.166"/>
</g>
<!-- Node23 -->
<g id="node24" class="node"><title>Node23</title>
<g id="a_node24"><a xlink:href="../../db/d16/config_8h.html" target="_top" xlink:title="config.h">
<polygon fill="white" stroke="black" points="1551.5,-280.5 1551.5,-299.5 1602.5,-299.5 1602.5,-280.5 1551.5,-280.5"/>
<text text-anchor="middle" x="1577" y="-287.5" font-family="Helvetica,sans-Serif" font-size="10.00">config.h</text>
</a>
</g>
</g>
<!-- Node0&#45;&gt;Node23 -->
<g id="edge31" class="edge"><title>Node0&#45;&gt;Node23</title>
<path fill="none" stroke="midnightblue" d="M479.058,-344.653C623.191,-343.16 1110.41,-335.626 1511,-300 1520.81,-299.127 1531.4,-297.839 1541.17,-296.508"/>
<polygon fill="midnightblue" stroke="midnightblue" points="1541.95,-299.932 1551.36,-295.065 1540.97,-293.001 1541.95,-299.932"/>
</g>
<!-- Node25 -->
<g id="node26" class="node"><title>Node25</title>
<g id="a_node26"><a xlink:href="../../d2/de2/portable_8h.html" target="_top" xlink:title="Portable versions of functions that are platform dependent. ">
<polygon fill="white" stroke="black" points="518.5,-280.5 518.5,-299.5 577.5,-299.5 577.5,-280.5 518.5,-280.5"/>
<text text-anchor="middle" x="548" y="-287.5" font-family="Helvetica,sans-Serif" font-size="10.00">portable.h</text>
</a>
</g>
</g>
<!-- Node0&#45;&gt;Node25 -->
<g id="edge33" class="edge"><title>Node0&#45;&gt;Node25</title>
<path fill="none" stroke="midnightblue" d="M454.834,-336.324C472.716,-327.625 500.475,-314.12 521.046,-304.113"/>
<polygon fill="midnightblue" stroke="midnightblue" points="522.749,-307.177 530.21,-299.655 519.687,-300.882 522.749,-307.177"/>
</g>
<!-- Node27 -->
<g id="node28" class="node"><title>Node27</title>
<g id="a_node28"><a xlink:href="../../d1/db5/index_8h.html" target="_top" xlink:title="index.h">
<polygon fill="white" stroke="black" points="145,-112.5 145,-131.5 193,-131.5 193,-112.5 145,-112.5"/>
<text text-anchor="middle" x="169" y="-119.5" font-family="Helvetica,sans-Serif" font-size="10.00">index.h</text>
</a>
</g>
</g>
<!-- Node0&#45;&gt;Node27 -->
<g id="edge37" class="edge"><title>Node0&#45;&gt;Node27</title>
<path fill="none" stroke="midnightblue" d="M425.44,-336.466C381.513,-304.032 227.302,-190.138 225,-188 208.707,-172.865 192.371,-153.276 181.584,-139.576"/>
<polygon fill="midnightblue" stroke="midnightblue" points="184.243,-137.293 175.353,-131.529 178.709,-141.578 184.243,-137.293"/>
</g>
<!-- Node28 -->
<g id="node29" class="node"><title>Node28</title>
<g id="a_node29"><a xlink:href="../../d1/da1/doxygen_8h.html" target="_top" xlink:title="doxygen.h">
<polygon fill="white" stroke="black" points="1126,-280.5 1126,-299.5 1188,-299.5 1188,-280.5 1126,-280.5"/>
<text text-anchor="middle" x="1157" y="-287.5" font-family="Helvetica,sans-Serif" font-size="10.00">doxygen.h</text>
</a>
</g>
</g>
<!-- Node0&#45;&gt;Node28 -->
<g id="edge40" class="edge"><title>Node0&#45;&gt;Node28</title>
<path fill="none" stroke="midnightblue" d="M479.086,-341.844C606.789,-332.266 988.848,-303.611 1115.61,-294.104"/>
<polygon fill="midnightblue" stroke="midnightblue" points="1115.98,-297.587 1125.69,-293.348 1115.46,-290.606 1115.98,-297.587"/>
</g>
<!-- Node32 -->
<g id="node33" class="node"><title>Node32</title>
<g id="a_node33"><a xlink:href="../../df/d83/ftextstream_8h.html" target="_top" xlink:title="ftextstream.h">
<polygon fill="white" stroke="black" points="667,-224.5 667,-243.5 741,-243.5 741,-224.5 667,-224.5"/>
<text text-anchor="middle" x="704" y="-231.5" font-family="Helvetica,sans-Serif" font-size="10.00">ftextstream.h</text>
</a>
</g>
</g>
<!-- Node0&#45;&gt;Node32 -->
<g id="edge72" class="edge"><title>Node0&#45;&gt;Node32</title>
<path fill="none" stroke="midnightblue" d="M479.207,-344.927C525.677,-342.988 600.955,-334.201 655,-300 673.047,-288.58 686.863,-267.991 695.154,-253.038"/>
<polygon fill="midnightblue" stroke="midnightblue" points="698.468,-254.253 699.995,-243.769 692.263,-251.013 698.468,-254.253"/>
</g>
<!-- Node7 -->
<g id="node8" class="node"><title>Node7</title>
<polygon fill="white" stroke="#bfbfbf" points="939.5,-56.5 939.5,-75.5 982.5,-75.5 982.5,-56.5 939.5,-56.5"/>
<text text-anchor="middle" x="961" y="-63.5" font-family="Helvetica,sans-Serif" font-size="10.00">qlist.h</text>
</g>
<!-- Node6&#45;&gt;Node7 -->
<g id="edge7" class="edge"><title>Node6&#45;&gt;Node7</title>
<path fill="none" stroke="midnightblue" d="M1335.44,-113.88C1332.26,-113.195 1329.07,-112.551 1326,-112 1203.62,-90.0327 1056.22,-75.447 992.682,-69.7239"/>
<polygon fill="midnightblue" stroke="midnightblue" points="992.788,-66.2196 982.517,-68.8199 992.167,-73.1921 992.788,-66.2196"/>
</g>
<!-- Node8 -->
<g id="node9" class="node"><title>Node8</title>
<polygon fill="white" stroke="#bfbfbf" points="1275,-56.5 1275,-75.5 1321,-75.5 1321,-56.5 1275,-56.5"/>
<text text-anchor="middle" x="1298" y="-63.5" font-family="Helvetica,sans-Serif" font-size="10.00">qdict.h</text>
</g>
<!-- Node6&#45;&gt;Node8 -->
<g id="edge8" class="edge"><title>Node6&#45;&gt;Node8</title>
<path fill="none" stroke="midnightblue" d="M1353.4,-112.324C1343.54,-104.263 1328.65,-92.0765 1316.78,-82.3695"/>
<polygon fill="midnightblue" stroke="midnightblue" points="1318.75,-79.4575 1308.8,-75.8339 1314.32,-84.8752 1318.75,-79.4575"/>
</g>
<!-- Node10 -->
<g id="node11" class="node"><title>Node10</title>
<polygon fill="white" stroke="#bfbfbf" points="593,-224.5 593,-243.5 649,-243.5 649,-224.5 593,-224.5"/>
<text text-anchor="middle" x="621" y="-231.5" font-family="Helvetica,sans-Serif" font-size="10.00">qglobal.h</text>
</g>
<!-- Node9&#45;&gt;Node10 -->
<g id="edge10" class="edge"><title>Node9&#45;&gt;Node10</title>
<path fill="none" stroke="midnightblue" d="M621,-280.083C621,-273.006 621,-262.861 621,-253.986"/>
<polygon fill="midnightblue" stroke="midnightblue" points="624.5,-253.751 621,-243.751 617.5,-253.751 624.5,-253.751"/>
</g>
<!-- Node11&#45;&gt;Node7 -->
<g id="edge12" class="edge"><title>Node11&#45;&gt;Node7</title>
<path fill="none" stroke="midnightblue" d="M372.059,-224.346C401.818,-198.933 489.499,-125.464 524,-112 542.876,-104.634 831.609,-78.4827 929.115,-69.8144"/>
<polygon fill="midnightblue" stroke="midnightblue" points="929.598,-73.2853 939.25,-68.9152 928.98,-66.3127 929.598,-73.2853"/>
</g>
<!-- Node12 -->
<g id="node13" class="node"><title>Node12</title>
<polygon fill="white" stroke="#bfbfbf" points="249.5,-168.5 249.5,-187.5 298.5,-187.5 298.5,-168.5 249.5,-168.5"/>
<text text-anchor="middle" x="274" y="-175.5" font-family="Helvetica,sans-Serif" font-size="10.00">ctype.h</text>
</g>
<!-- Node11&#45;&gt;Node12 -->
<g id="edge13" class="edge"><title>Node11&#45;&gt;Node12</title>
<path fill="none" stroke="midnightblue" d="M347.861,-224.324C334.134,-215.9 313.064,-202.971 296.936,-193.074"/>
<polygon fill="midnightblue" stroke="midnightblue" points="298.457,-189.902 288.104,-187.655 294.796,-195.868 298.457,-189.902"/>
</g>
<!-- Node13 -->
<g id="node14" class="node"><title>Node13</title>
<g id="a_node14"><a xlink:href="../../d9/d49/types_8h.html" target="_top" xlink:title="This file contains a number of basic enums and types. ">
<polygon fill="white" stroke="black" points="798.5,-56.5 798.5,-75.5 847.5,-75.5 847.5,-56.5 798.5,-56.5"/>
<text text-anchor="middle" x="823" y="-63.5" font-family="Helvetica,sans-Serif" font-size="10.00">types.h</text>
</a>
</g>
</g>
<!-- Node11&#45;&gt;Node13 -->
<g id="edge14" class="edge"><title>Node11&#45;&gt;Node13</title>
<path fill="none" stroke="midnightblue" d="M342.738,-232.308C314.677,-230.137 263.365,-221.522 240,-188 220.685,-160.289 217.053,-136.787 240,-112 277.322,-71.6864 668.369,-67.3743 788.255,-67.0038"/>
<polygon fill="midnightblue" stroke="midnightblue" points="788.36,-70.5037 798.351,-66.9802 788.343,-63.5037 788.36,-70.5037"/>
</g>
<!-- Node15 -->
<g id="node16" class="node"><title>Node15</title>
<g id="a_node16"><a xlink:href="../../d9/d21/sortdict_8h.html" target="_top" xlink:title="sortdict.h">
<polygon fill="white" stroke="black" points="1071.5,-168.5 1071.5,-187.5 1128.5,-187.5 1128.5,-168.5 1071.5,-168.5"/>
<text text-anchor="middle" x="1100" y="-175.5" font-family="Helvetica,sans-Serif" font-size="10.00">sortdict.h</text>
</a>
</g>
</g>
<!-- Node11&#45;&gt;Node15 -->
<g id="edge16" class="edge"><title>Node11&#45;&gt;Node15</title>
<path fill="none" stroke="midnightblue" d="M381.024,-230.48C396.38,-228.51 418.553,-225.811 438,-224 560.317,-212.607 938.328,-188.963 1061.07,-181.389"/>
<polygon fill="midnightblue" stroke="midnightblue" points="1061.38,-184.877 1071.14,-180.768 1060.95,-177.89 1061.38,-184.877"/>
</g>
<!-- Node17 -->
<g id="node18" class="node"><title>Node17</title>
<g id="a_node18"><a xlink:href="../../de/d9c/docparser_8h.html" target="_top" xlink:title="docparser.h">
<polygon fill="white" stroke="black" points="317,-168.5 317,-187.5 385,-187.5 385,-168.5 317,-168.5"/>
<text text-anchor="middle" x="351" y="-175.5" font-family="Helvetica,sans-Serif" font-size="10.00">docparser.h</text>
</a>
</g>
</g>
<!-- Node11&#45;&gt;Node17 -->
<g id="edge20" class="edge"><title>Node11&#45;&gt;Node17</title>
<path fill="none" stroke="midnightblue" d="M360.184,-224.083C358.726,-216.927 356.629,-206.635 354.807,-197.691"/>
<polygon fill="midnightblue" stroke="midnightblue" points="358.208,-196.851 352.783,-187.751 351.349,-198.248 358.208,-196.851"/>
</g>
<!-- Node14 -->
<g id="node15" class="node"><title>Node14</title>
<polygon fill="white" stroke="#bfbfbf" points="340.5,-0.5 340.5,-19.5 399.5,-19.5 399.5,-0.5 340.5,-0.5"/>
<text text-anchor="middle" x="370" y="-7.5" font-family="Helvetica,sans-Serif" font-size="10.00">qcstring.h</text>
</g>
<!-- Node13&#45;&gt;Node14 -->
<g id="edge15" class="edge"><title>Node13&#45;&gt;Node14</title>
<path fill="none" stroke="midnightblue" d="M798.323,-62.0584C723.834,-53.1788 500.78,-26.5896 409.549,-15.7145"/>
<polygon fill="midnightblue" stroke="midnightblue" points="409.948,-12.2374 399.604,-14.529 409.12,-19.1882 409.948,-12.2374"/>
</g>
<!-- Node15&#45;&gt;Node7 -->
<g id="edge17" class="edge"><title>Node15&#45;&gt;Node7</title>
<path fill="none" stroke="midnightblue" d="M1110.21,-168.417C1124.46,-155.394 1147.08,-130.232 1133,-112 1115.97,-89.9466 1037.43,-76.6188 992.594,-70.6771"/>
<polygon fill="midnightblue" stroke="midnightblue" points="992.874,-67.1844 982.511,-69.3898 991.987,-74.1281 992.874,-67.1844"/>
</g>
<!-- Node15&#45;&gt;Node8 -->
<g id="edge18" class="edge"><title>Node15&#45;&gt;Node8</title>
<path fill="none" stroke="midnightblue" d="M1115.54,-168.368C1149.88,-149.292 1232.44,-103.422 1273.69,-80.5054"/>
<polygon fill="midnightblue" stroke="midnightblue" points="1275.49,-83.5075 1282.54,-75.5914 1272.09,-77.3883 1275.49,-83.5075"/>
</g>
<!-- Node16 -->
<g id="node17" class="node"><title>Node16</title>
<polygon fill="white" stroke="#bfbfbf" points="1261,-112.5 1261,-131.5 1317,-131.5 1317,-112.5 1261,-112.5"/>
<text text-anchor="middle" x="1289" y="-119.5" font-family="Helvetica,sans-Serif" font-size="10.00">qintdict.h</text>
</g>
<!-- Node15&#45;&gt;Node16 -->
<g id="edge19" class="edge"><title>Node15&#45;&gt;Node16</title>
<path fill="none" stroke="midnightblue" d="M1128.71,-168.799C1161.46,-159.44 1215.15,-144.101 1251.26,-133.782"/>
<polygon fill="midnightblue" stroke="midnightblue" points="1252.3,-137.126 1260.95,-131.014 1250.38,-130.396 1252.3,-137.126"/>
</g>
<!-- Node17&#45;&gt;Node7 -->
<g id="edge22" class="edge"><title>Node17&#45;&gt;Node7</title>
<path fill="none" stroke="midnightblue" d="M369.374,-168.372C406.627,-150.89 487.816,-112.864 491,-112 512.202,-106.245 827.587,-78.5632 929.498,-69.7213"/>
<polygon fill="midnightblue" stroke="midnightblue" points="929.832,-73.2055 939.493,-68.8551 929.228,-66.2316 929.832,-73.2055"/>
</g>
<!-- Node17&#45;&gt;Node14 -->
<g id="edge23" class="edge"><title>Node17&#45;&gt;Node14</title>
<path fill="none" stroke="midnightblue" d="M352.022,-168.075C355.012,-141.945 363.795,-65.2106 367.874,-29.577"/>
<polygon fill="midnightblue" stroke="midnightblue" points="371.359,-29.9013 369.019,-19.5681 364.405,-29.1052 371.359,-29.9013"/>
</g>
<!-- Node18 -->
<g id="node19" class="node"><title>Node18</title>
<polygon fill="white" stroke="#bfbfbf" points="533,-112.5 533,-131.5 579,-131.5 579,-112.5 533,-112.5"/>
<text text-anchor="middle" x="556" y="-119.5" font-family="Helvetica,sans-Serif" font-size="10.00">stdio.h</text>
</g>
<!-- Node17&#45;&gt;Node18 -->
<g id="edge21" class="edge"><title>Node17&#45;&gt;Node18</title>
<path fill="none" stroke="midnightblue" d="M383.483,-168.444C421.563,-158.413 484.339,-141.877 522.748,-131.759"/>
<polygon fill="midnightblue" stroke="midnightblue" points="524.115,-135.018 532.894,-129.086 522.332,-128.249 524.115,-135.018"/>
</g>
<!-- Node19 -->
<g id="node20" class="node"><title>Node19</title>
<g id="a_node20"><a xlink:href="../../d2/d3c/docvisitor_8h.html" target="_top" xlink:title="docvisitor.h">
<polygon fill="white" stroke="black" points="249.5,-112.5 249.5,-131.5 316.5,-131.5 316.5,-112.5 249.5,-112.5"/>
<text text-anchor="middle" x="283" y="-119.5" font-family="Helvetica,sans-Serif" font-size="10.00">docvisitor.h</text>
</a>
</g>
</g>
<!-- Node17&#45;&gt;Node19 -->
<g id="edge24" class="edge"><title>Node17&#45;&gt;Node19</title>
<path fill="none" stroke="midnightblue" d="M340.075,-168.324C329.825,-160.185 314.279,-147.839 301.999,-138.087"/>
<polygon fill="midnightblue" stroke="midnightblue" points="304.132,-135.312 294.124,-131.834 299.779,-140.794 304.132,-135.312"/>
</g>
<!-- Node20 -->
<g id="node21" class="node"><title>Node20</title>
<g id="a_node21"><a xlink:href="../../d0/d73/htmlattrib_8h.html" target="_top" xlink:title="htmlattrib.h">
<polygon fill="white" stroke="black" points="373.5,-112.5 373.5,-131.5 438.5,-131.5 438.5,-112.5 373.5,-112.5"/>
<text text-anchor="middle" x="406" y="-119.5" font-family="Helvetica,sans-Serif" font-size="10.00">htmlattrib.h</text>
</a>
</g>
</g>
<!-- Node17&#45;&gt;Node20 -->
<g id="edge25" class="edge"><title>Node17&#45;&gt;Node20</title>
<path fill="none" stroke="midnightblue" d="M360.082,-168.083C368.171,-160.141 380.195,-148.335 389.91,-138.797"/>
<polygon fill="midnightblue" stroke="midnightblue" points="392.403,-141.254 397.087,-131.751 387.499,-136.26 392.403,-141.254"/>
</g>
<!-- Node20&#45;&gt;Node7 -->
<g id="edge27" class="edge"><title>Node20&#45;&gt;Node7</title>
<path fill="none" stroke="midnightblue" d="M438.545,-114.327C443.378,-113.465 448.31,-112.655 453,-112 464.868,-110.342 820.119,-79.2927 929.356,-69.7598"/>
<polygon fill="midnightblue" stroke="midnightblue" points="929.771,-73.2371 939.429,-68.881 929.163,-66.2636 929.771,-73.2371"/>
</g>
<!-- Node20&#45;&gt;Node14 -->
<g id="edge26" class="edge"><title>Node20&#45;&gt;Node14</title>
<path fill="none" stroke="midnightblue" d="M403.175,-112.368C397.339,-94.5366 383.842,-53.2953 375.98,-29.2717"/>
<polygon fill="midnightblue" stroke="midnightblue" points="379.249,-28.0067 372.812,-19.5914 372.596,-30.1841 379.249,-28.0067"/>
</g>
<!-- Node21&#45;&gt;Node18 -->
<g id="edge29" class="edge"><title>Node21&#45;&gt;Node18</title>
<path fill="none" stroke="midnightblue" d="M458.766,-280.171C446.866,-267.671 428.749,-244.096 438,-224 456.743,-183.287 500.889,-152.865 529.551,-136.533"/>
<polygon fill="midnightblue" stroke="midnightblue" points="531.547,-139.43 538.619,-131.54 528.171,-133.298 531.547,-139.43"/>
</g>
<!-- Node22 -->
<g id="node23" class="node"><title>Node22</title>
<polygon fill="white" stroke="#bfbfbf" points="447,-224.5 447,-243.5 499,-243.5 499,-224.5 447,-224.5"/>
<text text-anchor="middle" x="473" y="-231.5" font-family="Helvetica,sans-Serif" font-size="10.00">stdarg.h</text>
</g>
<!-- Node21&#45;&gt;Node22 -->
<g id="edge30" class="edge"><title>Node21&#45;&gt;Node22</title>
<path fill="none" stroke="midnightblue" d="M468.826,-280.083C469.481,-273.006 470.42,-262.861 471.242,-253.986"/>
<polygon fill="midnightblue" stroke="midnightblue" points="474.753,-254.031 472.19,-243.751 467.783,-253.386 474.753,-254.031"/>
</g>
<!-- Node24 -->
<g id="node25" class="node"><title>Node24</title>
<polygon fill="white" stroke="#bfbfbf" points="1563,-224.5 1563,-243.5 1643,-243.5 1643,-224.5 1563,-224.5"/>
<text text-anchor="middle" x="1603" y="-231.5" font-family="Helvetica,sans-Serif" font-size="10.00">configvalues.h</text>
</g>
<!-- Node23&#45;&gt;Node24 -->
<g id="edge32" class="edge"><title>Node23&#45;&gt;Node24</title>
<path fill="none" stroke="midnightblue" d="M1581.29,-280.083C1584.85,-272.691 1590.02,-261.953 1594.42,-252.811"/>
<polygon fill="midnightblue" stroke="midnightblue" points="1597.6,-254.279 1598.79,-243.751 1591.29,-251.243 1597.6,-254.279"/>
</g>
<!-- Node25&#45;&gt;Node10 -->
<g id="edge36" class="edge"><title>Node25&#45;&gt;Node10</title>
<path fill="none" stroke="midnightblue" d="M559.729,-280.324C570.837,-272.107 587.742,-259.602 600.983,-249.807"/>
<polygon fill="midnightblue" stroke="midnightblue" points="603.1,-252.595 609.058,-243.834 598.937,-246.967 603.1,-252.595"/>
</g>
<!-- Node25&#45;&gt;Node18 -->
<g id="edge35" class="edge"><title>Node25&#45;&gt;Node18</title>
<path fill="none" stroke="midnightblue" d="M548.398,-280.168C548.964,-267.664 550.039,-244.085 551,-224 552.374,-195.281 554.036,-161.973 555.056,-141.7"/>
<polygon fill="midnightblue" stroke="midnightblue" points="558.554,-141.81 555.562,-131.646 551.563,-141.457 558.554,-141.81"/>
</g>
<!-- Node26 -->
<g id="node27" class="node"><title>Node26</title>
<polygon fill="white" stroke="#bfbfbf" points="789,-112.5 789,-131.5 857,-131.5 857,-112.5 789,-112.5"/>
<text text-anchor="middle" x="823" y="-119.5" font-family="Helvetica,sans-Serif" font-size="10.00">sys/types.h</text>
</g>
<!-- Node25&#45;&gt;Node26 -->
<g id="edge34" class="edge"><title>Node25&#45;&gt;Node26</title>
<path fill="none" stroke="midnightblue" d="M549.414,-280.177C553.634,-254.961 566.911,-183.413 584,-168 612.009,-142.739 717.333,-130.819 778.413,-125.923"/>
<polygon fill="midnightblue" stroke="midnightblue" points="778.844,-129.4 788.545,-125.142 778.306,-122.421 778.844,-129.4"/>
</g>
<!-- Node27&#45;&gt;Node7 -->
<g id="edge38" class="edge"><title>Node27&#45;&gt;Node7</title>
<path fill="none" stroke="midnightblue" d="M193.272,-117.509C206.968,-115.644 224.411,-113.441 240,-112 513.522,-86.7138 583.029,-95.8433 857,-76 881.166,-74.2497 908.456,-71.8729 929.016,-70.0013"/>
<polygon fill="midnightblue" stroke="midnightblue" points="929.464,-73.475 939.102,-69.0747 928.823,-66.5044 929.464,-73.475"/>
</g>
<!-- Node27&#45;&gt;Node14 -->
<g id="edge39" class="edge"><title>Node27&#45;&gt;Node14</title>
<path fill="none" stroke="midnightblue" d="M184.772,-112.368C219.631,-93.2916 303.447,-47.4223 345.322,-24.5054"/>
<polygon fill="midnightblue" stroke="midnightblue" points="347.209,-27.4625 354.301,-19.5914 343.849,-21.3219 347.209,-27.4625"/>
</g>
<!-- Node28&#45;&gt;Node8 -->
<g id="edge44" class="edge"><title>Node28&#45;&gt;Node8</title>
<path fill="none" stroke="midnightblue" d="M1188.03,-289.557C1261.08,-290.135 1440.57,-287.048 1478,-244 1516.77,-199.418 1558.04,-241.177 1402,-112 1381.2,-94.7802 1352.81,-83.0892 1330.94,-75.9487"/>
<polygon fill="midnightblue" stroke="midnightblue" points="1331.69,-72.516 1321.1,-72.8946 1329.61,-79.2015 1331.69,-72.516"/>
</g>
<!-- Node28&#45;&gt;Node15 -->
<g id="edge51" class="edge"><title>Node28&#45;&gt;Node15</title>
<path fill="none" stroke="midnightblue" d="M1142.13,-280.366C1130.15,-272.527 1114.02,-259.792 1106,-244 1098.7,-229.633 1097.66,-211.174 1098.18,-197.6"/>
<polygon fill="midnightblue" stroke="midnightblue" points="1101.67,-197.762 1098.87,-187.544 1094.69,-197.278 1101.67,-197.762"/>
</g>
<!-- Node28&#45;&gt;Node16 -->
<g id="edge45" class="edge"><title>Node28&#45;&gt;Node16</title>
<path fill="none" stroke="midnightblue" d="M1168.3,-280.438C1179.17,-271.891 1195.71,-258.04 1208,-244 1237.56,-210.225 1265.07,-165.101 1279.17,-140.613"/>
<polygon fill="midnightblue" stroke="midnightblue" points="1282.3,-142.175 1284.2,-131.751 1276.22,-138.72 1282.3,-142.175"/>
</g>
<!-- Node29 -->
<g id="node30" class="node"><title>Node29</title>
<polygon fill="white" stroke="#bfbfbf" points="1255,-224.5 1255,-243.5 1323,-243.5 1323,-224.5 1255,-224.5"/>
<text text-anchor="middle" x="1289" y="-231.5" font-family="Helvetica,sans-Serif" font-size="10.00">qdatetime.h</text>
</g>
<!-- Node28&#45;&gt;Node29 -->
<g id="edge41" class="edge"><title>Node28&#45;&gt;Node29</title>
<path fill="none" stroke="midnightblue" d="M1177.92,-280.444C1199.74,-271.517 1234.15,-257.439 1258.89,-247.317"/>
<polygon fill="midnightblue" stroke="midnightblue" points="1260.25,-250.542 1268.18,-243.516 1257.6,-244.063 1260.25,-250.542"/>
</g>
<!-- Node30 -->
<g id="node31" class="node"><title>Node30</title>
<polygon fill="white" stroke="#bfbfbf" points="1341,-224.5 1341,-243.5 1397,-243.5 1397,-224.5 1341,-224.5"/>
<text text-anchor="middle" x="1369" y="-231.5" font-family="Helvetica,sans-Serif" font-size="10.00">qcache.h</text>
</g>
<!-- Node28&#45;&gt;Node30 -->
<g id="edge42" class="edge"><title>Node28&#45;&gt;Node30</title>
<path fill="none" stroke="midnightblue" d="M1188.28,-281.032C1226.29,-271.35 1290.39,-255.023 1331.15,-244.641"/>
<polygon fill="midnightblue" stroke="midnightblue" points="1332.15,-247.998 1340.98,-242.138 1330.42,-241.214 1332.15,-247.998"/>
</g>
<!-- Node31 -->
<g id="node32" class="node"><title>Node31</title>
<polygon fill="white" stroke="#bfbfbf" points="1415,-224.5 1415,-243.5 1469,-243.5 1469,-224.5 1415,-224.5"/>
<text text-anchor="middle" x="1442" y="-231.5" font-family="Helvetica,sans-Serif" font-size="10.00">qstrlist.h</text>
</g>
<!-- Node28&#45;&gt;Node31 -->
<g id="edge43" class="edge"><title>Node28&#45;&gt;Node31</title>
<path fill="none" stroke="midnightblue" d="M1188.19,-284.045C1233.67,-276.671 1321.06,-261.946 1404.97,-244.108"/>
<polygon fill="midnightblue" stroke="midnightblue" points="1405.87,-247.494 1414.92,-241.975 1404.41,-240.649 1405.87,-247.494"/>
</g>
<!-- Node28&#45;&gt;Node32 -->
<g id="edge46" class="edge"><title>Node28&#45;&gt;Node32</title>
<path fill="none" stroke="midnightblue" d="M1125.86,-285.288C1047.93,-275.998 844.061,-251.696 751.246,-240.632"/>
<polygon fill="midnightblue" stroke="midnightblue" points="751.633,-237.153 741.289,-239.445 750.804,-244.104 751.633,-237.153"/>
</g>
<!-- Node36 -->
<g id="node37" class="node"><title>Node36</title>
<g id="a_node37"><a xlink:href="../../d9/d11/membergroup_8h.html" target="_top" xlink:title="membergroup.h">
<polygon fill="white" stroke="black" points="1115,-224.5 1115,-243.5 1199,-243.5 1199,-224.5 1115,-224.5"/>
<text text-anchor="middle" x="1157" y="-231.5" font-family="Helvetica,sans-Serif" font-size="10.00">membergroup.h</text>
</a>
</g>
</g>
<!-- Node28&#45;&gt;Node36 -->
<g id="edge52" class="edge"><title>Node28&#45;&gt;Node36</title>
<path fill="none" stroke="midnightblue" d="M1157,-280.083C1157,-273.006 1157,-262.861 1157,-253.986"/>
<polygon fill="midnightblue" stroke="midnightblue" points="1160.5,-253.751 1157,-243.751 1153.5,-253.751 1160.5,-253.751"/>
</g>
<!-- Node37 -->
<g id="node38" class="node"><title>Node37</title>
<g id="a_node38"><a xlink:href="../../d6/d15/dirdef_8h.html" target="_top" xlink:title="dirdef.h">
<polygon fill="white" stroke="black" points="1009.5,-224.5 1009.5,-243.5 1058.5,-243.5 1058.5,-224.5 1009.5,-224.5"/>
<text text-anchor="middle" x="1034" y="-231.5" font-family="Helvetica,sans-Serif" font-size="10.00">dirdef.h</text>
</a>
</g>
</g>
<!-- Node28&#45;&gt;Node37 -->
<g id="edge56" class="edge"><title>Node28&#45;&gt;Node37</title>
<path fill="none" stroke="midnightblue" d="M1137.51,-280.444C1117.36,-271.596 1085.68,-257.687 1062.67,-247.586"/>
<polygon fill="midnightblue" stroke="midnightblue" points="1063.96,-244.332 1053.4,-243.516 1061.15,-250.741 1063.96,-244.332"/>
</g>
<!-- Node39 -->
<g id="node40" class="node"><title>Node39</title>
<g id="a_node40"><a xlink:href="../../dd/d78/memberlist_8h.html" target="_top" xlink:title="memberlist.h">
<polygon fill="white" stroke="black" points="918.5,-224.5 918.5,-243.5 991.5,-243.5 991.5,-224.5 918.5,-224.5"/>
<text text-anchor="middle" x="955" y="-231.5" font-family="Helvetica,sans-Serif" font-size="10.00">memberlist.h</text>
</a>
</g>
</g>
<!-- Node28&#45;&gt;Node39 -->
<g id="edge63" class="edge"><title>Node28&#45;&gt;Node39</title>
<path fill="none" stroke="midnightblue" d="M1125.88,-280.681C1091.24,-271.42 1035.08,-256.408 996.667,-246.139"/>
<polygon fill="midnightblue" stroke="midnightblue" points="997.387,-242.708 986.822,-243.507 995.579,-249.471 997.387,-242.708"/>
</g>
<!-- Node32&#45;&gt;Node18 -->
<g id="edge47" class="edge"><title>Node32&#45;&gt;Node18</title>
<path fill="none" stroke="midnightblue" d="M673.193,-224.452C642.186,-215.334 597.126,-200.511 584,-188 570.959,-175.57 563.671,-156.056 559.824,-141.65"/>
<polygon fill="midnightblue" stroke="midnightblue" points="563.212,-140.764 557.515,-131.831 556.398,-142.367 563.212,-140.764"/>
</g>
<!-- Node33 -->
<g id="node34" class="node"><title>Node33</title>
<polygon fill="white" stroke="#bfbfbf" points="671,-168.5 671,-187.5 737,-187.5 737,-168.5 671,-168.5"/>
<text text-anchor="middle" x="704" y="-175.5" font-family="Helvetica,sans-Serif" font-size="10.00">qiodevice.h</text>
</g>
<!-- Node32&#45;&gt;Node33 -->
<g id="edge48" class="edge"><title>Node32&#45;&gt;Node33</title>
<path fill="none" stroke="midnightblue" d="M704,-224.083C704,-217.006 704,-206.861 704,-197.986"/>
<polygon fill="midnightblue" stroke="midnightblue" points="707.5,-197.751 704,-187.751 700.5,-197.751 707.5,-197.751"/>
</g>
<!-- Node34 -->
<g id="node35" class="node"><title>Node34</title>
<polygon fill="white" stroke="#bfbfbf" points="755,-168.5 755,-187.5 809,-187.5 809,-168.5 755,-168.5"/>
<text text-anchor="middle" x="782" y="-175.5" font-family="Helvetica,sans-Serif" font-size="10.00">qstring.h</text>
</g>
<!-- Node32&#45;&gt;Node34 -->
<g id="edge49" class="edge"><title>Node32&#45;&gt;Node34</title>
<path fill="none" stroke="midnightblue" d="M716.532,-224.324C728.586,-215.979 747.027,-203.212 761.269,-193.352"/>
<polygon fill="midnightblue" stroke="midnightblue" points="763.269,-196.224 769.499,-187.655 759.285,-190.469 763.269,-196.224"/>
</g>
<!-- Node35 -->
<g id="node36" class="node"><title>Node35</title>
<polygon fill="white" stroke="#bfbfbf" points="593.5,-168.5 593.5,-187.5 652.5,-187.5 652.5,-168.5 593.5,-168.5"/>
<text text-anchor="middle" x="623" y="-175.5" font-family="Helvetica,sans-Serif" font-size="10.00">qgstring.h</text>
</g>
<!-- Node32&#45;&gt;Node35 -->
<g id="edge50" class="edge"><title>Node32&#45;&gt;Node35</title>
<path fill="none" stroke="midnightblue" d="M690.986,-224.324C678.468,-215.979 659.318,-203.212 644.529,-193.352"/>
<polygon fill="midnightblue" stroke="midnightblue" points="646.244,-190.289 635.982,-187.655 642.361,-196.114 646.244,-190.289"/>
</g>
<!-- Node36&#45;&gt;Node7 -->
<g id="edge53" class="edge"><title>Node36&#45;&gt;Node7</title>
<path fill="none" stroke="midnightblue" d="M1160.6,-224.222C1164.06,-215.285 1169.03,-200.942 1171,-188 1176.28,-153.235 1175.54,-135.073 1149,-112 1104.94,-73.6936 1033.95,-66.6683 992.977,-66.0999"/>
<polygon fill="midnightblue" stroke="midnightblue" points="992.757,-62.5997 982.752,-66.0845 992.746,-69.5997 992.757,-62.5997"/>
</g>
<!-- Node36&#45;&gt;Node13 -->
<g id="edge55" class="edge"><title>Node36&#45;&gt;Node13</title>
<path fill="none" stroke="midnightblue" d="M1156.23,-224.242C1154.69,-210.992 1150.26,-185.538 1138,-168 1113.96,-133.612 1100.47,-128.746 1062,-112 993.617,-82.2324 905.814,-72.1196 857.948,-68.7103"/>
<polygon fill="midnightblue" stroke="midnightblue" points="858.006,-65.2067 847.799,-68.0462 857.549,-72.1918 858.006,-65.2067"/>
</g>
<!-- Node36&#45;&gt;Node15 -->
<g id="edge54" class="edge"><title>Node36&#45;&gt;Node15</title>
<path fill="none" stroke="midnightblue" d="M1147.84,-224.324C1139.5,-216.42 1126.97,-204.548 1116.82,-194.938"/>
<polygon fill="midnightblue" stroke="midnightblue" points="1118.99,-192.171 1109.32,-187.834 1114.18,-197.252 1118.99,-192.171"/>
</g>
<!-- Node37&#45;&gt;Node7 -->
<g id="edge62" class="edge"><title>Node37&#45;&gt;Node7</title>
<path fill="none" stroke="midnightblue" d="M1037.73,-224.173C1047.84,-199.588 1074.27,-130.899 1062,-112 1046.79,-88.5777 1016.26,-77.244 992.72,-71.8234"/>
<polygon fill="midnightblue" stroke="midnightblue" points="993.304,-68.3704 982.805,-69.7854 991.895,-75.227 993.304,-68.3704"/>
</g>
<!-- Node37&#45;&gt;Node15 -->
<g id="edge57" class="edge"><title>Node37&#45;&gt;Node15</title>
<path fill="none" stroke="midnightblue" d="M1044.6,-224.324C1054.46,-216.263 1069.35,-204.077 1081.22,-194.369"/>
<polygon fill="midnightblue" stroke="midnightblue" points="1083.68,-196.875 1089.2,-187.834 1079.25,-191.457 1083.68,-196.875"/>
</g>
<!-- Node38 -->
<g id="node39" class="node"><title>Node38</title>
<g id="a_node39"><a xlink:href="../../df/da1/definition_8h.html" target="_top" xlink:title="definition.h">
<polygon fill="white" stroke="black" points="989,-112.5 989,-131.5 1053,-131.5 1053,-112.5 989,-112.5"/>
<text text-anchor="middle" x="1021" y="-119.5" font-family="Helvetica,sans-Serif" font-size="10.00">definition.h</text>
</a>
</g>
</g>
<!-- Node37&#45;&gt;Node38 -->
<g id="edge58" class="edge"><title>Node37&#45;&gt;Node38</title>
<path fill="none" stroke="midnightblue" d="M1032.98,-224.368C1030.88,-206.617 1026.04,-165.666 1023.2,-141.597"/>
<polygon fill="midnightblue" stroke="midnightblue" points="1026.66,-141.112 1022.02,-131.591 1019.71,-141.933 1026.66,-141.112"/>
</g>
<!-- Node38&#45;&gt;Node7 -->
<g id="edge59" class="edge"><title>Node38&#45;&gt;Node7</title>
<path fill="none" stroke="midnightblue" d="M1011.36,-112.324C1002.49,-104.341 989.125,-92.3128 978.392,-82.6529"/>
<polygon fill="midnightblue" stroke="midnightblue" points="980.59,-79.922 970.815,-75.8339 975.907,-85.1251 980.59,-79.922"/>
</g>
<!-- Node38&#45;&gt;Node8 -->
<g id="edge60" class="edge"><title>Node38&#45;&gt;Node8</title>
<path fill="none" stroke="midnightblue" d="M1053.05,-114.753C1105.92,-104.446 1210.9,-83.9792 1264.63,-73.5054"/>
<polygon fill="midnightblue" stroke="midnightblue" points="1265.52,-76.8987 1274.66,-71.5499 1264.18,-70.028 1265.52,-76.8987"/>
</g>
<!-- Node38&#45;&gt;Node13 -->
<g id="edge61" class="edge"><title>Node38&#45;&gt;Node13</title>
<path fill="none" stroke="midnightblue" d="M989.626,-112.444C953.644,-102.63 894.832,-86.5905 857.562,-76.4261"/>
<polygon fill="midnightblue" stroke="midnightblue" points="858.227,-72.9796 847.659,-73.7251 856.385,-79.733 858.227,-72.9796"/>
</g>
<!-- Node39&#45;&gt;Node7 -->
<g id="edge64" class="edge"><title>Node39&#45;&gt;Node7</title>
<path fill="none" stroke="midnightblue" d="M955.323,-224.075C956.267,-197.945 959.041,-121.211 960.329,-85.577"/>
<polygon fill="midnightblue" stroke="midnightblue" points="963.827,-85.688 960.69,-75.5681 956.831,-85.4351 963.827,-85.688"/>
</g>
<!-- Node39&#45;&gt;Node13 -->
<g id="edge71" class="edge"><title>Node39&#45;&gt;Node13</title>
<path fill="none" stroke="midnightblue" d="M932.714,-224.431C912.206,-216.186 881.237,-202.815 856,-188 837.908,-177.38 789.461,-150.724 780,-132 770.887,-113.965 787.04,-94.851 802.082,-82.0549"/>
<polygon fill="midnightblue" stroke="midnightblue" points="804.502,-84.6025 810.157,-75.6428 800.149,-79.1206 804.502,-84.6025"/>
</g>
<!-- Node39&#45;&gt;Node15 -->
<g id="edge70" class="edge"><title>Node39&#45;&gt;Node15</title>
<path fill="none" stroke="midnightblue" d="M977.976,-224.444C1002.16,-215.438 1040.42,-201.189 1067.65,-191.049"/>
<polygon fill="midnightblue" stroke="midnightblue" points="1068.98,-194.286 1077.13,-187.516 1066.54,-187.727 1068.98,-194.286"/>
</g>
<!-- Node40 -->
<g id="node41" class="node"><title>Node40</title>
<g id="a_node41"><a xlink:href="../../d4/d46/memberdef_8h.html" target="_top" xlink:title="memberdef.h">
<polygon fill="white" stroke="black" points="865,-168.5 865,-187.5 939,-187.5 939,-168.5 865,-168.5"/>
<text text-anchor="middle" x="902" y="-175.5" font-family="Helvetica,sans-Serif" font-size="10.00">memberdef.h</text>
</a>
</g>
</g>
<!-- Node39&#45;&gt;Node40 -->
<g id="edge65" class="edge"><title>Node39&#45;&gt;Node40</title>
<path fill="none" stroke="midnightblue" d="M946.248,-224.083C938.53,-216.22 927.095,-204.569 917.783,-195.081"/>
<polygon fill="midnightblue" stroke="midnightblue" points="920.092,-192.436 910.589,-187.751 915.096,-197.34 920.092,-192.436"/>
</g>
<!-- Node40&#45;&gt;Node7 -->
<g id="edge66" class="edge"><title>Node40&#45;&gt;Node7</title>
<path fill="none" stroke="midnightblue" d="M906.63,-168.368C916.28,-150.376 938.714,-108.55 951.546,-84.6267"/>
<polygon fill="midnightblue" stroke="midnightblue" points="954.75,-86.0582 956.392,-75.5914 948.581,-82.7495 954.75,-86.0582"/>
</g>
<!-- Node40&#45;&gt;Node13 -->
<g id="edge68" class="edge"><title>Node40&#45;&gt;Node13</title>
<path fill="none" stroke="midnightblue" d="M898.003,-168.161C891.967,-155.241 879.759,-130.704 866,-112 858.333,-101.578 848.432,-91.0609 840.063,-82.8177"/>
<polygon fill="midnightblue" stroke="midnightblue" points="842.271,-80.0859 832.632,-75.6884 837.425,-85.1371 842.271,-80.0859"/>
</g>
<!-- Node40&#45;&gt;Node26 -->
<g id="edge67" class="edge"><title>Node40&#45;&gt;Node26</title>
<path fill="none" stroke="midnightblue" d="M889.307,-168.324C877.099,-159.979 858.422,-147.212 843.997,-137.352"/>
<polygon fill="midnightblue" stroke="midnightblue" points="845.892,-134.408 835.661,-131.655 841.942,-140.187 845.892,-134.408"/>
</g>
<!-- Node40&#45;&gt;Node38 -->
<g id="edge69" class="edge"><title>Node40&#45;&gt;Node38</title>
<path fill="none" stroke="midnightblue" d="M920.856,-168.444C940.266,-159.636 970.73,-145.812 992.965,-135.722"/>
<polygon fill="midnightblue" stroke="midnightblue" points="994.572,-138.836 1002.23,-131.516 991.68,-132.462 994.572,-138.836"/>
</g>
</g>
</svg>
