<?xml version="1.0" encoding="UTF-8" standalone="no"?>
<!DOCTYPE svg PUBLIC "-//W3C//DTD SVG 1.1//EN"
 "http://www.w3.org/Graphics/SVG/1.1/DTD/svg11.dtd">
<!-- Generated by graphviz version 2.38.0 (20140413.2041)
 -->
<!-- Title: SectionDict Pages: 1 -->
<svg width="376pt" height="162pt"
 viewBox="0.00 0.00 375.50 162.00" xmlns="http://www.w3.org/2000/svg" xmlns:xlink="http://www.w3.org/1999/xlink">
<g id="graph0" class="graph" transform="scale(1 1) rotate(0) translate(4 158)">
<title>SectionDict</title>
<polygon fill="white" stroke="none" points="-4,4 -4,-158 371.5,-158 371.5,4 -4,4"/>
<!-- Node3 -->
<g id="node1" class="node"><title>Node3</title>
<polygon fill="#bfbfbf" stroke="black" points="299.5,-0.5 299.5,-19.5 367.5,-19.5 367.5,-0.5 299.5,-0.5"/>
<text text-anchor="middle" x="333.5" y="-7.5" font-family="Helvetica,sans-Serif" font-size="10.00">SectionDict</text>
</g>
<!-- Node4 -->
<g id="node2" class="node"><title>Node4</title>
<g id="a_node2"><a xlink:href="../../d1/d50/class_s_dict.html" target="_top" xlink:title="SDict\&lt; SectionInfo \&gt;">
<polygon fill="white" stroke="black" points="234,-67.5 234,-86.5 343,-86.5 343,-67.5 234,-67.5"/>
<text text-anchor="middle" x="288.5" y="-74.5" font-family="Helvetica,sans-Serif" font-size="10.00">SDict&lt; SectionInfo &gt;</text>
</a>
</g>
</g>
<!-- Node4&#45;&gt;Node3 -->
<g id="edge1" class="edge"><title>Node4&#45;&gt;Node3</title>
<path fill="none" stroke="midnightblue" d="M308.932,-60.8271C312.81,-57.2657 316.565,-53.2563 319.5,-49 325.726,-39.9703 329.563,-27.8347 331.61,-19.7316"/>
<polygon fill="midnightblue" stroke="midnightblue" points="306.449,-58.3415 301.027,-67.4437 310.941,-63.7094 306.449,-58.3415"/>
</g>
<!-- Node5 -->
<g id="node3" class="node"><title>Node5</title>
<g id="a_node3"><a xlink:href="../../df/dce/class_s_list.html" target="_top" xlink:title="SList\&lt; SectionInfo \&gt;">
<polygon fill="white" stroke="black" points="122,-0.5 122,-19.5 229,-19.5 229,-0.5 122,-0.5"/>
<text text-anchor="middle" x="175.5" y="-7.5" font-family="Helvetica,sans-Serif" font-size="10.00">SList&lt; SectionInfo &gt;</text>
</a>
</g>
</g>
<!-- Node4&#45;&gt;Node5 -->
<g id="edge4" class="edge"><title>Node4&#45;&gt;Node5</title>
<path fill="none" stroke="#9a32cd" stroke-dasharray="5,2" d="M250.895,-63.9373C240.388,-59.8686 229.199,-54.8491 219.5,-49 205.671,-40.66 191.941,-27.9013 183.588,-19.505"/>
<polygon fill="#9a32cd" stroke="#9a32cd" points="249.698,-67.2259 260.291,-67.4031 252.12,-60.6585 249.698,-67.2259"/>
<text text-anchor="middle" x="241" y="-41" font-family="Helvetica,sans-Serif" font-size="10.00"> m_owner</text>
</g>
<!-- Node5&#45;&gt;Node4 -->
<g id="edge2" class="edge"><title>Node5&#45;&gt;Node4</title>
<path fill="none" stroke="#9a32cd" stroke-dasharray="5,2" d="M238.463,-22.8286C248.491,-26.5762 258.259,-31.5087 266.5,-38 276.201,-45.6418 282.434,-58.8291 285.704,-67.4832"/>
<polygon fill="#9a32cd" stroke="#9a32cd" points="239.405,-19.4529 228.811,-19.5865 237.176,-26.0886 239.405,-19.4529"/>
<text text-anchor="middle" x="291.5" y="-41" font-family="Helvetica,sans-Serif" font-size="10.00"> m_list</text>
</g>
<!-- Node6 -->
<g id="node4" class="node"><title>Node6</title>
<polygon fill="white" stroke="#bfbfbf" points="0,-67.5 0,-86.5 107,-86.5 107,-67.5 0,-67.5"/>
<text text-anchor="middle" x="53.5" y="-74.5" font-family="Helvetica,sans-Serif" font-size="10.00">QList&lt; SectionInfo &gt;</text>
</g>
<!-- Node6&#45;&gt;Node5 -->
<g id="edge3" class="edge"><title>Node6&#45;&gt;Node5</title>
<path fill="none" stroke="midnightblue" d="M78.7487,-62.451C92.3046,-55.1856 109.306,-46.088 124.5,-38 135.997,-31.8803 148.969,-25.0133 158.953,-19.7361"/>
<polygon fill="midnightblue" stroke="midnightblue" points="76.721,-59.5667 69.5619,-67.3769 80.0289,-65.7359 76.721,-59.5667"/>
</g>
<!-- Node7 -->
<g id="node5" class="node"><title>Node7</title>
<g id="a_node5"><a xlink:href="../../df/dce/class_s_list.html" target="_top" xlink:title="internal wrapper class that redirects compareValues() to the dictionary ">
<polygon fill="white" stroke="black" points="125,-67.5 125,-86.5 188,-86.5 188,-67.5 125,-67.5"/>
<text text-anchor="middle" x="156.5" y="-74.5" font-family="Helvetica,sans-Serif" font-size="10.00">SList&lt; T &gt;</text>
</a>
</g>
</g>
<!-- Node7&#45;&gt;Node5 -->
<g id="edge5" class="edge"><title>Node7&#45;&gt;Node5</title>
<path fill="none" stroke="orange" stroke-dasharray="5,2" d="M135.882,-60.5856C129.452,-53.8509 125.07,-45.7365 129.5,-38 134.193,-29.8032 142.449,-23.8519 150.684,-19.658"/>
<polygon fill="orange" stroke="orange" points="133.56,-63.2039 143.344,-67.2687 138.23,-57.9897 133.56,-63.2039"/>
<text text-anchor="middle" x="165" y="-41" font-family="Helvetica,sans-Serif" font-size="10.00"> &lt; SectionInfo &gt;</text>
</g>
<!-- Node8 -->
<g id="node6" class="node"><title>Node8</title>
<polygon fill="white" stroke="#bfbfbf" points="124.5,-134.5 124.5,-153.5 188.5,-153.5 188.5,-134.5 124.5,-134.5"/>
<text text-anchor="middle" x="156.5" y="-141.5" font-family="Helvetica,sans-Serif" font-size="10.00">QList&lt; T &gt;</text>
</g>
<!-- Node8&#45;&gt;Node7 -->
<g id="edge6" class="edge"><title>Node8&#45;&gt;Node7</title>
<path fill="none" stroke="midnightblue" d="M156.5,-124.037C156.5,-111.67 156.5,-96.1198 156.5,-86.6273"/>
<polygon fill="midnightblue" stroke="midnightblue" points="153,-124.234 156.5,-134.234 160,-124.234 153,-124.234"/>
</g>
<!-- Node9 -->
<g id="node7" class="node"><title>Node9</title>
<g id="a_node7"><a xlink:href="../../d1/d50/class_s_dict.html" target="_top" xlink:title="Ordered dictionary of elements of type T. ">
<polygon fill="white" stroke="black" points="256,-134.5 256,-153.5 321,-153.5 321,-134.5 256,-134.5"/>
<text text-anchor="middle" x="288.5" y="-141.5" font-family="Helvetica,sans-Serif" font-size="10.00">SDict&lt; T &gt;</text>
</a>
</g>
</g>
<!-- Node9&#45;&gt;Node4 -->
<g id="edge7" class="edge"><title>Node9&#45;&gt;Node4</title>
<path fill="none" stroke="orange" stroke-dasharray="5,2" d="M288.5,-124.037C288.5,-111.67 288.5,-96.1198 288.5,-86.6273"/>
<polygon fill="orange" stroke="orange" points="285,-124.234 288.5,-134.234 292,-124.234 285,-124.234"/>
<text text-anchor="middle" x="324" y="-108" font-family="Helvetica,sans-Serif" font-size="10.00"> &lt; SectionInfo &gt;</text>
</g>
</g>
</svg>
