<?xml version="1.0" encoding="UTF-8" standalone="no"?>
<!DOCTYPE svg PUBLIC "-//W3C//DTD SVG 1.1//EN"
 "http://www.w3.org/Graphics/SVG/1.1/DTD/svg11.dtd">
<!-- Generated by graphviz version 2.38.0 (20140413.2041)
 -->
<!-- Title: vhdl::parser::JJCalls Pages: 1 -->
<svg width="188pt" height="97pt"
 viewBox="0.00 0.00 188.00 97.00" xmlns="http://www.w3.org/2000/svg" xmlns:xlink="http://www.w3.org/1999/xlink">
<g id="graph0" class="graph" transform="scale(1 1) rotate(0) translate(4 93)">
<title>vhdl::parser::JJCalls</title>
<polygon fill="white" stroke="none" points="-4,4 -4,-93 184,-93 184,4 -4,4"/>
<!-- Node1 -->
<g id="node1" class="node"><title>Node1</title>
<polygon fill="#bfbfbf" stroke="black" points="-7.10543e-15,-0.5 -7.10543e-15,-19.5 107,-19.5 107,-0.5 -7.10543e-15,-0.5"/>
<text text-anchor="middle" x="53.5" y="-7.5" font-family="Helvetica,sans-Serif" font-size="10.00">vhdl::parser::JJCalls</text>
</g>
<!-- Node1&#45;&gt;Node1 -->
<g id="edge1" class="edge"><title>Node1&#45;&gt;Node1</title>
<path fill="none" stroke="#9a32cd" stroke-dasharray="5,2" d="M117.377,-14.4587C122.102,-13.4589 125,-11.9727 125,-10 125,-6.84375 117.58,-4.93274 107.132,-4.26697"/>
<polygon fill="#9a32cd" stroke="#9a32cd" points="116.624,-11.0254 107.132,-15.733 117.488,-17.9718 116.624,-11.0254"/>
<text text-anchor="middle" x="136" y="-7.5" font-family="Helvetica,sans-Serif" font-size="10.00"> next</text>
</g>
<!-- Node2 -->
<g id="node2" class="node"><title>Node2</title>
<g id="a_node2"><a xlink:href="../../dc/de7/classvhdl_1_1parser_1_1_token.html" target="_top" xlink:title="Describes the input token stream. ">
<polygon fill="white" stroke="black" points="3,-68.5 3,-87.5 104,-87.5 104,-68.5 3,-68.5"/>
<text text-anchor="middle" x="53.5" y="-75.5" font-family="Helvetica,sans-Serif" font-size="10.00">vhdl::parser::Token</text>
</a>
</g>
</g>
<!-- Node2&#45;&gt;Node1 -->
<g id="edge2" class="edge"><title>Node2&#45;&gt;Node1</title>
<path fill="none" stroke="#9a32cd" stroke-dasharray="5,2" d="M53.5,-58.0413C53.5,-45.4724 53.5,-29.5631 53.5,-19.8411"/>
<polygon fill="#9a32cd" stroke="#9a32cd" points="50.0001,-58.3716 53.5,-68.3717 57.0001,-58.3717 50.0001,-58.3716"/>
<text text-anchor="middle" x="63.5" y="-41" font-family="Helvetica,sans-Serif" font-size="10.00"> first</text>
</g>
<!-- Node2&#45;&gt;Node2 -->
<g id="edge3" class="edge"><title>Node2&#45;&gt;Node2</title>
<path fill="none" stroke="#9a32cd" stroke-dasharray="5,2" d="M114.426,-82.7999C119.112,-81.7374 122,-80.1375 122,-78 122,-74.5801 114.607,-72.5361 104.284,-71.8682"/>
<polygon fill="#9a32cd" stroke="#9a32cd" points="113.743,-79.3594 104.284,-84.1318 114.655,-86.2998 113.743,-79.3594"/>
<text text-anchor="middle" x="151" y="-81" font-family="Helvetica,sans-Serif" font-size="10.00"> next</text>
<text text-anchor="middle" x="151" y="-70" font-family="Helvetica,sans-Serif" font-size="10.00">specialToken</text>
</g>
</g>
</svg>
