<?xml version="1.0" encoding="UTF-8" standalone="no"?>
<!DOCTYPE svg PUBLIC "-//W3C//DTD SVG 1.1//EN"
 "http://www.w3.org/Graphics/SVG/1.1/DTD/svg11.dtd">
<!-- Generated by graphviz version 2.38.0 (20140413.2041)
 -->
<!-- Title: NamespaceContext::Private::Cachable Pages: 1 -->
<svg width="151pt" height="173pt"
 viewBox="0.00 0.00 151.00 173.00" xmlns="http://www.w3.org/2000/svg" xmlns:xlink="http://www.w3.org/1999/xlink">
<g id="graph0" class="graph" transform="scale(1 1) rotate(0) translate(4 169)">
<title>NamespaceContext::Private::Cachable</title>
<polygon fill="white" stroke="none" points="-4,4 -4,-169 147,-169 147,4 -4,4"/>
<!-- Node0 -->
<g id="node1" class="node"><title>Node0</title>
<polygon fill="#bfbfbf" stroke="black" points="1.5,-0.5 1.5,-30.5 141.5,-30.5 141.5,-0.5 1.5,-0.5"/>
<text text-anchor="start" x="9.5" y="-18.5" font-family="Helvetica,sans-Serif" font-size="10.00">NamespaceContext::Private</text>
<text text-anchor="middle" x="71.5" y="-7.5" font-family="Helvetica,sans-Serif" font-size="10.00">::Cachable</text>
</g>
<!-- Node1 -->
<g id="node2" class="node"><title>Node1</title>
<g id="a_node2"><a xlink:href="../../d9/d7b/struct_definition_context_1_1_cachable.html" target="_top" xlink:title="DefinitionContext\&lt;\l NamespaceContext::Private\l \&gt;::Cachable">
<polygon fill="white" stroke="black" points="0,-67.5 0,-108.5 143,-108.5 143,-67.5 0,-67.5"/>
<text text-anchor="start" x="8" y="-96.5" font-family="Helvetica,sans-Serif" font-size="10.00">DefinitionContext&lt;</text>
<text text-anchor="start" x="8" y="-85.5" font-family="Helvetica,sans-Serif" font-size="10.00"> NamespaceContext::Private</text>
<text text-anchor="middle" x="71.5" y="-74.5" font-family="Helvetica,sans-Serif" font-size="10.00"> &gt;::Cachable</text>
</a>
</g>
</g>
<!-- Node1&#45;&gt;Node0 -->
<g id="edge1" class="edge"><title>Node1&#45;&gt;Node0</title>
<path fill="none" stroke="midnightblue" d="M71.5,-57.08C71.5,-48.0061 71.5,-38.4498 71.5,-30.8916"/>
<polygon fill="midnightblue" stroke="midnightblue" points="68.0001,-57.3618 71.5,-67.3618 75.0001,-57.3619 68.0001,-57.3618"/>
</g>
<!-- Node2 -->
<g id="node3" class="node"><title>Node2</title>
<g id="a_node3"><a xlink:href="../../d1/d2f/struct_definition_1_1_cookie.html" target="_top" xlink:title="Definition::Cookie">
<polygon fill="white" stroke="black" points="24,-145.5 24,-164.5 119,-164.5 119,-145.5 24,-145.5"/>
<text text-anchor="middle" x="71.5" y="-152.5" font-family="Helvetica,sans-Serif" font-size="10.00">Definition::Cookie</text>
</a>
</g>
</g>
<!-- Node2&#45;&gt;Node1 -->
<g id="edge2" class="edge"><title>Node2&#45;&gt;Node1</title>
<path fill="none" stroke="midnightblue" d="M71.5,-135.037C71.5,-126.708 71.5,-116.936 71.5,-108.542"/>
<polygon fill="midnightblue" stroke="midnightblue" points="68.0001,-135.234 71.5,-145.234 75.0001,-135.234 68.0001,-135.234"/>
</g>
</g>
</svg>
