<?xml version="1.0" encoding="UTF-8" standalone="no"?>
<!DOCTYPE svg PUBLIC "-//W3C//DTD SVG 1.1//EN"
 "http://www.w3.org/Graphics/SVG/1.1/DTD/svg11.dtd">
<!-- Generated by graphviz version 2.38.0 (20140413.2041)
 -->
<!-- Title: src/marshal.h Pages: 1 -->
<!--zoomable 84 -->
<svg id="main" version="1.1" xmlns="http://www.w3.org/2000/svg" xmlns:xlink="http://www.w3.org/1999/xlink" xml:space="preserve" onload="init(evt)">
<style type="text/css"><![CDATA[
.edge:hover path { stroke: red; }
.edge:hover polygon { stroke: red; fill: red; }
]]></style>
<script type="text/javascript"><![CDATA[
var edges = document.getElementsByTagName('g');
if (edges && edges.length) {
  for (var i=0;i<edges.length;i++) {
    if (edges[i].id.substr(0,4)=='edge') {
      edges[i].setAttribute('class','edge');
    }
  }
}
]]></script>
        <defs>
                <circle id="rim" cx="0" cy="0" r="7"/>
                <circle id="rim2" cx="0" cy="0" r="3.5"/>
                <g id="zoomPlus">
                        <use xlink:href="#rim" fill="#404040">
                                <set attributeName="fill" to="#808080" begin="zoomplus.mouseover" end="zoomplus.mouseout"/>
                        </use>
                        <path d="M-4,0h8M0,-4v8" fill="none" stroke="white" stroke-width="1.5" pointer-events="none"/>
                </g>
                <g id="zoomMin">
                        <use xlink:href="#rim" fill="#404040">
                                <set attributeName="fill" to="#808080" begin="zoomminus.mouseover" end="zoomminus.mouseout"/>
                        </use>
                        <path d="M-4,0h8" fill="none" stroke="white" stroke-width="1.5" pointer-events="none"/>
                </g>
                <g id="dirArrow">
                        <path fill="none" stroke="white" stroke-width="1.5" d="M0,-3.0v7 M-2.5,-0.5L0,-3.0L2.5,-0.5"/>
                </g>
               <g id="resetDef">
                       <use xlink:href="#rim2" fill="#404040">
                               <set attributeName="fill" to="#808080" begin="reset.mouseover" end="reset.mouseout"/>
                       </use>
               </g>
        </defs>

<script type="text/javascript">
var viewWidth = 886;
var viewHeight = 84;
var sectionId = 'dynsection-1';
</script>
<script xlink:href="../../svgpan.js"/>
<svg id="graph" class="graph">
<g id="viewport">
<title>src/marshal.h</title>
<polygon fill="white" stroke="none" points="-4,4 -4,-80 882,-80 882,4 -4,4"/>
<!-- Node11 -->
<g id="node1" class="node"><title>Node11</title>
<polygon fill="#bfbfbf" stroke="black" points="381,-56.5 381,-75.5 457,-75.5 457,-56.5 381,-56.5"/>
<text text-anchor="middle" x="419" y="-63.5" font-family="Helvetica,sans-Serif" font-size="10.00">src/marshal.h</text>
</g>
<!-- Node12 -->
<g id="node2" class="node"><title>Node12</title>
<g id="a_node2"><a xlink:href="../../d4/dd4/arguments_8cpp.html" target="_top" xlink:title="src/arguments.cpp">
<polygon fill="white" stroke="black" points="0,-0.5 0,-19.5 98,-19.5 98,-0.5 0,-0.5"/>
<text text-anchor="middle" x="49" y="-7.5" font-family="Helvetica,sans-Serif" font-size="10.00">src/arguments.cpp</text>
</a>
</g>
</g>
<!-- Node11&#45;&gt;Node12 -->
<g id="edge1" class="edge"><title>Node11&#45;&gt;Node12</title>
<path fill="none" stroke="midnightblue" d="M370.388,-58.1529C308.994,-49.4676 200.119,-33.9396 107,-20 104.077,-19.5625 101.073,-19.1086 98.0421,-18.6477"/>
<polygon fill="midnightblue" stroke="midnightblue" points="370.163,-61.6558 380.555,-59.59 371.143,-54.7247 370.163,-61.6558"/>
</g>
<!-- Node13 -->
<g id="node3" class="node"><title>Node13</title>
<g id="a_node3"><a xlink:href="../../d3/dea/definition_8cpp.html" target="_top" xlink:title="src/definition.cpp">
<polygon fill="white" stroke="black" points="116.5,-0.5 116.5,-19.5 207.5,-19.5 207.5,-0.5 116.5,-0.5"/>
<text text-anchor="middle" x="162" y="-7.5" font-family="Helvetica,sans-Serif" font-size="10.00">src/definition.cpp</text>
</a>
</g>
</g>
<!-- Node11&#45;&gt;Node13 -->
<g id="edge2" class="edge"><title>Node11&#45;&gt;Node13</title>
<path fill="none" stroke="midnightblue" d="M370.848,-54.8825C322.292,-44.6801 248.173,-29.1065 202.531,-19.5162"/>
<polygon fill="midnightblue" stroke="midnightblue" points="370.296,-58.3428 380.802,-56.974 371.735,-51.4924 370.296,-58.3428"/>
</g>
<!-- Node14 -->
<g id="node4" class="node"><title>Node14</title>
<g id="a_node4"><a xlink:href="../../dc/d98/doxygen_8cpp.html" target="_top" xlink:title="src/doxygen.cpp">
<polygon fill="white" stroke="black" points="225.5,-0.5 225.5,-19.5 314.5,-19.5 314.5,-0.5 225.5,-0.5"/>
<text text-anchor="middle" x="270" y="-7.5" font-family="Helvetica,sans-Serif" font-size="10.00">src/doxygen.cpp</text>
</a>
</g>
</g>
<!-- Node11&#45;&gt;Node14 -->
<g id="edge3" class="edge"><title>Node11&#45;&gt;Node14</title>
<path fill="none" stroke="midnightblue" d="M385.629,-52.9058C357.616,-42.7536 318.304,-28.5063 293.499,-19.5164"/>
<polygon fill="midnightblue" stroke="midnightblue" points="384.796,-56.3267 395.391,-56.4435 387.181,-49.7456 384.796,-56.3267"/>
</g>
<!-- Node15 -->
<g id="node5" class="node"><title>Node15</title>
<g id="a_node5"><a xlink:href="../../d2/dd2/entry_8cpp.html" target="_top" xlink:title="src/entry.cpp">
<polygon fill="white" stroke="black" points="333,-0.5 333,-19.5 407,-19.5 407,-0.5 333,-0.5"/>
<text text-anchor="middle" x="370" y="-7.5" font-family="Helvetica,sans-Serif" font-size="10.00">src/entry.cpp</text>
</a>
</g>
</g>
<!-- Node11&#45;&gt;Node15 -->
<g id="edge4" class="edge"><title>Node11&#45;&gt;Node15</title>
<path fill="none" stroke="midnightblue" d="M403.966,-48.4314C395.378,-38.9673 384.957,-27.4827 377.941,-19.7511"/>
<polygon fill="midnightblue" stroke="midnightblue" points="401.597,-51.0293 410.909,-56.083 406.781,-46.3254 401.597,-51.0293"/>
</g>
<!-- Node16 -->
<g id="node6" class="node"><title>Node16</title>
<g id="a_node6"><a xlink:href="../../d9/d85/marshal_8cpp.html" target="_top" xlink:title="src/marshal.cpp">
<polygon fill="white" stroke="black" points="425,-0.5 425,-19.5 511,-19.5 511,-0.5 425,-0.5"/>
<text text-anchor="middle" x="468" y="-7.5" font-family="Helvetica,sans-Serif" font-size="10.00">src/marshal.cpp</text>
</a>
</g>
</g>
<!-- Node11&#45;&gt;Node16 -->
<g id="edge5" class="edge"><title>Node11&#45;&gt;Node16</title>
<path fill="none" stroke="midnightblue" d="M434.034,-48.4314C442.622,-38.9673 453.043,-27.4827 460.059,-19.7511"/>
<polygon fill="midnightblue" stroke="midnightblue" points="431.219,-46.3254 427.091,-56.083 436.403,-51.0293 431.219,-46.3254"/>
</g>
<!-- Node17 -->
<g id="node7" class="node"><title>Node17</title>
<g id="a_node7"><a xlink:href="../../d0/d72/memberdef_8cpp.html" target="_top" xlink:title="src/memberdef.cpp">
<polygon fill="white" stroke="black" points="529.5,-0.5 529.5,-19.5 630.5,-19.5 630.5,-0.5 529.5,-0.5"/>
<text text-anchor="middle" x="580" y="-7.5" font-family="Helvetica,sans-Serif" font-size="10.00">src/memberdef.cpp</text>
</a>
</g>
</g>
<!-- Node11&#45;&gt;Node17 -->
<g id="edge6" class="edge"><title>Node11&#45;&gt;Node17</title>
<path fill="none" stroke="midnightblue" d="M454.265,-53.172C484.581,-43.0039 527.57,-28.5852 554.608,-19.5164"/>
<polygon fill="midnightblue" stroke="midnightblue" points="452.879,-49.9452 444.511,-56.4435 455.105,-56.5819 452.879,-49.9452"/>
</g>
<!-- Node18 -->
<g id="node8" class="node"><title>Node18</title>
<g id="a_node8"><a xlink:href="../../d6/d18/membergroup_8cpp.html" target="_top" xlink:title="src/membergroup.cpp">
<polygon fill="white" stroke="black" points="648.5,-0.5 648.5,-19.5 759.5,-19.5 759.5,-0.5 648.5,-0.5"/>
<text text-anchor="middle" x="704" y="-7.5" font-family="Helvetica,sans-Serif" font-size="10.00">src/membergroup.cpp</text>
</a>
</g>
</g>
<!-- Node11&#45;&gt;Node18 -->
<g id="edge7" class="edge"><title>Node11&#45;&gt;Node18</title>
<path fill="none" stroke="midnightblue" d="M467.085,-55.8891C520.7,-45.7306 606.734,-29.4294 659.045,-19.5177"/>
<polygon fill="midnightblue" stroke="midnightblue" points="466.314,-52.4728 457.141,-57.7734 467.617,-59.3505 466.314,-52.4728"/>
</g>
<!-- Node19 -->
<g id="node9" class="node"><title>Node19</title>
<g id="a_node9"><a xlink:href="../../d0/d14/memberlist_8cpp.html" target="_top" xlink:title="src/memberlist.cpp">
<polygon fill="white" stroke="black" points="778,-0.5 778,-19.5 878,-19.5 878,-0.5 778,-0.5"/>
<text text-anchor="middle" x="828" y="-7.5" font-family="Helvetica,sans-Serif" font-size="10.00">src/memberlist.cpp</text>
</a>
</g>
</g>
<!-- Node11&#45;&gt;Node19 -->
<g id="edge8" class="edge"><title>Node11&#45;&gt;Node19</title>
<path fill="none" stroke="midnightblue" d="M467.437,-59.1375C535.03,-50.8734 661.456,-35.1139 769,-20 771.873,-19.5962 774.823,-19.1731 777.8,-18.7397"/>
<polygon fill="midnightblue" stroke="midnightblue" points="466.608,-55.7126 457.106,-60.3983 467.456,-62.6611 466.608,-55.7126"/>
</g>
</g>
</svg>
        <g id="navigator" transform="translate(0 0)" fill="#404254">
                <rect fill="#f2f5e9" fill-opacity="0.5" stroke="#606060" stroke-width=".5" x="0" y="0" width="60" height="60"/>
                <use id="zoomplus" xlink:href="#zoomPlus" x="17" y="9" onmousedown="handleZoom(evt,'in')"/>
                <use id="zoomminus" xlink:href="#zoomMin" x="42" y="9" onmousedown="handleZoom(evt,'out')"/>
                <use id="reset" xlink:href="#resetDef" x="30" y="36" onmousedown="handleReset()"/>
                <g id="arrowUp" xlink:href="#dirArrow" transform="translate(30 24)" onmousedown="handlePan(0,-1)">
                  <use xlink:href="#rim" fill="#404040">
                        <set attributeName="fill" to="#808080" begin="arrowUp.mouseover" end="arrowUp.mouseout"/>
                  </use>
                  <path fill="none" stroke="white" stroke-width="1.5" d="M0,-3.0v7 M-2.5,-0.5L0,-3.0L2.5,-0.5"/>
                </g>
                <g id="arrowRight" xlink:href="#dirArrow" transform="rotate(90) translate(36 -43)" onmousedown="handlePan(1,0)">
                  <use xlink:href="#rim" fill="#404040">
                        <set attributeName="fill" to="#808080" begin="arrowRight.mouseover" end="arrowRight.mouseout"/>
                  </use>
                  <path fill="none" stroke="white" stroke-width="1.5" d="M0,-3.0v7 M-2.5,-0.5L0,-3.0L2.5,-0.5"/>
                </g>
                <g id="arrowDown" xlink:href="#dirArrow" transform="rotate(180) translate(-30 -48)" onmousedown="handlePan(0,1)">
                  <use xlink:href="#rim" fill="#404040">
                        <set attributeName="fill" to="#808080" begin="arrowDown.mouseover" end="arrowDown.mouseout"/>
                  </use>
                  <path fill="none" stroke="white" stroke-width="1.5" d="M0,-3.0v7 M-2.5,-0.5L0,-3.0L2.5,-0.5"/>
                </g>
                <g id="arrowLeft" xlink:href="#dirArrow" transform="rotate(270) translate(-36 17)" onmousedown="handlePan(-1,0)">
                  <use xlink:href="#rim" fill="#404040">
                        <set attributeName="fill" to="#808080" begin="arrowLeft.mouseover" end="arrowLeft.mouseout"/>
                  </use>
                  <path fill="none" stroke="white" stroke-width="1.5" d="M0,-3.0v7 M-2.5,-0.5L0,-3.0L2.5,-0.5"/>
                </g>
        </g>
        <svg viewBox="0 0 15 15" width="100%" height="30px" preserveAspectRatio="xMaxYMin meet">
         <g id="arrow_out" transform="scale(0.3 0.3)">
          <a xlink:href="marshal_8h__dep__incl_org.svg" target="_base">
           <rect id="button" ry="5" rx="5" y="6" x="6" height="38" width="38"
                fill="#f2f5e9" fill-opacity="0.5" stroke="#606060" stroke-width="1.0"/>
           <path id="arrow"
             d="M 11.500037,31.436501 C 11.940474,20.09759 22.043105,11.32322 32.158766,21.979434 L 37.068811,17.246167 C 37.068811,17.246167 37.088388,32 37.088388,32 L 22.160133,31.978069 C 22.160133,31.978069 26.997745,27.140456 26.997745,27.140456 C 18.528582,18.264221 13.291696,25.230495 11.500037,31.436501 z"
             style="fill:#404040;"/>
          </a>
         </g>
        </svg>
</svg>
