<?xml version="1.0" encoding="UTF-8" standalone="no"?>
<!DOCTYPE svg PUBLIC "-//W3C//DTD SVG 1.1//EN"
 "http://www.w3.org/Graphics/SVG/1.1/DTD/svg11.dtd">
<!-- Generated by graphviz version 2.38.0 (20140413.2041)
 -->
<!-- Title: DotManager Pages: 1 -->
<svg width="466pt" height="162pt"
 viewBox="0.00 0.00 466.00 162.00" xmlns="http://www.w3.org/2000/svg" xmlns:xlink="http://www.w3.org/1999/xlink">
<g id="graph0" class="graph" transform="scale(1 1) rotate(0) translate(4 158)">
<title>DotManager</title>
<polygon fill="white" stroke="none" points="-4,4 -4,-158 462,-158 462,4 -4,4"/>
<!-- Node1 -->
<g id="node1" class="node"><title>Node1</title>
<polygon fill="#bfbfbf" stroke="black" points="45,-0.5 45,-19.5 115,-19.5 115,-0.5 45,-0.5"/>
<text text-anchor="middle" x="80" y="-7.5" font-family="Helvetica,sans-Serif" font-size="10.00">DotManager</text>
</g>
<!-- Node1&#45;&gt;Node1 -->
<g id="edge2" class="edge"><title>Node1&#45;&gt;Node1</title>
<path fill="none" stroke="#9a32cd" stroke-dasharray="5,2" d="M125.235,-14.9713C129.967,-14.0009 133,-12.3438 133,-10 133,-6.25 125.236,-4.25781 115.168,-4.02344"/>
<polygon fill="#9a32cd" stroke="#9a32cd" points="124.771,-11.5002 115.168,-15.9766 125.466,-18.4655 124.771,-11.5002"/>
<text text-anchor="middle" x="167" y="-7.5" font-family="Helvetica,sans-Serif" font-size="10.00"> m_theInstance</text>
</g>
<!-- Node2 -->
<g id="node2" class="node"><title>Node2</title>
<g id="a_node2"><a xlink:href="../../d6/dbb/class_dot_runner_queue.html" target="_top" xlink:title="Queue of dot jobs to run. ">
<polygon fill="white" stroke="black" points="0,-67.5 0,-86.5 92,-86.5 92,-67.5 0,-67.5"/>
<text text-anchor="middle" x="46" y="-74.5" font-family="Helvetica,sans-Serif" font-size="10.00">DotRunnerQueue</text>
</a>
</g>
</g>
<!-- Node2&#45;&gt;Node1 -->
<g id="edge1" class="edge"><title>Node2&#45;&gt;Node1</title>
<path fill="none" stroke="#9a32cd" stroke-dasharray="5,2" d="M44.6885,-56.9648C44.9712,-50.648 46.0979,-43.7628 49,-38 52.7879,-30.4782 59.6702,-24.154 65.9895,-19.5216"/>
<polygon fill="#9a32cd" stroke="#9a32cd" points="41.1967,-57.4255 44.8901,-67.3557 48.1954,-57.2897 41.1967,-57.4255"/>
<text text-anchor="middle" x="70.5" y="-41" font-family="Helvetica,sans-Serif" font-size="10.00"> m_queue</text>
</g>
<!-- Node3 -->
<g id="node3" class="node"><title>Node3</title>
<g id="a_node3"><a xlink:href="../../d1/d50/class_s_dict.html" target="_top" xlink:title="SDict\&lt; DotFilePatcher \&gt;">
<polygon fill="white" stroke="black" points="110.5,-67.5 110.5,-86.5 235.5,-86.5 235.5,-67.5 110.5,-67.5"/>
<text text-anchor="middle" x="173" y="-74.5" font-family="Helvetica,sans-Serif" font-size="10.00">SDict&lt; DotFilePatcher &gt;</text>
</a>
</g>
</g>
<!-- Node3&#45;&gt;Node1 -->
<g id="edge3" class="edge"><title>Node3&#45;&gt;Node1</title>
<path fill="none" stroke="#9a32cd" stroke-dasharray="5,2" d="M144.929,-62.7374C137.265,-58.693 129.116,-53.9862 122,-49 109.276,-40.0848 96.2595,-27.6993 88.1584,-19.5232"/>
<polygon fill="#9a32cd" stroke="#9a32cd" points="143.436,-65.9044 153.936,-67.3164 146.608,-59.6645 143.436,-65.9044"/>
<text text-anchor="middle" x="149.5" y="-41" font-family="Helvetica,sans-Serif" font-size="10.00"> m_dotMaps</text>
</g>
<!-- Node4 -->
<g id="node4" class="node"><title>Node4</title>
<g id="a_node4"><a xlink:href="../../df/dce/class_s_list.html" target="_top" xlink:title="SList\&lt; DotFilePatcher \&gt;">
<polygon fill="white" stroke="black" points="230,-0.5 230,-19.5 352,-19.5 352,-0.5 230,-0.5"/>
<text text-anchor="middle" x="291" y="-7.5" font-family="Helvetica,sans-Serif" font-size="10.00">SList&lt; DotFilePatcher &gt;</text>
</a>
</g>
</g>
<!-- Node3&#45;&gt;Node4 -->
<g id="edge6" class="edge"><title>Node3&#45;&gt;Node4</title>
<path fill="none" stroke="#9a32cd" stroke-dasharray="5,2" d="M181.621,-58.3282C185.939,-51.1034 191.796,-43.2315 199,-38 210.853,-29.3925 225.428,-23.5122 239.453,-19.5012"/>
<polygon fill="#9a32cd" stroke="#9a32cd" points="178.358,-57.0053 176.704,-67.4701 184.523,-60.3211 178.358,-57.0053"/>
<text text-anchor="middle" x="220.5" y="-41" font-family="Helvetica,sans-Serif" font-size="10.00"> m_owner</text>
</g>
<!-- Node4&#45;&gt;Node3 -->
<g id="edge4" class="edge"><title>Node4&#45;&gt;Node3</title>
<path fill="none" stroke="#9a32cd" stroke-dasharray="5,2" d="M275.369,-26.547C267.151,-34.0848 256.601,-42.8206 246,-49 232.691,-56.7577 216.76,-62.9604 203.18,-67.4546"/>
<polygon fill="#9a32cd" stroke="#9a32cd" points="277.893,-28.9765 282.725,-19.5475 273.068,-23.9054 277.893,-28.9765"/>
<text text-anchor="middle" x="277" y="-41" font-family="Helvetica,sans-Serif" font-size="10.00"> m_list</text>
</g>
<!-- Node5 -->
<g id="node5" class="node"><title>Node5</title>
<polygon fill="white" stroke="#bfbfbf" points="253.5,-67.5 253.5,-86.5 376.5,-86.5 376.5,-67.5 253.5,-67.5"/>
<text text-anchor="middle" x="315" y="-74.5" font-family="Helvetica,sans-Serif" font-size="10.00">QList&lt; DotFilePatcher &gt;</text>
</g>
<!-- Node5&#45;&gt;Node4 -->
<g id="edge5" class="edge"><title>Node5&#45;&gt;Node4</title>
<path fill="none" stroke="midnightblue" d="M308.268,-57.7083C305.965,-51.4565 303.372,-44.422 301,-38 298.714,-31.8105 296.126,-24.8255 294.156,-19.5109"/>
<polygon fill="midnightblue" stroke="midnightblue" points="305.04,-59.0696 311.779,-67.2445 311.609,-56.651 305.04,-59.0696"/>
</g>
<!-- Node6 -->
<g id="node6" class="node"><title>Node6</title>
<g id="a_node6"><a xlink:href="../../df/dce/class_s_list.html" target="_top" xlink:title="internal wrapper class that redirects compareValues() to the dictionary ">
<polygon fill="white" stroke="black" points="394.5,-67.5 394.5,-86.5 457.5,-86.5 457.5,-67.5 394.5,-67.5"/>
<text text-anchor="middle" x="426" y="-74.5" font-family="Helvetica,sans-Serif" font-size="10.00">SList&lt; T &gt;</text>
</a>
</g>
</g>
<!-- Node6&#45;&gt;Node4 -->
<g id="edge7" class="edge"><title>Node6&#45;&gt;Node4</title>
<path fill="none" stroke="orange" stroke-dasharray="5,2" d="M398.883,-62.9436C372.144,-50.0691 332.034,-30.7573 309.001,-19.6672"/>
<polygon fill="orange" stroke="orange" points="397.545,-66.1838 408.073,-67.3685 400.581,-59.8768 397.545,-66.1838"/>
<text text-anchor="middle" x="409.5" y="-41" font-family="Helvetica,sans-Serif" font-size="10.00"> &lt; DotFilePatcher &gt;</text>
</g>
<!-- Node7 -->
<g id="node7" class="node"><title>Node7</title>
<polygon fill="white" stroke="#bfbfbf" points="394,-134.5 394,-153.5 458,-153.5 458,-134.5 394,-134.5"/>
<text text-anchor="middle" x="426" y="-141.5" font-family="Helvetica,sans-Serif" font-size="10.00">QList&lt; T &gt;</text>
</g>
<!-- Node7&#45;&gt;Node6 -->
<g id="edge8" class="edge"><title>Node7&#45;&gt;Node6</title>
<path fill="none" stroke="midnightblue" d="M426,-124.037C426,-111.67 426,-96.1198 426,-86.6273"/>
<polygon fill="midnightblue" stroke="midnightblue" points="422.5,-124.234 426,-134.234 429.5,-124.234 422.5,-124.234"/>
</g>
<!-- Node8 -->
<g id="node8" class="node"><title>Node8</title>
<g id="a_node8"><a xlink:href="../../d1/d50/class_s_dict.html" target="_top" xlink:title="Ordered dictionary of elements of type T. ">
<polygon fill="white" stroke="black" points="140.5,-134.5 140.5,-153.5 205.5,-153.5 205.5,-134.5 140.5,-134.5"/>
<text text-anchor="middle" x="173" y="-141.5" font-family="Helvetica,sans-Serif" font-size="10.00">SDict&lt; T &gt;</text>
</a>
</g>
</g>
<!-- Node8&#45;&gt;Node3 -->
<g id="edge9" class="edge"><title>Node8&#45;&gt;Node3</title>
<path fill="none" stroke="orange" stroke-dasharray="5,2" d="M173,-124.037C173,-111.67 173,-96.1198 173,-86.6273"/>
<polygon fill="orange" stroke="orange" points="169.5,-124.234 173,-134.234 176.5,-124.234 169.5,-124.234"/>
<text text-anchor="middle" x="216.5" y="-108" font-family="Helvetica,sans-Serif" font-size="10.00"> &lt; DotFilePatcher &gt;</text>
</g>
</g>
</svg>
