<?xml version="1.0" encoding="UTF-8" standalone="no"?>
<!DOCTYPE svg PUBLIC "-//W3C//DTD SVG 1.1//EN"
 "http://www.w3.org/Graphics/SVG/1.1/DTD/svg11.dtd">
<!-- Generated by graphviz version 2.38.0 (20140413.2041)
 -->
<!-- Title: src/groupdef.h Pages: 1 -->
<!--zoomable 84 -->
<svg id="main" version="1.1" xmlns="http://www.w3.org/2000/svg" xmlns:xlink="http://www.w3.org/1999/xlink" xml:space="preserve" onload="init(evt)">
<style type="text/css"><![CDATA[
.edge:hover path { stroke: red; }
.edge:hover polygon { stroke: red; fill: red; }
]]></style>
<script type="text/javascript"><![CDATA[
var edges = document.getElementsByTagName('g');
if (edges && edges.length) {
  for (var i=0;i<edges.length;i++) {
    if (edges[i].id.substr(0,4)=='edge') {
      edges[i].setAttribute('class','edge');
    }
  }
}
]]></script>
        <defs>
                <circle id="rim" cx="0" cy="0" r="7"/>
                <circle id="rim2" cx="0" cy="0" r="3.5"/>
                <g id="zoomPlus">
                        <use xlink:href="#rim" fill="#404040">
                                <set attributeName="fill" to="#808080" begin="zoomplus.mouseover" end="zoomplus.mouseout"/>
                        </use>
                        <path d="M-4,0h8M0,-4v8" fill="none" stroke="white" stroke-width="1.5" pointer-events="none"/>
                </g>
                <g id="zoomMin">
                        <use xlink:href="#rim" fill="#404040">
                                <set attributeName="fill" to="#808080" begin="zoomminus.mouseover" end="zoomminus.mouseout"/>
                        </use>
                        <path d="M-4,0h8" fill="none" stroke="white" stroke-width="1.5" pointer-events="none"/>
                </g>
                <g id="dirArrow">
                        <path fill="none" stroke="white" stroke-width="1.5" d="M0,-3.0v7 M-2.5,-0.5L0,-3.0L2.5,-0.5"/>
                </g>
               <g id="resetDef">
                       <use xlink:href="#rim2" fill="#404040">
                               <set attributeName="fill" to="#808080" begin="reset.mouseover" end="reset.mouseout"/>
                       </use>
               </g>
        </defs>

<script type="text/javascript">
var viewWidth = 2759;
var viewHeight = 84;
var sectionId = 'dynsection-1';
</script>
<script xlink:href="../../svgpan.js"/>
<svg id="graph" class="graph">
<g id="viewport">
<title>src/groupdef.h</title>
<polygon fill="white" stroke="none" points="-4,4 -4,-80 2755,-80 2755,4 -4,4"/>
<!-- Node8 -->
<g id="node1" class="node"><title>Node8</title>
<polygon fill="#bfbfbf" stroke="black" points="1314,-56.5 1314,-75.5 1393,-75.5 1393,-56.5 1314,-56.5"/>
<text text-anchor="middle" x="1353.5" y="-63.5" font-family="Helvetica,sans-Serif" font-size="10.00">src/groupdef.h</text>
</g>
<!-- Node9 -->
<g id="node2" class="node"><title>Node9</title>
<g id="a_node2"><a xlink:href="../../de/d89/classdef_8cpp.html" target="_top" xlink:title="src/classdef.cpp">
<polygon fill="white" stroke="black" points="0,-0.5 0,-19.5 89,-19.5 89,-0.5 0,-0.5"/>
<text text-anchor="middle" x="44.5" y="-7.5" font-family="Helvetica,sans-Serif" font-size="10.00">src/classdef.cpp</text>
</a>
</g>
</g>
<!-- Node8&#45;&gt;Node9 -->
<g id="edge1" class="edge"><title>Node8&#45;&gt;Node9</title>
<path fill="none" stroke="midnightblue" d="M1303.7,-64.0978C1101.04,-60.2895 337.654,-44.5834 97.5,-20 94.8075,-19.7244 92.0448,-19.3957 89.2625,-19.0295"/>
<polygon fill="midnightblue" stroke="midnightblue" points="1303.7,-67.5982 1313.76,-64.2856 1303.83,-60.5994 1303.7,-67.5982"/>
</g>
<!-- Node10 -->
<g id="node3" class="node"><title>Node10</title>
<g id="a_node3"><a xlink:href="../../d6/d10/classlist_8cpp.html" target="_top" xlink:title="src/classlist.cpp">
<polygon fill="white" stroke="black" points="106.5,-0.5 106.5,-19.5 194.5,-19.5 194.5,-0.5 106.5,-0.5"/>
<text text-anchor="middle" x="150.5" y="-7.5" font-family="Helvetica,sans-Serif" font-size="10.00">src/classlist.cpp</text>
</a>
</g>
</g>
<!-- Node8&#45;&gt;Node10 -->
<g id="edge2" class="edge"><title>Node8&#45;&gt;Node10</title>
<path fill="none" stroke="midnightblue" d="M1303.88,-65.3412C1143.94,-65.9537 627.673,-64.1274 203.5,-20 200.622,-19.7006 197.664,-19.3418 194.688,-18.9423"/>
<polygon fill="midnightblue" stroke="midnightblue" points="1303.91,-68.8412 1313.9,-65.2978 1303.88,-61.8413 1303.91,-68.8412"/>
</g>
<!-- Node11 -->
<g id="node4" class="node"><title>Node11</title>
<g id="a_node4"><a xlink:href="../../db/d12/context_8cpp.html" target="_top" xlink:title="src/context.cpp">
<polygon fill="white" stroke="black" points="212.5,-0.5 212.5,-19.5 296.5,-19.5 296.5,-0.5 212.5,-0.5"/>
<text text-anchor="middle" x="254.5" y="-7.5" font-family="Helvetica,sans-Serif" font-size="10.00">src/context.cpp</text>
</a>
</g>
</g>
<!-- Node8&#45;&gt;Node11 -->
<g id="edge3" class="edge"><title>Node8&#45;&gt;Node11</title>
<path fill="none" stroke="midnightblue" d="M1303.54,-65.1848C1152.54,-65.244 687.814,-61.7577 305.5,-20 302.64,-19.6876 299.698,-19.3127 296.739,-18.8958"/>
<polygon fill="midnightblue" stroke="midnightblue" points="1303.86,-68.6846 1313.86,-65.1749 1303.86,-61.6846 1303.86,-68.6846"/>
</g>
<!-- Node12 -->
<g id="node5" class="node"><title>Node12</title>
<g id="a_node5"><a xlink:href="../../d3/dea/definition_8cpp.html" target="_top" xlink:title="src/definition.cpp">
<polygon fill="white" stroke="black" points="315,-0.5 315,-19.5 406,-19.5 406,-0.5 315,-0.5"/>
<text text-anchor="middle" x="360.5" y="-7.5" font-family="Helvetica,sans-Serif" font-size="10.00">src/definition.cpp</text>
</a>
</g>
</g>
<!-- Node8&#45;&gt;Node12 -->
<g id="edge4" class="edge"><title>Node8&#45;&gt;Node12</title>
<path fill="none" stroke="midnightblue" d="M1303.58,-64.6099C1163.28,-63.0817 753.603,-55.6552 415.5,-20 412.421,-19.6753 409.252,-19.2911 406.064,-18.8675"/>
<polygon fill="midnightblue" stroke="midnightblue" points="1303.57,-68.1098 1313.6,-64.7139 1303.64,-61.1102 1303.57,-68.1098"/>
</g>
<!-- Node13 -->
<g id="node6" class="node"><title>Node13</title>
<g id="a_node6"><a xlink:href="../../d8/d29/docbookgen_8cpp.html" target="_top" xlink:title="src/docbookgen.cpp">
<polygon fill="white" stroke="black" points="424.5,-0.5 424.5,-19.5 528.5,-19.5 528.5,-0.5 424.5,-0.5"/>
<text text-anchor="middle" x="476.5" y="-7.5" font-family="Helvetica,sans-Serif" font-size="10.00">src/docbookgen.cpp</text>
</a>
</g>
</g>
<!-- Node8&#45;&gt;Node13 -->
<g id="edge5" class="edge"><title>Node8&#45;&gt;Node13</title>
<path fill="none" stroke="midnightblue" d="M1303.68,-63.8375C1176.02,-60.5153 826.864,-49.2635 537.5,-20 534.624,-19.7092 531.677,-19.3796 528.704,-19.0227"/>
<polygon fill="midnightblue" stroke="midnightblue" points="1303.83,-67.3424 1313.91,-64.0992 1304.01,-60.3447 1303.83,-67.3424"/>
</g>
<!-- Node14 -->
<g id="node7" class="node"><title>Node14</title>
<g id="a_node7"><a xlink:href="../../da/d17/docparser_8cpp.html" target="_top" xlink:title="src/docparser.cpp">
<polygon fill="white" stroke="black" points="547,-0.5 547,-19.5 642,-19.5 642,-0.5 547,-0.5"/>
<text text-anchor="middle" x="594.5" y="-7.5" font-family="Helvetica,sans-Serif" font-size="10.00">src/docparser.cpp</text>
</a>
</g>
</g>
<!-- Node8&#45;&gt;Node14 -->
<g id="edge6" class="edge"><title>Node8&#45;&gt;Node14</title>
<path fill="none" stroke="midnightblue" d="M1303.54,-63.387C1188.32,-59.3197 895.156,-46.9869 651.5,-20 648.413,-19.6581 645.238,-19.267 642.041,-18.8437"/>
<polygon fill="midnightblue" stroke="midnightblue" points="1303.69,-66.8941 1313.81,-63.7439 1303.93,-59.8984 1303.69,-66.8941"/>
</g>
<!-- Node15 -->
<g id="node8" class="node"><title>Node15</title>
<g id="a_node8"><a xlink:href="../../d7/d8f/docsets_8cpp.html" target="_top" xlink:title="src/docsets.cpp">
<polygon fill="white" stroke="black" points="660.5,-0.5 660.5,-19.5 746.5,-19.5 746.5,-0.5 660.5,-0.5"/>
<text text-anchor="middle" x="703.5" y="-7.5" font-family="Helvetica,sans-Serif" font-size="10.00">src/docsets.cpp</text>
</a>
</g>
</g>
<!-- Node8&#45;&gt;Node15 -->
<g id="edge7" class="edge"><title>Node8&#45;&gt;Node15</title>
<path fill="none" stroke="midnightblue" d="M1303.75,-62.8783C1201.01,-58.1395 958.032,-45.0881 755.5,-20 752.59,-19.6396 749.596,-19.2286 746.583,-18.7854"/>
<polygon fill="midnightblue" stroke="midnightblue" points="1303.69,-66.3788 1313.83,-63.3372 1304,-59.386 1303.69,-66.3788"/>
</g>
<!-- Node16 -->
<g id="node9" class="node"><title>Node16</title>
<g id="a_node9"><a xlink:href="../../de/daa/dot_8cpp.html" target="_top" xlink:title="src/dot.cpp">
<polygon fill="white" stroke="black" points="765,-0.5 765,-19.5 830,-19.5 830,-0.5 765,-0.5"/>
<text text-anchor="middle" x="797.5" y="-7.5" font-family="Helvetica,sans-Serif" font-size="10.00">src/dot.cpp</text>
</a>
</g>
</g>
<!-- Node8&#45;&gt;Node16 -->
<g id="edge8" class="edge"><title>Node8&#45;&gt;Node16</title>
<path fill="none" stroke="midnightblue" d="M1303.72,-62.7872C1211.51,-58.215 1008.08,-45.9101 838.5,-20 835.763,-19.5817 832.934,-19.0893 830.103,-18.554"/>
<polygon fill="midnightblue" stroke="midnightblue" points="1303.72,-66.2912 1313.88,-63.2817 1304.06,-59.2995 1303.72,-66.2912"/>
</g>
<!-- Node17 -->
<g id="node10" class="node"><title>Node17</title>
<g id="a_node10"><a xlink:href="../../dc/d98/doxygen_8cpp.html" target="_top" xlink:title="src/doxygen.cpp">
<polygon fill="white" stroke="black" points="848,-0.5 848,-19.5 937,-19.5 937,-0.5 848,-0.5"/>
<text text-anchor="middle" x="892.5" y="-7.5" font-family="Helvetica,sans-Serif" font-size="10.00">src/doxygen.cpp</text>
</a>
</g>
</g>
<!-- Node8&#45;&gt;Node17 -->
<g id="edge9" class="edge"><title>Node8&#45;&gt;Node17</title>
<path fill="none" stroke="midnightblue" d="M1303.49,-60.3652C1226.61,-53.0374 1074.79,-37.7691 946.5,-20 943.487,-19.5827 940.384,-19.1291 937.26,-18.6549"/>
<polygon fill="midnightblue" stroke="midnightblue" points="1303.55,-63.8861 1313.83,-61.346 1304.21,-56.9174 1303.55,-63.8861"/>
</g>
<!-- Node18 -->
<g id="node11" class="node"><title>Node18</title>
<g id="a_node11"><a xlink:href="../../d6/ddc/filedef_8cpp.html" target="_top" xlink:title="src/filedef.cpp">
<polygon fill="white" stroke="black" points="955.5,-0.5 955.5,-19.5 1033.5,-19.5 1033.5,-0.5 955.5,-0.5"/>
<text text-anchor="middle" x="994.5" y="-7.5" font-family="Helvetica,sans-Serif" font-size="10.00">src/filedef.cpp</text>
</a>
</g>
</g>
<!-- Node8&#45;&gt;Node18 -->
<g id="edge10" class="edge"><title>Node8&#45;&gt;Node18</title>
<path fill="none" stroke="midnightblue" d="M1303.45,-58.411C1241.91,-50.1596 1134.33,-35.2459 1042.5,-20 1039.57,-19.514 1036.55,-18.9926 1033.51,-18.4547"/>
<polygon fill="midnightblue" stroke="midnightblue" points="1303.28,-61.9193 1313.65,-59.7749 1304.2,-54.981 1303.28,-61.9193"/>
</g>
<!-- Node19 -->
<g id="node12" class="node"><title>Node19</title>
<g id="a_node12"><a xlink:href="../../d6/d42/groupdef_8cpp.html" target="_top" xlink:title="src/groupdef.cpp">
<polygon fill="white" stroke="black" points="1052,-0.5 1052,-19.5 1141,-19.5 1141,-0.5 1052,-0.5"/>
<text text-anchor="middle" x="1096.5" y="-7.5" font-family="Helvetica,sans-Serif" font-size="10.00">src/groupdef.cpp</text>
</a>
</g>
</g>
<!-- Node8&#45;&gt;Node19 -->
<g id="edge11" class="edge"><title>Node8&#45;&gt;Node19</title>
<path fill="none" stroke="midnightblue" d="M1303.93,-54.5847C1255.34,-44.3758 1182.18,-29.0036 1136.99,-19.5069"/>
<polygon fill="midnightblue" stroke="midnightblue" points="1303.4,-58.0497 1313.91,-56.6808 1304.84,-51.1993 1303.4,-58.0497"/>
</g>
<!-- Node20 -->
<g id="node13" class="node"><title>Node20</title>
<g id="a_node13"><a xlink:href="../../d3/d4b/htmlhelp_8cpp.html" target="_top" xlink:title="src/htmlhelp.cpp">
<polygon fill="white" stroke="black" points="1159,-0.5 1159,-19.5 1248,-19.5 1248,-0.5 1159,-0.5"/>
<text text-anchor="middle" x="1203.5" y="-7.5" font-family="Helvetica,sans-Serif" font-size="10.00">src/htmlhelp.cpp</text>
</a>
</g>
</g>
<!-- Node8&#45;&gt;Node20 -->
<g id="edge12" class="edge"><title>Node8&#45;&gt;Node20</title>
<path fill="none" stroke="midnightblue" d="M1320.28,-53.0392C1292.05,-42.8786 1252.24,-28.5457 1227.16,-19.5164"/>
<polygon fill="midnightblue" stroke="midnightblue" points="1319.14,-56.3494 1329.73,-56.4435 1321.51,-49.7632 1319.14,-56.3494"/>
</g>
<!-- Node21 -->
<g id="node14" class="node"><title>Node21</title>
<g id="a_node14"><a xlink:href="../../db/d14/index_8cpp.html" target="_top" xlink:title="This file contains functions for the various index pages. ">
<polygon fill="white" stroke="black" points="1266,-0.5 1266,-19.5 1341,-19.5 1341,-0.5 1266,-0.5"/>
<text text-anchor="middle" x="1303.5" y="-7.5" font-family="Helvetica,sans-Serif" font-size="10.00">src/index.cpp</text>
</a>
</g>
</g>
<!-- Node8&#45;&gt;Node21 -->
<g id="edge13" class="edge"><title>Node8&#45;&gt;Node21</title>
<path fill="none" stroke="midnightblue" d="M1338.42,-48.7175C1329.61,-39.1997 1318.83,-27.5608 1311.6,-19.7511"/>
<polygon fill="midnightblue" stroke="midnightblue" points="1335.88,-51.1233 1345.24,-56.083 1341.02,-46.3674 1335.88,-51.1233"/>
</g>
<!-- Node22 -->
<g id="node15" class="node"><title>Node22</title>
<g id="a_node15"><a xlink:href="../../d4/d42/latexgen_8cpp.html" target="_top" xlink:title="src/latexgen.cpp">
<polygon fill="white" stroke="black" points="1359,-0.5 1359,-19.5 1448,-19.5 1448,-0.5 1359,-0.5"/>
<text text-anchor="middle" x="1403.5" y="-7.5" font-family="Helvetica,sans-Serif" font-size="10.00">src/latexgen.cpp</text>
</a>
</g>
</g>
<!-- Node8&#45;&gt;Node22 -->
<g id="edge14" class="edge"><title>Node8&#45;&gt;Node22</title>
<path fill="none" stroke="midnightblue" d="M1368.58,-48.7175C1377.39,-39.1997 1388.17,-27.5608 1395.4,-19.7511"/>
<polygon fill="midnightblue" stroke="midnightblue" points="1365.98,-46.3674 1361.76,-56.083 1371.12,-51.1233 1365.98,-46.3674"/>
</g>
<!-- Node23 -->
<g id="node16" class="node"><title>Node23</title>
<g id="a_node16"><a xlink:href="../../d9/d85/marshal_8cpp.html" target="_top" xlink:title="src/marshal.cpp">
<polygon fill="white" stroke="black" points="1466.5,-0.5 1466.5,-19.5 1552.5,-19.5 1552.5,-0.5 1466.5,-0.5"/>
<text text-anchor="middle" x="1509.5" y="-7.5" font-family="Helvetica,sans-Serif" font-size="10.00">src/marshal.cpp</text>
</a>
</g>
</g>
<!-- Node8&#45;&gt;Node23 -->
<g id="edge15" class="edge"><title>Node8&#45;&gt;Node23</title>
<path fill="none" stroke="midnightblue" d="M1387.67,-53.172C1417.04,-43.0039 1458.7,-28.5852 1484.9,-19.5164"/>
<polygon fill="midnightblue" stroke="midnightblue" points="1386.52,-49.8649 1378.22,-56.4435 1388.81,-56.4798 1386.52,-49.8649"/>
</g>
<!-- Node24 -->
<g id="node17" class="node"><title>Node24</title>
<g id="a_node17"><a xlink:href="../../d0/d72/memberdef_8cpp.html" target="_top" xlink:title="src/memberdef.cpp">
<polygon fill="white" stroke="black" points="1571,-0.5 1571,-19.5 1672,-19.5 1672,-0.5 1571,-0.5"/>
<text text-anchor="middle" x="1621.5" y="-7.5" font-family="Helvetica,sans-Serif" font-size="10.00">src/memberdef.cpp</text>
</a>
</g>
</g>
<!-- Node8&#45;&gt;Node24 -->
<g id="edge16" class="edge"><title>Node8&#45;&gt;Node24</title>
<path fill="none" stroke="midnightblue" d="M1403.1,-55.0069C1453.68,-44.814 1531.34,-29.167 1579.14,-19.536"/>
<polygon fill="midnightblue" stroke="midnightblue" points="1402.16,-51.6258 1393.04,-57.0321 1403.54,-58.4879 1402.16,-51.6258"/>
</g>
<!-- Node25 -->
<g id="node18" class="node"><title>Node25</title>
<g id="a_node18"><a xlink:href="../../d6/d18/membergroup_8cpp.html" target="_top" xlink:title="src/membergroup.cpp">
<polygon fill="white" stroke="black" points="1690,-0.5 1690,-19.5 1801,-19.5 1801,-0.5 1690,-0.5"/>
<text text-anchor="middle" x="1745.5" y="-7.5" font-family="Helvetica,sans-Serif" font-size="10.00">src/membergroup.cpp</text>
</a>
</g>
</g>
<!-- Node8&#45;&gt;Node25 -->
<g id="edge17" class="edge"><title>Node8&#45;&gt;Node25</title>
<path fill="none" stroke="midnightblue" d="M1403.39,-58.208C1467.69,-49.4426 1582.94,-33.6903 1681.5,-20 1684.28,-19.614 1687.12,-19.2176 1690,-18.8165"/>
<polygon fill="midnightblue" stroke="midnightblue" points="1402.58,-54.787 1393.14,-59.6054 1403.52,-61.7229 1402.58,-54.787"/>
</g>
<!-- Node26 -->
<g id="node19" class="node"><title>Node26</title>
<g id="a_node19"><a xlink:href="../../d0/d14/memberlist_8cpp.html" target="_top" xlink:title="src/memberlist.cpp">
<polygon fill="white" stroke="black" points="1819.5,-0.5 1819.5,-19.5 1919.5,-19.5 1919.5,-0.5 1819.5,-0.5"/>
<text text-anchor="middle" x="1869.5" y="-7.5" font-family="Helvetica,sans-Serif" font-size="10.00">src/memberlist.cpp</text>
</a>
</g>
</g>
<!-- Node8&#45;&gt;Node26 -->
<g id="edge18" class="edge"><title>Node8&#45;&gt;Node26</title>
<path fill="none" stroke="midnightblue" d="M1403.03,-60.9928C1487,-54.0041 1662.61,-38.5473 1810.5,-20 1813.38,-19.639 1816.33,-19.2492 1819.31,-18.8414"/>
<polygon fill="midnightblue" stroke="midnightblue" points="1402.68,-57.5092 1393.01,-61.8227 1403.26,-64.4853 1402.68,-57.5092"/>
</g>
<!-- Node27 -->
<g id="node20" class="node"><title>Node27</title>
<g id="a_node20"><a xlink:href="../../d9/db4/pagedef_8cpp.html" target="_top" xlink:title="src/pagedef.cpp">
<polygon fill="white" stroke="black" points="1937.5,-0.5 1937.5,-19.5 2023.5,-19.5 2023.5,-0.5 1937.5,-0.5"/>
<text text-anchor="middle" x="1980.5" y="-7.5" font-family="Helvetica,sans-Serif" font-size="10.00">src/pagedef.cpp</text>
</a>
</g>
</g>
<!-- Node8&#45;&gt;Node27 -->
<g id="edge19" class="edge"><title>Node8&#45;&gt;Node27</title>
<path fill="none" stroke="midnightblue" d="M1403.11,-62.6793C1502.89,-57.6669 1734.91,-44.2751 1928.5,-20 1931.41,-19.6352 1934.4,-19.221 1937.42,-18.7754"/>
<polygon fill="midnightblue" stroke="midnightblue" points="1402.83,-59.1886 1393.02,-63.1801 1403.18,-66.18 1402.83,-59.1886"/>
</g>
<!-- Node28 -->
<g id="node21" class="node"><title>Node28</title>
<g id="a_node21"><a xlink:href="../../de/dd0/perlmodgen_8cpp.html" target="_top" xlink:title="src/perlmodgen.cpp">
<polygon fill="white" stroke="black" points="2041.5,-0.5 2041.5,-19.5 2143.5,-19.5 2143.5,-0.5 2041.5,-0.5"/>
<text text-anchor="middle" x="2092.5" y="-7.5" font-family="Helvetica,sans-Serif" font-size="10.00">src/perlmodgen.cpp</text>
</a>
</g>
</g>
<!-- Node8&#45;&gt;Node28 -->
<g id="edge20" class="edge"><title>Node8&#45;&gt;Node28</title>
<path fill="none" stroke="midnightblue" d="M1403.03,-63.123C1515.28,-58.5613 1797.58,-45.36 2032.5,-20 2035.43,-19.6835 2038.44,-19.3285 2041.47,-18.9473"/>
<polygon fill="midnightblue" stroke="midnightblue" points="1402.87,-59.6264 1393.02,-63.525 1403.15,-66.6207 1402.87,-59.6264"/>
</g>
<!-- Node29 -->
<g id="node22" class="node"><title>Node29</title>
<g id="a_node22"><a xlink:href="../../d9/d45/qhp_8cpp.html" target="_top" xlink:title="src/qhp.cpp">
<polygon fill="white" stroke="black" points="2161.5,-0.5 2161.5,-19.5 2229.5,-19.5 2229.5,-0.5 2161.5,-0.5"/>
<text text-anchor="middle" x="2195.5" y="-7.5" font-family="Helvetica,sans-Serif" font-size="10.00">src/qhp.cpp</text>
</a>
</g>
</g>
<!-- Node8&#45;&gt;Node29 -->
<g id="edge21" class="edge"><title>Node8&#45;&gt;Node29</title>
<path fill="none" stroke="midnightblue" d="M1403.3,-64.7853C1529.3,-63.6813 1870.82,-57.1962 2152.5,-20 2155.37,-19.6206 2158.34,-19.1555 2161.31,-18.6385"/>
<polygon fill="midnightblue" stroke="midnightblue" points="1403.16,-61.2862 1393.19,-64.8662 1403.21,-68.2859 1403.16,-61.2862"/>
</g>
<!-- Node30 -->
<g id="node23" class="node"><title>Node30</title>
<g id="a_node23"><a xlink:href="../../d0/d9c/rtfgen_8cpp.html" target="_top" xlink:title="src/rtfgen.cpp">
<polygon fill="white" stroke="black" points="2248,-0.5 2248,-19.5 2325,-19.5 2325,-0.5 2248,-0.5"/>
<text text-anchor="middle" x="2286.5" y="-7.5" font-family="Helvetica,sans-Serif" font-size="10.00">src/rtfgen.cpp</text>
</a>
</g>
</g>
<!-- Node8&#45;&gt;Node30 -->
<g id="edge22" class="edge"><title>Node8&#45;&gt;Node30</title>
<path fill="none" stroke="midnightblue" d="M1403.4,-64.81C1538.42,-63.7895 1922.1,-57.5338 2238.5,-20 2241.53,-19.6404 2244.66,-19.204 2247.8,-18.7195"/>
<polygon fill="midnightblue" stroke="midnightblue" points="1403.33,-61.3103 1393.35,-64.8795 1403.38,-68.3101 1403.33,-61.3103"/>
</g>
<!-- Node31 -->
<g id="node24" class="node"><title>Node31</title>
<g id="a_node24"><a xlink:href="../../d7/d79/searchindex_8cpp.html" target="_top" xlink:title="src/searchindex.cpp">
<polygon fill="white" stroke="black" points="2343.5,-0.5 2343.5,-19.5 2447.5,-19.5 2447.5,-0.5 2343.5,-0.5"/>
<text text-anchor="middle" x="2395.5" y="-7.5" font-family="Helvetica,sans-Serif" font-size="10.00">src/searchindex.cpp</text>
</a>
</g>
</g>
<!-- Node8&#45;&gt;Node31 -->
<g id="edge23" class="edge"><title>Node8&#45;&gt;Node31</title>
<path fill="none" stroke="midnightblue" d="M1403.64,-64.4799C1548.33,-62.596 1978.96,-54.2953 2334.5,-20 2337.38,-19.7225 2340.33,-19.4034 2343.3,-19.0546"/>
<polygon fill="midnightblue" stroke="midnightblue" points="1403.27,-60.9841 1393.32,-64.6096 1403.36,-67.9835 1403.27,-60.9841"/>
</g>
<!-- Node32 -->
<g id="node25" class="node"><title>Node32</title>
<g id="a_node25"><a xlink:href="../../df/d2d/util_8cpp.html" target="_top" xlink:title="src/util.cpp">
<polygon fill="white" stroke="black" points="2466,-0.5 2466,-19.5 2531,-19.5 2531,-0.5 2466,-0.5"/>
<text text-anchor="middle" x="2498.5" y="-7.5" font-family="Helvetica,sans-Serif" font-size="10.00">src/util.cpp</text>
</a>
</g>
</g>
<!-- Node8&#45;&gt;Node32 -->
<g id="edge24" class="edge"><title>Node8&#45;&gt;Node32</title>
<path fill="none" stroke="midnightblue" d="M1403.27,-64.0968C1589.94,-60.5337 2248.43,-46.3421 2456.5,-20 2459.46,-19.6253 2462.52,-19.148 2465.58,-18.6093"/>
<polygon fill="midnightblue" stroke="midnightblue" points="1403.12,-60.5988 1393.19,-64.2875 1403.26,-67.5975 1403.12,-60.5988"/>
</g>
<!-- Node33 -->
<g id="node26" class="node"><title>Node33</title>
<g id="a_node26"><a xlink:href="../../de/dea/vhdldocgen_8cpp.html" target="_top" xlink:title="src/vhdldocgen.cpp">
<polygon fill="white" stroke="black" points="2549,-0.5 2549,-19.5 2650,-19.5 2650,-0.5 2549,-0.5"/>
<text text-anchor="middle" x="2599.5" y="-7.5" font-family="Helvetica,sans-Serif" font-size="10.00">src/vhdldocgen.cpp</text>
</a>
</g>
</g>
<!-- Node8&#45;&gt;Node33 -->
<g id="edge25" class="edge"><title>Node8&#45;&gt;Node33</title>
<path fill="none" stroke="midnightblue" d="M1403.27,-65.1311C1566.62,-65.1306 2101.05,-61.7114 2540.5,-20 2543.18,-19.7454 2545.93,-19.4497 2548.7,-19.1239"/>
<polygon fill="midnightblue" stroke="midnightblue" points="1403.06,-61.6311 1393.06,-65.1266 1403.05,-68.6311 1403.06,-61.6311"/>
</g>
<!-- Node34 -->
<g id="node27" class="node"><title>Node34</title>
<g id="a_node27"><a xlink:href="../../d0/dc3/xmlgen_8cpp.html" target="_top" xlink:title="src/xmlgen.cpp">
<polygon fill="white" stroke="black" points="2668,-0.5 2668,-19.5 2751,-19.5 2751,-0.5 2668,-0.5"/>
<text text-anchor="middle" x="2709.5" y="-7.5" font-family="Helvetica,sans-Serif" font-size="10.00">src/xmlgen.cpp</text>
</a>
</g>
</g>
<!-- Node8&#45;&gt;Node34 -->
<g id="edge26" class="edge"><title>Node8&#45;&gt;Node34</title>
<path fill="none" stroke="midnightblue" d="M1403.23,-64.2431C1610.84,-60.936 2409.09,-46.711 2659.5,-20 2662.22,-19.71 2665.01,-19.3582 2667.82,-18.964"/>
<polygon fill="midnightblue" stroke="midnightblue" points="1403.17,-60.7435 1393.23,-64.4013 1403.28,-67.7427 1403.17,-60.7435"/>
</g>
</g>
</svg>
        <g id="navigator" transform="translate(0 0)" fill="#404254">
                <rect fill="#f2f5e9" fill-opacity="0.5" stroke="#606060" stroke-width=".5" x="0" y="0" width="60" height="60"/>
                <use id="zoomplus" xlink:href="#zoomPlus" x="17" y="9" onmousedown="handleZoom(evt,'in')"/>
                <use id="zoomminus" xlink:href="#zoomMin" x="42" y="9" onmousedown="handleZoom(evt,'out')"/>
                <use id="reset" xlink:href="#resetDef" x="30" y="36" onmousedown="handleReset()"/>
                <g id="arrowUp" xlink:href="#dirArrow" transform="translate(30 24)" onmousedown="handlePan(0,-1)">
                  <use xlink:href="#rim" fill="#404040">
                        <set attributeName="fill" to="#808080" begin="arrowUp.mouseover" end="arrowUp.mouseout"/>
                  </use>
                  <path fill="none" stroke="white" stroke-width="1.5" d="M0,-3.0v7 M-2.5,-0.5L0,-3.0L2.5,-0.5"/>
                </g>
                <g id="arrowRight" xlink:href="#dirArrow" transform="rotate(90) translate(36 -43)" onmousedown="handlePan(1,0)">
                  <use xlink:href="#rim" fill="#404040">
                        <set attributeName="fill" to="#808080" begin="arrowRight.mouseover" end="arrowRight.mouseout"/>
                  </use>
                  <path fill="none" stroke="white" stroke-width="1.5" d="M0,-3.0v7 M-2.5,-0.5L0,-3.0L2.5,-0.5"/>
                </g>
                <g id="arrowDown" xlink:href="#dirArrow" transform="rotate(180) translate(-30 -48)" onmousedown="handlePan(0,1)">
                  <use xlink:href="#rim" fill="#404040">
                        <set attributeName="fill" to="#808080" begin="arrowDown.mouseover" end="arrowDown.mouseout"/>
                  </use>
                  <path fill="none" stroke="white" stroke-width="1.5" d="M0,-3.0v7 M-2.5,-0.5L0,-3.0L2.5,-0.5"/>
                </g>
                <g id="arrowLeft" xlink:href="#dirArrow" transform="rotate(270) translate(-36 17)" onmousedown="handlePan(-1,0)">
                  <use xlink:href="#rim" fill="#404040">
                        <set attributeName="fill" to="#808080" begin="arrowLeft.mouseover" end="arrowLeft.mouseout"/>
                  </use>
                  <path fill="none" stroke="white" stroke-width="1.5" d="M0,-3.0v7 M-2.5,-0.5L0,-3.0L2.5,-0.5"/>
                </g>
        </g>
        <svg viewBox="0 0 15 15" width="100%" height="30px" preserveAspectRatio="xMaxYMin meet">
         <g id="arrow_out" transform="scale(0.3 0.3)">
          <a xlink:href="groupdef_8h__dep__incl_org.svg" target="_base">
           <rect id="button" ry="5" rx="5" y="6" x="6" height="38" width="38"
                fill="#f2f5e9" fill-opacity="0.5" stroke="#606060" stroke-width="1.0"/>
           <path id="arrow"
             d="M 11.500037,31.436501 C 11.940474,20.09759 22.043105,11.32322 32.158766,21.979434 L 37.068811,17.246167 C 37.068811,17.246167 37.088388,32 37.088388,32 L 22.160133,31.978069 C 22.160133,31.978069 26.997745,27.140456 26.997745,27.140456 C 18.528582,18.264221 13.291696,25.230495 11.500037,31.436501 z"
             style="fill:#404040;"/>
          </a>
         </g>
        </svg>
</svg>
