<?xml version="1.0" encoding="UTF-8" standalone="no"?>
<!DOCTYPE svg PUBLIC "-//W3C//DTD SVG 1.1//EN"
 "http://www.w3.org/Graphics/SVG/1.1/DTD/svg11.dtd">
<!-- Generated by graphviz version 2.38.0 (20140413.2041)
 -->
<!-- Title: src/dot.h Pages: 1 -->
<svg width="461pt" height="140pt"
 viewBox="0.00 0.00 461.12 140.00" xmlns="http://www.w3.org/2000/svg" xmlns:xlink="http://www.w3.org/1999/xlink">
<g id="graph0" class="graph" transform="scale(1 1) rotate(0) translate(4 136)">
<title>src/dot.h</title>
<polygon fill="white" stroke="none" points="-4,4 -4,-136 457.118,-136 457.118,4 -4,4"/>
<!-- Node0 -->
<g id="node1" class="node"><title>Node0</title>
<polygon fill="#bfbfbf" stroke="black" points="231,-112.5 231,-131.5 286,-131.5 286,-112.5 231,-112.5"/>
<text text-anchor="middle" x="258.5" y="-119.5" font-family="Helvetica,sans-Serif" font-size="10.00">src/dot.h</text>
</g>
<!-- Node1 -->
<g id="node2" class="node"><title>Node1</title>
<polygon fill="white" stroke="#bfbfbf" points="0,-0.5 0,-19.5 43,-19.5 43,-0.5 0,-0.5"/>
<text text-anchor="middle" x="21.5" y="-7.5" font-family="Helvetica,sans-Serif" font-size="10.00">qlist.h</text>
</g>
<!-- Node0&#45;&gt;Node1 -->
<g id="edge1" class="edge"><title>Node0&#45;&gt;Node1</title>
<path fill="none" stroke="midnightblue" d="M230.778,-118.796C178.469,-114.087 67.9847,-101.348 40.5,-76 27.6902,-64.1858 23.3445,-44.2629 21.9559,-29.5811"/>
<polygon fill="midnightblue" stroke="midnightblue" points="25.4501,-29.3781 21.3792,-19.5966 18.4617,-29.7818 25.4501,-29.3781"/>
</g>
<!-- Node2 -->
<g id="node3" class="node"><title>Node2</title>
<polygon fill="white" stroke="#bfbfbf" points="288.5,-0.5 288.5,-19.5 334.5,-19.5 334.5,-0.5 288.5,-0.5"/>
<text text-anchor="middle" x="311.5" y="-7.5" font-family="Helvetica,sans-Serif" font-size="10.00">qdict.h</text>
</g>
<!-- Node0&#45;&gt;Node2 -->
<g id="edge2" class="edge"><title>Node0&#45;&gt;Node2</title>
<path fill="none" stroke="midnightblue" d="M286.355,-118.483C333.747,-113.561 426.857,-100.9 446.5,-76 476.069,-38.5174 393.853,-21.3704 344.937,-14.6662"/>
<polygon fill="midnightblue" stroke="midnightblue" points="345.13,-11.1622 334.764,-13.3552 344.235,-18.1048 345.13,-11.1622"/>
</g>
<!-- Node3 -->
<g id="node4" class="node"><title>Node3</title>
<polygon fill="white" stroke="#bfbfbf" points="125,-56.5 125,-75.5 212,-75.5 212,-56.5 125,-56.5"/>
<text text-anchor="middle" x="168.5" y="-63.5" font-family="Helvetica,sans-Serif" font-size="10.00">qwaitcondition.h</text>
</g>
<!-- Node0&#45;&gt;Node3 -->
<g id="edge3" class="edge"><title>Node0&#45;&gt;Node3</title>
<path fill="none" stroke="midnightblue" d="M244.04,-112.324C230,-103.9 208.452,-90.9709 191.957,-81.0741"/>
<polygon fill="midnightblue" stroke="midnightblue" points="193.3,-77.7983 182.924,-75.6545 189.698,-83.8007 193.3,-77.7983"/>
</g>
<!-- Node4 -->
<g id="node5" class="node"><title>Node4</title>
<polygon fill="white" stroke="#bfbfbf" points="230,-56.5 230,-75.5 287,-75.5 287,-56.5 230,-56.5"/>
<text text-anchor="middle" x="258.5" y="-63.5" font-family="Helvetica,sans-Serif" font-size="10.00">qmutex.h</text>
</g>
<!-- Node0&#45;&gt;Node4 -->
<g id="edge4" class="edge"><title>Node0&#45;&gt;Node4</title>
<path fill="none" stroke="midnightblue" d="M258.5,-112.083C258.5,-105.006 258.5,-94.8611 258.5,-85.9865"/>
<polygon fill="midnightblue" stroke="midnightblue" points="262,-85.751 258.5,-75.7511 255,-85.7511 262,-85.751"/>
</g>
<!-- Node5 -->
<g id="node6" class="node"><title>Node5</title>
<polygon fill="white" stroke="#bfbfbf" points="305.5,-56.5 305.5,-75.5 361.5,-75.5 361.5,-56.5 305.5,-56.5"/>
<text text-anchor="middle" x="333.5" y="-63.5" font-family="Helvetica,sans-Serif" font-size="10.00">qqueue.h</text>
</g>
<!-- Node0&#45;&gt;Node5 -->
<g id="edge5" class="edge"><title>Node0&#45;&gt;Node5</title>
<path fill="none" stroke="midnightblue" d="M270.55,-112.324C281.963,-104.107 299.331,-91.6017 312.935,-81.8069"/>
<polygon fill="midnightblue" stroke="midnightblue" points="315.16,-84.5174 321.231,-75.8339 311.07,-78.8366 315.16,-84.5174"/>
</g>
<!-- Node6 -->
<g id="node7" class="node"><title>Node6</title>
<polygon fill="white" stroke="#bfbfbf" points="380,-56.5 380,-75.5 437,-75.5 437,-56.5 380,-56.5"/>
<text text-anchor="middle" x="408.5" y="-63.5" font-family="Helvetica,sans-Serif" font-size="10.00">qthread.h</text>
</g>
<!-- Node0&#45;&gt;Node6 -->
<g id="edge6" class="edge"><title>Node0&#45;&gt;Node6</title>
<path fill="none" stroke="midnightblue" d="M282.268,-112.444C307.393,-103.399 347.211,-89.064 375.4,-78.9158"/>
<polygon fill="midnightblue" stroke="midnightblue" points="376.62,-82.1968 384.843,-75.5164 374.249,-75.6106 376.62,-82.1968"/>
</g>
<!-- Node7 -->
<g id="node8" class="node"><title>Node7</title>
<g id="a_node8"><a xlink:href="../../d9/d21/sortdict_8h.html" target="_top" xlink:title="sortdict.h">
<polygon fill="white" stroke="black" points="50,-56.5 50,-75.5 107,-75.5 107,-56.5 50,-56.5"/>
<text text-anchor="middle" x="78.5" y="-63.5" font-family="Helvetica,sans-Serif" font-size="10.00">sortdict.h</text>
</a>
</g>
</g>
<!-- Node0&#45;&gt;Node7 -->
<g id="edge7" class="edge"><title>Node0&#45;&gt;Node7</title>
<path fill="none" stroke="midnightblue" d="M230.769,-112.681C200.163,-103.499 150.71,-88.6631 116.507,-78.402"/>
<polygon fill="midnightblue" stroke="midnightblue" points="117.44,-75.0281 106.856,-75.5069 115.429,-81.7328 117.44,-75.0281"/>
</g>
<!-- Node7&#45;&gt;Node1 -->
<g id="edge8" class="edge"><title>Node7&#45;&gt;Node1</title>
<path fill="none" stroke="midnightblue" d="M69.342,-56.324C60.9985,-48.4196 48.4676,-36.5482 38.3231,-26.9377"/>
<polygon fill="midnightblue" stroke="midnightblue" points="40.4913,-24.1705 30.8247,-19.8339 35.6771,-29.2522 40.4913,-24.1705"/>
</g>
<!-- Node7&#45;&gt;Node2 -->
<g id="edge9" class="edge"><title>Node7&#45;&gt;Node2</title>
<path fill="none" stroke="midnightblue" d="M107.174,-57.9864C109.987,-57.3102 112.798,-56.6388 115.5,-56 172.733,-42.4698 239.508,-27.2621 278.488,-18.4424"/>
<polygon fill="midnightblue" stroke="midnightblue" points="279.263,-21.8556 288.245,-16.2368 277.72,-15.0278 279.263,-21.8556"/>
</g>
<!-- Node8 -->
<g id="node9" class="node"><title>Node8</title>
<polygon fill="white" stroke="#bfbfbf" points="61.5,-0.5 61.5,-19.5 117.5,-19.5 117.5,-0.5 61.5,-0.5"/>
<text text-anchor="middle" x="89.5" y="-7.5" font-family="Helvetica,sans-Serif" font-size="10.00">qintdict.h</text>
</g>
<!-- Node7&#45;&gt;Node8 -->
<g id="edge10" class="edge"><title>Node7&#45;&gt;Node8</title>
<path fill="none" stroke="midnightblue" d="M80.3164,-56.083C81.7741,-48.9272 83.8706,-38.6353 85.6925,-29.6911"/>
<polygon fill="midnightblue" stroke="midnightblue" points="89.1508,-30.2485 87.7174,-19.7511 82.2917,-28.8512 89.1508,-30.2485"/>
</g>
</g>
</svg>
