<?xml version="1.0" encoding="UTF-8" standalone="no"?>
<!DOCTYPE svg PUBLIC "-//W3C//DTD SVG 1.1//EN"
 "http://www.w3.org/Graphics/SVG/1.1/DTD/svg11.dtd">
<!-- Generated by graphviz version 2.38.0 (20140413.2041)
 -->
<!-- Title: Translator Pages: 1 -->
<svg width="1670pt" height="1035pt"
 viewBox="0.00 0.00 1670.00 1035.00" xmlns="http://www.w3.org/2000/svg" xmlns:xlink="http://www.w3.org/1999/xlink">
<g id="graph0" class="graph" transform="scale(1 1) rotate(0) translate(4 1031)">
<title>Translator</title>
<polygon fill="white" stroke="none" points="-4,4 -4,-1031 1666,-1031 1666,4 -4,4"/>
<!-- Node0 -->
<g id="node1" class="node"><title>Node0</title>
<polygon fill="#bfbfbf" stroke="black" points="0,-323.5 0,-342.5 60,-342.5 60,-323.5 0,-323.5"/>
<text text-anchor="middle" x="30" y="-330.5" font-family="Helvetica,sans-Serif" font-size="10.00">Translator</text>
</g>
<!-- Node1 -->
<g id="node2" class="node"><title>Node1</title>
<g id="a_node2"><a xlink:href="../../db/d6c/class_translator_adapter_base.html" target="_top" xlink:title="Base of the translator adapter tree. ">
<polygon fill="white" stroke="black" points="107,-646.5 107,-665.5 223,-665.5 223,-646.5 107,-646.5"/>
<text text-anchor="middle" x="165" y="-653.5" font-family="Helvetica,sans-Serif" font-size="10.00">TranslatorAdapterBase</text>
</a>
</g>
</g>
<!-- Node0&#45;&gt;Node1 -->
<g id="edge1" class="edge"><title>Node0&#45;&gt;Node1</title>
<path fill="none" stroke="midnightblue" d="M32.6041,-352.888C37.8981,-413.65 56.7582,-595.254 96,-637 99.6101,-640.84 103.926,-643.927 108.609,-646.404"/>
<polygon fill="midnightblue" stroke="midnightblue" points="36.0744,-352.386 31.7478,-342.715 29.0991,-352.974 36.0744,-352.386"/>
</g>
<!-- Node33 -->
<g id="node31" class="node"><title>Node33</title>
<g id="a_node31"><a xlink:href="../../d2/d4c/class_translator_brazilian.html" target="_top" xlink:title="TranslatorBrazilian">
<polygon fill="white" stroke="black" points="116,-608.5 116,-627.5 214,-627.5 214,-608.5 116,-608.5"/>
<text text-anchor="middle" x="165" y="-615.5" font-family="Helvetica,sans-Serif" font-size="10.00">TranslatorBrazilian</text>
</a>
</g>
</g>
<!-- Node0&#45;&gt;Node33 -->
<g id="edge30" class="edge"><title>Node0&#45;&gt;Node33</title>
<path fill="none" stroke="midnightblue" d="M33.2629,-352.896C39.9652,-408.412 61.432,-563.279 96,-599 101.456,-604.637 108.433,-608.644 115.831,-611.482"/>
<polygon fill="midnightblue" stroke="midnightblue" points="36.7005,-352.159 32.0573,-342.636 29.7483,-352.976 36.7005,-352.159"/>
</g>
<!-- Node34 -->
<g id="node32" class="node"><title>Node34</title>
<g id="a_node32"><a xlink:href="../../d6/db6/class_translator_chinese.html" target="_top" xlink:title="TranslatorChinese">
<polygon fill="white" stroke="black" points="117,-570.5 117,-589.5 213,-589.5 213,-570.5 117,-570.5"/>
<text text-anchor="middle" x="165" y="-577.5" font-family="Helvetica,sans-Serif" font-size="10.00">TranslatorChinese</text>
</a>
</g>
</g>
<!-- Node0&#45;&gt;Node34 -->
<g id="edge31" class="edge"><title>Node0&#45;&gt;Node34</title>
<path fill="none" stroke="midnightblue" d="M30.5948,-353.152C30.8492,-397.292 37.8712,-503.176 96,-561 101.736,-566.706 109.034,-570.732 116.707,-573.566"/>
<polygon fill="midnightblue" stroke="midnightblue" points="34.0963,-352.898 30.6571,-342.877 27.0964,-352.855 34.0963,-352.898"/>
</g>
<!-- Node35 -->
<g id="node33" class="node"><title>Node35</title>
<g id="a_node33"><a xlink:href="../../dd/df6/class_translator_chinesetraditional.html" target="_top" xlink:title="TranslatorChinesetraditional">
<polygon fill="white" stroke="black" points="96,-532.5 96,-551.5 234,-551.5 234,-532.5 96,-532.5"/>
<text text-anchor="middle" x="165" y="-539.5" font-family="Helvetica,sans-Serif" font-size="10.00">TranslatorChinesetraditional</text>
</a>
</g>
</g>
<!-- Node0&#45;&gt;Node35 -->
<g id="edge32" class="edge"><title>Node0&#45;&gt;Node35</title>
<path fill="none" stroke="midnightblue" d="M31.9413,-352.901C34.862,-391.448 46.8441,-476.577 96,-523 100.099,-526.871 104.921,-529.965 110.073,-532.435"/>
<polygon fill="midnightblue" stroke="midnightblue" points="35.4102,-352.291 31.2947,-342.528 28.4237,-352.726 35.4102,-352.291"/>
</g>
<!-- Node36 -->
<g id="node34" class="node"><title>Node36</title>
<g id="a_node34"><a xlink:href="../../dd/d8a/class_translator_czech.html" target="_top" xlink:title="TranslatorCzech">
<polygon fill="white" stroke="black" points="120.5,-494.5 120.5,-513.5 209.5,-513.5 209.5,-494.5 120.5,-494.5"/>
<text text-anchor="middle" x="165" y="-501.5" font-family="Helvetica,sans-Serif" font-size="10.00">TranslatorCzech</text>
</a>
</g>
</g>
<!-- Node0&#45;&gt;Node36 -->
<g id="edge33" class="edge"><title>Node0&#45;&gt;Node36</title>
<path fill="none" stroke="midnightblue" d="M33.9107,-352.955C39.72,-385.476 55.8382,-449.805 96,-485 102.914,-491.059 111.613,-495.199 120.459,-498.023"/>
<polygon fill="midnightblue" stroke="midnightblue" points="37.3309,-352.182 32.2633,-342.878 30.4226,-353.311 37.3309,-352.182"/>
</g>
<!-- Node37 -->
<g id="node35" class="node"><title>Node37</title>
<g id="a_node35"><a xlink:href="../../d9/d1b/class_translator_dutch.html" target="_top" xlink:title="TranslatorDutch">
<polygon fill="white" stroke="black" points="122,-456.5 122,-475.5 208,-475.5 208,-456.5 122,-456.5"/>
<text text-anchor="middle" x="165" y="-463.5" font-family="Helvetica,sans-Serif" font-size="10.00">TranslatorDutch</text>
</a>
</g>
</g>
<!-- Node0&#45;&gt;Node37 -->
<g id="edge34" class="edge"><title>Node0&#45;&gt;Node37</title>
<path fill="none" stroke="midnightblue" d="M36.8322,-352.269C45.545,-377.765 64.4079,-422.353 96,-447 103.442,-452.806 112.559,-456.838 121.67,-459.638"/>
<polygon fill="midnightblue" stroke="midnightblue" points="40.1203,-351.062 33.712,-342.624 33.4601,-353.216 40.1203,-351.062"/>
</g>
<!-- Node38 -->
<g id="node36" class="node"><title>Node38</title>
<g id="a_node36"><a xlink:href="../../d6/d78/class_translator_english.html" target="_top" xlink:title="TranslatorEnglish">
<polygon fill="white" stroke="black" points="119,-418.5 119,-437.5 211,-437.5 211,-418.5 119,-418.5"/>
<text text-anchor="middle" x="165" y="-425.5" font-family="Helvetica,sans-Serif" font-size="10.00">TranslatorEnglish</text>
</a>
</g>
</g>
<!-- Node0&#45;&gt;Node38 -->
<g id="edge35" class="edge"><title>Node0&#45;&gt;Node38</title>
<path fill="none" stroke="midnightblue" d="M41.981,-351.193C53.3809,-368.552 72.7819,-394.188 96,-409 102.924,-413.417 110.881,-416.823 118.857,-419.446"/>
<polygon fill="midnightblue" stroke="midnightblue" points="44.8005,-349.103 36.4975,-342.522 38.8842,-352.845 44.8005,-349.103"/>
</g>
<!-- Node41 -->
<g id="node39" class="node"><title>Node41</title>
<g id="a_node39"><a xlink:href="../../da/d1a/class_translator_french.html" target="_top" xlink:title="TranslatorFrench">
<polygon fill="white" stroke="black" points="120,-380.5 120,-399.5 210,-399.5 210,-380.5 120,-380.5"/>
<text text-anchor="middle" x="165" y="-387.5" font-family="Helvetica,sans-Serif" font-size="10.00">TranslatorFrench</text>
</a>
</g>
</g>
<!-- Node0&#45;&gt;Node41 -->
<g id="edge38" class="edge"><title>Node0&#45;&gt;Node41</title>
<path fill="none" stroke="midnightblue" d="M53.4995,-348.087C65.6834,-355.752 81.2296,-364.742 96,-371 104.578,-374.634 114.056,-377.785 123.143,-380.419"/>
<polygon fill="midnightblue" stroke="midnightblue" points="55.2083,-345.024 44.9062,-342.551 51.4172,-350.909 55.2083,-345.024"/>
</g>
<!-- Node42 -->
<g id="node40" class="node"><title>Node42</title>
<g id="a_node40"><a xlink:href="../../df/d75/class_translator_greek.html" target="_top" xlink:title="TranslatorGreek">
<polygon fill="white" stroke="black" points="122,-342.5 122,-361.5 208,-361.5 208,-342.5 122,-342.5"/>
<text text-anchor="middle" x="165" y="-349.5" font-family="Helvetica,sans-Serif" font-size="10.00">TranslatorGreek</text>
</a>
</g>
</g>
<!-- Node0&#45;&gt;Node42 -->
<g id="edge39" class="edge"><title>Node0&#45;&gt;Node42</title>
<path fill="none" stroke="midnightblue" d="M70.3891,-338.627C86.5565,-340.937 105.303,-343.615 121.755,-345.965"/>
<polygon fill="midnightblue" stroke="midnightblue" points="70.5819,-335.119 60.1874,-337.17 69.5919,-342.049 70.5819,-335.119"/>
</g>
<!-- Node43 -->
<g id="node41" class="node"><title>Node43</title>
<g id="a_node41"><a xlink:href="../../d2/df8/class_translator_italian.html" target="_top" xlink:title="TranslatorItalian">
<polygon fill="white" stroke="black" points="122,-304.5 122,-323.5 208,-323.5 208,-304.5 122,-304.5"/>
<text text-anchor="middle" x="165" y="-311.5" font-family="Helvetica,sans-Serif" font-size="10.00">TranslatorItalian</text>
</a>
</g>
</g>
<!-- Node0&#45;&gt;Node43 -->
<g id="edge40" class="edge"><title>Node0&#45;&gt;Node43</title>
<path fill="none" stroke="midnightblue" d="M70.3891,-327.373C86.5565,-325.063 105.303,-322.385 121.755,-320.035"/>
<polygon fill="midnightblue" stroke="midnightblue" points="69.5919,-323.951 60.1874,-328.83 70.5819,-330.881 69.5919,-323.951"/>
</g>
<!-- Node44 -->
<g id="node42" class="node"><title>Node44</title>
<g id="a_node42"><a xlink:href="../../d1/d6a/class_translator_japanese.html" target="_top" xlink:title="TranslatorJapanese">
<polygon fill="white" stroke="black" points="114,-266.5 114,-285.5 216,-285.5 216,-266.5 114,-266.5"/>
<text text-anchor="middle" x="165" y="-273.5" font-family="Helvetica,sans-Serif" font-size="10.00">TranslatorJapanese</text>
</a>
</g>
</g>
<!-- Node0&#45;&gt;Node44 -->
<g id="edge41" class="edge"><title>Node0&#45;&gt;Node44</title>
<path fill="none" stroke="midnightblue" d="M53.4995,-317.913C65.6834,-310.248 81.2296,-301.258 96,-295 104.578,-291.366 114.056,-288.215 123.143,-285.581"/>
<polygon fill="midnightblue" stroke="midnightblue" points="51.4172,-315.091 44.9062,-323.449 55.2083,-320.976 51.4172,-315.091"/>
</g>
<!-- Node45 -->
<g id="node43" class="node"><title>Node45</title>
<g id="a_node43"><a xlink:href="../../db/dcc/class_translator_korean.html" target="_top" xlink:title="TranslatorKorean">
<polygon fill="white" stroke="black" points="119.5,-228.5 119.5,-247.5 210.5,-247.5 210.5,-228.5 119.5,-228.5"/>
<text text-anchor="middle" x="165" y="-235.5" font-family="Helvetica,sans-Serif" font-size="10.00">TranslatorKorean</text>
</a>
</g>
</g>
<!-- Node0&#45;&gt;Node45 -->
<g id="edge42" class="edge"><title>Node0&#45;&gt;Node45</title>
<path fill="none" stroke="midnightblue" d="M41.981,-314.807C53.3809,-297.448 72.7819,-271.812 96,-257 103.027,-252.517 111.119,-249.075 119.214,-246.437"/>
<polygon fill="midnightblue" stroke="midnightblue" points="38.8842,-313.155 36.4975,-323.478 44.8005,-316.897 38.8842,-313.155"/>
</g>
<!-- Node46 -->
<g id="node44" class="node"><title>Node46</title>
<g id="a_node44"><a xlink:href="../../dc/df2/class_translator_portuguese.html" target="_top" xlink:title="TranslatorPortuguese">
<polygon fill="white" stroke="black" points="110,-190.5 110,-209.5 220,-209.5 220,-190.5 110,-190.5"/>
<text text-anchor="middle" x="165" y="-197.5" font-family="Helvetica,sans-Serif" font-size="10.00">TranslatorPortuguese</text>
</a>
</g>
</g>
<!-- Node0&#45;&gt;Node46 -->
<g id="edge43" class="edge"><title>Node0&#45;&gt;Node46</title>
<path fill="none" stroke="midnightblue" d="M36.8322,-313.731C45.545,-288.235 64.4079,-243.647 96,-219 100.929,-215.155 106.593,-212.087 112.503,-209.641"/>
<polygon fill="midnightblue" stroke="midnightblue" points="33.4601,-312.784 33.712,-323.376 40.1203,-314.938 33.4601,-312.784"/>
</g>
<!-- Node47 -->
<g id="node45" class="node"><title>Node47</title>
<g id="a_node45"><a xlink:href="../../da/d32/class_translator_romanian.html" target="_top" xlink:title="TranslatorRomanian">
<polygon fill="white" stroke="black" points="113,-152.5 113,-171.5 217,-171.5 217,-152.5 113,-152.5"/>
<text text-anchor="middle" x="165" y="-159.5" font-family="Helvetica,sans-Serif" font-size="10.00">TranslatorRomanian</text>
</a>
</g>
</g>
<!-- Node0&#45;&gt;Node47 -->
<g id="edge44" class="edge"><title>Node0&#45;&gt;Node47</title>
<path fill="none" stroke="midnightblue" d="M33.9107,-313.045C39.72,-280.524 55.8382,-216.195 96,-181 100.886,-176.718 106.663,-173.395 112.754,-170.817"/>
<polygon fill="midnightblue" stroke="midnightblue" points="30.4226,-312.689 32.2633,-323.122 37.3309,-313.818 30.4226,-312.689"/>
</g>
<!-- Node48 -->
<g id="node46" class="node"><title>Node48</title>
<g id="a_node46"><a xlink:href="../../d0/dab/class_translator_russian.html" target="_top" xlink:title="TranslatorRussian">
<polygon fill="white" stroke="black" points="117,-114.5 117,-133.5 213,-133.5 213,-114.5 117,-114.5"/>
<text text-anchor="middle" x="165" y="-121.5" font-family="Helvetica,sans-Serif" font-size="10.00">TranslatorRussian</text>
</a>
</g>
</g>
<!-- Node0&#45;&gt;Node48 -->
<g id="edge45" class="edge"><title>Node0&#45;&gt;Node48</title>
<path fill="none" stroke="midnightblue" d="M31.9413,-313.099C34.862,-274.552 46.8441,-189.423 96,-143 101.882,-137.445 109.25,-133.492 116.948,-130.683"/>
<polygon fill="midnightblue" stroke="midnightblue" points="28.4237,-313.274 31.2947,-323.472 35.4102,-313.709 28.4237,-313.274"/>
</g>
<!-- Node49 -->
<g id="node47" class="node"><title>Node49</title>
<g id="a_node47"><a xlink:href="../../d2/d53/class_translator_slovak.html" target="_top" xlink:title="TranslatorSlovak">
<polygon fill="white" stroke="black" points="120,-76.5 120,-95.5 210,-95.5 210,-76.5 120,-76.5"/>
<text text-anchor="middle" x="165" y="-83.5" font-family="Helvetica,sans-Serif" font-size="10.00">TranslatorSlovak</text>
</a>
</g>
</g>
<!-- Node0&#45;&gt;Node49 -->
<g id="edge46" class="edge"><title>Node0&#45;&gt;Node49</title>
<path fill="none" stroke="midnightblue" d="M30.5948,-312.848C30.8492,-268.708 37.8712,-162.824 96,-105 102.518,-98.5165 111.053,-94.2011 119.864,-91.34"/>
<polygon fill="midnightblue" stroke="midnightblue" points="27.0964,-313.145 30.6571,-323.123 34.0963,-313.102 27.0964,-313.145"/>
</g>
<!-- Node50 -->
<g id="node48" class="node"><title>Node50</title>
<g id="a_node48"><a xlink:href="../../dc/d44/class_translator_spanish.html" target="_top" xlink:title="TranslatorSpanish">
<polygon fill="white" stroke="black" points="117.5,-38.5 117.5,-57.5 212.5,-57.5 212.5,-38.5 117.5,-38.5"/>
<text text-anchor="middle" x="165" y="-45.5" font-family="Helvetica,sans-Serif" font-size="10.00">TranslatorSpanish</text>
</a>
</g>
</g>
<!-- Node0&#45;&gt;Node50 -->
<g id="edge47" class="edge"><title>Node0&#45;&gt;Node50</title>
<path fill="none" stroke="midnightblue" d="M33.2629,-313.104C39.9652,-257.588 61.432,-102.721 96,-67 101.796,-61.0102 109.311,-56.8619 117.223,-53.9995"/>
<polygon fill="midnightblue" stroke="midnightblue" points="29.7483,-313.024 32.0573,-323.364 36.7005,-313.841 29.7483,-313.024"/>
</g>
<!-- Node51 -->
<g id="node49" class="node"><title>Node51</title>
<g id="a_node49"><a xlink:href="../../d5/d5c/class_translator_swedish.html" target="_top" xlink:title="TranslatorSwedish">
<polygon fill="white" stroke="black" points="116,-0.5 116,-19.5 214,-19.5 214,-0.5 116,-0.5"/>
<text text-anchor="middle" x="165" y="-7.5" font-family="Helvetica,sans-Serif" font-size="10.00">TranslatorSwedish</text>
</a>
</g>
</g>
<!-- Node0&#45;&gt;Node51 -->
<g id="edge48" class="edge"><title>Node0&#45;&gt;Node51</title>
<path fill="none" stroke="midnightblue" d="M32.6041,-313.112C37.8981,-252.35 56.7582,-70.7459 96,-29 101.373,-23.284 108.31,-19.2385 115.692,-16.3855"/>
<polygon fill="midnightblue" stroke="midnightblue" points="29.0991,-313.026 31.7478,-323.285 36.0744,-313.614 29.0991,-313.026"/>
</g>
<!-- Node2 -->
<g id="node3" class="node"><title>Node2</title>
<g id="a_node3"><a xlink:href="../../de/d2f/class_translator_adapter__1__8__4.html" target="_top" xlink:title="TranslatorAdapter_1_8_4">
<polygon fill="white" stroke="black" points="270,-646.5 270,-665.5 395,-665.5 395,-646.5 270,-646.5"/>
<text text-anchor="middle" x="332.5" y="-653.5" font-family="Helvetica,sans-Serif" font-size="10.00">TranslatorAdapter_1_8_4</text>
</a>
</g>
</g>
<!-- Node1&#45;&gt;Node2 -->
<g id="edge2" class="edge"><title>Node1&#45;&gt;Node2</title>
<path fill="none" stroke="midnightblue" d="M233.437,-656C245.517,-656 258.048,-656 269.952,-656"/>
<polygon fill="midnightblue" stroke="midnightblue" points="233.419,-652.5 223.419,-656 233.419,-659.5 233.419,-652.5"/>
</g>
<!-- Node3 -->
<g id="node4" class="node"><title>Node3</title>
<g id="a_node4"><a xlink:href="../../d2/d75/class_translator_adapter__1__8__2.html" target="_top" xlink:title="TranslatorAdapter_1_8_2">
<polygon fill="white" stroke="black" points="431,-722.5 431,-741.5 556,-741.5 556,-722.5 431,-722.5"/>
<text text-anchor="middle" x="493.5" y="-729.5" font-family="Helvetica,sans-Serif" font-size="10.00">TranslatorAdapter_1_8_2</text>
</a>
</g>
</g>
<!-- Node2&#45;&gt;Node3 -->
<g id="edge3" class="edge"><title>Node2&#45;&gt;Node3</title>
<path fill="none" stroke="midnightblue" d="M355.877,-671.082C375.15,-683.576 404.04,-701.143 431,-713 439.081,-716.554 448.032,-719.724 456.545,-722.408"/>
<polygon fill="midnightblue" stroke="midnightblue" points="357.769,-668.137 347.489,-665.571 353.924,-673.987 357.769,-668.137"/>
</g>
<!-- Node29 -->
<g id="node27" class="node"><title>Node29</title>
<g id="a_node27"><a xlink:href="../../d2/d07/class_translator_esperanto.html" target="_top" xlink:title="TranslatorEsperanto">
<polygon fill="white" stroke="black" points="441.5,-684.5 441.5,-703.5 545.5,-703.5 545.5,-684.5 441.5,-684.5"/>
<text text-anchor="middle" x="493.5" y="-691.5" font-family="Helvetica,sans-Serif" font-size="10.00">TranslatorEsperanto</text>
</a>
</g>
</g>
<!-- Node2&#45;&gt;Node29 -->
<g id="edge26" class="edge"><title>Node2&#45;&gt;Node29</title>
<path fill="none" stroke="midnightblue" d="M383.577,-667.968C405.858,-673.293 431.729,-679.476 452.666,-684.48"/>
<polygon fill="midnightblue" stroke="midnightblue" points="384.162,-664.509 373.622,-665.589 382.535,-671.318 384.162,-664.509"/>
</g>
<!-- Node30 -->
<g id="node28" class="node"><title>Node30</title>
<g id="a_node28"><a xlink:href="../../d6/d07/class_translator_german.html" target="_top" xlink:title="TranslatorGerman">
<polygon fill="white" stroke="black" points="446,-646.5 446,-665.5 541,-665.5 541,-646.5 446,-646.5"/>
<text text-anchor="middle" x="493.5" y="-653.5" font-family="Helvetica,sans-Serif" font-size="10.00">TranslatorGerman</text>
</a>
</g>
</g>
<!-- Node2&#45;&gt;Node30 -->
<g id="edge27" class="edge"><title>Node2&#45;&gt;Node30</title>
<path fill="none" stroke="midnightblue" d="M405.74,-656C419.331,-656 433.207,-656 445.762,-656"/>
<polygon fill="midnightblue" stroke="midnightblue" points="405.429,-652.5 395.429,-656 405.429,-659.5 405.429,-652.5"/>
</g>
<!-- Node31 -->
<g id="node29" class="node"><title>Node31</title>
<g id="a_node29"><a xlink:href="../../d8/d83/class_translator_latvian.html" target="_top" xlink:title="TranslatorLatvian">
<polygon fill="white" stroke="black" points="447.5,-608.5 447.5,-627.5 539.5,-627.5 539.5,-608.5 447.5,-608.5"/>
<text text-anchor="middle" x="493.5" y="-615.5" font-family="Helvetica,sans-Serif" font-size="10.00">TranslatorLatvian</text>
</a>
</g>
</g>
<!-- Node2&#45;&gt;Node31 -->
<g id="edge28" class="edge"><title>Node2&#45;&gt;Node31</title>
<path fill="none" stroke="midnightblue" d="M383.577,-644.032C405.858,-638.707 431.729,-632.524 452.666,-627.52"/>
<polygon fill="midnightblue" stroke="midnightblue" points="382.535,-640.682 373.622,-646.411 384.162,-647.491 382.535,-640.682"/>
</g>
<!-- Node32 -->
<g id="node30" class="node"><title>Node32</title>
<g id="a_node30"><a xlink:href="../../d1/d56/class_translator_ukrainian.html" target="_top" xlink:title="TranslatorUkrainian">
<polygon fill="white" stroke="black" points="443,-570.5 443,-589.5 544,-589.5 544,-570.5 443,-570.5"/>
<text text-anchor="middle" x="493.5" y="-577.5" font-family="Helvetica,sans-Serif" font-size="10.00">TranslatorUkrainian</text>
</a>
</g>
</g>
<!-- Node2&#45;&gt;Node32 -->
<g id="edge29" class="edge"><title>Node2&#45;&gt;Node32</title>
<path fill="none" stroke="midnightblue" d="M355.877,-640.918C375.15,-628.424 404.04,-610.857 431,-599 439.081,-595.446 448.032,-592.276 456.545,-589.592"/>
<polygon fill="midnightblue" stroke="midnightblue" points="353.924,-638.013 347.489,-646.429 357.769,-643.863 353.924,-638.013"/>
</g>
<!-- Node4 -->
<g id="node5" class="node"><title>Node4</title>
<g id="a_node5"><a xlink:href="../../de/d49/class_translator_adapter__1__8__0.html" target="_top" xlink:title="Adapter class for languages that only contain translations up to version 1.8.0. ">
<polygon fill="white" stroke="black" points="592,-760.5 592,-779.5 717,-779.5 717,-760.5 592,-760.5"/>
<text text-anchor="middle" x="654.5" y="-767.5" font-family="Helvetica,sans-Serif" font-size="10.00">TranslatorAdapter_1_8_0</text>
</a>
</g>
</g>
<!-- Node3&#45;&gt;Node4 -->
<g id="edge4" class="edge"><title>Node3&#45;&gt;Node4</title>
<path fill="none" stroke="midnightblue" d="M544.577,-743.968C566.858,-749.293 592.729,-755.476 613.666,-760.48"/>
<polygon fill="midnightblue" stroke="midnightblue" points="545.162,-740.509 534.622,-741.589 543.535,-747.318 545.162,-740.509"/>
</g>
<!-- Node27 -->
<g id="node25" class="node"><title>Node27</title>
<g id="a_node25"><a xlink:href="../../d9/d82/class_translator_croatian.html" target="_top" xlink:title="TranslatorCroatian">
<polygon fill="white" stroke="black" points="606,-722.5 606,-741.5 703,-741.5 703,-722.5 606,-722.5"/>
<text text-anchor="middle" x="654.5" y="-729.5" font-family="Helvetica,sans-Serif" font-size="10.00">TranslatorCroatian</text>
</a>
</g>
</g>
<!-- Node3&#45;&gt;Node27 -->
<g id="edge24" class="edge"><title>Node3&#45;&gt;Node27</title>
<path fill="none" stroke="midnightblue" d="M566.523,-732C579.828,-732 593.415,-732 605.775,-732"/>
<polygon fill="midnightblue" stroke="midnightblue" points="566.429,-728.5 556.429,-732 566.429,-735.5 566.429,-728.5"/>
</g>
<!-- Node28 -->
<g id="node26" class="node"><title>Node28</title>
<g id="a_node26"><a xlink:href="../../de/d82/class_translator_polish.html" target="_top" xlink:title="TranslatorPolish">
<polygon fill="white" stroke="black" points="611,-684.5 611,-703.5 698,-703.5 698,-684.5 611,-684.5"/>
<text text-anchor="middle" x="654.5" y="-691.5" font-family="Helvetica,sans-Serif" font-size="10.00">TranslatorPolish</text>
</a>
</g>
</g>
<!-- Node3&#45;&gt;Node28 -->
<g id="edge25" class="edge"><title>Node3&#45;&gt;Node28</title>
<path fill="none" stroke="midnightblue" d="M544.577,-720.032C566.858,-714.707 592.729,-708.524 613.666,-703.52"/>
<polygon fill="midnightblue" stroke="midnightblue" points="543.535,-716.682 534.622,-722.411 545.162,-723.491 543.535,-716.682"/>
</g>
<!-- Node5 -->
<g id="node6" class="node"><title>Node5</title>
<g id="a_node6"><a xlink:href="../../da/d24/class_translator_adapter__1__7__5.html" target="_top" xlink:title="Adapter class for languages that only contain translations up to version 1.7.5. ">
<polygon fill="white" stroke="black" points="753,-836.5 753,-855.5 878,-855.5 878,-836.5 753,-836.5"/>
<text text-anchor="middle" x="815.5" y="-843.5" font-family="Helvetica,sans-Serif" font-size="10.00">TranslatorAdapter_1_7_5</text>
</a>
</g>
</g>
<!-- Node4&#45;&gt;Node5 -->
<g id="edge5" class="edge"><title>Node4&#45;&gt;Node5</title>
<path fill="none" stroke="midnightblue" d="M677.877,-785.082C697.15,-797.576 726.04,-815.143 753,-827 761.081,-830.554 770.032,-833.724 778.545,-836.408"/>
<polygon fill="midnightblue" stroke="midnightblue" points="679.769,-782.137 669.489,-779.571 675.924,-787.987 679.769,-782.137"/>
</g>
<!-- Node23 -->
<g id="node21" class="node"><title>Node23</title>
<g id="a_node21"><a xlink:href="../../da/db8/class_translator_armenian.html" target="_top" xlink:title="TranslatorArmenian">
<polygon fill="white" stroke="black" points="765,-798.5 765,-817.5 866,-817.5 866,-798.5 765,-798.5"/>
<text text-anchor="middle" x="815.5" y="-805.5" font-family="Helvetica,sans-Serif" font-size="10.00">TranslatorArmenian</text>
</a>
</g>
</g>
<!-- Node4&#45;&gt;Node23 -->
<g id="edge20" class="edge"><title>Node4&#45;&gt;Node23</title>
<path fill="none" stroke="midnightblue" d="M705.577,-781.968C727.858,-787.293 753.729,-793.476 774.666,-798.48"/>
<polygon fill="midnightblue" stroke="midnightblue" points="706.162,-778.509 695.622,-779.589 704.535,-785.318 706.162,-778.509"/>
</g>
<!-- Node24 -->
<g id="node22" class="node"><title>Node24</title>
<g id="a_node22"><a xlink:href="../../d9/dc1/class_translator_catalan.html" target="_top" xlink:title="TranslatorCatalan">
<polygon fill="white" stroke="black" points="768.5,-760.5 768.5,-779.5 862.5,-779.5 862.5,-760.5 768.5,-760.5"/>
<text text-anchor="middle" x="815.5" y="-767.5" font-family="Helvetica,sans-Serif" font-size="10.00">TranslatorCatalan</text>
</a>
</g>
</g>
<!-- Node4&#45;&gt;Node24 -->
<g id="edge21" class="edge"><title>Node4&#45;&gt;Node24</title>
<path fill="none" stroke="midnightblue" d="M727.444,-770C741.307,-770 755.479,-770 768.254,-770"/>
<polygon fill="midnightblue" stroke="midnightblue" points="727.429,-766.5 717.429,-770 727.429,-773.5 727.429,-766.5"/>
</g>
<!-- Node25 -->
<g id="node23" class="node"><title>Node25</title>
<g id="a_node23"><a xlink:href="../../d7/d21/class_translator_danish.html" target="_top" xlink:title="TranslatorDanish">
<polygon fill="white" stroke="black" points="770,-722.5 770,-741.5 861,-741.5 861,-722.5 770,-722.5"/>
<text text-anchor="middle" x="815.5" y="-729.5" font-family="Helvetica,sans-Serif" font-size="10.00">TranslatorDanish</text>
</a>
</g>
</g>
<!-- Node4&#45;&gt;Node25 -->
<g id="edge22" class="edge"><title>Node4&#45;&gt;Node25</title>
<path fill="none" stroke="midnightblue" d="M705.577,-758.032C727.858,-752.707 753.729,-746.524 774.666,-741.52"/>
<polygon fill="midnightblue" stroke="midnightblue" points="704.535,-754.682 695.622,-760.411 706.162,-761.491 704.535,-754.682"/>
</g>
<!-- Node26 -->
<g id="node24" class="node"><title>Node26</title>
<g id="a_node24"><a xlink:href="../../df/dc8/class_translator_indonesian.html" target="_top" xlink:title="TranslatorIndonesian">
<polygon fill="white" stroke="black" points="762,-684.5 762,-703.5 869,-703.5 869,-684.5 762,-684.5"/>
<text text-anchor="middle" x="815.5" y="-691.5" font-family="Helvetica,sans-Serif" font-size="10.00">TranslatorIndonesian</text>
</a>
</g>
</g>
<!-- Node4&#45;&gt;Node26 -->
<g id="edge23" class="edge"><title>Node4&#45;&gt;Node26</title>
<path fill="none" stroke="midnightblue" d="M706.266,-756.662C710.003,-754.977 713.626,-753.097 717,-751 736.76,-738.721 733.24,-725.279 753,-713 759.17,-709.166 766.171,-706.054 773.184,-703.545"/>
<polygon fill="midnightblue" stroke="midnightblue" points="704.792,-753.482 696.816,-760.455 707.4,-759.978 704.792,-753.482"/>
</g>
<!-- Node6 -->
<g id="node7" class="node"><title>Node6</title>
<g id="a_node7"><a xlink:href="../../d7/d29/class_translator_adapter__1__6__3.html" target="_top" xlink:title="Adapter class for languages that only contain translations up to version 1.6.3. ">
<polygon fill="white" stroke="black" points="914,-874.5 914,-893.5 1039,-893.5 1039,-874.5 914,-874.5"/>
<text text-anchor="middle" x="976.5" y="-881.5" font-family="Helvetica,sans-Serif" font-size="10.00">TranslatorAdapter_1_6_3</text>
</a>
</g>
</g>
<!-- Node5&#45;&gt;Node6 -->
<g id="edge6" class="edge"><title>Node5&#45;&gt;Node6</title>
<path fill="none" stroke="midnightblue" d="M866.577,-857.968C888.858,-863.293 914.729,-869.476 935.666,-874.48"/>
<polygon fill="midnightblue" stroke="midnightblue" points="867.162,-854.509 856.622,-855.589 865.535,-861.318 867.162,-854.509"/>
</g>
<!-- Node21 -->
<g id="node19" class="node"><title>Node21</title>
<g id="a_node19"><a xlink:href="../../d5/d43/class_translator_persian.html" target="_top" xlink:title="TranslatorPersian">
<polygon fill="white" stroke="black" points="930,-836.5 930,-855.5 1023,-855.5 1023,-836.5 930,-836.5"/>
<text text-anchor="middle" x="976.5" y="-843.5" font-family="Helvetica,sans-Serif" font-size="10.00">TranslatorPersian</text>
</a>
</g>
</g>
<!-- Node5&#45;&gt;Node21 -->
<g id="edge18" class="edge"><title>Node5&#45;&gt;Node21</title>
<path fill="none" stroke="midnightblue" d="M888.548,-846C902.555,-846 916.874,-846 929.744,-846"/>
<polygon fill="midnightblue" stroke="midnightblue" points="888.429,-842.5 878.429,-846 888.429,-849.5 888.429,-842.5"/>
</g>
<!-- Node22 -->
<g id="node20" class="node"><title>Node22</title>
<g id="a_node20"><a xlink:href="../../dd/d80/class_translator_turkish.html" target="_top" xlink:title="TranslatorTurkish">
<polygon fill="white" stroke="black" points="930.5,-798.5 930.5,-817.5 1022.5,-817.5 1022.5,-798.5 930.5,-798.5"/>
<text text-anchor="middle" x="976.5" y="-805.5" font-family="Helvetica,sans-Serif" font-size="10.00">TranslatorTurkish</text>
</a>
</g>
</g>
<!-- Node5&#45;&gt;Node22 -->
<g id="edge19" class="edge"><title>Node5&#45;&gt;Node22</title>
<path fill="none" stroke="midnightblue" d="M866.577,-834.032C888.858,-828.707 914.729,-822.524 935.666,-817.52"/>
<polygon fill="midnightblue" stroke="midnightblue" points="865.535,-830.682 856.622,-836.411 867.162,-837.491 865.535,-830.682"/>
</g>
<!-- Node7 -->
<g id="node8" class="node"><title>Node7</title>
<g id="a_node8"><a xlink:href="../../d3/da1/class_translator_adapter__1__6__0.html" target="_top" xlink:title="Adapter class for languages that only contain translations up to version 1.6.0. ">
<polygon fill="white" stroke="black" points="1075,-874.5 1075,-893.5 1200,-893.5 1200,-874.5 1075,-874.5"/>
<text text-anchor="middle" x="1137.5" y="-881.5" font-family="Helvetica,sans-Serif" font-size="10.00">TranslatorAdapter_1_6_0</text>
</a>
</g>
</g>
<!-- Node6&#45;&gt;Node7 -->
<g id="edge7" class="edge"><title>Node6&#45;&gt;Node7</title>
<path fill="none" stroke="midnightblue" d="M1049.59,-884C1057.99,-884 1066.5,-884 1074.74,-884"/>
<polygon fill="midnightblue" stroke="midnightblue" points="1049.43,-880.5 1039.43,-884 1049.43,-887.5 1049.43,-880.5"/>
</g>
<!-- Node8 -->
<g id="node9" class="node"><title>Node8</title>
<g id="a_node9"><a xlink:href="../../df/dc7/class_translator_adapter__1__5__4.html" target="_top" xlink:title="Adapter class for languages that only contain translations up to version 1.5.4. ">
<polygon fill="white" stroke="black" points="1236,-988.5 1236,-1007.5 1361,-1007.5 1361,-988.5 1236,-988.5"/>
<text text-anchor="middle" x="1298.5" y="-995.5" font-family="Helvetica,sans-Serif" font-size="10.00">TranslatorAdapter_1_5_4</text>
</a>
</g>
</g>
<!-- Node7&#45;&gt;Node8 -->
<g id="edge8" class="edge"><title>Node7&#45;&gt;Node8</title>
<path fill="none" stroke="midnightblue" d="M1152,-901.494C1169.28,-922.746 1201.18,-958.313 1236,-979 1242.44,-982.824 1249.72,-985.948 1256.96,-988.476"/>
<polygon fill="midnightblue" stroke="midnightblue" points="1154.69,-899.248 1145.72,-893.602 1149.21,-903.606 1154.69,-899.248"/>
</g>
<!-- Node15 -->
<g id="node13" class="node"><title>Node15</title>
<g id="a_node13"><a xlink:href="../../d3/d65/class_translator_afrikaans.html" target="_top" xlink:title="TranslatorAfrikaans">
<polygon fill="white" stroke="black" points="1248,-950.5 1248,-969.5 1349,-969.5 1349,-950.5 1248,-950.5"/>
<text text-anchor="middle" x="1298.5" y="-957.5" font-family="Helvetica,sans-Serif" font-size="10.00">TranslatorAfrikaans</text>
</a>
</g>
</g>
<!-- Node7&#45;&gt;Node15 -->
<g id="edge12" class="edge"><title>Node7&#45;&gt;Node15</title>
<path fill="none" stroke="midnightblue" d="M1160.88,-899.082C1180.15,-911.576 1209.04,-929.143 1236,-941 1244.08,-944.554 1253.03,-947.724 1261.54,-950.408"/>
<polygon fill="midnightblue" stroke="midnightblue" points="1162.77,-896.137 1152.49,-893.571 1158.92,-901.987 1162.77,-896.137"/>
</g>
<!-- Node16 -->
<g id="node14" class="node"><title>Node16</title>
<g id="a_node14"><a xlink:href="../../de/df7/class_translator_finnish.html" target="_top" xlink:title="TranslatorFinnish">
<polygon fill="white" stroke="black" points="1252.5,-912.5 1252.5,-931.5 1344.5,-931.5 1344.5,-912.5 1252.5,-912.5"/>
<text text-anchor="middle" x="1298.5" y="-919.5" font-family="Helvetica,sans-Serif" font-size="10.00">TranslatorFinnish</text>
</a>
</g>
</g>
<!-- Node7&#45;&gt;Node16 -->
<g id="edge13" class="edge"><title>Node7&#45;&gt;Node16</title>
<path fill="none" stroke="midnightblue" d="M1188.58,-895.968C1210.86,-901.293 1236.73,-907.476 1257.67,-912.48"/>
<polygon fill="midnightblue" stroke="midnightblue" points="1189.16,-892.509 1178.62,-893.589 1187.53,-899.318 1189.16,-892.509"/>
</g>
<!-- Node17 -->
<g id="node15" class="node"><title>Node17</title>
<g id="a_node15"><a xlink:href="../../d9/ddf/class_translator_macedonian.html" target="_top" xlink:title="TranslatorMacedonian">
<polygon fill="white" stroke="black" points="1242,-874.5 1242,-893.5 1355,-893.5 1355,-874.5 1242,-874.5"/>
<text text-anchor="middle" x="1298.5" y="-881.5" font-family="Helvetica,sans-Serif" font-size="10.00">TranslatorMacedonian</text>
</a>
</g>
</g>
<!-- Node7&#45;&gt;Node17 -->
<g id="edge14" class="edge"><title>Node7&#45;&gt;Node17</title>
<path fill="none" stroke="midnightblue" d="M1210.48,-884C1221.05,-884 1231.79,-884 1241.96,-884"/>
<polygon fill="midnightblue" stroke="midnightblue" points="1210.43,-880.5 1200.43,-884 1210.43,-887.5 1210.43,-880.5"/>
</g>
<!-- Node18 -->
<g id="node16" class="node"><title>Node18</title>
<g id="a_node16"><a xlink:href="../../d5/d0a/class_translator_serbian.html" target="_top" xlink:title="TranslatorSerbian">
<polygon fill="white" stroke="black" points="1252,-836.5 1252,-855.5 1345,-855.5 1345,-836.5 1252,-836.5"/>
<text text-anchor="middle" x="1298.5" y="-843.5" font-family="Helvetica,sans-Serif" font-size="10.00">TranslatorSerbian</text>
</a>
</g>
</g>
<!-- Node7&#45;&gt;Node18 -->
<g id="edge15" class="edge"><title>Node7&#45;&gt;Node18</title>
<path fill="none" stroke="midnightblue" d="M1188.58,-872.032C1210.86,-866.707 1236.73,-860.524 1257.67,-855.52"/>
<polygon fill="midnightblue" stroke="midnightblue" points="1187.53,-868.682 1178.62,-874.411 1189.16,-875.491 1187.53,-868.682"/>
</g>
<!-- Node19 -->
<g id="node17" class="node"><title>Node19</title>
<g id="a_node17"><a xlink:href="../../dc/d03/class_translator_serbian_cyrillic.html" target="_top" xlink:title="TranslatorSerbianCyrillic">
<polygon fill="white" stroke="black" points="1237,-798.5 1237,-817.5 1360,-817.5 1360,-798.5 1237,-798.5"/>
<text text-anchor="middle" x="1298.5" y="-805.5" font-family="Helvetica,sans-Serif" font-size="10.00">TranslatorSerbianCyrillic</text>
</a>
</g>
</g>
<!-- Node7&#45;&gt;Node19 -->
<g id="edge16" class="edge"><title>Node7&#45;&gt;Node19</title>
<path fill="none" stroke="midnightblue" d="M1160.88,-868.918C1180.15,-856.424 1209.04,-838.857 1236,-827 1244.08,-823.446 1253.03,-820.276 1261.54,-817.592"/>
<polygon fill="midnightblue" stroke="midnightblue" points="1158.92,-866.013 1152.49,-874.429 1162.77,-871.863 1158.92,-866.013"/>
</g>
<!-- Node20 -->
<g id="node18" class="node"><title>Node20</title>
<g id="a_node18"><a xlink:href="../../df/d20/class_translator_vietnamese.html" target="_top" xlink:title="TranslatorVietnamese">
<polygon fill="white" stroke="black" points="1242.5,-760.5 1242.5,-779.5 1354.5,-779.5 1354.5,-760.5 1242.5,-760.5"/>
<text text-anchor="middle" x="1298.5" y="-767.5" font-family="Helvetica,sans-Serif" font-size="10.00">TranslatorVietnamese</text>
</a>
</g>
</g>
<!-- Node7&#45;&gt;Node20 -->
<g id="edge17" class="edge"><title>Node7&#45;&gt;Node20</title>
<path fill="none" stroke="midnightblue" d="M1152,-866.506C1169.28,-845.254 1201.18,-809.687 1236,-789 1242.44,-785.176 1249.72,-782.052 1256.96,-779.524"/>
<polygon fill="midnightblue" stroke="midnightblue" points="1149.21,-864.394 1145.72,-874.398 1154.69,-868.752 1149.21,-864.394"/>
</g>
<!-- Node9 -->
<g id="node10" class="node"><title>Node9</title>
<g id="a_node10"><a xlink:href="../../d4/d2b/class_translator_adapter__1__4__6.html" target="_top" xlink:title="Adapter class for languages that only contain translations up to version 1.4.6. ">
<polygon fill="white" stroke="red" points="1397,-988.5 1397,-1007.5 1522,-1007.5 1522,-988.5 1397,-988.5"/>
<text text-anchor="middle" x="1459.5" y="-995.5" font-family="Helvetica,sans-Serif" font-size="10.00">TranslatorAdapter_1_4_6</text>
</a>
</g>
</g>
<!-- Node8&#45;&gt;Node9 -->
<g id="edge9" class="edge"><title>Node8&#45;&gt;Node9</title>
<path fill="none" stroke="midnightblue" d="M1371.59,-998C1379.99,-998 1388.5,-998 1396.74,-998"/>
<polygon fill="midnightblue" stroke="midnightblue" points="1371.43,-994.5 1361.43,-998 1371.43,-1001.5 1371.43,-994.5"/>
</g>
<!-- Node10 -->
<g id="node11" class="node"><title>Node10</title>
<g id="a_node11"><a xlink:href="../../d3/de9/class_translator_arabic.html" target="_top" xlink:title="TranslatorArabic">
<polygon fill="white" stroke="black" points="1566,-1007.5 1566,-1026.5 1654,-1026.5 1654,-1007.5 1566,-1007.5"/>
<text text-anchor="middle" x="1610" y="-1014.5" font-family="Helvetica,sans-Serif" font-size="10.00">TranslatorArabic</text>
</a>
</g>
</g>
<!-- Node9&#45;&gt;Node10 -->
<g id="edge10" class="edge"><title>Node9&#45;&gt;Node10</title>
<path fill="none" stroke="midnightblue" d="M1532.23,-1007.18C1543.71,-1008.65 1555.27,-1010.13 1565.82,-1011.47"/>
<polygon fill="midnightblue" stroke="midnightblue" points="1532.55,-1003.69 1522.19,-1005.89 1531.66,-1010.63 1532.55,-1003.69"/>
</g>
<!-- Node11 -->
<g id="node12" class="node"><title>Node11</title>
<g id="a_node12"><a xlink:href="../../db/d5f/class_translator_hungarian.html" target="_top" xlink:title="TranslatorHungarian">
<polygon fill="white" stroke="black" points="1558,-969.5 1558,-988.5 1662,-988.5 1662,-969.5 1558,-969.5"/>
<text text-anchor="middle" x="1610" y="-976.5" font-family="Helvetica,sans-Serif" font-size="10.00">TranslatorHungarian</text>
</a>
</g>
</g>
<!-- Node9&#45;&gt;Node11 -->
<g id="edge11" class="edge"><title>Node9&#45;&gt;Node11</title>
<path fill="none" stroke="midnightblue" d="M1532.21,-988.824C1540.8,-987.726 1549.42,-986.622 1557.64,-985.572"/>
<polygon fill="midnightblue" stroke="midnightblue" points="1531.66,-985.366 1522.19,-990.107 1532.55,-992.31 1531.66,-985.366"/>
</g>
<!-- Node39 -->
<g id="node37" class="node"><title>Node39</title>
<g id="a_node37"><a xlink:href="../../d0/d16/class_translator_japanese_en.html" target="_top" xlink:title="TranslatorJapaneseEn">
<polygon fill="white" stroke="black" points="275.5,-437.5 275.5,-456.5 389.5,-456.5 389.5,-437.5 275.5,-437.5"/>
<text text-anchor="middle" x="332.5" y="-444.5" font-family="Helvetica,sans-Serif" font-size="10.00">TranslatorJapaneseEn</text>
</a>
</g>
</g>
<!-- Node38&#45;&gt;Node39 -->
<g id="edge36" class="edge"><title>Node38&#45;&gt;Node39</title>
<path fill="none" stroke="midnightblue" d="M221.241,-434.342C238.661,-436.342 257.917,-438.552 275.397,-440.559"/>
<polygon fill="midnightblue" stroke="midnightblue" points="221.558,-430.855 211.224,-433.192 220.759,-437.81 221.558,-430.855"/>
</g>
<!-- Node40 -->
<g id="node38" class="node"><title>Node40</title>
<g id="a_node38"><a xlink:href="../../d0/d3a/class_translator_korean_en.html" target="_top" xlink:title="TranslatorKoreanEn">
<polygon fill="white" stroke="black" points="281,-399.5 281,-418.5 384,-418.5 384,-399.5 281,-399.5"/>
<text text-anchor="middle" x="332.5" y="-406.5" font-family="Helvetica,sans-Serif" font-size="10.00">TranslatorKoreanEn</text>
</a>
</g>
</g>
<!-- Node38&#45;&gt;Node40 -->
<g id="edge37" class="edge"><title>Node38&#45;&gt;Node40</title>
<path fill="none" stroke="midnightblue" d="M221.337,-421.647C240.545,-419.442 261.974,-416.982 280.79,-414.822"/>
<polygon fill="midnightblue" stroke="midnightblue" points="220.759,-418.19 211.224,-422.808 221.558,-425.145 220.759,-418.19"/>
</g>
</g>
</svg>
