<?xml version="1.0" encoding="UTF-8" standalone="no"?>
<!DOCTYPE svg PUBLIC "-//W3C//DTD SVG 1.1//EN"
 "http://www.w3.org/Graphics/SVG/1.1/DTD/svg11.dtd">
<!-- Generated by graphviz version 2.38.0 (20140413.2041)
 -->
<!-- Title: src/msc.h Pages: 1 -->
<svg width="704pt" height="84pt"
 viewBox="0.00 0.00 704.00 84.00" xmlns="http://www.w3.org/2000/svg" xmlns:xlink="http://www.w3.org/1999/xlink">
<g id="graph0" class="graph" transform="scale(1 1) rotate(0) translate(4 80)">
<title>src/msc.h</title>
<polygon fill="white" stroke="none" points="-4,4 -4,-80 700,-80 700,4 -4,4"/>
<!-- Node1 -->
<g id="node1" class="node"><title>Node1</title>
<polygon fill="#bfbfbf" stroke="black" points="332.5,-56.5 332.5,-75.5 392.5,-75.5 392.5,-56.5 332.5,-56.5"/>
<text text-anchor="middle" x="362.5" y="-63.5" font-family="Helvetica,sans-Serif" font-size="10.00">src/msc.h</text>
</g>
<!-- Node2 -->
<g id="node2" class="node"><title>Node2</title>
<g id="a_node2"><a xlink:href="../../dc/d05/docbookvisitor_8cpp.html" target="_top" xlink:title="src/docbookvisitor.cpp">
<polygon fill="white" stroke="black" points="0,-0.5 0,-19.5 115,-19.5 115,-0.5 0,-0.5"/>
<text text-anchor="middle" x="57.5" y="-7.5" font-family="Helvetica,sans-Serif" font-size="10.00">src/docbookvisitor.cpp</text>
</a>
</g>
</g>
<!-- Node1&#45;&gt;Node2 -->
<g id="edge1" class="edge"><title>Node1&#45;&gt;Node2</title>
<path fill="none" stroke="midnightblue" d="M322.553,-57.9275C266.776,-48.0522 165.685,-30.1541 105.765,-19.5453"/>
<polygon fill="midnightblue" stroke="midnightblue" points="321.964,-61.3774 332.421,-59.6745 323.184,-54.4846 321.964,-61.3774"/>
</g>
<!-- Node3 -->
<g id="node3" class="node"><title>Node3</title>
<g id="a_node3"><a xlink:href="../../dc/d98/doxygen_8cpp.html" target="_top" xlink:title="src/doxygen.cpp">
<polygon fill="white" stroke="black" points="133,-0.5 133,-19.5 222,-19.5 222,-0.5 133,-0.5"/>
<text text-anchor="middle" x="177.5" y="-7.5" font-family="Helvetica,sans-Serif" font-size="10.00">src/doxygen.cpp</text>
</a>
</g>
</g>
<!-- Node1&#45;&gt;Node3 -->
<g id="edge2" class="edge"><title>Node1&#45;&gt;Node3</title>
<path fill="none" stroke="midnightblue" d="M323.334,-53.5677C288.435,-43.381 238.151,-28.7034 206.677,-19.5164"/>
<polygon fill="midnightblue" stroke="midnightblue" points="322.606,-57.0013 333.186,-56.4435 324.567,-50.2817 322.606,-57.0013"/>
</g>
<!-- Node4 -->
<g id="node4" class="node"><title>Node4</title>
<g id="a_node4"><a xlink:href="../../da/db0/htmldocvisitor_8cpp.html" target="_top" xlink:title="src/htmldocvisitor.cpp">
<polygon fill="white" stroke="black" points="240,-0.5 240,-19.5 353,-19.5 353,-0.5 240,-0.5"/>
<text text-anchor="middle" x="296.5" y="-7.5" font-family="Helvetica,sans-Serif" font-size="10.00">src/htmldocvisitor.cpp</text>
</a>
</g>
</g>
<!-- Node1&#45;&gt;Node4 -->
<g id="edge3" class="edge"><title>Node1&#45;&gt;Node4</title>
<path fill="none" stroke="midnightblue" d="M343.946,-49.8197C332.122,-40.1452 317.214,-27.9481 307.297,-19.8339"/>
<polygon fill="midnightblue" stroke="midnightblue" points="341.94,-52.7004 351.896,-56.324 346.373,-47.2827 341.94,-52.7004"/>
</g>
<!-- Node5 -->
<g id="node5" class="node"><title>Node5</title>
<g id="a_node5"><a xlink:href="../../d1/d4e/latexdocvisitor_8cpp.html" target="_top" xlink:title="src/latexdocvisitor.cpp">
<polygon fill="white" stroke="black" points="371,-0.5 371,-19.5 486,-19.5 486,-0.5 371,-0.5"/>
<text text-anchor="middle" x="428.5" y="-7.5" font-family="Helvetica,sans-Serif" font-size="10.00">src/latexdocvisitor.cpp</text>
</a>
</g>
</g>
<!-- Node1&#45;&gt;Node5 -->
<g id="edge4" class="edge"><title>Node1&#45;&gt;Node5</title>
<path fill="none" stroke="midnightblue" d="M381.054,-49.8197C392.878,-40.1452 407.786,-27.9481 417.703,-19.8339"/>
<polygon fill="midnightblue" stroke="midnightblue" points="378.627,-47.2827 373.104,-56.324 383.06,-52.7004 378.627,-47.2827"/>
</g>
<!-- Node6 -->
<g id="node6" class="node"><title>Node6</title>
<g id="a_node6"><a xlink:href="../../db/d33/msc_8cpp.html" target="_top" xlink:title="src/msc.cpp">
<polygon fill="white" stroke="black" points="504,-0.5 504,-19.5 575,-19.5 575,-0.5 504,-0.5"/>
<text text-anchor="middle" x="539.5" y="-7.5" font-family="Helvetica,sans-Serif" font-size="10.00">src/msc.cpp</text>
</a>
</g>
</g>
<!-- Node1&#45;&gt;Node6 -->
<g id="edge5" class="edge"><title>Node1&#45;&gt;Node6</title>
<path fill="none" stroke="midnightblue" d="M400.403,-53.4363C433.775,-43.2551 481.601,-28.664 511.585,-19.5164"/>
<polygon fill="midnightblue" stroke="midnightblue" points="399.09,-50.1777 390.546,-56.4435 401.132,-56.8731 399.09,-50.1777"/>
</g>
<!-- Node7 -->
<g id="node7" class="node"><title>Node7</title>
<g id="a_node7"><a xlink:href="../../de/d9a/rtfdocvisitor_8cpp.html" target="_top" xlink:title="src/rtfdocvisitor.cpp">
<polygon fill="white" stroke="black" points="593,-0.5 593,-19.5 696,-19.5 696,-0.5 593,-0.5"/>
<text text-anchor="middle" x="644.5" y="-7.5" font-family="Helvetica,sans-Serif" font-size="10.00">src/rtfdocvisitor.cpp</text>
</a>
</g>
</g>
<!-- Node1&#45;&gt;Node7 -->
<g id="edge6" class="edge"><title>Node1&#45;&gt;Node7</title>
<path fill="none" stroke="midnightblue" d="M402.563,-57.3283C454.674,-47.3496 545.446,-29.9678 599.758,-19.5676"/>
<polygon fill="midnightblue" stroke="midnightblue" points="401.842,-53.9027 392.679,-59.2211 403.159,-60.7778 401.842,-53.9027"/>
</g>
</g>
</svg>
