<?xml version="1.0" encoding="UTF-8" standalone="no"?>
<!DOCTYPE svg PUBLIC "-//W3C//DTD SVG 1.1//EN"
 "http://www.w3.org/Graphics/SVG/1.1/DTD/svg11.dtd">
<!-- Generated by graphviz version 2.38.0 (20140413.2041)
 -->
<!-- Title: SymbolIndexContext::Private::Cachable Pages: 1 -->
<svg width="429pt" height="376pt"
 viewBox="0.00 0.00 429.00 376.00" xmlns="http://www.w3.org/2000/svg" xmlns:xlink="http://www.w3.org/1999/xlink">
<g id="graph0" class="graph" transform="scale(1 1) rotate(0) translate(4 372)">
<title>SymbolIndexContext::Private::Cachable</title>
<polygon fill="white" stroke="none" points="-4,4 -4,-372 425,-372 425,4 -4,4"/>
<!-- Node1 -->
<g id="node1" class="node"><title>Node1</title>
<polygon fill="#bfbfbf" stroke="black" points="205,-0.5 205,-30.5 313,-30.5 313,-0.5 205,-0.5"/>
<text text-anchor="start" x="213" y="-18.5" font-family="Helvetica,sans-Serif" font-size="10.00">SymbolIndexContext</text>
<text text-anchor="middle" x="259" y="-7.5" font-family="Helvetica,sans-Serif" font-size="10.00">::Private::Cachable</text>
</g>
<!-- Node2 -->
<g id="node2" class="node"><title>Node2</title>
<g id="a_node2"><a xlink:href="../../df/d12/class_shared_ptr.html" target="_top" xlink:title="SharedPtr\&lt; SymbolGroupList\lContext \&gt;">
<polygon fill="white" stroke="black" points="187,-78.5 187,-108.5 331,-108.5 331,-78.5 187,-78.5"/>
<text text-anchor="start" x="195" y="-96.5" font-family="Helvetica,sans-Serif" font-size="10.00">SharedPtr&lt; SymbolGroupList</text>
<text text-anchor="middle" x="259" y="-85.5" font-family="Helvetica,sans-Serif" font-size="10.00">Context &gt;</text>
</a>
</g>
</g>
<!-- Node2&#45;&gt;Node1 -->
<g id="edge1" class="edge"><title>Node2&#45;&gt;Node1</title>
<path fill="none" stroke="#9a32cd" stroke-dasharray="5,2" d="M259,-68.0898C259,-55.7565 259,-41.2237 259,-30.7309"/>
<polygon fill="#9a32cd" stroke="#9a32cd" points="255.5,-68.2049 259,-78.205 262.5,-68.205 255.5,-68.2049"/>
<text text-anchor="middle" x="292.5" y="-52" font-family="Helvetica,sans-Serif" font-size="10.00"> symbolGroups</text>
</g>
<!-- Node3 -->
<g id="node3" class="node"><title>Node3</title>
<g id="a_node3"><a xlink:href="../../d1/dc6/class_symbol_group_list_context.html" target="_top" xlink:title="SymbolGroupListContext">
<polygon fill="white" stroke="black" points="86,-156.5 86,-175.5 212,-175.5 212,-156.5 86,-156.5"/>
<text text-anchor="middle" x="149" y="-163.5" font-family="Helvetica,sans-Serif" font-size="10.00">SymbolGroupListContext</text>
</a>
</g>
</g>
<!-- Node3&#45;&gt;Node2 -->
<g id="edge2" class="edge"><title>Node3&#45;&gt;Node2</title>
<path fill="none" stroke="#9a32cd" stroke-dasharray="5,2" d="M171.153,-150.802C190.33,-138.511 217.916,-120.831 237.037,-108.576"/>
<polygon fill="#9a32cd" stroke="#9a32cd" points="169.019,-148.013 162.488,-156.355 172.796,-153.906 169.019,-148.013"/>
<text text-anchor="middle" x="222" y="-130" font-family="Helvetica,sans-Serif" font-size="10.00"> m_ptr</text>
</g>
<!-- Node4 -->
<g id="node4" class="node"><title>Node4</title>
<g id="a_node4"><a xlink:href="../../d8/d96/class_ref_counted_context.html" target="_top" xlink:title="Helper class to support reference counting. ">
<polygon fill="white" stroke="black" points="0,-229 0,-248 104,-248 104,-229 0,-229"/>
<text text-anchor="middle" x="52" y="-236" font-family="Helvetica,sans-Serif" font-size="10.00">RefCountedContext</text>
</a>
</g>
</g>
<!-- Node4&#45;&gt;Node3 -->
<g id="edge3" class="edge"><title>Node4&#45;&gt;Node3</title>
<path fill="none" stroke="midnightblue" d="M72.1417,-222.861C91.7235,-208.629 120.812,-187.487 137.009,-175.715"/>
<polygon fill="midnightblue" stroke="midnightblue" points="69.9255,-220.145 63.8941,-228.855 74.041,-225.807 69.9255,-220.145"/>
</g>
<!-- Node5 -->
<g id="node5" class="node"><title>Node5</title>
<g id="a_node5"><a xlink:href="../../d6/d88/class_template_list_intf.html" target="_top" xlink:title="Abstract read&#45;only interface for a context value of type list. ">
<polygon fill="white" stroke="black" points="116.5,-348.5 116.5,-367.5 203.5,-367.5 203.5,-348.5 116.5,-348.5"/>
<text text-anchor="middle" x="160" y="-355.5" font-family="Helvetica,sans-Serif" font-size="10.00">TemplateListIntf</text>
</a>
</g>
</g>
<!-- Node5&#45;&gt;Node3 -->
<g id="edge4" class="edge"><title>Node5&#45;&gt;Node3</title>
<path fill="none" stroke="midnightblue" d="M155.585,-338.457C153.804,-330.117 151.947,-320.117 151,-311 145.702,-260.02 147.607,-198.347 148.576,-175.798"/>
<polygon fill="midnightblue" stroke="midnightblue" points="152.181,-339.271 157.802,-348.252 159.008,-337.726 152.181,-339.271"/>
</g>
<!-- Node7 -->
<g id="node7" class="node"><title>Node7</title>
<g id="a_node7"><a xlink:href="../../d6/dcb/class_generic_node_list_context.html" target="_top" xlink:title="standard template list implementation ">
<polygon fill="white" stroke="black" points="160,-291.5 160,-310.5 284,-310.5 284,-291.5 160,-291.5"/>
<text text-anchor="middle" x="222" y="-298.5" font-family="Helvetica,sans-Serif" font-size="10.00">GenericNodeListContext</text>
</a>
</g>
</g>
<!-- Node5&#45;&gt;Node7 -->
<g id="edge7" class="edge"><title>Node5&#45;&gt;Node7</title>
<path fill="none" stroke="midnightblue" d="M177.238,-341.708C188.503,-331.715 202.81,-319.024 212.176,-310.715"/>
<polygon fill="midnightblue" stroke="midnightblue" points="174.846,-339.152 169.688,-348.406 179.491,-344.388 174.846,-339.152"/>
</g>
<!-- Node6 -->
<g id="node6" class="node"><title>Node6</title>
<g id="a_node6"><a xlink:href="../../d4/d0d/class_symbol_group_list_context_1_1_private.html" target="_top" xlink:title="SymbolGroupListContext\l::Private">
<polygon fill="white" stroke="black" points="160,-223.5 160,-253.5 286,-253.5 286,-223.5 160,-223.5"/>
<text text-anchor="start" x="168" y="-241.5" font-family="Helvetica,sans-Serif" font-size="10.00">SymbolGroupListContext</text>
<text text-anchor="middle" x="223" y="-230.5" font-family="Helvetica,sans-Serif" font-size="10.00">::Private</text>
</a>
</g>
</g>
<!-- Node6&#45;&gt;Node3 -->
<g id="edge5" class="edge"><title>Node6&#45;&gt;Node3</title>
<path fill="none" stroke="#9a32cd" stroke-dasharray="5,2" d="M200.576,-216.137C186.423,-202.653 168.882,-185.942 158.335,-175.893"/>
<polygon fill="#9a32cd" stroke="#9a32cd" points="198.371,-218.87 208.025,-223.233 203.199,-213.801 198.371,-218.87"/>
<text text-anchor="middle" x="193.5" y="-197" font-family="Helvetica,sans-Serif" font-size="10.00"> p</text>
</g>
<!-- Node7&#45;&gt;Node6 -->
<g id="edge6" class="edge"><title>Node7&#45;&gt;Node6</title>
<path fill="none" stroke="midnightblue" d="M222.31,-281.215C222.457,-272.356 222.629,-261.958 222.764,-253.759"/>
<polygon fill="midnightblue" stroke="midnightblue" points="218.809,-281.275 222.143,-291.332 225.808,-281.391 218.809,-281.275"/>
</g>
<!-- Node8 -->
<g id="node8" class="node"><title>Node8</title>
<g id="a_node8"><a xlink:href="../../df/d12/class_shared_ptr.html" target="_top" xlink:title="Reference counting smart pointer. ">
<polygon fill="white" stroke="black" points="269,-156.5 269,-175.5 353,-175.5 353,-156.5 269,-156.5"/>
<text text-anchor="middle" x="311" y="-163.5" font-family="Helvetica,sans-Serif" font-size="10.00">SharedPtr&lt; T &gt;</text>
</a>
</g>
</g>
<!-- Node8&#45;&gt;Node2 -->
<g id="edge8" class="edge"><title>Node8&#45;&gt;Node2</title>
<path fill="none" stroke="orange" stroke-dasharray="5,2" d="M298.49,-148.039C289.586,-135.968 277.764,-119.94 269.382,-108.576"/>
<polygon fill="orange" stroke="orange" points="295.871,-150.385 304.624,-156.355 301.505,-146.23 295.871,-150.385"/>
<text text-anchor="middle" x="355.5" y="-130" font-family="Helvetica,sans-Serif" font-size="10.00"> &lt; SymbolGroupListContext &gt;</text>
</g>
<!-- Node9 -->
<g id="node9" class="node"><title>Node9</title>
<polygon fill="white" stroke="#bfbfbf" points="304.5,-229 304.5,-248 333.5,-248 333.5,-229 304.5,-229"/>
<text text-anchor="middle" x="319" y="-236" font-family="Helvetica,sans-Serif" font-size="10.00">T</text>
</g>
<!-- Node9&#45;&gt;Node8 -->
<g id="edge9" class="edge"><title>Node9&#45;&gt;Node8</title>
<path fill="none" stroke="#9a32cd" stroke-dasharray="5,2" d="M316.885,-218.858C315.3,-204.895 313.204,-186.426 311.989,-175.715"/>
<polygon fill="#9a32cd" stroke="#9a32cd" points="313.414,-219.314 318.019,-228.855 320.369,-218.524 313.414,-219.314"/>
<text text-anchor="middle" x="330" y="-197" font-family="Helvetica,sans-Serif" font-size="10.00"> m_ptr</text>
</g>
</g>
</svg>
