<?xml version="1.0" encoding="UTF-8" standalone="no"?>
<!DOCTYPE svg PUBLIC "-//W3C//DTD SVG 1.1//EN"
 "http://www.w3.org/Graphics/SVG/1.1/DTD/svg11.dtd">
<!-- Generated by graphviz version 2.38.0 (20140413.2041)
 -->
<!-- Title: DoxygenContext::Private Pages: 1 -->
<svg width="370pt" height="173pt"
 viewBox="0.00 0.00 369.50 173.00" xmlns="http://www.w3.org/2000/svg" xmlns:xlink="http://www.w3.org/1999/xlink">
<g id="graph0" class="graph" transform="scale(1 1) rotate(0) translate(4 169)">
<title>DoxygenContext::Private</title>
<polygon fill="white" stroke="none" points="-4,4 -4,-169 365.5,-169 365.5,4 -4,4"/>
<!-- Node1 -->
<g id="node1" class="node"><title>Node1</title>
<polygon fill="#bfbfbf" stroke="black" points="58,-0.5 58,-19.5 185,-19.5 185,-0.5 58,-0.5"/>
<text text-anchor="middle" x="121.5" y="-7.5" font-family="Helvetica,sans-Serif" font-size="10.00">DoxygenContext::Private</text>
</g>
<!-- Node2 -->
<g id="node2" class="node"><title>Node2</title>
<g id="a_node2"><a xlink:href="../../d2/d70/struct_doxygen_context_1_1_private_1_1_cachable.html" target="_top" xlink:title="DoxygenContext::Private\l::Cachable">
<polygon fill="white" stroke="black" points="0,-67.5 0,-97.5 127,-97.5 127,-67.5 0,-67.5"/>
<text text-anchor="start" x="8" y="-85.5" font-family="Helvetica,sans-Serif" font-size="10.00">DoxygenContext::Private</text>
<text text-anchor="middle" x="63.5" y="-74.5" font-family="Helvetica,sans-Serif" font-size="10.00">::Cachable</text>
</a>
</g>
</g>
<!-- Node2&#45;&gt;Node1 -->
<g id="edge1" class="edge"><title>Node2&#45;&gt;Node1</title>
<path fill="none" stroke="#9a32cd" stroke-dasharray="5,2" d="M81.6943,-59.3845C92.6759,-46.0362 106.07,-29.7556 114.184,-19.8932"/>
<polygon fill="#9a32cd" stroke="#9a32cd" points="78.8876,-57.2871 75.2372,-67.2333 84.2933,-61.7344 78.8876,-57.2871"/>
<text text-anchor="middle" x="120" y="-41" font-family="Helvetica,sans-Serif" font-size="10.00"> m_cache</text>
</g>
<!-- Node3 -->
<g id="node3" class="node"><title>Node3</title>
<g id="a_node3"><a xlink:href="../../d1/d80/class_property_mapper.html" target="_top" xlink:title="PropertyMapper\&lt; DoxygenContext\l::Private \&gt;">
<polygon fill="white" stroke="black" points="145.5,-67.5 145.5,-97.5 313.5,-97.5 313.5,-67.5 145.5,-67.5"/>
<text text-anchor="start" x="153.5" y="-85.5" font-family="Helvetica,sans-Serif" font-size="10.00">PropertyMapper&lt; DoxygenContext</text>
<text text-anchor="middle" x="229.5" y="-74.5" font-family="Helvetica,sans-Serif" font-size="10.00">::Private &gt;</text>
</a>
</g>
</g>
<!-- Node3&#45;&gt;Node1 -->
<g id="edge2" class="edge"><title>Node3&#45;&gt;Node1</title>
<path fill="none" stroke="#9a32cd" stroke-dasharray="5,2" d="M199.493,-61.912C178.166,-47.9905 150.573,-29.9781 134.573,-19.5336"/>
<polygon fill="#9a32cd" stroke="#9a32cd" points="197.617,-64.8673 207.904,-67.4027 201.444,-59.0056 197.617,-64.8673"/>
<text text-anchor="middle" x="193.5" y="-41" font-family="Helvetica,sans-Serif" font-size="10.00"> s_inst</text>
</g>
<!-- Node4 -->
<g id="node4" class="node"><title>Node4</title>
<g id="a_node4"><a xlink:href="../../d1/d80/class_property_mapper.html" target="_top" xlink:title="Helper class to map a property name to a handler member function. ">
<polygon fill="white" stroke="black" points="174.5,-145.5 174.5,-164.5 284.5,-164.5 284.5,-145.5 174.5,-145.5"/>
<text text-anchor="middle" x="229.5" y="-152.5" font-family="Helvetica,sans-Serif" font-size="10.00">PropertyMapper&lt; T &gt;</text>
</a>
</g>
</g>
<!-- Node4&#45;&gt;Node3 -->
<g id="edge3" class="edge"><title>Node4&#45;&gt;Node3</title>
<path fill="none" stroke="orange" stroke-dasharray="5,2" d="M229.5,-135.236C229.5,-123.408 229.5,-108.383 229.5,-97.5762"/>
<polygon fill="orange" stroke="orange" points="226,-135.355 229.5,-145.355 233,-135.355 226,-135.355"/>
<text text-anchor="middle" x="295.5" y="-119" font-family="Helvetica,sans-Serif" font-size="10.00"> &lt; DoxygenContext::Private &gt;</text>
</g>
</g>
</svg>
