<?xml version="1.0" encoding="UTF-8" standalone="no"?>
<!DOCTYPE svg PUBLIC "-//W3C//DTD SVG 1.1//EN"
 "http://www.w3.org/Graphics/SVG/1.1/DTD/svg11.dtd">
<!-- Generated by graphviz version 2.38.0 (20140413.2041)
 -->
<!-- Title: TemplateNodeSpaceless Pages: 1 -->
<svg width="258pt" height="220pt"
 viewBox="0.00 0.00 258.00 220.00" xmlns="http://www.w3.org/2000/svg" xmlns:xlink="http://www.w3.org/1999/xlink">
<g id="graph0" class="graph" transform="scale(1 1) rotate(0) translate(4 216)">
<title>TemplateNodeSpaceless</title>
<polygon fill="white" stroke="none" points="-4,4 -4,-216 254,-216 254,4 -4,4"/>
<!-- Node0 -->
<g id="node1" class="node"><title>Node0</title>
<polygon fill="#bfbfbf" stroke="black" points="9,-0.5 9,-19.5 135,-19.5 135,-0.5 9,-0.5"/>
<text text-anchor="middle" x="72" y="-7.5" font-family="Helvetica,sans-Serif" font-size="10.00">TemplateNodeSpaceless</text>
</g>
<!-- Node1 -->
<g id="node2" class="node"><title>Node1</title>
<g id="a_node2"><a xlink:href="../../d8/d78/class_template_node_creator.html" target="_top" xlink:title="TemplateNodeCreator\l\&lt; TemplateNodeSpaceless \&gt;">
<polygon fill="white" stroke="black" points="0,-57.5 0,-87.5 144,-87.5 144,-57.5 0,-57.5"/>
<text text-anchor="start" x="8" y="-75.5" font-family="Helvetica,sans-Serif" font-size="10.00">TemplateNodeCreator</text>
<text text-anchor="middle" x="72" y="-64.5" font-family="Helvetica,sans-Serif" font-size="10.00">&lt; TemplateNodeSpaceless &gt;</text>
</a>
</g>
</g>
<!-- Node1&#45;&gt;Node0 -->
<g id="edge1" class="edge"><title>Node1&#45;&gt;Node0</title>
<path fill="none" stroke="midnightblue" d="M72,-47.3524C72,-37.5132 72,-26.7753 72,-19.5399"/>
<polygon fill="midnightblue" stroke="midnightblue" points="68.5001,-47.468 72,-57.468 75.5001,-47.4681 68.5001,-47.468"/>
</g>
<!-- Node2 -->
<g id="node3" class="node"><title>Node2</title>
<g id="a_node3"><a xlink:href="../../d6/d53/class_template_node.html" target="_top" xlink:title="Base class of all nodes in a template&#39;s AST. ">
<polygon fill="white" stroke="black" points="46,-192.5 46,-211.5 126,-211.5 126,-192.5 46,-192.5"/>
<text text-anchor="middle" x="86" y="-199.5" font-family="Helvetica,sans-Serif" font-size="10.00">TemplateNode</text>
</a>
</g>
</g>
<!-- Node2&#45;&gt;Node1 -->
<g id="edge2" class="edge"><title>Node2&#45;&gt;Node1</title>
<path fill="none" stroke="midnightblue" d="M80.6925,-182.502C78.5316,-174.169 76.2518,-164.164 75,-155 71.7998,-131.572 71.4982,-104.028 71.6753,-87.7075"/>
<polygon fill="midnightblue" stroke="midnightblue" points="77.3528,-183.558 83.3681,-192.28 84.1046,-181.71 77.3528,-183.558"/>
</g>
<!-- Node3 -->
<g id="node4" class="node"><title>Node3</title>
<g id="a_node4"><a xlink:href="../../d8/d78/class_template_node_creator.html" target="_top" xlink:title="Helper class for creating template AST tag nodes and returning the template for a given node...">
<polygon fill="white" stroke="black" points="84.5,-135.5 84.5,-154.5 221.5,-154.5 221.5,-135.5 84.5,-135.5"/>
<text text-anchor="middle" x="153" y="-142.5" font-family="Helvetica,sans-Serif" font-size="10.00">TemplateNodeCreator&lt; T &gt;</text>
</a>
</g>
</g>
<!-- Node2&#45;&gt;Node3 -->
<g id="edge4" class="edge"><title>Node2&#45;&gt;Node3</title>
<path fill="none" stroke="midnightblue" d="M104.275,-185.998C116.501,-175.962 132.164,-163.104 142.384,-154.715"/>
<polygon fill="midnightblue" stroke="midnightblue" points="101.977,-183.356 96.4688,-192.406 106.419,-188.767 101.977,-183.356"/>
</g>
<!-- Node3&#45;&gt;Node1 -->
<g id="edge3" class="edge"><title>Node3&#45;&gt;Node1</title>
<path fill="none" stroke="orange" stroke-dasharray="5,2" d="M135.518,-128.784C121.462,-116.551 101.869,-99.497 88.1726,-87.5762"/>
<polygon fill="orange" stroke="orange" points="133.227,-131.43 143.068,-135.355 137.823,-126.15 133.227,-131.43"/>
<text text-anchor="middle" x="184.5" y="-109" font-family="Helvetica,sans-Serif" font-size="10.00"> &lt; TemplateNodeSpaceless &gt;</text>
</g>
</g>
</svg>
