<?xml version="1.0" encoding="UTF-8" standalone="no"?>
<!DOCTYPE svg PUBLIC "-//W3C//DTD SVG 1.1//EN"
 "http://www.w3.org/Graphics/SVG/1.1/DTD/svg11.dtd">
<!-- Generated by graphviz version 2.38.0 (20140413.2041)
 -->
<!-- Title: FilterAlphaIndex::ListElem Pages: 1 -->
<svg width="290pt" height="162pt"
 viewBox="0.00 0.00 290.00 162.00" xmlns="http://www.w3.org/2000/svg" xmlns:xlink="http://www.w3.org/1999/xlink">
<g id="graph0" class="graph" transform="scale(1 1) rotate(0) translate(4 158)">
<title>FilterAlphaIndex::ListElem</title>
<polygon fill="white" stroke="none" points="-4,4 -4,-158 286,-158 286,4 -4,4"/>
<!-- Node1 -->
<g id="node1" class="node"><title>Node1</title>
<polygon fill="#bfbfbf" stroke="black" points="0,-0.5 0,-19.5 131,-19.5 131,-0.5 0,-0.5"/>
<text text-anchor="middle" x="65.5" y="-7.5" font-family="Helvetica,sans-Serif" font-size="10.00">FilterAlphaIndex::ListElem</text>
</g>
<!-- Node2 -->
<g id="node2" class="node"><title>Node2</title>
<g id="a_node2"><a xlink:href="../../d1/dba/class_template_variant.html" target="_top" xlink:title="Variant type which can hold one value of a fixed set of types. ">
<polygon fill="white" stroke="black" points="99.5,-67.5 99.5,-86.5 187.5,-86.5 187.5,-67.5 99.5,-67.5"/>
<text text-anchor="middle" x="143.5" y="-74.5" font-family="Helvetica,sans-Serif" font-size="10.00">TemplateVariant</text>
</a>
</g>
</g>
<!-- Node2&#45;&gt;Node1 -->
<g id="edge1" class="edge"><title>Node2&#45;&gt;Node1</title>
<path fill="none" stroke="#9a32cd" stroke-dasharray="5,2" d="M122.433,-61.2809C117.139,-57.4051 111.534,-53.1452 106.5,-49 94.9627,-39.4988 82.4693,-27.6774 74.3451,-19.7655"/>
<polygon fill="#9a32cd" stroke="#9a32cd" points="120.728,-64.3655 130.893,-67.353 124.81,-58.6786 120.728,-64.3655"/>
<text text-anchor="middle" x="120" y="-41" font-family="Helvetica,sans-Serif" font-size="10.00"> value</text>
</g>
<!-- Node5 -->
<g id="node5" class="node"><title>Node5</title>
<g id="a_node5"><a xlink:href="../../d7/d1d/class_template_variant_1_1_delegate.html" target="_top" xlink:title="Helper class to create a delegate that can store a function/method call. ">
<polygon fill="white" stroke="black" points="149,-0.5 149,-19.5 282,-19.5 282,-0.5 149,-0.5"/>
<text text-anchor="middle" x="215.5" y="-7.5" font-family="Helvetica,sans-Serif" font-size="10.00">TemplateVariant::Delegate</text>
</a>
</g>
</g>
<!-- Node2&#45;&gt;Node5 -->
<g id="edge5" class="edge"><title>Node2&#45;&gt;Node5</title>
<path fill="none" stroke="#9a32cd" stroke-dasharray="5,2" d="M137.388,-57.6136C136.297,-50.9141 136.554,-43.6139 140.5,-38 146.548,-29.3951 155.615,-23.5198 165.375,-19.5116"/>
<polygon fill="#9a32cd" stroke="#9a32cd" points="134.002,-58.5001 139.874,-67.3183 140.783,-56.7624 134.002,-58.5001"/>
<text text-anchor="middle" x="165" y="-41" font-family="Helvetica,sans-Serif" font-size="10.00"> m_stubPtr</text>
</g>
<!-- Node3 -->
<g id="node3" class="node"><title>Node3</title>
<g id="a_node3"><a xlink:href="../../d6/d88/class_template_list_intf.html" target="_top" xlink:title="Abstract read&#45;only interface for a context value of type list. ">
<polygon fill="white" stroke="black" points="45,-134.5 45,-153.5 132,-153.5 132,-134.5 45,-134.5"/>
<text text-anchor="middle" x="88.5" y="-141.5" font-family="Helvetica,sans-Serif" font-size="10.00">TemplateListIntf</text>
</a>
</g>
</g>
<!-- Node3&#45;&gt;Node2 -->
<g id="edge2" class="edge"><title>Node3&#45;&gt;Node2</title>
<path fill="none" stroke="#9a32cd" stroke-dasharray="5,2" d="M102.656,-126.27C113.379,-113.597 127.676,-96.701 136.2,-86.6273"/>
<polygon fill="#9a32cd" stroke="#9a32cd" points="99.7051,-124.339 95.9175,-134.234 105.049,-128.861 99.7051,-124.339"/>
<text text-anchor="middle" x="134.5" y="-108" font-family="Helvetica,sans-Serif" font-size="10.00"> m_list</text>
</g>
<!-- Node4 -->
<g id="node4" class="node"><title>Node4</title>
<g id="a_node4"><a xlink:href="../../d9/de8/class_template_struct_intf.html" target="_top" xlink:title="Abstract interface for a context value of type struct. ">
<polygon fill="white" stroke="black" points="150.5,-134.5 150.5,-153.5 248.5,-153.5 248.5,-134.5 150.5,-134.5"/>
<text text-anchor="middle" x="199.5" y="-141.5" font-family="Helvetica,sans-Serif" font-size="10.00">TemplateStructIntf</text>
</a>
</g>
</g>
<!-- Node4&#45;&gt;Node2 -->
<g id="edge3" class="edge"><title>Node4&#45;&gt;Node2</title>
<path fill="none" stroke="#9a32cd" stroke-dasharray="5,2" d="M185.401,-126.635C174.449,-113.923 159.695,-96.7978 150.933,-86.6273"/>
<polygon fill="#9a32cd" stroke="#9a32cd" points="182.769,-128.942 191.948,-134.234 188.072,-124.373 182.769,-128.942"/>
<text text-anchor="middle" x="196.5" y="-108" font-family="Helvetica,sans-Serif" font-size="10.00"> m_strukt</text>
</g>
<!-- Node5&#45;&gt;Node2 -->
<g id="edge4" class="edge"><title>Node5&#45;&gt;Node2</title>
<path fill="none" stroke="#9a32cd" stroke-dasharray="5,2" d="M207.68,-29.0229C204.08,-35.8672 199.306,-43.3633 193.5,-49 185.572,-56.6962 175.011,-62.8262 165.638,-67.2873"/>
<polygon fill="#9a32cd" stroke="#9a32cd" points="210.954,-30.2874 212.096,-19.7543 204.635,-27.2764 210.954,-30.2874"/>
<text text-anchor="middle" x="229.5" y="-41" font-family="Helvetica,sans-Serif" font-size="10.00"> m_delegate</text>
</g>
</g>
</svg>
