<?xml version="1.0" encoding="UTF-8" standalone="no"?>
<!DOCTYPE svg PUBLIC "-//W3C//DTD SVG 1.1//EN"
 "http://www.w3.org/Graphics/SVG/1.1/DTD/svg11.dtd">
<!-- Generated by graphviz version 2.38.0 (20140413.2041)
 -->
<!-- Title: src/cite.cpp Pages: 1 -->
<svg width="991pt" height="364pt"
 viewBox="0.00 0.00 991.20 364.00" xmlns="http://www.w3.org/2000/svg" xmlns:xlink="http://www.w3.org/1999/xlink">
<g id="graph0" class="graph" transform="scale(1 1) rotate(0) translate(4 360)">
<title>src/cite.cpp</title>
<polygon fill="white" stroke="none" points="-4,4 -4,-360 987.197,-360 987.197,4 -4,4"/>
<!-- Node0 -->
<g id="node1" class="node"><title>Node0</title>
<polygon fill="#bfbfbf" stroke="black" points="467.643,-336.5 467.643,-355.5 535.643,-355.5 535.643,-336.5 467.643,-336.5"/>
<text text-anchor="middle" x="501.643" y="-343.5" font-family="Helvetica,sans-Serif" font-size="10.00">src/cite.cpp</text>
</g>
<!-- Node1 -->
<g id="node2" class="node"><title>Node1</title>
<g id="a_node2"><a xlink:href="../../d7/d69/cite_8h.html" target="_top" xlink:title="cite.h">
<polygon fill="white" stroke="black" points="931.143,-168.5 931.143,-187.5 972.143,-187.5 972.143,-168.5 931.143,-168.5"/>
<text text-anchor="middle" x="951.643" y="-175.5" font-family="Helvetica,sans-Serif" font-size="10.00">cite.h</text>
</a>
</g>
</g>
<!-- Node0&#45;&gt;Node1 -->
<g id="edge1" class="edge"><title>Node0&#45;&gt;Node1</title>
<path fill="none" stroke="midnightblue" d="M535.704,-343.927C588.15,-341.272 691.055,-332.047 771.643,-300 837.527,-273.8 903.873,-220.68 934.358,-194.415"/>
<polygon fill="midnightblue" stroke="midnightblue" points="936.744,-196.978 941.975,-187.764 932.14,-191.705 936.744,-196.978"/>
</g>
<!-- Node3 -->
<g id="node4" class="node"><title>Node3</title>
<g id="a_node4"><a xlink:href="../../d2/de2/portable_8h.html" target="_top" xlink:title="Portable versions of functions that are platform dependent. ">
<polygon fill="white" stroke="black" points="122.143,-280.5 122.143,-299.5 181.143,-299.5 181.143,-280.5 122.143,-280.5"/>
<text text-anchor="middle" x="151.643" y="-287.5" font-family="Helvetica,sans-Serif" font-size="10.00">portable.h</text>
</a>
</g>
</g>
<!-- Node0&#45;&gt;Node3 -->
<g id="edge3" class="edge"><title>Node0&#45;&gt;Node3</title>
<path fill="none" stroke="midnightblue" d="M467.447,-339.724C402.33,-329.677 260.858,-307.85 191.543,-297.156"/>
<polygon fill="midnightblue" stroke="midnightblue" points="191.875,-293.666 181.458,-295.6 190.808,-300.584 191.875,-293.666"/>
</g>
<!-- Node7 -->
<g id="node8" class="node"><title>Node7</title>
<g id="a_node8"><a xlink:href="../../db/d16/config_8h.html" target="_top" xlink:title="config.h">
<polygon fill="white" stroke="black" points="256.143,-280.5 256.143,-299.5 307.143,-299.5 307.143,-280.5 256.143,-280.5"/>
<text text-anchor="middle" x="281.643" y="-287.5" font-family="Helvetica,sans-Serif" font-size="10.00">config.h</text>
</a>
</g>
</g>
<!-- Node0&#45;&gt;Node7 -->
<g id="edge7" class="edge"><title>Node0&#45;&gt;Node7</title>
<path fill="none" stroke="midnightblue" d="M467.268,-336.562C426.382,-326.527 358.477,-309.859 317.114,-299.706"/>
<polygon fill="midnightblue" stroke="midnightblue" points="317.749,-296.258 307.203,-297.274 316.08,-303.057 317.749,-296.258"/>
</g>
<!-- Node9 -->
<g id="node10" class="node"><title>Node9</title>
<g id="a_node10"><a xlink:href="../../d2/d0d/message_8h.html" target="_top" xlink:title="message.h">
<polygon fill="white" stroke="black" points="356.143,-280.5 356.143,-299.5 421.143,-299.5 421.143,-280.5 356.143,-280.5"/>
<text text-anchor="middle" x="388.643" y="-287.5" font-family="Helvetica,sans-Serif" font-size="10.00">message.h</text>
</a>
</g>
</g>
<!-- Node0&#45;&gt;Node9 -->
<g id="edge9" class="edge"><title>Node0&#45;&gt;Node9</title>
<path fill="none" stroke="midnightblue" d="M483.738,-336.444C465.389,-327.675 436.638,-313.935 415.55,-303.858"/>
<polygon fill="midnightblue" stroke="midnightblue" points="416.997,-300.67 406.465,-299.516 413.978,-306.986 416.997,-300.67"/>
</g>
<!-- Node11 -->
<g id="node12" class="node"><title>Node11</title>
<g id="a_node12"><a xlink:href="../../d8/d3c/util_8h.html" target="_top" xlink:title="A bunch of utility functions. ">
<polygon fill="white" stroke="black" points="483.643,-224.5 483.643,-243.5 521.643,-243.5 521.643,-224.5 483.643,-224.5"/>
<text text-anchor="middle" x="502.643" y="-231.5" font-family="Helvetica,sans-Serif" font-size="10.00">util.h</text>
</a>
</g>
</g>
<!-- Node0&#45;&gt;Node11 -->
<g id="edge12" class="edge"><title>Node0&#45;&gt;Node11</title>
<path fill="none" stroke="midnightblue" d="M501.722,-336.368C501.883,-318.617 502.256,-277.666 502.474,-253.597"/>
<polygon fill="midnightblue" stroke="midnightblue" points="505.974,-253.623 502.565,-243.591 498.974,-253.559 505.974,-253.623"/>
</g>
<!-- Node21 -->
<g id="node22" class="node"><title>Node21</title>
<g id="a_node22"><a xlink:href="../../d8/dce/language_8h.html" target="_top" xlink:title="language.h">
<polygon fill="white" stroke="black" points="698.643,-280.5 698.643,-299.5 762.643,-299.5 762.643,-280.5 698.643,-280.5"/>
<text text-anchor="middle" x="730.643" y="-287.5" font-family="Helvetica,sans-Serif" font-size="10.00">language.h</text>
</a>
</g>
</g>
<!-- Node0&#45;&gt;Node21 -->
<g id="edge29" class="edge"><title>Node0&#45;&gt;Node21</title>
<path fill="none" stroke="midnightblue" d="M535.927,-336.916C576.673,-327.307 644.655,-311.277 688.554,-300.925"/>
<polygon fill="midnightblue" stroke="midnightblue" points="689.42,-304.317 698.349,-298.615 687.813,-297.504 689.42,-304.317"/>
</g>
<!-- Node26 -->
<g id="node27" class="node"><title>Node26</title>
<g id="a_node27"><a xlink:href="../../df/d83/ftextstream_8h.html" target="_top" xlink:title="ftextstream.h">
<polygon fill="white" stroke="black" points="529.643,-280.5 529.643,-299.5 603.643,-299.5 603.643,-280.5 529.643,-280.5"/>
<text text-anchor="middle" x="566.643" y="-287.5" font-family="Helvetica,sans-Serif" font-size="10.00">ftextstream.h</text>
</a>
</g>
</g>
<!-- Node0&#45;&gt;Node26 -->
<g id="edge39" class="edge"><title>Node0&#45;&gt;Node26</title>
<path fill="none" stroke="midnightblue" d="M512.087,-336.324C521.79,-328.263 536.459,-316.077 548.143,-306.369"/>
<polygon fill="midnightblue" stroke="midnightblue" points="550.555,-308.916 556.01,-299.834 546.082,-303.532 550.555,-308.916"/>
</g>
<!-- Node30 -->
<g id="node31" class="node"><title>Node30</title>
<g id="a_node31"><a xlink:href="../../d6/d07/resourcemgr_8h.html" target="_top" xlink:title="resourcemgr.h">
<polygon fill="white" stroke="black" points="10.1435,-168.5 10.1435,-187.5 89.1435,-187.5 89.1435,-168.5 10.1435,-168.5"/>
<text text-anchor="middle" x="49.6435" y="-175.5" font-family="Helvetica,sans-Serif" font-size="10.00">resourcemgr.h</text>
</a>
</g>
</g>
<!-- Node0&#45;&gt;Node30 -->
<g id="edge44" class="edge"><title>Node0&#45;&gt;Node30</title>
<path fill="none" stroke="midnightblue" d="M467.516,-345.115C398.799,-344.471 239.492,-338.529 112.643,-300 60.5304,-284.171 32.0228,-290.486 3.64346,-244 -7.27562,-226.114 10.8626,-206.621 27.4764,-193.694"/>
<polygon fill="midnightblue" stroke="midnightblue" points="29.8472,-196.297 35.8635,-187.576 25.7219,-190.642 29.8472,-196.297"/>
</g>
<!-- Node31 -->
<g id="node32" class="node"><title>Node31</title>
<polygon fill="white" stroke="#bfbfbf" points="896.143,-280.5 896.143,-299.5 937.143,-299.5 937.143,-280.5 896.143,-280.5"/>
<text text-anchor="middle" x="916.643" y="-287.5" font-family="Helvetica,sans-Serif" font-size="10.00">qdir.h</text>
</g>
<!-- Node0&#45;&gt;Node31 -->
<g id="edge46" class="edge"><title>Node0&#45;&gt;Node31</title>
<path fill="none" stroke="midnightblue" d="M535.68,-342.507C602.447,-337.277 755.12,-323.649 881.643,-300 883.108,-299.726 884.602,-299.426 886.108,-299.106"/>
<polygon fill="midnightblue" stroke="midnightblue" points="887.076,-302.474 896.018,-296.792 885.484,-295.658 887.076,-302.474"/>
</g>
<!-- Node2 -->
<g id="node3" class="node"><title>Node2</title>
<polygon fill="white" stroke="#bfbfbf" points="913.643,-56.5 913.643,-75.5 959.643,-75.5 959.643,-56.5 913.643,-56.5"/>
<text text-anchor="middle" x="936.643" y="-63.5" font-family="Helvetica,sans-Serif" font-size="10.00">qdict.h</text>
</g>
<!-- Node1&#45;&gt;Node2 -->
<g id="edge2" class="edge"><title>Node1&#45;&gt;Node2</title>
<path fill="none" stroke="midnightblue" d="M960.392,-168.247C971.683,-155.837 988.946,-132.368 980.643,-112 975.843,-100.225 966.315,-89.8564 957.349,-82.0486"/>
<polygon fill="midnightblue" stroke="midnightblue" points="959.398,-79.2048 949.424,-75.6314 954.993,-84.6448 959.398,-79.2048"/>
</g>
<!-- Node4 -->
<g id="node5" class="node"><title>Node4</title>
<polygon fill="white" stroke="#bfbfbf" points="86.6435,-224.5 86.6435,-243.5 154.643,-243.5 154.643,-224.5 86.6435,-224.5"/>
<text text-anchor="middle" x="120.643" y="-231.5" font-family="Helvetica,sans-Serif" font-size="10.00">sys/types.h</text>
</g>
<!-- Node3&#45;&gt;Node4 -->
<g id="edge4" class="edge"><title>Node3&#45;&gt;Node4</title>
<path fill="none" stroke="midnightblue" d="M146.524,-280.083C142.236,-272.613 135.985,-261.724 130.701,-252.52"/>
<polygon fill="midnightblue" stroke="midnightblue" points="133.681,-250.681 125.667,-243.751 127.611,-254.166 133.681,-250.681"/>
</g>
<!-- Node5 -->
<g id="node6" class="node"><title>Node5</title>
<polygon fill="white" stroke="#bfbfbf" points="299.643,-112.5 299.643,-131.5 345.643,-131.5 345.643,-112.5 299.643,-112.5"/>
<text text-anchor="middle" x="322.643" y="-119.5" font-family="Helvetica,sans-Serif" font-size="10.00">stdio.h</text>
</g>
<!-- Node3&#45;&gt;Node5 -->
<g id="edge5" class="edge"><title>Node3&#45;&gt;Node5</title>
<path fill="none" stroke="midnightblue" d="M157.552,-280.101C166.381,-267.107 183.887,-242.478 201.643,-224 234.064,-190.261 277.161,-156.531 302.206,-137.851"/>
<polygon fill="midnightblue" stroke="midnightblue" points="304.599,-140.435 310.563,-131.678 300.44,-134.805 304.599,-140.435"/>
</g>
<!-- Node6 -->
<g id="node7" class="node"><title>Node6</title>
<polygon fill="white" stroke="#bfbfbf" points="12.6435,-224.5 12.6435,-243.5 68.6435,-243.5 68.6435,-224.5 12.6435,-224.5"/>
<text text-anchor="middle" x="40.6435" y="-231.5" font-family="Helvetica,sans-Serif" font-size="10.00">qglobal.h</text>
</g>
<!-- Node3&#45;&gt;Node6 -->
<g id="edge6" class="edge"><title>Node3&#45;&gt;Node6</title>
<path fill="none" stroke="midnightblue" d="M133.809,-280.324C115.928,-271.625 88.1684,-258.12 67.5979,-248.113"/>
<polygon fill="midnightblue" stroke="midnightblue" points="68.9568,-244.882 58.4333,-243.655 65.8945,-251.177 68.9568,-244.882"/>
</g>
<!-- Node8 -->
<g id="node9" class="node"><title>Node8</title>
<polygon fill="white" stroke="#bfbfbf" points="210.643,-224.5 210.643,-243.5 290.643,-243.5 290.643,-224.5 210.643,-224.5"/>
<text text-anchor="middle" x="250.643" y="-231.5" font-family="Helvetica,sans-Serif" font-size="10.00">configvalues.h</text>
</g>
<!-- Node7&#45;&gt;Node8 -->
<g id="edge8" class="edge"><title>Node7&#45;&gt;Node8</title>
<path fill="none" stroke="midnightblue" d="M276.524,-280.083C272.236,-272.613 265.985,-261.724 260.701,-252.52"/>
<polygon fill="midnightblue" stroke="midnightblue" points="263.681,-250.681 255.667,-243.751 257.611,-254.166 263.681,-250.681"/>
</g>
<!-- Node9&#45;&gt;Node5 -->
<g id="edge10" class="edge"><title>Node9&#45;&gt;Node5</title>
<path fill="none" stroke="midnightblue" d="M386.585,-280.452C383.463,-267.895 377.098,-243.806 369.643,-224 358.389,-194.097 342.087,-160.727 331.939,-140.818"/>
<polygon fill="midnightblue" stroke="midnightblue" points="334.945,-139.01 327.253,-131.724 328.722,-142.216 334.945,-139.01"/>
</g>
<!-- Node10 -->
<g id="node11" class="node"><title>Node10</title>
<polygon fill="white" stroke="#bfbfbf" points="308.643,-224.5 308.643,-243.5 360.643,-243.5 360.643,-224.5 308.643,-224.5"/>
<text text-anchor="middle" x="334.643" y="-231.5" font-family="Helvetica,sans-Serif" font-size="10.00">stdarg.h</text>
</g>
<!-- Node9&#45;&gt;Node10 -->
<g id="edge11" class="edge"><title>Node9&#45;&gt;Node10</title>
<path fill="none" stroke="midnightblue" d="M379.726,-280.083C371.863,-272.22 360.212,-260.569 350.725,-251.081"/>
<polygon fill="midnightblue" stroke="midnightblue" points="352.941,-248.347 343.395,-243.751 347.991,-253.297 352.941,-248.347"/>
</g>
<!-- Node12 -->
<g id="node13" class="node"><title>Node12</title>
<polygon fill="white" stroke="#bfbfbf" points="607.143,-56.5 607.143,-75.5 650.143,-75.5 650.143,-56.5 607.143,-56.5"/>
<text text-anchor="middle" x="628.643" y="-63.5" font-family="Helvetica,sans-Serif" font-size="10.00">qlist.h</text>
</g>
<!-- Node11&#45;&gt;Node12 -->
<g id="edge13" class="edge"><title>Node11&#45;&gt;Node12</title>
<path fill="none" stroke="midnightblue" d="M521.682,-226.421C546.852,-217.359 589.238,-200.715 599.643,-188 623.846,-158.426 628.447,-111.944 628.98,-86.0443"/>
<polygon fill="midnightblue" stroke="midnightblue" points="632.48,-85.7327 628.994,-75.7278 625.48,-85.7228 632.48,-85.7327"/>
</g>
<!-- Node13 -->
<g id="node14" class="node"><title>Node13</title>
<polygon fill="white" stroke="#bfbfbf" points="455.143,-168.5 455.143,-187.5 504.143,-187.5 504.143,-168.5 455.143,-168.5"/>
<text text-anchor="middle" x="479.643" y="-175.5" font-family="Helvetica,sans-Serif" font-size="10.00">ctype.h</text>
</g>
<!-- Node11&#45;&gt;Node13 -->
<g id="edge14" class="edge"><title>Node11&#45;&gt;Node13</title>
<path fill="none" stroke="midnightblue" d="M498.845,-224.083C495.731,-216.77 491.221,-206.181 487.354,-197.103"/>
<polygon fill="midnightblue" stroke="midnightblue" points="490.51,-195.58 483.371,-187.751 484.069,-198.323 490.51,-195.58"/>
</g>
<!-- Node14 -->
<g id="node15" class="node"><title>Node14</title>
<g id="a_node15"><a xlink:href="../../d9/d49/types_8h.html" target="_top" xlink:title="This file contains a number of basic enums and types. ">
<polygon fill="white" stroke="black" points="753.143,-56.5 753.143,-75.5 802.143,-75.5 802.143,-56.5 753.143,-56.5"/>
<text text-anchor="middle" x="777.643" y="-63.5" font-family="Helvetica,sans-Serif" font-size="10.00">types.h</text>
</a>
</g>
</g>
<!-- Node11&#45;&gt;Node14 -->
<g id="edge15" class="edge"><title>Node11&#45;&gt;Node14</title>
<path fill="none" stroke="midnightblue" d="M521.889,-226.694C524.816,-225.77 527.805,-224.846 530.643,-224 632.606,-193.618 683.319,-213.555 751.643,-132 762.852,-118.62 769.668,-99.7971 773.491,-85.848"/>
<polygon fill="midnightblue" stroke="midnightblue" points="776.947,-86.4504 775.943,-75.9033 770.151,-84.7747 776.947,-86.4504"/>
</g>
<!-- Node16 -->
<g id="node17" class="node"><title>Node16</title>
<g id="a_node17"><a xlink:href="../../d9/d21/sortdict_8h.html" target="_top" xlink:title="sortdict.h">
<polygon fill="white" stroke="black" points="685.143,-112.5 685.143,-131.5 742.143,-131.5 742.143,-112.5 685.143,-112.5"/>
<text text-anchor="middle" x="713.643" y="-119.5" font-family="Helvetica,sans-Serif" font-size="10.00">sortdict.h</text>
</a>
</g>
</g>
<!-- Node11&#45;&gt;Node16 -->
<g id="edge17" class="edge"><title>Node11&#45;&gt;Node16</title>
<path fill="none" stroke="midnightblue" d="M521.864,-226.75C555.562,-215.733 622.687,-193.501 632.643,-188 657.145,-174.463 681.719,-153.44 697.266,-138.988"/>
<polygon fill="midnightblue" stroke="midnightblue" points="700.074,-141.149 704.917,-131.725 695.255,-136.072 700.074,-141.149"/>
</g>
<!-- Node18 -->
<g id="node19" class="node"><title>Node18</title>
<g id="a_node19"><a xlink:href="../../de/d9c/docparser_8h.html" target="_top" xlink:title="docparser.h">
<polygon fill="white" stroke="black" points="522.643,-168.5 522.643,-187.5 590.643,-187.5 590.643,-168.5 522.643,-168.5"/>
<text text-anchor="middle" x="556.643" y="-175.5" font-family="Helvetica,sans-Serif" font-size="10.00">docparser.h</text>
</a>
</g>
</g>
<!-- Node11&#45;&gt;Node18 -->
<g id="edge21" class="edge"><title>Node11&#45;&gt;Node18</title>
<path fill="none" stroke="midnightblue" d="M511.56,-224.083C519.424,-216.22 531.075,-204.569 540.562,-195.081"/>
<polygon fill="midnightblue" stroke="midnightblue" points="543.296,-197.297 547.892,-187.751 538.346,-192.347 543.296,-197.297"/>
</g>
<!-- Node15 -->
<g id="node16" class="node"><title>Node15</title>
<polygon fill="white" stroke="#bfbfbf" points="369.143,-0.5 369.143,-19.5 428.143,-19.5 428.143,-0.5 369.143,-0.5"/>
<text text-anchor="middle" x="398.643" y="-7.5" font-family="Helvetica,sans-Serif" font-size="10.00">qcstring.h</text>
</g>
<!-- Node14&#45;&gt;Node15 -->
<g id="edge16" class="edge"><title>Node14&#45;&gt;Node15</title>
<path fill="none" stroke="midnightblue" d="M752.847,-58.0406C749.762,-57.2917 746.639,-56.5893 743.643,-56 634.167,-34.4641 503.057,-20.5781 438.53,-14.5148"/>
<polygon fill="midnightblue" stroke="midnightblue" points="438.668,-11.0126 428.388,-13.5749 438.022,-17.9828 438.668,-11.0126"/>
</g>
<!-- Node16&#45;&gt;Node2 -->
<g id="edge19" class="edge"><title>Node16&#45;&gt;Node2</title>
<path fill="none" stroke="midnightblue" d="M742.34,-114.051C783.724,-104.03 859.97,-85.5666 903.633,-74.9935"/>
<polygon fill="midnightblue" stroke="midnightblue" points="904.576,-78.3664 913.472,-72.6111 902.929,-71.563 904.576,-78.3664"/>
</g>
<!-- Node16&#45;&gt;Node12 -->
<g id="edge18" class="edge"><title>Node16&#45;&gt;Node12</title>
<path fill="none" stroke="midnightblue" d="M699.987,-112.324C686.727,-103.9 666.375,-90.9709 650.797,-81.0741"/>
<polygon fill="midnightblue" stroke="midnightblue" points="652.584,-78.0626 642.266,-75.6545 648.83,-83.9711 652.584,-78.0626"/>
</g>
<!-- Node17 -->
<g id="node18" class="node"><title>Node17</title>
<polygon fill="white" stroke="#bfbfbf" points="678.643,-56.5 678.643,-75.5 734.643,-75.5 734.643,-56.5 678.643,-56.5"/>
<text text-anchor="middle" x="706.643" y="-63.5" font-family="Helvetica,sans-Serif" font-size="10.00">qintdict.h</text>
</g>
<!-- Node16&#45;&gt;Node17 -->
<g id="edge20" class="edge"><title>Node16&#45;&gt;Node17</title>
<path fill="none" stroke="midnightblue" d="M712.488,-112.083C711.56,-104.927 710.226,-94.6353 709.066,-85.6911"/>
<polygon fill="midnightblue" stroke="midnightblue" points="712.534,-85.2181 707.778,-75.7511 705.593,-86.1181 712.534,-85.2181"/>
</g>
<!-- Node18&#45;&gt;Node5 -->
<g id="edge22" class="edge"><title>Node18&#45;&gt;Node5</title>
<path fill="none" stroke="midnightblue" d="M522.444,-169.341C483.126,-160.5 416.667,-145.447 359.643,-132 358.377,-131.701 357.086,-131.395 355.782,-131.085"/>
<polygon fill="midnightblue" stroke="midnightblue" points="356.265,-127.601 345.724,-128.667 354.629,-134.407 356.265,-127.601"/>
</g>
<!-- Node18&#45;&gt;Node12 -->
<g id="edge23" class="edge"><title>Node18&#45;&gt;Node12</title>
<path fill="none" stroke="midnightblue" d="M562.293,-168.368C574.175,-150.215 601.937,-107.802 617.523,-83.9902"/>
<polygon fill="midnightblue" stroke="midnightblue" points="620.472,-85.8753 623.02,-75.5914 614.615,-82.0416 620.472,-85.8753"/>
</g>
<!-- Node18&#45;&gt;Node15 -->
<g id="edge24" class="edge"><title>Node18&#45;&gt;Node15</title>
<path fill="none" stroke="midnightblue" d="M522.465,-169.923C476.786,-160.122 400.61,-142.447 392.643,-132 369.878,-102.146 381.777,-55.0968 391.067,-29.3459"/>
<polygon fill="midnightblue" stroke="midnightblue" points="394.445,-30.3155 394.781,-19.726 387.914,-27.7946 394.445,-30.3155"/>
</g>
<!-- Node19 -->
<g id="node20" class="node"><title>Node19</title>
<g id="a_node20"><a xlink:href="../../d2/d3c/docvisitor_8h.html" target="_top" xlink:title="docvisitor.h">
<polygon fill="white" stroke="black" points="485.143,-112.5 485.143,-131.5 552.143,-131.5 552.143,-112.5 485.143,-112.5"/>
<text text-anchor="middle" x="518.643" y="-119.5" font-family="Helvetica,sans-Serif" font-size="10.00">docvisitor.h</text>
</a>
</g>
</g>
<!-- Node18&#45;&gt;Node19 -->
<g id="edge25" class="edge"><title>Node18&#45;&gt;Node19</title>
<path fill="none" stroke="midnightblue" d="M550.369,-168.083C545.001,-160.455 537.126,-149.264 530.565,-139.941"/>
<polygon fill="midnightblue" stroke="midnightblue" points="533.419,-137.915 524.802,-131.751 527.694,-141.943 533.419,-137.915"/>
</g>
<!-- Node20 -->
<g id="node21" class="node"><title>Node20</title>
<g id="a_node21"><a xlink:href="../../d0/d73/htmlattrib_8h.html" target="_top" xlink:title="htmlattrib.h">
<polygon fill="white" stroke="black" points="402.143,-112.5 402.143,-131.5 467.143,-131.5 467.143,-112.5 402.143,-112.5"/>
<text text-anchor="middle" x="434.643" y="-119.5" font-family="Helvetica,sans-Serif" font-size="10.00">htmlattrib.h</text>
</a>
</g>
</g>
<!-- Node18&#45;&gt;Node20 -->
<g id="edge26" class="edge"><title>Node18&#45;&gt;Node20</title>
<path fill="none" stroke="midnightblue" d="M537.312,-168.444C517.324,-159.596 485.9,-145.687 463.08,-135.586"/>
<polygon fill="midnightblue" stroke="midnightblue" points="464.445,-132.363 453.884,-131.516 461.612,-138.764 464.445,-132.363"/>
</g>
<!-- Node20&#45;&gt;Node12 -->
<g id="edge28" class="edge"><title>Node20&#45;&gt;Node12</title>
<path fill="none" stroke="midnightblue" d="M465.383,-112.444C501.363,-102.429 560.641,-85.9286 597.004,-75.807"/>
<polygon fill="midnightblue" stroke="midnightblue" points="598.362,-79.0619 607.058,-73.0084 596.485,-72.3182 598.362,-79.0619"/>
</g>
<!-- Node20&#45;&gt;Node15 -->
<g id="edge27" class="edge"><title>Node20&#45;&gt;Node15</title>
<path fill="none" stroke="midnightblue" d="M431.819,-112.368C425.983,-94.5366 412.486,-53.2953 404.623,-29.2717"/>
<polygon fill="midnightblue" stroke="midnightblue" points="407.892,-28.0067 401.455,-19.5914 401.239,-30.1841 407.892,-28.0067"/>
</g>
<!-- Node22 -->
<g id="node23" class="node"><title>Node22</title>
<g id="a_node23"><a xlink:href="../../d9/df1/translator_8h.html" target="_top" xlink:title="translator.h">
<polygon fill="white" stroke="black" points="774.143,-224.5 774.143,-243.5 839.143,-243.5 839.143,-224.5 774.143,-224.5"/>
<text text-anchor="middle" x="806.643" y="-231.5" font-family="Helvetica,sans-Serif" font-size="10.00">translator.h</text>
</a>
</g>
</g>
<!-- Node21&#45;&gt;Node22 -->
<g id="edge30" class="edge"><title>Node21&#45;&gt;Node22</title>
<path fill="none" stroke="midnightblue" d="M742.854,-280.324C754.419,-272.107 772.019,-259.602 785.804,-249.807"/>
<polygon fill="midnightblue" stroke="midnightblue" points="788.086,-252.479 794.211,-243.834 784.032,-246.773 788.086,-252.479"/>
</g>
<!-- Node23 -->
<g id="node24" class="node"><title>Node23</title>
<g id="a_node24"><a xlink:href="../../d1/da6/classdef_8h.html" target="_top" xlink:title="classdef.h">
<polygon fill="white" stroke="black" points="798.643,-168.5 798.643,-187.5 860.643,-187.5 860.643,-168.5 798.643,-168.5"/>
<text text-anchor="middle" x="829.643" y="-175.5" font-family="Helvetica,sans-Serif" font-size="10.00">classdef.h</text>
</a>
</g>
</g>
<!-- Node22&#45;&gt;Node23 -->
<g id="edge31" class="edge"><title>Node22&#45;&gt;Node23</title>
<path fill="none" stroke="midnightblue" d="M810.441,-224.083C813.556,-216.77 818.066,-206.181 821.933,-197.103"/>
<polygon fill="midnightblue" stroke="midnightblue" points="825.218,-198.323 825.916,-187.751 818.777,-195.58 825.218,-198.323"/>
</g>
<!-- Node23&#45;&gt;Node2 -->
<g id="edge33" class="edge"><title>Node23&#45;&gt;Node2</title>
<path fill="none" stroke="midnightblue" d="M860.711,-174.659C888.666,-170.715 928.24,-160.167 947.643,-132 957.153,-118.197 952.182,-98.9134 946.186,-84.9379"/>
<polygon fill="midnightblue" stroke="midnightblue" points="949.31,-83.3584 941.832,-75.8538 942.998,-86.3842 949.31,-83.3584"/>
</g>
<!-- Node23&#45;&gt;Node12 -->
<g id="edge32" class="edge"><title>Node23&#45;&gt;Node12</title>
<path fill="none" stroke="midnightblue" d="M798.38,-173.74C765.541,-169.038 713.625,-157.868 676.643,-132 659.272,-119.848 645.682,-99.3918 637.464,-84.6704"/>
<polygon fill="midnightblue" stroke="midnightblue" points="640.419,-82.7723 632.652,-75.5674 634.231,-86.0438 640.419,-82.7723"/>
</g>
<!-- Node24 -->
<g id="node25" class="node"><title>Node24</title>
<polygon fill="white" stroke="#bfbfbf" points="799.143,-112.5 799.143,-131.5 856.143,-131.5 856.143,-112.5 799.143,-112.5"/>
<text text-anchor="middle" x="827.643" y="-119.5" font-family="Helvetica,sans-Serif" font-size="10.00">qptrdict.h</text>
</g>
<!-- Node23&#45;&gt;Node24 -->
<g id="edge34" class="edge"><title>Node23&#45;&gt;Node24</title>
<path fill="none" stroke="midnightblue" d="M829.313,-168.083C829.051,-161.006 828.675,-150.861 828.347,-141.986"/>
<polygon fill="midnightblue" stroke="midnightblue" points="831.835,-141.615 827.968,-131.751 824.84,-141.874 831.835,-141.615"/>
</g>
<!-- Node25 -->
<g id="node26" class="node"><title>Node25</title>
<g id="a_node26"><a xlink:href="../../df/da1/definition_8h.html" target="_top" xlink:title="definition.h">
<polygon fill="white" stroke="black" points="874.643,-112.5 874.643,-131.5 938.643,-131.5 938.643,-112.5 874.643,-112.5"/>
<text text-anchor="middle" x="906.643" y="-119.5" font-family="Helvetica,sans-Serif" font-size="10.00">definition.h</text>
</a>
</g>
</g>
<!-- Node23&#45;&gt;Node25 -->
<g id="edge35" class="edge"><title>Node23&#45;&gt;Node25</title>
<path fill="none" stroke="midnightblue" d="M842.015,-168.324C853.802,-160.058 871.776,-147.453 885.779,-137.632"/>
<polygon fill="midnightblue" stroke="midnightblue" points="888.125,-140.262 894.303,-131.655 884.106,-134.531 888.125,-140.262"/>
</g>
<!-- Node25&#45;&gt;Node2 -->
<g id="edge37" class="edge"><title>Node25&#45;&gt;Node2</title>
<path fill="none" stroke="midnightblue" d="M911.597,-112.083C915.748,-104.613 921.797,-93.7244 926.91,-84.5199"/>
<polygon fill="midnightblue" stroke="midnightblue" points="929.985,-86.1924 931.782,-75.7511 923.866,-82.7929 929.985,-86.1924"/>
</g>
<!-- Node25&#45;&gt;Node12 -->
<g id="edge36" class="edge"><title>Node25&#45;&gt;Node12</title>
<path fill="none" stroke="midnightblue" d="M874.437,-113.82C871.467,-113.192 868.501,-112.576 865.643,-112 778.821,-94.5026 756.466,-93.4974 669.643,-76 666.598,-75.3863 663.431,-74.7275 660.266,-74.0556"/>
<polygon fill="midnightblue" stroke="midnightblue" points="660.832,-70.5971 650.318,-71.9038 659.352,-77.4389 660.832,-70.5971"/>
</g>
<!-- Node25&#45;&gt;Node14 -->
<g id="edge38" class="edge"><title>Node25&#45;&gt;Node14</title>
<path fill="none" stroke="midnightblue" d="M886.203,-112.444C864.973,-103.557 831.544,-89.5632 807.388,-79.4514"/>
<polygon fill="midnightblue" stroke="midnightblue" points="808.564,-76.1493 797.988,-75.5164 805.861,-82.6064 808.564,-76.1493"/>
</g>
<!-- Node26&#45;&gt;Node5 -->
<g id="edge40" class="edge"><title>Node26&#45;&gt;Node5</title>
<path fill="none" stroke="midnightblue" d="M545.861,-280.389C526.753,-272.115 497.94,-258.724 474.643,-244 422.19,-210.849 366.629,-162.857 339.515,-138.474"/>
<polygon fill="midnightblue" stroke="midnightblue" points="341.809,-135.829 332.048,-131.708 337.108,-141.016 341.809,-135.829"/>
</g>
<!-- Node27 -->
<g id="node28" class="node"><title>Node27</title>
<polygon fill="white" stroke="#bfbfbf" points="689.643,-224.5 689.643,-243.5 755.643,-243.5 755.643,-224.5 689.643,-224.5"/>
<text text-anchor="middle" x="722.643" y="-231.5" font-family="Helvetica,sans-Serif" font-size="10.00">qiodevice.h</text>
</g>
<!-- Node26&#45;&gt;Node27 -->
<g id="edge41" class="edge"><title>Node26&#45;&gt;Node27</title>
<path fill="none" stroke="midnightblue" d="M591.362,-280.444C617.492,-271.399 658.903,-257.064 688.22,-246.916"/>
<polygon fill="midnightblue" stroke="midnightblue" points="689.735,-250.095 698.04,-243.516 687.446,-243.48 689.735,-250.095"/>
</g>
<!-- Node28 -->
<g id="node29" class="node"><title>Node28</title>
<polygon fill="white" stroke="#bfbfbf" points="539.643,-224.5 539.643,-243.5 593.643,-243.5 593.643,-224.5 539.643,-224.5"/>
<text text-anchor="middle" x="566.643" y="-231.5" font-family="Helvetica,sans-Serif" font-size="10.00">qstring.h</text>
</g>
<!-- Node26&#45;&gt;Node28 -->
<g id="edge42" class="edge"><title>Node26&#45;&gt;Node28</title>
<path fill="none" stroke="midnightblue" d="M566.643,-280.083C566.643,-273.006 566.643,-262.861 566.643,-253.986"/>
<polygon fill="midnightblue" stroke="midnightblue" points="570.144,-253.751 566.643,-243.751 563.144,-253.751 570.144,-253.751"/>
</g>
<!-- Node29 -->
<g id="node30" class="node"><title>Node29</title>
<polygon fill="white" stroke="#bfbfbf" points="612.143,-224.5 612.143,-243.5 671.143,-243.5 671.143,-224.5 612.143,-224.5"/>
<text text-anchor="middle" x="641.643" y="-231.5" font-family="Helvetica,sans-Serif" font-size="10.00">qgstring.h</text>
</g>
<!-- Node26&#45;&gt;Node29 -->
<g id="edge43" class="edge"><title>Node26&#45;&gt;Node29</title>
<path fill="none" stroke="midnightblue" d="M578.694,-280.324C590.107,-272.107 607.474,-259.602 621.078,-249.807"/>
<polygon fill="midnightblue" stroke="midnightblue" points="623.304,-252.517 629.374,-243.834 619.214,-246.837 623.304,-252.517"/>
</g>
<!-- Node30&#45;&gt;Node15 -->
<g id="edge45" class="edge"><title>Node30&#45;&gt;Node15</title>
<path fill="none" stroke="midnightblue" d="M67.9158,-168.309C125.398,-140.968 302.771,-56.601 371.264,-24.023"/>
<polygon fill="midnightblue" stroke="midnightblue" points="373.025,-27.0612 380.552,-19.6051 370.018,-20.7398 373.025,-27.0612"/>
</g>
</g>
</svg>
