<?xml version="1.0" encoding="UTF-8" standalone="no"?>
<!DOCTYPE svg PUBLIC "-//W3C//DTD SVG 1.1//EN"
 "http://www.w3.org/Graphics/SVG/1.1/DTD/svg11.dtd">
<!-- Generated by graphviz version 2.38.0 (20140413.2041)
 -->
<!-- Title: DirListContext Pages: 1 -->
<svg width="292pt" height="209pt"
 viewBox="0.00 0.00 292.00 209.00" xmlns="http://www.w3.org/2000/svg" xmlns:xlink="http://www.w3.org/1999/xlink">
<g id="graph0" class="graph" transform="scale(1 1) rotate(0) translate(4 205)">
<title>DirListContext</title>
<polygon fill="white" stroke="none" points="-4,4 -4,-205 288,-205 288,4 -4,4"/>
<!-- Node3 -->
<g id="node1" class="node"><title>Node3</title>
<polygon fill="#bfbfbf" stroke="black" points="92,-0.5 92,-19.5 172,-19.5 172,-0.5 92,-0.5"/>
<text text-anchor="middle" x="132" y="-7.5" font-family="Helvetica,sans-Serif" font-size="10.00">DirListContext</text>
</g>
<!-- Node4 -->
<g id="node2" class="node"><title>Node4</title>
<g id="a_node2"><a xlink:href="../../d8/d96/class_ref_counted_context.html" target="_top" xlink:title="Helper class to support reference counting. ">
<polygon fill="white" stroke="black" points="0,-67.5 0,-86.5 104,-86.5 104,-67.5 0,-67.5"/>
<text text-anchor="middle" x="52" y="-74.5" font-family="Helvetica,sans-Serif" font-size="10.00">RefCountedContext</text>
</a>
</g>
</g>
<!-- Node4&#45;&gt;Node3 -->
<g id="edge1" class="edge"><title>Node4&#45;&gt;Node3</title>
<path fill="none" stroke="midnightblue" d="M70.8143,-60.7134C86.576,-47.907 108.507,-30.0884 121.382,-19.6273"/>
<polygon fill="midnightblue" stroke="midnightblue" points="68.3432,-58.2114 62.7892,-67.2338 72.7574,-63.6443 68.3432,-58.2114"/>
</g>
<!-- Node5 -->
<g id="node3" class="node"><title>Node5</title>
<g id="a_node3"><a xlink:href="../../d6/d88/class_template_list_intf.html" target="_top" xlink:title="Abstract read&#45;only interface for a context value of type list. ">
<polygon fill="white" stroke="black" points="116.5,-181.5 116.5,-200.5 203.5,-200.5 203.5,-181.5 116.5,-181.5"/>
<text text-anchor="middle" x="160" y="-188.5" font-family="Helvetica,sans-Serif" font-size="10.00">TemplateListIntf</text>
</a>
</g>
</g>
<!-- Node5&#45;&gt;Node3 -->
<g id="edge2" class="edge"><title>Node5&#45;&gt;Node3</title>
<path fill="none" stroke="midnightblue" d="M156.132,-171.383C154.455,-163.028 152.529,-153.038 151,-144 143.104,-97.3139 135.783,-41.0387 133.091,-19.7383"/>
<polygon fill="midnightblue" stroke="midnightblue" points="152.708,-172.11 158.14,-181.206 159.566,-170.708 152.708,-172.11"/>
</g>
<!-- Node7 -->
<g id="node5" class="node"><title>Node7</title>
<g id="a_node5"><a xlink:href="../../d6/dcb/class_generic_node_list_context.html" target="_top" xlink:title="standard template list implementation ">
<polygon fill="white" stroke="black" points="160,-124.5 160,-143.5 284,-143.5 284,-124.5 160,-124.5"/>
<text text-anchor="middle" x="222" y="-131.5" font-family="Helvetica,sans-Serif" font-size="10.00">GenericNodeListContext</text>
</a>
</g>
</g>
<!-- Node5&#45;&gt;Node7 -->
<g id="edge5" class="edge"><title>Node5&#45;&gt;Node7</title>
<path fill="none" stroke="midnightblue" d="M177.238,-174.708C188.503,-164.715 202.81,-152.024 212.176,-143.715"/>
<polygon fill="midnightblue" stroke="midnightblue" points="174.846,-172.152 169.688,-181.406 179.491,-177.388 174.846,-172.152"/>
</g>
<!-- Node6 -->
<g id="node4" class="node"><title>Node6</title>
<g id="a_node4"><a xlink:href="../../d7/d7d/class_dir_list_context_1_1_private.html" target="_top" xlink:title="DirListContext::Private">
<polygon fill="white" stroke="black" points="162,-67.5 162,-86.5 278,-86.5 278,-67.5 162,-67.5"/>
<text text-anchor="middle" x="220" y="-74.5" font-family="Helvetica,sans-Serif" font-size="10.00">DirListContext::Private</text>
</a>
</g>
</g>
<!-- Node6&#45;&gt;Node3 -->
<g id="edge3" class="edge"><title>Node6&#45;&gt;Node3</title>
<path fill="none" stroke="#9a32cd" stroke-dasharray="5,2" d="M199.784,-61.0678C182.414,-48.2376 157.974,-30.1853 143.68,-19.6273"/>
<polygon fill="#9a32cd" stroke="#9a32cd" points="198.009,-64.1077 208.132,-67.2338 202.168,-58.4771 198.009,-64.1077"/>
<text text-anchor="middle" x="186.5" y="-41" font-family="Helvetica,sans-Serif" font-size="10.00"> p</text>
</g>
<!-- Node7&#45;&gt;Node6 -->
<g id="edge4" class="edge"><title>Node7&#45;&gt;Node6</title>
<path fill="none" stroke="midnightblue" d="M221.313,-114.117C220.975,-104.817 220.584,-94.0557 220.317,-86.7149"/>
<polygon fill="midnightblue" stroke="midnightblue" points="217.826,-114.54 221.688,-124.406 224.822,-114.286 217.826,-114.54"/>
</g>
</g>
</svg>
