<?xml version="1.0" encoding="UTF-8" standalone="no"?>
<!DOCTYPE svg PUBLIC "-//W3C//DTD SVG 1.1//EN"
 "http://www.w3.org/Graphics/SVG/1.1/DTD/svg11.dtd">
<!-- Generated by graphviz version 2.38.0 (20140413.2041)
 -->
<!-- Title: StorageIntf Pages: 1 -->
<svg width="132pt" height="84pt"
 viewBox="0.00 0.00 132.00 84.00" xmlns="http://www.w3.org/2000/svg" xmlns:xlink="http://www.w3.org/1999/xlink">
<g id="graph0" class="graph" transform="scale(1 1) rotate(0) translate(4 80)">
<title>StorageIntf</title>
<polygon fill="white" stroke="none" points="-4,4 -4,-80 128,-80 128,4 -4,4"/>
<!-- Node0 -->
<g id="node1" class="node"><title>Node0</title>
<polygon fill="#bfbfbf" stroke="black" points="35.5,-56.5 35.5,-75.5 100.5,-75.5 100.5,-56.5 35.5,-56.5"/>
<text text-anchor="middle" x="68" y="-63.5" font-family="Helvetica,sans-Serif" font-size="10.00">StorageIntf</text>
</g>
<!-- Node1 -->
<g id="node2" class="node"><title>Node1</title>
<g id="a_node2"><a xlink:href="../../d3/d94/class_file_storage.html" target="_top" xlink:title="Store implementation based on a file. ">
<polygon fill="white" stroke="black" points="0,-0.5 0,-19.5 66,-19.5 66,-0.5 0,-0.5"/>
<text text-anchor="middle" x="33" y="-7.5" font-family="Helvetica,sans-Serif" font-size="10.00">FileStorage</text>
</a>
</g>
</g>
<!-- Node0&#45;&gt;Node1 -->
<g id="edge1" class="edge"><title>Node0&#45;&gt;Node1</title>
<path fill="none" stroke="midnightblue" d="M56.6999,-47.5656C50.6781,-38.2747 43.5314,-27.2484 38.672,-19.7511"/>
<polygon fill="midnightblue" stroke="midnightblue" points="53.8444,-49.5951 62.2205,-56.083 59.7185,-45.7878 53.8444,-49.5951"/>
</g>
<!-- Node2 -->
<g id="node3" class="node"><title>Node2</title>
<g id="a_node3"><a xlink:href="../../db/d9d/class_store.html" target="_top" xlink:title="The Store is a file based memory manager. ">
<polygon fill="white" stroke="black" points="84,-0.5 84,-19.5 124,-19.5 124,-0.5 84,-0.5"/>
<text text-anchor="middle" x="104" y="-7.5" font-family="Helvetica,sans-Serif" font-size="10.00">Store</text>
</a>
</g>
</g>
<!-- Node0&#45;&gt;Node2 -->
<g id="edge2" class="edge"><title>Node0&#45;&gt;Node2</title>
<path fill="none" stroke="midnightblue" d="M79.6229,-47.5656C85.8168,-38.2747 93.1677,-27.2484 98.1659,-19.7511"/>
<polygon fill="midnightblue" stroke="midnightblue" points="76.5795,-45.821 73.9447,-56.083 82.4039,-49.7039 76.5795,-45.821"/>
</g>
</g>
</svg>
