<?xml version="1.0" encoding="UTF-8" standalone="no"?>
<!DOCTYPE svg PUBLIC "-//W3C//DTD SVG 1.1//EN"
 "http://www.w3.org/Graphics/SVG/1.1/DTD/svg11.dtd">
<!-- Generated by graphviz version 2.38.0 (20140413.2041)
 -->
<!-- Title: src/membername.cpp Pages: 1 -->
<svg width="1129pt" height="364pt"
 viewBox="0.00 0.00 1129.21 364.00" xmlns="http://www.w3.org/2000/svg" xmlns:xlink="http://www.w3.org/1999/xlink">
<g id="graph0" class="graph" transform="scale(1 1) rotate(0) translate(4 360)">
<title>src/membername.cpp</title>
<polygon fill="white" stroke="none" points="-4,4 -4,-360 1125.21,-360 1125.21,4 -4,4"/>
<!-- Node0 -->
<g id="node1" class="node"><title>Node0</title>
<polygon fill="#bfbfbf" stroke="black" points="526.994,-336.5 526.994,-355.5 637.994,-355.5 637.994,-336.5 526.994,-336.5"/>
<text text-anchor="middle" x="582.494" y="-343.5" font-family="Helvetica,sans-Serif" font-size="10.00">src/membername.cpp</text>
</g>
<!-- Node1 -->
<g id="node2" class="node"><title>Node1</title>
<g id="a_node2"><a xlink:href="../../d7/dfc/membername_8h.html" target="_top" xlink:title="membername.h">
<polygon fill="white" stroke="black" points="630.494,-224.5 630.494,-243.5 714.494,-243.5 714.494,-224.5 630.494,-224.5"/>
<text text-anchor="middle" x="672.494" y="-231.5" font-family="Helvetica,sans-Serif" font-size="10.00">membername.h</text>
</a>
</g>
</g>
<!-- Node0&#45;&gt;Node1 -->
<g id="edge1" class="edge"><title>Node0&#45;&gt;Node1</title>
<path fill="none" stroke="midnightblue" d="M589.556,-336.368C604.54,-318.055 639.727,-275.049 659.106,-251.362"/>
<polygon fill="midnightblue" stroke="midnightblue" points="661.841,-253.547 665.465,-243.591 656.423,-249.115 661.841,-253.547"/>
</g>
<!-- Node11 -->
<g id="node12" class="node"><title>Node11</title>
<g id="a_node12"><a xlink:href="../../d1/da6/classdef_8h.html" target="_top" xlink:title="classdef.h">
<polygon fill="white" stroke="black" points="499.494,-168.5 499.494,-187.5 561.494,-187.5 561.494,-168.5 499.494,-168.5"/>
<text text-anchor="middle" x="530.494" y="-175.5" font-family="Helvetica,sans-Serif" font-size="10.00">classdef.h</text>
</a>
</g>
</g>
<!-- Node0&#45;&gt;Node11 -->
<g id="edge16" class="edge"><title>Node0&#45;&gt;Node11</title>
<path fill="none" stroke="midnightblue" d="M579.698,-336.075C571.477,-309.832 547.267,-232.545 536.169,-197.117"/>
<polygon fill="midnightblue" stroke="midnightblue" points="539.507,-196.065 533.178,-187.568 532.827,-198.157 539.507,-196.065"/>
</g>
<!-- Node13 -->
<g id="node14" class="node"><title>Node13</title>
<g id="a_node14"><a xlink:href="../../d8/d3c/util_8h.html" target="_top" xlink:title="A bunch of utility functions. ">
<polygon fill="white" stroke="black" points="383.494,-224.5 383.494,-243.5 421.494,-243.5 421.494,-224.5 383.494,-224.5"/>
<text text-anchor="middle" x="402.494" y="-231.5" font-family="Helvetica,sans-Serif" font-size="10.00">util.h</text>
</a>
</g>
</g>
<!-- Node0&#45;&gt;Node13 -->
<g id="edge21" class="edge"><title>Node0&#45;&gt;Node13</title>
<path fill="none" stroke="midnightblue" d="M568.37,-336.368C537.35,-317.412 463.04,-272.001 425.309,-248.942"/>
<polygon fill="midnightblue" stroke="midnightblue" points="426.911,-245.819 416.553,-243.591 423.26,-251.792 426.911,-245.819"/>
</g>
<!-- Node19 -->
<g id="node20" class="node"><title>Node19</title>
<g id="a_node20"><a xlink:href="../../d4/d3a/filedef_8h.html" target="_top" xlink:title="filedef.h">
<polygon fill="white" stroke="black" points="778.994,-280.5 778.994,-299.5 829.994,-299.5 829.994,-280.5 778.994,-280.5"/>
<text text-anchor="middle" x="804.494" y="-287.5" font-family="Helvetica,sans-Serif" font-size="10.00">filedef.h</text>
</a>
</g>
</g>
<!-- Node0&#45;&gt;Node19 -->
<g id="edge34" class="edge"><title>Node0&#45;&gt;Node19</title>
<path fill="none" stroke="midnightblue" d="M617.67,-336.444C659.035,-326.382 727.309,-309.775 768.868,-299.666"/>
<polygon fill="midnightblue" stroke="midnightblue" points="769.936,-303.008 778.825,-297.244 768.281,-296.206 769.936,-303.008"/>
</g>
<!-- Node2 -->
<g id="node3" class="node"><title>Node2</title>
<polygon fill="white" stroke="#bfbfbf" points="415.994,-56.5 415.994,-75.5 458.994,-75.5 458.994,-56.5 415.994,-56.5"/>
<text text-anchor="middle" x="437.494" y="-63.5" font-family="Helvetica,sans-Serif" font-size="10.00">qlist.h</text>
</g>
<!-- Node1&#45;&gt;Node2 -->
<g id="edge2" class="edge"><title>Node1&#45;&gt;Node2</title>
<path fill="none" stroke="midnightblue" d="M630.19,-232.834C589.932,-230.512 529.822,-221.137 490.494,-188 458.881,-161.364 445.51,-112.25 440.366,-85.5167"/>
<polygon fill="midnightblue" stroke="midnightblue" points="443.796,-84.8134 438.635,-75.5606 436.899,-86.0123 443.796,-84.8134"/>
</g>
<!-- Node3 -->
<g id="node4" class="node"><title>Node3</title>
<g id="a_node4"><a xlink:href="../../d4/d46/memberdef_8h.html" target="_top" xlink:title="memberdef.h">
<polygon fill="white" stroke="black" points="716.494,-168.5 716.494,-187.5 790.494,-187.5 790.494,-168.5 716.494,-168.5"/>
<text text-anchor="middle" x="753.494" y="-175.5" font-family="Helvetica,sans-Serif" font-size="10.00">memberdef.h</text>
</a>
</g>
</g>
<!-- Node1&#45;&gt;Node3 -->
<g id="edge3" class="edge"><title>Node1&#45;&gt;Node3</title>
<path fill="none" stroke="midnightblue" d="M685.508,-224.324C698.025,-215.979 717.176,-203.212 731.965,-193.352"/>
<polygon fill="midnightblue" stroke="midnightblue" points="734.133,-196.114 740.512,-187.655 730.25,-190.289 734.133,-196.114"/>
</g>
<!-- Node9 -->
<g id="node10" class="node"><title>Node9</title>
<g id="a_node10"><a xlink:href="../../d9/d21/sortdict_8h.html" target="_top" xlink:title="sortdict.h">
<polygon fill="white" stroke="black" points="808.994,-168.5 808.994,-187.5 865.994,-187.5 865.994,-168.5 808.994,-168.5"/>
<text text-anchor="middle" x="837.494" y="-175.5" font-family="Helvetica,sans-Serif" font-size="10.00">sortdict.h</text>
</a>
</g>
</g>
<!-- Node1&#45;&gt;Node9 -->
<g id="edge12" class="edge"><title>Node1&#45;&gt;Node9</title>
<path fill="none" stroke="midnightblue" d="M698.639,-224.444C726.517,-215.32 770.842,-200.813 801.894,-190.651"/>
<polygon fill="midnightblue" stroke="midnightblue" points="803.056,-193.953 811.471,-187.516 800.879,-187.3 803.056,-193.953"/>
</g>
<!-- Node3&#45;&gt;Node2 -->
<g id="edge4" class="edge"><title>Node3&#45;&gt;Node2</title>
<path fill="none" stroke="midnightblue" d="M741.691,-168.483C721.926,-154.614 680.458,-127.179 641.494,-112 582.893,-89.1709 510.081,-76.622 469.197,-70.901"/>
<polygon fill="midnightblue" stroke="midnightblue" points="469.655,-67.4312 459.276,-69.5599 468.717,-74.3681 469.655,-67.4312"/>
</g>
<!-- Node4 -->
<g id="node5" class="node"><title>Node4</title>
<polygon fill="white" stroke="#bfbfbf" points="731.494,-112.5 731.494,-131.5 799.494,-131.5 799.494,-112.5 731.494,-112.5"/>
<text text-anchor="middle" x="765.494" y="-119.5" font-family="Helvetica,sans-Serif" font-size="10.00">sys/types.h</text>
</g>
<!-- Node3&#45;&gt;Node4 -->
<g id="edge5" class="edge"><title>Node3&#45;&gt;Node4</title>
<path fill="none" stroke="midnightblue" d="M755.475,-168.083C757.066,-160.927 759.353,-150.635 761.34,-141.691"/>
<polygon fill="midnightblue" stroke="midnightblue" points="764.797,-142.272 763.549,-131.751 757.963,-140.754 764.797,-142.272"/>
</g>
<!-- Node5 -->
<g id="node6" class="node"><title>Node5</title>
<g id="a_node6"><a xlink:href="../../d9/d49/types_8h.html" target="_top" xlink:title="This file contains a number of basic enums and types. ">
<polygon fill="white" stroke="black" points="840.994,-56.5 840.994,-75.5 889.994,-75.5 889.994,-56.5 840.994,-56.5"/>
<text text-anchor="middle" x="865.494" y="-63.5" font-family="Helvetica,sans-Serif" font-size="10.00">types.h</text>
</a>
</g>
</g>
<!-- Node3&#45;&gt;Node5 -->
<g id="edge6" class="edge"><title>Node3&#45;&gt;Node5</title>
<path fill="none" stroke="midnightblue" d="M765.34,-168.221C776.811,-159.513 794.477,-145.546 808.494,-132 824.43,-116.599 840.946,-97.3403 852.07,-83.7972"/>
<polygon fill="midnightblue" stroke="midnightblue" points="854.959,-85.7915 858.542,-75.8209 849.524,-81.381 854.959,-85.7915"/>
</g>
<!-- Node7 -->
<g id="node8" class="node"><title>Node7</title>
<g id="a_node8"><a xlink:href="../../df/da1/definition_8h.html" target="_top" xlink:title="definition.h">
<polygon fill="white" stroke="black" points="893.494,-112.5 893.494,-131.5 957.494,-131.5 957.494,-112.5 893.494,-112.5"/>
<text text-anchor="middle" x="925.494" y="-119.5" font-family="Helvetica,sans-Serif" font-size="10.00">definition.h</text>
</a>
</g>
</g>
<!-- Node3&#45;&gt;Node7 -->
<g id="edge8" class="edge"><title>Node3&#45;&gt;Node7</title>
<path fill="none" stroke="midnightblue" d="M780.748,-168.444C809.935,-159.28 856.415,-144.688 888.803,-134.519"/>
<polygon fill="midnightblue" stroke="midnightblue" points="889.875,-137.851 898.368,-131.516 887.778,-131.173 889.875,-137.851"/>
</g>
<!-- Node6 -->
<g id="node7" class="node"><title>Node6</title>
<polygon fill="white" stroke="#bfbfbf" points="199.994,-0.5 199.994,-19.5 258.994,-19.5 258.994,-0.5 199.994,-0.5"/>
<text text-anchor="middle" x="229.494" y="-7.5" font-family="Helvetica,sans-Serif" font-size="10.00">qcstring.h</text>
</g>
<!-- Node5&#45;&gt;Node6 -->
<g id="edge7" class="edge"><title>Node5&#45;&gt;Node6</title>
<path fill="none" stroke="midnightblue" d="M840.952,-62.9162C744.335,-54.7129 389.644,-24.5977 269.552,-14.4012"/>
<polygon fill="midnightblue" stroke="midnightblue" points="269.593,-10.8922 259.333,-13.5335 269.001,-17.8671 269.593,-10.8922"/>
</g>
<!-- Node7&#45;&gt;Node2 -->
<g id="edge9" class="edge"><title>Node7&#45;&gt;Node2</title>
<path fill="none" stroke="midnightblue" d="M893.475,-117.457C804.929,-107.659 557.504,-80.2798 469.26,-70.5151"/>
<polygon fill="midnightblue" stroke="midnightblue" points="469.397,-67.009 459.073,-69.3878 468.627,-73.9665 469.397,-67.009"/>
</g>
<!-- Node7&#45;&gt;Node5 -->
<g id="edge11" class="edge"><title>Node7&#45;&gt;Node5</title>
<path fill="none" stroke="midnightblue" d="M915.854,-112.324C906.984,-104.341 893.619,-92.3128 882.886,-82.6529"/>
<polygon fill="midnightblue" stroke="midnightblue" points="885.084,-79.922 875.309,-75.8339 880.401,-85.1251 885.084,-79.922"/>
</g>
<!-- Node8 -->
<g id="node9" class="node"><title>Node8</title>
<polygon fill="white" stroke="#bfbfbf" points="954.494,-56.5 954.494,-75.5 1000.49,-75.5 1000.49,-56.5 954.494,-56.5"/>
<text text-anchor="middle" x="977.494" y="-63.5" font-family="Helvetica,sans-Serif" font-size="10.00">qdict.h</text>
</g>
<!-- Node7&#45;&gt;Node8 -->
<g id="edge10" class="edge"><title>Node7&#45;&gt;Node8</title>
<path fill="none" stroke="midnightblue" d="M934.081,-112.083C941.653,-104.22 952.872,-92.5688 962.008,-83.0813"/>
<polygon fill="midnightblue" stroke="midnightblue" points="964.652,-85.3821 969.067,-75.7511 959.609,-80.5266 964.652,-85.3821"/>
</g>
<!-- Node9&#45;&gt;Node2 -->
<g id="edge13" class="edge"><title>Node9&#45;&gt;Node2</title>
<path fill="none" stroke="midnightblue" d="M836.322,-168.14C833.915,-153.778 826.985,-125.651 808.494,-112 755.025,-72.5281 549.544,-67.413 469.588,-66.9444"/>
<polygon fill="midnightblue" stroke="midnightblue" points="469.181,-63.443 459.168,-66.906 469.155,-70.4429 469.181,-63.443"/>
</g>
<!-- Node9&#45;&gt;Node8 -->
<g id="edge14" class="edge"><title>Node9&#45;&gt;Node8</title>
<path fill="none" stroke="midnightblue" d="M866.047,-175.224C895.79,-171.765 941.469,-161.626 966.494,-132 977.217,-119.306 979.315,-100.103 979.122,-85.8577"/>
<polygon fill="midnightblue" stroke="midnightblue" points="982.61,-85.5208 978.598,-75.7149 975.619,-85.8824 982.61,-85.5208"/>
</g>
<!-- Node10 -->
<g id="node11" class="node"><title>Node10</title>
<polygon fill="white" stroke="#bfbfbf" points="1051.49,-112.5 1051.49,-131.5 1107.49,-131.5 1107.49,-112.5 1051.49,-112.5"/>
<text text-anchor="middle" x="1079.49" y="-119.5" font-family="Helvetica,sans-Serif" font-size="10.00">qintdict.h</text>
</g>
<!-- Node9&#45;&gt;Node10 -->
<g id="edge15" class="edge"><title>Node9&#45;&gt;Node10</title>
<path fill="none" stroke="midnightblue" d="M866.205,-170.593C909.804,-160.865 992.761,-142.354 1041.37,-131.507"/>
<polygon fill="midnightblue" stroke="midnightblue" points="1042.2,-134.909 1051.19,-129.315 1040.67,-128.077 1042.2,-134.909"/>
</g>
<!-- Node11&#45;&gt;Node2 -->
<g id="edge17" class="edge"><title>Node11&#45;&gt;Node2</title>
<path fill="none" stroke="midnightblue" d="M523.196,-168.368C507.713,-150.055 471.353,-107.049 451.328,-83.3624"/>
<polygon fill="midnightblue" stroke="midnightblue" points="453.887,-80.9682 444.758,-75.5914 448.541,-85.4877 453.887,-80.9682"/>
</g>
<!-- Node11&#45;&gt;Node7 -->
<g id="edge20" class="edge"><title>Node11&#45;&gt;Node7</title>
<path fill="none" stroke="midnightblue" d="M561.819,-172.718C632.283,-163.085 803.333,-139.7 883.157,-128.788"/>
<polygon fill="midnightblue" stroke="midnightblue" points="883.906,-132.218 893.34,-127.396 882.958,-125.283 883.906,-132.218"/>
</g>
<!-- Node11&#45;&gt;Node8 -->
<g id="edge18" class="edge"><title>Node11&#45;&gt;Node8</title>
<path fill="none" stroke="midnightblue" d="M552.053,-168.499C587.24,-154.899 659.422,-128.142 722.494,-112 801.005,-91.9068 895.393,-77.7977 944.365,-71.2087"/>
<polygon fill="midnightblue" stroke="midnightblue" points="944.933,-74.664 954.387,-69.8804 944.014,-67.7247 944.933,-74.664"/>
</g>
<!-- Node12 -->
<g id="node13" class="node"><title>Node12</title>
<polygon fill="white" stroke="#bfbfbf" points="503.994,-112.5 503.994,-131.5 560.994,-131.5 560.994,-112.5 503.994,-112.5"/>
<text text-anchor="middle" x="532.494" y="-119.5" font-family="Helvetica,sans-Serif" font-size="10.00">qptrdict.h</text>
</g>
<!-- Node11&#45;&gt;Node12 -->
<g id="edge19" class="edge"><title>Node11&#45;&gt;Node12</title>
<path fill="none" stroke="midnightblue" d="M530.824,-168.083C531.086,-161.006 531.462,-150.861 531.791,-141.986"/>
<polygon fill="midnightblue" stroke="midnightblue" points="535.297,-141.874 532.17,-131.751 528.302,-141.615 535.297,-141.874"/>
</g>
<!-- Node13&#45;&gt;Node2 -->
<g id="edge22" class="edge"><title>Node13&#45;&gt;Node2</title>
<path fill="none" stroke="midnightblue" d="M398.166,-224.322C388.563,-203.779 367.681,-150.973 385.494,-112 391.271,-99.3602 402.546,-88.911 413.125,-81.2737"/>
<polygon fill="midnightblue" stroke="midnightblue" points="415.343,-84.0009 421.711,-75.5333 411.452,-78.1817 415.343,-84.0009"/>
</g>
<!-- Node13&#45;&gt;Node5 -->
<g id="edge24" class="edge"><title>Node13&#45;&gt;Node5</title>
<path fill="none" stroke="midnightblue" d="M406.107,-224.385C416.202,-201.516 447.108,-139.176 494.494,-112 551.388,-79.3709 749.807,-70.2128 830.731,-67.8041"/>
<polygon fill="midnightblue" stroke="midnightblue" points="830.999,-71.2981 840.897,-67.519 830.803,-64.3008 830.999,-71.2981"/>
</g>
<!-- Node13&#45;&gt;Node9 -->
<g id="edge25" class="edge"><title>Node13&#45;&gt;Node9</title>
<path fill="none" stroke="midnightblue" d="M421.617,-231.649C477.873,-227.504 647.795,-213.761 799.004,-187.873"/>
<polygon fill="midnightblue" stroke="midnightblue" points="799.681,-191.308 808.936,-186.151 798.485,-184.411 799.681,-191.308"/>
</g>
<!-- Node14 -->
<g id="node15" class="node"><title>Node14</title>
<polygon fill="white" stroke="#bfbfbf" points="293.994,-168.5 293.994,-187.5 342.994,-187.5 342.994,-168.5 293.994,-168.5"/>
<text text-anchor="middle" x="318.494" y="-175.5" font-family="Helvetica,sans-Serif" font-size="10.00">ctype.h</text>
</g>
<!-- Node13&#45;&gt;Node14 -->
<g id="edge23" class="edge"><title>Node13&#45;&gt;Node14</title>
<path fill="none" stroke="midnightblue" d="M388.998,-224.324C375.894,-215.9 355.782,-202.971 340.387,-193.074"/>
<polygon fill="midnightblue" stroke="midnightblue" points="342.261,-190.118 331.956,-187.655 338.476,-196.006 342.261,-190.118"/>
</g>
<!-- Node15 -->
<g id="node16" class="node"><title>Node15</title>
<g id="a_node16"><a xlink:href="../../de/d9c/docparser_8h.html" target="_top" xlink:title="docparser.h">
<polygon fill="white" stroke="black" points="120.494,-168.5 120.494,-187.5 188.494,-187.5 188.494,-168.5 120.494,-168.5"/>
<text text-anchor="middle" x="154.494" y="-175.5" font-family="Helvetica,sans-Serif" font-size="10.00">docparser.h</text>
</a>
</g>
</g>
<!-- Node13&#45;&gt;Node15 -->
<g id="edge26" class="edge"><title>Node13&#45;&gt;Node15</title>
<path fill="none" stroke="midnightblue" d="M383.446,-228.852C344.152,-220.296 253.211,-200.495 198.506,-188.583"/>
<polygon fill="midnightblue" stroke="midnightblue" points="199.249,-185.163 188.733,-186.455 197.76,-192.003 199.249,-185.163"/>
</g>
<!-- Node15&#45;&gt;Node2 -->
<g id="edge28" class="edge"><title>Node15&#45;&gt;Node2</title>
<path fill="none" stroke="midnightblue" d="M188.687,-168.449C219.443,-160.358 265.63,-147.209 304.494,-132 315.159,-127.826 375.448,-97.9542 411.088,-80.1924"/>
<polygon fill="midnightblue" stroke="midnightblue" points="413.039,-83.1307 420.426,-75.5352 409.915,-76.8666 413.039,-83.1307"/>
</g>
<!-- Node15&#45;&gt;Node6 -->
<g id="edge29" class="edge"><title>Node15&#45;&gt;Node6</title>
<path fill="none" stroke="midnightblue" d="M120.354,-174.931C68.0802,-170.349 -22.9156,-155.974 5.49392,-112 46.2948,-48.8465 137.091,-24.7784 189.701,-15.9117"/>
<polygon fill="midnightblue" stroke="midnightblue" points="190.357,-19.3517 199.688,-14.334 189.264,-12.4374 190.357,-19.3517"/>
</g>
<!-- Node16 -->
<g id="node17" class="node"><title>Node16</title>
<polygon fill="white" stroke="#bfbfbf" points="14.4939,-112.5 14.4939,-131.5 60.4939,-131.5 60.4939,-112.5 14.4939,-112.5"/>
<text text-anchor="middle" x="37.4939" y="-119.5" font-family="Helvetica,sans-Serif" font-size="10.00">stdio.h</text>
</g>
<!-- Node15&#45;&gt;Node16 -->
<g id="edge27" class="edge"><title>Node15&#45;&gt;Node16</title>
<path fill="none" stroke="midnightblue" d="M135.955,-168.444C116.871,-159.636 86.919,-145.812 65.0582,-135.722"/>
<polygon fill="midnightblue" stroke="midnightblue" points="66.4925,-132.529 55.9462,-131.516 63.5591,-138.885 66.4925,-132.529"/>
</g>
<!-- Node17 -->
<g id="node18" class="node"><title>Node17</title>
<g id="a_node18"><a xlink:href="../../d2/d3c/docvisitor_8h.html" target="_top" xlink:title="docvisitor.h">
<polygon fill="white" stroke="black" points="78.9939,-112.5 78.9939,-131.5 145.994,-131.5 145.994,-112.5 78.9939,-112.5"/>
<text text-anchor="middle" x="112.494" y="-119.5" font-family="Helvetica,sans-Serif" font-size="10.00">docvisitor.h</text>
</a>
</g>
</g>
<!-- Node15&#45;&gt;Node17 -->
<g id="edge30" class="edge"><title>Node15&#45;&gt;Node17</title>
<path fill="none" stroke="midnightblue" d="M147.558,-168.083C141.565,-160.377 132.742,-149.033 125.446,-139.653"/>
<polygon fill="midnightblue" stroke="midnightblue" points="128.202,-137.496 119.3,-131.751 122.677,-141.793 128.202,-137.496"/>
</g>
<!-- Node18 -->
<g id="node19" class="node"><title>Node18</title>
<g id="a_node19"><a xlink:href="../../d0/d73/htmlattrib_8h.html" target="_top" xlink:title="htmlattrib.h">
<polygon fill="white" stroke="black" points="163.994,-112.5 163.994,-131.5 228.994,-131.5 228.994,-112.5 163.994,-112.5"/>
<text text-anchor="middle" x="196.494" y="-119.5" font-family="Helvetica,sans-Serif" font-size="10.00">htmlattrib.h</text>
</a>
</g>
</g>
<!-- Node15&#45;&gt;Node18 -->
<g id="edge31" class="edge"><title>Node15&#45;&gt;Node18</title>
<path fill="none" stroke="midnightblue" d="M161.429,-168.083C167.423,-160.377 176.246,-149.033 183.542,-139.653"/>
<polygon fill="midnightblue" stroke="midnightblue" points="186.311,-141.793 189.688,-131.751 180.785,-137.496 186.311,-141.793"/>
</g>
<!-- Node18&#45;&gt;Node2 -->
<g id="edge33" class="edge"><title>Node18&#45;&gt;Node2</title>
<path fill="none" stroke="midnightblue" d="M228.996,-113.717C275.364,-103.328 359.954,-84.3742 405.846,-74.0912"/>
<polygon fill="midnightblue" stroke="midnightblue" points="406.837,-77.456 415.83,-71.8542 405.307,-70.6254 406.837,-77.456"/>
</g>
<!-- Node18&#45;&gt;Node6 -->
<g id="edge32" class="edge"><title>Node18&#45;&gt;Node6</title>
<path fill="none" stroke="midnightblue" d="M199.083,-112.368C204.433,-94.5366 216.805,-53.2953 224.012,-29.2717"/>
<polygon fill="midnightblue" stroke="midnightblue" points="227.395,-30.1754 226.916,-19.5914 220.691,-28.1639 227.395,-30.1754"/>
</g>
<!-- Node19&#45;&gt;Node2 -->
<g id="edge38" class="edge"><title>Node19&#45;&gt;Node2</title>
<path fill="none" stroke="midnightblue" d="M778.699,-289.717C739.907,-289.4 666.326,-283.188 621.494,-244 574.019,-202.502 615.11,-155.533 569.494,-112 542.038,-85.7981 498.716,-74.812 469.251,-70.2319"/>
<polygon fill="midnightblue" stroke="midnightblue" points="469.464,-66.7279 459.078,-68.818 468.501,-73.6613 469.464,-66.7279"/>
</g>
<!-- Node19&#45;&gt;Node7 -->
<g id="edge41" class="edge"><title>Node19&#45;&gt;Node7</title>
<path fill="none" stroke="midnightblue" d="M810.999,-280.075C830.376,-253.493 887.927,-174.538 913.275,-139.763"/>
<polygon fill="midnightblue" stroke="midnightblue" points="916.186,-141.711 919.248,-131.568 910.53,-137.588 916.186,-141.711"/>
</g>
<!-- Node19&#45;&gt;Node8 -->
<g id="edge40" class="edge"><title>Node19&#45;&gt;Node8</title>
<path fill="none" stroke="midnightblue" d="M830.019,-285.336C892.558,-274.814 1052.96,-238.136 1116.49,-132 1141.61,-90.0493 1059.27,-74.8408 1010.64,-69.5921"/>
<polygon fill="midnightblue" stroke="midnightblue" points="1010.83,-66.0941 1000.54,-68.5909 1010.14,-73.06 1010.83,-66.0941"/>
</g>
<!-- Node19&#45;&gt;Node9 -->
<g id="edge42" class="edge"><title>Node19&#45;&gt;Node9</title>
<path fill="none" stroke="midnightblue" d="M807.083,-280.368C812.433,-262.537 824.805,-221.295 832.012,-197.272"/>
<polygon fill="midnightblue" stroke="midnightblue" points="835.395,-198.175 834.916,-187.591 828.691,-196.164 835.395,-198.175"/>
</g>
<!-- Node19&#45;&gt;Node10 -->
<g id="edge39" class="edge"><title>Node19&#45;&gt;Node10</title>
<path fill="none" stroke="midnightblue" d="M818.892,-280.309C863.814,-253.192 1001.67,-169.98 1056.58,-136.834"/>
<polygon fill="midnightblue" stroke="midnightblue" points="1058.49,-139.769 1065.24,-131.605 1054.87,-133.777 1058.49,-139.769"/>
</g>
<!-- Node20 -->
<g id="node21" class="node"><title>Node20</title>
<g id="a_node21"><a xlink:href="../../d1/db5/index_8h.html" target="_top" xlink:title="index.h">
<polygon fill="white" stroke="black" points="247.494,-112.5 247.494,-131.5 295.494,-131.5 295.494,-112.5 247.494,-112.5"/>
<text text-anchor="middle" x="271.494" y="-119.5" font-family="Helvetica,sans-Serif" font-size="10.00">index.h</text>
</a>
</g>
</g>
<!-- Node19&#45;&gt;Node20 -->
<g id="edge35" class="edge"><title>Node19&#45;&gt;Node20</title>
<path fill="none" stroke="midnightblue" d="M778.859,-287.827C698.156,-283.898 450.197,-269.967 374.494,-244 329.931,-228.715 311.32,-226.728 284.494,-188 275.176,-174.549 272.199,-155.988 271.393,-142.143"/>
<polygon fill="midnightblue" stroke="midnightblue" points="274.884,-141.747 271.135,-131.838 267.886,-141.922 274.884,-141.747"/>
</g>
<!-- Node21 -->
<g id="node22" class="node"><title>Node21</title>
<g id="a_node22"><a xlink:href="../../dd/d78/memberlist_8h.html" target="_top" xlink:title="memberlist.h">
<polygon fill="white" stroke="black" points="735.994,-224.5 735.994,-243.5 808.994,-243.5 808.994,-224.5 735.994,-224.5"/>
<text text-anchor="middle" x="772.494" y="-231.5" font-family="Helvetica,sans-Serif" font-size="10.00">memberlist.h</text>
</a>
</g>
</g>
<!-- Node19&#45;&gt;Node21 -->
<g id="edge43" class="edge"><title>Node19&#45;&gt;Node21</title>
<path fill="none" stroke="midnightblue" d="M799.21,-280.083C794.783,-272.613 788.331,-261.724 782.876,-252.52"/>
<polygon fill="midnightblue" stroke="midnightblue" points="785.789,-250.57 777.68,-243.751 779.767,-254.138 785.789,-250.57"/>
</g>
<!-- Node20&#45;&gt;Node2 -->
<g id="edge36" class="edge"><title>Node20&#45;&gt;Node2</title>
<path fill="none" stroke="midnightblue" d="M295.632,-113.148C324.842,-103.646 374.092,-87.6247 406.195,-77.1817"/>
<polygon fill="midnightblue" stroke="midnightblue" points="407.541,-80.4243 415.968,-74.0025 405.376,-73.7677 407.541,-80.4243"/>
</g>
<!-- Node20&#45;&gt;Node6 -->
<g id="edge37" class="edge"><title>Node20&#45;&gt;Node6</title>
<path fill="none" stroke="midnightblue" d="M268.198,-112.368C261.359,-94.4563 245.501,-52.9233 236.347,-28.9482"/>
<polygon fill="midnightblue" stroke="midnightblue" points="239.611,-27.6851 232.774,-19.5914 233.072,-30.1821 239.611,-27.6851"/>
</g>
<!-- Node21&#45;&gt;Node2 -->
<g id="edge44" class="edge"><title>Node21&#45;&gt;Node2</title>
<path fill="none" stroke="midnightblue" d="M759.967,-224.467C746.829,-215.485 725.612,-200.889 707.494,-188 660.844,-154.815 655.096,-136.793 603.494,-112 559.224,-90.7298 503.313,-78.2153 468.996,-71.986"/>
<polygon fill="midnightblue" stroke="midnightblue" points="469.529,-68.5262 459.076,-70.2518 468.324,-75.4217 469.529,-68.5262"/>
</g>
<!-- Node21&#45;&gt;Node3 -->
<g id="edge45" class="edge"><title>Node21&#45;&gt;Node3</title>
<path fill="none" stroke="midnightblue" d="M769.356,-224.083C766.811,-216.849 763.138,-206.409 759.967,-197.397"/>
<polygon fill="midnightblue" stroke="midnightblue" points="763.194,-196.023 756.573,-187.751 756.591,-198.346 763.194,-196.023"/>
</g>
<!-- Node21&#45;&gt;Node5 -->
<g id="edge47" class="edge"><title>Node21&#45;&gt;Node5</title>
<path fill="none" stroke="midnightblue" d="M809.091,-226.371C855.685,-215.707 934.031,-189.764 966.494,-132 983.51,-101.723 935.63,-83.3286 900.096,-74.1713"/>
<polygon fill="midnightblue" stroke="midnightblue" points="900.552,-70.6804 890.009,-71.7269 898.903,-77.4835 900.552,-70.6804"/>
</g>
<!-- Node21&#45;&gt;Node9 -->
<g id="edge46" class="edge"><title>Node21&#45;&gt;Node9</title>
<path fill="none" stroke="midnightblue" d="M782.937,-224.324C792.64,-216.263 807.309,-204.077 818.994,-194.369"/>
<polygon fill="midnightblue" stroke="midnightblue" points="821.405,-196.916 826.861,-187.834 816.932,-191.532 821.405,-196.916"/>
</g>
</g>
</svg>
