<?xml version="1.0" encoding="UTF-8" standalone="no"?>
<!DOCTYPE svg PUBLIC "-//W3C//DTD SVG 1.1//EN"
 "http://www.w3.org/Graphics/SVG/1.1/DTD/svg11.dtd">
<!-- Generated by graphviz version 2.38.0 (20140413.2041)
 -->
<!-- Title: TranslatorAdapter_1_4_6 Pages: 1 -->
<svg width="1651pt" height="180pt"
 viewBox="0.00 0.00 1651.00 180.00" xmlns="http://www.w3.org/2000/svg" xmlns:xlink="http://www.w3.org/1999/xlink">
<g id="graph0" class="graph" transform="scale(1 1) rotate(0) translate(4 176)">
<title>TranslatorAdapter_1_4_6</title>
<polygon fill="white" stroke="none" points="-4,4 -4,-176 1647,-176 1647,4 -4,4"/>
<!-- Node0 -->
<g id="node1" class="node"><title>Node0</title>
<polygon fill="#bfbfbf" stroke="black" points="1375,-76.5 1375,-95.5 1500,-95.5 1500,-76.5 1375,-76.5"/>
<text text-anchor="middle" x="1437.5" y="-83.5" font-family="Helvetica,sans-Serif" font-size="10.00">TranslatorAdapter_1_4_6</text>
</g>
<!-- Node10 -->
<g id="node11" class="node"><title>Node10</title>
<g id="a_node11"><a xlink:href="../../d3/de9/class_translator_arabic.html" target="_top" xlink:title="TranslatorArabic">
<polygon fill="white" stroke="black" points="1545.5,-152.5 1545.5,-171.5 1633.5,-171.5 1633.5,-152.5 1545.5,-152.5"/>
<text text-anchor="middle" x="1589.5" y="-159.5" font-family="Helvetica,sans-Serif" font-size="10.00">TranslatorArabic</text>
</a>
</g>
</g>
<!-- Node0&#45;&gt;Node10 -->
<g id="edge10" class="edge"><title>Node0&#45;&gt;Node10</title>
<path fill="none" stroke="midnightblue" d="M1461.36,-100.967C1480.72,-113.249 1509.48,-130.576 1536,-143 1543.37,-146.454 1551.56,-149.687 1559.23,-152.473"/>
<polygon fill="midnightblue" stroke="midnightblue" points="1463.22,-98.0035 1452.91,-95.5516 1459.44,-103.896 1463.22,-98.0035"/>
</g>
<!-- Node11 -->
<g id="node12" class="node"><title>Node11</title>
<g id="a_node12"><a xlink:href="../../db/d5f/class_translator_hungarian.html" target="_top" xlink:title="TranslatorHungarian">
<polygon fill="white" stroke="black" points="1537.5,-114.5 1537.5,-133.5 1641.5,-133.5 1641.5,-114.5 1537.5,-114.5"/>
<text text-anchor="middle" x="1589.5" y="-121.5" font-family="Helvetica,sans-Serif" font-size="10.00">TranslatorHungarian</text>
</a>
</g>
</g>
<!-- Node0&#45;&gt;Node11 -->
<g id="edge11" class="edge"><title>Node0&#45;&gt;Node11</title>
<path fill="none" stroke="midnightblue" d="M1486.31,-98.1121C1507.2,-103.404 1531.35,-109.521 1550.92,-114.48"/>
<polygon fill="midnightblue" stroke="midnightblue" points="1486.9,-94.652 1476.35,-95.589 1485.19,-101.438 1486.9,-94.652"/>
</g>
<!-- Node12 -->
<g id="node13" class="node"><title>Node12</title>
<g id="a_node13"><a xlink:href="../../dc/d53/class_translator_lithuanian.html" target="_top" xlink:title="TranslatorLithuanian">
<polygon fill="white" stroke="black" points="1537.5,-76.5 1537.5,-95.5 1641.5,-95.5 1641.5,-76.5 1537.5,-76.5"/>
<text text-anchor="middle" x="1589.5" y="-83.5" font-family="Helvetica,sans-Serif" font-size="10.00">TranslatorLithuanian</text>
</a>
</g>
</g>
<!-- Node0&#45;&gt;Node12 -->
<g id="edge12" class="edge"><title>Node0&#45;&gt;Node12</title>
<path fill="none" stroke="midnightblue" d="M1510.52,-86C1519.55,-86 1528.64,-86 1537.26,-86"/>
<polygon fill="midnightblue" stroke="midnightblue" points="1510.38,-82.5001 1500.38,-86 1510.38,-89.5001 1510.38,-82.5001"/>
</g>
<!-- Node13 -->
<g id="node14" class="node"><title>Node13</title>
<g id="a_node14"><a xlink:href="../../dd/d38/class_translator_norwegian.html" target="_top" xlink:title="TranslatorNorwegian">
<polygon fill="white" stroke="black" points="1536,-38.5 1536,-57.5 1643,-57.5 1643,-38.5 1536,-38.5"/>
<text text-anchor="middle" x="1589.5" y="-45.5" font-family="Helvetica,sans-Serif" font-size="10.00">TranslatorNorwegian</text>
</a>
</g>
</g>
<!-- Node0&#45;&gt;Node13 -->
<g id="edge13" class="edge"><title>Node0&#45;&gt;Node13</title>
<path fill="none" stroke="midnightblue" d="M1486.31,-73.8879C1507.2,-68.5956 1531.35,-62.4787 1550.92,-57.5201"/>
<polygon fill="midnightblue" stroke="midnightblue" points="1485.19,-70.5623 1476.35,-76.411 1486.9,-77.348 1485.19,-70.5623"/>
</g>
<!-- Node14 -->
<g id="node15" class="node"><title>Node14</title>
<g id="a_node15"><a xlink:href="../../dd/d0b/class_translator_slovene.html" target="_top" xlink:title="TranslatorSlovene">
<polygon fill="white" stroke="black" points="1542,-0.5 1542,-19.5 1637,-19.5 1637,-0.5 1542,-0.5"/>
<text text-anchor="middle" x="1589.5" y="-7.5" font-family="Helvetica,sans-Serif" font-size="10.00">TranslatorSlovene</text>
</a>
</g>
</g>
<!-- Node0&#45;&gt;Node14 -->
<g id="edge14" class="edge"><title>Node0&#45;&gt;Node14</title>
<path fill="none" stroke="midnightblue" d="M1461.36,-71.0325C1480.72,-58.7511 1509.48,-41.4235 1536,-29 1543.37,-25.5456 1551.56,-22.3126 1559.23,-19.5274"/>
<polygon fill="midnightblue" stroke="midnightblue" points="1459.44,-68.104 1452.91,-76.4484 1463.22,-73.9965 1459.44,-68.104"/>
</g>
<!-- Node1 -->
<g id="node2" class="node"><title>Node1</title>
<g id="a_node2"><a xlink:href="../../df/dc7/class_translator_adapter__1__5__4.html" target="_top" xlink:title="Adapter class for languages that only contain translations up to version 1.5.4. ">
<polygon fill="white" stroke="black" points="1214,-76.5 1214,-95.5 1339,-95.5 1339,-76.5 1214,-76.5"/>
<text text-anchor="middle" x="1276.5" y="-83.5" font-family="Helvetica,sans-Serif" font-size="10.00">TranslatorAdapter_1_5_4</text>
</a>
</g>
</g>
<!-- Node1&#45;&gt;Node0 -->
<g id="edge1" class="edge"><title>Node1&#45;&gt;Node0</title>
<path fill="none" stroke="midnightblue" d="M1349.59,-86C1357.99,-86 1366.5,-86 1374.74,-86"/>
<polygon fill="midnightblue" stroke="midnightblue" points="1349.43,-82.5001 1339.43,-86 1349.43,-89.5001 1349.43,-82.5001"/>
</g>
<!-- Node2 -->
<g id="node3" class="node"><title>Node2</title>
<g id="a_node3"><a xlink:href="../../d3/da1/class_translator_adapter__1__6__0.html" target="_top" xlink:title="Adapter class for languages that only contain translations up to version 1.6.0. ">
<polygon fill="white" stroke="black" points="1053,-76.5 1053,-95.5 1178,-95.5 1178,-76.5 1053,-76.5"/>
<text text-anchor="middle" x="1115.5" y="-83.5" font-family="Helvetica,sans-Serif" font-size="10.00">TranslatorAdapter_1_6_0</text>
</a>
</g>
</g>
<!-- Node2&#45;&gt;Node1 -->
<g id="edge2" class="edge"><title>Node2&#45;&gt;Node1</title>
<path fill="none" stroke="midnightblue" d="M1188.59,-86C1196.99,-86 1205.5,-86 1213.74,-86"/>
<polygon fill="midnightblue" stroke="midnightblue" points="1188.43,-82.5001 1178.43,-86 1188.43,-89.5001 1188.43,-82.5001"/>
</g>
<!-- Node3 -->
<g id="node4" class="node"><title>Node3</title>
<g id="a_node4"><a xlink:href="../../d7/d29/class_translator_adapter__1__6__3.html" target="_top" xlink:title="Adapter class for languages that only contain translations up to version 1.6.3. ">
<polygon fill="white" stroke="black" points="892,-76.5 892,-95.5 1017,-95.5 1017,-76.5 892,-76.5"/>
<text text-anchor="middle" x="954.5" y="-83.5" font-family="Helvetica,sans-Serif" font-size="10.00">TranslatorAdapter_1_6_3</text>
</a>
</g>
</g>
<!-- Node3&#45;&gt;Node2 -->
<g id="edge3" class="edge"><title>Node3&#45;&gt;Node2</title>
<path fill="none" stroke="midnightblue" d="M1027.59,-86C1035.99,-86 1044.5,-86 1052.74,-86"/>
<polygon fill="midnightblue" stroke="midnightblue" points="1027.43,-82.5001 1017.43,-86 1027.43,-89.5001 1027.43,-82.5001"/>
</g>
<!-- Node4 -->
<g id="node5" class="node"><title>Node4</title>
<g id="a_node5"><a xlink:href="../../da/d24/class_translator_adapter__1__7__5.html" target="_top" xlink:title="Adapter class for languages that only contain translations up to version 1.7.5. ">
<polygon fill="white" stroke="black" points="731,-76.5 731,-95.5 856,-95.5 856,-76.5 731,-76.5"/>
<text text-anchor="middle" x="793.5" y="-83.5" font-family="Helvetica,sans-Serif" font-size="10.00">TranslatorAdapter_1_7_5</text>
</a>
</g>
</g>
<!-- Node4&#45;&gt;Node3 -->
<g id="edge4" class="edge"><title>Node4&#45;&gt;Node3</title>
<path fill="none" stroke="midnightblue" d="M866.592,-86C874.99,-86 883.499,-86 891.74,-86"/>
<polygon fill="midnightblue" stroke="midnightblue" points="866.429,-82.5001 856.429,-86 866.429,-89.5001 866.429,-82.5001"/>
</g>
<!-- Node5 -->
<g id="node6" class="node"><title>Node5</title>
<g id="a_node6"><a xlink:href="../../de/d49/class_translator_adapter__1__8__0.html" target="_top" xlink:title="Adapter class for languages that only contain translations up to version 1.8.0. ">
<polygon fill="white" stroke="black" points="570,-76.5 570,-95.5 695,-95.5 695,-76.5 570,-76.5"/>
<text text-anchor="middle" x="632.5" y="-83.5" font-family="Helvetica,sans-Serif" font-size="10.00">TranslatorAdapter_1_8_0</text>
</a>
</g>
</g>
<!-- Node5&#45;&gt;Node4 -->
<g id="edge5" class="edge"><title>Node5&#45;&gt;Node4</title>
<path fill="none" stroke="midnightblue" d="M705.592,-86C713.99,-86 722.499,-86 730.74,-86"/>
<polygon fill="midnightblue" stroke="midnightblue" points="705.429,-82.5001 695.429,-86 705.429,-89.5001 705.429,-82.5001"/>
</g>
<!-- Node6 -->
<g id="node7" class="node"><title>Node6</title>
<g id="a_node7"><a xlink:href="../../d2/d75/class_translator_adapter__1__8__2.html" target="_top" xlink:title="TranslatorAdapter_1_8_2">
<polygon fill="white" stroke="black" points="409,-76.5 409,-95.5 534,-95.5 534,-76.5 409,-76.5"/>
<text text-anchor="middle" x="471.5" y="-83.5" font-family="Helvetica,sans-Serif" font-size="10.00">TranslatorAdapter_1_8_2</text>
</a>
</g>
</g>
<!-- Node6&#45;&gt;Node5 -->
<g id="edge6" class="edge"><title>Node6&#45;&gt;Node5</title>
<path fill="none" stroke="midnightblue" d="M544.592,-86C552.99,-86 561.499,-86 569.74,-86"/>
<polygon fill="midnightblue" stroke="midnightblue" points="544.429,-82.5001 534.429,-86 544.429,-89.5001 544.429,-82.5001"/>
</g>
<!-- Node7 -->
<g id="node8" class="node"><title>Node7</title>
<g id="a_node8"><a xlink:href="../../de/d2f/class_translator_adapter__1__8__4.html" target="_top" xlink:title="TranslatorAdapter_1_8_4">
<polygon fill="white" stroke="black" points="248,-76.5 248,-95.5 373,-95.5 373,-76.5 248,-76.5"/>
<text text-anchor="middle" x="310.5" y="-83.5" font-family="Helvetica,sans-Serif" font-size="10.00">TranslatorAdapter_1_8_4</text>
</a>
</g>
</g>
<!-- Node7&#45;&gt;Node6 -->
<g id="edge7" class="edge"><title>Node7&#45;&gt;Node6</title>
<path fill="none" stroke="midnightblue" d="M383.592,-86C391.99,-86 400.499,-86 408.74,-86"/>
<polygon fill="midnightblue" stroke="midnightblue" points="383.429,-82.5001 373.429,-86 383.429,-89.5001 383.429,-82.5001"/>
</g>
<!-- Node8 -->
<g id="node9" class="node"><title>Node8</title>
<g id="a_node9"><a xlink:href="../../db/d6c/class_translator_adapter_base.html" target="_top" xlink:title="Base of the translator adapter tree. ">
<polygon fill="white" stroke="black" points="96,-76.5 96,-95.5 212,-95.5 212,-76.5 96,-76.5"/>
<text text-anchor="middle" x="154" y="-83.5" font-family="Helvetica,sans-Serif" font-size="10.00">TranslatorAdapterBase</text>
</a>
</g>
</g>
<!-- Node8&#45;&gt;Node7 -->
<g id="edge8" class="edge"><title>Node8&#45;&gt;Node7</title>
<path fill="none" stroke="midnightblue" d="M222.367,-86C230.88,-86 239.556,-86 247.973,-86"/>
<polygon fill="midnightblue" stroke="midnightblue" points="222.091,-82.5001 212.091,-86 222.091,-89.5001 222.091,-82.5001"/>
</g>
<!-- Node9 -->
<g id="node10" class="node"><title>Node9</title>
<g id="a_node10"><a xlink:href="../../d8/dfb/class_translator.html" target="_top" xlink:title="Abstract base class for all translatable text fragments. ">
<polygon fill="white" stroke="black" points="0,-76.5 0,-95.5 60,-95.5 60,-76.5 0,-76.5"/>
<text text-anchor="middle" x="30" y="-83.5" font-family="Helvetica,sans-Serif" font-size="10.00">Translator</text>
</a>
</g>
</g>
<!-- Node9&#45;&gt;Node8 -->
<g id="edge9" class="edge"><title>Node9&#45;&gt;Node8</title>
<path fill="none" stroke="midnightblue" d="M70.4645,-86C78.5532,-86 87.2216,-86 95.7899,-86"/>
<polygon fill="midnightblue" stroke="midnightblue" points="70.2221,-82.5001 60.222,-86 70.222,-89.5001 70.2221,-82.5001"/>
</g>
</g>
</svg>
