<?xml version="1.0" encoding="UTF-8" standalone="no"?>
<!DOCTYPE svg PUBLIC "-//W3C//DTD SVG 1.1//EN"
 "http://www.w3.org/Graphics/SVG/1.1/DTD/svg11.dtd">
<!-- Generated by graphviz version 2.38.0 (20140413.2041)
 -->
<!-- Title: PropertyMapper&lt; T &gt; Pages: 1 -->
<svg width="486pt" height="1697pt"
 viewBox="0.00 0.00 486.00 1697.36" xmlns="http://www.w3.org/2000/svg" xmlns:xlink="http://www.w3.org/1999/xlink">
<g id="graph0" class="graph" transform="scale(1 1) rotate(0) translate(4 1693.36)">
<title>PropertyMapper&lt; T &gt;</title>
<polygon fill="white" stroke="none" points="-4,4 -4,-1693.36 482,-1693.36 482,4 -4,4"/>
<!-- Node0 -->
<g id="node1" class="node"><title>Node0</title>
<polygon fill="#bfbfbf" stroke="black" points="0,-827.858 0,-846.858 110,-846.858 110,-827.858 0,-827.858"/>
<text text-anchor="middle" x="55" y="-834.858" font-family="Helvetica,sans-Serif" font-size="10.00">PropertyMapper&lt; T &gt;</text>
</g>
<!-- Node1 -->
<g id="node2" class="node"><title>Node1</title>
<g id="a_node2"><a xlink:href="../../d1/d80/class_property_mapper.html" target="_top" xlink:title="PropertyMapper\&lt; MemberInfo\lContext::Private \&gt;">
<polygon fill="white" stroke="black" points="321,-1631.36 321,-1661.36 467,-1661.36 467,-1631.36 321,-1631.36"/>
<text text-anchor="start" x="329" y="-1649.36" font-family="Helvetica,sans-Serif" font-size="10.00">PropertyMapper&lt; MemberInfo</text>
<text text-anchor="middle" x="394" y="-1638.36" font-family="Helvetica,sans-Serif" font-size="10.00">Context::Private &gt;</text>
</a>
</g>
</g>
<!-- Node0&#45;&gt;Node1 -->
<g id="edge1" class="edge"><title>Node0&#45;&gt;Node1</title>
<path fill="none" stroke="orange" stroke-dasharray="5,2" d="M56.3212,-857.093C58.4087,-973.627 71.7832,-1568.61 128,-1624.36 180.367,-1676.29 270.57,-1671.97 330.996,-1661.39"/>
<polygon fill="orange" stroke="orange" points="59.8205,-857.019 56.149,-847.081 52.8216,-857.14 59.8205,-857.019"/>
<text text-anchor="start" x="160.5" y="-1681.36" font-family="Helvetica,sans-Serif" font-size="10.00"> &lt; MemberInfoContext</text>
<text text-anchor="middle" x="210" y="-1670.36" font-family="Helvetica,sans-Serif" font-size="10.00">::Private &gt;</text>
</g>
<!-- Node2 -->
<g id="node3" class="node"><title>Node2</title>
<g id="a_node3"><a xlink:href="../../d1/d80/class_property_mapper.html" target="_top" xlink:title="PropertyMapper\&lt; SearchIndex\lContext::Private \&gt;">
<polygon fill="white" stroke="black" points="319.5,-1582.36 319.5,-1612.36 468.5,-1612.36 468.5,-1582.36 319.5,-1582.36"/>
<text text-anchor="start" x="327.5" y="-1600.36" font-family="Helvetica,sans-Serif" font-size="10.00">PropertyMapper&lt; SearchIndex</text>
<text text-anchor="middle" x="394" y="-1589.36" font-family="Helvetica,sans-Serif" font-size="10.00">Context::Private &gt;</text>
</a>
</g>
</g>
<!-- Node0&#45;&gt;Node2 -->
<g id="edge2" class="edge"><title>Node0&#45;&gt;Node2</title>
<path fill="none" stroke="orange" stroke-dasharray="5,2" d="M56.4507,-857.239C59.193,-969.747 75.3135,-1523.43 128,-1575.36 154.179,-1601.16 250.335,-1603.38 319.277,-1601.36"/>
<polygon fill="orange" stroke="orange" points="59.9439,-856.908 56.2087,-846.994 52.9459,-857.073 59.9439,-856.908"/>
<text text-anchor="start" x="159" y="-1615.36" font-family="Helvetica,sans-Serif" font-size="10.00"> &lt; SearchIndexContext</text>
<text text-anchor="middle" x="210" y="-1604.36" font-family="Helvetica,sans-Serif" font-size="10.00">::Private &gt;</text>
</g>
<!-- Node3 -->
<g id="node4" class="node"><title>Node3</title>
<g id="a_node4"><a xlink:href="../../d1/d80/class_property_mapper.html" target="_top" xlink:title="PropertyMapper\&lt; PageContext\l::Private \&gt;">
<polygon fill="white" stroke="black" points="318,-1533.36 318,-1563.36 470,-1563.36 470,-1533.36 318,-1533.36"/>
<text text-anchor="start" x="326" y="-1551.36" font-family="Helvetica,sans-Serif" font-size="10.00">PropertyMapper&lt; PageContext</text>
<text text-anchor="middle" x="394" y="-1540.36" font-family="Helvetica,sans-Serif" font-size="10.00">::Private &gt;</text>
</a>
</g>
</g>
<!-- Node0&#45;&gt;Node3 -->
<g id="edge3" class="edge"><title>Node0&#45;&gt;Node3</title>
<path fill="none" stroke="orange" stroke-dasharray="5,2" d="M56.6655,-857.243C60.4291,-964.095 80.5858,-1467.08 128,-1515.36 176.322,-1564.56 257.959,-1567.73 317.881,-1561.74"/>
<polygon fill="orange" stroke="orange" points="60.1612,-857.055 56.3189,-847.181 53.1654,-857.296 60.1612,-857.055"/>
<text text-anchor="middle" x="210" y="-1566.36" font-family="Helvetica,sans-Serif" font-size="10.00"> &lt; PageContext::Private &gt;</text>
</g>
<!-- Node4 -->
<g id="node5" class="node"><title>Node4</title>
<g id="a_node5"><a xlink:href="../../d1/d80/class_property_mapper.html" target="_top" xlink:title="PropertyMapper\&lt; MemberContext\l::Private \&gt;">
<polygon fill="white" stroke="black" points="312,-1484.36 312,-1514.36 476,-1514.36 476,-1484.36 312,-1484.36"/>
<text text-anchor="start" x="320" y="-1502.36" font-family="Helvetica,sans-Serif" font-size="10.00">PropertyMapper&lt; MemberContext</text>
<text text-anchor="middle" x="394" y="-1491.36" font-family="Helvetica,sans-Serif" font-size="10.00">::Private &gt;</text>
</a>
</g>
</g>
<!-- Node0&#45;&gt;Node4 -->
<g id="edge4" class="edge"><title>Node0&#45;&gt;Node4</title>
<path fill="none" stroke="orange" stroke-dasharray="5,2" d="M56.8135,-857.16C61.2029,-959.445 83.5285,-1424.92 128,-1469.36 153.177,-1494.52 243.699,-1500.28 311.993,-1500.87"/>
<polygon fill="orange" stroke="orange" points="60.3033,-856.841 56.3857,-846.997 53.3095,-857.136 60.3033,-856.841"/>
<text text-anchor="middle" x="210" y="-1503.36" font-family="Helvetica,sans-Serif" font-size="10.00"> &lt; MemberContext::Private &gt;</text>
</g>
<!-- Node5 -->
<g id="node6" class="node"><title>Node5</title>
<g id="a_node6"><a xlink:href="../../d1/d80/class_property_mapper.html" target="_top" xlink:title="PropertyMapper\&lt; DoxygenContext\l::Private \&gt;">
<polygon fill="white" stroke="black" points="310,-1435.36 310,-1465.36 478,-1465.36 478,-1435.36 310,-1435.36"/>
<text text-anchor="start" x="318" y="-1453.36" font-family="Helvetica,sans-Serif" font-size="10.00">PropertyMapper&lt; DoxygenContext</text>
<text text-anchor="middle" x="394" y="-1442.36" font-family="Helvetica,sans-Serif" font-size="10.00">::Private &gt;</text>
</a>
</g>
</g>
<!-- Node0&#45;&gt;Node5 -->
<g id="edge5" class="edge"><title>Node0&#45;&gt;Node5</title>
<path fill="none" stroke="orange" stroke-dasharray="5,2" d="M56.9658,-857.436C61.9115,-956.247 85.8209,-1387.77 128,-1428.36 153.281,-1452.69 241.964,-1455.88 309.846,-1454.46"/>
<polygon fill="orange" stroke="orange" points="60.4548,-857.125 56.4676,-847.309 53.4633,-857.469 60.4548,-857.125"/>
<text text-anchor="middle" x="210" y="-1457.36" font-family="Helvetica,sans-Serif" font-size="10.00"> &lt; DoxygenContext::Private &gt;</text>
</g>
<!-- Node6 -->
<g id="node7" class="node"><title>Node6</title>
<g id="a_node7"><a xlink:href="../../d1/d80/class_property_mapper.html" target="_top" xlink:title="PropertyMapper\&lt; SymbolGroup\lContext::Private \&gt;">
<polygon fill="white" stroke="black" points="317,-1386.36 317,-1416.36 471,-1416.36 471,-1386.36 317,-1386.36"/>
<text text-anchor="start" x="325" y="-1404.36" font-family="Helvetica,sans-Serif" font-size="10.00">PropertyMapper&lt; SymbolGroup</text>
<text text-anchor="middle" x="394" y="-1393.36" font-family="Helvetica,sans-Serif" font-size="10.00">Context::Private &gt;</text>
</a>
</g>
</g>
<!-- Node0&#45;&gt;Node6 -->
<g id="edge6" class="edge"><title>Node0&#45;&gt;Node6</title>
<path fill="none" stroke="orange" stroke-dasharray="5,2" d="M57.1651,-856.922C62.8773,-949.706 89.2247,-1342.45 128,-1379.36 154.29,-1404.39 248.27,-1406.97 316.863,-1405.23"/>
<polygon fill="orange" stroke="orange" points="60.6578,-856.695 56.5586,-846.925 53.6707,-857.119 60.6578,-856.695"/>
<text text-anchor="start" x="157" y="-1419.36" font-family="Helvetica,sans-Serif" font-size="10.00"> &lt; SymbolGroupContext</text>
<text text-anchor="middle" x="210" y="-1408.36" font-family="Helvetica,sans-Serif" font-size="10.00">::Private &gt;</text>
</g>
<!-- Node7 -->
<g id="node8" class="node"><title>Node7</title>
<g id="a_node8"><a xlink:href="../../d1/d80/class_property_mapper.html" target="_top" xlink:title="PropertyMapper\&lt; IncludeInfo\lContext::Private \&gt;">
<polygon fill="white" stroke="black" points="322.5,-1337.36 322.5,-1367.36 465.5,-1367.36 465.5,-1337.36 322.5,-1337.36"/>
<text text-anchor="start" x="330.5" y="-1355.36" font-family="Helvetica,sans-Serif" font-size="10.00">PropertyMapper&lt; IncludeInfo</text>
<text text-anchor="middle" x="394" y="-1344.36" font-family="Helvetica,sans-Serif" font-size="10.00">Context::Private &gt;</text>
</a>
</g>
</g>
<!-- Node0&#45;&gt;Node7 -->
<g id="edge7" class="edge"><title>Node0&#45;&gt;Node7</title>
<path fill="none" stroke="orange" stroke-dasharray="5,2" d="M55.7738,-857.053C55.2565,-940.601 57.8625,-1264.45 128,-1330.36 155.167,-1355.89 253.522,-1357.96 322.435,-1356.01"/>
<polygon fill="orange" stroke="orange" points="59.2748,-856.94 55.8608,-846.911 52.275,-856.88 59.2748,-856.94"/>
<text text-anchor="start" x="162.5" y="-1370.36" font-family="Helvetica,sans-Serif" font-size="10.00"> &lt; IncludeInfoContext</text>
<text text-anchor="middle" x="210" y="-1359.36" font-family="Helvetica,sans-Serif" font-size="10.00">::Private &gt;</text>
</g>
<!-- Node8 -->
<g id="node9" class="node"><title>Node8</title>
<g id="a_node9"><a xlink:href="../../d1/d80/class_property_mapper.html" target="_top" xlink:title="PropertyMapper\&lt; PageTree\lContext::Private \&gt;">
<polygon fill="white" stroke="black" points="325.5,-1288.36 325.5,-1318.36 462.5,-1318.36 462.5,-1288.36 325.5,-1288.36"/>
<text text-anchor="start" x="333.5" y="-1306.36" font-family="Helvetica,sans-Serif" font-size="10.00">PropertyMapper&lt; PageTree</text>
<text text-anchor="middle" x="394" y="-1295.36" font-family="Helvetica,sans-Serif" font-size="10.00">Context::Private &gt;</text>
</a>
</g>
</g>
<!-- Node0&#45;&gt;Node8 -->
<g id="edge8" class="edge"><title>Node0&#45;&gt;Node8</title>
<path fill="none" stroke="orange" stroke-dasharray="5,2" d="M56.1274,-857.558C57.0766,-936.538 64.8836,-1222.98 128,-1281.36 155.748,-1307.02 256.423,-1308.86 325.376,-1306.85"/>
<polygon fill="orange" stroke="orange" points="59.6229,-857.06 56.0288,-847.094 52.6232,-857.126 59.6229,-857.06"/>
<text text-anchor="start" x="162.5" y="-1321.36" font-family="Helvetica,sans-Serif" font-size="10.00"> &lt; PageTreeContext::</text>
<text text-anchor="middle" x="210" y="-1310.36" font-family="Helvetica,sans-Serif" font-size="10.00">Private &gt;</text>
</g>
<!-- Node9 -->
<g id="node10" class="node"><title>Node9</title>
<g id="a_node10"><a xlink:href="../../d1/d80/class_property_mapper.html" target="_top" xlink:title="PropertyMapper\&lt; Inheritance\lGraphContext::Private \&gt;">
<polygon fill="white" stroke="black" points="322.5,-1239.36 322.5,-1269.36 465.5,-1269.36 465.5,-1239.36 322.5,-1239.36"/>
<text text-anchor="start" x="330.5" y="-1257.36" font-family="Helvetica,sans-Serif" font-size="10.00">PropertyMapper&lt; Inheritance</text>
<text text-anchor="middle" x="394" y="-1246.36" font-family="Helvetica,sans-Serif" font-size="10.00">GraphContext::Private &gt;</text>
</a>
</g>
</g>
<!-- Node0&#45;&gt;Node9 -->
<g id="edge9" class="edge"><title>Node0&#45;&gt;Node9</title>
<path fill="none" stroke="orange" stroke-dasharray="5,2" d="M56.5572,-857.189C59.0436,-930.03 71.6379,-1181.24 128,-1232.36 155.57,-1257.36 253.548,-1259.6 322.297,-1257.82"/>
<polygon fill="orange" stroke="orange" points="60.0522,-856.973 56.2397,-847.088 53.0557,-857.193 60.0522,-856.973"/>
<text text-anchor="start" x="149.5" y="-1271.36" font-family="Helvetica,sans-Serif" font-size="10.00"> &lt; InheritanceGraphContext</text>
<text text-anchor="middle" x="210" y="-1260.36" font-family="Helvetica,sans-Serif" font-size="10.00">::Private &gt;</text>
</g>
<!-- Node10 -->
<g id="node11" class="node"><title>Node10</title>
<g id="a_node11"><a xlink:href="../../d1/d80/class_property_mapper.html" target="_top" xlink:title="PropertyMapper\&lt; SymbolIndex\lContext::Private \&gt;">
<polygon fill="white" stroke="black" points="318,-1190.36 318,-1220.36 470,-1220.36 470,-1190.36 318,-1190.36"/>
<text text-anchor="start" x="326" y="-1208.36" font-family="Helvetica,sans-Serif" font-size="10.00">PropertyMapper&lt; SymbolIndex</text>
<text text-anchor="middle" x="394" y="-1197.36" font-family="Helvetica,sans-Serif" font-size="10.00">Context::Private &gt;</text>
</a>
</g>
</g>
<!-- Node0&#45;&gt;Node10 -->
<g id="edge10" class="edge"><title>Node0&#45;&gt;Node10</title>
<path fill="none" stroke="orange" stroke-dasharray="5,2" d="M57.1145,-857.255C61.3022,-924.201 78.4687,-1139.54 128,-1183.36 155.274,-1207.48 249.559,-1210.23 317.914,-1208.79"/>
<polygon fill="orange" stroke="orange" points="60.5845,-856.645 56.4964,-846.871 53.5969,-857.061 60.5845,-856.645"/>
<text text-anchor="start" x="158" y="-1222.36" font-family="Helvetica,sans-Serif" font-size="10.00"> &lt; SymbolIndexContext</text>
<text text-anchor="middle" x="210" y="-1211.36" font-family="Helvetica,sans-Serif" font-size="10.00">::Private &gt;</text>
</g>
<!-- Node11 -->
<g id="node12" class="node"><title>Node11</title>
<g id="a_node12"><a xlink:href="../../d1/d80/class_property_mapper.html" target="_top" xlink:title="PropertyMapper\&lt; Argument\lContext::Private \&gt;">
<polygon fill="white" stroke="black" points="325.5,-1141.36 325.5,-1171.36 462.5,-1171.36 462.5,-1141.36 325.5,-1141.36"/>
<text text-anchor="start" x="333.5" y="-1159.36" font-family="Helvetica,sans-Serif" font-size="10.00">PropertyMapper&lt; Argument</text>
<text text-anchor="middle" x="394" y="-1148.36" font-family="Helvetica,sans-Serif" font-size="10.00">Context::Private &gt;</text>
</a>
</g>
</g>
<!-- Node0&#45;&gt;Node11 -->
<g id="edge11" class="edge"><title>Node0&#45;&gt;Node11</title>
<path fill="none" stroke="orange" stroke-dasharray="5,2" d="M57.836,-857.152C63.872,-917.571 85.2093,-1097.74 128,-1134.36 156.672,-1158.9 256.814,-1161.07 325.439,-1159.43"/>
<polygon fill="orange" stroke="orange" points="61.3039,-856.649 56.858,-847.032 54.3364,-857.323 61.3039,-856.649"/>
<text text-anchor="start" x="162.5" y="-1173.36" font-family="Helvetica,sans-Serif" font-size="10.00"> &lt; ArgumentContext::</text>
<text text-anchor="middle" x="210" y="-1162.36" font-family="Helvetica,sans-Serif" font-size="10.00">Private &gt;</text>
</g>
<!-- Node12 -->
<g id="node13" class="node"><title>Node12</title>
<g id="a_node13"><a xlink:href="../../d1/d80/class_property_mapper.html" target="_top" xlink:title="PropertyMapper\&lt; ClassMembers\lIndexContext::Private \&gt;">
<polygon fill="white" stroke="black" points="313.5,-1092.36 313.5,-1122.36 474.5,-1122.36 474.5,-1092.36 313.5,-1092.36"/>
<text text-anchor="start" x="321.5" y="-1110.36" font-family="Helvetica,sans-Serif" font-size="10.00">PropertyMapper&lt; ClassMembers</text>
<text text-anchor="middle" x="394" y="-1099.36" font-family="Helvetica,sans-Serif" font-size="10.00">IndexContext::Private &gt;</text>
</a>
</g>
</g>
<!-- Node0&#45;&gt;Node12 -->
<g id="edge12" class="edge"><title>Node0&#45;&gt;Node12</title>
<path fill="none" stroke="orange" stroke-dasharray="5,2" d="M58.8156,-856.985C66.888,-910.303 91.874,-1055.81 128,-1085.36 155.516,-1107.86 245.825,-1111.25 313.421,-1110.38"/>
<polygon fill="orange" stroke="orange" points="62.2764,-856.462 57.3518,-847.081 55.3517,-857.486 62.2764,-856.462"/>
<text text-anchor="start" x="141.5" y="-1124.36" font-family="Helvetica,sans-Serif" font-size="10.00"> &lt; ClassMembersIndexContext</text>
<text text-anchor="middle" x="210" y="-1113.36" font-family="Helvetica,sans-Serif" font-size="10.00">::Private &gt;</text>
</g>
<!-- Node13 -->
<g id="node14" class="node"><title>Node13</title>
<g id="a_node14"><a xlink:href="../../d1/d80/class_property_mapper.html" target="_top" xlink:title="PropertyMapper\&lt; MemberList\lInfoContext::Private \&gt;">
<polygon fill="white" stroke="black" points="321,-1043.36 321,-1073.36 467,-1073.36 467,-1043.36 321,-1043.36"/>
<text text-anchor="start" x="329" y="-1061.36" font-family="Helvetica,sans-Serif" font-size="10.00">PropertyMapper&lt; MemberList</text>
<text text-anchor="middle" x="394" y="-1050.36" font-family="Helvetica,sans-Serif" font-size="10.00">InfoContext::Private &gt;</text>
</a>
</g>
</g>
<!-- Node0&#45;&gt;Node13 -->
<g id="edge13" class="edge"><title>Node0&#45;&gt;Node13</title>
<path fill="none" stroke="orange" stroke-dasharray="5,2" d="M56.536,-856.914C58.8181,-897.821 70.3949,-992.272 128,-1036.36 157.237,-1058.73 252.912,-1061.77 320.887,-1060.88"/>
<polygon fill="orange" stroke="orange" points="60.0312,-856.725 56.1083,-846.883 53.0376,-857.023 60.0312,-856.725"/>
<text text-anchor="start" x="152.5" y="-1074.36" font-family="Helvetica,sans-Serif" font-size="10.00"> &lt; MemberListInfoContext</text>
<text text-anchor="middle" x="210" y="-1063.36" font-family="Helvetica,sans-Serif" font-size="10.00">::Private &gt;</text>
</g>
<!-- Node14 -->
<g id="node15" class="node"><title>Node14</title>
<g id="a_node15"><a xlink:href="../../d1/d80/class_property_mapper.html" target="_top" xlink:title="PropertyMapper\&lt; ClassHierarchy\lContext::Private \&gt;">
<polygon fill="white" stroke="black" points="313,-994.358 313,-1024.36 475,-1024.36 475,-994.358 313,-994.358"/>
<text text-anchor="start" x="321" y="-1012.36" font-family="Helvetica,sans-Serif" font-size="10.00">PropertyMapper&lt; ClassHierarchy</text>
<text text-anchor="middle" x="394" y="-1001.36" font-family="Helvetica,sans-Serif" font-size="10.00">Context::Private &gt;</text>
</a>
</g>
</g>
<!-- Node0&#45;&gt;Node14 -->
<g id="edge14" class="edge"><title>Node0&#45;&gt;Node14</title>
<path fill="none" stroke="orange" stroke-dasharray="5,2" d="M59.097,-857.087C65.4518,-890.26 83.3268,-956.595 128,-987.358 157.087,-1007.39 246.062,-1011.33 312.951,-1011.27"/>
<polygon fill="orange" stroke="orange" points="62.539,-856.451 57.3615,-847.208 55.6446,-857.662 62.539,-856.451"/>
<text text-anchor="start" x="152.5" y="-1024.36" font-family="Helvetica,sans-Serif" font-size="10.00"> &lt; ClassHierarchyContext</text>
<text text-anchor="middle" x="210" y="-1013.36" font-family="Helvetica,sans-Serif" font-size="10.00">::Private &gt;</text>
</g>
<!-- Node15 -->
<g id="node16" class="node"><title>Node15</title>
<g id="a_node16"><a xlink:href="../../d1/d80/class_property_mapper.html" target="_top" xlink:title="PropertyMapper\&lt; FileTree\lContext::Private \&gt;">
<polygon fill="white" stroke="black" points="329,-945.358 329,-975.358 459,-975.358 459,-945.358 329,-945.358"/>
<text text-anchor="start" x="337" y="-963.358" font-family="Helvetica,sans-Serif" font-size="10.00">PropertyMapper&lt; FileTree</text>
<text text-anchor="middle" x="394" y="-952.358" font-family="Helvetica,sans-Serif" font-size="10.00">Context::Private &gt;</text>
</a>
</g>
</g>
<!-- Node0&#45;&gt;Node15 -->
<g id="edge15" class="edge"><title>Node0&#45;&gt;Node15</title>
<path fill="none" stroke="orange" stroke-dasharray="5,2" d="M65.2688,-855.782C76.8597,-876.707 98.7862,-910.052 128,-926.358 189.968,-960.948 272.521,-966.336 328.919,-965.074"/>
<polygon fill="orange" stroke="orange" points="68.3307,-854.085 60.5517,-846.893 62.1473,-857.367 68.3307,-854.085"/>
<text text-anchor="start" x="166" y="-978.358" font-family="Helvetica,sans-Serif" font-size="10.00"> &lt; FileTreeContext::</text>
<text text-anchor="middle" x="210" y="-967.358" font-family="Helvetica,sans-Serif" font-size="10.00">Private &gt;</text>
</g>
<!-- Node16 -->
<g id="node17" class="node"><title>Node16</title>
<g id="a_node17"><a xlink:href="../../d1/d80/class_property_mapper.html" target="_top" xlink:title="PropertyMapper\&lt; NavPathElem\lContext::Private \&gt;">
<polygon fill="white" stroke="black" points="316.5,-896.358 316.5,-926.358 471.5,-926.358 471.5,-896.358 316.5,-896.358"/>
<text text-anchor="start" x="324.5" y="-914.358" font-family="Helvetica,sans-Serif" font-size="10.00">PropertyMapper&lt; NavPathElem</text>
<text text-anchor="middle" x="394" y="-903.358" font-family="Helvetica,sans-Serif" font-size="10.00">Context::Private &gt;</text>
</a>
</g>
</g>
<!-- Node0&#45;&gt;Node16 -->
<g id="edge16" class="edge"><title>Node0&#45;&gt;Node16</title>
<path fill="none" stroke="orange" stroke-dasharray="5,2" d="M84.1507,-851.39C97.2117,-857.399 113.112,-864.017 128,-868.358 190.084,-886.461 262.715,-897.572 316.223,-903.953"/>
<polygon fill="orange" stroke="orange" points="85.3168,-848.07 74.7801,-846.962 82.3261,-854.399 85.3168,-848.07"/>
<text text-anchor="start" x="156" y="-914.358" font-family="Helvetica,sans-Serif" font-size="10.00"> &lt; NavPathElemContext</text>
<text text-anchor="middle" x="210" y="-903.358" font-family="Helvetica,sans-Serif" font-size="10.00">::Private &gt;</text>
</g>
<!-- Node17 -->
<g id="node18" class="node"><title>Node17</title>
<g id="a_node18"><a xlink:href="../../d1/d80/class_property_mapper.html" target="_top" xlink:title="PropertyMapper\&lt; DirContext\l::Private \&gt;">
<polygon fill="white" stroke="black" points="323,-847.358 323,-877.358 465,-877.358 465,-847.358 323,-847.358"/>
<text text-anchor="start" x="331" y="-865.358" font-family="Helvetica,sans-Serif" font-size="10.00">PropertyMapper&lt; DirContext</text>
<text text-anchor="middle" x="394" y="-854.358" font-family="Helvetica,sans-Serif" font-size="10.00">::Private &gt;</text>
</a>
</g>
</g>
<!-- Node0&#45;&gt;Node17 -->
<g id="edge17" class="edge"><title>Node0&#45;&gt;Node17</title>
<path fill="none" stroke="orange" stroke-dasharray="5,2" d="M120.277,-842.127C178.216,-846.425 263.227,-852.731 322.897,-857.158"/>
<polygon fill="orange" stroke="orange" points="120.376,-838.625 110.145,-841.375 119.859,-845.605 120.376,-838.625"/>
<text text-anchor="middle" x="210" y="-856.358" font-family="Helvetica,sans-Serif" font-size="10.00"> &lt; DirContext::Private &gt;</text>
</g>
<!-- Node18 -->
<g id="node19" class="node"><title>Node18</title>
<g id="a_node19"><a xlink:href="../../d1/d80/class_property_mapper.html" target="_top" xlink:title="PropertyMapper\&lt; Inherited\lMemberInfoContext::Private \&gt;">
<polygon fill="white" stroke="black" points="319.5,-798.358 319.5,-828.358 468.5,-828.358 468.5,-798.358 319.5,-798.358"/>
<text text-anchor="start" x="327.5" y="-816.358" font-family="Helvetica,sans-Serif" font-size="10.00">PropertyMapper&lt; Inherited</text>
<text text-anchor="middle" x="394" y="-805.358" font-family="Helvetica,sans-Serif" font-size="10.00">MemberInfoContext::Private &gt;</text>
</a>
</g>
</g>
<!-- Node0&#45;&gt;Node18 -->
<g id="edge18" class="edge"><title>Node0&#45;&gt;Node18</title>
<path fill="none" stroke="orange" stroke-dasharray="5,2" d="M95.5067,-825.119C105.97,-822.379 117.326,-819.846 128,-818.358 192.147,-809.421 265.863,-808.8 319.235,-810.052"/>
<polygon fill="orange" stroke="orange" points="94.5177,-821.761 85.8003,-827.783 96.3701,-828.512 94.5177,-821.761"/>
<text text-anchor="start" x="142" y="-832.358" font-family="Helvetica,sans-Serif" font-size="10.00"> &lt; InheritedMemberInfoContext</text>
<text text-anchor="middle" x="210" y="-821.358" font-family="Helvetica,sans-Serif" font-size="10.00">::Private &gt;</text>
</g>
<!-- Node19 -->
<g id="node20" class="node"><title>Node19</title>
<g id="a_node20"><a xlink:href="../../d1/d80/class_property_mapper.html" target="_top" xlink:title="PropertyMapper\&lt; Inheritance\lNodeContext::Private \&gt;">
<polygon fill="white" stroke="black" points="322.5,-749.358 322.5,-779.358 465.5,-779.358 465.5,-749.358 322.5,-749.358"/>
<text text-anchor="start" x="330.5" y="-767.358" font-family="Helvetica,sans-Serif" font-size="10.00">PropertyMapper&lt; Inheritance</text>
<text text-anchor="middle" x="394" y="-756.358" font-family="Helvetica,sans-Serif" font-size="10.00">NodeContext::Private &gt;</text>
</a>
</g>
</g>
<!-- Node0&#45;&gt;Node19 -->
<g id="edge19" class="edge"><title>Node0&#45;&gt;Node19</title>
<path fill="none" stroke="orange" stroke-dasharray="5,2" d="M72.6896,-820.373C86.2867,-807.727 106.667,-791.328 128,-783.358 190.76,-759.912 267.612,-756.955 322.36,-758.785"/>
<polygon fill="orange" stroke="orange" points="69.9132,-818.189 65.1521,-827.654 74.7764,-823.224 69.9132,-818.189"/>
<text text-anchor="start" x="151" y="-797.358" font-family="Helvetica,sans-Serif" font-size="10.00"> &lt; InheritanceNodeContext</text>
<text text-anchor="middle" x="210" y="-786.358" font-family="Helvetica,sans-Serif" font-size="10.00">::Private &gt;</text>
</g>
<!-- Node20 -->
<g id="node21" class="node"><title>Node20</title>
<g id="a_node21"><a xlink:href="../../d1/d80/class_property_mapper.html" target="_top" xlink:title="PropertyMapper\&lt; Translate\lContext::Private \&gt;">
<polygon fill="white" stroke="black" points="326.5,-700.358 326.5,-730.358 461.5,-730.358 461.5,-700.358 326.5,-700.358"/>
<text text-anchor="start" x="334.5" y="-718.358" font-family="Helvetica,sans-Serif" font-size="10.00">PropertyMapper&lt; Translate</text>
<text text-anchor="middle" x="394" y="-707.358" font-family="Helvetica,sans-Serif" font-size="10.00">Context::Private &gt;</text>
</a>
</g>
</g>
<!-- Node0&#45;&gt;Node20 -->
<g id="edge20" class="edge"><title>Node0&#45;&gt;Node20</title>
<path fill="none" stroke="orange" stroke-dasharray="5,2" d="M62.9634,-818.216C73.0746,-793.521 94.3726,-751.474 128,-732.358 188.519,-697.957 269.842,-698.224 326.371,-704.23"/>
<polygon fill="orange" stroke="orange" points="59.6691,-817.031 59.3116,-827.62 66.1943,-819.565 59.6691,-817.031"/>
<text text-anchor="start" x="166" y="-746.358" font-family="Helvetica,sans-Serif" font-size="10.00"> &lt; TranslateContext</text>
<text text-anchor="middle" x="210" y="-735.358" font-family="Helvetica,sans-Serif" font-size="10.00">::Private &gt;</text>
</g>
<!-- Node21 -->
<g id="node22" class="node"><title>Node21</title>
<g id="a_node22"><a xlink:href="../../d1/d80/class_property_mapper.html" target="_top" xlink:title="PropertyMapper\&lt; ClassContext\l::Private \&gt;">
<polygon fill="white" stroke="black" points="316.5,-651.358 316.5,-681.358 471.5,-681.358 471.5,-651.358 316.5,-651.358"/>
<text text-anchor="start" x="324.5" y="-669.358" font-family="Helvetica,sans-Serif" font-size="10.00">PropertyMapper&lt; ClassContext</text>
<text text-anchor="middle" x="394" y="-658.358" font-family="Helvetica,sans-Serif" font-size="10.00">::Private &gt;</text>
</a>
</g>
</g>
<!-- Node0&#45;&gt;Node21 -->
<g id="edge21" class="edge"><title>Node0&#45;&gt;Node21</title>
<path fill="none" stroke="orange" stroke-dasharray="5,2" d="M58.8858,-817.802C64.9751,-784.282 82.5309,-716.466 128,-685.358 182.724,-647.92 259.547,-646.536 316.396,-652.52"/>
<polygon fill="orange" stroke="orange" points="55.4189,-817.315 57.2365,-827.753 62.3247,-818.46 55.4189,-817.315"/>
<text text-anchor="middle" x="210" y="-688.358" font-family="Helvetica,sans-Serif" font-size="10.00"> &lt; ClassContext::Private &gt;</text>
</g>
<!-- Node22 -->
<g id="node23" class="node"><title>Node22</title>
<g id="a_node23"><a xlink:href="../../d1/d80/class_property_mapper.html" target="_top" xlink:title="PropertyMapper\&lt; Namespace\lMembersIndexContext::Private \&gt;">
<polygon fill="white" stroke="black" points="313.5,-602.358 313.5,-632.358 474.5,-632.358 474.5,-602.358 313.5,-602.358"/>
<text text-anchor="start" x="321.5" y="-620.358" font-family="Helvetica,sans-Serif" font-size="10.00">PropertyMapper&lt; Namespace</text>
<text text-anchor="middle" x="394" y="-609.358" font-family="Helvetica,sans-Serif" font-size="10.00">MembersIndexContext::Private &gt;</text>
</a>
</g>
</g>
<!-- Node0&#45;&gt;Node22 -->
<g id="edge22" class="edge"><title>Node0&#45;&gt;Node22</title>
<path fill="none" stroke="orange" stroke-dasharray="5,2" d="M55.7726,-817.263C56.4983,-773.468 65.1105,-669.641 128,-623.358 189.618,-578.011 282.966,-589.032 340.845,-602.333"/>
<polygon fill="orange" stroke="orange" points="52.2719,-817.469 55.7339,-827.482 59.2718,-817.496 52.2719,-817.469"/>
<text text-anchor="start" x="128" y="-637.358" font-family="Helvetica,sans-Serif" font-size="10.00"> &lt; NamespaceMembersIndexContext</text>
<text text-anchor="middle" x="210" y="-626.358" font-family="Helvetica,sans-Serif" font-size="10.00">::Private &gt;</text>
</g>
<!-- Node23 -->
<g id="node24" class="node"><title>Node23</title>
<g id="a_node24"><a xlink:href="../../d1/d80/class_property_mapper.html" target="_top" xlink:title="PropertyMapper\&lt; SymbolContext\l::Private \&gt;">
<polygon fill="white" stroke="black" points="313,-553.358 313,-583.358 475,-583.358 475,-553.358 313,-553.358"/>
<text text-anchor="start" x="321" y="-571.358" font-family="Helvetica,sans-Serif" font-size="10.00">PropertyMapper&lt; SymbolContext</text>
<text text-anchor="middle" x="394" y="-560.358" font-family="Helvetica,sans-Serif" font-size="10.00">::Private &gt;</text>
</a>
</g>
</g>
<!-- Node0&#45;&gt;Node23 -->
<g id="edge23" class="edge"><title>Node0&#45;&gt;Node23</title>
<path fill="none" stroke="orange" stroke-dasharray="5,2" d="M58.4069,-817.632C65.6355,-761.986 89.0894,-605.839 128,-575.358 155.807,-553.576 245.543,-555.399 312.944,-560.35"/>
<polygon fill="orange" stroke="orange" points="54.9251,-817.268 57.1442,-827.628 61.8699,-818.145 54.9251,-817.268"/>
<text text-anchor="middle" x="210" y="-578.358" font-family="Helvetica,sans-Serif" font-size="10.00"> &lt; SymbolContext::Private &gt;</text>
</g>
<!-- Node24 -->
<g id="node25" class="node"><title>Node24</title>
<g id="a_node25"><a xlink:href="../../d1/d80/class_property_mapper.html" target="_top" xlink:title="PropertyMapper\&lt; Namespace\lTreeContext::Private \&gt;">
<polygon fill="white" stroke="black" points="320.5,-504.358 320.5,-534.358 467.5,-534.358 467.5,-504.358 320.5,-504.358"/>
<text text-anchor="start" x="328.5" y="-522.358" font-family="Helvetica,sans-Serif" font-size="10.00">PropertyMapper&lt; Namespace</text>
<text text-anchor="middle" x="394" y="-511.358" font-family="Helvetica,sans-Serif" font-size="10.00">TreeContext::Private &gt;</text>
</a>
</g>
</g>
<!-- Node0&#45;&gt;Node24 -->
<g id="edge24" class="edge"><title>Node0&#45;&gt;Node24</title>
<path fill="none" stroke="orange" stroke-dasharray="5,2" d="M57.5913,-817.628C63.0194,-755.772 83.0213,-567.554 128,-530.358 156.299,-506.956 252.205,-508.445 320.487,-512.893"/>
<polygon fill="orange" stroke="orange" points="54.0996,-817.383 56.7446,-827.642 61.0747,-817.973 54.0996,-817.383"/>
<text text-anchor="start" x="150.5" y="-544.358" font-family="Helvetica,sans-Serif" font-size="10.00"> &lt; NamespaceTreeContext</text>
<text text-anchor="middle" x="210" y="-533.358" font-family="Helvetica,sans-Serif" font-size="10.00">::Private &gt;</text>
</g>
<!-- Node25 -->
<g id="node26" class="node"><title>Node25</title>
<g id="a_node26"><a xlink:href="../../d1/d80/class_property_mapper.html" target="_top" xlink:title="PropertyMapper\&lt; GlobalsIndex\lContext::Private \&gt;">
<polygon fill="white" stroke="black" points="318,-455.358 318,-485.358 470,-485.358 470,-455.358 318,-455.358"/>
<text text-anchor="start" x="326" y="-473.358" font-family="Helvetica,sans-Serif" font-size="10.00">PropertyMapper&lt; GlobalsIndex</text>
<text text-anchor="middle" x="394" y="-462.358" font-family="Helvetica,sans-Serif" font-size="10.00">Context::Private &gt;</text>
</a>
</g>
</g>
<!-- Node0&#45;&gt;Node25 -->
<g id="edge25" class="edge"><title>Node0&#45;&gt;Node25</title>
<path fill="none" stroke="orange" stroke-dasharray="5,2" d="M56.9603,-817.367C60.6837,-749.175 76.6137,-527.489 128,-483.358 155.519,-459.725 249.483,-460.251 317.717,-464.155"/>
<polygon fill="orange" stroke="orange" points="53.4525,-817.43 56.4322,-827.597 60.4432,-817.791 53.4525,-817.43"/>
<text text-anchor="start" x="158" y="-497.358" font-family="Helvetica,sans-Serif" font-size="10.00"> &lt; GlobalsIndexContext</text>
<text text-anchor="middle" x="210" y="-486.358" font-family="Helvetica,sans-Serif" font-size="10.00">::Private &gt;</text>
</g>
<!-- Node26 -->
<g id="node27" class="node"><title>Node26</title>
<g id="a_node27"><a xlink:href="../../d1/d80/class_property_mapper.html" target="_top" xlink:title="PropertyMapper\&lt; ExampleTree\lContext::Private \&gt;">
<polygon fill="white" stroke="black" points="318,-406.358 318,-436.358 470,-436.358 470,-406.358 318,-406.358"/>
<text text-anchor="start" x="326" y="-424.358" font-family="Helvetica,sans-Serif" font-size="10.00">PropertyMapper&lt; ExampleTree</text>
<text text-anchor="middle" x="394" y="-413.358" font-family="Helvetica,sans-Serif" font-size="10.00">Context::Private &gt;</text>
</a>
</g>
</g>
<!-- Node0&#45;&gt;Node26 -->
<g id="edge26" class="edge"><title>Node0&#45;&gt;Node26</title>
<path fill="none" stroke="orange" stroke-dasharray="5,2" d="M56.4355,-817.606C58.5046,-743.922 69.8487,-486.689 128,-435.358 155.243,-411.311 249.536,-411.584 317.9,-415.336"/>
<polygon fill="orange" stroke="orange" points="52.9318,-817.711 56.1773,-827.797 59.9296,-817.889 52.9318,-817.711"/>
<text text-anchor="start" x="157.5" y="-449.358" font-family="Helvetica,sans-Serif" font-size="10.00"> &lt; ExampleTreeContext</text>
<text text-anchor="middle" x="210" y="-438.358" font-family="Helvetica,sans-Serif" font-size="10.00">::Private &gt;</text>
</g>
<!-- Node27 -->
<g id="node28" class="node"><title>Node27</title>
<g id="a_node28"><a xlink:href="../../d1/d80/class_property_mapper.html" target="_top" xlink:title="PropertyMapper\&lt; ClassIndex\lContext::Private \&gt;">
<polygon fill="white" stroke="black" points="322,-357.358 322,-387.358 466,-387.358 466,-357.358 322,-357.358"/>
<text text-anchor="start" x="330" y="-375.358" font-family="Helvetica,sans-Serif" font-size="10.00">PropertyMapper&lt; ClassIndex</text>
<text text-anchor="middle" x="394" y="-364.358" font-family="Helvetica,sans-Serif" font-size="10.00">Context::Private &gt;</text>
</a>
</g>
</g>
<!-- Node0&#45;&gt;Node27 -->
<g id="edge27" class="edge"><title>Node0&#45;&gt;Node27</title>
<path fill="none" stroke="orange" stroke-dasharray="5,2" d="M56.0295,-817.843C56.5899,-739.073 63.0693,-445.976 128,-387.358 155.534,-362.501 253.249,-362.977 321.98,-366.753"/>
<polygon fill="orange" stroke="orange" points="52.5296,-817.84 55.9835,-827.856 59.5295,-817.873 52.5296,-817.84"/>
<text text-anchor="start" x="161.5" y="-401.358" font-family="Helvetica,sans-Serif" font-size="10.00"> &lt; ClassIndexContext</text>
<text text-anchor="middle" x="210" y="-390.358" font-family="Helvetica,sans-Serif" font-size="10.00">::Private &gt;</text>
</g>
<!-- Node28 -->
<g id="node29" class="node"><title>Node28</title>
<g id="a_node29"><a xlink:href="../../d1/d80/class_property_mapper.html" target="_top" xlink:title="PropertyMapper\&lt; MemberGroup\lInfoContext::Private \&gt;">
<polygon fill="white" stroke="black" points="316,-308.358 316,-338.358 472,-338.358 472,-308.358 316,-308.358"/>
<text text-anchor="start" x="324" y="-326.358" font-family="Helvetica,sans-Serif" font-size="10.00">PropertyMapper&lt; MemberGroup</text>
<text text-anchor="middle" x="394" y="-315.358" font-family="Helvetica,sans-Serif" font-size="10.00">InfoContext::Private &gt;</text>
</a>
</g>
</g>
<!-- Node0&#45;&gt;Node28 -->
<g id="edge28" class="edge"><title>Node0&#45;&gt;Node28</title>
<path fill="none" stroke="orange" stroke-dasharray="5,2" d="M55.6918,-817.638C54.8224,-733.298 56.1395,-404.24 128,-338.358 184.214,-286.821 278.5,-295.651 338.137,-308.335"/>
<polygon fill="orange" stroke="orange" points="52.1924,-817.713 55.819,-827.667 59.1919,-817.624 52.1924,-817.713"/>
<text text-anchor="start" x="147.5" y="-352.358" font-family="Helvetica,sans-Serif" font-size="10.00"> &lt; MemberGroupInfoContext</text>
<text text-anchor="middle" x="210" y="-341.358" font-family="Helvetica,sans-Serif" font-size="10.00">::Private &gt;</text>
</g>
<!-- Node29 -->
<g id="node30" class="node"><title>Node29</title>
<g id="a_node30"><a xlink:href="../../d1/d80/class_property_mapper.html" target="_top" xlink:title="PropertyMapper\&lt; ModuleContext\l::Private \&gt;">
<polygon fill="white" stroke="black" points="313.5,-259.358 313.5,-289.358 474.5,-289.358 474.5,-259.358 313.5,-259.358"/>
<text text-anchor="start" x="321.5" y="-277.358" font-family="Helvetica,sans-Serif" font-size="10.00">PropertyMapper&lt; ModuleContext</text>
<text text-anchor="middle" x="394" y="-266.358" font-family="Helvetica,sans-Serif" font-size="10.00">::Private &gt;</text>
</a>
</g>
</g>
<!-- Node0&#45;&gt;Node29 -->
<g id="edge29" class="edge"><title>Node0&#45;&gt;Node29</title>
<path fill="none" stroke="orange" stroke-dasharray="5,2" d="M57.093,-817.322C62.4731,-722.302 87.5231,-320.151 128,-283.358 154.314,-259.439 245.388,-261.113 313.469,-266.201"/>
<polygon fill="orange" stroke="orange" points="53.5844,-817.381 56.5228,-827.56 60.5736,-817.77 53.5844,-817.381"/>
<text text-anchor="middle" x="210" y="-286.358" font-family="Helvetica,sans-Serif" font-size="10.00"> &lt; ModuleContext::Private &gt;</text>
</g>
<!-- Node30 -->
<g id="node31" class="node"><title>Node30</title>
<g id="a_node31"><a xlink:href="../../d1/d80/class_property_mapper.html" target="_top" xlink:title="PropertyMapper\&lt; Namespace\lContext::Private \&gt;">
<polygon fill="white" stroke="black" points="320.5,-210.358 320.5,-240.358 467.5,-240.358 467.5,-210.358 320.5,-210.358"/>
<text text-anchor="start" x="328.5" y="-228.358" font-family="Helvetica,sans-Serif" font-size="10.00">PropertyMapper&lt; Namespace</text>
<text text-anchor="middle" x="394" y="-217.358" font-family="Helvetica,sans-Serif" font-size="10.00">Context::Private &gt;</text>
</a>
</g>
</g>
<!-- Node0&#45;&gt;Node30 -->
<g id="edge30" class="edge"><title>Node0&#45;&gt;Node30</title>
<path fill="none" stroke="orange" stroke-dasharray="5,2" d="M56.8765,-817.543C61.4681,-718.128 84.2214,-276.859 128,-236.358 154.998,-211.382 251.494,-213.294 320.238,-218.262"/>
<polygon fill="orange" stroke="orange" points="53.3727,-817.55 56.4163,-827.698 60.3655,-817.867 53.3727,-817.55"/>
<text text-anchor="start" x="160" y="-250.358" font-family="Helvetica,sans-Serif" font-size="10.00"> &lt; NamespaceContext</text>
<text text-anchor="middle" x="210" y="-239.358" font-family="Helvetica,sans-Serif" font-size="10.00">::Private &gt;</text>
</g>
<!-- Node31 -->
<g id="node32" class="node"><title>Node31</title>
<g id="a_node32"><a xlink:href="../../d1/d80/class_property_mapper.html" target="_top" xlink:title="PropertyMapper\&lt; ClassTree\lContext::Private \&gt;">
<polygon fill="white" stroke="black" points="324,-161.358 324,-191.358 464,-191.358 464,-161.358 324,-161.358"/>
<text text-anchor="start" x="332" y="-179.358" font-family="Helvetica,sans-Serif" font-size="10.00">PropertyMapper&lt; ClassTree</text>
<text text-anchor="middle" x="394" y="-168.358" font-family="Helvetica,sans-Serif" font-size="10.00">Context::Private &gt;</text>
</a>
</g>
</g>
<!-- Node0&#45;&gt;Node31 -->
<g id="edge31" class="edge"><title>Node0&#45;&gt;Node31</title>
<path fill="none" stroke="orange" stroke-dasharray="5,2" d="M56.7055,-817.288C60.581,-712.626 80.8518,-232.527 128,-188.358 155.308,-162.776 254.723,-164.836 323.7,-169.754"/>
<polygon fill="orange" stroke="orange" points="53.2024,-817.313 56.3382,-827.433 60.1978,-817.566 53.2024,-817.313"/>
<text text-anchor="start" x="164" y="-202.358" font-family="Helvetica,sans-Serif" font-size="10.00"> &lt; ClassTreeContext</text>
<text text-anchor="middle" x="210" y="-191.358" font-family="Helvetica,sans-Serif" font-size="10.00">::Private &gt;</text>
</g>
<!-- Node32 -->
<g id="node33" class="node"><title>Node32</title>
<g id="a_node33"><a xlink:href="../../d1/d80/class_property_mapper.html" target="_top" xlink:title="PropertyMapper\&lt; ModuleTree\lContext::Private \&gt;">
<polygon fill="white" stroke="black" points="321,-112.358 321,-142.358 467,-142.358 467,-112.358 321,-112.358"/>
<text text-anchor="start" x="329" y="-130.358" font-family="Helvetica,sans-Serif" font-size="10.00">PropertyMapper&lt; ModuleTree</text>
<text text-anchor="middle" x="394" y="-119.358" font-family="Helvetica,sans-Serif" font-size="10.00">Context::Private &gt;</text>
</a>
</g>
</g>
<!-- Node0&#45;&gt;Node32 -->
<g id="edge32" class="edge"><title>Node0&#45;&gt;Node32</title>
<path fill="none" stroke="orange" stroke-dasharray="5,2" d="M56.5404,-817.547C59.6992,-708.876 77.4107,-188.291 128,-140.358 184.592,-86.7381 282.185,-98.3359 341.829,-112.353"/>
<polygon fill="orange" stroke="orange" points="53.0363,-817.648 56.2522,-827.743 60.0335,-817.846 53.0363,-817.648"/>
<text text-anchor="start" x="161" y="-154.358" font-family="Helvetica,sans-Serif" font-size="10.00"> &lt; ModuleTreeContext</text>
<text text-anchor="middle" x="210" y="-143.358" font-family="Helvetica,sans-Serif" font-size="10.00">::Private &gt;</text>
</g>
<!-- Node33 -->
<g id="node34" class="node"><title>Node33</title>
<g id="a_node34"><a xlink:href="../../d1/d80/class_property_mapper.html" target="_top" xlink:title="PropertyMapper\&lt; FileContext\l::Private \&gt;">
<polygon fill="white" stroke="black" points="321.5,-63.3585 321.5,-93.3585 466.5,-93.3585 466.5,-63.3585 321.5,-63.3585"/>
<text text-anchor="start" x="329.5" y="-81.3585" font-family="Helvetica,sans-Serif" font-size="10.00">PropertyMapper&lt; FileContext</text>
<text text-anchor="middle" x="394" y="-70.3585" font-family="Helvetica,sans-Serif" font-size="10.00">::Private &gt;</text>
</a>
</g>
</g>
<!-- Node0&#45;&gt;Node33 -->
<g id="edge33" class="edge"><title>Node0&#45;&gt;Node33</title>
<path fill="none" stroke="orange" stroke-dasharray="5,2" d="M56.3609,-817.759C58.6415,-704.488 72.785,-136.887 128,-85.3585 155.044,-60.1203 252.613,-63.8177 321.474,-70.0629"/>
<polygon fill="orange" stroke="orange" points="52.8612,-817.717 56.1667,-827.783 59.8599,-817.853 52.8612,-817.717"/>
<text text-anchor="middle" x="210" y="-88.3585" font-family="Helvetica,sans-Serif" font-size="10.00"> &lt; FileContext::Private &gt;</text>
</g>
<!-- Node34 -->
<g id="node35" class="node"><title>Node34</title>
<g id="a_node35"><a xlink:href="../../d1/d80/class_property_mapper.html" target="_top" xlink:title="PropertyMapper\&lt; NestingNode\lContext::Private \&gt;">
<polygon fill="white" stroke="black" points="318,-14.3585 318,-44.3585 470,-44.3585 470,-14.3585 318,-14.3585"/>
<text text-anchor="start" x="326" y="-32.3585" font-family="Helvetica,sans-Serif" font-size="10.00">PropertyMapper&lt; NestingNode</text>
<text text-anchor="middle" x="394" y="-21.3585" font-family="Helvetica,sans-Serif" font-size="10.00">Context::Private &gt;</text>
</a>
</g>
</g>
<!-- Node0&#45;&gt;Node34 -->
<g id="edge34" class="edge"><title>Node0&#45;&gt;Node34</title>
<path fill="none" stroke="orange" stroke-dasharray="5,2" d="M56.2575,-817.681C57.9896,-700.203 69.7172,-94.6721 128,-39.3585 185.522,15.2331 285.61,0.887916 344.94,-14.3408"/>
<polygon fill="orange" stroke="orange" points="52.7569,-817.707 56.1164,-827.755 59.7562,-817.806 52.7569,-817.707"/>
<text text-anchor="start" x="158" y="-53.3585" font-family="Helvetica,sans-Serif" font-size="10.00"> &lt; NestingNodeContext</text>
<text text-anchor="middle" x="210" y="-42.3585" font-family="Helvetica,sans-Serif" font-size="10.00">::Private &gt;</text>
</g>
</g>
</svg>
