<?xml version="1.0" encoding="UTF-8" standalone="no"?>
<!DOCTYPE svg PUBLIC "-//W3C//DTD SVG 1.1//EN"
 "http://www.w3.org/Graphics/SVG/1.1/DTD/svg11.dtd">
<!-- Generated by graphviz version 2.38.0 (20140413.2041)
 -->
<!-- Title: src/sqlcode.h Pages: 1 -->
<svg width="97pt" height="140pt"
 viewBox="0.00 0.00 97.00 140.00" xmlns="http://www.w3.org/2000/svg" xmlns:xlink="http://www.w3.org/1999/xlink">
<g id="graph0" class="graph" transform="scale(1 1) rotate(0) translate(4 136)">
<title>src/sqlcode.h</title>
<polygon fill="white" stroke="none" points="-4,4 -4,-136 93,-136 93,4 -4,4"/>
<!-- Node3 -->
<g id="node1" class="node"><title>Node3</title>
<polygon fill="#bfbfbf" stroke="black" points="7,-112.5 7,-131.5 82,-131.5 82,-112.5 7,-112.5"/>
<text text-anchor="middle" x="44.5" y="-119.5" font-family="Helvetica,sans-Serif" font-size="10.00">src/sqlcode.h</text>
</g>
<!-- Node4 -->
<g id="node2" class="node"><title>Node4</title>
<g id="a_node2"><a xlink:href="../../d2/dc5/sqlscanner_8h.html" target="_top" xlink:title="src/sqlscanner.h">
<polygon fill="white" stroke="black" points="-7.10543e-15,-56.5 -7.10543e-15,-75.5 89,-75.5 89,-56.5 -7.10543e-15,-56.5"/>
<text text-anchor="middle" x="44.5" y="-63.5" font-family="Helvetica,sans-Serif" font-size="10.00">src/sqlscanner.h</text>
</a>
</g>
</g>
<!-- Node3&#45;&gt;Node4 -->
<g id="edge1" class="edge"><title>Node3&#45;&gt;Node4</title>
<path fill="none" stroke="midnightblue" d="M44.5,-101.805C44.5,-92.9102 44.5,-82.7798 44.5,-75.7511"/>
<polygon fill="midnightblue" stroke="midnightblue" points="41.0001,-102.083 44.5,-112.083 48.0001,-102.083 41.0001,-102.083"/>
</g>
<!-- Node5 -->
<g id="node3" class="node"><title>Node5</title>
<g id="a_node3"><a xlink:href="../../dc/d98/doxygen_8cpp.html" target="_top" xlink:title="src/doxygen.cpp">
<polygon fill="white" stroke="black" points="-7.10543e-15,-0.5 -7.10543e-15,-19.5 89,-19.5 89,-0.5 -7.10543e-15,-0.5"/>
<text text-anchor="middle" x="44.5" y="-7.5" font-family="Helvetica,sans-Serif" font-size="10.00">src/doxygen.cpp</text>
</a>
</g>
</g>
<!-- Node4&#45;&gt;Node5 -->
<g id="edge2" class="edge"><title>Node4&#45;&gt;Node5</title>
<path fill="none" stroke="midnightblue" d="M44.5,-45.8045C44.5,-36.9102 44.5,-26.7798 44.5,-19.7511"/>
<polygon fill="midnightblue" stroke="midnightblue" points="41.0001,-46.083 44.5,-56.083 48.0001,-46.083 41.0001,-46.083"/>
</g>
</g>
</svg>
