<?xml version="1.0" encoding="UTF-8" standalone="no"?>
<!DOCTYPE svg PUBLIC "-//W3C//DTD SVG 1.1//EN"
 "http://www.w3.org/Graphics/SVG/1.1/DTD/svg11.dtd">
<!-- Generated by graphviz version 2.38.0 (20140413.2041)
 -->
<!-- Title: GenericNodeListContext Pages: 1 -->
<!--zoomable 908 -->
<svg id="main" version="1.1" xmlns="http://www.w3.org/2000/svg" xmlns:xlink="http://www.w3.org/1999/xlink" xml:space="preserve" onload="init(evt)">
<style type="text/css"><![CDATA[
.edge:hover path { stroke: red; }
.edge:hover polygon { stroke: red; fill: red; }
]]></style>
<script type="text/javascript"><![CDATA[
var edges = document.getElementsByTagName('g');
if (edges && edges.length) {
  for (var i=0;i<edges.length;i++) {
    if (edges[i].id.substr(0,4)=='edge') {
      edges[i].setAttribute('class','edge');
    }
  }
}
]]></script>
        <defs>
                <circle id="rim" cx="0" cy="0" r="7"/>
                <circle id="rim2" cx="0" cy="0" r="3.5"/>
                <g id="zoomPlus">
                        <use xlink:href="#rim" fill="#404040">
                                <set attributeName="fill" to="#808080" begin="zoomplus.mouseover" end="zoomplus.mouseout"/>
                        </use>
                        <path d="M-4,0h8M0,-4v8" fill="none" stroke="white" stroke-width="1.5" pointer-events="none"/>
                </g>
                <g id="zoomMin">
                        <use xlink:href="#rim" fill="#404040">
                                <set attributeName="fill" to="#808080" begin="zoomminus.mouseover" end="zoomminus.mouseout"/>
                        </use>
                        <path d="M-4,0h8" fill="none" stroke="white" stroke-width="1.5" pointer-events="none"/>
                </g>
                <g id="dirArrow">
                        <path fill="none" stroke="white" stroke-width="1.5" d="M0,-3.0v7 M-2.5,-0.5L0,-3.0L2.5,-0.5"/>
                </g>
               <g id="resetDef">
                       <use xlink:href="#rim2" fill="#404040">
                               <set attributeName="fill" to="#808080" begin="reset.mouseover" end="reset.mouseout"/>
                       </use>
               </g>
        </defs>

<script type="text/javascript">
var viewWidth = 447;
var viewHeight = 908;
var sectionId = 'dynsection-0';
</script>
<script xlink:href="../../svgpan.js"/>
<svg id="graph" class="graph">
<g id="viewport">
<title>GenericNodeListContext</title>
<polygon fill="white" stroke="none" points="-4,4 -4,-903.5 443,-903.5 443,4 -4,4"/>
<!-- Node0 -->
<g id="node1" class="node"><title>Node0</title>
<polygon fill="#bfbfbf" stroke="black" points="123,-439.5 123,-458.5 247,-458.5 247,-439.5 123,-439.5"/>
<text text-anchor="middle" x="185" y="-446.5" font-family="Helvetica,sans-Serif" font-size="10.00">GenericNodeListContext</text>
</g>
<!-- Node2 -->
<g id="node3" class="node"><title>Node2</title>
<g id="a_node3"><a xlink:href="../../d6/db0/class_all_members_list_context_1_1_private.html" target="_top" xlink:title="AllMembersListContext\l::Private">
<polygon fill="white" stroke="black" points="301.5,-869 301.5,-899 420.5,-899 420.5,-869 301.5,-869"/>
<text text-anchor="start" x="309.5" y="-887" font-family="Helvetica,sans-Serif" font-size="10.00">AllMembersListContext</text>
<text text-anchor="middle" x="361" y="-876" font-family="Helvetica,sans-Serif" font-size="10.00">::Private</text>
</a>
</g>
</g>
<!-- Node0&#45;&gt;Node2 -->
<g id="edge2" class="edge"><title>Node0&#45;&gt;Node2</title>
<path fill="none" stroke="midnightblue" d="M188.086,-468.802C196.251,-542.728 228.317,-801.327 283,-860 288.155,-865.531 294.562,-869.797 301.462,-873.085"/>
<polygon fill="midnightblue" stroke="midnightblue" points="191.536,-468.147 186.981,-458.582 184.576,-468.9 191.536,-468.147"/>
</g>
<!-- Node3 -->
<g id="node4" class="node"><title>Node3</title>
<g id="a_node4"><a xlink:href="../../d7/dc4/class_argument_list_context_1_1_private.html" target="_top" xlink:title="ArgumentListContext\l::Private">
<polygon fill="white" stroke="black" points="306.5,-820 306.5,-850 415.5,-850 415.5,-820 306.5,-820"/>
<text text-anchor="start" x="314.5" y="-838" font-family="Helvetica,sans-Serif" font-size="10.00">ArgumentListContext</text>
<text text-anchor="middle" x="361" y="-827" font-family="Helvetica,sans-Serif" font-size="10.00">::Private</text>
</a>
</g>
</g>
<!-- Node0&#45;&gt;Node3 -->
<g id="edge3" class="edge"><title>Node0&#45;&gt;Node3</title>
<path fill="none" stroke="midnightblue" d="M185.204,-468.991C183.933,-529.158 188.515,-710.525 283,-810 289.388,-816.726 297.601,-821.645 306.272,-825.243"/>
<polygon fill="midnightblue" stroke="midnightblue" points="188.713,-468.733 185.511,-458.633 181.716,-468.525 188.713,-468.733"/>
</g>
<!-- Node4 -->
<g id="node5" class="node"><title>Node4</title>
<g id="a_node5"><a xlink:href="../../d4/d4e/class_class_list_context_1_1_private.html" target="_top" xlink:title="ClassListContext::Private">
<polygon fill="white" stroke="black" points="296.5,-781.5 296.5,-800.5 425.5,-800.5 425.5,-781.5 296.5,-781.5"/>
<text text-anchor="middle" x="361" y="-788.5" font-family="Helvetica,sans-Serif" font-size="10.00">ClassListContext::Private</text>
</a>
</g>
</g>
<!-- Node0&#45;&gt;Node4 -->
<g id="edge4" class="edge"><title>Node0&#45;&gt;Node4</title>
<path fill="none" stroke="midnightblue" d="M185.642,-468.68C185.748,-524.871 194.104,-687.426 283,-772 286.99,-775.796 291.613,-778.87 296.574,-781.354"/>
<polygon fill="midnightblue" stroke="midnightblue" points="189.142,-468.666 185.714,-458.641 182.142,-468.616 189.142,-468.666"/>
</g>
<!-- Node5 -->
<g id="node6" class="node"><title>Node5</title>
<g id="a_node6"><a xlink:href="../../d7/d7d/class_dir_list_context_1_1_private.html" target="_top" xlink:title="DirListContext::Private">
<polygon fill="white" stroke="black" points="303,-743.5 303,-762.5 419,-762.5 419,-743.5 303,-743.5"/>
<text text-anchor="middle" x="361" y="-750.5" font-family="Helvetica,sans-Serif" font-size="10.00">DirListContext::Private</text>
</a>
</g>
</g>
<!-- Node0&#45;&gt;Node5 -->
<g id="edge5" class="edge"><title>Node0&#45;&gt;Node5</title>
<path fill="none" stroke="midnightblue" d="M186.561,-468.744C189.143,-520.493 203.509,-661.077 283,-734 288.682,-739.212 295.563,-743.054 302.846,-745.874"/>
<polygon fill="midnightblue" stroke="midnightblue" points="190.052,-468.447 186.154,-458.595 183.057,-468.728 190.052,-468.447"/>
</g>
<!-- Node6 -->
<g id="node7" class="node"><title>Node6</title>
<g id="a_node7"><a xlink:href="../../da/d6f/class_example_list_context_1_1_private.html" target="_top" xlink:title="ExampleListContext\l::Private">
<polygon fill="white" stroke="black" points="308.5,-694 308.5,-724 413.5,-724 413.5,-694 308.5,-694"/>
<text text-anchor="start" x="316.5" y="-712" font-family="Helvetica,sans-Serif" font-size="10.00">ExampleListContext</text>
<text text-anchor="middle" x="361" y="-701" font-family="Helvetica,sans-Serif" font-size="10.00">::Private</text>
</a>
</g>
</g>
<!-- Node0&#45;&gt;Node6 -->
<g id="edge6" class="edge"><title>Node0&#45;&gt;Node6</title>
<path fill="none" stroke="midnightblue" d="M188.537,-468.843C195.326,-513.741 218.032,-623.883 283,-684 290.118,-690.587 298.993,-695.439 308.16,-699.013"/>
<polygon fill="midnightblue" stroke="midnightblue" points="191.966,-468.093 187.109,-458.677 185.035,-469.067 191.966,-468.093"/>
</g>
<!-- Node7 -->
<g id="node8" class="node"><title>Node7</title>
<g id="a_node8"><a xlink:href="../../d1/d6e/class_file_list_context_1_1_private.html" target="_top" xlink:title="FileListContext::Private">
<polygon fill="white" stroke="black" points="301.5,-655.5 301.5,-674.5 420.5,-674.5 420.5,-655.5 301.5,-655.5"/>
<text text-anchor="middle" x="361" y="-662.5" font-family="Helvetica,sans-Serif" font-size="10.00">FileListContext::Private</text>
</a>
</g>
</g>
<!-- Node0&#45;&gt;Node7 -->
<g id="edge7" class="edge"><title>Node0&#45;&gt;Node7</title>
<path fill="none" stroke="midnightblue" d="M189.88,-468.609C198.825,-508.469 224.756,-599.132 283,-646 288.471,-650.402 294.818,-653.805 301.475,-656.431"/>
<polygon fill="midnightblue" stroke="midnightblue" points="193.253,-467.642 187.753,-458.587 186.405,-469.095 193.253,-467.642"/>
</g>
<!-- Node8 -->
<g id="node9" class="node"><title>Node8</title>
<g id="a_node9"><a xlink:href="../../dc/d85/class_include_info_list_context_1_1_private.html" target="_top" xlink:title="IncludeInfoListContext\l::Private">
<polygon fill="white" stroke="black" points="303.5,-606 303.5,-636 418.5,-636 418.5,-606 303.5,-606"/>
<text text-anchor="start" x="311.5" y="-624" font-family="Helvetica,sans-Serif" font-size="10.00">IncludeInfoListContext</text>
<text text-anchor="middle" x="361" y="-613" font-family="Helvetica,sans-Serif" font-size="10.00">::Private</text>
</a>
</g>
</g>
<!-- Node0&#45;&gt;Node8 -->
<g id="edge8" class="edge"><title>Node0&#45;&gt;Node8</title>
<path fill="none" stroke="midnightblue" d="M193.373,-467.981C206.562,-499.461 237.171,-562.421 283,-597 289.036,-601.554 295.951,-605.255 303.107,-608.26"/>
<polygon fill="midnightblue" stroke="midnightblue" points="196.571,-466.553 189.572,-458.599 190.083,-469.181 196.571,-466.553"/>
</g>
<!-- Node9 -->
<g id="node10" class="node"><title>Node9</title>
<g id="a_node10"><a xlink:href="../../d3/dfa/class_inheritance_list_context_1_1_private.html" target="_top" xlink:title="InheritanceListContext\l::Private">
<polygon fill="white" stroke="black" points="303.5,-557 303.5,-587 418.5,-587 418.5,-557 303.5,-557"/>
<text text-anchor="start" x="311.5" y="-575" font-family="Helvetica,sans-Serif" font-size="10.00">InheritanceListContext</text>
<text text-anchor="middle" x="361" y="-564" font-family="Helvetica,sans-Serif" font-size="10.00">::Private</text>
</a>
</g>
</g>
<!-- Node0&#45;&gt;Node9 -->
<g id="edge9" class="edge"><title>Node0&#45;&gt;Node9</title>
<path fill="none" stroke="midnightblue" d="M198.994,-466.905C215.944,-489.024 247.637,-526.374 283,-548 289.331,-551.872 296.341,-555.169 303.478,-557.964"/>
<polygon fill="midnightblue" stroke="midnightblue" points="201.653,-464.616 192.857,-458.711 196.05,-468.813 201.653,-464.616"/>
</g>
<!-- Node10 -->
<g id="node11" class="node"><title>Node10</title>
<g id="a_node11"><a xlink:href="../../d0/de8/class_inherited_member_info_list_context_1_1_private.html" target="_top" xlink:title="InheritedMemberInfoListContext\l::Private">
<polygon fill="white" stroke="black" points="283,-508 283,-538 439,-538 439,-508 283,-508"/>
<text text-anchor="start" x="291" y="-526" font-family="Helvetica,sans-Serif" font-size="10.00">InheritedMemberInfoListContext</text>
<text text-anchor="middle" x="361" y="-515" font-family="Helvetica,sans-Serif" font-size="10.00">::Private</text>
</a>
</g>
</g>
<!-- Node0&#45;&gt;Node10 -->
<g id="edge10" class="edge"><title>Node0&#45;&gt;Node10</title>
<path fill="none" stroke="midnightblue" d="M211.153,-463.503C230.406,-474.223 257.842,-488.687 283,-499 290.774,-502.187 299.133,-505.198 307.377,-507.941"/>
<polygon fill="midnightblue" stroke="midnightblue" points="212.836,-460.434 202.405,-458.576 209.401,-466.533 212.836,-460.434"/>
</g>
<!-- Node11 -->
<g id="node12" class="node"><title>Node11</title>
<g id="a_node12"><a xlink:href="../../d3/d09/class_member_group_list_context_1_1_private.html" target="_top" xlink:title="MemberGroupListContext\l::Private">
<polygon fill="white" stroke="black" points="297,-459 297,-489 425,-489 425,-459 297,-459"/>
<text text-anchor="start" x="305" y="-477" font-family="Helvetica,sans-Serif" font-size="10.00">MemberGroupListContext</text>
<text text-anchor="middle" x="361" y="-466" font-family="Helvetica,sans-Serif" font-size="10.00">::Private</text>
</a>
</g>
</g>
<!-- Node0&#45;&gt;Node11 -->
<g id="edge11" class="edge"><title>Node0&#45;&gt;Node11</title>
<path fill="none" stroke="midnightblue" d="M257.262,-459.239C270.381,-461.124 283.995,-463.08 296.855,-464.927"/>
<polygon fill="midnightblue" stroke="midnightblue" points="257.742,-455.772 247.346,-457.814 256.746,-462.701 257.742,-455.772"/>
</g>
<!-- Node12 -->
<g id="node13" class="node"><title>Node12</title>
<g id="a_node13"><a xlink:href="../../df/db1/class_member_list_context_1_1_private.html" target="_top" xlink:title="MemberListContext::\lPrivate">
<polygon fill="white" stroke="black" points="307,-410 307,-440 415,-440 415,-410 307,-410"/>
<text text-anchor="start" x="315" y="-428" font-family="Helvetica,sans-Serif" font-size="10.00">MemberListContext::</text>
<text text-anchor="middle" x="361" y="-417" font-family="Helvetica,sans-Serif" font-size="10.00">Private</text>
</a>
</g>
</g>
<!-- Node0&#45;&gt;Node12 -->
<g id="edge12" class="edge"><title>Node0&#45;&gt;Node12</title>
<path fill="none" stroke="midnightblue" d="M257.478,-439.141C273.946,-436.87 291.18,-434.492 306.717,-432.349"/>
<polygon fill="midnightblue" stroke="midnightblue" points="256.774,-435.705 247.346,-440.538 257.73,-442.639 256.774,-435.705"/>
</g>
<!-- Node13 -->
<g id="node14" class="node"><title>Node13</title>
<g id="a_node14"><a xlink:href="../../da/d0c/class_module_list_context_1_1_private.html" target="_top" xlink:title="ModuleListContext::\lPrivate">
<polygon fill="white" stroke="black" points="309,-361 309,-391 413,-391 413,-361 309,-361"/>
<text text-anchor="start" x="317" y="-379" font-family="Helvetica,sans-Serif" font-size="10.00">ModuleListContext::</text>
<text text-anchor="middle" x="361" y="-368" font-family="Helvetica,sans-Serif" font-size="10.00">Private</text>
</a>
</g>
</g>
<!-- Node0&#45;&gt;Node13 -->
<g id="edge13" class="edge"><title>Node0&#45;&gt;Node13</title>
<path fill="none" stroke="midnightblue" d="M211.8,-434.49C231.038,-424.038 258.168,-410.061 283,-400 291.176,-396.687 299.991,-393.552 308.636,-390.707"/>
<polygon fill="midnightblue" stroke="midnightblue" points="209.852,-431.567 202.774,-439.45 213.223,-437.702 209.852,-431.567"/>
</g>
<!-- Node14 -->
<g id="node15" class="node"><title>Node14</title>
<g id="a_node15"><a xlink:href="../../d1/d49/class_namespace_list_context_1_1_private.html" target="_top" xlink:title="NamespaceListContext\l::Private">
<polygon fill="white" stroke="black" points="301.5,-312 301.5,-342 420.5,-342 420.5,-312 301.5,-312"/>
<text text-anchor="start" x="309.5" y="-330" font-family="Helvetica,sans-Serif" font-size="10.00">NamespaceListContext</text>
<text text-anchor="middle" x="361" y="-319" font-family="Helvetica,sans-Serif" font-size="10.00">::Private</text>
</a>
</g>
</g>
<!-- Node0&#45;&gt;Node14 -->
<g id="edge14" class="edge"><title>Node0&#45;&gt;Node14</title>
<path fill="none" stroke="midnightblue" d="M199.035,-431.282C216.027,-409.392 247.765,-372.426 283,-351 288.743,-347.508 295.039,-344.482 301.479,-341.869"/>
<polygon fill="midnightblue" stroke="midnightblue" points="196.138,-429.309 192.881,-439.391 201.714,-433.541 196.138,-429.309"/>
</g>
<!-- Node15 -->
<g id="node16" class="node"><title>Node15</title>
<g id="a_node16"><a xlink:href="../../d7/db8/class_nesting_context_1_1_private.html" target="_top" xlink:title="NestingContext::Private">
<polygon fill="white" stroke="black" points="300,-273.5 300,-292.5 422,-292.5 422,-273.5 300,-273.5"/>
<text text-anchor="middle" x="361" y="-280.5" font-family="Helvetica,sans-Serif" font-size="10.00">NestingContext::Private</text>
</a>
</g>
</g>
<!-- Node0&#45;&gt;Node15 -->
<g id="edge15" class="edge"><title>Node0&#45;&gt;Node15</title>
<path fill="none" stroke="midnightblue" d="M193.187,-429.843C206.103,-398.129 236.321,-334.954 283,-302 288.512,-298.109 294.734,-295.011 301.194,-292.546"/>
<polygon fill="midnightblue" stroke="midnightblue" points="189.87,-428.715 189.472,-439.303 196.385,-431.274 189.87,-428.715"/>
</g>
<!-- Node16 -->
<g id="node17" class="node"><title>Node16</title>
<g id="a_node17"><a xlink:href="../../dc/d0a/class_page_list_context_1_1_private.html" target="_top" xlink:title="PageListContext::Private">
<polygon fill="white" stroke="black" points="298,-235.5 298,-254.5 424,-254.5 424,-235.5 298,-235.5"/>
<text text-anchor="middle" x="361" y="-242.5" font-family="Helvetica,sans-Serif" font-size="10.00">PageListContext::Private</text>
</a>
</g>
</g>
<!-- Node0&#45;&gt;Node16 -->
<g id="edge16" class="edge"><title>Node0&#45;&gt;Node16</title>
<path fill="none" stroke="midnightblue" d="M190.591,-429.26C200.515,-391.149 227.672,-307.377 283,-264 287.876,-260.177 293.417,-257.111 299.239,-254.654"/>
<polygon fill="midnightblue" stroke="midnightblue" points="187.154,-428.58 188.145,-439.129 193.948,-430.264 187.154,-428.58"/>
</g>
<!-- Node17 -->
<g id="node18" class="node"><title>Node17</title>
<g id="a_node18"><a xlink:href="../../d7/d01/class_search_indices_context_1_1_private.html" target="_top" xlink:title="SearchIndicesContext\l::Private">
<polygon fill="white" stroke="black" points="304.5,-186 304.5,-216 417.5,-216 417.5,-186 304.5,-186"/>
<text text-anchor="start" x="312.5" y="-204" font-family="Helvetica,sans-Serif" font-size="10.00">SearchIndicesContext</text>
<text text-anchor="middle" x="361" y="-193" font-family="Helvetica,sans-Serif" font-size="10.00">::Private</text>
</a>
</g>
</g>
<!-- Node0&#45;&gt;Node17 -->
<g id="edge17" class="edge"><title>Node0&#45;&gt;Node17</title>
<path fill="none" stroke="midnightblue" d="M189.011,-429.287C196.64,-386.108 220.737,-282.535 283,-226 289.139,-220.426 296.539,-216.093 304.291,-212.725"/>
<polygon fill="midnightblue" stroke="midnightblue" points="185.528,-428.901 187.345,-439.338 192.433,-430.045 185.528,-428.901"/>
</g>
<!-- Node18 -->
<g id="node19" class="node"><title>Node18</title>
<g id="a_node19"><a xlink:href="../../d4/d0d/class_symbol_group_list_context_1_1_private.html" target="_top" xlink:title="SymbolGroupListContext\l::Private">
<polygon fill="white" stroke="black" points="298,-137 298,-167 424,-167 424,-137 298,-137"/>
<text text-anchor="start" x="306" y="-155" font-family="Helvetica,sans-Serif" font-size="10.00">SymbolGroupListContext</text>
<text text-anchor="middle" x="361" y="-144" font-family="Helvetica,sans-Serif" font-size="10.00">::Private</text>
</a>
</g>
</g>
<!-- Node0&#45;&gt;Node18 -->
<g id="edge18" class="edge"><title>Node0&#45;&gt;Node18</title>
<path fill="none" stroke="midnightblue" d="M187.164,-429.343C191.179,-379.574 208.661,-247.477 283,-176 287.34,-171.827 292.395,-168.379 297.801,-165.529"/>
<polygon fill="midnightblue" stroke="midnightblue" points="183.666,-429.184 186.45,-439.407 190.649,-429.68 183.666,-429.184"/>
</g>
<!-- Node19 -->
<g id="node20" class="node"><title>Node19</title>
<g id="a_node20"><a xlink:href="../../d6/d8b/class_symbol_indices_context_1_1_private.html" target="_top" xlink:title="SymbolIndicesContext\l::Private">
<polygon fill="white" stroke="black" points="303,-88 303,-118 419,-118 419,-88 303,-88"/>
<text text-anchor="start" x="311" y="-106" font-family="Helvetica,sans-Serif" font-size="10.00">SymbolIndicesContext</text>
<text text-anchor="middle" x="361" y="-95" font-family="Helvetica,sans-Serif" font-size="10.00">::Private</text>
</a>
</g>
</g>
<!-- Node0&#45;&gt;Node19 -->
<g id="edge19" class="edge"><title>Node0&#45;&gt;Node19</title>
<path fill="none" stroke="midnightblue" d="M185.929,-428.917C186.851,-372.93 197.27,-213.552 283,-127 288.617,-121.329 295.549,-116.994 302.934,-113.681"/>
<polygon fill="midnightblue" stroke="midnightblue" points="182.427,-429.206 185.853,-439.231 189.427,-429.257 182.427,-429.206"/>
</g>
<!-- Node20 -->
<g id="node21" class="node"><title>Node20</title>
<g id="a_node21"><a xlink:href="../../da/d36/class_symbol_list_context_1_1_private.html" target="_top" xlink:title="SymbolListContext::\lPrivate">
<polygon fill="white" stroke="black" points="308,-39 308,-69 414,-69 414,-39 308,-39"/>
<text text-anchor="start" x="316" y="-57" font-family="Helvetica,sans-Serif" font-size="10.00">SymbolListContext::</text>
<text text-anchor="middle" x="361" y="-46" font-family="Helvetica,sans-Serif" font-size="10.00">Private</text>
</a>
</g>
</g>
<!-- Node0&#45;&gt;Node20 -->
<g id="edge20" class="edge"><title>Node0&#45;&gt;Node20</title>
<path fill="none" stroke="midnightblue" d="M188.605,-429.357C198.131,-360.329 233.14,-130.23 283,-78 289.768,-70.9102 298.592,-65.9032 307.842,-62.3701"/>
<polygon fill="midnightblue" stroke="midnightblue" points="185.128,-428.95 187.253,-439.33 192.065,-429.891 185.128,-428.95"/>
</g>
<!-- Node21 -->
<g id="node22" class="node"><title>Node21</title>
<g id="a_node22"><a xlink:href="../../db/da0/class_used_files_context_1_1_private.html" target="_top" xlink:title="UsedFilesContext::Private">
<polygon fill="white" stroke="black" points="295,-0.5 295,-19.5 427,-19.5 427,-0.5 295,-0.5"/>
<text text-anchor="middle" x="361" y="-7.5" font-family="Helvetica,sans-Serif" font-size="10.00">UsedFilesContext::Private</text>
</a>
</g>
</g>
<!-- Node0&#45;&gt;Node21 -->
<g id="edge21" class="edge"><title>Node0&#45;&gt;Node21</title>
<path fill="none" stroke="midnightblue" d="M187.864,-429.127C195.322,-353.837 225.426,-87.441 283,-29 286.769,-25.1746 291.176,-22.0738 295.94,-19.5656"/>
<polygon fill="midnightblue" stroke="midnightblue" points="184.373,-428.867 186.894,-439.157 191.34,-429.541 184.373,-428.867"/>
</g>
<!-- Node1 -->
<g id="node2" class="node"><title>Node1</title>
<g id="a_node2"><a xlink:href="../../d6/d88/class_template_list_intf.html" target="_top" xlink:title="Abstract read&#45;only interface for a context value of type list. ">
<polygon fill="white" stroke="black" points="0,-439.5 0,-458.5 87,-458.5 87,-439.5 0,-439.5"/>
<text text-anchor="middle" x="43.5" y="-446.5" font-family="Helvetica,sans-Serif" font-size="10.00">TemplateListIntf</text>
</a>
</g>
</g>
<!-- Node1&#45;&gt;Node0 -->
<g id="edge1" class="edge"><title>Node1&#45;&gt;Node0</title>
<path fill="none" stroke="midnightblue" d="M97.1563,-449C105.563,-449 114.323,-449 122.905,-449"/>
<polygon fill="midnightblue" stroke="midnightblue" points="97.1126,-445.5 87.1126,-449 97.1126,-452.5 97.1126,-445.5"/>
</g>
</g>
</svg>
        <g id="navigator" transform="translate(0 0)" fill="#404254">
                <rect fill="#f2f5e9" fill-opacity="0.5" stroke="#606060" stroke-width=".5" x="0" y="0" width="60" height="60"/>
                <use id="zoomplus" xlink:href="#zoomPlus" x="17" y="9" onmousedown="handleZoom(evt,'in')"/>
                <use id="zoomminus" xlink:href="#zoomMin" x="42" y="9" onmousedown="handleZoom(evt,'out')"/>
                <use id="reset" xlink:href="#resetDef" x="30" y="36" onmousedown="handleReset()"/>
                <g id="arrowUp" xlink:href="#dirArrow" transform="translate(30 24)" onmousedown="handlePan(0,-1)">
                  <use xlink:href="#rim" fill="#404040">
                        <set attributeName="fill" to="#808080" begin="arrowUp.mouseover" end="arrowUp.mouseout"/>
                  </use>
                  <path fill="none" stroke="white" stroke-width="1.5" d="M0,-3.0v7 M-2.5,-0.5L0,-3.0L2.5,-0.5"/>
                </g>
                <g id="arrowRight" xlink:href="#dirArrow" transform="rotate(90) translate(36 -43)" onmousedown="handlePan(1,0)">
                  <use xlink:href="#rim" fill="#404040">
                        <set attributeName="fill" to="#808080" begin="arrowRight.mouseover" end="arrowRight.mouseout"/>
                  </use>
                  <path fill="none" stroke="white" stroke-width="1.5" d="M0,-3.0v7 M-2.5,-0.5L0,-3.0L2.5,-0.5"/>
                </g>
                <g id="arrowDown" xlink:href="#dirArrow" transform="rotate(180) translate(-30 -48)" onmousedown="handlePan(0,1)">
                  <use xlink:href="#rim" fill="#404040">
                        <set attributeName="fill" to="#808080" begin="arrowDown.mouseover" end="arrowDown.mouseout"/>
                  </use>
                  <path fill="none" stroke="white" stroke-width="1.5" d="M0,-3.0v7 M-2.5,-0.5L0,-3.0L2.5,-0.5"/>
                </g>
                <g id="arrowLeft" xlink:href="#dirArrow" transform="rotate(270) translate(-36 17)" onmousedown="handlePan(-1,0)">
                  <use xlink:href="#rim" fill="#404040">
                        <set attributeName="fill" to="#808080" begin="arrowLeft.mouseover" end="arrowLeft.mouseout"/>
                  </use>
                  <path fill="none" stroke="white" stroke-width="1.5" d="M0,-3.0v7 M-2.5,-0.5L0,-3.0L2.5,-0.5"/>
                </g>
        </g>
        <svg viewBox="0 0 15 15" width="100%" height="30px" preserveAspectRatio="xMaxYMin meet">
         <g id="arrow_out" transform="scale(0.3 0.3)">
          <a xlink:href="class_generic_node_list_context__inherit__graph_org.svg" target="_base">
           <rect id="button" ry="5" rx="5" y="6" x="6" height="38" width="38"
                fill="#f2f5e9" fill-opacity="0.5" stroke="#606060" stroke-width="1.0"/>
           <path id="arrow"
             d="M 11.500037,31.436501 C 11.940474,20.09759 22.043105,11.32322 32.158766,21.979434 L 37.068811,17.246167 C 37.068811,17.246167 37.088388,32 37.088388,32 L 22.160133,31.978069 C 22.160133,31.978069 26.997745,27.140456 26.997745,27.140456 C 18.528582,18.264221 13.291696,25.230495 11.500037,31.436501 z"
             style="fill:#404040;"/>
          </a>
         </g>
        </svg>
</svg>
