<?xml version="1.0" encoding="UTF-8" standalone="no"?>
<!DOCTYPE svg PUBLIC "-//W3C//DTD SVG 1.1//EN"
 "http://www.w3.org/Graphics/SVG/1.1/DTD/svg11.dtd">
<!-- Generated by graphviz version 2.38.0 (20140413.2041)
 -->
<!-- Title: CodeOutputInterface Pages: 1 -->
<svg width="539pt" height="265pt"
 viewBox="0.00 0.00 539.00 265.00" xmlns="http://www.w3.org/2000/svg" xmlns:xlink="http://www.w3.org/1999/xlink">
<g id="graph0" class="graph" transform="scale(1 1) rotate(0) translate(4 261)">
<title>CodeOutputInterface</title>
<polygon fill="white" stroke="none" points="-4,4 -4,-261 535,-261 535,4 -4,4"/>
<!-- Node0 -->
<g id="node1" class="node"><title>Node0</title>
<polygon fill="#bfbfbf" stroke="black" points="0,-95.5 0,-114.5 107,-114.5 107,-95.5 0,-95.5"/>
<text text-anchor="middle" x="53.5" y="-102.5" font-family="Helvetica,sans-Serif" font-size="10.00">CodeOutputInterface</text>
</g>
<!-- Node1 -->
<g id="node2" class="node"><title>Node1</title>
<g id="a_node2"><a xlink:href="../../df/d27/class_base_output_doc_interface.html" target="_top" xlink:title="Base Interface used for generating output outside of the comment blocks. ">
<polygon fill="white" stroke="black" points="146,-190.5 146,-209.5 271,-209.5 271,-190.5 146,-190.5"/>
<text text-anchor="middle" x="208.5" y="-197.5" font-family="Helvetica,sans-Serif" font-size="10.00">BaseOutputDocInterface</text>
</a>
</g>
</g>
<!-- Node0&#45;&gt;Node1 -->
<g id="edge1" class="edge"><title>Node0&#45;&gt;Node1</title>
<path fill="none" stroke="midnightblue" d="M70.274,-122.291C86.8374,-139.476 114.407,-165.453 143,-181 149.974,-184.792 157.794,-187.91 165.518,-190.444"/>
<polygon fill="midnightblue" stroke="midnightblue" points="72.4754,-119.523 63.0707,-114.645 67.3803,-124.323 72.4754,-119.523"/>
</g>
<!-- Node9 -->
<g id="node10" class="node"><title>Node9</title>
<g id="a_node10"><a xlink:href="../../dd/d8a/class_dev_null_code_doc_interface.html" target="_top" xlink:title="Class implementing CodeOutputInterface by throwing away everything. ">
<polygon fill="white" stroke="black" points="143,-152.5 143,-171.5 274,-171.5 274,-152.5 143,-152.5"/>
<text text-anchor="middle" x="208.5" y="-159.5" font-family="Helvetica,sans-Serif" font-size="10.00">DevNullCodeDocInterface</text>
</a>
</g>
</g>
<!-- Node0&#45;&gt;Node9 -->
<g id="edge9" class="edge"><title>Node0&#45;&gt;Node9</title>
<path fill="none" stroke="midnightblue" d="M84.3625,-118.876C101.353,-126.504 123.145,-135.842 143,-143 152.444,-146.405 162.822,-149.666 172.441,-152.497"/>
<polygon fill="midnightblue" stroke="midnightblue" points="85.5169,-115.557 74.9642,-114.612 82.6247,-121.931 85.5169,-115.557"/>
</g>
<!-- Node10 -->
<g id="node11" class="node"><title>Node10</title>
<g id="a_node11"><a xlink:href="../../d7/d80/class_docbook_code_generator.html" target="_top" xlink:title="DocbookCodeGenerator">
<polygon fill="white" stroke="black" points="147.5,-114.5 147.5,-133.5 269.5,-133.5 269.5,-114.5 147.5,-114.5"/>
<text text-anchor="middle" x="208.5" y="-121.5" font-family="Helvetica,sans-Serif" font-size="10.00">DocbookCodeGenerator</text>
</a>
</g>
</g>
<!-- Node0&#45;&gt;Node10 -->
<g id="edge10" class="edge"><title>Node0&#45;&gt;Node10</title>
<path fill="none" stroke="midnightblue" d="M117.356,-112.806C127.283,-114.038 137.528,-115.311 147.391,-116.535"/>
<polygon fill="midnightblue" stroke="midnightblue" points="117.509,-109.298 107.154,-111.539 116.646,-116.244 117.509,-109.298"/>
</g>
<!-- Node11 -->
<g id="node12" class="node"><title>Node11</title>
<g id="a_node12"><a xlink:href="../../da/db6/class_html_code_generator.html" target="_top" xlink:title="HtmlCodeGenerator">
<polygon fill="white" stroke="black" points="156.5,-76.5 156.5,-95.5 260.5,-95.5 260.5,-76.5 156.5,-76.5"/>
<text text-anchor="middle" x="208.5" y="-83.5" font-family="Helvetica,sans-Serif" font-size="10.00">HtmlCodeGenerator</text>
</a>
</g>
</g>
<!-- Node0&#45;&gt;Node11 -->
<g id="edge11" class="edge"><title>Node0&#45;&gt;Node11</title>
<path fill="none" stroke="midnightblue" d="M117.393,-97.1897C130.341,-95.5818 143.827,-93.9072 156.301,-92.3581"/>
<polygon fill="midnightblue" stroke="midnightblue" points="116.646,-93.7555 107.154,-98.4613 117.509,-100.702 116.646,-93.7555"/>
</g>
<!-- Node12 -->
<g id="node13" class="node"><title>Node12</title>
<g id="a_node13"><a xlink:href="../../d0/d37/class_latex_code_generator.html" target="_top" xlink:title="LatexCodeGenerator">
<polygon fill="white" stroke="black" points="155,-38.5 155,-57.5 262,-57.5 262,-38.5 155,-38.5"/>
<text text-anchor="middle" x="208.5" y="-45.5" font-family="Helvetica,sans-Serif" font-size="10.00">LatexCodeGenerator</text>
</a>
</g>
</g>
<!-- Node0&#45;&gt;Node12 -->
<g id="edge12" class="edge"><title>Node0&#45;&gt;Node12</title>
<path fill="none" stroke="midnightblue" d="M84.3625,-91.1238C101.353,-83.4962 123.145,-74.1584 143,-67 152.444,-63.5951 162.822,-60.3336 172.441,-57.5035"/>
<polygon fill="midnightblue" stroke="midnightblue" points="82.6247,-88.0688 74.9642,-95.3878 85.5169,-94.4434 82.6247,-88.0688"/>
</g>
<!-- Node13 -->
<g id="node14" class="node"><title>Node13</title>
<g id="a_node14"><a xlink:href="../../dd/d66/class_x_m_l_code_generator.html" target="_top" xlink:title="Generator for producing XML formatted source code. ">
<polygon fill="white" stroke="black" points="157,-0.5 157,-19.5 260,-19.5 260,-0.5 157,-0.5"/>
<text text-anchor="middle" x="208.5" y="-7.5" font-family="Helvetica,sans-Serif" font-size="10.00">XMLCodeGenerator</text>
</a>
</g>
</g>
<!-- Node0&#45;&gt;Node13 -->
<g id="edge13" class="edge"><title>Node0&#45;&gt;Node13</title>
<path fill="none" stroke="midnightblue" d="M70.274,-87.7093C86.8374,-70.5237 114.407,-44.5468 143,-29 149.974,-25.2081 157.794,-22.0901 165.518,-19.5555"/>
<polygon fill="midnightblue" stroke="midnightblue" points="67.3803,-85.6767 63.0707,-95.3555 72.4754,-90.4767 67.3803,-85.6767"/>
</g>
<!-- Node2 -->
<g id="node3" class="node"><title>Node2</title>
<g id="a_node3"><a xlink:href="../../d2/d1a/class_output_doc_interface.html" target="_top" xlink:title="Interface used for generating documentation. ">
<polygon fill="white" stroke="black" points="310,-218.5 310,-237.5 412,-237.5 412,-218.5 310,-218.5"/>
<text text-anchor="middle" x="361" y="-225.5" font-family="Helvetica,sans-Serif" font-size="10.00">OutputDocInterface</text>
</a>
</g>
</g>
<!-- Node1&#45;&gt;Node2 -->
<g id="edge2" class="edge"><title>Node1&#45;&gt;Node2</title>
<path fill="none" stroke="midnightblue" d="M271.075,-211.456C283.983,-213.857 297.447,-216.362 309.878,-218.675"/>
<polygon fill="midnightblue" stroke="midnightblue" points="271.344,-207.946 260.873,-209.558 270.064,-214.828 271.344,-207.946"/>
</g>
<!-- Node4 -->
<g id="node5" class="node"><title>Node4</title>
<g id="a_node5"><a xlink:href="../../d3/d8e/class_output_generator.html" target="_top" xlink:title="Abstract output generator. ">
<polygon fill="white" stroke="black" points="316.5,-161.5 316.5,-180.5 405.5,-180.5 405.5,-161.5 316.5,-161.5"/>
<text text-anchor="middle" x="361" y="-168.5" font-family="Helvetica,sans-Serif" font-size="10.00">OutputGenerator</text>
</a>
</g>
</g>
<!-- Node1&#45;&gt;Node4 -->
<g id="edge4" class="edge"><title>Node1&#45;&gt;Node4</title>
<path fill="none" stroke="midnightblue" d="M269.362,-188.465C285.082,-185.436 301.738,-182.227 316.425,-179.397"/>
<polygon fill="midnightblue" stroke="midnightblue" points="268.354,-185.095 259.196,-190.424 269.678,-191.969 268.354,-185.095"/>
</g>
<!-- Node3 -->
<g id="node4" class="node"><title>Node3</title>
<g id="a_node4"><a xlink:href="../../df/dc8/class_output_list.html" target="_top" xlink:title="Class representing a list of output generators that are written to in parallel. ">
<polygon fill="white" stroke="black" points="458.5,-237.5 458.5,-256.5 520.5,-256.5 520.5,-237.5 458.5,-237.5"/>
<text text-anchor="middle" x="489.5" y="-244.5" font-family="Helvetica,sans-Serif" font-size="10.00">OutputList</text>
</a>
</g>
</g>
<!-- Node2&#45;&gt;Node3 -->
<g id="edge3" class="edge"><title>Node2&#45;&gt;Node3</title>
<path fill="none" stroke="midnightblue" d="M422.321,-237.06C434.83,-238.939 447.492,-240.841 458.345,-242.471"/>
<polygon fill="midnightblue" stroke="midnightblue" points="422.769,-233.588 412.36,-235.564 421.729,-240.51 422.769,-233.588"/>
</g>
<!-- Node5 -->
<g id="node6" class="node"><title>Node5</title>
<g id="a_node6"><a xlink:href="../../d7/d41/class_html_generator.html" target="_top" xlink:title="Generator for HTML output. ">
<polygon fill="white" stroke="black" points="449.5,-199.5 449.5,-218.5 529.5,-218.5 529.5,-199.5 449.5,-199.5"/>
<text text-anchor="middle" x="489.5" y="-206.5" font-family="Helvetica,sans-Serif" font-size="10.00">HtmlGenerator</text>
</a>
</g>
</g>
<!-- Node4&#45;&gt;Node5 -->
<g id="edge5" class="edge"><title>Node4&#45;&gt;Node5</title>
<path fill="none" stroke="midnightblue" d="M403.729,-183.535C420.938,-188.705 440.56,-194.599 456.589,-199.414"/>
<polygon fill="midnightblue" stroke="midnightblue" points="404.505,-180.114 393.921,-180.589 402.492,-186.818 404.505,-180.114"/>
</g>
<!-- Node6 -->
<g id="node7" class="node"><title>Node6</title>
<g id="a_node7"><a xlink:href="../../d3/d77/class_latex_generator.html" target="_top" xlink:title="Generator for LaTeX output. ">
<polygon fill="white" stroke="black" points="448,-161.5 448,-180.5 531,-180.5 531,-161.5 448,-161.5"/>
<text text-anchor="middle" x="489.5" y="-168.5" font-family="Helvetica,sans-Serif" font-size="10.00">LatexGenerator</text>
</a>
</g>
</g>
<!-- Node4&#45;&gt;Node6 -->
<g id="edge6" class="edge"><title>Node4&#45;&gt;Node6</title>
<path fill="none" stroke="midnightblue" d="M415.704,-171C426.476,-171 437.626,-171 447.865,-171"/>
<polygon fill="midnightblue" stroke="midnightblue" points="415.534,-167.5 405.534,-171 415.534,-174.5 415.534,-167.5"/>
</g>
<!-- Node7 -->
<g id="node8" class="node"><title>Node7</title>
<g id="a_node8"><a xlink:href="../../de/da5/class_man_generator.html" target="_top" xlink:title="Generator for Man page output. ">
<polygon fill="white" stroke="black" points="450.5,-123.5 450.5,-142.5 528.5,-142.5 528.5,-123.5 450.5,-123.5"/>
<text text-anchor="middle" x="489.5" y="-130.5" font-family="Helvetica,sans-Serif" font-size="10.00">ManGenerator</text>
</a>
</g>
</g>
<!-- Node4&#45;&gt;Node7 -->
<g id="edge7" class="edge"><title>Node4&#45;&gt;Node7</title>
<path fill="none" stroke="midnightblue" d="M403.729,-158.465C420.938,-153.295 440.56,-147.401 456.589,-142.586"/>
<polygon fill="midnightblue" stroke="midnightblue" points="402.492,-155.182 393.921,-161.411 404.505,-161.886 402.492,-155.182"/>
</g>
<!-- Node8 -->
<g id="node9" class="node"><title>Node8</title>
<g id="a_node9"><a xlink:href="../../d0/da4/class_r_t_f_generator.html" target="_top" xlink:title="Generator for RTF output. ">
<polygon fill="white" stroke="black" points="450,-85.5 450,-104.5 529,-104.5 529,-85.5 450,-85.5"/>
<text text-anchor="middle" x="489.5" y="-92.5" font-family="Helvetica,sans-Serif" font-size="10.00">RTFGenerator</text>
</a>
</g>
</g>
<!-- Node4&#45;&gt;Node8 -->
<g id="edge8" class="edge"><title>Node4&#45;&gt;Node8</title>
<path fill="none" stroke="midnightblue" d="M383.197,-155.684C400.276,-143.657 425.128,-126.853 448,-114 453.823,-110.728 460.304,-107.51 466.344,-104.679"/>
<polygon fill="midnightblue" stroke="midnightblue" points="381.15,-152.846 375.026,-161.492 385.205,-158.551 381.15,-152.846"/>
</g>
</g>
</svg>
