<?xml version="1.0" encoding="UTF-8" standalone="no"?>
<!DOCTYPE svg PUBLIC "-//W3C//DTD SVG 1.1//EN"
 "http://www.w3.org/Graphics/SVG/1.1/DTD/svg11.dtd">
<!-- Generated by graphviz version 2.38.0 (20140413.2041)
 -->
<!-- Title: TranslatorAdapterBase Pages: 1 -->
<svg width="170pt" height="152pt"
 viewBox="0.00 0.00 170.00 152.00" xmlns="http://www.w3.org/2000/svg" xmlns:xlink="http://www.w3.org/1999/xlink">
<g id="graph0" class="graph" transform="scale(1 1) rotate(0) translate(4 148)">
<title>TranslatorAdapterBase</title>
<polygon fill="white" stroke="none" points="-4,4 -4,-148 166,-148 166,4 -4,4"/>
<!-- Node33 -->
<g id="node1" class="node"><title>Node33</title>
<polygon fill="#bfbfbf" stroke="black" points="-7.10543e-15,-0.5 -7.10543e-15,-19.5 116,-19.5 116,-0.5 -7.10543e-15,-0.5"/>
<text text-anchor="middle" x="58" y="-7.5" font-family="Helvetica,sans-Serif" font-size="10.00">TranslatorAdapterBase</text>
</g>
<!-- Node34 -->
<g id="node2" class="node"><title>Node34</title>
<g id="a_node2"><a xlink:href="../../d8/dfb/class_translator.html" target="_top" xlink:title="Abstract base class for all translatable text fragments. ">
<polygon fill="white" stroke="black" points="36,-124.5 36,-143.5 96,-143.5 96,-124.5 36,-124.5"/>
<text text-anchor="middle" x="66" y="-131.5" font-family="Helvetica,sans-Serif" font-size="10.00">Translator</text>
</a>
</g>
</g>
<!-- Node34&#45;&gt;Node33 -->
<g id="edge1" class="edge"><title>Node34&#45;&gt;Node33</title>
<path fill="none" stroke="midnightblue" d="M63.6478,-114.087C62.6924,-105.788 61.6602,-95.9225 61,-87 59.207,-62.7696 58.4417,-34.1087 58.153,-19.9036"/>
<polygon fill="midnightblue" stroke="midnightblue" points="60.1945,-114.686 64.8611,-124.198 67.1446,-113.852 60.1945,-114.686"/>
</g>
<!-- Node35 -->
<g id="node3" class="node"><title>Node35</title>
<g id="a_node3"><a xlink:href="../../d6/d78/class_translator_english.html" target="_top" xlink:title="TranslatorEnglish">
<polygon fill="white" stroke="black" points="70,-67.5 70,-86.5 162,-86.5 162,-67.5 70,-67.5"/>
<text text-anchor="middle" x="116" y="-74.5" font-family="Helvetica,sans-Serif" font-size="10.00">TranslatorEnglish</text>
</a>
</g>
</g>
<!-- Node34&#45;&gt;Node35 -->
<g id="edge3" class="edge"><title>Node34&#45;&gt;Node35</title>
<path fill="none" stroke="midnightblue" d="M80.7017,-116.828C89.6551,-106.979 100.744,-94.7817 108.077,-86.7149"/>
<polygon fill="midnightblue" stroke="midnightblue" points="77.9495,-114.652 73.8125,-124.406 83.1291,-119.361 77.9495,-114.652"/>
</g>
<!-- Node35&#45;&gt;Node33 -->
<g id="edge2" class="edge"><title>Node35&#45;&gt;Node33</title>
<path fill="none" stroke="#9a32cd" stroke-dasharray="5,2" d="M101.397,-59.6348C90.0542,-46.9228 74.7734,-29.7978 65.6982,-19.6273"/>
<polygon fill="#9a32cd" stroke="#9a32cd" points="98.9084,-62.1026 108.178,-67.2338 104.131,-57.4421 98.9084,-62.1026"/>
<text text-anchor="middle" x="107" y="-41" font-family="Helvetica,sans-Serif" font-size="10.00"> english</text>
</g>
</g>
</svg>
