<?xml version="1.0" encoding="UTF-8" standalone="no"?>
<!DOCTYPE svg PUBLIC "-//W3C//DTD SVG 1.1//EN"
 "http://www.w3.org/Graphics/SVG/1.1/DTD/svg11.dtd">
<!-- Generated by graphviz version 2.38.0 (20140413.2041)
 -->
<!-- Title: TemplateNodeResource Pages: 1 -->
<svg width="253pt" height="241pt"
 viewBox="0.00 0.00 253.00 241.00" xmlns="http://www.w3.org/2000/svg" xmlns:xlink="http://www.w3.org/1999/xlink">
<g id="graph0" class="graph" transform="scale(1 1) rotate(0) translate(4 237)">
<title>TemplateNodeResource</title>
<polygon fill="white" stroke="none" points="-4,4 -4,-237 249,-237 249,4 -4,4"/>
<!-- Node4 -->
<g id="node1" class="node"><title>Node4</title>
<polygon fill="#bfbfbf" stroke="black" points="94,-0.5 94,-19.5 216,-19.5 216,-0.5 94,-0.5"/>
<text text-anchor="middle" x="155" y="-7.5" font-family="Helvetica,sans-Serif" font-size="10.00">TemplateNodeResource</text>
</g>
<!-- Node5 -->
<g id="node2" class="node"><title>Node5</title>
<g id="a_node2"><a xlink:href="../../d8/d78/class_template_node_creator.html" target="_top" xlink:title="TemplateNodeCreator\l\&lt; TemplateNodeResource \&gt;">
<polygon fill="white" stroke="black" points="0,-78.5 0,-108.5 140,-108.5 140,-78.5 0,-78.5"/>
<text text-anchor="start" x="8" y="-96.5" font-family="Helvetica,sans-Serif" font-size="10.00">TemplateNodeCreator</text>
<text text-anchor="middle" x="70" y="-85.5" font-family="Helvetica,sans-Serif" font-size="10.00">&lt; TemplateNodeResource &gt;</text>
</a>
</g>
</g>
<!-- Node5&#45;&gt;Node4 -->
<g id="edge1" class="edge"><title>Node5&#45;&gt;Node4</title>
<path fill="none" stroke="midnightblue" d="M92.3956,-71.0266C109.958,-54.1878 133.471,-31.6429 146.094,-19.5391"/>
<polygon fill="midnightblue" stroke="midnightblue" points="89.6017,-68.8565 84.8059,-78.3038 94.4463,-73.9092 89.6017,-68.8565"/>
</g>
<!-- Node6 -->
<g id="node3" class="node"><title>Node6</title>
<g id="a_node3"><a xlink:href="../../d6/d53/class_template_node.html" target="_top" xlink:title="Base class of all nodes in a template&#39;s AST. ">
<polygon fill="white" stroke="black" points="44,-213.5 44,-232.5 124,-232.5 124,-213.5 44,-213.5"/>
<text text-anchor="middle" x="84" y="-220.5" font-family="Helvetica,sans-Serif" font-size="10.00">TemplateNode</text>
</a>
</g>
</g>
<!-- Node6&#45;&gt;Node5 -->
<g id="edge2" class="edge"><title>Node6&#45;&gt;Node5</title>
<path fill="none" stroke="midnightblue" d="M78.6925,-203.502C76.5316,-195.169 74.2518,-185.164 73,-176 69.7998,-152.572 69.4982,-125.028 69.6753,-108.708"/>
<polygon fill="midnightblue" stroke="midnightblue" points="75.3528,-204.558 81.3681,-213.28 82.1046,-202.71 75.3528,-204.558"/>
</g>
<!-- Node6&#45;&gt;Node6 -->
<g id="edge3" class="edge"><title>Node6&#45;&gt;Node6</title>
<path fill="none" stroke="#9a32cd" stroke-dasharray="5,2" d="M134.265,-227.218C139.005,-226.354 142,-224.948 142,-223 142,-219.883 134.332,-218.154 124.119,-217.813"/>
<polygon fill="#9a32cd" stroke="#9a32cd" points="133.74,-223.752 124.119,-228.187 134.406,-230.72 133.74,-223.752"/>
<text text-anchor="middle" x="164" y="-220.5" font-family="Helvetica,sans-Serif" font-size="10.00"> m_parent</text>
</g>
<!-- Node7 -->
<g id="node4" class="node"><title>Node7</title>
<g id="a_node4"><a xlink:href="../../d8/d78/class_template_node_creator.html" target="_top" xlink:title="Helper class for creating template AST tag nodes and returning the template for a given node...">
<polygon fill="white" stroke="black" points="82.5,-156.5 82.5,-175.5 219.5,-175.5 219.5,-156.5 82.5,-156.5"/>
<text text-anchor="middle" x="151" y="-163.5" font-family="Helvetica,sans-Serif" font-size="10.00">TemplateNodeCreator&lt; T &gt;</text>
</a>
</g>
</g>
<!-- Node6&#45;&gt;Node7 -->
<g id="edge5" class="edge"><title>Node6&#45;&gt;Node7</title>
<path fill="none" stroke="midnightblue" d="M102.275,-206.998C114.501,-196.962 130.164,-184.104 140.384,-175.715"/>
<polygon fill="midnightblue" stroke="midnightblue" points="99.9773,-204.356 94.4688,-213.406 104.419,-209.767 99.9773,-204.356"/>
</g>
<!-- Node7&#45;&gt;Node5 -->
<g id="edge4" class="edge"><title>Node7&#45;&gt;Node5</title>
<path fill="none" stroke="orange" stroke-dasharray="5,2" d="M133.518,-149.784C119.462,-137.551 99.8689,-120.497 86.1726,-108.576"/>
<polygon fill="orange" stroke="orange" points="131.227,-152.43 141.068,-156.355 135.823,-147.15 131.227,-152.43"/>
<text text-anchor="middle" x="181.5" y="-130" font-family="Helvetica,sans-Serif" font-size="10.00"> &lt; TemplateNodeResource &gt;</text>
</g>
<!-- Node8 -->
<g id="node5" class="node"><title>Node8</title>
<g id="a_node5"><a xlink:href="../../dc/dfa/class_expr_ast.html" target="_top" xlink:title="Base class for all nodes in the abstract syntax tree of an expression. ">
<polygon fill="white" stroke="black" points="158,-84 158,-103 210,-103 210,-84 158,-84"/>
<text text-anchor="middle" x="184" y="-91" font-family="Helvetica,sans-Serif" font-size="10.00">ExprAst</text>
</a>
</g>
</g>
<!-- Node8&#45;&gt;Node4 -->
<g id="edge6" class="edge"><title>Node8&#45;&gt;Node4</title>
<path fill="none" stroke="#9a32cd" stroke-dasharray="5,2" d="M177.541,-74.3478C171.484,-57.3261 162.69,-32.6117 158.081,-19.6592"/>
<polygon fill="#9a32cd" stroke="#9a32cd" points="174.247,-75.5301 180.896,-83.7781 180.842,-73.1834 174.247,-75.5301"/>
<text text-anchor="middle" x="198.5" y="-52" font-family="Helvetica,sans-Serif" font-size="10.00"> m_resExpr</text>
<text text-anchor="middle" x="198.5" y="-41" font-family="Helvetica,sans-Serif" font-size="10.00">m_asExpr</text>
</g>
</g>
</svg>
