<?xml version="1.0" encoding="UTF-8" standalone="no"?>
<!DOCTYPE svg PUBLIC "-//W3C//DTD SVG 1.1//EN"
 "http://www.w3.org/Graphics/SVG/1.1/DTD/svg11.dtd">
<!-- Generated by graphviz version 2.38.0 (20140413.2041)
 -->
<!-- Title: SearchIndexContext Pages: 1 -->
<!--zoomable 303 -->
<svg id="main" version="1.1" xmlns="http://www.w3.org/2000/svg" xmlns:xlink="http://www.w3.org/1999/xlink" xml:space="preserve" onload="init(evt)">
<style type="text/css"><![CDATA[
.edge:hover path { stroke: red; }
.edge:hover polygon { stroke: red; fill: red; }
]]></style>
<script type="text/javascript"><![CDATA[
var edges = document.getElementsByTagName('g');
if (edges && edges.length) {
  for (var i=0;i<edges.length;i++) {
    if (edges[i].id.substr(0,4)=='edge') {
      edges[i].setAttribute('class','edge');
    }
  }
}
]]></script>
        <defs>
                <circle id="rim" cx="0" cy="0" r="7"/>
                <circle id="rim2" cx="0" cy="0" r="3.5"/>
                <g id="zoomPlus">
                        <use xlink:href="#rim" fill="#404040">
                                <set attributeName="fill" to="#808080" begin="zoomplus.mouseover" end="zoomplus.mouseout"/>
                        </use>
                        <path d="M-4,0h8M0,-4v8" fill="none" stroke="white" stroke-width="1.5" pointer-events="none"/>
                </g>
                <g id="zoomMin">
                        <use xlink:href="#rim" fill="#404040">
                                <set attributeName="fill" to="#808080" begin="zoomminus.mouseover" end="zoomminus.mouseout"/>
                        </use>
                        <path d="M-4,0h8" fill="none" stroke="white" stroke-width="1.5" pointer-events="none"/>
                </g>
                <g id="dirArrow">
                        <path fill="none" stroke="white" stroke-width="1.5" d="M0,-3.0v7 M-2.5,-0.5L0,-3.0L2.5,-0.5"/>
                </g>
               <g id="resetDef">
                       <use xlink:href="#rim2" fill="#404040">
                               <set attributeName="fill" to="#808080" begin="reset.mouseover" end="reset.mouseout"/>
                       </use>
               </g>
        </defs>

<script type="text/javascript">
var viewWidth = 1597;
var viewHeight = 303;
var sectionId = 'dynsection-1';
</script>
<script xlink:href="../../svgpan.js"/>
<svg id="graph" class="graph">
<g id="viewport">
<title>SearchIndexContext</title>
<polygon fill="white" stroke="none" points="-4,4 -4,-299 1593,-299 1593,4 -4,4"/>
<!-- Node3 -->
<g id="node1" class="node"><title>Node3</title>
<polygon fill="#bfbfbf" stroke="black" points="1483,-232.5 1483,-251.5 1589,-251.5 1589,-232.5 1483,-232.5"/>
<text text-anchor="middle" x="1536" y="-239.5" font-family="Helvetica,sans-Serif" font-size="10.00">SearchIndexContext</text>
</g>
<!-- Node4 -->
<g id="node2" class="node"><title>Node4</title>
<g id="a_node2"><a xlink:href="../../d8/d96/class_ref_counted_context.html" target="_top" xlink:title="Helper class to support reference counting. ">
<polygon fill="white" stroke="black" points="291,-275.5 291,-294.5 395,-294.5 395,-275.5 291,-275.5"/>
<text text-anchor="middle" x="343" y="-282.5" font-family="Helvetica,sans-Serif" font-size="10.00">RefCountedContext</text>
</a>
</g>
</g>
<!-- Node4&#45;&gt;Node3 -->
<g id="edge1" class="edge"><title>Node4&#45;&gt;Node3</title>
<path fill="none" stroke="midnightblue" d="M405.475,-287.261C457.014,-288.961 532.55,-291 598.5,-291 598.5,-291 598.5,-291 1386,-291 1435.83,-291 1490.56,-265.961 1517.72,-251.681"/>
<polygon fill="midnightblue" stroke="midnightblue" points="405.287,-283.753 395.175,-286.915 405.052,-290.749 405.287,-283.753"/>
</g>
<!-- Node11 -->
<g id="node9" class="node"><title>Node11</title>
<g id="a_node9"><a xlink:href="../../d8/d39/class_symbol_indices_context.html" target="_top" xlink:title="SymbolIndicesContext">
<polygon fill="white" stroke="black" points="541.5,-192.5 541.5,-211.5 657.5,-211.5 657.5,-192.5 541.5,-192.5"/>
<text text-anchor="middle" x="599.5" y="-199.5" font-family="Helvetica,sans-Serif" font-size="10.00">SymbolIndicesContext</text>
</a>
</g>
</g>
<!-- Node4&#45;&gt;Node11 -->
<g id="edge9" class="edge"><title>Node4&#45;&gt;Node11</title>
<path fill="none" stroke="midnightblue" d="M405.312,-278.231C445.709,-272.777 494.147,-264.029 511,-252 523.968,-242.744 516.373,-230.715 529,-221 534.056,-217.11 539.856,-214.016 545.903,-211.555"/>
<polygon fill="midnightblue" stroke="midnightblue" points="404.702,-274.781 395.239,-279.547 405.608,-281.722 404.702,-274.781"/>
</g>
<!-- Node5 -->
<g id="node3" class="node"><title>Node5</title>
<g id="a_node3"><a xlink:href="../../d9/de8/class_template_struct_intf.html" target="_top" xlink:title="Abstract interface for a context value of type struct. ">
<polygon fill="white" stroke="black" points="1336,-232.5 1336,-251.5 1434,-251.5 1434,-232.5 1336,-232.5"/>
<text text-anchor="middle" x="1385" y="-239.5" font-family="Helvetica,sans-Serif" font-size="10.00">TemplateStructIntf</text>
</a>
</g>
</g>
<!-- Node5&#45;&gt;Node3 -->
<g id="edge2" class="edge"><title>Node5&#45;&gt;Node3</title>
<path fill="none" stroke="midnightblue" d="M1444.74,-242C1457.29,-242 1470.47,-242 1482.75,-242"/>
<polygon fill="midnightblue" stroke="midnightblue" points="1444.38,-238.5 1434.38,-242 1444.38,-245.5 1444.38,-238.5"/>
</g>
<!-- Node6 -->
<g id="node4" class="node"><title>Node6</title>
<g id="a_node4"><a xlink:href="../../db/d5d/class_search_index_context_1_1_private.html" target="_top" xlink:title="SearchIndexContext\l::Private">
<polygon fill="white" stroke="black" points="1332,-161 1332,-191 1438,-191 1438,-161 1332,-161"/>
<text text-anchor="start" x="1340" y="-179" font-family="Helvetica,sans-Serif" font-size="10.00">SearchIndexContext</text>
<text text-anchor="middle" x="1385" y="-168" font-family="Helvetica,sans-Serif" font-size="10.00">::Private</text>
</a>
</g>
</g>
<!-- Node6&#45;&gt;Node3 -->
<g id="edge3" class="edge"><title>Node6&#45;&gt;Node3</title>
<path fill="none" stroke="#9a32cd" stroke-dasharray="5,2" d="M1429.61,-195.318C1457.17,-207.524 1491.57,-222.764 1513.42,-232.442"/>
<polygon fill="#9a32cd" stroke="#9a32cd" points="1430.74,-191.992 1420.18,-191.142 1427.91,-198.392 1430.74,-191.992"/>
<text text-anchor="middle" x="1460.5" y="-214" font-family="Helvetica,sans-Serif" font-size="10.00"> p</text>
</g>
<!-- Node7 -->
<g id="node5" class="node"><title>Node7</title>
<g id="a_node5"><a xlink:href="../../d1/d80/class_property_mapper.html" target="_top" xlink:title="PropertyMapper\&lt; SearchIndex\lContext::Private \&gt;">
<polygon fill="white" stroke="black" points="1104,-106 1104,-136 1253,-136 1253,-106 1104,-106"/>
<text text-anchor="start" x="1112" y="-124" font-family="Helvetica,sans-Serif" font-size="10.00">PropertyMapper&lt; SearchIndex</text>
<text text-anchor="middle" x="1178.5" y="-113" font-family="Helvetica,sans-Serif" font-size="10.00">Context::Private &gt;</text>
</a>
</g>
</g>
<!-- Node7&#45;&gt;Node6 -->
<g id="edge4" class="edge"><title>Node7&#45;&gt;Node6</title>
<path fill="none" stroke="#9a32cd" stroke-dasharray="5,2" d="M1251.09,-138.478C1271.47,-143.62 1293.65,-149.378 1314,-155 1320.73,-156.858 1327.79,-158.887 1334.74,-160.928"/>
<polygon fill="#9a32cd" stroke="#9a32cd" points="1251.8,-135.048 1241.25,-136.007 1250.1,-141.837 1251.8,-135.048"/>
<text text-anchor="middle" x="1292.5" y="-158" font-family="Helvetica,sans-Serif" font-size="10.00"> s_inst</text>
</g>
<!-- Node8 -->
<g id="node6" class="node"><title>Node8</title>
<g id="a_node6"><a xlink:href="../../d1/d80/class_property_mapper.html" target="_top" xlink:title="Helper class to map a property name to a handler member function. ">
<polygon fill="white" stroke="black" points="841.5,-110.5 841.5,-129.5 951.5,-129.5 951.5,-110.5 841.5,-110.5"/>
<text text-anchor="middle" x="896.5" y="-117.5" font-family="Helvetica,sans-Serif" font-size="10.00">PropertyMapper&lt; T &gt;</text>
</a>
</g>
</g>
<!-- Node8&#45;&gt;Node7 -->
<g id="edge5" class="edge"><title>Node8&#45;&gt;Node7</title>
<path fill="none" stroke="orange" stroke-dasharray="5,2" d="M961.999,-120.23C1004.29,-120.381 1059.7,-120.579 1103.74,-120.737"/>
<polygon fill="orange" stroke="orange" points="961.831,-116.73 951.819,-120.194 961.806,-123.73 961.831,-116.73"/>
<text text-anchor="start" x="984" y="-135" font-family="Helvetica,sans-Serif" font-size="10.00"> &lt; SearchIndexContext</text>
<text text-anchor="middle" x="1035" y="-124" font-family="Helvetica,sans-Serif" font-size="10.00">::Private &gt;</text>
</g>
<!-- Node9 -->
<g id="node7" class="node"><title>Node9</title>
<g id="a_node7"><a xlink:href="../../d0/dc5/struct_search_index_context_1_1_private_1_1_cachable.html" target="_top" xlink:title="SearchIndexContext\l::Private::Cachable">
<polygon fill="white" stroke="black" points="1125.5,-196 1125.5,-226 1231.5,-226 1231.5,-196 1125.5,-196"/>
<text text-anchor="start" x="1133.5" y="-214" font-family="Helvetica,sans-Serif" font-size="10.00">SearchIndexContext</text>
<text text-anchor="middle" x="1178.5" y="-203" font-family="Helvetica,sans-Serif" font-size="10.00">::Private::Cachable</text>
</a>
</g>
</g>
<!-- Node9&#45;&gt;Node6 -->
<g id="edge6" class="edge"><title>Node9&#45;&gt;Node6</title>
<path fill="none" stroke="#9a32cd" stroke-dasharray="5,2" d="M1241.62,-200.369C1270.5,-195.426 1304.45,-189.614 1331.96,-184.906"/>
<polygon fill="#9a32cd" stroke="#9a32cd" points="1240.9,-196.941 1231.63,-202.077 1242.08,-203.84 1240.9,-196.941"/>
<text text-anchor="middle" x="1292.5" y="-198" font-family="Helvetica,sans-Serif" font-size="10.00"> m_cache</text>
</g>
<!-- Node10 -->
<g id="node8" class="node"><title>Node10</title>
<g id="a_node8"><a xlink:href="../../df/d12/class_shared_ptr.html" target="_top" xlink:title="SharedPtr\&lt; SymbolIndices\lContext \&gt;">
<polygon fill="white" stroke="black" points="829.5,-198 829.5,-228 963.5,-228 963.5,-198 829.5,-198"/>
<text text-anchor="start" x="837.5" y="-216" font-family="Helvetica,sans-Serif" font-size="10.00">SharedPtr&lt; SymbolIndices</text>
<text text-anchor="middle" x="896.5" y="-205" font-family="Helvetica,sans-Serif" font-size="10.00">Context &gt;</text>
</a>
</g>
</g>
<!-- Node10&#45;&gt;Node9 -->
<g id="edge7" class="edge"><title>Node10&#45;&gt;Node9</title>
<path fill="none" stroke="#9a32cd" stroke-dasharray="5,2" d="M973.575,-212.457C1021.75,-212.112 1082.79,-211.677 1125.48,-211.372"/>
<polygon fill="#9a32cd" stroke="#9a32cd" points="973.476,-208.957 963.502,-212.529 973.526,-215.957 973.476,-208.957"/>
<text text-anchor="middle" x="1035" y="-216" font-family="Helvetica,sans-Serif" font-size="10.00"> symbolIndices</text>
</g>
<!-- Node11&#45;&gt;Node10 -->
<g id="edge8" class="edge"><title>Node11&#45;&gt;Node10</title>
<path fill="none" stroke="#9a32cd" stroke-dasharray="5,2" d="M667.726,-202.241C708.597,-202.648 761.832,-203.641 809,-206 815.621,-206.331 822.521,-206.755 829.409,-207.23"/>
<polygon fill="#9a32cd" stroke="#9a32cd" points="667.643,-198.74 657.612,-202.149 667.58,-205.74 667.643,-198.74"/>
<text text-anchor="middle" x="748.5" y="-209" font-family="Helvetica,sans-Serif" font-size="10.00"> m_ptr</text>
</g>
<!-- Node12 -->
<g id="node10" class="node"><title>Node12</title>
<g id="a_node10"><a xlink:href="../../d6/d88/class_template_list_intf.html" target="_top" xlink:title="Abstract read&#45;only interface for a context value of type list. ">
<polygon fill="white" stroke="black" points="0,-176.5 0,-195.5 87,-195.5 87,-176.5 0,-176.5"/>
<text text-anchor="middle" x="43.5" y="-183.5" font-family="Helvetica,sans-Serif" font-size="10.00">TemplateListIntf</text>
</a>
</g>
</g>
<!-- Node12&#45;&gt;Node11 -->
<g id="edge10" class="edge"><title>Node12&#45;&gt;Node11</title>
<path fill="none" stroke="midnightblue" d="M97.2727,-187.759C99.8855,-187.842 102.472,-187.922 105,-188 262.849,-192.848 449.118,-197.97 541.131,-200.46"/>
<polygon fill="midnightblue" stroke="midnightblue" points="97.2445,-184.257 87.1376,-187.435 97.0204,-191.253 97.2445,-184.257"/>
</g>
<!-- Node14 -->
<g id="node12" class="node"><title>Node14</title>
<g id="a_node12"><a xlink:href="../../d6/dcb/class_generic_node_list_context.html" target="_top" xlink:title="standard template list implementation ">
<polygon fill="white" stroke="black" points="124,-153.5 124,-172.5 248,-172.5 248,-153.5 124,-153.5"/>
<text text-anchor="middle" x="186" y="-160.5" font-family="Helvetica,sans-Serif" font-size="10.00">GenericNodeListContext</text>
</a>
</g>
</g>
<!-- Node12&#45;&gt;Node14 -->
<g id="edge13" class="edge"><title>Node12&#45;&gt;Node14</title>
<path fill="none" stroke="midnightblue" d="M96.9632,-177.412C106.691,-175.819 116.907,-174.147 126.794,-172.528"/>
<polygon fill="midnightblue" stroke="midnightblue" points="96.3391,-173.967 87.0359,-179.037 97.47,-180.875 96.3391,-173.967"/>
</g>
<!-- Node13 -->
<g id="node11" class="node"><title>Node13</title>
<g id="a_node11"><a xlink:href="../../d6/d8b/class_symbol_indices_context_1_1_private.html" target="_top" xlink:title="SymbolIndicesContext\l::Private">
<polygon fill="white" stroke="black" points="285,-143 285,-173 401,-173 401,-143 285,-143"/>
<text text-anchor="start" x="293" y="-161" font-family="Helvetica,sans-Serif" font-size="10.00">SymbolIndicesContext</text>
<text text-anchor="middle" x="343" y="-150" font-family="Helvetica,sans-Serif" font-size="10.00">::Private</text>
</a>
</g>
</g>
<!-- Node13&#45;&gt;Node11 -->
<g id="edge11" class="edge"><title>Node13&#45;&gt;Node11</title>
<path fill="none" stroke="#9a32cd" stroke-dasharray="5,2" d="M411.444,-162.452C442.073,-165.296 478.618,-169.843 511,-177 519.234,-178.82 520.93,-180.554 529,-183 539.654,-186.229 551.3,-189.51 561.961,-192.415"/>
<polygon fill="#9a32cd" stroke="#9a32cd" points="411.568,-158.949 401.298,-161.552 410.95,-165.922 411.568,-158.949"/>
<text text-anchor="middle" x="465" y="-180" font-family="Helvetica,sans-Serif" font-size="10.00"> p</text>
</g>
<!-- Node14&#45;&gt;Node13 -->
<g id="edge12" class="edge"><title>Node14&#45;&gt;Node13</title>
<path fill="none" stroke="midnightblue" d="M258.285,-160.7C267.228,-160.412 276.283,-160.12 284.968,-159.84"/>
<polygon fill="midnightblue" stroke="midnightblue" points="258.142,-157.203 248.26,-161.024 258.368,-164.2 258.142,-157.203"/>
</g>
<!-- Node15 -->
<g id="node13" class="node"><title>Node15</title>
<g id="a_node13"><a xlink:href="../../df/d12/class_shared_ptr.html" target="_top" xlink:title="Reference counting smart pointer. ">
<polygon fill="white" stroke="black" points="557.5,-230.5 557.5,-249.5 641.5,-249.5 641.5,-230.5 557.5,-230.5"/>
<text text-anchor="middle" x="599.5" y="-237.5" font-family="Helvetica,sans-Serif" font-size="10.00">SharedPtr&lt; T &gt;</text>
</a>
</g>
</g>
<!-- Node15&#45;&gt;Node10 -->
<g id="edge14" class="edge"><title>Node15&#45;&gt;Node10</title>
<path fill="none" stroke="orange" stroke-dasharray="5,2" d="M651.621,-235.321C700.857,-230.815 775.577,-223.976 829.331,-219.056"/>
<polygon fill="orange" stroke="orange" points="651.158,-231.849 641.518,-236.246 651.796,-238.82 651.158,-231.849"/>
<text text-anchor="middle" x="748.5" y="-235" font-family="Helvetica,sans-Serif" font-size="10.00"> &lt; SymbolIndicesContext &gt;</text>
</g>
<!-- Node16 -->
<g id="node14" class="node"><title>Node16</title>
<polygon fill="white" stroke="#bfbfbf" points="328.5,-230.5 328.5,-249.5 357.5,-249.5 357.5,-230.5 328.5,-230.5"/>
<text text-anchor="middle" x="343" y="-237.5" font-family="Helvetica,sans-Serif" font-size="10.00">T</text>
</g>
<!-- Node16&#45;&gt;Node15 -->
<g id="edge15" class="edge"><title>Node16&#45;&gt;Node15</title>
<path fill="none" stroke="#9a32cd" stroke-dasharray="5,2" d="M367.839,-240C411.209,-240 503.489,-240 557.256,-240"/>
<polygon fill="#9a32cd" stroke="#9a32cd" points="367.683,-236.5 357.683,-240 367.683,-243.5 367.683,-236.5"/>
<text text-anchor="middle" x="465" y="-243" font-family="Helvetica,sans-Serif" font-size="10.00"> m_ptr</text>
</g>
<!-- Node17 -->
<g id="node15" class="node"><title>Node17</title>
<g id="a_node15"><a xlink:href="../../d4/db6/struct_search_index_info.html" target="_top" xlink:title="SearchIndexInfo">
<polygon fill="white" stroke="black" points="1134.5,-156.5 1134.5,-175.5 1222.5,-175.5 1222.5,-156.5 1134.5,-156.5"/>
<text text-anchor="middle" x="1178.5" y="-163.5" font-family="Helvetica,sans-Serif" font-size="10.00">SearchIndexInfo</text>
</a>
</g>
</g>
<!-- Node17&#45;&gt;Node6 -->
<g id="edge16" class="edge"><title>Node17&#45;&gt;Node6</title>
<path fill="none" stroke="#9a32cd" stroke-dasharray="5,2" d="M1232.78,-167.562C1257.5,-168.394 1287.26,-169.548 1314,-171 1319.72,-171.31 1325.7,-171.675 1331.65,-172.064"/>
<polygon fill="#9a32cd" stroke="#9a32cd" points="1232.63,-164.055 1222.52,-167.225 1232.4,-171.052 1232.63,-164.055"/>
<text text-anchor="middle" x="1292.5" y="-174" font-family="Helvetica,sans-Serif" font-size="10.00"> m_info</text>
</g>
<!-- Node18 -->
<g id="node16" class="node"><title>Node18</title>
<g id="a_node16"><a xlink:href="../../d7/d17/class_letter_to_index_map.html" target="_top" xlink:title="LetterToIndexMap\&lt; Search\lIndexList \&gt;">
<polygon fill="white" stroke="black" points="829,-149 829,-179 964,-179 964,-149 829,-149"/>
<text text-anchor="start" x="837" y="-167" font-family="Helvetica,sans-Serif" font-size="10.00">LetterToIndexMap&lt; Search</text>
<text text-anchor="middle" x="896.5" y="-156" font-family="Helvetica,sans-Serif" font-size="10.00">IndexList &gt;</text>
</a>
</g>
</g>
<!-- Node18&#45;&gt;Node17 -->
<g id="edge17" class="edge"><title>Node18&#45;&gt;Node17</title>
<path fill="none" stroke="#9a32cd" stroke-dasharray="5,2" d="M974.314,-164.549C1025.85,-164.917 1091.83,-165.388 1134.38,-165.692"/>
<polygon fill="#9a32cd" stroke="#9a32cd" points="974.236,-161.048 964.211,-164.477 974.186,-168.048 974.236,-161.048"/>
<text text-anchor="middle" x="1035" y="-169" font-family="Helvetica,sans-Serif" font-size="10.00"> symbolList</text>
</g>
<!-- Node19 -->
<g id="node17" class="node"><title>Node19</title>
<g id="a_node17"><a xlink:href="../../d0/d9f/class_s_int_dict.html" target="_top" xlink:title="SIntDict\&lt; SearchIndexList \&gt;">
<polygon fill="white" stroke="black" points="529,-73.5 529,-92.5 670,-92.5 670,-73.5 529,-73.5"/>
<text text-anchor="middle" x="599.5" y="-80.5" font-family="Helvetica,sans-Serif" font-size="10.00">SIntDict&lt; SearchIndexList &gt;</text>
</a>
</g>
</g>
<!-- Node19&#45;&gt;Node18 -->
<g id="edge18" class="edge"><title>Node19&#45;&gt;Node18</title>
<path fill="none" stroke="midnightblue" d="M644.873,-95.1837C697.184,-109.547 784.133,-133.421 840.628,-148.933"/>
<polygon fill="midnightblue" stroke="midnightblue" points="645.778,-91.8027 635.208,-92.5299 643.924,-98.5528 645.778,-91.8027"/>
</g>
<!-- Node20 -->
<g id="node18" class="node"><title>Node20</title>
<g id="a_node18"><a xlink:href="../../d8/d9a/class_s_int_list.html" target="_top" xlink:title="SIntList\&lt; SearchIndexList \&gt;">
<polygon fill="white" stroke="black" points="827,-51.5 827,-70.5 966,-70.5 966,-51.5 827,-51.5"/>
<text text-anchor="middle" x="896.5" y="-58.5" font-family="Helvetica,sans-Serif" font-size="10.00">SIntList&lt; SearchIndexList &gt;</text>
</a>
</g>
</g>
<!-- Node19&#45;&gt;Node20 -->
<g id="edge21" class="edge"><title>Node19&#45;&gt;Node20</title>
<path fill="none" stroke="#9a32cd" stroke-dasharray="5,2" d="M631.547,-69.5517C647.987,-63.1549 668.717,-56.2139 688,-53 734.229,-45.2952 787.015,-47.4786 827.778,-51.4943"/>
<polygon fill="#9a32cd" stroke="#9a32cd" points="629.887,-66.4466 621.916,-73.426 632.5,-72.9408 629.887,-66.4466"/>
<text text-anchor="middle" x="748.5" y="-56" font-family="Helvetica,sans-Serif" font-size="10.00"> m_owner</text>
</g>
<!-- Node20&#45;&gt;Node19 -->
<g id="edge19" class="edge"><title>Node20&#45;&gt;Node19</title>
<path fill="none" stroke="#9a32cd" stroke-dasharray="5,2" d="M816.778,-66.8708C771.092,-70.2779 714.063,-74.5309 670.037,-77.8142"/>
<polygon fill="#9a32cd" stroke="#9a32cd" points="817.227,-70.3471 826.939,-66.113 816.706,-63.3665 817.227,-70.3471"/>
<text text-anchor="middle" x="748.5" y="-79" font-family="Helvetica,sans-Serif" font-size="10.00"> m_list</text>
</g>
<!-- Node21 -->
<g id="node19" class="node"><title>Node21</title>
<polygon fill="white" stroke="#bfbfbf" points="535.5,-116.5 535.5,-135.5 663.5,-135.5 663.5,-116.5 535.5,-116.5"/>
<text text-anchor="middle" x="599.5" y="-123.5" font-family="Helvetica,sans-Serif" font-size="10.00">QList&lt; SearchIndexList &gt;</text>
</g>
<!-- Node21&#45;&gt;Node20 -->
<g id="edge20" class="edge"><title>Node21&#45;&gt;Node20</title>
<path fill="none" stroke="midnightblue" d="M673.576,-116.793C713.864,-110.953 764.577,-102.347 809,-91 830.561,-85.4929 854.409,-77.037 871.595,-70.5046"/>
<polygon fill="midnightblue" stroke="midnightblue" points="672.975,-113.343 663.569,-118.217 673.962,-120.273 672.975,-113.343"/>
</g>
<!-- Node22 -->
<g id="node20" class="node"><title>Node22</title>
<g id="a_node20"><a xlink:href="../../d8/d9a/class_s_int_list.html" target="_top" xlink:title="internal wrapper class that redirects compareValues() to the dictionary ">
<polygon fill="white" stroke="black" points="562.5,-0.5 562.5,-19.5 636.5,-19.5 636.5,-0.5 562.5,-0.5"/>
<text text-anchor="middle" x="599.5" y="-7.5" font-family="Helvetica,sans-Serif" font-size="10.00">SIntList&lt; T &gt;</text>
</a>
</g>
</g>
<!-- Node22&#45;&gt;Node20 -->
<g id="edge22" class="edge"><title>Node22&#45;&gt;Node20</title>
<path fill="none" stroke="orange" stroke-dasharray="5,2" d="M646.695,-12.3971C689.234,-15.2397 753.902,-21.1722 809,-33 830.143,-37.5388 853.429,-45.2387 870.51,-51.4164"/>
<polygon fill="orange" stroke="orange" points="646.845,-8.89963 636.642,-11.7554 646.399,-15.8854 646.845,-8.89963"/>
<text text-anchor="middle" x="748.5" y="-36" font-family="Helvetica,sans-Serif" font-size="10.00"> &lt; SearchIndexList &gt;</text>
</g>
<!-- Node23 -->
<g id="node21" class="node"><title>Node23</title>
<polygon fill="white" stroke="#bfbfbf" points="311,-0.5 311,-19.5 375,-19.5 375,-0.5 311,-0.5"/>
<text text-anchor="middle" x="343" y="-7.5" font-family="Helvetica,sans-Serif" font-size="10.00">QList&lt; T &gt;</text>
</g>
<!-- Node23&#45;&gt;Node22 -->
<g id="edge23" class="edge"><title>Node23&#45;&gt;Node22</title>
<path fill="none" stroke="midnightblue" d="M385.463,-10C434.511,-10 515.383,-10 562.104,-10"/>
<polygon fill="midnightblue" stroke="midnightblue" points="385.207,-6.5001 375.207,-10 385.207,-13.5001 385.207,-6.5001"/>
</g>
<!-- Node24 -->
<g id="node22" class="node"><title>Node24</title>
<g id="a_node22"><a xlink:href="../../d0/d9f/class_s_int_dict.html" target="_top" xlink:title="Ordered dictionary of elements of type T. ">
<polygon fill="white" stroke="black" points="304.5,-89.5 304.5,-108.5 381.5,-108.5 381.5,-89.5 304.5,-89.5"/>
<text text-anchor="middle" x="343" y="-96.5" font-family="Helvetica,sans-Serif" font-size="10.00">SIntDict&lt; T &gt;</text>
</a>
</g>
</g>
<!-- Node24&#45;&gt;Node19 -->
<g id="edge24" class="edge"><title>Node24&#45;&gt;Node19</title>
<path fill="none" stroke="orange" stroke-dasharray="5,2" d="M391.99,-95.9829C430.6,-93.5556 485.387,-90.1113 528.828,-87.3802"/>
<polygon fill="orange" stroke="orange" points="391.313,-92.5185 381.552,-96.6391 391.752,-99.5047 391.313,-92.5185"/>
<text text-anchor="middle" x="465" y="-98" font-family="Helvetica,sans-Serif" font-size="10.00"> &lt; SearchIndexList &gt;</text>
</g>
<!-- Node25 -->
<g id="node23" class="node"><title>Node25</title>
<g id="a_node23"><a xlink:href="../../d7/d17/class_letter_to_index_map.html" target="_top" xlink:title="maps a unicode character code to a list of T::ElementType&#39;s ">
<polygon fill="white" stroke="black" points="540,-154.5 540,-173.5 659,-173.5 659,-154.5 540,-154.5"/>
<text text-anchor="middle" x="599.5" y="-161.5" font-family="Helvetica,sans-Serif" font-size="10.00">LetterToIndexMap&lt; T &gt;</text>
</a>
</g>
</g>
<!-- Node24&#45;&gt;Node25 -->
<g id="edge26" class="edge"><title>Node24&#45;&gt;Node25</title>
<path fill="none" stroke="midnightblue" d="M391.016,-111.008C440.072,-123.537 515.996,-142.928 561.121,-154.453"/>
<polygon fill="midnightblue" stroke="midnightblue" points="391.834,-107.605 381.279,-108.521 390.102,-114.387 391.834,-107.605"/>
</g>
<!-- Node25&#45;&gt;Node18 -->
<g id="edge25" class="edge"><title>Node25&#45;&gt;Node18</title>
<path fill="none" stroke="orange" stroke-dasharray="5,2" d="M669.157,-164C717.306,-164 781.33,-164 828.996,-164"/>
<polygon fill="orange" stroke="orange" points="669.135,-160.5 659.135,-164 669.135,-167.5 669.135,-160.5"/>
<text text-anchor="middle" x="748.5" y="-167" font-family="Helvetica,sans-Serif" font-size="10.00"> &lt; SearchIndexList &gt;</text>
</g>
</g>
</svg>
        <g id="navigator" transform="translate(0 0)" fill="#404254">
                <rect fill="#f2f5e9" fill-opacity="0.5" stroke="#606060" stroke-width=".5" x="0" y="0" width="60" height="60"/>
                <use id="zoomplus" xlink:href="#zoomPlus" x="17" y="9" onmousedown="handleZoom(evt,'in')"/>
                <use id="zoomminus" xlink:href="#zoomMin" x="42" y="9" onmousedown="handleZoom(evt,'out')"/>
                <use id="reset" xlink:href="#resetDef" x="30" y="36" onmousedown="handleReset()"/>
                <g id="arrowUp" xlink:href="#dirArrow" transform="translate(30 24)" onmousedown="handlePan(0,-1)">
                  <use xlink:href="#rim" fill="#404040">
                        <set attributeName="fill" to="#808080" begin="arrowUp.mouseover" end="arrowUp.mouseout"/>
                  </use>
                  <path fill="none" stroke="white" stroke-width="1.5" d="M0,-3.0v7 M-2.5,-0.5L0,-3.0L2.5,-0.5"/>
                </g>
                <g id="arrowRight" xlink:href="#dirArrow" transform="rotate(90) translate(36 -43)" onmousedown="handlePan(1,0)">
                  <use xlink:href="#rim" fill="#404040">
                        <set attributeName="fill" to="#808080" begin="arrowRight.mouseover" end="arrowRight.mouseout"/>
                  </use>
                  <path fill="none" stroke="white" stroke-width="1.5" d="M0,-3.0v7 M-2.5,-0.5L0,-3.0L2.5,-0.5"/>
                </g>
                <g id="arrowDown" xlink:href="#dirArrow" transform="rotate(180) translate(-30 -48)" onmousedown="handlePan(0,1)">
                  <use xlink:href="#rim" fill="#404040">
                        <set attributeName="fill" to="#808080" begin="arrowDown.mouseover" end="arrowDown.mouseout"/>
                  </use>
                  <path fill="none" stroke="white" stroke-width="1.5" d="M0,-3.0v7 M-2.5,-0.5L0,-3.0L2.5,-0.5"/>
                </g>
                <g id="arrowLeft" xlink:href="#dirArrow" transform="rotate(270) translate(-36 17)" onmousedown="handlePan(-1,0)">
                  <use xlink:href="#rim" fill="#404040">
                        <set attributeName="fill" to="#808080" begin="arrowLeft.mouseover" end="arrowLeft.mouseout"/>
                  </use>
                  <path fill="none" stroke="white" stroke-width="1.5" d="M0,-3.0v7 M-2.5,-0.5L0,-3.0L2.5,-0.5"/>
                </g>
        </g>
        <svg viewBox="0 0 15 15" width="100%" height="30px" preserveAspectRatio="xMaxYMin meet">
         <g id="arrow_out" transform="scale(0.3 0.3)">
          <a xlink:href="class_search_index_context__coll__graph_org.svg" target="_base">
           <rect id="button" ry="5" rx="5" y="6" x="6" height="38" width="38"
                fill="#f2f5e9" fill-opacity="0.5" stroke="#606060" stroke-width="1.0"/>
           <path id="arrow"
             d="M 11.500037,31.436501 C 11.940474,20.09759 22.043105,11.32322 32.158766,21.979434 L 37.068811,17.246167 C 37.068811,17.246167 37.088388,32 37.088388,32 L 22.160133,31.978069 C 22.160133,31.978069 26.997745,27.140456 26.997745,27.140456 C 18.528582,18.264221 13.291696,25.230495 11.500037,31.436501 z"
             style="fill:#404040;"/>
          </a>
         </g>
        </svg>
</svg>
