<?xml version="1.0" encoding="UTF-8" standalone="no"?>
<!DOCTYPE svg PUBLIC "-//W3C//DTD SVG 1.1//EN"
 "http://www.w3.org/Graphics/SVG/1.1/DTD/svg11.dtd">
<!-- Generated by graphviz version 2.38.0 (20140413.2041)
 -->
<!-- Title: DocVhdlFlow Pages: 1 -->
<svg width="296pt" height="152pt"
 viewBox="0.00 0.00 296.00 152.00" xmlns="http://www.w3.org/2000/svg" xmlns:xlink="http://www.w3.org/1999/xlink">
<g id="graph0" class="graph" transform="scale(1 1) rotate(0) translate(4 148)">
<title>DocVhdlFlow</title>
<polygon fill="white" stroke="none" points="-4,4 -4,-148 292,-148 292,4 -4,4"/>
<!-- Node4 -->
<g id="node1" class="node"><title>Node4</title>
<polygon fill="#bfbfbf" stroke="black" points="97.5,-0.5 97.5,-19.5 172.5,-19.5 172.5,-0.5 97.5,-0.5"/>
<text text-anchor="middle" x="135" y="-7.5" font-family="Helvetica,sans-Serif" font-size="10.00">DocVhdlFlow</text>
</g>
<!-- Node5 -->
<g id="node2" class="node"><title>Node5</title>
<g id="a_node2"><a xlink:href="../../d7/da3/class_comp_accept.html" target="_top" xlink:title="CompAccept\&lt; DocVhdlFlow \&gt;">
<polygon fill="white" stroke="black" points="0,-57.5 0,-76.5 150,-76.5 150,-57.5 0,-57.5"/>
<text text-anchor="middle" x="75" y="-64.5" font-family="Helvetica,sans-Serif" font-size="10.00">CompAccept&lt; DocVhdlFlow &gt;</text>
</a>
</g>
</g>
<!-- Node5&#45;&gt;Node4 -->
<g id="edge1" class="edge"><title>Node5&#45;&gt;Node4</title>
<path fill="none" stroke="midnightblue" d="M92.0005,-50.4162C102.852,-40.469 116.517,-27.9431 125.493,-19.7149"/>
<polygon fill="midnightblue" stroke="midnightblue" points="89.3815,-48.0689 84.375,-57.4062 94.1116,-53.229 89.3815,-48.0689"/>
</g>
<!-- Node6 -->
<g id="node3" class="node"><title>Node6</title>
<g id="a_node3"><a xlink:href="../../d7/da3/class_comp_accept.html" target="_top" xlink:title="Default accept implementation for compound nodes in the abstract syntax tree. ">
<polygon fill="white" stroke="black" points="26,-124.5 26,-143.5 124,-143.5 124,-124.5 26,-124.5"/>
<text text-anchor="middle" x="75" y="-131.5" font-family="Helvetica,sans-Serif" font-size="10.00">CompAccept&lt; T &gt;</text>
</a>
</g>
</g>
<!-- Node6&#45;&gt;Node5 -->
<g id="edge2" class="edge"><title>Node6&#45;&gt;Node5</title>
<path fill="none" stroke="orange" stroke-dasharray="5,2" d="M75,-114.037C75,-101.67 75,-86.1198 75,-76.6273"/>
<polygon fill="orange" stroke="orange" points="71.5001,-114.234 75,-124.234 78.5001,-114.234 71.5001,-114.234"/>
<text text-anchor="middle" x="115" y="-98" font-family="Helvetica,sans-Serif" font-size="10.00"> &lt; DocVhdlFlow &gt;</text>
</g>
<!-- Node7 -->
<g id="node4" class="node"><title>Node7</title>
<g id="a_node4"><a xlink:href="../../d9/d0e/class_doc_node.html" target="_top" xlink:title="Abstract node interface with type information. ">
<polygon fill="white" stroke="black" points="168,-57.5 168,-76.5 226,-76.5 226,-57.5 168,-57.5"/>
<text text-anchor="middle" x="197" y="-64.5" font-family="Helvetica,sans-Serif" font-size="10.00">DocNode</text>
</a>
</g>
</g>
<!-- Node7&#45;&gt;Node4 -->
<g id="edge3" class="edge"><title>Node7&#45;&gt;Node4</title>
<path fill="none" stroke="midnightblue" d="M179.762,-50.708C168.497,-40.715 154.19,-28.0237 144.824,-19.7149"/>
<polygon fill="midnightblue" stroke="midnightblue" points="177.509,-53.3883 187.312,-57.4062 182.154,-48.1518 177.509,-53.3883"/>
</g>
<!-- Node7&#45;&gt;Node7 -->
<g id="edge4" class="edge"><title>Node7&#45;&gt;Node7</title>
<path fill="none" stroke="#9a32cd" stroke-dasharray="5,2" d="M236.603,-71.4489C241.091,-70.6158 244,-69.1328 244,-67 244,-63.5 236.167,-61.75 226.375,-61.75"/>
<polygon fill="#9a32cd" stroke="#9a32cd" points="236.071,-67.9798 226.375,-72.25 236.618,-74.9584 236.071,-67.9798"/>
<text text-anchor="middle" x="266" y="-64.5" font-family="Helvetica,sans-Serif" font-size="10.00"> m_parent</text>
</g>
</g>
</svg>
