<?xml version="1.0" encoding="UTF-8" standalone="no"?>
<!DOCTYPE svg PUBLIC "-//W3C//DTD SVG 1.1//EN"
 "http://www.w3.org/Graphics/SVG/1.1/DTD/svg11.dtd">
<!-- Generated by graphviz version 2.38.0 (20140413.2041)
 -->
<!-- Title: ModuleContext::Private::Cachable Pages: 1 -->
<svg width="130pt" height="173pt"
 viewBox="0.00 0.00 130.00 173.00" xmlns="http://www.w3.org/2000/svg" xmlns:xlink="http://www.w3.org/1999/xlink">
<g id="graph0" class="graph" transform="scale(1 1) rotate(0) translate(4 169)">
<title>ModuleContext::Private::Cachable</title>
<polygon fill="white" stroke="none" points="-4,4 -4,-169 126,-169 126,4 -4,4"/>
<!-- Node0 -->
<g id="node1" class="node"><title>Node0</title>
<polygon fill="#bfbfbf" stroke="black" points="1.5,-0.5 1.5,-30.5 120.5,-30.5 120.5,-0.5 1.5,-0.5"/>
<text text-anchor="start" x="9.5" y="-18.5" font-family="Helvetica,sans-Serif" font-size="10.00">ModuleContext::Private</text>
<text text-anchor="middle" x="61" y="-7.5" font-family="Helvetica,sans-Serif" font-size="10.00">::Cachable</text>
</g>
<!-- Node1 -->
<g id="node2" class="node"><title>Node1</title>
<g id="a_node2"><a xlink:href="../../d9/d7b/struct_definition_context_1_1_cachable.html" target="_top" xlink:title="DefinitionContext\&lt;\l ModuleContext::Private\l \&gt;::Cachable">
<polygon fill="white" stroke="black" points="0,-67.5 0,-108.5 122,-108.5 122,-67.5 0,-67.5"/>
<text text-anchor="start" x="8" y="-96.5" font-family="Helvetica,sans-Serif" font-size="10.00">DefinitionContext&lt;</text>
<text text-anchor="start" x="8" y="-85.5" font-family="Helvetica,sans-Serif" font-size="10.00"> ModuleContext::Private</text>
<text text-anchor="middle" x="61" y="-74.5" font-family="Helvetica,sans-Serif" font-size="10.00"> &gt;::Cachable</text>
</a>
</g>
</g>
<!-- Node1&#45;&gt;Node0 -->
<g id="edge1" class="edge"><title>Node1&#45;&gt;Node0</title>
<path fill="none" stroke="midnightblue" d="M61,-57.08C61,-48.0061 61,-38.4498 61,-30.8916"/>
<polygon fill="midnightblue" stroke="midnightblue" points="57.5001,-57.3618 61,-67.3618 64.5001,-57.3619 57.5001,-57.3618"/>
</g>
<!-- Node2 -->
<g id="node3" class="node"><title>Node2</title>
<g id="a_node3"><a xlink:href="../../d1/d2f/struct_definition_1_1_cookie.html" target="_top" xlink:title="Definition::Cookie">
<polygon fill="white" stroke="black" points="13.5,-145.5 13.5,-164.5 108.5,-164.5 108.5,-145.5 13.5,-145.5"/>
<text text-anchor="middle" x="61" y="-152.5" font-family="Helvetica,sans-Serif" font-size="10.00">Definition::Cookie</text>
</a>
</g>
</g>
<!-- Node2&#45;&gt;Node1 -->
<g id="edge2" class="edge"><title>Node2&#45;&gt;Node1</title>
<path fill="none" stroke="midnightblue" d="M61,-135.037C61,-126.708 61,-116.936 61,-108.542"/>
<polygon fill="midnightblue" stroke="midnightblue" points="57.5001,-135.234 61,-145.234 64.5001,-135.234 57.5001,-135.234"/>
</g>
</g>
</svg>
