<?xml version="1.0" encoding="UTF-8" standalone="no"?>
<!DOCTYPE svg PUBLIC "-//W3C//DTD SVG 1.1//EN"
 "http://www.w3.org/Graphics/SVG/1.1/DTD/svg11.dtd">
<!-- Generated by graphviz version 2.38.0 (20140413.2041)
 -->
<!-- Title: TemplateList Pages: 1 -->
<svg width="224pt" height="95pt"
 viewBox="0.00 0.00 223.50 95.00" xmlns="http://www.w3.org/2000/svg" xmlns:xlink="http://www.w3.org/1999/xlink">
<g id="graph0" class="graph" transform="scale(1 1) rotate(0) translate(4 91)">
<title>TemplateList</title>
<polygon fill="white" stroke="none" points="-4,4 -4,-91 219.5,-91 219.5,4 -4,4"/>
<!-- Node2 -->
<g id="node1" class="node"><title>Node2</title>
<polygon fill="#bfbfbf" stroke="black" points="65,-0.5 65,-19.5 138,-19.5 138,-0.5 65,-0.5"/>
<text text-anchor="middle" x="101.5" y="-7.5" font-family="Helvetica,sans-Serif" font-size="10.00">TemplateList</text>
</g>
<!-- Node3 -->
<g id="node2" class="node"><title>Node3</title>
<g id="a_node2"><a xlink:href="../../d6/d88/class_template_list_intf.html" target="_top" xlink:title="Abstract read&#45;only interface for a context value of type list. ">
<polygon fill="white" stroke="black" points="0,-67.5 0,-86.5 87,-86.5 87,-67.5 0,-67.5"/>
<text text-anchor="middle" x="43.5" y="-74.5" font-family="Helvetica,sans-Serif" font-size="10.00">TemplateListIntf</text>
</a>
</g>
</g>
<!-- Node3&#45;&gt;Node2 -->
<g id="edge1" class="edge"><title>Node3&#45;&gt;Node2</title>
<path fill="none" stroke="midnightblue" d="M58.1028,-59.6348C69.4458,-46.9228 84.7266,-29.7978 93.8018,-19.6273"/>
<polygon fill="midnightblue" stroke="midnightblue" points="55.3685,-57.4421 51.3221,-67.2338 60.5916,-62.1026 55.3685,-57.4421"/>
</g>
<!-- Node4 -->
<g id="node3" class="node"><title>Node4</title>
<g id="a_node3"><a xlink:href="../../d5/dee/class_template_list_1_1_private.html" target="_top" xlink:title="Private data of a template list object. ">
<polygon fill="white" stroke="black" points="105.5,-67.5 105.5,-86.5 215.5,-86.5 215.5,-67.5 105.5,-67.5"/>
<text text-anchor="middle" x="160.5" y="-74.5" font-family="Helvetica,sans-Serif" font-size="10.00">TemplateList::Private</text>
</a>
</g>
</g>
<!-- Node4&#45;&gt;Node2 -->
<g id="edge2" class="edge"><title>Node4&#45;&gt;Node2</title>
<path fill="none" stroke="#9a32cd" stroke-dasharray="5,2" d="M145.645,-59.6348C134.107,-46.9228 118.563,-29.7978 109.331,-19.6273"/>
<polygon fill="#9a32cd" stroke="#9a32cd" points="143.23,-62.1816 152.543,-67.2338 148.414,-57.4769 143.23,-62.1816"/>
<text text-anchor="middle" x="140" y="-41" font-family="Helvetica,sans-Serif" font-size="10.00"> p</text>
</g>
</g>
</svg>
