<?xml version="1.0" encoding="UTF-8" standalone="no"?>
<!DOCTYPE svg PUBLIC "-//W3C//DTD SVG 1.1//EN"
 "http://www.w3.org/Graphics/SVG/1.1/DTD/svg11.dtd">
<!-- Generated by graphviz version 2.38.0 (20140413.2041)
 -->
<!-- Title: InheritedMemberInfoListContext Pages: 1 -->
<svg width="324pt" height="220pt"
 viewBox="0.00 0.00 324.00 220.00" xmlns="http://www.w3.org/2000/svg" xmlns:xlink="http://www.w3.org/1999/xlink">
<g id="graph0" class="graph" transform="scale(1 1) rotate(0) translate(4 216)">
<title>InheritedMemberInfoListContext</title>
<polygon fill="white" stroke="none" points="-4,4 -4,-216 320,-216 320,4 -4,4"/>
<!-- Node3 -->
<g id="node1" class="node"><title>Node3</title>
<polygon fill="#bfbfbf" stroke="black" points="54,-0.5 54,-19.5 210,-19.5 210,-0.5 54,-0.5"/>
<text text-anchor="middle" x="132" y="-7.5" font-family="Helvetica,sans-Serif" font-size="10.00">InheritedMemberInfoListContext</text>
</g>
<!-- Node4 -->
<g id="node2" class="node"><title>Node4</title>
<g id="a_node2"><a xlink:href="../../d8/d96/class_ref_counted_context.html" target="_top" xlink:title="Helper class to support reference counting. ">
<polygon fill="white" stroke="black" points="0,-73 0,-92 104,-92 104,-73 0,-73"/>
<text text-anchor="middle" x="52" y="-80" font-family="Helvetica,sans-Serif" font-size="10.00">RefCountedContext</text>
</a>
</g>
</g>
<!-- Node4&#45;&gt;Node3 -->
<g id="edge1" class="edge"><title>Node4&#45;&gt;Node3</title>
<path fill="none" stroke="midnightblue" d="M69.4922,-66.085C85.6228,-51.8699 108.993,-31.2747 122.11,-19.7154"/>
<polygon fill="midnightblue" stroke="midnightblue" points="66.998,-63.6178 61.8096,-72.8553 71.6261,-68.8696 66.998,-63.6178"/>
</g>
<!-- Node5 -->
<g id="node3" class="node"><title>Node5</title>
<g id="a_node3"><a xlink:href="../../d6/d88/class_template_list_intf.html" target="_top" xlink:title="Abstract read&#45;only interface for a context value of type list. ">
<polygon fill="white" stroke="black" points="117.5,-192.5 117.5,-211.5 204.5,-211.5 204.5,-192.5 117.5,-192.5"/>
<text text-anchor="middle" x="161" y="-199.5" font-family="Helvetica,sans-Serif" font-size="10.00">TemplateListIntf</text>
</a>
</g>
</g>
<!-- Node5&#45;&gt;Node3 -->
<g id="edge2" class="edge"><title>Node5&#45;&gt;Node3</title>
<path fill="none" stroke="midnightblue" d="M158.146,-182.304C152.008,-142.085 137.747,-48.6544 133.329,-19.7085"/>
<polygon fill="midnightblue" stroke="midnightblue" points="154.71,-182.985 159.679,-192.342 161.63,-181.929 154.71,-182.985"/>
</g>
<!-- Node7 -->
<g id="node5" class="node"><title>Node7</title>
<g id="a_node5"><a xlink:href="../../d6/dcb/class_generic_node_list_context.html" target="_top" xlink:title="standard template list implementation ">
<polygon fill="white" stroke="black" points="164,-135.5 164,-154.5 288,-154.5 288,-135.5 164,-135.5"/>
<text text-anchor="middle" x="226" y="-142.5" font-family="Helvetica,sans-Serif" font-size="10.00">GenericNodeListContext</text>
</a>
</g>
</g>
<!-- Node5&#45;&gt;Node7 -->
<g id="edge5" class="edge"><title>Node5&#45;&gt;Node7</title>
<path fill="none" stroke="midnightblue" d="M179.072,-185.708C190.882,-175.715 205.881,-163.024 215.701,-154.715"/>
<polygon fill="midnightblue" stroke="midnightblue" points="176.529,-183.275 171.156,-192.406 181.051,-188.619 176.529,-183.275"/>
</g>
<!-- Node6 -->
<g id="node4" class="node"><title>Node6</title>
<g id="a_node4"><a xlink:href="../../d0/de8/class_inherited_member_info_list_context_1_1_private.html" target="_top" xlink:title="InheritedMemberInfoListContext\l::Private">
<polygon fill="white" stroke="black" points="160,-67.5 160,-97.5 316,-97.5 316,-67.5 160,-67.5"/>
<text text-anchor="start" x="168" y="-85.5" font-family="Helvetica,sans-Serif" font-size="10.00">InheritedMemberInfoListContext</text>
<text text-anchor="middle" x="238" y="-74.5" font-family="Helvetica,sans-Serif" font-size="10.00">::Private</text>
</a>
</g>
</g>
<!-- Node6&#45;&gt;Node3 -->
<g id="edge3" class="edge"><title>Node6&#45;&gt;Node3</title>
<path fill="none" stroke="#9a32cd" stroke-dasharray="5,2" d="M208.269,-61.7261C187.376,-47.8305 160.465,-29.9316 144.831,-19.5336"/>
<polygon fill="#9a32cd" stroke="#9a32cd" points="206.539,-64.779 216.804,-67.4027 210.416,-58.9504 206.539,-64.779"/>
<text text-anchor="middle" x="193.5" y="-41" font-family="Helvetica,sans-Serif" font-size="10.00"> p</text>
</g>
<!-- Node7&#45;&gt;Node6 -->
<g id="edge4" class="edge"><title>Node7&#45;&gt;Node6</title>
<path fill="none" stroke="midnightblue" d="M229.667,-125.51C231.437,-116.588 233.528,-106.049 235.172,-97.7587"/>
<polygon fill="midnightblue" stroke="midnightblue" points="226.232,-124.842 227.719,-135.332 233.098,-126.204 226.232,-124.842"/>
</g>
</g>
</svg>
