<?xml version="1.0" encoding="UTF-8" standalone="no"?>
<!DOCTYPE svg PUBLIC "-//W3C//DTD SVG 1.1//EN"
 "http://www.w3.org/Graphics/SVG/1.1/DTD/svg11.dtd">
<!-- Generated by graphviz version 2.38.0 (20140413.2041)
 -->
<!-- Title: PageSDict Pages: 1 -->
<svg width="355pt" height="162pt"
 viewBox="0.00 0.00 355.00 162.00" xmlns="http://www.w3.org/2000/svg" xmlns:xlink="http://www.w3.org/1999/xlink">
<g id="graph0" class="graph" transform="scale(1 1) rotate(0) translate(4 158)">
<title>PageSDict</title>
<polygon fill="white" stroke="none" points="-4,4 -4,-158 351,-158 351,4 -4,4"/>
<!-- Node3 -->
<g id="node1" class="node"><title>Node3</title>
<polygon fill="#bfbfbf" stroke="black" points="283,-0.5 283,-19.5 347,-19.5 347,-0.5 283,-0.5"/>
<text text-anchor="middle" x="315" y="-7.5" font-family="Helvetica,sans-Serif" font-size="10.00">PageSDict</text>
</g>
<!-- Node4 -->
<g id="node2" class="node"><title>Node4</title>
<g id="a_node2"><a xlink:href="../../d1/d50/class_s_dict.html" target="_top" xlink:title="SDict\&lt; PageDef \&gt;">
<polygon fill="white" stroke="black" points="221,-67.5 221,-86.5 319,-86.5 319,-67.5 221,-67.5"/>
<text text-anchor="middle" x="270" y="-74.5" font-family="Helvetica,sans-Serif" font-size="10.00">SDict&lt; PageDef &gt;</text>
</a>
</g>
</g>
<!-- Node4&#45;&gt;Node3 -->
<g id="edge1" class="edge"><title>Node4&#45;&gt;Node3</title>
<path fill="none" stroke="midnightblue" d="M290.432,-60.8271C294.31,-57.2657 298.065,-53.2563 301,-49 307.226,-39.9703 311.063,-27.8347 313.11,-19.7316"/>
<polygon fill="midnightblue" stroke="midnightblue" points="287.949,-58.3415 282.527,-67.4437 292.441,-63.7094 287.949,-58.3415"/>
</g>
<!-- Node5 -->
<g id="node3" class="node"><title>Node5</title>
<g id="a_node3"><a xlink:href="../../df/dce/class_s_list.html" target="_top" xlink:title="SList\&lt; PageDef \&gt;">
<polygon fill="white" stroke="black" points="114.5,-0.5 114.5,-19.5 209.5,-19.5 209.5,-0.5 114.5,-0.5"/>
<text text-anchor="middle" x="162" y="-7.5" font-family="Helvetica,sans-Serif" font-size="10.00">SList&lt; PageDef &gt;</text>
</a>
</g>
</g>
<!-- Node4&#45;&gt;Node5 -->
<g id="edge4" class="edge"><title>Node4&#45;&gt;Node5</title>
<path fill="none" stroke="#9a32cd" stroke-dasharray="5,2" d="M231.025,-63.8667C220.852,-59.8777 210.176,-54.9165 201,-49 188.288,-40.8034 176.232,-28.0088 168.977,-19.5655"/>
<polygon fill="#9a32cd" stroke="#9a32cd" points="229.965,-67.2065 240.559,-67.3928 232.394,-60.6412 229.965,-67.2065"/>
<text text-anchor="middle" x="222.5" y="-41" font-family="Helvetica,sans-Serif" font-size="10.00"> m_owner</text>
</g>
<!-- Node5&#45;&gt;Node4 -->
<g id="edge2" class="edge"><title>Node5&#45;&gt;Node4</title>
<path fill="none" stroke="#9a32cd" stroke-dasharray="5,2" d="M219.489,-22.5028C229.672,-26.2969 239.668,-31.3295 248,-38 257.521,-45.6228 263.735,-58.5609 267.056,-67.1924"/>
<polygon fill="#9a32cd" stroke="#9a32cd" points="220.311,-19.0872 209.717,-19.2317 218.089,-25.7252 220.311,-19.0872"/>
<text text-anchor="middle" x="273" y="-41" font-family="Helvetica,sans-Serif" font-size="10.00"> m_list</text>
</g>
<!-- Node6 -->
<g id="node4" class="node"><title>Node6</title>
<polygon fill="white" stroke="#bfbfbf" points="0,-67.5 0,-86.5 96,-86.5 96,-67.5 0,-67.5"/>
<text text-anchor="middle" x="48" y="-74.5" font-family="Helvetica,sans-Serif" font-size="10.00">QList&lt; PageDef &gt;</text>
</g>
<!-- Node6&#45;&gt;Node5 -->
<g id="edge3" class="edge"><title>Node6&#45;&gt;Node5</title>
<path fill="none" stroke="midnightblue" d="M72.3521,-62.1151C94.9382,-49.237 127.842,-30.4758 146.869,-19.6273"/>
<polygon fill="midnightblue" stroke="midnightblue" points="70.328,-59.2401 63.3745,-67.2338 73.7953,-65.3211 70.328,-59.2401"/>
</g>
<!-- Node7 -->
<g id="node5" class="node"><title>Node7</title>
<g id="a_node5"><a xlink:href="../../df/dce/class_s_list.html" target="_top" xlink:title="internal wrapper class that redirects compareValues() to the dictionary ">
<polygon fill="white" stroke="black" points="114.5,-67.5 114.5,-86.5 177.5,-86.5 177.5,-67.5 114.5,-67.5"/>
<text text-anchor="middle" x="146" y="-74.5" font-family="Helvetica,sans-Serif" font-size="10.00">SList&lt; T &gt;</text>
</a>
</g>
</g>
<!-- Node7&#45;&gt;Node5 -->
<g id="edge5" class="edge"><title>Node7&#45;&gt;Node5</title>
<path fill="none" stroke="orange" stroke-dasharray="5,2" d="M127.438,-60.2758C121.784,-53.5508 117.999,-45.5275 122,-38 126.247,-30.0098 134.029,-23.9559 141.609,-19.6266"/>
<polygon fill="orange" stroke="orange" points="125.049,-62.8375 134.579,-67.4665 130.016,-57.9047 125.049,-62.8375"/>
<text text-anchor="middle" x="152" y="-41" font-family="Helvetica,sans-Serif" font-size="10.00"> &lt; PageDef &gt;</text>
</g>
<!-- Node8 -->
<g id="node6" class="node"><title>Node8</title>
<polygon fill="white" stroke="#bfbfbf" points="114,-134.5 114,-153.5 178,-153.5 178,-134.5 114,-134.5"/>
<text text-anchor="middle" x="146" y="-141.5" font-family="Helvetica,sans-Serif" font-size="10.00">QList&lt; T &gt;</text>
</g>
<!-- Node8&#45;&gt;Node7 -->
<g id="edge6" class="edge"><title>Node8&#45;&gt;Node7</title>
<path fill="none" stroke="midnightblue" d="M146,-124.037C146,-111.67 146,-96.1198 146,-86.6273"/>
<polygon fill="midnightblue" stroke="midnightblue" points="142.5,-124.234 146,-134.234 149.5,-124.234 142.5,-124.234"/>
</g>
<!-- Node9 -->
<g id="node7" class="node"><title>Node9</title>
<g id="a_node7"><a xlink:href="../../d1/d50/class_s_dict.html" target="_top" xlink:title="Ordered dictionary of elements of type T. ">
<polygon fill="white" stroke="black" points="237.5,-134.5 237.5,-153.5 302.5,-153.5 302.5,-134.5 237.5,-134.5"/>
<text text-anchor="middle" x="270" y="-141.5" font-family="Helvetica,sans-Serif" font-size="10.00">SDict&lt; T &gt;</text>
</a>
</g>
</g>
<!-- Node9&#45;&gt;Node4 -->
<g id="edge7" class="edge"><title>Node9&#45;&gt;Node4</title>
<path fill="none" stroke="orange" stroke-dasharray="5,2" d="M270,-124.037C270,-111.67 270,-96.1198 270,-86.6273"/>
<polygon fill="orange" stroke="orange" points="266.5,-124.234 270,-134.234 273.5,-124.234 266.5,-124.234"/>
<text text-anchor="middle" x="300" y="-108" font-family="Helvetica,sans-Serif" font-size="10.00"> &lt; PageDef &gt;</text>
</g>
</g>
</svg>
