<?xml version="1.0" encoding="UTF-8" standalone="no"?>
<!DOCTYPE svg PUBLIC "-//W3C//DTD SVG 1.1//EN"
 "http://www.w3.org/Graphics/SVG/1.1/DTD/svg11.dtd">
<!-- Generated by graphviz version 2.38.0 (20140413.2041)
 -->
<!-- Title: DocStyleChange Pages: 1 -->
<svg width="236pt" height="152pt"
 viewBox="0.00 0.00 236.00 152.00" xmlns="http://www.w3.org/2000/svg" xmlns:xlink="http://www.w3.org/1999/xlink">
<g id="graph0" class="graph" transform="scale(1 1) rotate(0) translate(4 148)">
<title>DocStyleChange</title>
<polygon fill="white" stroke="none" points="-4,4 -4,-148 232,-148 232,4 -4,4"/>
<!-- Node2 -->
<g id="node1" class="node"><title>Node2</title>
<polygon fill="#bfbfbf" stroke="black" points="71.5,-0.5 71.5,-19.5 162.5,-19.5 162.5,-0.5 71.5,-0.5"/>
<text text-anchor="middle" x="117" y="-7.5" font-family="Helvetica,sans-Serif" font-size="10.00">DocStyleChange</text>
</g>
<!-- Node3 -->
<g id="node2" class="node"><title>Node3</title>
<g id="a_node2"><a xlink:href="../../d9/d0e/class_doc_node.html" target="_top" xlink:title="Abstract node interface with type information. ">
<polygon fill="white" stroke="black" points="0,-67.5 0,-86.5 58,-86.5 58,-67.5 0,-67.5"/>
<text text-anchor="middle" x="29" y="-74.5" font-family="Helvetica,sans-Serif" font-size="10.00">DocNode</text>
</a>
</g>
</g>
<!-- Node3&#45;&gt;Node2 -->
<g id="edge1" class="edge"><title>Node3&#45;&gt;Node2</title>
<path fill="none" stroke="midnightblue" d="M49.2159,-61.0678C66.586,-48.2376 91.0261,-30.1853 105.32,-19.6273"/>
<polygon fill="midnightblue" stroke="midnightblue" points="46.8323,-58.4771 40.8681,-67.2338 50.9912,-64.1077 46.8323,-58.4771"/>
</g>
<!-- Node3&#45;&gt;Node3 -->
<g id="edge2" class="edge"><title>Node3&#45;&gt;Node3</title>
<path fill="none" stroke="#9a32cd" stroke-dasharray="5,2" d="M68.603,-81.4489C73.0912,-80.6158 76,-79.1328 76,-77 76,-73.5 68.1667,-71.75 58.375,-71.75"/>
<polygon fill="#9a32cd" stroke="#9a32cd" points="68.0711,-77.9798 58.375,-82.25 68.6178,-84.9584 68.0711,-77.9798"/>
<text text-anchor="middle" x="98" y="-74.5" font-family="Helvetica,sans-Serif" font-size="10.00"> m_parent</text>
</g>
<!-- Node4 -->
<g id="node3" class="node"><title>Node4</title>
<g id="a_node3"><a xlink:href="../../db/d4d/class_html_attrib_list.html" target="_top" xlink:title="A list of Html attributes. ">
<polygon fill="white" stroke="black" points="138.5,-67.5 138.5,-86.5 215.5,-86.5 215.5,-67.5 138.5,-67.5"/>
<text text-anchor="middle" x="177" y="-74.5" font-family="Helvetica,sans-Serif" font-size="10.00">HtmlAttribList</text>
</a>
</g>
</g>
<!-- Node4&#45;&gt;Node2 -->
<g id="edge3" class="edge"><title>Node4&#45;&gt;Node2</title>
<path fill="none" stroke="#9a32cd" stroke-dasharray="5,2" d="M161.894,-59.6348C150.159,-46.9228 134.352,-29.7978 124.964,-19.6273"/>
<polygon fill="#9a32cd" stroke="#9a32cd" points="159.553,-62.2597 168.908,-67.2338 164.697,-57.5118 159.553,-62.2597"/>
<text text-anchor="middle" x="172" y="-41" font-family="Helvetica,sans-Serif" font-size="10.00"> m_attribs</text>
</g>
<!-- Node5 -->
<g id="node4" class="node"><title>Node5</title>
<polygon fill="white" stroke="#bfbfbf" points="126,-124.5 126,-143.5 228,-143.5 228,-124.5 126,-124.5"/>
<text text-anchor="middle" x="177" y="-131.5" font-family="Helvetica,sans-Serif" font-size="10.00">QList&lt; HtmlAttrib &gt;</text>
</g>
<!-- Node5&#45;&gt;Node4 -->
<g id="edge4" class="edge"><title>Node5&#45;&gt;Node4</title>
<path fill="none" stroke="midnightblue" d="M177,-114.117C177,-104.817 177,-94.0557 177,-86.7149"/>
<polygon fill="midnightblue" stroke="midnightblue" points="173.5,-114.406 177,-124.406 180.5,-114.406 173.5,-114.406"/>
</g>
</g>
</svg>
