<?xml version="1.0" encoding="UTF-8" standalone="no"?>
<!DOCTYPE svg PUBLIC "-//W3C//DTD SVG 1.1//EN"
 "http://www.w3.org/Graphics/SVG/1.1/DTD/svg11.dtd">
<!-- Generated by graphviz version 2.38.0 (20140413.2041)
 -->
<!-- Title: src/namespacedef.h Pages: 1 -->
<svg width="2588pt" height="84pt"
 viewBox="0.00 0.00 2588.00 84.00" xmlns="http://www.w3.org/2000/svg" xmlns:xlink="http://www.w3.org/1999/xlink">
<g id="graph0" class="graph" transform="scale(1 1) rotate(0) translate(4 80)">
<title>src/namespacedef.h</title>
<polygon fill="white" stroke="none" points="-4,4 -4,-80 2584,-80 2584,4 -4,4"/>
<!-- Node14 -->
<g id="node1" class="node"><title>Node14</title>
<polygon fill="#bfbfbf" stroke="black" points="1187,-56.5 1187,-75.5 1292,-75.5 1292,-56.5 1187,-56.5"/>
<text text-anchor="middle" x="1239.5" y="-63.5" font-family="Helvetica,sans-Serif" font-size="10.00">src/namespacedef.h</text>
</g>
<!-- Node15 -->
<g id="node2" class="node"><title>Node15</title>
<g id="a_node2"><a xlink:href="../../de/d89/classdef_8cpp.html" target="_top" xlink:title="src/classdef.cpp">
<polygon fill="white" stroke="black" points="0,-0.5 0,-19.5 89,-19.5 89,-0.5 0,-0.5"/>
<text text-anchor="middle" x="44.5" y="-7.5" font-family="Helvetica,sans-Serif" font-size="10.00">src/classdef.cpp</text>
</a>
</g>
</g>
<!-- Node14&#45;&gt;Node15 -->
<g id="edge1" class="edge"><title>Node14&#45;&gt;Node15</title>
<path fill="none" stroke="midnightblue" d="M1176.8,-65.3584C1004.16,-65.7351 507.506,-62.7103 97.5,-20 94.808,-19.7196 92.0457,-19.3872 89.2637,-19.0182"/>
<polygon fill="midnightblue" stroke="midnightblue" points="1176.98,-68.858 1186.97,-65.3314 1176.96,-61.8581 1176.98,-68.858"/>
</g>
<!-- Node16 -->
<g id="node3" class="node"><title>Node16</title>
<g id="a_node3"><a xlink:href="../../db/d12/context_8cpp.html" target="_top" xlink:title="src/context.cpp">
<polygon fill="white" stroke="black" points="106.5,-0.5 106.5,-19.5 190.5,-19.5 190.5,-0.5 106.5,-0.5"/>
<text text-anchor="middle" x="148.5" y="-7.5" font-family="Helvetica,sans-Serif" font-size="10.00">src/context.cpp</text>
</a>
</g>
</g>
<!-- Node14&#45;&gt;Node16 -->
<g id="edge2" class="edge"><title>Node14&#45;&gt;Node16</title>
<path fill="none" stroke="midnightblue" d="M1176.55,-65.1513C1014.2,-64.9192 568.226,-60.3351 199.5,-20 196.64,-19.6871 193.698,-19.3119 190.739,-18.8947"/>
<polygon fill="midnightblue" stroke="midnightblue" points="1176.82,-68.6515 1186.83,-65.1606 1176.83,-61.6515 1176.82,-68.6515"/>
</g>
<!-- Node17 -->
<g id="node4" class="node"><title>Node17</title>
<g id="a_node4"><a xlink:href="../../d3/d17/defgen_8cpp.html" target="_top" xlink:title="src/defgen.cpp">
<polygon fill="white" stroke="black" points="209,-0.5 209,-19.5 290,-19.5 290,-0.5 209,-0.5"/>
<text text-anchor="middle" x="249.5" y="-7.5" font-family="Helvetica,sans-Serif" font-size="10.00">src/defgen.cpp</text>
</a>
</g>
</g>
<!-- Node14&#45;&gt;Node17 -->
<g id="edge3" class="edge"><title>Node14&#45;&gt;Node17</title>
<path fill="none" stroke="midnightblue" d="M1176.71,-64.8939C1025.18,-64.008 627.676,-57.9286 298.5,-20 295.75,-19.6832 292.923,-19.305 290.079,-18.8856"/>
<polygon fill="midnightblue" stroke="midnightblue" points="1176.74,-68.394 1186.76,-64.947 1176.78,-61.3941 1176.74,-68.394"/>
</g>
<!-- Node18 -->
<g id="node5" class="node"><title>Node18</title>
<g id="a_node5"><a xlink:href="../../d3/dea/definition_8cpp.html" target="_top" xlink:title="src/definition.cpp">
<polygon fill="white" stroke="black" points="308,-0.5 308,-19.5 399,-19.5 399,-0.5 308,-0.5"/>
<text text-anchor="middle" x="353.5" y="-7.5" font-family="Helvetica,sans-Serif" font-size="10.00">src/definition.cpp</text>
</a>
</g>
</g>
<!-- Node14&#45;&gt;Node18 -->
<g id="edge4" class="edge"><title>Node14&#45;&gt;Node18</title>
<path fill="none" stroke="midnightblue" d="M1176.81,-63.9172C1038,-61.0138 694.368,-51.0374 408.5,-20 405.422,-19.6658 402.254,-19.2745 399.067,-18.8457"/>
<polygon fill="midnightblue" stroke="midnightblue" points="1176.77,-67.4171 1186.84,-64.1221 1176.91,-60.4186 1176.77,-67.4171"/>
</g>
<!-- Node19 -->
<g id="node6" class="node"><title>Node19</title>
<g id="a_node6"><a xlink:href="../../d8/d29/docbookgen_8cpp.html" target="_top" xlink:title="src/docbookgen.cpp">
<polygon fill="white" stroke="black" points="417.5,-0.5 417.5,-19.5 521.5,-19.5 521.5,-0.5 417.5,-0.5"/>
<text text-anchor="middle" x="469.5" y="-7.5" font-family="Helvetica,sans-Serif" font-size="10.00">src/docbookgen.cpp</text>
</a>
</g>
</g>
<!-- Node14&#45;&gt;Node19 -->
<g id="edge5" class="edge"><title>Node14&#45;&gt;Node19</title>
<path fill="none" stroke="midnightblue" d="M1176.84,-62.7735C1053.06,-57.9881 768.515,-45.068 530.5,-20 527.626,-19.6973 524.679,-19.3583 521.707,-18.994"/>
<polygon fill="midnightblue" stroke="midnightblue" points="1176.77,-66.2732 1186.9,-63.1579 1177.04,-59.2783 1176.77,-66.2732"/>
</g>
<!-- Node20 -->
<g id="node7" class="node"><title>Node20</title>
<g id="a_node7"><a xlink:href="../../da/d17/docparser_8cpp.html" target="_top" xlink:title="src/docparser.cpp">
<polygon fill="white" stroke="black" points="540,-0.5 540,-19.5 635,-19.5 635,-0.5 540,-0.5"/>
<text text-anchor="middle" x="587.5" y="-7.5" font-family="Helvetica,sans-Serif" font-size="10.00">src/docparser.cpp</text>
</a>
</g>
</g>
<!-- Node14&#45;&gt;Node20 -->
<g id="edge6" class="edge"><title>Node14&#45;&gt;Node20</title>
<path fill="none" stroke="midnightblue" d="M1176.7,-61.929C1068,-56.2392 837.882,-42.5421 644.5,-20 641.415,-19.6404 638.242,-19.2359 635.046,-18.8027"/>
<polygon fill="midnightblue" stroke="midnightblue" points="1176.66,-65.4319 1186.83,-62.4547 1177.03,-58.4413 1176.66,-65.4319"/>
</g>
<!-- Node21 -->
<g id="node8" class="node"><title>Node21</title>
<g id="a_node8"><a xlink:href="../../d7/d8f/docsets_8cpp.html" target="_top" xlink:title="src/docsets.cpp">
<polygon fill="white" stroke="black" points="653.5,-0.5 653.5,-19.5 739.5,-19.5 739.5,-0.5 653.5,-0.5"/>
<text text-anchor="middle" x="696.5" y="-7.5" font-family="Helvetica,sans-Serif" font-size="10.00">src/docsets.cpp</text>
</a>
</g>
</g>
<!-- Node14&#45;&gt;Node21 -->
<g id="edge7" class="edge"><title>Node14&#45;&gt;Node21</title>
<path fill="none" stroke="midnightblue" d="M1176.52,-60.8467C1082.91,-54.3082 901.663,-40.2402 748.5,-20 745.593,-19.6159 742.601,-19.1872 739.59,-18.7311"/>
<polygon fill="midnightblue" stroke="midnightblue" points="1176.45,-64.3504 1186.67,-61.5502 1176.93,-57.3671 1176.45,-64.3504"/>
</g>
<!-- Node22 -->
<g id="node9" class="node"><title>Node22</title>
<g id="a_node9"><a xlink:href="../../de/daa/dot_8cpp.html" target="_top" xlink:title="src/dot.cpp">
<polygon fill="white" stroke="black" points="758,-0.5 758,-19.5 823,-19.5 823,-0.5 758,-0.5"/>
<text text-anchor="middle" x="790.5" y="-7.5" font-family="Helvetica,sans-Serif" font-size="10.00">src/dot.cpp</text>
</a>
</g>
</g>
<!-- Node14&#45;&gt;Node22 -->
<g id="edge8" class="edge"><title>Node14&#45;&gt;Node22</title>
<path fill="none" stroke="midnightblue" d="M1176.32,-60.1269C1095.89,-53.4436 952.803,-39.9454 831.5,-20 828.767,-19.5507 825.943,-19.0365 823.113,-18.4865"/>
<polygon fill="midnightblue" stroke="midnightblue" points="1176.51,-63.6546 1186.77,-60.9859 1177.09,-56.6781 1176.51,-63.6546"/>
</g>
<!-- Node23 -->
<g id="node10" class="node"><title>Node23</title>
<g id="a_node10"><a xlink:href="../../dc/d98/doxygen_8cpp.html" target="_top" xlink:title="src/doxygen.cpp">
<polygon fill="white" stroke="black" points="841,-0.5 841,-19.5 930,-19.5 930,-0.5 841,-0.5"/>
<text text-anchor="middle" x="885.5" y="-7.5" font-family="Helvetica,sans-Serif" font-size="10.00">src/doxygen.cpp</text>
</a>
</g>
</g>
<!-- Node14&#45;&gt;Node23 -->
<g id="edge9" class="edge"><title>Node14&#45;&gt;Node23</title>
<path fill="none" stroke="midnightblue" d="M1176.7,-55.8837C1115.97,-46.996 1021.37,-32.9624 939.5,-20 936.496,-19.5244 933.399,-19.0271 930.28,-18.5209"/>
<polygon fill="midnightblue" stroke="midnightblue" points="1176.49,-59.39 1186.89,-57.3733 1177.5,-52.4636 1176.49,-59.39"/>
</g>
<!-- Node24 -->
<g id="node11" class="node"><title>Node24</title>
<g id="a_node11"><a xlink:href="../../d6/ddc/filedef_8cpp.html" target="_top" xlink:title="src/filedef.cpp">
<polygon fill="white" stroke="black" points="948.5,-0.5 948.5,-19.5 1026.5,-19.5 1026.5,-0.5 948.5,-0.5"/>
<text text-anchor="middle" x="987.5" y="-7.5" font-family="Helvetica,sans-Serif" font-size="10.00">src/filedef.cpp</text>
</a>
</g>
</g>
<!-- Node14&#45;&gt;Node24 -->
<g id="edge10" class="edge"><title>Node14&#45;&gt;Node24</title>
<path fill="none" stroke="midnightblue" d="M1189.75,-54.3392C1141.98,-44.102 1070.76,-28.8422 1026.83,-19.4275"/>
<polygon fill="midnightblue" stroke="midnightblue" points="1189.06,-57.7705 1199.57,-56.4435 1190.53,-50.9259 1189.06,-57.7705"/>
</g>
<!-- Node25 -->
<g id="node12" class="node"><title>Node25</title>
<g id="a_node12"><a xlink:href="../../d6/d42/groupdef_8cpp.html" target="_top" xlink:title="src/groupdef.cpp">
<polygon fill="white" stroke="black" points="1045,-0.5 1045,-19.5 1134,-19.5 1134,-0.5 1045,-0.5"/>
<text text-anchor="middle" x="1089.5" y="-7.5" font-family="Helvetica,sans-Serif" font-size="10.00">src/groupdef.cpp</text>
</a>
</g>
</g>
<!-- Node14&#45;&gt;Node25 -->
<g id="edge11" class="edge"><title>Node14&#45;&gt;Node25</title>
<path fill="none" stroke="midnightblue" d="M1206.28,-53.0392C1178.05,-42.8786 1138.24,-28.5457 1113.16,-19.5164"/>
<polygon fill="midnightblue" stroke="midnightblue" points="1205.14,-56.3494 1215.73,-56.4435 1207.51,-49.7632 1205.14,-56.3494"/>
</g>
<!-- Node26 -->
<g id="node13" class="node"><title>Node26</title>
<g id="a_node13"><a xlink:href="../../db/d14/index_8cpp.html" target="_top" xlink:title="This file contains functions for the various index pages. ">
<polygon fill="white" stroke="black" points="1152,-0.5 1152,-19.5 1227,-19.5 1227,-0.5 1152,-0.5"/>
<text text-anchor="middle" x="1189.5" y="-7.5" font-family="Helvetica,sans-Serif" font-size="10.00">src/index.cpp</text>
</a>
</g>
</g>
<!-- Node14&#45;&gt;Node26 -->
<g id="edge12" class="edge"><title>Node14&#45;&gt;Node26</title>
<path fill="none" stroke="midnightblue" d="M1224.42,-48.7175C1215.61,-39.1997 1204.83,-27.5608 1197.6,-19.7511"/>
<polygon fill="midnightblue" stroke="midnightblue" points="1221.88,-51.1233 1231.24,-56.083 1227.02,-46.3674 1221.88,-51.1233"/>
</g>
<!-- Node27 -->
<g id="node14" class="node"><title>Node27</title>
<g id="a_node14"><a xlink:href="../../d4/d42/latexgen_8cpp.html" target="_top" xlink:title="src/latexgen.cpp">
<polygon fill="white" stroke="black" points="1245,-0.5 1245,-19.5 1334,-19.5 1334,-0.5 1245,-0.5"/>
<text text-anchor="middle" x="1289.5" y="-7.5" font-family="Helvetica,sans-Serif" font-size="10.00">src/latexgen.cpp</text>
</a>
</g>
</g>
<!-- Node14&#45;&gt;Node27 -->
<g id="edge13" class="edge"><title>Node14&#45;&gt;Node27</title>
<path fill="none" stroke="midnightblue" d="M1254.58,-48.7175C1263.39,-39.1997 1274.17,-27.5608 1281.4,-19.7511"/>
<polygon fill="midnightblue" stroke="midnightblue" points="1251.98,-46.3674 1247.76,-56.083 1257.12,-51.1233 1251.98,-46.3674"/>
</g>
<!-- Node28 -->
<g id="node15" class="node"><title>Node28</title>
<g id="a_node15"><a xlink:href="../../d0/d72/memberdef_8cpp.html" target="_top" xlink:title="src/memberdef.cpp">
<polygon fill="white" stroke="black" points="1352,-0.5 1352,-19.5 1453,-19.5 1453,-0.5 1352,-0.5"/>
<text text-anchor="middle" x="1402.5" y="-7.5" font-family="Helvetica,sans-Serif" font-size="10.00">src/memberdef.cpp</text>
</a>
</g>
</g>
<!-- Node14&#45;&gt;Node28 -->
<g id="edge14" class="edge"><title>Node14&#45;&gt;Node28</title>
<path fill="none" stroke="midnightblue" d="M1275.2,-53.172C1305.9,-43.0039 1349.42,-28.5852 1376.79,-19.5164"/>
<polygon fill="midnightblue" stroke="midnightblue" points="1273.72,-49.9762 1265.33,-56.4435 1275.92,-56.6211 1273.72,-49.9762"/>
</g>
<!-- Node29 -->
<g id="node16" class="node"><title>Node29</title>
<g id="a_node16"><a xlink:href="../../d6/d18/membergroup_8cpp.html" target="_top" xlink:title="src/membergroup.cpp">
<polygon fill="white" stroke="black" points="1471,-0.5 1471,-19.5 1582,-19.5 1582,-0.5 1471,-0.5"/>
<text text-anchor="middle" x="1526.5" y="-7.5" font-family="Helvetica,sans-Serif" font-size="10.00">src/membergroup.cpp</text>
</a>
</g>
</g>
<!-- Node14&#45;&gt;Node29 -->
<g id="edge15" class="edge"><title>Node14&#45;&gt;Node29</title>
<path fill="none" stroke="midnightblue" d="M1295.11,-54.5371C1349.35,-44.3316 1430.84,-28.9992 1481.24,-19.5164"/>
<polygon fill="midnightblue" stroke="midnightblue" points="1294.16,-51.1547 1284.98,-56.4435 1295.45,-58.034 1294.16,-51.1547"/>
</g>
<!-- Node30 -->
<g id="node17" class="node"><title>Node30</title>
<g id="a_node17"><a xlink:href="../../d0/d14/memberlist_8cpp.html" target="_top" xlink:title="src/memberlist.cpp">
<polygon fill="white" stroke="black" points="1600.5,-0.5 1600.5,-19.5 1700.5,-19.5 1700.5,-0.5 1600.5,-0.5"/>
<text text-anchor="middle" x="1650.5" y="-7.5" font-family="Helvetica,sans-Serif" font-size="10.00">src/memberlist.cpp</text>
</a>
</g>
</g>
<!-- Node14&#45;&gt;Node30 -->
<g id="edge16" class="edge"><title>Node14&#45;&gt;Node30</title>
<path fill="none" stroke="midnightblue" d="M1302.07,-57.4648C1372.5,-48.8754 1490.32,-34.1831 1591.5,-20 1594.37,-19.5973 1597.32,-19.175 1600.3,-18.7422"/>
<polygon fill="midnightblue" stroke="midnightblue" points="1301.54,-54.0042 1292.03,-58.687 1302.38,-60.9529 1301.54,-54.0042"/>
</g>
<!-- Node31 -->
<g id="node18" class="node"><title>Node31</title>
<g id="a_node18"><a xlink:href="../../d7/d1c/namespacedef_8cpp.html" target="_top" xlink:title="src/namespacedef.cpp">
<polygon fill="white" stroke="black" points="1718.5,-0.5 1718.5,-19.5 1834.5,-19.5 1834.5,-0.5 1718.5,-0.5"/>
<text text-anchor="middle" x="1776.5" y="-7.5" font-family="Helvetica,sans-Serif" font-size="10.00">src/namespacedef.cpp</text>
</a>
</g>
</g>
<!-- Node14&#45;&gt;Node31 -->
<g id="edge17" class="edge"><title>Node14&#45;&gt;Node31</title>
<path fill="none" stroke="midnightblue" d="M1302.14,-59.7666C1392.3,-52.0599 1563.85,-36.7489 1709.5,-20 1712.41,-19.6648 1715.4,-19.3092 1718.41,-18.9405"/>
<polygon fill="midnightblue" stroke="midnightblue" points="1301.75,-56.287 1292.08,-60.6234 1302.34,-63.2617 1301.75,-56.287"/>
</g>
<!-- Node32 -->
<g id="node19" class="node"><title>Node32</title>
<g id="a_node19"><a xlink:href="../../d9/db4/pagedef_8cpp.html" target="_top" xlink:title="src/pagedef.cpp">
<polygon fill="white" stroke="black" points="1852.5,-0.5 1852.5,-19.5 1938.5,-19.5 1938.5,-0.5 1852.5,-0.5"/>
<text text-anchor="middle" x="1895.5" y="-7.5" font-family="Helvetica,sans-Serif" font-size="10.00">src/pagedef.cpp</text>
</a>
</g>
</g>
<!-- Node14&#45;&gt;Node32 -->
<g id="edge18" class="edge"><title>Node14&#45;&gt;Node32</title>
<path fill="none" stroke="midnightblue" d="M1302.44,-62.3247C1412.48,-57.1984 1646.86,-44.2834 1843.5,-20 1846.41,-19.6407 1849.4,-19.2305 1852.42,-18.7879"/>
<polygon fill="midnightblue" stroke="midnightblue" points="1302.01,-58.8406 1292.18,-62.7966 1302.33,-65.8332 1302.01,-58.8406"/>
</g>
<!-- Node33 -->
<g id="node20" class="node"><title>Node33</title>
<g id="a_node20"><a xlink:href="../../de/dd0/perlmodgen_8cpp.html" target="_top" xlink:title="src/perlmodgen.cpp">
<polygon fill="white" stroke="black" points="1956.5,-0.5 1956.5,-19.5 2058.5,-19.5 2058.5,-0.5 1956.5,-0.5"/>
<text text-anchor="middle" x="2007.5" y="-7.5" font-family="Helvetica,sans-Serif" font-size="10.00">src/perlmodgen.cpp</text>
</a>
</g>
</g>
<!-- Node14&#45;&gt;Node33 -->
<g id="edge19" class="edge"><title>Node14&#45;&gt;Node33</title>
<path fill="none" stroke="midnightblue" d="M1302.07,-62.8194C1425.69,-58.1145 1709.85,-45.3293 1947.5,-20 1950.43,-19.6874 1953.44,-19.3356 1956.48,-18.9567"/>
<polygon fill="midnightblue" stroke="midnightblue" points="1301.89,-59.3236 1292.03,-63.1971 1302.16,-66.3186 1301.89,-59.3236"/>
</g>
<!-- Node34 -->
<g id="node21" class="node"><title>Node34</title>
<g id="a_node21"><a xlink:href="../../d0/d9c/rtfgen_8cpp.html" target="_top" xlink:title="src/rtfgen.cpp">
<polygon fill="white" stroke="black" points="2077,-0.5 2077,-19.5 2154,-19.5 2154,-0.5 2077,-0.5"/>
<text text-anchor="middle" x="2115.5" y="-7.5" font-family="Helvetica,sans-Serif" font-size="10.00">src/rtfgen.cpp</text>
</a>
</g>
</g>
<!-- Node14&#45;&gt;Node34 -->
<g id="edge20" class="edge"><title>Node14&#45;&gt;Node34</title>
<path fill="none" stroke="midnightblue" d="M1302.02,-64.3944C1440.44,-62.4431 1783.04,-54.2482 2067.5,-20 2070.53,-19.6351 2073.66,-19.1949 2076.79,-18.7078"/>
<polygon fill="midnightblue" stroke="midnightblue" points="1301.97,-60.8947 1292.02,-64.5295 1302.07,-67.8941 1301.97,-60.8947"/>
</g>
<!-- Node35 -->
<g id="node22" class="node"><title>Node35</title>
<g id="a_node22"><a xlink:href="../../d7/d79/searchindex_8cpp.html" target="_top" xlink:title="src/searchindex.cpp">
<polygon fill="white" stroke="black" points="2172.5,-0.5 2172.5,-19.5 2276.5,-19.5 2276.5,-0.5 2172.5,-0.5"/>
<text text-anchor="middle" x="2224.5" y="-7.5" font-family="Helvetica,sans-Serif" font-size="10.00">src/searchindex.cpp</text>
</a>
</g>
</g>
<!-- Node14&#45;&gt;Node35 -->
<g id="edge21" class="edge"><title>Node14&#45;&gt;Node35</title>
<path fill="none" stroke="midnightblue" d="M1302.61,-64.0529C1452.35,-61.3421 1840.77,-51.5902 2163.5,-20 2166.38,-19.7184 2169.32,-19.3961 2172.3,-19.0448"/>
<polygon fill="midnightblue" stroke="midnightblue" points="1302.18,-60.5598 1292.24,-64.2361 1302.3,-67.5587 1302.18,-60.5598"/>
</g>
<!-- Node36 -->
<g id="node23" class="node"><title>Node36</title>
<g id="a_node23"><a xlink:href="../../df/d2d/util_8cpp.html" target="_top" xlink:title="src/util.cpp">
<polygon fill="white" stroke="black" points="2295,-0.5 2295,-19.5 2360,-19.5 2360,-0.5 2295,-0.5"/>
<text text-anchor="middle" x="2327.5" y="-7.5" font-family="Helvetica,sans-Serif" font-size="10.00">src/util.cpp</text>
</a>
</g>
</g>
<!-- Node14&#45;&gt;Node36 -->
<g id="edge22" class="edge"><title>Node14&#45;&gt;Node36</title>
<path fill="none" stroke="midnightblue" d="M1302.37,-63.6826C1497.9,-59.3664 2093.65,-44.506 2285.5,-20 2288.46,-19.6221 2291.52,-19.1425 2294.58,-18.6023"/>
<polygon fill="midnightblue" stroke="midnightblue" points="1302.18,-60.1857 1292.26,-63.9041 1302.34,-67.184 1302.18,-60.1857"/>
</g>
<!-- Node37 -->
<g id="node24" class="node"><title>Node37</title>
<g id="a_node24"><a xlink:href="../../de/dea/vhdldocgen_8cpp.html" target="_top" xlink:title="src/vhdldocgen.cpp">
<polygon fill="white" stroke="black" points="2378,-0.5 2378,-19.5 2479,-19.5 2479,-0.5 2378,-0.5"/>
<text text-anchor="middle" x="2428.5" y="-7.5" font-family="Helvetica,sans-Serif" font-size="10.00">src/vhdldocgen.cpp</text>
</a>
</g>
</g>
<!-- Node14&#45;&gt;Node37 -->
<g id="edge23" class="edge"><title>Node14&#45;&gt;Node37</title>
<path fill="none" stroke="midnightblue" d="M1302.11,-64.9535C1473.39,-64.2981 1963.94,-58.8853 2369.5,-20 2372.18,-19.7429 2374.93,-19.4451 2377.7,-19.1177"/>
<polygon fill="midnightblue" stroke="midnightblue" points="1302.01,-61.4537 1292.02,-64.9879 1302.03,-68.4537 1302.01,-61.4537"/>
</g>
<!-- Node38 -->
<g id="node25" class="node"><title>Node38</title>
<g id="a_node25"><a xlink:href="../../d0/dc3/xmlgen_8cpp.html" target="_top" xlink:title="src/xmlgen.cpp">
<polygon fill="white" stroke="black" points="2497,-0.5 2497,-19.5 2580,-19.5 2580,-0.5 2497,-0.5"/>
<text text-anchor="middle" x="2538.5" y="-7.5" font-family="Helvetica,sans-Serif" font-size="10.00">src/xmlgen.cpp</text>
</a>
</g>
</g>
<!-- Node14&#45;&gt;Node38 -->
<g id="edge24" class="edge"><title>Node14&#45;&gt;Node38</title>
<path fill="none" stroke="midnightblue" d="M1302.29,-63.9193C1521.88,-59.9548 2254.76,-45.1183 2488.5,-20 2491.22,-19.7079 2494.01,-19.3545 2496.82,-18.959"/>
<polygon fill="midnightblue" stroke="midnightblue" points="1302.16,-60.4209 1292.22,-64.0998 1302.28,-67.4198 1302.16,-60.4209"/>
</g>
</g>
</svg>
