<?xml version="1.0" encoding="UTF-8" standalone="no"?>
<!DOCTYPE svg PUBLIC "-//W3C//DTD SVG 1.1//EN"
 "http://www.w3.org/Graphics/SVG/1.1/DTD/svg11.dtd">
<!-- Generated by graphviz version 2.38.0 (20140413.2041)
 -->
<!-- Title: GroupSDict Pages: 1 -->
<svg width="363pt" height="162pt"
 viewBox="0.00 0.00 363.00 162.00" xmlns="http://www.w3.org/2000/svg" xmlns:xlink="http://www.w3.org/1999/xlink">
<g id="graph0" class="graph" transform="scale(1 1) rotate(0) translate(4 158)">
<title>GroupSDict</title>
<polygon fill="white" stroke="none" points="-4,4 -4,-158 359,-158 359,4 -4,4"/>
<!-- Node3 -->
<g id="node1" class="node"><title>Node3</title>
<polygon fill="#bfbfbf" stroke="black" points="287,-0.5 287,-19.5 355,-19.5 355,-0.5 287,-0.5"/>
<text text-anchor="middle" x="321" y="-7.5" font-family="Helvetica,sans-Serif" font-size="10.00">GroupSDict</text>
</g>
<!-- Node4 -->
<g id="node2" class="node"><title>Node4</title>
<g id="a_node2"><a xlink:href="../../d1/d50/class_s_dict.html" target="_top" xlink:title="SDict\&lt; GroupDef \&gt;">
<polygon fill="white" stroke="black" points="225.5,-67.5 225.5,-86.5 326.5,-86.5 326.5,-67.5 225.5,-67.5"/>
<text text-anchor="middle" x="276" y="-74.5" font-family="Helvetica,sans-Serif" font-size="10.00">SDict&lt; GroupDef &gt;</text>
</a>
</g>
</g>
<!-- Node4&#45;&gt;Node3 -->
<g id="edge1" class="edge"><title>Node4&#45;&gt;Node3</title>
<path fill="none" stroke="midnightblue" d="M296.432,-60.8271C300.31,-57.2657 304.065,-53.2563 307,-49 313.226,-39.9703 317.063,-27.8347 319.11,-19.7316"/>
<polygon fill="midnightblue" stroke="midnightblue" points="293.949,-58.3415 288.527,-67.4437 298.441,-63.7094 293.949,-58.3415"/>
</g>
<!-- Node5 -->
<g id="node3" class="node"><title>Node5</title>
<g id="a_node3"><a xlink:href="../../df/dce/class_s_list.html" target="_top" xlink:title="SList\&lt; GroupDef \&gt;">
<polygon fill="white" stroke="black" points="116.5,-0.5 116.5,-19.5 215.5,-19.5 215.5,-0.5 116.5,-0.5"/>
<text text-anchor="middle" x="166" y="-7.5" font-family="Helvetica,sans-Serif" font-size="10.00">SList&lt; GroupDef &gt;</text>
</a>
</g>
</g>
<!-- Node4&#45;&gt;Node5 -->
<g id="edge4" class="edge"><title>Node4&#45;&gt;Node5</title>
<path fill="none" stroke="#9a32cd" stroke-dasharray="5,2" d="M237.667,-63.9253C227.332,-59.8995 216.414,-54.9051 207,-49 193.845,-40.7488 181.118,-27.9678 173.423,-19.5425"/>
<polygon fill="#9a32cd" stroke="#9a32cd" points="236.736,-67.3121 247.329,-67.4865 239.157,-60.744 236.736,-67.3121"/>
<text text-anchor="middle" x="228.5" y="-41" font-family="Helvetica,sans-Serif" font-size="10.00"> m_owner</text>
</g>
<!-- Node5&#45;&gt;Node4 -->
<g id="edge2" class="edge"><title>Node5&#45;&gt;Node4</title>
<path fill="none" stroke="#9a32cd" stroke-dasharray="5,2" d="M225.512,-22.5753C235.692,-26.357 245.659,-31.3666 254,-38 263.546,-45.5918 269.753,-58.5376 273.066,-67.1794"/>
<polygon fill="#9a32cd" stroke="#9a32cd" points="226.327,-19.1575 215.733,-19.3129 224.111,-25.7977 226.327,-19.1575"/>
<text text-anchor="middle" x="279" y="-41" font-family="Helvetica,sans-Serif" font-size="10.00"> m_list</text>
</g>
<!-- Node6 -->
<g id="node4" class="node"><title>Node6</title>
<polygon fill="white" stroke="#bfbfbf" points="0,-67.5 0,-86.5 100,-86.5 100,-67.5 0,-67.5"/>
<text text-anchor="middle" x="50" y="-74.5" font-family="Helvetica,sans-Serif" font-size="10.00">QList&lt; GroupDef &gt;</text>
</g>
<!-- Node6&#45;&gt;Node5 -->
<g id="edge3" class="edge"><title>Node6&#45;&gt;Node5</title>
<path fill="none" stroke="midnightblue" d="M74.4721,-62.2872C97.4624,-49.4047 131.157,-30.5243 150.604,-19.6273"/>
<polygon fill="midnightblue" stroke="midnightblue" points="72.6571,-59.2921 65.6443,-67.2338 76.079,-65.3988 72.6571,-59.2921"/>
</g>
<!-- Node7 -->
<g id="node5" class="node"><title>Node7</title>
<g id="a_node5"><a xlink:href="../../df/dce/class_s_list.html" target="_top" xlink:title="internal wrapper class that redirects compareValues() to the dictionary ">
<polygon fill="white" stroke="black" points="118.5,-67.5 118.5,-86.5 181.5,-86.5 181.5,-67.5 118.5,-67.5"/>
<text text-anchor="middle" x="150" y="-74.5" font-family="Helvetica,sans-Serif" font-size="10.00">SList&lt; T &gt;</text>
</a>
</g>
</g>
<!-- Node7&#45;&gt;Node5 -->
<g id="edge5" class="edge"><title>Node7&#45;&gt;Node5</title>
<path fill="none" stroke="orange" stroke-dasharray="5,2" d="M129.799,-60.1462C123.83,-53.497 119.87,-45.5643 124,-38 128.403,-29.9351 136.361,-23.9199 144.174,-19.6396"/>
<polygon fill="orange" stroke="orange" points="127.682,-62.96 137.363,-67.2633 132.478,-57.8617 127.682,-62.96"/>
<text text-anchor="middle" x="156" y="-41" font-family="Helvetica,sans-Serif" font-size="10.00"> &lt; GroupDef &gt;</text>
</g>
<!-- Node8 -->
<g id="node6" class="node"><title>Node8</title>
<polygon fill="white" stroke="#bfbfbf" points="118,-134.5 118,-153.5 182,-153.5 182,-134.5 118,-134.5"/>
<text text-anchor="middle" x="150" y="-141.5" font-family="Helvetica,sans-Serif" font-size="10.00">QList&lt; T &gt;</text>
</g>
<!-- Node8&#45;&gt;Node7 -->
<g id="edge6" class="edge"><title>Node8&#45;&gt;Node7</title>
<path fill="none" stroke="midnightblue" d="M150,-124.037C150,-111.67 150,-96.1198 150,-86.6273"/>
<polygon fill="midnightblue" stroke="midnightblue" points="146.5,-124.234 150,-134.234 153.5,-124.234 146.5,-124.234"/>
</g>
<!-- Node9 -->
<g id="node7" class="node"><title>Node9</title>
<g id="a_node7"><a xlink:href="../../d1/d50/class_s_dict.html" target="_top" xlink:title="Ordered dictionary of elements of type T. ">
<polygon fill="white" stroke="black" points="243.5,-134.5 243.5,-153.5 308.5,-153.5 308.5,-134.5 243.5,-134.5"/>
<text text-anchor="middle" x="276" y="-141.5" font-family="Helvetica,sans-Serif" font-size="10.00">SDict&lt; T &gt;</text>
</a>
</g>
</g>
<!-- Node9&#45;&gt;Node4 -->
<g id="edge7" class="edge"><title>Node9&#45;&gt;Node4</title>
<path fill="none" stroke="orange" stroke-dasharray="5,2" d="M276,-124.037C276,-111.67 276,-96.1198 276,-86.6273"/>
<polygon fill="orange" stroke="orange" points="272.5,-124.234 276,-134.234 279.5,-124.234 272.5,-124.234"/>
<text text-anchor="middle" x="308" y="-108" font-family="Helvetica,sans-Serif" font-size="10.00"> &lt; GroupDef &gt;</text>
</g>
</g>
</svg>
