<?xml version="1.0" encoding="UTF-8" standalone="no"?>
<!DOCTYPE svg PUBLIC "-//W3C//DTD SVG 1.1//EN"
 "http://www.w3.org/Graphics/SVG/1.1/DTD/svg11.dtd">
<!-- Generated by graphviz version 2.38.0 (20140413.2041)
 -->
<!-- Title: PropertyMapper&lt; T &gt;::PropertyFunc Pages: 1 -->
<svg width="301pt" height="184pt"
 viewBox="0.00 0.00 300.50 184.00" xmlns="http://www.w3.org/2000/svg" xmlns:xlink="http://www.w3.org/1999/xlink">
<g id="graph0" class="graph" transform="scale(1 1) rotate(0) translate(4 180)">
<title>PropertyMapper&lt; T &gt;::PropertyFunc</title>
<polygon fill="white" stroke="none" points="-4,4 -4,-180 296.5,-180 296.5,4 -4,4"/>
<!-- Node2 -->
<g id="node1" class="node"><title>Node2</title>
<polygon fill="#bfbfbf" stroke="black" points="21,-0.5 21,-30.5 131,-30.5 131,-0.5 21,-0.5"/>
<text text-anchor="start" x="29" y="-18.5" font-family="Helvetica,sans-Serif" font-size="10.00">PropertyMapper&lt; T &gt;</text>
<text text-anchor="middle" x="76" y="-7.5" font-family="Helvetica,sans-Serif" font-size="10.00">::PropertyFunc</text>
</g>
<!-- Node3 -->
<g id="node2" class="node"><title>Node3</title>
<g id="a_node2"><a xlink:href="../../de/d93/struct_property_mapper_1_1_property_func_intf.html" target="_top" xlink:title="PropertyMapper\&lt; T \&gt;\l::PropertyFuncIntf">
<polygon fill="white" stroke="black" points="0,-78.5 0,-108.5 110,-108.5 110,-78.5 0,-78.5"/>
<text text-anchor="start" x="8" y="-96.5" font-family="Helvetica,sans-Serif" font-size="10.00">PropertyMapper&lt; T &gt;</text>
<text text-anchor="middle" x="55" y="-85.5" font-family="Helvetica,sans-Serif" font-size="10.00">::PropertyFuncIntf</text>
</a>
</g>
</g>
<!-- Node3&#45;&gt;Node2 -->
<g id="edge1" class="edge"><title>Node3&#45;&gt;Node2</title>
<path fill="none" stroke="midnightblue" d="M61.6419,-68.4628C65.0716,-56.0505 69.1392,-41.3296 72.0678,-30.7309"/>
<polygon fill="midnightblue" stroke="midnightblue" points="58.2398,-67.634 58.9499,-78.205 64.9869,-69.4984 58.2398,-67.634"/>
</g>
<!-- Node4 -->
<g id="node3" class="node"><title>Node4</title>
<g id="a_node3"><a xlink:href="../../d1/dba/class_template_variant.html" target="_top" xlink:title="Variant type which can hold one value of a fixed set of types. ">
<polygon fill="white" stroke="black" points="128,-84 128,-103 216,-103 216,-84 128,-84"/>
<text text-anchor="middle" x="172" y="-91" font-family="Helvetica,sans-Serif" font-size="10.00">TemplateVariant</text>
</a>
</g>
</g>
<!-- Node4&#45;&gt;Node2 -->
<g id="edge2" class="edge"><title>Node4&#45;&gt;Node2</title>
<path fill="none" stroke="#9a32cd" stroke-dasharray="5,2" d="M148.074,-78.6348C139.293,-73.1932 129.443,-66.6601 121,-60 109.568,-50.9821 97.7748,-39.4864 89.1303,-30.5776"/>
<polygon fill="#9a32cd" stroke="#9a32cd" points="146.364,-81.6913 156.733,-83.8701 149.986,-75.701 146.364,-81.6913"/>
<text text-anchor="middle" x="138.5" y="-52" font-family="Helvetica,sans-Serif" font-size="10.00"> handler</text>
</g>
<!-- Node7 -->
<g id="node6" class="node"><title>Node7</title>
<g id="a_node6"><a xlink:href="../../d7/d1d/class_template_variant_1_1_delegate.html" target="_top" xlink:title="Helper class to create a delegate that can store a function/method call. ">
<polygon fill="white" stroke="black" points="159.5,-6 159.5,-25 292.5,-25 292.5,-6 159.5,-6"/>
<text text-anchor="middle" x="226" y="-13" font-family="Helvetica,sans-Serif" font-size="10.00">TemplateVariant::Delegate</text>
</a>
</g>
</g>
<!-- Node4&#45;&gt;Node7 -->
<g id="edge6" class="edge"><title>Node4&#45;&gt;Node7</title>
<path fill="none" stroke="#9a32cd" stroke-dasharray="5,2" d="M162.129,-74.7008C158.927,-66.4097 157.274,-56.7003 162,-49 169.04,-37.5294 181.531,-29.9529 193.62,-25.0262"/>
<polygon fill="#9a32cd" stroke="#9a32cd" points="159.034,-76.3419 166.478,-83.8804 165.36,-73.3448 159.034,-76.3419"/>
<text text-anchor="middle" x="186.5" y="-52" font-family="Helvetica,sans-Serif" font-size="10.00"> m_stubPtr</text>
</g>
<!-- Node5 -->
<g id="node4" class="node"><title>Node5</title>
<g id="a_node4"><a xlink:href="../../d6/d88/class_template_list_intf.html" target="_top" xlink:title="Abstract read&#45;only interface for a context value of type list. ">
<polygon fill="white" stroke="black" points="72.5,-156.5 72.5,-175.5 159.5,-175.5 159.5,-156.5 72.5,-156.5"/>
<text text-anchor="middle" x="116" y="-163.5" font-family="Helvetica,sans-Serif" font-size="10.00">TemplateListIntf</text>
</a>
</g>
</g>
<!-- Node5&#45;&gt;Node4 -->
<g id="edge3" class="edge"><title>Node5&#45;&gt;Node4</title>
<path fill="none" stroke="#9a32cd" stroke-dasharray="5,2" d="M129.188,-148.397C140.431,-134.243 156.148,-114.457 165.077,-103.215"/>
<polygon fill="#9a32cd" stroke="#9a32cd" points="126.346,-146.348 122.867,-156.355 131.827,-150.702 126.346,-146.348"/>
<text text-anchor="middle" x="161" y="-130" font-family="Helvetica,sans-Serif" font-size="10.00"> m_list</text>
</g>
<!-- Node6 -->
<g id="node5" class="node"><title>Node6</title>
<g id="a_node5"><a xlink:href="../../d9/de8/class_template_struct_intf.html" target="_top" xlink:title="Abstract interface for a context value of type struct. ">
<polygon fill="white" stroke="black" points="178,-156.5 178,-175.5 276,-175.5 276,-156.5 178,-156.5"/>
<text text-anchor="middle" x="227" y="-163.5" font-family="Helvetica,sans-Serif" font-size="10.00">TemplateStructIntf</text>
</a>
</g>
</g>
<!-- Node6&#45;&gt;Node4 -->
<g id="edge4" class="edge"><title>Node6&#45;&gt;Node4</title>
<path fill="none" stroke="#9a32cd" stroke-dasharray="5,2" d="M214.047,-148.397C203.005,-134.243 187.569,-114.457 178.799,-103.215"/>
<polygon fill="#9a32cd" stroke="#9a32cd" points="211.345,-150.624 220.256,-156.355 216.864,-146.318 211.345,-150.624"/>
<text text-anchor="middle" x="226" y="-130" font-family="Helvetica,sans-Serif" font-size="10.00"> m_strukt</text>
</g>
<!-- Node7&#45;&gt;Node4 -->
<g id="edge5" class="edge"><title>Node7&#45;&gt;Node4</title>
<path fill="none" stroke="#9a32cd" stroke-dasharray="5,2" d="M224.082,-35.243C222.567,-43.3705 219.855,-52.6806 215,-60 208.276,-70.1379 197.293,-78.3604 188.11,-83.9985"/>
<polygon fill="#9a32cd" stroke="#9a32cd" points="227.569,-35.5811 225.495,-25.1912 220.637,-34.6066 227.569,-35.5811"/>
<text text-anchor="middle" x="248" y="-52" font-family="Helvetica,sans-Serif" font-size="10.00"> m_delegate</text>
</g>
</g>
</svg>
