<?xml version="1.0" encoding="UTF-8" standalone="no"?>
<!DOCTYPE svg PUBLIC "-//W3C//DTD SVG 1.1//EN"
 "http://www.w3.org/Graphics/SVG/1.1/DTD/svg11.dtd">
<!-- Generated by graphviz version 2.38.0 (20140413.2041)
 -->
<!-- Title: DocHtmlDescTitle Pages: 1 -->
<svg width="258pt" height="152pt"
 viewBox="0.00 0.00 257.50 152.00" xmlns="http://www.w3.org/2000/svg" xmlns:xlink="http://www.w3.org/1999/xlink">
<g id="graph0" class="graph" transform="scale(1 1) rotate(0) translate(4 148)">
<title>DocHtmlDescTitle</title>
<polygon fill="white" stroke="none" points="-4,4 -4,-148 253.5,-148 253.5,4 -4,4"/>
<!-- Node0 -->
<g id="node1" class="node"><title>Node0</title>
<polygon fill="#bfbfbf" stroke="black" points="137.5,-0.5 137.5,-19.5 235.5,-19.5 235.5,-0.5 137.5,-0.5"/>
<text text-anchor="middle" x="186.5" y="-7.5" font-family="Helvetica,sans-Serif" font-size="10.00">DocHtmlDescTitle</text>
</g>
<!-- Node1 -->
<g id="node2" class="node"><title>Node1</title>
<g id="a_node2"><a xlink:href="../../d7/da3/class_comp_accept.html" target="_top" xlink:title="CompAccept\&lt; DocHtmlDescTitle \&gt;">
<polygon fill="white" stroke="black" points="0,-57.5 0,-76.5 173,-76.5 173,-57.5 0,-57.5"/>
<text text-anchor="middle" x="86.5" y="-64.5" font-family="Helvetica,sans-Serif" font-size="10.00">CompAccept&lt; DocHtmlDescTitle &gt;</text>
</a>
</g>
</g>
<!-- Node1&#45;&gt;Node0 -->
<g id="edge1" class="edge"><title>Node1&#45;&gt;Node0</title>
<path fill="none" stroke="midnightblue" d="M110.981,-52.5353C129.706,-42.2365 154.955,-28.3496 170.985,-19.5334"/>
<polygon fill="midnightblue" stroke="midnightblue" points="109.2,-49.5203 102.125,-57.4062 112.574,-55.6538 109.2,-49.5203"/>
</g>
<!-- Node2 -->
<g id="node3" class="node"><title>Node2</title>
<g id="a_node3"><a xlink:href="../../d7/da3/class_comp_accept.html" target="_top" xlink:title="Default accept implementation for compound nodes in the abstract syntax tree. ">
<polygon fill="white" stroke="black" points="37.5,-124.5 37.5,-143.5 135.5,-143.5 135.5,-124.5 37.5,-124.5"/>
<text text-anchor="middle" x="86.5" y="-131.5" font-family="Helvetica,sans-Serif" font-size="10.00">CompAccept&lt; T &gt;</text>
</a>
</g>
</g>
<!-- Node2&#45;&gt;Node1 -->
<g id="edge2" class="edge"><title>Node2&#45;&gt;Node1</title>
<path fill="none" stroke="orange" stroke-dasharray="5,2" d="M86.5,-114.037C86.5,-101.67 86.5,-86.1198 86.5,-76.6273"/>
<polygon fill="orange" stroke="orange" points="83.0001,-114.234 86.5,-124.234 90.0001,-114.234 83.0001,-114.234"/>
<text text-anchor="middle" x="138" y="-98" font-family="Helvetica,sans-Serif" font-size="10.00"> &lt; DocHtmlDescTitle &gt;</text>
</g>
<!-- Node3 -->
<g id="node4" class="node"><title>Node3</title>
<g id="a_node4"><a xlink:href="../../d9/d0e/class_doc_node.html" target="_top" xlink:title="Abstract node interface with type information. ">
<polygon fill="white" stroke="black" points="191.5,-57.5 191.5,-76.5 249.5,-76.5 249.5,-57.5 191.5,-57.5"/>
<text text-anchor="middle" x="220.5" y="-64.5" font-family="Helvetica,sans-Serif" font-size="10.00">DocNode</text>
</a>
</g>
</g>
<!-- Node3&#45;&gt;Node0 -->
<g id="edge3" class="edge"><title>Node3&#45;&gt;Node0</title>
<path fill="none" stroke="midnightblue" d="M209.766,-48.6354C203.815,-39.0102 196.675,-27.459 191.887,-19.7149"/>
<polygon fill="midnightblue" stroke="midnightblue" points="206.952,-50.7407 215.188,-57.4062 212.906,-47.0599 206.952,-50.7407"/>
</g>
</g>
</svg>
