<?xml version="1.0" encoding="UTF-8" standalone="no"?>
<!DOCTYPE svg PUBLIC "-//W3C//DTD SVG 1.1//EN"
 "http://www.w3.org/Graphics/SVG/1.1/DTD/svg11.dtd">
<!-- Generated by graphviz version 2.38.0 (20140413.2041)
 -->
<!-- Title: src/mangen.h Pages: 1 -->
<svg width="505pt" height="252pt"
 viewBox="0.00 0.00 504.50 252.00" xmlns="http://www.w3.org/2000/svg" xmlns:xlink="http://www.w3.org/1999/xlink">
<g id="graph0" class="graph" transform="scale(1 1) rotate(0) translate(4 248)">
<title>src/mangen.h</title>
<polygon fill="white" stroke="none" points="-4,4 -4,-248 500.5,-248 500.5,4 -4,4"/>
<!-- Node0 -->
<g id="node1" class="node"><title>Node0</title>
<polygon fill="#bfbfbf" stroke="black" points="94,-224.5 94,-243.5 170,-243.5 170,-224.5 94,-224.5"/>
<text text-anchor="middle" x="132" y="-231.5" font-family="Helvetica,sans-Serif" font-size="10.00">src/mangen.h</text>
</g>
<!-- Node1 -->
<g id="node2" class="node"><title>Node1</title>
<g id="a_node2"><a xlink:href="../../df/d06/outputgen_8h.html" target="_top" xlink:title="outputgen.h">
<polygon fill="white" stroke="black" points="98,-168.5 98,-187.5 166,-187.5 166,-168.5 98,-168.5"/>
<text text-anchor="middle" x="132" y="-175.5" font-family="Helvetica,sans-Serif" font-size="10.00">outputgen.h</text>
</a>
</g>
</g>
<!-- Node0&#45;&gt;Node1 -->
<g id="edge1" class="edge"><title>Node0&#45;&gt;Node1</title>
<path fill="none" stroke="midnightblue" d="M132,-224.083C132,-217.006 132,-206.861 132,-197.986"/>
<polygon fill="midnightblue" stroke="midnightblue" points="135.5,-197.751 132,-187.751 128.5,-197.751 135.5,-197.751"/>
</g>
<!-- Node2 -->
<g id="node3" class="node"><title>Node2</title>
<polygon fill="white" stroke="#bfbfbf" points="0,-112.5 0,-131.5 54,-131.5 54,-112.5 0,-112.5"/>
<text text-anchor="middle" x="27" y="-119.5" font-family="Helvetica,sans-Serif" font-size="10.00">qstack.h</text>
</g>
<!-- Node1&#45;&gt;Node2 -->
<g id="edge2" class="edge"><title>Node1&#45;&gt;Node2</title>
<path fill="none" stroke="midnightblue" d="M115.13,-168.324C98.2912,-159.664 72.1935,-146.242 52.762,-136.249"/>
<polygon fill="midnightblue" stroke="midnightblue" points="54.3218,-133.116 43.8282,-131.655 51.1204,-139.341 54.3218,-133.116"/>
</g>
<!-- Node3 -->
<g id="node4" class="node"><title>Node3</title>
<g id="a_node4"><a xlink:href="../../d1/db5/index_8h.html" target="_top" xlink:title="index.h">
<polygon fill="white" stroke="black" points="72,-112.5 72,-131.5 120,-131.5 120,-112.5 72,-112.5"/>
<text text-anchor="middle" x="96" y="-119.5" font-family="Helvetica,sans-Serif" font-size="10.00">index.h</text>
</a>
</g>
</g>
<!-- Node1&#45;&gt;Node3 -->
<g id="edge3" class="edge"><title>Node1&#45;&gt;Node3</title>
<path fill="none" stroke="midnightblue" d="M126.055,-168.083C121.023,-160.534 113.663,-149.495 107.487,-140.23"/>
<polygon fill="midnightblue" stroke="midnightblue" points="110.293,-138.13 101.834,-131.751 104.469,-142.013 110.293,-138.13"/>
</g>
<!-- Node6 -->
<g id="node7" class="node"><title>Node6</title>
<g id="a_node7"><a xlink:href="../../d1/d2a/section_8h.html" target="_top" xlink:title="section.h">
<polygon fill="white" stroke="black" points="141,-112.5 141,-131.5 197,-131.5 197,-112.5 141,-112.5"/>
<text text-anchor="middle" x="169" y="-119.5" font-family="Helvetica,sans-Serif" font-size="10.00">section.h</text>
</a>
</g>
</g>
<!-- Node1&#45;&gt;Node6 -->
<g id="edge6" class="edge"><title>Node1&#45;&gt;Node6</title>
<path fill="none" stroke="midnightblue" d="M138.11,-168.083C143.282,-160.534 150.846,-149.495 157.194,-140.23"/>
<polygon fill="midnightblue" stroke="midnightblue" points="160.239,-141.979 163.004,-131.751 154.464,-138.022 160.239,-141.979"/>
</g>
<!-- Node10 -->
<g id="node11" class="node"><title>Node10</title>
<g id="a_node11"><a xlink:href="../../df/d83/ftextstream_8h.html" target="_top" xlink:title="ftextstream.h">
<polygon fill="white" stroke="black" points="277,-112.5 277,-131.5 351,-131.5 351,-112.5 277,-112.5"/>
<text text-anchor="middle" x="314" y="-119.5" font-family="Helvetica,sans-Serif" font-size="10.00">ftextstream.h</text>
</a>
</g>
</g>
<!-- Node1&#45;&gt;Node10 -->
<g id="edge11" class="edge"><title>Node1&#45;&gt;Node10</title>
<path fill="none" stroke="midnightblue" d="M160.838,-168.444C191.856,-159.241 241.329,-144.562 275.618,-134.388"/>
<polygon fill="midnightblue" stroke="midnightblue" points="276.705,-137.716 285.296,-131.516 274.714,-131.006 276.705,-137.716"/>
</g>
<!-- Node4 -->
<g id="node5" class="node"><title>Node4</title>
<polygon fill="white" stroke="#bfbfbf" points="49.5,-0.5 49.5,-19.5 92.5,-19.5 92.5,-0.5 49.5,-0.5"/>
<text text-anchor="middle" x="71" y="-7.5" font-family="Helvetica,sans-Serif" font-size="10.00">qlist.h</text>
</g>
<!-- Node3&#45;&gt;Node4 -->
<g id="edge4" class="edge"><title>Node3&#45;&gt;Node4</title>
<path fill="none" stroke="midnightblue" d="M84.4594,-112.49C74.5206,-104.379 60.8775,-91.1778 55,-76 48.9804,-60.4551 54.7294,-41.9239 60.9489,-28.633"/>
<polygon fill="midnightblue" stroke="midnightblue" points="64.1218,-30.1169 65.6095,-19.627 57.9049,-26.8996 64.1218,-30.1169"/>
</g>
<!-- Node5 -->
<g id="node6" class="node"><title>Node5</title>
<polygon fill="white" stroke="#bfbfbf" points="64.5,-56.5 64.5,-75.5 123.5,-75.5 123.5,-56.5 64.5,-56.5"/>
<text text-anchor="middle" x="94" y="-63.5" font-family="Helvetica,sans-Serif" font-size="10.00">qcstring.h</text>
</g>
<!-- Node3&#45;&gt;Node5 -->
<g id="edge5" class="edge"><title>Node3&#45;&gt;Node5</title>
<path fill="none" stroke="midnightblue" d="M95.6697,-112.083C95.4076,-105.006 95.0319,-94.8611 94.7032,-85.9865"/>
<polygon fill="midnightblue" stroke="midnightblue" points="98.1919,-85.6147 94.3241,-75.7511 91.1967,-85.8738 98.1919,-85.6147"/>
</g>
<!-- Node7 -->
<g id="node8" class="node"><title>Node7</title>
<g id="a_node8"><a xlink:href="../../d9/d21/sortdict_8h.html" target="_top" xlink:title="sortdict.h">
<polygon fill="white" stroke="black" points="141.5,-56.5 141.5,-75.5 198.5,-75.5 198.5,-56.5 141.5,-56.5"/>
<text text-anchor="middle" x="170" y="-63.5" font-family="Helvetica,sans-Serif" font-size="10.00">sortdict.h</text>
</a>
</g>
</g>
<!-- Node6&#45;&gt;Node7 -->
<g id="edge7" class="edge"><title>Node6&#45;&gt;Node7</title>
<path fill="none" stroke="midnightblue" d="M169.165,-112.083C169.296,-105.006 169.484,-94.8611 169.648,-85.9865"/>
<polygon fill="midnightblue" stroke="midnightblue" points="173.152,-85.8142 169.838,-75.7511 166.153,-85.6845 173.152,-85.8142"/>
</g>
<!-- Node7&#45;&gt;Node4 -->
<g id="edge8" class="edge"><title>Node7&#45;&gt;Node4</title>
<path fill="none" stroke="midnightblue" d="M154.094,-56.324C138.362,-47.7428 114.058,-34.486 95.7911,-24.5224"/>
<polygon fill="midnightblue" stroke="midnightblue" points="97.3216,-21.3704 86.8666,-19.6545 93.9696,-27.5157 97.3216,-21.3704"/>
</g>
<!-- Node8 -->
<g id="node9" class="node"><title>Node8</title>
<polygon fill="white" stroke="#bfbfbf" points="112,-0.5 112,-19.5 158,-19.5 158,-0.5 112,-0.5"/>
<text text-anchor="middle" x="135" y="-7.5" font-family="Helvetica,sans-Serif" font-size="10.00">qdict.h</text>
</g>
<!-- Node7&#45;&gt;Node8 -->
<g id="edge9" class="edge"><title>Node7&#45;&gt;Node8</title>
<path fill="none" stroke="midnightblue" d="M164.22,-56.083C159.328,-48.5341 152.173,-37.4948 146.167,-28.2298"/>
<polygon fill="midnightblue" stroke="midnightblue" points="149.048,-26.239 140.672,-19.7511 143.174,-30.0463 149.048,-26.239"/>
</g>
<!-- Node9 -->
<g id="node10" class="node"><title>Node9</title>
<polygon fill="white" stroke="#bfbfbf" points="176,-0.5 176,-19.5 232,-19.5 232,-0.5 176,-0.5"/>
<text text-anchor="middle" x="204" y="-7.5" font-family="Helvetica,sans-Serif" font-size="10.00">qintdict.h</text>
</g>
<!-- Node7&#45;&gt;Node9 -->
<g id="edge10" class="edge"><title>Node7&#45;&gt;Node9</title>
<path fill="none" stroke="midnightblue" d="M175.614,-56.083C180.367,-48.5341 187.318,-37.4948 193.152,-28.2298"/>
<polygon fill="midnightblue" stroke="midnightblue" points="196.124,-30.0783 198.49,-19.7511 190.2,-26.3486 196.124,-30.0783"/>
</g>
<!-- Node11 -->
<g id="node12" class="node"><title>Node11</title>
<polygon fill="white" stroke="#bfbfbf" points="217,-56.5 217,-75.5 263,-75.5 263,-56.5 217,-56.5"/>
<text text-anchor="middle" x="240" y="-63.5" font-family="Helvetica,sans-Serif" font-size="10.00">stdio.h</text>
</g>
<!-- Node10&#45;&gt;Node11 -->
<g id="edge12" class="edge"><title>Node10&#45;&gt;Node11</title>
<path fill="none" stroke="midnightblue" d="M302.111,-112.324C290.85,-104.107 273.713,-91.6017 260.291,-81.8069"/>
<polygon fill="midnightblue" stroke="midnightblue" points="262.247,-78.9014 252.106,-75.8339 258.12,-84.5559 262.247,-78.9014"/>
</g>
<!-- Node12 -->
<g id="node13" class="node"><title>Node12</title>
<polygon fill="white" stroke="#bfbfbf" points="281,-56.5 281,-75.5 347,-75.5 347,-56.5 281,-56.5"/>
<text text-anchor="middle" x="314" y="-63.5" font-family="Helvetica,sans-Serif" font-size="10.00">qiodevice.h</text>
</g>
<!-- Node10&#45;&gt;Node12 -->
<g id="edge13" class="edge"><title>Node10&#45;&gt;Node12</title>
<path fill="none" stroke="midnightblue" d="M314,-112.083C314,-105.006 314,-94.8611 314,-85.9865"/>
<polygon fill="midnightblue" stroke="midnightblue" points="317.5,-85.751 314,-75.7511 310.5,-85.7511 317.5,-85.751"/>
</g>
<!-- Node13 -->
<g id="node14" class="node"><title>Node13</title>
<polygon fill="white" stroke="#bfbfbf" points="365,-56.5 365,-75.5 419,-75.5 419,-56.5 365,-56.5"/>
<text text-anchor="middle" x="392" y="-63.5" font-family="Helvetica,sans-Serif" font-size="10.00">qstring.h</text>
</g>
<!-- Node10&#45;&gt;Node13 -->
<g id="edge14" class="edge"><title>Node10&#45;&gt;Node13</title>
<path fill="none" stroke="midnightblue" d="M326.532,-112.324C338.586,-103.979 357.027,-91.2122 371.269,-81.3524"/>
<polygon fill="midnightblue" stroke="midnightblue" points="373.269,-84.2243 379.499,-75.6545 369.285,-78.469 373.269,-84.2243"/>
</g>
<!-- Node14 -->
<g id="node15" class="node"><title>Node14</title>
<polygon fill="white" stroke="#bfbfbf" points="437.5,-56.5 437.5,-75.5 496.5,-75.5 496.5,-56.5 437.5,-56.5"/>
<text text-anchor="middle" x="467" y="-63.5" font-family="Helvetica,sans-Serif" font-size="10.00">qgstring.h</text>
</g>
<!-- Node10&#45;&gt;Node14 -->
<g id="edge15" class="edge"><title>Node10&#45;&gt;Node14</title>
<path fill="none" stroke="midnightblue" d="M338.243,-112.444C363.871,-103.399 404.485,-89.064 433.238,-78.9158"/>
<polygon fill="midnightblue" stroke="midnightblue" points="434.605,-82.1452 442.87,-75.5164 432.275,-75.5442 434.605,-82.1452"/>
</g>
</g>
</svg>
