<?xml version="1.0" encoding="UTF-8" standalone="no"?>
<!DOCTYPE svg PUBLIC "-//W3C//DTD SVG 1.1//EN"
 "http://www.w3.org/Graphics/SVG/1.1/DTD/svg11.dtd">
<!-- Generated by graphviz version 2.38.0 (20140413.2041)
 -->
<!-- Title: ClassHierarchyContext::Private::Cachable Pages: 1 -->
<!--zoomable 308 -->
<svg id="main" version="1.1" xmlns="http://www.w3.org/2000/svg" xmlns:xlink="http://www.w3.org/1999/xlink" xml:space="preserve" onload="init(evt)">
<style type="text/css"><![CDATA[
.edge:hover path { stroke: red; }
.edge:hover polygon { stroke: red; fill: red; }
]]></style>
<script type="text/javascript"><![CDATA[
var edges = document.getElementsByTagName('g');
if (edges && edges.length) {
  for (var i=0;i<edges.length;i++) {
    if (edges[i].id.substr(0,4)=='edge') {
      edges[i].setAttribute('class','edge');
    }
  }
}
]]></script>
        <defs>
                <circle id="rim" cx="0" cy="0" r="7"/>
                <circle id="rim2" cx="0" cy="0" r="3.5"/>
                <g id="zoomPlus">
                        <use xlink:href="#rim" fill="#404040">
                                <set attributeName="fill" to="#808080" begin="zoomplus.mouseover" end="zoomplus.mouseout"/>
                        </use>
                        <path d="M-4,0h8M0,-4v8" fill="none" stroke="white" stroke-width="1.5" pointer-events="none"/>
                </g>
                <g id="zoomMin">
                        <use xlink:href="#rim" fill="#404040">
                                <set attributeName="fill" to="#808080" begin="zoomminus.mouseover" end="zoomminus.mouseout"/>
                        </use>
                        <path d="M-4,0h8" fill="none" stroke="white" stroke-width="1.5" pointer-events="none"/>
                </g>
                <g id="dirArrow">
                        <path fill="none" stroke="white" stroke-width="1.5" d="M0,-3.0v7 M-2.5,-0.5L0,-3.0L2.5,-0.5"/>
                </g>
               <g id="resetDef">
                       <use xlink:href="#rim2" fill="#404040">
                               <set attributeName="fill" to="#808080" begin="reset.mouseover" end="reset.mouseout"/>
                       </use>
               </g>
        </defs>

<script type="text/javascript">
var viewWidth = 543;
var viewHeight = 308;
var sectionId = 'dynsection-0';
</script>
<script xlink:href="../../svgpan.js"/>
<svg id="graph" class="graph">
<g id="viewport">
<title>ClassHierarchyContext::Private::Cachable</title>
<polygon fill="white" stroke="none" points="-4,4 -4,-304 539,-304 539,4 -4,4"/>
<!-- Node1 -->
<g id="node1" class="node"><title>Node1</title>
<polygon fill="#bfbfbf" stroke="black" points="154.5,-0.5 154.5,-30.5 273.5,-30.5 273.5,-0.5 154.5,-0.5"/>
<text text-anchor="start" x="162.5" y="-18.5" font-family="Helvetica,sans-Serif" font-size="10.00">ClassHierarchyContext</text>
<text text-anchor="middle" x="214" y="-7.5" font-family="Helvetica,sans-Serif" font-size="10.00">::Private::Cachable</text>
</g>
<!-- Node2 -->
<g id="node2" class="node"><title>Node2</title>
<g id="a_node2"><a xlink:href="../../dd/d9b/class_scoped_ptr.html" target="_top" xlink:title="ScopedPtr\&lt; DotGfxHierarchy\lTable \&gt;">
<polygon fill="white" stroke="black" points="51.5,-78.5 51.5,-108.5 196.5,-108.5 196.5,-78.5 51.5,-78.5"/>
<text text-anchor="start" x="59.5" y="-96.5" font-family="Helvetica,sans-Serif" font-size="10.00">ScopedPtr&lt; DotGfxHierarchy</text>
<text text-anchor="middle" x="124" y="-85.5" font-family="Helvetica,sans-Serif" font-size="10.00">Table &gt;</text>
</a>
</g>
</g>
<!-- Node2&#45;&gt;Node1 -->
<g id="edge1" class="edge"><title>Node2&#45;&gt;Node1</title>
<path fill="none" stroke="#9a32cd" stroke-dasharray="5,2" d="M148.994,-71.3941C164.343,-58.4322 183.592,-42.1775 197.148,-30.7309"/>
<polygon fill="#9a32cd" stroke="#9a32cd" points="146.31,-69.079 140.928,-78.205 150.827,-74.4273 146.31,-69.079"/>
<text text-anchor="middle" x="196.5" y="-52" font-family="Helvetica,sans-Serif" font-size="10.00"> hierarchy</text>
</g>
<!-- Node3 -->
<g id="node3" class="node"><title>Node3</title>
<g id="a_node3"><a xlink:href="../../d1/d1f/class_dot_gfx_hierarchy_table.html" target="_top" xlink:title="Represents a graphical class hierarchy. ">
<polygon fill="white" stroke="black" points="0,-156.5 0,-175.5 114,-175.5 114,-156.5 0,-156.5"/>
<text text-anchor="middle" x="57" y="-163.5" font-family="Helvetica,sans-Serif" font-size="10.00">DotGfxHierarchyTable</text>
</a>
</g>
</g>
<!-- Node3&#45;&gt;Node2 -->
<g id="edge2" class="edge"><title>Node3&#45;&gt;Node2</title>
<path fill="none" stroke="#9a32cd" stroke-dasharray="5,2" d="M72.1169,-149.093C83.6908,-136.915 99.5054,-120.274 110.623,-108.576"/>
<polygon fill="#9a32cd" stroke="#9a32cd" points="69.5673,-146.695 65.2155,-156.355 74.6415,-151.518 69.5673,-146.695"/>
<text text-anchor="middle" x="107" y="-130" font-family="Helvetica,sans-Serif" font-size="10.00"> m_ptr</text>
</g>
<!-- Node4 -->
<g id="node4" class="node"><title>Node4</title>
<g id="a_node4"><a xlink:href="../../d9/df9/class_dot_node_list.html" target="_top" xlink:title="Class representing a list of DotNode objects. ">
<polygon fill="white" stroke="black" points="21.5,-223.5 21.5,-242.5 92.5,-242.5 92.5,-223.5 21.5,-223.5"/>
<text text-anchor="middle" x="57" y="-230.5" font-family="Helvetica,sans-Serif" font-size="10.00">DotNodeList</text>
</a>
</g>
</g>
<!-- Node4&#45;&gt;Node3 -->
<g id="edge3" class="edge"><title>Node4&#45;&gt;Node3</title>
<path fill="none" stroke="#9a32cd" stroke-dasharray="5,2" d="M57,-213.037C57,-200.67 57,-185.12 57,-175.627"/>
<polygon fill="#9a32cd" stroke="#9a32cd" points="53.5001,-213.234 57,-223.234 60.5001,-213.234 53.5001,-213.234"/>
<text text-anchor="middle" x="97" y="-197" font-family="Helvetica,sans-Serif" font-size="10.00"> m_rootSubgraphs</text>
</g>
<!-- Node5 -->
<g id="node5" class="node"><title>Node5</title>
<polygon fill="white" stroke="#bfbfbf" points="8.5,-280.5 8.5,-299.5 105.5,-299.5 105.5,-280.5 8.5,-280.5"/>
<text text-anchor="middle" x="57" y="-287.5" font-family="Helvetica,sans-Serif" font-size="10.00">QList&lt; DotNode &gt;</text>
</g>
<!-- Node5&#45;&gt;Node4 -->
<g id="edge4" class="edge"><title>Node5&#45;&gt;Node4</title>
<path fill="none" stroke="midnightblue" d="M57,-270.117C57,-260.817 57,-250.056 57,-242.715"/>
<polygon fill="midnightblue" stroke="midnightblue" points="53.5001,-270.406 57,-280.406 60.5001,-270.406 53.5001,-270.406"/>
</g>
<!-- Node6 -->
<g id="node6" class="node"><title>Node6</title>
<g id="a_node6"><a xlink:href="../../dd/d9b/class_scoped_ptr.html" target="_top" xlink:title="Scoped smart pointer. ">
<polygon fill="white" stroke="black" points="132,-156.5 132,-175.5 218,-175.5 218,-156.5 132,-156.5"/>
<text text-anchor="middle" x="175" y="-163.5" font-family="Helvetica,sans-Serif" font-size="10.00">ScopedPtr&lt; T &gt;</text>
</a>
</g>
</g>
<!-- Node6&#45;&gt;Node2 -->
<g id="edge5" class="edge"><title>Node6&#45;&gt;Node2</title>
<path fill="none" stroke="orange" stroke-dasharray="5,2" d="M162.73,-148.039C153.998,-135.968 142.403,-119.94 134.183,-108.576"/>
<polygon fill="orange" stroke="orange" points="160.049,-150.304 168.746,-156.355 165.721,-146.202 160.049,-150.304"/>
<text text-anchor="middle" x="214.5" y="-130" font-family="Helvetica,sans-Serif" font-size="10.00"> &lt; DotGfxHierarchyTable &gt;</text>
</g>
<!-- Node7 -->
<g id="node7" class="node"><title>Node7</title>
<polygon fill="white" stroke="#bfbfbf" points="211.5,-223.5 211.5,-242.5 240.5,-242.5 240.5,-223.5 211.5,-223.5"/>
<text text-anchor="middle" x="226" y="-230.5" font-family="Helvetica,sans-Serif" font-size="10.00">T</text>
</g>
<!-- Node7&#45;&gt;Node6 -->
<g id="edge6" class="edge"><title>Node7&#45;&gt;Node6</title>
<path fill="none" stroke="#9a32cd" stroke-dasharray="5,2" d="M212.874,-215.27C202.93,-202.597 189.673,-185.701 181.769,-175.627"/>
<polygon fill="#9a32cd" stroke="#9a32cd" points="210.195,-217.527 219.122,-223.234 215.703,-213.206 210.195,-217.527"/>
<text text-anchor="middle" x="218" y="-197" font-family="Helvetica,sans-Serif" font-size="10.00"> m_ptr</text>
</g>
<!-- Node12 -->
<g id="node12" class="node"><title>Node12</title>
<g id="a_node12"><a xlink:href="../../df/d12/class_shared_ptr.html" target="_top" xlink:title="Reference counting smart pointer. ">
<polygon fill="white" stroke="black" points="236,-156.5 236,-175.5 320,-175.5 320,-156.5 236,-156.5"/>
<text text-anchor="middle" x="278" y="-163.5" font-family="Helvetica,sans-Serif" font-size="10.00">SharedPtr&lt; T &gt;</text>
</a>
</g>
</g>
<!-- Node7&#45;&gt;Node12 -->
<g id="edge12" class="edge"><title>Node7&#45;&gt;Node12</title>
<path fill="none" stroke="#9a32cd" stroke-dasharray="5,2" d="M239.384,-215.27C249.522,-202.597 263.039,-185.701 271.098,-175.627"/>
<polygon fill="#9a32cd" stroke="#9a32cd" points="236.527,-213.239 233.013,-223.234 241.993,-217.612 236.527,-213.239"/>
<text text-anchor="middle" x="270" y="-197" font-family="Helvetica,sans-Serif" font-size="10.00"> m_ptr</text>
</g>
<!-- Node8 -->
<g id="node8" class="node"><title>Node8</title>
<g id="a_node8"><a xlink:href="../../df/d12/class_shared_ptr.html" target="_top" xlink:title="SharedPtr\&lt; TemplateList \&gt;">
<polygon fill="white" stroke="black" points="215,-84 215,-103 349,-103 349,-84 215,-84"/>
<text text-anchor="middle" x="282" y="-91" font-family="Helvetica,sans-Serif" font-size="10.00">SharedPtr&lt; TemplateList &gt;</text>
</a>
</g>
</g>
<!-- Node8&#45;&gt;Node1 -->
<g id="edge7" class="edge"><title>Node8&#45;&gt;Node1</title>
<path fill="none" stroke="#9a32cd" stroke-dasharray="5,2" d="M267.363,-76.1406C255.202,-62.5495 238.085,-43.4181 226.544,-30.5198"/>
<polygon fill="#9a32cd" stroke="#9a32cd" points="264.923,-78.6632 274.2,-83.7818 270.14,-73.9956 264.923,-78.6632"/>
<text text-anchor="middle" x="274.5" y="-52" font-family="Helvetica,sans-Serif" font-size="10.00"> diagrams</text>
</g>
<!-- Node9 -->
<g id="node9" class="node"><title>Node9</title>
<g id="a_node9"><a xlink:href="../../de/dab/class_template_list.html" target="_top" xlink:title="Default implementation of a context value of type list. ">
<polygon fill="white" stroke="black" points="342.5,-156.5 342.5,-175.5 415.5,-175.5 415.5,-156.5 342.5,-156.5"/>
<text text-anchor="middle" x="379" y="-163.5" font-family="Helvetica,sans-Serif" font-size="10.00">TemplateList</text>
</a>
</g>
</g>
<!-- Node9&#45;&gt;Node8 -->
<g id="edge8" class="edge"><title>Node9&#45;&gt;Node8</title>
<path fill="none" stroke="#9a32cd" stroke-dasharray="5,2" d="M371.558,-146.976C367.98,-140.023 363.12,-132.449 357,-127 344.6,-115.959 327.868,-108.222 313.355,-103.075"/>
<polygon fill="#9a32cd" stroke="#9a32cd" points="368.531,-148.769 375.882,-156.398 374.893,-145.85 368.531,-148.769"/>
<text text-anchor="middle" x="381" y="-130" font-family="Helvetica,sans-Serif" font-size="10.00"> m_ptr</text>
</g>
<!-- Node10 -->
<g id="node10" class="node"><title>Node10</title>
<g id="a_node10"><a xlink:href="../../d6/d88/class_template_list_intf.html" target="_top" xlink:title="Abstract read&#45;only interface for a context value of type list. ">
<polygon fill="white" stroke="black" points="319.5,-223.5 319.5,-242.5 406.5,-242.5 406.5,-223.5 319.5,-223.5"/>
<text text-anchor="middle" x="363" y="-230.5" font-family="Helvetica,sans-Serif" font-size="10.00">TemplateListIntf</text>
</a>
</g>
</g>
<!-- Node10&#45;&gt;Node9 -->
<g id="edge9" class="edge"><title>Node10&#45;&gt;Node9</title>
<path fill="none" stroke="midnightblue" d="M367.575,-213.415C370.634,-200.988 374.516,-185.217 376.876,-175.627"/>
<polygon fill="midnightblue" stroke="midnightblue" points="364.15,-212.687 365.158,-223.234 370.947,-214.36 364.15,-212.687"/>
</g>
<!-- Node11 -->
<g id="node11" class="node"><title>Node11</title>
<g id="a_node11"><a xlink:href="../../d5/dee/class_template_list_1_1_private.html" target="_top" xlink:title="Private data of a template list object. ">
<polygon fill="white" stroke="black" points="425,-223.5 425,-242.5 535,-242.5 535,-223.5 425,-223.5"/>
<text text-anchor="middle" x="480" y="-230.5" font-family="Helvetica,sans-Serif" font-size="10.00">TemplateList::Private</text>
</a>
</g>
</g>
<!-- Node11&#45;&gt;Node9 -->
<g id="edge10" class="edge"><title>Node11&#45;&gt;Node9</title>
<path fill="none" stroke="#9a32cd" stroke-dasharray="5,2" d="M457.887,-217.769C437.895,-204.903 409.112,-186.379 392.406,-175.627"/>
<polygon fill="#9a32cd" stroke="#9a32cd" points="456.075,-220.765 466.379,-223.234 459.864,-214.879 456.075,-220.765"/>
<text text-anchor="middle" x="440.5" y="-197" font-family="Helvetica,sans-Serif" font-size="10.00"> p</text>
</g>
<!-- Node12&#45;&gt;Node8 -->
<g id="edge11" class="edge"><title>Node12&#45;&gt;Node8</title>
<path fill="none" stroke="orange" stroke-dasharray="5,2" d="M278.26,-145.78C278.408,-139.763 278.638,-133.102 279,-127 279.483,-118.855 280.371,-109.59 281.057,-103.042"/>
<polygon fill="orange" stroke="orange" points="274.752,-146.176 278.067,-156.239 281.751,-146.305 274.752,-146.176"/>
<text text-anchor="middle" x="318" y="-130" font-family="Helvetica,sans-Serif" font-size="10.00"> &lt; TemplateList &gt;</text>
</g>
</g>
</svg>
        <g id="navigator" transform="translate(0 0)" fill="#404254">
                <rect fill="#f2f5e9" fill-opacity="0.5" stroke="#606060" stroke-width=".5" x="0" y="0" width="60" height="60"/>
                <use id="zoomplus" xlink:href="#zoomPlus" x="17" y="9" onmousedown="handleZoom(evt,'in')"/>
                <use id="zoomminus" xlink:href="#zoomMin" x="42" y="9" onmousedown="handleZoom(evt,'out')"/>
                <use id="reset" xlink:href="#resetDef" x="30" y="36" onmousedown="handleReset()"/>
                <g id="arrowUp" xlink:href="#dirArrow" transform="translate(30 24)" onmousedown="handlePan(0,-1)">
                  <use xlink:href="#rim" fill="#404040">
                        <set attributeName="fill" to="#808080" begin="arrowUp.mouseover" end="arrowUp.mouseout"/>
                  </use>
                  <path fill="none" stroke="white" stroke-width="1.5" d="M0,-3.0v7 M-2.5,-0.5L0,-3.0L2.5,-0.5"/>
                </g>
                <g id="arrowRight" xlink:href="#dirArrow" transform="rotate(90) translate(36 -43)" onmousedown="handlePan(1,0)">
                  <use xlink:href="#rim" fill="#404040">
                        <set attributeName="fill" to="#808080" begin="arrowRight.mouseover" end="arrowRight.mouseout"/>
                  </use>
                  <path fill="none" stroke="white" stroke-width="1.5" d="M0,-3.0v7 M-2.5,-0.5L0,-3.0L2.5,-0.5"/>
                </g>
                <g id="arrowDown" xlink:href="#dirArrow" transform="rotate(180) translate(-30 -48)" onmousedown="handlePan(0,1)">
                  <use xlink:href="#rim" fill="#404040">
                        <set attributeName="fill" to="#808080" begin="arrowDown.mouseover" end="arrowDown.mouseout"/>
                  </use>
                  <path fill="none" stroke="white" stroke-width="1.5" d="M0,-3.0v7 M-2.5,-0.5L0,-3.0L2.5,-0.5"/>
                </g>
                <g id="arrowLeft" xlink:href="#dirArrow" transform="rotate(270) translate(-36 17)" onmousedown="handlePan(-1,0)">
                  <use xlink:href="#rim" fill="#404040">
                        <set attributeName="fill" to="#808080" begin="arrowLeft.mouseover" end="arrowLeft.mouseout"/>
                  </use>
                  <path fill="none" stroke="white" stroke-width="1.5" d="M0,-3.0v7 M-2.5,-0.5L0,-3.0L2.5,-0.5"/>
                </g>
        </g>
        <svg viewBox="0 0 15 15" width="100%" height="30px" preserveAspectRatio="xMaxYMin meet">
         <g id="arrow_out" transform="scale(0.3 0.3)">
          <a xlink:href="struct_class_hierarchy_context_1_1_private_1_1_cachable__coll__graph_org.svg" target="_base">
           <rect id="button" ry="5" rx="5" y="6" x="6" height="38" width="38"
                fill="#f2f5e9" fill-opacity="0.5" stroke="#606060" stroke-width="1.0"/>
           <path id="arrow"
             d="M 11.500037,31.436501 C 11.940474,20.09759 22.043105,11.32322 32.158766,21.979434 L 37.068811,17.246167 C 37.068811,17.246167 37.088388,32 37.088388,32 L 22.160133,31.978069 C 22.160133,31.978069 26.997745,27.140456 26.997745,27.140456 C 18.528582,18.264221 13.291696,25.230495 11.500037,31.436501 z"
             style="fill:#404040;"/>
          </a>
         </g>
        </svg>
</svg>
