<?xml version="1.0" encoding="UTF-8" standalone="no"?>
<!DOCTYPE svg PUBLIC "-//W3C//DTD SVG 1.1//EN"
 "http://www.w3.org/Graphics/SVG/1.1/DTD/svg11.dtd">
<!-- Generated by graphviz version 2.38.0 (20140413.2041)
 -->
<!-- Title: src/xmlscanner.h Pages: 1 -->
<svg width="209pt" height="196pt"
 viewBox="0.00 0.00 209.00 196.00" xmlns="http://www.w3.org/2000/svg" xmlns:xlink="http://www.w3.org/1999/xlink">
<g id="graph0" class="graph" transform="scale(1 1) rotate(0) translate(4 192)">
<title>src/xmlscanner.h</title>
<polygon fill="white" stroke="none" points="-4,4 -4,-192 205,-192 205,4 -4,4"/>
<!-- Node0 -->
<g id="node1" class="node"><title>Node0</title>
<polygon fill="#bfbfbf" stroke="black" points="83,-168.5 83,-187.5 175,-187.5 175,-168.5 83,-168.5"/>
<text text-anchor="middle" x="129" y="-175.5" font-family="Helvetica,sans-Serif" font-size="10.00">src/xmlscanner.h</text>
</g>
<!-- Node1 -->
<g id="node2" class="node"><title>Node1</title>
<g id="a_node2"><a xlink:href="../../da/d55/parserintf_8h.html" target="_top" xlink:title="parserintf.h">
<polygon fill="white" stroke="black" points="55.5,-112.5 55.5,-131.5 120.5,-131.5 120.5,-112.5 55.5,-112.5"/>
<text text-anchor="middle" x="88" y="-119.5" font-family="Helvetica,sans-Serif" font-size="10.00">parserintf.h</text>
</a>
</g>
</g>
<!-- Node0&#45;&gt;Node1 -->
<g id="edge1" class="edge"><title>Node0&#45;&gt;Node1</title>
<path fill="none" stroke="midnightblue" d="M122.23,-168.083C116.438,-160.455 107.942,-149.264 100.862,-139.941"/>
<polygon fill="midnightblue" stroke="midnightblue" points="103.479,-137.599 94.6443,-131.751 97.9039,-141.832 103.479,-137.599"/>
</g>
<!-- Node6 -->
<g id="node7" class="node"><title>Node6</title>
<g id="a_node7"><a xlink:href="../../d3/de2/xmlcode_8h.html" target="_top" xlink:title="xmlcode.h">
<polygon fill="white" stroke="black" points="139,-112.5 139,-131.5 201,-131.5 201,-112.5 139,-112.5"/>
<text text-anchor="middle" x="170" y="-119.5" font-family="Helvetica,sans-Serif" font-size="10.00">xmlcode.h</text>
</a>
</g>
</g>
<!-- Node0&#45;&gt;Node6 -->
<g id="edge6" class="edge"><title>Node0&#45;&gt;Node6</title>
<path fill="none" stroke="midnightblue" d="M135.77,-168.083C141.562,-160.455 150.058,-149.264 157.138,-139.941"/>
<polygon fill="midnightblue" stroke="midnightblue" points="160.096,-141.832 163.356,-131.751 154.521,-137.599 160.096,-141.832"/>
</g>
<!-- Node2 -->
<g id="node3" class="node"><title>Node2</title>
<polygon fill="white" stroke="#bfbfbf" points="0,-56.5 0,-75.5 46,-75.5 46,-56.5 0,-56.5"/>
<text text-anchor="middle" x="23" y="-63.5" font-family="Helvetica,sans-Serif" font-size="10.00">qdict.h</text>
</g>
<!-- Node1&#45;&gt;Node2 -->
<g id="edge2" class="edge"><title>Node1&#45;&gt;Node2</title>
<path fill="none" stroke="midnightblue" d="M77.5566,-112.324C67.8538,-104.263 53.1847,-92.0765 41.5003,-82.3695"/>
<polygon fill="midnightblue" stroke="midnightblue" points="43.5619,-79.532 33.6334,-75.8339 39.0887,-84.9163 43.5619,-79.532"/>
</g>
<!-- Node3 -->
<g id="node4" class="node"><title>Node3</title>
<polygon fill="white" stroke="#bfbfbf" points="64,-56.5 64,-75.5 118,-75.5 118,-56.5 64,-56.5"/>
<text text-anchor="middle" x="91" y="-63.5" font-family="Helvetica,sans-Serif" font-size="10.00">qstrlist.h</text>
</g>
<!-- Node1&#45;&gt;Node3 -->
<g id="edge3" class="edge"><title>Node1&#45;&gt;Node3</title>
<path fill="none" stroke="midnightblue" d="M88.4954,-112.083C88.8886,-105.006 89.4522,-94.8611 89.9452,-85.9865"/>
<polygon fill="midnightblue" stroke="midnightblue" points="93.4536,-85.9299 90.5138,-75.7511 86.4644,-85.5415 93.4536,-85.9299"/>
</g>
<!-- Node4 -->
<g id="node5" class="node"><title>Node4</title>
<g id="a_node5"><a xlink:href="../../d9/d49/types_8h.html" target="_top" xlink:title="This file contains a number of basic enums and types. ">
<polygon fill="white" stroke="black" points="139.5,-56.5 139.5,-75.5 188.5,-75.5 188.5,-56.5 139.5,-56.5"/>
<text text-anchor="middle" x="164" y="-63.5" font-family="Helvetica,sans-Serif" font-size="10.00">types.h</text>
</a>
</g>
</g>
<!-- Node1&#45;&gt;Node4 -->
<g id="edge4" class="edge"><title>Node1&#45;&gt;Node4</title>
<path fill="none" stroke="midnightblue" d="M100.211,-112.324C111.776,-104.107 129.375,-91.6017 143.161,-81.8069"/>
<polygon fill="midnightblue" stroke="midnightblue" points="145.443,-84.4791 151.567,-75.8339 141.388,-78.7729 145.443,-84.4791"/>
</g>
<!-- Node5 -->
<g id="node6" class="node"><title>Node5</title>
<polygon fill="white" stroke="#bfbfbf" points="134.5,-0.5 134.5,-19.5 193.5,-19.5 193.5,-0.5 134.5,-0.5"/>
<text text-anchor="middle" x="164" y="-7.5" font-family="Helvetica,sans-Serif" font-size="10.00">qcstring.h</text>
</g>
<!-- Node4&#45;&gt;Node5 -->
<g id="edge5" class="edge"><title>Node4&#45;&gt;Node5</title>
<path fill="none" stroke="midnightblue" d="M164,-56.083C164,-49.0059 164,-38.8611 164,-29.9865"/>
<polygon fill="midnightblue" stroke="midnightblue" points="167.5,-29.751 164,-19.7511 160.5,-29.7511 167.5,-29.751"/>
</g>
<!-- Node6&#45;&gt;Node4 -->
<g id="edge7" class="edge"><title>Node6&#45;&gt;Node4</title>
<path fill="none" stroke="midnightblue" d="M169.009,-112.083C168.214,-104.927 167.071,-94.6353 166.077,-85.6911"/>
<polygon fill="midnightblue" stroke="midnightblue" points="169.555,-85.3034 164.972,-75.7511 162.598,-86.0765 169.555,-85.3034"/>
</g>
</g>
</svg>
