<?xml version="1.0" encoding="UTF-8" standalone="no"?>
<!DOCTYPE svg PUBLIC "-//W3C//DTD SVG 1.1//EN"
 "http://www.w3.org/Graphics/SVG/1.1/DTD/svg11.dtd">
<!-- Generated by graphviz version 2.38.0 (20140413.2041)
 -->
<!-- Title: src/msc.cpp Pages: 1 -->
<!--zoomable 364 -->
<svg id="main" version="1.1" xmlns="http://www.w3.org/2000/svg" xmlns:xlink="http://www.w3.org/1999/xlink" xml:space="preserve" onload="init(evt)">
<style type="text/css"><![CDATA[
.edge:hover path { stroke: red; }
.edge:hover polygon { stroke: red; fill: red; }
]]></style>
<script type="text/javascript"><![CDATA[
var edges = document.getElementsByTagName('g');
if (edges && edges.length) {
  for (var i=0;i<edges.length;i++) {
    if (edges[i].id.substr(0,4)=='edge') {
      edges[i].setAttribute('class','edge');
    }
  }
}
]]></script>
        <defs>
                <circle id="rim" cx="0" cy="0" r="7"/>
                <circle id="rim2" cx="0" cy="0" r="3.5"/>
                <g id="zoomPlus">
                        <use xlink:href="#rim" fill="#404040">
                                <set attributeName="fill" to="#808080" begin="zoomplus.mouseover" end="zoomplus.mouseout"/>
                        </use>
                        <path d="M-4,0h8M0,-4v8" fill="none" stroke="white" stroke-width="1.5" pointer-events="none"/>
                </g>
                <g id="zoomMin">
                        <use xlink:href="#rim" fill="#404040">
                                <set attributeName="fill" to="#808080" begin="zoomminus.mouseover" end="zoomminus.mouseout"/>
                        </use>
                        <path d="M-4,0h8" fill="none" stroke="white" stroke-width="1.5" pointer-events="none"/>
                </g>
                <g id="dirArrow">
                        <path fill="none" stroke="white" stroke-width="1.5" d="M0,-3.0v7 M-2.5,-0.5L0,-3.0L2.5,-0.5"/>
                </g>
               <g id="resetDef">
                       <use xlink:href="#rim2" fill="#404040">
                               <set attributeName="fill" to="#808080" begin="reset.mouseover" end="reset.mouseout"/>
                       </use>
               </g>
        </defs>

<script type="text/javascript">
var viewWidth = 1419;
var viewHeight = 364;
var sectionId = 'dynsection-0';
</script>
<script xlink:href="../../svgpan.js"/>
<svg id="graph" class="graph">
<g id="viewport">
<title>src/msc.cpp</title>
<polygon fill="white" stroke="none" points="-4,4 -4,-360 1415,-360 1415,4 -4,4"/>
<!-- Node0 -->
<g id="node1" class="node"><title>Node0</title>
<polygon fill="#bfbfbf" stroke="black" points="425.5,-336.5 425.5,-355.5 496.5,-355.5 496.5,-336.5 425.5,-336.5"/>
<text text-anchor="middle" x="461" y="-343.5" font-family="Helvetica,sans-Serif" font-size="10.00">src/msc.cpp</text>
</g>
<!-- Node1 -->
<g id="node2" class="node"><title>Node1</title>
<g id="a_node2"><a xlink:href="../../dc/d66/msc_8h.html" target="_top" xlink:title="msc.h">
<polygon fill="white" stroke="black" points="0,-280.5 0,-299.5 44,-299.5 44,-280.5 0,-280.5"/>
<text text-anchor="middle" x="22" y="-287.5" font-family="Helvetica,sans-Serif" font-size="10.00">msc.h</text>
</a>
</g>
</g>
<!-- Node0&#45;&gt;Node1 -->
<g id="edge1" class="edge"><title>Node0&#45;&gt;Node1</title>
<path fill="none" stroke="midnightblue" d="M425.486,-343.151C355.927,-339.087 196.811,-327.611 54.4565,-299.973"/>
<polygon fill="midnightblue" stroke="midnightblue" points="54.726,-296.458 44.2374,-297.955 53.3699,-303.326 54.726,-296.458"/>
</g>
<!-- Node2 -->
<g id="node3" class="node"><title>Node2</title>
<g id="a_node3"><a xlink:href="../../d2/de2/portable_8h.html" target="_top" xlink:title="Portable versions of functions that are platform dependent. ">
<polygon fill="white" stroke="black" points="91.5,-168.5 91.5,-187.5 150.5,-187.5 150.5,-168.5 91.5,-168.5"/>
<text text-anchor="middle" x="121" y="-175.5" font-family="Helvetica,sans-Serif" font-size="10.00">portable.h</text>
</a>
</g>
</g>
<!-- Node0&#45;&gt;Node2 -->
<g id="edge2" class="edge"><title>Node0&#45;&gt;Node2</title>
<path fill="none" stroke="midnightblue" d="M425.281,-343.324C358.564,-339.552 218.3,-328.394 180,-300 162.282,-286.864 138.618,-227.323 127.408,-196.946"/>
<polygon fill="midnightblue" stroke="midnightblue" points="130.696,-195.745 123.992,-187.541 124.116,-198.135 130.696,-195.745"/>
</g>
<!-- Node6 -->
<g id="node7" class="node"><title>Node6</title>
<g id="a_node7"><a xlink:href="../../db/d16/config_8h.html" target="_top" xlink:title="config.h">
<polygon fill="white" stroke="black" points="945.5,-280.5 945.5,-299.5 996.5,-299.5 996.5,-280.5 945.5,-280.5"/>
<text text-anchor="middle" x="971" y="-287.5" font-family="Helvetica,sans-Serif" font-size="10.00">config.h</text>
</a>
</g>
</g>
<!-- Node0&#45;&gt;Node6 -->
<g id="edge6" class="edge"><title>Node0&#45;&gt;Node6</title>
<path fill="none" stroke="midnightblue" d="M496.709,-343.537C574.658,-339.932 765.948,-328.856 935.63,-299.769"/>
<polygon fill="midnightblue" stroke="midnightblue" points="936.234,-303.217 945.487,-298.055 935.035,-296.32 936.234,-303.217"/>
</g>
<!-- Node8 -->
<g id="node9" class="node"><title>Node8</title>
<g id="a_node9"><a xlink:href="../../d2/d0d/message_8h.html" target="_top" xlink:title="message.h">
<polygon fill="white" stroke="black" points="62.5,-280.5 62.5,-299.5 127.5,-299.5 127.5,-280.5 62.5,-280.5"/>
<text text-anchor="middle" x="95" y="-287.5" font-family="Helvetica,sans-Serif" font-size="10.00">message.h</text>
</a>
</g>
</g>
<!-- Node0&#45;&gt;Node8 -->
<g id="edge8" class="edge"><title>Node0&#45;&gt;Node8</title>
<path fill="none" stroke="midnightblue" d="M425.032,-340.511C365.865,-332.995 244.347,-317.008 142,-300 140.54,-299.757 139.056,-299.505 137.558,-299.245"/>
<polygon fill="midnightblue" stroke="midnightblue" points="138.04,-295.776 127.579,-297.453 136.803,-302.666 138.04,-295.776"/>
</g>
<!-- Node10 -->
<g id="node11" class="node"><title>Node10</title>
<g id="a_node11"><a xlink:href="../../de/d9c/docparser_8h.html" target="_top" xlink:title="docparser.h">
<polygon fill="white" stroke="black" points="479,-168.5 479,-187.5 547,-187.5 547,-168.5 479,-168.5"/>
<text text-anchor="middle" x="513" y="-175.5" font-family="Helvetica,sans-Serif" font-size="10.00">docparser.h</text>
</a>
</g>
</g>
<!-- Node0&#45;&gt;Node10 -->
<g id="edge11" class="edge"><title>Node0&#45;&gt;Node10</title>
<path fill="none" stroke="midnightblue" d="M463.796,-336.075C472.016,-309.832 496.227,-232.545 507.325,-197.117"/>
<polygon fill="midnightblue" stroke="midnightblue" points="510.667,-198.157 510.316,-187.568 503.987,-196.065 510.667,-198.157"/>
</g>
<!-- Node15 -->
<g id="node16" class="node"><title>Node15</title>
<g id="a_node16"><a xlink:href="../../d1/da1/doxygen_8h.html" target="_top" xlink:title="doxygen.h">
<polygon fill="white" stroke="black" points="865,-280.5 865,-299.5 927,-299.5 927,-280.5 865,-280.5"/>
<text text-anchor="middle" x="896" y="-287.5" font-family="Helvetica,sans-Serif" font-size="10.00">doxygen.h</text>
</a>
</g>
</g>
<!-- Node0&#45;&gt;Node15 -->
<g id="edge19" class="edge"><title>Node0&#45;&gt;Node15</title>
<path fill="none" stroke="midnightblue" d="M496.598,-340.581C576.558,-330.655 770.029,-306.638 854.916,-296.1"/>
<polygon fill="midnightblue" stroke="midnightblue" points="855.462,-299.559 864.954,-294.854 854.599,-292.613 855.462,-299.559"/>
</g>
<!-- Node21 -->
<g id="node22" class="node"><title>Node21</title>
<g id="a_node22"><a xlink:href="../../df/d83/ftextstream_8h.html" target="_top" xlink:title="ftextstream.h">
<polygon fill="white" stroke="black" points="385,-224.5 385,-243.5 459,-243.5 459,-224.5 385,-224.5"/>
<text text-anchor="middle" x="422" y="-231.5" font-family="Helvetica,sans-Serif" font-size="10.00">ftextstream.h</text>
</a>
</g>
</g>
<!-- Node0&#45;&gt;Node21 -->
<g id="edge64" class="edge"><title>Node0&#45;&gt;Node21</title>
<path fill="none" stroke="midnightblue" d="M457.94,-336.368C451.618,-318.537 436.996,-277.295 428.478,-253.272"/>
<polygon fill="midnightblue" stroke="midnightblue" points="431.687,-251.847 425.046,-243.591 425.089,-254.186 431.687,-251.847"/>
</g>
<!-- Node32 -->
<g id="node33" class="node"><title>Node32</title>
<g id="a_node33"><a xlink:href="../../d1/db5/index_8h.html" target="_top" xlink:title="index.h">
<polygon fill="white" stroke="black" points="171,-112.5 171,-131.5 219,-131.5 219,-112.5 171,-112.5"/>
<text text-anchor="middle" x="195" y="-119.5" font-family="Helvetica,sans-Serif" font-size="10.00">index.h</text>
</a>
</g>
</g>
<!-- Node0&#45;&gt;Node32 -->
<g id="edge55" class="edge"><title>Node0&#45;&gt;Node32</title>
<path fill="none" stroke="midnightblue" d="M428.377,-336.496C370.259,-319.417 250.028,-274.92 198,-188 189.75,-174.218 189.739,-155.693 191.36,-141.946"/>
<polygon fill="midnightblue" stroke="midnightblue" points="194.87,-142.153 192.96,-131.732 187.955,-141.069 194.87,-142.153"/>
</g>
<!-- Node33 -->
<g id="node34" class="node"><title>Node33</title>
<g id="a_node34"><a xlink:href="../../d8/d3c/util_8h.html" target="_top" xlink:title="A bunch of utility functions. ">
<polygon fill="white" stroke="black" points="589,-224.5 589,-243.5 627,-243.5 627,-224.5 589,-224.5"/>
<text text-anchor="middle" x="608" y="-231.5" font-family="Helvetica,sans-Serif" font-size="10.00">util.h</text>
</a>
</g>
</g>
<!-- Node0&#45;&gt;Node33 -->
<g id="edge58" class="edge"><title>Node0&#45;&gt;Node33</title>
<path fill="none" stroke="midnightblue" d="M472.535,-336.368C497.545,-317.653 557.017,-273.151 588.178,-249.832"/>
<polygon fill="midnightblue" stroke="midnightblue" points="590.609,-252.385 596.519,-243.591 586.415,-246.78 590.609,-252.385"/>
</g>
<!-- Node35 -->
<g id="node36" class="node"><title>Node35</title>
<polygon fill="white" stroke="#bfbfbf" points="1014.5,-280.5 1014.5,-299.5 1055.5,-299.5 1055.5,-280.5 1014.5,-280.5"/>
<text text-anchor="middle" x="1035" y="-287.5" font-family="Helvetica,sans-Serif" font-size="10.00">qdir.h</text>
</g>
<!-- Node0&#45;&gt;Node35 -->
<g id="edge65" class="edge"><title>Node0&#45;&gt;Node35</title>
<path fill="none" stroke="midnightblue" d="M496.754,-344.737C582.938,-343.534 808.898,-336.979 1004.36,-299.944"/>
<polygon fill="midnightblue" stroke="midnightblue" points="1005.07,-303.371 1014.23,-298.042 1003.75,-296.497 1005.07,-303.371"/>
</g>
<!-- Node3 -->
<g id="node4" class="node"><title>Node3</title>
<polygon fill="white" stroke="#bfbfbf" points="547,-112.5 547,-131.5 615,-131.5 615,-112.5 547,-112.5"/>
<text text-anchor="middle" x="581" y="-119.5" font-family="Helvetica,sans-Serif" font-size="10.00">sys/types.h</text>
</g>
<!-- Node2&#45;&gt;Node3 -->
<g id="edge3" class="edge"><title>Node2&#45;&gt;Node3</title>
<path fill="none" stroke="midnightblue" d="M150.609,-173.465C164.921,-171.775 182.35,-169.746 198,-168 348.58,-151.205 387.274,-155.208 537,-132 537.101,-131.984 537.202,-131.969 537.304,-131.953"/>
<polygon fill="midnightblue" stroke="midnightblue" points="537.683,-135.439 546.948,-130.301 536.501,-128.539 537.683,-135.439"/>
</g>
<!-- Node4 -->
<g id="node5" class="node"><title>Node4</title>
<polygon fill="white" stroke="#bfbfbf" points="237,-112.5 237,-131.5 283,-131.5 283,-112.5 237,-112.5"/>
<text text-anchor="middle" x="260" y="-119.5" font-family="Helvetica,sans-Serif" font-size="10.00">stdio.h</text>
</g>
<!-- Node2&#45;&gt;Node4 -->
<g id="edge4" class="edge"><title>Node2&#45;&gt;Node4</title>
<path fill="none" stroke="midnightblue" d="M143.025,-168.444C166.104,-159.478 202.562,-145.314 228.641,-135.183"/>
<polygon fill="midnightblue" stroke="midnightblue" points="230.024,-138.4 238.078,-131.516 227.489,-131.875 230.024,-138.4"/>
</g>
<!-- Node5 -->
<g id="node6" class="node"><title>Node5</title>
<polygon fill="white" stroke="#bfbfbf" points="93,-112.5 93,-131.5 149,-131.5 149,-112.5 93,-112.5"/>
<text text-anchor="middle" x="121" y="-119.5" font-family="Helvetica,sans-Serif" font-size="10.00">qglobal.h</text>
</g>
<!-- Node2&#45;&gt;Node5 -->
<g id="edge5" class="edge"><title>Node2&#45;&gt;Node5</title>
<path fill="none" stroke="midnightblue" d="M121,-168.083C121,-161.006 121,-150.861 121,-141.986"/>
<polygon fill="midnightblue" stroke="midnightblue" points="124.5,-141.751 121,-131.751 117.5,-141.751 124.5,-141.751"/>
</g>
<!-- Node7 -->
<g id="node8" class="node"><title>Node7</title>
<polygon fill="white" stroke="#bfbfbf" points="1331,-224.5 1331,-243.5 1411,-243.5 1411,-224.5 1331,-224.5"/>
<text text-anchor="middle" x="1371" y="-231.5" font-family="Helvetica,sans-Serif" font-size="10.00">configvalues.h</text>
</g>
<!-- Node6&#45;&gt;Node7 -->
<g id="edge7" class="edge"><title>Node6&#45;&gt;Node7</title>
<path fill="none" stroke="midnightblue" d="M996.523,-282.002C999.7,-281.26 1002.92,-280.57 1006,-280 1141.75,-254.939 1180.38,-264.31 1320.65,-244.098"/>
<polygon fill="midnightblue" stroke="midnightblue" points="1321.54,-247.505 1330.93,-242.591 1320.52,-240.579 1321.54,-247.505"/>
</g>
<!-- Node8&#45;&gt;Node4 -->
<g id="edge9" class="edge"><title>Node8&#45;&gt;Node4</title>
<path fill="none" stroke="midnightblue" d="M87.5876,-280.411C80.7236,-271.844 70.9939,-257.979 67,-244 57.5415,-210.895 57.413,-192.101 82,-168 127.49,-123.409 160.193,-146.604 226.864,-132.017"/>
<polygon fill="midnightblue" stroke="midnightblue" points="228.055,-135.33 236.952,-129.578 226.41,-128.526 228.055,-135.33"/>
</g>
<!-- Node9 -->
<g id="node10" class="node"><title>Node9</title>
<polygon fill="white" stroke="#bfbfbf" points="76,-224.5 76,-243.5 128,-243.5 128,-224.5 76,-224.5"/>
<text text-anchor="middle" x="102" y="-231.5" font-family="Helvetica,sans-Serif" font-size="10.00">stdarg.h</text>
</g>
<!-- Node8&#45;&gt;Node9 -->
<g id="edge10" class="edge"><title>Node8&#45;&gt;Node9</title>
<path fill="none" stroke="midnightblue" d="M96.1559,-280.083C97.0835,-272.927 98.4176,-262.635 99.5771,-253.691"/>
<polygon fill="midnightblue" stroke="midnightblue" points="103.051,-254.118 100.866,-243.751 96.109,-253.218 103.051,-254.118"/>
</g>
<!-- Node10&#45;&gt;Node4 -->
<g id="edge12" class="edge"><title>Node10&#45;&gt;Node4</title>
<path fill="none" stroke="midnightblue" d="M478.88,-170.256C436.243,-161.745 361.081,-146.465 297,-132 295.73,-131.713 294.437,-131.418 293.132,-131.116"/>
<polygon fill="midnightblue" stroke="midnightblue" points="293.602,-127.631 283.065,-128.736 291.991,-134.443 293.602,-127.631"/>
</g>
<!-- Node11 -->
<g id="node12" class="node"><title>Node11</title>
<polygon fill="white" stroke="#bfbfbf" points="712.5,-56.5 712.5,-75.5 755.5,-75.5 755.5,-56.5 712.5,-56.5"/>
<text text-anchor="middle" x="734" y="-63.5" font-family="Helvetica,sans-Serif" font-size="10.00">qlist.h</text>
</g>
<!-- Node10&#45;&gt;Node11 -->
<g id="edge13" class="edge"><title>Node10&#45;&gt;Node11</title>
<path fill="none" stroke="midnightblue" d="M494.483,-168.411C470.597,-156.196 434.122,-132.957 452,-112 483.851,-74.6633 635.095,-68.1621 702.017,-67.1331"/>
<polygon fill="midnightblue" stroke="midnightblue" points="702.418,-70.6286 712.374,-67.0078 702.333,-63.6292 702.418,-70.6286"/>
</g>
<!-- Node12 -->
<g id="node13" class="node"><title>Node12</title>
<polygon fill="white" stroke="#bfbfbf" points="305.5,-0.5 305.5,-19.5 364.5,-19.5 364.5,-0.5 305.5,-0.5"/>
<text text-anchor="middle" x="335" y="-7.5" font-family="Helvetica,sans-Serif" font-size="10.00">qcstring.h</text>
</g>
<!-- Node10&#45;&gt;Node12 -->
<g id="edge14" class="edge"><title>Node10&#45;&gt;Node12</title>
<path fill="none" stroke="midnightblue" d="M478.684,-170.907C428.291,-161.616 339.209,-143.748 330,-132 306.847,-102.464 318.412,-55.289 327.537,-29.4331"/>
<polygon fill="midnightblue" stroke="midnightblue" points="330.927,-30.3625 331.19,-19.7709 324.38,-27.8871 330.927,-30.3625"/>
</g>
<!-- Node13 -->
<g id="node14" class="node"><title>Node13</title>
<g id="a_node14"><a xlink:href="../../d2/d3c/docvisitor_8h.html" target="_top" xlink:title="docvisitor.h">
<polygon fill="white" stroke="black" points="461.5,-112.5 461.5,-131.5 528.5,-131.5 528.5,-112.5 461.5,-112.5"/>
<text text-anchor="middle" x="495" y="-119.5" font-family="Helvetica,sans-Serif" font-size="10.00">docvisitor.h</text>
</a>
</g>
</g>
<!-- Node10&#45;&gt;Node13 -->
<g id="edge15" class="edge"><title>Node10&#45;&gt;Node13</title>
<path fill="none" stroke="midnightblue" d="M510.028,-168.083C507.616,-160.849 504.136,-150.409 501.132,-141.397"/>
<polygon fill="midnightblue" stroke="midnightblue" points="504.4,-140.131 497.917,-131.751 497.759,-142.345 504.4,-140.131"/>
</g>
<!-- Node14 -->
<g id="node15" class="node"><title>Node14</title>
<g id="a_node15"><a xlink:href="../../d0/d73/htmlattrib_8h.html" target="_top" xlink:title="htmlattrib.h">
<polygon fill="white" stroke="black" points="339.5,-112.5 339.5,-131.5 404.5,-131.5 404.5,-112.5 339.5,-112.5"/>
<text text-anchor="middle" x="372" y="-119.5" font-family="Helvetica,sans-Serif" font-size="10.00">htmlattrib.h</text>
</a>
</g>
</g>
<!-- Node10&#45;&gt;Node14 -->
<g id="edge16" class="edge"><title>Node10&#45;&gt;Node14</title>
<path fill="none" stroke="midnightblue" d="M490.658,-168.444C467.247,-159.478 430.264,-145.314 403.81,-135.183"/>
<polygon fill="midnightblue" stroke="midnightblue" points="404.828,-131.824 394.237,-131.516 402.324,-138.361 404.828,-131.824"/>
</g>
<!-- Node14&#45;&gt;Node11 -->
<g id="edge18" class="edge"><title>Node14&#45;&gt;Node11</title>
<path fill="none" stroke="midnightblue" d="M404.58,-114.555C409.408,-113.659 414.329,-112.78 419,-112 522.145,-94.7669 644.987,-78.4144 701.998,-71.063"/>
<polygon fill="midnightblue" stroke="midnightblue" points="702.704,-74.5011 712.177,-69.756 701.813,-67.5581 702.704,-74.5011"/>
</g>
<!-- Node14&#45;&gt;Node12 -->
<g id="edge17" class="edge"><title>Node14&#45;&gt;Node12</title>
<path fill="none" stroke="midnightblue" d="M369.097,-112.368C363.099,-94.5366 349.227,-53.2953 341.146,-29.2717"/>
<polygon fill="midnightblue" stroke="midnightblue" points="344.395,-27.9537 337.89,-19.5914 337.761,-30.1855 344.395,-27.9537"/>
</g>
<!-- Node16 -->
<g id="node17" class="node"><title>Node16</title>
<polygon fill="white" stroke="#bfbfbf" points="1245,-224.5 1245,-243.5 1313,-243.5 1313,-224.5 1245,-224.5"/>
<text text-anchor="middle" x="1279" y="-231.5" font-family="Helvetica,sans-Serif" font-size="10.00">qdatetime.h</text>
</g>
<!-- Node15&#45;&gt;Node16 -->
<g id="edge20" class="edge"><title>Node15&#45;&gt;Node16</title>
<path fill="none" stroke="midnightblue" d="M927.28,-281.816C930.554,-281.159 933.839,-280.539 937,-280 1066.77,-257.863 1100.91,-264.14 1231,-244 1232.27,-243.803 1233.56,-243.598 1234.86,-243.386"/>
<polygon fill="midnightblue" stroke="midnightblue" points="1235.69,-246.795 1244.96,-241.659 1234.51,-239.896 1235.69,-246.795"/>
</g>
<!-- Node17 -->
<g id="node18" class="node"><title>Node17</title>
<polygon fill="white" stroke="#bfbfbf" points="664,-224.5 664,-243.5 720,-243.5 720,-224.5 664,-224.5"/>
<text text-anchor="middle" x="692" y="-231.5" font-family="Helvetica,sans-Serif" font-size="10.00">qcache.h</text>
</g>
<!-- Node15&#45;&gt;Node17 -->
<g id="edge21" class="edge"><title>Node15&#45;&gt;Node17</title>
<path fill="none" stroke="midnightblue" d="M864.572,-280.681C828.355,-271.094 768.856,-255.344 730.053,-245.073"/>
<polygon fill="midnightblue" stroke="midnightblue" points="730.74,-241.634 720.177,-242.459 728.948,-248.401 730.74,-241.634"/>
</g>
<!-- Node18 -->
<g id="node19" class="node"><title>Node18</title>
<polygon fill="white" stroke="#bfbfbf" points="738,-224.5 738,-243.5 792,-243.5 792,-224.5 738,-224.5"/>
<text text-anchor="middle" x="765" y="-231.5" font-family="Helvetica,sans-Serif" font-size="10.00">qstrlist.h</text>
</g>
<!-- Node15&#45;&gt;Node18 -->
<g id="edge22" class="edge"><title>Node15&#45;&gt;Node18</title>
<path fill="none" stroke="midnightblue" d="M875.243,-280.444C853.684,-271.557 819.737,-257.563 795.206,-247.451"/>
<polygon fill="midnightblue" stroke="midnightblue" points="796.239,-244.092 785.66,-243.516 793.572,-250.563 796.239,-244.092"/>
</g>
<!-- Node19 -->
<g id="node20" class="node"><title>Node19</title>
<polygon fill="white" stroke="#bfbfbf" points="1006,-56.5 1006,-75.5 1052,-75.5 1052,-56.5 1006,-56.5"/>
<text text-anchor="middle" x="1029" y="-63.5" font-family="Helvetica,sans-Serif" font-size="10.00">qdict.h</text>
</g>
<!-- Node15&#45;&gt;Node19 -->
<g id="edge23" class="edge"><title>Node15&#45;&gt;Node19</title>
<path fill="none" stroke="midnightblue" d="M927.321,-282.037C930.587,-281.337 933.859,-280.647 937,-280 1019.9,-262.925 1053.6,-290.987 1124,-244 1173.62,-210.878 1180.83,-189.137 1198,-132 1214.96,-75.5522 1116.42,-66.9229 1062.47,-66.3464"/>
<polygon fill="midnightblue" stroke="midnightblue" points="1062.33,-62.8462 1052.32,-66.3267 1062.31,-69.8462 1062.33,-62.8462"/>
</g>
<!-- Node20 -->
<g id="node21" class="node"><title>Node20</title>
<polygon fill="white" stroke="#bfbfbf" points="1133,-112.5 1133,-131.5 1189,-131.5 1189,-112.5 1133,-112.5"/>
<text text-anchor="middle" x="1161" y="-119.5" font-family="Helvetica,sans-Serif" font-size="10.00">qintdict.h</text>
</g>
<!-- Node15&#45;&gt;Node20 -->
<g id="edge24" class="edge"><title>Node15&#45;&gt;Node20</title>
<path fill="none" stroke="midnightblue" d="M927.135,-282.165C984.483,-269.577 1101,-244 1101,-244 1134.3,-217.978 1150.45,-168.613 1157.1,-141.678"/>
<polygon fill="midnightblue" stroke="midnightblue" points="1160.57,-142.169 1159.38,-131.641 1153.75,-140.614 1160.57,-142.169"/>
</g>
<!-- Node15&#45;&gt;Node21 -->
<g id="edge25" class="edge"><title>Node15&#45;&gt;Node21</title>
<path fill="none" stroke="midnightblue" d="M864.9,-285.457C783.921,-276.231 566.135,-251.42 469.409,-240.401"/>
<polygon fill="midnightblue" stroke="midnightblue" points="469.662,-236.907 459.33,-239.253 468.87,-243.862 469.662,-236.907"/>
</g>
<!-- Node25 -->
<g id="node26" class="node"><title>Node25</title>
<g id="a_node26"><a xlink:href="../../d9/d21/sortdict_8h.html" target="_top" xlink:title="sortdict.h">
<polygon fill="white" stroke="black" points="929.5,-168.5 929.5,-187.5 986.5,-187.5 986.5,-168.5 929.5,-168.5"/>
<text text-anchor="middle" x="958" y="-175.5" font-family="Helvetica,sans-Serif" font-size="10.00">sortdict.h</text>
</a>
</g>
</g>
<!-- Node15&#45;&gt;Node25 -->
<g id="edge30" class="edge"><title>Node15&#45;&gt;Node25</title>
<path fill="none" stroke="midnightblue" d="M922.892,-280.455C949.275,-271.463 986.721,-256.858 995,-244 1005.68,-227.419 990.663,-207.635 976.683,-194.283"/>
<polygon fill="midnightblue" stroke="midnightblue" points="978.981,-191.643 969.192,-187.589 974.316,-196.862 978.981,-191.643"/>
</g>
<!-- Node26 -->
<g id="node27" class="node"><title>Node26</title>
<g id="a_node27"><a xlink:href="../../d9/d11/membergroup_8h.html" target="_top" xlink:title="membergroup.h">
<polygon fill="white" stroke="black" points="902,-224.5 902,-243.5 986,-243.5 986,-224.5 902,-224.5"/>
<text text-anchor="middle" x="944" y="-231.5" font-family="Helvetica,sans-Serif" font-size="10.00">membergroup.h</text>
</a>
</g>
</g>
<!-- Node15&#45;&gt;Node26 -->
<g id="edge34" class="edge"><title>Node15&#45;&gt;Node26</title>
<path fill="none" stroke="midnightblue" d="M903.926,-280.083C910.846,-272.298 921.065,-260.801 929.452,-251.367"/>
<polygon fill="midnightblue" stroke="midnightblue" points="932.194,-253.55 936.221,-243.751 926.962,-248.9 932.194,-253.55"/>
</g>
<!-- Node28 -->
<g id="node29" class="node"><title>Node28</title>
<g id="a_node29"><a xlink:href="../../d6/d15/dirdef_8h.html" target="_top" xlink:title="dirdef.h">
<polygon fill="white" stroke="black" points="1042.5,-224.5 1042.5,-243.5 1091.5,-243.5 1091.5,-224.5 1042.5,-224.5"/>
<text text-anchor="middle" x="1067" y="-231.5" font-family="Helvetica,sans-Serif" font-size="10.00">dirdef.h</text>
</a>
</g>
</g>
<!-- Node15&#45;&gt;Node28 -->
<g id="edge39" class="edge"><title>Node15&#45;&gt;Node28</title>
<path fill="none" stroke="midnightblue" d="M923.095,-280.444C952.668,-271.105 1000.1,-256.128 1032.35,-245.941"/>
<polygon fill="midnightblue" stroke="midnightblue" points="1033.77,-249.164 1042.25,-242.815 1031.66,-242.489 1033.77,-249.164"/>
</g>
<!-- Node30 -->
<g id="node31" class="node"><title>Node30</title>
<g id="a_node31"><a xlink:href="../../dd/d78/memberlist_8h.html" target="_top" xlink:title="memberlist.h">
<polygon fill="white" stroke="black" points="810.5,-224.5 810.5,-243.5 883.5,-243.5 883.5,-224.5 810.5,-224.5"/>
<text text-anchor="middle" x="847" y="-231.5" font-family="Helvetica,sans-Serif" font-size="10.00">memberlist.h</text>
</a>
</g>
</g>
<!-- Node15&#45;&gt;Node30 -->
<g id="edge46" class="edge"><title>Node15&#45;&gt;Node30</title>
<path fill="none" stroke="midnightblue" d="M887.909,-280.083C880.845,-272.298 870.412,-260.801 861.851,-251.367"/>
<polygon fill="midnightblue" stroke="midnightblue" points="864.253,-248.805 854.941,-243.751 859.069,-253.509 864.253,-248.805"/>
</g>
<!-- Node21&#45;&gt;Node4 -->
<g id="edge26" class="edge"><title>Node21&#45;&gt;Node4</title>
<path fill="none" stroke="midnightblue" d="M426.975,-224.414C434.055,-210.933 444.838,-184.629 432,-168 429.837,-165.199 342.448,-143.304 293.091,-131.119"/>
<polygon fill="midnightblue" stroke="midnightblue" points="293.727,-127.671 283.18,-128.676 292.052,-134.468 293.727,-127.671"/>
</g>
<!-- Node22 -->
<g id="node23" class="node"><title>Node22</title>
<polygon fill="white" stroke="#bfbfbf" points="285,-168.5 285,-187.5 351,-187.5 351,-168.5 285,-168.5"/>
<text text-anchor="middle" x="318" y="-175.5" font-family="Helvetica,sans-Serif" font-size="10.00">qiodevice.h</text>
</g>
<!-- Node21&#45;&gt;Node22 -->
<g id="edge27" class="edge"><title>Node21&#45;&gt;Node22</title>
<path fill="none" stroke="midnightblue" d="M405.291,-224.324C388.688,-215.703 362.998,-202.364 343.78,-192.386"/>
<polygon fill="midnightblue" stroke="midnightblue" points="345.156,-189.156 334.668,-187.655 341.93,-195.369 345.156,-189.156"/>
</g>
<!-- Node23 -->
<g id="node24" class="node"><title>Node23</title>
<polygon fill="white" stroke="#bfbfbf" points="369,-168.5 369,-187.5 423,-187.5 423,-168.5 369,-168.5"/>
<text text-anchor="middle" x="396" y="-175.5" font-family="Helvetica,sans-Serif" font-size="10.00">qstring.h</text>
</g>
<!-- Node21&#45;&gt;Node23 -->
<g id="edge28" class="edge"><title>Node21&#45;&gt;Node23</title>
<path fill="none" stroke="midnightblue" d="M417.707,-224.083C414.148,-216.691 408.978,-205.953 404.576,-196.811"/>
<polygon fill="midnightblue" stroke="midnightblue" points="407.705,-195.243 400.213,-187.751 401.398,-198.279 407.705,-195.243"/>
</g>
<!-- Node24 -->
<g id="node25" class="node"><title>Node24</title>
<polygon fill="white" stroke="#bfbfbf" points="207.5,-168.5 207.5,-187.5 266.5,-187.5 266.5,-168.5 207.5,-168.5"/>
<text text-anchor="middle" x="237" y="-175.5" font-family="Helvetica,sans-Serif" font-size="10.00">qgstring.h</text>
</g>
<!-- Node21&#45;&gt;Node24 -->
<g id="edge29" class="edge"><title>Node21&#45;&gt;Node24</title>
<path fill="none" stroke="midnightblue" d="M392.686,-224.444C361.158,-215.241 310.869,-200.562 276.014,-190.388"/>
<polygon fill="midnightblue" stroke="midnightblue" points="276.757,-186.959 266.177,-187.516 274.795,-193.678 276.757,-186.959"/>
</g>
<!-- Node25&#45;&gt;Node11 -->
<g id="edge31" class="edge"><title>Node25&#45;&gt;Node11</title>
<path fill="none" stroke="midnightblue" d="M940.423,-168.368C901.33,-149.171 806.987,-102.842 760.623,-80.074"/>
<polygon fill="midnightblue" stroke="midnightblue" points="762.014,-76.8577 751.495,-75.5914 758.929,-83.141 762.014,-76.8577"/>
</g>
<!-- Node25&#45;&gt;Node19 -->
<g id="edge32" class="edge"><title>Node25&#45;&gt;Node19</title>
<path fill="none" stroke="midnightblue" d="M971.918,-168.314C983.7,-160.27 1000.19,-147.269 1010,-132 1019.03,-117.934 1023.89,-99.4414 1026.43,-85.7783"/>
<polygon fill="midnightblue" stroke="midnightblue" points="1029.93,-86.0684 1028.05,-75.6406 1023.02,-84.961 1029.93,-86.0684"/>
</g>
<!-- Node25&#45;&gt;Node20 -->
<g id="edge33" class="edge"><title>Node25&#45;&gt;Node20</title>
<path fill="none" stroke="midnightblue" d="M986.654,-169.378C1022.35,-159.883 1083.44,-143.633 1123,-133.107"/>
<polygon fill="midnightblue" stroke="midnightblue" points="1124.05,-136.45 1132.82,-130.497 1122.25,-129.685 1124.05,-136.45"/>
</g>
<!-- Node26&#45;&gt;Node11 -->
<g id="edge35" class="edge"><title>Node26&#45;&gt;Node11</title>
<path fill="none" stroke="midnightblue" d="M958.068,-224.408C969.946,-216.425 986.496,-203.459 996,-188 1013.99,-158.741 1032.32,-138.104 1010,-112 976.522,-72.8478 831.749,-84.8454 781,-76 776.14,-75.153 771.007,-74.2147 765.988,-73.2731"/>
<polygon fill="midnightblue" stroke="midnightblue" points="766.449,-69.7981 755.97,-71.3638 765.138,-76.6743 766.449,-69.7981"/>
</g>
<!-- Node26&#45;&gt;Node25 -->
<g id="edge36" class="edge"><title>Node26&#45;&gt;Node25</title>
<path fill="none" stroke="midnightblue" d="M946.312,-224.083C948.167,-216.927 950.835,-206.635 953.154,-197.691"/>
<polygon fill="midnightblue" stroke="midnightblue" points="956.609,-198.309 955.731,-187.751 949.834,-196.553 956.609,-198.309"/>
</g>
<!-- Node27 -->
<g id="node28" class="node"><title>Node27</title>
<g id="a_node28"><a xlink:href="../../d9/d49/types_8h.html" target="_top" xlink:title="This file contains a number of basic enums and types. ">
<polygon fill="white" stroke="black" points="789.5,-56.5 789.5,-75.5 838.5,-75.5 838.5,-56.5 789.5,-56.5"/>
<text text-anchor="middle" x="814" y="-63.5" font-family="Helvetica,sans-Serif" font-size="10.00">types.h</text>
</a>
</g>
</g>
<!-- Node26&#45;&gt;Node27 -->
<g id="edge37" class="edge"><title>Node26&#45;&gt;Node27</title>
<path fill="none" stroke="midnightblue" d="M937.011,-224.075C916.193,-197.493 854.361,-118.538 827.128,-83.7633"/>
<polygon fill="midnightblue" stroke="midnightblue" points="829.631,-81.2832 820.71,-75.5681 824.12,-85.5992 829.631,-81.2832"/>
</g>
<!-- Node27&#45;&gt;Node12 -->
<g id="edge38" class="edge"><title>Node27&#45;&gt;Node12</title>
<path fill="none" stroke="midnightblue" d="M789.385,-60.0941C781.605,-58.6472 772.962,-57.146 765,-56 621.844,-35.3938 450.581,-20.3135 374.625,-14.1147"/>
<polygon fill="midnightblue" stroke="midnightblue" points="374.803,-10.6177 364.553,-13.2993 374.238,-17.5949 374.803,-10.6177"/>
</g>
<!-- Node28&#45;&gt;Node11 -->
<g id="edge45" class="edge"><title>Node28&#45;&gt;Node11</title>
<path fill="none" stroke="midnightblue" d="M1067.09,-224.315C1066.82,-201.817 1062.72,-141.355 1028,-112 985.642,-76.187 835.697,-85.2184 781,-76 776.136,-75.1802 771,-74.2566 765.979,-73.3213"/>
<polygon fill="midnightblue" stroke="midnightblue" points="766.439,-69.8462 755.961,-71.4149 765.131,-76.7227 766.439,-69.8462"/>
</g>
<!-- Node28&#45;&gt;Node25 -->
<g id="edge40" class="edge"><title>Node28&#45;&gt;Node25</title>
<path fill="none" stroke="midnightblue" d="M1049.49,-224.324C1031.93,-215.625 1004.67,-202.12 984.469,-192.113"/>
<polygon fill="midnightblue" stroke="midnightblue" points="985.984,-188.958 975.469,-187.655 982.876,-195.23 985.984,-188.958"/>
</g>
<!-- Node29 -->
<g id="node30" class="node"><title>Node29</title>
<g id="a_node30"><a xlink:href="../../df/da1/definition_8h.html" target="_top" xlink:title="definition.h">
<polygon fill="white" stroke="black" points="937,-112.5 937,-131.5 1001,-131.5 1001,-112.5 937,-112.5"/>
<text text-anchor="middle" x="969" y="-119.5" font-family="Helvetica,sans-Serif" font-size="10.00">definition.h</text>
</a>
</g>
</g>
<!-- Node28&#45;&gt;Node29 -->
<g id="edge41" class="edge"><title>Node28&#45;&gt;Node29</title>
<path fill="none" stroke="midnightblue" d="M1059.31,-224.368C1042.99,-206.055 1004.68,-163.049 983.577,-139.362"/>
<polygon fill="midnightblue" stroke="midnightblue" points="985.92,-136.73 976.654,-131.591 980.693,-141.386 985.92,-136.73"/>
</g>
<!-- Node29&#45;&gt;Node11 -->
<g id="edge42" class="edge"><title>Node29&#45;&gt;Node11</title>
<path fill="none" stroke="midnightblue" d="M936.817,-113.605C891.78,-103.256 810.461,-84.5697 765.69,-74.282"/>
<polygon fill="midnightblue" stroke="midnightblue" points="766.195,-70.8068 755.665,-71.9783 764.627,-77.629 766.195,-70.8068"/>
</g>
<!-- Node29&#45;&gt;Node19 -->
<g id="edge43" class="edge"><title>Node29&#45;&gt;Node19</title>
<path fill="none" stroke="midnightblue" d="M978.64,-112.324C987.51,-104.341 1000.87,-92.3128 1011.61,-82.6529"/>
<polygon fill="midnightblue" stroke="midnightblue" points="1014.09,-85.1251 1019.18,-75.8339 1009.41,-79.922 1014.09,-85.1251"/>
</g>
<!-- Node29&#45;&gt;Node27 -->
<g id="edge44" class="edge"><title>Node29&#45;&gt;Node27</title>
<path fill="none" stroke="midnightblue" d="M944.44,-112.444C918.477,-103.399 877.332,-89.064 848.203,-78.9158"/>
<polygon fill="midnightblue" stroke="midnightblue" points="849.04,-75.5013 838.445,-75.5164 846.737,-82.1116 849.04,-75.5013"/>
</g>
<!-- Node30&#45;&gt;Node11 -->
<g id="edge47" class="edge"><title>Node30&#45;&gt;Node11</title>
<path fill="none" stroke="midnightblue" d="M816.448,-224.44C787.576,-215.673 747.331,-201.46 738,-188 716.721,-157.304 723.056,-110.92 728.922,-85.4182"/>
<polygon fill="midnightblue" stroke="midnightblue" points="732.35,-86.1399 731.404,-75.5873 725.563,-84.4261 732.35,-86.1399"/>
</g>
<!-- Node30&#45;&gt;Node25 -->
<g id="edge53" class="edge"><title>Node30&#45;&gt;Node25</title>
<path fill="none" stroke="midnightblue" d="M864.834,-224.324C882.716,-215.625 910.475,-202.12 931.046,-192.113"/>
<polygon fill="midnightblue" stroke="midnightblue" points="932.749,-195.177 940.21,-187.655 929.687,-188.882 932.749,-195.177"/>
</g>
<!-- Node30&#45;&gt;Node27 -->
<g id="edge54" class="edge"><title>Node30&#45;&gt;Node27</title>
<path fill="none" stroke="midnightblue" d="M845.226,-224.075C840.031,-197.945 824.777,-121.211 817.693,-85.577"/>
<polygon fill="midnightblue" stroke="midnightblue" points="821.086,-84.6937 815.703,-75.5681 814.22,-86.0586 821.086,-84.6937"/>
</g>
<!-- Node31 -->
<g id="node32" class="node"><title>Node31</title>
<g id="a_node32"><a xlink:href="../../d4/d46/memberdef_8h.html" target="_top" xlink:title="memberdef.h">
<polygon fill="white" stroke="black" points="747,-168.5 747,-187.5 821,-187.5 821,-168.5 747,-168.5"/>
<text text-anchor="middle" x="784" y="-175.5" font-family="Helvetica,sans-Serif" font-size="10.00">memberdef.h</text>
</a>
</g>
</g>
<!-- Node30&#45;&gt;Node31 -->
<g id="edge48" class="edge"><title>Node30&#45;&gt;Node31</title>
<path fill="none" stroke="midnightblue" d="M836.878,-224.324C827.474,-216.263 813.256,-204.077 801.931,-194.369"/>
<polygon fill="midnightblue" stroke="midnightblue" points="804.177,-191.684 794.306,-187.834 799.621,-196.999 804.177,-191.684"/>
</g>
<!-- Node31&#45;&gt;Node3 -->
<g id="edge50" class="edge"><title>Node31&#45;&gt;Node3</title>
<path fill="none" stroke="midnightblue" d="M751.834,-168.444C716.941,-159.162 661.107,-144.309 622.829,-134.127"/>
<polygon fill="midnightblue" stroke="midnightblue" points="623.579,-130.705 613.015,-131.516 621.78,-137.47 623.579,-130.705"/>
</g>
<!-- Node31&#45;&gt;Node11 -->
<g id="edge49" class="edge"><title>Node31&#45;&gt;Node11</title>
<path fill="none" stroke="midnightblue" d="M780.077,-168.368C771.935,-150.456 753.056,-108.923 742.158,-84.9482"/>
<polygon fill="midnightblue" stroke="midnightblue" points="745.23,-83.2468 737.905,-75.5914 738.857,-86.1434 745.23,-83.2468"/>
</g>
<!-- Node31&#45;&gt;Node27 -->
<g id="edge51" class="edge"><title>Node31&#45;&gt;Node27</title>
<path fill="none" stroke="midnightblue" d="M786.354,-168.368C791.217,-150.537 802.465,-109.295 809.017,-85.2717"/>
<polygon fill="midnightblue" stroke="midnightblue" points="812.402,-86.16 811.657,-75.5914 805.649,-84.3181 812.402,-86.16"/>
</g>
<!-- Node31&#45;&gt;Node29 -->
<g id="edge52" class="edge"><title>Node31&#45;&gt;Node29</title>
<path fill="none" stroke="midnightblue" d="M813.314,-168.444C844.842,-159.241 895.131,-144.562 929.986,-134.388"/>
<polygon fill="midnightblue" stroke="midnightblue" points="931.205,-137.678 939.823,-131.516 929.243,-130.959 931.205,-137.678"/>
</g>
<!-- Node32&#45;&gt;Node11 -->
<g id="edge56" class="edge"><title>Node32&#45;&gt;Node11</title>
<path fill="none" stroke="midnightblue" d="M219.038,-113.914C222.038,-113.187 225.077,-112.524 228,-112 405.011,-80.2508 621.065,-70.5294 701.662,-67.8877"/>
<polygon fill="midnightblue" stroke="midnightblue" points="702.231,-71.3716 712.117,-67.5604 702.012,-64.3751 702.231,-71.3716"/>
</g>
<!-- Node32&#45;&gt;Node12 -->
<g id="edge57" class="edge"><title>Node32&#45;&gt;Node12</title>
<path fill="none" stroke="midnightblue" d="M205.986,-112.368C229.805,-93.6531 286.444,-49.1509 316.122,-25.8324"/>
<polygon fill="midnightblue" stroke="midnightblue" points="318.365,-28.5218 324.065,-19.5914 314.04,-23.0176 318.365,-28.5218"/>
</g>
<!-- Node33&#45;&gt;Node10 -->
<g id="edge63" class="edge"><title>Node33&#45;&gt;Node10</title>
<path fill="none" stroke="midnightblue" d="M592.737,-224.324C577.779,-215.822 554.745,-202.729 537.273,-192.797"/>
<polygon fill="midnightblue" stroke="midnightblue" points="538.649,-189.553 528.226,-187.655 535.19,-195.639 538.649,-189.553"/>
</g>
<!-- Node33&#45;&gt;Node11 -->
<g id="edge59" class="edge"><title>Node33&#45;&gt;Node11</title>
<path fill="none" stroke="midnightblue" d="M614.774,-224.075C634.951,-197.493 694.881,-118.538 721.276,-83.7633"/>
<polygon fill="midnightblue" stroke="midnightblue" points="724.238,-85.6495 727.496,-75.5681 718.663,-81.4173 724.238,-85.6495"/>
</g>
<!-- Node33&#45;&gt;Node25 -->
<g id="edge62" class="edge"><title>Node33&#45;&gt;Node25</title>
<path fill="none" stroke="midnightblue" d="M627.176,-229.14C635.684,-227.476 645.827,-225.559 655,-224 749.52,-207.939 861.179,-192.182 918.963,-184.266"/>
<polygon fill="midnightblue" stroke="midnightblue" points="919.675,-187.702 929.11,-182.881 918.728,-180.766 919.675,-187.702"/>
</g>
<!-- Node33&#45;&gt;Node27 -->
<g id="edge61" class="edge"><title>Node33&#45;&gt;Node27</title>
<path fill="none" stroke="midnightblue" d="M618.785,-224.309C652.019,-197.528 753.15,-116.035 795.274,-82.09"/>
<polygon fill="midnightblue" stroke="midnightblue" points="797.731,-84.605 803.321,-75.6051 793.339,-79.1544 797.731,-84.605"/>
</g>
<!-- Node34 -->
<g id="node35" class="node"><title>Node34</title>
<polygon fill="white" stroke="#bfbfbf" points="565.5,-168.5 565.5,-187.5 614.5,-187.5 614.5,-168.5 565.5,-168.5"/>
<text text-anchor="middle" x="590" y="-175.5" font-family="Helvetica,sans-Serif" font-size="10.00">ctype.h</text>
</g>
<!-- Node33&#45;&gt;Node34 -->
<g id="edge60" class="edge"><title>Node33&#45;&gt;Node34</title>
<path fill="none" stroke="midnightblue" d="M605.028,-224.083C602.616,-216.849 599.136,-206.409 596.132,-197.397"/>
<polygon fill="midnightblue" stroke="midnightblue" points="599.4,-196.131 592.917,-187.751 592.759,-198.345 599.4,-196.131"/>
</g>
</g>
</svg>
        <g id="navigator" transform="translate(0 0)" fill="#404254">
                <rect fill="#f2f5e9" fill-opacity="0.5" stroke="#606060" stroke-width=".5" x="0" y="0" width="60" height="60"/>
                <use id="zoomplus" xlink:href="#zoomPlus" x="17" y="9" onmousedown="handleZoom(evt,'in')"/>
                <use id="zoomminus" xlink:href="#zoomMin" x="42" y="9" onmousedown="handleZoom(evt,'out')"/>
                <use id="reset" xlink:href="#resetDef" x="30" y="36" onmousedown="handleReset()"/>
                <g id="arrowUp" xlink:href="#dirArrow" transform="translate(30 24)" onmousedown="handlePan(0,-1)">
                  <use xlink:href="#rim" fill="#404040">
                        <set attributeName="fill" to="#808080" begin="arrowUp.mouseover" end="arrowUp.mouseout"/>
                  </use>
                  <path fill="none" stroke="white" stroke-width="1.5" d="M0,-3.0v7 M-2.5,-0.5L0,-3.0L2.5,-0.5"/>
                </g>
                <g id="arrowRight" xlink:href="#dirArrow" transform="rotate(90) translate(36 -43)" onmousedown="handlePan(1,0)">
                  <use xlink:href="#rim" fill="#404040">
                        <set attributeName="fill" to="#808080" begin="arrowRight.mouseover" end="arrowRight.mouseout"/>
                  </use>
                  <path fill="none" stroke="white" stroke-width="1.5" d="M0,-3.0v7 M-2.5,-0.5L0,-3.0L2.5,-0.5"/>
                </g>
                <g id="arrowDown" xlink:href="#dirArrow" transform="rotate(180) translate(-30 -48)" onmousedown="handlePan(0,1)">
                  <use xlink:href="#rim" fill="#404040">
                        <set attributeName="fill" to="#808080" begin="arrowDown.mouseover" end="arrowDown.mouseout"/>
                  </use>
                  <path fill="none" stroke="white" stroke-width="1.5" d="M0,-3.0v7 M-2.5,-0.5L0,-3.0L2.5,-0.5"/>
                </g>
                <g id="arrowLeft" xlink:href="#dirArrow" transform="rotate(270) translate(-36 17)" onmousedown="handlePan(-1,0)">
                  <use xlink:href="#rim" fill="#404040">
                        <set attributeName="fill" to="#808080" begin="arrowLeft.mouseover" end="arrowLeft.mouseout"/>
                  </use>
                  <path fill="none" stroke="white" stroke-width="1.5" d="M0,-3.0v7 M-2.5,-0.5L0,-3.0L2.5,-0.5"/>
                </g>
        </g>
        <svg viewBox="0 0 15 15" width="100%" height="30px" preserveAspectRatio="xMaxYMin meet">
         <g id="arrow_out" transform="scale(0.3 0.3)">
          <a xlink:href="msc_8cpp__incl_org.svg" target="_base">
           <rect id="button" ry="5" rx="5" y="6" x="6" height="38" width="38"
                fill="#f2f5e9" fill-opacity="0.5" stroke="#606060" stroke-width="1.0"/>
           <path id="arrow"
             d="M 11.500037,31.436501 C 11.940474,20.09759 22.043105,11.32322 32.158766,21.979434 L 37.068811,17.246167 C 37.068811,17.246167 37.088388,32 37.088388,32 L 22.160133,31.978069 C 22.160133,31.978069 26.997745,27.140456 26.997745,27.140456 C 18.528582,18.264221 13.291696,25.230495 11.500037,31.436501 z"
             style="fill:#404040;"/>
          </a>
         </g>
        </svg>
</svg>
