<?xml version="1.0" encoding="UTF-8" standalone="no"?>
<!DOCTYPE svg PUBLIC "-//W3C//DTD SVG 1.1//EN"
 "http://www.w3.org/Graphics/SVG/1.1/DTD/svg11.dtd">
<!-- Generated by graphviz version 2.38.0 (20140413.2041)
 -->
<!-- Title: DocImage Pages: 1 -->
<svg width="222pt" height="152pt"
 viewBox="0.00 0.00 221.50 152.00" xmlns="http://www.w3.org/2000/svg" xmlns:xlink="http://www.w3.org/1999/xlink">
<g id="graph0" class="graph" transform="scale(1 1) rotate(0) translate(4 148)">
<title>DocImage</title>
<polygon fill="white" stroke="none" points="-4,4 -4,-148 217.5,-148 217.5,4 -4,4"/>
<!-- Node0 -->
<g id="node1" class="node"><title>Node0</title>
<polygon fill="#bfbfbf" stroke="black" points="124.5,-0.5 124.5,-19.5 186.5,-19.5 186.5,-0.5 124.5,-0.5"/>
<text text-anchor="middle" x="155.5" y="-7.5" font-family="Helvetica,sans-Serif" font-size="10.00">DocImage</text>
</g>
<!-- Node1 -->
<g id="node2" class="node"><title>Node1</title>
<g id="a_node2"><a xlink:href="../../d7/da3/class_comp_accept.html" target="_top" xlink:title="CompAccept\&lt; DocImage \&gt;">
<polygon fill="white" stroke="black" points="0,-57.5 0,-76.5 137,-76.5 137,-57.5 0,-57.5"/>
<text text-anchor="middle" x="68.5" y="-64.5" font-family="Helvetica,sans-Serif" font-size="10.00">CompAccept&lt; DocImage &gt;</text>
</a>
</g>
</g>
<!-- Node1&#45;&gt;Node0 -->
<g id="edge1" class="edge"><title>Node1&#45;&gt;Node0</title>
<path fill="none" stroke="midnightblue" d="M90.9232,-51.8244C107.088,-41.605 128.374,-28.1483 142.002,-19.5334"/>
<polygon fill="midnightblue" stroke="midnightblue" points="88.6761,-49.1042 82.0938,-57.4062 92.4166,-55.021 88.6761,-49.1042"/>
</g>
<!-- Node2 -->
<g id="node3" class="node"><title>Node2</title>
<g id="a_node3"><a xlink:href="../../d7/da3/class_comp_accept.html" target="_top" xlink:title="Default accept implementation for compound nodes in the abstract syntax tree. ">
<polygon fill="white" stroke="black" points="19.5,-124.5 19.5,-143.5 117.5,-143.5 117.5,-124.5 19.5,-124.5"/>
<text text-anchor="middle" x="68.5" y="-131.5" font-family="Helvetica,sans-Serif" font-size="10.00">CompAccept&lt; T &gt;</text>
</a>
</g>
</g>
<!-- Node2&#45;&gt;Node1 -->
<g id="edge2" class="edge"><title>Node2&#45;&gt;Node1</title>
<path fill="none" stroke="orange" stroke-dasharray="5,2" d="M68.5,-114.037C68.5,-101.67 68.5,-86.1198 68.5,-76.6273"/>
<polygon fill="orange" stroke="orange" points="65.0001,-114.234 68.5,-124.234 72.0001,-114.234 65.0001,-114.234"/>
<text text-anchor="middle" x="102" y="-98" font-family="Helvetica,sans-Serif" font-size="10.00"> &lt; DocImage &gt;</text>
</g>
<!-- Node3 -->
<g id="node4" class="node"><title>Node3</title>
<g id="a_node4"><a xlink:href="../../d9/d0e/class_doc_node.html" target="_top" xlink:title="Abstract node interface with type information. ">
<polygon fill="white" stroke="black" points="155.5,-57.5 155.5,-76.5 213.5,-76.5 213.5,-57.5 155.5,-57.5"/>
<text text-anchor="middle" x="184.5" y="-64.5" font-family="Helvetica,sans-Serif" font-size="10.00">DocNode</text>
</a>
</g>
</g>
<!-- Node3&#45;&gt;Node0 -->
<g id="edge3" class="edge"><title>Node3&#45;&gt;Node0</title>
<path fill="none" stroke="midnightblue" d="M175.185,-48.334C170.142,-38.77 164.136,-27.3784 160.095,-19.7149"/>
<polygon fill="midnightblue" stroke="midnightblue" points="172.209,-50.193 179.969,-57.4062 178.401,-46.9281 172.209,-50.193"/>
</g>
</g>
</svg>
