<?xml version="1.0" encoding="UTF-8" standalone="no"?>
<!DOCTYPE svg PUBLIC "-//W3C//DTD SVG 1.1//EN"
 "http://www.w3.org/Graphics/SVG/1.1/DTD/svg11.dtd">
<!-- Generated by graphviz version 2.38.0 (20140413.2041)
 -->
<!-- Title: Mappers Pages: 1 -->
<svg width="106pt" height="106pt"
 viewBox="0.00 0.00 106.00 106.00" xmlns="http://www.w3.org/2000/svg" xmlns:xlink="http://www.w3.org/1999/xlink">
<g id="graph0" class="graph" transform="scale(1 1) rotate(0) translate(4 102)">
<title>Mappers</title>
<polygon fill="white" stroke="none" points="-4,4 -4,-102 102,-102 102,4 -4,4"/>
<!-- Node1 -->
<g id="node1" class="node"><title>Node1</title>
<polygon fill="#bfbfbf" stroke="black" points="0,-0.5 0,-19.5 54,-19.5 54,-0.5 0,-0.5"/>
<text text-anchor="middle" x="27" y="-7.5" font-family="Helvetica,sans-Serif" font-size="10.00">Mappers</text>
</g>
<!-- Node2 -->
<g id="node2" class="node"><title>Node2</title>
<g id="a_node2"><a xlink:href="../../d9/d09/class_mapper.html" target="_top" xlink:title="Class representing a mapping from command names to command IDs. ">
<polygon fill="white" stroke="black" points="2.5,-78.5 2.5,-97.5 51.5,-97.5 51.5,-78.5 2.5,-78.5"/>
<text text-anchor="middle" x="27" y="-85.5" font-family="Helvetica,sans-Serif" font-size="10.00">Mapper</text>
</a>
</g>
</g>
<!-- Node2&#45;&gt;Node1 -->
<g id="edge1" class="edge"><title>Node2&#45;&gt;Node1</title>
<path fill="none" stroke="#9a32cd" stroke-dasharray="5,2" d="M27,-68.2239C27,-52.6974 27,-31.3582 27,-19.6165"/>
<polygon fill="#9a32cd" stroke="#9a32cd" points="23.5001,-68.2818 27,-78.2818 30.5001,-68.2819 23.5001,-68.2818"/>
<text text-anchor="middle" x="62.5" y="-52" font-family="Helvetica,sans-Serif" font-size="10.00"> htmlTagMapper</text>
<text text-anchor="middle" x="62.5" y="-41" font-family="Helvetica,sans-Serif" font-size="10.00">cmdMapper</text>
</g>
</g>
</svg>
