<?xml version="1.0" encoding="UTF-8" standalone="no"?>
<!DOCTYPE svg PUBLIC "-//W3C//DTD SVG 1.1//EN"
 "http://www.w3.org/Graphics/SVG/1.1/DTD/svg11.dtd">
<!-- Generated by graphviz version 2.38.0 (20140413.2041)
 -->
<!-- Title: src/template.cpp Pages: 1 -->
<!--zoomable 252 -->
<svg id="main" version="1.1" xmlns="http://www.w3.org/2000/svg" xmlns:xlink="http://www.w3.org/1999/xlink" xml:space="preserve" onload="init(evt)">
<style type="text/css"><![CDATA[
.edge:hover path { stroke: red; }
.edge:hover polygon { stroke: red; fill: red; }
]]></style>
<script type="text/javascript"><![CDATA[
var edges = document.getElementsByTagName('g');
if (edges && edges.length) {
  for (var i=0;i<edges.length;i++) {
    if (edges[i].id.substr(0,4)=='edge') {
      edges[i].setAttribute('class','edge');
    }
  }
}
]]></script>
        <defs>
                <circle id="rim" cx="0" cy="0" r="7"/>
                <circle id="rim2" cx="0" cy="0" r="3.5"/>
                <g id="zoomPlus">
                        <use xlink:href="#rim" fill="#404040">
                                <set attributeName="fill" to="#808080" begin="zoomplus.mouseover" end="zoomplus.mouseout"/>
                        </use>
                        <path d="M-4,0h8M0,-4v8" fill="none" stroke="white" stroke-width="1.5" pointer-events="none"/>
                </g>
                <g id="zoomMin">
                        <use xlink:href="#rim" fill="#404040">
                                <set attributeName="fill" to="#808080" begin="zoomminus.mouseover" end="zoomminus.mouseout"/>
                        </use>
                        <path d="M-4,0h8" fill="none" stroke="white" stroke-width="1.5" pointer-events="none"/>
                </g>
                <g id="dirArrow">
                        <path fill="none" stroke="white" stroke-width="1.5" d="M0,-3.0v7 M-2.5,-0.5L0,-3.0L2.5,-0.5"/>
                </g>
               <g id="resetDef">
                       <use xlink:href="#rim2" fill="#404040">
                               <set attributeName="fill" to="#808080" begin="reset.mouseover" end="reset.mouseout"/>
                       </use>
               </g>
        </defs>

<script type="text/javascript">
var viewWidth = 1620;
var viewHeight = 252;
var sectionId = 'dynsection-0';
</script>
<script xlink:href="../../svgpan.js"/>
<svg id="graph" class="graph">
<g id="viewport">
<title>src/template.cpp</title>
<polygon fill="white" stroke="none" points="-4,4 -4,-248 1616,-248 1616,4 -4,4"/>
<!-- Node0 -->
<g id="node1" class="node"><title>Node0</title>
<polygon fill="#bfbfbf" stroke="black" points="946,-224.5 946,-243.5 1035,-243.5 1035,-224.5 946,-224.5"/>
<text text-anchor="middle" x="990.5" y="-231.5" font-family="Helvetica,sans-Serif" font-size="10.00">src/template.cpp</text>
</g>
<!-- Node1 -->
<g id="node2" class="node"><title>Node1</title>
<g id="a_node2"><a xlink:href="../../de/db8/template_8h.html" target="_top" xlink:title="template.h">
<polygon fill="white" stroke="black" points="547.5,-168.5 547.5,-187.5 609.5,-187.5 609.5,-168.5 547.5,-168.5"/>
<text text-anchor="middle" x="578.5" y="-175.5" font-family="Helvetica,sans-Serif" font-size="10.00">template.h</text>
</a>
</g>
</g>
<!-- Node0&#45;&gt;Node1 -->
<g id="edge1" class="edge"><title>Node0&#45;&gt;Node1</title>
<path fill="none" stroke="midnightblue" d="M945.716,-228.609C876.429,-221.567 739.16,-206.63 623.5,-188 622.399,-187.823 621.283,-187.638 620.159,-187.447"/>
<polygon fill="midnightblue" stroke="midnightblue" points="620.379,-183.93 609.917,-185.597 619.135,-190.819 620.379,-183.93"/>
</g>
<!-- Node2 -->
<g id="node3" class="node"><title>Node2</title>
<polygon fill="white" stroke="#bfbfbf" points="157,-0.5 157,-19.5 216,-19.5 216,-0.5 157,-0.5"/>
<text text-anchor="middle" x="186.5" y="-7.5" font-family="Helvetica,sans-Serif" font-size="10.00">qcstring.h</text>
</g>
<!-- Node0&#45;&gt;Node2 -->
<g id="edge14" class="edge"><title>Node0&#45;&gt;Node2</title>
<path fill="none" stroke="midnightblue" d="M945.827,-232.026C795.465,-228.055 309.783,-209.382 177.5,-132 142.388,-111.461 108.308,-92.3837 126.5,-56 133.228,-42.5432 146.106,-32.0665 158.212,-24.6212"/>
<polygon fill="midnightblue" stroke="midnightblue" points="160.233,-27.4985 167.204,-19.5195 156.779,-21.4101 160.233,-27.4985"/>
</g>
<!-- Node3 -->
<g id="node4" class="node"><title>Node3</title>
<polygon fill="white" stroke="#bfbfbf" points="581.5,-112.5 581.5,-131.5 647.5,-131.5 647.5,-112.5 581.5,-112.5"/>
<text text-anchor="middle" x="614.5" y="-119.5" font-family="Helvetica,sans-Serif" font-size="10.00">qvaluelist.h</text>
</g>
<!-- Node0&#45;&gt;Node3 -->
<g id="edge10" class="edge"><title>Node0&#45;&gt;Node3</title>
<path fill="none" stroke="midnightblue" d="M945.847,-231.202C867.361,-227.344 708.527,-216.211 661.5,-188 643.453,-177.174 630.334,-156.478 622.615,-141.338"/>
<polygon fill="midnightblue" stroke="midnightblue" points="625.596,-139.458 618.138,-131.933 619.276,-142.467 625.596,-139.458"/>
</g>
<!-- Node4 -->
<g id="node5" class="node"><title>Node4</title>
<polygon fill="white" stroke="#bfbfbf" points="1000.5,-56.5 1000.5,-75.5 1046.5,-75.5 1046.5,-56.5 1000.5,-56.5"/>
<text text-anchor="middle" x="1023.5" y="-63.5" font-family="Helvetica,sans-Serif" font-size="10.00">stdio.h</text>
</g>
<!-- Node0&#45;&gt;Node4 -->
<g id="edge4" class="edge"><title>Node0&#45;&gt;Node4</title>
<path fill="none" stroke="midnightblue" d="M992.274,-224.075C997.469,-197.945 1012.72,-121.211 1019.81,-85.577"/>
<polygon fill="midnightblue" stroke="midnightblue" points="1023.28,-86.0586 1021.8,-75.5681 1016.41,-84.6937 1023.28,-86.0586"/>
</g>
<!-- Node5 -->
<g id="node6" class="node"><title>Node5</title>
<polygon fill="white" stroke="#bfbfbf" points="1089.5,-112.5 1089.5,-131.5 1141.5,-131.5 1141.5,-112.5 1089.5,-112.5"/>
<text text-anchor="middle" x="1115.5" y="-119.5" font-family="Helvetica,sans-Serif" font-size="10.00">stdarg.h</text>
</g>
<!-- Node0&#45;&gt;Node5 -->
<g id="edge5" class="edge"><title>Node0&#45;&gt;Node5</title>
<path fill="none" stroke="midnightblue" d="M1028.83,-224.456C1050.46,-217.827 1076.48,-206.545 1093.5,-188 1105.2,-175.257 1110.7,-156.061 1113.28,-141.831"/>
<polygon fill="midnightblue" stroke="midnightblue" points="1116.77,-142.105 1114.78,-131.7 1109.85,-141.08 1116.77,-142.105"/>
</g>
<!-- Node6 -->
<g id="node7" class="node"><title>Node6</title>
<polygon fill="white" stroke="#bfbfbf" points="475,-0.5 475,-19.5 518,-19.5 518,-0.5 475,-0.5"/>
<text text-anchor="middle" x="496.5" y="-7.5" font-family="Helvetica,sans-Serif" font-size="10.00">qlist.h</text>
</g>
<!-- Node0&#45;&gt;Node6 -->
<g id="edge6" class="edge"><title>Node0&#45;&gt;Node6</title>
<path fill="none" stroke="midnightblue" d="M945.709,-225.531C889.801,-214.152 794.059,-187.636 732.5,-132 704.334,-106.543 723.478,-79.2961 693.5,-56 644.955,-18.2752 570.557,-11.112 528.45,-10.3467"/>
<polygon fill="midnightblue" stroke="midnightblue" points="528.25,-6.84538 518.226,-10.2764 528.202,-13.8452 528.25,-6.84538"/>
</g>
<!-- Node7 -->
<g id="node8" class="node"><title>Node7</title>
<polygon fill="white" stroke="#bfbfbf" points="1218.5,-168.5 1218.5,-187.5 1270.5,-187.5 1270.5,-168.5 1218.5,-168.5"/>
<text text-anchor="middle" x="1244.5" y="-175.5" font-family="Helvetica,sans-Serif" font-size="10.00">qarray.h</text>
</g>
<!-- Node0&#45;&gt;Node7 -->
<g id="edge7" class="edge"><title>Node0&#45;&gt;Node7</title>
<path fill="none" stroke="midnightblue" d="M1035.1,-224.501C1077.29,-216.313 1142.6,-203.254 1208.08,-188.247"/>
<polygon fill="midnightblue" stroke="midnightblue" points="1209.2,-191.579 1218.16,-185.92 1207.63,-184.758 1209.2,-191.579"/>
</g>
<!-- Node8 -->
<g id="node9" class="node"><title>Node8</title>
<polygon fill="white" stroke="#bfbfbf" points="638.5,-56.5 638.5,-75.5 684.5,-75.5 684.5,-56.5 638.5,-56.5"/>
<text text-anchor="middle" x="661.5" y="-63.5" font-family="Helvetica,sans-Serif" font-size="10.00">qdict.h</text>
</g>
<!-- Node0&#45;&gt;Node8 -->
<g id="edge8" class="edge"><title>Node0&#45;&gt;Node8</title>
<path fill="none" stroke="midnightblue" d="M945.796,-231.721C873.574,-228.754 735.653,-219.072 699.5,-188 669.401,-162.131 662.849,-112.704 661.606,-85.7182"/>
<polygon fill="midnightblue" stroke="midnightblue" points="665.104,-85.5669 661.346,-75.6609 658.106,-85.7482 665.104,-85.5669"/>
</g>
<!-- Node9 -->
<g id="node10" class="node"><title>Node9</title>
<polygon fill="white" stroke="#bfbfbf" points="1288.5,-168.5 1288.5,-187.5 1342.5,-187.5 1342.5,-168.5 1288.5,-168.5"/>
<text text-anchor="middle" x="1315.5" y="-175.5" font-family="Helvetica,sans-Serif" font-size="10.00">qstrlist.h</text>
</g>
<!-- Node0&#45;&gt;Node9 -->
<g id="edge9" class="edge"><title>Node0&#45;&gt;Node9</title>
<path fill="none" stroke="midnightblue" d="M1035.28,-227.307C1090.27,-220.034 1186.58,-206.382 1278.41,-188.066"/>
<polygon fill="midnightblue" stroke="midnightblue" points="1279.32,-191.454 1288.43,-186.046 1277.94,-184.592 1279.32,-191.454"/>
</g>
<!-- Node10 -->
<g id="node11" class="node"><title>Node10</title>
<polygon fill="white" stroke="#bfbfbf" points="1360.5,-168.5 1360.5,-187.5 1414.5,-187.5 1414.5,-168.5 1360.5,-168.5"/>
<text text-anchor="middle" x="1387.5" y="-175.5" font-family="Helvetica,sans-Serif" font-size="10.00">qstack.h</text>
</g>
<!-- Node0&#45;&gt;Node10 -->
<g id="edge11" class="edge"><title>Node0&#45;&gt;Node10</title>
<path fill="none" stroke="midnightblue" d="M1035.23,-229.18C1101.84,-223.106 1231.18,-209.839 1350.42,-187.998"/>
<polygon fill="midnightblue" stroke="midnightblue" points="1351.26,-191.402 1360.45,-186.135 1349.98,-184.52 1351.26,-191.402"/>
</g>
<!-- Node11 -->
<g id="node12" class="node"><title>Node11</title>
<polygon fill="white" stroke="#bfbfbf" points="1433,-168.5 1433,-187.5 1476,-187.5 1476,-168.5 1433,-168.5"/>
<text text-anchor="middle" x="1454.5" y="-175.5" font-family="Helvetica,sans-Serif" font-size="10.00">qfile.h</text>
</g>
<!-- Node0&#45;&gt;Node11 -->
<g id="edge12" class="edge"><title>Node0&#45;&gt;Node11</title>
<path fill="none" stroke="midnightblue" d="M1035.14,-230.998C1112.34,-226.965 1275.75,-215.917 1422.83,-187.762"/>
<polygon fill="midnightblue" stroke="midnightblue" points="1423.79,-191.14 1432.94,-185.794 1422.46,-184.269 1423.79,-191.14"/>
</g>
<!-- Node12 -->
<g id="node13" class="node"><title>Node12</title>
<polygon fill="white" stroke="#bfbfbf" points="1494,-168.5 1494,-187.5 1553,-187.5 1553,-168.5 1494,-168.5"/>
<text text-anchor="middle" x="1523.5" y="-175.5" font-family="Helvetica,sans-Serif" font-size="10.00">qregexp.h</text>
</g>
<!-- Node0&#45;&gt;Node12 -->
<g id="edge13" class="edge"><title>Node0&#45;&gt;Node12</title>
<path fill="none" stroke="midnightblue" d="M1035.14,-231.067C1120.57,-226.909 1313.18,-215.32 1483.8,-188.082"/>
<polygon fill="midnightblue" stroke="midnightblue" points="1484.4,-191.53 1493.71,-186.478 1483.28,-184.62 1484.4,-191.53"/>
</g>
<!-- Node13 -->
<g id="node14" class="node"><title>Node13</title>
<polygon fill="white" stroke="#bfbfbf" points="1571,-168.5 1571,-187.5 1612,-187.5 1612,-168.5 1571,-168.5"/>
<text text-anchor="middle" x="1591.5" y="-175.5" font-family="Helvetica,sans-Serif" font-size="10.00">qdir.h</text>
</g>
<!-- Node0&#45;&gt;Node13 -->
<g id="edge15" class="edge"><title>Node0&#45;&gt;Node13</title>
<path fill="none" stroke="midnightblue" d="M1035.08,-232.849C1130.35,-231.807 1360.74,-225.457 1560.64,-187.977"/>
<polygon fill="midnightblue" stroke="midnightblue" points="1561.56,-191.363 1570.73,-186.052 1560.25,-184.487 1561.56,-191.363"/>
</g>
<!-- Node14 -->
<g id="node15" class="node"><title>Node14</title>
<g id="a_node15"><a xlink:href="../../d9/d21/sortdict_8h.html" target="_top" xlink:title="sortdict.h">
<polygon fill="white" stroke="black" points="506,-112.5 506,-131.5 563,-131.5 563,-112.5 506,-112.5"/>
<text text-anchor="middle" x="534.5" y="-119.5" font-family="Helvetica,sans-Serif" font-size="10.00">sortdict.h</text>
</a>
</g>
</g>
<!-- Node0&#45;&gt;Node14 -->
<g id="edge16" class="edge"><title>Node0&#45;&gt;Node14</title>
<path fill="none" stroke="midnightblue" d="M945.98,-231.783C837.521,-228.373 566.431,-217.006 538.5,-188 526.876,-175.929 527.372,-156.046 529.849,-141.444"/>
<polygon fill="midnightblue" stroke="midnightblue" points="533.302,-142.034 531.962,-131.524 526.455,-140.576 533.302,-142.034"/>
</g>
<!-- Node16 -->
<g id="node17" class="node"><title>Node16</title>
<g id="a_node17"><a xlink:href="../../df/d83/ftextstream_8h.html" target="_top" xlink:title="ftextstream.h">
<polygon fill="white" stroke="black" points="888.5,-168.5 888.5,-187.5 962.5,-187.5 962.5,-168.5 888.5,-168.5"/>
<text text-anchor="middle" x="925.5" y="-175.5" font-family="Helvetica,sans-Serif" font-size="10.00">ftextstream.h</text>
</a>
</g>
</g>
<!-- Node0&#45;&gt;Node16 -->
<g id="edge20" class="edge"><title>Node0&#45;&gt;Node16</title>
<path fill="none" stroke="midnightblue" d="M980.057,-224.324C970.354,-216.263 955.685,-204.077 944,-194.369"/>
<polygon fill="midnightblue" stroke="midnightblue" points="946.062,-191.532 936.133,-187.834 941.589,-196.916 946.062,-191.532"/>
</g>
<!-- Node20 -->
<g id="node21" class="node"><title>Node20</title>
<g id="a_node21"><a xlink:href="../../d2/d0d/message_8h.html" target="_top" xlink:title="message.h">
<polygon fill="white" stroke="black" points="1019,-168.5 1019,-187.5 1084,-187.5 1084,-168.5 1019,-168.5"/>
<text text-anchor="middle" x="1051.5" y="-175.5" font-family="Helvetica,sans-Serif" font-size="10.00">message.h</text>
</a>
</g>
</g>
<!-- Node0&#45;&gt;Node20 -->
<g id="edge25" class="edge"><title>Node0&#45;&gt;Node20</title>
<path fill="none" stroke="midnightblue" d="M1000.3,-224.324C1009.32,-216.341 1022.91,-204.313 1033.82,-194.653"/>
<polygon fill="midnightblue" stroke="midnightblue" points="1036.35,-197.083 1041.52,-187.834 1031.71,-191.842 1036.35,-197.083"/>
</g>
<!-- Node21 -->
<g id="node22" class="node"><title>Node21</title>
<g id="a_node22"><a xlink:href="../../d8/d3c/util_8h.html" target="_top" xlink:title="A bunch of utility functions. ">
<polygon fill="white" stroke="black" points="429.5,-168.5 429.5,-187.5 467.5,-187.5 467.5,-168.5 429.5,-168.5"/>
<text text-anchor="middle" x="448.5" y="-175.5" font-family="Helvetica,sans-Serif" font-size="10.00">util.h</text>
</a>
</g>
</g>
<!-- Node0&#45;&gt;Node21 -->
<g id="edge28" class="edge"><title>Node0&#45;&gt;Node21</title>
<path fill="none" stroke="midnightblue" d="M945.929,-229.825C860.367,-223.517 667.232,-208.25 505.5,-188 496.426,-186.864 486.576,-185.394 477.657,-183.972"/>
<polygon fill="midnightblue" stroke="midnightblue" points="478.15,-180.506 467.717,-182.349 477.022,-187.415 478.15,-180.506"/>
</g>
<!-- Node27 -->
<g id="node28" class="node"><title>Node27</title>
<g id="a_node28"><a xlink:href="../../d6/d07/resourcemgr_8h.html" target="_top" xlink:title="resourcemgr.h">
<polygon fill="white" stroke="black" points="0,-56.5 0,-75.5 79,-75.5 79,-56.5 0,-56.5"/>
<text text-anchor="middle" x="39.5" y="-63.5" font-family="Helvetica,sans-Serif" font-size="10.00">resourcemgr.h</text>
</a>
</g>
</g>
<!-- Node0&#45;&gt;Node27 -->
<g id="edge42" class="edge"><title>Node0&#45;&gt;Node27</title>
<path fill="none" stroke="midnightblue" d="M945.887,-233.461C774.467,-234.868 164.171,-236.409 93.5,-188 58.9719,-164.349 46.2471,-113.202 41.7742,-85.5855"/>
<polygon fill="midnightblue" stroke="midnightblue" points="45.2336,-85.0516 40.3599,-75.6443 38.3034,-86.0376 45.2336,-85.0516"/>
</g>
<!-- Node28 -->
<g id="node29" class="node"><title>Node28</title>
<g id="a_node29"><a xlink:href="../../d2/de2/portable_8h.html" target="_top" xlink:title="Portable versions of functions that are platform dependent. ">
<polygon fill="white" stroke="black" points="1141,-168.5 1141,-187.5 1200,-187.5 1200,-168.5 1141,-168.5"/>
<text text-anchor="middle" x="1170.5" y="-175.5" font-family="Helvetica,sans-Serif" font-size="10.00">portable.h</text>
</a>
</g>
</g>
<!-- Node0&#45;&gt;Node28 -->
<g id="edge44" class="edge"><title>Node0&#45;&gt;Node28</title>
<path fill="none" stroke="midnightblue" d="M1019.02,-224.444C1049.57,-215.28 1098.21,-200.688 1132.1,-190.519"/>
<polygon fill="midnightblue" stroke="midnightblue" points="1133.54,-193.742 1142.11,-187.516 1131.53,-187.038 1133.54,-193.742"/>
</g>
<!-- Node1&#45;&gt;Node2 -->
<g id="edge2" class="edge"><title>Node1&#45;&gt;Node2</title>
<path fill="none" stroke="midnightblue" d="M547.443,-174.065C485.142,-167.827 347.227,-152.157 304.5,-132 255.361,-108.818 215.572,-55.8668 197.316,-28.3396"/>
<polygon fill="midnightblue" stroke="midnightblue" points="200.139,-26.2591 191.777,-19.7537 194.257,-30.0541 200.139,-26.2591"/>
</g>
<!-- Node1&#45;&gt;Node3 -->
<g id="edge3" class="edge"><title>Node1&#45;&gt;Node3</title>
<path fill="none" stroke="midnightblue" d="M584.445,-168.083C589.477,-160.534 596.837,-149.495 603.013,-140.23"/>
<polygon fill="midnightblue" stroke="midnightblue" points="606.031,-142.013 608.666,-131.751 600.207,-138.13 606.031,-142.013"/>
</g>
<!-- Node14&#45;&gt;Node6 -->
<g id="edge17" class="edge"><title>Node14&#45;&gt;Node6</title>
<path fill="none" stroke="midnightblue" d="M531.518,-112.368C525.358,-94.5366 511.111,-53.2953 502.812,-29.2717"/>
<polygon fill="midnightblue" stroke="midnightblue" points="506.041,-27.9005 499.468,-19.5914 499.425,-30.1862 506.041,-27.9005"/>
</g>
<!-- Node14&#45;&gt;Node8 -->
<g id="edge18" class="edge"><title>Node14&#45;&gt;Node8</title>
<path fill="none" stroke="midnightblue" d="M554.624,-112.444C575.524,-103.557 608.435,-89.5632 632.216,-79.4514"/>
<polygon fill="midnightblue" stroke="midnightblue" points="633.638,-82.6504 641.471,-75.5164 630.898,-76.2085 633.638,-82.6504"/>
</g>
<!-- Node15 -->
<g id="node16" class="node"><title>Node15</title>
<polygon fill="white" stroke="#bfbfbf" points="562.5,-56.5 562.5,-75.5 618.5,-75.5 618.5,-56.5 562.5,-56.5"/>
<text text-anchor="middle" x="590.5" y="-63.5" font-family="Helvetica,sans-Serif" font-size="10.00">qintdict.h</text>
</g>
<!-- Node14&#45;&gt;Node15 -->
<g id="edge19" class="edge"><title>Node14&#45;&gt;Node15</title>
<path fill="none" stroke="midnightblue" d="M543.497,-112.324C551.694,-104.42 564.006,-92.5482 573.972,-82.9377"/>
<polygon fill="midnightblue" stroke="midnightblue" points="576.57,-85.2947 581.339,-75.8339 571.711,-80.2558 576.57,-85.2947"/>
</g>
<!-- Node16&#45;&gt;Node4 -->
<g id="edge21" class="edge"><title>Node16&#45;&gt;Node4</title>
<path fill="none" stroke="midnightblue" d="M933.19,-168.368C949.506,-150.055 987.82,-107.049 1008.92,-83.3624"/>
<polygon fill="midnightblue" stroke="midnightblue" points="1011.81,-85.3863 1015.85,-75.5914 1006.58,-80.7298 1011.81,-85.3863"/>
</g>
<!-- Node17 -->
<g id="node18" class="node"><title>Node17</title>
<polygon fill="white" stroke="#bfbfbf" points="741.5,-112.5 741.5,-131.5 807.5,-131.5 807.5,-112.5 741.5,-112.5"/>
<text text-anchor="middle" x="774.5" y="-119.5" font-family="Helvetica,sans-Serif" font-size="10.00">qiodevice.h</text>
</g>
<!-- Node16&#45;&gt;Node17 -->
<g id="edge22" class="edge"><title>Node16&#45;&gt;Node17</title>
<path fill="none" stroke="midnightblue" d="M901.574,-168.444C876.281,-159.399 836.198,-145.064 807.82,-134.916"/>
<polygon fill="midnightblue" stroke="midnightblue" points="808.909,-131.588 798.314,-131.516 806.552,-138.179 808.909,-131.588"/>
</g>
<!-- Node18 -->
<g id="node19" class="node"><title>Node18</title>
<polygon fill="white" stroke="#bfbfbf" points="825.5,-112.5 825.5,-131.5 879.5,-131.5 879.5,-112.5 825.5,-112.5"/>
<text text-anchor="middle" x="852.5" y="-119.5" font-family="Helvetica,sans-Serif" font-size="10.00">qstring.h</text>
</g>
<!-- Node16&#45;&gt;Node18 -->
<g id="edge23" class="edge"><title>Node16&#45;&gt;Node18</title>
<path fill="none" stroke="midnightblue" d="M913.771,-168.324C902.663,-160.107 885.758,-147.602 872.517,-137.807"/>
<polygon fill="midnightblue" stroke="midnightblue" points="874.563,-134.967 864.442,-131.834 870.4,-140.595 874.563,-134.967"/>
</g>
<!-- Node19 -->
<g id="node20" class="node"><title>Node19</title>
<polygon fill="white" stroke="#bfbfbf" points="898,-112.5 898,-131.5 957,-131.5 957,-112.5 898,-112.5"/>
<text text-anchor="middle" x="927.5" y="-119.5" font-family="Helvetica,sans-Serif" font-size="10.00">qgstring.h</text>
</g>
<!-- Node16&#45;&gt;Node19 -->
<g id="edge24" class="edge"><title>Node16&#45;&gt;Node19</title>
<path fill="none" stroke="midnightblue" d="M925.83,-168.083C926.092,-161.006 926.468,-150.861 926.797,-141.986"/>
<polygon fill="midnightblue" stroke="midnightblue" points="930.303,-141.874 927.176,-131.751 923.308,-141.615 930.303,-141.874"/>
</g>
<!-- Node20&#45;&gt;Node4 -->
<g id="edge26" class="edge"><title>Node20&#45;&gt;Node4</title>
<path fill="none" stroke="midnightblue" d="M1049.85,-168.109C1047.45,-155.535 1042.72,-131.873 1037.5,-112 1035.16,-103.086 1032.17,-93.3046 1029.55,-85.1445"/>
<polygon fill="midnightblue" stroke="midnightblue" points="1032.85,-83.9759 1026.41,-75.5607 1026.2,-86.1533 1032.85,-83.9759"/>
</g>
<!-- Node20&#45;&gt;Node5 -->
<g id="edge27" class="edge"><title>Node20&#45;&gt;Node5</title>
<path fill="none" stroke="midnightblue" d="M1061.78,-168.324C1071.34,-160.263 1085.78,-148.077 1097.28,-138.369"/>
<polygon fill="midnightblue" stroke="midnightblue" points="1099.64,-140.958 1105.03,-131.834 1095.13,-135.608 1099.64,-140.958"/>
</g>
<!-- Node21&#45;&gt;Node6 -->
<g id="edge29" class="edge"><title>Node21&#45;&gt;Node6</title>
<path fill="none" stroke="midnightblue" d="M451.081,-168.075C458.636,-141.945 480.825,-65.2106 491.128,-29.577"/>
<polygon fill="midnightblue" stroke="midnightblue" points="494.607,-30.1468 494.022,-19.5681 487.882,-28.2023 494.607,-30.1468"/>
</g>
<!-- Node21&#45;&gt;Node14 -->
<g id="edge33" class="edge"><title>Node21&#45;&gt;Node14</title>
<path fill="none" stroke="midnightblue" d="M462.317,-168.324C475.733,-159.9 496.324,-146.971 512.086,-137.074"/>
<polygon fill="midnightblue" stroke="midnightblue" points="514.109,-139.936 520.717,-131.655 510.387,-134.008 514.109,-139.936"/>
</g>
<!-- Node22 -->
<g id="node23" class="node"><title>Node22</title>
<polygon fill="white" stroke="#bfbfbf" points="400,-112.5 400,-131.5 449,-131.5 449,-112.5 400,-112.5"/>
<text text-anchor="middle" x="424.5" y="-119.5" font-family="Helvetica,sans-Serif" font-size="10.00">ctype.h</text>
</g>
<!-- Node21&#45;&gt;Node22 -->
<g id="edge30" class="edge"><title>Node21&#45;&gt;Node22</title>
<path fill="none" stroke="midnightblue" d="M444.537,-168.083C441.287,-160.77 436.581,-150.181 432.546,-141.103"/>
<polygon fill="midnightblue" stroke="midnightblue" points="435.649,-139.468 428.389,-131.751 429.252,-142.311 435.649,-139.468"/>
</g>
<!-- Node23 -->
<g id="node24" class="node"><title>Node23</title>
<g id="a_node24"><a xlink:href="../../d9/d49/types_8h.html" target="_top" xlink:title="This file contains a number of basic enums and types. ">
<polygon fill="white" stroke="black" points="136,-56.5 136,-75.5 185,-75.5 185,-56.5 136,-56.5"/>
<text text-anchor="middle" x="160.5" y="-63.5" font-family="Helvetica,sans-Serif" font-size="10.00">types.h</text>
</a>
</g>
</g>
<!-- Node21&#45;&gt;Node23 -->
<g id="edge31" class="edge"><title>Node21&#45;&gt;Node23</title>
<path fill="none" stroke="midnightblue" d="M429.485,-175.586C377.974,-171.445 237.088,-157.969 199.5,-132 183.295,-120.804 172.707,-100.481 166.708,-85.5305"/>
<polygon fill="midnightblue" stroke="midnightblue" points="169.868,-83.9821 163.136,-75.8011 163.297,-86.3947 169.868,-83.9821"/>
</g>
<!-- Node24 -->
<g id="node25" class="node"><title>Node24</title>
<g id="a_node25"><a xlink:href="../../de/d9c/docparser_8h.html" target="_top" xlink:title="docparser.h">
<polygon fill="white" stroke="black" points="313.5,-112.5 313.5,-131.5 381.5,-131.5 381.5,-112.5 313.5,-112.5"/>
<text text-anchor="middle" x="347.5" y="-119.5" font-family="Helvetica,sans-Serif" font-size="10.00">docparser.h</text>
</a>
</g>
</g>
<!-- Node21&#45;&gt;Node24 -->
<g id="edge34" class="edge"><title>Node21&#45;&gt;Node24</title>
<path fill="none" stroke="midnightblue" d="M432.273,-168.324C416.149,-159.703 391.2,-146.364 372.536,-136.386"/>
<polygon fill="midnightblue" stroke="midnightblue" points="374.156,-133.283 363.687,-131.655 370.856,-139.456 374.156,-133.283"/>
</g>
<!-- Node23&#45;&gt;Node2 -->
<g id="edge32" class="edge"><title>Node23&#45;&gt;Node2</title>
<path fill="none" stroke="midnightblue" d="M164.793,-56.083C168.352,-48.6913 173.522,-37.9533 177.924,-28.8111"/>
<polygon fill="midnightblue" stroke="midnightblue" points="181.102,-30.2795 182.287,-19.7511 174.795,-27.2427 181.102,-30.2795"/>
</g>
<!-- Node24&#45;&gt;Node2 -->
<g id="edge37" class="edge"><title>Node24&#45;&gt;Node2</title>
<path fill="none" stroke="midnightblue" d="M331.502,-112.446C315.667,-103.796 290.906,-89.773 270.5,-76 246.942,-60.0996 221.302,-39.7832 204.626,-26.1324"/>
<polygon fill="midnightblue" stroke="midnightblue" points="206.723,-23.3245 196.782,-19.6601 202.268,-28.724 206.723,-23.3245"/>
</g>
<!-- Node24&#45;&gt;Node4 -->
<g id="edge35" class="edge"><title>Node24&#45;&gt;Node4</title>
<path fill="none" stroke="midnightblue" d="M381.694,-113.407C384.664,-112.88 387.63,-112.401 390.5,-112 618.495,-80.185 896.005,-70.3266 990.315,-67.7774"/>
<polygon fill="midnightblue" stroke="midnightblue" points="990.484,-71.2743 1000.39,-67.5144 990.301,-64.2767 990.484,-71.2743"/>
</g>
<!-- Node24&#45;&gt;Node6 -->
<g id="edge36" class="edge"><title>Node24&#45;&gt;Node6</title>
<path fill="none" stroke="midnightblue" d="M370.566,-112.481C389.839,-104.712 417.466,-92.015 438.5,-76 456.663,-62.1713 473.57,-42.0536 484.389,-27.8701"/>
<polygon fill="midnightblue" stroke="midnightblue" points="487.427,-29.6497 490.571,-19.5322 481.804,-25.4805 487.427,-29.6497"/>
</g>
<!-- Node25 -->
<g id="node26" class="node"><title>Node25</title>
<g id="a_node26"><a xlink:href="../../d2/d3c/docvisitor_8h.html" target="_top" xlink:title="docvisitor.h">
<polygon fill="white" stroke="black" points="363,-56.5 363,-75.5 430,-75.5 430,-56.5 363,-56.5"/>
<text text-anchor="middle" x="396.5" y="-63.5" font-family="Helvetica,sans-Serif" font-size="10.00">docvisitor.h</text>
</a>
</g>
</g>
<!-- Node24&#45;&gt;Node25 -->
<g id="edge38" class="edge"><title>Node24&#45;&gt;Node25</title>
<path fill="none" stroke="midnightblue" d="M355.591,-112.083C362.655,-104.298 373.088,-92.8015 381.649,-83.3665"/>
<polygon fill="midnightblue" stroke="midnightblue" points="384.431,-85.5087 388.559,-75.7511 379.247,-80.8047 384.431,-85.5087"/>
</g>
<!-- Node26 -->
<g id="node27" class="node"><title>Node26</title>
<g id="a_node27"><a xlink:href="../../d0/d73/htmlattrib_8h.html" target="_top" xlink:title="htmlattrib.h">
<polygon fill="white" stroke="black" points="280,-56.5 280,-75.5 345,-75.5 345,-56.5 280,-56.5"/>
<text text-anchor="middle" x="312.5" y="-63.5" font-family="Helvetica,sans-Serif" font-size="10.00">htmlattrib.h</text>
</a>
</g>
</g>
<!-- Node24&#45;&gt;Node26 -->
<g id="edge39" class="edge"><title>Node24&#45;&gt;Node26</title>
<path fill="none" stroke="midnightblue" d="M341.72,-112.083C336.828,-104.534 329.673,-93.4948 323.667,-84.2298"/>
<polygon fill="midnightblue" stroke="midnightblue" points="326.548,-82.239 318.172,-75.7511 320.674,-86.0463 326.548,-82.239"/>
</g>
<!-- Node26&#45;&gt;Node2 -->
<g id="edge40" class="edge"><title>Node26&#45;&gt;Node2</title>
<path fill="none" stroke="midnightblue" d="M292.535,-56.4435C271.891,-47.5961 239.437,-33.6875 215.868,-23.5865"/>
<polygon fill="midnightblue" stroke="midnightblue" points="216.942,-20.2387 206.372,-19.5164 214.184,-26.6727 216.942,-20.2387"/>
</g>
<!-- Node26&#45;&gt;Node6 -->
<g id="edge41" class="edge"><title>Node26&#45;&gt;Node6</title>
<path fill="none" stroke="midnightblue" d="M341.655,-56.4435C375.267,-46.5794 430.314,-30.424 464.919,-20.2685"/>
<polygon fill="midnightblue" stroke="midnightblue" points="466.345,-23.4974 474.955,-17.323 464.374,-16.7807 466.345,-23.4974"/>
</g>
<!-- Node27&#45;&gt;Node2 -->
<g id="edge43" class="edge"><title>Node27&#45;&gt;Node2</title>
<path fill="none" stroke="midnightblue" d="M62.7926,-56.4435C87.3074,-47.4381 126.096,-33.1891 153.7,-23.049"/>
<polygon fill="midnightblue" stroke="midnightblue" points="155.137,-26.25 163.316,-19.5164 152.723,-19.6793 155.137,-26.25"/>
</g>
<!-- Node28&#45;&gt;Node4 -->
<g id="edge46" class="edge"><title>Node28&#45;&gt;Node4</title>
<path fill="none" stroke="midnightblue" d="M1170.21,-168.189C1169.29,-154.4 1165.54,-127.681 1150.5,-112 1125.7,-86.1352 1085.11,-75.1117 1056.5,-70.4291"/>
<polygon fill="midnightblue" stroke="midnightblue" points="1056.95,-66.9587 1046.55,-68.9752 1055.94,-73.885 1056.95,-66.9587"/>
</g>
<!-- Node29 -->
<g id="node30" class="node"><title>Node29</title>
<polygon fill="white" stroke="#bfbfbf" points="1197.5,-112.5 1197.5,-131.5 1265.5,-131.5 1265.5,-112.5 1197.5,-112.5"/>
<text text-anchor="middle" x="1231.5" y="-119.5" font-family="Helvetica,sans-Serif" font-size="10.00">sys/types.h</text>
</g>
<!-- Node28&#45;&gt;Node29 -->
<g id="edge45" class="edge"><title>Node28&#45;&gt;Node29</title>
<path fill="none" stroke="midnightblue" d="M1180.3,-168.324C1189.32,-160.341 1202.91,-148.313 1213.82,-138.653"/>
<polygon fill="midnightblue" stroke="midnightblue" points="1216.35,-141.083 1221.52,-131.834 1211.71,-135.842 1216.35,-141.083"/>
</g>
<!-- Node30 -->
<g id="node31" class="node"><title>Node30</title>
<polygon fill="white" stroke="#bfbfbf" points="1283.5,-112.5 1283.5,-131.5 1339.5,-131.5 1339.5,-112.5 1283.5,-112.5"/>
<text text-anchor="middle" x="1311.5" y="-119.5" font-family="Helvetica,sans-Serif" font-size="10.00">qglobal.h</text>
</g>
<!-- Node28&#45;&gt;Node30 -->
<g id="edge47" class="edge"><title>Node28&#45;&gt;Node30</title>
<path fill="none" stroke="midnightblue" d="M1192.84,-168.444C1216.25,-159.478 1253.24,-145.314 1279.69,-135.183"/>
<polygon fill="midnightblue" stroke="midnightblue" points="1281.18,-138.361 1289.26,-131.516 1278.67,-131.824 1281.18,-138.361"/>
</g>
</g>
</svg>
        <g id="navigator" transform="translate(0 0)" fill="#404254">
                <rect fill="#f2f5e9" fill-opacity="0.5" stroke="#606060" stroke-width=".5" x="0" y="0" width="60" height="60"/>
                <use id="zoomplus" xlink:href="#zoomPlus" x="17" y="9" onmousedown="handleZoom(evt,'in')"/>
                <use id="zoomminus" xlink:href="#zoomMin" x="42" y="9" onmousedown="handleZoom(evt,'out')"/>
                <use id="reset" xlink:href="#resetDef" x="30" y="36" onmousedown="handleReset()"/>
                <g id="arrowUp" xlink:href="#dirArrow" transform="translate(30 24)" onmousedown="handlePan(0,-1)">
                  <use xlink:href="#rim" fill="#404040">
                        <set attributeName="fill" to="#808080" begin="arrowUp.mouseover" end="arrowUp.mouseout"/>
                  </use>
                  <path fill="none" stroke="white" stroke-width="1.5" d="M0,-3.0v7 M-2.5,-0.5L0,-3.0L2.5,-0.5"/>
                </g>
                <g id="arrowRight" xlink:href="#dirArrow" transform="rotate(90) translate(36 -43)" onmousedown="handlePan(1,0)">
                  <use xlink:href="#rim" fill="#404040">
                        <set attributeName="fill" to="#808080" begin="arrowRight.mouseover" end="arrowRight.mouseout"/>
                  </use>
                  <path fill="none" stroke="white" stroke-width="1.5" d="M0,-3.0v7 M-2.5,-0.5L0,-3.0L2.5,-0.5"/>
                </g>
                <g id="arrowDown" xlink:href="#dirArrow" transform="rotate(180) translate(-30 -48)" onmousedown="handlePan(0,1)">
                  <use xlink:href="#rim" fill="#404040">
                        <set attributeName="fill" to="#808080" begin="arrowDown.mouseover" end="arrowDown.mouseout"/>
                  </use>
                  <path fill="none" stroke="white" stroke-width="1.5" d="M0,-3.0v7 M-2.5,-0.5L0,-3.0L2.5,-0.5"/>
                </g>
                <g id="arrowLeft" xlink:href="#dirArrow" transform="rotate(270) translate(-36 17)" onmousedown="handlePan(-1,0)">
                  <use xlink:href="#rim" fill="#404040">
                        <set attributeName="fill" to="#808080" begin="arrowLeft.mouseover" end="arrowLeft.mouseout"/>
                  </use>
                  <path fill="none" stroke="white" stroke-width="1.5" d="M0,-3.0v7 M-2.5,-0.5L0,-3.0L2.5,-0.5"/>
                </g>
        </g>
        <svg viewBox="0 0 15 15" width="100%" height="30px" preserveAspectRatio="xMaxYMin meet">
         <g id="arrow_out" transform="scale(0.3 0.3)">
          <a xlink:href="template_8cpp__incl_org.svg" target="_base">
           <rect id="button" ry="5" rx="5" y="6" x="6" height="38" width="38"
                fill="#f2f5e9" fill-opacity="0.5" stroke="#606060" stroke-width="1.0"/>
           <path id="arrow"
             d="M 11.500037,31.436501 C 11.940474,20.09759 22.043105,11.32322 32.158766,21.979434 L 37.068811,17.246167 C 37.068811,17.246167 37.088388,32 37.088388,32 L 22.160133,31.978069 C 22.160133,31.978069 26.997745,27.140456 26.997745,27.140456 C 18.528582,18.264221 13.291696,25.230495 11.500037,31.436501 z"
             style="fill:#404040;"/>
          </a>
         </g>
        </svg>
</svg>
