<?xml version="1.0" encoding="UTF-8" standalone="no"?>
<!DOCTYPE svg PUBLIC "-//W3C//DTD SVG 1.1//EN"
 "http://www.w3.org/Graphics/SVG/1.1/DTD/svg11.dtd">
<!-- Generated by graphviz version 2.38.0 (20140413.2041)
 -->
<!-- Title: SymbolIndexContext::Private Pages: 1 -->
<svg width="1426pt" height="311pt"
 viewBox="0.00 0.00 1426.00 311.00" xmlns="http://www.w3.org/2000/svg" xmlns:xlink="http://www.w3.org/1999/xlink">
<g id="graph0" class="graph" transform="scale(1 1) rotate(0) translate(4 307)">
<title>SymbolIndexContext::Private</title>
<polygon fill="white" stroke="none" points="-4,4 -4,-307 1422,-307 1422,4 -4,4"/>
<!-- Node1 -->
<g id="node1" class="node"><title>Node1</title>
<polygon fill="#bfbfbf" stroke="black" points="1310,-142 1310,-172 1418,-172 1418,-142 1310,-142"/>
<text text-anchor="start" x="1318" y="-160" font-family="Helvetica,sans-Serif" font-size="10.00">SymbolIndexContext</text>
<text text-anchor="middle" x="1364" y="-149" font-family="Helvetica,sans-Serif" font-size="10.00">::Private</text>
</g>
<!-- Node2 -->
<g id="node2" class="node"><title>Node2</title>
<g id="a_node2"><a xlink:href="../../dd/df6/struct_symbol_index_context_1_1_private_1_1_cachable.html" target="_top" xlink:title="SymbolIndexContext\l::Private::Cachable">
<polygon fill="white" stroke="black" points="1082,-191 1082,-221 1190,-221 1190,-191 1082,-191"/>
<text text-anchor="start" x="1090" y="-209" font-family="Helvetica,sans-Serif" font-size="10.00">SymbolIndexContext</text>
<text text-anchor="middle" x="1136" y="-198" font-family="Helvetica,sans-Serif" font-size="10.00">::Private::Cachable</text>
</a>
</g>
</g>
<!-- Node2&#45;&gt;Node1 -->
<g id="edge1" class="edge"><title>Node2&#45;&gt;Node1</title>
<path fill="none" stroke="#9a32cd" stroke-dasharray="5,2" d="M1200.24,-192.289C1234.71,-184.815 1276.91,-175.666 1309.69,-168.558"/>
<polygon fill="#9a32cd" stroke="#9a32cd" points="1199.3,-188.91 1190.27,-194.45 1200.79,-195.751 1199.3,-188.91"/>
<text text-anchor="middle" x="1261" y="-188" font-family="Helvetica,sans-Serif" font-size="10.00"> m_cache</text>
</g>
<!-- Node3 -->
<g id="node3" class="node"><title>Node3</title>
<g id="a_node3"><a xlink:href="../../df/d12/class_shared_ptr.html" target="_top" xlink:title="SharedPtr\&lt; SymbolGroupList\lContext \&gt;">
<polygon fill="white" stroke="black" points="769.5,-191 769.5,-221 913.5,-221 913.5,-191 769.5,-191"/>
<text text-anchor="start" x="777.5" y="-209" font-family="Helvetica,sans-Serif" font-size="10.00">SharedPtr&lt; SymbolGroupList</text>
<text text-anchor="middle" x="841.5" y="-198" font-family="Helvetica,sans-Serif" font-size="10.00">Context &gt;</text>
</a>
</g>
</g>
<!-- Node3&#45;&gt;Node2 -->
<g id="edge2" class="edge"><title>Node3&#45;&gt;Node2</title>
<path fill="none" stroke="#9a32cd" stroke-dasharray="5,2" d="M923.923,-206C974.426,-206 1037.86,-206 1081.94,-206"/>
<polygon fill="#9a32cd" stroke="#9a32cd" points="923.68,-202.5 913.68,-206 923.679,-209.5 923.68,-202.5"/>
<text text-anchor="middle" x="987.5" y="-209" font-family="Helvetica,sans-Serif" font-size="10.00"> symbolGroups</text>
</g>
<!-- Node4 -->
<g id="node4" class="node"><title>Node4</title>
<g id="a_node4"><a xlink:href="../../d1/dc6/class_symbol_group_list_context.html" target="_top" xlink:title="SymbolGroupListContext">
<polygon fill="white" stroke="black" points="475,-232.5 475,-251.5 601,-251.5 601,-232.5 475,-232.5"/>
<text text-anchor="middle" x="538" y="-239.5" font-family="Helvetica,sans-Serif" font-size="10.00">SymbolGroupListContext</text>
</a>
</g>
</g>
<!-- Node4&#45;&gt;Node3 -->
<g id="edge3" class="edge"><title>Node4&#45;&gt;Node3</title>
<path fill="none" stroke="#9a32cd" stroke-dasharray="5,2" d="M611.104,-233.391C659.058,-227.665 721.759,-220.178 769.487,-214.479"/>
<polygon fill="#9a32cd" stroke="#9a32cd" points="610.62,-229.923 601.105,-234.584 611.45,-236.874 610.62,-229.923"/>
<text text-anchor="middle" x="684.5" y="-235" font-family="Helvetica,sans-Serif" font-size="10.00"> m_ptr</text>
</g>
<!-- Node5 -->
<g id="node5" class="node"><title>Node5</title>
<g id="a_node5"><a xlink:href="../../d8/d96/class_ref_counted_context.html" target="_top" xlink:title="Helper class to support reference counting. ">
<polygon fill="white" stroke="black" points="296,-283.5 296,-302.5 400,-302.5 400,-283.5 296,-283.5"/>
<text text-anchor="middle" x="348" y="-290.5" font-family="Helvetica,sans-Serif" font-size="10.00">RefCountedContext</text>
</a>
</g>
</g>
<!-- Node5&#45;&gt;Node4 -->
<g id="edge4" class="edge"><title>Node5&#45;&gt;Node4</title>
<path fill="none" stroke="midnightblue" d="M407.04,-281.297C423.294,-277.696 440.913,-273.488 457,-269 475.214,-263.918 495.385,-257.102 510.917,-251.59"/>
<polygon fill="midnightblue" stroke="midnightblue" points="406.148,-277.909 397.122,-283.457 407.638,-284.749 406.148,-277.909"/>
</g>
<!-- Node6 -->
<g id="node6" class="node"><title>Node6</title>
<g id="a_node6"><a xlink:href="../../d6/d88/class_template_list_intf.html" target="_top" xlink:title="Abstract read&#45;only interface for a context value of type list. ">
<polygon fill="white" stroke="black" points="0,-229.5 0,-248.5 87,-248.5 87,-229.5 0,-229.5"/>
<text text-anchor="middle" x="43.5" y="-236.5" font-family="Helvetica,sans-Serif" font-size="10.00">TemplateListIntf</text>
</a>
</g>
</g>
<!-- Node6&#45;&gt;Node4 -->
<g id="edge5" class="edge"><title>Node6&#45;&gt;Node4</title>
<path fill="none" stroke="midnightblue" d="M97.2707,-240.84C99.884,-240.901 102.472,-240.955 105,-241 236.605,-243.327 390.796,-242.933 474.755,-242.456"/>
<polygon fill="midnightblue" stroke="midnightblue" points="97.2228,-237.338 87.1342,-240.574 97.0388,-244.335 97.2228,-237.338"/>
</g>
<!-- Node8 -->
<g id="node8" class="node"><title>Node8</title>
<g id="a_node8"><a xlink:href="../../d6/dcb/class_generic_node_list_context.html" target="_top" xlink:title="standard template list implementation ">
<polygon fill="white" stroke="black" points="124,-206.5 124,-225.5 248,-225.5 248,-206.5 124,-206.5"/>
<text text-anchor="middle" x="186" y="-213.5" font-family="Helvetica,sans-Serif" font-size="10.00">GenericNodeListContext</text>
</a>
</g>
</g>
<!-- Node6&#45;&gt;Node8 -->
<g id="edge8" class="edge"><title>Node6&#45;&gt;Node8</title>
<path fill="none" stroke="midnightblue" d="M96.9632,-230.412C106.691,-228.819 116.907,-227.147 126.794,-225.528"/>
<polygon fill="midnightblue" stroke="midnightblue" points="96.3391,-226.967 87.0359,-232.037 97.47,-233.875 96.3391,-226.967"/>
</g>
<!-- Node7 -->
<g id="node7" class="node"><title>Node7</title>
<g id="a_node7"><a xlink:href="../../d4/d0d/class_symbol_group_list_context_1_1_private.html" target="_top" xlink:title="SymbolGroupListContext\l::Private">
<polygon fill="white" stroke="black" points="285,-196 285,-226 411,-226 411,-196 285,-196"/>
<text text-anchor="start" x="293" y="-214" font-family="Helvetica,sans-Serif" font-size="10.00">SymbolGroupListContext</text>
<text text-anchor="middle" x="348" y="-203" font-family="Helvetica,sans-Serif" font-size="10.00">::Private</text>
</a>
</g>
</g>
<!-- Node7&#45;&gt;Node4 -->
<g id="edge6" class="edge"><title>Node7&#45;&gt;Node4</title>
<path fill="none" stroke="#9a32cd" stroke-dasharray="5,2" d="M420.998,-222.872C440.229,-226.043 460.76,-229.429 479.123,-232.456"/>
<polygon fill="#9a32cd" stroke="#9a32cd" points="421.515,-219.41 411.079,-221.236 420.377,-226.317 421.515,-219.41"/>
<text text-anchor="middle" x="443" y="-231" font-family="Helvetica,sans-Serif" font-size="10.00"> p</text>
</g>
<!-- Node8&#45;&gt;Node7 -->
<g id="edge7" class="edge"><title>Node8&#45;&gt;Node7</title>
<path fill="none" stroke="midnightblue" d="M258.629,-213.762C267.416,-213.487 276.339,-213.208 284.968,-212.938"/>
<polygon fill="midnightblue" stroke="midnightblue" points="258.288,-210.27 248.403,-214.081 258.507,-217.267 258.288,-210.27"/>
</g>
<!-- Node9 -->
<g id="node9" class="node"><title>Node9</title>
<g id="a_node9"><a xlink:href="../../df/d12/class_shared_ptr.html" target="_top" xlink:title="Reference counting smart pointer. ">
<polygon fill="white" stroke="black" points="496,-160.5 496,-179.5 580,-179.5 580,-160.5 496,-160.5"/>
<text text-anchor="middle" x="538" y="-167.5" font-family="Helvetica,sans-Serif" font-size="10.00">SharedPtr&lt; T &gt;</text>
</a>
</g>
</g>
<!-- Node9&#45;&gt;Node3 -->
<g id="edge9" class="edge"><title>Node9&#45;&gt;Node3</title>
<path fill="none" stroke="orange" stroke-dasharray="5,2" d="M590.397,-176.137C639.651,-182.018 714.413,-190.945 769.373,-197.507"/>
<polygon fill="orange" stroke="orange" points="590.635,-172.641 580.29,-174.93 589.805,-179.591 590.635,-172.641"/>
<text text-anchor="middle" x="684.5" y="-197" font-family="Helvetica,sans-Serif" font-size="10.00"> &lt; SymbolGroupListContext &gt;</text>
</g>
<!-- Node10 -->
<g id="node10" class="node"><title>Node10</title>
<polygon fill="white" stroke="#bfbfbf" points="333.5,-157.5 333.5,-176.5 362.5,-176.5 362.5,-157.5 333.5,-157.5"/>
<text text-anchor="middle" x="348" y="-164.5" font-family="Helvetica,sans-Serif" font-size="10.00">T</text>
</g>
<!-- Node10&#45;&gt;Node9 -->
<g id="edge10" class="edge"><title>Node10&#45;&gt;Node9</title>
<path fill="none" stroke="#9a32cd" stroke-dasharray="5,2" d="M372.771,-167.379C403.696,-167.873 458.215,-168.743 495.906,-169.344"/>
<polygon fill="#9a32cd" stroke="#9a32cd" points="372.575,-163.876 362.52,-167.216 372.463,-170.875 372.575,-163.876"/>
<text text-anchor="middle" x="443" y="-172" font-family="Helvetica,sans-Serif" font-size="10.00"> m_ptr</text>
</g>
<!-- Node11 -->
<g id="node11" class="node"><title>Node11</title>
<g id="a_node11"><a xlink:href="../../d1/d80/class_property_mapper.html" target="_top" xlink:title="PropertyMapper\&lt; SymbolIndex\lContext::Private \&gt;">
<polygon fill="white" stroke="black" points="1060,-142 1060,-172 1212,-172 1212,-142 1060,-142"/>
<text text-anchor="start" x="1068" y="-160" font-family="Helvetica,sans-Serif" font-size="10.00">PropertyMapper&lt; SymbolIndex</text>
<text text-anchor="middle" x="1136" y="-149" font-family="Helvetica,sans-Serif" font-size="10.00">Context::Private &gt;</text>
</a>
</g>
</g>
<!-- Node11&#45;&gt;Node1 -->
<g id="edge11" class="edge"><title>Node11&#45;&gt;Node1</title>
<path fill="none" stroke="#9a32cd" stroke-dasharray="5,2" d="M1222.51,-157C1251.85,-157 1283.82,-157 1309.85,-157"/>
<polygon fill="#9a32cd" stroke="#9a32cd" points="1222.25,-153.5 1212.25,-157 1222.25,-160.5 1222.25,-153.5"/>
<text text-anchor="middle" x="1261" y="-160" font-family="Helvetica,sans-Serif" font-size="10.00"> s_inst</text>
</g>
<!-- Node12 -->
<g id="node12" class="node"><title>Node12</title>
<g id="a_node12"><a xlink:href="../../d1/d80/class_property_mapper.html" target="_top" xlink:title="Helper class to map a property name to a handler member function. ">
<polygon fill="white" stroke="black" points="786.5,-149.5 786.5,-168.5 896.5,-168.5 896.5,-149.5 786.5,-149.5"/>
<text text-anchor="middle" x="841.5" y="-156.5" font-family="Helvetica,sans-Serif" font-size="10.00">PropertyMapper&lt; T &gt;</text>
</a>
</g>
</g>
<!-- Node12&#45;&gt;Node11 -->
<g id="edge12" class="edge"><title>Node12&#45;&gt;Node11</title>
<path fill="none" stroke="orange" stroke-dasharray="5,2" d="M907.075,-158.558C952.154,-158.25 1012.47,-157.838 1059.73,-157.515"/>
<polygon fill="orange" stroke="orange" points="906.807,-155.06 896.832,-158.629 906.855,-162.06 906.807,-155.06"/>
<text text-anchor="start" x="935.5" y="-173" font-family="Helvetica,sans-Serif" font-size="10.00"> &lt; SymbolIndexContext</text>
<text text-anchor="middle" x="987.5" y="-162" font-family="Helvetica,sans-Serif" font-size="10.00">::Private &gt;</text>
</g>
<!-- Node13 -->
<g id="node13" class="node"><title>Node13</title>
<g id="a_node13"><a xlink:href="../../d8/d43/class_search_index_list.html" target="_top" xlink:title="SearchIndexList">
<polygon fill="white" stroke="black" points="1092.5,-0.5 1092.5,-19.5 1179.5,-19.5 1179.5,-0.5 1092.5,-0.5"/>
<text text-anchor="middle" x="1136" y="-7.5" font-family="Helvetica,sans-Serif" font-size="10.00">SearchIndexList</text>
</a>
</g>
</g>
<!-- Node13&#45;&gt;Node1 -->
<g id="edge13" class="edge"><title>Node13&#45;&gt;Node1</title>
<path fill="none" stroke="#9a32cd" stroke-dasharray="5,2" d="M1160.3,-25.1526C1203.64,-53.3478 1296.22,-113.562 1339.63,-141.796"/>
<polygon fill="#9a32cd" stroke="#9a32cd" points="1162.12,-22.1637 1151.83,-19.6451 1158.3,-28.0316 1162.12,-22.1637"/>
<text text-anchor="middle" x="1261" y="-113" font-family="Helvetica,sans-Serif" font-size="10.00"> m_searchList</text>
</g>
<!-- Node14 -->
<g id="node14" class="node"><title>Node14</title>
<g id="a_node14"><a xlink:href="../../d1/d50/class_s_dict.html" target="_top" xlink:title="SDict\&lt; SearchDefinitionList \&gt;">
<polygon fill="white" stroke="black" points="768,-17.5 768,-36.5 915,-36.5 915,-17.5 768,-17.5"/>
<text text-anchor="middle" x="841.5" y="-24.5" font-family="Helvetica,sans-Serif" font-size="10.00">SDict&lt; SearchDefinitionList &gt;</text>
</a>
</g>
</g>
<!-- Node14&#45;&gt;Node13 -->
<g id="edge14" class="edge"><title>Node14&#45;&gt;Node13</title>
<path fill="none" stroke="midnightblue" d="M889.122,-15.2888C903.133,-12.2915 918.608,-9.49443 933,-8 987.767,-2.31294 1051.33,-4.35364 1092.31,-6.78251"/>
<polygon fill="midnightblue" stroke="midnightblue" points="888.216,-11.9045 879.214,-17.4909 889.735,-18.7378 888.216,-11.9045"/>
</g>
<!-- Node15 -->
<g id="node15" class="node"><title>Node15</title>
<g id="a_node15"><a xlink:href="../../df/dce/class_s_list.html" target="_top" xlink:title="SList\&lt; SearchDefinitionList \&gt;">
<polygon fill="white" stroke="black" points="1063.5,-69.5 1063.5,-88.5 1208.5,-88.5 1208.5,-69.5 1063.5,-69.5"/>
<text text-anchor="middle" x="1136" y="-76.5" font-family="Helvetica,sans-Serif" font-size="10.00">SList&lt; SearchDefinitionList &gt;</text>
</a>
</g>
</g>
<!-- Node14&#45;&gt;Node15 -->
<g id="edge17" class="edge"><title>Node14&#45;&gt;Node15</title>
<path fill="none" stroke="#9a32cd" stroke-dasharray="5,2" d="M906.319,-38.3455C958.626,-47.6446 1031.82,-60.6575 1081.2,-69.435"/>
<polygon fill="#9a32cd" stroke="#9a32cd" points="906.607,-34.842 896.149,-36.5376 905.382,-41.734 906.607,-34.842"/>
<text text-anchor="middle" x="987.5" y="-66" font-family="Helvetica,sans-Serif" font-size="10.00"> m_owner</text>
</g>
<!-- Node15&#45;&gt;Node14 -->
<g id="edge15" class="edge"><title>Node15&#45;&gt;Node14</title>
<path fill="none" stroke="#9a32cd" stroke-dasharray="5,2" d="M1113.77,-63.3286C1095.72,-51.0298 1068.57,-34.8771 1042,-28 1000.93,-17.367 953.479,-16.6811 915.165,-18.8574"/>
<polygon fill="#9a32cd" stroke="#9a32cd" points="1112.13,-66.4569 1122.33,-69.3392 1116.16,-60.7281 1112.13,-66.4569"/>
<text text-anchor="middle" x="987.5" y="-31" font-family="Helvetica,sans-Serif" font-size="10.00"> m_list</text>
</g>
<!-- Node16 -->
<g id="node16" class="node"><title>Node16</title>
<polygon fill="white" stroke="#bfbfbf" points="768.5,-111.5 768.5,-130.5 914.5,-130.5 914.5,-111.5 768.5,-111.5"/>
<text text-anchor="middle" x="841.5" y="-118.5" font-family="Helvetica,sans-Serif" font-size="10.00">QList&lt; SearchDefinitionList &gt;</text>
</g>
<!-- Node16&#45;&gt;Node15 -->
<g id="edge16" class="edge"><title>Node16&#45;&gt;Node15</title>
<path fill="none" stroke="midnightblue" d="M924.685,-112.451C960.761,-108.353 1003.57,-103.023 1042,-97 1057.43,-94.5811 1074.22,-91.4786 1089.23,-88.5331"/>
<polygon fill="midnightblue" stroke="midnightblue" points="924.244,-108.978 914.698,-113.573 925.026,-115.934 924.244,-108.978"/>
</g>
<!-- Node17 -->
<g id="node17" class="node"><title>Node17</title>
<g id="a_node17"><a xlink:href="../../df/dce/class_s_list.html" target="_top" xlink:title="internal wrapper class that redirects compareValues() to the dictionary ">
<polygon fill="white" stroke="black" points="810,-73.5 810,-92.5 873,-92.5 873,-73.5 810,-73.5"/>
<text text-anchor="middle" x="841.5" y="-80.5" font-family="Helvetica,sans-Serif" font-size="10.00">SList&lt; T &gt;</text>
</a>
</g>
</g>
<!-- Node17&#45;&gt;Node15 -->
<g id="edge18" class="edge"><title>Node17&#45;&gt;Node15</title>
<path fill="none" stroke="orange" stroke-dasharray="5,2" d="M883.269,-82.4425C929.829,-81.8058 1006.87,-80.7523 1063.48,-79.9781"/>
<polygon fill="orange" stroke="orange" points="883.201,-78.943 873.25,-82.5795 883.297,-85.9423 883.201,-78.943"/>
<text text-anchor="middle" x="987.5" y="-85" font-family="Helvetica,sans-Serif" font-size="10.00"> &lt; SearchDefinitionList &gt;</text>
</g>
<!-- Node18 -->
<g id="node18" class="node"><title>Node18</title>
<polygon fill="white" stroke="#bfbfbf" points="506,-73.5 506,-92.5 570,-92.5 570,-73.5 506,-73.5"/>
<text text-anchor="middle" x="538" y="-80.5" font-family="Helvetica,sans-Serif" font-size="10.00">QList&lt; T &gt;</text>
</g>
<!-- Node18&#45;&gt;Node17 -->
<g id="edge19" class="edge"><title>Node18&#45;&gt;Node17</title>
<path fill="none" stroke="midnightblue" d="M580.23,-83C641.589,-83 755.536,-83 809.988,-83"/>
<polygon fill="midnightblue" stroke="midnightblue" points="580.13,-79.5001 570.13,-83 580.13,-86.5001 580.13,-79.5001"/>
</g>
<!-- Node19 -->
<g id="node19" class="node"><title>Node19</title>
<g id="a_node19"><a xlink:href="../../d1/d50/class_s_dict.html" target="_top" xlink:title="Ordered dictionary of elements of type T. ">
<polygon fill="white" stroke="black" points="505.5,-17.5 505.5,-36.5 570.5,-36.5 570.5,-17.5 505.5,-17.5"/>
<text text-anchor="middle" x="538" y="-24.5" font-family="Helvetica,sans-Serif" font-size="10.00">SDict&lt; T &gt;</text>
</a>
</g>
</g>
<!-- Node19&#45;&gt;Node14 -->
<g id="edge20" class="edge"><title>Node19&#45;&gt;Node14</title>
<path fill="none" stroke="orange" stroke-dasharray="5,2" d="M580.773,-27C628.993,-27 709.163,-27 767.7,-27"/>
<polygon fill="orange" stroke="orange" points="580.696,-23.5001 570.696,-27 580.696,-30.5001 580.696,-23.5001"/>
<text text-anchor="middle" x="684.5" y="-30" font-family="Helvetica,sans-Serif" font-size="10.00"> &lt; SearchDefinitionList &gt;</text>
</g>
</g>
</svg>
