<?xml version="1.0" encoding="UTF-8" standalone="no"?>
<!DOCTYPE svg PUBLIC "-//W3C//DTD SVG 1.1//EN"
 "http://www.w3.org/Graphics/SVG/1.1/DTD/svg11.dtd">
<!-- Generated by graphviz version 2.38.0 (20140413.2041)
 -->
<!-- Title: UsedFilesContext Pages: 1 -->
<svg width="300pt" height="209pt"
 viewBox="0.00 0.00 300.00 209.00" xmlns="http://www.w3.org/2000/svg" xmlns:xlink="http://www.w3.org/1999/xlink">
<g id="graph0" class="graph" transform="scale(1 1) rotate(0) translate(4 205)">
<title>UsedFilesContext</title>
<polygon fill="white" stroke="none" points="-4,4 -4,-205 296,-205 296,4 -4,4"/>
<!-- Node3 -->
<g id="node1" class="node"><title>Node3</title>
<polygon fill="#bfbfbf" stroke="black" points="84.5,-0.5 84.5,-19.5 179.5,-19.5 179.5,-0.5 84.5,-0.5"/>
<text text-anchor="middle" x="132" y="-7.5" font-family="Helvetica,sans-Serif" font-size="10.00">UsedFilesContext</text>
</g>
<!-- Node4 -->
<g id="node2" class="node"><title>Node4</title>
<g id="a_node2"><a xlink:href="../../d8/d96/class_ref_counted_context.html" target="_top" xlink:title="Helper class to support reference counting. ">
<polygon fill="white" stroke="black" points="0,-67.5 0,-86.5 104,-86.5 104,-67.5 0,-67.5"/>
<text text-anchor="middle" x="52" y="-74.5" font-family="Helvetica,sans-Serif" font-size="10.00">RefCountedContext</text>
</a>
</g>
</g>
<!-- Node4&#45;&gt;Node3 -->
<g id="edge1" class="edge"><title>Node4&#45;&gt;Node3</title>
<path fill="none" stroke="midnightblue" d="M70.8143,-60.7134C86.576,-47.907 108.507,-30.0884 121.382,-19.6273"/>
<polygon fill="midnightblue" stroke="midnightblue" points="68.3432,-58.2114 62.7892,-67.2338 72.7574,-63.6443 68.3432,-58.2114"/>
</g>
<!-- Node5 -->
<g id="node3" class="node"><title>Node5</title>
<g id="a_node3"><a xlink:href="../../d6/d88/class_template_list_intf.html" target="_top" xlink:title="Abstract read&#45;only interface for a context value of type list. ">
<polygon fill="white" stroke="black" points="117.5,-181.5 117.5,-200.5 204.5,-200.5 204.5,-181.5 117.5,-181.5"/>
<text text-anchor="middle" x="161" y="-188.5" font-family="Helvetica,sans-Serif" font-size="10.00">TemplateListIntf</text>
</a>
</g>
</g>
<!-- Node5&#45;&gt;Node3 -->
<g id="edge2" class="edge"><title>Node5&#45;&gt;Node3</title>
<path fill="none" stroke="midnightblue" d="M157.163,-171.377C155.492,-163.022 153.562,-153.032 152,-144 143.923,-97.2929 136.08,-41.03 133.178,-19.7356"/>
<polygon fill="midnightblue" stroke="midnightblue" points="153.739,-172.1 159.159,-181.203 160.598,-170.706 153.739,-172.1"/>
</g>
<!-- Node7 -->
<g id="node5" class="node"><title>Node7</title>
<g id="a_node5"><a xlink:href="../../d6/dcb/class_generic_node_list_context.html" target="_top" xlink:title="standard template list implementation ">
<polygon fill="white" stroke="black" points="161,-124.5 161,-143.5 285,-143.5 285,-124.5 161,-124.5"/>
<text text-anchor="middle" x="223" y="-131.5" font-family="Helvetica,sans-Serif" font-size="10.00">GenericNodeListContext</text>
</a>
</g>
</g>
<!-- Node5&#45;&gt;Node7 -->
<g id="edge5" class="edge"><title>Node5&#45;&gt;Node7</title>
<path fill="none" stroke="midnightblue" d="M178.238,-174.708C189.503,-164.715 203.81,-152.024 213.176,-143.715"/>
<polygon fill="midnightblue" stroke="midnightblue" points="175.846,-172.152 170.688,-181.406 180.491,-177.388 175.846,-172.152"/>
</g>
<!-- Node6 -->
<g id="node4" class="node"><title>Node6</title>
<g id="a_node4"><a xlink:href="../../db/da0/class_used_files_context_1_1_private.html" target="_top" xlink:title="UsedFilesContext::Private">
<polygon fill="white" stroke="black" points="160,-67.5 160,-86.5 292,-86.5 292,-67.5 160,-67.5"/>
<text text-anchor="middle" x="226" y="-74.5" font-family="Helvetica,sans-Serif" font-size="10.00">UsedFilesContext::Private</text>
</a>
</g>
</g>
<!-- Node6&#45;&gt;Node3 -->
<g id="edge3" class="edge"><title>Node6&#45;&gt;Node3</title>
<path fill="none" stroke="#9a32cd" stroke-dasharray="5,2" d="M204.915,-61.4196C186.331,-48.5695 159.885,-30.2821 144.476,-19.6273"/>
<polygon fill="#9a32cd" stroke="#9a32cd" points="203.107,-64.425 213.323,-67.2338 207.088,-58.6674 203.107,-64.425"/>
<text text-anchor="middle" x="189.5" y="-41" font-family="Helvetica,sans-Serif" font-size="10.00"> p</text>
</g>
<!-- Node7&#45;&gt;Node6 -->
<g id="edge4" class="edge"><title>Node7&#45;&gt;Node6</title>
<path fill="none" stroke="midnightblue" d="M224.03,-114.117C224.537,-104.817 225.124,-94.0557 225.525,-86.7149"/>
<polygon fill="midnightblue" stroke="midnightblue" points="220.519,-114.23 223.469,-124.406 227.508,-114.612 220.519,-114.23"/>
</g>
</g>
</svg>
