<?xml version="1.0" encoding="UTF-8" standalone="no"?>
<!DOCTYPE svg PUBLIC "-//W3C//DTD SVG 1.1//EN"
 "http://www.w3.org/Graphics/SVG/1.1/DTD/svg11.dtd">
<!-- Generated by graphviz version 2.38.0 (20140413.2041)
 -->
<!-- Title: src/sqlite3gen.cpp Pages: 1 -->
<svg width="255pt" height="140pt"
 viewBox="0.00 0.00 254.50 140.00" xmlns="http://www.w3.org/2000/svg" xmlns:xlink="http://www.w3.org/1999/xlink">
<g id="graph0" class="graph" transform="scale(1 1) rotate(0) translate(4 136)">
<title>src/sqlite3gen.cpp</title>
<polygon fill="white" stroke="none" points="-4,4 -4,-136 250.5,-136 250.5,4 -4,4"/>
<!-- Node0 -->
<g id="node1" class="node"><title>Node0</title>
<polygon fill="#bfbfbf" stroke="black" points="57,-112.5 57,-131.5 153,-131.5 153,-112.5 57,-112.5"/>
<text text-anchor="middle" x="105" y="-119.5" font-family="Helvetica,sans-Serif" font-size="10.00">src/sqlite3gen.cpp</text>
</g>
<!-- Node1 -->
<g id="node2" class="node"><title>Node1</title>
<polygon fill="white" stroke="#bfbfbf" points="0,-56.5 0,-75.5 48,-75.5 48,-56.5 0,-56.5"/>
<text text-anchor="middle" x="24" y="-63.5" font-family="Helvetica,sans-Serif" font-size="10.00">stdlib.h</text>
</g>
<!-- Node0&#45;&gt;Node1 -->
<g id="edge1" class="edge"><title>Node0&#45;&gt;Node1</title>
<path fill="none" stroke="midnightblue" d="M91.9859,-112.324C79.4684,-103.979 60.3183,-91.2122 45.5286,-81.3524"/>
<polygon fill="midnightblue" stroke="midnightblue" points="47.2437,-78.2894 36.9818,-75.6545 43.3608,-84.1137 47.2437,-78.2894"/>
</g>
<!-- Node2 -->
<g id="node3" class="node"><title>Node2</title>
<polygon fill="white" stroke="#bfbfbf" points="88,-0.5 88,-19.5 134,-19.5 134,-0.5 88,-0.5"/>
<text text-anchor="middle" x="111" y="-7.5" font-family="Helvetica,sans-Serif" font-size="10.00">stdio.h</text>
</g>
<!-- Node0&#45;&gt;Node2 -->
<g id="edge2" class="edge"><title>Node0&#45;&gt;Node2</title>
<path fill="none" stroke="midnightblue" d="M101.819,-112.152C97.7295,-99.6291 91.5455,-76.0274 95,-56 96.568,-46.9098 99.7948,-37.2219 102.943,-29.1726"/>
<polygon fill="midnightblue" stroke="midnightblue" points="106.265,-30.2993 106.889,-19.7229 99.8055,-27.6018 106.265,-30.2993"/>
</g>
<!-- Node3 -->
<g id="node4" class="node"><title>Node3</title>
<polygon fill="white" stroke="#bfbfbf" points="104.5,-56.5 104.5,-75.5 163.5,-75.5 163.5,-56.5 104.5,-56.5"/>
<text text-anchor="middle" x="134" y="-63.5" font-family="Helvetica,sans-Serif" font-size="10.00">settings.h</text>
</g>
<!-- Node0&#45;&gt;Node3 -->
<g id="edge3" class="edge"><title>Node0&#45;&gt;Node3</title>
<path fill="none" stroke="midnightblue" d="M109.789,-112.083C113.758,-104.691 119.525,-93.9533 124.435,-84.8111"/>
<polygon fill="midnightblue" stroke="midnightblue" points="127.653,-86.217 129.3,-75.7511 121.486,-82.9051 127.653,-86.217"/>
</g>
<!-- Node4 -->
<g id="node5" class="node"><title>Node4</title>
<g id="a_node5"><a xlink:href="../../d2/d0d/message_8h.html" target="_top" xlink:title="message.h">
<polygon fill="white" stroke="black" points="181.5,-56.5 181.5,-75.5 246.5,-75.5 246.5,-56.5 181.5,-56.5"/>
<text text-anchor="middle" x="214" y="-63.5" font-family="Helvetica,sans-Serif" font-size="10.00">message.h</text>
</a>
</g>
</g>
<!-- Node0&#45;&gt;Node4 -->
<g id="edge4" class="edge"><title>Node0&#45;&gt;Node4</title>
<path fill="none" stroke="midnightblue" d="M122.513,-112.324C140.072,-103.625 167.331,-90.1202 187.531,-80.113"/>
<polygon fill="midnightblue" stroke="midnightblue" points="189.124,-83.23 196.531,-75.6545 186.016,-76.9575 189.124,-83.23"/>
</g>
<!-- Node4&#45;&gt;Node2 -->
<g id="edge5" class="edge"><title>Node4&#45;&gt;Node2</title>
<path fill="none" stroke="midnightblue" d="M197.451,-56.324C181.008,-47.7034 155.565,-34.3643 136.532,-24.3855"/>
<polygon fill="midnightblue" stroke="midnightblue" points="137.989,-21.198 127.508,-19.6545 134.739,-27.3977 137.989,-21.198"/>
</g>
<!-- Node5 -->
<g id="node6" class="node"><title>Node5</title>
<polygon fill="white" stroke="#bfbfbf" points="188,-0.5 188,-19.5 240,-19.5 240,-0.5 188,-0.5"/>
<text text-anchor="middle" x="214" y="-7.5" font-family="Helvetica,sans-Serif" font-size="10.00">stdarg.h</text>
</g>
<!-- Node4&#45;&gt;Node5 -->
<g id="edge6" class="edge"><title>Node4&#45;&gt;Node5</title>
<path fill="none" stroke="midnightblue" d="M214,-56.083C214,-49.0059 214,-38.8611 214,-29.9865"/>
<polygon fill="midnightblue" stroke="midnightblue" points="217.5,-29.751 214,-19.7511 210.5,-29.7511 217.5,-29.751"/>
</g>
</g>
</svg>
