<?xml version="1.0" encoding="UTF-8" standalone="no"?>
<!DOCTYPE svg PUBLIC "-//W3C//DTD SVG 1.1//EN"
 "http://www.w3.org/Graphics/SVG/1.1/DTD/svg11.dtd">
<!-- Generated by graphviz version 2.38.0 (20140413.2041)
 -->
<!-- Title: SymbolGroupContext::Private Pages: 1 -->
<!--zoomable 177 -->
<svg id="main" version="1.1" xmlns="http://www.w3.org/2000/svg" xmlns:xlink="http://www.w3.org/1999/xlink" xml:space="preserve" onload="init(evt)">
<style type="text/css"><![CDATA[
.edge:hover path { stroke: red; }
.edge:hover polygon { stroke: red; fill: red; }
]]></style>
<script type="text/javascript"><![CDATA[
var edges = document.getElementsByTagName('g');
if (edges && edges.length) {
  for (var i=0;i<edges.length;i++) {
    if (edges[i].id.substr(0,4)=='edge') {
      edges[i].setAttribute('class','edge');
    }
  }
}
]]></script>
        <defs>
                <circle id="rim" cx="0" cy="0" r="7"/>
                <circle id="rim2" cx="0" cy="0" r="3.5"/>
                <g id="zoomPlus">
                        <use xlink:href="#rim" fill="#404040">
                                <set attributeName="fill" to="#808080" begin="zoomplus.mouseover" end="zoomplus.mouseout"/>
                        </use>
                        <path d="M-4,0h8M0,-4v8" fill="none" stroke="white" stroke-width="1.5" pointer-events="none"/>
                </g>
                <g id="zoomMin">
                        <use xlink:href="#rim" fill="#404040">
                                <set attributeName="fill" to="#808080" begin="zoomminus.mouseover" end="zoomminus.mouseout"/>
                        </use>
                        <path d="M-4,0h8" fill="none" stroke="white" stroke-width="1.5" pointer-events="none"/>
                </g>
                <g id="dirArrow">
                        <path fill="none" stroke="white" stroke-width="1.5" d="M0,-3.0v7 M-2.5,-0.5L0,-3.0L2.5,-0.5"/>
                </g>
               <g id="resetDef">
                       <use xlink:href="#rim2" fill="#404040">
                               <set attributeName="fill" to="#808080" begin="reset.mouseover" end="reset.mouseout"/>
                       </use>
               </g>
        </defs>

<script type="text/javascript">
var viewWidth = 1350;
var viewHeight = 177;
var sectionId = 'dynsection-0';
</script>
<script xlink:href="../../svgpan.js"/>
<svg id="graph" class="graph">
<g id="viewport">
<title>SymbolGroupContext::Private</title>
<polygon fill="white" stroke="none" points="-4,4 -4,-173 1346,-173 1346,4 -4,4"/>
<!-- Node1 -->
<g id="node1" class="node"><title>Node1</title>
<polygon fill="#bfbfbf" stroke="black" points="1232,-88 1232,-118 1342,-118 1342,-88 1232,-88"/>
<text text-anchor="start" x="1240" y="-106" font-family="Helvetica,sans-Serif" font-size="10.00">SymbolGroupContext</text>
<text text-anchor="middle" x="1287" y="-95" font-family="Helvetica,sans-Serif" font-size="10.00">::Private</text>
</g>
<!-- Node2 -->
<g id="node2" class="node"><title>Node2</title>
<g id="a_node2"><a xlink:href="../../d1/d80/class_property_mapper.html" target="_top" xlink:title="PropertyMapper\&lt; SymbolGroup\lContext::Private \&gt;">
<polygon fill="white" stroke="black" points="999,-132 999,-162 1153,-162 1153,-132 999,-132"/>
<text text-anchor="start" x="1007" y="-150" font-family="Helvetica,sans-Serif" font-size="10.00">PropertyMapper&lt; SymbolGroup</text>
<text text-anchor="middle" x="1076" y="-139" font-family="Helvetica,sans-Serif" font-size="10.00">Context::Private &gt;</text>
</a>
</g>
</g>
<!-- Node2&#45;&gt;Node1 -->
<g id="edge1" class="edge"><title>Node2&#45;&gt;Node1</title>
<path fill="none" stroke="#9a32cd" stroke-dasharray="5,2" d="M1158.4,-129.864C1183.01,-124.681 1209.43,-119.12 1231.8,-114.41"/>
<polygon fill="#9a32cd" stroke="#9a32cd" points="1157.41,-126.496 1148.34,-131.981 1158.85,-133.346 1157.41,-126.496"/>
<text text-anchor="middle" x="1192.5" y="-129" font-family="Helvetica,sans-Serif" font-size="10.00"> s_inst</text>
</g>
<!-- Node3 -->
<g id="node3" class="node"><title>Node3</title>
<g id="a_node3"><a xlink:href="../../d1/d80/class_property_mapper.html" target="_top" xlink:title="Helper class to map a property name to a handler member function. ">
<polygon fill="white" stroke="black" points="721.5,-137.5 721.5,-156.5 831.5,-156.5 831.5,-137.5 721.5,-137.5"/>
<text text-anchor="middle" x="776.5" y="-144.5" font-family="Helvetica,sans-Serif" font-size="10.00">PropertyMapper&lt; T &gt;</text>
</a>
</g>
</g>
<!-- Node3&#45;&gt;Node2 -->
<g id="edge2" class="edge"><title>Node3&#45;&gt;Node2</title>
<path fill="none" stroke="orange" stroke-dasharray="5,2" d="M841.886,-147C887.969,-147 950.191,-147 998.76,-147"/>
<polygon fill="orange" stroke="orange" points="841.72,-143.5 831.72,-147 841.72,-150.5 841.72,-143.5"/>
<text text-anchor="start" x="875" y="-161" font-family="Helvetica,sans-Serif" font-size="10.00"> &lt; SymbolGroupContext</text>
<text text-anchor="middle" x="928" y="-150" font-family="Helvetica,sans-Serif" font-size="10.00">::Private &gt;</text>
</g>
<!-- Node4 -->
<g id="node4" class="node"><title>Node4</title>
<g id="a_node4"><a xlink:href="../../d6/d03/class_search_definition_list.html" target="_top" xlink:title="SearchDefinitionList">
<polygon fill="white" stroke="black" points="1024,-93.5 1024,-112.5 1128,-112.5 1128,-93.5 1024,-93.5"/>
<text text-anchor="middle" x="1076" y="-100.5" font-family="Helvetica,sans-Serif" font-size="10.00">SearchDefinitionList</text>
</a>
</g>
</g>
<!-- Node4&#45;&gt;Node1 -->
<g id="edge3" class="edge"><title>Node4&#45;&gt;Node1</title>
<path fill="none" stroke="#9a32cd" stroke-dasharray="5,2" d="M1138.34,-103C1167.94,-103 1203.14,-103 1231.75,-103"/>
<polygon fill="#9a32cd" stroke="#9a32cd" points="1138.13,-99.5001 1128.13,-103 1138.13,-106.5 1138.13,-99.5001"/>
<text text-anchor="middle" x="1192.5" y="-106" font-family="Helvetica,sans-Serif" font-size="10.00"> m_sdl</text>
</g>
<!-- Node5 -->
<g id="node5" class="node"><title>Node5</title>
<polygon fill="white" stroke="#bfbfbf" points="727,-93.5 727,-112.5 826,-112.5 826,-93.5 727,-93.5"/>
<text text-anchor="middle" x="776.5" y="-100.5" font-family="Helvetica,sans-Serif" font-size="10.00">QList&lt; Definition &gt;</text>
</g>
<!-- Node5&#45;&gt;Node4 -->
<g id="edge4" class="edge"><title>Node5&#45;&gt;Node4</title>
<path fill="none" stroke="midnightblue" d="M836.54,-103C891.284,-103 971.904,-103 1023.94,-103"/>
<polygon fill="midnightblue" stroke="midnightblue" points="836.293,-99.5001 826.293,-103 836.293,-106.5 836.293,-99.5001"/>
</g>
<!-- Node6 -->
<g id="node6" class="node"><title>Node6</title>
<g id="a_node6"><a xlink:href="../../dd/d97/struct_symbol_group_context_1_1_private_1_1_cachable.html" target="_top" xlink:title="SymbolGroupContext\l::Private::Cachable">
<polygon fill="white" stroke="black" points="1021,-44 1021,-74 1131,-74 1131,-44 1021,-44"/>
<text text-anchor="start" x="1029" y="-62" font-family="Helvetica,sans-Serif" font-size="10.00">SymbolGroupContext</text>
<text text-anchor="middle" x="1076" y="-51" font-family="Helvetica,sans-Serif" font-size="10.00">::Private::Cachable</text>
</a>
</g>
</g>
<!-- Node6&#45;&gt;Node1 -->
<g id="edge5" class="edge"><title>Node6&#45;&gt;Node1</title>
<path fill="none" stroke="#9a32cd" stroke-dasharray="5,2" d="M1141.13,-72.5015C1170.14,-78.6085 1204.05,-85.7478 1231.77,-91.583"/>
<polygon fill="#9a32cd" stroke="#9a32cd" points="1141.6,-69.0236 1131.09,-70.3883 1140.16,-75.8734 1141.6,-69.0236"/>
<text text-anchor="middle" x="1192.5" y="-91" font-family="Helvetica,sans-Serif" font-size="10.00"> m_cache</text>
</g>
<!-- Node7 -->
<g id="node7" class="node"><title>Node7</title>
<g id="a_node7"><a xlink:href="../../df/d12/class_shared_ptr.html" target="_top" xlink:title="SharedPtr\&lt; SymbolListContext \&gt;">
<polygon fill="white" stroke="black" points="696,-49.5 696,-68.5 857,-68.5 857,-49.5 696,-49.5"/>
<text text-anchor="middle" x="776.5" y="-56.5" font-family="Helvetica,sans-Serif" font-size="10.00">SharedPtr&lt; SymbolListContext &gt;</text>
</a>
</g>
</g>
<!-- Node7&#45;&gt;Node6 -->
<g id="edge6" class="edge"><title>Node7&#45;&gt;Node6</title>
<path fill="none" stroke="#9a32cd" stroke-dasharray="5,2" d="M867.411,-59C917.475,-59 978.139,-59 1020.92,-59"/>
<polygon fill="#9a32cd" stroke="#9a32cd" points="867.225,-55.5001 857.225,-59 867.225,-62.5001 867.225,-55.5001"/>
<text text-anchor="middle" x="928" y="-62" font-family="Helvetica,sans-Serif" font-size="10.00"> symbolList</text>
</g>
<!-- Node8 -->
<g id="node8" class="node"><title>Node8</title>
<g id="a_node8"><a xlink:href="../../dd/d7d/class_symbol_list_context.html" target="_top" xlink:title="SymbolListContext">
<polygon fill="white" stroke="black" points="455,-75.5 455,-94.5 555,-94.5 555,-75.5 455,-75.5"/>
<text text-anchor="middle" x="505" y="-82.5" font-family="Helvetica,sans-Serif" font-size="10.00">SymbolListContext</text>
</a>
</g>
</g>
<!-- Node8&#45;&gt;Node7 -->
<g id="edge7" class="edge"><title>Node8&#45;&gt;Node7</title>
<path fill="none" stroke="#9a32cd" stroke-dasharray="5,2" d="M565.095,-79.2989C603.448,-75.5987 653.9,-70.7314 695.785,-66.6905"/>
<polygon fill="#9a32cd" stroke="#9a32cd" points="564.735,-75.8172 555.117,-80.2614 565.407,-82.7849 564.735,-75.8172"/>
<text text-anchor="middle" x="625.5" y="-82" font-family="Helvetica,sans-Serif" font-size="10.00"> m_ptr</text>
</g>
<!-- Node9 -->
<g id="node9" class="node"><title>Node9</title>
<g id="a_node9"><a xlink:href="../../d8/d96/class_ref_counted_context.html" target="_top" xlink:title="Helper class to support reference counting. ">
<polygon fill="white" stroke="black" points="286,-126.5 286,-145.5 390,-145.5 390,-126.5 286,-126.5"/>
<text text-anchor="middle" x="338" y="-133.5" font-family="Helvetica,sans-Serif" font-size="10.00">RefCountedContext</text>
</a>
</g>
</g>
<!-- Node9&#45;&gt;Node8 -->
<g id="edge8" class="edge"><title>Node9&#45;&gt;Node8</title>
<path fill="none" stroke="midnightblue" d="M393.876,-124.025C408.038,-120.536 423.181,-116.451 437,-112 452.518,-107.001 469.553,-100.117 482.563,-94.5509"/>
<polygon fill="midnightblue" stroke="midnightblue" points="392.674,-120.714 383.77,-126.457 394.312,-127.52 392.674,-120.714"/>
</g>
<!-- Node10 -->
<g id="node10" class="node"><title>Node10</title>
<g id="a_node10"><a xlink:href="../../d6/d88/class_template_list_intf.html" target="_top" xlink:title="Abstract read&#45;only interface for a context value of type list. ">
<polygon fill="white" stroke="black" points="0,-72.5 0,-91.5 87,-91.5 87,-72.5 0,-72.5"/>
<text text-anchor="middle" x="43.5" y="-79.5" font-family="Helvetica,sans-Serif" font-size="10.00">TemplateListIntf</text>
</a>
</g>
</g>
<!-- Node10&#45;&gt;Node8 -->
<g id="edge9" class="edge"><title>Node10&#45;&gt;Node8</title>
<path fill="none" stroke="midnightblue" d="M97.2707,-83.8396C99.884,-83.9009 102.472,-83.9551 105,-84 231.053,-86.241 379.542,-85.801 454.854,-85.3594"/>
<polygon fill="midnightblue" stroke="midnightblue" points="97.2229,-80.3372 87.1342,-83.5727 97.0386,-87.3348 97.2229,-80.3372"/>
</g>
<!-- Node12 -->
<g id="node12" class="node"><title>Node12</title>
<g id="a_node12"><a xlink:href="../../d6/dcb/class_generic_node_list_context.html" target="_top" xlink:title="standard template list implementation ">
<polygon fill="white" stroke="black" points="124,-49.5 124,-68.5 248,-68.5 248,-49.5 124,-49.5"/>
<text text-anchor="middle" x="186" y="-56.5" font-family="Helvetica,sans-Serif" font-size="10.00">GenericNodeListContext</text>
</a>
</g>
</g>
<!-- Node10&#45;&gt;Node12 -->
<g id="edge12" class="edge"><title>Node10&#45;&gt;Node12</title>
<path fill="none" stroke="midnightblue" d="M96.9632,-73.4117C106.691,-71.8192 116.907,-70.147 126.794,-68.5284"/>
<polygon fill="midnightblue" stroke="midnightblue" points="96.3391,-69.9672 87.0359,-75.0368 97.47,-76.8753 96.3391,-69.9672"/>
</g>
<!-- Node11 -->
<g id="node11" class="node"><title>Node11</title>
<g id="a_node11"><a xlink:href="../../da/d36/class_symbol_list_context_1_1_private.html" target="_top" xlink:title="SymbolListContext::\lPrivate">
<polygon fill="white" stroke="black" points="285,-39 285,-69 391,-69 391,-39 285,-39"/>
<text text-anchor="start" x="293" y="-57" font-family="Helvetica,sans-Serif" font-size="10.00">SymbolListContext::</text>
<text text-anchor="middle" x="338" y="-46" font-family="Helvetica,sans-Serif" font-size="10.00">Private</text>
</a>
</g>
</g>
<!-- Node11&#45;&gt;Node8 -->
<g id="edge10" class="edge"><title>Node11&#45;&gt;Node8</title>
<path fill="none" stroke="#9a32cd" stroke-dasharray="5,2" d="M401.449,-65.7329C419.147,-69.058 438.156,-72.6293 454.941,-75.7829"/>
<polygon fill="#9a32cd" stroke="#9a32cd" points="401.681,-62.2153 391.207,-63.8086 400.389,-69.095 401.681,-62.2153"/>
<text text-anchor="middle" x="423" y="-76" font-family="Helvetica,sans-Serif" font-size="10.00"> p</text>
</g>
<!-- Node12&#45;&gt;Node11 -->
<g id="edge11" class="edge"><title>Node12&#45;&gt;Node11</title>
<path fill="none" stroke="midnightblue" d="M258.078,-56.6307C267.047,-56.3318 276.091,-56.0303 284.695,-55.7435"/>
<polygon fill="midnightblue" stroke="midnightblue" points="257.889,-53.135 248.011,-56.9663 258.122,-60.1311 257.889,-53.135"/>
</g>
<!-- Node13 -->
<g id="node13" class="node"><title>Node13</title>
<g id="a_node13"><a xlink:href="../../df/d12/class_shared_ptr.html" target="_top" xlink:title="Reference counting smart pointer. ">
<polygon fill="white" stroke="black" points="463,-19.5 463,-38.5 547,-38.5 547,-19.5 463,-19.5"/>
<text text-anchor="middle" x="505" y="-26.5" font-family="Helvetica,sans-Serif" font-size="10.00">SharedPtr&lt; T &gt;</text>
</a>
</g>
</g>
<!-- Node13&#45;&gt;Node7 -->
<g id="edge13" class="edge"><title>Node13&#45;&gt;Node7</title>
<path fill="none" stroke="orange" stroke-dasharray="5,2" d="M557.319,-34.7127C596.423,-39.0657 650.982,-45.139 695.758,-50.1234"/>
<polygon fill="orange" stroke="orange" points="557.55,-31.2169 547.225,-33.589 556.776,-38.174 557.55,-31.2169"/>
<text text-anchor="middle" x="625.5" y="-51" font-family="Helvetica,sans-Serif" font-size="10.00"> &lt; SymbolListContext &gt;</text>
</g>
<!-- Node14 -->
<g id="node14" class="node"><title>Node14</title>
<polygon fill="white" stroke="#bfbfbf" points="323.5,-0.5 323.5,-19.5 352.5,-19.5 352.5,-0.5 323.5,-0.5"/>
<text text-anchor="middle" x="338" y="-7.5" font-family="Helvetica,sans-Serif" font-size="10.00">T</text>
</g>
<!-- Node14&#45;&gt;Node13 -->
<g id="edge14" class="edge"><title>Node14&#45;&gt;Node13</title>
<path fill="none" stroke="#9a32cd" stroke-dasharray="5,2" d="M362.583,-12.7156C388.628,-15.7148 431.056,-20.6004 462.655,-24.239"/>
<polygon fill="#9a32cd" stroke="#9a32cd" points="362.837,-9.22187 352.503,-11.5548 362.037,-16.1759 362.837,-9.22187"/>
<text text-anchor="middle" x="423" y="-25" font-family="Helvetica,sans-Serif" font-size="10.00"> m_ptr</text>
</g>
</g>
</svg>
        <g id="navigator" transform="translate(0 0)" fill="#404254">
                <rect fill="#f2f5e9" fill-opacity="0.5" stroke="#606060" stroke-width=".5" x="0" y="0" width="60" height="60"/>
                <use id="zoomplus" xlink:href="#zoomPlus" x="17" y="9" onmousedown="handleZoom(evt,'in')"/>
                <use id="zoomminus" xlink:href="#zoomMin" x="42" y="9" onmousedown="handleZoom(evt,'out')"/>
                <use id="reset" xlink:href="#resetDef" x="30" y="36" onmousedown="handleReset()"/>
                <g id="arrowUp" xlink:href="#dirArrow" transform="translate(30 24)" onmousedown="handlePan(0,-1)">
                  <use xlink:href="#rim" fill="#404040">
                        <set attributeName="fill" to="#808080" begin="arrowUp.mouseover" end="arrowUp.mouseout"/>
                  </use>
                  <path fill="none" stroke="white" stroke-width="1.5" d="M0,-3.0v7 M-2.5,-0.5L0,-3.0L2.5,-0.5"/>
                </g>
                <g id="arrowRight" xlink:href="#dirArrow" transform="rotate(90) translate(36 -43)" onmousedown="handlePan(1,0)">
                  <use xlink:href="#rim" fill="#404040">
                        <set attributeName="fill" to="#808080" begin="arrowRight.mouseover" end="arrowRight.mouseout"/>
                  </use>
                  <path fill="none" stroke="white" stroke-width="1.5" d="M0,-3.0v7 M-2.5,-0.5L0,-3.0L2.5,-0.5"/>
                </g>
                <g id="arrowDown" xlink:href="#dirArrow" transform="rotate(180) translate(-30 -48)" onmousedown="handlePan(0,1)">
                  <use xlink:href="#rim" fill="#404040">
                        <set attributeName="fill" to="#808080" begin="arrowDown.mouseover" end="arrowDown.mouseout"/>
                  </use>
                  <path fill="none" stroke="white" stroke-width="1.5" d="M0,-3.0v7 M-2.5,-0.5L0,-3.0L2.5,-0.5"/>
                </g>
                <g id="arrowLeft" xlink:href="#dirArrow" transform="rotate(270) translate(-36 17)" onmousedown="handlePan(-1,0)">
                  <use xlink:href="#rim" fill="#404040">
                        <set attributeName="fill" to="#808080" begin="arrowLeft.mouseover" end="arrowLeft.mouseout"/>
                  </use>
                  <path fill="none" stroke="white" stroke-width="1.5" d="M0,-3.0v7 M-2.5,-0.5L0,-3.0L2.5,-0.5"/>
                </g>
        </g>
        <svg viewBox="0 0 15 15" width="100%" height="30px" preserveAspectRatio="xMaxYMin meet">
         <g id="arrow_out" transform="scale(0.3 0.3)">
          <a xlink:href="class_symbol_group_context_1_1_private__coll__graph_org.svg" target="_base">
           <rect id="button" ry="5" rx="5" y="6" x="6" height="38" width="38"
                fill="#f2f5e9" fill-opacity="0.5" stroke="#606060" stroke-width="1.0"/>
           <path id="arrow"
             d="M 11.500037,31.436501 C 11.940474,20.09759 22.043105,11.32322 32.158766,21.979434 L 37.068811,17.246167 C 37.068811,17.246167 37.088388,32 37.088388,32 L 22.160133,31.978069 C 22.160133,31.978069 26.997745,27.140456 26.997745,27.140456 C 18.528582,18.264221 13.291696,25.230495 11.500037,31.436501 z"
             style="fill:#404040;"/>
          </a>
         </g>
        </svg>
</svg>
