<?xml version="1.0" encoding="UTF-8" standalone="no"?>
<!DOCTYPE svg PUBLIC "-//W3C//DTD SVG 1.1//EN"
 "http://www.w3.org/Graphics/SVG/1.1/DTD/svg11.dtd">
<!-- Generated by graphviz version 2.38.0 (20140413.2041)
 -->
<!-- Title: src/filestorage.h Pages: 1 -->
<svg width="262pt" height="196pt"
 viewBox="0.00 0.00 261.50 196.00" xmlns="http://www.w3.org/2000/svg" xmlns:xlink="http://www.w3.org/1999/xlink">
<g id="graph0" class="graph" transform="scale(1 1) rotate(0) translate(4 192)">
<title>src/filestorage.h</title>
<polygon fill="white" stroke="none" points="-4,4 -4,-192 257.5,-192 257.5,4 -4,4"/>
<!-- Node0 -->
<g id="node1" class="node"><title>Node0</title>
<polygon fill="#bfbfbf" stroke="black" points="44.5,-168.5 44.5,-187.5 130.5,-187.5 130.5,-168.5 44.5,-168.5"/>
<text text-anchor="middle" x="87.5" y="-175.5" font-family="Helvetica,sans-Serif" font-size="10.00">src/filestorage.h</text>
</g>
<!-- Node1 -->
<g id="node2" class="node"><title>Node1</title>
<polygon fill="white" stroke="#bfbfbf" points="0,-112.5 0,-131.5 43,-131.5 43,-112.5 0,-112.5"/>
<text text-anchor="middle" x="21.5" y="-119.5" font-family="Helvetica,sans-Serif" font-size="10.00">qfile.h</text>
</g>
<!-- Node0&#45;&gt;Node1 -->
<g id="edge1" class="edge"><title>Node0&#45;&gt;Node1</title>
<path fill="none" stroke="midnightblue" d="M76.896,-168.324C67.0438,-160.263 52.1491,-148.077 40.2849,-138.369"/>
<polygon fill="midnightblue" stroke="midnightblue" points="42.2529,-135.457 32.297,-131.834 37.8202,-140.875 42.2529,-135.457"/>
</g>
<!-- Node2 -->
<g id="node3" class="node"><title>Node2</title>
<polygon fill="white" stroke="#bfbfbf" points="61.5,-112.5 61.5,-131.5 113.5,-131.5 113.5,-112.5 61.5,-112.5"/>
<text text-anchor="middle" x="87.5" y="-119.5" font-family="Helvetica,sans-Serif" font-size="10.00">assert.h</text>
</g>
<!-- Node0&#45;&gt;Node2 -->
<g id="edge2" class="edge"><title>Node0&#45;&gt;Node2</title>
<path fill="none" stroke="midnightblue" d="M87.5,-168.083C87.5,-161.006 87.5,-150.861 87.5,-141.986"/>
<polygon fill="midnightblue" stroke="midnightblue" points="91.0001,-141.751 87.5,-131.751 84.0001,-141.751 91.0001,-141.751"/>
</g>
<!-- Node3 -->
<g id="node4" class="node"><title>Node3</title>
<g id="a_node4"><a xlink:href="../../d5/d3f/store_8h.html" target="_top" xlink:title="store.h">
<polygon fill="white" stroke="black" points="132,-112.5 132,-131.5 179,-131.5 179,-112.5 132,-112.5"/>
<text text-anchor="middle" x="155.5" y="-119.5" font-family="Helvetica,sans-Serif" font-size="10.00">store.h</text>
</a>
</g>
</g>
<!-- Node0&#45;&gt;Node3 -->
<g id="edge3" class="edge"><title>Node0&#45;&gt;Node3</title>
<path fill="none" stroke="midnightblue" d="M98.4254,-168.324C108.675,-160.185 124.221,-147.839 136.501,-138.087"/>
<polygon fill="midnightblue" stroke="midnightblue" points="138.721,-140.794 144.376,-131.834 134.368,-135.312 138.721,-140.794"/>
</g>
<!-- Node4 -->
<g id="node5" class="node"><title>Node4</title>
<polygon fill="white" stroke="#bfbfbf" points="47.5,-0.5 47.5,-19.5 103.5,-19.5 103.5,-0.5 47.5,-0.5"/>
<text text-anchor="middle" x="75.5" y="-7.5" font-family="Helvetica,sans-Serif" font-size="10.00">qglobal.h</text>
</g>
<!-- Node3&#45;&gt;Node4 -->
<g id="edge4" class="edge"><title>Node3&#45;&gt;Node4</title>
<path fill="none" stroke="midnightblue" d="M147.584,-112.308C139.647,-103.439 127.237,-89.1475 117.5,-76 105.918,-60.3614 93.9968,-41.6112 85.828,-28.2767"/>
<polygon fill="midnightblue" stroke="midnightblue" points="88.7754,-26.387 80.6015,-19.6463 82.7877,-30.0131 88.7754,-26.387"/>
</g>
<!-- Node5 -->
<g id="node6" class="node"><title>Node5</title>
<polygon fill="white" stroke="#bfbfbf" points="207.5,-0.5 207.5,-19.5 253.5,-19.5 253.5,-0.5 207.5,-0.5"/>
<text text-anchor="middle" x="230.5" y="-7.5" font-family="Helvetica,sans-Serif" font-size="10.00">stdio.h</text>
</g>
<!-- Node3&#45;&gt;Node5 -->
<g id="edge5" class="edge"><title>Node3&#45;&gt;Node5</title>
<path fill="none" stroke="midnightblue" d="M163.843,-112.482C172.159,-103.747 185.025,-89.5585 194.5,-76 205.099,-60.8332 215.123,-42.2563 221.888,-28.8522"/>
<polygon fill="midnightblue" stroke="midnightblue" points="225.092,-30.2685 226.382,-19.7525 218.816,-27.1688 225.092,-30.2685"/>
</g>
<!-- Node6 -->
<g id="node7" class="node"><title>Node6</title>
<g id="a_node7"><a xlink:href="../../d2/de2/portable_8h.html" target="_top" xlink:title="Portable versions of functions that are platform dependent. ">
<polygon fill="white" stroke="black" points="126,-56.5 126,-75.5 185,-75.5 185,-56.5 126,-56.5"/>
<text text-anchor="middle" x="155.5" y="-63.5" font-family="Helvetica,sans-Serif" font-size="10.00">portable.h</text>
</a>
</g>
</g>
<!-- Node3&#45;&gt;Node6 -->
<g id="edge6" class="edge"><title>Node3&#45;&gt;Node6</title>
<path fill="none" stroke="midnightblue" d="M155.5,-112.083C155.5,-105.006 155.5,-94.8611 155.5,-85.9865"/>
<polygon fill="midnightblue" stroke="midnightblue" points="159,-85.751 155.5,-75.7511 152,-85.7511 159,-85.751"/>
</g>
<!-- Node6&#45;&gt;Node4 -->
<g id="edge9" class="edge"><title>Node6&#45;&gt;Node4</title>
<path fill="none" stroke="midnightblue" d="M142.647,-56.324C130.284,-47.979 111.37,-35.2122 96.7628,-25.3524"/>
<polygon fill="midnightblue" stroke="midnightblue" points="98.5682,-22.3483 88.3215,-19.6545 94.6518,-28.1503 98.5682,-22.3483"/>
</g>
<!-- Node6&#45;&gt;Node5 -->
<g id="edge8" class="edge"><title>Node6&#45;&gt;Node5</title>
<path fill="none" stroke="midnightblue" d="M167.55,-56.324C178.963,-48.1066 196.331,-35.6017 209.935,-25.8069"/>
<polygon fill="midnightblue" stroke="midnightblue" points="212.16,-28.5174 218.231,-19.8339 208.07,-22.8366 212.16,-28.5174"/>
</g>
<!-- Node7 -->
<g id="node8" class="node"><title>Node7</title>
<polygon fill="white" stroke="#bfbfbf" points="121.5,-0.5 121.5,-19.5 189.5,-19.5 189.5,-0.5 121.5,-0.5"/>
<text text-anchor="middle" x="155.5" y="-7.5" font-family="Helvetica,sans-Serif" font-size="10.00">sys/types.h</text>
</g>
<!-- Node6&#45;&gt;Node7 -->
<g id="edge7" class="edge"><title>Node6&#45;&gt;Node7</title>
<path fill="none" stroke="midnightblue" d="M155.5,-56.083C155.5,-49.0059 155.5,-38.8611 155.5,-29.9865"/>
<polygon fill="midnightblue" stroke="midnightblue" points="159,-29.751 155.5,-19.7511 152,-29.7511 159,-29.751"/>
</g>
</g>
</svg>
