<?xml version="1.0" encoding="UTF-8" standalone="no"?>
<!DOCTYPE svg PUBLIC "-//W3C//DTD SVG 1.1//EN"
 "http://www.w3.org/Graphics/SVG/1.1/DTD/svg11.dtd">
<!-- Generated by graphviz version 2.38.0 (20140413.2041)
 -->
<!-- Title: src/htmlgen.h Pages: 1 -->
<svg width="504pt" height="252pt"
 viewBox="0.00 0.00 503.50 252.00" xmlns="http://www.w3.org/2000/svg" xmlns:xlink="http://www.w3.org/1999/xlink">
<g id="graph0" class="graph" transform="scale(1 1) rotate(0) translate(4 248)">
<title>src/htmlgen.h</title>
<polygon fill="white" stroke="none" points="-4,4 -4,-248 499.5,-248 499.5,4 -4,4"/>
<!-- Node0 -->
<g id="node1" class="node"><title>Node0</title>
<polygon fill="#bfbfbf" stroke="black" points="182,-224.5 182,-243.5 258,-243.5 258,-224.5 182,-224.5"/>
<text text-anchor="middle" x="220" y="-231.5" font-family="Helvetica,sans-Serif" font-size="10.00">src/htmlgen.h</text>
</g>
<!-- Node1 -->
<g id="node2" class="node"><title>Node1</title>
<g id="a_node2"><a xlink:href="../../df/d06/outputgen_8h.html" target="_top" xlink:title="outputgen.h">
<polygon fill="white" stroke="black" points="135,-168.5 135,-187.5 203,-187.5 203,-168.5 135,-168.5"/>
<text text-anchor="middle" x="169" y="-175.5" font-family="Helvetica,sans-Serif" font-size="10.00">outputgen.h</text>
</a>
</g>
</g>
<!-- Node0&#45;&gt;Node1 -->
<g id="edge1" class="edge"><title>Node0&#45;&gt;Node1</title>
<path fill="none" stroke="midnightblue" d="M211.578,-224.083C204.152,-216.22 193.148,-204.569 184.188,-195.081"/>
<polygon fill="midnightblue" stroke="midnightblue" points="186.676,-192.618 177.265,-187.751 181.587,-197.424 186.676,-192.618"/>
</g>
<!-- Node10 -->
<g id="node11" class="node"><title>Node10</title>
<g id="a_node11"><a xlink:href="../../df/d83/ftextstream_8h.html" target="_top" xlink:title="ftextstream.h">
<polygon fill="white" stroke="black" points="256,-112.5 256,-131.5 330,-131.5 330,-112.5 256,-112.5"/>
<text text-anchor="middle" x="293" y="-119.5" font-family="Helvetica,sans-Serif" font-size="10.00">ftextstream.h</text>
</a>
</g>
</g>
<!-- Node0&#45;&gt;Node10 -->
<g id="edge16" class="edge"><title>Node0&#45;&gt;Node10</title>
<path fill="none" stroke="midnightblue" d="M225.728,-224.368C237.775,-206.215 265.923,-163.802 281.725,-139.99"/>
<polygon fill="midnightblue" stroke="midnightblue" points="284.685,-141.859 287.298,-131.591 278.853,-137.988 284.685,-141.859"/>
</g>
<!-- Node2 -->
<g id="node3" class="node"><title>Node2</title>
<polygon fill="white" stroke="#bfbfbf" points="0,-112.5 0,-131.5 54,-131.5 54,-112.5 0,-112.5"/>
<text text-anchor="middle" x="27" y="-119.5" font-family="Helvetica,sans-Serif" font-size="10.00">qstack.h</text>
</g>
<!-- Node1&#45;&gt;Node2 -->
<g id="edge2" class="edge"><title>Node1&#45;&gt;Node2</title>
<path fill="none" stroke="midnightblue" d="M146.5,-168.444C122.923,-159.478 85.6776,-145.314 59.036,-135.183"/>
<polygon fill="midnightblue" stroke="midnightblue" points="59.9861,-131.8 49.3951,-131.516 57.4979,-138.342 59.9861,-131.8"/>
</g>
<!-- Node3 -->
<g id="node4" class="node"><title>Node3</title>
<g id="a_node4"><a xlink:href="../../d1/db5/index_8h.html" target="_top" xlink:title="index.h">
<polygon fill="white" stroke="black" points="72,-112.5 72,-131.5 120,-131.5 120,-112.5 72,-112.5"/>
<text text-anchor="middle" x="96" y="-119.5" font-family="Helvetica,sans-Serif" font-size="10.00">index.h</text>
</a>
</g>
</g>
<!-- Node1&#45;&gt;Node3 -->
<g id="edge3" class="edge"><title>Node1&#45;&gt;Node3</title>
<path fill="none" stroke="midnightblue" d="M157.271,-168.324C146.163,-160.107 129.258,-147.602 116.017,-137.807"/>
<polygon fill="midnightblue" stroke="midnightblue" points="118.063,-134.967 107.942,-131.834 113.9,-140.595 118.063,-134.967"/>
</g>
<!-- Node6 -->
<g id="node7" class="node"><title>Node6</title>
<g id="a_node7"><a xlink:href="../../d1/d2a/section_8h.html" target="_top" xlink:title="section.h">
<polygon fill="white" stroke="black" points="141,-112.5 141,-131.5 197,-131.5 197,-112.5 141,-112.5"/>
<text text-anchor="middle" x="169" y="-119.5" font-family="Helvetica,sans-Serif" font-size="10.00">section.h</text>
</a>
</g>
</g>
<!-- Node1&#45;&gt;Node6 -->
<g id="edge6" class="edge"><title>Node1&#45;&gt;Node6</title>
<path fill="none" stroke="midnightblue" d="M169,-168.083C169,-161.006 169,-150.861 169,-141.986"/>
<polygon fill="midnightblue" stroke="midnightblue" points="172.5,-141.751 169,-131.751 165.5,-141.751 172.5,-141.751"/>
</g>
<!-- Node1&#45;&gt;Node10 -->
<g id="edge11" class="edge"><title>Node1&#45;&gt;Node10</title>
<path fill="none" stroke="midnightblue" d="M188.648,-168.444C208.965,-159.596 240.903,-145.687 264.098,-135.586"/>
<polygon fill="midnightblue" stroke="midnightblue" points="265.673,-138.718 273.444,-131.516 262.878,-132.3 265.673,-138.718"/>
</g>
<!-- Node4 -->
<g id="node5" class="node"><title>Node4</title>
<polygon fill="white" stroke="#bfbfbf" points="48.5,-0.5 48.5,-19.5 91.5,-19.5 91.5,-0.5 48.5,-0.5"/>
<text text-anchor="middle" x="70" y="-7.5" font-family="Helvetica,sans-Serif" font-size="10.00">qlist.h</text>
</g>
<!-- Node3&#45;&gt;Node4 -->
<g id="edge4" class="edge"><title>Node3&#45;&gt;Node4</title>
<path fill="none" stroke="midnightblue" d="M83.7863,-112.236C73.6464,-104.143 59.9566,-91.1121 54,-76 47.8871,-60.4916 53.6474,-41.9559 59.8948,-28.6541"/>
<polygon fill="midnightblue" stroke="midnightblue" points="63.0739,-30.1266 64.5786,-19.6391 56.8623,-26.8992 63.0739,-30.1266"/>
</g>
<!-- Node5 -->
<g id="node6" class="node"><title>Node5</title>
<polygon fill="white" stroke="#bfbfbf" points="63.5,-56.5 63.5,-75.5 122.5,-75.5 122.5,-56.5 63.5,-56.5"/>
<text text-anchor="middle" x="93" y="-63.5" font-family="Helvetica,sans-Serif" font-size="10.00">qcstring.h</text>
</g>
<!-- Node3&#45;&gt;Node5 -->
<g id="edge5" class="edge"><title>Node3&#45;&gt;Node5</title>
<path fill="none" stroke="midnightblue" d="M95.5046,-112.083C95.1114,-105.006 94.5478,-94.8611 94.0548,-85.9865"/>
<polygon fill="midnightblue" stroke="midnightblue" points="97.5356,-85.5415 93.4862,-75.7511 90.5464,-85.9299 97.5356,-85.5415"/>
</g>
<!-- Node7 -->
<g id="node8" class="node"><title>Node7</title>
<g id="a_node8"><a xlink:href="../../d9/d21/sortdict_8h.html" target="_top" xlink:title="sortdict.h">
<polygon fill="white" stroke="black" points="140.5,-56.5 140.5,-75.5 197.5,-75.5 197.5,-56.5 140.5,-56.5"/>
<text text-anchor="middle" x="169" y="-63.5" font-family="Helvetica,sans-Serif" font-size="10.00">sortdict.h</text>
</a>
</g>
</g>
<!-- Node6&#45;&gt;Node7 -->
<g id="edge7" class="edge"><title>Node6&#45;&gt;Node7</title>
<path fill="none" stroke="midnightblue" d="M169,-112.083C169,-105.006 169,-94.8611 169,-85.9865"/>
<polygon fill="midnightblue" stroke="midnightblue" points="172.5,-85.751 169,-75.7511 165.5,-85.7511 172.5,-85.751"/>
</g>
<!-- Node7&#45;&gt;Node4 -->
<g id="edge8" class="edge"><title>Node7&#45;&gt;Node4</title>
<path fill="none" stroke="midnightblue" d="M153.094,-56.324C137.362,-47.7428 113.058,-34.486 94.7911,-24.5224"/>
<polygon fill="midnightblue" stroke="midnightblue" points="96.3216,-21.3704 85.8666,-19.6545 92.9696,-27.5157 96.3216,-21.3704"/>
</g>
<!-- Node8 -->
<g id="node9" class="node"><title>Node8</title>
<polygon fill="white" stroke="#bfbfbf" points="111,-0.5 111,-19.5 157,-19.5 157,-0.5 111,-0.5"/>
<text text-anchor="middle" x="134" y="-7.5" font-family="Helvetica,sans-Serif" font-size="10.00">qdict.h</text>
</g>
<!-- Node7&#45;&gt;Node8 -->
<g id="edge9" class="edge"><title>Node7&#45;&gt;Node8</title>
<path fill="none" stroke="midnightblue" d="M163.22,-56.083C158.328,-48.5341 151.173,-37.4948 145.167,-28.2298"/>
<polygon fill="midnightblue" stroke="midnightblue" points="148.048,-26.239 139.672,-19.7511 142.174,-30.0463 148.048,-26.239"/>
</g>
<!-- Node9 -->
<g id="node10" class="node"><title>Node9</title>
<polygon fill="white" stroke="#bfbfbf" points="175,-0.5 175,-19.5 231,-19.5 231,-0.5 175,-0.5"/>
<text text-anchor="middle" x="203" y="-7.5" font-family="Helvetica,sans-Serif" font-size="10.00">qintdict.h</text>
</g>
<!-- Node7&#45;&gt;Node9 -->
<g id="edge10" class="edge"><title>Node7&#45;&gt;Node9</title>
<path fill="none" stroke="midnightblue" d="M174.614,-56.083C179.367,-48.5341 186.318,-37.4948 192.152,-28.2298"/>
<polygon fill="midnightblue" stroke="midnightblue" points="195.124,-30.0783 197.49,-19.7511 189.2,-26.3486 195.124,-30.0783"/>
</g>
<!-- Node11 -->
<g id="node12" class="node"><title>Node11</title>
<polygon fill="white" stroke="#bfbfbf" points="216,-56.5 216,-75.5 262,-75.5 262,-56.5 216,-56.5"/>
<text text-anchor="middle" x="239" y="-63.5" font-family="Helvetica,sans-Serif" font-size="10.00">stdio.h</text>
</g>
<!-- Node10&#45;&gt;Node11 -->
<g id="edge12" class="edge"><title>Node10&#45;&gt;Node11</title>
<path fill="none" stroke="midnightblue" d="M284.083,-112.083C276.22,-104.22 264.569,-92.5688 255.081,-83.0813"/>
<polygon fill="midnightblue" stroke="midnightblue" points="257.297,-80.3473 247.751,-75.7511 252.347,-85.2971 257.297,-80.3473"/>
</g>
<!-- Node12 -->
<g id="node13" class="node"><title>Node12</title>
<polygon fill="white" stroke="#bfbfbf" points="280,-56.5 280,-75.5 346,-75.5 346,-56.5 280,-56.5"/>
<text text-anchor="middle" x="313" y="-63.5" font-family="Helvetica,sans-Serif" font-size="10.00">qiodevice.h</text>
</g>
<!-- Node10&#45;&gt;Node12 -->
<g id="edge13" class="edge"><title>Node10&#45;&gt;Node12</title>
<path fill="none" stroke="midnightblue" d="M296.303,-112.083C298.982,-104.849 302.849,-94.4087 306.186,-85.3968"/>
<polygon fill="midnightblue" stroke="midnightblue" points="309.568,-86.3442 309.759,-75.7511 303.004,-83.9129 309.568,-86.3442"/>
</g>
<!-- Node13 -->
<g id="node14" class="node"><title>Node13</title>
<polygon fill="white" stroke="#bfbfbf" points="364,-56.5 364,-75.5 418,-75.5 418,-56.5 364,-56.5"/>
<text text-anchor="middle" x="391" y="-63.5" font-family="Helvetica,sans-Serif" font-size="10.00">qstring.h</text>
</g>
<!-- Node10&#45;&gt;Node13 -->
<g id="edge14" class="edge"><title>Node10&#45;&gt;Node13</title>
<path fill="none" stroke="midnightblue" d="M308.745,-112.324C324.319,-103.743 348.377,-90.486 366.459,-80.5224"/>
<polygon fill="midnightblue" stroke="midnightblue" points="368.224,-83.546 375.294,-75.6545 364.846,-77.4152 368.224,-83.546"/>
</g>
<!-- Node14 -->
<g id="node15" class="node"><title>Node14</title>
<polygon fill="white" stroke="#bfbfbf" points="436.5,-56.5 436.5,-75.5 495.5,-75.5 495.5,-56.5 436.5,-56.5"/>
<text text-anchor="middle" x="466" y="-63.5" font-family="Helvetica,sans-Serif" font-size="10.00">qgstring.h</text>
</g>
<!-- Node10&#45;&gt;Node14 -->
<g id="edge15" class="edge"><title>Node10&#45;&gt;Node14</title>
<path fill="none" stroke="midnightblue" d="M320.412,-112.444C349.769,-103.28 396.519,-88.6876 429.096,-78.5192"/>
<polygon fill="midnightblue" stroke="midnightblue" points="430.213,-81.8371 438.716,-75.5164 428.127,-75.1551 430.213,-81.8371"/>
</g>
</g>
</svg>
