<?xml version="1.0" encoding="UTF-8" standalone="no"?>
<!DOCTYPE svg PUBLIC "-//W3C//DTD SVG 1.1//EN"
 "http://www.w3.org/Graphics/SVG/1.1/DTD/svg11.dtd">
<!-- Generated by graphviz version 2.38.0 (20140413.2041)
 -->
<!-- Title: TemplateNodeVariable Pages: 1 -->
<svg width="220pt" height="95pt"
 viewBox="0.00 0.00 220.00 95.00" xmlns="http://www.w3.org/2000/svg" xmlns:xlink="http://www.w3.org/1999/xlink">
<g id="graph0" class="graph" transform="scale(1 1) rotate(0) translate(4 91)">
<title>TemplateNodeVariable</title>
<polygon fill="white" stroke="none" points="-4,4 -4,-91 216,-91 216,4 -4,4"/>
<!-- Node2 -->
<g id="node1" class="node"><title>Node2</title>
<polygon fill="#bfbfbf" stroke="black" points="91,-0.5 91,-19.5 207,-19.5 207,-0.5 91,-0.5"/>
<text text-anchor="middle" x="149" y="-7.5" font-family="Helvetica,sans-Serif" font-size="10.00">TemplateNodeVariable</text>
</g>
<!-- Node3 -->
<g id="node2" class="node"><title>Node3</title>
<g id="a_node2"><a xlink:href="../../d6/d53/class_template_node.html" target="_top" xlink:title="Base class of all nodes in a template&#39;s AST. ">
<polygon fill="white" stroke="black" points="0,-67.5 0,-86.5 80,-86.5 80,-67.5 0,-67.5"/>
<text text-anchor="middle" x="40" y="-74.5" font-family="Helvetica,sans-Serif" font-size="10.00">TemplateNode</text>
</a>
</g>
</g>
<!-- Node3&#45;&gt;Node2 -->
<g id="edge1" class="edge"><title>Node3&#45;&gt;Node2</title>
<path fill="none" stroke="midnightblue" d="M63.5738,-61.9422C85.1601,-49.0696 116.422,-30.4274 134.533,-19.6273"/>
<polygon fill="midnightblue" stroke="midnightblue" points="61.4964,-59.1059 54.7002,-67.2338 65.0817,-65.1181 61.4964,-59.1059"/>
</g>
<!-- Node3&#45;&gt;Node3 -->
<g id="edge2" class="edge"><title>Node3&#45;&gt;Node3</title>
<path fill="none" stroke="#9a32cd" stroke-dasharray="5,2" d="M90.2648,-81.8206C95.0048,-80.8334 98,-79.2266 98,-77 98,-73.4375 90.3323,-71.4614 80.1186,-71.0718"/>
<polygon fill="#9a32cd" stroke="#9a32cd" points="89.6797,-78.3636 80.1186,-82.9282 90.4394,-85.3222 89.6797,-78.3636"/>
<text text-anchor="middle" x="120" y="-74.5" font-family="Helvetica,sans-Serif" font-size="10.00"> m_parent</text>
</g>
<!-- Node4 -->
<g id="node3" class="node"><title>Node4</title>
<g id="a_node3"><a xlink:href="../../dc/dfa/class_expr_ast.html" target="_top" xlink:title="Base class for all nodes in the abstract syntax tree of an expression. ">
<polygon fill="white" stroke="black" points="160,-67.5 160,-86.5 212,-86.5 212,-67.5 160,-67.5"/>
<text text-anchor="middle" x="186" y="-74.5" font-family="Helvetica,sans-Serif" font-size="10.00">ExprAst</text>
</a>
</g>
</g>
<!-- Node4&#45;&gt;Node2 -->
<g id="edge3" class="edge"><title>Node4&#45;&gt;Node2</title>
<path fill="none" stroke="#9a32cd" stroke-dasharray="5,2" d="M176.058,-58.5347C168.895,-45.9499 159.535,-29.5072 153.911,-19.6273"/>
<polygon fill="#9a32cd" stroke="#9a32cd" points="173.021,-60.2746 181.01,-67.2338 179.105,-56.8117 173.021,-60.2746"/>
<text text-anchor="middle" x="184.5" y="-41" font-family="Helvetica,sans-Serif" font-size="10.00"> m_var</text>
</g>
</g>
</svg>
