<?xml version="1.0" encoding="UTF-8" standalone="no"?>
<!DOCTYPE svg PUBLIC "-//W3C//DTD SVG 1.1//EN"
 "http://www.w3.org/Graphics/SVG/1.1/DTD/svg11.dtd">
<!-- Generated by graphviz version 2.38.0 (20140413.2041)
 -->
<!-- Title: SList&lt; T &gt; Pages: 1 -->
<svg width="462pt" height="885pt"
 viewBox="0.00 0.00 462.00 884.93" xmlns="http://www.w3.org/2000/svg" xmlns:xlink="http://www.w3.org/1999/xlink">
<g id="graph0" class="graph" transform="scale(1 1) rotate(0) translate(4 880.932)">
<title>SList&lt; T &gt;</title>
<polygon fill="white" stroke="none" points="-4,4 -4,-880.932 458,-880.932 458,4 -4,4"/>
<!-- Node0 -->
<g id="node1" class="node"><title>Node0</title>
<polygon fill="#bfbfbf" stroke="black" points="101,-427.432 101,-446.432 164,-446.432 164,-427.432 101,-427.432"/>
<text text-anchor="middle" x="132.5" y="-434.432" font-family="Helvetica,sans-Serif" font-size="10.00">SList&lt; T &gt;</text>
</g>
<!-- Node2 -->
<g id="node3" class="node"><title>Node2</title>
<g id="a_node3"><a xlink:href="../../df/dce/class_s_list.html" target="_top" xlink:title="SList\&lt; MemberName \&gt;">
<polygon fill="white" stroke="black" points="322,-845.432 322,-864.432 441,-864.432 441,-845.432 322,-845.432"/>
<text text-anchor="middle" x="381.5" y="-852.432" font-family="Helvetica,sans-Serif" font-size="10.00">SList&lt; MemberName &gt;</text>
</a>
</g>
</g>
<!-- Node0&#45;&gt;Node2 -->
<g id="edge2" class="edge"><title>Node0&#45;&gt;Node2</title>
<path fill="none" stroke="orange" stroke-dasharray="5,2" d="M134.539,-456.763C138.714,-532.85 155.331,-803.197 182,-829.932 219.163,-867.188 281.859,-869.104 326.853,-864.46"/>
<polygon fill="orange" stroke="orange" points="138.027,-456.437 133.995,-446.64 131.037,-456.813 138.027,-456.437"/>
<text text-anchor="middle" x="236.5" y="-868.932" font-family="Helvetica,sans-Serif" font-size="10.00"> &lt; MemberName &gt;</text>
</g>
<!-- Node3 -->
<g id="node4" class="node"><title>Node3</title>
<g id="a_node4"><a xlink:href="../../df/dce/class_s_list.html" target="_top" xlink:title="SList\&lt; MemberNameInfo \&gt;">
<polygon fill="white" stroke="black" points="314,-807.432 314,-826.432 449,-826.432 449,-807.432 314,-807.432"/>
<text text-anchor="middle" x="381.5" y="-814.432" font-family="Helvetica,sans-Serif" font-size="10.00">SList&lt; MemberNameInfo &gt;</text>
</a>
</g>
</g>
<!-- Node0&#45;&gt;Node3 -->
<g id="edge3" class="edge"><title>Node0&#45;&gt;Node3</title>
<path fill="none" stroke="orange" stroke-dasharray="5,2" d="M133.185,-456.76C132.549,-524.428 134.247,-744.677 182,-791.932 200.239,-809.981 263.545,-815.523 313.822,-816.984"/>
<polygon fill="orange" stroke="orange" points="136.686,-456.653 133.31,-446.611 129.687,-456.567 136.686,-456.653"/>
<text text-anchor="middle" x="236.5" y="-817.932" font-family="Helvetica,sans-Serif" font-size="10.00"> &lt; MemberNameInfo &gt;</text>
</g>
<!-- Node4 -->
<g id="node5" class="node"><title>Node4</title>
<g id="a_node5"><a xlink:href="../../df/dce/class_s_list.html" target="_top" xlink:title="SList\&lt; PageDef \&gt;">
<polygon fill="white" stroke="black" points="334,-769.432 334,-788.432 429,-788.432 429,-769.432 334,-769.432"/>
<text text-anchor="middle" x="381.5" y="-776.432" font-family="Helvetica,sans-Serif" font-size="10.00">SList&lt; PageDef &gt;</text>
</a>
</g>
</g>
<!-- Node0&#45;&gt;Node4 -->
<g id="edge4" class="edge"><title>Node0&#45;&gt;Node4</title>
<path fill="none" stroke="orange" stroke-dasharray="5,2" d="M133.544,-456.638C134.119,-519.322 139.381,-712.429 182,-753.932 202.903,-774.288 281.858,-778.693 333.669,-779.317"/>
<polygon fill="orange" stroke="orange" points="137.043,-456.496 133.483,-446.517 130.044,-456.538 137.043,-456.496"/>
<text text-anchor="middle" x="236.5" y="-779.932" font-family="Helvetica,sans-Serif" font-size="10.00"> &lt; PageDef &gt;</text>
</g>
<!-- Node5 -->
<g id="node6" class="node"><title>Node5</title>
<g id="a_node6"><a xlink:href="../../df/dce/class_s_list.html" target="_top" xlink:title="SList\&lt; QCString \&gt;">
<polygon fill="white" stroke="black" points="332.5,-731.432 332.5,-750.432 430.5,-750.432 430.5,-731.432 332.5,-731.432"/>
<text text-anchor="middle" x="381.5" y="-738.432" font-family="Helvetica,sans-Serif" font-size="10.00">SList&lt; QCString &gt;</text>
</a>
</g>
</g>
<!-- Node0&#45;&gt;Node5 -->
<g id="edge5" class="edge"><title>Node0&#45;&gt;Node5</title>
<path fill="none" stroke="orange" stroke-dasharray="5,2" d="M134.004,-456.856C135.901,-514.599 144.564,-680.21 182,-715.932 202.92,-735.895 280.595,-740.465 332.349,-741.221"/>
<polygon fill="orange" stroke="orange" points="137.493,-456.428 133.701,-446.535 130.496,-456.633 137.493,-456.428"/>
<text text-anchor="middle" x="236.5" y="-741.932" font-family="Helvetica,sans-Serif" font-size="10.00"> &lt; QCString &gt;</text>
</g>
<!-- Node6 -->
<g id="node7" class="node"><title>Node6</title>
<g id="a_node7"><a xlink:href="../../df/dce/class_s_list.html" target="_top" xlink:title="SList\&lt; Definition \&gt;">
<polygon fill="white" stroke="black" points="332.5,-693.432 332.5,-712.432 430.5,-712.432 430.5,-693.432 332.5,-693.432"/>
<text text-anchor="middle" x="381.5" y="-700.432" font-family="Helvetica,sans-Serif" font-size="10.00">SList&lt; Definition &gt;</text>
</a>
</g>
</g>
<!-- Node0&#45;&gt;Node6 -->
<g id="edge6" class="edge"><title>Node0&#45;&gt;Node6</title>
<path fill="none" stroke="orange" stroke-dasharray="5,2" d="M134.622,-456.754C137.992,-508.717 149.855,-646.937 182,-676.932 203.155,-696.672 280.759,-701.733 332.436,-702.859"/>
<polygon fill="orange" stroke="orange" points="138.101,-456.297 133.998,-446.528 131.114,-456.723 138.101,-456.297"/>
<text text-anchor="middle" x="236.5" y="-703.932" font-family="Helvetica,sans-Serif" font-size="10.00"> &lt; Definition &gt;</text>
</g>
<!-- Node7 -->
<g id="node8" class="node"><title>Node7</title>
<g id="a_node8"><a xlink:href="../../df/dce/class_s_list.html" target="_top" xlink:title="SList\&lt; MemberDef \&gt;">
<polygon fill="white" stroke="black" points="327.5,-655.432 327.5,-674.432 435.5,-674.432 435.5,-655.432 327.5,-655.432"/>
<text text-anchor="middle" x="381.5" y="-662.432" font-family="Helvetica,sans-Serif" font-size="10.00">SList&lt; MemberDef &gt;</text>
</a>
</g>
</g>
<!-- Node0&#45;&gt;Node7 -->
<g id="edge7" class="edge"><title>Node0&#45;&gt;Node7</title>
<path fill="none" stroke="orange" stroke-dasharray="5,2" d="M135.48,-456.82C140.468,-502.653 155.109,-613.643 182,-637.932 202.777,-656.699 275.931,-662.539 327.365,-664.29"/>
<polygon fill="orange" stroke="orange" points="138.939,-456.245 134.419,-446.663 131.977,-456.973 138.939,-456.245"/>
<text text-anchor="middle" x="236.5" y="-664.932" font-family="Helvetica,sans-Serif" font-size="10.00"> &lt; MemberDef &gt;</text>
</g>
<!-- Node8 -->
<g id="node9" class="node"><title>Node8</title>
<g id="a_node9"><a xlink:href="../../df/dce/class_s_list.html" target="_top" xlink:title="SList\&lt; DirRelation \&gt;">
<polygon fill="white" stroke="black" points="328.5,-617.432 328.5,-636.432 434.5,-636.432 434.5,-617.432 328.5,-617.432"/>
<text text-anchor="middle" x="381.5" y="-624.432" font-family="Helvetica,sans-Serif" font-size="10.00">SList&lt; DirRelation &gt;</text>
</a>
</g>
</g>
<!-- Node0&#45;&gt;Node8 -->
<g id="edge8" class="edge"><title>Node0&#45;&gt;Node8</title>
<path fill="none" stroke="orange" stroke-dasharray="5,2" d="M133.077,-456.667C133.501,-491.271 139.794,-562.654 182,-598.932 203.312,-617.251 276.734,-623.6 328.036,-625.791"/>
<polygon fill="orange" stroke="orange" points="136.577,-456.459 133.114,-446.446 129.577,-456.433 136.577,-456.459"/>
<text text-anchor="middle" x="236.5" y="-625.932" font-family="Helvetica,sans-Serif" font-size="10.00"> &lt; DirRelation &gt;</text>
</g>
<!-- Node9 -->
<g id="node10" class="node"><title>Node9</title>
<g id="a_node10"><a xlink:href="../../df/dce/class_s_list.html" target="_top" xlink:title="SList\&lt; DotFilePatcher \&gt;">
<polygon fill="white" stroke="black" points="320.5,-579.432 320.5,-598.432 442.5,-598.432 442.5,-579.432 320.5,-579.432"/>
<text text-anchor="middle" x="381.5" y="-586.432" font-family="Helvetica,sans-Serif" font-size="10.00">SList&lt; DotFilePatcher &gt;</text>
</a>
</g>
</g>
<!-- Node0&#45;&gt;Node9 -->
<g id="edge9" class="edge"><title>Node0&#45;&gt;Node9</title>
<path fill="none" stroke="orange" stroke-dasharray="5,2" d="M135.197,-456.734C138.727,-484.702 149.489,-535.226 182,-560.932 202.884,-577.445 269.708,-584.222 320.1,-587.001"/>
<polygon fill="orange" stroke="orange" points="138.655,-456.153 134.112,-446.582 131.695,-456.897 138.655,-456.153"/>
<text text-anchor="middle" x="236.5" y="-586.932" font-family="Helvetica,sans-Serif" font-size="10.00"> &lt; DotFilePatcher &gt;</text>
</g>
<!-- Node10 -->
<g id="node11" class="node"><title>Node10</title>
<g id="a_node11"><a xlink:href="../../df/dce/class_s_list.html" target="_top" xlink:title="SList\&lt; NamespaceDef \&gt;">
<polygon fill="white" stroke="black" points="319,-541.432 319,-560.432 444,-560.432 444,-541.432 319,-541.432"/>
<text text-anchor="middle" x="381.5" y="-548.432" font-family="Helvetica,sans-Serif" font-size="10.00">SList&lt; NamespaceDef &gt;</text>
</a>
</g>
</g>
<!-- Node0&#45;&gt;Node10 -->
<g id="edge10" class="edge"><title>Node0&#45;&gt;Node10</title>
<path fill="none" stroke="orange" stroke-dasharray="5,2" d="M138.58,-456.445C145.037,-477.057 158.302,-508.766 182,-524.932 203.677,-539.72 268.843,-546.108 318.653,-548.861"/>
<polygon fill="orange" stroke="orange" points="141.865,-455.204 135.737,-446.561 135.138,-457.139 141.865,-455.204"/>
<text text-anchor="middle" x="236.5" y="-548.932" font-family="Helvetica,sans-Serif" font-size="10.00"> &lt; NamespaceDef &gt;</text>
</g>
<!-- Node11 -->
<g id="node12" class="node"><title>Node11</title>
<g id="a_node12"><a xlink:href="../../df/dce/class_s_list.html" target="_top" xlink:title="SList\&lt; void \&gt;">
<polygon fill="white" stroke="black" points="344,-503.432 344,-522.432 419,-522.432 419,-503.432 344,-503.432"/>
<text text-anchor="middle" x="381.5" y="-510.432" font-family="Helvetica,sans-Serif" font-size="10.00">SList&lt; void &gt;</text>
</a>
</g>
</g>
<!-- Node0&#45;&gt;Node11 -->
<g id="edge11" class="edge"><title>Node0&#45;&gt;Node11</title>
<path fill="none" stroke="orange" stroke-dasharray="5,2" d="M147.077,-454.293C155.913,-464.324 168.315,-476.246 182,-482.932 234.14,-508.407 302.424,-513.435 343.797,-513.837"/>
<polygon fill="orange" stroke="orange" points="149.639,-451.9 140.543,-446.468 144.266,-456.387 149.639,-451.9"/>
<text text-anchor="middle" x="236.5" y="-512.932" font-family="Helvetica,sans-Serif" font-size="10.00"> &lt; void &gt;</text>
</g>
<!-- Node12 -->
<g id="node13" class="node"><title>Node12</title>
<g id="a_node13"><a xlink:href="../../df/dce/class_s_list.html" target="_top" xlink:title="SList\&lt; GroupDef \&gt;">
<polygon fill="white" stroke="black" points="332,-465.432 332,-484.432 431,-484.432 431,-465.432 332,-465.432"/>
<text text-anchor="middle" x="381.5" y="-472.432" font-family="Helvetica,sans-Serif" font-size="10.00">SList&lt; GroupDef &gt;</text>
</a>
</g>
</g>
<!-- Node0&#45;&gt;Node12 -->
<g id="edge12" class="edge"><title>Node0&#45;&gt;Node12</title>
<path fill="none" stroke="orange" stroke-dasharray="5,2" d="M170.927,-449.256C174.644,-450.254 178.38,-451.17 182,-451.932 232.581,-462.589 291.527,-468.632 331.965,-471.822"/>
<polygon fill="orange" stroke="orange" points="171.801,-445.865 161.224,-446.47 169.869,-452.594 171.801,-445.865"/>
<text text-anchor="middle" x="236.5" y="-470.932" font-family="Helvetica,sans-Serif" font-size="10.00"> &lt; GroupDef &gt;</text>
</g>
<!-- Node13 -->
<g id="node14" class="node"><title>Node13</title>
<g id="a_node14"><a xlink:href="../../df/dce/class_s_list.html" target="_top" xlink:title="SList\&lt; IndexField \&gt;">
<polygon fill="white" stroke="black" points="330.5,-427.432 330.5,-446.432 432.5,-446.432 432.5,-427.432 330.5,-427.432"/>
<text text-anchor="middle" x="381.5" y="-434.432" font-family="Helvetica,sans-Serif" font-size="10.00">SList&lt; IndexField &gt;</text>
</a>
</g>
</g>
<!-- Node0&#45;&gt;Node13 -->
<g id="edge13" class="edge"><title>Node0&#45;&gt;Node13</title>
<path fill="none" stroke="orange" stroke-dasharray="5,2" d="M174.35,-436.932C217.172,-436.932 284.499,-436.932 330.476,-436.932"/>
<polygon fill="orange" stroke="orange" points="174.283,-433.432 164.283,-436.932 174.283,-440.432 174.283,-433.432"/>
<text text-anchor="middle" x="236.5" y="-439.932" font-family="Helvetica,sans-Serif" font-size="10.00"> &lt; IndexField &gt;</text>
</g>
<!-- Node14 -->
<g id="node15" class="node"><title>Node14</title>
<g id="a_node15"><a xlink:href="../../df/dce/class_s_list.html" target="_top" xlink:title="SList\&lt; DocSets::NodeDef \&gt;">
<polygon fill="white" stroke="black" points="311.5,-389.432 311.5,-408.432 451.5,-408.432 451.5,-389.432 311.5,-389.432"/>
<text text-anchor="middle" x="381.5" y="-396.432" font-family="Helvetica,sans-Serif" font-size="10.00">SList&lt; DocSets::NodeDef &gt;</text>
</a>
</g>
</g>
<!-- Node0&#45;&gt;Node14 -->
<g id="edge14" class="edge"><title>Node0&#45;&gt;Node14</title>
<path fill="none" stroke="orange" stroke-dasharray="5,2" d="M170.927,-424.608C174.644,-423.61 178.38,-422.695 182,-421.932 224.434,-412.992 272.755,-407.299 311.096,-403.813"/>
<polygon fill="orange" stroke="orange" points="169.869,-421.271 161.224,-427.394 171.801,-427.999 169.869,-421.271"/>
<text text-anchor="middle" x="236.5" y="-424.932" font-family="Helvetica,sans-Serif" font-size="10.00"> &lt; DocSets::NodeDef &gt;</text>
</g>
<!-- Node15 -->
<g id="node16" class="node"><title>Node15</title>
<g id="a_node16"><a xlink:href="../../df/dce/class_s_list.html" target="_top" xlink:title="SList\&lt; GenericsCollection \&gt;">
<polygon fill="white" stroke="black" points="311.5,-351.432 311.5,-370.432 451.5,-370.432 451.5,-351.432 311.5,-351.432"/>
<text text-anchor="middle" x="381.5" y="-358.432" font-family="Helvetica,sans-Serif" font-size="10.00">SList&lt; GenericsCollection &gt;</text>
</a>
</g>
</g>
<!-- Node0&#45;&gt;Node15 -->
<g id="edge15" class="edge"><title>Node0&#45;&gt;Node15</title>
<path fill="none" stroke="orange" stroke-dasharray="5,2" d="M147.077,-419.571C155.913,-409.54 168.315,-397.619 182,-390.932 222.084,-371.348 271.709,-363.848 311.313,-361.244"/>
<polygon fill="orange" stroke="orange" points="144.266,-417.477 140.543,-427.396 149.639,-421.964 144.266,-417.477"/>
<text text-anchor="middle" x="236.5" y="-393.932" font-family="Helvetica,sans-Serif" font-size="10.00"> &lt; GenericsCollection &gt;</text>
</g>
<!-- Node16 -->
<g id="node17" class="node"><title>Node16</title>
<g id="a_node17"><a xlink:href="../../df/dce/class_s_list.html" target="_top" xlink:title="SList\&lt; FilePair \&gt;">
<polygon fill="white" stroke="black" points="336.5,-313.432 336.5,-332.432 426.5,-332.432 426.5,-313.432 336.5,-313.432"/>
<text text-anchor="middle" x="381.5" y="-320.432" font-family="Helvetica,sans-Serif" font-size="10.00">SList&lt; FilePair &gt;</text>
</a>
</g>
</g>
<!-- Node0&#45;&gt;Node16 -->
<g id="edge16" class="edge"><title>Node0&#45;&gt;Node16</title>
<path fill="none" stroke="orange" stroke-dasharray="5,2" d="M138.58,-417.419C145.037,-396.807 158.302,-365.098 182,-348.932 227.652,-317.79 293.168,-315.302 336.263,-317.888"/>
<polygon fill="orange" stroke="orange" points="135.138,-416.725 135.737,-427.303 141.865,-418.66 135.138,-416.725"/>
<text text-anchor="middle" x="236.5" y="-351.932" font-family="Helvetica,sans-Serif" font-size="10.00"> &lt; FilePair &gt;</text>
</g>
<!-- Node17 -->
<g id="node18" class="node"><title>Node17</title>
<g id="a_node18"><a xlink:href="../../df/dce/class_s_list.html" target="_top" xlink:title="SList\&lt; ClassDef \&gt;">
<polygon fill="white" stroke="black" points="332.5,-275.432 332.5,-294.432 430.5,-294.432 430.5,-275.432 332.5,-275.432"/>
<text text-anchor="middle" x="381.5" y="-282.432" font-family="Helvetica,sans-Serif" font-size="10.00">SList&lt; ClassDef &gt;</text>
</a>
</g>
</g>
<!-- Node0&#45;&gt;Node17 -->
<g id="edge17" class="edge"><title>Node0&#45;&gt;Node17</title>
<path fill="none" stroke="orange" stroke-dasharray="5,2" d="M134.35,-417.038C136.805,-386.968 146.215,-330.532 182,-302.932 224.607,-270.07 288.692,-270.489 332.442,-275.882"/>
<polygon fill="orange" stroke="orange" points="130.848,-416.955 133.709,-427.156 137.834,-417.397 130.848,-416.955"/>
<text text-anchor="middle" x="236.5" y="-305.932" font-family="Helvetica,sans-Serif" font-size="10.00"> &lt; ClassDef &gt;</text>
</g>
<!-- Node18 -->
<g id="node19" class="node"><title>Node18</title>
<g id="a_node19"><a xlink:href="../../df/dce/class_s_list.html" target="_top" xlink:title="SList\&lt; RefItem \&gt;">
<polygon fill="white" stroke="black" points="335.5,-237.432 335.5,-256.432 427.5,-256.432 427.5,-237.432 335.5,-237.432"/>
<text text-anchor="middle" x="381.5" y="-244.432" font-family="Helvetica,sans-Serif" font-size="10.00">SList&lt; RefItem &gt;</text>
</a>
</g>
</g>
<!-- Node0&#45;&gt;Node18 -->
<g id="edge18" class="edge"><title>Node0&#45;&gt;Node18</title>
<path fill="none" stroke="orange" stroke-dasharray="5,2" d="M135.984,-417.236C141.716,-375.226 157.299,-279.012 182,-258.932 227.274,-222.127 299.28,-228.687 342.992,-237.396"/>
<polygon fill="orange" stroke="orange" points="132.491,-416.952 134.656,-427.324 139.431,-417.866 132.491,-416.952"/>
<text text-anchor="middle" x="236.5" y="-261.932" font-family="Helvetica,sans-Serif" font-size="10.00"> &lt; RefItem &gt;</text>
</g>
<!-- Node19 -->
<g id="node20" class="node"><title>Node19</title>
<g id="a_node20"><a xlink:href="../../df/dce/class_s_list.html" target="_top" xlink:title="SList\&lt; SearchDocEntry \&gt;">
<polygon fill="white" stroke="black" points="317,-199.432 317,-218.432 446,-218.432 446,-199.432 317,-199.432"/>
<text text-anchor="middle" x="381.5" y="-206.432" font-family="Helvetica,sans-Serif" font-size="10.00">SList&lt; SearchDocEntry &gt;</text>
</a>
</g>
</g>
<!-- Node0&#45;&gt;Node19 -->
<g id="edge19" class="edge"><title>Node0&#45;&gt;Node19</title>
<path fill="none" stroke="orange" stroke-dasharray="5,2" d="M134.824,-417.205C138.574,-367.958 151.071,-241.72 182,-215.932 228.878,-176.846 305.824,-188.462 348.85,-199.354"/>
<polygon fill="orange" stroke="orange" points="131.33,-417.002 134.102,-427.228 138.312,-417.505 131.33,-417.002"/>
<text text-anchor="middle" x="236.5" y="-218.932" font-family="Helvetica,sans-Serif" font-size="10.00"> &lt; SearchDocEntry &gt;</text>
</g>
<!-- Node20 -->
<g id="node21" class="node"><title>Node20</title>
<g id="a_node21"><a xlink:href="../../df/dce/class_s_list.html" target="_top" xlink:title="SList\&lt; SearchDefinitionList \&gt;">
<polygon fill="white" stroke="black" points="309,-161.432 309,-180.432 454,-180.432 454,-161.432 309,-161.432"/>
<text text-anchor="middle" x="381.5" y="-168.432" font-family="Helvetica,sans-Serif" font-size="10.00">SList&lt; SearchDefinitionList &gt;</text>
</a>
</g>
</g>
<!-- Node0&#45;&gt;Node20 -->
<g id="edge20" class="edge"><title>Node0&#45;&gt;Node20</title>
<path fill="none" stroke="orange" stroke-dasharray="5,2" d="M134.054,-416.86C136.058,-360.914 144.924,-205.273 182,-173.932 200.721,-158.107 259.926,-158.942 308.844,-162.809"/>
<polygon fill="orange" stroke="orange" points="130.544,-417.098 133.722,-427.205 137.541,-417.322 130.544,-417.098"/>
<text text-anchor="middle" x="236.5" y="-176.932" font-family="Helvetica,sans-Serif" font-size="10.00"> &lt; SearchDefinitionList &gt;</text>
</g>
<!-- Node21 -->
<g id="node22" class="node"><title>Node21</title>
<g id="a_node22"><a xlink:href="../../df/dce/class_s_list.html" target="_top" xlink:title="SList\&lt; SectionInfo \&gt;">
<polygon fill="white" stroke="black" points="328,-123.432 328,-142.432 435,-142.432 435,-123.432 328,-123.432"/>
<text text-anchor="middle" x="381.5" y="-130.432" font-family="Helvetica,sans-Serif" font-size="10.00">SList&lt; SectionInfo &gt;</text>
</a>
</g>
</g>
<!-- Node0&#45;&gt;Node21 -->
<g id="edge21" class="edge"><title>Node0&#45;&gt;Node21</title>
<path fill="none" stroke="orange" stroke-dasharray="5,2" d="M133.748,-416.825C134.94,-357.036 141.857,-182.258 182,-145.932 226.173,-105.959 300.944,-113.954 345.021,-123.421"/>
<polygon fill="orange" stroke="orange" points="130.243,-417.118 133.578,-427.175 137.242,-417.233 130.243,-417.118"/>
<text text-anchor="middle" x="236.5" y="-148.932" font-family="Helvetica,sans-Serif" font-size="10.00"> &lt; SectionInfo &gt;</text>
</g>
<!-- Node22 -->
<g id="node23" class="node"><title>Node22</title>
<g id="a_node23"><a xlink:href="../../df/dce/class_s_list.html" target="_top" xlink:title="SList\&lt; MemberList \&gt;">
<polygon fill="white" stroke="black" points="327.5,-85.4321 327.5,-104.432 435.5,-104.432 435.5,-85.4321 327.5,-85.4321"/>
<text text-anchor="middle" x="381.5" y="-92.4321" font-family="Helvetica,sans-Serif" font-size="10.00">SList&lt; MemberList &gt;</text>
</a>
</g>
</g>
<!-- Node0&#45;&gt;Node22 -->
<g id="edge22" class="edge"><title>Node0&#45;&gt;Node22</title>
<path fill="none" stroke="orange" stroke-dasharray="5,2" d="M133.197,-417.163C132.651,-351.608 134.719,-143.145 182,-100.932 228.422,-59.4858 308.063,-73.5024 351.001,-85.375"/>
<polygon fill="orange" stroke="orange" points="129.7,-417.4 133.315,-427.359 136.699,-417.319 129.7,-417.4"/>
<text text-anchor="middle" x="236.5" y="-103.932" font-family="Helvetica,sans-Serif" font-size="10.00"> &lt; MemberList &gt;</text>
</g>
<!-- Node23 -->
<g id="node24" class="node"><title>Node23</title>
<g id="a_node24"><a xlink:href="../../df/dce/class_s_list.html" target="_top" xlink:title="SList\&lt; DirDef \&gt;">
<polygon fill="white" stroke="black" points="338.5,-47.4321 338.5,-66.4321 424.5,-66.4321 424.5,-47.4321 338.5,-47.4321"/>
<text text-anchor="middle" x="381.5" y="-54.4321" font-family="Helvetica,sans-Serif" font-size="10.00">SList&lt; DirDef &gt;</text>
</a>
</g>
</g>
<!-- Node0&#45;&gt;Node23 -->
<g id="edge23" class="edge"><title>Node0&#45;&gt;Node23</title>
<path fill="none" stroke="orange" stroke-dasharray="5,2" d="M134.561,-416.824C138.711,-342.033 154.951,-82.9753 182,-58.9321 204.281,-39.127 287.099,-45.1764 338.459,-51.1809"/>
<polygon fill="orange" stroke="orange" points="131.047,-417.007 134,-427.182 138.036,-417.386 131.047,-417.007"/>
<text text-anchor="middle" x="236.5" y="-61.9321" font-family="Helvetica,sans-Serif" font-size="10.00"> &lt; DirDef &gt;</text>
</g>
<!-- Node24 -->
<g id="node25" class="node"><title>Node24</title>
<g id="a_node25"><a xlink:href="../../df/dce/class_s_list.html" target="_top" xlink:title="SList\&lt; Example \&gt;">
<polygon fill="white" stroke="black" points="334,-9.43209 334,-28.4321 429,-28.4321 429,-9.43209 334,-9.43209"/>
<text text-anchor="middle" x="381.5" y="-16.4321" font-family="Helvetica,sans-Serif" font-size="10.00">SList&lt; Example &gt;</text>
</a>
</g>
</g>
<!-- Node0&#45;&gt;Node24 -->
<g id="edge24" class="edge"><title>Node0&#45;&gt;Node24</title>
<path fill="none" stroke="orange" stroke-dasharray="5,2" d="M134.412,-416.902C138.166,-338.808 153.571,-57.7441 182,-30.9321 226.079,10.6405 303.012,0.852843 347.036,-9.41338"/>
<polygon fill="orange" stroke="orange" points="130.899,-417.11 133.926,-427.263 137.891,-417.438 130.899,-417.11"/>
<text text-anchor="middle" x="236.5" y="-33.9321" font-family="Helvetica,sans-Serif" font-size="10.00"> &lt; Example &gt;</text>
</g>
<!-- Node1 -->
<g id="node2" class="node"><title>Node1</title>
<polygon fill="white" stroke="#bfbfbf" points="0,-427.432 0,-446.432 64,-446.432 64,-427.432 0,-427.432"/>
<text text-anchor="middle" x="32" y="-434.432" font-family="Helvetica,sans-Serif" font-size="10.00">QList&lt; T &gt;</text>
</g>
<!-- Node1&#45;&gt;Node0 -->
<g id="edge1" class="edge"><title>Node1&#45;&gt;Node0</title>
<path fill="none" stroke="midnightblue" d="M74.3626,-436.932C83.2472,-436.932 92.4834,-436.932 100.874,-436.932"/>
<polygon fill="midnightblue" stroke="midnightblue" points="74.166,-433.432 64.166,-436.932 74.166,-440.432 74.166,-433.432"/>
</g>
</g>
</svg>
