<?xml version="1.0" encoding="UTF-8" standalone="no"?>
<!DOCTYPE svg PUBLIC "-//W3C//DTD SVG 1.1//EN"
 "http://www.w3.org/Graphics/SVG/1.1/DTD/svg11.dtd">
<!-- Generated by graphviz version 2.38.0 (20140413.2041)
 -->
<!-- Title: GlobalsIndexContext::Private Pages: 1 -->
<svg width="993pt" height="150pt"
 viewBox="0.00 0.00 993.00 149.50" xmlns="http://www.w3.org/2000/svg" xmlns:xlink="http://www.w3.org/1999/xlink">
<g id="graph0" class="graph" transform="scale(1 1) rotate(0) translate(4 145.5)">
<title>GlobalsIndexContext::Private</title>
<polygon fill="white" stroke="none" points="-4,4 -4,-145.5 989,-145.5 989,4 -4,4"/>
<!-- Node1 -->
<g id="node1" class="node"><title>Node1</title>
<polygon fill="#bfbfbf" stroke="black" points="877,-26.5 877,-56.5 985,-56.5 985,-26.5 877,-26.5"/>
<text text-anchor="start" x="885" y="-44.5" font-family="Helvetica,sans-Serif" font-size="10.00">GlobalsIndexContext</text>
<text text-anchor="middle" x="931" y="-33.5" font-family="Helvetica,sans-Serif" font-size="10.00">::Private</text>
</g>
<!-- Node2 -->
<g id="node2" class="node"><title>Node2</title>
<g id="a_node2"><a xlink:href="../../dc/dfb/struct_globals_index_context_1_1_private_1_1_cachable.html" target="_top" xlink:title="GlobalsIndexContext\l::Private::Cachable">
<polygon fill="white" stroke="black" points="668,-49.5 668,-79.5 776,-79.5 776,-49.5 668,-49.5"/>
<text text-anchor="start" x="676" y="-67.5" font-family="Helvetica,sans-Serif" font-size="10.00">GlobalsIndexContext</text>
<text text-anchor="middle" x="722" y="-56.5" font-family="Helvetica,sans-Serif" font-size="10.00">::Private::Cachable</text>
</a>
</g>
</g>
<!-- Node2&#45;&gt;Node1 -->
<g id="edge1" class="edge"><title>Node2&#45;&gt;Node1</title>
<path fill="none" stroke="#9a32cd" stroke-dasharray="5,2" d="M786.064,-57.4929C815.051,-54.2721 849.06,-50.4933 876.74,-47.4178"/>
<polygon fill="#9a32cd" stroke="#9a32cd" points="785.591,-54.0238 776.039,-58.6068 786.364,-60.981 785.591,-54.0238"/>
<text text-anchor="middle" x="837.5" y="-56.5" font-family="Helvetica,sans-Serif" font-size="10.00"> m_cache</text>
</g>
<!-- Node3 -->
<g id="node3" class="node"><title>Node3</title>
<g id="a_node3"><a xlink:href="../../df/d12/class_shared_ptr.html" target="_top" xlink:title="SharedPtr\&lt; TemplateList \&gt;">
<polygon fill="white" stroke="black" points="372,-55 372,-74 506,-74 506,-55 372,-55"/>
<text text-anchor="middle" x="439" y="-62" font-family="Helvetica,sans-Serif" font-size="10.00">SharedPtr&lt; TemplateList &gt;</text>
</a>
</g>
</g>
<!-- Node3&#45;&gt;Node2 -->
<g id="edge2" class="edge"><title>Node3&#45;&gt;Node2</title>
<path fill="none" stroke="#9a32cd" stroke-dasharray="5,2" d="M516.28,-64.5C564.3,-64.5 625.073,-64.5 667.888,-64.5"/>
<polygon fill="#9a32cd" stroke="#9a32cd" points="516.237,-61.0001 506.237,-64.5 516.237,-68.0001 516.237,-61.0001"/>
<text text-anchor="middle" x="576" y="-133.5" font-family="Helvetica,sans-Serif" font-size="10.00"> macros</text>
<text text-anchor="middle" x="576" y="-122.5" font-family="Helvetica,sans-Serif" font-size="10.00">typedefs</text>
<text text-anchor="middle" x="576" y="-111.5" font-family="Helvetica,sans-Serif" font-size="10.00">enumValues</text>
<text text-anchor="middle" x="576" y="-100.5" font-family="Helvetica,sans-Serif" font-size="10.00">enums</text>
<text text-anchor="middle" x="576" y="-89.5" font-family="Helvetica,sans-Serif" font-size="10.00">all</text>
<text text-anchor="middle" x="576" y="-78.5" font-family="Helvetica,sans-Serif" font-size="10.00">variables</text>
<text text-anchor="middle" x="576" y="-67.5" font-family="Helvetica,sans-Serif" font-size="10.00">functions</text>
</g>
<!-- Node4 -->
<g id="node4" class="node"><title>Node4</title>
<g id="a_node4"><a xlink:href="../../de/dab/class_template_list.html" target="_top" xlink:title="Default implementation of a context value of type list. ">
<polygon fill="white" stroke="black" points="179.5,-73 179.5,-92 252.5,-92 252.5,-73 179.5,-73"/>
<text text-anchor="middle" x="216" y="-80" font-family="Helvetica,sans-Serif" font-size="10.00">TemplateList</text>
</a>
</g>
</g>
<!-- Node4&#45;&gt;Node3 -->
<g id="edge3" class="edge"><title>Node4&#45;&gt;Node3</title>
<path fill="none" stroke="#9a32cd" stroke-dasharray="5,2" d="M262.753,-78.7735C294.269,-76.2066 336.641,-72.7555 371.826,-69.8897"/>
<polygon fill="#9a32cd" stroke="#9a32cd" points="262.19,-75.3077 252.507,-79.608 262.759,-82.2846 262.19,-75.3077"/>
<text text-anchor="middle" x="315" y="-80.5" font-family="Helvetica,sans-Serif" font-size="10.00"> m_ptr</text>
</g>
<!-- Node5 -->
<g id="node5" class="node"><title>Node5</title>
<g id="a_node5"><a xlink:href="../../d6/d88/class_template_list_intf.html" target="_top" xlink:title="Abstract read&#45;only interface for a context value of type list. ">
<polygon fill="white" stroke="black" points="11.5,-111 11.5,-130 98.5,-130 98.5,-111 11.5,-111"/>
<text text-anchor="middle" x="55" y="-118" font-family="Helvetica,sans-Serif" font-size="10.00">TemplateListIntf</text>
</a>
</g>
</g>
<!-- Node5&#45;&gt;Node4 -->
<g id="edge4" class="edge"><title>Node5&#45;&gt;Node4</title>
<path fill="none" stroke="midnightblue" d="M108.258,-108.718C123.652,-105.183 140.519,-101.248 156,-97.5 163.601,-95.6598 171.738,-93.6301 179.466,-91.6743"/>
<polygon fill="midnightblue" stroke="midnightblue" points="107.35,-105.335 98.3827,-110.978 108.911,-112.159 107.35,-105.335"/>
</g>
<!-- Node6 -->
<g id="node6" class="node"><title>Node6</title>
<g id="a_node6"><a xlink:href="../../d5/dee/class_template_list_1_1_private.html" target="_top" xlink:title="Private data of a template list object. ">
<polygon fill="white" stroke="black" points="0,-73 0,-92 110,-92 110,-73 0,-73"/>
<text text-anchor="middle" x="55" y="-80" font-family="Helvetica,sans-Serif" font-size="10.00">TemplateList::Private</text>
</a>
</g>
</g>
<!-- Node6&#45;&gt;Node4 -->
<g id="edge5" class="edge"><title>Node6&#45;&gt;Node4</title>
<path fill="none" stroke="#9a32cd" stroke-dasharray="5,2" d="M120.35,-82.5C140.51,-82.5 162.019,-82.5 179.43,-82.5"/>
<polygon fill="#9a32cd" stroke="#9a32cd" points="120.274,-79.0001 110.274,-82.5 120.274,-86.0001 120.274,-79.0001"/>
<text text-anchor="middle" x="142" y="-85.5" font-family="Helvetica,sans-Serif" font-size="10.00"> p</text>
</g>
<!-- Node7 -->
<g id="node7" class="node"><title>Node7</title>
<g id="a_node7"><a xlink:href="../../df/d12/class_shared_ptr.html" target="_top" xlink:title="Reference counting smart pointer. ">
<polygon fill="white" stroke="black" points="174,-35 174,-54 258,-54 258,-35 174,-35"/>
<text text-anchor="middle" x="216" y="-42" font-family="Helvetica,sans-Serif" font-size="10.00">SharedPtr&lt; T &gt;</text>
</a>
</g>
</g>
<!-- Node7&#45;&gt;Node3 -->
<g id="edge6" class="edge"><title>Node7&#45;&gt;Node3</title>
<path fill="none" stroke="orange" stroke-dasharray="5,2" d="M268.363,-48.2986C294.089,-50.2839 325.707,-52.8489 354,-55.5 359.841,-56.0473 365.908,-56.6433 371.987,-57.2594"/>
<polygon fill="orange" stroke="orange" points="268.327,-44.7857 258.09,-47.5123 267.793,-51.7652 268.327,-44.7857"/>
<text text-anchor="middle" x="315" y="-58.5" font-family="Helvetica,sans-Serif" font-size="10.00"> &lt; TemplateList &gt;</text>
</g>
<!-- Node8 -->
<g id="node8" class="node"><title>Node8</title>
<polygon fill="white" stroke="#bfbfbf" points="40.5,-35 40.5,-54 69.5,-54 69.5,-35 40.5,-35"/>
<text text-anchor="middle" x="55" y="-42" font-family="Helvetica,sans-Serif" font-size="10.00">T</text>
</g>
<!-- Node8&#45;&gt;Node7 -->
<g id="edge7" class="edge"><title>Node8&#45;&gt;Node7</title>
<path fill="none" stroke="#9a32cd" stroke-dasharray="5,2" d="M79.8452,-44.5C104.647,-44.5 143.951,-44.5 173.795,-44.5"/>
<polygon fill="#9a32cd" stroke="#9a32cd" points="79.5563,-41.0001 69.5563,-44.5 79.5562,-48.0001 79.5563,-41.0001"/>
<text text-anchor="middle" x="142" y="-47.5" font-family="Helvetica,sans-Serif" font-size="10.00"> m_ptr</text>
</g>
<!-- Node9 -->
<g id="node9" class="node"><title>Node9</title>
<g id="a_node9"><a xlink:href="../../d1/d80/class_property_mapper.html" target="_top" xlink:title="PropertyMapper\&lt; GlobalsIndex\lContext::Private \&gt;">
<polygon fill="white" stroke="black" points="646,-0.5 646,-30.5 798,-30.5 798,-0.5 646,-0.5"/>
<text text-anchor="start" x="654" y="-18.5" font-family="Helvetica,sans-Serif" font-size="10.00">PropertyMapper&lt; GlobalsIndex</text>
<text text-anchor="middle" x="722" y="-7.5" font-family="Helvetica,sans-Serif" font-size="10.00">Context::Private &gt;</text>
</a>
</g>
</g>
<!-- Node9&#45;&gt;Node1 -->
<g id="edge8" class="edge"><title>Node9&#45;&gt;Node1</title>
<path fill="none" stroke="#9a32cd" stroke-dasharray="5,2" d="M808.252,-26.208C831.513,-29.1297 856.044,-32.2109 876.943,-34.8359"/>
<polygon fill="#9a32cd" stroke="#9a32cd" points="808.383,-22.697 798.024,-24.9234 807.51,-29.6424 808.383,-22.697"/>
<text text-anchor="middle" x="837.5" y="-34.5" font-family="Helvetica,sans-Serif" font-size="10.00"> s_inst</text>
</g>
<!-- Node10 -->
<g id="node10" class="node"><title>Node10</title>
<g id="a_node10"><a xlink:href="../../d1/d80/class_property_mapper.html" target="_top" xlink:title="Helper class to map a property name to a handler member function. ">
<polygon fill="white" stroke="black" points="384,-6 384,-25 494,-25 494,-6 384,-6"/>
<text text-anchor="middle" x="439" y="-13" font-family="Helvetica,sans-Serif" font-size="10.00">PropertyMapper&lt; T &gt;</text>
</a>
</g>
</g>
<!-- Node10&#45;&gt;Node9 -->
<g id="edge9" class="edge"><title>Node10&#45;&gt;Node9</title>
<path fill="none" stroke="orange" stroke-dasharray="5,2" d="M504.314,-15.5C546.416,-15.5 601.602,-15.5 645.743,-15.5"/>
<polygon fill="orange" stroke="orange" points="504.18,-12.0001 494.18,-15.5 504.18,-19.0001 504.18,-12.0001"/>
<text text-anchor="start" x="524" y="-29.5" font-family="Helvetica,sans-Serif" font-size="10.00"> &lt; GlobalsIndexContext</text>
<text text-anchor="middle" x="576" y="-18.5" font-family="Helvetica,sans-Serif" font-size="10.00">::Private &gt;</text>
</g>
</g>
</svg>
