<?xml version="1.0" encoding="UTF-8" standalone="no"?>
<!DOCTYPE svg PUBLIC "-//W3C//DTD SVG 1.1//EN"
 "http://www.w3.org/Graphics/SVG/1.1/DTD/svg11.dtd">
<!-- Generated by graphviz version 2.38.0 (20140413.2041)
 -->
<!-- Title: src/outputlist.h Pages: 1 -->
<svg width="495pt" height="252pt"
 viewBox="0.00 0.00 495.00 252.00" xmlns="http://www.w3.org/2000/svg" xmlns:xlink="http://www.w3.org/1999/xlink">
<g id="graph0" class="graph" transform="scale(1 1) rotate(0) translate(4 248)">
<title>src/outputlist.h</title>
<polygon fill="white" stroke="none" points="-4,4 -4,-248 491,-248 491,4 -4,4"/>
<!-- Node0 -->
<g id="node1" class="node"><title>Node0</title>
<polygon fill="#bfbfbf" stroke="black" points="0,-224.5 0,-243.5 81,-243.5 81,-224.5 0,-224.5"/>
<text text-anchor="middle" x="40.5" y="-231.5" font-family="Helvetica,sans-Serif" font-size="10.00">src/outputlist.h</text>
</g>
<!-- Node1 -->
<g id="node2" class="node"><title>Node1</title>
<polygon fill="white" stroke="#bfbfbf" points="5,-0.5 5,-19.5 48,-19.5 48,-0.5 5,-0.5"/>
<text text-anchor="middle" x="26.5" y="-7.5" font-family="Helvetica,sans-Serif" font-size="10.00">qlist.h</text>
</g>
<!-- Node0&#45;&gt;Node1 -->
<g id="edge1" class="edge"><title>Node0&#45;&gt;Node1</title>
<path fill="none" stroke="midnightblue" d="M36.6209,-224.316C29.177,-207.121 13.1273,-167.342 7.5,-132 1.69805,-95.5612 12.4905,-52.9289 20.0471,-29.2401"/>
<polygon fill="midnightblue" stroke="midnightblue" points="23.4489,-30.1045 23.3152,-19.5105 16.8132,-27.8756 23.4489,-30.1045"/>
</g>
<!-- Node2 -->
<g id="node3" class="node"><title>Node2</title>
<g id="a_node3"><a xlink:href="../../d1/db5/index_8h.html" target="_top" xlink:title="index.h">
<polygon fill="white" stroke="black" points="16.5,-112.5 16.5,-131.5 64.5,-131.5 64.5,-112.5 16.5,-112.5"/>
<text text-anchor="middle" x="40.5" y="-119.5" font-family="Helvetica,sans-Serif" font-size="10.00">index.h</text>
</a>
</g>
</g>
<!-- Node0&#45;&gt;Node2 -->
<g id="edge2" class="edge"><title>Node0&#45;&gt;Node2</title>
<path fill="none" stroke="midnightblue" d="M40.5,-224.368C40.5,-206.617 40.5,-165.666 40.5,-141.597"/>
<polygon fill="midnightblue" stroke="midnightblue" points="44.0001,-141.591 40.5,-131.591 37.0001,-141.591 44.0001,-141.591"/>
</g>
<!-- Node4 -->
<g id="node5" class="node"><title>Node4</title>
<g id="a_node5"><a xlink:href="../../df/d06/outputgen_8h.html" target="_top" xlink:title="outputgen.h">
<polygon fill="white" stroke="black" points="75.5,-168.5 75.5,-187.5 143.5,-187.5 143.5,-168.5 75.5,-168.5"/>
<text text-anchor="middle" x="109.5" y="-175.5" font-family="Helvetica,sans-Serif" font-size="10.00">outputgen.h</text>
</a>
</g>
</g>
<!-- Node0&#45;&gt;Node4 -->
<g id="edge5" class="edge"><title>Node0&#45;&gt;Node4</title>
<path fill="none" stroke="midnightblue" d="M51.586,-224.324C61.986,-216.185 77.7606,-203.839 90.2216,-194.087"/>
<polygon fill="midnightblue" stroke="midnightblue" points="92.4943,-196.753 98.2122,-187.834 88.1801,-191.241 92.4943,-196.753"/>
</g>
<!-- Node2&#45;&gt;Node1 -->
<g id="edge3" class="edge"><title>Node2&#45;&gt;Node1</title>
<path fill="none" stroke="midnightblue" d="M39.4014,-112.368C37.1422,-94.617 31.9303,-53.6664 28.8669,-29.5974"/>
<polygon fill="midnightblue" stroke="midnightblue" points="32.3281,-29.0695 27.5935,-19.5914 25.3841,-29.9533 32.3281,-29.0695"/>
</g>
<!-- Node3 -->
<g id="node4" class="node"><title>Node3</title>
<polygon fill="white" stroke="#bfbfbf" points="55,-56.5 55,-75.5 114,-75.5 114,-56.5 55,-56.5"/>
<text text-anchor="middle" x="84.5" y="-63.5" font-family="Helvetica,sans-Serif" font-size="10.00">qcstring.h</text>
</g>
<!-- Node2&#45;&gt;Node3 -->
<g id="edge4" class="edge"><title>Node2&#45;&gt;Node3</title>
<path fill="none" stroke="midnightblue" d="M47.7657,-112.083C54.0448,-104.377 63.2876,-93.0333 70.9308,-83.6531"/>
<polygon fill="midnightblue" stroke="midnightblue" points="73.7661,-85.7143 77.3695,-75.7511 68.3394,-81.2926 73.7661,-85.7143"/>
</g>
<!-- Node4&#45;&gt;Node2 -->
<g id="edge7" class="edge"><title>Node4&#45;&gt;Node2</title>
<path fill="none" stroke="midnightblue" d="M98.414,-168.324C88.014,-160.185 72.2394,-147.839 59.7784,-138.087"/>
<polygon fill="midnightblue" stroke="midnightblue" points="61.8199,-135.241 51.7878,-131.834 57.5057,-140.753 61.8199,-135.241"/>
</g>
<!-- Node5 -->
<g id="node6" class="node"><title>Node5</title>
<polygon fill="white" stroke="#bfbfbf" points="82.5,-112.5 82.5,-131.5 136.5,-131.5 136.5,-112.5 82.5,-112.5"/>
<text text-anchor="middle" x="109.5" y="-119.5" font-family="Helvetica,sans-Serif" font-size="10.00">qstack.h</text>
</g>
<!-- Node4&#45;&gt;Node5 -->
<g id="edge6" class="edge"><title>Node4&#45;&gt;Node5</title>
<path fill="none" stroke="midnightblue" d="M109.5,-168.083C109.5,-161.006 109.5,-150.861 109.5,-141.986"/>
<polygon fill="midnightblue" stroke="midnightblue" points="113,-141.751 109.5,-131.751 106,-141.751 113,-141.751"/>
</g>
<!-- Node6 -->
<g id="node7" class="node"><title>Node6</title>
<g id="a_node7"><a xlink:href="../../d1/d2a/section_8h.html" target="_top" xlink:title="section.h">
<polygon fill="white" stroke="black" points="154.5,-112.5 154.5,-131.5 210.5,-131.5 210.5,-112.5 154.5,-112.5"/>
<text text-anchor="middle" x="182.5" y="-119.5" font-family="Helvetica,sans-Serif" font-size="10.00">section.h</text>
</a>
</g>
</g>
<!-- Node4&#45;&gt;Node6 -->
<g id="edge8" class="edge"><title>Node4&#45;&gt;Node6</title>
<path fill="none" stroke="midnightblue" d="M121.229,-168.324C132.337,-160.107 149.242,-147.602 162.483,-137.807"/>
<polygon fill="midnightblue" stroke="midnightblue" points="164.6,-140.595 170.558,-131.834 160.437,-134.967 164.6,-140.595"/>
</g>
<!-- Node10 -->
<g id="node11" class="node"><title>Node10</title>
<g id="a_node11"><a xlink:href="../../df/d83/ftextstream_8h.html" target="_top" xlink:title="ftextstream.h">
<polygon fill="white" stroke="black" points="267.5,-112.5 267.5,-131.5 341.5,-131.5 341.5,-112.5 267.5,-112.5"/>
<text text-anchor="middle" x="304.5" y="-119.5" font-family="Helvetica,sans-Serif" font-size="10.00">ftextstream.h</text>
</a>
</g>
</g>
<!-- Node4&#45;&gt;Node10 -->
<g id="edge13" class="edge"><title>Node4&#45;&gt;Node10</title>
<path fill="none" stroke="midnightblue" d="M140.398,-168.444C173.774,-159.201 227.094,-144.436 263.849,-134.257"/>
<polygon fill="midnightblue" stroke="midnightblue" points="265.043,-137.558 273.746,-131.516 263.175,-130.812 265.043,-137.558"/>
</g>
<!-- Node7 -->
<g id="node8" class="node"><title>Node7</title>
<g id="a_node8"><a xlink:href="../../d9/d21/sortdict_8h.html" target="_top" xlink:title="sortdict.h">
<polygon fill="white" stroke="black" points="132,-56.5 132,-75.5 189,-75.5 189,-56.5 132,-56.5"/>
<text text-anchor="middle" x="160.5" y="-63.5" font-family="Helvetica,sans-Serif" font-size="10.00">sortdict.h</text>
</a>
</g>
</g>
<!-- Node6&#45;&gt;Node7 -->
<g id="edge9" class="edge"><title>Node6&#45;&gt;Node7</title>
<path fill="none" stroke="midnightblue" d="M178.867,-112.083C175.888,-104.77 171.574,-94.1814 167.875,-85.1034"/>
<polygon fill="midnightblue" stroke="midnightblue" points="171.08,-83.6914 164.065,-75.7511 164.597,-86.3326 171.08,-83.6914"/>
</g>
<!-- Node7&#45;&gt;Node1 -->
<g id="edge10" class="edge"><title>Node7&#45;&gt;Node1</title>
<path fill="none" stroke="midnightblue" d="M139.267,-56.4435C117.116,-47.5171 82.1813,-33.4387 57.064,-23.3168"/>
<polygon fill="midnightblue" stroke="midnightblue" points="58.2168,-20.0079 47.6334,-19.5164 55.6003,-26.5006 58.2168,-20.0079"/>
</g>
<!-- Node8 -->
<g id="node9" class="node"><title>Node8</title>
<polygon fill="white" stroke="#bfbfbf" points="102.5,-0.5 102.5,-19.5 148.5,-19.5 148.5,-0.5 102.5,-0.5"/>
<text text-anchor="middle" x="125.5" y="-7.5" font-family="Helvetica,sans-Serif" font-size="10.00">qdict.h</text>
</g>
<!-- Node7&#45;&gt;Node8 -->
<g id="edge11" class="edge"><title>Node7&#45;&gt;Node8</title>
<path fill="none" stroke="midnightblue" d="M154.72,-56.083C149.828,-48.5341 142.673,-37.4948 136.667,-28.2298"/>
<polygon fill="midnightblue" stroke="midnightblue" points="139.548,-26.239 131.172,-19.7511 133.674,-30.0463 139.548,-26.239"/>
</g>
<!-- Node9 -->
<g id="node10" class="node"><title>Node9</title>
<polygon fill="white" stroke="#bfbfbf" points="166.5,-0.5 166.5,-19.5 222.5,-19.5 222.5,-0.5 166.5,-0.5"/>
<text text-anchor="middle" x="194.5" y="-7.5" font-family="Helvetica,sans-Serif" font-size="10.00">qintdict.h</text>
</g>
<!-- Node7&#45;&gt;Node9 -->
<g id="edge12" class="edge"><title>Node7&#45;&gt;Node9</title>
<path fill="none" stroke="midnightblue" d="M166.114,-56.083C170.867,-48.5341 177.818,-37.4948 183.652,-28.2298"/>
<polygon fill="midnightblue" stroke="midnightblue" points="186.624,-30.0783 188.99,-19.7511 180.7,-26.3486 186.624,-30.0783"/>
</g>
<!-- Node11 -->
<g id="node12" class="node"><title>Node11</title>
<polygon fill="white" stroke="#bfbfbf" points="207.5,-56.5 207.5,-75.5 253.5,-75.5 253.5,-56.5 207.5,-56.5"/>
<text text-anchor="middle" x="230.5" y="-63.5" font-family="Helvetica,sans-Serif" font-size="10.00">stdio.h</text>
</g>
<!-- Node10&#45;&gt;Node11 -->
<g id="edge14" class="edge"><title>Node10&#45;&gt;Node11</title>
<path fill="none" stroke="midnightblue" d="M292.611,-112.324C281.35,-104.107 264.213,-91.6017 250.791,-81.8069"/>
<polygon fill="midnightblue" stroke="midnightblue" points="252.747,-78.9014 242.606,-75.8339 248.62,-84.5559 252.747,-78.9014"/>
</g>
<!-- Node12 -->
<g id="node13" class="node"><title>Node12</title>
<polygon fill="white" stroke="#bfbfbf" points="271.5,-56.5 271.5,-75.5 337.5,-75.5 337.5,-56.5 271.5,-56.5"/>
<text text-anchor="middle" x="304.5" y="-63.5" font-family="Helvetica,sans-Serif" font-size="10.00">qiodevice.h</text>
</g>
<!-- Node10&#45;&gt;Node12 -->
<g id="edge15" class="edge"><title>Node10&#45;&gt;Node12</title>
<path fill="none" stroke="midnightblue" d="M304.5,-112.083C304.5,-105.006 304.5,-94.8611 304.5,-85.9865"/>
<polygon fill="midnightblue" stroke="midnightblue" points="308,-85.751 304.5,-75.7511 301,-85.7511 308,-85.751"/>
</g>
<!-- Node13 -->
<g id="node14" class="node"><title>Node13</title>
<polygon fill="white" stroke="#bfbfbf" points="355.5,-56.5 355.5,-75.5 409.5,-75.5 409.5,-56.5 355.5,-56.5"/>
<text text-anchor="middle" x="382.5" y="-63.5" font-family="Helvetica,sans-Serif" font-size="10.00">qstring.h</text>
</g>
<!-- Node10&#45;&gt;Node13 -->
<g id="edge16" class="edge"><title>Node10&#45;&gt;Node13</title>
<path fill="none" stroke="midnightblue" d="M317.032,-112.324C329.086,-103.979 347.527,-91.2122 361.769,-81.3524"/>
<polygon fill="midnightblue" stroke="midnightblue" points="363.769,-84.2243 369.999,-75.6545 359.785,-78.469 363.769,-84.2243"/>
</g>
<!-- Node14 -->
<g id="node15" class="node"><title>Node14</title>
<polygon fill="white" stroke="#bfbfbf" points="428,-56.5 428,-75.5 487,-75.5 487,-56.5 428,-56.5"/>
<text text-anchor="middle" x="457.5" y="-63.5" font-family="Helvetica,sans-Serif" font-size="10.00">qgstring.h</text>
</g>
<!-- Node10&#45;&gt;Node14 -->
<g id="edge17" class="edge"><title>Node10&#45;&gt;Node14</title>
<path fill="none" stroke="midnightblue" d="M328.743,-112.444C354.371,-103.399 394.985,-89.064 423.738,-78.9158"/>
<polygon fill="midnightblue" stroke="midnightblue" points="425.105,-82.1452 433.37,-75.5164 422.775,-75.5442 425.105,-82.1452"/>
</g>
</g>
</svg>
