<?xml version="1.0" encoding="UTF-8" standalone="no"?>
<!DOCTYPE svg PUBLIC "-//W3C//DTD SVG 1.1//EN"
 "http://www.w3.org/Graphics/SVG/1.1/DTD/svg11.dtd">
<!-- Generated by graphviz version 2.38.0 (20140413.2041)
 -->
<!-- Title: LayoutParser::StartElementHandler Pages: 1 -->
<svg width="318pt" height="186pt"
 viewBox="0.00 0.00 318.00 186.00" xmlns="http://www.w3.org/2000/svg" xmlns:xlink="http://www.w3.org/1999/xlink">
<g id="graph0" class="graph" transform="scale(1 1) rotate(0) translate(4 182)">
<title>LayoutParser::StartElementHandler</title>
<polygon fill="white" stroke="none" points="-4,4 -4,-182 314,-182 314,4 -4,4"/>
<!-- Node0 -->
<g id="node1" class="node"><title>Node0</title>
<polygon fill="#bfbfbf" stroke="black" points="0,-73.5 0,-103.5 137,-103.5 137,-73.5 0,-73.5"/>
<text text-anchor="start" x="8" y="-91.5" font-family="Helvetica,sans-Serif" font-size="10.00">LayoutParser::StartElement</text>
<text text-anchor="middle" x="68.5" y="-80.5" font-family="Helvetica,sans-Serif" font-size="10.00">Handler</text>
</g>
<!-- Node1 -->
<g id="node2" class="node"><title>Node1</title>
<g id="a_node2"><a xlink:href="../../d4/d2b/class_layout_parser_1_1_start_element_handler_kind.html" target="_top" xlink:title="LayoutParser::StartElement\lHandlerKind">
<polygon fill="white" stroke="black" points="173,-147.5 173,-177.5 310,-177.5 310,-147.5 173,-147.5"/>
<text text-anchor="start" x="181" y="-165.5" font-family="Helvetica,sans-Serif" font-size="10.00">LayoutParser::StartElement</text>
<text text-anchor="middle" x="241.5" y="-154.5" font-family="Helvetica,sans-Serif" font-size="10.00">HandlerKind</text>
</a>
</g>
</g>
<!-- Node0&#45;&gt;Node1 -->
<g id="edge1" class="edge"><title>Node0&#45;&gt;Node1</title>
<path fill="none" stroke="midnightblue" d="M107.653,-108.156C127.002,-117.809 151.005,-129.309 173,-138.5 180.345,-141.569 188.236,-144.604 195.941,-147.429"/>
<polygon fill="midnightblue" stroke="midnightblue" points="109.064,-104.948 98.5577,-103.583 105.92,-111.202 109.064,-104.948"/>
</g>
<!-- Node2 -->
<g id="node3" class="node"><title>Node2</title>
<g id="a_node3"><a xlink:href="../../d2/d61/class_layout_parser_1_1_start_element_handler_member.html" target="_top" xlink:title="LayoutParser::StartElement\lHandlerMember">
<polygon fill="white" stroke="black" points="173,-98.5 173,-128.5 310,-128.5 310,-98.5 173,-98.5"/>
<text text-anchor="start" x="181" y="-116.5" font-family="Helvetica,sans-Serif" font-size="10.00">LayoutParser::StartElement</text>
<text text-anchor="middle" x="241.5" y="-105.5" font-family="Helvetica,sans-Serif" font-size="10.00">HandlerMember</text>
</a>
</g>
</g>
<!-- Node0&#45;&gt;Node2 -->
<g id="edge2" class="edge"><title>Node0&#45;&gt;Node2</title>
<path fill="none" stroke="midnightblue" d="M147.1,-99.845C155.692,-101.101 164.391,-102.373 172.847,-103.609"/>
<polygon fill="midnightblue" stroke="midnightblue" points="147.485,-96.3642 137.084,-98.3807 146.472,-103.291 147.485,-96.3642"/>
</g>
<!-- Node3 -->
<g id="node4" class="node"><title>Node3</title>
<g id="a_node4"><a xlink:href="../../d0/ddf/class_layout_parser_1_1_start_element_handler_nav_entry.html" target="_top" xlink:title="LayoutParser::StartElement\lHandlerNavEntry">
<polygon fill="white" stroke="black" points="173,-49.5 173,-79.5 310,-79.5 310,-49.5 173,-49.5"/>
<text text-anchor="start" x="181" y="-67.5" font-family="Helvetica,sans-Serif" font-size="10.00">LayoutParser::StartElement</text>
<text text-anchor="middle" x="241.5" y="-56.5" font-family="Helvetica,sans-Serif" font-size="10.00">HandlerNavEntry</text>
</a>
</g>
</g>
<!-- Node0&#45;&gt;Node3 -->
<g id="edge3" class="edge"><title>Node0&#45;&gt;Node3</title>
<path fill="none" stroke="midnightblue" d="M147.1,-77.6088C155.692,-76.4029 164.391,-75.1819 172.847,-73.9951"/>
<polygon fill="midnightblue" stroke="midnightblue" points="146.5,-74.1586 137.084,-79.0146 147.473,-81.0906 146.5,-74.1586"/>
</g>
<!-- Node4 -->
<g id="node5" class="node"><title>Node4</title>
<g id="a_node5"><a xlink:href="../../d3/d67/class_layout_parser_1_1_start_element_handler_section.html" target="_top" xlink:title="LayoutParser::StartElement\lHandlerSection">
<polygon fill="white" stroke="black" points="173,-0.5 173,-30.5 310,-30.5 310,-0.5 173,-0.5"/>
<text text-anchor="start" x="181" y="-18.5" font-family="Helvetica,sans-Serif" font-size="10.00">LayoutParser::StartElement</text>
<text text-anchor="middle" x="241.5" y="-7.5" font-family="Helvetica,sans-Serif" font-size="10.00">HandlerSection</text>
</a>
</g>
</g>
<!-- Node0&#45;&gt;Node4 -->
<g id="edge4" class="edge"><title>Node0&#45;&gt;Node4</title>
<path fill="none" stroke="midnightblue" d="M109.727,-68.9378C128.754,-59.9194 151.882,-49.2913 173,-40.5 181.076,-37.1381 189.782,-33.7455 198.17,-30.5904"/>
<polygon fill="midnightblue" stroke="midnightblue" points="107.984,-65.8912 100.464,-73.3543 110.997,-72.2098 107.984,-65.8912"/>
</g>
</g>
</svg>
