<?xml version="1.0" encoding="UTF-8" standalone="no"?>
<!DOCTYPE svg PUBLIC "-//W3C//DTD SVG 1.1//EN"
 "http://www.w3.org/Graphics/SVG/1.1/DTD/svg11.dtd">
<!-- Generated by graphviz version 2.38.0 (20140413.2041)
 -->
<!-- Title: vhdl::parser::VhdlParserTokenManager Pages: 1 -->
<svg width="946pt" height="359pt"
 viewBox="0.00 0.00 946.00 359.00" xmlns="http://www.w3.org/2000/svg" xmlns:xlink="http://www.w3.org/1999/xlink">
<g id="graph0" class="graph" transform="scale(1 1) rotate(0) translate(4 355)">
<title>vhdl::parser::VhdlParserTokenManager</title>
<polygon fill="white" stroke="none" points="-4,4 -4,-355 942,-355 942,4 -4,4"/>
<!-- Node2 -->
<g id="node1" class="node"><title>Node2</title>
<polygon fill="#bfbfbf" stroke="black" points="816,-205 816,-235 938,-235 938,-205 816,-205"/>
<text text-anchor="start" x="824" y="-223" font-family="Helvetica,sans-Serif" font-size="10.00">vhdl::parser::VhdlParser</text>
<text text-anchor="middle" x="877" y="-212" font-family="Helvetica,sans-Serif" font-size="10.00">TokenManager</text>
</g>
<!-- Node3 -->
<g id="node2" class="node"><title>Node3</title>
<g id="a_node2"><a xlink:href="../../d3/d2c/classvhdl_1_1parser_1_1_token_manager.html" target="_top" xlink:title="An implementation for this interface is generated by JavaCCParser. ">
<polygon fill="white" stroke="black" points="330,-331.5 330,-350.5 468,-350.5 468,-331.5 330,-331.5"/>
<text text-anchor="middle" x="399" y="-338.5" font-family="Helvetica,sans-Serif" font-size="10.00">vhdl::parser::TokenManager</text>
</a>
</g>
</g>
<!-- Node3&#45;&gt;Node2 -->
<g id="edge1" class="edge"><title>Node3&#45;&gt;Node2</title>
<path fill="none" stroke="midnightblue" d="M478.212,-338.486C506.42,-336.52 538.353,-333.061 567,-327 669.752,-305.261 785.365,-259.063 841.59,-235.109"/>
<polygon fill="midnightblue" stroke="midnightblue" points="477.755,-335.009 468.001,-339.145 478.206,-341.994 477.755,-335.009"/>
</g>
<!-- Node5 -->
<g id="node4" class="node"><title>Node5</title>
<g id="a_node4"><a xlink:href="../../de/d32/classvhdl_1_1parser_1_1_vhdl_parser.html" target="_top" xlink:title="vhdl::parser::VhdlParser">
<polygon fill="white" stroke="black" points="593,-210.5 593,-229.5 715,-229.5 715,-210.5 593,-210.5"/>
<text text-anchor="middle" x="654" y="-217.5" font-family="Helvetica,sans-Serif" font-size="10.00">vhdl::parser::VhdlParser</text>
</a>
</g>
</g>
<!-- Node3&#45;&gt;Node5 -->
<g id="edge5" class="edge"><title>Node3&#45;&gt;Node5</title>
<path fill="none" stroke="#9a32cd" stroke-dasharray="5,2" d="M445.236,-328.697C452.853,-326.529 460.665,-324.246 468,-322 468.173,-321.947 566.841,-289.087 567,-289 597.759,-272.238 628.489,-244.181 643.513,-229.543"/>
<polygon fill="#9a32cd" stroke="#9a32cd" points="444.067,-325.389 435.39,-331.468 445.964,-332.128 444.067,-325.389"/>
<text text-anchor="middle" x="526.5" y="-319" font-family="Helvetica,sans-Serif" font-size="10.00"> token_source</text>
</g>
<!-- Node4 -->
<g id="node3" class="node"><title>Node4</title>
<g id="a_node3"><a xlink:href="../../d9/d04/classvhdl_1_1parser_1_1_token_manager_error_handler.html" target="_top" xlink:title="vhdl::parser::TokenManager\lErrorHandler">
<polygon fill="white" stroke="black" points="585,-161 585,-191 723,-191 723,-161 585,-161"/>
<text text-anchor="start" x="593" y="-179" font-family="Helvetica,sans-Serif" font-size="10.00">vhdl::parser::TokenManager</text>
<text text-anchor="middle" x="654" y="-168" font-family="Helvetica,sans-Serif" font-size="10.00">ErrorHandler</text>
</a>
</g>
</g>
<!-- Node4&#45;&gt;Node2 -->
<g id="edge2" class="edge"><title>Node4&#45;&gt;Node2</title>
<path fill="none" stroke="#9a32cd" stroke-dasharray="5,2" d="M733.007,-191.531C760.262,-196.957 790.413,-202.96 815.973,-208.049"/>
<polygon fill="#9a32cd" stroke="#9a32cd" points="733.602,-188.081 723.111,-189.56 732.235,-194.946 733.602,-188.081"/>
<text text-anchor="middle" x="769.5" y="-207" font-family="Helvetica,sans-Serif" font-size="10.00"> errorHandler</text>
</g>
<!-- Node5&#45;&gt;Node2 -->
<g id="edge3" class="edge"><title>Node5&#45;&gt;Node2</title>
<path fill="none" stroke="#9a32cd" stroke-dasharray="5,2" d="M725.219,-220C754.391,-220 787.904,-220 815.915,-220"/>
<polygon fill="#9a32cd" stroke="#9a32cd" points="725.097,-216.5 715.097,-220 725.097,-223.5 725.097,-216.5"/>
<text text-anchor="middle" x="769.5" y="-223" font-family="Helvetica,sans-Serif" font-size="10.00"> parser</text>
</g>
<!-- Node6 -->
<g id="node5" class="node"><title>Node6</title>
<g id="a_node5"><a xlink:href="../../df/d0f/classvhdl_1_1parser_1_1_error_handler.html" target="_top" xlink:title="vhdl::parser::ErrorHandler">
<polygon fill="white" stroke="black" points="335,-293.5 335,-312.5 463,-312.5 463,-293.5 335,-293.5"/>
<text text-anchor="middle" x="399" y="-300.5" font-family="Helvetica,sans-Serif" font-size="10.00">vhdl::parser::ErrorHandler</text>
</a>
</g>
</g>
<!-- Node6&#45;&gt;Node5 -->
<g id="edge4" class="edge"><title>Node6&#45;&gt;Node5</title>
<path fill="none" stroke="#9a32cd" stroke-dasharray="5,2" d="M438.697,-290.305C489.695,-273.574 578.265,-244.518 623.928,-229.538"/>
<polygon fill="#9a32cd" stroke="#9a32cd" points="437.433,-287.036 429.022,-293.479 439.615,-293.687 437.433,-287.036"/>
<text text-anchor="middle" x="526.5" y="-277" font-family="Helvetica,sans-Serif" font-size="10.00"> errorHandler</text>
</g>
<!-- Node7 -->
<g id="node6" class="node"><title>Node7</title>
<g id="a_node6"><a xlink:href="../../d8/da3/structvhdl_1_1parser_1_1_j_j_calls.html" target="_top" xlink:title="vhdl::parser::JJCalls">
<polygon fill="white" stroke="black" points="345.5,-135.5 345.5,-154.5 452.5,-154.5 452.5,-135.5 345.5,-135.5"/>
<text text-anchor="middle" x="399" y="-142.5" font-family="Helvetica,sans-Serif" font-size="10.00">vhdl::parser::JJCalls</text>
</a>
</g>
</g>
<!-- Node7&#45;&gt;Node5 -->
<g id="edge6" class="edge"><title>Node7&#45;&gt;Node5</title>
<path fill="none" stroke="#9a32cd" stroke-dasharray="5,2" d="M442.129,-157.563C479.619,-168.733 535.951,-185.496 585,-200 596.564,-203.42 609.24,-207.152 620.481,-210.457"/>
<polygon fill="#9a32cd" stroke="#9a32cd" points="442.659,-154.069 432.076,-154.567 440.66,-160.777 442.659,-154.069"/>
<text text-anchor="middle" x="526.5" y="-198" font-family="Helvetica,sans-Serif" font-size="10.00"> jj_2_rtns</text>
</g>
<!-- Node7&#45;&gt;Node7 -->
<g id="edge7" class="edge"><title>Node7&#45;&gt;Node7</title>
<path fill="none" stroke="#9a32cd" stroke-dasharray="5,2" d="M377.89,-164.4C379.3,-169.315 386.336,-173 399,-173 419.262,-173 425.119,-163.565 416.571,-154.757"/>
<polygon fill="#9a32cd" stroke="#9a32cd" points="381.269,-165.351 381.429,-154.757 374.698,-162.939 381.269,-165.351"/>
<text text-anchor="middle" x="399" y="-176" font-family="Helvetica,sans-Serif" font-size="10.00"> next</text>
</g>
<!-- Node8 -->
<g id="node7" class="node"><title>Node8</title>
<g id="a_node7"><a xlink:href="../../dc/de7/classvhdl_1_1parser_1_1_token.html" target="_top" xlink:title="Describes the input token stream. ">
<polygon fill="white" stroke="black" points="137,-159.5 137,-178.5 238,-178.5 238,-159.5 137,-159.5"/>
<text text-anchor="middle" x="187.5" y="-166.5" font-family="Helvetica,sans-Serif" font-size="10.00">vhdl::parser::Token</text>
</a>
</g>
</g>
<!-- Node8&#45;&gt;Node5 -->
<g id="edge12" class="edge"><title>Node8&#45;&gt;Node5</title>
<path fill="none" stroke="#9a32cd" stroke-dasharray="5,2" d="M248.245,-180.286C273.411,-184.74 303.059,-189.595 330,-193 421.279,-204.535 527.715,-212.349 592.715,-216.49"/>
<polygon fill="#9a32cd" stroke="#9a32cd" points="248.577,-176.79 238.116,-178.473 247.343,-183.68 248.577,-176.79"/>
<text text-anchor="middle" x="399" y="-255" font-family="Helvetica,sans-Serif" font-size="10.00"> head</text>
<text text-anchor="middle" x="399" y="-244" font-family="Helvetica,sans-Serif" font-size="10.00">token</text>
<text text-anchor="middle" x="399" y="-233" font-family="Helvetica,sans-Serif" font-size="10.00">jj_lastpos</text>
<text text-anchor="middle" x="399" y="-222" font-family="Helvetica,sans-Serif" font-size="10.00">jj_scanpos</text>
<text text-anchor="middle" x="399" y="-211" font-family="Helvetica,sans-Serif" font-size="10.00">jj_nt</text>
</g>
<!-- Node8&#45;&gt;Node7 -->
<g id="edge8" class="edge"><title>Node8&#45;&gt;Node7</title>
<path fill="none" stroke="#9a32cd" stroke-dasharray="5,2" d="M248.275,-162.152C278.909,-158.643 315.877,-154.408 345.415,-151.024"/>
<polygon fill="#9a32cd" stroke="#9a32cd" points="247.685,-158.697 238.149,-163.312 248.482,-165.651 247.685,-158.697"/>
<text text-anchor="middle" x="284" y="-165" font-family="Helvetica,sans-Serif" font-size="10.00"> first</text>
</g>
<!-- Node8&#45;&gt;Node8 -->
<g id="edge9" class="edge"><title>Node8&#45;&gt;Node8</title>
<path fill="none" stroke="#9a32cd" stroke-dasharray="5,2" d="M174.977,-188.766C175.961,-193.497 180.135,-197 187.5,-197 199.586,-197 203.08,-187.565 197.981,-178.757"/>
<polygon fill="#9a32cd" stroke="#9a32cd" points="178.45,-189.255 177.019,-178.757 171.591,-187.856 178.45,-189.255"/>
<text text-anchor="middle" x="187.5" y="-211" font-family="Helvetica,sans-Serif" font-size="10.00"> next</text>
<text text-anchor="middle" x="187.5" y="-200" font-family="Helvetica,sans-Serif" font-size="10.00">specialToken</text>
</g>
<!-- Node9 -->
<g id="node8" class="node"><title>Node9</title>
<g id="a_node8"><a xlink:href="../../d2/d98/classvhdl_1_1parser_1_1_char_stream.html" target="_top" xlink:title="This class describes a character stream that maintains line and column number positions of the charac...">
<polygon fill="white" stroke="black" points="336,-97.5 336,-116.5 462,-116.5 462,-97.5 336,-97.5"/>
<text text-anchor="middle" x="399" y="-104.5" font-family="Helvetica,sans-Serif" font-size="10.00">vhdl::parser::CharStream</text>
</a>
</g>
</g>
<!-- Node9&#45;&gt;Node5 -->
<g id="edge10" class="edge"><title>Node9&#45;&gt;Node5</title>
<path fill="none" stroke="#9a32cd" stroke-dasharray="5,2" d="M444.687,-119.273C452.471,-121.472 460.48,-123.773 468,-126 512.208,-139.094 532.918,-125.948 567,-157 582.315,-170.953 569.564,-186.181 585,-200 589.859,-204.35 595.621,-207.757 601.703,-210.423"/>
<polygon fill="#9a32cd" stroke="#9a32cd" points="445.576,-115.887 435.003,-116.556 443.686,-122.627 445.576,-115.887"/>
<text text-anchor="middle" x="526.5" y="-160" font-family="Helvetica,sans-Serif" font-size="10.00"> jj_input_stream</text>
</g>
<!-- Node10 -->
<g id="node9" class="node"><title>Node10</title>
<g id="a_node9"><a xlink:href="../../d4/d89/class_reader_stream.html" target="_top" xlink:title="ReaderStream">
<polygon fill="white" stroke="black" points="147.5,-97.5 147.5,-116.5 227.5,-116.5 227.5,-97.5 147.5,-97.5"/>
<text text-anchor="middle" x="187.5" y="-104.5" font-family="Helvetica,sans-Serif" font-size="10.00">ReaderStream</text>
</a>
</g>
</g>
<!-- Node10&#45;&gt;Node9 -->
<g id="edge11" class="edge"><title>Node10&#45;&gt;Node9</title>
<path fill="none" stroke="#9a32cd" stroke-dasharray="5,2" d="M238.273,-107C267.46,-107 304.594,-107 335.71,-107"/>
<polygon fill="#9a32cd" stroke="#9a32cd" points="237.905,-103.5 227.905,-107 237.905,-110.5 237.905,-103.5"/>
<text text-anchor="middle" x="284" y="-110" font-family="Helvetica,sans-Serif" font-size="10.00"> inputStream</text>
</g>
<!-- Node11 -->
<g id="node10" class="node"><title>Node11</title>
<g id="a_node10"><a xlink:href="../../d4/dd7/class_entry.html" target="_top" xlink:title="Represents an unstructured piece of information, about an entity found in the sources. ">
<polygon fill="white" stroke="black" points="379,-30.5 379,-49.5 419,-49.5 419,-30.5 379,-30.5"/>
<text text-anchor="middle" x="399" y="-37.5" font-family="Helvetica,sans-Serif" font-size="10.00">Entry</text>
</a>
</g>
</g>
<!-- Node11&#45;&gt;Node5 -->
<g id="edge13" class="edge"><title>Node11&#45;&gt;Node5</title>
<path fill="none" stroke="#9a32cd" stroke-dasharray="5,2" d="M429.443,-34.0218C466.894,-28.3028 531.014,-25.1464 567,-61 611.129,-104.967 544.548,-152.628 585,-200 588.676,-204.305 593.226,-207.708 598.218,-210.395"/>
<polygon fill="#9a32cd" stroke="#9a32cd" points="428.462,-30.6379 419.185,-35.7552 429.628,-37.54 428.462,-30.6379"/>
<text text-anchor="middle" x="526.5" y="-119" font-family="Helvetica,sans-Serif" font-size="10.00"> currentCompound</text>
<text text-anchor="middle" x="526.5" y="-108" font-family="Helvetica,sans-Serif" font-size="10.00">lastEntity</text>
<text text-anchor="middle" x="526.5" y="-97" font-family="Helvetica,sans-Serif" font-size="10.00">lastCompound</text>
<text text-anchor="middle" x="526.5" y="-86" font-family="Helvetica,sans-Serif" font-size="10.00">current</text>
<text text-anchor="middle" x="526.5" y="-75" font-family="Helvetica,sans-Serif" font-size="10.00">tempEntry</text>
<text text-anchor="middle" x="526.5" y="-64" font-family="Helvetica,sans-Serif" font-size="10.00">current_root</text>
</g>
<!-- Node11&#45;&gt;Node11 -->
<g id="edge17" class="edge"><title>Node11&#45;&gt;Node11</title>
<path fill="none" stroke="#9a32cd" stroke-dasharray="5,2" d="M377.89,-59.4C379.3,-64.3146 386.336,-68 399,-68 419.262,-68 425.119,-58.5653 416.571,-49.7571"/>
<polygon fill="#9a32cd" stroke="#9a32cd" points="381.269,-60.3507 381.429,-49.7571 374.698,-57.9387 381.269,-60.3507"/>
<text text-anchor="middle" x="399" y="-71" font-family="Helvetica,sans-Serif" font-size="10.00"> m_parent</text>
</g>
<!-- Node12 -->
<g id="node11" class="node"><title>Node12</title>
<g id="a_node11"><a xlink:href="../../d3/dc3/struct_tag_info.html" target="_top" xlink:title="This struct is used to capture the tag file information for an Entry. ">
<polygon fill="white" stroke="black" points="162.5,-45.5 162.5,-64.5 212.5,-64.5 212.5,-45.5 162.5,-45.5"/>
<text text-anchor="middle" x="187.5" y="-52.5" font-family="Helvetica,sans-Serif" font-size="10.00">TagInfo</text>
</a>
</g>
</g>
<!-- Node12&#45;&gt;Node11 -->
<g id="edge14" class="edge"><title>Node12&#45;&gt;Node11</title>
<path fill="none" stroke="#9a32cd" stroke-dasharray="5,2" d="M222.578,-52.56C267.06,-49.3752 343.402,-43.9092 378.862,-41.3703"/>
<polygon fill="#9a32cd" stroke="#9a32cd" points="222.257,-49.074 212.532,-53.2793 222.757,-56.0561 222.257,-49.074"/>
<text text-anchor="middle" x="284" y="-54" font-family="Helvetica,sans-Serif" font-size="10.00"> tagInfo</text>
</g>
<!-- Node13 -->
<g id="node12" class="node"><title>Node13</title>
<g id="a_node12"><a xlink:href="../../d7/df8/class_argument_list.html" target="_top" xlink:title="This class represents an function or template argument list. ">
<polygon fill="white" stroke="black" points="150.5,-0.5 150.5,-19.5 224.5,-19.5 224.5,-0.5 150.5,-0.5"/>
<text text-anchor="middle" x="187.5" y="-7.5" font-family="Helvetica,sans-Serif" font-size="10.00">ArgumentList</text>
</a>
</g>
</g>
<!-- Node13&#45;&gt;Node11 -->
<g id="edge15" class="edge"><title>Node13&#45;&gt;Node11</title>
<path fill="none" stroke="#9a32cd" stroke-dasharray="5,2" d="M234.862,-12.7117C258.104,-14.4304 286.633,-17.0848 312,-21 335.121,-24.5686 361.324,-30.6583 378.666,-34.9809"/>
<polygon fill="#9a32cd" stroke="#9a32cd" points="234.807,-9.19918 224.585,-11.9867 234.314,-16.1818 234.807,-9.19918"/>
<text text-anchor="middle" x="284" y="-35" font-family="Helvetica,sans-Serif" font-size="10.00"> argList</text>
<text text-anchor="middle" x="284" y="-24" font-family="Helvetica,sans-Serif" font-size="10.00">typeConstr</text>
</g>
<!-- Node14 -->
<g id="node13" class="node"><title>Node14</title>
<polygon fill="white" stroke="#bfbfbf" points="0,-0.5 0,-19.5 100,-19.5 100,-0.5 0,-0.5"/>
<text text-anchor="middle" x="50" y="-7.5" font-family="Helvetica,sans-Serif" font-size="10.00">QList&lt; Argument &gt;</text>
</g>
<!-- Node14&#45;&gt;Node13 -->
<g id="edge16" class="edge"><title>Node14&#45;&gt;Node13</title>
<path fill="none" stroke="midnightblue" d="M110.513,-10C124.027,-10 137.985,-10 150.193,-10"/>
<polygon fill="midnightblue" stroke="midnightblue" points="110.302,-6.5001 100.302,-10 110.302,-13.5001 110.302,-6.5001"/>
</g>
</g>
</svg>
