<?xml version="1.0" encoding="UTF-8" standalone="no"?>
<!DOCTYPE svg PUBLIC "-//W3C//DTD SVG 1.1//EN"
 "http://www.w3.org/Graphics/SVG/1.1/DTD/svg11.dtd">
<!-- Generated by graphviz version 2.38.0 (20140413.2041)
 -->
<!-- Title: ScopedPtr&lt; T &gt; Pages: 1 -->
<svg width="430pt" height="270pt"
 viewBox="0.00 0.00 430.00 270.00" xmlns="http://www.w3.org/2000/svg" xmlns:xlink="http://www.w3.org/1999/xlink">
<g id="graph0" class="graph" transform="scale(1 1) rotate(0) translate(4 266)">
<title>ScopedPtr&lt; T &gt;</title>
<polygon fill="white" stroke="none" points="-4,4 -4,-266 426,-266 426,4 -4,4"/>
<!-- Node0 -->
<g id="node1" class="node"><title>Node0</title>
<polygon fill="#bfbfbf" stroke="black" points="0,-114.5 0,-133.5 86,-133.5 86,-114.5 0,-114.5"/>
<text text-anchor="middle" x="43" y="-121.5" font-family="Helvetica,sans-Serif" font-size="10.00">ScopedPtr&lt; T &gt;</text>
</g>
<!-- Node1 -->
<g id="node2" class="node"><title>Node1</title>
<g id="a_node2"><a xlink:href="../../dd/d9b/class_scoped_ptr.html" target="_top" xlink:title="ScopedPtr\&lt; DotCallGraph \&gt;">
<polygon fill="white" stroke="black" points="262.5,-240.5 262.5,-259.5 402.5,-259.5 402.5,-240.5 262.5,-240.5"/>
<text text-anchor="middle" x="332.5" y="-247.5" font-family="Helvetica,sans-Serif" font-size="10.00">ScopedPtr&lt; DotCallGraph &gt;</text>
</a>
</g>
</g>
<!-- Node0&#45;&gt;Node1 -->
<g id="edge1" class="edge"><title>Node0&#45;&gt;Node1</title>
<path fill="none" stroke="orange" stroke-dasharray="5,2" d="M50.9045,-143.167C59.7127,-164.654 77.1077,-198.739 104,-216 150.967,-246.146 214.452,-253.511 262.424,-253.983"/>
<polygon fill="orange" stroke="orange" points="54.1379,-141.824 47.2663,-133.76 47.6092,-144.349 54.1379,-141.824"/>
<text text-anchor="middle" x="164.5" y="-254" font-family="Helvetica,sans-Serif" font-size="10.00"> &lt; DotCallGraph &gt;</text>
</g>
<!-- Node2 -->
<g id="node3" class="node"><title>Node2</title>
<g id="a_node3"><a xlink:href="../../dd/d9b/class_scoped_ptr.html" target="_top" xlink:title="ScopedPtr\&lt; DotGfxHierarchy\lTable \&gt;">
<polygon fill="white" stroke="black" points="260,-191 260,-221 405,-221 405,-191 260,-191"/>
<text text-anchor="start" x="268" y="-209" font-family="Helvetica,sans-Serif" font-size="10.00">ScopedPtr&lt; DotGfxHierarchy</text>
<text text-anchor="middle" x="332.5" y="-198" font-family="Helvetica,sans-Serif" font-size="10.00">Table &gt;</text>
</a>
</g>
</g>
<!-- Node0&#45;&gt;Node2 -->
<g id="edge2" class="edge"><title>Node0&#45;&gt;Node2</title>
<path fill="none" stroke="orange" stroke-dasharray="5,2" d="M60.987,-140.752C72.2551,-150.861 87.8888,-163.083 104,-170 153.422,-191.217 213.71,-200.077 259.805,-203.708"/>
<polygon fill="orange" stroke="orange" points="63.3096,-138.132 53.6093,-133.872 58.5353,-143.252 63.3096,-138.132"/>
<text text-anchor="middle" x="164.5" y="-204" font-family="Helvetica,sans-Serif" font-size="10.00"> &lt; DotGfxHierarchyTable &gt;</text>
</g>
<!-- Node3 -->
<g id="node4" class="node"><title>Node3</title>
<g id="a_node4"><a xlink:href="../../dd/d9b/class_scoped_ptr.html" target="_top" xlink:title="ScopedPtr\&lt; DotClassGraph \&gt;">
<polygon fill="white" stroke="black" points="258.5,-152.5 258.5,-171.5 406.5,-171.5 406.5,-152.5 258.5,-152.5"/>
<text text-anchor="middle" x="332.5" y="-159.5" font-family="Helvetica,sans-Serif" font-size="10.00">ScopedPtr&lt; DotClassGraph &gt;</text>
</a>
</g>
</g>
<!-- Node0&#45;&gt;Node3 -->
<g id="edge3" class="edge"><title>Node0&#45;&gt;Node3</title>
<path fill="none" stroke="orange" stroke-dasharray="5,2" d="M88.3619,-135.85C93.6094,-137.026 98.9081,-138.111 104,-139 155.229,-147.945 213.601,-153.758 258.39,-157.302"/>
<polygon fill="orange" stroke="orange" points="88.9376,-132.39 78.4015,-133.504 87.3328,-139.203 88.9376,-132.39"/>
<text text-anchor="middle" x="164.5" y="-158" font-family="Helvetica,sans-Serif" font-size="10.00"> &lt; DotClassGraph &gt;</text>
</g>
<!-- Node4 -->
<g id="node5" class="node"><title>Node4</title>
<g id="a_node5"><a xlink:href="../../dd/d9b/class_scoped_ptr.html" target="_top" xlink:title="ScopedPtr\&lt; DotGroupCollaboration \&gt;">
<polygon fill="white" stroke="black" points="243,-114.5 243,-133.5 422,-133.5 422,-114.5 243,-114.5"/>
<text text-anchor="middle" x="332.5" y="-121.5" font-family="Helvetica,sans-Serif" font-size="10.00">ScopedPtr&lt; DotGroupCollaboration &gt;</text>
</a>
</g>
</g>
<!-- Node0&#45;&gt;Node4 -->
<g id="edge4" class="edge"><title>Node0&#45;&gt;Node4</title>
<path fill="none" stroke="orange" stroke-dasharray="5,2" d="M96.1246,-124C137.004,-124 194.835,-124 242.943,-124"/>
<polygon fill="orange" stroke="orange" points="96.1129,-120.5 86.1129,-124 96.1128,-127.5 96.1129,-120.5"/>
<text text-anchor="middle" x="164.5" y="-127" font-family="Helvetica,sans-Serif" font-size="10.00"> &lt; DotGroupCollaboration &gt;</text>
</g>
<!-- Node5 -->
<g id="node6" class="node"><title>Node5</title>
<g id="a_node6"><a xlink:href="../../dd/d9b/class_scoped_ptr.html" target="_top" xlink:title="ScopedPtr\&lt; TemplateVariant \&gt;">
<polygon fill="white" stroke="black" points="256.5,-76.5 256.5,-95.5 408.5,-95.5 408.5,-76.5 256.5,-76.5"/>
<text text-anchor="middle" x="332.5" y="-83.5" font-family="Helvetica,sans-Serif" font-size="10.00">ScopedPtr&lt; TemplateVariant &gt;</text>
</a>
</g>
</g>
<!-- Node0&#45;&gt;Node5 -->
<g id="edge5" class="edge"><title>Node0&#45;&gt;Node5</title>
<path fill="none" stroke="orange" stroke-dasharray="5,2" d="M88.3619,-112.15C93.6094,-110.974 98.9081,-109.889 104,-109 154.447,-100.191 211.82,-94.4201 256.329,-90.8616"/>
<polygon fill="orange" stroke="orange" points="87.3328,-108.797 78.4015,-114.496 88.9376,-115.61 87.3328,-108.797"/>
<text text-anchor="middle" x="164.5" y="-112" font-family="Helvetica,sans-Serif" font-size="10.00"> &lt; TemplateVariant &gt;</text>
</g>
<!-- Node6 -->
<g id="node7" class="node"><title>Node6</title>
<g id="a_node7"><a xlink:href="../../dd/d9b/class_scoped_ptr.html" target="_top" xlink:title="ScopedPtr\&lt; DotInclDepGraph \&gt;">
<polygon fill="white" stroke="black" points="254.5,-38.5 254.5,-57.5 410.5,-57.5 410.5,-38.5 254.5,-38.5"/>
<text text-anchor="middle" x="332.5" y="-45.5" font-family="Helvetica,sans-Serif" font-size="10.00">ScopedPtr&lt; DotInclDepGraph &gt;</text>
</a>
</g>
</g>
<!-- Node0&#45;&gt;Node6 -->
<g id="edge6" class="edge"><title>Node0&#45;&gt;Node6</title>
<path fill="none" stroke="orange" stroke-dasharray="5,2" d="M61.0012,-107.501C72.2749,-97.5681 87.9095,-85.604 104,-79 151.663,-59.4378 209.189,-51.7267 254.468,-48.8865"/>
<polygon fill="orange" stroke="orange" points="58.6251,-104.931 53.6188,-114.268 63.3553,-110.091 58.6251,-104.931"/>
<text text-anchor="middle" x="164.5" y="-82" font-family="Helvetica,sans-Serif" font-size="10.00"> &lt; DotInclDepGraph &gt;</text>
</g>
<!-- Node7 -->
<g id="node8" class="node"><title>Node7</title>
<g id="a_node8"><a xlink:href="../../dd/d9b/class_scoped_ptr.html" target="_top" xlink:title="ScopedPtr\&lt; DotDirDeps \&gt;">
<polygon fill="white" stroke="black" points="266.5,-0.5 266.5,-19.5 398.5,-19.5 398.5,-0.5 266.5,-0.5"/>
<text text-anchor="middle" x="332.5" y="-7.5" font-family="Helvetica,sans-Serif" font-size="10.00">ScopedPtr&lt; DotDirDeps &gt;</text>
</a>
</g>
</g>
<!-- Node0&#45;&gt;Node7 -->
<g id="edge7" class="edge"><title>Node0&#45;&gt;Node7</title>
<path fill="none" stroke="orange" stroke-dasharray="5,2" d="M51.3682,-105.119C60.4404,-84.6239 77.9232,-52.7231 104,-37 152.793,-7.5803 218.214,-2.63117 266.376,-3.97847"/>
<polygon fill="orange" stroke="orange" points="48.1174,-103.821 47.4894,-114.397 54.5757,-106.521 48.1174,-103.821"/>
<text text-anchor="middle" x="164.5" y="-40" font-family="Helvetica,sans-Serif" font-size="10.00"> &lt; DotDirDeps &gt;</text>
</g>
</g>
</svg>
