<?xml version="1.0" encoding="UTF-8" standalone="no"?>
<!DOCTYPE svg PUBLIC "-//W3C//DTD SVG 1.1//EN"
 "http://www.w3.org/Graphics/SVG/1.1/DTD/svg11.dtd">
<!-- Generated by graphviz version 2.38.0 (20140413.2041)
 -->
<!-- Title: src/perlmodgen.h Pages: 1 -->
<svg width="217pt" height="84pt"
 viewBox="0.00 0.00 216.50 84.00" xmlns="http://www.w3.org/2000/svg" xmlns:xlink="http://www.w3.org/1999/xlink">
<g id="graph0" class="graph" transform="scale(1 1) rotate(0) translate(4 80)">
<title>src/perlmodgen.h</title>
<polygon fill="white" stroke="none" points="-4,4 -4,-80 212.5,-80 212.5,4 -4,4"/>
<!-- Node1 -->
<g id="node1" class="node"><title>Node1</title>
<polygon fill="#bfbfbf" stroke="black" points="54.5,-56.5 54.5,-75.5 146.5,-75.5 146.5,-56.5 54.5,-56.5"/>
<text text-anchor="middle" x="100.5" y="-63.5" font-family="Helvetica,sans-Serif" font-size="10.00">src/perlmodgen.h</text>
</g>
<!-- Node2 -->
<g id="node2" class="node"><title>Node2</title>
<g id="a_node2"><a xlink:href="../../dc/d98/doxygen_8cpp.html" target="_top" xlink:title="src/doxygen.cpp">
<polygon fill="white" stroke="black" points="0,-0.5 0,-19.5 89,-19.5 89,-0.5 0,-0.5"/>
<text text-anchor="middle" x="44.5" y="-7.5" font-family="Helvetica,sans-Serif" font-size="10.00">src/doxygen.cpp</text>
</a>
</g>
</g>
<!-- Node1&#45;&gt;Node2 -->
<g id="edge1" class="edge"><title>Node1&#45;&gt;Node2</title>
<path fill="none" stroke="midnightblue" d="M84.1701,-49.2533C74.235,-39.6731 61.9125,-27.7906 53.6611,-19.8339"/>
<polygon fill="midnightblue" stroke="midnightblue" points="81.8747,-51.902 91.5026,-56.324 86.7336,-46.8631 81.8747,-51.902"/>
</g>
<!-- Node3 -->
<g id="node3" class="node"><title>Node3</title>
<g id="a_node3"><a xlink:href="../../de/dd0/perlmodgen_8cpp.html" target="_top" xlink:title="src/perlmodgen.cpp">
<polygon fill="white" stroke="black" points="106.5,-0.5 106.5,-19.5 208.5,-19.5 208.5,-0.5 106.5,-0.5"/>
<text text-anchor="middle" x="157.5" y="-7.5" font-family="Helvetica,sans-Serif" font-size="10.00">src/perlmodgen.cpp</text>
</a>
</g>
</g>
<!-- Node1&#45;&gt;Node3 -->
<g id="edge2" class="edge"><title>Node1&#45;&gt;Node3</title>
<path fill="none" stroke="midnightblue" d="M117.121,-49.2533C127.234,-39.6731 139.777,-27.7906 148.175,-19.8339"/>
<polygon fill="midnightblue" stroke="midnightblue" points="114.51,-46.9056 109.658,-56.324 119.325,-51.9873 114.51,-46.9056"/>
</g>
</g>
</svg>
