<?xml version="1.0" encoding="UTF-8" standalone="no"?>
<!DOCTYPE svg PUBLIC "-//W3C//DTD SVG 1.1//EN"
 "http://www.w3.org/Graphics/SVG/1.1/DTD/svg11.dtd">
<!-- Generated by graphviz version 2.38.0 (20140413.2041)
 -->
<!-- Title: LayoutParser Pages: 1 -->
<svg width="282pt" height="95pt"
 viewBox="0.00 0.00 282.00 95.00" xmlns="http://www.w3.org/2000/svg" xmlns:xlink="http://www.w3.org/1999/xlink">
<g id="graph0" class="graph" transform="scale(1 1) rotate(0) translate(4 91)">
<title>LayoutParser</title>
<polygon fill="white" stroke="none" points="-4,4 -4,-91 278,-91 278,4 -4,4"/>
<!-- Node2 -->
<g id="node1" class="node"><title>Node2</title>
<polygon fill="#bfbfbf" stroke="black" points="53.5,-0.5 53.5,-19.5 127.5,-19.5 127.5,-0.5 53.5,-0.5"/>
<text text-anchor="middle" x="90.5" y="-7.5" font-family="Helvetica,sans-Serif" font-size="10.00">LayoutParser</text>
</g>
<!-- Node3 -->
<g id="node2" class="node"><title>Node3</title>
<polygon fill="white" stroke="#bfbfbf" points="0,-67.5 0,-86.5 107,-86.5 107,-67.5 0,-67.5"/>
<text text-anchor="middle" x="53.5" y="-74.5" font-family="Helvetica,sans-Serif" font-size="10.00">QXmlDefaultHandler</text>
</g>
<!-- Node3&#45;&gt;Node2 -->
<g id="edge1" class="edge"><title>Node3&#45;&gt;Node2</title>
<path fill="none" stroke="midnightblue" d="M63.4418,-58.5347C70.6055,-45.9499 79.9651,-29.5072 85.5891,-19.6273"/>
<polygon fill="midnightblue" stroke="midnightblue" points="60.3953,-56.8117 58.49,-67.2338 66.4788,-60.2746 60.3953,-56.8117"/>
</g>
<!-- Node4 -->
<g id="node3" class="node"><title>Node4</title>
<g id="a_node3"><a xlink:href="../../df/de7/struct_layout_nav_entry.html" target="_top" xlink:title="Base class for the layout of a navigation item at the top of the HTML pages. ">
<polygon fill="white" stroke="black" points="125,-67.5 125,-86.5 212,-86.5 212,-67.5 125,-67.5"/>
<text text-anchor="middle" x="168.5" y="-74.5" font-family="Helvetica,sans-Serif" font-size="10.00">LayoutNavEntry</text>
</a>
</g>
</g>
<!-- Node4&#45;&gt;Node2 -->
<g id="edge2" class="edge"><title>Node4&#45;&gt;Node2</title>
<path fill="none" stroke="#9a32cd" stroke-dasharray="5,2" d="M150.156,-60.7134C134.788,-47.907 113.406,-30.0884 100.853,-19.6273"/>
<polygon fill="#9a32cd" stroke="#9a32cd" points="148.058,-63.5207 157.981,-67.2338 152.539,-58.1431 148.058,-63.5207"/>
<text text-anchor="middle" x="159.5" y="-41" font-family="Helvetica,sans-Serif" font-size="10.00"> m_rootNav</text>
</g>
<!-- Node4&#45;&gt;Node4 -->
<g id="edge3" class="edge"><title>Node4&#45;&gt;Node4</title>
<path fill="none" stroke="#9a32cd" stroke-dasharray="5,2" d="M222.32,-81.7144C227.043,-80.7199 230,-79.1484 230,-77 230,-73.5625 222.43,-71.6021 212.169,-71.1187"/>
<polygon fill="#9a32cd" stroke="#9a32cd" points="221.704,-78.2621 212.169,-82.8813 222.504,-85.2163 221.704,-78.2621"/>
<text text-anchor="middle" x="252" y="-74.5" font-family="Helvetica,sans-Serif" font-size="10.00"> m_parent</text>
</g>
</g>
</svg>
