<?xml version="1.0" encoding="UTF-8" standalone="no"?>
<!DOCTYPE svg PUBLIC "-//W3C//DTD SVG 1.1//EN"
 "http://www.w3.org/Graphics/SVG/1.1/DTD/svg11.dtd">
<!-- Generated by graphviz version 2.38.0 (20140413.2041)
 -->
<!-- Title: DocDotFile Pages: 1 -->
<svg width="288pt" height="152pt"
 viewBox="0.00 0.00 287.50 152.00" xmlns="http://www.w3.org/2000/svg" xmlns:xlink="http://www.w3.org/1999/xlink">
<g id="graph0" class="graph" transform="scale(1 1) rotate(0) translate(4 148)">
<title>DocDotFile</title>
<polygon fill="white" stroke="none" points="-4,4 -4,-148 283.5,-148 283.5,4 -4,4"/>
<!-- Node4 -->
<g id="node1" class="node"><title>Node4</title>
<polygon fill="#bfbfbf" stroke="black" points="95.5,-0.5 95.5,-19.5 161.5,-19.5 161.5,-0.5 95.5,-0.5"/>
<text text-anchor="middle" x="128.5" y="-7.5" font-family="Helvetica,sans-Serif" font-size="10.00">DocDotFile</text>
</g>
<!-- Node5 -->
<g id="node2" class="node"><title>Node5</title>
<g id="a_node2"><a xlink:href="../../d7/da3/class_comp_accept.html" target="_top" xlink:title="CompAccept\&lt; DocDotFile \&gt;">
<polygon fill="white" stroke="black" points="0,-57.5 0,-76.5 141,-76.5 141,-57.5 0,-57.5"/>
<text text-anchor="middle" x="70.5" y="-64.5" font-family="Helvetica,sans-Serif" font-size="10.00">CompAccept&lt; DocDotFile &gt;</text>
</a>
</g>
</g>
<!-- Node5&#45;&gt;Node4 -->
<g id="edge1" class="edge"><title>Node5&#45;&gt;Node4</title>
<path fill="none" stroke="midnightblue" d="M86.9339,-50.4162C97.4236,-40.469 110.633,-27.9431 119.31,-19.7149"/>
<polygon fill="midnightblue" stroke="midnightblue" points="84.4104,-47.9856 79.5625,-57.4062 89.2271,-53.065 84.4104,-47.9856"/>
</g>
<!-- Node6 -->
<g id="node3" class="node"><title>Node6</title>
<g id="a_node3"><a xlink:href="../../d7/da3/class_comp_accept.html" target="_top" xlink:title="Default accept implementation for compound nodes in the abstract syntax tree. ">
<polygon fill="white" stroke="black" points="21.5,-124.5 21.5,-143.5 119.5,-143.5 119.5,-124.5 21.5,-124.5"/>
<text text-anchor="middle" x="70.5" y="-131.5" font-family="Helvetica,sans-Serif" font-size="10.00">CompAccept&lt; T &gt;</text>
</a>
</g>
</g>
<!-- Node6&#45;&gt;Node5 -->
<g id="edge2" class="edge"><title>Node6&#45;&gt;Node5</title>
<path fill="none" stroke="orange" stroke-dasharray="5,2" d="M70.5,-114.037C70.5,-101.67 70.5,-86.1198 70.5,-76.6273"/>
<polygon fill="orange" stroke="orange" points="67.0001,-114.234 70.5,-124.234 74.0001,-114.234 67.0001,-114.234"/>
<text text-anchor="middle" x="106" y="-98" font-family="Helvetica,sans-Serif" font-size="10.00"> &lt; DocDotFile &gt;</text>
</g>
<!-- Node7 -->
<g id="node4" class="node"><title>Node7</title>
<g id="a_node4"><a xlink:href="../../d9/d0e/class_doc_node.html" target="_top" xlink:title="Abstract node interface with type information. ">
<polygon fill="white" stroke="black" points="159.5,-57.5 159.5,-76.5 217.5,-76.5 217.5,-57.5 159.5,-57.5"/>
<text text-anchor="middle" x="188.5" y="-64.5" font-family="Helvetica,sans-Serif" font-size="10.00">DocNode</text>
</a>
</g>
</g>
<!-- Node7&#45;&gt;Node4 -->
<g id="edge3" class="edge"><title>Node7&#45;&gt;Node4</title>
<path fill="none" stroke="midnightblue" d="M171.499,-50.4162C160.648,-40.469 146.983,-27.9431 138.007,-19.7149"/>
<polygon fill="midnightblue" stroke="midnightblue" points="169.388,-53.229 179.125,-57.4062 174.118,-48.0689 169.388,-53.229"/>
</g>
<!-- Node7&#45;&gt;Node7 -->
<g id="edge4" class="edge"><title>Node7&#45;&gt;Node7</title>
<path fill="none" stroke="#9a32cd" stroke-dasharray="5,2" d="M228.103,-71.4489C232.591,-70.6158 235.5,-69.1328 235.5,-67 235.5,-63.5 227.667,-61.75 217.875,-61.75"/>
<polygon fill="#9a32cd" stroke="#9a32cd" points="227.571,-67.9798 217.875,-72.25 228.118,-74.9584 227.571,-67.9798"/>
<text text-anchor="middle" x="257.5" y="-64.5" font-family="Helvetica,sans-Serif" font-size="10.00"> m_parent</text>
</g>
</g>
</svg>
