<?xml version="1.0" encoding="UTF-8" standalone="no"?>
<!DOCTYPE svg PUBLIC "-//W3C//DTD SVG 1.1//EN"
 "http://www.w3.org/Graphics/SVG/1.1/DTD/svg11.dtd">
<!-- Generated by graphviz version 2.38.0 (20140413.2041)
 -->
<!-- Title: InheritedMemberInfoListContext::Private Pages: 1 -->
<svg width="164pt" height="151pt"
 viewBox="0.00 0.00 164.00 151.00" xmlns="http://www.w3.org/2000/svg" xmlns:xlink="http://www.w3.org/1999/xlink">
<g id="graph0" class="graph" transform="scale(1 1) rotate(0) translate(4 147)">
<title>InheritedMemberInfoListContext::Private</title>
<polygon fill="white" stroke="none" points="-4,4 -4,-147 160,-147 160,4 -4,4"/>
<!-- Node3 -->
<g id="node1" class="node"><title>Node3</title>
<polygon fill="#bfbfbf" stroke="black" points="0,-0.5 0,-30.5 156,-30.5 156,-0.5 0,-0.5"/>
<text text-anchor="start" x="8" y="-18.5" font-family="Helvetica,sans-Serif" font-size="10.00">InheritedMemberInfoListContext</text>
<text text-anchor="middle" x="78" y="-7.5" font-family="Helvetica,sans-Serif" font-size="10.00">::Private</text>
</g>
<!-- Node4 -->
<g id="node2" class="node"><title>Node4</title>
<g id="a_node2"><a xlink:href="../../d6/dcb/class_generic_node_list_context.html" target="_top" xlink:title="standard template list implementation ">
<polygon fill="white" stroke="black" points="16,-67.5 16,-86.5 140,-86.5 140,-67.5 16,-67.5"/>
<text text-anchor="middle" x="78" y="-74.5" font-family="Helvetica,sans-Serif" font-size="10.00">GenericNodeListContext</text>
</a>
</g>
</g>
<!-- Node4&#45;&gt;Node3 -->
<g id="edge1" class="edge"><title>Node4&#45;&gt;Node3</title>
<path fill="none" stroke="midnightblue" d="M78,-57.2349C78,-48.5864 78,-38.4969 78,-30.523"/>
<polygon fill="midnightblue" stroke="midnightblue" points="74.5001,-57.4751 78,-67.4751 81.5001,-57.4751 74.5001,-57.4751"/>
</g>
<!-- Node5 -->
<g id="node3" class="node"><title>Node5</title>
<g id="a_node3"><a xlink:href="../../d6/d88/class_template_list_intf.html" target="_top" xlink:title="Abstract read&#45;only interface for a context value of type list. ">
<polygon fill="white" stroke="black" points="34.5,-123.5 34.5,-142.5 121.5,-142.5 121.5,-123.5 34.5,-123.5"/>
<text text-anchor="middle" x="78" y="-130.5" font-family="Helvetica,sans-Serif" font-size="10.00">TemplateListIntf</text>
</a>
</g>
</g>
<!-- Node5&#45;&gt;Node4 -->
<g id="edge2" class="edge"><title>Node5&#45;&gt;Node4</title>
<path fill="none" stroke="midnightblue" d="M78,-112.805C78,-103.91 78,-93.7798 78,-86.7511"/>
<polygon fill="midnightblue" stroke="midnightblue" points="74.5001,-113.083 78,-123.083 81.5001,-113.083 74.5001,-113.083"/>
</g>
</g>
</svg>
