<?xml version="1.0" encoding="UTF-8" standalone="no"?>
<!DOCTYPE svg PUBLIC "-//W3C//DTD SVG 1.1//EN"
 "http://www.w3.org/Graphics/SVG/1.1/DTD/svg11.dtd">
<!-- Generated by graphviz version 2.38.0 (20140413.2041)
 -->
<!-- Title: DocMscFile Pages: 1 -->
<svg width="290pt" height="152pt"
 viewBox="0.00 0.00 290.00 152.00" xmlns="http://www.w3.org/2000/svg" xmlns:xlink="http://www.w3.org/1999/xlink">
<g id="graph0" class="graph" transform="scale(1 1) rotate(0) translate(4 148)">
<title>DocMscFile</title>
<polygon fill="white" stroke="none" points="-4,4 -4,-148 286,-148 286,4 -4,4"/>
<!-- Node4 -->
<g id="node1" class="node"><title>Node4</title>
<polygon fill="#bfbfbf" stroke="black" points="96.5,-0.5 96.5,-19.5 165.5,-19.5 165.5,-0.5 96.5,-0.5"/>
<text text-anchor="middle" x="131" y="-7.5" font-family="Helvetica,sans-Serif" font-size="10.00">DocMscFile</text>
</g>
<!-- Node5 -->
<g id="node2" class="node"><title>Node5</title>
<g id="a_node2"><a xlink:href="../../d7/da3/class_comp_accept.html" target="_top" xlink:title="CompAccept\&lt; DocMscFile \&gt;">
<polygon fill="white" stroke="black" points="0,-57.5 0,-76.5 144,-76.5 144,-57.5 0,-57.5"/>
<text text-anchor="middle" x="72" y="-64.5" font-family="Helvetica,sans-Serif" font-size="10.00">CompAccept&lt; DocMscFile &gt;</text>
</a>
</g>
</g>
<!-- Node5&#45;&gt;Node4 -->
<g id="edge1" class="edge"><title>Node5&#45;&gt;Node4</title>
<path fill="none" stroke="midnightblue" d="M88.7172,-50.4162C99.3878,-40.469 112.825,-27.9431 121.651,-19.7149"/>
<polygon fill="midnightblue" stroke="midnightblue" points="86.1469,-48.0273 81.2188,-57.4062 90.92,-53.1476 86.1469,-48.0273"/>
</g>
<!-- Node6 -->
<g id="node3" class="node"><title>Node6</title>
<g id="a_node3"><a xlink:href="../../d7/da3/class_comp_accept.html" target="_top" xlink:title="Default accept implementation for compound nodes in the abstract syntax tree. ">
<polygon fill="white" stroke="black" points="23,-124.5 23,-143.5 121,-143.5 121,-124.5 23,-124.5"/>
<text text-anchor="middle" x="72" y="-131.5" font-family="Helvetica,sans-Serif" font-size="10.00">CompAccept&lt; T &gt;</text>
</a>
</g>
</g>
<!-- Node6&#45;&gt;Node5 -->
<g id="edge2" class="edge"><title>Node6&#45;&gt;Node5</title>
<path fill="none" stroke="orange" stroke-dasharray="5,2" d="M72,-114.037C72,-101.67 72,-86.1198 72,-76.6273"/>
<polygon fill="orange" stroke="orange" points="68.5001,-114.234 72,-124.234 75.5001,-114.234 68.5001,-114.234"/>
<text text-anchor="middle" x="109" y="-98" font-family="Helvetica,sans-Serif" font-size="10.00"> &lt; DocMscFile &gt;</text>
</g>
<!-- Node7 -->
<g id="node4" class="node"><title>Node7</title>
<g id="a_node4"><a xlink:href="../../d9/d0e/class_doc_node.html" target="_top" xlink:title="Abstract node interface with type information. ">
<polygon fill="white" stroke="black" points="162,-57.5 162,-76.5 220,-76.5 220,-57.5 162,-57.5"/>
<text text-anchor="middle" x="191" y="-64.5" font-family="Helvetica,sans-Serif" font-size="10.00">DocNode</text>
</a>
</g>
</g>
<!-- Node7&#45;&gt;Node4 -->
<g id="edge3" class="edge"><title>Node7&#45;&gt;Node4</title>
<path fill="none" stroke="midnightblue" d="M173.999,-50.4162C163.148,-40.469 149.483,-27.9431 140.507,-19.7149"/>
<polygon fill="midnightblue" stroke="midnightblue" points="171.888,-53.229 181.625,-57.4062 176.618,-48.0689 171.888,-53.229"/>
</g>
<!-- Node7&#45;&gt;Node7 -->
<g id="edge4" class="edge"><title>Node7&#45;&gt;Node7</title>
<path fill="none" stroke="#9a32cd" stroke-dasharray="5,2" d="M230.603,-71.4489C235.091,-70.6158 238,-69.1328 238,-67 238,-63.5 230.167,-61.75 220.375,-61.75"/>
<polygon fill="#9a32cd" stroke="#9a32cd" points="230.071,-67.9798 220.375,-72.25 230.618,-74.9584 230.071,-67.9798"/>
<text text-anchor="middle" x="260" y="-64.5" font-family="Helvetica,sans-Serif" font-size="10.00"> m_parent</text>
</g>
</g>
</svg>
