<?xml version="1.0" encoding="UTF-8" standalone="no"?>
<!DOCTYPE svg PUBLIC "-//W3C//DTD SVG 1.1//EN"
 "http://www.w3.org/Graphics/SVG/1.1/DTD/svg11.dtd">
<!-- Generated by graphviz version 2.38.0 (20140413.2041)
 -->
<!-- Title: Definition Pages: 1 -->
<svg width="1697pt" height="666pt"
 viewBox="0.00 0.00 1697.00 666.00" xmlns="http://www.w3.org/2000/svg" xmlns:xlink="http://www.w3.org/1999/xlink">
<g id="graph0" class="graph" transform="scale(1 1) rotate(0) translate(4 662)">
<title>Definition</title>
<polygon fill="white" stroke="none" points="-4,4 -4,-662 1693,-662 1693,4 -4,4"/>
<!-- Node9 -->
<g id="node1" class="node"><title>Node9</title>
<polygon fill="#bfbfbf" stroke="black" points="758,-38.5 758,-57.5 816,-57.5 816,-38.5 758,-38.5"/>
<text text-anchor="middle" x="787" y="-45.5" font-family="Helvetica,sans-Serif" font-size="10.00">Definition</text>
</g>
<!-- Node12 -->
<g id="node4" class="node"><title>Node12</title>
<g id="a_node4"><a xlink:href="../../d3/ddf/class_definition_impl.html" target="_top" xlink:title="Private data associated with a Symbol Definition object. ">
<polygon fill="white" stroke="black" points="1612,-172.5 1612,-191.5 1689,-191.5 1689,-172.5 1612,-172.5"/>
<text text-anchor="middle" x="1650.5" y="-179.5" font-family="Helvetica,sans-Serif" font-size="10.00">DefinitionImpl</text>
</a>
</g>
</g>
<!-- Node9&#45;&gt;Node12 -->
<g id="edge61" class="edge"><title>Node9&#45;&gt;Node12</title>
<path fill="none" stroke="#9a32cd" stroke-dasharray="5,2" d="M825.932,-36.5131C875.312,-22.5992 964.525,-1 1042.5,-1 1042.5,-1 1042.5,-1 1477,-1 1534.65,-1 1553.82,-15.6579 1594,-57 1627.43,-91.396 1642.66,-149.338 1647.6,-172.252"/>
<polygon fill="#9a32cd" stroke="#9a32cd" points="824.959,-33.1509 816.31,-39.2698 826.887,-39.8802 824.959,-33.1509"/>
<text text-anchor="middle" x="1275" y="-4" font-family="Helvetica,sans-Serif" font-size="10.00"> outerScope</text>
</g>
<!-- Node21 -->
<g id="node13" class="node"><title>Node21</title>
<g id="a_node13"><a xlink:href="../../de/db0/class_file_def.html" target="_top" xlink:title="A model of a file symbol. ">
<polygon fill="white" stroke="black" points="1251,-231.5 1251,-250.5 1299,-250.5 1299,-231.5 1251,-231.5"/>
<text text-anchor="middle" x="1275" y="-238.5" font-family="Helvetica,sans-Serif" font-size="10.00">FileDef</text>
</a>
</g>
</g>
<!-- Node9&#45;&gt;Node21 -->
<g id="edge14" class="edge"><title>Node9&#45;&gt;Node21</title>
<path fill="none" stroke="midnightblue" d="M826.154,-54.6087C928.205,-72.3609 1200.2,-120.203 1207,-127 1237.4,-157.373 1197.51,-188.969 1225,-222 1231.48,-229.785 1241.55,-234.391 1250.88,-237.111"/>
<polygon fill="midnightblue" stroke="midnightblue" points="826.71,-51.1529 816.258,-52.889 825.511,-58.0496 826.71,-51.1529"/>
</g>
<!-- Node35 -->
<g id="node27" class="node"><title>Node35</title>
<g id="a_node27"><a xlink:href="../../d4/dd4/class_dir_def.html" target="_top" xlink:title="A model of a directory symbol. ">
<polygon fill="white" stroke="black" points="1021,-169.5 1021,-188.5 1066,-188.5 1066,-169.5 1021,-169.5"/>
<text text-anchor="middle" x="1043.5" y="-176.5" font-family="Helvetica,sans-Serif" font-size="10.00">DirDef</text>
</a>
</g>
</g>
<!-- Node9&#45;&gt;Node35 -->
<g id="edge37" class="edge"><title>Node9&#45;&gt;Node35</title>
<path fill="none" stroke="midnightblue" d="M810.925,-63.0849C826.729,-72.9595 848.502,-85.5513 869,-94 912.86,-112.078 929.762,-100.403 972,-122 996.664,-134.612 1020.74,-156.824 1033.37,-169.475"/>
<polygon fill="midnightblue" stroke="midnightblue" points="812.68,-60.0531 802.364,-57.6368 808.921,-65.9586 812.68,-60.0531"/>
</g>
<!-- Node10 -->
<g id="node2" class="node"><title>Node10</title>
<g id="a_node2"><a xlink:href="../../d9/d4a/class_definition_intf.html" target="_top" xlink:title="Abstract interface for a Definition or DefinitionList. ">
<polygon fill="white" stroke="black" points="483,-38.5 483,-57.5 555,-57.5 555,-38.5 483,-38.5"/>
<text text-anchor="middle" x="519" y="-45.5" font-family="Helvetica,sans-Serif" font-size="10.00">DefinitionIntf</text>
</a>
</g>
</g>
<!-- Node10&#45;&gt;Node9 -->
<g id="edge1" class="edge"><title>Node10&#45;&gt;Node9</title>
<path fill="none" stroke="midnightblue" d="M565.231,-48C620.352,-48 711.807,-48 757.78,-48"/>
<polygon fill="midnightblue" stroke="midnightblue" points="565.048,-44.5001 555.048,-48 565.048,-51.5001 565.048,-44.5001"/>
</g>
<!-- Node11 -->
<g id="node3" class="node"><title>Node11</title>
<g id="a_node3"><a xlink:href="../../d1/d2f/struct_definition_1_1_cookie.html" target="_top" xlink:title="Definition::Cookie">
<polygon fill="white" stroke="black" points="471.5,-0.5 471.5,-19.5 566.5,-19.5 566.5,-0.5 471.5,-0.5"/>
<text text-anchor="middle" x="519" y="-7.5" font-family="Helvetica,sans-Serif" font-size="10.00">Definition::Cookie</text>
</a>
</g>
</g>
<!-- Node11&#45;&gt;Node9 -->
<g id="edge2" class="edge"><title>Node11&#45;&gt;Node9</title>
<path fill="none" stroke="#9a32cd" stroke-dasharray="5,2" d="M576.872,-16.1854C613.527,-20.3901 662.168,-26.3776 705,-33 722.667,-35.7316 742.393,-39.3719 757.955,-42.3822"/>
<polygon fill="#9a32cd" stroke="#9a32cd" points="577.198,-12.6999 566.867,-15.0476 576.407,-19.6551 577.198,-12.6999"/>
<text text-anchor="middle" x="653.5" y="-36" font-family="Helvetica,sans-Serif" font-size="10.00"> m_cookie</text>
</g>
<!-- Node12&#45;&gt;Node9 -->
<g id="edge3" class="edge"><title>Node12&#45;&gt;Node9</title>
<path fill="none" stroke="#9a32cd" stroke-dasharray="5,2" d="M1637.93,-163.618C1613.24,-126.906 1551.5,-48 1477,-48 1042.5,-48 1042.5,-48 1042.5,-48 960.318,-48 863.208,-48 816.245,-48"/>
<polygon fill="#9a32cd" stroke="#9a32cd" points="1635.25,-165.907 1643.65,-172.363 1641.11,-162.077 1635.25,-165.907"/>
<text text-anchor="middle" x="1275" y="-51" font-family="Helvetica,sans-Serif" font-size="10.00"> m_impl</text>
</g>
<!-- Node13 -->
<g id="node5" class="node"><title>Node13</title>
<g id="a_node5"><a xlink:href="../../de/d9a/class_section_dict.html" target="_top" xlink:title="Unsorted dictionary of SectionInfo objects. ">
<polygon fill="white" stroke="black" points="1127,-396.5 1127,-415.5 1195,-415.5 1195,-396.5 1127,-396.5"/>
<text text-anchor="middle" x="1161" y="-403.5" font-family="Helvetica,sans-Serif" font-size="10.00">SectionDict</text>
</a>
</g>
</g>
<!-- Node13&#45;&gt;Node12 -->
<g id="edge4" class="edge"><title>Node13&#45;&gt;Node12</title>
<path fill="none" stroke="#9a32cd" stroke-dasharray="5,2" d="M1205.04,-397.111C1286.56,-378.782 1466.7,-331.035 1594,-244 1615.23,-229.486 1633.77,-205.181 1643.09,-191.718"/>
<polygon fill="#9a32cd" stroke="#9a32cd" points="1204.14,-393.725 1195.13,-399.302 1205.65,-400.56 1204.14,-393.725"/>
<text text-anchor="middle" x="1381.5" y="-362" font-family="Helvetica,sans-Serif" font-size="10.00"> sectionDict</text>
</g>
<!-- Node14 -->
<g id="node6" class="node"><title>Node14</title>
<g id="a_node6"><a xlink:href="../../d1/d50/class_s_dict.html" target="_top" xlink:title="SDict\&lt; SectionInfo \&gt;">
<polygon fill="white" stroke="black" points="732.5,-447.5 732.5,-466.5 841.5,-466.5 841.5,-447.5 732.5,-447.5"/>
<text text-anchor="middle" x="787" y="-454.5" font-family="Helvetica,sans-Serif" font-size="10.00">SDict&lt; SectionInfo &gt;</text>
</a>
</g>
</g>
<!-- Node14&#45;&gt;Node13 -->
<g id="edge5" class="edge"><title>Node14&#45;&gt;Node13</title>
<path fill="none" stroke="midnightblue" d="M851.892,-464.765C857.67,-465.266 863.437,-465.692 869,-466 914.708,-468.532 926.767,-473.043 972,-466 980.061,-464.745 1080.23,-432.133 1130.96,-415.527"/>
<polygon fill="midnightblue" stroke="midnightblue" points="851.805,-461.242 841.522,-463.793 851.151,-468.211 851.805,-461.242"/>
</g>
<!-- Node15 -->
<g id="node7" class="node"><title>Node15</title>
<g id="a_node7"><a xlink:href="../../df/dce/class_s_list.html" target="_top" xlink:title="SList\&lt; SectionInfo \&gt;">
<polygon fill="white" stroke="black" points="990,-397.5 990,-416.5 1097,-416.5 1097,-397.5 990,-397.5"/>
<text text-anchor="middle" x="1043.5" y="-404.5" font-family="Helvetica,sans-Serif" font-size="10.00">SList&lt; SectionInfo &gt;</text>
</a>
</g>
</g>
<!-- Node14&#45;&gt;Node15 -->
<g id="edge8" class="edge"><title>Node14&#45;&gt;Node15</title>
<path fill="none" stroke="#9a32cd" stroke-dasharray="5,2" d="M814.713,-442.867C830.147,-435.368 850.179,-426.747 869,-422 908.723,-411.982 955.002,-408.366 989.769,-407.182"/>
<polygon fill="#9a32cd" stroke="#9a32cd" points="813.13,-439.745 805.749,-447.345 816.259,-446.007 813.13,-439.745"/>
<text text-anchor="middle" x="920.5" y="-425" font-family="Helvetica,sans-Serif" font-size="10.00"> m_owner</text>
</g>
<!-- Node15&#45;&gt;Node14 -->
<g id="edge6" class="edge"><title>Node15&#45;&gt;Node14</title>
<path fill="none" stroke="#9a32cd" stroke-dasharray="5,2" d="M1013.18,-420.617C1000.73,-425.88 985.9,-431.473 972,-435 928.967,-445.921 878.86,-451.461 841.812,-454.247"/>
<polygon fill="#9a32cd" stroke="#9a32cd" points="1014.83,-423.717 1022.6,-416.513 1012.03,-417.301 1014.83,-423.717"/>
<text text-anchor="middle" x="920.5" y="-454" font-family="Helvetica,sans-Serif" font-size="10.00"> m_list</text>
</g>
<!-- Node16 -->
<g id="node8" class="node"><title>Node16</title>
<polygon fill="white" stroke="#bfbfbf" points="733.5,-342.5 733.5,-361.5 840.5,-361.5 840.5,-342.5 733.5,-342.5"/>
<text text-anchor="middle" x="787" y="-349.5" font-family="Helvetica,sans-Serif" font-size="10.00">QList&lt; SectionInfo &gt;</text>
</g>
<!-- Node16&#45;&gt;Node15 -->
<g id="edge7" class="edge"><title>Node16&#45;&gt;Node15</title>
<path fill="none" stroke="midnightblue" d="M851.086,-355.771C887.023,-359.02 932.601,-365.012 972,-376 990.546,-381.172 1010.53,-390.334 1024.47,-397.361"/>
<polygon fill="midnightblue" stroke="midnightblue" points="851.002,-352.251 840.741,-354.886 850.406,-359.225 851.002,-352.251"/>
</g>
<!-- Node17 -->
<g id="node9" class="node"><title>Node17</title>
<g id="a_node9"><a xlink:href="../../df/dce/class_s_list.html" target="_top" xlink:title="internal wrapper class that redirects compareValues() to the dictionary ">
<polygon fill="white" stroke="black" points="230.5,-367.5 230.5,-386.5 293.5,-386.5 293.5,-367.5 230.5,-367.5"/>
<text text-anchor="middle" x="262" y="-374.5" font-family="Helvetica,sans-Serif" font-size="10.00">SList&lt; T &gt;</text>
</a>
</g>
</g>
<!-- Node17&#45;&gt;Node15 -->
<g id="edge9" class="edge"><title>Node17&#45;&gt;Node15</title>
<path fill="none" stroke="orange" stroke-dasharray="5,2" d="M303.903,-377.753C381.924,-379.27 557.388,-383.061 705,-389 805.843,-393.057 923.531,-399.788 989.907,-403.768"/>
<polygon fill="orange" stroke="orange" points="303.619,-374.247 293.554,-377.555 303.485,-381.246 303.619,-374.247"/>
<text text-anchor="middle" x="653.5" y="-392" font-family="Helvetica,sans-Serif" font-size="10.00"> &lt; SectionInfo &gt;</text>
</g>
<!-- Node24 -->
<g id="node16" class="node"><title>Node24</title>
<g id="a_node16"><a xlink:href="../../df/dce/class_s_list.html" target="_top" xlink:title="SList\&lt; ClassDef \&gt;">
<polygon fill="white" stroke="black" points="470,-516.5 470,-535.5 568,-535.5 568,-516.5 470,-516.5"/>
<text text-anchor="middle" x="519" y="-523.5" font-family="Helvetica,sans-Serif" font-size="10.00">SList&lt; ClassDef &gt;</text>
</a>
</g>
</g>
<!-- Node17&#45;&gt;Node24 -->
<g id="edge20" class="edge"><title>Node17&#45;&gt;Node24</title>
<path fill="none" stroke="orange" stroke-dasharray="5,2" d="M303.491,-389.831C340.363,-402.772 395.129,-425.234 436,-456 445.821,-463.393 445.071,-468.551 454,-477 469.958,-492.101 490.414,-507.109 503.849,-516.459"/>
<polygon fill="orange" stroke="orange" points="304.187,-386.37 293.592,-386.435 301.915,-392.991 304.187,-386.37"/>
<text text-anchor="middle" x="391" y="-459" font-family="Helvetica,sans-Serif" font-size="10.00"> &lt; ClassDef &gt;</text>
</g>
<!-- Node27 -->
<g id="node19" class="node"><title>Node27</title>
<g id="a_node19"><a xlink:href="../../df/dce/class_s_list.html" target="_top" xlink:title="SList\&lt; Definition \&gt;">
<polygon fill="white" stroke="black" points="470,-245.5 470,-264.5 568,-264.5 568,-245.5 470,-245.5"/>
<text text-anchor="middle" x="519" y="-252.5" font-family="Helvetica,sans-Serif" font-size="10.00">SList&lt; Definition &gt;</text>
</a>
</g>
</g>
<!-- Node17&#45;&gt;Node27 -->
<g id="edge26" class="edge"><title>Node17&#45;&gt;Node27</title>
<path fill="none" stroke="orange" stroke-dasharray="5,2" d="M287.185,-361.999C303.524,-352.119 325.73,-339.177 346,-329 397.276,-303.256 459.606,-277.835 493.375,-264.529"/>
<polygon fill="orange" stroke="orange" points="285.016,-359.222 278.302,-367.419 288.662,-365.198 285.016,-359.222"/>
<text text-anchor="middle" x="391" y="-332" font-family="Helvetica,sans-Serif" font-size="10.00"> &lt; Definition &gt;</text>
</g>
<!-- Node42 -->
<g id="node34" class="node"><title>Node42</title>
<g id="a_node34"><a xlink:href="../../df/dce/class_s_list.html" target="_top" xlink:title="SList\&lt; NamespaceDef \&gt;">
<polygon fill="white" stroke="black" points="456.5,-299.5 456.5,-318.5 581.5,-318.5 581.5,-299.5 456.5,-299.5"/>
<text text-anchor="middle" x="519" y="-306.5" font-family="Helvetica,sans-Serif" font-size="10.00">SList&lt; NamespaceDef &gt;</text>
</a>
</g>
</g>
<!-- Node17&#45;&gt;Node42 -->
<g id="edge48" class="edge"><title>Node17&#45;&gt;Node42</title>
<path fill="none" stroke="orange" stroke-dasharray="5,2" d="M303.687,-370.931C339.076,-365.141 391.517,-355.328 436,-342 457.315,-335.613 480.791,-325.875 497.142,-318.63"/>
<polygon fill="orange" stroke="orange" points="303.049,-367.488 293.729,-372.527 304.157,-374.4 303.049,-367.488"/>
<text text-anchor="middle" x="391" y="-366" font-family="Helvetica,sans-Serif" font-size="10.00"> &lt; NamespaceDef &gt;</text>
</g>
<!-- Node46 -->
<g id="node38" class="node"><title>Node46</title>
<g id="a_node38"><a xlink:href="../../df/dce/class_s_list.html" target="_top" xlink:title="SList\&lt; MemberDef \&gt;">
<polygon fill="white" stroke="black" points="465,-618.5 465,-637.5 573,-637.5 573,-618.5 465,-618.5"/>
<text text-anchor="middle" x="519" y="-625.5" font-family="Helvetica,sans-Serif" font-size="10.00">SList&lt; MemberDef &gt;</text>
</a>
</g>
</g>
<!-- Node17&#45;&gt;Node46 -->
<g id="edge55" class="edge"><title>Node17&#45;&gt;Node46</title>
<path fill="none" stroke="orange" stroke-dasharray="5,2" d="M278.23,-394.257C294.607,-412.636 321.588,-442.406 346,-467 405.07,-526.51 479.831,-593.952 507.274,-618.462"/>
<polygon fill="orange" stroke="orange" points="280.755,-391.829 271.499,-386.674 275.52,-396.476 280.755,-391.829"/>
<text text-anchor="middle" x="391" y="-554" font-family="Helvetica,sans-Serif" font-size="10.00"> &lt; MemberDef &gt;</text>
</g>
<!-- Node18 -->
<g id="node10" class="node"><title>Node18</title>
<polygon fill="white" stroke="#bfbfbf" points="6.5,-253.5 6.5,-272.5 70.5,-272.5 70.5,-253.5 6.5,-253.5"/>
<text text-anchor="middle" x="38.5" y="-260.5" font-family="Helvetica,sans-Serif" font-size="10.00">QList&lt; T &gt;</text>
</g>
<!-- Node18&#45;&gt;Node17 -->
<g id="edge10" class="edge"><title>Node18&#45;&gt;Node17</title>
<path fill="none" stroke="midnightblue" d="M67.0589,-277.184C112.839,-300.745 203.377,-347.343 242.393,-367.423"/>
<polygon fill="midnightblue" stroke="midnightblue" points="68.4972,-273.988 58.004,-272.523 65.2938,-280.212 68.4972,-273.988"/>
</g>
<!-- Node33 -->
<g id="node25" class="node"><title>Node33</title>
<g id="a_node25"><a xlink:href="../../d8/d9a/class_s_int_list.html" target="_top" xlink:title="internal wrapper class that redirects compareValues() to the dictionary ">
<polygon fill="white" stroke="black" points="225,-207.5 225,-226.5 299,-226.5 299,-207.5 225,-207.5"/>
<text text-anchor="middle" x="262" y="-214.5" font-family="Helvetica,sans-Serif" font-size="10.00">SIntList&lt; T &gt;</text>
</a>
</g>
</g>
<!-- Node18&#45;&gt;Node33 -->
<g id="edge34" class="edge"><title>Node18&#45;&gt;Node33</title>
<path fill="none" stroke="midnightblue" d="M80.7911,-254.425C122.171,-245.831 185.244,-232.733 224.745,-224.529"/>
<polygon fill="midnightblue" stroke="midnightblue" points="79.8451,-251.047 70.7658,-256.507 81.2685,-257.9 79.8451,-251.047"/>
</g>
<!-- Node19 -->
<g id="node11" class="node"><title>Node19</title>
<g id="a_node11"><a xlink:href="../../d1/d50/class_s_dict.html" target="_top" xlink:title="Ordered dictionary of elements of type T. ">
<polygon fill="white" stroke="black" points="486.5,-448.5 486.5,-467.5 551.5,-467.5 551.5,-448.5 486.5,-448.5"/>
<text text-anchor="middle" x="519" y="-455.5" font-family="Helvetica,sans-Serif" font-size="10.00">SDict&lt; T &gt;</text>
</a>
</g>
</g>
<!-- Node19&#45;&gt;Node14 -->
<g id="edge11" class="edge"><title>Node19&#45;&gt;Node14</title>
<path fill="none" stroke="orange" stroke-dasharray="5,2" d="M561.787,-457.843C607.859,-457.67 682.105,-457.391 732.421,-457.201"/>
<polygon fill="orange" stroke="orange" points="561.545,-454.344 551.558,-457.881 561.571,-461.344 561.545,-454.344"/>
<text text-anchor="middle" x="653.5" y="-460" font-family="Helvetica,sans-Serif" font-size="10.00"> &lt; SectionInfo &gt;</text>
</g>
<!-- Node23 -->
<g id="node15" class="node"><title>Node23</title>
<g id="a_node15"><a xlink:href="../../d1/d50/class_s_dict.html" target="_top" xlink:title="SDict\&lt; ClassDef \&gt;">
<polygon fill="white" stroke="black" points="736.5,-514.5 736.5,-533.5 837.5,-533.5 837.5,-514.5 736.5,-514.5"/>
<text text-anchor="middle" x="787" y="-521.5" font-family="Helvetica,sans-Serif" font-size="10.00">SDict&lt; ClassDef &gt;</text>
</a>
</g>
</g>
<!-- Node19&#45;&gt;Node23 -->
<g id="edge21" class="edge"><title>Node19&#45;&gt;Node23</title>
<path fill="none" stroke="orange" stroke-dasharray="5,2" d="M561.572,-468.315C612.522,-480.957 698.163,-502.206 747.614,-514.476"/>
<polygon fill="orange" stroke="orange" points="562.107,-464.842 551.558,-465.83 560.421,-471.635 562.107,-464.842"/>
<text text-anchor="middle" x="653.5" y="-505" font-family="Helvetica,sans-Serif" font-size="10.00"> &lt; ClassDef &gt;</text>
</g>
<!-- Node26 -->
<g id="node18" class="node"><title>Node26</title>
<g id="a_node18"><a xlink:href="../../d1/d50/class_s_dict.html" target="_top" xlink:title="SDict\&lt; Definition \&gt;">
<polygon fill="white" stroke="black" points="736.5,-244.5 736.5,-263.5 837.5,-263.5 837.5,-244.5 736.5,-244.5"/>
<text text-anchor="middle" x="787" y="-251.5" font-family="Helvetica,sans-Serif" font-size="10.00">SDict&lt; Definition &gt;</text>
</a>
</g>
</g>
<!-- Node19&#45;&gt;Node26 -->
<g id="edge27" class="edge"><title>Node19&#45;&gt;Node26</title>
<path fill="none" stroke="orange" stroke-dasharray="5,2" d="M530.212,-439.695C543.758,-417.05 569.759,-378.823 602,-357 641.697,-330.13 667.918,-355.378 705,-325 717.924,-314.413 711.446,-304.067 723,-292 734.661,-279.822 751.046,-270.099 764.184,-263.538"/>
<polygon fill="orange" stroke="orange" points="527.18,-437.947 525.187,-448.353 533.234,-441.461 527.18,-437.947"/>
<text text-anchor="middle" x="653.5" y="-360" font-family="Helvetica,sans-Serif" font-size="10.00"> &lt; Definition &gt;</text>
</g>
<!-- Node41 -->
<g id="node33" class="node"><title>Node41</title>
<g id="a_node33"><a xlink:href="../../d1/d50/class_s_dict.html" target="_top" xlink:title="SDict\&lt; NamespaceDef \&gt;">
<polygon fill="white" stroke="black" points="723,-301.5 723,-320.5 851,-320.5 851,-301.5 723,-301.5"/>
<text text-anchor="middle" x="787" y="-308.5" font-family="Helvetica,sans-Serif" font-size="10.00">SDict&lt; NamespaceDef &gt;</text>
</a>
</g>
</g>
<!-- Node19&#45;&gt;Node41 -->
<g id="edge49" class="edge"><title>Node19&#45;&gt;Node41</title>
<path fill="none" stroke="orange" stroke-dasharray="5,2" d="M561.588,-450.312C609.796,-440.586 685.181,-422.602 705,-402 726.972,-379.16 701.513,-356.297 723,-333 727.948,-327.635 734.277,-323.578 741.006,-320.51"/>
<polygon fill="orange" stroke="orange" points="560.874,-446.885 551.743,-452.259 562.232,-453.752 560.874,-446.885"/>
<text text-anchor="middle" x="653.5" y="-443" font-family="Helvetica,sans-Serif" font-size="10.00"> &lt; NamespaceDef &gt;</text>
</g>
<!-- Node45 -->
<g id="node37" class="node"><title>Node45</title>
<g id="a_node37"><a xlink:href="../../d1/d50/class_s_dict.html" target="_top" xlink:title="SDict\&lt; MemberDef \&gt;">
<polygon fill="white" stroke="black" points="732,-584.5 732,-603.5 842,-603.5 842,-584.5 732,-584.5"/>
<text text-anchor="middle" x="787" y="-591.5" font-family="Helvetica,sans-Serif" font-size="10.00">SDict&lt; MemberDef &gt;</text>
</a>
</g>
</g>
<!-- Node19&#45;&gt;Node45 -->
<g id="edge56" class="edge"><title>Node19&#45;&gt;Node45</title>
<path fill="none" stroke="orange" stroke-dasharray="5,2" d="M544.259,-473.192C557.084,-482.011 572.507,-493.941 584,-507 594.526,-518.96 589.06,-528.705 602,-538 639.944,-565.257 660.43,-544.993 705,-559 726.776,-565.843 750.643,-576.577 766.79,-584.355"/>
<polygon fill="orange" stroke="orange" points="546.138,-470.238 535.875,-467.608 542.258,-476.064 546.138,-470.238"/>
<text text-anchor="middle" x="653.5" y="-562" font-family="Helvetica,sans-Serif" font-size="10.00"> &lt; MemberDef &gt;</text>
</g>
<!-- Node20 -->
<g id="node12" class="node"><title>Node20</title>
<g id="a_node12"><a xlink:href="../../db/dab/struct_body_info.html" target="_top" xlink:title="Data associated with description found in the body. ">
<polygon fill="white" stroke="black" points="1448,-231.5 1448,-250.5 1504,-250.5 1504,-231.5 1448,-231.5"/>
<text text-anchor="middle" x="1476" y="-238.5" font-family="Helvetica,sans-Serif" font-size="10.00">BodyInfo</text>
</a>
</g>
</g>
<!-- Node20&#45;&gt;Node12 -->
<g id="edge12" class="edge"><title>Node20&#45;&gt;Node12</title>
<path fill="none" stroke="#9a32cd" stroke-dasharray="5,2" d="M1513.89,-233.827C1537.27,-228.727 1567.91,-221.009 1594,-211 1607.8,-205.705 1622.61,-197.851 1633.45,-191.652"/>
<polygon fill="#9a32cd" stroke="#9a32cd" points="1513.09,-230.42 1504.03,-235.919 1514.54,-237.268 1513.09,-230.42"/>
<text text-anchor="middle" x="1563" y="-232" font-family="Helvetica,sans-Serif" font-size="10.00"> body</text>
</g>
<!-- Node21&#45;&gt;Node20 -->
<g id="edge13" class="edge"><title>Node21&#45;&gt;Node20</title>
<path fill="none" stroke="#9a32cd" stroke-dasharray="5,2" d="M1309.5,-241C1348.4,-241 1411.82,-241 1447.81,-241"/>
<polygon fill="#9a32cd" stroke="#9a32cd" points="1309.22,-237.5 1299.22,-241 1309.22,-244.5 1309.22,-237.5"/>
<text text-anchor="middle" x="1381.5" y="-244" font-family="Helvetica,sans-Serif" font-size="10.00"> fileDef</text>
</g>
<!-- Node22 -->
<g id="node14" class="node"><title>Node22</title>
<g id="a_node14"><a xlink:href="../../d9/d3d/class_class_s_dict.html" target="_top" xlink:title="A sorted dictionary of ClassDef objects. ">
<polygon fill="white" stroke="black" points="1010,-512.5 1010,-531.5 1077,-531.5 1077,-512.5 1010,-512.5"/>
<text text-anchor="middle" x="1043.5" y="-519.5" font-family="Helvetica,sans-Serif" font-size="10.00">ClassSDict</text>
</a>
</g>
</g>
<!-- Node22&#45;&gt;Node21 -->
<g id="edge15" class="edge"><title>Node22&#45;&gt;Node21</title>
<path fill="none" stroke="#9a32cd" stroke-dasharray="5,2" d="M1082.01,-508.741C1118.9,-493.853 1174.31,-466.245 1207,-425 1251.56,-368.785 1268.18,-280.239 1272.65,-250.846"/>
<polygon fill="#9a32cd" stroke="#9a32cd" points="1080.63,-505.523 1072.59,-512.428 1083.18,-512.041 1080.63,-505.523"/>
<text text-anchor="middle" x="1161" y="-495" font-family="Helvetica,sans-Serif" font-size="10.00"> m_classSDict</text>
</g>
<!-- Node23&#45;&gt;Node22 -->
<g id="edge16" class="edge"><title>Node23&#45;&gt;Node22</title>
<path fill="none" stroke="midnightblue" d="M847.838,-523.53C898.47,-523.132 969.121,-522.577 1009.91,-522.256"/>
<polygon fill="midnightblue" stroke="midnightblue" points="847.646,-520.031 837.674,-523.61 847.702,-527.031 847.646,-520.031"/>
</g>
<!-- Node23&#45;&gt;Node24 -->
<g id="edge19" class="edge"><title>Node23&#45;&gt;Node24</title>
<path fill="none" stroke="#9a32cd" stroke-dasharray="5,2" d="M766.29,-539.804C750.688,-551.245 727.799,-565.752 705,-572 660.85,-584.099 646.29,-583.574 602,-572 574.994,-564.943 547.48,-546.789 532.185,-535.512"/>
<polygon fill="#9a32cd" stroke="#9a32cd" points="768.733,-542.344 774.578,-533.508 764.498,-536.77 768.733,-542.344"/>
<text text-anchor="middle" x="653.5" y="-583" font-family="Helvetica,sans-Serif" font-size="10.00"> m_owner</text>
</g>
<!-- Node24&#45;&gt;Node23 -->
<g id="edge17" class="edge"><title>Node24&#45;&gt;Node23</title>
<path fill="none" stroke="#9a32cd" stroke-dasharray="5,2" d="M578.267,-525.562C625.578,-525.206 691.567,-524.71 736.384,-524.373"/>
<polygon fill="#9a32cd" stroke="#9a32cd" points="578.144,-522.063 568.171,-525.638 578.197,-529.062 578.144,-522.063"/>
<text text-anchor="middle" x="653.5" y="-528" font-family="Helvetica,sans-Serif" font-size="10.00"> m_list</text>
</g>
<!-- Node25 -->
<g id="node17" class="node"><title>Node25</title>
<polygon fill="white" stroke="#bfbfbf" points="212.5,-516.5 212.5,-535.5 311.5,-535.5 311.5,-516.5 212.5,-516.5"/>
<text text-anchor="middle" x="262" y="-523.5" font-family="Helvetica,sans-Serif" font-size="10.00">QList&lt; ClassDef &gt;</text>
</g>
<!-- Node25&#45;&gt;Node24 -->
<g id="edge18" class="edge"><title>Node25&#45;&gt;Node24</title>
<path fill="none" stroke="midnightblue" d="M321.729,-526C366.559,-526 427.576,-526 469.617,-526"/>
<polygon fill="midnightblue" stroke="midnightblue" points="321.564,-522.5 311.564,-526 321.564,-529.5 321.564,-522.5"/>
</g>
<!-- Node26&#45;&gt;Node21 -->
<g id="edge22" class="edge"><title>Node26&#45;&gt;Node21</title>
<path fill="none" stroke="#9a32cd" stroke-dasharray="5,2" d="M847.811,-252.4C955.819,-249.511 1178.89,-243.544 1250.99,-241.616"/>
<polygon fill="#9a32cd" stroke="#9a32cd" points="847.629,-248.904 837.727,-252.67 847.817,-255.901 847.629,-248.904"/>
<text text-anchor="middle" x="1043.5" y="-251" font-family="Helvetica,sans-Serif" font-size="10.00"> m_usingDeclList</text>
</g>
<!-- Node26&#45;&gt;Node27 -->
<g id="edge25" class="edge"><title>Node26&#45;&gt;Node27</title>
<path fill="none" stroke="#9a32cd" stroke-dasharray="5,2" d="M732.376,-242.645C723.279,-241.129 713.899,-239.817 705,-239 659.414,-234.815 647.565,-234.596 602,-239 588.429,-240.312 573.768,-242.817 560.648,-245.463"/>
<polygon fill="#9a32cd" stroke="#9a32cd" points="732.029,-246.138 742.485,-244.429 733.245,-239.244 732.029,-246.138"/>
<text text-anchor="middle" x="653.5" y="-242" font-family="Helvetica,sans-Serif" font-size="10.00"> m_owner</text>
</g>
<!-- Node27&#45;&gt;Node26 -->
<g id="edge23" class="edge"><title>Node27&#45;&gt;Node26</title>
<path fill="none" stroke="#9a32cd" stroke-dasharray="5,2" d="M578.267,-254.781C625.578,-254.603 691.567,-254.355 736.384,-254.187"/>
<polygon fill="#9a32cd" stroke="#9a32cd" points="578.157,-251.281 568.171,-254.819 578.184,-258.281 578.157,-251.281"/>
<text text-anchor="middle" x="653.5" y="-257" font-family="Helvetica,sans-Serif" font-size="10.00"> m_list</text>
</g>
<!-- Node28 -->
<g id="node20" class="node"><title>Node28</title>
<polygon fill="white" stroke="#bfbfbf" points="212.5,-245.5 212.5,-264.5 311.5,-264.5 311.5,-245.5 212.5,-245.5"/>
<text text-anchor="middle" x="262" y="-252.5" font-family="Helvetica,sans-Serif" font-size="10.00">QList&lt; Definition &gt;</text>
</g>
<!-- Node28&#45;&gt;Node27 -->
<g id="edge24" class="edge"><title>Node28&#45;&gt;Node27</title>
<path fill="none" stroke="midnightblue" d="M321.729,-255C366.559,-255 427.576,-255 469.617,-255"/>
<polygon fill="midnightblue" stroke="midnightblue" points="321.564,-251.5 311.564,-255 321.564,-258.5 321.564,-251.5"/>
</g>
<!-- Node29 -->
<g id="node21" class="node"><title>Node29</title>
<g id="a_node21"><a xlink:href="../../dc/d1e/class_member_group_s_dict.html" target="_top" xlink:title="A sorted dictionary of MemberGroup objects. ">
<polygon fill="white" stroke="black" points="602,-102.5 602,-121.5 705,-121.5 705,-102.5 602,-102.5"/>
<text text-anchor="middle" x="653.5" y="-109.5" font-family="Helvetica,sans-Serif" font-size="10.00">MemberGroupSDict</text>
</a>
</g>
</g>
<!-- Node29&#45;&gt;Node21 -->
<g id="edge28" class="edge"><title>Node29&#45;&gt;Node21</title>
<path fill="none" stroke="#9a32cd" stroke-dasharray="5,2" d="M715.204,-114.739C801.034,-119.479 962.409,-131.587 1097,-160 1147.2,-170.597 1166.02,-164.139 1207,-195 1218.52,-203.675 1213.75,-212.972 1225,-222 1232.4,-227.94 1241.87,-232.189 1250.52,-235.141"/>
<polygon fill="#9a32cd" stroke="#9a32cd" points="715.292,-111.239 705.118,-114.197 714.916,-118.229 715.292,-111.239"/>
<text text-anchor="middle" x="920.5" y="-141" font-family="Helvetica,sans-Serif" font-size="10.00"> m_memberGroupSDict</text>
</g>
<!-- Node30 -->
<g id="node22" class="node"><title>Node30</title>
<g id="a_node22"><a xlink:href="../../d0/d9f/class_s_int_dict.html" target="_top" xlink:title="SIntDict\&lt; MemberGroup \&gt;">
<polygon fill="white" stroke="black" points="196,-109.5 196,-128.5 328,-128.5 328,-109.5 196,-109.5"/>
<text text-anchor="middle" x="262" y="-116.5" font-family="Helvetica,sans-Serif" font-size="10.00">SIntDict&lt; MemberGroup &gt;</text>
</a>
</g>
</g>
<!-- Node30&#45;&gt;Node29 -->
<g id="edge29" class="edge"><title>Node30&#45;&gt;Node29</title>
<path fill="none" stroke="midnightblue" d="M338.347,-111.695C403.408,-106.349 499.919,-100.715 584,-105 589.731,-105.292 595.72,-105.721 601.671,-106.224"/>
<polygon fill="midnightblue" stroke="midnightblue" points="337.853,-108.224 328.182,-112.549 338.44,-115.199 337.853,-108.224"/>
</g>
<!-- Node31 -->
<g id="node23" class="node"><title>Node31</title>
<g id="a_node23"><a xlink:href="../../d8/d9a/class_s_int_list.html" target="_top" xlink:title="SIntList\&lt; MemberGroup \&gt;">
<polygon fill="white" stroke="black" points="454,-114.5 454,-133.5 584,-133.5 584,-114.5 454,-114.5"/>
<text text-anchor="middle" x="519" y="-121.5" font-family="Helvetica,sans-Serif" font-size="10.00">SIntList&lt; MemberGroup &gt;</text>
</a>
</g>
</g>
<!-- Node30&#45;&gt;Node31 -->
<g id="edge32" class="edge"><title>Node30&#45;&gt;Node31</title>
<path fill="none" stroke="#9a32cd" stroke-dasharray="5,2" d="M331.464,-129.685C336.375,-130.21 341.258,-130.659 346,-131 381.622,-133.562 421.466,-132.207 453.828,-130.033"/>
<polygon fill="#9a32cd" stroke="#9a32cd" points="331.718,-126.191 321.381,-128.514 330.911,-133.145 331.718,-126.191"/>
<text text-anchor="middle" x="391" y="-135" font-family="Helvetica,sans-Serif" font-size="10.00"> m_owner</text>
</g>
<!-- Node31&#45;&gt;Node30 -->
<g id="edge30" class="edge"><title>Node31&#45;&gt;Node30</title>
<path fill="none" stroke="#9a32cd" stroke-dasharray="5,2" d="M443.782,-120.237C441.156,-120.149 438.556,-120.07 436,-120 400.421,-119.03 360.713,-118.744 328.32,-118.716"/>
<polygon fill="#9a32cd" stroke="#9a32cd" points="443.875,-123.743 453.997,-120.612 444.132,-116.747 443.875,-123.743"/>
<text text-anchor="middle" x="391" y="-123" font-family="Helvetica,sans-Serif" font-size="10.00"> m_list</text>
</g>
<!-- Node32 -->
<g id="node24" class="node"><title>Node32</title>
<polygon fill="white" stroke="#bfbfbf" points="202.5,-169.5 202.5,-188.5 321.5,-188.5 321.5,-169.5 202.5,-169.5"/>
<text text-anchor="middle" x="262" y="-176.5" font-family="Helvetica,sans-Serif" font-size="10.00">QList&lt; MemberGroup &gt;</text>
</g>
<!-- Node32&#45;&gt;Node31 -->
<g id="edge31" class="edge"><title>Node32&#45;&gt;Node31</title>
<path fill="none" stroke="midnightblue" d="M331.829,-167.743C363.667,-162.159 401.904,-154.918 436,-147 452.851,-143.087 471.427,-137.946 486.631,-133.518"/>
<polygon fill="midnightblue" stroke="midnightblue" points="330.984,-164.338 321.73,-169.497 332.181,-171.234 330.984,-164.338"/>
</g>
<!-- Node33&#45;&gt;Node31 -->
<g id="edge33" class="edge"><title>Node33&#45;&gt;Node31</title>
<path fill="none" stroke="orange" stroke-dasharray="5,2" d="M309.374,-213.342C346.583,-208.43 398.599,-196.929 436,-170 447.704,-161.573 442.395,-151.563 454,-143 459.223,-139.146 465.223,-136.069 471.411,-133.614"/>
<polygon fill="orange" stroke="orange" points="308.803,-209.885 299.296,-214.559 309.643,-216.834 308.803,-209.885"/>
<text text-anchor="middle" x="391" y="-209" font-family="Helvetica,sans-Serif" font-size="10.00"> &lt; MemberGroup &gt;</text>
</g>
<!-- Node34 -->
<g id="node26" class="node"><title>Node34</title>
<g id="a_node26"><a xlink:href="../../d0/d9f/class_s_int_dict.html" target="_top" xlink:title="Ordered dictionary of elements of type T. ">
<polygon fill="white" stroke="black" points="0,-109.5 0,-128.5 77,-128.5 77,-109.5 0,-109.5"/>
<text text-anchor="middle" x="38.5" y="-116.5" font-family="Helvetica,sans-Serif" font-size="10.00">SIntDict&lt; T &gt;</text>
</a>
</g>
</g>
<!-- Node34&#45;&gt;Node30 -->
<g id="edge35" class="edge"><title>Node34&#45;&gt;Node30</title>
<path fill="none" stroke="orange" stroke-dasharray="5,2" d="M87.4095,-119C119.121,-119 161.105,-119 195.841,-119"/>
<polygon fill="orange" stroke="orange" points="87.0745,-115.5 77.0745,-119 87.0744,-122.5 87.0745,-115.5"/>
<text text-anchor="middle" x="136.5" y="-122" font-family="Helvetica,sans-Serif" font-size="10.00"> &lt; MemberGroup &gt;</text>
</g>
<!-- Node35&#45;&gt;Node21 -->
<g id="edge36" class="edge"><title>Node35&#45;&gt;Node21</title>
<path fill="none" stroke="#9a32cd" stroke-dasharray="5,2" d="M1075.98,-187.505C1122.78,-200.147 1209.59,-223.599 1250.94,-234.77"/>
<polygon fill="#9a32cd" stroke="#9a32cd" points="1076.66,-184.062 1066.09,-184.833 1074.83,-190.82 1076.66,-184.062"/>
<text text-anchor="middle" x="1161" y="-225" font-family="Helvetica,sans-Serif" font-size="10.00"> m_dir</text>
</g>
<!-- Node35&#45;&gt;Node35 -->
<g id="edge42" class="edge"><title>Node35&#45;&gt;Node35</title>
<path fill="none" stroke="#9a32cd" stroke-dasharray="5,2" d="M1022.02,-198.4C1023.45,-203.315 1030.61,-207 1043.5,-207 1064.12,-207 1070.08,-197.565 1061.38,-188.757"/>
<polygon fill="#9a32cd" stroke="#9a32cd" points="1025.4,-199.35 1025.62,-188.757 1018.84,-196.9 1025.4,-199.35"/>
<text text-anchor="middle" x="1043.5" y="-210" font-family="Helvetica,sans-Serif" font-size="10.00"> m_parent</text>
</g>
<!-- Node36 -->
<g id="node28" class="node"><title>Node36</title>
<g id="a_node28"><a xlink:href="../../dc/d2a/class_dir_list.html" target="_top" xlink:title="A list of directories. ">
<polygon fill="white" stroke="black" points="764.5,-168.5 764.5,-187.5 809.5,-187.5 809.5,-168.5 764.5,-168.5"/>
<text text-anchor="middle" x="787" y="-175.5" font-family="Helvetica,sans-Serif" font-size="10.00">DirList</text>
</a>
</g>
</g>
<!-- Node36&#45;&gt;Node35 -->
<g id="edge38" class="edge"><title>Node36&#45;&gt;Node35</title>
<path fill="none" stroke="#9a32cd" stroke-dasharray="5,2" d="M819.794,-178.125C872.332,-178.331 975.921,-178.738 1020.86,-178.915"/>
<polygon fill="#9a32cd" stroke="#9a32cd" points="819.712,-174.625 809.699,-178.085 819.685,-181.625 819.712,-174.625"/>
<text text-anchor="middle" x="920.5" y="-181" font-family="Helvetica,sans-Serif" font-size="10.00"> m_subdirs</text>
</g>
<!-- Node37 -->
<g id="node29" class="node"><title>Node37</title>
<polygon fill="white" stroke="#bfbfbf" points="476,-152.5 476,-171.5 562,-171.5 562,-152.5 476,-152.5"/>
<text text-anchor="middle" x="519" y="-159.5" font-family="Helvetica,sans-Serif" font-size="10.00">QList&lt; DirDef &gt;</text>
</g>
<!-- Node37&#45;&gt;Node36 -->
<g id="edge39" class="edge"><title>Node37&#45;&gt;Node36</title>
<path fill="none" stroke="midnightblue" d="M572.305,-165.146C630.801,-168.665 722.78,-174.197 764.338,-176.697"/>
<polygon fill="midnightblue" stroke="midnightblue" points="572.341,-161.642 562.148,-164.535 571.92,-168.629 572.341,-161.642"/>
</g>
<!-- Node38 -->
<g id="node30" class="node"><title>Node38</title>
<g id="a_node30"><a xlink:href="../../d0/d18/class_file_list.html" target="_top" xlink:title="Class representing a list of FileDef objects. ">
<polygon fill="white" stroke="black" points="763,-206.5 763,-225.5 811,-225.5 811,-206.5 763,-206.5"/>
<text text-anchor="middle" x="787" y="-213.5" font-family="Helvetica,sans-Serif" font-size="10.00">FileList</text>
</a>
</g>
</g>
<!-- Node38&#45;&gt;Node35 -->
<g id="edge40" class="edge"><title>Node38&#45;&gt;Node35</title>
<path fill="none" stroke="#9a32cd" stroke-dasharray="5,2" d="M821.186,-212.205C858.088,-207.86 919.429,-200.27 972,-192 988.475,-189.408 1007.02,-185.968 1020.95,-183.278"/>
<polygon fill="#9a32cd" stroke="#9a32cd" points="820.53,-208.757 811.004,-213.394 821.343,-215.71 820.53,-208.757"/>
<text text-anchor="middle" x="920.5" y="-208" font-family="Helvetica,sans-Serif" font-size="10.00"> m_fileList</text>
</g>
<!-- Node39 -->
<g id="node31" class="node"><title>Node39</title>
<polygon fill="white" stroke="#bfbfbf" points="474.5,-190.5 474.5,-209.5 563.5,-209.5 563.5,-190.5 474.5,-190.5"/>
<text text-anchor="middle" x="519" y="-197.5" font-family="Helvetica,sans-Serif" font-size="10.00">QList&lt; FileDef &gt;</text>
</g>
<!-- Node39&#45;&gt;Node38 -->
<g id="edge41" class="edge"><title>Node39&#45;&gt;Node38</title>
<path fill="none" stroke="midnightblue" d="M573.695,-203.23C631.58,-206.712 721.039,-212.093 762.908,-214.611"/>
<polygon fill="midnightblue" stroke="midnightblue" points="573.819,-199.731 563.627,-202.624 573.398,-206.718 573.819,-199.731"/>
</g>
<!-- Node40 -->
<g id="node32" class="node"><title>Node40</title>
<g id="a_node32"><a xlink:href="../../d4/d8d/class_namespace_s_dict.html" target="_top" xlink:title="A sorted dictionary of NamespaceDef objects. ">
<polygon fill="white" stroke="black" points="996.5,-286.5 996.5,-305.5 1090.5,-305.5 1090.5,-286.5 996.5,-286.5"/>
<text text-anchor="middle" x="1043.5" y="-293.5" font-family="Helvetica,sans-Serif" font-size="10.00">NamespaceSDict</text>
</a>
</g>
</g>
<!-- Node40&#45;&gt;Node21 -->
<g id="edge43" class="edge"><title>Node40&#45;&gt;Node21</title>
<path fill="none" stroke="#9a32cd" stroke-dasharray="5,2" d="M1100.57,-289.334C1132.19,-284.832 1172.21,-277.885 1207,-268 1223.04,-263.441 1240.5,-256.331 1253.57,-250.552"/>
<polygon fill="#9a32cd" stroke="#9a32cd" points="1100.04,-285.874 1090.61,-290.711 1101,-292.808 1100.04,-285.874"/>
<text text-anchor="middle" x="1161" y="-301" font-family="Helvetica,sans-Serif" font-size="10.00"> m_namespaceSDict</text>
<text text-anchor="middle" x="1161" y="-290" font-family="Helvetica,sans-Serif" font-size="10.00">m_usingDirList</text>
</g>
<!-- Node41&#45;&gt;Node40 -->
<g id="edge44" class="edge"><title>Node41&#45;&gt;Node40</title>
<path fill="none" stroke="midnightblue" d="M861.493,-306.668C905.015,-304.103 958.817,-300.932 996.406,-298.717"/>
<polygon fill="midnightblue" stroke="midnightblue" points="861.014,-303.19 851.237,-307.273 861.426,-310.178 861.014,-303.19"/>
</g>
<!-- Node41&#45;&gt;Node42 -->
<g id="edge47" class="edge"><title>Node41&#45;&gt;Node42</title>
<path fill="none" stroke="#9a32cd" stroke-dasharray="5,2" d="M712.558,-310.448C671.437,-310.139 620.744,-309.757 581.694,-309.464"/>
<polygon fill="#9a32cd" stroke="#9a32cd" points="712.767,-313.949 722.793,-310.525 712.82,-306.95 712.767,-313.949"/>
<text text-anchor="middle" x="653.5" y="-313" font-family="Helvetica,sans-Serif" font-size="10.00"> m_owner</text>
</g>
<!-- Node42&#45;&gt;Node41 -->
<g id="edge45" class="edge"><title>Node42&#45;&gt;Node41</title>
<path fill="none" stroke="#9a32cd" stroke-dasharray="5,2" d="M561.559,-296.824C574.407,-293.613 588.683,-290.601 602,-289 647.451,-283.537 659.624,-282.947 705,-289 722.911,-291.389 742.474,-296.625 757.888,-301.39"/>
<polygon fill="#9a32cd" stroke="#9a32cd" points="560.401,-293.509 551.607,-299.418 562.166,-300.282 560.401,-293.509"/>
<text text-anchor="middle" x="653.5" y="-292" font-family="Helvetica,sans-Serif" font-size="10.00"> m_list</text>
</g>
<!-- Node43 -->
<g id="node35" class="node"><title>Node43</title>
<polygon fill="white" stroke="#bfbfbf" points="199,-287.5 199,-306.5 325,-306.5 325,-287.5 199,-287.5"/>
<text text-anchor="middle" x="262" y="-294.5" font-family="Helvetica,sans-Serif" font-size="10.00">QList&lt; NamespaceDef &gt;</text>
</g>
<!-- Node43&#45;&gt;Node42 -->
<g id="edge46" class="edge"><title>Node43&#45;&gt;Node42</title>
<path fill="none" stroke="midnightblue" d="M335.072,-300.392C373.225,-302.187 419.601,-304.369 456.11,-306.088"/>
<polygon fill="midnightblue" stroke="midnightblue" points="335.207,-296.894 325.054,-299.92 334.878,-303.886 335.207,-296.894"/>
</g>
<!-- Node44 -->
<g id="node36" class="node"><title>Node44</title>
<g id="a_node36"><a xlink:href="../../d6/dd6/class_member_s_dict.html" target="_top" xlink:title="A sorted dictionary of MemberDef objects. ">
<polygon fill="white" stroke="black" points="1343,-520.5 1343,-539.5 1420,-539.5 1420,-520.5 1343,-520.5"/>
<text text-anchor="middle" x="1381.5" y="-527.5" font-family="Helvetica,sans-Serif" font-size="10.00">MemberSDict</text>
</a>
</g>
</g>
<!-- Node44&#45;&gt;Node12 -->
<g id="edge50" class="edge"><title>Node44&#45;&gt;Node12</title>
<path fill="none" stroke="#9a32cd" stroke-dasharray="5,2" d="M1408.99,-515.342C1453.67,-489.289 1544.02,-430.663 1594,-357 1631.58,-301.612 1644.85,-219.335 1648.41,-191.555"/>
<polygon fill="#9a32cd" stroke="#9a32cd" points="1407.11,-512.386 1400.18,-520.401 1410.59,-518.457 1407.11,-512.386"/>
<text text-anchor="middle" x="1476" y="-509" font-family="Helvetica,sans-Serif" font-size="10.00"> sourceRefsDict</text>
<text text-anchor="middle" x="1476" y="-498" font-family="Helvetica,sans-Serif" font-size="10.00">sourceRefByDict</text>
</g>
<!-- Node45&#45;&gt;Node44 -->
<g id="edge51" class="edge"><title>Node45&#45;&gt;Node44</title>
<path fill="none" stroke="midnightblue" d="M852.244,-587.061C976.06,-573.686 1244.21,-544.721 1342.99,-534.052"/>
<polygon fill="midnightblue" stroke="midnightblue" points="851.717,-583.597 842.151,-588.151 852.469,-590.557 851.717,-583.597"/>
</g>
<!-- Node45&#45;&gt;Node46 -->
<g id="edge54" class="edge"><title>Node45&#45;&gt;Node46</title>
<path fill="none" stroke="#9a32cd" stroke-dasharray="5,2" d="M721.935,-602.189C676.427,-608.006 616.039,-615.724 573.19,-621.201"/>
<polygon fill="#9a32cd" stroke="#9a32cd" points="722.515,-605.643 731.991,-600.903 721.628,-598.7 722.515,-605.643"/>
<text text-anchor="middle" x="653.5" y="-620" font-family="Helvetica,sans-Serif" font-size="10.00"> m_owner</text>
</g>
<!-- Node46&#45;&gt;Node45 -->
<g id="edge52" class="edge"><title>Node46&#45;&gt;Node45</title>
<path fill="none" stroke="#9a32cd" stroke-dasharray="5,2" d="M568.826,-639.551C606.609,-646.495 659.916,-651.908 705,-640 731.737,-632.938 758.896,-614.786 773.983,-603.51"/>
<polygon fill="#9a32cd" stroke="#9a32cd" points="569.085,-636.036 558.601,-637.565 567.75,-642.908 569.085,-636.036"/>
<text text-anchor="middle" x="653.5" y="-650" font-family="Helvetica,sans-Serif" font-size="10.00"> m_list</text>
</g>
<!-- Node47 -->
<g id="node39" class="node"><title>Node47</title>
<polygon fill="white" stroke="#bfbfbf" points="207.5,-618.5 207.5,-637.5 316.5,-637.5 316.5,-618.5 207.5,-618.5"/>
<text text-anchor="middle" x="262" y="-625.5" font-family="Helvetica,sans-Serif" font-size="10.00">QList&lt; MemberDef &gt;</text>
</g>
<!-- Node47&#45;&gt;Node46 -->
<g id="edge53" class="edge"><title>Node47&#45;&gt;Node46</title>
<path fill="none" stroke="midnightblue" d="M327.007,-628C369.506,-628 424.644,-628 464.744,-628"/>
<polygon fill="midnightblue" stroke="midnightblue" points="326.767,-624.5 316.767,-628 326.767,-631.5 326.767,-624.5"/>
</g>
<!-- Node48 -->
<g id="node40" class="node"><title>Node48</title>
<g id="a_node40"><a xlink:href="../../d3/d3b/class_group_list.html" target="_top" xlink:title="A list of GroupDef objects. ">
<polygon fill="white" stroke="black" points="1446.5,-193.5 1446.5,-212.5 1505.5,-212.5 1505.5,-193.5 1446.5,-193.5"/>
<text text-anchor="middle" x="1476" y="-200.5" font-family="Helvetica,sans-Serif" font-size="10.00">GroupList</text>
</a>
</g>
</g>
<!-- Node48&#45;&gt;Node12 -->
<g id="edge57" class="edge"><title>Node48&#45;&gt;Node12</title>
<path fill="none" stroke="#9a32cd" stroke-dasharray="5,2" d="M1515.94,-198.259C1544.61,-194.769 1583.39,-190.049 1611.77,-186.593"/>
<polygon fill="#9a32cd" stroke="#9a32cd" points="1515.38,-194.802 1505.87,-199.485 1516.22,-201.751 1515.38,-194.802"/>
<text text-anchor="middle" x="1563" y="-199" font-family="Helvetica,sans-Serif" font-size="10.00"> partOfGroups</text>
</g>
<!-- Node49 -->
<g id="node41" class="node"><title>Node49</title>
<polygon fill="white" stroke="#bfbfbf" points="1225,-193.5 1225,-212.5 1325,-212.5 1325,-193.5 1225,-193.5"/>
<text text-anchor="middle" x="1275" y="-200.5" font-family="Helvetica,sans-Serif" font-size="10.00">QList&lt; GroupDef &gt;</text>
</g>
<!-- Node49&#45;&gt;Node48 -->
<g id="edge58" class="edge"><title>Node49&#45;&gt;Node48</title>
<path fill="none" stroke="midnightblue" d="M1335.29,-203C1371.98,-203 1417.46,-203 1446.35,-203"/>
<polygon fill="midnightblue" stroke="midnightblue" points="1335.19,-199.5 1325.19,-203 1335.19,-206.5 1335.19,-199.5"/>
</g>
<!-- Node50 -->
<g id="node42" class="node"><title>Node50</title>
<g id="a_node42"><a xlink:href="../../d7/dd5/struct_doc_info.html" target="_top" xlink:title="Data associated with a detailed description. ">
<polygon fill="white" stroke="black" points="1450.5,-150.5 1450.5,-169.5 1501.5,-169.5 1501.5,-150.5 1450.5,-150.5"/>
<text text-anchor="middle" x="1476" y="-157.5" font-family="Helvetica,sans-Serif" font-size="10.00">DocInfo</text>
</a>
</g>
</g>
<!-- Node50&#45;&gt;Node12 -->
<g id="edge59" class="edge"><title>Node50&#45;&gt;Node12</title>
<path fill="none" stroke="#9a32cd" stroke-dasharray="5,2" d="M1512.03,-157.622C1535.43,-156.76 1566.8,-157.008 1594,-162 1605.58,-164.126 1617.96,-168.378 1628.08,-172.416"/>
<polygon fill="#9a32cd" stroke="#9a32cd" points="1511.72,-154.133 1501.88,-158.083 1512.03,-161.126 1511.72,-154.133"/>
<text text-anchor="middle" x="1563" y="-176" font-family="Helvetica,sans-Serif" font-size="10.00"> inbodyDocs</text>
<text text-anchor="middle" x="1563" y="-165" font-family="Helvetica,sans-Serif" font-size="10.00">details</text>
</g>
<!-- Node51 -->
<g id="node43" class="node"><title>Node51</title>
<g id="a_node43"><a xlink:href="../../d0/da7/struct_brief_info.html" target="_top" xlink:title="Data associated with a brief description. ">
<polygon fill="white" stroke="black" points="1449.5,-112.5 1449.5,-131.5 1502.5,-131.5 1502.5,-112.5 1449.5,-112.5"/>
<text text-anchor="middle" x="1476" y="-119.5" font-family="Helvetica,sans-Serif" font-size="10.00">BriefInfo</text>
</a>
</g>
</g>
<!-- Node51&#45;&gt;Node12 -->
<g id="edge60" class="edge"><title>Node51&#45;&gt;Node12</title>
<path fill="none" stroke="#9a32cd" stroke-dasharray="5,2" d="M1512.59,-123.884C1536.4,-126.143 1568.01,-131.106 1594,-142 1611.53,-149.346 1628.82,-163.135 1639.33,-172.443"/>
<polygon fill="#9a32cd" stroke="#9a32cd" points="1512.83,-120.393 1502.57,-123.049 1512.25,-127.368 1512.83,-120.393"/>
<text text-anchor="middle" x="1563" y="-145" font-family="Helvetica,sans-Serif" font-size="10.00"> brief</text>
</g>
</g>
</svg>
