<?xml version="1.0" encoding="UTF-8" standalone="no"?>
<!DOCTYPE svg PUBLIC "-//W3C//DTD SVG 1.1//EN"
 "http://www.w3.org/Graphics/SVG/1.1/DTD/svg11.dtd">
<!-- Generated by graphviz version 2.38.0 (20140413.2041)
 -->
<!-- Title: TranslatorMacedonian Pages: 1 -->
<!--zoomable 551 -->
<svg id="main" version="1.1" xmlns="http://www.w3.org/2000/svg" xmlns:xlink="http://www.w3.org/1999/xlink" xml:space="preserve" onload="init(evt)">
<style type="text/css"><![CDATA[
.edge:hover path { stroke: red; }
.edge:hover polygon { stroke: red; fill: red; }
]]></style>
<script type="text/javascript"><![CDATA[
var edges = document.getElementsByTagName('g');
if (edges && edges.length) {
  for (var i=0;i<edges.length;i++) {
    if (edges[i].id.substr(0,4)=='edge') {
      edges[i].setAttribute('class','edge');
    }
  }
}
]]></script>
        <defs>
                <circle id="rim" cx="0" cy="0" r="7"/>
                <circle id="rim2" cx="0" cy="0" r="3.5"/>
                <g id="zoomPlus">
                        <use xlink:href="#rim" fill="#404040">
                                <set attributeName="fill" to="#808080" begin="zoomplus.mouseover" end="zoomplus.mouseout"/>
                        </use>
                        <path d="M-4,0h8M0,-4v8" fill="none" stroke="white" stroke-width="1.5" pointer-events="none"/>
                </g>
                <g id="zoomMin">
                        <use xlink:href="#rim" fill="#404040">
                                <set attributeName="fill" to="#808080" begin="zoomminus.mouseover" end="zoomminus.mouseout"/>
                        </use>
                        <path d="M-4,0h8" fill="none" stroke="white" stroke-width="1.5" pointer-events="none"/>
                </g>
                <g id="dirArrow">
                        <path fill="none" stroke="white" stroke-width="1.5" d="M0,-3.0v7 M-2.5,-0.5L0,-3.0L2.5,-0.5"/>
                </g>
               <g id="resetDef">
                       <use xlink:href="#rim2" fill="#404040">
                               <set attributeName="fill" to="#808080" begin="reset.mouseover" end="reset.mouseout"/>
                       </use>
               </g>
        </defs>

<script type="text/javascript">
var viewWidth = 175;
var viewHeight = 551;
var sectionId = 'dynsection-1';
</script>
<script xlink:href="../../svgpan.js"/>
<svg id="graph" class="graph">
<g id="viewport">
<title>TranslatorMacedonian</title>
<polygon fill="white" stroke="none" points="-4,4 -4,-547 170.5,-547 170.5,4 -4,4"/>
<!-- Node9 -->
<g id="node1" class="node"><title>Node9</title>
<polygon fill="#bfbfbf" stroke="black" points="6,-0.5 6,-19.5 119,-19.5 119,-0.5 6,-0.5"/>
<text text-anchor="middle" x="62.5" y="-7.5" font-family="Helvetica,sans-Serif" font-size="10.00">TranslatorMacedonian</text>
</g>
<!-- Node10 -->
<g id="node2" class="node"><title>Node10</title>
<g id="a_node2"><a xlink:href="../../d3/da1/class_translator_adapter__1__6__0.html" target="_top" xlink:title="Adapter class for languages that only contain translations up to version 1.6.0. ">
<polygon fill="white" stroke="black" points="-7.10543e-15,-57.5 -7.10543e-15,-76.5 125,-76.5 125,-57.5 -7.10543e-15,-57.5"/>
<text text-anchor="middle" x="62.5" y="-64.5" font-family="Helvetica,sans-Serif" font-size="10.00">TranslatorAdapter_1_6_0</text>
</a>
</g>
</g>
<!-- Node10&#45;&gt;Node9 -->
<g id="edge1" class="edge"><title>Node10&#45;&gt;Node9</title>
<path fill="none" stroke="midnightblue" d="M62.5,-47.1166C62.5,-37.8173 62.5,-27.0557 62.5,-19.7149"/>
<polygon fill="midnightblue" stroke="midnightblue" points="59.0001,-47.4062 62.5,-57.4062 66.0001,-47.4063 59.0001,-47.4062"/>
</g>
<!-- Node11 -->
<g id="node3" class="node"><title>Node11</title>
<g id="a_node3"><a xlink:href="../../d7/d29/class_translator_adapter__1__6__3.html" target="_top" xlink:title="Adapter class for languages that only contain translations up to version 1.6.3. ">
<polygon fill="white" stroke="black" points="-7.10543e-15,-114.5 -7.10543e-15,-133.5 125,-133.5 125,-114.5 -7.10543e-15,-114.5"/>
<text text-anchor="middle" x="62.5" y="-121.5" font-family="Helvetica,sans-Serif" font-size="10.00">TranslatorAdapter_1_6_3</text>
</a>
</g>
</g>
<!-- Node11&#45;&gt;Node10 -->
<g id="edge2" class="edge"><title>Node11&#45;&gt;Node10</title>
<path fill="none" stroke="midnightblue" d="M62.5,-104.117C62.5,-94.8173 62.5,-84.0557 62.5,-76.7149"/>
<polygon fill="midnightblue" stroke="midnightblue" points="59.0001,-104.406 62.5,-114.406 66.0001,-104.406 59.0001,-104.406"/>
</g>
<!-- Node12 -->
<g id="node4" class="node"><title>Node12</title>
<g id="a_node4"><a xlink:href="../../da/d24/class_translator_adapter__1__7__5.html" target="_top" xlink:title="Adapter class for languages that only contain translations up to version 1.7.5. ">
<polygon fill="white" stroke="black" points="-7.10543e-15,-171.5 -7.10543e-15,-190.5 125,-190.5 125,-171.5 -7.10543e-15,-171.5"/>
<text text-anchor="middle" x="62.5" y="-178.5" font-family="Helvetica,sans-Serif" font-size="10.00">TranslatorAdapter_1_7_5</text>
</a>
</g>
</g>
<!-- Node12&#45;&gt;Node11 -->
<g id="edge3" class="edge"><title>Node12&#45;&gt;Node11</title>
<path fill="none" stroke="midnightblue" d="M62.5,-161.117C62.5,-151.817 62.5,-141.056 62.5,-133.715"/>
<polygon fill="midnightblue" stroke="midnightblue" points="59.0001,-161.406 62.5,-171.406 66.0001,-161.406 59.0001,-161.406"/>
</g>
<!-- Node13 -->
<g id="node5" class="node"><title>Node13</title>
<g id="a_node5"><a xlink:href="../../de/d49/class_translator_adapter__1__8__0.html" target="_top" xlink:title="Adapter class for languages that only contain translations up to version 1.8.0. ">
<polygon fill="white" stroke="black" points="-7.10543e-15,-228.5 -7.10543e-15,-247.5 125,-247.5 125,-228.5 -7.10543e-15,-228.5"/>
<text text-anchor="middle" x="62.5" y="-235.5" font-family="Helvetica,sans-Serif" font-size="10.00">TranslatorAdapter_1_8_0</text>
</a>
</g>
</g>
<!-- Node13&#45;&gt;Node12 -->
<g id="edge4" class="edge"><title>Node13&#45;&gt;Node12</title>
<path fill="none" stroke="midnightblue" d="M62.5,-218.117C62.5,-208.817 62.5,-198.056 62.5,-190.715"/>
<polygon fill="midnightblue" stroke="midnightblue" points="59.0001,-218.406 62.5,-228.406 66.0001,-218.406 59.0001,-218.406"/>
</g>
<!-- Node14 -->
<g id="node6" class="node"><title>Node14</title>
<g id="a_node6"><a xlink:href="../../d2/d75/class_translator_adapter__1__8__2.html" target="_top" xlink:title="TranslatorAdapter_1_8_2">
<polygon fill="white" stroke="black" points="-7.10543e-15,-285.5 -7.10543e-15,-304.5 125,-304.5 125,-285.5 -7.10543e-15,-285.5"/>
<text text-anchor="middle" x="62.5" y="-292.5" font-family="Helvetica,sans-Serif" font-size="10.00">TranslatorAdapter_1_8_2</text>
</a>
</g>
</g>
<!-- Node14&#45;&gt;Node13 -->
<g id="edge5" class="edge"><title>Node14&#45;&gt;Node13</title>
<path fill="none" stroke="midnightblue" d="M62.5,-275.117C62.5,-265.817 62.5,-255.056 62.5,-247.715"/>
<polygon fill="midnightblue" stroke="midnightblue" points="59.0001,-275.406 62.5,-285.406 66.0001,-275.406 59.0001,-275.406"/>
</g>
<!-- Node15 -->
<g id="node7" class="node"><title>Node15</title>
<g id="a_node7"><a xlink:href="../../de/d2f/class_translator_adapter__1__8__4.html" target="_top" xlink:title="TranslatorAdapter_1_8_4">
<polygon fill="white" stroke="black" points="-7.10543e-15,-342.5 -7.10543e-15,-361.5 125,-361.5 125,-342.5 -7.10543e-15,-342.5"/>
<text text-anchor="middle" x="62.5" y="-349.5" font-family="Helvetica,sans-Serif" font-size="10.00">TranslatorAdapter_1_8_4</text>
</a>
</g>
</g>
<!-- Node15&#45;&gt;Node14 -->
<g id="edge6" class="edge"><title>Node15&#45;&gt;Node14</title>
<path fill="none" stroke="midnightblue" d="M62.5,-332.117C62.5,-322.817 62.5,-312.056 62.5,-304.715"/>
<polygon fill="midnightblue" stroke="midnightblue" points="59.0001,-332.406 62.5,-342.406 66.0001,-332.406 59.0001,-332.406"/>
</g>
<!-- Node16 -->
<g id="node8" class="node"><title>Node16</title>
<g id="a_node8"><a xlink:href="../../db/d6c/class_translator_adapter_base.html" target="_top" xlink:title="Base of the translator adapter tree. ">
<polygon fill="white" stroke="black" points="4.5,-399.5 4.5,-418.5 120.5,-418.5 120.5,-399.5 4.5,-399.5"/>
<text text-anchor="middle" x="62.5" y="-406.5" font-family="Helvetica,sans-Serif" font-size="10.00">TranslatorAdapterBase</text>
</a>
</g>
</g>
<!-- Node16&#45;&gt;Node15 -->
<g id="edge7" class="edge"><title>Node16&#45;&gt;Node15</title>
<path fill="none" stroke="midnightblue" d="M62.5,-389.117C62.5,-379.817 62.5,-369.056 62.5,-361.715"/>
<polygon fill="midnightblue" stroke="midnightblue" points="59.0001,-389.406 62.5,-399.406 66.0001,-389.406 59.0001,-389.406"/>
</g>
<!-- Node17 -->
<g id="node9" class="node"><title>Node17</title>
<g id="a_node9"><a xlink:href="../../d8/dfb/class_translator.html" target="_top" xlink:title="Abstract base class for all translatable text fragments. ">
<polygon fill="white" stroke="black" points="40.5,-523.5 40.5,-542.5 100.5,-542.5 100.5,-523.5 40.5,-523.5"/>
<text text-anchor="middle" x="70.5" y="-530.5" font-family="Helvetica,sans-Serif" font-size="10.00">Translator</text>
</a>
</g>
</g>
<!-- Node17&#45;&gt;Node16 -->
<g id="edge8" class="edge"><title>Node17&#45;&gt;Node16</title>
<path fill="none" stroke="midnightblue" d="M68.1478,-513.087C67.1924,-504.788 66.1602,-494.923 65.5,-486 63.707,-461.77 62.9417,-433.109 62.653,-418.904"/>
<polygon fill="midnightblue" stroke="midnightblue" points="64.6945,-513.686 69.3611,-523.198 71.6446,-512.852 64.6945,-513.686"/>
</g>
<!-- Node18 -->
<g id="node10" class="node"><title>Node18</title>
<g id="a_node10"><a xlink:href="../../d6/d78/class_translator_english.html" target="_top" xlink:title="TranslatorEnglish">
<polygon fill="white" stroke="black" points="74.5,-466.5 74.5,-485.5 166.5,-485.5 166.5,-466.5 74.5,-466.5"/>
<text text-anchor="middle" x="120.5" y="-473.5" font-family="Helvetica,sans-Serif" font-size="10.00">TranslatorEnglish</text>
</a>
</g>
</g>
<!-- Node17&#45;&gt;Node18 -->
<g id="edge10" class="edge"><title>Node17&#45;&gt;Node18</title>
<path fill="none" stroke="midnightblue" d="M85.2017,-515.828C94.1551,-505.979 105.244,-493.782 112.577,-485.715"/>
<polygon fill="midnightblue" stroke="midnightblue" points="82.4495,-513.652 78.3125,-523.406 87.6291,-518.361 82.4495,-513.652"/>
</g>
<!-- Node18&#45;&gt;Node16 -->
<g id="edge9" class="edge"><title>Node18&#45;&gt;Node16</title>
<path fill="none" stroke="#9a32cd" stroke-dasharray="5,2" d="M105.897,-458.635C94.5542,-445.923 79.2734,-428.798 70.1982,-418.627"/>
<polygon fill="#9a32cd" stroke="#9a32cd" points="103.408,-461.103 112.678,-466.234 108.631,-456.442 103.408,-461.103"/>
<text text-anchor="middle" x="111.5" y="-440" font-family="Helvetica,sans-Serif" font-size="10.00"> english</text>
</g>
</g>
</svg>
        <g id="navigator" transform="translate(0 0)" fill="#404254">
                <rect fill="#f2f5e9" fill-opacity="0.5" stroke="#606060" stroke-width=".5" x="0" y="0" width="60" height="60"/>
                <use id="zoomplus" xlink:href="#zoomPlus" x="17" y="9" onmousedown="handleZoom(evt,'in')"/>
                <use id="zoomminus" xlink:href="#zoomMin" x="42" y="9" onmousedown="handleZoom(evt,'out')"/>
                <use id="reset" xlink:href="#resetDef" x="30" y="36" onmousedown="handleReset()"/>
                <g id="arrowUp" xlink:href="#dirArrow" transform="translate(30 24)" onmousedown="handlePan(0,-1)">
                  <use xlink:href="#rim" fill="#404040">
                        <set attributeName="fill" to="#808080" begin="arrowUp.mouseover" end="arrowUp.mouseout"/>
                  </use>
                  <path fill="none" stroke="white" stroke-width="1.5" d="M0,-3.0v7 M-2.5,-0.5L0,-3.0L2.5,-0.5"/>
                </g>
                <g id="arrowRight" xlink:href="#dirArrow" transform="rotate(90) translate(36 -43)" onmousedown="handlePan(1,0)">
                  <use xlink:href="#rim" fill="#404040">
                        <set attributeName="fill" to="#808080" begin="arrowRight.mouseover" end="arrowRight.mouseout"/>
                  </use>
                  <path fill="none" stroke="white" stroke-width="1.5" d="M0,-3.0v7 M-2.5,-0.5L0,-3.0L2.5,-0.5"/>
                </g>
                <g id="arrowDown" xlink:href="#dirArrow" transform="rotate(180) translate(-30 -48)" onmousedown="handlePan(0,1)">
                  <use xlink:href="#rim" fill="#404040">
                        <set attributeName="fill" to="#808080" begin="arrowDown.mouseover" end="arrowDown.mouseout"/>
                  </use>
                  <path fill="none" stroke="white" stroke-width="1.5" d="M0,-3.0v7 M-2.5,-0.5L0,-3.0L2.5,-0.5"/>
                </g>
                <g id="arrowLeft" xlink:href="#dirArrow" transform="rotate(270) translate(-36 17)" onmousedown="handlePan(-1,0)">
                  <use xlink:href="#rim" fill="#404040">
                        <set attributeName="fill" to="#808080" begin="arrowLeft.mouseover" end="arrowLeft.mouseout"/>
                  </use>
                  <path fill="none" stroke="white" stroke-width="1.5" d="M0,-3.0v7 M-2.5,-0.5L0,-3.0L2.5,-0.5"/>
                </g>
        </g>
        <svg viewBox="0 0 15 15" width="100%" height="30px" preserveAspectRatio="xMaxYMin meet">
         <g id="arrow_out" transform="scale(0.3 0.3)">
          <a xlink:href="class_translator_macedonian__coll__graph_org.svg" target="_base">
           <rect id="button" ry="5" rx="5" y="6" x="6" height="38" width="38"
                fill="#f2f5e9" fill-opacity="0.5" stroke="#606060" stroke-width="1.0"/>
           <path id="arrow"
             d="M 11.500037,31.436501 C 11.940474,20.09759 22.043105,11.32322 32.158766,21.979434 L 37.068811,17.246167 C 37.068811,17.246167 37.088388,32 37.088388,32 L 22.160133,31.978069 C 22.160133,31.978069 26.997745,27.140456 26.997745,27.140456 C 18.528582,18.264221 13.291696,25.230495 11.500037,31.436501 z"
             style="fill:#404040;"/>
          </a>
         </g>
        </svg>
</svg>
