<?xml version="1.0" encoding="UTF-8" standalone="no"?>
<!DOCTYPE svg PUBLIC "-//W3C//DTD SVG 1.1//EN"
 "http://www.w3.org/Graphics/SVG/1.1/DTD/svg11.dtd">
<!-- Generated by graphviz version 2.38.0 (20140413.2041)
 -->
<!-- Title: LatexDocVisitor::ActiveRowSpan Pages: 1 -->
<svg width="402pt" height="229pt"
 viewBox="0.00 0.00 402.00 229.00" xmlns="http://www.w3.org/2000/svg" xmlns:xlink="http://www.w3.org/1999/xlink">
<g id="graph0" class="graph" transform="scale(1 1) rotate(0) translate(4 225)">
<title>LatexDocVisitor::ActiveRowSpan</title>
<polygon fill="white" stroke="none" points="-4,4 -4,-225 398,-225 398,4 -4,4"/>
<!-- Node1 -->
<g id="node1" class="node"><title>Node1</title>
<polygon fill="#bfbfbf" stroke="black" points="113.5,-0.5 113.5,-19.5 276.5,-19.5 276.5,-0.5 113.5,-0.5"/>
<text text-anchor="middle" x="195" y="-7.5" font-family="Helvetica,sans-Serif" font-size="10.00">LatexDocVisitor::ActiveRowSpan</text>
</g>
<!-- Node2 -->
<g id="node2" class="node"><title>Node2</title>
<g id="a_node2"><a xlink:href="../../d1/d56/class_doc_html_cell.html" target="_top" xlink:title="Node representing a HTML table cell. ">
<polygon fill="white" stroke="black" points="158.5,-67.5 158.5,-86.5 231.5,-86.5 231.5,-67.5 158.5,-67.5"/>
<text text-anchor="middle" x="195" y="-74.5" font-family="Helvetica,sans-Serif" font-size="10.00">DocHtmlCell</text>
</a>
</g>
</g>
<!-- Node2&#45;&gt;Node1 -->
<g id="edge1" class="edge"><title>Node2&#45;&gt;Node1</title>
<path fill="none" stroke="#9a32cd" stroke-dasharray="5,2" d="M195,-57.037C195,-44.6703 195,-29.1198 195,-19.6273"/>
<polygon fill="#9a32cd" stroke="#9a32cd" points="191.5,-57.2338 195,-67.2338 198.5,-57.2338 191.5,-57.2338"/>
<text text-anchor="middle" x="204.5" y="-41" font-family="Helvetica,sans-Serif" font-size="10.00"> cell</text>
</g>
<!-- Node3 -->
<g id="node3" class="node"><title>Node3</title>
<g id="a_node3"><a xlink:href="../../d7/da3/class_comp_accept.html" target="_top" xlink:title="CompAccept\&lt; DocHtmlCell \&gt;">
<polygon fill="white" stroke="black" points="0,-134.5 0,-153.5 148,-153.5 148,-134.5 0,-134.5"/>
<text text-anchor="middle" x="74" y="-141.5" font-family="Helvetica,sans-Serif" font-size="10.00">CompAccept&lt; DocHtmlCell &gt;</text>
</a>
</g>
</g>
<!-- Node3&#45;&gt;Node2 -->
<g id="edge2" class="edge"><title>Node3&#45;&gt;Node2</title>
<path fill="none" stroke="midnightblue" d="M99.2079,-129.459C123.196,-116.573 158.565,-97.5727 178.94,-86.6273"/>
<polygon fill="midnightblue" stroke="midnightblue" points="97.4717,-126.418 90.3186,-134.234 100.784,-132.585 97.4717,-126.418"/>
</g>
<!-- Node4 -->
<g id="node4" class="node"><title>Node4</title>
<g id="a_node4"><a xlink:href="../../d7/da3/class_comp_accept.html" target="_top" xlink:title="Default accept implementation for compound nodes in the abstract syntax tree. ">
<polygon fill="white" stroke="black" points="25,-201.5 25,-220.5 123,-220.5 123,-201.5 25,-201.5"/>
<text text-anchor="middle" x="74" y="-208.5" font-family="Helvetica,sans-Serif" font-size="10.00">CompAccept&lt; T &gt;</text>
</a>
</g>
</g>
<!-- Node4&#45;&gt;Node3 -->
<g id="edge3" class="edge"><title>Node4&#45;&gt;Node3</title>
<path fill="none" stroke="orange" stroke-dasharray="5,2" d="M74,-191.037C74,-178.67 74,-163.12 74,-153.627"/>
<polygon fill="orange" stroke="orange" points="70.5001,-191.234 74,-201.234 77.5001,-191.234 70.5001,-191.234"/>
<text text-anchor="middle" x="113" y="-175" font-family="Helvetica,sans-Serif" font-size="10.00"> &lt; DocHtmlCell &gt;</text>
</g>
<!-- Node5 -->
<g id="node5" class="node"><title>Node5</title>
<g id="a_node5"><a xlink:href="../../d9/d0e/class_doc_node.html" target="_top" xlink:title="Abstract node interface with type information. ">
<polygon fill="white" stroke="black" points="166,-134.5 166,-153.5 224,-153.5 224,-134.5 166,-134.5"/>
<text text-anchor="middle" x="195" y="-141.5" font-family="Helvetica,sans-Serif" font-size="10.00">DocNode</text>
</a>
</g>
</g>
<!-- Node5&#45;&gt;Node2 -->
<g id="edge4" class="edge"><title>Node5&#45;&gt;Node2</title>
<path fill="none" stroke="midnightblue" d="M195,-124.037C195,-111.67 195,-96.1198 195,-86.6273"/>
<polygon fill="midnightblue" stroke="midnightblue" points="191.5,-124.234 195,-134.234 198.5,-124.234 191.5,-124.234"/>
</g>
<!-- Node5&#45;&gt;Node5 -->
<g id="edge5" class="edge"><title>Node5&#45;&gt;Node5</title>
<path fill="none" stroke="#9a32cd" stroke-dasharray="5,2" d="M234.603,-149.084C239.091,-148.132 242,-146.438 242,-144 242,-140 234.167,-138 224.375,-138"/>
<polygon fill="#9a32cd" stroke="#9a32cd" points="234.023,-145.622 224.375,-150 234.647,-152.594 234.023,-145.622"/>
<text text-anchor="middle" x="264" y="-141.5" font-family="Helvetica,sans-Serif" font-size="10.00"> m_parent</text>
</g>
<!-- Node6 -->
<g id="node6" class="node"><title>Node6</title>
<g id="a_node6"><a xlink:href="../../db/d4d/class_html_attrib_list.html" target="_top" xlink:title="A list of Html attributes. ">
<polygon fill="white" stroke="black" points="304.5,-134.5 304.5,-153.5 381.5,-153.5 381.5,-134.5 304.5,-134.5"/>
<text text-anchor="middle" x="343" y="-141.5" font-family="Helvetica,sans-Serif" font-size="10.00">HtmlAttribList</text>
</a>
</g>
</g>
<!-- Node6&#45;&gt;Node2 -->
<g id="edge6" class="edge"><title>Node6&#45;&gt;Node2</title>
<path fill="none" stroke="#9a32cd" stroke-dasharray="5,2" d="M314.04,-130.281C284.73,-117.409 240.207,-97.8545 214.735,-86.6672"/>
<polygon fill="#9a32cd" stroke="#9a32cd" points="312.783,-133.552 323.347,-134.369 315.598,-127.143 312.783,-133.552"/>
<text text-anchor="middle" x="300" y="-108" font-family="Helvetica,sans-Serif" font-size="10.00"> m_attribs</text>
</g>
<!-- Node7 -->
<g id="node7" class="node"><title>Node7</title>
<polygon fill="white" stroke="#bfbfbf" points="292,-201.5 292,-220.5 394,-220.5 394,-201.5 292,-201.5"/>
<text text-anchor="middle" x="343" y="-208.5" font-family="Helvetica,sans-Serif" font-size="10.00">QList&lt; HtmlAttrib &gt;</text>
</g>
<!-- Node7&#45;&gt;Node6 -->
<g id="edge7" class="edge"><title>Node7&#45;&gt;Node6</title>
<path fill="none" stroke="midnightblue" d="M343,-191.037C343,-178.67 343,-163.12 343,-153.627"/>
<polygon fill="midnightblue" stroke="midnightblue" points="339.5,-191.234 343,-201.234 346.5,-191.234 339.5,-191.234"/>
</g>
</g>
</svg>
