<?xml version="1.0" encoding="UTF-8" standalone="no"?>
<!DOCTYPE svg PUBLIC "-//W3C//DTD SVG 1.1//EN"
 "http://www.w3.org/Graphics/SVG/1.1/DTD/svg11.dtd">
<!-- Generated by graphviz version 2.38.0 (20140413.2041)
 -->
<!-- Title: HtmlGenerator Pages: 1 -->
<svg width="274pt" height="219pt"
 viewBox="0.00 0.00 273.50 219.00" xmlns="http://www.w3.org/2000/svg" xmlns:xlink="http://www.w3.org/1999/xlink">
<g id="graph0" class="graph" transform="scale(1 1) rotate(0) translate(4 215)">
<title>HtmlGenerator</title>
<polygon fill="white" stroke="none" points="-4,4 -4,-215 269.5,-215 269.5,4 -4,4"/>
<!-- Node4 -->
<g id="node1" class="node"><title>Node4</title>
<polygon fill="#bfbfbf" stroke="black" points="125.5,-0.5 125.5,-19.5 205.5,-19.5 205.5,-0.5 125.5,-0.5"/>
<text text-anchor="middle" x="165.5" y="-7.5" font-family="Helvetica,sans-Serif" font-size="10.00">HtmlGenerator</text>
</g>
<!-- Node5 -->
<g id="node2" class="node"><title>Node5</title>
<g id="a_node2"><a xlink:href="../../d3/d8e/class_output_generator.html" target="_top" xlink:title="Abstract output generator. ">
<polygon fill="white" stroke="black" points="54,-67.5 54,-86.5 143,-86.5 143,-67.5 54,-67.5"/>
<text text-anchor="middle" x="98.5" y="-74.5" font-family="Helvetica,sans-Serif" font-size="10.00">OutputGenerator</text>
</a>
</g>
</g>
<!-- Node5&#45;&gt;Node4 -->
<g id="edge1" class="edge"><title>Node5&#45;&gt;Node4</title>
<path fill="none" stroke="midnightblue" d="M114.996,-59.9968C128.135,-47.2496 146.024,-29.8947 156.607,-19.6273"/>
<polygon fill="midnightblue" stroke="midnightblue" points="112.276,-57.7586 107.536,-67.2338 117.15,-62.7827 112.276,-57.7586"/>
</g>
<!-- Node6 -->
<g id="node3" class="node"><title>Node6</title>
<g id="a_node3"><a xlink:href="../../df/d27/class_base_output_doc_interface.html" target="_top" xlink:title="Base Interface used for generating output outside of the comment blocks. ">
<polygon fill="white" stroke="black" points="0,-134.5 0,-153.5 125,-153.5 125,-134.5 0,-134.5"/>
<text text-anchor="middle" x="62.5" y="-141.5" font-family="Helvetica,sans-Serif" font-size="10.00">BaseOutputDocInterface</text>
</a>
</g>
</g>
<!-- Node6&#45;&gt;Node5 -->
<g id="edge2" class="edge"><title>Node6&#45;&gt;Node5</title>
<path fill="none" stroke="midnightblue" d="M72.3787,-125.163C79.3214,-112.628 88.3035,-96.4104 93.7218,-86.6273"/>
<polygon fill="midnightblue" stroke="midnightblue" points="69.1384,-123.79 67.3551,-134.234 75.2619,-127.182 69.1384,-123.79"/>
</g>
<!-- Node7 -->
<g id="node4" class="node"><title>Node7</title>
<g id="a_node4"><a xlink:href="../../d5/d9c/class_code_output_interface.html" target="_top" xlink:title="Output interface for code parser. ">
<polygon fill="white" stroke="black" points="140,-191.5 140,-210.5 247,-210.5 247,-191.5 140,-191.5"/>
<text text-anchor="middle" x="193.5" y="-198.5" font-family="Helvetica,sans-Serif" font-size="10.00">CodeOutputInterface</text>
</a>
</g>
</g>
<!-- Node7&#45;&gt;Node6 -->
<g id="edge3" class="edge"><title>Node7&#45;&gt;Node6</title>
<path fill="none" stroke="midnightblue" d="M163.755,-187.512C139.026,-177.129 104.495,-162.631 82.825,-153.533"/>
<polygon fill="midnightblue" stroke="midnightblue" points="162.456,-190.762 173.031,-191.406 165.166,-184.308 162.456,-190.762"/>
</g>
<!-- Node9 -->
<g id="node6" class="node"><title>Node9</title>
<g id="a_node6"><a xlink:href="../../da/db6/class_html_code_generator.html" target="_top" xlink:title="HtmlCodeGenerator">
<polygon fill="white" stroke="black" points="161.5,-67.5 161.5,-86.5 265.5,-86.5 265.5,-67.5 161.5,-67.5"/>
<text text-anchor="middle" x="213.5" y="-74.5" font-family="Helvetica,sans-Serif" font-size="10.00">HtmlCodeGenerator</text>
</a>
</g>
</g>
<!-- Node7&#45;&gt;Node9 -->
<g id="edge6" class="edge"><title>Node7&#45;&gt;Node9</title>
<path fill="none" stroke="midnightblue" d="M208.962,-183.781C215.751,-175.544 222.971,-164.972 226.5,-154 234.123,-130.297 223.806,-100.918 217.594,-86.623"/>
<polygon fill="midnightblue" stroke="midnightblue" points="206.2,-181.62 202.215,-191.437 211.452,-186.248 206.2,-181.62"/>
</g>
<!-- Node8 -->
<g id="node5" class="node"><title>Node8</title>
<g id="a_node5"><a xlink:href="../../dc/d3c/class_f_text_stream.html" target="_top" xlink:title="Simplified and optimized version of QTextStream. ">
<polygon fill="white" stroke="black" points="143.5,-134.5 143.5,-153.5 217.5,-153.5 217.5,-134.5 143.5,-134.5"/>
<text text-anchor="middle" x="180.5" y="-141.5" font-family="Helvetica,sans-Serif" font-size="10.00">FTextStream</text>
</a>
</g>
</g>
<!-- Node8&#45;&gt;Node5 -->
<g id="edge4" class="edge"><title>Node8&#45;&gt;Node5</title>
<path fill="none" stroke="#9a32cd" stroke-dasharray="5,2" d="M161.215,-127.713C145.06,-114.907 122.581,-97.0884 109.384,-86.6273"/>
<polygon fill="#9a32cd" stroke="#9a32cd" points="159.43,-130.765 169.441,-134.234 163.779,-125.279 159.43,-130.765"/>
<text text-anchor="middle" x="148" y="-108" font-family="Helvetica,sans-Serif" font-size="10.00"> t</text>
</g>
<!-- Node8&#45;&gt;Node9 -->
<g id="edge7" class="edge"><title>Node8&#45;&gt;Node9</title>
<path fill="none" stroke="#9a32cd" stroke-dasharray="5,2" d="M189.555,-125.163C195.92,-112.628 204.153,-96.4104 209.12,-86.6273"/>
<polygon fill="#9a32cd" stroke="#9a32cd" points="186.357,-123.733 184.951,-134.234 192.598,-126.902 186.357,-123.733"/>
<text text-anchor="middle" x="208.5" y="-108" font-family="Helvetica,sans-Serif" font-size="10.00"> m_t</text>
</g>
<!-- Node9&#45;&gt;Node4 -->
<g id="edge5" class="edge"><title>Node9&#45;&gt;Node4</title>
<path fill="none" stroke="#9a32cd" stroke-dasharray="5,2" d="M200.875,-58.9037C191.548,-46.2729 179.238,-29.6041 171.871,-19.6273"/>
<polygon fill="#9a32cd" stroke="#9a32cd" points="198.271,-61.2686 207.027,-67.2338 203.902,-57.1103 198.271,-61.2686"/>
<text text-anchor="middle" x="220.5" y="-41" font-family="Helvetica,sans-Serif" font-size="10.00"> m_codeGen</text>
</g>
</g>
</svg>
