<?xml version="1.0" encoding="UTF-8" standalone="no"?>
<!DOCTYPE svg PUBLIC "-//W3C//DTD SVG 1.1//EN"
 "http://www.w3.org/Graphics/SVG/1.1/DTD/svg11.dtd">
<!-- Generated by graphviz version 2.38.0 (20140413.2041)
 -->
<!-- Title: ConfigOption Pages: 1 -->
<svg width="202pt" height="294pt"
 viewBox="0.00 0.00 202.00 294.00" xmlns="http://www.w3.org/2000/svg" xmlns:xlink="http://www.w3.org/1999/xlink">
<g id="graph0" class="graph" transform="scale(1 1) rotate(0) translate(4 290)">
<title>ConfigOption</title>
<polygon fill="white" stroke="none" points="-4,4 -4,-290 198,-290 198,4 -4,4"/>
<!-- Node0 -->
<g id="node1" class="node"><title>Node0</title>
<polygon fill="#bfbfbf" stroke="black" points="0,-133.5 0,-152.5 74,-152.5 74,-133.5 0,-133.5"/>
<text text-anchor="middle" x="37" y="-140.5" font-family="Helvetica,sans-Serif" font-size="10.00">ConfigOption</text>
</g>
<!-- Node1 -->
<g id="node2" class="node"><title>Node1</title>
<g id="a_node2"><a xlink:href="../../d4/ded/class_config_bool.html" target="_top" xlink:title="Class representing a Boolean type option. ">
<polygon fill="white" stroke="black" points="119.5,-266.5 119.5,-285.5 184.5,-285.5 184.5,-266.5 119.5,-266.5"/>
<text text-anchor="middle" x="152" y="-273.5" font-family="Helvetica,sans-Serif" font-size="10.00">ConfigBool</text>
</a>
</g>
</g>
<!-- Node0&#45;&gt;Node1 -->
<g id="edge1" class="edge"><title>Node0&#45;&gt;Node1</title>
<path fill="none" stroke="midnightblue" d="M45.8191,-161.897C56.8775,-186.62 79.2217,-229.966 110,-257 114.244,-260.728 119.344,-263.861 124.483,-266.44"/>
<polygon fill="midnightblue" stroke="midnightblue" points="48.9573,-160.336 41.779,-152.543 42.5311,-163.112 48.9573,-160.336"/>
</g>
<!-- Node2 -->
<g id="node3" class="node"><title>Node2</title>
<g id="a_node3"><a xlink:href="../../d5/d86/class_config_disabled.html" target="_top" xlink:title="Section marker for compile time optional options. ">
<polygon fill="white" stroke="black" points="110.5,-228.5 110.5,-247.5 193.5,-247.5 193.5,-228.5 110.5,-228.5"/>
<text text-anchor="middle" x="152" y="-235.5" font-family="Helvetica,sans-Serif" font-size="10.00">ConfigDisabled</text>
</a>
</g>
</g>
<!-- Node0&#45;&gt;Node2 -->
<g id="edge2" class="edge"><title>Node0&#45;&gt;Node2</title>
<path fill="none" stroke="midnightblue" d="M51.2245,-160.393C64.6116,-177.094 86.6234,-202.199 110,-219 114.969,-222.571 120.716,-225.73 126.306,-228.397"/>
<polygon fill="midnightblue" stroke="midnightblue" points="53.9722,-158.225 45.0485,-152.514 48.4629,-162.544 53.9722,-158.225"/>
</g>
<!-- Node3 -->
<g id="node4" class="node"><title>Node3</title>
<g id="a_node4"><a xlink:href="../../df/d59/class_config_enum.html" target="_top" xlink:title="Class representing an enum type option. ">
<polygon fill="white" stroke="black" points="116.5,-190.5 116.5,-209.5 187.5,-209.5 187.5,-190.5 116.5,-190.5"/>
<text text-anchor="middle" x="152" y="-197.5" font-family="Helvetica,sans-Serif" font-size="10.00">ConfigEnum</text>
</a>
</g>
</g>
<!-- Node0&#45;&gt;Node3 -->
<g id="edge3" class="edge"><title>Node0&#45;&gt;Node3</title>
<path fill="none" stroke="midnightblue" d="M64.8086,-157.571C78.2834,-164.787 94.9153,-173.53 110,-181 116.327,-184.133 123.273,-187.412 129.621,-190.346"/>
<polygon fill="midnightblue" stroke="midnightblue" points="66.0864,-154.284 55.622,-152.627 62.769,-160.448 66.0864,-154.284"/>
</g>
<!-- Node4 -->
<g id="node5" class="node"><title>Node4</title>
<g id="a_node5"><a xlink:href="../../dd/d89/class_config_info.html" target="_top" xlink:title="Section marker for grouping the configuration options. ">
<polygon fill="white" stroke="black" points="121,-152.5 121,-171.5 183,-171.5 183,-152.5 121,-152.5"/>
<text text-anchor="middle" x="152" y="-159.5" font-family="Helvetica,sans-Serif" font-size="10.00">ConfigInfo</text>
</a>
</g>
</g>
<!-- Node0&#45;&gt;Node4 -->
<g id="edge4" class="edge"><title>Node0&#45;&gt;Node4</title>
<path fill="none" stroke="midnightblue" d="M84.2523,-150.777C96.6358,-152.859 109.699,-155.056 120.953,-156.948"/>
<polygon fill="midnightblue" stroke="midnightblue" points="84.5065,-147.271 74.0646,-149.064 83.3458,-154.174 84.5065,-147.271"/>
</g>
<!-- Node5 -->
<g id="node6" class="node"><title>Node5</title>
<g id="a_node6"><a xlink:href="../../d4/d52/class_config_int.html" target="_top" xlink:title="Class representing an integer type option. ">
<polygon fill="white" stroke="black" points="124,-114.5 124,-133.5 180,-133.5 180,-114.5 124,-114.5"/>
<text text-anchor="middle" x="152" y="-121.5" font-family="Helvetica,sans-Serif" font-size="10.00">ConfigInt</text>
</a>
</g>
</g>
<!-- Node0&#45;&gt;Node5 -->
<g id="edge5" class="edge"><title>Node0&#45;&gt;Node5</title>
<path fill="none" stroke="midnightblue" d="M84.1698,-135.237C97.6613,-132.968 111.966,-130.563 123.865,-128.562"/>
<polygon fill="midnightblue" stroke="midnightblue" points="83.3458,-131.826 74.0646,-136.936 84.5065,-138.729 83.3458,-131.826"/>
</g>
<!-- Node6 -->
<g id="node7" class="node"><title>Node6</title>
<g id="a_node7"><a xlink:href="../../dd/df8/class_config_list.html" target="_top" xlink:title="Class respresenting a list type option. ">
<polygon fill="white" stroke="black" points="121.5,-76.5 121.5,-95.5 182.5,-95.5 182.5,-76.5 121.5,-76.5"/>
<text text-anchor="middle" x="152" y="-83.5" font-family="Helvetica,sans-Serif" font-size="10.00">ConfigList</text>
</a>
</g>
</g>
<!-- Node0&#45;&gt;Node6 -->
<g id="edge6" class="edge"><title>Node0&#45;&gt;Node6</title>
<path fill="none" stroke="midnightblue" d="M64.8086,-128.429C78.2834,-121.213 94.9153,-112.47 110,-105 116.327,-101.867 123.273,-98.5882 129.621,-95.6539"/>
<polygon fill="midnightblue" stroke="midnightblue" points="62.769,-125.552 55.622,-133.373 66.0864,-131.716 62.769,-125.552"/>
</g>
<!-- Node7 -->
<g id="node8" class="node"><title>Node7</title>
<g id="a_node8"><a xlink:href="../../d3/db9/class_config_obsolete.html" target="_top" xlink:title="Section marker for obsolete options. ">
<polygon fill="white" stroke="black" points="110,-38.5 110,-57.5 194,-57.5 194,-38.5 110,-38.5"/>
<text text-anchor="middle" x="152" y="-45.5" font-family="Helvetica,sans-Serif" font-size="10.00">ConfigObsolete</text>
</a>
</g>
</g>
<!-- Node0&#45;&gt;Node7 -->
<g id="edge7" class="edge"><title>Node0&#45;&gt;Node7</title>
<path fill="none" stroke="midnightblue" d="M51.2245,-125.607C64.6116,-108.906 86.6234,-83.8014 110,-67 114.969,-63.4286 120.716,-60.2697 126.306,-57.6035"/>
<polygon fill="midnightblue" stroke="midnightblue" points="48.4629,-123.456 45.0485,-133.486 53.9722,-127.775 48.4629,-123.456"/>
</g>
<!-- Node8 -->
<g id="node9" class="node"><title>Node8</title>
<g id="a_node9"><a xlink:href="../../d1/dff/class_config_string.html" target="_top" xlink:title="Class representing a string type option. ">
<polygon fill="white" stroke="black" points="116.5,-0.5 116.5,-19.5 187.5,-19.5 187.5,-0.5 116.5,-0.5"/>
<text text-anchor="middle" x="152" y="-7.5" font-family="Helvetica,sans-Serif" font-size="10.00">ConfigString</text>
</a>
</g>
</g>
<!-- Node0&#45;&gt;Node8 -->
<g id="edge8" class="edge"><title>Node0&#45;&gt;Node8</title>
<path fill="none" stroke="midnightblue" d="M45.8191,-124.103C56.8775,-99.3795 79.2217,-56.0337 110,-29 114.244,-25.2724 119.344,-22.1386 124.483,-19.5595"/>
<polygon fill="midnightblue" stroke="midnightblue" points="42.5311,-122.888 41.779,-133.457 48.9573,-125.664 42.5311,-122.888"/>
</g>
</g>
</svg>
