<?xml version="1.0" encoding="UTF-8" standalone="no"?>
<!DOCTYPE svg PUBLIC "-//W3C//DTD SVG 1.1//EN"
 "http://www.w3.org/Graphics/SVG/1.1/DTD/svg11.dtd">
<!-- Generated by graphviz version 2.38.0 (20140413.2041)
 -->
<!-- Title: DocHtmlTable Pages: 1 -->
<svg width="483pt" height="238pt"
 viewBox="0.00 0.00 482.50 238.00" xmlns="http://www.w3.org/2000/svg" xmlns:xlink="http://www.w3.org/1999/xlink">
<g id="graph0" class="graph" transform="scale(1 1) rotate(0) translate(4 234)">
<title>DocHtmlTable</title>
<polygon fill="white" stroke="none" points="-4,4 -4,-234 478.5,-234 478.5,4 -4,4"/>
<!-- Node4 -->
<g id="node1" class="node"><title>Node4</title>
<polygon fill="#bfbfbf" stroke="black" points="178.5,-0.5 178.5,-19.5 258.5,-19.5 258.5,-0.5 178.5,-0.5"/>
<text text-anchor="middle" x="218.5" y="-7.5" font-family="Helvetica,sans-Serif" font-size="10.00">DocHtmlTable</text>
</g>
<!-- Node5 -->
<g id="node2" class="node"><title>Node5</title>
<g id="a_node2"><a xlink:href="../../d7/da3/class_comp_accept.html" target="_top" xlink:title="CompAccept\&lt; DocHtmlTable \&gt;">
<polygon fill="white" stroke="black" points="0,-105.5 0,-124.5 155,-124.5 155,-105.5 0,-105.5"/>
<text text-anchor="middle" x="77.5" y="-112.5" font-family="Helvetica,sans-Serif" font-size="10.00">CompAccept&lt; DocHtmlTable &gt;</text>
</a>
</g>
</g>
<!-- Node5&#45;&gt;Node4 -->
<g id="edge1" class="edge"><title>Node5&#45;&gt;Node4</title>
<path fill="none" stroke="midnightblue" d="M95.8041,-99.2124C115.417,-83.5427 147.631,-58.3075 176.5,-38 185.575,-31.6162 196.075,-24.8662 204.306,-19.7122"/>
<polygon fill="midnightblue" stroke="midnightblue" points="93.5855,-96.5052 87.9764,-105.494 97.9664,-101.965 93.5855,-96.5052"/>
</g>
<!-- Node6 -->
<g id="node3" class="node"><title>Node6</title>
<g id="a_node3"><a xlink:href="../../d7/da3/class_comp_accept.html" target="_top" xlink:title="Default accept implementation for compound nodes in the abstract syntax tree. ">
<polygon fill="white" stroke="black" points="111.5,-210.5 111.5,-229.5 209.5,-229.5 209.5,-210.5 111.5,-210.5"/>
<text text-anchor="middle" x="160.5" y="-217.5" font-family="Helvetica,sans-Serif" font-size="10.00">CompAccept&lt; T &gt;</text>
</a>
</g>
</g>
<!-- Node6&#45;&gt;Node5 -->
<g id="edge2" class="edge"><title>Node6&#45;&gt;Node5</title>
<path fill="none" stroke="orange" stroke-dasharray="5,2" d="M115.653,-207.058C93.4287,-198.627 68.6017,-184.836 55.5,-163 47.8054,-150.176 59.3401,-134.221 68.4015,-124.587"/>
<polygon fill="orange" stroke="orange" points="114.706,-210.435 125.301,-210.457 117.033,-203.833 114.706,-210.435"/>
<text text-anchor="middle" x="127" y="-184" font-family="Helvetica,sans-Serif" font-size="10.00"> &lt; DocHtmlTable &gt;</text>
</g>
<!-- Node11 -->
<g id="node8" class="node"><title>Node11</title>
<g id="a_node8"><a xlink:href="../../d7/da3/class_comp_accept.html" target="_top" xlink:title="CompAccept\&lt; DocHtmlCaption \&gt;">
<polygon fill="white" stroke="black" points="202.5,-143.5 202.5,-162.5 366.5,-162.5 366.5,-143.5 202.5,-143.5"/>
<text text-anchor="middle" x="284.5" y="-150.5" font-family="Helvetica,sans-Serif" font-size="10.00">CompAccept&lt; DocHtmlCaption &gt;</text>
</a>
</g>
</g>
<!-- Node6&#45;&gt;Node11 -->
<g id="edge9" class="edge"><title>Node6&#45;&gt;Node11</title>
<path fill="none" stroke="orange" stroke-dasharray="5,2" d="M186.057,-205.603C210.613,-192.731 246.995,-173.66 267.966,-162.667"/>
<polygon fill="orange" stroke="orange" points="184.198,-202.626 176.966,-210.369 187.448,-208.826 184.198,-202.626"/>
<text text-anchor="middle" x="277.5" y="-184" font-family="Helvetica,sans-Serif" font-size="10.00"> &lt; DocHtmlCaption &gt;</text>
</g>
<!-- Node7 -->
<g id="node4" class="node"><title>Node7</title>
<g id="a_node4"><a xlink:href="../../d9/d0e/class_doc_node.html" target="_top" xlink:title="Abstract node interface with type information. ">
<polygon fill="white" stroke="black" points="64.5,-143.5 64.5,-162.5 122.5,-162.5 122.5,-143.5 64.5,-143.5"/>
<text text-anchor="middle" x="93.5" y="-150.5" font-family="Helvetica,sans-Serif" font-size="10.00">DocNode</text>
</a>
</g>
</g>
<!-- Node7&#45;&gt;Node4 -->
<g id="edge3" class="edge"><title>Node7&#45;&gt;Node4</title>
<path fill="none" stroke="midnightblue" d="M132.295,-142.857C143.354,-138.801 154.759,-133.057 163.5,-125 196.3,-94.7663 211.665,-40.7982 216.622,-19.7479"/>
<polygon fill="midnightblue" stroke="midnightblue" points="131.145,-139.551 122.741,-146.002 133.334,-146.199 131.145,-139.551"/>
</g>
<!-- Node7&#45;&gt;Node7 -->
<g id="edge4" class="edge"><title>Node7&#45;&gt;Node7</title>
<path fill="none" stroke="#9a32cd" stroke-dasharray="5,2" d="M133.103,-158.084C137.591,-157.132 140.5,-155.438 140.5,-153 140.5,-149 132.667,-147 122.875,-147"/>
<polygon fill="#9a32cd" stroke="#9a32cd" points="132.523,-154.622 122.875,-159 133.147,-161.594 132.523,-154.622"/>
<text text-anchor="middle" x="162.5" y="-150.5" font-family="Helvetica,sans-Serif" font-size="10.00"> m_parent</text>
</g>
<!-- Node10 -->
<g id="node7" class="node"><title>Node10</title>
<g id="a_node7"><a xlink:href="../../d0/dc7/class_doc_html_caption.html" target="_top" xlink:title="Node representing a HTML table caption. ">
<polygon fill="white" stroke="black" points="227,-67.5 227,-86.5 316,-86.5 316,-67.5 227,-67.5"/>
<text text-anchor="middle" x="271.5" y="-74.5" font-family="Helvetica,sans-Serif" font-size="10.00">DocHtmlCaption</text>
</a>
</g>
</g>
<!-- Node7&#45;&gt;Node10 -->
<g id="edge10" class="edge"><title>Node7&#45;&gt;Node10</title>
<path fill="none" stroke="midnightblue" d="M132.669,-146.162C154.473,-142.013 181.728,-135.311 204.5,-125 226.763,-114.92 249.355,-97.1682 261.784,-86.6042"/>
<polygon fill="midnightblue" stroke="midnightblue" points="131.982,-142.729 122.76,-147.944 133.221,-149.618 131.982,-142.729"/>
</g>
<!-- Node8 -->
<g id="node5" class="node"><title>Node8</title>
<g id="a_node5"><a xlink:href="../../db/d4d/class_html_attrib_list.html" target="_top" xlink:title="A list of Html attributes. ">
<polygon fill="white" stroke="black" points="385,-143.5 385,-162.5 462,-162.5 462,-143.5 385,-143.5"/>
<text text-anchor="middle" x="423.5" y="-150.5" font-family="Helvetica,sans-Serif" font-size="10.00">HtmlAttribList</text>
</a>
</g>
</g>
<!-- Node8&#45;&gt;Node4 -->
<g id="edge5" class="edge"><title>Node8&#45;&gt;Node4</title>
<path fill="none" stroke="#9a32cd" stroke-dasharray="5,2" d="M418.852,-133.374C415.868,-124.124 411.258,-113.202 404.5,-105 365.274,-57.3884 295.793,-31.5007 253.757,-19.5194"/>
<polygon fill="#9a32cd" stroke="#9a32cd" points="415.544,-134.538 421.641,-143.202 422.278,-132.627 415.544,-134.538"/>
<text text-anchor="middle" x="407.5" y="-74.5" font-family="Helvetica,sans-Serif" font-size="10.00"> m_attribs</text>
</g>
<!-- Node8&#45;&gt;Node10 -->
<g id="edge11" class="edge"><title>Node8&#45;&gt;Node10</title>
<path fill="none" stroke="#9a32cd" stroke-dasharray="5,2" d="M392.835,-139.446C382.484,-135.053 370.917,-129.973 360.5,-125 334.166,-112.429 304.315,-96.2582 286.743,-86.5339"/>
<polygon fill="#9a32cd" stroke="#9a32cd" points="391.734,-142.78 402.309,-143.421 394.442,-136.325 391.734,-142.78"/>
<text text-anchor="middle" x="382.5" y="-112.5" font-family="Helvetica,sans-Serif" font-size="10.00"> m_attribs</text>
</g>
<!-- Node9 -->
<g id="node6" class="node"><title>Node9</title>
<polygon fill="white" stroke="#bfbfbf" points="372.5,-210.5 372.5,-229.5 474.5,-229.5 474.5,-210.5 372.5,-210.5"/>
<text text-anchor="middle" x="423.5" y="-217.5" font-family="Helvetica,sans-Serif" font-size="10.00">QList&lt; HtmlAttrib &gt;</text>
</g>
<!-- Node9&#45;&gt;Node8 -->
<g id="edge6" class="edge"><title>Node9&#45;&gt;Node8</title>
<path fill="none" stroke="midnightblue" d="M423.5,-200.037C423.5,-187.67 423.5,-172.12 423.5,-162.627"/>
<polygon fill="midnightblue" stroke="midnightblue" points="420,-200.234 423.5,-210.234 427,-200.234 420,-200.234"/>
</g>
<!-- Node10&#45;&gt;Node4 -->
<g id="edge7" class="edge"><title>Node10&#45;&gt;Node4</title>
<path fill="none" stroke="#9a32cd" stroke-dasharray="5,2" d="M257.859,-59.2705C247.525,-46.5972 233.748,-29.701 225.535,-19.6273"/>
<polygon fill="#9a32cd" stroke="#9a32cd" points="255.32,-61.6954 264.352,-67.2338 260.745,-57.2718 255.32,-61.6954"/>
<text text-anchor="middle" x="273" y="-41" font-family="Helvetica,sans-Serif" font-size="10.00"> m_caption</text>
</g>
<!-- Node11&#45;&gt;Node10 -->
<g id="edge8" class="edge"><title>Node11&#45;&gt;Node10</title>
<path fill="none" stroke="midnightblue" d="M281.175,-133.072C278.559,-118.18 275.033,-98.1111 273.04,-86.7679"/>
<polygon fill="midnightblue" stroke="midnightblue" points="277.78,-133.977 282.958,-143.221 284.675,-132.766 277.78,-133.977"/>
</g>
</g>
</svg>
