<?xml version="1.0" encoding="UTF-8" standalone="no"?>
<!DOCTYPE svg PUBLIC "-//W3C//DTD SVG 1.1//EN"
 "http://www.w3.org/Graphics/SVG/1.1/DTD/svg11.dtd">
<!-- Generated by graphviz version 2.38.0 (20140413.2041)
 -->
<!-- Title: TagFileParser Pages: 1 -->
<!--zoomable 408 -->
<svg id="main" version="1.1" xmlns="http://www.w3.org/2000/svg" xmlns:xlink="http://www.w3.org/1999/xlink" xml:space="preserve" onload="init(evt)">
<style type="text/css"><![CDATA[
.edge:hover path { stroke: red; }
.edge:hover polygon { stroke: red; fill: red; }
]]></style>
<script type="text/javascript"><![CDATA[
var edges = document.getElementsByTagName('g');
if (edges && edges.length) {
  for (var i=0;i<edges.length;i++) {
    if (edges[i].id.substr(0,4)=='edge') {
      edges[i].setAttribute('class','edge');
    }
  }
}
]]></script>
        <defs>
                <circle id="rim" cx="0" cy="0" r="7"/>
                <circle id="rim2" cx="0" cy="0" r="3.5"/>
                <g id="zoomPlus">
                        <use xlink:href="#rim" fill="#404040">
                                <set attributeName="fill" to="#808080" begin="zoomplus.mouseover" end="zoomplus.mouseout"/>
                        </use>
                        <path d="M-4,0h8M0,-4v8" fill="none" stroke="white" stroke-width="1.5" pointer-events="none"/>
                </g>
                <g id="zoomMin">
                        <use xlink:href="#rim" fill="#404040">
                                <set attributeName="fill" to="#808080" begin="zoomminus.mouseover" end="zoomminus.mouseout"/>
                        </use>
                        <path d="M-4,0h8" fill="none" stroke="white" stroke-width="1.5" pointer-events="none"/>
                </g>
                <g id="dirArrow">
                        <path fill="none" stroke="white" stroke-width="1.5" d="M0,-3.0v7 M-2.5,-0.5L0,-3.0L2.5,-0.5"/>
                </g>
               <g id="resetDef">
                       <use xlink:href="#rim2" fill="#404040">
                               <set attributeName="fill" to="#808080" begin="reset.mouseover" end="reset.mouseout"/>
                       </use>
               </g>
        </defs>

<script type="text/javascript">
var viewWidth = 657;
var viewHeight = 408;
var sectionId = 'dynsection-1';
</script>
<script xlink:href="../../svgpan.js"/>
<svg id="graph" class="graph">
<g id="viewport">
<title>TagFileParser</title>
<polygon fill="white" stroke="none" points="-4,4 -4,-404 653,-404 653,4 -4,4"/>
<!-- Node2 -->
<g id="node1" class="node"><title>Node2</title>
<polygon fill="#bfbfbf" stroke="black" points="572,-190.5 572,-209.5 649,-209.5 649,-190.5 572,-190.5"/>
<text text-anchor="middle" x="610.5" y="-197.5" font-family="Helvetica,sans-Serif" font-size="10.00">TagFileParser</text>
</g>
<!-- Node3 -->
<g id="node2" class="node"><title>Node3</title>
<polygon fill="white" stroke="#bfbfbf" points="346,-380.5 346,-399.5 453,-399.5 453,-380.5 346,-380.5"/>
<text text-anchor="middle" x="399.5" y="-387.5" font-family="Helvetica,sans-Serif" font-size="10.00">QXmlDefaultHandler</text>
</g>
<!-- Node3&#45;&gt;Node2 -->
<g id="edge1" class="edge"><title>Node3&#45;&gt;Node2</title>
<path fill="none" stroke="midnightblue" d="M463.186,-395.055C493.75,-394.211 529.174,-387.883 554,-367 603.333,-325.503 609.047,-238.962 609.531,-209.82"/>
<polygon fill="midnightblue" stroke="midnightblue" points="462.999,-391.557 453.03,-395.145 463.061,-398.557 462.999,-391.557"/>
</g>
<!-- Node4 -->
<g id="node3" class="node"><title>Node4</title>
<g id="a_node3"><a xlink:href="../../d3/ddb/class_tag_member_info.html" target="_top" xlink:title="Container for member specific info that can be read from a tagfile. ">
<polygon fill="white" stroke="black" points="357,-342.5 357,-361.5 442,-361.5 442,-342.5 357,-342.5"/>
<text text-anchor="middle" x="399.5" y="-349.5" font-family="Helvetica,sans-Serif" font-size="10.00">TagMemberInfo</text>
</a>
</g>
</g>
<!-- Node4&#45;&gt;Node2 -->
<g id="edge2" class="edge"><title>Node4&#45;&gt;Node2</title>
<path fill="none" stroke="#9a32cd" stroke-dasharray="5,2" d="M452.4,-354.248C484.723,-353.026 525.44,-346.404 554,-324 591.857,-294.303 604.622,-233.194 608.246,-209.594"/>
<polygon fill="#9a32cd" stroke="#9a32cd" points="452.148,-350.753 442.226,-354.469 452.3,-357.751 452.148,-350.753"/>
<text text-anchor="middle" x="512.5" y="-355" font-family="Helvetica,sans-Serif" font-size="10.00"> m_curMember</text>
</g>
<!-- Node5 -->
<g id="node4" class="node"><title>Node5</title>
<g id="a_node4"><a xlink:href="../../dc/d84/class_tag_anchor_info_list.html" target="_top" xlink:title="List of TagAnchorInfo objects. ">
<polygon fill="white" stroke="black" points="159,-209.5 159,-228.5 255,-228.5 255,-209.5 159,-209.5"/>
<text text-anchor="middle" x="207" y="-216.5" font-family="Helvetica,sans-Serif" font-size="10.00">TagAnchorInfoList</text>
</a>
</g>
</g>
<!-- Node5&#45;&gt;Node4 -->
<g id="edge3" class="edge"><title>Node5&#45;&gt;Node4</title>
<path fill="none" stroke="#9a32cd" stroke-dasharray="5,2" d="M216.631,-237.701C227.133,-258.478 246.765,-291.641 273,-311 297.714,-329.237 330.941,-339.616 356.998,-345.366"/>
<polygon fill="#9a32cd" stroke="#9a32cd" points="219.734,-236.079 212.219,-228.611 213.437,-239.136 219.734,-236.079"/>
<text text-anchor="middle" x="300.5" y="-340" font-family="Helvetica,sans-Serif" font-size="10.00"> docAnchors</text>
</g>
<!-- Node7 -->
<g id="node6" class="node"><title>Node7</title>
<g id="a_node6"><a xlink:href="../../d8/d0d/class_tag_dir_info.html" target="_top" xlink:title="Container for directory specific info that can be read from a tagfile. ">
<polygon fill="white" stroke="black" points="368.5,-304.5 368.5,-323.5 430.5,-323.5 430.5,-304.5 368.5,-304.5"/>
<text text-anchor="middle" x="399.5" y="-311.5" font-family="Helvetica,sans-Serif" font-size="10.00">TagDirInfo</text>
</a>
</g>
</g>
<!-- Node5&#45;&gt;Node7 -->
<g id="edge6" class="edge"><title>Node5&#45;&gt;Node7</title>
<path fill="none" stroke="#9a32cd" stroke-dasharray="5,2" d="M223.993,-236.133C236.34,-248.469 254.406,-264.691 273,-275 303.431,-291.871 342.141,-302.481 368.468,-308.303"/>
<polygon fill="#9a32cd" stroke="#9a32cd" points="226.237,-233.42 216.758,-228.688 221.218,-238.298 226.237,-233.42"/>
<text text-anchor="middle" x="300.5" y="-299" font-family="Helvetica,sans-Serif" font-size="10.00"> docAnchors</text>
</g>
<!-- Node9 -->
<g id="node8" class="node"><title>Node9</title>
<g id="a_node8"><a xlink:href="../../d3/d48/class_tag_package_info.html" target="_top" xlink:title="Container for package specific info that can be read from a tagfile. ">
<polygon fill="white" stroke="black" points="355.5,-266.5 355.5,-285.5 443.5,-285.5 443.5,-266.5 355.5,-266.5"/>
<text text-anchor="middle" x="399.5" y="-273.5" font-family="Helvetica,sans-Serif" font-size="10.00">TagPackageInfo</text>
</a>
</g>
</g>
<!-- Node5&#45;&gt;Node9 -->
<g id="edge9" class="edge"><title>Node5&#45;&gt;Node9</title>
<path fill="none" stroke="#9a32cd" stroke-dasharray="5,2" d="M239.011,-232.42C249.669,-236.759 261.75,-241.38 273,-245 300.026,-253.697 330.986,-261.368 355.394,-266.904"/>
<polygon fill="#9a32cd" stroke="#9a32cd" points="240.266,-229.151 229.688,-228.55 237.583,-235.616 240.266,-229.151"/>
<text text-anchor="middle" x="300.5" y="-263" font-family="Helvetica,sans-Serif" font-size="10.00"> docAnchors</text>
</g>
<!-- Node10 -->
<g id="node9" class="node"><title>Node10</title>
<g id="a_node9"><a xlink:href="../../d7/d5c/class_tag_page_info.html" target="_top" xlink:title="Container for page specific info that can be read from a tagfile. ">
<polygon fill="white" stroke="black" points="363.5,-228.5 363.5,-247.5 435.5,-247.5 435.5,-228.5 363.5,-228.5"/>
<text text-anchor="middle" x="399.5" y="-235.5" font-family="Helvetica,sans-Serif" font-size="10.00">TagPageInfo</text>
</a>
</g>
</g>
<!-- Node5&#45;&gt;Node10 -->
<g id="edge11" class="edge"><title>Node5&#45;&gt;Node10</title>
<path fill="none" stroke="#9a32cd" stroke-dasharray="5,2" d="M265.188,-224.704C297.101,-227.887 335.836,-231.75 363.31,-234.49"/>
<polygon fill="#9a32cd" stroke="#9a32cd" points="265.388,-221.206 255.09,-223.697 264.693,-228.172 265.388,-221.206"/>
<text text-anchor="middle" x="300.5" y="-233" font-family="Helvetica,sans-Serif" font-size="10.00"> docAnchors</text>
</g>
<!-- Node11 -->
<g id="node10" class="node"><title>Node11</title>
<g id="a_node10"><a xlink:href="../../d3/d0c/class_tag_class_info.html" target="_top" xlink:title="Container for class specific info that can be read from a tagfile. ">
<polygon fill="white" stroke="black" points="362,-190.5 362,-209.5 437,-209.5 437,-190.5 362,-190.5"/>
<text text-anchor="middle" x="399.5" y="-197.5" font-family="Helvetica,sans-Serif" font-size="10.00">TagClassInfo</text>
</a>
</g>
</g>
<!-- Node5&#45;&gt;Node11 -->
<g id="edge13" class="edge"><title>Node5&#45;&gt;Node11</title>
<path fill="none" stroke="#9a32cd" stroke-dasharray="5,2" d="M265.288,-210.882C267.893,-210.571 270.473,-210.275 273,-210 302.877,-206.744 336.864,-204.101 361.928,-202.351"/>
<polygon fill="#9a32cd" stroke="#9a32cd" points="264.668,-207.432 255.177,-212.14 265.533,-214.378 264.668,-207.432"/>
<text text-anchor="middle" x="300.5" y="-213" font-family="Helvetica,sans-Serif" font-size="10.00"> docAnchors</text>
</g>
<!-- Node12 -->
<g id="node11" class="node"><title>Node12</title>
<g id="a_node11"><a xlink:href="../../d5/dad/class_tag_namespace_info.html" target="_top" xlink:title="Container for namespace specific info that can be read from a tagfile. ">
<polygon fill="white" stroke="black" points="348.5,-152.5 348.5,-171.5 450.5,-171.5 450.5,-152.5 348.5,-152.5"/>
<text text-anchor="middle" x="399.5" y="-159.5" font-family="Helvetica,sans-Serif" font-size="10.00">TagNamespaceInfo</text>
</a>
</g>
</g>
<!-- Node5&#45;&gt;Node12 -->
<g id="edge15" class="edge"><title>Node5&#45;&gt;Node12</title>
<path fill="none" stroke="#9a32cd" stroke-dasharray="5,2" d="M236.001,-205.031C247.293,-199.79 260.569,-194.114 273,-190 297.373,-181.934 325.174,-175.465 348.404,-170.785"/>
<polygon fill="#9a32cd" stroke="#9a32cd" points="234.187,-202.018 226.66,-209.474 237.193,-208.34 234.187,-202.018"/>
<text text-anchor="middle" x="300.5" y="-193" font-family="Helvetica,sans-Serif" font-size="10.00"> docAnchors</text>
</g>
<!-- Node14 -->
<g id="node13" class="node"><title>Node14</title>
<g id="a_node13"><a xlink:href="../../d6/d52/class_tag_group_info.html" target="_top" xlink:title="Container for group specific info that can be read from a tagfile. ">
<polygon fill="white" stroke="black" points="361.5,-114.5 361.5,-133.5 437.5,-133.5 437.5,-114.5 361.5,-114.5"/>
<text text-anchor="middle" x="399.5" y="-121.5" font-family="Helvetica,sans-Serif" font-size="10.00">TagGroupInfo</text>
</a>
</g>
</g>
<!-- Node5&#45;&gt;Node14 -->
<g id="edge18" class="edge"><title>Node5&#45;&gt;Node14</title>
<path fill="none" stroke="#9a32cd" stroke-dasharray="5,2" d="M222.986,-201.611C235.216,-188.434 253.595,-170.809 273,-160 300.624,-144.613 335.408,-135.306 361.346,-130.021"/>
<polygon fill="#9a32cd" stroke="#9a32cd" points="220.298,-199.365 216.211,-209.14 225.501,-204.048 220.298,-199.365"/>
<text text-anchor="middle" x="300.5" y="-163" font-family="Helvetica,sans-Serif" font-size="10.00"> docAnchors</text>
</g>
<!-- Node15 -->
<g id="node14" class="node"><title>Node15</title>
<g id="a_node14"><a xlink:href="../../dc/dc1/class_tag_file_info.html" target="_top" xlink:title="Container for file specific info that can be read from a tagfile. ">
<polygon fill="white" stroke="black" points="367,-76.5 367,-95.5 432,-95.5 432,-76.5 367,-76.5"/>
<text text-anchor="middle" x="399.5" y="-83.5" font-family="Helvetica,sans-Serif" font-size="10.00">TagFileInfo</text>
</a>
</g>
</g>
<!-- Node5&#45;&gt;Node15 -->
<g id="edge20" class="edge"><title>Node5&#45;&gt;Node15</title>
<path fill="none" stroke="#9a32cd" stroke-dasharray="5,2" d="M215.867,-200.307C225.96,-178.565 245.505,-143.096 273,-123 300.875,-102.626 339.892,-93.4023 366.993,-89.2704"/>
<polygon fill="#9a32cd" stroke="#9a32cd" points="212.65,-198.928 211.789,-209.488 219.047,-201.77 212.65,-198.928"/>
<text text-anchor="middle" x="300.5" y="-126" font-family="Helvetica,sans-Serif" font-size="10.00"> docAnchors</text>
</g>
<!-- Node6 -->
<g id="node5" class="node"><title>Node6</title>
<polygon fill="white" stroke="#bfbfbf" points="0,-209.5 0,-228.5 122,-228.5 122,-209.5 0,-209.5"/>
<text text-anchor="middle" x="61" y="-216.5" font-family="Helvetica,sans-Serif" font-size="10.00">QList&lt; TagAnchorInfo &gt;</text>
</g>
<!-- Node6&#45;&gt;Node5 -->
<g id="edge4" class="edge"><title>Node6&#45;&gt;Node5</title>
<path fill="none" stroke="midnightblue" d="M132.298,-219C141.25,-219 150.237,-219 158.706,-219"/>
<polygon fill="midnightblue" stroke="midnightblue" points="132.235,-215.5 122.235,-219 132.235,-222.5 132.235,-215.5"/>
</g>
<!-- Node7&#45;&gt;Node2 -->
<g id="edge5" class="edge"><title>Node7&#45;&gt;Node2</title>
<path fill="none" stroke="#9a32cd" stroke-dasharray="5,2" d="M440.931,-313.378C473.877,-311.083 520.298,-303.61 554,-281 581.038,-262.86 598.625,-226.699 605.812,-209.506"/>
<polygon fill="#9a32cd" stroke="#9a32cd" points="440.527,-309.895 430.74,-313.954 440.922,-316.884 440.527,-309.895"/>
<text text-anchor="middle" x="512.5" y="-312" font-family="Helvetica,sans-Serif" font-size="10.00"> m_curDir</text>
</g>
<!-- Node8 -->
<g id="node7" class="node"><title>Node8</title>
<g id="a_node7"><a xlink:href="../../d1/db6/class_tag_include_info.html" target="_top" xlink:title="Container for include info that can be read from a tagfile. ">
<polygon fill="white" stroke="black" points="359,-38.5 359,-57.5 440,-57.5 440,-38.5 359,-38.5"/>
<text text-anchor="middle" x="399.5" y="-45.5" font-family="Helvetica,sans-Serif" font-size="10.00">TagIncludeInfo</text>
</a>
</g>
</g>
<!-- Node8&#45;&gt;Node2 -->
<g id="edge7" class="edge"><title>Node8&#45;&gt;Node2</title>
<path fill="none" stroke="#9a32cd" stroke-dasharray="5,2" d="M450.438,-44.4815C483.054,-44.776 524.843,-50.3657 554,-73 592.964,-103.248 605.114,-166.491 608.409,-190.489"/>
<polygon fill="#9a32cd" stroke="#9a32cd" points="450.173,-40.9833 440.199,-44.5571 450.224,-47.9831 450.173,-40.9833"/>
<text text-anchor="middle" x="512.5" y="-76" font-family="Helvetica,sans-Serif" font-size="10.00"> m_curIncludes</text>
</g>
<!-- Node9&#45;&gt;Node2 -->
<g id="edge8" class="edge"><title>Node9&#45;&gt;Node2</title>
<path fill="none" stroke="#9a32cd" stroke-dasharray="5,2" d="M453.765,-269.944C484.163,-265.1 522.39,-256.608 554,-242 571.769,-233.788 589.275,-219.15 599.734,-209.508"/>
<polygon fill="#9a32cd" stroke="#9a32cd" points="453.143,-266.499 443.777,-271.451 454.187,-273.42 453.143,-266.499"/>
<text text-anchor="middle" x="512.5" y="-269" font-family="Helvetica,sans-Serif" font-size="10.00"> m_curPackage</text>
</g>
<!-- Node10&#45;&gt;Node2 -->
<g id="edge10" class="edge"><title>Node10&#45;&gt;Node2</title>
<path fill="none" stroke="#9a32cd" stroke-dasharray="5,2" d="M445.689,-232.049C476.369,-227.737 517.788,-221.382 554,-214 560.426,-212.69 567.228,-211.125 573.785,-209.523"/>
<polygon fill="#9a32cd" stroke="#9a32cd" points="445.143,-228.591 435.719,-233.432 446.105,-235.525 445.143,-228.591"/>
<text text-anchor="middle" x="512.5" y="-230" font-family="Helvetica,sans-Serif" font-size="10.00"> m_curPage</text>
</g>
<!-- Node11&#45;&gt;Node2 -->
<g id="edge12" class="edge"><title>Node11&#45;&gt;Node2</title>
<path fill="none" stroke="#9a32cd" stroke-dasharray="5,2" d="M447.576,-200C485.155,-200 537.103,-200 571.929,-200"/>
<polygon fill="#9a32cd" stroke="#9a32cd" points="447.384,-196.5 437.384,-200 447.384,-203.5 447.384,-196.5"/>
<text text-anchor="middle" x="512.5" y="-203" font-family="Helvetica,sans-Serif" font-size="10.00"> m_curClass</text>
</g>
<!-- Node12&#45;&gt;Node2 -->
<g id="edge14" class="edge"><title>Node12&#45;&gt;Node2</title>
<path fill="none" stroke="#9a32cd" stroke-dasharray="5,2" d="M460.722,-169.388C489.149,-173.293 523.463,-178.608 554,-185 561.425,-186.554 569.333,-188.508 576.782,-190.486"/>
<polygon fill="#9a32cd" stroke="#9a32cd" points="460.911,-165.882 450.533,-168.014 459.975,-172.82 460.911,-165.882"/>
<text text-anchor="middle" x="512.5" y="-188" font-family="Helvetica,sans-Serif" font-size="10.00"> m_curNamespace</text>
</g>
<!-- Node13 -->
<g id="node12" class="node"><title>Node13</title>
<g id="a_node12"><a xlink:href="../../dc/dd2/class_tag_enum_value_info.html" target="_top" xlink:title="Container for enum values that are scoped within an enum. ">
<polygon fill="white" stroke="black" points="349.5,-0.5 349.5,-19.5 449.5,-19.5 449.5,-0.5 349.5,-0.5"/>
<text text-anchor="middle" x="399.5" y="-7.5" font-family="Helvetica,sans-Serif" font-size="10.00">TagEnumValueInfo</text>
</a>
</g>
</g>
<!-- Node13&#45;&gt;Node2 -->
<g id="edge16" class="edge"><title>Node13&#45;&gt;Node2</title>
<path fill="none" stroke="#9a32cd" stroke-dasharray="5,2" d="M460.083,-3.96095C491.305,-4.01508 528.288,-9.57359 554,-31 604.296,-72.9121 609.351,-161.306 609.602,-190.453"/>
<polygon fill="#9a32cd" stroke="#9a32cd" points="459.679,-0.467285 449.74,-4.13864 459.799,-7.46625 459.679,-0.467285"/>
<text text-anchor="middle" x="512.5" y="-34" font-family="Helvetica,sans-Serif" font-size="10.00"> m_curEnumValue</text>
</g>
<!-- Node14&#45;&gt;Node2 -->
<g id="edge17" class="edge"><title>Node14&#45;&gt;Node2</title>
<path fill="none" stroke="#9a32cd" stroke-dasharray="5,2" d="M447.885,-128.143C479.177,-132.237 520.444,-140.287 554,-156 572.263,-164.552 589.903,-180.204 600.224,-190.35"/>
<polygon fill="#9a32cd" stroke="#9a32cd" points="448.03,-124.635 437.68,-126.901 447.184,-131.583 448.03,-124.635"/>
<text text-anchor="middle" x="512.5" y="-159" font-family="Helvetica,sans-Serif" font-size="10.00"> m_curGroup</text>
</g>
<!-- Node15&#45;&gt;Node2 -->
<g id="edge19" class="edge"><title>Node15&#45;&gt;Node2</title>
<path fill="none" stroke="#9a32cd" stroke-dasharray="5,2" d="M442.496,-85.6194C475.371,-87.2313 520.915,-93.8494 554,-116 581.887,-134.67 599.162,-172.585 606.057,-190.376"/>
<polygon fill="#9a32cd" stroke="#9a32cd" points="442.416,-82.1145 432.298,-85.2586 442.168,-89.1101 442.416,-82.1145"/>
<text text-anchor="middle" x="512.5" y="-119" font-family="Helvetica,sans-Serif" font-size="10.00"> m_curFile</text>
</g>
</g>
</svg>
        <g id="navigator" transform="translate(0 0)" fill="#404254">
                <rect fill="#f2f5e9" fill-opacity="0.5" stroke="#606060" stroke-width=".5" x="0" y="0" width="60" height="60"/>
                <use id="zoomplus" xlink:href="#zoomPlus" x="17" y="9" onmousedown="handleZoom(evt,'in')"/>
                <use id="zoomminus" xlink:href="#zoomMin" x="42" y="9" onmousedown="handleZoom(evt,'out')"/>
                <use id="reset" xlink:href="#resetDef" x="30" y="36" onmousedown="handleReset()"/>
                <g id="arrowUp" xlink:href="#dirArrow" transform="translate(30 24)" onmousedown="handlePan(0,-1)">
                  <use xlink:href="#rim" fill="#404040">
                        <set attributeName="fill" to="#808080" begin="arrowUp.mouseover" end="arrowUp.mouseout"/>
                  </use>
                  <path fill="none" stroke="white" stroke-width="1.5" d="M0,-3.0v7 M-2.5,-0.5L0,-3.0L2.5,-0.5"/>
                </g>
                <g id="arrowRight" xlink:href="#dirArrow" transform="rotate(90) translate(36 -43)" onmousedown="handlePan(1,0)">
                  <use xlink:href="#rim" fill="#404040">
                        <set attributeName="fill" to="#808080" begin="arrowRight.mouseover" end="arrowRight.mouseout"/>
                  </use>
                  <path fill="none" stroke="white" stroke-width="1.5" d="M0,-3.0v7 M-2.5,-0.5L0,-3.0L2.5,-0.5"/>
                </g>
                <g id="arrowDown" xlink:href="#dirArrow" transform="rotate(180) translate(-30 -48)" onmousedown="handlePan(0,1)">
                  <use xlink:href="#rim" fill="#404040">
                        <set attributeName="fill" to="#808080" begin="arrowDown.mouseover" end="arrowDown.mouseout"/>
                  </use>
                  <path fill="none" stroke="white" stroke-width="1.5" d="M0,-3.0v7 M-2.5,-0.5L0,-3.0L2.5,-0.5"/>
                </g>
                <g id="arrowLeft" xlink:href="#dirArrow" transform="rotate(270) translate(-36 17)" onmousedown="handlePan(-1,0)">
                  <use xlink:href="#rim" fill="#404040">
                        <set attributeName="fill" to="#808080" begin="arrowLeft.mouseover" end="arrowLeft.mouseout"/>
                  </use>
                  <path fill="none" stroke="white" stroke-width="1.5" d="M0,-3.0v7 M-2.5,-0.5L0,-3.0L2.5,-0.5"/>
                </g>
        </g>
        <svg viewBox="0 0 15 15" width="100%" height="30px" preserveAspectRatio="xMaxYMin meet">
         <g id="arrow_out" transform="scale(0.3 0.3)">
          <a xlink:href="class_tag_file_parser__coll__graph_org.svg" target="_base">
           <rect id="button" ry="5" rx="5" y="6" x="6" height="38" width="38"
                fill="#f2f5e9" fill-opacity="0.5" stroke="#606060" stroke-width="1.0"/>
           <path id="arrow"
             d="M 11.500037,31.436501 C 11.940474,20.09759 22.043105,11.32322 32.158766,21.979434 L 37.068811,17.246167 C 37.068811,17.246167 37.088388,32 37.088388,32 L 22.160133,31.978069 C 22.160133,31.978069 26.997745,27.140456 26.997745,27.140456 C 18.528582,18.264221 13.291696,25.230495 11.500037,31.436501 z"
             style="fill:#404040;"/>
          </a>
         </g>
        </svg>
</svg>
