<?xml version="1.0" encoding="UTF-8" standalone="no"?>
<!DOCTYPE svg PUBLIC "-//W3C//DTD SVG 1.1//EN"
 "http://www.w3.org/Graphics/SVG/1.1/DTD/svg11.dtd">
<!-- Generated by graphviz version 2.38.0 (20140413.2041)
 -->
<!-- Title: SIntList&lt; T &gt; Pages: 1 -->
<svg width="398pt" height="152pt"
 viewBox="0.00 0.00 397.50 152.00" xmlns="http://www.w3.org/2000/svg" xmlns:xlink="http://www.w3.org/1999/xlink">
<g id="graph0" class="graph" transform="scale(1 1) rotate(0) translate(4 148)">
<title>SIntList&lt; T &gt;</title>
<polygon fill="white" stroke="none" points="-4,4 -4,-148 393.5,-148 393.5,4 -4,4"/>
<!-- Node0 -->
<g id="node1" class="node"><title>Node0</title>
<polygon fill="#bfbfbf" stroke="black" points="153,-67.5 153,-86.5 227,-86.5 227,-67.5 153,-67.5"/>
<text text-anchor="middle" x="190" y="-74.5" font-family="Helvetica,sans-Serif" font-size="10.00">SIntList&lt; T &gt;</text>
</g>
<!-- Node2 -->
<g id="node3" class="node"><title>Node2</title>
<g id="a_node3"><a xlink:href="../../d8/d9a/class_s_int_list.html" target="_top" xlink:title="SIntList\&lt; MemberGroup \&gt;">
<polygon fill="white" stroke="black" points="0,-0.5 0,-19.5 130,-19.5 130,-0.5 0,-0.5"/>
<text text-anchor="middle" x="65" y="-7.5" font-family="Helvetica,sans-Serif" font-size="10.00">SIntList&lt; MemberGroup &gt;</text>
</a>
</g>
</g>
<!-- Node0&#45;&gt;Node2 -->
<g id="edge2" class="edge"><title>Node0&#45;&gt;Node2</title>
<path fill="none" stroke="orange" stroke-dasharray="5,2" d="M143.124,-65.9613C129.595,-61.8928 115.202,-56.3666 103,-49 90.2206,-41.2847 78.5717,-28.3697 71.6321,-19.7685"/>
<polygon fill="orange" stroke="orange" points="142.206,-69.3386 152.78,-68.6717 144.098,-62.5991 142.206,-69.3386"/>
<text text-anchor="middle" x="144.5" y="-41" font-family="Helvetica,sans-Serif" font-size="10.00"> &lt; MemberGroup &gt;</text>
</g>
<!-- Node3 -->
<g id="node4" class="node"><title>Node3</title>
<g id="a_node4"><a xlink:href="../../d8/d9a/class_s_int_list.html" target="_top" xlink:title="SIntList\&lt; uint \&gt;">
<polygon fill="white" stroke="black" points="148,-0.5 148,-19.5 232,-19.5 232,-0.5 148,-0.5"/>
<text text-anchor="middle" x="190" y="-7.5" font-family="Helvetica,sans-Serif" font-size="10.00">SIntList&lt; uint &gt;</text>
</a>
</g>
</g>
<!-- Node0&#45;&gt;Node3 -->
<g id="edge3" class="edge"><title>Node0&#45;&gt;Node3</title>
<path fill="none" stroke="orange" stroke-dasharray="5,2" d="M190,-57.037C190,-44.6703 190,-29.1198 190,-19.6273"/>
<polygon fill="orange" stroke="orange" points="186.5,-57.2338 190,-67.2338 193.5,-57.2338 186.5,-57.2338"/>
<text text-anchor="middle" x="208.5" y="-41" font-family="Helvetica,sans-Serif" font-size="10.00"> &lt; uint &gt;</text>
</g>
<!-- Node4 -->
<g id="node5" class="node"><title>Node4</title>
<g id="a_node5"><a xlink:href="../../d8/d9a/class_s_int_list.html" target="_top" xlink:title="SIntList\&lt; SearchIndexList \&gt;">
<polygon fill="white" stroke="black" points="250.5,-0.5 250.5,-19.5 389.5,-19.5 389.5,-0.5 250.5,-0.5"/>
<text text-anchor="middle" x="320" y="-7.5" font-family="Helvetica,sans-Serif" font-size="10.00">SIntList&lt; SearchIndexList &gt;</text>
</a>
</g>
</g>
<!-- Node0&#45;&gt;Node4 -->
<g id="edge4" class="edge"><title>Node0&#45;&gt;Node4</title>
<path fill="none" stroke="orange" stroke-dasharray="5,2" d="M216.452,-62.7739C242.2,-49.8999 280.583,-30.7086 302.666,-19.6672"/>
<polygon fill="orange" stroke="orange" points="214.642,-59.7658 207.263,-67.3685 217.773,-66.0268 214.642,-59.7658"/>
<text text-anchor="middle" x="309" y="-41" font-family="Helvetica,sans-Serif" font-size="10.00"> &lt; SearchIndexList &gt;</text>
</g>
<!-- Node1 -->
<g id="node2" class="node"><title>Node1</title>
<polygon fill="white" stroke="#bfbfbf" points="158,-124.5 158,-143.5 222,-143.5 222,-124.5 158,-124.5"/>
<text text-anchor="middle" x="190" y="-131.5" font-family="Helvetica,sans-Serif" font-size="10.00">QList&lt; T &gt;</text>
</g>
<!-- Node1&#45;&gt;Node0 -->
<g id="edge1" class="edge"><title>Node1&#45;&gt;Node0</title>
<path fill="none" stroke="midnightblue" d="M190,-114.117C190,-104.817 190,-94.0557 190,-86.7149"/>
<polygon fill="midnightblue" stroke="midnightblue" points="186.5,-114.406 190,-124.406 193.5,-114.406 186.5,-114.406"/>
</g>
</g>
</svg>
