<?xml version="1.0" encoding="UTF-8" standalone="no"?>
<!DOCTYPE svg PUBLIC "-//W3C//DTD SVG 1.1//EN"
 "http://www.w3.org/Graphics/SVG/1.1/DTD/svg11.dtd">
<!-- Generated by graphviz version 2.38.0 (20140413.2041)
 -->
<!-- Title: src/code.h Pages: 1 -->
<svg width="456pt" height="84pt"
 viewBox="0.00 0.00 456.00 84.00" xmlns="http://www.w3.org/2000/svg" xmlns:xlink="http://www.w3.org/1999/xlink">
<g id="graph0" class="graph" transform="scale(1 1) rotate(0) translate(4 80)">
<title>src/code.h</title>
<polygon fill="white" stroke="none" points="-4,4 -4,-80 452,-80 452,4 -4,4"/>
<!-- Node3 -->
<g id="node1" class="node"><title>Node3</title>
<polygon fill="#bfbfbf" stroke="black" points="181.5,-56.5 181.5,-75.5 243.5,-75.5 243.5,-56.5 181.5,-56.5"/>
<text text-anchor="middle" x="212.5" y="-63.5" font-family="Helvetica,sans-Serif" font-size="10.00">src/code.h</text>
</g>
<!-- Node4 -->
<g id="node2" class="node"><title>Node4</title>
<g id="a_node2"><a xlink:href="../../d3/dea/definition_8cpp.html" target="_top" xlink:title="src/definition.cpp">
<polygon fill="white" stroke="black" points="0,-0.5 0,-19.5 91,-19.5 91,-0.5 0,-0.5"/>
<text text-anchor="middle" x="45.5" y="-7.5" font-family="Helvetica,sans-Serif" font-size="10.00">src/definition.cpp</text>
</a>
</g>
</g>
<!-- Node3&#45;&gt;Node4 -->
<g id="edge1" class="edge"><title>Node3&#45;&gt;Node4</title>
<path fill="none" stroke="midnightblue" d="M176.33,-53.3044C144.863,-43.1294 100.006,-28.6246 71.8378,-19.5164"/>
<polygon fill="midnightblue" stroke="midnightblue" points="175.447,-56.697 186.038,-56.4435 177.6,-50.0366 175.447,-56.697"/>
</g>
<!-- Node5 -->
<g id="node3" class="node"><title>Node5</title>
<g id="a_node3"><a xlink:href="../../dc/d98/doxygen_8cpp.html" target="_top" xlink:title="src/doxygen.cpp">
<polygon fill="white" stroke="black" points="109,-0.5 109,-19.5 198,-19.5 198,-0.5 109,-0.5"/>
<text text-anchor="middle" x="153.5" y="-7.5" font-family="Helvetica,sans-Serif" font-size="10.00">src/doxygen.cpp</text>
</a>
</g>
</g>
<!-- Node3&#45;&gt;Node5 -->
<g id="edge2" class="edge"><title>Node3&#45;&gt;Node5</title>
<path fill="none" stroke="midnightblue" d="M195.605,-49.5372C185.085,-39.9087 171.931,-27.8694 163.152,-19.8339"/>
<polygon fill="midnightblue" stroke="midnightblue" points="193.281,-52.1542 203.021,-56.324 198.007,-46.9905 193.281,-52.1542"/>
</g>
<!-- Node6 -->
<g id="node4" class="node"><title>Node6</title>
<g id="a_node4"><a xlink:href="../../d8/dde/mandocvisitor_8cpp.html" target="_top" xlink:title="src/mandocvisitor.cpp">
<polygon fill="white" stroke="black" points="216,-0.5 216,-19.5 329,-19.5 329,-0.5 216,-0.5"/>
<text text-anchor="middle" x="272.5" y="-7.5" font-family="Helvetica,sans-Serif" font-size="10.00">src/mandocvisitor.cpp</text>
</a>
</g>
</g>
<!-- Node3&#45;&gt;Node6 -->
<g id="edge3" class="edge"><title>Node3&#45;&gt;Node6</title>
<path fill="none" stroke="midnightblue" d="M229.681,-49.5372C240.379,-39.9087 253.756,-27.8694 262.685,-19.8339"/>
<polygon fill="midnightblue" stroke="midnightblue" points="227.232,-47.0327 222.14,-56.324 231.914,-52.2358 227.232,-47.0327"/>
</g>
<!-- Node7 -->
<g id="node5" class="node"><title>Node7</title>
<g id="a_node5"><a xlink:href="../../d0/d72/memberdef_8cpp.html" target="_top" xlink:title="src/memberdef.cpp">
<polygon fill="white" stroke="black" points="347,-0.5 347,-19.5 448,-19.5 448,-0.5 347,-0.5"/>
<text text-anchor="middle" x="397.5" y="-7.5" font-family="Helvetica,sans-Serif" font-size="10.00">src/memberdef.cpp</text>
</a>
</g>
</g>
<!-- Node3&#45;&gt;Node7 -->
<g id="edge4" class="edge"><title>Node3&#45;&gt;Node7</title>
<path fill="none" stroke="midnightblue" d="M251.666,-53.5677C286.565,-43.381 336.849,-28.7034 368.323,-19.5164"/>
<polygon fill="midnightblue" stroke="midnightblue" points="250.433,-50.2817 241.814,-56.4435 252.394,-57.0013 250.433,-50.2817"/>
</g>
</g>
</svg>
