<?xml version="1.0" encoding="UTF-8" standalone="no"?>
<!DOCTYPE svg PUBLIC "-//W3C//DTD SVG 1.1//EN"
 "http://www.w3.org/Graphics/SVG/1.1/DTD/svg11.dtd">
<!-- Generated by graphviz version 2.38.0 (20140413.2041)
 -->
<!-- Title: DocDiaFile Pages: 1 -->
<svg width="286pt" height="152pt"
 viewBox="0.00 0.00 286.00 152.00" xmlns="http://www.w3.org/2000/svg" xmlns:xlink="http://www.w3.org/1999/xlink">
<g id="graph0" class="graph" transform="scale(1 1) rotate(0) translate(4 148)">
<title>DocDiaFile</title>
<polygon fill="white" stroke="none" points="-4,4 -4,-148 282,-148 282,4 -4,4"/>
<!-- Node4 -->
<g id="node1" class="node"><title>Node4</title>
<polygon fill="#bfbfbf" stroke="black" points="95.5,-0.5 95.5,-19.5 160.5,-19.5 160.5,-0.5 95.5,-0.5"/>
<text text-anchor="middle" x="128" y="-7.5" font-family="Helvetica,sans-Serif" font-size="10.00">DocDiaFile</text>
</g>
<!-- Node5 -->
<g id="node2" class="node"><title>Node5</title>
<g id="a_node2"><a xlink:href="../../d7/da3/class_comp_accept.html" target="_top" xlink:title="CompAccept\&lt; DocDiaFile \&gt;">
<polygon fill="white" stroke="black" points="0,-57.5 0,-76.5 140,-76.5 140,-57.5 0,-57.5"/>
<text text-anchor="middle" x="70" y="-64.5" font-family="Helvetica,sans-Serif" font-size="10.00">CompAccept&lt; DocDiaFile &gt;</text>
</a>
</g>
</g>
<!-- Node5&#45;&gt;Node4 -->
<g id="edge1" class="edge"><title>Node5&#45;&gt;Node4</title>
<path fill="none" stroke="midnightblue" d="M86.4339,-50.4162C96.9236,-40.469 110.133,-27.9431 118.81,-19.7149"/>
<polygon fill="midnightblue" stroke="midnightblue" points="83.9104,-47.9856 79.0625,-57.4062 88.7271,-53.065 83.9104,-47.9856"/>
</g>
<!-- Node6 -->
<g id="node3" class="node"><title>Node6</title>
<g id="a_node3"><a xlink:href="../../d7/da3/class_comp_accept.html" target="_top" xlink:title="Default accept implementation for compound nodes in the abstract syntax tree. ">
<polygon fill="white" stroke="black" points="21,-124.5 21,-143.5 119,-143.5 119,-124.5 21,-124.5"/>
<text text-anchor="middle" x="70" y="-131.5" font-family="Helvetica,sans-Serif" font-size="10.00">CompAccept&lt; T &gt;</text>
</a>
</g>
</g>
<!-- Node6&#45;&gt;Node5 -->
<g id="edge2" class="edge"><title>Node6&#45;&gt;Node5</title>
<path fill="none" stroke="orange" stroke-dasharray="5,2" d="M70,-114.037C70,-101.67 70,-86.1198 70,-76.6273"/>
<polygon fill="orange" stroke="orange" points="66.5001,-114.234 70,-124.234 73.5001,-114.234 66.5001,-114.234"/>
<text text-anchor="middle" x="105" y="-98" font-family="Helvetica,sans-Serif" font-size="10.00"> &lt; DocDiaFile &gt;</text>
</g>
<!-- Node7 -->
<g id="node4" class="node"><title>Node7</title>
<g id="a_node4"><a xlink:href="../../d9/d0e/class_doc_node.html" target="_top" xlink:title="Abstract node interface with type information. ">
<polygon fill="white" stroke="black" points="158,-57.5 158,-76.5 216,-76.5 216,-57.5 158,-57.5"/>
<text text-anchor="middle" x="187" y="-64.5" font-family="Helvetica,sans-Serif" font-size="10.00">DocNode</text>
</a>
</g>
</g>
<!-- Node7&#45;&gt;Node4 -->
<g id="edge3" class="edge"><title>Node7&#45;&gt;Node4</title>
<path fill="none" stroke="midnightblue" d="M170.283,-50.4162C159.612,-40.469 146.175,-27.9431 137.349,-19.7149"/>
<polygon fill="midnightblue" stroke="midnightblue" points="168.08,-53.1476 177.781,-57.4062 172.853,-48.0273 168.08,-53.1476"/>
</g>
<!-- Node7&#45;&gt;Node7 -->
<g id="edge4" class="edge"><title>Node7&#45;&gt;Node7</title>
<path fill="none" stroke="#9a32cd" stroke-dasharray="5,2" d="M226.603,-71.4489C231.091,-70.6158 234,-69.1328 234,-67 234,-63.5 226.167,-61.75 216.375,-61.75"/>
<polygon fill="#9a32cd" stroke="#9a32cd" points="226.071,-67.9798 216.375,-72.25 226.618,-74.9584 226.071,-67.9798"/>
<text text-anchor="middle" x="256" y="-64.5" font-family="Helvetica,sans-Serif" font-size="10.00"> m_parent</text>
</g>
</g>
</svg>
