<?xml version="1.0" encoding="UTF-8" standalone="no"?>
<!DOCTYPE svg PUBLIC "-//W3C//DTD SVG 1.1//EN"
 "http://www.w3.org/Graphics/SVG/1.1/DTD/svg11.dtd">
<!-- Generated by graphviz version 2.38.0 (20140413.2041)
 -->
<!-- Title: src/latexdocvisitor.h Pages: 1 -->
<svg width="332pt" height="84pt"
 viewBox="0.00 0.00 331.50 84.00" xmlns="http://www.w3.org/2000/svg" xmlns:xlink="http://www.w3.org/1999/xlink">
<g id="graph0" class="graph" transform="scale(1 1) rotate(0) translate(4 80)">
<title>src/latexdocvisitor.h</title>
<polygon fill="white" stroke="none" points="-4,4 -4,-80 327.5,-80 327.5,4 -4,4"/>
<!-- Node5 -->
<g id="node1" class="node"><title>Node5</title>
<polygon fill="#bfbfbf" stroke="black" points="107,-56.5 107,-75.5 211,-75.5 211,-56.5 107,-56.5"/>
<text text-anchor="middle" x="159" y="-63.5" font-family="Helvetica,sans-Serif" font-size="10.00">src/latexdocvisitor.h</text>
</g>
<!-- Node6 -->
<g id="node2" class="node"><title>Node6</title>
<g id="a_node2"><a xlink:href="../../db/d12/context_8cpp.html" target="_top" xlink:title="src/context.cpp">
<polygon fill="white" stroke="black" points="0,-0.5 0,-19.5 84,-19.5 84,-0.5 0,-0.5"/>
<text text-anchor="middle" x="42" y="-7.5" font-family="Helvetica,sans-Serif" font-size="10.00">src/context.cpp</text>
</a>
</g>
</g>
<!-- Node5&#45;&gt;Node6 -->
<g id="edge1" class="edge"><title>Node5&#45;&gt;Node6</title>
<path fill="none" stroke="midnightblue" d="M131.336,-52.2321C109.451,-42.1312 79.5032,-28.3091 60.4523,-19.5164"/>
<polygon fill="midnightblue" stroke="midnightblue" points="129.915,-55.4308 140.461,-56.4435 132.848,-49.075 129.915,-55.4308"/>
</g>
<!-- Node7 -->
<g id="node3" class="node"><title>Node7</title>
<g id="a_node3"><a xlink:href="../../d1/d4e/latexdocvisitor_8cpp.html" target="_top" xlink:title="src/latexdocvisitor.cpp">
<polygon fill="white" stroke="black" points="101.5,-0.5 101.5,-19.5 216.5,-19.5 216.5,-0.5 101.5,-0.5"/>
<text text-anchor="middle" x="159" y="-7.5" font-family="Helvetica,sans-Serif" font-size="10.00">src/latexdocvisitor.cpp</text>
</a>
</g>
</g>
<!-- Node5&#45;&gt;Node7 -->
<g id="edge2" class="edge"><title>Node5&#45;&gt;Node7</title>
<path fill="none" stroke="midnightblue" d="M159,-45.8045C159,-36.9102 159,-26.7798 159,-19.7511"/>
<polygon fill="midnightblue" stroke="midnightblue" points="155.5,-46.083 159,-56.083 162.5,-46.083 155.5,-46.083"/>
</g>
<!-- Node8 -->
<g id="node4" class="node"><title>Node8</title>
<g id="a_node4"><a xlink:href="../../d4/d42/latexgen_8cpp.html" target="_top" xlink:title="src/latexgen.cpp">
<polygon fill="white" stroke="black" points="234.5,-0.5 234.5,-19.5 323.5,-19.5 323.5,-0.5 234.5,-0.5"/>
<text text-anchor="middle" x="279" y="-7.5" font-family="Helvetica,sans-Serif" font-size="10.00">src/latexgen.cpp</text>
</a>
</g>
</g>
<!-- Node5&#45;&gt;Node8 -->
<g id="edge3" class="edge"><title>Node5&#45;&gt;Node8</title>
<path fill="none" stroke="midnightblue" d="M187.373,-52.2321C209.82,-42.1312 240.535,-28.3091 260.075,-19.5164"/>
<polygon fill="midnightblue" stroke="midnightblue" points="185.697,-49.1481 178.014,-56.4435 188.57,-55.5316 185.697,-49.1481"/>
</g>
</g>
</svg>
