<?xml version="1.0" encoding="UTF-8" standalone="no"?>
<!DOCTYPE svg PUBLIC "-//W3C//DTD SVG 1.1//EN"
 "http://www.w3.org/Graphics/SVG/1.1/DTD/svg11.dtd">
<!-- Generated by graphviz version 2.38.0 (20140413.2041)
 -->
<!-- Title: DocHtmlBlockQuote Pages: 1 -->
<svg width="400pt" height="173pt"
 viewBox="0.00 0.00 400.00 173.00" xmlns="http://www.w3.org/2000/svg" xmlns:xlink="http://www.w3.org/1999/xlink">
<g id="graph0" class="graph" transform="scale(1 1) rotate(0) translate(4 169)">
<title>DocHtmlBlockQuote</title>
<polygon fill="white" stroke="none" points="-4,4 -4,-169 396,-169 396,4 -4,4"/>
<!-- Node4 -->
<g id="node1" class="node"><title>Node4</title>
<polygon fill="#bfbfbf" stroke="black" points="139.5,-0.5 139.5,-19.5 246.5,-19.5 246.5,-0.5 139.5,-0.5"/>
<text text-anchor="middle" x="193" y="-7.5" font-family="Helvetica,sans-Serif" font-size="10.00">DocHtmlBlockQuote</text>
</g>
<!-- Node5 -->
<g id="node2" class="node"><title>Node5</title>
<g id="a_node2"><a xlink:href="../../d7/da3/class_comp_accept.html" target="_top" xlink:title="CompAccept\&lt; DocHtmlBlock\lQuote \&gt;">
<polygon fill="white" stroke="black" points="0,-67.5 0,-97.5 146,-97.5 146,-67.5 0,-67.5"/>
<text text-anchor="start" x="8" y="-85.5" font-family="Helvetica,sans-Serif" font-size="10.00">CompAccept&lt; DocHtmlBlock</text>
<text text-anchor="middle" x="73" y="-74.5" font-family="Helvetica,sans-Serif" font-size="10.00">Quote &gt;</text>
</a>
</g>
</g>
<!-- Node5&#45;&gt;Node4 -->
<g id="edge1" class="edge"><title>Node5&#45;&gt;Node4</title>
<path fill="none" stroke="midnightblue" d="M105.711,-62.2822C129.491,-48.3113 160.539,-30.0709 178.475,-19.5336"/>
<polygon fill="midnightblue" stroke="midnightblue" points="103.845,-59.3194 96.9954,-67.4027 107.39,-65.3549 103.845,-59.3194"/>
</g>
<!-- Node6 -->
<g id="node3" class="node"><title>Node6</title>
<g id="a_node3"><a xlink:href="../../d7/da3/class_comp_accept.html" target="_top" xlink:title="Default accept implementation for compound nodes in the abstract syntax tree. ">
<polygon fill="white" stroke="black" points="24,-145.5 24,-164.5 122,-164.5 122,-145.5 24,-145.5"/>
<text text-anchor="middle" x="73" y="-152.5" font-family="Helvetica,sans-Serif" font-size="10.00">CompAccept&lt; T &gt;</text>
</a>
</g>
</g>
<!-- Node6&#45;&gt;Node5 -->
<g id="edge2" class="edge"><title>Node6&#45;&gt;Node5</title>
<path fill="none" stroke="orange" stroke-dasharray="5,2" d="M73,-135.236C73,-123.408 73,-108.383 73,-97.5762"/>
<polygon fill="orange" stroke="orange" points="69.5001,-135.355 73,-145.355 76.5001,-135.355 69.5001,-135.355"/>
<text text-anchor="middle" x="129" y="-119" font-family="Helvetica,sans-Serif" font-size="10.00"> &lt; DocHtmlBlockQuote &gt;</text>
</g>
<!-- Node7 -->
<g id="node4" class="node"><title>Node7</title>
<g id="a_node4"><a xlink:href="../../d9/d0e/class_doc_node.html" target="_top" xlink:title="Abstract node interface with type information. ">
<polygon fill="white" stroke="black" points="164,-73 164,-92 222,-92 222,-73 164,-73"/>
<text text-anchor="middle" x="193" y="-80" font-family="Helvetica,sans-Serif" font-size="10.00">DocNode</text>
</a>
</g>
</g>
<!-- Node7&#45;&gt;Node4 -->
<g id="edge3" class="edge"><title>Node7&#45;&gt;Node4</title>
<path fill="none" stroke="midnightblue" d="M193,-62.442C193,-48.5305 193,-30.3203 193,-19.7154"/>
<polygon fill="midnightblue" stroke="midnightblue" points="189.5,-62.8553 193,-72.8553 196.5,-62.8553 189.5,-62.8553"/>
</g>
<!-- Node7&#45;&gt;Node7 -->
<g id="edge4" class="edge"><title>Node7&#45;&gt;Node7</title>
<path fill="none" stroke="#9a32cd" stroke-dasharray="5,2" d="M232.603,-88.5378C237.091,-87.4071 240,-85.3945 240,-82.5 240,-77.75 232.167,-75.375 222.375,-75.375"/>
<polygon fill="#9a32cd" stroke="#9a32cd" points="231.949,-85.0875 222.375,-89.625 232.689,-92.0483 231.949,-85.0875"/>
<text text-anchor="middle" x="262" y="-80" font-family="Helvetica,sans-Serif" font-size="10.00"> m_parent</text>
</g>
<!-- Node8 -->
<g id="node5" class="node"><title>Node8</title>
<g id="a_node5"><a xlink:href="../../db/d4d/class_html_attrib_list.html" target="_top" xlink:title="A list of Html attributes. ">
<polygon fill="white" stroke="black" points="302.5,-73 302.5,-92 379.5,-92 379.5,-73 302.5,-73"/>
<text text-anchor="middle" x="341" y="-80" font-family="Helvetica,sans-Serif" font-size="10.00">HtmlAttribList</text>
</a>
</g>
</g>
<!-- Node8&#45;&gt;Node4 -->
<g id="edge5" class="edge"><title>Node8&#45;&gt;Node4</title>
<path fill="none" stroke="#9a32cd" stroke-dasharray="5,2" d="M314.096,-68.684C284.156,-54.4225 236.62,-31.7783 210.916,-19.5341"/>
<polygon fill="#9a32cd" stroke="#9a32cd" points="312.614,-71.8553 323.148,-72.9961 315.625,-65.5357 312.614,-71.8553"/>
<text text-anchor="middle" x="294" y="-41" font-family="Helvetica,sans-Serif" font-size="10.00"> m_attribs</text>
</g>
<!-- Node9 -->
<g id="node6" class="node"><title>Node9</title>
<polygon fill="white" stroke="#bfbfbf" points="290,-145.5 290,-164.5 392,-164.5 392,-145.5 290,-145.5"/>
<text text-anchor="middle" x="341" y="-152.5" font-family="Helvetica,sans-Serif" font-size="10.00">QList&lt; HtmlAttrib &gt;</text>
</g>
<!-- Node9&#45;&gt;Node8 -->
<g id="edge6" class="edge"><title>Node9&#45;&gt;Node8</title>
<path fill="none" stroke="midnightblue" d="M341,-134.942C341,-121.03 341,-102.82 341,-92.2154"/>
<polygon fill="midnightblue" stroke="midnightblue" points="337.5,-135.355 341,-145.355 344.5,-135.355 337.5,-135.355"/>
</g>
</g>
</svg>
