<?xml version="1.0" encoding="UTF-8" standalone="no"?>
<!DOCTYPE svg PUBLIC "-//W3C//DTD SVG 1.1//EN"
 "http://www.w3.org/Graphics/SVG/1.1/DTD/svg11.dtd">
<!-- Generated by graphviz version 2.38.0 (20140413.2041)
 -->
<!-- Title: MemberSDict Pages: 1 -->
<svg width="383pt" height="162pt"
 viewBox="0.00 0.00 383.00 162.00" xmlns="http://www.w3.org/2000/svg" xmlns:xlink="http://www.w3.org/1999/xlink">
<g id="graph0" class="graph" transform="scale(1 1) rotate(0) translate(4 158)">
<title>MemberSDict</title>
<polygon fill="white" stroke="none" points="-4,4 -4,-158 379,-158 379,4 -4,4"/>
<!-- Node3 -->
<g id="node1" class="node"><title>Node3</title>
<polygon fill="#bfbfbf" stroke="black" points="298,-0.5 298,-19.5 375,-19.5 375,-0.5 298,-0.5"/>
<text text-anchor="middle" x="336.5" y="-7.5" font-family="Helvetica,sans-Serif" font-size="10.00">MemberSDict</text>
</g>
<!-- Node4 -->
<g id="node2" class="node"><title>Node4</title>
<g id="a_node2"><a xlink:href="../../d1/d50/class_s_dict.html" target="_top" xlink:title="SDict\&lt; MemberDef \&gt;">
<polygon fill="white" stroke="black" points="236.5,-67.5 236.5,-86.5 346.5,-86.5 346.5,-67.5 236.5,-67.5"/>
<text text-anchor="middle" x="291.5" y="-74.5" font-family="Helvetica,sans-Serif" font-size="10.00">SDict&lt; MemberDef &gt;</text>
</a>
</g>
</g>
<!-- Node4&#45;&gt;Node3 -->
<g id="edge1" class="edge"><title>Node4&#45;&gt;Node3</title>
<path fill="none" stroke="midnightblue" d="M311.932,-60.8271C315.81,-57.2657 319.565,-53.2563 322.5,-49 328.726,-39.9703 332.563,-27.8347 334.61,-19.7316"/>
<polygon fill="midnightblue" stroke="midnightblue" points="309.449,-58.3415 304.027,-67.4437 313.941,-63.7094 309.449,-58.3415"/>
</g>
<!-- Node5 -->
<g id="node3" class="node"><title>Node5</title>
<g id="a_node3"><a xlink:href="../../df/dce/class_s_list.html" target="_top" xlink:title="SList\&lt; MemberDef \&gt;">
<polygon fill="white" stroke="black" points="123.5,-0.5 123.5,-19.5 231.5,-19.5 231.5,-0.5 123.5,-0.5"/>
<text text-anchor="middle" x="177.5" y="-7.5" font-family="Helvetica,sans-Serif" font-size="10.00">SList&lt; MemberDef &gt;</text>
</a>
</g>
</g>
<!-- Node4&#45;&gt;Node5 -->
<g id="edge4" class="edge"><title>Node4&#45;&gt;Node5</title>
<path fill="none" stroke="#9a32cd" stroke-dasharray="5,2" d="M254.211,-63.9736C243.625,-59.8848 232.316,-54.8455 222.5,-49 208.619,-40.7335 194.731,-28.1959 186.132,-19.8083"/>
<polygon fill="#9a32cd" stroke="#9a32cd" points="253.072,-67.2839 263.665,-67.4574 255.492,-60.7156 253.072,-67.2839"/>
<text text-anchor="middle" x="244" y="-41" font-family="Helvetica,sans-Serif" font-size="10.00"> m_owner</text>
</g>
<!-- Node5&#45;&gt;Node4 -->
<g id="edge2" class="edge"><title>Node5&#45;&gt;Node4</title>
<path fill="none" stroke="#9a32cd" stroke-dasharray="5,2" d="M241.513,-22.8732C251.524,-26.6145 261.266,-31.5334 269.5,-38 279.212,-45.6274 285.442,-58.8186 288.708,-67.4774"/>
<polygon fill="#9a32cd" stroke="#9a32cd" points="242.466,-19.5013 231.872,-19.6349 240.237,-26.1369 242.466,-19.5013"/>
<text text-anchor="middle" x="294.5" y="-41" font-family="Helvetica,sans-Serif" font-size="10.00"> m_list</text>
</g>
<!-- Node6 -->
<g id="node4" class="node"><title>Node6</title>
<polygon fill="white" stroke="#bfbfbf" points="0,-67.5 0,-86.5 109,-86.5 109,-67.5 0,-67.5"/>
<text text-anchor="middle" x="54.5" y="-74.5" font-family="Helvetica,sans-Serif" font-size="10.00">QList&lt; MemberDef &gt;</text>
</g>
<!-- Node6&#45;&gt;Node5 -->
<g id="edge3" class="edge"><title>Node6&#45;&gt;Node5</title>
<path fill="none" stroke="midnightblue" d="M79.4575,-62.5444C93.0488,-55.2415 110.174,-46.0797 125.5,-38 137.198,-31.833 150.424,-24.9668 160.611,-19.7018"/>
<polygon fill="midnightblue" stroke="midnightblue" points="77.41,-59.6715 70.2617,-67.4915 80.7264,-65.836 77.41,-59.6715"/>
</g>
<!-- Node7 -->
<g id="node5" class="node"><title>Node7</title>
<g id="a_node5"><a xlink:href="../../df/dce/class_s_list.html" target="_top" xlink:title="internal wrapper class that redirects compareValues() to the dictionary ">
<polygon fill="white" stroke="black" points="127,-67.5 127,-86.5 190,-86.5 190,-67.5 127,-67.5"/>
<text text-anchor="middle" x="158.5" y="-74.5" font-family="Helvetica,sans-Serif" font-size="10.00">SList&lt; T &gt;</text>
</a>
</g>
</g>
<!-- Node7&#45;&gt;Node5 -->
<g id="edge5" class="edge"><title>Node7&#45;&gt;Node5</title>
<path fill="none" stroke="orange" stroke-dasharray="5,2" d="M137.189,-60.6598C130.532,-53.9378 125.978,-45.8127 130.5,-38 135.308,-29.6926 143.746,-23.7189 152.158,-19.538"/>
<polygon fill="orange" stroke="orange" points="135.05,-63.4373 144.907,-67.3221 139.624,-58.1383 135.05,-63.4373"/>
<text text-anchor="middle" x="167" y="-41" font-family="Helvetica,sans-Serif" font-size="10.00"> &lt; MemberDef &gt;</text>
</g>
<!-- Node8 -->
<g id="node6" class="node"><title>Node8</title>
<polygon fill="white" stroke="#bfbfbf" points="126.5,-134.5 126.5,-153.5 190.5,-153.5 190.5,-134.5 126.5,-134.5"/>
<text text-anchor="middle" x="158.5" y="-141.5" font-family="Helvetica,sans-Serif" font-size="10.00">QList&lt; T &gt;</text>
</g>
<!-- Node8&#45;&gt;Node7 -->
<g id="edge6" class="edge"><title>Node8&#45;&gt;Node7</title>
<path fill="none" stroke="midnightblue" d="M158.5,-124.037C158.5,-111.67 158.5,-96.1198 158.5,-86.6273"/>
<polygon fill="midnightblue" stroke="midnightblue" points="155,-124.234 158.5,-134.234 162,-124.234 155,-124.234"/>
</g>
<!-- Node9 -->
<g id="node7" class="node"><title>Node9</title>
<g id="a_node7"><a xlink:href="../../d1/d50/class_s_dict.html" target="_top" xlink:title="Ordered dictionary of elements of type T. ">
<polygon fill="white" stroke="black" points="259,-134.5 259,-153.5 324,-153.5 324,-134.5 259,-134.5"/>
<text text-anchor="middle" x="291.5" y="-141.5" font-family="Helvetica,sans-Serif" font-size="10.00">SDict&lt; T &gt;</text>
</a>
</g>
</g>
<!-- Node9&#45;&gt;Node4 -->
<g id="edge7" class="edge"><title>Node9&#45;&gt;Node4</title>
<path fill="none" stroke="orange" stroke-dasharray="5,2" d="M291.5,-124.037C291.5,-111.67 291.5,-96.1198 291.5,-86.6273"/>
<polygon fill="orange" stroke="orange" points="288,-124.234 291.5,-134.234 295,-124.234 288,-124.234"/>
<text text-anchor="middle" x="328" y="-108" font-family="Helvetica,sans-Serif" font-size="10.00"> &lt; MemberDef &gt;</text>
</g>
</g>
</svg>
