<?xml version="1.0" encoding="UTF-8" standalone="no"?>
<!DOCTYPE svg PUBLIC "-//W3C//DTD SVG 1.1//EN"
 "http://www.w3.org/Graphics/SVG/1.1/DTD/svg11.dtd">
<!-- Generated by graphviz version 2.38.0 (20140413.2041)
 -->
<!-- Title: GenericsSDict Pages: 1 -->
<svg width="459pt" height="162pt"
 viewBox="0.00 0.00 459.00 162.00" xmlns="http://www.w3.org/2000/svg" xmlns:xlink="http://www.w3.org/1999/xlink">
<g id="graph0" class="graph" transform="scale(1 1) rotate(0) translate(4 158)">
<title>GenericsSDict</title>
<polygon fill="white" stroke="none" points="-4,4 -4,-158 455,-158 455,4 -4,4"/>
<!-- Node1 -->
<g id="node1" class="node"><title>Node1</title>
<polygon fill="#bfbfbf" stroke="black" points="360,-0.5 360,-19.5 440,-19.5 440,-0.5 360,-0.5"/>
<text text-anchor="middle" x="400" y="-7.5" font-family="Helvetica,sans-Serif" font-size="10.00">GenericsSDict</text>
</g>
<!-- Node2 -->
<g id="node2" class="node"><title>Node2</title>
<g id="a_node2"><a xlink:href="../../d1/d50/class_s_dict.html" target="_top" xlink:title="SDict\&lt; GenericsCollection \&gt;">
<polygon fill="white" stroke="black" points="276,-67.5 276,-86.5 418,-86.5 418,-67.5 276,-67.5"/>
<text text-anchor="middle" x="347" y="-74.5" font-family="Helvetica,sans-Serif" font-size="10.00">SDict&lt; GenericsCollection &gt;</text>
</a>
</g>
</g>
<!-- Node2&#45;&gt;Node1 -->
<g id="edge1" class="edge"><title>Node2&#45;&gt;Node1</title>
<path fill="none" stroke="#9a32cd" stroke-dasharray="5,2" d="M366.693,-60.5879C370.673,-57.0097 374.657,-53.0542 378,-49 385.565,-39.8247 392.08,-27.721 396.015,-19.665"/>
<polygon fill="#9a32cd" stroke="#9a32cd" points="364.114,-58.1852 358.736,-67.3136 368.632,-63.5313 364.114,-58.1852"/>
<text text-anchor="middle" x="402.5" y="-41" font-family="Helvetica,sans-Serif" font-size="10.00"> m_dict</text>
</g>
<!-- Node3 -->
<g id="node3" class="node"><title>Node3</title>
<g id="a_node3"><a xlink:href="../../df/dce/class_s_list.html" target="_top" xlink:title="SList\&lt; GenericsCollection \&gt;">
<polygon fill="white" stroke="black" points="143,-0.5 143,-19.5 283,-19.5 283,-0.5 143,-0.5"/>
<text text-anchor="middle" x="213" y="-7.5" font-family="Helvetica,sans-Serif" font-size="10.00">SList&lt; GenericsCollection &gt;</text>
</a>
</g>
</g>
<!-- Node2&#45;&gt;Node3 -->
<g id="edge4" class="edge"><title>Node2&#45;&gt;Node3</title>
<path fill="none" stroke="#9a32cd" stroke-dasharray="5,2" d="M312.824,-63.8381C301.572,-59.5151 289.103,-54.3774 278,-49 276.706,-48.3733 246.469,-30.6474 227.697,-19.6299"/>
<polygon fill="#9a32cd" stroke="#9a32cd" points="311.742,-67.1705 322.334,-67.4128 314.205,-60.6181 311.742,-67.1705"/>
<text text-anchor="middle" x="299.5" y="-41" font-family="Helvetica,sans-Serif" font-size="10.00"> m_owner</text>
</g>
<!-- Node3&#45;&gt;Node2 -->
<g id="edge2" class="edge"><title>Node3&#45;&gt;Node2</title>
<path fill="none" stroke="#9a32cd" stroke-dasharray="5,2" d="M292.878,-21.7433C304.357,-25.6343 315.483,-30.8956 325,-38 334.896,-45.3877 341.077,-58.6425 344.282,-67.3804"/>
<polygon fill="#9a32cd" stroke="#9a32cd" points="293.767,-18.3554 283.181,-18.7867 291.726,-25.0511 293.767,-18.3554"/>
<text text-anchor="middle" x="350" y="-41" font-family="Helvetica,sans-Serif" font-size="10.00"> m_list</text>
</g>
<!-- Node4 -->
<g id="node4" class="node"><title>Node4</title>
<polygon fill="white" stroke="#bfbfbf" points="0,-67.5 0,-86.5 140,-86.5 140,-67.5 0,-67.5"/>
<text text-anchor="middle" x="70" y="-74.5" font-family="Helvetica,sans-Serif" font-size="10.00">QList&lt; GenericsCollection &gt;</text>
</g>
<!-- Node4&#45;&gt;Node3 -->
<g id="edge3" class="edge"><title>Node4&#45;&gt;Node3</title>
<path fill="none" stroke="midnightblue" d="M96.4879,-62.8582C111.755,-55.3844 131.36,-45.9575 149,-38 163.181,-31.6029 179.321,-24.797 191.845,-19.6187"/>
<polygon fill="midnightblue" stroke="midnightblue" points="94.575,-59.8985 87.146,-67.4524 97.6642,-66.18 94.575,-59.8985"/>
</g>
<!-- Node5 -->
<g id="node5" class="node"><title>Node5</title>
<g id="a_node5"><a xlink:href="../../df/dce/class_s_list.html" target="_top" xlink:title="internal wrapper class that redirects compareValues() to the dictionary ">
<polygon fill="white" stroke="black" points="158.5,-67.5 158.5,-86.5 221.5,-86.5 221.5,-67.5 158.5,-67.5"/>
<text text-anchor="middle" x="190" y="-74.5" font-family="Helvetica,sans-Serif" font-size="10.00">SList&lt; T &gt;</text>
</a>
</g>
</g>
<!-- Node5&#45;&gt;Node3 -->
<g id="edge5" class="edge"><title>Node5&#45;&gt;Node3</title>
<path fill="none" stroke="orange" stroke-dasharray="5,2" d="M164.409,-61.7311C155.767,-54.998 149.537,-46.5698 155,-38 160.433,-29.4773 169.333,-23.602 178.548,-19.5689"/>
<polygon fill="orange" stroke="orange" points="162.517,-64.677 172.758,-67.3933 166.446,-58.8836 162.517,-64.677"/>
<text text-anchor="middle" x="207" y="-41" font-family="Helvetica,sans-Serif" font-size="10.00"> &lt; GenericsCollection &gt;</text>
</g>
<!-- Node6 -->
<g id="node6" class="node"><title>Node6</title>
<polygon fill="white" stroke="#bfbfbf" points="158,-134.5 158,-153.5 222,-153.5 222,-134.5 158,-134.5"/>
<text text-anchor="middle" x="190" y="-141.5" font-family="Helvetica,sans-Serif" font-size="10.00">QList&lt; T &gt;</text>
</g>
<!-- Node6&#45;&gt;Node5 -->
<g id="edge6" class="edge"><title>Node6&#45;&gt;Node5</title>
<path fill="none" stroke="midnightblue" d="M190,-124.037C190,-111.67 190,-96.1198 190,-86.6273"/>
<polygon fill="midnightblue" stroke="midnightblue" points="186.5,-124.234 190,-134.234 193.5,-124.234 186.5,-124.234"/>
</g>
<!-- Node7 -->
<g id="node7" class="node"><title>Node7</title>
<g id="a_node7"><a xlink:href="../../d1/d50/class_s_dict.html" target="_top" xlink:title="Ordered dictionary of elements of type T. ">
<polygon fill="white" stroke="black" points="314.5,-134.5 314.5,-153.5 379.5,-153.5 379.5,-134.5 314.5,-134.5"/>
<text text-anchor="middle" x="347" y="-141.5" font-family="Helvetica,sans-Serif" font-size="10.00">SDict&lt; T &gt;</text>
</a>
</g>
</g>
<!-- Node7&#45;&gt;Node2 -->
<g id="edge7" class="edge"><title>Node7&#45;&gt;Node2</title>
<path fill="none" stroke="orange" stroke-dasharray="5,2" d="M347,-124.037C347,-111.67 347,-96.1198 347,-86.6273"/>
<polygon fill="orange" stroke="orange" points="343.5,-124.234 347,-134.234 350.5,-124.234 343.5,-124.234"/>
<text text-anchor="middle" x="399" y="-108" font-family="Helvetica,sans-Serif" font-size="10.00"> &lt; GenericsCollection &gt;</text>
</g>
</g>
</svg>
