<?xml version="1.0" encoding="UTF-8" standalone="no"?>
<!DOCTYPE svg PUBLIC "-//W3C//DTD SVG 1.1//EN"
 "http://www.w3.org/Graphics/SVG/1.1/DTD/svg11.dtd">
<!-- Generated by graphviz version 2.38.0 (20140413.2041)
 -->
<!-- Title: src/store.cpp Pages: 1 -->
<svg width="548pt" height="196pt"
 viewBox="0.00 0.00 547.50 196.00" xmlns="http://www.w3.org/2000/svg" xmlns:xlink="http://www.w3.org/1999/xlink">
<g id="graph0" class="graph" transform="scale(1 1) rotate(0) translate(4 192)">
<title>src/store.cpp</title>
<polygon fill="white" stroke="none" points="-4,4 -4,-192 543.5,-192 543.5,4 -4,4"/>
<!-- Node0 -->
<g id="node1" class="node"><title>Node0</title>
<polygon fill="#bfbfbf" stroke="black" points="241,-168.5 241,-187.5 315,-187.5 315,-168.5 241,-168.5"/>
<text text-anchor="middle" x="278" y="-175.5" font-family="Helvetica,sans-Serif" font-size="10.00">src/store.cpp</text>
</g>
<!-- Node1 -->
<g id="node2" class="node"><title>Node1</title>
<g id="a_node2"><a xlink:href="../../d5/d3f/store_8h.html" target="_top" xlink:title="store.h">
<polygon fill="white" stroke="black" points="74.5,-112.5 74.5,-131.5 121.5,-131.5 121.5,-112.5 74.5,-112.5"/>
<text text-anchor="middle" x="98" y="-119.5" font-family="Helvetica,sans-Serif" font-size="10.00">store.h</text>
</a>
</g>
</g>
<!-- Node0&#45;&gt;Node1 -->
<g id="edge1" class="edge"><title>Node0&#45;&gt;Node1</title>
<path fill="none" stroke="midnightblue" d="M249.478,-168.444C217.406,-158.822 165.382,-143.215 131.428,-133.028"/>
<polygon fill="midnightblue" stroke="midnightblue" points="132.096,-129.575 121.512,-130.054 130.085,-136.28 132.096,-129.575"/>
</g>
<!-- Node3 -->
<g id="node4" class="node"><title>Node3</title>
<polygon fill="white" stroke="#bfbfbf" points="160,-0.5 160,-19.5 206,-19.5 206,-0.5 160,-0.5"/>
<text text-anchor="middle" x="183" y="-7.5" font-family="Helvetica,sans-Serif" font-size="10.00">stdio.h</text>
</g>
<!-- Node0&#45;&gt;Node3 -->
<g id="edge9" class="edge"><title>Node0&#45;&gt;Node3</title>
<path fill="none" stroke="midnightblue" d="M258.283,-168.447C243.346,-160.96 223.496,-148.667 212,-132 190.409,-100.696 184.799,-55.228 183.401,-29.8781"/>
<polygon fill="midnightblue" stroke="midnightblue" points="186.894,-29.628 183.013,-19.7697 179.899,-29.8967 186.894,-29.628"/>
</g>
<!-- Node4 -->
<g id="node5" class="node"><title>Node4</title>
<g id="a_node5"><a xlink:href="../../d2/de2/portable_8h.html" target="_top" xlink:title="Portable versions of functions that are platform dependent. ">
<polygon fill="white" stroke="black" points="67.5,-56.5 67.5,-75.5 126.5,-75.5 126.5,-56.5 67.5,-56.5"/>
<text text-anchor="middle" x="97" y="-63.5" font-family="Helvetica,sans-Serif" font-size="10.00">portable.h</text>
</a>
</g>
</g>
<!-- Node0&#45;&gt;Node4 -->
<g id="edge8" class="edge"><title>Node0&#45;&gt;Node4</title>
<path fill="none" stroke="midnightblue" d="M255.191,-168.481C234.597,-160.364 203.811,-147.158 179,-132 154.974,-117.321 129.985,-96.592 114.004,-82.5184"/>
<polygon fill="midnightblue" stroke="midnightblue" points="116.311,-79.8855 106.522,-75.8328 111.647,-85.1055 116.311,-79.8855"/>
</g>
<!-- Node6 -->
<g id="node7" class="node"><title>Node6</title>
<polygon fill="white" stroke="#bfbfbf" points="221,-112.5 221,-131.5 269,-131.5 269,-112.5 221,-112.5"/>
<text text-anchor="middle" x="245" y="-119.5" font-family="Helvetica,sans-Serif" font-size="10.00">stdlib.h</text>
</g>
<!-- Node0&#45;&gt;Node6 -->
<g id="edge10" class="edge"><title>Node0&#45;&gt;Node6</title>
<path fill="none" stroke="midnightblue" d="M272.551,-168.083C267.986,-160.613 261.332,-149.724 255.707,-140.52"/>
<polygon fill="midnightblue" stroke="midnightblue" points="258.549,-138.459 250.348,-131.751 252.576,-142.109 258.549,-138.459"/>
</g>
<!-- Node7 -->
<g id="node8" class="node"><title>Node7</title>
<polygon fill="white" stroke="#bfbfbf" points="287.5,-112.5 287.5,-131.5 334.5,-131.5 334.5,-112.5 287.5,-112.5"/>
<text text-anchor="middle" x="311" y="-119.5" font-family="Helvetica,sans-Serif" font-size="10.00">errno.h</text>
</g>
<!-- Node0&#45;&gt;Node7 -->
<g id="edge11" class="edge"><title>Node0&#45;&gt;Node7</title>
<path fill="none" stroke="midnightblue" d="M283.449,-168.083C288.014,-160.613 294.668,-149.724 300.293,-140.52"/>
<polygon fill="midnightblue" stroke="midnightblue" points="303.424,-142.109 305.652,-131.751 297.451,-138.459 303.424,-142.109"/>
</g>
<!-- Node8 -->
<g id="node9" class="node"><title>Node8</title>
<polygon fill="white" stroke="#bfbfbf" points="352.5,-112.5 352.5,-131.5 401.5,-131.5 401.5,-112.5 352.5,-112.5"/>
<text text-anchor="middle" x="377" y="-119.5" font-family="Helvetica,sans-Serif" font-size="10.00">string.h</text>
</g>
<!-- Node0&#45;&gt;Node8 -->
<g id="edge12" class="edge"><title>Node0&#45;&gt;Node8</title>
<path fill="none" stroke="midnightblue" d="M293.906,-168.324C309.638,-159.743 333.942,-146.486 352.209,-136.522"/>
<polygon fill="midnightblue" stroke="midnightblue" points="354.03,-139.516 361.133,-131.655 350.678,-133.37 354.03,-139.516"/>
</g>
<!-- Node9 -->
<g id="node10" class="node"><title>Node9</title>
<polygon fill="white" stroke="#bfbfbf" points="420,-112.5 420,-131.5 472,-131.5 472,-112.5 420,-112.5"/>
<text text-anchor="middle" x="446" y="-119.5" font-family="Helvetica,sans-Serif" font-size="10.00">assert.h</text>
</g>
<!-- Node0&#45;&gt;Node9 -->
<g id="edge13" class="edge"><title>Node0&#45;&gt;Node9</title>
<path fill="none" stroke="midnightblue" d="M304.62,-168.444C333.089,-159.293 378.402,-144.728 410.031,-134.561"/>
<polygon fill="midnightblue" stroke="midnightblue" points="411.332,-137.82 419.781,-131.428 409.19,-131.156 411.332,-137.82"/>
</g>
<!-- Node10 -->
<g id="node11" class="node"><title>Node10</title>
<polygon fill="white" stroke="#bfbfbf" points="490.5,-112.5 490.5,-131.5 539.5,-131.5 539.5,-112.5 490.5,-112.5"/>
<text text-anchor="middle" x="515" y="-119.5" font-family="Helvetica,sans-Serif" font-size="10.00">ctype.h</text>
</g>
<!-- Node0&#45;&gt;Node10 -->
<g id="edge14" class="edge"><title>Node0&#45;&gt;Node10</title>
<path fill="none" stroke="midnightblue" d="M315.147,-169.239C353.941,-161.029 416.783,-147.436 480.354,-132.081"/>
<polygon fill="midnightblue" stroke="midnightblue" points="481.256,-135.464 490.147,-129.703 479.604,-128.662 481.256,-135.464"/>
</g>
<!-- Node2 -->
<g id="node3" class="node"><title>Node2</title>
<polygon fill="white" stroke="#bfbfbf" points="0,-0.5 0,-19.5 56,-19.5 56,-0.5 0,-0.5"/>
<text text-anchor="middle" x="28" y="-7.5" font-family="Helvetica,sans-Serif" font-size="10.00">qglobal.h</text>
</g>
<!-- Node1&#45;&gt;Node2 -->
<g id="edge2" class="edge"><title>Node1&#45;&gt;Node2</title>
<path fill="none" stroke="midnightblue" d="M88.8787,-112.341C80.1613,-103.721 67.0443,-89.8188 58,-76 48.333,-61.2297 40.1583,-42.8409 34.7956,-29.3953"/>
<polygon fill="midnightblue" stroke="midnightblue" points="37.9764,-27.9151 31.1229,-19.8355 31.442,-30.4255 37.9764,-27.9151"/>
</g>
<!-- Node1&#45;&gt;Node3 -->
<g id="edge3" class="edge"><title>Node1&#45;&gt;Node3</title>
<path fill="none" stroke="midnightblue" d="M105.228,-112.481C112.786,-103.511 124.927,-88.9229 135,-76 147.613,-59.8189 161.48,-40.9119 171.053,-27.6745"/>
<polygon fill="midnightblue" stroke="midnightblue" points="173.922,-29.6795 176.925,-19.5192 168.241,-25.5891 173.922,-29.6795"/>
</g>
<!-- Node1&#45;&gt;Node4 -->
<g id="edge4" class="edge"><title>Node1&#45;&gt;Node4</title>
<path fill="none" stroke="midnightblue" d="M97.8349,-112.083C97.7038,-105.006 97.5159,-94.8611 97.3516,-85.9865"/>
<polygon fill="midnightblue" stroke="midnightblue" points="100.847,-85.6845 97.1621,-75.7511 93.8479,-85.8142 100.847,-85.6845"/>
</g>
<!-- Node4&#45;&gt;Node2 -->
<g id="edge7" class="edge"><title>Node4&#45;&gt;Node2</title>
<path fill="none" stroke="midnightblue" d="M85.914,-56.324C75.514,-48.1849 59.7394,-35.8395 47.2784,-26.0874"/>
<polygon fill="midnightblue" stroke="midnightblue" points="49.3199,-23.2407 39.2878,-19.8339 45.0057,-28.7533 49.3199,-23.2407"/>
</g>
<!-- Node4&#45;&gt;Node3 -->
<g id="edge6" class="edge"><title>Node4&#45;&gt;Node3</title>
<path fill="none" stroke="midnightblue" d="M110.817,-56.324C124.233,-47.9002 144.824,-34.9709 160.586,-25.0741"/>
<polygon fill="midnightblue" stroke="midnightblue" points="162.609,-27.9364 169.217,-19.6545 158.887,-22.0081 162.609,-27.9364"/>
</g>
<!-- Node5 -->
<g id="node6" class="node"><title>Node5</title>
<polygon fill="white" stroke="#bfbfbf" points="74,-0.5 74,-19.5 142,-19.5 142,-0.5 74,-0.5"/>
<text text-anchor="middle" x="108" y="-7.5" font-family="Helvetica,sans-Serif" font-size="10.00">sys/types.h</text>
</g>
<!-- Node4&#45;&gt;Node5 -->
<g id="edge5" class="edge"><title>Node4&#45;&gt;Node5</title>
<path fill="none" stroke="midnightblue" d="M98.8164,-56.083C100.274,-48.9272 102.371,-38.6353 104.193,-29.6911"/>
<polygon fill="midnightblue" stroke="midnightblue" points="107.651,-30.2485 106.217,-19.7511 100.792,-28.8512 107.651,-30.2485"/>
</g>
</g>
</svg>
