<?xml version="1.0" encoding="UTF-8" standalone="no"?>
<!DOCTYPE svg PUBLIC "-//W3C//DTD SVG 1.1//EN"
 "http://www.w3.org/Graphics/SVG/1.1/DTD/svg11.dtd">
<!-- Generated by graphviz version 2.38.0 (20140413.2041)
 -->
<!-- Title: TemplateNodeMarkers Pages: 1 -->
<svg width="390pt" height="241pt"
 viewBox="0.00 0.00 390.00 241.00" xmlns="http://www.w3.org/2000/svg" xmlns:xlink="http://www.w3.org/1999/xlink">
<g id="graph0" class="graph" transform="scale(1 1) rotate(0) translate(4 237)">
<title>TemplateNodeMarkers</title>
<polygon fill="white" stroke="none" points="-4,4 -4,-237 386,-237 386,4 -4,4"/>
<!-- Node4 -->
<g id="node1" class="node"><title>Node4</title>
<polygon fill="#bfbfbf" stroke="black" points="189,-0.5 189,-19.5 305,-19.5 305,-0.5 189,-0.5"/>
<text text-anchor="middle" x="247" y="-7.5" font-family="Helvetica,sans-Serif" font-size="10.00">TemplateNodeMarkers</text>
</g>
<!-- Node5 -->
<g id="node2" class="node"><title>Node5</title>
<g id="a_node2"><a xlink:href="../../d8/d78/class_template_node_creator.html" target="_top" xlink:title="TemplateNodeCreator\l\&lt; TemplateNodeMarkers \&gt;">
<polygon fill="white" stroke="black" points="40,-78.5 40,-108.5 174,-108.5 174,-78.5 40,-78.5"/>
<text text-anchor="start" x="48" y="-96.5" font-family="Helvetica,sans-Serif" font-size="10.00">TemplateNodeCreator</text>
<text text-anchor="middle" x="107" y="-85.5" font-family="Helvetica,sans-Serif" font-size="10.00">&lt; TemplateNodeMarkers &gt;</text>
</a>
</g>
</g>
<!-- Node5&#45;&gt;Node4 -->
<g id="edge1" class="edge"><title>Node5&#45;&gt;Node4</title>
<path fill="none" stroke="midnightblue" d="M139.71,-73.4578C168.944,-56.44 210.43,-32.2889 232.259,-19.5811"/>
<polygon fill="midnightblue" stroke="midnightblue" points="137.948,-70.4338 131.067,-78.4897 141.47,-76.4834 137.948,-70.4338"/>
</g>
<!-- Node6 -->
<g id="node3" class="node"><title>Node6</title>
<g id="a_node3"><a xlink:href="../../d6/d53/class_template_node.html" target="_top" xlink:title="Base class of all nodes in a template&#39;s AST. ">
<polygon fill="white" stroke="black" points="0,-213.5 0,-232.5 80,-232.5 80,-213.5 0,-213.5"/>
<text text-anchor="middle" x="40" y="-220.5" font-family="Helvetica,sans-Serif" font-size="10.00">TemplateNode</text>
</a>
</g>
</g>
<!-- Node6&#45;&gt;Node5 -->
<g id="edge2" class="edge"><title>Node6&#45;&gt;Node5</title>
<path fill="none" stroke="midnightblue" d="M31.4471,-204.092C26.1569,-190.325 21.6482,-171.159 29,-156 39.1589,-135.053 60.2945,-119.096 78.0046,-108.691"/>
<polygon fill="midnightblue" stroke="midnightblue" points="28.291,-205.613 35.4614,-213.412 34.72,-202.843 28.291,-205.613"/>
</g>
<!-- Node6&#45;&gt;Node6 -->
<g id="edge3" class="edge"><title>Node6&#45;&gt;Node6</title>
<path fill="none" stroke="#9a32cd" stroke-dasharray="5,2" d="M90.2648,-227.218C95.0048,-226.354 98,-224.948 98,-223 98,-219.883 90.3323,-218.154 80.1186,-217.813"/>
<polygon fill="#9a32cd" stroke="#9a32cd" points="89.7405,-223.752 80.1186,-228.187 90.4062,-230.72 89.7405,-223.752"/>
<text text-anchor="middle" x="120" y="-220.5" font-family="Helvetica,sans-Serif" font-size="10.00"> m_parent</text>
</g>
<!-- Node7 -->
<g id="node4" class="node"><title>Node7</title>
<g id="a_node4"><a xlink:href="../../d8/d78/class_template_node_creator.html" target="_top" xlink:title="Helper class for creating template AST tag nodes and returning the template for a given node...">
<polygon fill="white" stroke="black" points="38.5,-156.5 38.5,-175.5 175.5,-175.5 175.5,-156.5 38.5,-156.5"/>
<text text-anchor="middle" x="107" y="-163.5" font-family="Helvetica,sans-Serif" font-size="10.00">TemplateNodeCreator&lt; T &gt;</text>
</a>
</g>
</g>
<!-- Node6&#45;&gt;Node7 -->
<g id="edge5" class="edge"><title>Node6&#45;&gt;Node7</title>
<path fill="none" stroke="midnightblue" d="M58.2748,-206.998C70.501,-196.962 86.1637,-184.104 96.3837,-175.715"/>
<polygon fill="midnightblue" stroke="midnightblue" points="55.9773,-204.356 50.4688,-213.406 60.4188,-209.767 55.9773,-204.356"/>
</g>
<!-- Node7&#45;&gt;Node5 -->
<g id="edge4" class="edge"><title>Node7&#45;&gt;Node5</title>
<path fill="none" stroke="orange" stroke-dasharray="5,2" d="M107,-146.236C107,-134.408 107,-119.383 107,-108.576"/>
<polygon fill="orange" stroke="orange" points="103.5,-146.355 107,-156.355 110.5,-146.355 103.5,-146.355"/>
<text text-anchor="middle" x="167.5" y="-130" font-family="Helvetica,sans-Serif" font-size="10.00"> &lt; TemplateNodeMarkers &gt;</text>
</g>
<!-- Node8 -->
<g id="node5" class="node"><title>Node8</title>
<g id="a_node5"><a xlink:href="../../df/daf/class_template_node_list.html" target="_top" xlink:title="Class representing a list of AST nodes in a template. ">
<polygon fill="white" stroke="black" points="199,-84 199,-103 295,-103 295,-84 199,-84"/>
<text text-anchor="middle" x="247" y="-91" font-family="Helvetica,sans-Serif" font-size="10.00">TemplateNodeList</text>
</a>
</g>
</g>
<!-- Node8&#45;&gt;Node4 -->
<g id="edge6" class="edge"><title>Node8&#45;&gt;Node4</title>
<path fill="none" stroke="#9a32cd" stroke-dasharray="5,2" d="M247,-73.3762C247,-56.3977 247,-32.3673 247,-19.6592"/>
<polygon fill="#9a32cd" stroke="#9a32cd" points="243.5,-73.778 247,-83.7781 250.5,-73.7781 243.5,-73.778"/>
<text text-anchor="middle" x="268.5" y="-46.5" font-family="Helvetica,sans-Serif" font-size="10.00"> m_nodes</text>
</g>
<!-- Node9 -->
<g id="node6" class="node"><title>Node9</title>
<polygon fill="white" stroke="#bfbfbf" points="194,-156.5 194,-175.5 316,-175.5 316,-156.5 194,-156.5"/>
<text text-anchor="middle" x="255" y="-163.5" font-family="Helvetica,sans-Serif" font-size="10.00">QList&lt; TemplateNode &gt;</text>
</g>
<!-- Node9&#45;&gt;Node8 -->
<g id="edge7" class="edge"><title>Node9&#45;&gt;Node8</title>
<path fill="none" stroke="midnightblue" d="M252.885,-146.358C251.3,-132.395 249.204,-113.926 247.989,-103.215"/>
<polygon fill="midnightblue" stroke="midnightblue" points="249.414,-146.814 254.019,-156.355 256.369,-146.024 249.414,-146.814"/>
</g>
<!-- Node10 -->
<g id="node7" class="node"><title>Node10</title>
<g id="a_node7"><a xlink:href="../../dc/dfa/class_expr_ast.html" target="_top" xlink:title="Base class for all nodes in the abstract syntax tree of an expression. ">
<polygon fill="white" stroke="black" points="313,-84 313,-103 365,-103 365,-84 313,-84"/>
<text text-anchor="middle" x="339" y="-91" font-family="Helvetica,sans-Serif" font-size="10.00">ExprAst</text>
</a>
</g>
</g>
<!-- Node10&#45;&gt;Node4 -->
<g id="edge8" class="edge"><title>Node10&#45;&gt;Node4</title>
<path fill="none" stroke="#9a32cd" stroke-dasharray="5,2" d="M327.538,-75.6164C319.159,-64.0956 307.022,-48.9909 294,-38 285.37,-30.7165 274.504,-24.3287 265.394,-19.5972"/>
<polygon fill="#9a32cd" stroke="#9a32cd" points="324.78,-77.7781 333.398,-83.9404 330.503,-73.7486 324.78,-77.7781"/>
<text text-anchor="middle" x="348.5" y="-52" font-family="Helvetica,sans-Serif" font-size="10.00"> m_patternExpr</text>
<text text-anchor="middle" x="348.5" y="-41" font-family="Helvetica,sans-Serif" font-size="10.00">m_listExpr</text>
</g>
</g>
</svg>
