<?xml version="1.0" encoding="UTF-8" standalone="no"?>
<!DOCTYPE svg PUBLIC "-//W3C//DTD SVG 1.1//EN"
 "http://www.w3.org/Graphics/SVG/1.1/DTD/svg11.dtd">
<!-- Generated by graphviz version 2.38.0 (20140413.2041)
 -->
<!-- Title: src/filename.cpp Pages: 1 -->
<svg width="1030pt" height="420pt"
 viewBox="0.00 0.00 1029.90 420.00" xmlns="http://www.w3.org/2000/svg" xmlns:xlink="http://www.w3.org/1999/xlink">
<g id="graph0" class="graph" transform="scale(1 1) rotate(0) translate(4 416)">
<title>src/filename.cpp</title>
<polygon fill="white" stroke="none" points="-4,4 -4,-416 1025.9,-416 1025.9,4 -4,4"/>
<!-- Node0 -->
<g id="node1" class="node"><title>Node0</title>
<polygon fill="#bfbfbf" stroke="black" points="621.5,-392.5 621.5,-411.5 710.5,-411.5 710.5,-392.5 621.5,-392.5"/>
<text text-anchor="middle" x="666" y="-399.5" font-family="Helvetica,sans-Serif" font-size="10.00">src/filename.cpp</text>
</g>
<!-- Node1 -->
<g id="node2" class="node"><title>Node1</title>
<g id="a_node2"><a xlink:href="../../dc/dd6/filename_8h.html" target="_top" xlink:title="filename.h">
<polygon fill="white" stroke="black" points="473,-336.5 473,-355.5 535,-355.5 535,-336.5 473,-336.5"/>
<text text-anchor="middle" x="504" y="-343.5" font-family="Helvetica,sans-Serif" font-size="10.00">filename.h</text>
</a>
</g>
</g>
<!-- Node0&#45;&gt;Node1 -->
<g id="edge1" class="edge"><title>Node0&#45;&gt;Node1</title>
<path fill="none" stroke="midnightblue" d="M640.331,-392.444C613.077,-383.359 569.816,-368.939 539.349,-358.783"/>
<polygon fill="midnightblue" stroke="midnightblue" points="540.143,-355.358 529.549,-355.516 537.929,-361.999 540.143,-355.358"/>
</g>
<!-- Node14 -->
<g id="node15" class="node"><title>Node14</title>
<g id="a_node15"><a xlink:href="../../d8/d3c/util_8h.html" target="_top" xlink:title="A bunch of utility functions. ">
<polygon fill="white" stroke="black" points="679,-224.5 679,-243.5 717,-243.5 717,-224.5 679,-224.5"/>
<text text-anchor="middle" x="698" y="-231.5" font-family="Helvetica,sans-Serif" font-size="10.00">util.h</text>
</a>
</g>
</g>
<!-- Node0&#45;&gt;Node14 -->
<g id="edge29" class="edge"><title>Node0&#45;&gt;Node14</title>
<path fill="none" stroke="midnightblue" d="M666.971,-392.422C669.306,-372.522 675.735,-321.725 685,-280 686.985,-271.058 689.741,-261.273 692.204,-253.118"/>
<polygon fill="midnightblue" stroke="midnightblue" points="695.553,-254.133 695.184,-243.544 688.87,-252.052 695.553,-254.133"/>
</g>
<!-- Node20 -->
<g id="node21" class="node"><title>Node20</title>
<g id="a_node21"><a xlink:href="../../db/d16/config_8h.html" target="_top" xlink:title="config.h">
<polygon fill="white" stroke="black" points="701.5,-336.5 701.5,-355.5 752.5,-355.5 752.5,-336.5 701.5,-336.5"/>
<text text-anchor="middle" x="727" y="-343.5" font-family="Helvetica,sans-Serif" font-size="10.00">config.h</text>
</a>
</g>
</g>
<!-- Node0&#45;&gt;Node20 -->
<g id="edge42" class="edge"><title>Node0&#45;&gt;Node20</title>
<path fill="none" stroke="midnightblue" d="M675.801,-392.324C684.818,-384.341 698.406,-372.313 709.318,-362.653"/>
<polygon fill="midnightblue" stroke="midnightblue" points="711.853,-365.083 717.021,-355.834 707.213,-359.842 711.853,-365.083"/>
</g>
<!-- Node2 -->
<g id="node3" class="node"><title>Node2</title>
<polygon fill="white" stroke="#bfbfbf" points="45,-56.5 45,-75.5 91,-75.5 91,-56.5 45,-56.5"/>
<text text-anchor="middle" x="68" y="-63.5" font-family="Helvetica,sans-Serif" font-size="10.00">qdict.h</text>
</g>
<!-- Node1&#45;&gt;Node2 -->
<g id="edge2" class="edge"><title>Node1&#45;&gt;Node2</title>
<path fill="none" stroke="midnightblue" d="M472.853,-344.889C362.97,-343.671 0,-332.284 0,-235 0,-235 0,-235 0,-177 0,-138.548 30.4347,-102.313 50.5821,-82.538"/>
<polygon fill="midnightblue" stroke="midnightblue" points="53.0977,-84.9765 57.9664,-75.5666 48.2922,-79.8865 53.0977,-84.9765"/>
</g>
<!-- Node3 -->
<g id="node4" class="node"><title>Node3</title>
<polygon fill="white" stroke="#bfbfbf" points="581.5,-56.5 581.5,-75.5 624.5,-75.5 624.5,-56.5 581.5,-56.5"/>
<text text-anchor="middle" x="603" y="-63.5" font-family="Helvetica,sans-Serif" font-size="10.00">qlist.h</text>
</g>
<!-- Node1&#45;&gt;Node3 -->
<g id="edge3" class="edge"><title>Node1&#45;&gt;Node3</title>
<path fill="none" stroke="midnightblue" d="M507.071,-336.375C520.873,-297.621 577.313,-139.133 596.545,-85.1254"/>
<polygon fill="midnightblue" stroke="midnightblue" points="599.907,-86.1189 599.964,-75.5243 593.312,-83.7705 599.907,-86.1189"/>
</g>
<!-- Node4 -->
<g id="node5" class="node"><title>Node4</title>
<g id="a_node5"><a xlink:href="../../d4/d3a/filedef_8h.html" target="_top" xlink:title="filedef.h">
<polygon fill="white" stroke="black" points="389.5,-280.5 389.5,-299.5 440.5,-299.5 440.5,-280.5 389.5,-280.5"/>
<text text-anchor="middle" x="415" y="-287.5" font-family="Helvetica,sans-Serif" font-size="10.00">filedef.h</text>
</a>
</g>
</g>
<!-- Node1&#45;&gt;Node4 -->
<g id="edge4" class="edge"><title>Node1&#45;&gt;Node4</title>
<path fill="none" stroke="midnightblue" d="M489.701,-336.324C475.817,-327.9 454.508,-314.971 438.196,-305.074"/>
<polygon fill="midnightblue" stroke="midnightblue" points="439.629,-301.85 429.264,-299.655 435.998,-307.834 439.629,-301.85"/>
</g>
<!-- Node4&#45;&gt;Node2 -->
<g id="edge10" class="edge"><title>Node4&#45;&gt;Node2</title>
<path fill="none" stroke="midnightblue" d="M389.487,-284.988C354.234,-278.905 289.078,-265.701 237,-244 150.026,-207.759 102.126,-214.713 57,-132 49.0502,-117.428 53.6384,-98.5053 59.11,-84.8379"/>
<polygon fill="midnightblue" stroke="midnightblue" points="62.3682,-86.1261 63.2732,-75.57 55.9828,-83.2577 62.3682,-86.1261"/>
</g>
<!-- Node4&#45;&gt;Node3 -->
<g id="edge8" class="edge"><title>Node4&#45;&gt;Node3</title>
<path fill="none" stroke="midnightblue" d="M411.711,-280.44C401.636,-252.627 374.271,-163.629 415,-112 434.123,-87.7592 522.877,-75.1175 571.289,-69.924"/>
<polygon fill="midnightblue" stroke="midnightblue" points="571.661,-73.4043 581.251,-68.8995 570.945,-66.441 571.661,-73.4043"/>
</g>
<!-- Node5 -->
<g id="node6" class="node"><title>Node5</title>
<g id="a_node6"><a xlink:href="../../d1/db5/index_8h.html" target="_top" xlink:title="index.h">
<polygon fill="white" stroke="black" points="650,-112.5 650,-131.5 698,-131.5 698,-112.5 650,-112.5"/>
<text text-anchor="middle" x="674" y="-119.5" font-family="Helvetica,sans-Serif" font-size="10.00">index.h</text>
</a>
</g>
</g>
<!-- Node4&#45;&gt;Node5 -->
<g id="edge5" class="edge"><title>Node4&#45;&gt;Node5</title>
<path fill="none" stroke="midnightblue" d="M428.56,-280.309C470.782,-253.248 600.163,-170.324 652.093,-137.041"/>
<polygon fill="midnightblue" stroke="midnightblue" points="654.043,-139.948 660.574,-131.605 650.266,-134.055 654.043,-139.948"/>
</g>
<!-- Node7 -->
<g id="node8" class="node"><title>Node7</title>
<polygon fill="white" stroke="#bfbfbf" points="424,-112.5 424,-131.5 480,-131.5 480,-112.5 424,-112.5"/>
<text text-anchor="middle" x="452" y="-119.5" font-family="Helvetica,sans-Serif" font-size="10.00">qintdict.h</text>
</g>
<!-- Node4&#45;&gt;Node7 -->
<g id="edge9" class="edge"><title>Node4&#45;&gt;Node7</title>
<path fill="none" stroke="midnightblue" d="M416.989,-280.075C422.813,-253.945 439.917,-177.211 447.859,-141.577"/>
<polygon fill="midnightblue" stroke="midnightblue" points="451.331,-142.09 450.09,-131.568 444.498,-140.567 451.331,-142.09"/>
</g>
<!-- Node8 -->
<g id="node9" class="node"><title>Node8</title>
<g id="a_node9"><a xlink:href="../../df/da1/definition_8h.html" target="_top" xlink:title="definition.h">
<polygon fill="white" stroke="black" points="66,-112.5 66,-131.5 130,-131.5 130,-112.5 66,-112.5"/>
<text text-anchor="middle" x="98" y="-119.5" font-family="Helvetica,sans-Serif" font-size="10.00">definition.h</text>
</a>
</g>
</g>
<!-- Node4&#45;&gt;Node8 -->
<g id="edge11" class="edge"><title>Node4&#45;&gt;Node8</title>
<path fill="none" stroke="midnightblue" d="M389.148,-281.739C343.232,-268.095 245.559,-235.643 174,-188 151.807,-173.224 128.893,-152.787 114.108,-138.796"/>
<polygon fill="midnightblue" stroke="midnightblue" points="116.423,-136.167 106.786,-131.764 111.574,-141.216 116.423,-136.167"/>
</g>
<!-- Node10 -->
<g id="node11" class="node"><title>Node10</title>
<g id="a_node11"><a xlink:href="../../d9/d21/sortdict_8h.html" target="_top" xlink:title="sortdict.h">
<polygon fill="white" stroke="black" points="462.5,-168.5 462.5,-187.5 519.5,-187.5 519.5,-168.5 462.5,-168.5"/>
<text text-anchor="middle" x="491" y="-175.5" font-family="Helvetica,sans-Serif" font-size="10.00">sortdict.h</text>
</a>
</g>
</g>
<!-- Node4&#45;&gt;Node10 -->
<g id="edge16" class="edge"><title>Node4&#45;&gt;Node10</title>
<path fill="none" stroke="midnightblue" d="M421.451,-280.462C428.196,-271.477 439.027,-256.877 448,-244 459.205,-227.921 471.496,-209.228 480.057,-196.027"/>
<polygon fill="midnightblue" stroke="midnightblue" points="483.078,-197.801 485.562,-187.501 477.197,-194.003 483.078,-197.801"/>
</g>
<!-- Node11 -->
<g id="node12" class="node"><title>Node11</title>
<g id="a_node12"><a xlink:href="../../dd/d78/memberlist_8h.html" target="_top" xlink:title="memberlist.h">
<polygon fill="white" stroke="black" points="294.5,-224.5 294.5,-243.5 367.5,-243.5 367.5,-224.5 294.5,-224.5"/>
<text text-anchor="middle" x="331" y="-231.5" font-family="Helvetica,sans-Serif" font-size="10.00">memberlist.h</text>
</a>
</g>
</g>
<!-- Node4&#45;&gt;Node11 -->
<g id="edge20" class="edge"><title>Node4&#45;&gt;Node11</title>
<path fill="none" stroke="midnightblue" d="M401.504,-280.324C388.4,-271.9 368.288,-258.971 352.893,-249.074"/>
<polygon fill="midnightblue" stroke="midnightblue" points="354.767,-246.118 344.463,-243.655 350.982,-252.006 354.767,-246.118"/>
</g>
<!-- Node5&#45;&gt;Node3 -->
<g id="edge6" class="edge"><title>Node5&#45;&gt;Node3</title>
<path fill="none" stroke="midnightblue" d="M662.593,-112.324C651.891,-104.185 635.659,-91.8395 622.837,-82.0874"/>
<polygon fill="midnightblue" stroke="midnightblue" points="624.693,-79.1018 614.615,-75.8339 620.456,-84.6734 624.693,-79.1018"/>
</g>
<!-- Node6 -->
<g id="node7" class="node"><title>Node6</title>
<polygon fill="white" stroke="#bfbfbf" points="705.5,-0.5 705.5,-19.5 764.5,-19.5 764.5,-0.5 705.5,-0.5"/>
<text text-anchor="middle" x="735" y="-7.5" font-family="Helvetica,sans-Serif" font-size="10.00">qcstring.h</text>
</g>
<!-- Node5&#45;&gt;Node6 -->
<g id="edge7" class="edge"><title>Node5&#45;&gt;Node6</title>
<path fill="none" stroke="midnightblue" d="M678.787,-112.368C688.764,-94.376 711.958,-52.5503 725.225,-28.6267"/>
<polygon fill="midnightblue" stroke="midnightblue" points="728.447,-30.0342 730.236,-19.5914 722.325,-26.6393 728.447,-30.0342"/>
</g>
<!-- Node8&#45;&gt;Node2 -->
<g id="edge13" class="edge"><title>Node8&#45;&gt;Node2</title>
<path fill="none" stroke="midnightblue" d="M93.0461,-112.083C88.8959,-104.613 82.8469,-93.7244 77.7333,-84.5199"/>
<polygon fill="midnightblue" stroke="midnightblue" points="80.7777,-82.7929 72.8617,-75.7511 74.6586,-86.1924 80.7777,-82.7929"/>
</g>
<!-- Node8&#45;&gt;Node3 -->
<g id="edge12" class="edge"><title>Node8&#45;&gt;Node3</title>
<path fill="none" stroke="midnightblue" d="M130.28,-117.262C144.59,-115.621 161.632,-113.687 177,-112 324.312,-95.8285 500.405,-77.567 571.215,-70.2676"/>
<polygon fill="midnightblue" stroke="midnightblue" points="571.681,-73.7382 581.27,-69.2319 570.964,-66.7751 571.681,-73.7382"/>
</g>
<!-- Node9 -->
<g id="node10" class="node"><title>Node9</title>
<g id="a_node10"><a xlink:href="../../d9/d49/types_8h.html" target="_top" xlink:title="This file contains a number of basic enums and types. ">
<polygon fill="white" stroke="black" points="295.5,-56.5 295.5,-75.5 344.5,-75.5 344.5,-56.5 295.5,-56.5"/>
<text text-anchor="middle" x="320" y="-63.5" font-family="Helvetica,sans-Serif" font-size="10.00">types.h</text>
</a>
</g>
</g>
<!-- Node8&#45;&gt;Node9 -->
<g id="edge14" class="edge"><title>Node8&#45;&gt;Node9</title>
<path fill="none" stroke="midnightblue" d="M130.281,-113.148C171.608,-103.095 242.931,-85.7464 285.363,-75.4251"/>
<polygon fill="midnightblue" stroke="midnightblue" points="286.347,-78.7879 295.237,-73.0235 284.693,-71.9862 286.347,-78.7879"/>
</g>
<!-- Node9&#45;&gt;Node6 -->
<g id="edge15" class="edge"><title>Node9&#45;&gt;Node6</title>
<path fill="none" stroke="midnightblue" d="M344.717,-61.7838C413.982,-52.771 610.431,-27.209 695.225,-16.1755"/>
<polygon fill="midnightblue" stroke="midnightblue" points="695.77,-19.6342 705.235,-14.873 694.867,-12.6927 695.77,-19.6342"/>
</g>
<!-- Node10&#45;&gt;Node2 -->
<g id="edge18" class="edge"><title>Node10&#45;&gt;Node2</title>
<path fill="none" stroke="midnightblue" d="M493.966,-168.083C497.977,-154.149 503.123,-127.235 489,-112 462.776,-83.7108 196.503,-71.5585 101.475,-68.0998"/>
<polygon fill="midnightblue" stroke="midnightblue" points="101.392,-64.5947 91.2744,-67.7382 101.144,-71.5903 101.392,-64.5947"/>
</g>
<!-- Node10&#45;&gt;Node3 -->
<g id="edge17" class="edge"><title>Node10&#45;&gt;Node3</title>
<path fill="none" stroke="midnightblue" d="M499.788,-168.368C518.599,-149.894 562.993,-106.293 586.97,-82.7436"/>
<polygon fill="midnightblue" stroke="midnightblue" points="589.57,-85.0956 594.252,-75.5914 584.665,-80.1015 589.57,-85.0956"/>
</g>
<!-- Node10&#45;&gt;Node7 -->
<g id="edge19" class="edge"><title>Node10&#45;&gt;Node7</title>
<path fill="none" stroke="midnightblue" d="M484.56,-168.083C479.051,-160.455 470.969,-149.264 464.235,-139.941"/>
<polygon fill="midnightblue" stroke="midnightblue" points="467.013,-137.809 458.32,-131.751 461.338,-141.907 467.013,-137.809"/>
</g>
<!-- Node11&#45;&gt;Node3 -->
<g id="edge21" class="edge"><title>Node11&#45;&gt;Node3</title>
<path fill="none" stroke="midnightblue" d="M333.555,-224.153C341.027,-198.874 363.484,-127.17 382,-112 410.608,-88.5618 517.334,-75.2111 571.312,-69.8229"/>
<polygon fill="midnightblue" stroke="midnightblue" points="571.748,-73.2971 581.365,-68.8509 571.075,-66.3296 571.748,-73.2971"/>
</g>
<!-- Node11&#45;&gt;Node9 -->
<g id="edge28" class="edge"><title>Node11&#45;&gt;Node9</title>
<path fill="none" stroke="midnightblue" d="M330.409,-224.075C328.677,-197.945 323.592,-121.211 321.231,-85.577"/>
<polygon fill="midnightblue" stroke="midnightblue" points="324.721,-85.3148 320.568,-75.5681 317.737,-85.7777 324.721,-85.3148"/>
</g>
<!-- Node11&#45;&gt;Node10 -->
<g id="edge27" class="edge"><title>Node11&#45;&gt;Node10</title>
<path fill="none" stroke="midnightblue" d="M356.352,-224.444C383.269,-215.359 425.996,-200.939 456.087,-190.783"/>
<polygon fill="midnightblue" stroke="midnightblue" points="457.41,-194.031 465.766,-187.516 455.172,-187.398 457.41,-194.031"/>
</g>
<!-- Node12 -->
<g id="node13" class="node"><title>Node12</title>
<g id="a_node13"><a xlink:href="../../d4/d46/memberdef_8h.html" target="_top" xlink:title="memberdef.h">
<polygon fill="white" stroke="black" points="183,-168.5 183,-187.5 257,-187.5 257,-168.5 183,-168.5"/>
<text text-anchor="middle" x="220" y="-175.5" font-family="Helvetica,sans-Serif" font-size="10.00">memberdef.h</text>
</a>
</g>
</g>
<!-- Node11&#45;&gt;Node12 -->
<g id="edge22" class="edge"><title>Node11&#45;&gt;Node12</title>
<path fill="none" stroke="midnightblue" d="M313.166,-224.324C295.284,-215.625 267.525,-202.12 246.954,-192.113"/>
<polygon fill="midnightblue" stroke="midnightblue" points="248.313,-188.882 237.79,-187.655 245.251,-195.177 248.313,-188.882"/>
</g>
<!-- Node12&#45;&gt;Node3 -->
<g id="edge23" class="edge"><title>Node12&#45;&gt;Node3</title>
<path fill="none" stroke="midnightblue" d="M233.142,-168.339C255.131,-154.264 301.192,-126.539 344,-112 423.111,-85.1301 521.523,-73.6779 571.176,-69.3335"/>
<polygon fill="midnightblue" stroke="midnightblue" points="571.618,-72.8089 581.292,-68.4887 571.035,-65.8332 571.618,-72.8089"/>
</g>
<!-- Node12&#45;&gt;Node8 -->
<g id="edge26" class="edge"><title>Node12&#45;&gt;Node8</title>
<path fill="none" stroke="midnightblue" d="M200.669,-168.444C180.68,-159.596 149.257,-145.687 126.436,-135.586"/>
<polygon fill="midnightblue" stroke="midnightblue" points="127.802,-132.363 117.241,-131.516 124.968,-138.764 127.802,-132.363"/>
</g>
<!-- Node12&#45;&gt;Node9 -->
<g id="edge25" class="edge"><title>Node12&#45;&gt;Node9</title>
<path fill="none" stroke="midnightblue" d="M207.072,-168.407C189.705,-155.794 162.593,-131.637 177,-112 201.589,-78.4843 251.157,-69.273 284.965,-67.0852"/>
<polygon fill="midnightblue" stroke="midnightblue" points="285.511,-70.5636 295.336,-66.5998 285.183,-63.5713 285.511,-70.5636"/>
</g>
<!-- Node13 -->
<g id="node14" class="node"><title>Node13</title>
<polygon fill="white" stroke="#bfbfbf" points="186,-112.5 186,-131.5 254,-131.5 254,-112.5 186,-112.5"/>
<text text-anchor="middle" x="220" y="-119.5" font-family="Helvetica,sans-Serif" font-size="10.00">sys/types.h</text>
</g>
<!-- Node12&#45;&gt;Node13 -->
<g id="edge24" class="edge"><title>Node12&#45;&gt;Node13</title>
<path fill="none" stroke="midnightblue" d="M220,-168.083C220,-161.006 220,-150.861 220,-141.986"/>
<polygon fill="midnightblue" stroke="midnightblue" points="223.5,-141.751 220,-131.751 216.5,-141.751 223.5,-141.751"/>
</g>
<!-- Node14&#45;&gt;Node3 -->
<g id="edge30" class="edge"><title>Node14&#45;&gt;Node3</title>
<path fill="none" stroke="midnightblue" d="M701.884,-224.497C710.87,-203.427 730.594,-147.916 707,-112 691.027,-87.6851 658.806,-76.4457 634.438,-71.289"/>
<polygon fill="midnightblue" stroke="midnightblue" points="635.02,-67.8371 624.545,-69.431 633.727,-74.7168 635.02,-67.8371"/>
</g>
<!-- Node14&#45;&gt;Node9 -->
<g id="edge32" class="edge"><title>Node14&#45;&gt;Node9</title>
<path fill="none" stroke="midnightblue" d="M687.17,-224.233C659.246,-202.06 581.81,-143.294 508,-112 456.88,-90.3262 393.314,-77.8717 354.739,-71.7726"/>
<polygon fill="midnightblue" stroke="midnightblue" points="354.967,-68.2669 344.553,-70.2185 353.911,-75.1868 354.967,-68.2669"/>
</g>
<!-- Node14&#45;&gt;Node10 -->
<g id="edge33" class="edge"><title>Node14&#45;&gt;Node10</title>
<path fill="none" stroke="midnightblue" d="M678.897,-228.017C645.005,-219.175 573.755,-200.588 529.386,-189.014"/>
<polygon fill="midnightblue" stroke="midnightblue" points="530.098,-185.582 519.538,-186.445 528.331,-192.356 530.098,-185.582"/>
</g>
<!-- Node15 -->
<g id="node16" class="node"><title>Node15</title>
<polygon fill="white" stroke="#bfbfbf" points="754.5,-168.5 754.5,-187.5 803.5,-187.5 803.5,-168.5 754.5,-168.5"/>
<text text-anchor="middle" x="779" y="-175.5" font-family="Helvetica,sans-Serif" font-size="10.00">ctype.h</text>
</g>
<!-- Node14&#45;&gt;Node15 -->
<g id="edge31" class="edge"><title>Node14&#45;&gt;Node15</title>
<path fill="none" stroke="midnightblue" d="M711.014,-224.324C723.532,-215.979 742.682,-203.212 757.471,-193.352"/>
<polygon fill="midnightblue" stroke="midnightblue" points="759.639,-196.114 766.018,-187.655 755.756,-190.289 759.639,-196.114"/>
</g>
<!-- Node16 -->
<g id="node17" class="node"><title>Node16</title>
<g id="a_node17"><a xlink:href="../../de/d9c/docparser_8h.html" target="_top" xlink:title="docparser.h">
<polygon fill="white" stroke="black" points="843,-168.5 843,-187.5 911,-187.5 911,-168.5 843,-168.5"/>
<text text-anchor="middle" x="877" y="-175.5" font-family="Helvetica,sans-Serif" font-size="10.00">docparser.h</text>
</a>
</g>
</g>
<!-- Node14&#45;&gt;Node16 -->
<g id="edge34" class="edge"><title>Node14&#45;&gt;Node16</title>
<path fill="none" stroke="midnightblue" d="M717.156,-227.221C746.01,-218.517 801.214,-201.863 838.573,-190.593"/>
<polygon fill="midnightblue" stroke="midnightblue" points="840.037,-193.807 848.6,-187.568 838.015,-187.105 840.037,-193.807"/>
</g>
<!-- Node16&#45;&gt;Node3 -->
<g id="edge36" class="edge"><title>Node16&#45;&gt;Node3</title>
<path fill="none" stroke="midnightblue" d="M859.211,-168.487C823.508,-151.412 746.005,-114.4 740,-112 704.388,-97.7685 662.34,-84.4559 634.31,-76.0582"/>
<polygon fill="midnightblue" stroke="midnightblue" points="635.238,-72.6828 624.656,-73.1942 633.247,-79.3937 635.238,-72.6828"/>
</g>
<!-- Node16&#45;&gt;Node6 -->
<g id="edge37" class="edge"><title>Node16&#45;&gt;Node6</title>
<path fill="none" stroke="midnightblue" d="M911.303,-173.886C960.964,-167.958 1044.04,-151.879 1016,-112 960.777,-33.4694 838.401,-15.7028 774.928,-11.8825"/>
<polygon fill="midnightblue" stroke="midnightblue" points="775.063,-8.38495 764.897,-11.3661 774.703,-15.3757 775.063,-8.38495"/>
</g>
<!-- Node17 -->
<g id="node18" class="node"><title>Node17</title>
<polygon fill="white" stroke="#bfbfbf" points="876,-112.5 876,-131.5 922,-131.5 922,-112.5 876,-112.5"/>
<text text-anchor="middle" x="899" y="-119.5" font-family="Helvetica,sans-Serif" font-size="10.00">stdio.h</text>
</g>
<!-- Node16&#45;&gt;Node17 -->
<g id="edge35" class="edge"><title>Node16&#45;&gt;Node17</title>
<path fill="none" stroke="midnightblue" d="M880.633,-168.083C883.612,-160.77 887.926,-150.181 891.625,-141.103"/>
<polygon fill="midnightblue" stroke="midnightblue" points="894.903,-142.333 895.435,-131.751 888.42,-139.691 894.903,-142.333"/>
</g>
<!-- Node18 -->
<g id="node19" class="node"><title>Node18</title>
<g id="a_node19"><a xlink:href="../../d2/d3c/docvisitor_8h.html" target="_top" xlink:title="docvisitor.h">
<polygon fill="white" stroke="black" points="940.5,-112.5 940.5,-131.5 1007.5,-131.5 1007.5,-112.5 940.5,-112.5"/>
<text text-anchor="middle" x="974" y="-119.5" font-family="Helvetica,sans-Serif" font-size="10.00">docvisitor.h</text>
</a>
</g>
</g>
<!-- Node16&#45;&gt;Node18 -->
<g id="edge38" class="edge"><title>Node16&#45;&gt;Node18</title>
<path fill="none" stroke="midnightblue" d="M892.585,-168.324C907.999,-159.743 931.812,-146.486 949.71,-136.522"/>
<polygon fill="midnightblue" stroke="midnightblue" points="951.419,-139.577 958.454,-131.655 948.014,-133.461 951.419,-139.577"/>
</g>
<!-- Node19 -->
<g id="node20" class="node"><title>Node19</title>
<g id="a_node20"><a xlink:href="../../d0/d73/htmlattrib_8h.html" target="_top" xlink:title="htmlattrib.h">
<polygon fill="white" stroke="black" points="792.5,-112.5 792.5,-131.5 857.5,-131.5 857.5,-112.5 792.5,-112.5"/>
<text text-anchor="middle" x="825" y="-119.5" font-family="Helvetica,sans-Serif" font-size="10.00">htmlattrib.h</text>
</a>
</g>
</g>
<!-- Node16&#45;&gt;Node19 -->
<g id="edge39" class="edge"><title>Node16&#45;&gt;Node19</title>
<path fill="none" stroke="midnightblue" d="M868.413,-168.083C860.841,-160.22 849.622,-148.569 840.486,-139.081"/>
<polygon fill="midnightblue" stroke="midnightblue" points="842.885,-136.527 833.427,-131.751 837.842,-141.382 842.885,-136.527"/>
</g>
<!-- Node19&#45;&gt;Node3 -->
<g id="edge41" class="edge"><title>Node19&#45;&gt;Node3</title>
<path fill="none" stroke="midnightblue" d="M792.243,-113.032C749.88,-102.728 676.581,-84.8982 634.727,-74.7174"/>
<polygon fill="midnightblue" stroke="midnightblue" points="635.346,-71.2658 624.802,-72.3031 633.691,-78.0675 635.346,-71.2658"/>
</g>
<!-- Node19&#45;&gt;Node6 -->
<g id="edge40" class="edge"><title>Node19&#45;&gt;Node6</title>
<path fill="none" stroke="midnightblue" d="M817.938,-112.368C802.954,-94.0547 767.767,-51.0489 748.387,-27.3624"/>
<polygon fill="midnightblue" stroke="midnightblue" points="751.071,-25.1147 742.029,-19.5914 745.653,-29.5474 751.071,-25.1147"/>
</g>
<!-- Node21 -->
<g id="node22" class="node"><title>Node21</title>
<polygon fill="white" stroke="#bfbfbf" points="694,-280.5 694,-299.5 774,-299.5 774,-280.5 694,-280.5"/>
<text text-anchor="middle" x="734" y="-287.5" font-family="Helvetica,sans-Serif" font-size="10.00">configvalues.h</text>
</g>
<!-- Node20&#45;&gt;Node21 -->
<g id="edge43" class="edge"><title>Node20&#45;&gt;Node21</title>
<path fill="none" stroke="midnightblue" d="M728.156,-336.083C729.084,-328.927 730.418,-318.635 731.577,-309.691"/>
<polygon fill="midnightblue" stroke="midnightblue" points="735.051,-310.118 732.866,-299.751 728.109,-309.218 735.051,-310.118"/>
</g>
</g>
</svg>
