<?xml version="1.0" encoding="UTF-8" standalone="no"?>
<!DOCTYPE svg PUBLIC "-//W3C//DTD SVG 1.1//EN"
 "http://www.w3.org/Graphics/SVG/1.1/DTD/svg11.dtd">
<!-- Generated by graphviz version 2.38.0 (20140413.2041)
 -->
<!-- Title: SearchIndexContext::Private::Cachable Pages: 1 -->
<svg width="409pt" height="376pt"
 viewBox="0.00 0.00 409.00 376.00" xmlns="http://www.w3.org/2000/svg" xmlns:xlink="http://www.w3.org/1999/xlink">
<g id="graph0" class="graph" transform="scale(1 1) rotate(0) translate(4 372)">
<title>SearchIndexContext::Private::Cachable</title>
<polygon fill="white" stroke="none" points="-4,4 -4,-372 405,-372 405,4 -4,4"/>
<!-- Node1 -->
<g id="node1" class="node"><title>Node1</title>
<polygon fill="#bfbfbf" stroke="black" points="198,-0.5 198,-30.5 304,-30.5 304,-0.5 198,-0.5"/>
<text text-anchor="start" x="206" y="-18.5" font-family="Helvetica,sans-Serif" font-size="10.00">SearchIndexContext</text>
<text text-anchor="middle" x="251" y="-7.5" font-family="Helvetica,sans-Serif" font-size="10.00">::Private::Cachable</text>
</g>
<!-- Node2 -->
<g id="node2" class="node"><title>Node2</title>
<g id="a_node2"><a xlink:href="../../df/d12/class_shared_ptr.html" target="_top" xlink:title="SharedPtr\&lt; SymbolIndices\lContext \&gt;">
<polygon fill="white" stroke="black" points="184,-78.5 184,-108.5 318,-108.5 318,-78.5 184,-78.5"/>
<text text-anchor="start" x="192" y="-96.5" font-family="Helvetica,sans-Serif" font-size="10.00">SharedPtr&lt; SymbolIndices</text>
<text text-anchor="middle" x="251" y="-85.5" font-family="Helvetica,sans-Serif" font-size="10.00">Context &gt;</text>
</a>
</g>
</g>
<!-- Node2&#45;&gt;Node1 -->
<g id="edge1" class="edge"><title>Node2&#45;&gt;Node1</title>
<path fill="none" stroke="#9a32cd" stroke-dasharray="5,2" d="M251,-68.0898C251,-55.7565 251,-41.2237 251,-30.7309"/>
<polygon fill="#9a32cd" stroke="#9a32cd" points="247.5,-68.2049 251,-78.205 254.5,-68.205 247.5,-68.2049"/>
<text text-anchor="middle" x="284.5" y="-52" font-family="Helvetica,sans-Serif" font-size="10.00"> symbolIndices</text>
</g>
<!-- Node3 -->
<g id="node3" class="node"><title>Node3</title>
<g id="a_node3"><a xlink:href="../../d8/d39/class_symbol_indices_context.html" target="_top" xlink:title="SymbolIndicesContext">
<polygon fill="white" stroke="black" points="90,-156.5 90,-175.5 206,-175.5 206,-156.5 90,-156.5"/>
<text text-anchor="middle" x="148" y="-163.5" font-family="Helvetica,sans-Serif" font-size="10.00">SymbolIndicesContext</text>
</a>
</g>
</g>
<!-- Node3&#45;&gt;Node2 -->
<g id="edge2" class="edge"><title>Node3&#45;&gt;Node2</title>
<path fill="none" stroke="#9a32cd" stroke-dasharray="5,2" d="M169.235,-150.465C187.169,-138.19 212.693,-120.72 230.435,-108.576"/>
<polygon fill="#9a32cd" stroke="#9a32cd" points="166.905,-147.819 160.63,-156.355 170.859,-153.595 166.905,-147.819"/>
<text text-anchor="middle" x="217" y="-130" font-family="Helvetica,sans-Serif" font-size="10.00"> m_ptr</text>
</g>
<!-- Node4 -->
<g id="node4" class="node"><title>Node4</title>
<g id="a_node4"><a xlink:href="../../d8/d96/class_ref_counted_context.html" target="_top" xlink:title="Helper class to support reference counting. ">
<polygon fill="white" stroke="black" points="0,-229 0,-248 104,-248 104,-229 0,-229"/>
<text text-anchor="middle" x="52" y="-236" font-family="Helvetica,sans-Serif" font-size="10.00">RefCountedContext</text>
</a>
</g>
</g>
<!-- Node4&#45;&gt;Node3 -->
<g id="edge3" class="edge"><title>Node4&#45;&gt;Node3</title>
<path fill="none" stroke="midnightblue" d="M71.9341,-222.861C91.314,-208.629 120.103,-187.487 136.132,-175.715"/>
<polygon fill="midnightblue" stroke="midnightblue" points="69.7599,-220.115 63.7715,-228.855 73.9032,-225.757 69.7599,-220.115"/>
</g>
<!-- Node5 -->
<g id="node5" class="node"><title>Node5</title>
<g id="a_node5"><a xlink:href="../../d6/d88/class_template_list_intf.html" target="_top" xlink:title="Abstract read&#45;only interface for a context value of type list. ">
<polygon fill="white" stroke="black" points="116.5,-348.5 116.5,-367.5 203.5,-367.5 203.5,-348.5 116.5,-348.5"/>
<text text-anchor="middle" x="160" y="-355.5" font-family="Helvetica,sans-Serif" font-size="10.00">TemplateListIntf</text>
</a>
</g>
</g>
<!-- Node5&#45;&gt;Node3 -->
<g id="edge4" class="edge"><title>Node5&#45;&gt;Node3</title>
<path fill="none" stroke="midnightblue" d="M155.615,-338.454C153.839,-330.113 151.979,-320.114 151,-311 145.524,-260.032 146.895,-198.352 147.658,-175.8"/>
<polygon fill="midnightblue" stroke="midnightblue" points="152.209,-339.263 157.82,-348.25 159.039,-337.726 152.209,-339.263"/>
</g>
<!-- Node7 -->
<g id="node7" class="node"><title>Node7</title>
<g id="a_node7"><a xlink:href="../../d6/dcb/class_generic_node_list_context.html" target="_top" xlink:title="standard template list implementation ">
<polygon fill="white" stroke="black" points="160,-291.5 160,-310.5 284,-310.5 284,-291.5 160,-291.5"/>
<text text-anchor="middle" x="222" y="-298.5" font-family="Helvetica,sans-Serif" font-size="10.00">GenericNodeListContext</text>
</a>
</g>
</g>
<!-- Node5&#45;&gt;Node7 -->
<g id="edge7" class="edge"><title>Node5&#45;&gt;Node7</title>
<path fill="none" stroke="midnightblue" d="M177.238,-341.708C188.503,-331.715 202.81,-319.024 212.176,-310.715"/>
<polygon fill="midnightblue" stroke="midnightblue" points="174.846,-339.152 169.688,-348.406 179.491,-344.388 174.846,-339.152"/>
</g>
<!-- Node6 -->
<g id="node6" class="node"><title>Node6</title>
<g id="a_node6"><a xlink:href="../../d6/d8b/class_symbol_indices_context_1_1_private.html" target="_top" xlink:title="SymbolIndicesContext\l::Private">
<polygon fill="white" stroke="black" points="160,-223.5 160,-253.5 276,-253.5 276,-223.5 160,-223.5"/>
<text text-anchor="start" x="168" y="-241.5" font-family="Helvetica,sans-Serif" font-size="10.00">SymbolIndicesContext</text>
<text text-anchor="middle" x="218" y="-230.5" font-family="Helvetica,sans-Serif" font-size="10.00">::Private</text>
</a>
</g>
</g>
<!-- Node6&#45;&gt;Node3 -->
<g id="edge5" class="edge"><title>Node6&#45;&gt;Node3</title>
<path fill="none" stroke="#9a32cd" stroke-dasharray="5,2" d="M196.788,-216.137C183.4,-202.653 166.807,-185.942 156.83,-175.893"/>
<polygon fill="#9a32cd" stroke="#9a32cd" points="194.305,-218.603 203.834,-223.233 199.272,-213.671 194.305,-218.603"/>
<text text-anchor="middle" x="190.5" y="-197" font-family="Helvetica,sans-Serif" font-size="10.00"> p</text>
</g>
<!-- Node7&#45;&gt;Node6 -->
<g id="edge6" class="edge"><title>Node7&#45;&gt;Node6</title>
<path fill="none" stroke="midnightblue" d="M220.758,-281.215C220.172,-272.356 219.485,-261.958 218.943,-253.759"/>
<polygon fill="midnightblue" stroke="midnightblue" points="217.275,-281.585 221.427,-291.332 224.259,-281.123 217.275,-281.585"/>
</g>
<!-- Node8 -->
<g id="node8" class="node"><title>Node8</title>
<g id="a_node8"><a xlink:href="../../df/d12/class_shared_ptr.html" target="_top" xlink:title="Reference counting smart pointer. ">
<polygon fill="white" stroke="black" points="258,-156.5 258,-175.5 342,-175.5 342,-156.5 258,-156.5"/>
<text text-anchor="middle" x="300" y="-163.5" font-family="Helvetica,sans-Serif" font-size="10.00">SharedPtr&lt; T &gt;</text>
</a>
</g>
</g>
<!-- Node8&#45;&gt;Node2 -->
<g id="edge8" class="edge"><title>Node8&#45;&gt;Node2</title>
<path fill="none" stroke="orange" stroke-dasharray="5,2" d="M288.211,-148.039C279.822,-135.968 268.682,-119.94 260.783,-108.576"/>
<polygon fill="orange" stroke="orange" points="285.41,-150.141 293.992,-156.355 291.158,-146.146 285.41,-150.141"/>
<text text-anchor="middle" x="340.5" y="-130" font-family="Helvetica,sans-Serif" font-size="10.00"> &lt; SymbolIndicesContext &gt;</text>
</g>
<!-- Node9 -->
<g id="node9" class="node"><title>Node9</title>
<polygon fill="white" stroke="#bfbfbf" points="293.5,-229 293.5,-248 322.5,-248 322.5,-229 293.5,-229"/>
<text text-anchor="middle" x="308" y="-236" font-family="Helvetica,sans-Serif" font-size="10.00">T</text>
</g>
<!-- Node9&#45;&gt;Node8 -->
<g id="edge9" class="edge"><title>Node9&#45;&gt;Node8</title>
<path fill="none" stroke="#9a32cd" stroke-dasharray="5,2" d="M305.885,-218.858C304.3,-204.895 302.204,-186.426 300.989,-175.715"/>
<polygon fill="#9a32cd" stroke="#9a32cd" points="302.414,-219.314 307.019,-228.855 309.369,-218.524 302.414,-219.314"/>
<text text-anchor="middle" x="319" y="-197" font-family="Helvetica,sans-Serif" font-size="10.00"> m_ptr</text>
</g>
</g>
</svg>
