<?xml version="1.0" encoding="UTF-8" standalone="no"?>
<!DOCTYPE svg PUBLIC "-//W3C//DTD SVG 1.1//EN"
 "http://www.w3.org/Graphics/SVG/1.1/DTD/svg11.dtd">
<!-- Generated by graphviz version 2.38.0 (20140413.2041)
 -->
<!-- Title: TemplateNodeEncoding Pages: 1 -->
<svg width="375pt" height="230pt"
 viewBox="0.00 0.00 375.00 230.00" xmlns="http://www.w3.org/2000/svg" xmlns:xlink="http://www.w3.org/1999/xlink">
<g id="graph0" class="graph" transform="scale(1 1) rotate(0) translate(4 226)">
<title>TemplateNodeEncoding</title>
<polygon fill="white" stroke="none" points="-4,4 -4,-226 371,-226 371,4 -4,4"/>
<!-- Node4 -->
<g id="node1" class="node"><title>Node4</title>
<polygon fill="#bfbfbf" stroke="black" points="188.5,-0.5 188.5,-19.5 309.5,-19.5 309.5,-0.5 188.5,-0.5"/>
<text text-anchor="middle" x="249" y="-7.5" font-family="Helvetica,sans-Serif" font-size="10.00">TemplateNodeEncoding</text>
</g>
<!-- Node5 -->
<g id="node2" class="node"><title>Node5</title>
<g id="a_node2"><a xlink:href="../../d8/d78/class_template_node_creator.html" target="_top" xlink:title="TemplateNodeCreator\l\&lt; TemplateNodeEncoding \&gt;">
<polygon fill="white" stroke="black" points="37.5,-67.5 37.5,-97.5 176.5,-97.5 176.5,-67.5 37.5,-67.5"/>
<text text-anchor="start" x="45.5" y="-85.5" font-family="Helvetica,sans-Serif" font-size="10.00">TemplateNodeCreator</text>
<text text-anchor="middle" x="107" y="-74.5" font-family="Helvetica,sans-Serif" font-size="10.00">&lt; TemplateNodeEncoding &gt;</text>
</a>
</g>
</g>
<!-- Node5&#45;&gt;Node4 -->
<g id="edge1" class="edge"><title>Node5&#45;&gt;Node4</title>
<path fill="none" stroke="midnightblue" d="M144.597,-62.8339C172.874,-48.7948 210.307,-30.2102 231.812,-19.5336"/>
<polygon fill="midnightblue" stroke="midnightblue" points="142.795,-59.8209 135.395,-67.4027 145.908,-66.0907 142.795,-59.8209"/>
</g>
<!-- Node6 -->
<g id="node3" class="node"><title>Node6</title>
<g id="a_node3"><a xlink:href="../../d6/d53/class_template_node.html" target="_top" xlink:title="Base class of all nodes in a template&#39;s AST. ">
<polygon fill="white" stroke="black" points="0,-202.5 0,-221.5 80,-221.5 80,-202.5 0,-202.5"/>
<text text-anchor="middle" x="40" y="-209.5" font-family="Helvetica,sans-Serif" font-size="10.00">TemplateNode</text>
</a>
</g>
</g>
<!-- Node6&#45;&gt;Node5 -->
<g id="edge2" class="edge"><title>Node6&#45;&gt;Node5</title>
<path fill="none" stroke="midnightblue" d="M31.4471,-193.092C26.1569,-179.325 21.6482,-160.159 29,-145 39.1589,-124.053 60.2945,-108.096 78.0046,-97.6913"/>
<polygon fill="midnightblue" stroke="midnightblue" points="28.291,-194.613 35.4614,-202.412 34.72,-191.843 28.291,-194.613"/>
</g>
<!-- Node6&#45;&gt;Node6 -->
<g id="edge3" class="edge"><title>Node6&#45;&gt;Node6</title>
<path fill="none" stroke="#9a32cd" stroke-dasharray="5,2" d="M90.2648,-216.218C95.0048,-215.354 98,-213.948 98,-212 98,-208.883 90.3323,-207.154 80.1186,-206.813"/>
<polygon fill="#9a32cd" stroke="#9a32cd" points="89.7405,-212.752 80.1186,-217.187 90.4062,-219.72 89.7405,-212.752"/>
<text text-anchor="middle" x="120" y="-209.5" font-family="Helvetica,sans-Serif" font-size="10.00"> m_parent</text>
</g>
<!-- Node7 -->
<g id="node4" class="node"><title>Node7</title>
<g id="a_node4"><a xlink:href="../../d8/d78/class_template_node_creator.html" target="_top" xlink:title="Helper class for creating template AST tag nodes and returning the template for a given node...">
<polygon fill="white" stroke="black" points="38.5,-145.5 38.5,-164.5 175.5,-164.5 175.5,-145.5 38.5,-145.5"/>
<text text-anchor="middle" x="107" y="-152.5" font-family="Helvetica,sans-Serif" font-size="10.00">TemplateNodeCreator&lt; T &gt;</text>
</a>
</g>
</g>
<!-- Node6&#45;&gt;Node7 -->
<g id="edge5" class="edge"><title>Node6&#45;&gt;Node7</title>
<path fill="none" stroke="midnightblue" d="M58.2748,-195.998C70.501,-185.962 86.1637,-173.104 96.3837,-164.715"/>
<polygon fill="midnightblue" stroke="midnightblue" points="55.9773,-193.356 50.4688,-202.406 60.4188,-198.767 55.9773,-193.356"/>
</g>
<!-- Node7&#45;&gt;Node5 -->
<g id="edge4" class="edge"><title>Node7&#45;&gt;Node5</title>
<path fill="none" stroke="orange" stroke-dasharray="5,2" d="M107,-135.236C107,-123.408 107,-108.383 107,-97.5762"/>
<polygon fill="orange" stroke="orange" points="103.5,-135.355 107,-145.355 110.5,-135.355 103.5,-135.355"/>
<text text-anchor="middle" x="170" y="-119" font-family="Helvetica,sans-Serif" font-size="10.00"> &lt; TemplateNodeEncoding &gt;</text>
</g>
<!-- Node8 -->
<g id="node5" class="node"><title>Node8</title>
<g id="a_node5"><a xlink:href="../../df/daf/class_template_node_list.html" target="_top" xlink:title="Class representing a list of AST nodes in a template. ">
<polygon fill="white" stroke="black" points="201,-73 201,-92 297,-92 297,-73 201,-73"/>
<text text-anchor="middle" x="249" y="-80" font-family="Helvetica,sans-Serif" font-size="10.00">TemplateNodeList</text>
</a>
</g>
</g>
<!-- Node8&#45;&gt;Node4 -->
<g id="edge6" class="edge"><title>Node8&#45;&gt;Node4</title>
<path fill="none" stroke="#9a32cd" stroke-dasharray="5,2" d="M249,-62.442C249,-48.5305 249,-30.3203 249,-19.7154"/>
<polygon fill="#9a32cd" stroke="#9a32cd" points="245.5,-62.8553 249,-72.8553 252.5,-62.8553 245.5,-62.8553"/>
<text text-anchor="middle" x="270.5" y="-41" font-family="Helvetica,sans-Serif" font-size="10.00"> m_nodes</text>
</g>
<!-- Node9 -->
<g id="node6" class="node"><title>Node9</title>
<polygon fill="white" stroke="#bfbfbf" points="194,-145.5 194,-164.5 316,-164.5 316,-145.5 194,-145.5"/>
<text text-anchor="middle" x="255" y="-152.5" font-family="Helvetica,sans-Serif" font-size="10.00">QList&lt; TemplateNode &gt;</text>
</g>
<!-- Node9&#45;&gt;Node8 -->
<g id="edge7" class="edge"><title>Node9&#45;&gt;Node8</title>
<path fill="none" stroke="midnightblue" d="M253.413,-135.358C252.225,-121.395 250.653,-102.926 249.742,-92.2154"/>
<polygon fill="midnightblue" stroke="midnightblue" points="249.929,-135.688 254.264,-145.355 256.904,-135.095 249.929,-135.688"/>
</g>
<!-- Node10 -->
<g id="node7" class="node"><title>Node10</title>
<g id="a_node7"><a xlink:href="../../dc/dfa/class_expr_ast.html" target="_top" xlink:title="Base class for all nodes in the abstract syntax tree of an expression. ">
<polygon fill="white" stroke="black" points="315,-73 315,-92 367,-92 367,-73 315,-73"/>
<text text-anchor="middle" x="341" y="-80" font-family="Helvetica,sans-Serif" font-size="10.00">ExprAst</text>
</a>
</g>
</g>
<!-- Node10&#45;&gt;Node4 -->
<g id="edge8" class="edge"><title>Node10&#45;&gt;Node4</title>
<path fill="none" stroke="#9a32cd" stroke-dasharray="5,2" d="M326.349,-65.5167C317.936,-56.8228 306.903,-46.2019 296,-38 286.675,-30.9853 275.357,-24.4314 266.164,-19.5376"/>
<polygon fill="#9a32cd" stroke="#9a32cd" points="323.849,-67.967 333.259,-72.8345 328.938,-63.1609 323.849,-67.967"/>
<text text-anchor="middle" x="336.5" y="-41" font-family="Helvetica,sans-Serif" font-size="10.00"> m_encExpr</text>
</g>
</g>
</svg>
