<?xml version="1.0" encoding="UTF-8" standalone="no"?>
<!DOCTYPE svg PUBLIC "-//W3C//DTD SVG 1.1//EN"
 "http://www.w3.org/Graphics/SVG/1.1/DTD/svg11.dtd">
<!-- Generated by graphviz version 2.38.0 (20140413.2041)
 -->
<!-- Title: TranslatorJapaneseEn Pages: 1 -->
<svg width="122pt" height="140pt"
 viewBox="0.00 0.00 122.00 140.00" xmlns="http://www.w3.org/2000/svg" xmlns:xlink="http://www.w3.org/1999/xlink">
<g id="graph0" class="graph" transform="scale(1 1) rotate(0) translate(4 136)">
<title>TranslatorJapaneseEn</title>
<polygon fill="white" stroke="none" points="-4,4 -4,-136 118,-136 118,4 -4,4"/>
<!-- Node3 -->
<g id="node1" class="node"><title>Node3</title>
<polygon fill="#bfbfbf" stroke="black" points="0,-0.5 0,-19.5 114,-19.5 114,-0.5 0,-0.5"/>
<text text-anchor="middle" x="57" y="-7.5" font-family="Helvetica,sans-Serif" font-size="10.00">TranslatorJapaneseEn</text>
</g>
<!-- Node4 -->
<g id="node2" class="node"><title>Node4</title>
<g id="a_node2"><a xlink:href="../../d6/d78/class_translator_english.html" target="_top" xlink:title="TranslatorEnglish">
<polygon fill="white" stroke="black" points="11,-56.5 11,-75.5 103,-75.5 103,-56.5 11,-56.5"/>
<text text-anchor="middle" x="57" y="-63.5" font-family="Helvetica,sans-Serif" font-size="10.00">TranslatorEnglish</text>
</a>
</g>
</g>
<!-- Node4&#45;&gt;Node3 -->
<g id="edge1" class="edge"><title>Node4&#45;&gt;Node3</title>
<path fill="none" stroke="midnightblue" d="M57,-45.8045C57,-36.9102 57,-26.7798 57,-19.7511"/>
<polygon fill="midnightblue" stroke="midnightblue" points="53.5001,-46.083 57,-56.083 60.5001,-46.083 53.5001,-46.083"/>
</g>
<!-- Node5 -->
<g id="node3" class="node"><title>Node5</title>
<g id="a_node3"><a xlink:href="../../d8/dfb/class_translator.html" target="_top" xlink:title="Abstract base class for all translatable text fragments. ">
<polygon fill="white" stroke="black" points="27,-112.5 27,-131.5 87,-131.5 87,-112.5 27,-112.5"/>
<text text-anchor="middle" x="57" y="-119.5" font-family="Helvetica,sans-Serif" font-size="10.00">Translator</text>
</a>
</g>
</g>
<!-- Node5&#45;&gt;Node4 -->
<g id="edge2" class="edge"><title>Node5&#45;&gt;Node4</title>
<path fill="none" stroke="midnightblue" d="M57,-101.805C57,-92.9102 57,-82.7798 57,-75.7511"/>
<polygon fill="midnightblue" stroke="midnightblue" points="53.5001,-102.083 57,-112.083 60.5001,-102.083 53.5001,-102.083"/>
</g>
</g>
</svg>
