<?xml version="1.0" encoding="UTF-8" standalone="no"?>
<!DOCTYPE svg PUBLIC "-//W3C//DTD SVG 1.1//EN"
 "http://www.w3.org/Graphics/SVG/1.1/DTD/svg11.dtd">
<!-- Generated by graphviz version 2.38.0 (20140413.2041)
 -->
<!-- Title: TemplateContextImpl Pages: 1 -->
<!--zoomable 261 -->
<svg id="main" version="1.1" xmlns="http://www.w3.org/2000/svg" xmlns:xlink="http://www.w3.org/1999/xlink" xml:space="preserve" onload="init(evt)">
<style type="text/css"><![CDATA[
.edge:hover path { stroke: red; }
.edge:hover polygon { stroke: red; fill: red; }
]]></style>
<script type="text/javascript"><![CDATA[
var edges = document.getElementsByTagName('g');
if (edges && edges.length) {
  for (var i=0;i<edges.length;i++) {
    if (edges[i].id.substr(0,4)=='edge') {
      edges[i].setAttribute('class','edge');
    }
  }
}
]]></script>
        <defs>
                <circle id="rim" cx="0" cy="0" r="7"/>
                <circle id="rim2" cx="0" cy="0" r="3.5"/>
                <g id="zoomPlus">
                        <use xlink:href="#rim" fill="#404040">
                                <set attributeName="fill" to="#808080" begin="zoomplus.mouseover" end="zoomplus.mouseout"/>
                        </use>
                        <path d="M-4,0h8M0,-4v8" fill="none" stroke="white" stroke-width="1.5" pointer-events="none"/>
                </g>
                <g id="zoomMin">
                        <use xlink:href="#rim" fill="#404040">
                                <set attributeName="fill" to="#808080" begin="zoomminus.mouseover" end="zoomminus.mouseout"/>
                        </use>
                        <path d="M-4,0h8" fill="none" stroke="white" stroke-width="1.5" pointer-events="none"/>
                </g>
                <g id="dirArrow">
                        <path fill="none" stroke="white" stroke-width="1.5" d="M0,-3.0v7 M-2.5,-0.5L0,-3.0L2.5,-0.5"/>
                </g>
               <g id="resetDef">
                       <use xlink:href="#rim2" fill="#404040">
                               <set attributeName="fill" to="#808080" begin="reset.mouseover" end="reset.mouseout"/>
                       </use>
               </g>
        </defs>

<script type="text/javascript">
var viewWidth = 829;
var viewHeight = 261;
var sectionId = 'dynsection-1';
</script>
<script xlink:href="../../svgpan.js"/>
<svg id="graph" class="graph">
<g id="viewport">
<title>TemplateContextImpl</title>
<polygon fill="white" stroke="none" points="-4,4 -4,-257.407 825,-257.407 825,4 -4,4"/>
<!-- Node2 -->
<g id="node1" class="node"><title>Node2</title>
<polygon fill="#bfbfbf" stroke="black" points="704,-139.907 704,-158.907 814,-158.907 814,-139.907 704,-139.907"/>
<text text-anchor="middle" x="759" y="-146.907" font-family="Helvetica,sans-Serif" font-size="10.00">TemplateContextImpl</text>
</g>
<!-- Node3 -->
<g id="node2" class="node"><title>Node3</title>
<g id="a_node2"><a xlink:href="../../da/d1b/class_template_context.html" target="_top" xlink:title="Abstract interface for a template context. ">
<polygon fill="white" stroke="black" points="452.5,-195.907 452.5,-214.907 544.5,-214.907 544.5,-195.907 452.5,-195.907"/>
<text text-anchor="middle" x="498.5" y="-202.907" font-family="Helvetica,sans-Serif" font-size="10.00">TemplateContext</text>
</a>
</g>
</g>
<!-- Node3&#45;&gt;Node2 -->
<g id="edge1" class="edge"><title>Node3&#45;&gt;Node2</title>
<path fill="none" stroke="midnightblue" d="M554.784,-198.936C590.529,-194.149 637.885,-186.675 679,-176.407 697.562,-171.77 717.986,-164.737 733.416,-159.011"/>
<polygon fill="midnightblue" stroke="midnightblue" points="554.017,-195.506 544.555,-200.274 554.925,-202.447 554.017,-195.506"/>
</g>
<!-- Node4 -->
<g id="node3" class="node"><title>Node4</title>
<g id="a_node3"><a xlink:href="../../d4/d9c/class_template_escape_intf.html" target="_top" xlink:title="Interface used to escape characters in a string. ">
<polygon fill="white" stroke="black" points="446.5,-157.907 446.5,-176.907 550.5,-176.907 550.5,-157.907 446.5,-157.907"/>
<text text-anchor="middle" x="498.5" y="-164.907" font-family="Helvetica,sans-Serif" font-size="10.00">TemplateEscapeIntf</text>
</a>
</g>
</g>
<!-- Node4&#45;&gt;Node2 -->
<g id="edge2" class="edge"><title>Node4&#45;&gt;Node2</title>
<path fill="none" stroke="#9a32cd" stroke-dasharray="5,2" d="M560.741,-163.142C604.243,-160.113 662.116,-156.083 703.916,-153.173"/>
<polygon fill="#9a32cd" stroke="#9a32cd" points="560.304,-159.664 550.571,-163.85 560.79,-166.647 560.304,-159.664"/>
<text text-anchor="middle" x="633.5" y="-164.407" font-family="Helvetica,sans-Serif" font-size="10.00"> m_activeEscapeIntf</text>
</g>
<!-- Node5 -->
<g id="node4" class="node"><title>Node5</title>
<g id="a_node4"><a xlink:href="../../dc/d7f/class_template_block_context.html" target="_top" xlink:title="Class holding stacks of blocks available in the context. ">
<polygon fill="white" stroke="black" points="440.5,-119.907 440.5,-138.907 556.5,-138.907 556.5,-119.907 440.5,-119.907"/>
<text text-anchor="middle" x="498.5" y="-126.907" font-family="Helvetica,sans-Serif" font-size="10.00">TemplateBlockContext</text>
</a>
</g>
</g>
<!-- Node5&#45;&gt;Node2 -->
<g id="edge3" class="edge"><title>Node5&#45;&gt;Node2</title>
<path fill="none" stroke="#9a32cd" stroke-dasharray="5,2" d="M566.754,-132.694C600.479,-134.554 641.934,-137.162 679,-140.407 686.976,-141.105 695.393,-141.949 703.641,-142.836"/>
<polygon fill="#9a32cd" stroke="#9a32cd" points="566.724,-129.187 556.549,-132.14 566.345,-136.177 566.724,-129.187"/>
<text text-anchor="middle" x="633.5" y="-143.407" font-family="Helvetica,sans-Serif" font-size="10.00"> m_blockContext</text>
</g>
<!-- Node6 -->
<g id="node5" class="node"><title>Node6</title>
<g id="a_node5"><a xlink:href="../../df/d82/class_template_auto_ref.html" target="_top" xlink:title="TemplateAutoRef\&lt; Template\lStruct \&gt;">
<polygon fill="white" stroke="black" points="427,-70.4065 427,-100.407 570,-100.407 570,-70.4065 427,-70.4065"/>
<text text-anchor="start" x="435" y="-88.4065" font-family="Helvetica,sans-Serif" font-size="10.00">TemplateAutoRef&lt; Template</text>
<text text-anchor="middle" x="498.5" y="-77.4065" font-family="Helvetica,sans-Serif" font-size="10.00">Struct &gt;</text>
</a>
</g>
</g>
<!-- Node6&#45;&gt;Node2 -->
<g id="edge4" class="edge"><title>Node6&#45;&gt;Node2</title>
<path fill="none" stroke="#9a32cd" stroke-dasharray="5,2" d="M580.02,-97.55C611.217,-103.062 647.049,-110.389 679,-119.407 698.626,-124.945 720.23,-133.314 735.878,-139.806"/>
<polygon fill="#9a32cd" stroke="#9a32cd" points="580.515,-94.0838 570.065,-95.8243 579.32,-100.981 580.515,-94.0838"/>
<text text-anchor="middle" x="633.5" y="-122.407" font-family="Helvetica,sans-Serif" font-size="10.00"> m_indices</text>
</g>
<!-- Node7 -->
<g id="node6" class="node"><title>Node7</title>
<g id="a_node6"><a xlink:href="../../d8/d4b/class_template_struct.html" target="_top" xlink:title="Default implementation of a context value of type struct. ">
<polygon fill="white" stroke="black" points="203,-95.9065 203,-114.907 286,-114.907 286,-95.9065 203,-95.9065"/>
<text text-anchor="middle" x="244.5" y="-102.907" font-family="Helvetica,sans-Serif" font-size="10.00">TemplateStruct</text>
</a>
</g>
</g>
<!-- Node7&#45;&gt;Node6 -->
<g id="edge5" class="edge"><title>Node7&#45;&gt;Node6</title>
<path fill="none" stroke="#9a32cd" stroke-dasharray="5,2" d="M296.446,-101.363C333.909,-98.3899 385.302,-94.3112 426.749,-91.0217"/>
<polygon fill="#9a32cd" stroke="#9a32cd" points="295.96,-97.8907 286.268,-102.171 296.514,-104.869 295.96,-97.8907"/>
<text text-anchor="middle" x="365" y="-102.407" font-family="Helvetica,sans-Serif" font-size="10.00"> m_obj</text>
</g>
<!-- Node8 -->
<g id="node7" class="node"><title>Node8</title>
<g id="a_node7"><a xlink:href="../../d9/de8/class_template_struct_intf.html" target="_top" xlink:title="Abstract interface for a context value of type struct. ">
<polygon fill="white" stroke="black" points="11,-95.9065 11,-114.907 109,-114.907 109,-95.9065 11,-95.9065"/>
<text text-anchor="middle" x="60" y="-102.907" font-family="Helvetica,sans-Serif" font-size="10.00">TemplateStructIntf</text>
</a>
</g>
</g>
<!-- Node8&#45;&gt;Node7 -->
<g id="edge6" class="edge"><title>Node8&#45;&gt;Node7</title>
<path fill="none" stroke="midnightblue" d="M119.598,-105.407C146.767,-105.407 178.385,-105.407 202.88,-105.407"/>
<polygon fill="midnightblue" stroke="midnightblue" points="119.428,-101.907 109.428,-105.407 119.427,-108.907 119.428,-101.907"/>
</g>
<!-- Node9 -->
<g id="node8" class="node"><title>Node9</title>
<g id="a_node8"><a xlink:href="../../d5/d63/class_template_struct_1_1_private.html" target="_top" xlink:title="Private data of a template struct object. ">
<polygon fill="white" stroke="black" points="0,-133.907 0,-152.907 120,-152.907 120,-133.907 0,-133.907"/>
<text text-anchor="middle" x="60" y="-140.907" font-family="Helvetica,sans-Serif" font-size="10.00">TemplateStruct::Private</text>
</a>
</g>
</g>
<!-- Node9&#45;&gt;Node7 -->
<g id="edge7" class="edge"><title>Node9&#45;&gt;Node7</title>
<path fill="none" stroke="#9a32cd" stroke-dasharray="5,2" d="M116.998,-131.747C144.684,-125.982 177.486,-119.152 202.749,-113.892"/>
<polygon fill="#9a32cd" stroke="#9a32cd" points="116.129,-128.352 107.052,-133.818 117.556,-135.205 116.129,-128.352"/>
<text text-anchor="middle" x="153" y="-130.407" font-family="Helvetica,sans-Serif" font-size="10.00"> p</text>
</g>
<!-- Node10 -->
<g id="node9" class="node"><title>Node10</title>
<g id="a_node9"><a xlink:href="../../df/d82/class_template_auto_ref.html" target="_top" xlink:title="TemplateAutoRef\&lt; T \&gt;">
<polygon fill="white" stroke="black" points="186,-57.9065 186,-76.9065 303,-76.9065 303,-57.9065 186,-57.9065"/>
<text text-anchor="middle" x="244.5" y="-64.9065" font-family="Helvetica,sans-Serif" font-size="10.00">TemplateAutoRef&lt; T &gt;</text>
</a>
</g>
</g>
<!-- Node10&#45;&gt;Node6 -->
<g id="edge8" class="edge"><title>Node10&#45;&gt;Node6</title>
<path fill="none" stroke="orange" stroke-dasharray="5,2" d="M313.294,-67.0566C342.754,-67.4231 377.634,-68.5546 409,-71.4065 414.732,-71.9277 420.656,-72.5907 426.596,-73.3436"/>
<polygon fill="orange" stroke="orange" points="313.147,-63.5551 303.114,-66.9573 313.079,-70.5548 313.147,-63.5551"/>
<text text-anchor="middle" x="365" y="-74.4065" font-family="Helvetica,sans-Serif" font-size="10.00"> &lt; TemplateStruct &gt;</text>
</g>
<!-- Node11 -->
<g id="node10" class="node"><title>Node11</title>
<polygon fill="white" stroke="#bfbfbf" points="45.5,-57.9065 45.5,-76.9065 74.5,-76.9065 74.5,-57.9065 45.5,-57.9065"/>
<text text-anchor="middle" x="60" y="-64.9065" font-family="Helvetica,sans-Serif" font-size="10.00">T</text>
</g>
<!-- Node11&#45;&gt;Node10 -->
<g id="edge9" class="edge"><title>Node11&#45;&gt;Node10</title>
<path fill="none" stroke="#9a32cd" stroke-dasharray="5,2" d="M84.9106,-67.4065C110.374,-67.4065 151.613,-67.4065 185.656,-67.4065"/>
<polygon fill="#9a32cd" stroke="#9a32cd" points="84.7172,-63.9066 74.7172,-67.4065 84.7171,-70.9066 84.7172,-63.9066"/>
<text text-anchor="middle" x="153" y="-70.4065" font-family="Helvetica,sans-Serif" font-size="10.00"> m_obj</text>
</g>
<!-- Node12 -->
<g id="node11" class="node"><title>Node12</title>
<g id="a_node11"><a xlink:href="../../d0/d1d/class_template_engine.html" target="_top" xlink:title="Engine to create templates and template contexts. ">
<polygon fill="white" stroke="black" points="455,-19.9065 455,-38.9065 542,-38.9065 542,-19.9065 455,-19.9065"/>
<text text-anchor="middle" x="498.5" y="-26.9065" font-family="Helvetica,sans-Serif" font-size="10.00">TemplateEngine</text>
</a>
</g>
</g>
<!-- Node12&#45;&gt;Node2 -->
<g id="edge10" class="edge"><title>Node12&#45;&gt;Node2</title>
<path fill="none" stroke="#9a32cd" stroke-dasharray="5,2" d="M552.329,-40.307C589.236,-49.2336 638.885,-63.9247 679,-85.4065 707.009,-100.406 734.687,-125.953 748.652,-139.8"/>
<polygon fill="#9a32cd" stroke="#9a32cd" points="552.812,-36.8251 542.276,-37.9413 551.208,-43.639 552.812,-36.8251"/>
<text text-anchor="middle" x="633.5" y="-88.4065" font-family="Helvetica,sans-Serif" font-size="10.00"> m_engine</text>
</g>
<!-- Node13 -->
<g id="node12" class="node"><title>Node13</title>
<g id="a_node12"><a xlink:href="../../d5/d56/class_template_engine_1_1_private.html" target="_top" xlink:title="Private data of the template engine. ">
<polygon fill="white" stroke="black" points="697,-2.90654 697,-21.9065 821,-21.9065 821,-2.90654 697,-2.90654"/>
<text text-anchor="middle" x="759" y="-9.90654" font-family="Helvetica,sans-Serif" font-size="10.00">TemplateEngine::Private</text>
</a>
</g>
</g>
<!-- Node12&#45;&gt;Node13 -->
<g id="edge12" class="edge"><title>Node12&#45;&gt;Node13</title>
<path fill="none" stroke="#9a32cd" stroke-dasharray="5,2" d="M534.534,-16.6062C550.591,-11.394 570.017,-5.99347 588,-3.40654 623.836,1.74861 664.302,-0.0906761 696.761,-3.41091"/>
<polygon fill="#9a32cd" stroke="#9a32cd" points="533.381,-13.3011 525.014,-19.8004 535.608,-19.9375 533.381,-13.3011"/>
<text text-anchor="middle" x="633.5" y="-6.40654" font-family="Helvetica,sans-Serif" font-size="10.00"> m_engine</text>
</g>
<!-- Node13&#45;&gt;Node12 -->
<g id="edge11" class="edge"><title>Node13&#45;&gt;Node12</title>
<path fill="none" stroke="#9a32cd" stroke-dasharray="5,2" d="M686.876,-17.0839C640.481,-20.1351 581.464,-24.0163 542.186,-26.5993"/>
<polygon fill="#9a32cd" stroke="#9a32cd" points="687.123,-20.5753 696.872,-16.4266 686.664,-13.5904 687.123,-20.5753"/>
<text text-anchor="middle" x="633.5" y="-27.4065" font-family="Helvetica,sans-Serif" font-size="10.00"> p</text>
</g>
<!-- Node14 -->
<g id="node13" class="node"><title>Node14</title>
<g id="a_node13"><a xlink:href="../../df/d80/class_template_spaceless_intf.html" target="_top" xlink:title="Interface used to remove redundant spaces inside a spaceless block. ">
<polygon fill="white" stroke="black" points="440,-233.907 440,-252.907 557,-252.907 557,-233.907 440,-233.907"/>
<text text-anchor="middle" x="498.5" y="-240.907" font-family="Helvetica,sans-Serif" font-size="10.00">TemplateSpacelessIntf</text>
</a>
</g>
</g>
<!-- Node14&#45;&gt;Node2 -->
<g id="edge13" class="edge"><title>Node14&#45;&gt;Node2</title>
<path fill="none" stroke="#9a32cd" stroke-dasharray="5,2" d="M567.147,-232.216C601.503,-225.198 643.396,-214.558 679,-199.407 704.241,-188.666 730.585,-170.316 745.575,-159.084"/>
<polygon fill="#9a32cd" stroke="#9a32cd" points="566.334,-228.809 557.206,-234.189 567.697,-235.675 566.334,-228.809"/>
<text text-anchor="middle" x="633.5" y="-230.407" font-family="Helvetica,sans-Serif" font-size="10.00"> m_spacelessIntf</text>
</g>
</g>
</svg>
        <g id="navigator" transform="translate(0 0)" fill="#404254">
                <rect fill="#f2f5e9" fill-opacity="0.5" stroke="#606060" stroke-width=".5" x="0" y="0" width="60" height="60"/>
                <use id="zoomplus" xlink:href="#zoomPlus" x="17" y="9" onmousedown="handleZoom(evt,'in')"/>
                <use id="zoomminus" xlink:href="#zoomMin" x="42" y="9" onmousedown="handleZoom(evt,'out')"/>
                <use id="reset" xlink:href="#resetDef" x="30" y="36" onmousedown="handleReset()"/>
                <g id="arrowUp" xlink:href="#dirArrow" transform="translate(30 24)" onmousedown="handlePan(0,-1)">
                  <use xlink:href="#rim" fill="#404040">
                        <set attributeName="fill" to="#808080" begin="arrowUp.mouseover" end="arrowUp.mouseout"/>
                  </use>
                  <path fill="none" stroke="white" stroke-width="1.5" d="M0,-3.0v7 M-2.5,-0.5L0,-3.0L2.5,-0.5"/>
                </g>
                <g id="arrowRight" xlink:href="#dirArrow" transform="rotate(90) translate(36 -43)" onmousedown="handlePan(1,0)">
                  <use xlink:href="#rim" fill="#404040">
                        <set attributeName="fill" to="#808080" begin="arrowRight.mouseover" end="arrowRight.mouseout"/>
                  </use>
                  <path fill="none" stroke="white" stroke-width="1.5" d="M0,-3.0v7 M-2.5,-0.5L0,-3.0L2.5,-0.5"/>
                </g>
                <g id="arrowDown" xlink:href="#dirArrow" transform="rotate(180) translate(-30 -48)" onmousedown="handlePan(0,1)">
                  <use xlink:href="#rim" fill="#404040">
                        <set attributeName="fill" to="#808080" begin="arrowDown.mouseover" end="arrowDown.mouseout"/>
                  </use>
                  <path fill="none" stroke="white" stroke-width="1.5" d="M0,-3.0v7 M-2.5,-0.5L0,-3.0L2.5,-0.5"/>
                </g>
                <g id="arrowLeft" xlink:href="#dirArrow" transform="rotate(270) translate(-36 17)" onmousedown="handlePan(-1,0)">
                  <use xlink:href="#rim" fill="#404040">
                        <set attributeName="fill" to="#808080" begin="arrowLeft.mouseover" end="arrowLeft.mouseout"/>
                  </use>
                  <path fill="none" stroke="white" stroke-width="1.5" d="M0,-3.0v7 M-2.5,-0.5L0,-3.0L2.5,-0.5"/>
                </g>
        </g>
        <svg viewBox="0 0 15 15" width="100%" height="30px" preserveAspectRatio="xMaxYMin meet">
         <g id="arrow_out" transform="scale(0.3 0.3)">
          <a xlink:href="class_template_context_impl__coll__graph_org.svg" target="_base">
           <rect id="button" ry="5" rx="5" y="6" x="6" height="38" width="38"
                fill="#f2f5e9" fill-opacity="0.5" stroke="#606060" stroke-width="1.0"/>
           <path id="arrow"
             d="M 11.500037,31.436501 C 11.940474,20.09759 22.043105,11.32322 32.158766,21.979434 L 37.068811,17.246167 C 37.068811,17.246167 37.088388,32 37.088388,32 L 22.160133,31.978069 C 22.160133,31.978069 26.997745,27.140456 26.997745,27.140456 C 18.528582,18.264221 13.291696,25.230495 11.500037,31.436501 z"
             style="fill:#404040;"/>
          </a>
         </g>
        </svg>
</svg>
