<?xml version="1.0" encoding="UTF-8" standalone="no"?>
<!DOCTYPE svg PUBLIC "-//W3C//DTD SVG 1.1//EN"
 "http://www.w3.org/Graphics/SVG/1.1/DTD/svg11.dtd">
<!-- Generated by graphviz version 2.38.0 (20140413.2041)
 -->
<!-- Title: Entry Pages: 1 -->
<svg width="163pt" height="163pt"
 viewBox="0.00 0.00 163.00 163.00" xmlns="http://www.w3.org/2000/svg" xmlns:xlink="http://www.w3.org/1999/xlink">
<g id="graph0" class="graph" transform="scale(1 1) rotate(0) translate(4 159)">
<title>Entry</title>
<polygon fill="white" stroke="none" points="-4,4 -4,-159 159,-159 159,4 -4,4"/>
<!-- Node1 -->
<g id="node1" class="node"><title>Node1</title>
<polygon fill="#bfbfbf" stroke="black" points="39,-0.5 39,-19.5 79,-19.5 79,-0.5 39,-0.5"/>
<text text-anchor="middle" x="59" y="-7.5" font-family="Helvetica,sans-Serif" font-size="10.00">Entry</text>
</g>
<!-- Node1&#45;&gt;Node1 -->
<g id="edge4" class="edge"><title>Node1&#45;&gt;Node1</title>
<path fill="none" stroke="#9a32cd" stroke-dasharray="5,2" d="M89.4158,-16.4625C93.9402,-15.4557 97,-13.3016 97,-10 97,-4.58203 88.7602,-2.254 79.3294,-3.0159"/>
<polygon fill="#9a32cd" stroke="#9a32cd" points="89.1353,-12.9722 79.3294,-16.9841 89.4969,-19.9629 89.1353,-12.9722"/>
<text text-anchor="middle" x="119" y="-7.5" font-family="Helvetica,sans-Serif" font-size="10.00"> m_parent</text>
</g>
<!-- Node2 -->
<g id="node2" class="node"><title>Node2</title>
<g id="a_node2"><a xlink:href="../../d3/dc3/struct_tag_info.html" target="_top" xlink:title="This struct is used to capture the tag file information for an Entry. ">
<polygon fill="white" stroke="black" points="0,-78.5 0,-97.5 50,-97.5 50,-78.5 0,-78.5"/>
<text text-anchor="middle" x="25" y="-85.5" font-family="Helvetica,sans-Serif" font-size="10.00">TagInfo</text>
</a>
</g>
</g>
<!-- Node2&#45;&gt;Node1 -->
<g id="edge1" class="edge"><title>Node2&#45;&gt;Node1</title>
<path fill="none" stroke="#9a32cd" stroke-dasharray="5,2" d="M27.5623,-68.3482C29.3498,-58.9051 32.2866,-47.4672 37,-38 40.3416,-31.2881 45.6077,-24.7437 50.1499,-19.7792"/>
<polygon fill="#9a32cd" stroke="#9a32cd" points="24.0977,-67.849 25.9544,-78.2798 31.0077,-68.9678 24.0977,-67.849"/>
<text text-anchor="middle" x="54" y="-46.5" font-family="Helvetica,sans-Serif" font-size="10.00"> tagInfo</text>
</g>
<!-- Node3 -->
<g id="node3" class="node"><title>Node3</title>
<g id="a_node3"><a xlink:href="../../d7/df8/class_argument_list.html" target="_top" xlink:title="This class represents an function or template argument list. ">
<polygon fill="white" stroke="black" points="68,-78.5 68,-97.5 142,-97.5 142,-78.5 68,-78.5"/>
<text text-anchor="middle" x="105" y="-85.5" font-family="Helvetica,sans-Serif" font-size="10.00">ArgumentList</text>
</a>
</g>
</g>
<!-- Node3&#45;&gt;Node1 -->
<g id="edge2" class="edge"><title>Node3&#45;&gt;Node1</title>
<path fill="none" stroke="#9a32cd" stroke-dasharray="5,2" d="M94.4475,-69.5654C84.9952,-53.9486 71.529,-31.7002 64.2152,-19.6165"/>
<polygon fill="#9a32cd" stroke="#9a32cd" points="91.5509,-71.5391 99.7232,-78.2818 97.5394,-67.9145 91.5509,-71.5391"/>
<text text-anchor="middle" x="111.5" y="-52" font-family="Helvetica,sans-Serif" font-size="10.00"> argList</text>
<text text-anchor="middle" x="111.5" y="-41" font-family="Helvetica,sans-Serif" font-size="10.00">typeConstr</text>
</g>
<!-- Node4 -->
<g id="node4" class="node"><title>Node4</title>
<polygon fill="white" stroke="#bfbfbf" points="55,-135.5 55,-154.5 155,-154.5 155,-135.5 55,-135.5"/>
<text text-anchor="middle" x="105" y="-142.5" font-family="Helvetica,sans-Serif" font-size="10.00">QList&lt; Argument &gt;</text>
</g>
<!-- Node4&#45;&gt;Node3 -->
<g id="edge3" class="edge"><title>Node4&#45;&gt;Node3</title>
<path fill="none" stroke="midnightblue" d="M105,-125.117C105,-115.817 105,-105.056 105,-97.7149"/>
<polygon fill="midnightblue" stroke="midnightblue" points="101.5,-125.406 105,-135.406 108.5,-125.406 101.5,-125.406"/>
</g>
</g>
</svg>
