<?xml version="1.0" encoding="UTF-8" standalone="no"?>
<!DOCTYPE svg PUBLIC "-//W3C//DTD SVG 1.1//EN"
 "http://www.w3.org/Graphics/SVG/1.1/DTD/svg11.dtd">
<!-- Generated by graphviz version 2.38.0 (20140413.2041)
 -->
<!-- Title: src/outputlist.cpp Pages: 1 -->
<!--zoomable 308 -->
<svg id="main" version="1.1" xmlns="http://www.w3.org/2000/svg" xmlns:xlink="http://www.w3.org/1999/xlink" xml:space="preserve" onload="init(evt)">
<style type="text/css"><![CDATA[
.edge:hover path { stroke: red; }
.edge:hover polygon { stroke: red; fill: red; }
]]></style>
<script type="text/javascript"><![CDATA[
var edges = document.getElementsByTagName('g');
if (edges && edges.length) {
  for (var i=0;i<edges.length;i++) {
    if (edges[i].id.substr(0,4)=='edge') {
      edges[i].setAttribute('class','edge');
    }
  }
}
]]></script>
        <defs>
                <circle id="rim" cx="0" cy="0" r="7"/>
                <circle id="rim2" cx="0" cy="0" r="3.5"/>
                <g id="zoomPlus">
                        <use xlink:href="#rim" fill="#404040">
                                <set attributeName="fill" to="#808080" begin="zoomplus.mouseover" end="zoomplus.mouseout"/>
                        </use>
                        <path d="M-4,0h8M0,-4v8" fill="none" stroke="white" stroke-width="1.5" pointer-events="none"/>
                </g>
                <g id="zoomMin">
                        <use xlink:href="#rim" fill="#404040">
                                <set attributeName="fill" to="#808080" begin="zoomminus.mouseover" end="zoomminus.mouseout"/>
                        </use>
                        <path d="M-4,0h8" fill="none" stroke="white" stroke-width="1.5" pointer-events="none"/>
                </g>
                <g id="dirArrow">
                        <path fill="none" stroke="white" stroke-width="1.5" d="M0,-3.0v7 M-2.5,-0.5L0,-3.0L2.5,-0.5"/>
                </g>
               <g id="resetDef">
                       <use xlink:href="#rim2" fill="#404040">
                               <set attributeName="fill" to="#808080" begin="reset.mouseover" end="reset.mouseout"/>
                       </use>
               </g>
        </defs>

<script type="text/javascript">
var viewWidth = 1090;
var viewHeight = 308;
var sectionId = 'dynsection-0';
</script>
<script xlink:href="../../svgpan.js"/>
<svg id="graph" class="graph">
<g id="viewport">
<title>src/outputlist.cpp</title>
<polygon fill="white" stroke="none" points="-4,4 -4,-304 1085.5,-304 1085.5,4 -4,4"/>
<!-- Node0 -->
<g id="node1" class="node"><title>Node0</title>
<polygon fill="#bfbfbf" stroke="black" points="618.5,-280.5 618.5,-299.5 710.5,-299.5 710.5,-280.5 618.5,-280.5"/>
<text text-anchor="middle" x="664.5" y="-287.5" font-family="Helvetica,sans-Serif" font-size="10.00">src/outputlist.cpp</text>
</g>
<!-- Node1 -->
<g id="node2" class="node"><title>Node1</title>
<g id="a_node2"><a xlink:href="../../d2/db9/outputlist_8h.html" target="_top" xlink:title="outputlist.h">
<polygon fill="white" stroke="black" points="632,-224.5 632,-243.5 697,-243.5 697,-224.5 632,-224.5"/>
<text text-anchor="middle" x="664.5" y="-231.5" font-family="Helvetica,sans-Serif" font-size="10.00">outputlist.h</text>
</a>
</g>
</g>
<!-- Node0&#45;&gt;Node1 -->
<g id="edge1" class="edge"><title>Node0&#45;&gt;Node1</title>
<path fill="none" stroke="midnightblue" d="M664.5,-280.083C664.5,-273.006 664.5,-262.861 664.5,-253.986"/>
<polygon fill="midnightblue" stroke="midnightblue" points="668,-253.751 664.5,-243.751 661,-253.751 668,-253.751"/>
</g>
<!-- Node5 -->
<g id="node6" class="node"><title>Node5</title>
<g id="a_node6"><a xlink:href="../../df/d06/outputgen_8h.html" target="_top" xlink:title="outputgen.h">
<polygon fill="white" stroke="black" points="568.5,-168.5 568.5,-187.5 636.5,-187.5 636.5,-168.5 568.5,-168.5"/>
<text text-anchor="middle" x="602.5" y="-175.5" font-family="Helvetica,sans-Serif" font-size="10.00">outputgen.h</text>
</a>
</g>
</g>
<!-- Node0&#45;&gt;Node5 -->
<g id="edge19" class="edge"><title>Node0&#45;&gt;Node5</title>
<path fill="none" stroke="midnightblue" d="M654.104,-280.37C644.621,-271.982 630.852,-258.428 622.5,-244 614.182,-229.63 608.968,-211.434 605.957,-197.951"/>
<polygon fill="midnightblue" stroke="midnightblue" points="609.341,-197.028 603.926,-187.922 602.48,-198.417 609.341,-197.028"/>
</g>
<!-- Node16 -->
<g id="node17" class="node"><title>Node16</title>
<g id="a_node17"><a xlink:href="../../db/d16/config_8h.html" target="_top" xlink:title="config.h">
<polygon fill="white" stroke="black" points="941,-224.5 941,-243.5 992,-243.5 992,-224.5 941,-224.5"/>
<text text-anchor="middle" x="966.5" y="-231.5" font-family="Helvetica,sans-Serif" font-size="10.00">config.h</text>
</a>
</g>
</g>
<!-- Node0&#45;&gt;Node16 -->
<g id="edge20" class="edge"><title>Node0&#45;&gt;Node16</title>
<path fill="none" stroke="midnightblue" d="M710.603,-281.072C761.704,-272.235 846.549,-257.421 919.5,-244 923.146,-243.329 926.949,-242.619 930.744,-241.903"/>
<polygon fill="midnightblue" stroke="midnightblue" points="931.485,-245.325 940.655,-240.019 930.177,-238.448 931.485,-245.325"/>
</g>
<!-- Node18 -->
<g id="node19" class="node"><title>Node18</title>
<g id="a_node19"><a xlink:href="../../d2/d0d/message_8h.html" target="_top" xlink:title="message.h">
<polygon fill="white" stroke="black" points="236,-224.5 236,-243.5 301,-243.5 301,-224.5 236,-224.5"/>
<text text-anchor="middle" x="268.5" y="-231.5" font-family="Helvetica,sans-Serif" font-size="10.00">message.h</text>
</a>
</g>
</g>
<!-- Node0&#45;&gt;Node18 -->
<g id="edge22" class="edge"><title>Node0&#45;&gt;Node18</title>
<path fill="none" stroke="midnightblue" d="M618.299,-282.7C540.94,-272.151 386.319,-251.066 311.297,-240.836"/>
<polygon fill="midnightblue" stroke="midnightblue" points="311.636,-237.35 301.255,-239.467 310.69,-244.286 311.636,-237.35"/>
</g>
<!-- Node20 -->
<g id="node21" class="node"><title>Node20</title>
<g id="a_node21"><a xlink:href="../../df/da1/definition_8h.html" target="_top" xlink:title="definition.h">
<polygon fill="white" stroke="black" points="895.5,-112.5 895.5,-131.5 959.5,-131.5 959.5,-112.5 895.5,-112.5"/>
<text text-anchor="middle" x="927.5" y="-119.5" font-family="Helvetica,sans-Serif" font-size="10.00">definition.h</text>
</a>
</g>
</g>
<!-- Node0&#45;&gt;Node20 -->
<g id="edge25" class="edge"><title>Node0&#45;&gt;Node20</title>
<path fill="none" stroke="midnightblue" d="M694.591,-280.479C739.182,-266.72 823.745,-236.181 881.5,-188 897.371,-174.76 910.392,-154.817 918.48,-140.514"/>
<polygon fill="midnightblue" stroke="midnightblue" points="921.587,-142.127 923.266,-131.666 915.43,-138.797 921.587,-142.127"/>
</g>
<!-- Node22 -->
<g id="node23" class="node"><title>Node22</title>
<g id="a_node23"><a xlink:href="../../de/d9c/docparser_8h.html" target="_top" xlink:title="docparser.h">
<polygon fill="white" stroke="black" points="123.5,-112.5 123.5,-131.5 191.5,-131.5 191.5,-112.5 123.5,-112.5"/>
<text text-anchor="middle" x="157.5" y="-119.5" font-family="Helvetica,sans-Serif" font-size="10.00">docparser.h</text>
</a>
</g>
</g>
<!-- Node0&#45;&gt;Node22 -->
<g id="edge30" class="edge"><title>Node0&#45;&gt;Node22</title>
<path fill="none" stroke="midnightblue" d="M618.281,-288.587C519.951,-287.019 293.532,-279.536 226.5,-244 187.267,-223.201 168.816,-169.985 161.519,-141.558"/>
<polygon fill="midnightblue" stroke="midnightblue" points="164.891,-140.606 159.181,-131.682 158.079,-142.219 164.891,-140.606"/>
</g>
<!-- Node25 -->
<g id="node26" class="node"><title>Node25</title>
<g id="a_node26"><a xlink:href="../../dd/dec/vhdldocgen_8h.html" target="_top" xlink:title="vhdldocgen.h">
<polygon fill="white" stroke="black" points="696.5,-168.5 696.5,-187.5 770.5,-187.5 770.5,-168.5 696.5,-168.5"/>
<text text-anchor="middle" x="733.5" y="-175.5" font-family="Helvetica,sans-Serif" font-size="10.00">vhdldocgen.h</text>
</a>
</g>
</g>
<!-- Node0&#45;&gt;Node25 -->
<g id="edge38" class="edge"><title>Node0&#45;&gt;Node25</title>
<path fill="none" stroke="midnightblue" d="M673.946,-280.435C682.953,-271.886 696.449,-258.033 705.5,-244 714.959,-229.334 722.541,-210.934 727.417,-197.457"/>
<polygon fill="midnightblue" stroke="midnightblue" points="730.772,-198.465 730.732,-187.871 724.156,-196.178 730.772,-198.465"/>
</g>
<!-- Node2 -->
<g id="node3" class="node"><title>Node2</title>
<polygon fill="white" stroke="#bfbfbf" points="777,-0.5 777,-19.5 820,-19.5 820,-0.5 777,-0.5"/>
<text text-anchor="middle" x="798.5" y="-7.5" font-family="Helvetica,sans-Serif" font-size="10.00">qlist.h</text>
</g>
<!-- Node1&#45;&gt;Node2 -->
<g id="edge2" class="edge"><title>Node1&#45;&gt;Node2</title>
<path fill="none" stroke="midnightblue" d="M697.067,-225.702C721.62,-218.984 755.116,-207.11 779.5,-188 827.445,-150.425 840.082,-134.064 858.5,-76 861.188,-67.5271 862.475,-63.9505 858.5,-56 851.772,-42.5432 838.894,-32.0665 826.788,-24.6212"/>
<polygon fill="midnightblue" stroke="midnightblue" points="828.221,-21.4101 817.796,-19.5195 824.767,-27.4985 828.221,-21.4101"/>
</g>
<!-- Node3 -->
<g id="node4" class="node"><title>Node3</title>
<g id="a_node4"><a xlink:href="../../d1/db5/index_8h.html" target="_top" xlink:title="index.h">
<polygon fill="white" stroke="black" points="578.5,-112.5 578.5,-131.5 626.5,-131.5 626.5,-112.5 578.5,-112.5"/>
<text text-anchor="middle" x="602.5" y="-119.5" font-family="Helvetica,sans-Serif" font-size="10.00">index.h</text>
</a>
</g>
</g>
<!-- Node1&#45;&gt;Node3 -->
<g id="edge3" class="edge"><title>Node1&#45;&gt;Node3</title>
<path fill="none" stroke="midnightblue" d="M663.337,-224.492C661.288,-211.567 656.198,-186.532 645.5,-168 639.114,-156.937 629.456,-146.495 620.91,-138.46"/>
<polygon fill="midnightblue" stroke="midnightblue" points="622.983,-135.618 613.2,-131.552 618.312,-140.832 622.983,-135.618"/>
</g>
<!-- Node1&#45;&gt;Node5 -->
<g id="edge6" class="edge"><title>Node1&#45;&gt;Node5</title>
<path fill="none" stroke="midnightblue" d="M654.539,-224.324C645.373,-216.341 631.563,-204.313 620.472,-194.653"/>
<polygon fill="midnightblue" stroke="midnightblue" points="622.482,-191.762 612.643,-187.834 617.885,-197.041 622.482,-191.762"/>
</g>
<!-- Node3&#45;&gt;Node2 -->
<g id="edge4" class="edge"><title>Node3&#45;&gt;Node2</title>
<path fill="none" stroke="midnightblue" d="M609.807,-112.226C621.666,-98.4878 646.417,-71.8378 672.5,-56 702.297,-37.9068 740.462,-25.562 766.942,-18.4439"/>
<polygon fill="midnightblue" stroke="midnightblue" points="768.02,-21.7803 776.822,-15.8844 766.264,-15.004 768.02,-21.7803"/>
</g>
<!-- Node4 -->
<g id="node5" class="node"><title>Node4</title>
<polygon fill="white" stroke="#bfbfbf" points="426,-0.5 426,-19.5 485,-19.5 485,-0.5 426,-0.5"/>
<text text-anchor="middle" x="455.5" y="-7.5" font-family="Helvetica,sans-Serif" font-size="10.00">qcstring.h</text>
</g>
<!-- Node3&#45;&gt;Node4 -->
<g id="edge5" class="edge"><title>Node3&#45;&gt;Node4</title>
<path fill="none" stroke="midnightblue" d="M600.525,-112.18C597.001,-98.3798 588.365,-71.6457 571.5,-56 550.275,-36.3088 519.477,-24.9014 494.949,-18.5014"/>
<polygon fill="midnightblue" stroke="midnightblue" points="495.753,-15.095 485.209,-16.1326 494.098,-21.8967 495.753,-15.095"/>
</g>
<!-- Node5&#45;&gt;Node3 -->
<g id="edge8" class="edge"><title>Node5&#45;&gt;Node3</title>
<path fill="none" stroke="midnightblue" d="M602.5,-168.083C602.5,-161.006 602.5,-150.861 602.5,-141.986"/>
<polygon fill="midnightblue" stroke="midnightblue" points="606,-141.751 602.5,-131.751 599,-141.751 606,-141.751"/>
</g>
<!-- Node6 -->
<g id="node7" class="node"><title>Node6</title>
<polygon fill="white" stroke="#bfbfbf" points="296.5,-112.5 296.5,-131.5 350.5,-131.5 350.5,-112.5 296.5,-112.5"/>
<text text-anchor="middle" x="323.5" y="-119.5" font-family="Helvetica,sans-Serif" font-size="10.00">qstack.h</text>
</g>
<!-- Node5&#45;&gt;Node6 -->
<g id="edge7" class="edge"><title>Node5&#45;&gt;Node6</title>
<path fill="none" stroke="midnightblue" d="M568.149,-170.831C521.829,-162.437 436.808,-146.769 364.5,-132 363.255,-131.746 361.989,-131.484 360.712,-131.218"/>
<polygon fill="midnightblue" stroke="midnightblue" points="361.333,-127.772 350.824,-129.114 359.876,-134.619 361.333,-127.772"/>
</g>
<!-- Node7 -->
<g id="node8" class="node"><title>Node7</title>
<g id="a_node8"><a xlink:href="../../d1/d2a/section_8h.html" target="_top" xlink:title="section.h">
<polygon fill="white" stroke="black" points="977.5,-112.5 977.5,-131.5 1033.5,-131.5 1033.5,-112.5 977.5,-112.5"/>
<text text-anchor="middle" x="1005.5" y="-119.5" font-family="Helvetica,sans-Serif" font-size="10.00">section.h</text>
</a>
</g>
</g>
<!-- Node5&#45;&gt;Node7 -->
<g id="edge9" class="edge"><title>Node5&#45;&gt;Node7</title>
<path fill="none" stroke="midnightblue" d="M636.574,-173.324C711.373,-165.175 888.899,-145.379 967.342,-131.983"/>
<polygon fill="midnightblue" stroke="midnightblue" points="968.055,-135.412 977.291,-130.22 966.833,-128.519 968.055,-135.412"/>
</g>
<!-- Node11 -->
<g id="node12" class="node"><title>Node11</title>
<g id="a_node12"><a xlink:href="../../df/d83/ftextstream_8h.html" target="_top" xlink:title="ftextstream.h">
<polygon fill="white" stroke="black" points="421.5,-112.5 421.5,-131.5 495.5,-131.5 495.5,-112.5 421.5,-112.5"/>
<text text-anchor="middle" x="458.5" y="-119.5" font-family="Helvetica,sans-Serif" font-size="10.00">ftextstream.h</text>
</a>
</g>
</g>
<!-- Node5&#45;&gt;Node11 -->
<g id="edge14" class="edge"><title>Node5&#45;&gt;Node11</title>
<path fill="none" stroke="midnightblue" d="M579.683,-168.444C555.668,-159.438 517.671,-145.189 490.631,-135.049"/>
<polygon fill="midnightblue" stroke="midnightblue" points="491.803,-131.751 481.21,-131.516 489.345,-138.305 491.803,-131.751"/>
</g>
<!-- Node8 -->
<g id="node9" class="node"><title>Node8</title>
<g id="a_node9"><a xlink:href="../../d9/d21/sortdict_8h.html" target="_top" xlink:title="sortdict.h">
<polygon fill="white" stroke="black" points="967,-56.5 967,-75.5 1024,-75.5 1024,-56.5 967,-56.5"/>
<text text-anchor="middle" x="995.5" y="-63.5" font-family="Helvetica,sans-Serif" font-size="10.00">sortdict.h</text>
</a>
</g>
</g>
<!-- Node7&#45;&gt;Node8 -->
<g id="edge10" class="edge"><title>Node7&#45;&gt;Node8</title>
<path fill="none" stroke="midnightblue" d="M1003.85,-112.083C1002.52,-104.927 1000.62,-94.6353 998.961,-85.6911"/>
<polygon fill="midnightblue" stroke="midnightblue" points="1002.38,-84.9466 997.121,-75.7511 995.5,-86.2212 1002.38,-84.9466"/>
</g>
<!-- Node8&#45;&gt;Node2 -->
<g id="edge11" class="edge"><title>Node8&#45;&gt;Node2</title>
<path fill="none" stroke="midnightblue" d="M966.855,-57.1479C930.471,-47.1748 867.889,-30.0205 830.135,-19.6714"/>
<polygon fill="midnightblue" stroke="midnightblue" points="830.756,-16.2127 820.187,-16.9445 828.906,-22.9637 830.756,-16.2127"/>
</g>
<!-- Node9 -->
<g id="node10" class="node"><title>Node9</title>
<polygon fill="white" stroke="#bfbfbf" points="1035.5,-0.5 1035.5,-19.5 1081.5,-19.5 1081.5,-0.5 1035.5,-0.5"/>
<text text-anchor="middle" x="1058.5" y="-7.5" font-family="Helvetica,sans-Serif" font-size="10.00">qdict.h</text>
</g>
<!-- Node8&#45;&gt;Node9 -->
<g id="edge12" class="edge"><title>Node8&#45;&gt;Node9</title>
<path fill="none" stroke="midnightblue" d="M1005.62,-56.324C1015.03,-48.2631 1029.24,-36.0765 1040.57,-26.3695"/>
<polygon fill="midnightblue" stroke="midnightblue" points="1042.88,-28.9993 1048.19,-19.8339 1038.32,-23.6844 1042.88,-28.9993"/>
</g>
<!-- Node10 -->
<g id="node11" class="node"><title>Node10</title>
<polygon fill="white" stroke="#bfbfbf" points="961.5,-0.5 961.5,-19.5 1017.5,-19.5 1017.5,-0.5 961.5,-0.5"/>
<text text-anchor="middle" x="989.5" y="-7.5" font-family="Helvetica,sans-Serif" font-size="10.00">qintdict.h</text>
</g>
<!-- Node8&#45;&gt;Node10 -->
<g id="edge13" class="edge"><title>Node8&#45;&gt;Node10</title>
<path fill="none" stroke="midnightblue" d="M994.509,-56.083C993.714,-48.9272 992.571,-38.6353 991.577,-29.6911"/>
<polygon fill="midnightblue" stroke="midnightblue" points="995.055,-29.3034 990.472,-19.7511 988.098,-30.0765 995.055,-29.3034"/>
</g>
<!-- Node12 -->
<g id="node13" class="node"><title>Node12</title>
<polygon fill="white" stroke="#bfbfbf" points="245.5,-56.5 245.5,-75.5 291.5,-75.5 291.5,-56.5 245.5,-56.5"/>
<text text-anchor="middle" x="268.5" y="-63.5" font-family="Helvetica,sans-Serif" font-size="10.00">stdio.h</text>
</g>
<!-- Node11&#45;&gt;Node12 -->
<g id="edge15" class="edge"><title>Node11&#45;&gt;Node12</title>
<path fill="none" stroke="midnightblue" d="M428.394,-112.444C393.823,-102.618 337.289,-86.5506 301.533,-76.3882"/>
<polygon fill="midnightblue" stroke="midnightblue" points="302.168,-72.9303 291.592,-73.5631 300.254,-79.6636 302.168,-72.9303"/>
</g>
<!-- Node13 -->
<g id="node14" class="node"><title>Node13</title>
<polygon fill="white" stroke="#bfbfbf" points="347.5,-56.5 347.5,-75.5 413.5,-75.5 413.5,-56.5 347.5,-56.5"/>
<text text-anchor="middle" x="380.5" y="-63.5" font-family="Helvetica,sans-Serif" font-size="10.00">qiodevice.h</text>
</g>
<!-- Node11&#45;&gt;Node13 -->
<g id="edge16" class="edge"><title>Node11&#45;&gt;Node13</title>
<path fill="none" stroke="midnightblue" d="M445.968,-112.324C433.914,-103.979 415.473,-91.2122 401.231,-81.3524"/>
<polygon fill="midnightblue" stroke="midnightblue" points="403.215,-78.469 393.001,-75.6545 399.231,-84.2243 403.215,-78.469"/>
</g>
<!-- Node14 -->
<g id="node15" class="node"><title>Node14</title>
<polygon fill="white" stroke="#bfbfbf" points="431.5,-56.5 431.5,-75.5 485.5,-75.5 485.5,-56.5 431.5,-56.5"/>
<text text-anchor="middle" x="458.5" y="-63.5" font-family="Helvetica,sans-Serif" font-size="10.00">qstring.h</text>
</g>
<!-- Node11&#45;&gt;Node14 -->
<g id="edge17" class="edge"><title>Node11&#45;&gt;Node14</title>
<path fill="none" stroke="midnightblue" d="M458.5,-112.083C458.5,-105.006 458.5,-94.8611 458.5,-85.9865"/>
<polygon fill="midnightblue" stroke="midnightblue" points="462,-85.751 458.5,-75.7511 455,-85.7511 462,-85.751"/>
</g>
<!-- Node15 -->
<g id="node16" class="node"><title>Node15</title>
<polygon fill="white" stroke="#bfbfbf" points="504,-56.5 504,-75.5 563,-75.5 563,-56.5 504,-56.5"/>
<text text-anchor="middle" x="533.5" y="-63.5" font-family="Helvetica,sans-Serif" font-size="10.00">qgstring.h</text>
</g>
<!-- Node11&#45;&gt;Node15 -->
<g id="edge18" class="edge"><title>Node11&#45;&gt;Node15</title>
<path fill="none" stroke="midnightblue" d="M470.55,-112.324C481.963,-104.107 499.331,-91.6017 512.935,-81.8069"/>
<polygon fill="midnightblue" stroke="midnightblue" points="515.16,-84.5174 521.231,-75.8339 511.07,-78.8366 515.16,-84.5174"/>
</g>
<!-- Node17 -->
<g id="node18" class="node"><title>Node17</title>
<polygon fill="white" stroke="#bfbfbf" points="933.5,-168.5 933.5,-187.5 1013.5,-187.5 1013.5,-168.5 933.5,-168.5"/>
<text text-anchor="middle" x="973.5" y="-175.5" font-family="Helvetica,sans-Serif" font-size="10.00">configvalues.h</text>
</g>
<!-- Node16&#45;&gt;Node17 -->
<g id="edge21" class="edge"><title>Node16&#45;&gt;Node17</title>
<path fill="none" stroke="midnightblue" d="M967.656,-224.083C968.584,-216.927 969.918,-206.635 971.077,-197.691"/>
<polygon fill="midnightblue" stroke="midnightblue" points="974.551,-198.118 972.366,-187.751 967.609,-197.218 974.551,-198.118"/>
</g>
<!-- Node18&#45;&gt;Node12 -->
<g id="edge23" class="edge"><title>Node18&#45;&gt;Node12</title>
<path fill="none" stroke="midnightblue" d="M268.5,-224.075C268.5,-197.945 268.5,-121.211 268.5,-85.577"/>
<polygon fill="midnightblue" stroke="midnightblue" points="272,-85.5681 268.5,-75.5681 265,-85.5681 272,-85.5681"/>
</g>
<!-- Node19 -->
<g id="node20" class="node"><title>Node19</title>
<polygon fill="white" stroke="#bfbfbf" points="188.5,-168.5 188.5,-187.5 240.5,-187.5 240.5,-168.5 188.5,-168.5"/>
<text text-anchor="middle" x="214.5" y="-175.5" font-family="Helvetica,sans-Serif" font-size="10.00">stdarg.h</text>
</g>
<!-- Node18&#45;&gt;Node19 -->
<g id="edge24" class="edge"><title>Node18&#45;&gt;Node19</title>
<path fill="none" stroke="midnightblue" d="M259.583,-224.083C251.72,-216.22 240.069,-204.569 230.581,-195.081"/>
<polygon fill="midnightblue" stroke="midnightblue" points="232.797,-192.347 223.251,-187.751 227.847,-197.297 232.797,-192.347"/>
</g>
<!-- Node20&#45;&gt;Node2 -->
<g id="edge26" class="edge"><title>Node20&#45;&gt;Node2</title>
<path fill="none" stroke="midnightblue" d="M928.227,-112.314C928.881,-98.6963 928.126,-72.2083 914.5,-56 893.393,-30.8935 856.514,-19.7386 829.999,-14.8177"/>
<polygon fill="midnightblue" stroke="midnightblue" points="830.487,-11.3509 820.049,-13.1696 829.343,-18.2568 830.487,-11.3509"/>
</g>
<!-- Node20&#45;&gt;Node9 -->
<g id="edge27" class="edge"><title>Node20&#45;&gt;Node9</title>
<path fill="none" stroke="midnightblue" d="M959.719,-114.167C982.676,-107.796 1012.83,-96.1552 1032.5,-76 1044.82,-63.3711 1051.53,-44.1599 1055.03,-29.8945"/>
<polygon fill="midnightblue" stroke="midnightblue" points="1058.53,-30.2442 1057.19,-19.7346 1051.69,-28.7866 1058.53,-30.2442"/>
</g>
<!-- Node21 -->
<g id="node22" class="node"><title>Node21</title>
<g id="a_node22"><a xlink:href="../../d9/d49/types_8h.html" target="_top" xlink:title="This file contains a number of basic enums and types. ">
<polygon fill="white" stroke="black" points="696,-56.5 696,-75.5 745,-75.5 745,-56.5 696,-56.5"/>
<text text-anchor="middle" x="720.5" y="-63.5" font-family="Helvetica,sans-Serif" font-size="10.00">types.h</text>
</a>
</g>
</g>
<!-- Node20&#45;&gt;Node21 -->
<g id="edge28" class="edge"><title>Node20&#45;&gt;Node21</title>
<path fill="none" stroke="midnightblue" d="M895.397,-112.832C862.435,-104.417 809.397,-90.7933 755.139,-76.414"/>
<polygon fill="midnightblue" stroke="midnightblue" points="755.92,-73.0002 745.357,-73.8168 754.124,-79.7658 755.92,-73.0002"/>
</g>
<!-- Node21&#45;&gt;Node4 -->
<g id="edge29" class="edge"><title>Node21&#45;&gt;Node4</title>
<path fill="none" stroke="midnightblue" d="M695.569,-59.9198C649.478,-50.5275 550.597,-30.3783 495.196,-19.089"/>
<polygon fill="midnightblue" stroke="midnightblue" points="495.877,-15.656 485.38,-17.0887 494.479,-22.515 495.877,-15.656"/>
</g>
<!-- Node22&#45;&gt;Node2 -->
<g id="edge32" class="edge"><title>Node22&#45;&gt;Node2</title>
<path fill="none" stroke="midnightblue" d="M164.708,-112.327C177.449,-97.7036 205.543,-68.5151 236.5,-56 285.68,-36.1174 654.564,-17.6397 766.434,-12.4449"/>
<polygon fill="midnightblue" stroke="midnightblue" points="766.905,-15.927 776.734,-11.9706 766.583,-8.93442 766.905,-15.927"/>
</g>
<!-- Node22&#45;&gt;Node4 -->
<g id="edge33" class="edge"><title>Node22&#45;&gt;Node4</title>
<path fill="none" stroke="midnightblue" d="M144.729,-112.488C126.848,-99.5582 98.2661,-74.517 114.5,-56 134.127,-33.6128 330.123,-18.7962 415.783,-13.3413"/>
<polygon fill="midnightblue" stroke="midnightblue" points="416.143,-16.8257 425.905,-12.7078 415.705,-9.83942 416.143,-16.8257"/>
</g>
<!-- Node22&#45;&gt;Node12 -->
<g id="edge31" class="edge"><title>Node22&#45;&gt;Node12</title>
<path fill="none" stroke="midnightblue" d="M175.334,-112.324C193.216,-103.625 220.975,-90.1202 241.546,-80.113"/>
<polygon fill="midnightblue" stroke="midnightblue" points="243.249,-83.1765 250.71,-75.6545 240.187,-76.8819 243.249,-83.1765"/>
</g>
<!-- Node23 -->
<g id="node24" class="node"><title>Node23</title>
<g id="a_node24"><a xlink:href="../../d2/d3c/docvisitor_8h.html" target="_top" xlink:title="docvisitor.h">
<polygon fill="white" stroke="black" points="0,-56.5 0,-75.5 67,-75.5 67,-56.5 0,-56.5"/>
<text text-anchor="middle" x="33.5" y="-63.5" font-family="Helvetica,sans-Serif" font-size="10.00">docvisitor.h</text>
</a>
</g>
</g>
<!-- Node22&#45;&gt;Node23 -->
<g id="edge34" class="edge"><title>Node22&#45;&gt;Node23</title>
<path fill="none" stroke="midnightblue" d="M137.852,-112.444C117.535,-103.596 85.5972,-89.6875 62.4023,-79.5865"/>
<polygon fill="midnightblue" stroke="midnightblue" points="63.6221,-76.3002 53.0562,-75.5164 60.8271,-82.7181 63.6221,-76.3002"/>
</g>
<!-- Node24 -->
<g id="node25" class="node"><title>Node24</title>
<g id="a_node25"><a xlink:href="../../d0/d73/htmlattrib_8h.html" target="_top" xlink:title="htmlattrib.h">
<polygon fill="white" stroke="black" points="124,-56.5 124,-75.5 189,-75.5 189,-56.5 124,-56.5"/>
<text text-anchor="middle" x="156.5" y="-63.5" font-family="Helvetica,sans-Serif" font-size="10.00">htmlattrib.h</text>
</a>
</g>
</g>
<!-- Node22&#45;&gt;Node24 -->
<g id="edge35" class="edge"><title>Node22&#45;&gt;Node24</title>
<path fill="none" stroke="midnightblue" d="M157.335,-112.083C157.204,-105.006 157.016,-94.8611 156.852,-85.9865"/>
<polygon fill="midnightblue" stroke="midnightblue" points="160.347,-85.6845 156.662,-75.7511 153.348,-85.8142 160.347,-85.6845"/>
</g>
<!-- Node24&#45;&gt;Node2 -->
<g id="edge37" class="edge"><title>Node24&#45;&gt;Node2</title>
<path fill="none" stroke="midnightblue" d="M189.038,-58.2726C193.872,-57.4177 198.806,-56.6249 203.5,-56 417.628,-27.4951 677.695,-15.5705 766.792,-12.1279"/>
<polygon fill="midnightblue" stroke="midnightblue" points="766.934,-15.6251 776.795,-11.7496 766.67,-8.63012 766.934,-15.6251"/>
</g>
<!-- Node24&#45;&gt;Node4 -->
<g id="edge36" class="edge"><title>Node24&#45;&gt;Node4</title>
<path fill="none" stroke="midnightblue" d="M189.106,-58.7017C193.931,-57.7856 198.843,-56.8616 203.5,-56 278.569,-42.1105 366.36,-26.5992 415.998,-17.8966"/>
<polygon fill="midnightblue" stroke="midnightblue" points="416.747,-21.3189 425.993,-16.146 415.539,-14.4238 416.747,-21.3189"/>
</g>
<!-- Node25&#45;&gt;Node4 -->
<g id="edge40" class="edge"><title>Node25&#45;&gt;Node4</title>
<path fill="none" stroke="midnightblue" d="M696.394,-172.864C617.532,-163.919 438.324,-142.722 412.5,-132 374.408,-116.184 356.866,-112.93 338.5,-76 321.331,-41.4753 375.577,-24.3979 415.871,-16.6551"/>
<polygon fill="midnightblue" stroke="midnightblue" points="416.537,-20.0916 425.763,-14.8827 415.302,-13.2014 416.537,-20.0916"/>
</g>
<!-- Node25&#45;&gt;Node9 -->
<g id="edge39" class="edge"><title>Node25&#45;&gt;Node9</title>
<path fill="none" stroke="midnightblue" d="M770.685,-176.77C844.15,-175.512 1004.12,-168.535 1042.5,-132 1070.17,-105.667 1066.8,-56.4293 1062.39,-29.5963"/>
<polygon fill="midnightblue" stroke="midnightblue" points="1065.8,-28.7873 1060.53,-19.6002 1058.92,-30.0729 1065.8,-28.7873"/>
</g>
<!-- Node26 -->
<g id="node27" class="node"><title>Node26</title>
<g id="a_node27"><a xlink:href="../../db/d51/layout_8h.html" target="_top" xlink:title="layout.h">
<polygon fill="white" stroke="black" points="645,-112.5 645,-131.5 696,-131.5 696,-112.5 645,-112.5"/>
<text text-anchor="middle" x="670.5" y="-119.5" font-family="Helvetica,sans-Serif" font-size="10.00">layout.h</text>
</a>
</g>
</g>
<!-- Node25&#45;&gt;Node26 -->
<g id="edge41" class="edge"><title>Node25&#45;&gt;Node26</title>
<path fill="none" stroke="midnightblue" d="M723.378,-168.324C713.974,-160.263 699.756,-148.077 688.431,-138.369"/>
<polygon fill="midnightblue" stroke="midnightblue" points="690.677,-135.684 680.806,-131.834 686.121,-140.999 690.677,-135.684"/>
</g>
<!-- Node27 -->
<g id="node28" class="node"><title>Node27</title>
<g id="a_node28"><a xlink:href="../../df/d9b/arguments_8h.html" target="_top" xlink:title="arguments.h">
<polygon fill="white" stroke="black" points="763,-56.5 763,-75.5 834,-75.5 834,-56.5 763,-56.5"/>
<text text-anchor="middle" x="798.5" y="-63.5" font-family="Helvetica,sans-Serif" font-size="10.00">arguments.h</text>
</a>
</g>
</g>
<!-- Node25&#45;&gt;Node27 -->
<g id="edge44" class="edge"><title>Node25&#45;&gt;Node27</title>
<path fill="none" stroke="midnightblue" d="M741.672,-168.2C749.49,-159.477 761.275,-145.5 769.5,-132 778.632,-117.012 786.557,-98.647 791.804,-85.2658"/>
<polygon fill="midnightblue" stroke="midnightblue" points="795.135,-86.3538 795.41,-75.7625 788.59,-83.8706 795.135,-86.3538"/>
</g>
<!-- Node28 -->
<g id="node29" class="node"><title>Node28</title>
<g id="a_node29"><a xlink:href="../../d1/dc6/entry_8h.html" target="_top" xlink:title="entry.h">
<polygon fill="white" stroke="black" points="714,-112.5 714,-131.5 761,-131.5 761,-112.5 714,-112.5"/>
<text text-anchor="middle" x="737.5" y="-119.5" font-family="Helvetica,sans-Serif" font-size="10.00">entry.h</text>
</a>
</g>
</g>
<!-- Node25&#45;&gt;Node28 -->
<g id="edge47" class="edge"><title>Node25&#45;&gt;Node28</title>
<path fill="none" stroke="midnightblue" d="M734.161,-168.083C734.685,-161.006 735.436,-150.861 736.094,-141.986"/>
<polygon fill="midnightblue" stroke="midnightblue" points="739.603,-141.982 736.852,-131.751 732.623,-141.465 739.603,-141.982"/>
</g>
<!-- Node26&#45;&gt;Node2 -->
<g id="edge42" class="edge"><title>Node26&#45;&gt;Node2</title>
<path fill="none" stroke="midnightblue" d="M670.258,-112.299C670.348,-98.6612 672.48,-72.1459 686.5,-56 707.029,-32.3591 741.747,-20.9851 767.098,-15.612"/>
<polygon fill="midnightblue" stroke="midnightblue" points="767.819,-19.0375 776.981,-13.7165 766.501,-12.1628 767.819,-19.0375"/>
</g>
<!-- Node26&#45;&gt;Node21 -->
<g id="edge43" class="edge"><title>Node26&#45;&gt;Node21</title>
<path fill="none" stroke="midnightblue" d="M678.756,-112.083C685.965,-104.298 696.61,-92.8015 705.346,-83.3665"/>
<polygon fill="midnightblue" stroke="midnightblue" points="708.171,-85.4666 712.397,-75.7511 703.035,-80.7108 708.171,-85.4666"/>
</g>
<!-- Node27&#45;&gt;Node2 -->
<g id="edge45" class="edge"><title>Node27&#45;&gt;Node2</title>
<path fill="none" stroke="midnightblue" d="M798.5,-56.083C798.5,-49.0059 798.5,-38.8611 798.5,-29.9865"/>
<polygon fill="midnightblue" stroke="midnightblue" points="802,-29.751 798.5,-19.7511 795,-29.7511 802,-29.751"/>
</g>
<!-- Node27&#45;&gt;Node4 -->
<g id="edge46" class="edge"><title>Node27&#45;&gt;Node4</title>
<path fill="none" stroke="midnightblue" d="M762.668,-57.6739C759.57,-57.0891 756.482,-56.523 753.5,-56 661.319,-39.8314 552.474,-24.2886 495.252,-16.3904"/>
<polygon fill="midnightblue" stroke="midnightblue" points="495.567,-12.9009 485.184,-15.0061 494.614,-19.8356 495.567,-12.9009"/>
</g>
<!-- Node28&#45;&gt;Node2 -->
<g id="edge49" class="edge"><title>Node28&#45;&gt;Node2</title>
<path fill="none" stroke="midnightblue" d="M761.042,-118.34C786.074,-114.116 824.486,-103.319 842.5,-76 853.935,-58.6589 836.153,-38.9238 819.893,-25.7936"/>
<polygon fill="midnightblue" stroke="midnightblue" points="821.775,-22.8286 811.692,-19.5771 817.547,-28.4071 821.775,-22.8286"/>
</g>
<!-- Node28&#45;&gt;Node15 -->
<g id="edge50" class="edge"><title>Node28&#45;&gt;Node15</title>
<path fill="none" stroke="midnightblue" d="M713.714,-114.486C710.615,-113.645 707.483,-112.799 704.5,-112 659.43,-99.924 607.598,-86.3244 572.922,-77.2675"/>
<polygon fill="midnightblue" stroke="midnightblue" points="573.737,-73.8632 563.178,-74.7241 571.969,-80.6363 573.737,-73.8632"/>
</g>
<!-- Node28&#45;&gt;Node21 -->
<g id="edge48" class="edge"><title>Node28&#45;&gt;Node21</title>
<path fill="none" stroke="midnightblue" d="M734.693,-112.083C732.415,-104.849 729.129,-94.4087 726.292,-85.3968"/>
<polygon fill="midnightblue" stroke="midnightblue" points="729.596,-84.2385 723.255,-75.7511 722.919,-86.3406 729.596,-84.2385"/>
</g>
</g>
</svg>
        <g id="navigator" transform="translate(0 0)" fill="#404254">
                <rect fill="#f2f5e9" fill-opacity="0.5" stroke="#606060" stroke-width=".5" x="0" y="0" width="60" height="60"/>
                <use id="zoomplus" xlink:href="#zoomPlus" x="17" y="9" onmousedown="handleZoom(evt,'in')"/>
                <use id="zoomminus" xlink:href="#zoomMin" x="42" y="9" onmousedown="handleZoom(evt,'out')"/>
                <use id="reset" xlink:href="#resetDef" x="30" y="36" onmousedown="handleReset()"/>
                <g id="arrowUp" xlink:href="#dirArrow" transform="translate(30 24)" onmousedown="handlePan(0,-1)">
                  <use xlink:href="#rim" fill="#404040">
                        <set attributeName="fill" to="#808080" begin="arrowUp.mouseover" end="arrowUp.mouseout"/>
                  </use>
                  <path fill="none" stroke="white" stroke-width="1.5" d="M0,-3.0v7 M-2.5,-0.5L0,-3.0L2.5,-0.5"/>
                </g>
                <g id="arrowRight" xlink:href="#dirArrow" transform="rotate(90) translate(36 -43)" onmousedown="handlePan(1,0)">
                  <use xlink:href="#rim" fill="#404040">
                        <set attributeName="fill" to="#808080" begin="arrowRight.mouseover" end="arrowRight.mouseout"/>
                  </use>
                  <path fill="none" stroke="white" stroke-width="1.5" d="M0,-3.0v7 M-2.5,-0.5L0,-3.0L2.5,-0.5"/>
                </g>
                <g id="arrowDown" xlink:href="#dirArrow" transform="rotate(180) translate(-30 -48)" onmousedown="handlePan(0,1)">
                  <use xlink:href="#rim" fill="#404040">
                        <set attributeName="fill" to="#808080" begin="arrowDown.mouseover" end="arrowDown.mouseout"/>
                  </use>
                  <path fill="none" stroke="white" stroke-width="1.5" d="M0,-3.0v7 M-2.5,-0.5L0,-3.0L2.5,-0.5"/>
                </g>
                <g id="arrowLeft" xlink:href="#dirArrow" transform="rotate(270) translate(-36 17)" onmousedown="handlePan(-1,0)">
                  <use xlink:href="#rim" fill="#404040">
                        <set attributeName="fill" to="#808080" begin="arrowLeft.mouseover" end="arrowLeft.mouseout"/>
                  </use>
                  <path fill="none" stroke="white" stroke-width="1.5" d="M0,-3.0v7 M-2.5,-0.5L0,-3.0L2.5,-0.5"/>
                </g>
        </g>
        <svg viewBox="0 0 15 15" width="100%" height="30px" preserveAspectRatio="xMaxYMin meet">
         <g id="arrow_out" transform="scale(0.3 0.3)">
          <a xlink:href="outputlist_8cpp__incl_org.svg" target="_base">
           <rect id="button" ry="5" rx="5" y="6" x="6" height="38" width="38"
                fill="#f2f5e9" fill-opacity="0.5" stroke="#606060" stroke-width="1.0"/>
           <path id="arrow"
             d="M 11.500037,31.436501 C 11.940474,20.09759 22.043105,11.32322 32.158766,21.979434 L 37.068811,17.246167 C 37.068811,17.246167 37.088388,32 37.088388,32 L 22.160133,31.978069 C 22.160133,31.978069 26.997745,27.140456 26.997745,27.140456 C 18.528582,18.264221 13.291696,25.230495 11.500037,31.436501 z"
             style="fill:#404040;"/>
          </a>
         </g>
        </svg>
</svg>
