<?xml version="1.0" encoding="UTF-8" standalone="no"?>
<!DOCTYPE svg PUBLIC "-//W3C//DTD SVG 1.1//EN"
 "http://www.w3.org/Graphics/SVG/1.1/DTD/svg11.dtd">
<!-- Generated by graphviz version 2.38.0 (20140413.2041)
 -->
<!-- Title: DocParBlock Pages: 1 -->
<svg width="233pt" height="152pt"
 viewBox="0.00 0.00 232.50 152.00" xmlns="http://www.w3.org/2000/svg" xmlns:xlink="http://www.w3.org/1999/xlink">
<g id="graph0" class="graph" transform="scale(1 1) rotate(0) translate(4 148)">
<title>DocParBlock</title>
<polygon fill="white" stroke="none" points="-4,4 -4,-148 228.5,-148 228.5,4 -4,4"/>
<!-- Node0 -->
<g id="node1" class="node"><title>Node0</title>
<polygon fill="#bfbfbf" stroke="black" points="127.5,-0.5 127.5,-19.5 201.5,-19.5 201.5,-0.5 127.5,-0.5"/>
<text text-anchor="middle" x="164.5" y="-7.5" font-family="Helvetica,sans-Serif" font-size="10.00">DocParBlock</text>
</g>
<!-- Node1 -->
<g id="node2" class="node"><title>Node1</title>
<g id="a_node2"><a xlink:href="../../d7/da3/class_comp_accept.html" target="_top" xlink:title="CompAccept\&lt; DocParBlock \&gt;">
<polygon fill="white" stroke="black" points="0,-57.5 0,-76.5 149,-76.5 149,-57.5 0,-57.5"/>
<text text-anchor="middle" x="74.5" y="-64.5" font-family="Helvetica,sans-Serif" font-size="10.00">CompAccept&lt; DocParBlock &gt;</text>
</a>
</g>
</g>
<!-- Node1&#45;&gt;Node0 -->
<g id="edge1" class="edge"><title>Node1&#45;&gt;Node0</title>
<path fill="none" stroke="midnightblue" d="M97.229,-52.1101C114.007,-41.857 136.307,-28.2288 150.536,-19.5334"/>
<polygon fill="midnightblue" stroke="midnightblue" points="95.2702,-49.2052 88.5625,-57.4062 98.9204,-55.1782 95.2702,-49.2052"/>
</g>
<!-- Node2 -->
<g id="node3" class="node"><title>Node2</title>
<g id="a_node3"><a xlink:href="../../d7/da3/class_comp_accept.html" target="_top" xlink:title="Default accept implementation for compound nodes in the abstract syntax tree. ">
<polygon fill="white" stroke="black" points="25.5,-124.5 25.5,-143.5 123.5,-143.5 123.5,-124.5 25.5,-124.5"/>
<text text-anchor="middle" x="74.5" y="-131.5" font-family="Helvetica,sans-Serif" font-size="10.00">CompAccept&lt; T &gt;</text>
</a>
</g>
</g>
<!-- Node2&#45;&gt;Node1 -->
<g id="edge2" class="edge"><title>Node2&#45;&gt;Node1</title>
<path fill="none" stroke="orange" stroke-dasharray="5,2" d="M74.5,-114.037C74.5,-101.67 74.5,-86.1198 74.5,-76.6273"/>
<polygon fill="orange" stroke="orange" points="71.0001,-114.234 74.5,-124.234 78.0001,-114.234 71.0001,-114.234"/>
<text text-anchor="middle" x="114" y="-98" font-family="Helvetica,sans-Serif" font-size="10.00"> &lt; DocParBlock &gt;</text>
</g>
<!-- Node3 -->
<g id="node4" class="node"><title>Node3</title>
<g id="a_node4"><a xlink:href="../../d9/d0e/class_doc_node.html" target="_top" xlink:title="Abstract node interface with type information. ">
<polygon fill="white" stroke="black" points="166.5,-57.5 166.5,-76.5 224.5,-76.5 224.5,-57.5 166.5,-57.5"/>
<text text-anchor="middle" x="195.5" y="-64.5" font-family="Helvetica,sans-Serif" font-size="10.00">DocNode</text>
</a>
</g>
</g>
<!-- Node3&#45;&gt;Node0 -->
<g id="edge3" class="edge"><title>Node3&#45;&gt;Node0</title>
<path fill="none" stroke="midnightblue" d="M185.713,-48.6354C180.288,-39.0102 173.777,-27.459 169.412,-19.7149"/>
<polygon fill="midnightblue" stroke="midnightblue" points="182.697,-50.4133 190.656,-57.4062 188.795,-46.9762 182.697,-50.4133"/>
</g>
</g>
</svg>
