<?xml version="1.0" encoding="UTF-8" standalone="no"?>
<!DOCTYPE svg PUBLIC "-//W3C//DTD SVG 1.1//EN"
 "http://www.w3.org/Graphics/SVG/1.1/DTD/svg11.dtd">
<!-- Generated by graphviz version 2.38.0 (20140413.2041)
 -->
<!-- Title: ManGenerator Pages: 1 -->
<svg width="226pt" height="209pt"
 viewBox="0.00 0.00 225.50 209.00" xmlns="http://www.w3.org/2000/svg" xmlns:xlink="http://www.w3.org/1999/xlink">
<g id="graph0" class="graph" transform="scale(1 1) rotate(0) translate(4 205)">
<title>ManGenerator</title>
<polygon fill="white" stroke="none" points="-4,4 -4,-205 221.5,-205 221.5,4 -4,4"/>
<!-- Node4 -->
<g id="node1" class="node"><title>Node4</title>
<polygon fill="#bfbfbf" stroke="black" points="111.5,-0.5 111.5,-19.5 189.5,-19.5 189.5,-0.5 111.5,-0.5"/>
<text text-anchor="middle" x="150.5" y="-7.5" font-family="Helvetica,sans-Serif" font-size="10.00">ManGenerator</text>
</g>
<!-- Node5 -->
<g id="node2" class="node"><title>Node5</title>
<g id="a_node2"><a xlink:href="../../d3/d8e/class_output_generator.html" target="_top" xlink:title="Abstract output generator. ">
<polygon fill="white" stroke="black" points="106,-57.5 106,-76.5 195,-76.5 195,-57.5 106,-57.5"/>
<text text-anchor="middle" x="150.5" y="-64.5" font-family="Helvetica,sans-Serif" font-size="10.00">OutputGenerator</text>
</a>
</g>
</g>
<!-- Node5&#45;&gt;Node4 -->
<g id="edge1" class="edge"><title>Node5&#45;&gt;Node4</title>
<path fill="none" stroke="midnightblue" d="M150.5,-47.1166C150.5,-37.8173 150.5,-27.0557 150.5,-19.7149"/>
<polygon fill="midnightblue" stroke="midnightblue" points="147,-47.4062 150.5,-57.4062 154,-47.4063 147,-47.4062"/>
</g>
<!-- Node6 -->
<g id="node3" class="node"><title>Node6</title>
<g id="a_node3"><a xlink:href="../../df/d27/class_base_output_doc_interface.html" target="_top" xlink:title="Base Interface used for generating output outside of the comment blocks. ">
<polygon fill="white" stroke="black" points="0,-124.5 0,-143.5 125,-143.5 125,-124.5 0,-124.5"/>
<text text-anchor="middle" x="62.5" y="-131.5" font-family="Helvetica,sans-Serif" font-size="10.00">BaseOutputDocInterface</text>
</a>
</g>
</g>
<!-- Node6&#45;&gt;Node5 -->
<g id="edge2" class="edge"><title>Node6&#45;&gt;Node5</title>
<path fill="none" stroke="midnightblue" d="M82.7159,-118.068C100.086,-105.238 124.526,-87.1853 138.82,-76.6273"/>
<polygon fill="midnightblue" stroke="midnightblue" points="80.3323,-115.477 74.3681,-124.234 84.4912,-121.108 80.3323,-115.477"/>
</g>
<!-- Node7 -->
<g id="node4" class="node"><title>Node7</title>
<g id="a_node4"><a xlink:href="../../d5/d9c/class_code_output_interface.html" target="_top" xlink:title="Output interface for code parser. ">
<polygon fill="white" stroke="black" points="9,-181.5 9,-200.5 116,-200.5 116,-181.5 9,-181.5"/>
<text text-anchor="middle" x="62.5" y="-188.5" font-family="Helvetica,sans-Serif" font-size="10.00">CodeOutputInterface</text>
</a>
</g>
</g>
<!-- Node7&#45;&gt;Node6 -->
<g id="edge3" class="edge"><title>Node7&#45;&gt;Node6</title>
<path fill="none" stroke="midnightblue" d="M62.5,-171.117C62.5,-161.817 62.5,-151.056 62.5,-143.715"/>
<polygon fill="midnightblue" stroke="midnightblue" points="59.0001,-171.406 62.5,-181.406 66.0001,-171.406 59.0001,-171.406"/>
</g>
<!-- Node8 -->
<g id="node5" class="node"><title>Node8</title>
<g id="a_node5"><a xlink:href="../../dc/d3c/class_f_text_stream.html" target="_top" xlink:title="Simplified and optimized version of QTextStream. ">
<polygon fill="white" stroke="black" points="143.5,-124.5 143.5,-143.5 217.5,-143.5 217.5,-124.5 143.5,-124.5"/>
<text text-anchor="middle" x="180.5" y="-131.5" font-family="Helvetica,sans-Serif" font-size="10.00">FTextStream</text>
</a>
</g>
</g>
<!-- Node8&#45;&gt;Node5 -->
<g id="edge4" class="edge"><title>Node8&#45;&gt;Node5</title>
<path fill="none" stroke="#9a32cd" stroke-dasharray="5,2" d="M172.095,-114.79C166.334,-102.308 158.952,-86.3135 154.482,-76.6273"/>
<polygon fill="#9a32cd" stroke="#9a32cd" points="169.086,-116.621 176.454,-124.234 175.441,-113.687 169.086,-116.621"/>
<text text-anchor="middle" x="171" y="-98" font-family="Helvetica,sans-Serif" font-size="10.00"> t</text>
</g>
</g>
</svg>
