<?xml version="1.0" encoding="UTF-8" standalone="no"?>
<!DOCTYPE svg PUBLIC "-//W3C//DTD SVG 1.1//EN"
 "http://www.w3.org/Graphics/SVG/1.1/DTD/svg11.dtd">
<!-- Generated by graphviz version 2.38.0 (20140413.2041)
 -->
<!-- Title: MemberListInfoContext::Private::Cachable Pages: 1 -->
<!--zoomable 293 -->
<svg id="main" version="1.1" xmlns="http://www.w3.org/2000/svg" xmlns:xlink="http://www.w3.org/1999/xlink" xml:space="preserve" onload="init(evt)">
<style type="text/css"><![CDATA[
.edge:hover path { stroke: red; }
.edge:hover polygon { stroke: red; fill: red; }
]]></style>
<script type="text/javascript"><![CDATA[
var edges = document.getElementsByTagName('g');
if (edges && edges.length) {
  for (var i=0;i<edges.length;i++) {
    if (edges[i].id.substr(0,4)=='edge') {
      edges[i].setAttribute('class','edge');
    }
  }
}
]]></script>
        <defs>
                <circle id="rim" cx="0" cy="0" r="7"/>
                <circle id="rim2" cx="0" cy="0" r="3.5"/>
                <g id="zoomPlus">
                        <use xlink:href="#rim" fill="#404040">
                                <set attributeName="fill" to="#808080" begin="zoomplus.mouseover" end="zoomplus.mouseout"/>
                        </use>
                        <path d="M-4,0h8M0,-4v8" fill="none" stroke="white" stroke-width="1.5" pointer-events="none"/>
                </g>
                <g id="zoomMin">
                        <use xlink:href="#rim" fill="#404040">
                                <set attributeName="fill" to="#808080" begin="zoomminus.mouseover" end="zoomminus.mouseout"/>
                        </use>
                        <path d="M-4,0h8" fill="none" stroke="white" stroke-width="1.5" pointer-events="none"/>
                </g>
                <g id="dirArrow">
                        <path fill="none" stroke="white" stroke-width="1.5" d="M0,-3.0v7 M-2.5,-0.5L0,-3.0L2.5,-0.5"/>
                </g>
               <g id="resetDef">
                       <use xlink:href="#rim2" fill="#404040">
                               <set attributeName="fill" to="#808080" begin="reset.mouseover" end="reset.mouseout"/>
                       </use>
               </g>
        </defs>

<script type="text/javascript">
var viewWidth = 1246;
var viewHeight = 293;
var sectionId = 'dynsection-0';
</script>
<script xlink:href="../../svgpan.js"/>
<svg id="graph" class="graph">
<g id="viewport">
<title>MemberListInfoContext::Private::Cachable</title>
<polygon fill="white" stroke="none" points="-4,4 -4,-289.459 1242,-289.459 1242,4 -4,4"/>
<!-- Node1 -->
<g id="node1" class="node"><title>Node1</title>
<polygon fill="#bfbfbf" stroke="black" points="1119,-109.252 1119,-139.252 1238,-139.252 1238,-109.252 1119,-109.252"/>
<text text-anchor="start" x="1127" y="-127.252" font-family="Helvetica,sans-Serif" font-size="10.00">MemberListInfoContext</text>
<text text-anchor="middle" x="1178.5" y="-116.252" font-family="Helvetica,sans-Serif" font-size="10.00">::Private::Cachable</text>
</g>
<!-- Node2 -->
<g id="node2" class="node"><title>Node2</title>
<g id="a_node2"><a xlink:href="../../df/d12/class_shared_ptr.html" target="_top" xlink:title="SharedPtr\&lt; MemberGroupList\lContext \&gt;">
<polygon fill="white" stroke="black" points="839,-109.252 839,-139.252 985,-139.252 985,-109.252 839,-109.252"/>
<text text-anchor="start" x="847" y="-127.252" font-family="Helvetica,sans-Serif" font-size="10.00">SharedPtr&lt; MemberGroupList</text>
<text text-anchor="middle" x="912" y="-116.252" font-family="Helvetica,sans-Serif" font-size="10.00">Context &gt;</text>
</a>
</g>
</g>
<!-- Node2&#45;&gt;Node1 -->
<g id="edge1" class="edge"><title>Node2&#45;&gt;Node1</title>
<path fill="none" stroke="#9a32cd" stroke-dasharray="5,2" d="M995.528,-124.252C1035.45,-124.252 1082.44,-124.252 1118.68,-124.252"/>
<polygon fill="#9a32cd" stroke="#9a32cd" points="995.276,-120.752 985.276,-124.252 995.276,-127.752 995.276,-120.752"/>
<text text-anchor="middle" x="1056.5" y="-127.252" font-family="Helvetica,sans-Serif" font-size="10.00"> memberGroups</text>
</g>
<!-- Node3 -->
<g id="node3" class="node"><title>Node3</title>
<g id="a_node3"><a xlink:href="../../d4/d1c/class_member_group_list_context.html" target="_top" xlink:title="MemberGroupListContext">
<polygon fill="white" stroke="black" points="519,-136.752 519,-155.752 647,-155.752 647,-136.752 519,-136.752"/>
<text text-anchor="middle" x="583" y="-143.752" font-family="Helvetica,sans-Serif" font-size="10.00">MemberGroupListContext</text>
</a>
</g>
</g>
<!-- Node3&#45;&gt;Node2 -->
<g id="edge2" class="edge"><title>Node3&#45;&gt;Node2</title>
<path fill="none" stroke="#9a32cd" stroke-dasharray="5,2" d="M657.271,-141.322C711.432,-137.679 784.826,-132.741 838.745,-129.113"/>
<polygon fill="#9a32cd" stroke="#9a32cd" points="656.791,-137.847 647.049,-142.01 657.261,-144.831 656.791,-137.847"/>
<text text-anchor="middle" x="745.5" y="-143.252" font-family="Helvetica,sans-Serif" font-size="10.00"> m_ptr</text>
</g>
<!-- Node4 -->
<g id="node4" class="node"><title>Node4</title>
<g id="a_node4"><a xlink:href="../../d8/d96/class_ref_counted_context.html" target="_top" xlink:title="Helper class to support reference counting. ">
<polygon fill="white" stroke="black" points="311,-196.752 311,-215.752 415,-215.752 415,-196.752 311,-196.752"/>
<text text-anchor="middle" x="363" y="-203.752" font-family="Helvetica,sans-Serif" font-size="10.00">RefCountedContext</text>
</a>
</g>
</g>
<!-- Node4&#45;&gt;Node3 -->
<g id="edge3" class="edge"><title>Node4&#45;&gt;Node3</title>
<path fill="none" stroke="midnightblue" d="M423.727,-194.626C443.945,-190.297 466.571,-185.021 487,-179.252 511.028,-172.467 537.855,-162.965 556.856,-155.899"/>
<polygon fill="midnightblue" stroke="midnightblue" points="422.772,-191.25 413.708,-196.736 424.214,-198.1 422.772,-191.25"/>
</g>
<!-- Node11 -->
<g id="node11" class="node"><title>Node11</title>
<g id="a_node11"><a xlink:href="../../d3/d67/class_inherited_member_info_list_context.html" target="_top" xlink:title="InheritedMemberInfoListContext">
<polygon fill="white" stroke="black" points="505,-224.752 505,-243.752 661,-243.752 661,-224.752 505,-224.752"/>
<text text-anchor="middle" x="583" y="-231.752" font-family="Helvetica,sans-Serif" font-size="10.00">InheritedMemberInfoListContext</text>
</a>
</g>
</g>
<!-- Node4&#45;&gt;Node11 -->
<g id="edge12" class="edge"><title>Node4&#45;&gt;Node11</title>
<path fill="none" stroke="midnightblue" d="M425.07,-214.096C450.706,-217.389 480.761,-221.249 507.669,-224.705"/>
<polygon fill="midnightblue" stroke="midnightblue" points="425.476,-210.619 415.111,-212.817 424.584,-217.562 425.476,-210.619"/>
</g>
<!-- Node14 -->
<g id="node14" class="node"><title>Node14</title>
<g id="a_node14"><a xlink:href="../../df/dda/class_member_list_context.html" target="_top" xlink:title="MemberListContext">
<polygon fill="white" stroke="black" points="532,-27.752 532,-46.752 634,-46.752 634,-27.752 532,-27.752"/>
<text text-anchor="middle" x="583" y="-34.752" font-family="Helvetica,sans-Serif" font-size="10.00">MemberListContext</text>
</a>
</g>
</g>
<!-- Node4&#45;&gt;Node14 -->
<g id="edge19" class="edge"><title>Node4&#45;&gt;Node14</title>
<path fill="none" stroke="midnightblue" d="M391.744,-191.555C408.307,-181.445 428.487,-166.554 441,-148.252 457.677,-123.86 439.076,-106.073 459,-84.252 477.882,-63.572 506.858,-51.9215 531.943,-45.3942"/>
<polygon fill="midnightblue" stroke="midnightblue" points="389.856,-188.604 382.986,-196.671 393.387,-194.649 389.856,-188.604"/>
</g>
<!-- Node5 -->
<g id="node5" class="node"><title>Node5</title>
<g id="a_node5"><a xlink:href="../../d6/d88/class_template_list_intf.html" target="_top" xlink:title="Abstract read&#45;only interface for a context value of type list. ">
<polygon fill="white" stroke="black" points="0,-141.752 0,-160.752 87,-160.752 87,-141.752 0,-141.752"/>
<text text-anchor="middle" x="43.5" y="-148.752" font-family="Helvetica,sans-Serif" font-size="10.00">TemplateListIntf</text>
</a>
</g>
</g>
<!-- Node5&#45;&gt;Node3 -->
<g id="edge4" class="edge"><title>Node5&#45;&gt;Node3</title>
<path fill="none" stroke="midnightblue" d="M97.2568,-154.179C100.214,-154.233 103.144,-154.26 106,-154.252 275.335,-153.808 317.763,-158.036 487,-152.252 497.323,-151.899 508.267,-151.361 518.915,-150.749"/>
<polygon fill="midnightblue" stroke="midnightblue" points="97.2579,-150.678 87.1654,-153.901 97.0652,-157.675 97.2579,-150.678"/>
</g>
<!-- Node7 -->
<g id="node7" class="node"><title>Node7</title>
<g id="a_node7"><a xlink:href="../../d6/dcb/class_generic_node_list_context.html" target="_top" xlink:title="standard template list implementation ">
<polygon fill="white" stroke="black" points="124,-118.752 124,-137.752 248,-137.752 248,-118.752 124,-118.752"/>
<text text-anchor="middle" x="186" y="-125.752" font-family="Helvetica,sans-Serif" font-size="10.00">GenericNodeListContext</text>
</a>
</g>
</g>
<!-- Node5&#45;&gt;Node7 -->
<g id="edge7" class="edge"><title>Node5&#45;&gt;Node7</title>
<path fill="none" stroke="midnightblue" d="M96.9632,-142.664C106.691,-141.071 116.907,-139.399 126.794,-137.78"/>
<polygon fill="midnightblue" stroke="midnightblue" points="96.3391,-139.219 87.0359,-144.289 97.47,-146.127 96.3391,-139.219"/>
</g>
<!-- Node5&#45;&gt;Node11 -->
<g id="edge13" class="edge"><title>Node5&#45;&gt;Node11</title>
<path fill="none" stroke="midnightblue" d="M65.6556,-166.648C105.911,-194.881 197.357,-253.988 285,-275.252 352.379,-291.599 372.36,-285.029 441,-275.252 482.769,-269.302 529.462,-253.91 557.255,-243.77"/>
<polygon fill="midnightblue" stroke="midnightblue" points="67.6038,-163.739 57.4242,-160.802 63.5505,-169.446 67.6038,-163.739"/>
</g>
<!-- Node5&#45;&gt;Node14 -->
<g id="edge20" class="edge"><title>Node5&#45;&gt;Node14</title>
<path fill="none" stroke="midnightblue" d="M63.8804,-135.039C102.768,-103.693 194.368,-35.7102 285,-11.252 379.697,14.3032 496.938,-12.2219 551.459,-27.7269"/>
<polygon fill="midnightblue" stroke="midnightblue" points="61.5157,-132.452 55.985,-141.488 65.9439,-137.873 61.5157,-132.452"/>
</g>
<!-- Node6 -->
<g id="node6" class="node"><title>Node6</title>
<g id="a_node6"><a xlink:href="../../d3/d09/class_member_group_list_context_1_1_private.html" target="_top" xlink:title="MemberGroupListContext\l::Private">
<polygon fill="white" stroke="black" points="299,-109.252 299,-139.252 427,-139.252 427,-109.252 299,-109.252"/>
<text text-anchor="start" x="307" y="-127.252" font-family="Helvetica,sans-Serif" font-size="10.00">MemberGroupListContext</text>
<text text-anchor="middle" x="363" y="-116.252" font-family="Helvetica,sans-Serif" font-size="10.00">::Private</text>
</a>
</g>
</g>
<!-- Node6&#45;&gt;Node3 -->
<g id="edge5" class="edge"><title>Node6&#45;&gt;Node3</title>
<path fill="none" stroke="#9a32cd" stroke-dasharray="5,2" d="M437.027,-131.622C463.495,-134.293 493.15,-137.286 518.71,-139.865"/>
<polygon fill="#9a32cd" stroke="#9a32cd" points="437.356,-128.137 427.055,-130.615 436.653,-135.102 437.356,-128.137"/>
<text text-anchor="middle" x="473" y="-140.252" font-family="Helvetica,sans-Serif" font-size="10.00"> p</text>
</g>
<!-- Node7&#45;&gt;Node6 -->
<g id="edge6" class="edge"><title>Node7&#45;&gt;Node6</title>
<path fill="none" stroke="midnightblue" d="M258.323,-126.622C271.713,-126.316 285.627,-125.998 298.751,-125.698"/>
<polygon fill="midnightblue" stroke="midnightblue" points="258.124,-123.125 248.207,-126.853 258.284,-130.124 258.124,-123.125"/>
</g>
<!-- Node12 -->
<g id="node12" class="node"><title>Node12</title>
<g id="a_node12"><a xlink:href="../../d0/de8/class_inherited_member_info_list_context_1_1_private.html" target="_top" xlink:title="InheritedMemberInfoListContext\l::Private">
<polygon fill="white" stroke="black" points="285,-235.252 285,-265.252 441,-265.252 441,-235.252 285,-235.252"/>
<text text-anchor="start" x="293" y="-253.252" font-family="Helvetica,sans-Serif" font-size="10.00">InheritedMemberInfoListContext</text>
<text text-anchor="middle" x="363" y="-242.252" font-family="Helvetica,sans-Serif" font-size="10.00">::Private</text>
</a>
</g>
</g>
<!-- Node7&#45;&gt;Node12 -->
<g id="edge15" class="edge"><title>Node7&#45;&gt;Node12</title>
<path fill="none" stroke="midnightblue" d="M200.557,-146.042C217.914,-167.667 249.961,-203.909 285,-225.252 291.242,-229.054 298.125,-232.343 305.131,-235.17"/>
<polygon fill="midnightblue" stroke="midnightblue" points="203.18,-143.715 194.25,-138.013 197.675,-148.039 203.18,-143.715"/>
</g>
<!-- Node15 -->
<g id="node15" class="node"><title>Node15</title>
<g id="a_node15"><a xlink:href="../../df/db1/class_member_list_context_1_1_private.html" target="_top" xlink:title="MemberListContext::\lPrivate">
<polygon fill="white" stroke="black" points="309,-21.252 309,-51.252 417,-51.252 417,-21.252 309,-21.252"/>
<text text-anchor="start" x="317" y="-39.252" font-family="Helvetica,sans-Serif" font-size="10.00">MemberListContext::</text>
<text text-anchor="middle" x="363" y="-28.252" font-family="Helvetica,sans-Serif" font-size="10.00">Private</text>
</a>
</g>
</g>
<!-- Node7&#45;&gt;Node15 -->
<g id="edge22" class="edge"><title>Node7&#45;&gt;Node15</title>
<path fill="none" stroke="midnightblue" d="M206.618,-112.334C225.695,-97.4797 255.967,-75.5211 285,-61.252 292.442,-57.5943 300.544,-54.2947 308.606,-51.3824"/>
<polygon fill="midnightblue" stroke="midnightblue" points="204.359,-109.659 198.685,-118.606 208.7,-115.15 204.359,-109.659"/>
</g>
<!-- Node8 -->
<g id="node8" class="node"><title>Node8</title>
<g id="a_node8"><a xlink:href="../../df/d12/class_shared_ptr.html" target="_top" xlink:title="Reference counting smart pointer. ">
<polygon fill="white" stroke="black" points="541,-88.752 541,-107.752 625,-107.752 625,-88.752 541,-88.752"/>
<text text-anchor="middle" x="583" y="-95.752" font-family="Helvetica,sans-Serif" font-size="10.00">SharedPtr&lt; T &gt;</text>
</a>
</g>
</g>
<!-- Node8&#45;&gt;Node2 -->
<g id="edge8" class="edge"><title>Node8&#45;&gt;Node2</title>
<path fill="none" stroke="orange" stroke-dasharray="5,2" d="M635.24,-102.326C689.936,-106.675 777.041,-113.601 838.701,-118.503"/>
<polygon fill="orange" stroke="orange" points="635.33,-98.8223 625.084,-101.519 634.775,-105.8 635.33,-98.8223"/>
<text text-anchor="middle" x="745.5" y="-119.252" font-family="Helvetica,sans-Serif" font-size="10.00"> &lt; MemberGroupListContext &gt;</text>
</g>
<!-- Node10 -->
<g id="node10" class="node"><title>Node10</title>
<g id="a_node10"><a xlink:href="../../df/d12/class_shared_ptr.html" target="_top" xlink:title="SharedPtr\&lt; InheritedMember\lInfoListContext \&gt;">
<polygon fill="white" stroke="black" points="841,-163.252 841,-193.252 983,-193.252 983,-163.252 841,-163.252"/>
<text text-anchor="start" x="849" y="-181.252" font-family="Helvetica,sans-Serif" font-size="10.00">SharedPtr&lt; InheritedMember</text>
<text text-anchor="middle" x="912" y="-170.252" font-family="Helvetica,sans-Serif" font-size="10.00">InfoListContext &gt;</text>
</a>
</g>
</g>
<!-- Node8&#45;&gt;Node10 -->
<g id="edge16" class="edge"><title>Node8&#45;&gt;Node10</title>
<path fill="none" stroke="orange" stroke-dasharray="5,2" d="M633.151,-111.389C643.009,-115.45 652.834,-120.651 661,-127.252 672.505,-136.552 666.381,-147.53 679,-155.252 705.325,-171.361 782.614,-176.439 840.807,-177.913"/>
<polygon fill="orange" stroke="orange" points="634.334,-108.094 623.742,-107.836 631.861,-114.643 634.334,-108.094"/>
<text text-anchor="start" x="686.5" y="-191.252" font-family="Helvetica,sans-Serif" font-size="10.00"> &lt; InheritedMemberInfoList</text>
<text text-anchor="middle" x="745.5" y="-180.252" font-family="Helvetica,sans-Serif" font-size="10.00">Context &gt;</text>
</g>
<!-- Node13 -->
<g id="node13" class="node"><title>Node13</title>
<g id="a_node13"><a xlink:href="../../df/d12/class_shared_ptr.html" target="_top" xlink:title="SharedPtr\&lt; MemberListContext \&gt;">
<polygon fill="white" stroke="black" points="830,-66.752 830,-85.752 994,-85.752 994,-66.752 830,-66.752"/>
<text text-anchor="middle" x="912" y="-73.752" font-family="Helvetica,sans-Serif" font-size="10.00">SharedPtr&lt; MemberListContext &gt;</text>
</a>
</g>
</g>
<!-- Node8&#45;&gt;Node13 -->
<g id="edge23" class="edge"><title>Node8&#45;&gt;Node13</title>
<path fill="none" stroke="orange" stroke-dasharray="5,2" d="M628.883,-86.271C644.612,-82.6229 662.475,-79.0928 679,-77.252 728.938,-71.6894 785.298,-71.3107 829.963,-72.3846"/>
<polygon fill="orange" stroke="orange" points="627.798,-82.9319 618.891,-88.6688 629.432,-89.7387 627.798,-82.9319"/>
<text text-anchor="middle" x="745.5" y="-80.252" font-family="Helvetica,sans-Serif" font-size="10.00"> &lt; MemberListContext &gt;</text>
</g>
<!-- Node9 -->
<g id="node9" class="node"><title>Node9</title>
<polygon fill="white" stroke="#bfbfbf" points="348.5,-70.752 348.5,-89.752 377.5,-89.752 377.5,-70.752 348.5,-70.752"/>
<text text-anchor="middle" x="363" y="-77.752" font-family="Helvetica,sans-Serif" font-size="10.00">T</text>
</g>
<!-- Node9&#45;&gt;Node8 -->
<g id="edge9" class="edge"><title>Node9&#45;&gt;Node8</title>
<path fill="none" stroke="#9a32cd" stroke-dasharray="5,2" d="M387.885,-82.2242C424.657,-85.2604 495.607,-91.1186 540.788,-94.8492"/>
<polygon fill="#9a32cd" stroke="#9a32cd" points="387.891,-78.7129 377.637,-81.378 387.315,-85.6891 387.891,-78.7129"/>
<text text-anchor="middle" x="473" y="-94.252" font-family="Helvetica,sans-Serif" font-size="10.00"> m_ptr</text>
</g>
<!-- Node10&#45;&gt;Node1 -->
<g id="edge10" class="edge"><title>Node10&#45;&gt;Node1</title>
<path fill="none" stroke="#9a32cd" stroke-dasharray="5,2" d="M993.019,-161.915C1033.45,-153.661 1081.64,-143.822 1118.63,-136.271"/>
<polygon fill="#9a32cd" stroke="#9a32cd" points="992.284,-158.493 983.187,-163.923 993.685,-165.352 992.284,-158.493"/>
<text text-anchor="middle" x="1056.5" y="-161.252" font-family="Helvetica,sans-Serif" font-size="10.00"> inherited</text>
</g>
<!-- Node11&#45;&gt;Node10 -->
<g id="edge11" class="edge"><title>Node11&#45;&gt;Node10</title>
<path fill="none" stroke="#9a32cd" stroke-dasharray="5,2" d="M671.243,-225.384C713.889,-220.386 765.847,-213.311 812,-204.252 827.345,-201.24 843.839,-197.226 858.878,-193.256"/>
<polygon fill="#9a32cd" stroke="#9a32cd" points="670.706,-221.922 661.173,-226.546 671.508,-228.876 670.706,-221.922"/>
<text text-anchor="middle" x="745.5" y="-227.252" font-family="Helvetica,sans-Serif" font-size="10.00"> m_ptr</text>
</g>
<!-- Node12&#45;&gt;Node11 -->
<g id="edge14" class="edge"><title>Node12&#45;&gt;Node11</title>
<path fill="none" stroke="#9a32cd" stroke-dasharray="5,2" d="M451.474,-243.832C469.163,-242.534 487.639,-241.178 504.938,-239.908"/>
<polygon fill="#9a32cd" stroke="#9a32cd" points="450.882,-240.366 441.165,-244.589 451.395,-247.347 450.882,-240.366"/>
<text text-anchor="middle" x="473" y="-246.252" font-family="Helvetica,sans-Serif" font-size="10.00"> p</text>
</g>
<!-- Node13&#45;&gt;Node1 -->
<g id="edge17" class="edge"><title>Node13&#45;&gt;Node1</title>
<path fill="none" stroke="#9a32cd" stroke-dasharray="5,2" d="M978.909,-87.4915C1015,-93.7291 1060.5,-101.727 1101,-109.252 1106.72,-110.315 1112.68,-111.444 1118.63,-112.587"/>
<polygon fill="#9a32cd" stroke="#9a32cd" points="979.441,-84.0316 968.991,-85.7808 978.251,-90.9297 979.441,-84.0316"/>
<text text-anchor="middle" x="1056.5" y="-112.252" font-family="Helvetica,sans-Serif" font-size="10.00"> memberListContext</text>
</g>
<!-- Node14&#45;&gt;Node13 -->
<g id="edge18" class="edge"><title>Node14&#45;&gt;Node13</title>
<path fill="none" stroke="#9a32cd" stroke-dasharray="5,2" d="M644.544,-40.8729C690.601,-44.0361 755.472,-49.3694 812,-57.252 829.853,-59.7417 849.367,-63.3036 866.314,-66.6721"/>
<polygon fill="#9a32cd" stroke="#9a32cd" points="644.641,-37.3717 634.429,-40.1923 644.171,-44.3559 644.641,-37.3717"/>
<text text-anchor="middle" x="745.5" y="-60.252" font-family="Helvetica,sans-Serif" font-size="10.00"> m_ptr</text>
</g>
<!-- Node15&#45;&gt;Node14 -->
<g id="edge21" class="edge"><title>Node15&#45;&gt;Node14</title>
<path fill="none" stroke="#9a32cd" stroke-dasharray="5,2" d="M427.128,-36.5416C460.379,-36.6941 500.597,-36.8786 531.714,-37.0214"/>
<polygon fill="#9a32cd" stroke="#9a32cd" points="427.066,-33.0414 417.05,-36.4954 427.034,-40.0413 427.066,-33.0414"/>
<text text-anchor="middle" x="473" y="-40.252" font-family="Helvetica,sans-Serif" font-size="10.00"> p</text>
</g>
</g>
</svg>
        <g id="navigator" transform="translate(0 0)" fill="#404254">
                <rect fill="#f2f5e9" fill-opacity="0.5" stroke="#606060" stroke-width=".5" x="0" y="0" width="60" height="60"/>
                <use id="zoomplus" xlink:href="#zoomPlus" x="17" y="9" onmousedown="handleZoom(evt,'in')"/>
                <use id="zoomminus" xlink:href="#zoomMin" x="42" y="9" onmousedown="handleZoom(evt,'out')"/>
                <use id="reset" xlink:href="#resetDef" x="30" y="36" onmousedown="handleReset()"/>
                <g id="arrowUp" xlink:href="#dirArrow" transform="translate(30 24)" onmousedown="handlePan(0,-1)">
                  <use xlink:href="#rim" fill="#404040">
                        <set attributeName="fill" to="#808080" begin="arrowUp.mouseover" end="arrowUp.mouseout"/>
                  </use>
                  <path fill="none" stroke="white" stroke-width="1.5" d="M0,-3.0v7 M-2.5,-0.5L0,-3.0L2.5,-0.5"/>
                </g>
                <g id="arrowRight" xlink:href="#dirArrow" transform="rotate(90) translate(36 -43)" onmousedown="handlePan(1,0)">
                  <use xlink:href="#rim" fill="#404040">
                        <set attributeName="fill" to="#808080" begin="arrowRight.mouseover" end="arrowRight.mouseout"/>
                  </use>
                  <path fill="none" stroke="white" stroke-width="1.5" d="M0,-3.0v7 M-2.5,-0.5L0,-3.0L2.5,-0.5"/>
                </g>
                <g id="arrowDown" xlink:href="#dirArrow" transform="rotate(180) translate(-30 -48)" onmousedown="handlePan(0,1)">
                  <use xlink:href="#rim" fill="#404040">
                        <set attributeName="fill" to="#808080" begin="arrowDown.mouseover" end="arrowDown.mouseout"/>
                  </use>
                  <path fill="none" stroke="white" stroke-width="1.5" d="M0,-3.0v7 M-2.5,-0.5L0,-3.0L2.5,-0.5"/>
                </g>
                <g id="arrowLeft" xlink:href="#dirArrow" transform="rotate(270) translate(-36 17)" onmousedown="handlePan(-1,0)">
                  <use xlink:href="#rim" fill="#404040">
                        <set attributeName="fill" to="#808080" begin="arrowLeft.mouseover" end="arrowLeft.mouseout"/>
                  </use>
                  <path fill="none" stroke="white" stroke-width="1.5" d="M0,-3.0v7 M-2.5,-0.5L0,-3.0L2.5,-0.5"/>
                </g>
        </g>
        <svg viewBox="0 0 15 15" width="100%" height="30px" preserveAspectRatio="xMaxYMin meet">
         <g id="arrow_out" transform="scale(0.3 0.3)">
          <a xlink:href="struct_member_list_info_context_1_1_private_1_1_cachable__coll__graph_org.svg" target="_base">
           <rect id="button" ry="5" rx="5" y="6" x="6" height="38" width="38"
                fill="#f2f5e9" fill-opacity="0.5" stroke="#606060" stroke-width="1.0"/>
           <path id="arrow"
             d="M 11.500037,31.436501 C 11.940474,20.09759 22.043105,11.32322 32.158766,21.979434 L 37.068811,17.246167 C 37.068811,17.246167 37.088388,32 37.088388,32 L 22.160133,31.978069 C 22.160133,31.978069 26.997745,27.140456 26.997745,27.140456 C 18.528582,18.264221 13.291696,25.230495 11.500037,31.436501 z"
             style="fill:#404040;"/>
          </a>
         </g>
        </svg>
</svg>
