<?xml version="1.0" encoding="UTF-8" standalone="no"?>
<!DOCTYPE svg PUBLIC "-//W3C//DTD SVG 1.1//EN"
 "http://www.w3.org/Graphics/SVG/1.1/DTD/svg11.dtd">
<!-- Generated by graphviz version 2.38.0 (20140413.2041)
 -->
<!-- Title: src/reflist.h Pages: 1 -->
<svg width="492pt" height="84pt"
 viewBox="0.00 0.00 492.00 84.00" xmlns="http://www.w3.org/2000/svg" xmlns:xlink="http://www.w3.org/1999/xlink">
<g id="graph0" class="graph" transform="scale(1 1) rotate(0) translate(4 80)">
<title>src/reflist.h</title>
<polygon fill="white" stroke="none" points="-4,4 -4,-80 488,-80 488,4 -4,4"/>
<!-- Node5 -->
<g id="node1" class="node"><title>Node5</title>
<polygon fill="#bfbfbf" stroke="black" points="231,-56.5 231,-75.5 296,-75.5 296,-56.5 231,-56.5"/>
<text text-anchor="middle" x="263.5" y="-63.5" font-family="Helvetica,sans-Serif" font-size="10.00">src/reflist.h</text>
</g>
<!-- Node6 -->
<g id="node2" class="node"><title>Node6</title>
<g id="a_node2"><a xlink:href="../../da/d17/docparser_8cpp.html" target="_top" xlink:title="src/docparser.cpp">
<polygon fill="white" stroke="black" points="0,-0.5 0,-19.5 95,-19.5 95,-0.5 0,-0.5"/>
<text text-anchor="middle" x="47.5" y="-7.5" font-family="Helvetica,sans-Serif" font-size="10.00">src/docparser.cpp</text>
</a>
</g>
</g>
<!-- Node5&#45;&gt;Node6 -->
<g id="edge1" class="edge"><title>Node5&#45;&gt;Node6</title>
<path fill="none" stroke="midnightblue" d="M220.782,-54.3204C180.006,-44.1265 119.359,-28.9648 81.6867,-19.5467"/>
<polygon fill="midnightblue" stroke="midnightblue" points="220.144,-57.7686 230.694,-56.7986 221.842,-50.9776 220.144,-57.7686"/>
</g>
<!-- Node7 -->
<g id="node3" class="node"><title>Node7</title>
<g id="a_node3"><a xlink:href="../../dc/d98/doxygen_8cpp.html" target="_top" xlink:title="src/doxygen.cpp">
<polygon fill="white" stroke="black" points="113,-0.5 113,-19.5 202,-19.5 202,-0.5 113,-0.5"/>
<text text-anchor="middle" x="157.5" y="-7.5" font-family="Helvetica,sans-Serif" font-size="10.00">src/doxygen.cpp</text>
</a>
</g>
</g>
<!-- Node5&#45;&gt;Node7 -->
<g id="edge2" class="edge"><title>Node5&#45;&gt;Node7</title>
<path fill="none" stroke="midnightblue" d="M237.444,-51.7261C217.816,-41.7271 191.472,-28.3065 174.488,-19.6545"/>
<polygon fill="midnightblue" stroke="midnightblue" points="235.97,-54.9033 246.469,-56.324 239.148,-48.666 235.97,-54.9033"/>
</g>
<!-- Node8 -->
<g id="node4" class="node"><title>Node8</title>
<g id="a_node4"><a xlink:href="../../d9/db4/pagedef_8cpp.html" target="_top" xlink:title="src/pagedef.cpp">
<polygon fill="white" stroke="black" points="220.5,-0.5 220.5,-19.5 306.5,-19.5 306.5,-0.5 220.5,-0.5"/>
<text text-anchor="middle" x="263.5" y="-7.5" font-family="Helvetica,sans-Serif" font-size="10.00">src/pagedef.cpp</text>
</a>
</g>
</g>
<!-- Node5&#45;&gt;Node8 -->
<g id="edge3" class="edge"><title>Node5&#45;&gt;Node8</title>
<path fill="none" stroke="midnightblue" d="M263.5,-45.8045C263.5,-36.9102 263.5,-26.7798 263.5,-19.7511"/>
<polygon fill="midnightblue" stroke="midnightblue" points="260,-46.083 263.5,-56.083 267,-46.083 260,-46.083"/>
</g>
<!-- Node9 -->
<g id="node5" class="node"><title>Node9</title>
<g id="a_node5"><a xlink:href="../../d4/d09/reflist_8cpp.html" target="_top" xlink:title="src/reflist.cpp">
<polygon fill="white" stroke="black" points="324.5,-0.5 324.5,-19.5 400.5,-19.5 400.5,-0.5 324.5,-0.5"/>
<text text-anchor="middle" x="362.5" y="-7.5" font-family="Helvetica,sans-Serif" font-size="10.00">src/reflist.cpp</text>
</a>
</g>
</g>
<!-- Node5&#45;&gt;Node9 -->
<g id="edge4" class="edge"><title>Node5&#45;&gt;Node9</title>
<path fill="none" stroke="midnightblue" d="M288.337,-51.4526C306.614,-41.4835 330.916,-28.2279 346.633,-19.6545"/>
<polygon fill="midnightblue" stroke="midnightblue" points="286.509,-48.4628 279.406,-56.324 289.861,-54.608 286.509,-48.4628"/>
</g>
<!-- Node10 -->
<g id="node6" class="node"><title>Node10</title>
<g id="a_node6"><a xlink:href="../../df/d2d/util_8cpp.html" target="_top" xlink:title="src/util.cpp">
<polygon fill="white" stroke="black" points="419,-0.5 419,-19.5 484,-19.5 484,-0.5 419,-0.5"/>
<text text-anchor="middle" x="451.5" y="-7.5" font-family="Helvetica,sans-Serif" font-size="10.00">src/util.cpp</text>
</a>
</g>
</g>
<!-- Node5&#45;&gt;Node10 -->
<g id="edge5" class="edge"><title>Node5&#45;&gt;Node10</title>
<path fill="none" stroke="midnightblue" d="M303.301,-53.5677C338.766,-43.381 389.866,-28.7034 421.85,-19.5164"/>
<polygon fill="midnightblue" stroke="midnightblue" points="301.934,-50.3188 293.289,-56.4435 303.867,-57.0467 301.934,-50.3188"/>
</g>
</g>
</svg>
