<?xml version="1.0" encoding="UTF-8" standalone="no"?>
<!DOCTYPE svg PUBLIC "-//W3C//DTD SVG 1.1//EN"
 "http://www.w3.org/Graphics/SVG/1.1/DTD/svg11.dtd">
<!-- Generated by graphviz version 2.38.0 (20140413.2041)
 -->
<!-- Title: DocInternal Pages: 1 -->
<svg width="288pt" height="152pt"
 viewBox="0.00 0.00 288.00 152.00" xmlns="http://www.w3.org/2000/svg" xmlns:xlink="http://www.w3.org/1999/xlink">
<g id="graph0" class="graph" transform="scale(1 1) rotate(0) translate(4 148)">
<title>DocInternal</title>
<polygon fill="white" stroke="none" points="-4,4 -4,-148 284,-148 284,4 -4,4"/>
<!-- Node4 -->
<g id="node1" class="node"><title>Node4</title>
<polygon fill="#bfbfbf" stroke="black" points="95.5,-0.5 95.5,-19.5 162.5,-19.5 162.5,-0.5 95.5,-0.5"/>
<text text-anchor="middle" x="129" y="-7.5" font-family="Helvetica,sans-Serif" font-size="10.00">DocInternal</text>
</g>
<!-- Node5 -->
<g id="node2" class="node"><title>Node5</title>
<g id="a_node2"><a xlink:href="../../d7/da3/class_comp_accept.html" target="_top" xlink:title="CompAccept\&lt; DocInternal \&gt;">
<polygon fill="white" stroke="black" points="0,-57.5 0,-76.5 142,-76.5 142,-57.5 0,-57.5"/>
<text text-anchor="middle" x="71" y="-64.5" font-family="Helvetica,sans-Serif" font-size="10.00">CompAccept&lt; DocInternal &gt;</text>
</a>
</g>
</g>
<!-- Node5&#45;&gt;Node4 -->
<g id="edge1" class="edge"><title>Node5&#45;&gt;Node4</title>
<path fill="none" stroke="midnightblue" d="M87.4339,-50.4162C97.9236,-40.469 111.133,-27.9431 119.81,-19.7149"/>
<polygon fill="midnightblue" stroke="midnightblue" points="84.9104,-47.9856 80.0625,-57.4062 89.7271,-53.065 84.9104,-47.9856"/>
</g>
<!-- Node6 -->
<g id="node3" class="node"><title>Node6</title>
<g id="a_node3"><a xlink:href="../../d7/da3/class_comp_accept.html" target="_top" xlink:title="Default accept implementation for compound nodes in the abstract syntax tree. ">
<polygon fill="white" stroke="black" points="22,-124.5 22,-143.5 120,-143.5 120,-124.5 22,-124.5"/>
<text text-anchor="middle" x="71" y="-131.5" font-family="Helvetica,sans-Serif" font-size="10.00">CompAccept&lt; T &gt;</text>
</a>
</g>
</g>
<!-- Node6&#45;&gt;Node5 -->
<g id="edge2" class="edge"><title>Node6&#45;&gt;Node5</title>
<path fill="none" stroke="orange" stroke-dasharray="5,2" d="M71,-114.037C71,-101.67 71,-86.1198 71,-76.6273"/>
<polygon fill="orange" stroke="orange" points="67.5001,-114.234 71,-124.234 74.5001,-114.234 67.5001,-114.234"/>
<text text-anchor="middle" x="107" y="-98" font-family="Helvetica,sans-Serif" font-size="10.00"> &lt; DocInternal &gt;</text>
</g>
<!-- Node7 -->
<g id="node4" class="node"><title>Node7</title>
<g id="a_node4"><a xlink:href="../../d9/d0e/class_doc_node.html" target="_top" xlink:title="Abstract node interface with type information. ">
<polygon fill="white" stroke="black" points="160,-57.5 160,-76.5 218,-76.5 218,-57.5 160,-57.5"/>
<text text-anchor="middle" x="189" y="-64.5" font-family="Helvetica,sans-Serif" font-size="10.00">DocNode</text>
</a>
</g>
</g>
<!-- Node7&#45;&gt;Node4 -->
<g id="edge3" class="edge"><title>Node7&#45;&gt;Node4</title>
<path fill="none" stroke="midnightblue" d="M171.999,-50.4162C161.148,-40.469 147.483,-27.9431 138.507,-19.7149"/>
<polygon fill="midnightblue" stroke="midnightblue" points="169.888,-53.229 179.625,-57.4062 174.618,-48.0689 169.888,-53.229"/>
</g>
<!-- Node7&#45;&gt;Node7 -->
<g id="edge4" class="edge"><title>Node7&#45;&gt;Node7</title>
<path fill="none" stroke="#9a32cd" stroke-dasharray="5,2" d="M228.603,-71.4489C233.091,-70.6158 236,-69.1328 236,-67 236,-63.5 228.167,-61.75 218.375,-61.75"/>
<polygon fill="#9a32cd" stroke="#9a32cd" points="228.071,-67.9798 218.375,-72.25 228.618,-74.9584 228.071,-67.9798"/>
<text text-anchor="middle" x="258" y="-64.5" font-family="Helvetica,sans-Serif" font-size="10.00"> m_parent</text>
</g>
</g>
</svg>
