<?xml version="1.0" encoding="UTF-8" standalone="no"?>
<!DOCTYPE svg PUBLIC "-//W3C//DTD SVG 1.1//EN"
 "http://www.w3.org/Graphics/SVG/1.1/DTD/svg11.dtd">
<!-- Generated by graphviz version 2.38.0 (20140413.2041)
 -->
<!-- Title: DocSimpleList Pages: 1 -->
<svg width="302pt" height="152pt"
 viewBox="0.00 0.00 301.50 152.00" xmlns="http://www.w3.org/2000/svg" xmlns:xlink="http://www.w3.org/1999/xlink">
<g id="graph0" class="graph" transform="scale(1 1) rotate(0) translate(4 148)">
<title>DocSimpleList</title>
<polygon fill="white" stroke="none" points="-4,4 -4,-148 297.5,-148 297.5,4 -4,4"/>
<!-- Node4 -->
<g id="node1" class="node"><title>Node4</title>
<polygon fill="#bfbfbf" stroke="black" points="99.5,-0.5 99.5,-19.5 179.5,-19.5 179.5,-0.5 99.5,-0.5"/>
<text text-anchor="middle" x="139.5" y="-7.5" font-family="Helvetica,sans-Serif" font-size="10.00">DocSimpleList</text>
</g>
<!-- Node5 -->
<g id="node2" class="node"><title>Node5</title>
<g id="a_node2"><a xlink:href="../../d7/da3/class_comp_accept.html" target="_top" xlink:title="CompAccept\&lt; DocSimpleList \&gt;">
<polygon fill="white" stroke="black" points="0,-57.5 0,-76.5 155,-76.5 155,-57.5 0,-57.5"/>
<text text-anchor="middle" x="77.5" y="-64.5" font-family="Helvetica,sans-Serif" font-size="10.00">CompAccept&lt; DocSimpleList &gt;</text>
</a>
</g>
</g>
<!-- Node5&#45;&gt;Node4 -->
<g id="edge1" class="edge"><title>Node5&#45;&gt;Node4</title>
<path fill="none" stroke="midnightblue" d="M94.7383,-50.708C106.003,-40.715 120.31,-28.0237 129.676,-19.7149"/>
<polygon fill="midnightblue" stroke="midnightblue" points="92.3456,-48.1518 87.1875,-57.4062 96.9909,-53.3883 92.3456,-48.1518"/>
</g>
<!-- Node6 -->
<g id="node3" class="node"><title>Node6</title>
<g id="a_node3"><a xlink:href="../../d7/da3/class_comp_accept.html" target="_top" xlink:title="Default accept implementation for compound nodes in the abstract syntax tree. ">
<polygon fill="white" stroke="black" points="28.5,-124.5 28.5,-143.5 126.5,-143.5 126.5,-124.5 28.5,-124.5"/>
<text text-anchor="middle" x="77.5" y="-131.5" font-family="Helvetica,sans-Serif" font-size="10.00">CompAccept&lt; T &gt;</text>
</a>
</g>
</g>
<!-- Node6&#45;&gt;Node5 -->
<g id="edge2" class="edge"><title>Node6&#45;&gt;Node5</title>
<path fill="none" stroke="orange" stroke-dasharray="5,2" d="M77.5,-114.037C77.5,-101.67 77.5,-86.1198 77.5,-76.6273"/>
<polygon fill="orange" stroke="orange" points="74.0001,-114.234 77.5,-124.234 81.0001,-114.234 74.0001,-114.234"/>
<text text-anchor="middle" x="120" y="-98" font-family="Helvetica,sans-Serif" font-size="10.00"> &lt; DocSimpleList &gt;</text>
</g>
<!-- Node7 -->
<g id="node4" class="node"><title>Node7</title>
<g id="a_node4"><a xlink:href="../../d9/d0e/class_doc_node.html" target="_top" xlink:title="Abstract node interface with type information. ">
<polygon fill="white" stroke="black" points="173.5,-57.5 173.5,-76.5 231.5,-76.5 231.5,-57.5 173.5,-57.5"/>
<text text-anchor="middle" x="202.5" y="-64.5" font-family="Helvetica,sans-Serif" font-size="10.00">DocNode</text>
</a>
</g>
</g>
<!-- Node7&#45;&gt;Node4 -->
<g id="edge3" class="edge"><title>Node7&#45;&gt;Node4</title>
<path fill="none" stroke="midnightblue" d="M184.984,-50.708C173.537,-40.715 159,-28.0237 149.483,-19.7149"/>
<polygon fill="midnightblue" stroke="midnightblue" points="182.821,-53.4663 192.656,-57.4062 187.425,-48.193 182.821,-53.4663"/>
</g>
<!-- Node7&#45;&gt;Node7 -->
<g id="edge4" class="edge"><title>Node7&#45;&gt;Node7</title>
<path fill="none" stroke="#9a32cd" stroke-dasharray="5,2" d="M242.103,-71.4489C246.591,-70.6158 249.5,-69.1328 249.5,-67 249.5,-63.5 241.667,-61.75 231.875,-61.75"/>
<polygon fill="#9a32cd" stroke="#9a32cd" points="241.571,-67.9798 231.875,-72.25 242.118,-74.9584 241.571,-67.9798"/>
<text text-anchor="middle" x="271.5" y="-64.5" font-family="Helvetica,sans-Serif" font-size="10.00"> m_parent</text>
</g>
</g>
</svg>
