<?xml version="1.0" encoding="UTF-8" standalone="no"?>
<!DOCTYPE svg PUBLIC "-//W3C//DTD SVG 1.1//EN"
 "http://www.w3.org/Graphics/SVG/1.1/DTD/svg11.dtd">
<!-- Generated by graphviz version 2.38.0 (20140413.2041)
 -->
<!-- Title: vhdlparser/TokenManager.h Pages: 1 -->
<svg width="327pt" height="252pt"
 viewBox="0.00 0.00 326.50 252.00" xmlns="http://www.w3.org/2000/svg" xmlns:xlink="http://www.w3.org/1999/xlink">
<g id="graph0" class="graph" transform="scale(1 1) rotate(0) translate(4 248)">
<title>vhdlparser/TokenManager.h</title>
<polygon fill="white" stroke="none" points="-4,4 -4,-248 322.5,-248 322.5,4 -4,4"/>
<!-- Node0 -->
<g id="node1" class="node"><title>Node0</title>
<polygon fill="#bfbfbf" stroke="black" points="13.5,-224.5 13.5,-243.5 150.5,-243.5 150.5,-224.5 13.5,-224.5"/>
<text text-anchor="middle" x="82" y="-231.5" font-family="Helvetica,sans-Serif" font-size="10.00">vhdlparser/TokenManager.h</text>
</g>
<!-- Node1 -->
<g id="node2" class="node"><title>Node1</title>
<polygon fill="white" stroke="#bfbfbf" points="0,-168.5 0,-187.5 54,-187.5 54,-168.5 0,-168.5"/>
<text text-anchor="middle" x="27" y="-175.5" font-family="Helvetica,sans-Serif" font-size="10.00">iostream</text>
</g>
<!-- Node0&#45;&gt;Node1 -->
<g id="edge1" class="edge"><title>Node0&#45;&gt;Node1</title>
<path fill="none" stroke="midnightblue" d="M72.9179,-224.083C64.8287,-216.141 52.8046,-204.335 43.0898,-194.797"/>
<polygon fill="midnightblue" stroke="midnightblue" points="45.5009,-192.26 35.9131,-187.751 40.5967,-197.254 45.5009,-192.26"/>
</g>
<!-- Node2 -->
<g id="node3" class="node"><title>Node2</title>
<g id="a_node3"><a xlink:href="../../d1/d2f/_java_c_c_8h.html" target="_top" xlink:title="JavaCC.h">
<polygon fill="white" stroke="black" points="78.5,-112.5 78.5,-131.5 139.5,-131.5 139.5,-112.5 78.5,-112.5"/>
<text text-anchor="middle" x="109" y="-119.5" font-family="Helvetica,sans-Serif" font-size="10.00">JavaCC.h</text>
</a>
</g>
</g>
<!-- Node0&#45;&gt;Node2 -->
<g id="edge2" class="edge"><title>Node0&#45;&gt;Node2</title>
<path fill="none" stroke="midnightblue" d="M84.1186,-224.368C88.4758,-206.617 98.5273,-165.666 104.435,-141.597"/>
<polygon fill="midnightblue" stroke="midnightblue" points="107.906,-142.137 106.891,-131.591 101.108,-140.469 107.906,-142.137"/>
</g>
<!-- Node10 -->
<g id="node11" class="node"><title>Node10</title>
<g id="a_node11"><a xlink:href="../../dd/dcd/_token_8h.html" target="_top" xlink:title="Token.h">
<polygon fill="white" stroke="black" points="110,-168.5 110,-187.5 162,-187.5 162,-168.5 110,-168.5"/>
<text text-anchor="middle" x="136" y="-175.5" font-family="Helvetica,sans-Serif" font-size="10.00">Token.h</text>
</a>
</g>
</g>
<!-- Node0&#45;&gt;Node10 -->
<g id="edge11" class="edge"><title>Node0&#45;&gt;Node10</title>
<path fill="none" stroke="midnightblue" d="M90.917,-224.083C98.7805,-216.22 110.431,-204.569 119.919,-195.081"/>
<polygon fill="midnightblue" stroke="midnightblue" points="122.653,-197.297 127.249,-187.751 117.703,-192.347 122.653,-197.297"/>
</g>
<!-- Node3 -->
<g id="node4" class="node"><title>Node3</title>
<polygon fill="white" stroke="#bfbfbf" points="70,-0.5 70,-19.5 116,-19.5 116,-0.5 70,-0.5"/>
<text text-anchor="middle" x="93" y="-7.5" font-family="Helvetica,sans-Serif" font-size="10.00">stdio.h</text>
</g>
<!-- Node2&#45;&gt;Node3 -->
<g id="edge3" class="edge"><title>Node2&#45;&gt;Node3</title>
<path fill="none" stroke="midnightblue" d="M78.1383,-116.052C55.0248,-110.553 24.923,-99.1755 10,-76 -5.89079,-51.3215 30.7004,-32.0542 60.2551,-21.1031"/>
<polygon fill="midnightblue" stroke="midnightblue" points="61.6444,-24.3249 69.9223,-17.7123 59.3275,-17.7195 61.6444,-24.3249"/>
</g>
<!-- Node4 -->
<g id="node5" class="node"><title>Node4</title>
<polygon fill="white" stroke="#bfbfbf" points="19.5,-56.5 19.5,-75.5 60.5,-75.5 60.5,-56.5 19.5,-56.5"/>
<text text-anchor="middle" x="40" y="-63.5" font-family="Helvetica,sans-Serif" font-size="10.00">string</text>
</g>
<!-- Node2&#45;&gt;Node4 -->
<g id="edge4" class="edge"><title>Node2&#45;&gt;Node4</title>
<path fill="none" stroke="midnightblue" d="M97.914,-112.324C87.514,-104.185 71.7394,-91.8395 59.2784,-82.0874"/>
<polygon fill="midnightblue" stroke="midnightblue" points="61.3199,-79.2407 51.2878,-75.8339 57.0057,-84.7533 61.3199,-79.2407"/>
</g>
<!-- Node5 -->
<g id="node6" class="node"><title>Node5</title>
<polygon fill="white" stroke="#bfbfbf" points="79,-56.5 79,-75.5 139,-75.5 139,-56.5 79,-56.5"/>
<text text-anchor="middle" x="109" y="-63.5" font-family="Helvetica,sans-Serif" font-size="10.00">memory.h</text>
</g>
<!-- Node2&#45;&gt;Node5 -->
<g id="edge5" class="edge"><title>Node2&#45;&gt;Node5</title>
<path fill="none" stroke="midnightblue" d="M109,-112.083C109,-105.006 109,-94.8611 109,-85.9865"/>
<polygon fill="midnightblue" stroke="midnightblue" points="112.5,-85.751 109,-75.7511 105.5,-85.7511 112.5,-85.751"/>
</g>
<!-- Node6 -->
<g id="node7" class="node"><title>Node6</title>
<polygon fill="white" stroke="#bfbfbf" points="157,-56.5 157,-75.5 209,-75.5 209,-56.5 157,-56.5"/>
<text text-anchor="middle" x="183" y="-63.5" font-family="Helvetica,sans-Serif" font-size="10.00">assert.h</text>
</g>
<!-- Node2&#45;&gt;Node6 -->
<g id="edge6" class="edge"><title>Node2&#45;&gt;Node6</title>
<path fill="none" stroke="midnightblue" d="M120.889,-112.324C132.15,-104.107 149.287,-91.6017 162.709,-81.8069"/>
<polygon fill="midnightblue" stroke="midnightblue" points="164.88,-84.5559 170.894,-75.8339 160.753,-78.9014 164.88,-84.5559"/>
</g>
<!-- Node7 -->
<g id="node8" class="node"><title>Node7</title>
<g id="a_node8"><a xlink:href="../../d9/d48/vhdlstring_8h.html" target="_top" xlink:title="vhdlstring.h">
<polygon fill="white" stroke="black" points="227.5,-56.5 227.5,-75.5 294.5,-75.5 294.5,-56.5 227.5,-56.5"/>
<text text-anchor="middle" x="261" y="-63.5" font-family="Helvetica,sans-Serif" font-size="10.00">vhdlstring.h</text>
</a>
</g>
</g>
<!-- Node2&#45;&gt;Node7 -->
<g id="edge7" class="edge"><title>Node2&#45;&gt;Node7</title>
<path fill="none" stroke="midnightblue" d="M133.085,-112.444C158.545,-103.399 198.894,-89.064 227.459,-78.9158"/>
<polygon fill="midnightblue" stroke="midnightblue" points="228.777,-82.1622 237.028,-75.5164 226.433,-75.5661 228.777,-82.1622"/>
</g>
<!-- Node7&#45;&gt;Node3 -->
<g id="edge8" class="edge"><title>Node7&#45;&gt;Node3</title>
<path fill="none" stroke="midnightblue" d="M234.38,-56.4435C204.992,-46.9976 157.657,-31.7826 125.952,-21.5916"/>
<polygon fill="midnightblue" stroke="midnightblue" points="126.841,-18.2011 116.249,-18.473 124.699,-24.8653 126.841,-18.2011"/>
</g>
<!-- Node8 -->
<g id="node9" class="node"><title>Node8</title>
<polygon fill="white" stroke="#bfbfbf" points="203,-0.5 203,-19.5 251,-19.5 251,-0.5 203,-0.5"/>
<text text-anchor="middle" x="227" y="-7.5" font-family="Helvetica,sans-Serif" font-size="10.00">stdlib.h</text>
</g>
<!-- Node7&#45;&gt;Node8 -->
<g id="edge9" class="edge"><title>Node7&#45;&gt;Node8</title>
<path fill="none" stroke="midnightblue" d="M255.386,-56.083C250.633,-48.5341 243.682,-37.4948 237.848,-28.2298"/>
<polygon fill="midnightblue" stroke="midnightblue" points="240.8,-26.3486 232.51,-19.7511 234.876,-30.0783 240.8,-26.3486"/>
</g>
<!-- Node9 -->
<g id="node10" class="node"><title>Node9</title>
<polygon fill="white" stroke="#bfbfbf" points="269.5,-0.5 269.5,-19.5 318.5,-19.5 318.5,-0.5 269.5,-0.5"/>
<text text-anchor="middle" x="294" y="-7.5" font-family="Helvetica,sans-Serif" font-size="10.00">string.h</text>
</g>
<!-- Node7&#45;&gt;Node9 -->
<g id="edge10" class="edge"><title>Node7&#45;&gt;Node9</title>
<path fill="none" stroke="midnightblue" d="M266.449,-56.083C271.014,-48.6127 277.668,-37.7244 283.293,-28.5199"/>
<polygon fill="midnightblue" stroke="midnightblue" points="286.424,-30.109 288.652,-19.7511 280.451,-26.4588 286.424,-30.109"/>
</g>
<!-- Node10&#45;&gt;Node2 -->
<g id="edge12" class="edge"><title>Node10&#45;&gt;Node2</title>
<path fill="none" stroke="midnightblue" d="M131.541,-168.083C127.846,-160.691 122.477,-149.953 117.906,-140.811"/>
<polygon fill="midnightblue" stroke="midnightblue" points="120.978,-139.13 113.376,-131.751 114.717,-142.261 120.978,-139.13"/>
</g>
</g>
</svg>
