<?xml version="1.0" encoding="UTF-8" standalone="no"?>
<!DOCTYPE svg PUBLIC "-//W3C//DTD SVG 1.1//EN"
 "http://www.w3.org/Graphics/SVG/1.1/DTD/svg11.dtd">
<!-- Generated by graphviz version 2.38.0 (20140413.2041)
 -->
<!-- Title: vhdl::parser::ParseException Pages: 1 -->
<svg width="206pt" height="97pt"
 viewBox="0.00 0.00 206.00 97.00" xmlns="http://www.w3.org/2000/svg" xmlns:xlink="http://www.w3.org/1999/xlink">
<g id="graph0" class="graph" transform="scale(1 1) rotate(0) translate(4 93)">
<title>vhdl::parser::ParseException</title>
<polygon fill="white" stroke="none" points="-4,4 -4,-93 202,-93 202,4 -4,4"/>
<!-- Node1 -->
<g id="node1" class="node"><title>Node1</title>
<polygon fill="#bfbfbf" stroke="black" points="0,-0.5 0,-19.5 143,-19.5 143,-0.5 0,-0.5"/>
<text text-anchor="middle" x="71.5" y="-7.5" font-family="Helvetica,sans-Serif" font-size="10.00">vhdl::parser::ParseException</text>
</g>
<!-- Node2 -->
<g id="node2" class="node"><title>Node2</title>
<g id="a_node2"><a xlink:href="../../dc/de7/classvhdl_1_1parser_1_1_token.html" target="_top" xlink:title="Describes the input token stream. ">
<polygon fill="white" stroke="black" points="21,-68.5 21,-87.5 122,-87.5 122,-68.5 21,-68.5"/>
<text text-anchor="middle" x="71.5" y="-75.5" font-family="Helvetica,sans-Serif" font-size="10.00">vhdl::parser::Token</text>
</a>
</g>
</g>
<!-- Node2&#45;&gt;Node1 -->
<g id="edge1" class="edge"><title>Node2&#45;&gt;Node1</title>
<path fill="none" stroke="#9a32cd" stroke-dasharray="5,2" d="M71.5,-58.0413C71.5,-45.4724 71.5,-29.5631 71.5,-19.8411"/>
<polygon fill="#9a32cd" stroke="#9a32cd" points="68.0001,-58.3716 71.5,-68.3717 75.0001,-58.3717 68.0001,-58.3716"/>
<text text-anchor="middle" x="102" y="-41" font-family="Helvetica,sans-Serif" font-size="10.00"> currentToken</text>
</g>
<!-- Node2&#45;&gt;Node2 -->
<g id="edge2" class="edge"><title>Node2&#45;&gt;Node2</title>
<path fill="none" stroke="#9a32cd" stroke-dasharray="5,2" d="M132.426,-82.7999C137.112,-81.7374 140,-80.1375 140,-78 140,-74.5801 132.607,-72.5361 122.284,-71.8682"/>
<polygon fill="#9a32cd" stroke="#9a32cd" points="131.743,-79.3594 122.284,-84.1318 132.655,-86.2998 131.743,-79.3594"/>
<text text-anchor="middle" x="169" y="-81" font-family="Helvetica,sans-Serif" font-size="10.00"> next</text>
<text text-anchor="middle" x="169" y="-70" font-family="Helvetica,sans-Serif" font-size="10.00">specialToken</text>
</g>
</g>
</svg>
