<?xml version="1.0" encoding="UTF-8" standalone="no"?>
<!DOCTYPE svg PUBLIC "-//W3C//DTD SVG 1.1//EN"
 "http://www.w3.org/Graphics/SVG/1.1/DTD/svg11.dtd">
<!-- Generated by graphviz version 2.38.0 (20140413.2041)
 -->
<!-- Title: DocHtmlCell Pages: 1 -->
<svg width="402pt" height="162pt"
 viewBox="0.00 0.00 402.00 162.00" xmlns="http://www.w3.org/2000/svg" xmlns:xlink="http://www.w3.org/1999/xlink">
<g id="graph0" class="graph" transform="scale(1 1) rotate(0) translate(4 158)">
<title>DocHtmlCell</title>
<polygon fill="white" stroke="none" points="-4,4 -4,-158 398,-158 398,4 -4,4"/>
<!-- Node4 -->
<g id="node1" class="node"><title>Node4</title>
<polygon fill="#bfbfbf" stroke="black" points="158.5,-0.5 158.5,-19.5 231.5,-19.5 231.5,-0.5 158.5,-0.5"/>
<text text-anchor="middle" x="195" y="-7.5" font-family="Helvetica,sans-Serif" font-size="10.00">DocHtmlCell</text>
</g>
<!-- Node5 -->
<g id="node2" class="node"><title>Node5</title>
<g id="a_node2"><a xlink:href="../../d7/da3/class_comp_accept.html" target="_top" xlink:title="CompAccept\&lt; DocHtmlCell \&gt;">
<polygon fill="white" stroke="black" points="0,-67.5 0,-86.5 148,-86.5 148,-67.5 0,-67.5"/>
<text text-anchor="middle" x="74" y="-74.5" font-family="Helvetica,sans-Serif" font-size="10.00">CompAccept&lt; DocHtmlCell &gt;</text>
</a>
</g>
</g>
<!-- Node5&#45;&gt;Node4 -->
<g id="edge1" class="edge"><title>Node5&#45;&gt;Node4</title>
<path fill="none" stroke="midnightblue" d="M99.2079,-62.4586C123.196,-49.5727 158.565,-30.5727 178.94,-19.6273"/>
<polygon fill="midnightblue" stroke="midnightblue" points="97.4717,-59.4182 90.3186,-67.2338 100.784,-65.5847 97.4717,-59.4182"/>
</g>
<!-- Node6 -->
<g id="node3" class="node"><title>Node6</title>
<g id="a_node3"><a xlink:href="../../d7/da3/class_comp_accept.html" target="_top" xlink:title="Default accept implementation for compound nodes in the abstract syntax tree. ">
<polygon fill="white" stroke="black" points="25,-134.5 25,-153.5 123,-153.5 123,-134.5 25,-134.5"/>
<text text-anchor="middle" x="74" y="-141.5" font-family="Helvetica,sans-Serif" font-size="10.00">CompAccept&lt; T &gt;</text>
</a>
</g>
</g>
<!-- Node6&#45;&gt;Node5 -->
<g id="edge2" class="edge"><title>Node6&#45;&gt;Node5</title>
<path fill="none" stroke="orange" stroke-dasharray="5,2" d="M74,-124.037C74,-111.67 74,-96.1198 74,-86.6273"/>
<polygon fill="orange" stroke="orange" points="70.5001,-124.234 74,-134.234 77.5001,-124.234 70.5001,-124.234"/>
<text text-anchor="middle" x="113" y="-108" font-family="Helvetica,sans-Serif" font-size="10.00"> &lt; DocHtmlCell &gt;</text>
</g>
<!-- Node7 -->
<g id="node4" class="node"><title>Node7</title>
<g id="a_node4"><a xlink:href="../../d9/d0e/class_doc_node.html" target="_top" xlink:title="Abstract node interface with type information. ">
<polygon fill="white" stroke="black" points="166,-67.5 166,-86.5 224,-86.5 224,-67.5 166,-67.5"/>
<text text-anchor="middle" x="195" y="-74.5" font-family="Helvetica,sans-Serif" font-size="10.00">DocNode</text>
</a>
</g>
</g>
<!-- Node7&#45;&gt;Node4 -->
<g id="edge3" class="edge"><title>Node7&#45;&gt;Node4</title>
<path fill="none" stroke="midnightblue" d="M195,-57.037C195,-44.6703 195,-29.1198 195,-19.6273"/>
<polygon fill="midnightblue" stroke="midnightblue" points="191.5,-57.2338 195,-67.2338 198.5,-57.2338 191.5,-57.2338"/>
</g>
<!-- Node7&#45;&gt;Node7 -->
<g id="edge4" class="edge"><title>Node7&#45;&gt;Node7</title>
<path fill="none" stroke="#9a32cd" stroke-dasharray="5,2" d="M234.603,-82.0845C239.091,-81.1323 242,-79.4375 242,-77 242,-73 234.167,-71 224.375,-71"/>
<polygon fill="#9a32cd" stroke="#9a32cd" points="234.023,-78.6223 224.375,-83 234.647,-85.5944 234.023,-78.6223"/>
<text text-anchor="middle" x="264" y="-74.5" font-family="Helvetica,sans-Serif" font-size="10.00"> m_parent</text>
</g>
<!-- Node8 -->
<g id="node5" class="node"><title>Node8</title>
<g id="a_node5"><a xlink:href="../../db/d4d/class_html_attrib_list.html" target="_top" xlink:title="A list of Html attributes. ">
<polygon fill="white" stroke="black" points="304.5,-67.5 304.5,-86.5 381.5,-86.5 381.5,-67.5 304.5,-67.5"/>
<text text-anchor="middle" x="343" y="-74.5" font-family="Helvetica,sans-Serif" font-size="10.00">HtmlAttribList</text>
</a>
</g>
</g>
<!-- Node8&#45;&gt;Node4 -->
<g id="edge5" class="edge"><title>Node8&#45;&gt;Node4</title>
<path fill="none" stroke="#9a32cd" stroke-dasharray="5,2" d="M314.04,-63.281C284.73,-50.4085 240.207,-30.8545 214.735,-19.6672"/>
<polygon fill="#9a32cd" stroke="#9a32cd" points="312.783,-66.5518 323.347,-67.3685 315.598,-60.1427 312.783,-66.5518"/>
<text text-anchor="middle" x="300" y="-41" font-family="Helvetica,sans-Serif" font-size="10.00"> m_attribs</text>
</g>
<!-- Node9 -->
<g id="node6" class="node"><title>Node9</title>
<polygon fill="white" stroke="#bfbfbf" points="292,-134.5 292,-153.5 394,-153.5 394,-134.5 292,-134.5"/>
<text text-anchor="middle" x="343" y="-141.5" font-family="Helvetica,sans-Serif" font-size="10.00">QList&lt; HtmlAttrib &gt;</text>
</g>
<!-- Node9&#45;&gt;Node8 -->
<g id="edge6" class="edge"><title>Node9&#45;&gt;Node8</title>
<path fill="none" stroke="midnightblue" d="M343,-124.037C343,-111.67 343,-96.1198 343,-86.6273"/>
<polygon fill="midnightblue" stroke="midnightblue" points="339.5,-124.234 343,-134.234 346.5,-124.234 339.5,-124.234"/>
</g>
</g>
</svg>
