<?xml version="1.0" encoding="UTF-8" standalone="no"?>
<!DOCTYPE svg PUBLIC "-//W3C//DTD SVG 1.1//EN"
 "http://www.w3.org/Graphics/SVG/1.1/DTD/svg11.dtd">
<!-- Generated by graphviz version 2.38.0 (20140413.2041)
 -->
<!-- Title: src/dot.h Pages: 1 -->
<svg width="2307pt" height="84pt"
 viewBox="0.00 0.00 2307.00 84.00" xmlns="http://www.w3.org/2000/svg" xmlns:xlink="http://www.w3.org/1999/xlink">
<g id="graph0" class="graph" transform="scale(1 1) rotate(0) translate(4 80)">
<title>src/dot.h</title>
<polygon fill="white" stroke="none" points="-4,4 -4,-80 2303,-80 2303,4 -4,4"/>
<!-- Node9 -->
<g id="node1" class="node"><title>Node9</title>
<polygon fill="#bfbfbf" stroke="black" points="1081,-56.5 1081,-75.5 1136,-75.5 1136,-56.5 1081,-56.5"/>
<text text-anchor="middle" x="1108.5" y="-63.5" font-family="Helvetica,sans-Serif" font-size="10.00">src/dot.h</text>
</g>
<!-- Node10 -->
<g id="node2" class="node"><title>Node10</title>
<g id="a_node2"><a xlink:href="../../de/d89/classdef_8cpp.html" target="_top" xlink:title="src/classdef.cpp">
<polygon fill="white" stroke="black" points="0,-0.5 0,-19.5 89,-19.5 89,-0.5 0,-0.5"/>
<text text-anchor="middle" x="44.5" y="-7.5" font-family="Helvetica,sans-Serif" font-size="10.00">src/classdef.cpp</text>
</a>
</g>
</g>
<!-- Node9&#45;&gt;Node10 -->
<g id="edge1" class="edge"><title>Node9&#45;&gt;Node10</title>
<path fill="none" stroke="midnightblue" d="M1070.53,-64.9997C936.831,-64.6397 475.538,-60.3542 97.5,-20 94.8087,-19.7127 92.047,-19.375 89.2654,-19.002"/>
<polygon fill="midnightblue" stroke="midnightblue" points="1070.66,-68.4999 1080.66,-65.021 1070.67,-61.4999 1070.66,-68.4999"/>
</g>
<!-- Node11 -->
<g id="node3" class="node"><title>Node11</title>
<g id="a_node3"><a xlink:href="../../db/d12/context_8cpp.html" target="_top" xlink:title="src/context.cpp">
<polygon fill="white" stroke="black" points="106.5,-0.5 106.5,-19.5 190.5,-19.5 190.5,-0.5 106.5,-0.5"/>
<text text-anchor="middle" x="148.5" y="-7.5" font-family="Helvetica,sans-Serif" font-size="10.00">src/context.cpp</text>
</a>
</g>
</g>
<!-- Node9&#45;&gt;Node11 -->
<g id="edge2" class="edge"><title>Node9&#45;&gt;Node11</title>
<path fill="none" stroke="midnightblue" d="M1070.71,-64.8207C945.932,-63.8679 535.912,-57.8598 199.5,-20 196.641,-19.6782 193.7,-19.2963 190.742,-18.8742"/>
<polygon fill="midnightblue" stroke="midnightblue" points="1070.86,-68.3217 1080.88,-64.8917 1070.91,-61.3219 1070.86,-68.3217"/>
</g>
<!-- Node12 -->
<g id="node4" class="node"><title>Node12</title>
<g id="a_node4"><a xlink:href="../../d3/d17/defgen_8cpp.html" target="_top" xlink:title="src/defgen.cpp">
<polygon fill="white" stroke="black" points="209,-0.5 209,-19.5 290,-19.5 290,-0.5 209,-0.5"/>
<text text-anchor="middle" x="249.5" y="-7.5" font-family="Helvetica,sans-Serif" font-size="10.00">src/defgen.cpp</text>
</a>
</g>
</g>
<!-- Node9&#45;&gt;Node12 -->
<g id="edge3" class="edge"><title>Node9&#45;&gt;Node12</title>
<path fill="none" stroke="midnightblue" d="M1070.68,-64.5407C954.904,-62.7827 595.185,-54.7029 299.5,-20 296.434,-19.6402 293.272,-19.2105 290.097,-18.7368"/>
<polygon fill="midnightblue" stroke="midnightblue" points="1070.75,-68.0421 1080.8,-64.6875 1070.86,-61.0428 1070.75,-68.0421"/>
</g>
<!-- Node13 -->
<g id="node5" class="node"><title>Node13</title>
<g id="a_node5"><a xlink:href="../../d8/d52/dirdef_8cpp.html" target="_top" xlink:title="src/dirdef.cpp">
<polygon fill="white" stroke="black" points="308.5,-0.5 308.5,-19.5 384.5,-19.5 384.5,-0.5 308.5,-0.5"/>
<text text-anchor="middle" x="346.5" y="-7.5" font-family="Helvetica,sans-Serif" font-size="10.00">src/dirdef.cpp</text>
</a>
</g>
</g>
<!-- Node9&#45;&gt;Node13 -->
<g id="edge4" class="edge"><title>Node9&#45;&gt;Node13</title>
<path fill="none" stroke="midnightblue" d="M1070.49,-64.2967C963.514,-61.9538 650.877,-52.6092 393.5,-20 390.615,-19.6345 387.641,-19.2007 384.655,-18.7242"/>
<polygon fill="midnightblue" stroke="midnightblue" points="1070.7,-67.8018 1080.78,-64.5139 1070.85,-60.8034 1070.7,-67.8018"/>
</g>
<!-- Node14 -->
<g id="node6" class="node"><title>Node14</title>
<g id="a_node6"><a xlink:href="../../d8/d29/docbookgen_8cpp.html" target="_top" xlink:title="src/docbookgen.cpp">
<polygon fill="white" stroke="black" points="402.5,-0.5 402.5,-19.5 506.5,-19.5 506.5,-0.5 402.5,-0.5"/>
<text text-anchor="middle" x="454.5" y="-7.5" font-family="Helvetica,sans-Serif" font-size="10.00">src/docbookgen.cpp</text>
</a>
</g>
</g>
<!-- Node9&#45;&gt;Node14 -->
<g id="edge5" class="edge"><title>Node9&#45;&gt;Node14</title>
<path fill="none" stroke="midnightblue" d="M1070.8,-63.0671C976.833,-58.0478 724.715,-43.3425 515.5,-20 512.627,-19.6795 509.682,-19.3265 506.712,-18.9514"/>
<polygon fill="midnightblue" stroke="midnightblue" points="1070.78,-66.5707 1080.95,-63.6042 1071.15,-59.5805 1070.78,-66.5707"/>
</g>
<!-- Node15 -->
<g id="node7" class="node"><title>Node15</title>
<g id="a_node7"><a xlink:href="../../dc/d05/docbookvisitor_8cpp.html" target="_top" xlink:title="src/docbookvisitor.cpp">
<polygon fill="white" stroke="black" points="525,-0.5 525,-19.5 640,-19.5 640,-0.5 525,-0.5"/>
<text text-anchor="middle" x="582.5" y="-7.5" font-family="Helvetica,sans-Serif" font-size="10.00">src/docbookvisitor.cpp</text>
</a>
</g>
</g>
<!-- Node9&#45;&gt;Node15 -->
<g id="edge6" class="edge"><title>Node9&#45;&gt;Node15</title>
<path fill="none" stroke="midnightblue" d="M1070.61,-61.7841C991.878,-54.9947 804.923,-38.3096 648.5,-20 645.743,-19.6773 642.924,-19.3361 640.077,-18.9825"/>
<polygon fill="midnightblue" stroke="midnightblue" points="1070.72,-65.3066 1080.98,-62.6755 1071.32,-58.3323 1070.72,-65.3066"/>
</g>
<!-- Node16 -->
<g id="node8" class="node"><title>Node16</title>
<g id="a_node8"><a xlink:href="../../de/daa/dot_8cpp.html" target="_top" xlink:title="src/dot.cpp">
<polygon fill="white" stroke="black" points="658,-0.5 658,-19.5 723,-19.5 723,-0.5 658,-0.5"/>
<text text-anchor="middle" x="690.5" y="-7.5" font-family="Helvetica,sans-Serif" font-size="10.00">src/dot.cpp</text>
</a>
</g>
</g>
<!-- Node9&#45;&gt;Node16 -->
<g id="edge7" class="edge"><title>Node9&#45;&gt;Node16</title>
<path fill="none" stroke="midnightblue" d="M1070.7,-61.716C1002.6,-55.5263 854.887,-40.8556 731.5,-20 728.769,-19.5385 725.946,-19.0157 723.118,-18.4599"/>
<polygon fill="midnightblue" stroke="midnightblue" points="1070.66,-65.2262 1080.93,-62.6362 1071.29,-58.2543 1070.66,-65.2262"/>
</g>
<!-- Node17 -->
<g id="node9" class="node"><title>Node17</title>
<g id="a_node9"><a xlink:href="../../dc/d98/doxygen_8cpp.html" target="_top" xlink:title="src/doxygen.cpp">
<polygon fill="white" stroke="black" points="741,-0.5 741,-19.5 830,-19.5 830,-0.5 741,-0.5"/>
<text text-anchor="middle" x="785.5" y="-7.5" font-family="Helvetica,sans-Serif" font-size="10.00">src/doxygen.cpp</text>
</a>
</g>
</g>
<!-- Node9&#45;&gt;Node17 -->
<g id="edge8" class="edge"><title>Node9&#45;&gt;Node17</title>
<path fill="none" stroke="midnightblue" d="M1070.81,-58.6993C1010.93,-48.6878 894.291,-29.1879 830.253,-18.4819"/>
<polygon fill="midnightblue" stroke="midnightblue" points="1070.52,-62.1991 1080.96,-60.396 1071.68,-55.2949 1070.52,-62.1991"/>
</g>
<!-- Node18 -->
<g id="node10" class="node"><title>Node18</title>
<g id="a_node10"><a xlink:href="../../d6/ddc/filedef_8cpp.html" target="_top" xlink:title="src/filedef.cpp">
<polygon fill="white" stroke="black" points="848.5,-0.5 848.5,-19.5 926.5,-19.5 926.5,-0.5 848.5,-0.5"/>
<text text-anchor="middle" x="887.5" y="-7.5" font-family="Helvetica,sans-Serif" font-size="10.00">src/filedef.cpp</text>
</a>
</g>
</g>
<!-- Node9&#45;&gt;Node18 -->
<g id="edge9" class="edge"><title>Node9&#45;&gt;Node18</title>
<path fill="none" stroke="midnightblue" d="M1071.21,-55.8887C1029.62,-45.7265 962.875,-29.4174 922.315,-19.5069"/>
<polygon fill="midnightblue" stroke="midnightblue" points="1070.41,-59.2963 1080.96,-58.27 1072.07,-52.4964 1070.41,-59.2963"/>
</g>
<!-- Node19 -->
<g id="node11" class="node"><title>Node19</title>
<g id="a_node11"><a xlink:href="../../d6/d42/groupdef_8cpp.html" target="_top" xlink:title="src/groupdef.cpp">
<polygon fill="white" stroke="black" points="945,-0.5 945,-19.5 1034,-19.5 1034,-0.5 945,-0.5"/>
<text text-anchor="middle" x="989.5" y="-7.5" font-family="Helvetica,sans-Serif" font-size="10.00">src/groupdef.cpp</text>
</a>
</g>
</g>
<!-- Node9&#45;&gt;Node19 -->
<g id="edge10" class="edge"><title>Node9&#45;&gt;Node19</title>
<path fill="none" stroke="midnightblue" d="M1080.36,-52.2321C1058.1,-42.1312 1027.64,-28.3091 1008.27,-19.5164"/>
<polygon fill="midnightblue" stroke="midnightblue" points="1079.09,-55.4984 1089.64,-56.4435 1081.98,-49.124 1079.09,-55.4984"/>
</g>
<!-- Node20 -->
<g id="node12" class="node"><title>Node20</title>
<g id="a_node12"><a xlink:href="../../da/db0/htmldocvisitor_8cpp.html" target="_top" xlink:title="src/htmldocvisitor.cpp">
<polygon fill="white" stroke="black" points="1052,-0.5 1052,-19.5 1165,-19.5 1165,-0.5 1052,-0.5"/>
<text text-anchor="middle" x="1108.5" y="-7.5" font-family="Helvetica,sans-Serif" font-size="10.00">src/htmldocvisitor.cpp</text>
</a>
</g>
</g>
<!-- Node9&#45;&gt;Node20 -->
<g id="edge11" class="edge"><title>Node9&#45;&gt;Node20</title>
<path fill="none" stroke="midnightblue" d="M1108.5,-45.8045C1108.5,-36.9102 1108.5,-26.7798 1108.5,-19.7511"/>
<polygon fill="midnightblue" stroke="midnightblue" points="1105,-46.083 1108.5,-56.083 1112,-46.083 1105,-46.083"/>
</g>
<!-- Node21 -->
<g id="node13" class="node"><title>Node21</title>
<g id="a_node13"><a xlink:href="../../d8/d6e/htmlgen_8cpp.html" target="_top" xlink:title="src/htmlgen.cpp">
<polygon fill="white" stroke="black" points="1183.5,-0.5 1183.5,-19.5 1269.5,-19.5 1269.5,-0.5 1183.5,-0.5"/>
<text text-anchor="middle" x="1226.5" y="-7.5" font-family="Helvetica,sans-Serif" font-size="10.00">src/htmlgen.cpp</text>
</a>
</g>
</g>
<!-- Node9&#45;&gt;Node21 -->
<g id="edge12" class="edge"><title>Node9&#45;&gt;Node21</title>
<path fill="none" stroke="midnightblue" d="M1136.4,-52.2321C1158.47,-42.1312 1188.68,-28.3091 1207.89,-19.5164"/>
<polygon fill="midnightblue" stroke="midnightblue" points="1134.83,-49.0997 1127.2,-56.4435 1137.75,-55.4648 1134.83,-49.0997"/>
</g>
<!-- Node22 -->
<g id="node14" class="node"><title>Node22</title>
<g id="a_node14"><a xlink:href="../../db/d14/index_8cpp.html" target="_top" xlink:title="This file contains functions for the various index pages. ">
<polygon fill="white" stroke="black" points="1288,-0.5 1288,-19.5 1363,-19.5 1363,-0.5 1288,-0.5"/>
<text text-anchor="middle" x="1325.5" y="-7.5" font-family="Helvetica,sans-Serif" font-size="10.00">src/index.cpp</text>
</a>
</g>
</g>
<!-- Node9&#45;&gt;Node22 -->
<g id="edge13" class="edge"><title>Node9&#45;&gt;Node22</title>
<path fill="none" stroke="midnightblue" d="M1146.28,-55.5989C1187.17,-45.424 1251.8,-29.3407 1291.25,-19.5225"/>
<polygon fill="midnightblue" stroke="midnightblue" points="1145.28,-52.2397 1136.42,-58.051 1146.97,-59.0325 1145.28,-52.2397"/>
</g>
<!-- Node23 -->
<g id="node15" class="node"><title>Node23</title>
<g id="a_node15"><a xlink:href="../../d1/d4e/latexdocvisitor_8cpp.html" target="_top" xlink:title="src/latexdocvisitor.cpp">
<polygon fill="white" stroke="black" points="1381,-0.5 1381,-19.5 1496,-19.5 1496,-0.5 1381,-0.5"/>
<text text-anchor="middle" x="1438.5" y="-7.5" font-family="Helvetica,sans-Serif" font-size="10.00">src/latexdocvisitor.cpp</text>
</a>
</g>
</g>
<!-- Node9&#45;&gt;Node23 -->
<g id="edge14" class="edge"><title>Node9&#45;&gt;Node23</title>
<path fill="none" stroke="midnightblue" d="M1146.07,-58.8521C1205.06,-49.1996 1319.55,-30.4641 1386.44,-19.5189"/>
<polygon fill="midnightblue" stroke="midnightblue" points="1145.37,-55.4198 1136.07,-60.4889 1146.5,-62.328 1145.37,-55.4198"/>
</g>
<!-- Node24 -->
<g id="node16" class="node"><title>Node24</title>
<g id="a_node16"><a xlink:href="../../d4/d42/latexgen_8cpp.html" target="_top" xlink:title="src/latexgen.cpp">
<polygon fill="white" stroke="black" points="1514,-0.5 1514,-19.5 1603,-19.5 1603,-0.5 1514,-0.5"/>
<text text-anchor="middle" x="1558.5" y="-7.5" font-family="Helvetica,sans-Serif" font-size="10.00">src/latexgen.cpp</text>
</a>
</g>
</g>
<!-- Node9&#45;&gt;Node24 -->
<g id="edge15" class="edge"><title>Node9&#45;&gt;Node24</title>
<path fill="none" stroke="midnightblue" d="M1146.18,-61.4304C1216.81,-54.5837 1373.87,-38.6224 1505.5,-20 1508.27,-19.6078 1511.12,-19.1839 1513.99,-18.7412"/>
<polygon fill="midnightblue" stroke="midnightblue" points="1145.62,-57.9682 1136,-62.4119 1146.29,-64.9358 1145.62,-57.9682"/>
</g>
<!-- Node25 -->
<g id="node17" class="node"><title>Node25</title>
<g id="a_node17"><a xlink:href="../../d8/dde/mandocvisitor_8cpp.html" target="_top" xlink:title="src/mandocvisitor.cpp">
<polygon fill="white" stroke="black" points="1621,-0.5 1621,-19.5 1734,-19.5 1734,-0.5 1621,-0.5"/>
<text text-anchor="middle" x="1677.5" y="-7.5" font-family="Helvetica,sans-Serif" font-size="10.00">src/mandocvisitor.cpp</text>
</a>
</g>
</g>
<!-- Node9&#45;&gt;Node25 -->
<g id="edge16" class="edge"><title>Node9&#45;&gt;Node25</title>
<path fill="none" stroke="midnightblue" d="M1146.21,-62.2622C1230.12,-56.032 1438.6,-39.7904 1612.5,-20 1615.22,-19.6908 1618,-19.3605 1620.8,-19.0158"/>
<polygon fill="midnightblue" stroke="midnightblue" points="1145.85,-58.7789 1136.14,-63.0062 1146.37,-65.7599 1145.85,-58.7789"/>
</g>
<!-- Node26 -->
<g id="node18" class="node"><title>Node26</title>
<g id="a_node18"><a xlink:href="../../d0/d72/memberdef_8cpp.html" target="_top" xlink:title="src/memberdef.cpp">
<polygon fill="white" stroke="black" points="1752,-0.5 1752,-19.5 1853,-19.5 1853,-0.5 1752,-0.5"/>
<text text-anchor="middle" x="1802.5" y="-7.5" font-family="Helvetica,sans-Serif" font-size="10.00">src/memberdef.cpp</text>
</a>
</g>
</g>
<!-- Node9&#45;&gt;Node26 -->
<g id="edge17" class="edge"><title>Node9&#45;&gt;Node26</title>
<path fill="none" stroke="midnightblue" d="M1146.17,-63.3925C1244.59,-58.9623 1517.5,-45.2032 1743.5,-20 1746.18,-19.7014 1748.92,-19.3706 1751.69,-19.0173"/>
<polygon fill="midnightblue" stroke="midnightblue" points="1145.95,-59.8987 1136.11,-63.8398 1146.26,-66.8918 1145.95,-59.8987"/>
</g>
<!-- Node27 -->
<g id="node19" class="node"><title>Node27</title>
<g id="a_node19"><a xlink:href="../../de/d9a/rtfdocvisitor_8cpp.html" target="_top" xlink:title="src/rtfdocvisitor.cpp">
<polygon fill="white" stroke="black" points="1871,-0.5 1871,-19.5 1974,-19.5 1974,-0.5 1871,-0.5"/>
<text text-anchor="middle" x="1922.5" y="-7.5" font-family="Helvetica,sans-Serif" font-size="10.00">src/rtfdocvisitor.cpp</text>
</a>
</g>
</g>
<!-- Node9&#45;&gt;Node27 -->
<g id="edge18" class="edge"><title>Node9&#45;&gt;Node27</title>
<path fill="none" stroke="midnightblue" d="M1146.63,-63.9278C1257.44,-60.553 1588.92,-48.625 1862.5,-20 1865.22,-19.715 1868.01,-19.3951 1870.83,-19.0502"/>
<polygon fill="midnightblue" stroke="midnightblue" points="1146.19,-60.4392 1136.3,-64.2368 1146.4,-67.436 1146.19,-60.4392"/>
</g>
<!-- Node28 -->
<g id="node20" class="node"><title>Node28</title>
<g id="a_node20"><a xlink:href="../../d0/d9c/rtfgen_8cpp.html" target="_top" xlink:title="src/rtfgen.cpp">
<polygon fill="white" stroke="black" points="1992,-0.5 1992,-19.5 2069,-19.5 2069,-0.5 1992,-0.5"/>
<text text-anchor="middle" x="2030.5" y="-7.5" font-family="Helvetica,sans-Serif" font-size="10.00">src/rtfgen.cpp</text>
</a>
</g>
</g>
<!-- Node9&#45;&gt;Node28 -->
<g id="edge19" class="edge"><title>Node9&#45;&gt;Node28</title>
<path fill="none" stroke="midnightblue" d="M1146.5,-64.9115C1268.55,-64.2292 1661.37,-58.9368 1983.5,-20 1986.22,-19.671 1989.02,-19.2773 1991.84,-18.841"/>
<polygon fill="midnightblue" stroke="midnightblue" points="1146.19,-61.4129 1136.2,-64.9615 1146.22,-68.4128 1146.19,-61.4129"/>
</g>
<!-- Node29 -->
<g id="node21" class="node"><title>Node29</title>
<g id="a_node21"><a xlink:href="../../dd/db6/xmldocvisitor_8cpp.html" target="_top" xlink:title="src/xmldocvisitor.cpp">
<polygon fill="white" stroke="black" points="2087.5,-0.5 2087.5,-19.5 2197.5,-19.5 2197.5,-0.5 2087.5,-0.5"/>
<text text-anchor="middle" x="2142.5" y="-7.5" font-family="Helvetica,sans-Serif" font-size="10.00">src/xmldocvisitor.cpp</text>
</a>
</g>
</g>
<!-- Node9&#45;&gt;Node29 -->
<g id="edge20" class="edge"><title>Node9&#45;&gt;Node29</title>
<path fill="none" stroke="midnightblue" d="M1146.59,-64.5101C1276.92,-62.5621 1716.87,-53.7414 2078.5,-20 2081.4,-19.729 2084.38,-19.4202 2087.38,-19.0841"/>
<polygon fill="midnightblue" stroke="midnightblue" points="1146.29,-61.014 1136.34,-64.6585 1146.39,-68.0133 1146.29,-61.014"/>
</g>
<!-- Node30 -->
<g id="node22" class="node"><title>Node30</title>
<g id="a_node22"><a xlink:href="../../d0/dc3/xmlgen_8cpp.html" target="_top" xlink:title="src/xmlgen.cpp">
<polygon fill="white" stroke="black" points="2216,-0.5 2216,-19.5 2299,-19.5 2299,-0.5 2216,-0.5"/>
<text text-anchor="middle" x="2257.5" y="-7.5" font-family="Helvetica,sans-Serif" font-size="10.00">src/xmlgen.cpp</text>
</a>
</g>
</g>
<!-- Node9&#45;&gt;Node30 -->
<g id="edge21" class="edge"><title>Node9&#45;&gt;Node30</title>
<path fill="none" stroke="midnightblue" d="M1146.43,-65.2776C1287.2,-65.9196 1792.87,-64.7694 2206.5,-20 2209.54,-19.6711 2212.67,-19.2707 2215.82,-18.8238"/>
<polygon fill="midnightblue" stroke="midnightblue" points="1146.2,-61.7764 1136.18,-65.2245 1146.16,-68.7763 1146.2,-61.7764"/>
</g>
</g>
</svg>
