<?xml version="1.0" encoding="UTF-8" standalone="no"?>
<!DOCTYPE svg PUBLIC "-//W3C//DTD SVG 1.1//EN"
 "http://www.w3.org/Graphics/SVG/1.1/DTD/svg11.dtd">
<!-- Generated by graphviz version 2.38.0 (20140413.2041)
 -->
<!-- Title: TranslatorPolish Pages: 1 -->
<svg width="175pt" height="323pt"
 viewBox="0.00 0.00 174.50 323.00" xmlns="http://www.w3.org/2000/svg" xmlns:xlink="http://www.w3.org/1999/xlink">
<g id="graph0" class="graph" transform="scale(1 1) rotate(0) translate(4 319)">
<title>TranslatorPolish</title>
<polygon fill="white" stroke="none" points="-4,4 -4,-319 170.5,-319 170.5,4 -4,4"/>
<!-- Node5 -->
<g id="node1" class="node"><title>Node5</title>
<polygon fill="#bfbfbf" stroke="black" points="19,-0.5 19,-19.5 106,-19.5 106,-0.5 19,-0.5"/>
<text text-anchor="middle" x="62.5" y="-7.5" font-family="Helvetica,sans-Serif" font-size="10.00">TranslatorPolish</text>
</g>
<!-- Node6 -->
<g id="node2" class="node"><title>Node6</title>
<g id="a_node2"><a xlink:href="../../d2/d75/class_translator_adapter__1__8__2.html" target="_top" xlink:title="TranslatorAdapter_1_8_2">
<polygon fill="white" stroke="black" points="-7.10543e-15,-57.5 -7.10543e-15,-76.5 125,-76.5 125,-57.5 -7.10543e-15,-57.5"/>
<text text-anchor="middle" x="62.5" y="-64.5" font-family="Helvetica,sans-Serif" font-size="10.00">TranslatorAdapter_1_8_2</text>
</a>
</g>
</g>
<!-- Node6&#45;&gt;Node5 -->
<g id="edge1" class="edge"><title>Node6&#45;&gt;Node5</title>
<path fill="none" stroke="midnightblue" d="M62.5,-47.1166C62.5,-37.8173 62.5,-27.0557 62.5,-19.7149"/>
<polygon fill="midnightblue" stroke="midnightblue" points="59.0001,-47.4062 62.5,-57.4062 66.0001,-47.4063 59.0001,-47.4062"/>
</g>
<!-- Node7 -->
<g id="node3" class="node"><title>Node7</title>
<g id="a_node3"><a xlink:href="../../de/d2f/class_translator_adapter__1__8__4.html" target="_top" xlink:title="TranslatorAdapter_1_8_4">
<polygon fill="white" stroke="black" points="-7.10543e-15,-114.5 -7.10543e-15,-133.5 125,-133.5 125,-114.5 -7.10543e-15,-114.5"/>
<text text-anchor="middle" x="62.5" y="-121.5" font-family="Helvetica,sans-Serif" font-size="10.00">TranslatorAdapter_1_8_4</text>
</a>
</g>
</g>
<!-- Node7&#45;&gt;Node6 -->
<g id="edge2" class="edge"><title>Node7&#45;&gt;Node6</title>
<path fill="none" stroke="midnightblue" d="M62.5,-104.117C62.5,-94.8173 62.5,-84.0557 62.5,-76.7149"/>
<polygon fill="midnightblue" stroke="midnightblue" points="59.0001,-104.406 62.5,-114.406 66.0001,-104.406 59.0001,-104.406"/>
</g>
<!-- Node8 -->
<g id="node4" class="node"><title>Node8</title>
<g id="a_node4"><a xlink:href="../../db/d6c/class_translator_adapter_base.html" target="_top" xlink:title="Base of the translator adapter tree. ">
<polygon fill="white" stroke="black" points="4.5,-171.5 4.5,-190.5 120.5,-190.5 120.5,-171.5 4.5,-171.5"/>
<text text-anchor="middle" x="62.5" y="-178.5" font-family="Helvetica,sans-Serif" font-size="10.00">TranslatorAdapterBase</text>
</a>
</g>
</g>
<!-- Node8&#45;&gt;Node7 -->
<g id="edge3" class="edge"><title>Node8&#45;&gt;Node7</title>
<path fill="none" stroke="midnightblue" d="M62.5,-161.117C62.5,-151.817 62.5,-141.056 62.5,-133.715"/>
<polygon fill="midnightblue" stroke="midnightblue" points="59.0001,-161.406 62.5,-171.406 66.0001,-161.406 59.0001,-161.406"/>
</g>
<!-- Node9 -->
<g id="node5" class="node"><title>Node9</title>
<g id="a_node5"><a xlink:href="../../d8/dfb/class_translator.html" target="_top" xlink:title="Abstract base class for all translatable text fragments. ">
<polygon fill="white" stroke="black" points="40.5,-295.5 40.5,-314.5 100.5,-314.5 100.5,-295.5 40.5,-295.5"/>
<text text-anchor="middle" x="70.5" y="-302.5" font-family="Helvetica,sans-Serif" font-size="10.00">Translator</text>
</a>
</g>
</g>
<!-- Node9&#45;&gt;Node8 -->
<g id="edge4" class="edge"><title>Node9&#45;&gt;Node8</title>
<path fill="none" stroke="midnightblue" d="M68.1478,-285.087C67.1924,-276.788 66.1602,-266.923 65.5,-258 63.707,-233.77 62.9417,-205.109 62.653,-190.904"/>
<polygon fill="midnightblue" stroke="midnightblue" points="64.6945,-285.686 69.3611,-295.198 71.6446,-284.852 64.6945,-285.686"/>
</g>
<!-- Node10 -->
<g id="node6" class="node"><title>Node10</title>
<g id="a_node6"><a xlink:href="../../d6/d78/class_translator_english.html" target="_top" xlink:title="TranslatorEnglish">
<polygon fill="white" stroke="black" points="74.5,-238.5 74.5,-257.5 166.5,-257.5 166.5,-238.5 74.5,-238.5"/>
<text text-anchor="middle" x="120.5" y="-245.5" font-family="Helvetica,sans-Serif" font-size="10.00">TranslatorEnglish</text>
</a>
</g>
</g>
<!-- Node9&#45;&gt;Node10 -->
<g id="edge6" class="edge"><title>Node9&#45;&gt;Node10</title>
<path fill="none" stroke="midnightblue" d="M85.2017,-287.828C94.1551,-277.979 105.244,-265.782 112.577,-257.715"/>
<polygon fill="midnightblue" stroke="midnightblue" points="82.4495,-285.652 78.3125,-295.406 87.6291,-290.361 82.4495,-285.652"/>
</g>
<!-- Node10&#45;&gt;Node8 -->
<g id="edge5" class="edge"><title>Node10&#45;&gt;Node8</title>
<path fill="none" stroke="#9a32cd" stroke-dasharray="5,2" d="M105.897,-230.635C94.5542,-217.923 79.2734,-200.798 70.1982,-190.627"/>
<polygon fill="#9a32cd" stroke="#9a32cd" points="103.408,-233.103 112.678,-238.234 108.631,-228.442 103.408,-233.103"/>
<text text-anchor="middle" x="111.5" y="-212" font-family="Helvetica,sans-Serif" font-size="10.00"> english</text>
</g>
</g>
</svg>
