<?xml version="1.0" encoding="UTF-8" standalone="no"?>
<!DOCTYPE svg PUBLIC "-//W3C//DTD SVG 1.1//EN"
 "http://www.w3.org/Graphics/SVG/1.1/DTD/svg11.dtd">
<!-- Generated by graphviz version 2.38.0 (20140413.2041)
 -->
<!-- Title: TemplateNodeTree::TreeContext Pages: 1 -->
<svg width="403pt" height="297pt"
 viewBox="0.00 0.00 403.00 297.00" xmlns="http://www.w3.org/2000/svg" xmlns:xlink="http://www.w3.org/1999/xlink">
<g id="graph0" class="graph" transform="scale(1 1) rotate(0) translate(4 293)">
<title>TemplateNodeTree::TreeContext</title>
<polygon fill="white" stroke="none" points="-4,4 -4,-293 399,-293 399,4 -4,4"/>
<!-- Node1 -->
<g id="node1" class="node"><title>Node1</title>
<polygon fill="#bfbfbf" stroke="black" points="74,-0.5 74,-19.5 234,-19.5 234,-0.5 74,-0.5"/>
<text text-anchor="middle" x="154" y="-7.5" font-family="Helvetica,sans-Serif" font-size="10.00">TemplateNodeTree::TreeContext</text>
</g>
<!-- Node2 -->
<g id="node2" class="node"><title>Node2</title>
<g id="a_node2"><a xlink:href="../../da/d1b/class_template_context.html" target="_top" xlink:title="Abstract interface for a template context. ">
<polygon fill="white" stroke="black" points="0,-67.5 0,-86.5 92,-86.5 92,-67.5 0,-67.5"/>
<text text-anchor="middle" x="46" y="-74.5" font-family="Helvetica,sans-Serif" font-size="10.00">TemplateContext</text>
</a>
</g>
</g>
<!-- Node2&#45;&gt;Node1 -->
<g id="edge1" class="edge"><title>Node2&#45;&gt;Node1</title>
<path fill="none" stroke="#9a32cd" stroke-dasharray="5,2" d="M62.6595,-60.7286C71.3041,-53.2844 82.2779,-44.5488 93,-38 104.959,-30.6956 119.241,-24.2643 130.978,-19.5125"/>
<polygon fill="#9a32cd" stroke="#9a32cd" points="60.3388,-58.1085 55.1693,-67.3566 64.9777,-63.3508 60.3388,-58.1085"/>
<text text-anchor="middle" x="121.5" y="-41" font-family="Helvetica,sans-Serif" font-size="10.00"> templateCtx</text>
</g>
<!-- Node3 -->
<g id="node3" class="node"><title>Node3</title>
<g id="a_node3"><a xlink:href="../../d6/d88/class_template_list_intf.html" target="_top" xlink:title="Abstract read&#45;only interface for a context value of type list. ">
<polygon fill="white" stroke="black" points="110.5,-67.5 110.5,-86.5 197.5,-86.5 197.5,-67.5 110.5,-67.5"/>
<text text-anchor="middle" x="154" y="-74.5" font-family="Helvetica,sans-Serif" font-size="10.00">TemplateListIntf</text>
</a>
</g>
</g>
<!-- Node3&#45;&gt;Node1 -->
<g id="edge2" class="edge"><title>Node3&#45;&gt;Node1</title>
<path fill="none" stroke="#9a32cd" stroke-dasharray="5,2" d="M154,-57.037C154,-44.6703 154,-29.1198 154,-19.6273"/>
<polygon fill="#9a32cd" stroke="#9a32cd" points="150.5,-57.2338 154,-67.2338 157.5,-57.2338 150.5,-57.2338"/>
<text text-anchor="middle" x="162" y="-41" font-family="Helvetica,sans-Serif" font-size="10.00"> list</text>
</g>
<!-- Node4 -->
<g id="node4" class="node"><title>Node4</title>
<g id="a_node4"><a xlink:href="../../d8/d31/class_template_node_tree.html" target="_top" xlink:title="Class representing an &#39;tree&#39; tag in a template. ">
<polygon fill="white" stroke="black" points="216,-67.5 216,-86.5 316,-86.5 316,-67.5 216,-67.5"/>
<text text-anchor="middle" x="266" y="-74.5" font-family="Helvetica,sans-Serif" font-size="10.00">TemplateNodeTree</text>
</a>
</g>
</g>
<!-- Node4&#45;&gt;Node1 -->
<g id="edge3" class="edge"><title>Node4&#45;&gt;Node1</title>
<path fill="none" stroke="#9a32cd" stroke-dasharray="5,2" d="M242.075,-62.1151C219.885,-49.237 187.558,-30.4758 168.866,-19.6273"/>
<polygon fill="#9a32cd" stroke="#9a32cd" points="240.489,-65.2414 250.895,-67.2338 244.003,-59.1871 240.489,-65.2414"/>
<text text-anchor="middle" x="232" y="-41" font-family="Helvetica,sans-Serif" font-size="10.00"> object</text>
</g>
<!-- Node5 -->
<g id="node5" class="node"><title>Node5</title>
<g id="a_node5"><a xlink:href="../../d8/d78/class_template_node_creator.html" target="_top" xlink:title="TemplateNodeCreator\l\&lt; TemplateNodeTree \&gt;">
<polygon fill="white" stroke="black" points="70,-134.5 70,-164.5 188,-164.5 188,-134.5 70,-134.5"/>
<text text-anchor="start" x="78" y="-152.5" font-family="Helvetica,sans-Serif" font-size="10.00">TemplateNodeCreator</text>
<text text-anchor="middle" x="129" y="-141.5" font-family="Helvetica,sans-Serif" font-size="10.00">&lt; TemplateNodeTree &gt;</text>
</a>
</g>
</g>
<!-- Node5&#45;&gt;Node4 -->
<g id="edge4" class="edge"><title>Node5&#45;&gt;Node4</title>
<path fill="none" stroke="midnightblue" d="M165.63,-129.651C192.869,-115.633 228.76,-97.1637 249.417,-86.5336"/>
<polygon fill="midnightblue" stroke="midnightblue" points="163.685,-126.715 156.395,-134.403 166.888,-132.939 163.685,-126.715"/>
</g>
<!-- Node6 -->
<g id="node6" class="node"><title>Node6</title>
<g id="a_node6"><a xlink:href="../../d6/d53/class_template_node.html" target="_top" xlink:title="Base class of all nodes in a template&#39;s AST. ">
<polygon fill="white" stroke="black" points="22,-269.5 22,-288.5 102,-288.5 102,-269.5 22,-269.5"/>
<text text-anchor="middle" x="62" y="-276.5" font-family="Helvetica,sans-Serif" font-size="10.00">TemplateNode</text>
</a>
</g>
</g>
<!-- Node6&#45;&gt;Node5 -->
<g id="edge5" class="edge"><title>Node6&#45;&gt;Node5</title>
<path fill="none" stroke="midnightblue" d="M53.4471,-260.092C48.1569,-246.325 43.6482,-227.159 51,-212 61.1589,-191.053 82.2945,-175.096 100.005,-164.691"/>
<polygon fill="midnightblue" stroke="midnightblue" points="50.291,-261.613 57.4614,-269.412 56.72,-258.843 50.291,-261.613"/>
</g>
<!-- Node6&#45;&gt;Node6 -->
<g id="edge6" class="edge"><title>Node6&#45;&gt;Node6</title>
<path fill="none" stroke="#9a32cd" stroke-dasharray="5,2" d="M112.265,-283.218C117.005,-282.354 120,-280.948 120,-279 120,-275.883 112.332,-274.154 102.119,-273.813"/>
<polygon fill="#9a32cd" stroke="#9a32cd" points="111.74,-279.752 102.119,-284.187 112.406,-286.72 111.74,-279.752"/>
<text text-anchor="middle" x="142" y="-276.5" font-family="Helvetica,sans-Serif" font-size="10.00"> m_parent</text>
</g>
<!-- Node7 -->
<g id="node7" class="node"><title>Node7</title>
<g id="a_node7"><a xlink:href="../../d8/d78/class_template_node_creator.html" target="_top" xlink:title="Helper class for creating template AST tag nodes and returning the template for a given node...">
<polygon fill="white" stroke="black" points="60.5,-212.5 60.5,-231.5 197.5,-231.5 197.5,-212.5 60.5,-212.5"/>
<text text-anchor="middle" x="129" y="-219.5" font-family="Helvetica,sans-Serif" font-size="10.00">TemplateNodeCreator&lt; T &gt;</text>
</a>
</g>
</g>
<!-- Node6&#45;&gt;Node7 -->
<g id="edge8" class="edge"><title>Node6&#45;&gt;Node7</title>
<path fill="none" stroke="midnightblue" d="M80.2748,-262.998C92.501,-252.962 108.164,-240.104 118.384,-231.715"/>
<polygon fill="midnightblue" stroke="midnightblue" points="77.9773,-260.356 72.4688,-269.406 82.4188,-265.767 77.9773,-260.356"/>
</g>
<!-- Node7&#45;&gt;Node5 -->
<g id="edge7" class="edge"><title>Node7&#45;&gt;Node5</title>
<path fill="none" stroke="orange" stroke-dasharray="5,2" d="M129,-202.236C129,-190.408 129,-175.383 129,-164.576"/>
<polygon fill="orange" stroke="orange" points="125.5,-202.355 129,-212.355 132.5,-202.355 125.5,-202.355"/>
<text text-anchor="middle" x="181.5" y="-186" font-family="Helvetica,sans-Serif" font-size="10.00"> &lt; TemplateNodeTree &gt;</text>
</g>
<!-- Node8 -->
<g id="node8" class="node"><title>Node8</title>
<g id="a_node8"><a xlink:href="../../df/daf/class_template_node_list.html" target="_top" xlink:title="Class representing a list of AST nodes in a template. ">
<polygon fill="white" stroke="black" points="218,-140 218,-159 314,-159 314,-140 218,-140"/>
<text text-anchor="middle" x="266" y="-147" font-family="Helvetica,sans-Serif" font-size="10.00">TemplateNodeList</text>
</a>
</g>
</g>
<!-- Node8&#45;&gt;Node4 -->
<g id="edge9" class="edge"><title>Node8&#45;&gt;Node4</title>
<path fill="none" stroke="#9a32cd" stroke-dasharray="5,2" d="M266,-129.442C266,-115.53 266,-97.3203 266,-86.7154"/>
<polygon fill="#9a32cd" stroke="#9a32cd" points="262.5,-129.855 266,-139.855 269.5,-129.855 262.5,-129.855"/>
<text text-anchor="middle" x="297" y="-108" font-family="Helvetica,sans-Serif" font-size="10.00"> m_treeNodes</text>
</g>
<!-- Node9 -->
<g id="node9" class="node"><title>Node9</title>
<polygon fill="white" stroke="#bfbfbf" points="216,-212.5 216,-231.5 338,-231.5 338,-212.5 216,-212.5"/>
<text text-anchor="middle" x="277" y="-219.5" font-family="Helvetica,sans-Serif" font-size="10.00">QList&lt; TemplateNode &gt;</text>
</g>
<!-- Node9&#45;&gt;Node8 -->
<g id="edge10" class="edge"><title>Node9&#45;&gt;Node8</title>
<path fill="none" stroke="midnightblue" d="M274.091,-202.358C271.913,-188.395 269.031,-169.926 267.36,-159.215"/>
<polygon fill="midnightblue" stroke="midnightblue" points="270.651,-203.014 275.651,-212.355 277.568,-201.935 270.651,-203.014"/>
</g>
<!-- Node10 -->
<g id="node10" class="node"><title>Node10</title>
<g id="a_node10"><a xlink:href="../../dc/dfa/class_expr_ast.html" target="_top" xlink:title="Base class for all nodes in the abstract syntax tree of an expression. ">
<polygon fill="white" stroke="black" points="332,-140 332,-159 384,-159 384,-140 332,-140"/>
<text text-anchor="middle" x="358" y="-147" font-family="Helvetica,sans-Serif" font-size="10.00">ExprAst</text>
</a>
</g>
</g>
<!-- Node10&#45;&gt;Node4 -->
<g id="edge11" class="edge"><title>Node10&#45;&gt;Node4</title>
<path fill="none" stroke="#9a32cd" stroke-dasharray="5,2" d="M350.486,-130.393C346.147,-121.758 339.96,-111.844 332,-105 322.425,-96.767 310.003,-90.8084 298.522,-86.6187"/>
<polygon fill="#9a32cd" stroke="#9a32cd" points="347.389,-132.037 354.725,-139.682 353.758,-129.131 347.389,-132.037"/>
<text text-anchor="middle" x="368" y="-108" font-family="Helvetica,sans-Serif" font-size="10.00"> m_treeExpr</text>
</g>
</g>
</svg>
