<?xml version="1.0" encoding="UTF-8" standalone="no"?>
<!DOCTYPE svg PUBLIC "-//W3C//DTD SVG 1.1//EN"
 "http://www.w3.org/Graphics/SVG/1.1/DTD/svg11.dtd">
<!-- Generated by graphviz version 2.38.0 (20140413.2041)
 -->
<!-- Title: DocHRef Pages: 1 -->
<svg width="388pt" height="162pt"
 viewBox="0.00 0.00 387.50 162.00" xmlns="http://www.w3.org/2000/svg" xmlns:xlink="http://www.w3.org/1999/xlink">
<g id="graph0" class="graph" transform="scale(1 1) rotate(0) translate(4 158)">
<title>DocHRef</title>
<polygon fill="white" stroke="none" points="-4,4 -4,-158 383.5,-158 383.5,4 -4,4"/>
<!-- Node4 -->
<g id="node1" class="node"><title>Node4</title>
<polygon fill="#bfbfbf" stroke="black" points="151.5,-0.5 151.5,-19.5 209.5,-19.5 209.5,-0.5 151.5,-0.5"/>
<text text-anchor="middle" x="180.5" y="-7.5" font-family="Helvetica,sans-Serif" font-size="10.00">DocHRef</text>
</g>
<!-- Node5 -->
<g id="node2" class="node"><title>Node5</title>
<g id="a_node2"><a xlink:href="../../d7/da3/class_comp_accept.html" target="_top" xlink:title="CompAccept\&lt; DocHRef \&gt;">
<polygon fill="white" stroke="black" points="0,-67.5 0,-86.5 133,-86.5 133,-67.5 0,-67.5"/>
<text text-anchor="middle" x="66.5" y="-74.5" font-family="Helvetica,sans-Serif" font-size="10.00">CompAccept&lt; DocHRef &gt;</text>
</a>
</g>
</g>
<!-- Node5&#45;&gt;Node4 -->
<g id="edge1" class="edge"><title>Node5&#45;&gt;Node4</title>
<path fill="none" stroke="midnightblue" d="M90.8521,-62.1151C113.438,-49.237 146.342,-30.4758 165.369,-19.6273"/>
<polygon fill="midnightblue" stroke="midnightblue" points="88.828,-59.2401 81.8745,-67.2338 92.2953,-65.3211 88.828,-59.2401"/>
</g>
<!-- Node6 -->
<g id="node3" class="node"><title>Node6</title>
<g id="a_node3"><a xlink:href="../../d7/da3/class_comp_accept.html" target="_top" xlink:title="Default accept implementation for compound nodes in the abstract syntax tree. ">
<polygon fill="white" stroke="black" points="17.5,-134.5 17.5,-153.5 115.5,-153.5 115.5,-134.5 17.5,-134.5"/>
<text text-anchor="middle" x="66.5" y="-141.5" font-family="Helvetica,sans-Serif" font-size="10.00">CompAccept&lt; T &gt;</text>
</a>
</g>
</g>
<!-- Node6&#45;&gt;Node5 -->
<g id="edge2" class="edge"><title>Node6&#45;&gt;Node5</title>
<path fill="none" stroke="orange" stroke-dasharray="5,2" d="M66.5,-124.037C66.5,-111.67 66.5,-96.1198 66.5,-86.6273"/>
<polygon fill="orange" stroke="orange" points="63.0001,-124.234 66.5,-134.234 70.0001,-124.234 63.0001,-124.234"/>
<text text-anchor="middle" x="98" y="-108" font-family="Helvetica,sans-Serif" font-size="10.00"> &lt; DocHRef &gt;</text>
</g>
<!-- Node7 -->
<g id="node4" class="node"><title>Node7</title>
<g id="a_node4"><a xlink:href="../../d9/d0e/class_doc_node.html" target="_top" xlink:title="Abstract node interface with type information. ">
<polygon fill="white" stroke="black" points="151.5,-67.5 151.5,-86.5 209.5,-86.5 209.5,-67.5 151.5,-67.5"/>
<text text-anchor="middle" x="180.5" y="-74.5" font-family="Helvetica,sans-Serif" font-size="10.00">DocNode</text>
</a>
</g>
</g>
<!-- Node7&#45;&gt;Node4 -->
<g id="edge3" class="edge"><title>Node7&#45;&gt;Node4</title>
<path fill="none" stroke="midnightblue" d="M180.5,-57.037C180.5,-44.6703 180.5,-29.1198 180.5,-19.6273"/>
<polygon fill="midnightblue" stroke="midnightblue" points="177,-57.2338 180.5,-67.2338 184,-57.2338 177,-57.2338"/>
</g>
<!-- Node7&#45;&gt;Node7 -->
<g id="edge4" class="edge"><title>Node7&#45;&gt;Node7</title>
<path fill="none" stroke="#9a32cd" stroke-dasharray="5,2" d="M220.103,-82.0845C224.591,-81.1323 227.5,-79.4375 227.5,-77 227.5,-73 219.667,-71 209.875,-71"/>
<polygon fill="#9a32cd" stroke="#9a32cd" points="219.523,-78.6223 209.875,-83 220.147,-85.5944 219.523,-78.6223"/>
<text text-anchor="middle" x="249.5" y="-74.5" font-family="Helvetica,sans-Serif" font-size="10.00"> m_parent</text>
</g>
<!-- Node8 -->
<g id="node5" class="node"><title>Node8</title>
<g id="a_node5"><a xlink:href="../../db/d4d/class_html_attrib_list.html" target="_top" xlink:title="A list of Html attributes. ">
<polygon fill="white" stroke="black" points="290,-67.5 290,-86.5 367,-86.5 367,-67.5 290,-67.5"/>
<text text-anchor="middle" x="328.5" y="-74.5" font-family="Helvetica,sans-Serif" font-size="10.00">HtmlAttribList</text>
</a>
</g>
</g>
<!-- Node8&#45;&gt;Node4 -->
<g id="edge5" class="edge"><title>Node8&#45;&gt;Node4</title>
<path fill="none" stroke="#9a32cd" stroke-dasharray="5,2" d="M299.54,-63.281C270.23,-50.4085 225.707,-30.8545 200.235,-19.6672"/>
<polygon fill="#9a32cd" stroke="#9a32cd" points="298.283,-66.5518 308.847,-67.3685 301.098,-60.1427 298.283,-66.5518"/>
<text text-anchor="middle" x="285.5" y="-41" font-family="Helvetica,sans-Serif" font-size="10.00"> m_attribs</text>
</g>
<!-- Node9 -->
<g id="node6" class="node"><title>Node9</title>
<polygon fill="white" stroke="#bfbfbf" points="277.5,-134.5 277.5,-153.5 379.5,-153.5 379.5,-134.5 277.5,-134.5"/>
<text text-anchor="middle" x="328.5" y="-141.5" font-family="Helvetica,sans-Serif" font-size="10.00">QList&lt; HtmlAttrib &gt;</text>
</g>
<!-- Node9&#45;&gt;Node8 -->
<g id="edge6" class="edge"><title>Node9&#45;&gt;Node8</title>
<path fill="none" stroke="midnightblue" d="M328.5,-124.037C328.5,-111.67 328.5,-96.1198 328.5,-86.6273"/>
<polygon fill="midnightblue" stroke="midnightblue" points="325,-124.234 328.5,-134.234 332,-124.234 325,-124.234"/>
</g>
</g>
</svg>
