<?xml version="1.0" encoding="UTF-8" standalone="no"?>
<!DOCTYPE svg PUBLIC "-//W3C//DTD SVG 1.1//EN"
 "http://www.w3.org/Graphics/SVG/1.1/DTD/svg11.dtd">
<!-- Generated by graphviz version 2.38.0 (20140413.2041)
 -->
<!-- Title: ExprAstFilterAppl Pages: 1 -->
<svg width="183pt" height="162pt"
 viewBox="0.00 0.00 182.50 162.00" xmlns="http://www.w3.org/2000/svg" xmlns:xlink="http://www.w3.org/1999/xlink">
<g id="graph0" class="graph" transform="scale(1 1) rotate(0) translate(4 158)">
<title>ExprAstFilterAppl</title>
<polygon fill="white" stroke="none" points="-4,4 -4,-158 178.5,-158 178.5,4 -4,4"/>
<!-- Node2 -->
<g id="node1" class="node"><title>Node2</title>
<polygon fill="#bfbfbf" stroke="black" points="-7.10543e-15,-0.5 -7.10543e-15,-19.5 93,-19.5 93,-0.5 -7.10543e-15,-0.5"/>
<text text-anchor="middle" x="46.5" y="-7.5" font-family="Helvetica,sans-Serif" font-size="10.00">ExprAstFilterAppl</text>
</g>
<!-- Node3 -->
<g id="node2" class="node"><title>Node3</title>
<g id="a_node2"><a xlink:href="../../dc/dfa/class_expr_ast.html" target="_top" xlink:title="Base class for all nodes in the abstract syntax tree of an expression. ">
<polygon fill="white" stroke="black" points="36.5,-134.5 36.5,-153.5 88.5,-153.5 88.5,-134.5 36.5,-134.5"/>
<text text-anchor="middle" x="62.5" y="-141.5" font-family="Helvetica,sans-Serif" font-size="10.00">ExprAst</text>
</a>
</g>
</g>
<!-- Node3&#45;&gt;Node2 -->
<g id="edge1" class="edge"><title>Node3&#45;&gt;Node2</title>
<path fill="none" stroke="midnightblue" d="M41.99,-127.467C38.4294,-124.012 35.0557,-120.135 32.5,-116 25.4708,-104.627 26.294,-100.249 24.5,-87 21.5392,-65.1334 24.4433,-58.5427 32.5,-38 34.9677,-31.708 38.4677,-24.958 41.3508,-19.781"/>
<polygon fill="midnightblue" stroke="midnightblue" points="39.9959,-130.371 49.8384,-134.292 44.5894,-125.089 39.9959,-130.371"/>
</g>
<!-- Node3&#45;&gt;Node2 -->
<g id="edge5" class="edge"><title>Node3&#45;&gt;Node2</title>
<path fill="none" stroke="#9a32cd" stroke-dasharray="5,2" d="M60.1254,-124.249C58.7558,-113.374 57.0111,-99.416 55.5,-87 52.5463,-62.7317 49.1891,-34.0873 47.5344,-19.8946"/>
<polygon fill="#9a32cd" stroke="#9a32cd" points="56.6657,-124.79 61.3912,-134.272 63.6105,-123.912 56.6657,-124.79"/>
<text text-anchor="middle" x="73.5" y="-74.5" font-family="Helvetica,sans-Serif" font-size="10.00"> m_expr</text>
</g>
<!-- Node4 -->
<g id="node3" class="node"><title>Node4</title>
<g id="a_node3"><a xlink:href="../../d4/d32/class_expr_ast_filter.html" target="_top" xlink:title="Class representing a filter in the AST. ">
<polygon fill="white" stroke="black" points="100.5,-67.5 100.5,-86.5 174.5,-86.5 174.5,-67.5 100.5,-67.5"/>
<text text-anchor="middle" x="137.5" y="-74.5" font-family="Helvetica,sans-Serif" font-size="10.00">ExprAstFilter</text>
</a>
</g>
</g>
<!-- Node3&#45;&gt;Node4 -->
<g id="edge3" class="edge"><title>Node3&#45;&gt;Node4</title>
<path fill="none" stroke="midnightblue" d="M80.5503,-127.356C95.295,-114.578 115.587,-96.9915 127.545,-86.6273"/>
<polygon fill="midnightblue" stroke="midnightblue" points="77.8795,-125.04 72.6148,-134.234 82.464,-130.329 77.8795,-125.04"/>
</g>
<!-- Node3&#45;&gt;Node4 -->
<g id="edge4" class="edge"><title>Node3&#45;&gt;Node4</title>
<path fill="none" stroke="#9a32cd" stroke-dasharray="5,2" d="M88.1881,-129.236C94.4695,-125.343 100.969,-120.836 106.5,-116 116.627,-107.146 126.062,-94.7459 131.802,-86.5499"/>
<polygon fill="#9a32cd" stroke="#9a32cd" points="86.1304,-126.385 79.2797,-134.467 89.6751,-132.421 86.1304,-126.385"/>
<text text-anchor="middle" x="132" y="-108" font-family="Helvetica,sans-Serif" font-size="10.00"> m_arg</text>
</g>
<!-- Node4&#45;&gt;Node2 -->
<g id="edge2" class="edge"><title>Node4&#45;&gt;Node2</title>
<path fill="none" stroke="#9a32cd" stroke-dasharray="5,2" d="M117.087,-61.4196C99.0973,-48.5695 73.495,-30.2821 58.5782,-19.6273"/>
<polygon fill="#9a32cd" stroke="#9a32cd" points="115.056,-64.2695 125.227,-67.2338 119.124,-58.5733 115.056,-64.2695"/>
<text text-anchor="middle" x="114.5" y="-41" font-family="Helvetica,sans-Serif" font-size="10.00"> m_filter</text>
</g>
</g>
</svg>
