<?xml version="1.0" encoding="UTF-8" standalone="no"?>
<!DOCTYPE svg PUBLIC "-//W3C//DTD SVG 1.1//EN"
 "http://www.w3.org/Graphics/SVG/1.1/DTD/svg11.dtd">
<!-- Generated by graphviz version 2.38.0 (20140413.2041)
 -->
<!-- Title: DocHtmlDescList Pages: 1 -->
<svg width="424pt" height="162pt"
 viewBox="0.00 0.00 424.00 162.00" xmlns="http://www.w3.org/2000/svg" xmlns:xlink="http://www.w3.org/1999/xlink">
<g id="graph0" class="graph" transform="scale(1 1) rotate(0) translate(4 158)">
<title>DocHtmlDescList</title>
<polygon fill="white" stroke="none" points="-4,4 -4,-158 420,-158 420,4 -4,4"/>
<!-- Node4 -->
<g id="node1" class="node"><title>Node4</title>
<polygon fill="#bfbfbf" stroke="black" points="169.5,-0.5 169.5,-19.5 264.5,-19.5 264.5,-0.5 169.5,-0.5"/>
<text text-anchor="middle" x="217" y="-7.5" font-family="Helvetica,sans-Serif" font-size="10.00">DocHtmlDescList</text>
</g>
<!-- Node5 -->
<g id="node2" class="node"><title>Node5</title>
<g id="a_node2"><a xlink:href="../../d7/da3/class_comp_accept.html" target="_top" xlink:title="CompAccept\&lt; DocHtmlDescList \&gt;">
<polygon fill="white" stroke="black" points="0,-67.5 0,-86.5 170,-86.5 170,-67.5 0,-67.5"/>
<text text-anchor="middle" x="85" y="-74.5" font-family="Helvetica,sans-Serif" font-size="10.00">CompAccept&lt; DocHtmlDescList &gt;</text>
</a>
</g>
</g>
<!-- Node5&#45;&gt;Node4 -->
<g id="edge1" class="edge"><title>Node5&#45;&gt;Node4</title>
<path fill="none" stroke="midnightblue" d="M111.514,-62.9436C137.66,-50.0691 176.878,-30.7573 199.399,-19.6672"/>
<polygon fill="midnightblue" stroke="midnightblue" points="109.954,-59.8108 102.529,-67.3685 113.046,-66.0907 109.954,-59.8108"/>
</g>
<!-- Node6 -->
<g id="node3" class="node"><title>Node6</title>
<g id="a_node3"><a xlink:href="../../d7/da3/class_comp_accept.html" target="_top" xlink:title="Default accept implementation for compound nodes in the abstract syntax tree. ">
<polygon fill="white" stroke="black" points="36,-134.5 36,-153.5 134,-153.5 134,-134.5 36,-134.5"/>
<text text-anchor="middle" x="85" y="-141.5" font-family="Helvetica,sans-Serif" font-size="10.00">CompAccept&lt; T &gt;</text>
</a>
</g>
</g>
<!-- Node6&#45;&gt;Node5 -->
<g id="edge2" class="edge"><title>Node6&#45;&gt;Node5</title>
<path fill="none" stroke="orange" stroke-dasharray="5,2" d="M85,-124.037C85,-111.67 85,-96.1198 85,-86.6273"/>
<polygon fill="orange" stroke="orange" points="81.5001,-124.234 85,-134.234 88.5001,-124.234 81.5001,-124.234"/>
<text text-anchor="middle" x="135" y="-108" font-family="Helvetica,sans-Serif" font-size="10.00"> &lt; DocHtmlDescList &gt;</text>
</g>
<!-- Node7 -->
<g id="node4" class="node"><title>Node7</title>
<g id="a_node4"><a xlink:href="../../d9/d0e/class_doc_node.html" target="_top" xlink:title="Abstract node interface with type information. ">
<polygon fill="white" stroke="black" points="188,-67.5 188,-86.5 246,-86.5 246,-67.5 188,-67.5"/>
<text text-anchor="middle" x="217" y="-74.5" font-family="Helvetica,sans-Serif" font-size="10.00">DocNode</text>
</a>
</g>
</g>
<!-- Node7&#45;&gt;Node4 -->
<g id="edge3" class="edge"><title>Node7&#45;&gt;Node4</title>
<path fill="none" stroke="midnightblue" d="M217,-57.037C217,-44.6703 217,-29.1198 217,-19.6273"/>
<polygon fill="midnightblue" stroke="midnightblue" points="213.5,-57.2338 217,-67.2338 220.5,-57.2338 213.5,-57.2338"/>
</g>
<!-- Node7&#45;&gt;Node7 -->
<g id="edge4" class="edge"><title>Node7&#45;&gt;Node7</title>
<path fill="none" stroke="#9a32cd" stroke-dasharray="5,2" d="M256.603,-82.0845C261.091,-81.1323 264,-79.4375 264,-77 264,-73 256.167,-71 246.375,-71"/>
<polygon fill="#9a32cd" stroke="#9a32cd" points="256.023,-78.6223 246.375,-83 256.647,-85.5944 256.023,-78.6223"/>
<text text-anchor="middle" x="286" y="-74.5" font-family="Helvetica,sans-Serif" font-size="10.00"> m_parent</text>
</g>
<!-- Node8 -->
<g id="node5" class="node"><title>Node8</title>
<g id="a_node5"><a xlink:href="../../db/d4d/class_html_attrib_list.html" target="_top" xlink:title="A list of Html attributes. ">
<polygon fill="white" stroke="black" points="326.5,-67.5 326.5,-86.5 403.5,-86.5 403.5,-67.5 326.5,-67.5"/>
<text text-anchor="middle" x="365" y="-74.5" font-family="Helvetica,sans-Serif" font-size="10.00">HtmlAttribList</text>
</a>
</g>
</g>
<!-- Node8&#45;&gt;Node4 -->
<g id="edge5" class="edge"><title>Node8&#45;&gt;Node4</title>
<path fill="none" stroke="#9a32cd" stroke-dasharray="5,2" d="M336.04,-63.281C306.73,-50.4085 262.207,-30.8545 236.735,-19.6672"/>
<polygon fill="#9a32cd" stroke="#9a32cd" points="334.783,-66.5518 345.347,-67.3685 337.598,-60.1427 334.783,-66.5518"/>
<text text-anchor="middle" x="322" y="-41" font-family="Helvetica,sans-Serif" font-size="10.00"> m_attribs</text>
</g>
<!-- Node9 -->
<g id="node6" class="node"><title>Node9</title>
<polygon fill="white" stroke="#bfbfbf" points="314,-134.5 314,-153.5 416,-153.5 416,-134.5 314,-134.5"/>
<text text-anchor="middle" x="365" y="-141.5" font-family="Helvetica,sans-Serif" font-size="10.00">QList&lt; HtmlAttrib &gt;</text>
</g>
<!-- Node9&#45;&gt;Node8 -->
<g id="edge6" class="edge"><title>Node9&#45;&gt;Node8</title>
<path fill="none" stroke="midnightblue" d="M365,-124.037C365,-111.67 365,-96.1198 365,-86.6273"/>
<polygon fill="midnightblue" stroke="midnightblue" points="361.5,-124.234 365,-134.234 368.5,-124.234 361.5,-124.234"/>
</g>
</g>
</svg>
