<?xml version="1.0" encoding="UTF-8" standalone="no"?>
<!DOCTYPE svg PUBLIC "-//W3C//DTD SVG 1.1//EN"
 "http://www.w3.org/Graphics/SVG/1.1/DTD/svg11.dtd">
<!-- Generated by graphviz version 2.38.0 (20140413.2041)
 -->
<!-- Title: vhdl::parser::VhdlParser Pages: 1 -->
<svg width="715pt" height="359pt"
 viewBox="0.00 0.00 715.00 359.00" xmlns="http://www.w3.org/2000/svg" xmlns:xlink="http://www.w3.org/1999/xlink">
<g id="graph0" class="graph" transform="scale(1 1) rotate(0) translate(4 355)">
<title>vhdl::parser::VhdlParser</title>
<polygon fill="white" stroke="none" points="-4,4 -4,-355 711,-355 711,4 -4,4"/>
<!-- Node1 -->
<g id="node1" class="node"><title>Node1</title>
<polygon fill="#bfbfbf" stroke="black" points="585,-195.5 585,-214.5 707,-214.5 707,-195.5 585,-195.5"/>
<text text-anchor="middle" x="646" y="-202.5" font-family="Helvetica,sans-Serif" font-size="10.00">vhdl::parser::VhdlParser</text>
</g>
<!-- Node2 -->
<g id="node2" class="node"><title>Node2</title>
<g id="a_node2"><a xlink:href="../../df/d0f/classvhdl_1_1parser_1_1_error_handler.html" target="_top" xlink:title="vhdl::parser::ErrorHandler">
<polygon fill="white" stroke="black" points="335,-331.5 335,-350.5 463,-350.5 463,-331.5 335,-331.5"/>
<text text-anchor="middle" x="399" y="-338.5" font-family="Helvetica,sans-Serif" font-size="10.00">vhdl::parser::ErrorHandler</text>
</a>
</g>
</g>
<!-- Node2&#45;&gt;Node1 -->
<g id="edge1" class="edge"><title>Node2&#45;&gt;Node1</title>
<path fill="none" stroke="#9a32cd" stroke-dasharray="5,2" d="M460.896,-328.977C494.111,-320.512 534.879,-306.885 567,-286 597.934,-265.887 625.706,-231.322 638.125,-214.607"/>
<polygon fill="#9a32cd" stroke="#9a32cd" points="459.727,-325.66 450.848,-331.441 461.394,-332.459 459.727,-325.66"/>
<text text-anchor="middle" x="526.5" y="-324" font-family="Helvetica,sans-Serif" font-size="10.00"> errorHandler</text>
</g>
<!-- Node3 -->
<g id="node3" class="node"><title>Node3</title>
<g id="a_node3"><a xlink:href="../../d3/d2c/classvhdl_1_1parser_1_1_token_manager.html" target="_top" xlink:title="An implementation for this interface is generated by JavaCCParser. ">
<polygon fill="white" stroke="black" points="330,-293.5 330,-312.5 468,-312.5 468,-293.5 330,-293.5"/>
<text text-anchor="middle" x="399" y="-300.5" font-family="Helvetica,sans-Serif" font-size="10.00">vhdl::parser::TokenManager</text>
</a>
</g>
</g>
<!-- Node3&#45;&gt;Node1 -->
<g id="edge2" class="edge"><title>Node3&#45;&gt;Node1</title>
<path fill="none" stroke="#9a32cd" stroke-dasharray="5,2" d="M437.817,-290.081C447.683,-286.594 458.274,-282.746 468,-279 524.567,-257.213 590.165,-229.002 623.361,-214.514"/>
<polygon fill="#9a32cd" stroke="#9a32cd" points="436.534,-286.822 428.253,-293.43 438.848,-293.428 436.534,-286.822"/>
<text text-anchor="middle" x="526.5" y="-274" font-family="Helvetica,sans-Serif" font-size="10.00"> token_source</text>
</g>
<!-- Node4 -->
<g id="node4" class="node"><title>Node4</title>
<g id="a_node4"><a xlink:href="../../d8/da3/structvhdl_1_1parser_1_1_j_j_calls.html" target="_top" xlink:title="vhdl::parser::JJCalls">
<polygon fill="white" stroke="black" points="345.5,-135.5 345.5,-154.5 452.5,-154.5 452.5,-135.5 345.5,-135.5"/>
<text text-anchor="middle" x="399" y="-142.5" font-family="Helvetica,sans-Serif" font-size="10.00">vhdl::parser::JJCalls</text>
</a>
</g>
</g>
<!-- Node4&#45;&gt;Node1 -->
<g id="edge3" class="edge"><title>Node4&#45;&gt;Node1</title>
<path fill="none" stroke="#9a32cd" stroke-dasharray="5,2" d="M448.6,-156.902C494.753,-168.205 563.252,-184.98 605.956,-195.438"/>
<polygon fill="#9a32cd" stroke="#9a32cd" points="449.367,-153.486 438.821,-154.507 447.701,-160.285 449.367,-153.486"/>
<text text-anchor="middle" x="526.5" y="-188" font-family="Helvetica,sans-Serif" font-size="10.00"> jj_2_rtns</text>
</g>
<!-- Node4&#45;&gt;Node4 -->
<g id="edge4" class="edge"><title>Node4&#45;&gt;Node4</title>
<path fill="none" stroke="#9a32cd" stroke-dasharray="5,2" d="M377.89,-164.4C379.3,-169.315 386.336,-173 399,-173 419.262,-173 425.119,-163.565 416.571,-154.757"/>
<polygon fill="#9a32cd" stroke="#9a32cd" points="381.269,-165.351 381.429,-154.757 374.698,-162.939 381.269,-165.351"/>
<text text-anchor="middle" x="399" y="-176" font-family="Helvetica,sans-Serif" font-size="10.00"> next</text>
</g>
<!-- Node5 -->
<g id="node5" class="node"><title>Node5</title>
<g id="a_node5"><a xlink:href="../../dc/de7/classvhdl_1_1parser_1_1_token.html" target="_top" xlink:title="Describes the input token stream. ">
<polygon fill="white" stroke="black" points="137,-173.5 137,-192.5 238,-192.5 238,-173.5 137,-173.5"/>
<text text-anchor="middle" x="187.5" y="-180.5" font-family="Helvetica,sans-Serif" font-size="10.00">vhdl::parser::Token</text>
</a>
</g>
</g>
<!-- Node5&#45;&gt;Node1 -->
<g id="edge9" class="edge"><title>Node5&#45;&gt;Node1</title>
<path fill="none" stroke="#9a32cd" stroke-dasharray="5,2" d="M248.389,-187.575C273.579,-189.41 303.205,-191.452 330,-193 418.647,-198.12 521.459,-201.571 584.872,-203.411"/>
<polygon fill="#9a32cd" stroke="#9a32cd" points="248.478,-184.072 238.249,-186.83 247.965,-191.053 248.478,-184.072"/>
<text text-anchor="middle" x="399" y="-246" font-family="Helvetica,sans-Serif" font-size="10.00"> head</text>
<text text-anchor="middle" x="399" y="-235" font-family="Helvetica,sans-Serif" font-size="10.00">token</text>
<text text-anchor="middle" x="399" y="-224" font-family="Helvetica,sans-Serif" font-size="10.00">jj_lastpos</text>
<text text-anchor="middle" x="399" y="-213" font-family="Helvetica,sans-Serif" font-size="10.00">jj_scanpos</text>
<text text-anchor="middle" x="399" y="-202" font-family="Helvetica,sans-Serif" font-size="10.00">jj_nt</text>
</g>
<!-- Node5&#45;&gt;Node4 -->
<g id="edge5" class="edge"><title>Node5&#45;&gt;Node4</title>
<path fill="none" stroke="#9a32cd" stroke-dasharray="5,2" d="M248.275,-172.158C278.909,-166.601 315.877,-159.896 345.415,-154.538"/>
<polygon fill="#9a32cd" stroke="#9a32cd" points="247.363,-168.766 238.149,-173.995 248.613,-175.654 247.363,-168.766"/>
<text text-anchor="middle" x="284" y="-173" font-family="Helvetica,sans-Serif" font-size="10.00"> first</text>
</g>
<!-- Node5&#45;&gt;Node5 -->
<g id="edge6" class="edge"><title>Node5&#45;&gt;Node5</title>
<path fill="none" stroke="#9a32cd" stroke-dasharray="5,2" d="M174.977,-202.766C175.961,-207.497 180.135,-211 187.5,-211 199.586,-211 203.08,-201.565 197.981,-192.757"/>
<polygon fill="#9a32cd" stroke="#9a32cd" points="178.45,-203.255 177.019,-192.757 171.591,-201.856 178.45,-203.255"/>
<text text-anchor="middle" x="187.5" y="-225" font-family="Helvetica,sans-Serif" font-size="10.00"> next</text>
<text text-anchor="middle" x="187.5" y="-214" font-family="Helvetica,sans-Serif" font-size="10.00">specialToken</text>
</g>
<!-- Node6 -->
<g id="node6" class="node"><title>Node6</title>
<g id="a_node6"><a xlink:href="../../d2/d98/classvhdl_1_1parser_1_1_char_stream.html" target="_top" xlink:title="This class describes a character stream that maintains line and column number positions of the charac...">
<polygon fill="white" stroke="black" points="336,-97.5 336,-116.5 462,-116.5 462,-97.5 336,-97.5"/>
<text text-anchor="middle" x="399" y="-104.5" font-family="Helvetica,sans-Serif" font-size="10.00">vhdl::parser::CharStream</text>
</a>
</g>
</g>
<!-- Node6&#45;&gt;Node1 -->
<g id="edge7" class="edge"><title>Node6&#45;&gt;Node1</title>
<path fill="none" stroke="#9a32cd" stroke-dasharray="5,2" d="M465.447,-118.715C497.03,-125.739 534.931,-136.231 567,-151 592.881,-162.919 619.403,-183.389 633.881,-195.41"/>
<polygon fill="#9a32cd" stroke="#9a32cd" points="465.944,-115.242 455.43,-116.555 464.468,-122.084 465.944,-115.242"/>
<text text-anchor="middle" x="526.5" y="-154" font-family="Helvetica,sans-Serif" font-size="10.00"> jj_input_stream</text>
</g>
<!-- Node7 -->
<g id="node7" class="node"><title>Node7</title>
<g id="a_node7"><a xlink:href="../../d4/d89/class_reader_stream.html" target="_top" xlink:title="ReaderStream">
<polygon fill="white" stroke="black" points="147.5,-97.5 147.5,-116.5 227.5,-116.5 227.5,-97.5 147.5,-97.5"/>
<text text-anchor="middle" x="187.5" y="-104.5" font-family="Helvetica,sans-Serif" font-size="10.00">ReaderStream</text>
</a>
</g>
</g>
<!-- Node7&#45;&gt;Node6 -->
<g id="edge8" class="edge"><title>Node7&#45;&gt;Node6</title>
<path fill="none" stroke="#9a32cd" stroke-dasharray="5,2" d="M238.273,-107C267.46,-107 304.594,-107 335.71,-107"/>
<polygon fill="#9a32cd" stroke="#9a32cd" points="237.905,-103.5 227.905,-107 237.905,-110.5 237.905,-103.5"/>
<text text-anchor="middle" x="284" y="-110" font-family="Helvetica,sans-Serif" font-size="10.00"> inputStream</text>
</g>
<!-- Node8 -->
<g id="node8" class="node"><title>Node8</title>
<g id="a_node8"><a xlink:href="../../d4/dd7/class_entry.html" target="_top" xlink:title="Represents an unstructured piece of information, about an entity found in the sources. ">
<polygon fill="white" stroke="black" points="379,-30.5 379,-49.5 419,-49.5 419,-30.5 379,-30.5"/>
<text text-anchor="middle" x="399" y="-37.5" font-family="Helvetica,sans-Serif" font-size="10.00">Entry</text>
</a>
</g>
</g>
<!-- Node8&#45;&gt;Node1 -->
<g id="edge10" class="edge"><title>Node8&#45;&gt;Node1</title>
<path fill="none" stroke="#9a32cd" stroke-dasharray="5,2" d="M429.422,-34.2199C465.118,-28.8976 525.643,-25.4774 567,-53 618.854,-87.5082 638.122,-167.684 643.373,-195.383"/>
<polygon fill="#9a32cd" stroke="#9a32cd" points="428.491,-30.826 419.19,-35.9006 429.625,-37.7334 428.491,-30.826"/>
<text text-anchor="middle" x="526.5" y="-111" font-family="Helvetica,sans-Serif" font-size="10.00"> currentCompound</text>
<text text-anchor="middle" x="526.5" y="-100" font-family="Helvetica,sans-Serif" font-size="10.00">lastEntity</text>
<text text-anchor="middle" x="526.5" y="-89" font-family="Helvetica,sans-Serif" font-size="10.00">lastCompound</text>
<text text-anchor="middle" x="526.5" y="-78" font-family="Helvetica,sans-Serif" font-size="10.00">current</text>
<text text-anchor="middle" x="526.5" y="-67" font-family="Helvetica,sans-Serif" font-size="10.00">tempEntry</text>
<text text-anchor="middle" x="526.5" y="-56" font-family="Helvetica,sans-Serif" font-size="10.00">current_root</text>
</g>
<!-- Node8&#45;&gt;Node8 -->
<g id="edge14" class="edge"><title>Node8&#45;&gt;Node8</title>
<path fill="none" stroke="#9a32cd" stroke-dasharray="5,2" d="M377.89,-59.4C379.3,-64.3146 386.336,-68 399,-68 419.262,-68 425.119,-58.5653 416.571,-49.7571"/>
<polygon fill="#9a32cd" stroke="#9a32cd" points="381.269,-60.3507 381.429,-49.7571 374.698,-57.9387 381.269,-60.3507"/>
<text text-anchor="middle" x="399" y="-71" font-family="Helvetica,sans-Serif" font-size="10.00"> m_parent</text>
</g>
<!-- Node9 -->
<g id="node9" class="node"><title>Node9</title>
<g id="a_node9"><a xlink:href="../../d3/dc3/struct_tag_info.html" target="_top" xlink:title="This struct is used to capture the tag file information for an Entry. ">
<polygon fill="white" stroke="black" points="162.5,-45.5 162.5,-64.5 212.5,-64.5 212.5,-45.5 162.5,-45.5"/>
<text text-anchor="middle" x="187.5" y="-52.5" font-family="Helvetica,sans-Serif" font-size="10.00">TagInfo</text>
</a>
</g>
</g>
<!-- Node9&#45;&gt;Node8 -->
<g id="edge11" class="edge"><title>Node9&#45;&gt;Node8</title>
<path fill="none" stroke="#9a32cd" stroke-dasharray="5,2" d="M222.578,-52.56C267.06,-49.3752 343.402,-43.9092 378.862,-41.3703"/>
<polygon fill="#9a32cd" stroke="#9a32cd" points="222.257,-49.074 212.532,-53.2793 222.757,-56.0561 222.257,-49.074"/>
<text text-anchor="middle" x="284" y="-53" font-family="Helvetica,sans-Serif" font-size="10.00"> tagInfo</text>
</g>
<!-- Node10 -->
<g id="node10" class="node"><title>Node10</title>
<g id="a_node10"><a xlink:href="../../d7/df8/class_argument_list.html" target="_top" xlink:title="This class represents an function or template argument list. ">
<polygon fill="white" stroke="black" points="150.5,-0.5 150.5,-19.5 224.5,-19.5 224.5,-0.5 150.5,-0.5"/>
<text text-anchor="middle" x="187.5" y="-7.5" font-family="Helvetica,sans-Serif" font-size="10.00">ArgumentList</text>
</a>
</g>
</g>
<!-- Node10&#45;&gt;Node8 -->
<g id="edge12" class="edge"><title>Node10&#45;&gt;Node8</title>
<path fill="none" stroke="#9a32cd" stroke-dasharray="5,2" d="M234.882,-12.1299C258.129,-13.6093 286.657,-16.0492 312,-20 335.173,-23.6125 361.366,-30.0508 378.691,-34.6468"/>
<polygon fill="#9a32cd" stroke="#9a32cd" points="234.793,-8.61851 224.602,-11.5158 234.376,-15.6061 234.793,-8.61851"/>
<text text-anchor="middle" x="284" y="-34" font-family="Helvetica,sans-Serif" font-size="10.00"> argList</text>
<text text-anchor="middle" x="284" y="-23" font-family="Helvetica,sans-Serif" font-size="10.00">typeConstr</text>
</g>
<!-- Node11 -->
<g id="node11" class="node"><title>Node11</title>
<polygon fill="white" stroke="#bfbfbf" points="0,-0.5 0,-19.5 100,-19.5 100,-0.5 0,-0.5"/>
<text text-anchor="middle" x="50" y="-7.5" font-family="Helvetica,sans-Serif" font-size="10.00">QList&lt; Argument &gt;</text>
</g>
<!-- Node11&#45;&gt;Node10 -->
<g id="edge13" class="edge"><title>Node11&#45;&gt;Node10</title>
<path fill="none" stroke="midnightblue" d="M110.513,-10C124.027,-10 137.985,-10 150.193,-10"/>
<polygon fill="midnightblue" stroke="midnightblue" points="110.302,-6.5001 100.302,-10 110.302,-13.5001 110.302,-6.5001"/>
</g>
</g>
</svg>
