<?xml version="1.0" encoding="UTF-8" standalone="no"?>
<!DOCTYPE svg PUBLIC "-//W3C//DTD SVG 1.1//EN"
 "http://www.w3.org/Graphics/SVG/1.1/DTD/svg11.dtd">
<!-- Generated by graphviz version 2.38.0 (20140413.2041)
 -->
<!-- Title: SearchIndexExternal Pages: 1 -->
<svg width="526pt" height="251pt"
 viewBox="0.00 0.00 526.00 251.00" xmlns="http://www.w3.org/2000/svg" xmlns:xlink="http://www.w3.org/1999/xlink">
<g id="graph0" class="graph" transform="scale(1 1) rotate(0) translate(4 247)">
<title>SearchIndexExternal</title>
<polygon fill="white" stroke="none" points="-4,4 -4,-247 522,-247 522,4 -4,4"/>
<!-- Node2 -->
<g id="node1" class="node"><title>Node2</title>
<polygon fill="#bfbfbf" stroke="black" points="148.5,-0.5 148.5,-19.5 255.5,-19.5 255.5,-0.5 148.5,-0.5"/>
<text text-anchor="middle" x="202" y="-7.5" font-family="Helvetica,sans-Serif" font-size="10.00">SearchIndexExternal</text>
</g>
<!-- Node3 -->
<g id="node2" class="node"><title>Node3</title>
<g id="a_node2"><a xlink:href="../../d8/d4d/class_search_index_intf.html" target="_top" xlink:title="SearchIndexIntf">
<polygon fill="white" stroke="black" points="86,-73 86,-92 172,-92 172,-73 86,-73"/>
<text text-anchor="middle" x="129" y="-80" font-family="Helvetica,sans-Serif" font-size="10.00">SearchIndexIntf</text>
</a>
</g>
</g>
<!-- Node3&#45;&gt;Node2 -->
<g id="edge1" class="edge"><title>Node3&#45;&gt;Node2</title>
<path fill="none" stroke="midnightblue" d="M145.368,-65.6921C160.071,-51.4928 181.116,-31.1687 192.976,-19.7154"/>
<polygon fill="midnightblue" stroke="midnightblue" points="142.713,-63.3908 137.951,-72.8553 147.576,-68.4261 142.713,-63.3908"/>
</g>
<!-- Node4 -->
<g id="node3" class="node"><title>Node4</title>
<g id="a_node3"><a xlink:href="../../d1/db6/struct_search_index_external_1_1_private.html" target="_top" xlink:title="SearchIndexExternal\l::Private">
<polygon fill="white" stroke="black" points="337.5,-67.5 337.5,-97.5 444.5,-97.5 444.5,-67.5 337.5,-67.5"/>
<text text-anchor="start" x="345.5" y="-85.5" font-family="Helvetica,sans-Serif" font-size="10.00">SearchIndexExternal</text>
<text text-anchor="middle" x="391" y="-74.5" font-family="Helvetica,sans-Serif" font-size="10.00">::Private</text>
</a>
</g>
</g>
<!-- Node4&#45;&gt;Node2 -->
<g id="edge2" class="edge"><title>Node4&#45;&gt;Node2</title>
<path fill="none" stroke="#9a32cd" stroke-dasharray="5,2" d="M343.396,-63.7429C305.498,-49.6065 254.122,-30.4423 224.877,-19.5336"/>
<polygon fill="#9a32cd" stroke="#9a32cd" points="342.615,-67.187 353.207,-67.4027 345.061,-60.6284 342.615,-67.187"/>
<text text-anchor="middle" x="307.5" y="-41" font-family="Helvetica,sans-Serif" font-size="10.00"> p</text>
</g>
<!-- Node5 -->
<g id="node4" class="node"><title>Node5</title>
<g id="a_node4"><a xlink:href="../../d1/d50/class_s_dict.html" target="_top" xlink:title="SDict\&lt; SearchDocEntry \&gt;">
<polygon fill="white" stroke="black" points="263.5,-145.5 263.5,-164.5 394.5,-164.5 394.5,-145.5 263.5,-145.5"/>
<text text-anchor="middle" x="329" y="-152.5" font-family="Helvetica,sans-Serif" font-size="10.00">SDict&lt; SearchDocEntry &gt;</text>
</a>
</g>
</g>
<!-- Node5&#45;&gt;Node4 -->
<g id="edge3" class="edge"><title>Node5&#45;&gt;Node4</title>
<path fill="none" stroke="#9a32cd" stroke-dasharray="5,2" d="M348.577,-138.907C352.87,-135.216 357.25,-131.133 361,-127 369.26,-117.896 377.093,-106.404 382.682,-97.5189"/>
<polygon fill="#9a32cd" stroke="#9a32cd" points="346.131,-136.386 340.614,-145.431 350.567,-141.801 346.131,-136.386"/>
<text text-anchor="middle" x="394" y="-119" font-family="Helvetica,sans-Serif" font-size="10.00"> docEntries</text>
</g>
<!-- Node6 -->
<g id="node5" class="node"><title>Node6</title>
<g id="a_node5"><a xlink:href="../../df/dce/class_s_list.html" target="_top" xlink:title="SList\&lt; SearchDocEntry \&gt;">
<polygon fill="white" stroke="black" points="190.5,-73 190.5,-92 319.5,-92 319.5,-73 190.5,-73"/>
<text text-anchor="middle" x="255" y="-80" font-family="Helvetica,sans-Serif" font-size="10.00">SList&lt; SearchDocEntry &gt;</text>
</a>
</g>
</g>
<!-- Node5&#45;&gt;Node6 -->
<g id="edge6" class="edge"><title>Node5&#45;&gt;Node6</title>
<path fill="none" stroke="#9a32cd" stroke-dasharray="5,2" d="M277.103,-141.092C270.53,-137.491 264.532,-132.886 260,-127 252.302,-117.001 252.485,-101.679 253.565,-92.1415"/>
<polygon fill="#9a32cd" stroke="#9a32cd" points="275.797,-144.345 286.339,-145.408 278.761,-138.004 275.797,-144.345"/>
<text text-anchor="middle" x="281.5" y="-119" font-family="Helvetica,sans-Serif" font-size="10.00"> m_owner</text>
</g>
<!-- Node6&#45;&gt;Node5 -->
<g id="edge4" class="edge"><title>Node6&#45;&gt;Node5</title>
<path fill="none" stroke="#9a32cd" stroke-dasharray="5,2" d="M282.365,-97.1915C290.909,-102.316 299.936,-108.693 307,-116 315.372,-124.659 321.79,-137.105 325.477,-145.364"/>
<polygon fill="#9a32cd" stroke="#9a32cd" points="283.83,-93.9995 273.4,-92.1379 280.392,-100.097 283.83,-93.9995"/>
<text text-anchor="middle" x="330" y="-119" font-family="Helvetica,sans-Serif" font-size="10.00"> m_list</text>
</g>
<!-- Node7 -->
<g id="node6" class="node"><title>Node7</title>
<polygon fill="white" stroke="#bfbfbf" points="0,-145.5 0,-164.5 130,-164.5 130,-145.5 0,-145.5"/>
<text text-anchor="middle" x="65" y="-152.5" font-family="Helvetica,sans-Serif" font-size="10.00">QList&lt; SearchDocEntry &gt;</text>
</g>
<!-- Node7&#45;&gt;Node6 -->
<g id="edge5" class="edge"><title>Node7&#45;&gt;Node6</title>
<path fill="none" stroke="midnightblue" d="M92.0787,-141.091C108.851,-133.333 130.946,-123.536 151,-116 175.259,-106.883 203.338,-98.2165 224.201,-92.1291"/>
<polygon fill="midnightblue" stroke="midnightblue" points="90.4526,-137.988 82.8739,-145.391 93.4154,-144.33 90.4526,-137.988"/>
</g>
<!-- Node8 -->
<g id="node7" class="node"><title>Node8</title>
<g id="a_node7"><a xlink:href="../../df/dce/class_s_list.html" target="_top" xlink:title="internal wrapper class that redirects compareValues() to the dictionary ">
<polygon fill="white" stroke="black" points="148.5,-145.5 148.5,-164.5 211.5,-164.5 211.5,-145.5 148.5,-145.5"/>
<text text-anchor="middle" x="180" y="-152.5" font-family="Helvetica,sans-Serif" font-size="10.00">SList&lt; T &gt;</text>
</a>
</g>
</g>
<!-- Node8&#45;&gt;Node6 -->
<g id="edge7" class="edge"><title>Node8&#45;&gt;Node6</title>
<path fill="none" stroke="orange" stroke-dasharray="5,2" d="M161.352,-137.858C155.628,-130.961 152.004,-122.921 157,-116 164.003,-106.299 190.353,-97.8775 213.967,-92.0393"/>
<polygon fill="orange" stroke="orange" points="159.144,-140.606 168.645,-145.295 164.142,-135.705 159.144,-140.606"/>
<text text-anchor="middle" x="204" y="-119" font-family="Helvetica,sans-Serif" font-size="10.00"> &lt; SearchDocEntry &gt;</text>
</g>
<!-- Node9 -->
<g id="node8" class="node"><title>Node9</title>
<polygon fill="white" stroke="#bfbfbf" points="148,-223.5 148,-242.5 212,-242.5 212,-223.5 148,-223.5"/>
<text text-anchor="middle" x="180" y="-230.5" font-family="Helvetica,sans-Serif" font-size="10.00">QList&lt; T &gt;</text>
</g>
<!-- Node9&#45;&gt;Node8 -->
<g id="edge8" class="edge"><title>Node9&#45;&gt;Node8</title>
<path fill="none" stroke="midnightblue" d="M180,-213.224C180,-197.697 180,-176.358 180,-164.616"/>
<polygon fill="midnightblue" stroke="midnightblue" points="176.5,-213.282 180,-223.282 183.5,-213.282 176.5,-213.282"/>
</g>
<!-- Node10 -->
<g id="node9" class="node"><title>Node10</title>
<g id="a_node9"><a xlink:href="../../d1/d50/class_s_dict.html" target="_top" xlink:title="Ordered dictionary of elements of type T. ">
<polygon fill="white" stroke="black" points="296.5,-223.5 296.5,-242.5 361.5,-242.5 361.5,-223.5 296.5,-223.5"/>
<text text-anchor="middle" x="329" y="-230.5" font-family="Helvetica,sans-Serif" font-size="10.00">SDict&lt; T &gt;</text>
</a>
</g>
</g>
<!-- Node10&#45;&gt;Node5 -->
<g id="edge9" class="edge"><title>Node10&#45;&gt;Node5</title>
<path fill="none" stroke="orange" stroke-dasharray="5,2" d="M329,-213.224C329,-197.697 329,-176.358 329,-164.616"/>
<polygon fill="orange" stroke="orange" points="325.5,-213.282 329,-223.282 332.5,-213.282 325.5,-213.282"/>
<text text-anchor="middle" x="376" y="-191.5" font-family="Helvetica,sans-Serif" font-size="10.00"> &lt; SearchDocEntry &gt;</text>
</g>
<!-- Node11 -->
<g id="node10" class="node"><title>Node11</title>
<g id="a_node10"><a xlink:href="../../dd/df7/struct_search_doc_entry.html" target="_top" xlink:title="SearchDocEntry">
<polygon fill="white" stroke="black" points="412.5,-145.5 412.5,-164.5 501.5,-164.5 501.5,-145.5 412.5,-145.5"/>
<text text-anchor="middle" x="457" y="-152.5" font-family="Helvetica,sans-Serif" font-size="10.00">SearchDocEntry</text>
</a>
</g>
</g>
<!-- Node11&#45;&gt;Node4 -->
<g id="edge10" class="edge"><title>Node11&#45;&gt;Node4</title>
<path fill="none" stroke="#9a32cd" stroke-dasharray="5,2" d="M442.656,-137.625C436.654,-130.864 429.56,-122.989 423,-116 417.256,-109.88 410.782,-103.256 405.168,-97.595"/>
<polygon fill="#9a32cd" stroke="#9a32cd" points="440.312,-140.259 449.552,-145.443 445.562,-135.629 440.312,-140.259"/>
<text text-anchor="middle" x="449" y="-119" font-family="Helvetica,sans-Serif" font-size="10.00"> current</text>
</g>
<!-- Node12 -->
<g id="node11" class="node"><title>Node12</title>
<g id="a_node11"><a xlink:href="../../d8/d33/class_grow_buf.html" target="_top" xlink:title="Class representing a string buffer optimised for growing. ">
<polygon fill="white" stroke="black" points="429.5,-223.5 429.5,-242.5 484.5,-242.5 484.5,-223.5 429.5,-223.5"/>
<text text-anchor="middle" x="457" y="-230.5" font-family="Helvetica,sans-Serif" font-size="10.00">GrowBuf</text>
</a>
</g>
</g>
<!-- Node12&#45;&gt;Node11 -->
<g id="edge11" class="edge"><title>Node12&#45;&gt;Node11</title>
<path fill="none" stroke="#9a32cd" stroke-dasharray="5,2" d="M457,-213.224C457,-197.697 457,-176.358 457,-164.616"/>
<polygon fill="#9a32cd" stroke="#9a32cd" points="453.5,-213.282 457,-223.282 460.5,-213.282 453.5,-213.282"/>
<text text-anchor="middle" x="487.5" y="-197" font-family="Helvetica,sans-Serif" font-size="10.00"> normalText</text>
<text text-anchor="middle" x="487.5" y="-186" font-family="Helvetica,sans-Serif" font-size="10.00">importantText</text>
</g>
</g>
</svg>
