<?xml version="1.0" encoding="UTF-8" standalone="no"?>
<!DOCTYPE svg PUBLIC "-//W3C//DTD SVG 1.1//EN"
 "http://www.w3.org/Graphics/SVG/1.1/DTD/svg11.dtd">
<!-- Generated by graphviz version 2.38.0 (20140413.2041)
 -->
<!-- Title: src/marshal.cpp Pages: 1 -->
<svg width="816pt" height="308pt"
 viewBox="0.00 0.00 815.50 308.00" xmlns="http://www.w3.org/2000/svg" xmlns:xlink="http://www.w3.org/1999/xlink">
<g id="graph0" class="graph" transform="scale(1 1) rotate(0) translate(4 304)">
<title>src/marshal.cpp</title>
<polygon fill="white" stroke="none" points="-4,4 -4,-304 811.5,-304 811.5,4 -4,4"/>
<!-- Node0 -->
<g id="node1" class="node"><title>Node0</title>
<polygon fill="#bfbfbf" stroke="black" points="413,-280.5 413,-299.5 499,-299.5 499,-280.5 413,-280.5"/>
<text text-anchor="middle" x="456" y="-287.5" font-family="Helvetica,sans-Serif" font-size="10.00">src/marshal.cpp</text>
</g>
<!-- Node1 -->
<g id="node2" class="node"><title>Node1</title>
<polygon fill="white" stroke="#bfbfbf" points="67.5,-168.5 67.5,-187.5 110.5,-187.5 110.5,-168.5 67.5,-168.5"/>
<text text-anchor="middle" x="89" y="-175.5" font-family="Helvetica,sans-Serif" font-size="10.00">qfile.h</text>
</g>
<!-- Node0&#45;&gt;Node1 -->
<g id="edge1" class="edge"><title>Node0&#45;&gt;Node1</title>
<path fill="none" stroke="midnightblue" d="M412.8,-286.61C338.09,-281.855 188.393,-269.402 143,-244 123.466,-233.069 108.035,-212.078 98.7545,-196.902"/>
<polygon fill="midnightblue" stroke="midnightblue" points="101.602,-194.834 93.5631,-187.933 95.5435,-198.341 101.602,-194.834"/>
</g>
<!-- Node2 -->
<g id="node3" class="node"><title>Node2</title>
<polygon fill="white" stroke="#bfbfbf" points="152,-224.5 152,-243.5 204,-243.5 204,-224.5 152,-224.5"/>
<text text-anchor="middle" x="178" y="-231.5" font-family="Helvetica,sans-Serif" font-size="10.00">assert.h</text>
</g>
<!-- Node0&#45;&gt;Node2 -->
<g id="edge2" class="edge"><title>Node0&#45;&gt;Node2</title>
<path fill="none" stroke="midnightblue" d="M412.917,-281.315C365.175,-272.692 285.945,-258.063 218,-244 216.745,-243.74 215.469,-243.473 214.181,-243.199"/>
<polygon fill="midnightblue" stroke="midnightblue" points="214.737,-239.739 204.222,-241.036 213.251,-246.579 214.737,-239.739"/>
</g>
<!-- Node3 -->
<g id="node4" class="node"><title>Node3</title>
<g id="a_node4"><a xlink:href="../../d9/d21/sortdict_8h.html" target="_top" xlink:title="sortdict.h">
<polygon fill="white" stroke="black" points="545.5,-168.5 545.5,-187.5 602.5,-187.5 602.5,-168.5 545.5,-168.5"/>
<text text-anchor="middle" x="574" y="-175.5" font-family="Helvetica,sans-Serif" font-size="10.00">sortdict.h</text>
</a>
</g>
</g>
<!-- Node0&#45;&gt;Node3 -->
<g id="edge3" class="edge"><title>Node0&#45;&gt;Node3</title>
<path fill="none" stroke="midnightblue" d="M493.141,-280.35C514.032,-273.684 539.046,-262.402 555,-244 566.182,-231.103 570.792,-211.928 572.687,-197.744"/>
<polygon fill="midnightblue" stroke="midnightblue" points="576.184,-197.953 573.699,-187.654 569.219,-197.255 576.184,-197.953"/>
</g>
<!-- Node7 -->
<g id="node8" class="node"><title>Node7</title>
<g id="a_node8"><a xlink:href="../../d9/de0/marshal_8h.html" target="_top" xlink:title="marshal.h">
<polygon fill="white" stroke="black" points="260.5,-224.5 260.5,-243.5 319.5,-243.5 319.5,-224.5 260.5,-224.5"/>
<text text-anchor="middle" x="290" y="-231.5" font-family="Helvetica,sans-Serif" font-size="10.00">marshal.h</text>
</a>
</g>
</g>
<!-- Node0&#45;&gt;Node7 -->
<g id="edge7" class="edge"><title>Node0&#45;&gt;Node7</title>
<path fill="none" stroke="midnightblue" d="M429.697,-280.444C401.649,-271.32 357.056,-256.813 325.816,-246.651"/>
<polygon fill="midnightblue" stroke="midnightblue" points="326.772,-243.282 316.18,-243.516 324.607,-249.938 326.772,-243.282"/>
</g>
<!-- Node13 -->
<g id="node14" class="node"><title>Node13</title>
<g id="a_node14"><a xlink:href="../../d1/dc6/entry_8h.html" target="_top" xlink:title="entry.h">
<polygon fill="white" stroke="black" points="210.5,-112.5 210.5,-131.5 257.5,-131.5 257.5,-112.5 210.5,-112.5"/>
<text text-anchor="middle" x="234" y="-119.5" font-family="Helvetica,sans-Serif" font-size="10.00">entry.h</text>
</a>
</g>
</g>
<!-- Node0&#45;&gt;Node13 -->
<g id="edge18" class="edge"><title>Node0&#45;&gt;Node13</title>
<path fill="none" stroke="midnightblue" d="M412.544,-285.217C359.006,-279.616 272.48,-267.19 251,-244 225.258,-216.209 227.157,-168.313 230.66,-141.883"/>
<polygon fill="midnightblue" stroke="midnightblue" points="234.166,-142.112 232.237,-131.695 227.249,-141.042 234.166,-142.112"/>
</g>
<!-- Node17 -->
<g id="node18" class="node"><title>Node17</title>
<g id="a_node18"><a xlink:href="../../d1/d2a/section_8h.html" target="_top" xlink:title="section.h">
<polygon fill="white" stroke="black" points="602,-224.5 602,-243.5 658,-243.5 658,-224.5 602,-224.5"/>
<text text-anchor="middle" x="630" y="-231.5" font-family="Helvetica,sans-Serif" font-size="10.00">section.h</text>
</a>
</g>
</g>
<!-- Node0&#45;&gt;Node17 -->
<g id="edge23" class="edge"><title>Node0&#45;&gt;Node17</title>
<path fill="none" stroke="midnightblue" d="M483.571,-280.444C513.097,-271.28 560.118,-256.688 592.883,-246.519"/>
<polygon fill="midnightblue" stroke="midnightblue" points="594.045,-249.823 602.558,-243.516 591.97,-243.138 594.045,-249.823"/>
</g>
<!-- Node18 -->
<g id="node19" class="node"><title>Node18</title>
<g id="a_node19"><a xlink:href="../../dd/d78/memberlist_8h.html" target="_top" xlink:title="memberlist.h">
<polygon fill="white" stroke="black" points="354.5,-224.5 354.5,-243.5 427.5,-243.5 427.5,-224.5 354.5,-224.5"/>
<text text-anchor="middle" x="391" y="-231.5" font-family="Helvetica,sans-Serif" font-size="10.00">memberlist.h</text>
</a>
</g>
</g>
<!-- Node0&#45;&gt;Node18 -->
<g id="edge25" class="edge"><title>Node0&#45;&gt;Node18</title>
<path fill="none" stroke="midnightblue" d="M445.557,-280.324C435.854,-272.263 421.185,-260.077 409.5,-250.369"/>
<polygon fill="midnightblue" stroke="midnightblue" points="411.562,-247.532 401.633,-243.834 407.089,-252.916 411.562,-247.532"/>
</g>
<!-- Node20 -->
<g id="node21" class="node"><title>Node20</title>
<g id="a_node21"><a xlink:href="../../df/da1/definition_8h.html" target="_top" xlink:title="definition.h">
<polygon fill="white" stroke="black" points="466,-112.5 466,-131.5 530,-131.5 530,-112.5 466,-112.5"/>
<text text-anchor="middle" x="498" y="-119.5" font-family="Helvetica,sans-Serif" font-size="10.00">definition.h</text>
</a>
</g>
</g>
<!-- Node0&#45;&gt;Node20 -->
<g id="edge37" class="edge"><title>Node0&#45;&gt;Node20</title>
<path fill="none" stroke="midnightblue" d="M458.258,-280.075C464.869,-253.945 484.284,-177.211 493.3,-141.577"/>
<polygon fill="midnightblue" stroke="midnightblue" points="496.772,-142.121 495.832,-131.568 489.986,-140.404 496.772,-142.121"/>
</g>
<!-- Node21 -->
<g id="node22" class="node"><title>Node21</title>
<g id="a_node22"><a xlink:href="../../d1/de6/groupdef_8h.html" target="_top" xlink:title="groupdef.h">
<polygon fill="white" stroke="black" points="484,-224.5 484,-243.5 546,-243.5 546,-224.5 484,-224.5"/>
<text text-anchor="middle" x="515" y="-231.5" font-family="Helvetica,sans-Serif" font-size="10.00">groupdef.h</text>
</a>
</g>
</g>
<!-- Node0&#45;&gt;Node21 -->
<g id="edge38" class="edge"><title>Node0&#45;&gt;Node21</title>
<path fill="none" stroke="midnightblue" d="M465.479,-280.324C474.201,-272.341 487.343,-260.313 497.898,-250.653"/>
<polygon fill="midnightblue" stroke="midnightblue" points="500.334,-253.167 505.348,-243.834 495.608,-248.004 500.334,-253.167"/>
</g>
<!-- Node22 -->
<g id="node23" class="node"><title>Node22</title>
<g id="a_node23"><a xlink:href="../../df/d24/example_8h.html" target="_top" xlink:title="example.h">
<polygon fill="white" stroke="black" points="676,-224.5 676,-243.5 738,-243.5 738,-224.5 676,-224.5"/>
<text text-anchor="middle" x="707" y="-231.5" font-family="Helvetica,sans-Serif" font-size="10.00">example.h</text>
</a>
</g>
</g>
<!-- Node0&#45;&gt;Node22 -->
<g id="edge41" class="edge"><title>Node0&#45;&gt;Node22</title>
<path fill="none" stroke="midnightblue" d="M496.873,-280.424C537.325,-271.906 601.282,-258.353 666.025,-244.196"/>
<polygon fill="midnightblue" stroke="midnightblue" points="666.979,-247.57 675.999,-242.011 665.481,-240.732 666.979,-247.57"/>
</g>
<!-- Node23 -->
<g id="node24" class="node"><title>Node23</title>
<g id="a_node24"><a xlink:href="../../df/d9b/arguments_8h.html" target="_top" xlink:title="arguments.h">
<polygon fill="white" stroke="black" points="736.5,-112.5 736.5,-131.5 807.5,-131.5 807.5,-112.5 736.5,-112.5"/>
<text text-anchor="middle" x="772" y="-119.5" font-family="Helvetica,sans-Serif" font-size="10.00">arguments.h</text>
</a>
</g>
</g>
<!-- Node0&#45;&gt;Node23 -->
<g id="edge44" class="edge"><title>Node0&#45;&gt;Node23</title>
<path fill="none" stroke="midnightblue" d="M499.029,-288.18C571.188,-285.884 712.13,-277.158 747,-244 774.894,-217.475 775.967,-168.684 774.114,-141.874"/>
<polygon fill="midnightblue" stroke="midnightblue" points="777.567,-141.202 773.176,-131.56 770.596,-141.835 777.567,-141.202"/>
</g>
<!-- Node4 -->
<g id="node5" class="node"><title>Node4</title>
<polygon fill="white" stroke="#bfbfbf" points="416.5,-56.5 416.5,-75.5 459.5,-75.5 459.5,-56.5 416.5,-56.5"/>
<text text-anchor="middle" x="438" y="-63.5" font-family="Helvetica,sans-Serif" font-size="10.00">qlist.h</text>
</g>
<!-- Node3&#45;&gt;Node4 -->
<g id="edge4" class="edge"><title>Node3&#45;&gt;Node4</title>
<path fill="none" stroke="midnightblue" d="M571.354,-168.274C566.805,-154.602 556.287,-128.04 539,-112 519.32,-93.7398 491,-82.0008 469.353,-75.1075"/>
<polygon fill="midnightblue" stroke="midnightblue" points="470.215,-71.7121 459.631,-72.1904 468.204,-78.4168 470.215,-71.7121"/>
</g>
<!-- Node5 -->
<g id="node6" class="node"><title>Node5</title>
<polygon fill="white" stroke="#bfbfbf" points="556,-56.5 556,-75.5 602,-75.5 602,-56.5 556,-56.5"/>
<text text-anchor="middle" x="579" y="-63.5" font-family="Helvetica,sans-Serif" font-size="10.00">qdict.h</text>
</g>
<!-- Node3&#45;&gt;Node5 -->
<g id="edge5" class="edge"><title>Node3&#45;&gt;Node5</title>
<path fill="none" stroke="midnightblue" d="M602.372,-168.495C619.752,-161.653 640.596,-150.13 651,-132 663.709,-109.853 636.104,-91.1378 611.482,-79.559"/>
<polygon fill="midnightblue" stroke="midnightblue" points="612.842,-76.3335 602.282,-75.4784 610.004,-82.7323 612.842,-76.3335"/>
</g>
<!-- Node6 -->
<g id="node7" class="node"><title>Node6</title>
<polygon fill="white" stroke="#bfbfbf" points="586,-112.5 586,-131.5 642,-131.5 642,-112.5 586,-112.5"/>
<text text-anchor="middle" x="614" y="-119.5" font-family="Helvetica,sans-Serif" font-size="10.00">qintdict.h</text>
</g>
<!-- Node3&#45;&gt;Node6 -->
<g id="edge6" class="edge"><title>Node3&#45;&gt;Node6</title>
<path fill="none" stroke="midnightblue" d="M580.605,-168.083C586.255,-160.455 594.545,-149.264 601.451,-139.941"/>
<polygon fill="midnightblue" stroke="midnightblue" points="604.378,-141.87 607.518,-131.751 598.753,-137.703 604.378,-141.87"/>
</g>
<!-- Node7&#45;&gt;Node1 -->
<g id="edge9" class="edge"><title>Node7&#45;&gt;Node1</title>
<path fill="none" stroke="midnightblue" d="M260.26,-225.502C228.018,-217.301 174.813,-203.561 120.412,-188.335"/>
<polygon fill="midnightblue" stroke="midnightblue" points="121.178,-184.915 110.604,-185.577 119.284,-191.654 121.178,-184.915"/>
</g>
<!-- Node7&#45;&gt;Node3 -->
<g id="edge10" class="edge"><title>Node7&#45;&gt;Node3</title>
<path fill="none" stroke="midnightblue" d="M319.589,-227.374C371.215,-217.558 477.711,-197.308 535.187,-186.38"/>
<polygon fill="midnightblue" stroke="midnightblue" points="536.154,-189.759 545.324,-184.452 534.846,-182.882 536.154,-189.759"/>
</g>
<!-- Node7&#45;&gt;Node4 -->
<g id="edge8" class="edge"><title>Node7&#45;&gt;Node4</title>
<path fill="none" stroke="midnightblue" d="M293.786,-224.471C299.761,-211.519 312.232,-186.45 327,-168 354.575,-133.55 394.247,-100.477 417.94,-82.0367"/>
<polygon fill="midnightblue" stroke="midnightblue" points="420.378,-84.5781 426.18,-75.7135 416.116,-79.0248 420.378,-84.5781"/>
</g>
<!-- Node8 -->
<g id="node9" class="node"><title>Node8</title>
<g id="a_node9"><a xlink:href="../../d5/d3f/store_8h.html" target="_top" xlink:title="store.h">
<polygon fill="white" stroke="black" points="128.5,-168.5 128.5,-187.5 175.5,-187.5 175.5,-168.5 128.5,-168.5"/>
<text text-anchor="middle" x="152" y="-175.5" font-family="Helvetica,sans-Serif" font-size="10.00">store.h</text>
</a>
</g>
</g>
<!-- Node7&#45;&gt;Node8 -->
<g id="edge11" class="edge"><title>Node7&#45;&gt;Node8</title>
<path fill="none" stroke="midnightblue" d="M268.133,-224.444C245.221,-215.478 209.025,-201.314 183.134,-191.183"/>
<polygon fill="midnightblue" stroke="midnightblue" points="184.352,-187.901 173.764,-187.516 181.801,-194.42 184.352,-187.901"/>
</g>
<!-- Node9 -->
<g id="node10" class="node"><title>Node9</title>
<polygon fill="white" stroke="#bfbfbf" points="64,-56.5 64,-75.5 120,-75.5 120,-56.5 64,-56.5"/>
<text text-anchor="middle" x="92" y="-63.5" font-family="Helvetica,sans-Serif" font-size="10.00">qglobal.h</text>
</g>
<!-- Node8&#45;&gt;Node9 -->
<g id="edge12" class="edge"><title>Node8&#45;&gt;Node9</title>
<path fill="none" stroke="midnightblue" d="M129.212,-168.471C113.674,-161.316 94.2925,-149.435 85,-132 77.3336,-117.616 80.4713,-98.915 84.7041,-85.2671"/>
<polygon fill="midnightblue" stroke="midnightblue" points="88.0946,-86.1788 88.148,-75.5841 81.4993,-83.8331 88.0946,-86.1788"/>
</g>
<!-- Node10 -->
<g id="node11" class="node"><title>Node10</title>
<polygon fill="white" stroke="#bfbfbf" points="0,-56.5 0,-75.5 46,-75.5 46,-56.5 0,-56.5"/>
<text text-anchor="middle" x="23" y="-63.5" font-family="Helvetica,sans-Serif" font-size="10.00">stdio.h</text>
</g>
<!-- Node8&#45;&gt;Node10 -->
<g id="edge13" class="edge"><title>Node8&#45;&gt;Node10</title>
<path fill="none" stroke="midnightblue" d="M133.91,-168.354C117.979,-160.246 94.634,-147.126 77,-132 60.3751,-117.739 44.7752,-98.0049 34.659,-84.0313"/>
<polygon fill="midnightblue" stroke="midnightblue" points="37.4729,-81.9484 28.8475,-75.796 31.7536,-85.9845 37.4729,-81.9484"/>
</g>
<!-- Node11 -->
<g id="node12" class="node"><title>Node11</title>
<g id="a_node12"><a xlink:href="../../d2/de2/portable_8h.html" target="_top" xlink:title="Portable versions of functions that are platform dependent. ">
<polygon fill="white" stroke="black" points="94.5,-112.5 94.5,-131.5 153.5,-131.5 153.5,-112.5 94.5,-112.5"/>
<text text-anchor="middle" x="124" y="-119.5" font-family="Helvetica,sans-Serif" font-size="10.00">portable.h</text>
</a>
</g>
</g>
<!-- Node8&#45;&gt;Node11 -->
<g id="edge14" class="edge"><title>Node8&#45;&gt;Node11</title>
<path fill="none" stroke="midnightblue" d="M147.376,-168.083C143.544,-160.691 137.976,-149.953 133.235,-140.811"/>
<polygon fill="midnightblue" stroke="midnightblue" points="136.248,-139.018 128.538,-131.751 130.034,-142.24 136.248,-139.018"/>
</g>
<!-- Node11&#45;&gt;Node9 -->
<g id="edge17" class="edge"><title>Node11&#45;&gt;Node9</title>
<path fill="none" stroke="midnightblue" d="M118.716,-112.083C114.289,-104.613 107.837,-93.7244 102.382,-84.5199"/>
<polygon fill="midnightblue" stroke="midnightblue" points="105.295,-82.5697 97.1858,-75.7511 99.2729,-86.1383 105.295,-82.5697"/>
</g>
<!-- Node11&#45;&gt;Node10 -->
<g id="edge16" class="edge"><title>Node11&#45;&gt;Node10</title>
<path fill="none" stroke="midnightblue" d="M107.773,-112.324C91.649,-103.703 66.6998,-90.3643 48.0359,-80.3855"/>
<polygon fill="midnightblue" stroke="midnightblue" points="49.6561,-77.283 39.1871,-75.6545 46.3556,-83.456 49.6561,-77.283"/>
</g>
<!-- Node12 -->
<g id="node13" class="node"><title>Node12</title>
<polygon fill="white" stroke="#bfbfbf" points="138,-56.5 138,-75.5 206,-75.5 206,-56.5 138,-56.5"/>
<text text-anchor="middle" x="172" y="-63.5" font-family="Helvetica,sans-Serif" font-size="10.00">sys/types.h</text>
</g>
<!-- Node11&#45;&gt;Node12 -->
<g id="edge15" class="edge"><title>Node11&#45;&gt;Node12</title>
<path fill="none" stroke="midnightblue" d="M131.926,-112.083C138.846,-104.298 149.065,-92.8015 157.452,-83.3665"/>
<polygon fill="midnightblue" stroke="midnightblue" points="160.194,-85.5505 164.221,-75.7511 154.962,-80.8999 160.194,-85.5505"/>
</g>
<!-- Node13&#45;&gt;Node4 -->
<g id="edge21" class="edge"><title>Node13&#45;&gt;Node4</title>
<path fill="none" stroke="midnightblue" d="M257.801,-114.7C294.62,-104.954 365.413,-86.2142 406.453,-75.3505"/>
<polygon fill="midnightblue" stroke="midnightblue" points="407.436,-78.711 416.208,-72.7685 405.645,-71.9441 407.436,-78.711"/>
</g>
<!-- Node14 -->
<g id="node15" class="node"><title>Node14</title>
<g id="a_node15"><a xlink:href="../../d9/d49/types_8h.html" target="_top" xlink:title="This file contains a number of basic enums and types. ">
<polygon fill="white" stroke="black" points="301.5,-56.5 301.5,-75.5 350.5,-75.5 350.5,-56.5 301.5,-56.5"/>
<text text-anchor="middle" x="326" y="-63.5" font-family="Helvetica,sans-Serif" font-size="10.00">types.h</text>
</a>
</g>
</g>
<!-- Node13&#45;&gt;Node14 -->
<g id="edge19" class="edge"><title>Node13&#45;&gt;Node14</title>
<path fill="none" stroke="midnightblue" d="M248.781,-112.324C263.267,-103.822 285.573,-90.7288 302.493,-80.7975"/>
<polygon fill="midnightblue" stroke="midnightblue" points="304.403,-83.735 311.255,-75.6545 300.859,-77.6981 304.403,-83.735"/>
</g>
<!-- Node16 -->
<g id="node17" class="node"><title>Node16</title>
<polygon fill="white" stroke="#bfbfbf" points="224.5,-56.5 224.5,-75.5 283.5,-75.5 283.5,-56.5 224.5,-56.5"/>
<text text-anchor="middle" x="254" y="-63.5" font-family="Helvetica,sans-Serif" font-size="10.00">qgstring.h</text>
</g>
<!-- Node13&#45;&gt;Node16 -->
<g id="edge22" class="edge"><title>Node13&#45;&gt;Node16</title>
<path fill="none" stroke="midnightblue" d="M237.303,-112.083C239.982,-104.849 243.849,-94.4087 247.186,-85.3968"/>
<polygon fill="midnightblue" stroke="midnightblue" points="250.568,-86.3442 250.759,-75.7511 244.004,-83.9129 250.568,-86.3442"/>
</g>
<!-- Node15 -->
<g id="node16" class="node"><title>Node15</title>
<polygon fill="white" stroke="#bfbfbf" points="678.5,-0.5 678.5,-19.5 737.5,-19.5 737.5,-0.5 678.5,-0.5"/>
<text text-anchor="middle" x="708" y="-7.5" font-family="Helvetica,sans-Serif" font-size="10.00">qcstring.h</text>
</g>
<!-- Node14&#45;&gt;Node15 -->
<g id="edge20" class="edge"><title>Node14&#45;&gt;Node15</title>
<path fill="none" stroke="midnightblue" d="M350.77,-61.4985C415.405,-52.3616 589.612,-27.7355 668.375,-16.6015"/>
<polygon fill="midnightblue" stroke="midnightblue" points="668.976,-20.0513 678.388,-15.186 667.996,-13.1202 668.976,-20.0513"/>
</g>
<!-- Node17&#45;&gt;Node3 -->
<g id="edge24" class="edge"><title>Node17&#45;&gt;Node3</title>
<path fill="none" stroke="midnightblue" d="M621.003,-224.324C612.806,-216.42 600.494,-204.548 590.528,-194.938"/>
<polygon fill="midnightblue" stroke="midnightblue" points="592.789,-192.256 583.161,-187.834 587.93,-197.295 592.789,-192.256"/>
</g>
<!-- Node18&#45;&gt;Node3 -->
<g id="edge35" class="edge"><title>Node18&#45;&gt;Node3</title>
<path fill="none" stroke="midnightblue" d="M419.997,-224.444C451.276,-215.214 501.223,-200.475 535.711,-190.298"/>
<polygon fill="midnightblue" stroke="midnightblue" points="536.839,-193.615 545.44,-187.428 534.858,-186.901 536.839,-193.615"/>
</g>
<!-- Node18&#45;&gt;Node4 -->
<g id="edge26" class="edge"><title>Node18&#45;&gt;Node4</title>
<path fill="none" stroke="midnightblue" d="M397.94,-224.256C404.453,-215.574 413.931,-201.626 419,-188 431.872,-153.403 436.023,-110.088 437.362,-85.7872"/>
<polygon fill="midnightblue" stroke="midnightblue" points="440.872,-85.6521 437.82,-75.5064 433.879,-85.341 440.872,-85.6521"/>
</g>
<!-- Node18&#45;&gt;Node14 -->
<g id="edge36" class="edge"><title>Node18&#45;&gt;Node14</title>
<path fill="none" stroke="midnightblue" d="M369.873,-224.491C354.935,-217.226 336.023,-205.2 327,-188 309.82,-155.251 315.795,-110.325 321.204,-85.4551"/>
<polygon fill="midnightblue" stroke="midnightblue" points="324.649,-86.0945 323.563,-75.5554 317.84,-84.4712 324.649,-86.0945"/>
</g>
<!-- Node19 -->
<g id="node20" class="node"><title>Node19</title>
<g id="a_node20"><a xlink:href="../../d4/d46/memberdef_8h.html" target="_top" xlink:title="memberdef.h">
<polygon fill="white" stroke="black" points="336,-168.5 336,-187.5 410,-187.5 410,-168.5 336,-168.5"/>
<text text-anchor="middle" x="373" y="-175.5" font-family="Helvetica,sans-Serif" font-size="10.00">memberdef.h</text>
</a>
</g>
</g>
<!-- Node18&#45;&gt;Node19 -->
<g id="edge27" class="edge"><title>Node18&#45;&gt;Node19</title>
<path fill="none" stroke="midnightblue" d="M388.028,-224.083C385.616,-216.849 382.136,-206.409 379.132,-197.397"/>
<polygon fill="midnightblue" stroke="midnightblue" points="382.4,-196.131 375.917,-187.751 375.759,-198.345 382.4,-196.131"/>
</g>
<!-- Node19&#45;&gt;Node4 -->
<g id="edge28" class="edge"><title>Node19&#45;&gt;Node4</title>
<path fill="none" stroke="midnightblue" d="M378.1,-168.368C388.78,-150.296 413.668,-108.176 427.773,-84.3074"/>
<polygon fill="midnightblue" stroke="midnightblue" points="430.849,-85.9813 432.923,-75.5914 424.823,-82.4201 430.849,-85.9813"/>
</g>
<!-- Node19&#45;&gt;Node12 -->
<g id="edge29" class="edge"><title>Node19&#45;&gt;Node12</title>
<path fill="none" stroke="midnightblue" d="M335.883,-176.338C297.88,-173.775 239.131,-164.347 201,-132 187.033,-120.152 179.518,-100.234 175.666,-85.5629"/>
<polygon fill="midnightblue" stroke="midnightblue" points="179.026,-84.5568 173.388,-75.587 172.202,-86.1152 179.026,-84.5568"/>
</g>
<!-- Node19&#45;&gt;Node14 -->
<g id="edge30" class="edge"><title>Node19&#45;&gt;Node14</title>
<path fill="none" stroke="midnightblue" d="M369.312,-168.368C361.659,-150.456 343.913,-108.923 333.669,-84.9482"/>
<polygon fill="midnightblue" stroke="midnightblue" points="336.819,-83.412 329.671,-75.5914 330.382,-86.1624 336.819,-83.412"/>
</g>
<!-- Node19&#45;&gt;Node20 -->
<g id="edge31" class="edge"><title>Node19&#45;&gt;Node20</title>
<path fill="none" stroke="midnightblue" d="M392.807,-168.444C413.287,-159.596 445.483,-145.687 468.865,-135.586"/>
<polygon fill="midnightblue" stroke="midnightblue" points="470.494,-138.695 478.286,-131.516 467.718,-132.269 470.494,-138.695"/>
</g>
<!-- Node20&#45;&gt;Node4 -->
<g id="edge32" class="edge"><title>Node20&#45;&gt;Node4</title>
<path fill="none" stroke="midnightblue" d="M488.36,-112.324C479.49,-104.341 466.125,-92.3128 455.392,-82.6529"/>
<polygon fill="midnightblue" stroke="midnightblue" points="457.59,-79.922 447.815,-75.8339 452.907,-85.1251 457.59,-79.922"/>
</g>
<!-- Node20&#45;&gt;Node5 -->
<g id="edge33" class="edge"><title>Node20&#45;&gt;Node5</title>
<path fill="none" stroke="midnightblue" d="M511.014,-112.324C523.532,-103.979 542.682,-91.2122 557.471,-81.3524"/>
<polygon fill="midnightblue" stroke="midnightblue" points="559.639,-84.1137 566.018,-75.6545 555.756,-78.2894 559.639,-84.1137"/>
</g>
<!-- Node20&#45;&gt;Node14 -->
<g id="edge34" class="edge"><title>Node20&#45;&gt;Node14</title>
<path fill="none" stroke="midnightblue" d="M470.746,-112.444C440.915,-103.078 393.021,-88.0415 360.57,-77.8532"/>
<polygon fill="midnightblue" stroke="midnightblue" points="361.208,-74.3852 350.618,-74.729 359.111,-81.0638 361.208,-74.3852"/>
</g>
<!-- Node21&#45;&gt;Node3 -->
<g id="edge39" class="edge"><title>Node21&#45;&gt;Node3</title>
<path fill="none" stroke="midnightblue" d="M524.479,-224.324C533.201,-216.341 546.343,-204.313 556.898,-194.653"/>
<polygon fill="midnightblue" stroke="midnightblue" points="559.334,-197.167 564.348,-187.834 554.608,-192.004 559.334,-197.167"/>
</g>
<!-- Node21&#45;&gt;Node20 -->
<g id="edge40" class="edge"><title>Node21&#45;&gt;Node20</title>
<path fill="none" stroke="midnightblue" d="M513.666,-224.368C510.923,-206.617 504.594,-165.666 500.874,-141.597"/>
<polygon fill="midnightblue" stroke="midnightblue" points="504.314,-140.94 499.328,-131.591 497.396,-142.009 504.314,-140.94"/>
</g>
<!-- Node22&#45;&gt;Node3 -->
<g id="edge43" class="edge"><title>Node22&#45;&gt;Node3</title>
<path fill="none" stroke="midnightblue" d="M685.926,-224.444C663.94,-215.517 629.266,-201.439 604.336,-191.317"/>
<polygon fill="midnightblue" stroke="midnightblue" points="605.558,-188.035 594.976,-187.516 602.924,-194.521 605.558,-188.035"/>
</g>
<!-- Node22&#45;&gt;Node15 -->
<g id="edge42" class="edge"><title>Node22&#45;&gt;Node15</title>
<path fill="none" stroke="midnightblue" d="M707.039,-224.297C707.186,-191.633 707.708,-75.8661 707.915,-29.9573"/>
<polygon fill="midnightblue" stroke="midnightblue" points="711.415,-29.8994 707.96,-19.8837 704.415,-29.8678 711.415,-29.8994"/>
</g>
<!-- Node23&#45;&gt;Node4 -->
<g id="edge45" class="edge"><title>Node23&#45;&gt;Node4</title>
<path fill="none" stroke="midnightblue" d="M736.256,-115.221C670.714,-104.624 532.303,-82.2467 469.809,-72.1427"/>
<polygon fill="midnightblue" stroke="midnightblue" points="470.184,-68.6581 459.754,-70.5171 469.067,-75.5683 470.184,-68.6581"/>
</g>
<!-- Node23&#45;&gt;Node15 -->
<g id="edge46" class="edge"><title>Node23&#45;&gt;Node15</title>
<path fill="none" stroke="midnightblue" d="M766.978,-112.368C756.463,-94.2957 731.957,-52.1764 718.07,-28.3074"/>
<polygon fill="midnightblue" stroke="midnightblue" points="721.053,-26.4748 712.999,-19.5914 715.002,-29.9951 721.053,-26.4748"/>
</g>
</g>
</svg>
