<?xml version="1.0" encoding="UTF-8" standalone="no"?>
<!DOCTYPE svg PUBLIC "-//W3C//DTD SVG 1.1//EN"
 "http://www.w3.org/Graphics/SVG/1.1/DTD/svg11.dtd">
<!-- Generated by graphviz version 2.38.0 (20140413.2041)
 -->
<!-- Title: SharedPtr&lt; T &gt; Pages: 1 -->
<svg width="92pt" height="95pt"
 viewBox="0.00 0.00 92.00 95.00" xmlns="http://www.w3.org/2000/svg" xmlns:xlink="http://www.w3.org/1999/xlink">
<g id="graph0" class="graph" transform="scale(1 1) rotate(0) translate(4 91)">
<title>SharedPtr&lt; T &gt;</title>
<polygon fill="white" stroke="none" points="-4,4 -4,-91 88,-91 88,4 -4,4"/>
<!-- Node24 -->
<g id="node1" class="node"><title>Node24</title>
<polygon fill="#bfbfbf" stroke="black" points="-7.10543e-15,-0.5 -7.10543e-15,-19.5 84,-19.5 84,-0.5 -7.10543e-15,-0.5"/>
<text text-anchor="middle" x="42" y="-7.5" font-family="Helvetica,sans-Serif" font-size="10.00">SharedPtr&lt; T &gt;</text>
</g>
<!-- Node25 -->
<g id="node2" class="node"><title>Node25</title>
<polygon fill="white" stroke="#bfbfbf" points="27.5,-67.5 27.5,-86.5 56.5,-86.5 56.5,-67.5 27.5,-67.5"/>
<text text-anchor="middle" x="42" y="-74.5" font-family="Helvetica,sans-Serif" font-size="10.00">T</text>
</g>
<!-- Node25&#45;&gt;Node24 -->
<g id="edge1" class="edge"><title>Node25&#45;&gt;Node24</title>
<path fill="none" stroke="#9a32cd" stroke-dasharray="5,2" d="M42,-57.037C42,-44.6703 42,-29.1198 42,-19.6273"/>
<polygon fill="#9a32cd" stroke="#9a32cd" points="38.5001,-57.2338 42,-67.2338 45.5001,-57.2338 38.5001,-57.2338"/>
<text text-anchor="middle" x="56" y="-41" font-family="Helvetica,sans-Serif" font-size="10.00"> m_ptr</text>
</g>
</g>
</svg>
