<?xml version="1.0" encoding="UTF-8" standalone="no"?>
<!DOCTYPE svg PUBLIC "-//W3C//DTD SVG 1.1//EN"
 "http://www.w3.org/Graphics/SVG/1.1/DTD/svg11.dtd">
<!-- Generated by graphviz version 2.38.0 (20140413.2041)
 -->
<!-- Title: TemplateNodeRange Pages: 1 -->
<svg width="233pt" height="220pt"
 viewBox="0.00 0.00 232.50 220.00" xmlns="http://www.w3.org/2000/svg" xmlns:xlink="http://www.w3.org/1999/xlink">
<g id="graph0" class="graph" transform="scale(1 1) rotate(0) translate(4 216)">
<title>TemplateNodeRange</title>
<polygon fill="white" stroke="none" points="-4,4 -4,-216 228.5,-216 228.5,4 -4,4"/>
<!-- Node0 -->
<g id="node1" class="node"><title>Node0</title>
<polygon fill="#bfbfbf" stroke="black" points="9,-0.5 9,-19.5 118,-19.5 118,-0.5 9,-0.5"/>
<text text-anchor="middle" x="63.5" y="-7.5" font-family="Helvetica,sans-Serif" font-size="10.00">TemplateNodeRange</text>
</g>
<!-- Node1 -->
<g id="node2" class="node"><title>Node1</title>
<g id="a_node2"><a xlink:href="../../d8/d78/class_template_node_creator.html" target="_top" xlink:title="TemplateNodeCreator\l\&lt; TemplateNodeRange \&gt;">
<polygon fill="white" stroke="black" points="0,-57.5 0,-87.5 127,-87.5 127,-57.5 0,-57.5"/>
<text text-anchor="start" x="8" y="-75.5" font-family="Helvetica,sans-Serif" font-size="10.00">TemplateNodeCreator</text>
<text text-anchor="middle" x="63.5" y="-64.5" font-family="Helvetica,sans-Serif" font-size="10.00">&lt; TemplateNodeRange &gt;</text>
</a>
</g>
</g>
<!-- Node1&#45;&gt;Node0 -->
<g id="edge1" class="edge"><title>Node1&#45;&gt;Node0</title>
<path fill="none" stroke="midnightblue" d="M63.5,-47.3524C63.5,-37.5132 63.5,-26.7753 63.5,-19.5399"/>
<polygon fill="midnightblue" stroke="midnightblue" points="60.0001,-47.468 63.5,-57.468 67.0001,-47.4681 60.0001,-47.468"/>
</g>
<!-- Node2 -->
<g id="node3" class="node"><title>Node2</title>
<g id="a_node3"><a xlink:href="../../d6/d53/class_template_node.html" target="_top" xlink:title="Base class of all nodes in a template&#39;s AST. ">
<polygon fill="white" stroke="black" points="37.5,-192.5 37.5,-211.5 117.5,-211.5 117.5,-192.5 37.5,-192.5"/>
<text text-anchor="middle" x="77.5" y="-199.5" font-family="Helvetica,sans-Serif" font-size="10.00">TemplateNode</text>
</a>
</g>
</g>
<!-- Node2&#45;&gt;Node1 -->
<g id="edge2" class="edge"><title>Node2&#45;&gt;Node1</title>
<path fill="none" stroke="midnightblue" d="M72.1925,-182.502C70.0316,-174.169 67.7518,-164.164 66.5,-155 63.2998,-131.572 62.9982,-104.028 63.1753,-87.7075"/>
<polygon fill="midnightblue" stroke="midnightblue" points="68.8528,-183.558 74.8681,-192.28 75.6046,-181.71 68.8528,-183.558"/>
</g>
<!-- Node3 -->
<g id="node4" class="node"><title>Node3</title>
<g id="a_node4"><a xlink:href="../../d8/d78/class_template_node_creator.html" target="_top" xlink:title="Helper class for creating template AST tag nodes and returning the template for a given node...">
<polygon fill="white" stroke="black" points="76,-135.5 76,-154.5 213,-154.5 213,-135.5 76,-135.5"/>
<text text-anchor="middle" x="144.5" y="-142.5" font-family="Helvetica,sans-Serif" font-size="10.00">TemplateNodeCreator&lt; T &gt;</text>
</a>
</g>
</g>
<!-- Node2&#45;&gt;Node3 -->
<g id="edge4" class="edge"><title>Node2&#45;&gt;Node3</title>
<path fill="none" stroke="midnightblue" d="M95.7748,-185.998C108.001,-175.962 123.664,-163.104 133.884,-154.715"/>
<polygon fill="midnightblue" stroke="midnightblue" points="93.4773,-183.356 87.9688,-192.406 97.9188,-188.767 93.4773,-183.356"/>
</g>
<!-- Node3&#45;&gt;Node1 -->
<g id="edge3" class="edge"><title>Node3&#45;&gt;Node1</title>
<path fill="none" stroke="orange" stroke-dasharray="5,2" d="M127.018,-128.784C112.962,-116.551 93.3689,-99.497 79.6726,-87.5762"/>
<polygon fill="orange" stroke="orange" points="124.727,-131.43 134.568,-135.355 129.323,-126.15 124.727,-131.43"/>
<text text-anchor="middle" x="167.5" y="-109" font-family="Helvetica,sans-Serif" font-size="10.00"> &lt; TemplateNodeRange &gt;</text>
</g>
</g>
</svg>
