<?xml version="1.0" encoding="UTF-8" standalone="no"?>
<!DOCTYPE svg PUBLIC "-//W3C//DTD SVG 1.1//EN"
 "http://www.w3.org/Graphics/SVG/1.1/DTD/svg11.dtd">
<!-- Generated by graphviz version 2.38.0 (20140413.2041)
 -->
<!-- Title: src/groupdef.h Pages: 1 -->
<svg width="262pt" height="196pt"
 viewBox="0.00 0.00 261.50 196.00" xmlns="http://www.w3.org/2000/svg" xmlns:xlink="http://www.w3.org/1999/xlink">
<g id="graph0" class="graph" transform="scale(1 1) rotate(0) translate(4 192)">
<title>src/groupdef.h</title>
<polygon fill="white" stroke="none" points="-4,4 -4,-192 257.5,-192 257.5,4 -4,4"/>
<!-- Node0 -->
<g id="node1" class="node"><title>Node0</title>
<polygon fill="#bfbfbf" stroke="black" points="85,-168.5 85,-187.5 164,-187.5 164,-168.5 85,-168.5"/>
<text text-anchor="middle" x="124.5" y="-175.5" font-family="Helvetica,sans-Serif" font-size="10.00">src/groupdef.h</text>
</g>
<!-- Node1 -->
<g id="node2" class="node"><title>Node1</title>
<g id="a_node2"><a xlink:href="../../d9/d21/sortdict_8h.html" target="_top" xlink:title="sortdict.h">
<polygon fill="white" stroke="black" points="136,-112.5 136,-131.5 193,-131.5 193,-112.5 136,-112.5"/>
<text text-anchor="middle" x="164.5" y="-119.5" font-family="Helvetica,sans-Serif" font-size="10.00">sortdict.h</text>
</a>
</g>
</g>
<!-- Node0&#45;&gt;Node1 -->
<g id="edge1" class="edge"><title>Node0&#45;&gt;Node1</title>
<path fill="none" stroke="midnightblue" d="M131.105,-168.083C136.755,-160.455 145.045,-149.264 151.951,-139.941"/>
<polygon fill="midnightblue" stroke="midnightblue" points="154.878,-141.87 158.018,-131.751 149.253,-137.703 154.878,-141.87"/>
</g>
<!-- Node5 -->
<g id="node6" class="node"><title>Node5</title>
<g id="a_node6"><a xlink:href="../../df/da1/definition_8h.html" target="_top" xlink:title="definition.h">
<polygon fill="white" stroke="black" points="53.5,-112.5 53.5,-131.5 117.5,-131.5 117.5,-112.5 53.5,-112.5"/>
<text text-anchor="middle" x="85.5" y="-119.5" font-family="Helvetica,sans-Serif" font-size="10.00">definition.h</text>
</a>
</g>
</g>
<!-- Node0&#45;&gt;Node5 -->
<g id="edge5" class="edge"><title>Node0&#45;&gt;Node5</title>
<path fill="none" stroke="midnightblue" d="M118.06,-168.083C112.551,-160.455 104.469,-149.264 97.735,-139.941"/>
<polygon fill="midnightblue" stroke="midnightblue" points="100.513,-137.809 91.8202,-131.751 94.8378,-141.907 100.513,-137.809"/>
</g>
<!-- Node2 -->
<g id="node3" class="node"><title>Node2</title>
<polygon fill="white" stroke="#bfbfbf" points="72,-56.5 72,-75.5 115,-75.5 115,-56.5 72,-56.5"/>
<text text-anchor="middle" x="93.5" y="-63.5" font-family="Helvetica,sans-Serif" font-size="10.00">qlist.h</text>
</g>
<!-- Node1&#45;&gt;Node2 -->
<g id="edge2" class="edge"><title>Node1&#45;&gt;Node2</title>
<path fill="none" stroke="midnightblue" d="M153.093,-112.324C142.391,-104.185 126.159,-91.8395 113.337,-82.0874"/>
<polygon fill="midnightblue" stroke="midnightblue" points="115.193,-79.1018 105.115,-75.8339 110.956,-84.6734 115.193,-79.1018"/>
</g>
<!-- Node3 -->
<g id="node4" class="node"><title>Node3</title>
<polygon fill="white" stroke="#bfbfbf" points="133.5,-56.5 133.5,-75.5 179.5,-75.5 179.5,-56.5 133.5,-56.5"/>
<text text-anchor="middle" x="156.5" y="-63.5" font-family="Helvetica,sans-Serif" font-size="10.00">qdict.h</text>
</g>
<!-- Node1&#45;&gt;Node3 -->
<g id="edge3" class="edge"><title>Node1&#45;&gt;Node3</title>
<path fill="none" stroke="midnightblue" d="M163.179,-112.083C162.119,-104.927 160.594,-94.6353 159.269,-85.6911"/>
<polygon fill="midnightblue" stroke="midnightblue" points="162.724,-85.1302 157.796,-75.7511 155.8,-86.1561 162.724,-85.1302"/>
</g>
<!-- Node4 -->
<g id="node5" class="node"><title>Node4</title>
<polygon fill="white" stroke="#bfbfbf" points="197.5,-56.5 197.5,-75.5 253.5,-75.5 253.5,-56.5 197.5,-56.5"/>
<text text-anchor="middle" x="225.5" y="-63.5" font-family="Helvetica,sans-Serif" font-size="10.00">qintdict.h</text>
</g>
<!-- Node1&#45;&gt;Node4 -->
<g id="edge4" class="edge"><title>Node1&#45;&gt;Node4</title>
<path fill="none" stroke="midnightblue" d="M174.301,-112.324C183.318,-104.341 196.906,-92.3128 207.818,-82.6529"/>
<polygon fill="midnightblue" stroke="midnightblue" points="210.353,-85.083 215.521,-75.8339 205.713,-79.8416 210.353,-85.083"/>
</g>
<!-- Node5&#45;&gt;Node2 -->
<g id="edge6" class="edge"><title>Node5&#45;&gt;Node2</title>
<path fill="none" stroke="midnightblue" d="M86.821,-112.083C87.8811,-104.927 89.4059,-94.6353 90.7309,-85.6911"/>
<polygon fill="midnightblue" stroke="midnightblue" points="94.2002,-86.1561 92.2035,-75.7511 87.2758,-85.1302 94.2002,-86.1561"/>
</g>
<!-- Node5&#45;&gt;Node3 -->
<g id="edge7" class="edge"><title>Node5&#45;&gt;Node3</title>
<path fill="none" stroke="midnightblue" d="M96.9074,-112.324C107.609,-104.185 123.841,-91.8395 136.663,-82.0874"/>
<polygon fill="midnightblue" stroke="midnightblue" points="139.044,-84.6734 144.885,-75.8339 134.807,-79.1018 139.044,-84.6734"/>
</g>
<!-- Node6 -->
<g id="node7" class="node"><title>Node6</title>
<g id="a_node7"><a xlink:href="../../d9/d49/types_8h.html" target="_top" xlink:title="This file contains a number of basic enums and types. ">
<polygon fill="white" stroke="black" points="5,-56.5 5,-75.5 54,-75.5 54,-56.5 5,-56.5"/>
<text text-anchor="middle" x="29.5" y="-63.5" font-family="Helvetica,sans-Serif" font-size="10.00">types.h</text>
</a>
</g>
</g>
<!-- Node5&#45;&gt;Node6 -->
<g id="edge8" class="edge"><title>Node5&#45;&gt;Node6</title>
<path fill="none" stroke="midnightblue" d="M76.5026,-112.324C68.3056,-104.42 55.9945,-92.5482 46.028,-82.9377"/>
<polygon fill="midnightblue" stroke="midnightblue" points="48.289,-80.2558 38.6611,-75.8339 43.4301,-85.2947 48.289,-80.2558"/>
</g>
<!-- Node7 -->
<g id="node8" class="node"><title>Node7</title>
<polygon fill="white" stroke="#bfbfbf" points="0,-0.5 0,-19.5 59,-19.5 59,-0.5 0,-0.5"/>
<text text-anchor="middle" x="29.5" y="-7.5" font-family="Helvetica,sans-Serif" font-size="10.00">qcstring.h</text>
</g>
<!-- Node6&#45;&gt;Node7 -->
<g id="edge9" class="edge"><title>Node6&#45;&gt;Node7</title>
<path fill="none" stroke="midnightblue" d="M29.5,-56.083C29.5,-49.0059 29.5,-38.8611 29.5,-29.9865"/>
<polygon fill="midnightblue" stroke="midnightblue" points="33.0001,-29.751 29.5,-19.7511 26.0001,-29.7511 33.0001,-29.751"/>
</g>
</g>
</svg>
