<?xml version="1.0" encoding="UTF-8" standalone="no"?>
<!DOCTYPE svg PUBLIC "-//W3C//DTD SVG 1.1//EN"
 "http://www.w3.org/Graphics/SVG/1.1/DTD/svg11.dtd">
<!-- Generated by graphviz version 2.38.0 (20140413.2041)
 -->
<!-- Title: DocHRef Pages: 1 -->
<svg width="218pt" height="152pt"
 viewBox="0.00 0.00 217.50 152.00" xmlns="http://www.w3.org/2000/svg" xmlns:xlink="http://www.w3.org/1999/xlink">
<g id="graph0" class="graph" transform="scale(1 1) rotate(0) translate(4 148)">
<title>DocHRef</title>
<polygon fill="white" stroke="none" points="-4,4 -4,-148 213.5,-148 213.5,4 -4,4"/>
<!-- Node0 -->
<g id="node1" class="node"><title>Node0</title>
<polygon fill="#bfbfbf" stroke="black" points="122.5,-0.5 122.5,-19.5 180.5,-19.5 180.5,-0.5 122.5,-0.5"/>
<text text-anchor="middle" x="151.5" y="-7.5" font-family="Helvetica,sans-Serif" font-size="10.00">DocHRef</text>
</g>
<!-- Node1 -->
<g id="node2" class="node"><title>Node1</title>
<g id="a_node2"><a xlink:href="../../d7/da3/class_comp_accept.html" target="_top" xlink:title="CompAccept\&lt; DocHRef \&gt;">
<polygon fill="white" stroke="black" points="0,-57.5 0,-76.5 133,-76.5 133,-57.5 0,-57.5"/>
<text text-anchor="middle" x="66.5" y="-64.5" font-family="Helvetica,sans-Serif" font-size="10.00">CompAccept&lt; DocHRef &gt;</text>
</a>
</g>
</g>
<!-- Node1&#45;&gt;Node0 -->
<g id="edge1" class="edge"><title>Node1&#45;&gt;Node0</title>
<path fill="none" stroke="midnightblue" d="M88.4077,-51.8244C104.201,-41.605 124.998,-28.1483 138.312,-19.5334"/>
<polygon fill="midnightblue" stroke="midnightblue" points="86.2756,-49.0352 79.7812,-57.4062 90.0784,-54.9122 86.2756,-49.0352"/>
</g>
<!-- Node2 -->
<g id="node3" class="node"><title>Node2</title>
<g id="a_node3"><a xlink:href="../../d7/da3/class_comp_accept.html" target="_top" xlink:title="Default accept implementation for compound nodes in the abstract syntax tree. ">
<polygon fill="white" stroke="black" points="17.5,-124.5 17.5,-143.5 115.5,-143.5 115.5,-124.5 17.5,-124.5"/>
<text text-anchor="middle" x="66.5" y="-131.5" font-family="Helvetica,sans-Serif" font-size="10.00">CompAccept&lt; T &gt;</text>
</a>
</g>
</g>
<!-- Node2&#45;&gt;Node1 -->
<g id="edge2" class="edge"><title>Node2&#45;&gt;Node1</title>
<path fill="none" stroke="orange" stroke-dasharray="5,2" d="M66.5,-114.037C66.5,-101.67 66.5,-86.1198 66.5,-76.6273"/>
<polygon fill="orange" stroke="orange" points="63.0001,-114.234 66.5,-124.234 70.0001,-114.234 63.0001,-114.234"/>
<text text-anchor="middle" x="98" y="-98" font-family="Helvetica,sans-Serif" font-size="10.00"> &lt; DocHRef &gt;</text>
</g>
<!-- Node3 -->
<g id="node4" class="node"><title>Node3</title>
<g id="a_node4"><a xlink:href="../../d9/d0e/class_doc_node.html" target="_top" xlink:title="Abstract node interface with type information. ">
<polygon fill="white" stroke="black" points="151.5,-57.5 151.5,-76.5 209.5,-76.5 209.5,-57.5 151.5,-57.5"/>
<text text-anchor="middle" x="180.5" y="-64.5" font-family="Helvetica,sans-Serif" font-size="10.00">DocNode</text>
</a>
</g>
</g>
<!-- Node3&#45;&gt;Node0 -->
<g id="edge3" class="edge"><title>Node3&#45;&gt;Node0</title>
<path fill="none" stroke="midnightblue" d="M171.185,-48.334C166.142,-38.77 160.136,-27.3784 156.095,-19.7149"/>
<polygon fill="midnightblue" stroke="midnightblue" points="168.209,-50.193 175.969,-57.4062 174.401,-46.9281 168.209,-50.193"/>
</g>
</g>
</svg>
