<?xml version="1.0" encoding="UTF-8" standalone="no"?>
<!DOCTYPE svg PUBLIC "-//W3C//DTD SVG 1.1//EN"
 "http://www.w3.org/Graphics/SVG/1.1/DTD/svg11.dtd">
<!-- Generated by graphviz version 2.38.0 (20140413.2041)
 -->
<!-- Title: TextGeneratorHtml Pages: 1 -->
<svg width="194pt" height="95pt"
 viewBox="0.00 0.00 193.50 95.00" xmlns="http://www.w3.org/2000/svg" xmlns:xlink="http://www.w3.org/1999/xlink">
<g id="graph0" class="graph" transform="scale(1 1) rotate(0) translate(4 91)">
<title>TextGeneratorHtml</title>
<polygon fill="white" stroke="none" points="-4,4 -4,-91 189.5,-91 189.5,4 -4,4"/>
<!-- Node2 -->
<g id="node1" class="node"><title>Node2</title>
<polygon fill="#bfbfbf" stroke="black" points="47.5,-0.5 47.5,-19.5 147.5,-19.5 147.5,-0.5 47.5,-0.5"/>
<text text-anchor="middle" x="97.5" y="-7.5" font-family="Helvetica,sans-Serif" font-size="10.00">TextGeneratorHtml</text>
</g>
<!-- Node3 -->
<g id="node2" class="node"><title>Node3</title>
<g id="a_node2"><a xlink:href="../../d0/dcf/class_text_generator_intf.html" target="_top" xlink:title="Abstract interface for a hyperlinked text fragment. ">
<polygon fill="white" stroke="black" points="0,-67.5 0,-86.5 93,-86.5 93,-67.5 0,-67.5"/>
<text text-anchor="middle" x="46.5" y="-74.5" font-family="Helvetica,sans-Serif" font-size="10.00">TextGeneratorIntf</text>
</a>
</g>
</g>
<!-- Node3&#45;&gt;Node2 -->
<g id="edge1" class="edge"><title>Node3&#45;&gt;Node2</title>
<path fill="none" stroke="midnightblue" d="M59.6263,-59.2705C69.5699,-46.5972 82.8269,-29.701 90.7309,-19.6273"/>
<polygon fill="midnightblue" stroke="midnightblue" points="56.7974,-57.2059 53.3781,-67.2338 62.3046,-61.5269 56.7974,-57.2059"/>
</g>
<!-- Node4 -->
<g id="node3" class="node"><title>Node4</title>
<g id="a_node3"><a xlink:href="../../dc/d3c/class_f_text_stream.html" target="_top" xlink:title="Simplified and optimized version of QTextStream. ">
<polygon fill="white" stroke="black" points="111.5,-67.5 111.5,-86.5 185.5,-86.5 185.5,-67.5 111.5,-67.5"/>
<text text-anchor="middle" x="148.5" y="-74.5" font-family="Helvetica,sans-Serif" font-size="10.00">FTextStream</text>
</a>
</g>
</g>
<!-- Node4&#45;&gt;Node2 -->
<g id="edge2" class="edge"><title>Node4&#45;&gt;Node2</title>
<path fill="none" stroke="#9a32cd" stroke-dasharray="5,2" d="M135.374,-59.2705C125.43,-46.5972 112.173,-29.701 104.269,-19.6273"/>
<polygon fill="#9a32cd" stroke="#9a32cd" points="132.695,-61.5269 141.622,-67.2338 138.203,-57.2059 132.695,-61.5269"/>
<text text-anchor="middle" x="139" y="-41" font-family="Helvetica,sans-Serif" font-size="10.00"> m_ts</text>
</g>
</g>
</svg>
