<?xml version="1.0" encoding="UTF-8" standalone="no"?>
<!DOCTYPE svg PUBLIC "-//W3C//DTD SVG 1.1//EN"
 "http://www.w3.org/Graphics/SVG/1.1/DTD/svg11.dtd">
<!-- Generated by graphviz version 2.38.0 (20140413.2041)
 -->
<!-- Title: src/entry.h Pages: 1 -->
<!--zoomable 319 -->
<svg id="main" version="1.1" xmlns="http://www.w3.org/2000/svg" xmlns:xlink="http://www.w3.org/1999/xlink" xml:space="preserve" onload="init(evt)">
<style type="text/css"><![CDATA[
.edge:hover path { stroke: red; }
.edge:hover polygon { stroke: red; fill: red; }
]]></style>
<script type="text/javascript"><![CDATA[
var edges = document.getElementsByTagName('g');
if (edges && edges.length) {
  for (var i=0;i<edges.length;i++) {
    if (edges[i].id.substr(0,4)=='edge') {
      edges[i].setAttribute('class','edge');
    }
  }
}
]]></script>
        <defs>
                <circle id="rim" cx="0" cy="0" r="7"/>
                <circle id="rim2" cx="0" cy="0" r="3.5"/>
                <g id="zoomPlus">
                        <use xlink:href="#rim" fill="#404040">
                                <set attributeName="fill" to="#808080" begin="zoomplus.mouseover" end="zoomplus.mouseout"/>
                        </use>
                        <path d="M-4,0h8M0,-4v8" fill="none" stroke="white" stroke-width="1.5" pointer-events="none"/>
                </g>
                <g id="zoomMin">
                        <use xlink:href="#rim" fill="#404040">
                                <set attributeName="fill" to="#808080" begin="zoomminus.mouseover" end="zoomminus.mouseout"/>
                        </use>
                        <path d="M-4,0h8" fill="none" stroke="white" stroke-width="1.5" pointer-events="none"/>
                </g>
                <g id="dirArrow">
                        <path fill="none" stroke="white" stroke-width="1.5" d="M0,-3.0v7 M-2.5,-0.5L0,-3.0L2.5,-0.5"/>
                </g>
               <g id="resetDef">
                       <use xlink:href="#rim2" fill="#404040">
                               <set attributeName="fill" to="#808080" begin="reset.mouseover" end="reset.mouseout"/>
                       </use>
               </g>
        </defs>

<script type="text/javascript">
var viewWidth = 2252;
var viewHeight = 319;
var sectionId = 'dynsection-1';
</script>
<script xlink:href="../../svgpan.js"/>
<svg id="graph" class="graph">
<g id="viewport">
<title>src/entry.h</title>
<polygon fill="white" stroke="none" points="-4,4 -4,-315 2247.5,-315 2247.5,4 -4,4"/>
<!-- Node5 -->
<g id="node1" class="node"><title>Node5</title>
<polygon fill="#bfbfbf" stroke="black" points="1188.5,-291.5 1188.5,-310.5 1251.5,-310.5 1251.5,-291.5 1188.5,-291.5"/>
<text text-anchor="middle" x="1220" y="-298.5" font-family="Helvetica,sans-Serif" font-size="10.00">src/entry.h</text>
</g>
<!-- Node6 -->
<g id="node2" class="node"><title>Node6</title>
<g id="a_node2"><a xlink:href="../../de/d89/classdef_8cpp.html" target="_top" xlink:title="src/classdef.cpp">
<polygon fill="white" stroke="black" points="208.5,-179.5 208.5,-198.5 297.5,-198.5 297.5,-179.5 208.5,-179.5"/>
<text text-anchor="middle" x="253" y="-186.5" font-family="Helvetica,sans-Serif" font-size="10.00">src/classdef.cpp</text>
</a>
</g>
</g>
<!-- Node5&#45;&gt;Node6 -->
<g id="edge1" class="edge"><title>Node5&#45;&gt;Node6</title>
<path fill="none" stroke="midnightblue" d="M1178.28,-296.744C1093.4,-289.995 894.529,-273.554 728,-255 538.212,-233.855 490.638,-228.703 302,-199 300.548,-198.771 299.072,-198.533 297.583,-198.288"/>
<polygon fill="midnightblue" stroke="midnightblue" points="1178.05,-300.237 1188.3,-297.537 1178.61,-293.258 1178.05,-300.237"/>
</g>
<!-- Node7 -->
<g id="node3" class="node"><title>Node7</title>
<g id="a_node3"><a xlink:href="../../dd/dec/vhdldocgen_8h.html" target="_top" xlink:title="src/vhdldocgen.h">
<polygon fill="white" stroke="black" points="1030.5,-235.5 1030.5,-254.5 1121.5,-254.5 1121.5,-235.5 1030.5,-235.5"/>
<text text-anchor="middle" x="1076" y="-242.5" font-family="Helvetica,sans-Serif" font-size="10.00">src/vhdldocgen.h</text>
</a>
</g>
</g>
<!-- Node5&#45;&gt;Node7 -->
<g id="edge2" class="edge"><title>Node5&#45;&gt;Node7</title>
<path fill="none" stroke="midnightblue" d="M1187.75,-287.906C1160.68,-277.754 1122.68,-263.506 1098.71,-254.516"/>
<polygon fill="midnightblue" stroke="midnightblue" points="1186.59,-291.209 1197.18,-291.444 1189.05,-284.655 1186.59,-291.209"/>
</g>
<!-- Node13 -->
<g id="node9" class="node"><title>Node13</title>
<g id="a_node9"><a xlink:href="../../d2/d55/vhdljjparser_8h.html" target="_top" xlink:title="src/vhdljjparser.h">
<polygon fill="white" stroke="black" points="354.5,-179.5 354.5,-198.5 445.5,-198.5 445.5,-179.5 354.5,-179.5"/>
<text text-anchor="middle" x="400" y="-186.5" font-family="Helvetica,sans-Serif" font-size="10.00">src/vhdljjparser.h</text>
</a>
</g>
</g>
<!-- Node5&#45;&gt;Node13 -->
<g id="edge37" class="edge"><title>Node5&#45;&gt;Node13</title>
<path fill="none" stroke="midnightblue" d="M1178.39,-294.719C1063.77,-280.119 733.818,-237.728 460,-199 455.307,-198.336 450.41,-197.628 445.525,-196.911"/>
<polygon fill="midnightblue" stroke="midnightblue" points="1178.12,-298.213 1188.48,-296.004 1179,-291.269 1178.12,-298.213"/>
</g>
<!-- Node14 -->
<g id="node10" class="node"><title>Node14</title>
<g id="a_node10"><a xlink:href="../../dc/d98/doxygen_8cpp.html" target="_top" xlink:title="src/doxygen.cpp">
<polygon fill="white" stroke="black" points="135.5,-123.5 135.5,-142.5 224.5,-142.5 224.5,-123.5 135.5,-123.5"/>
<text text-anchor="middle" x="180" y="-130.5" font-family="Helvetica,sans-Serif" font-size="10.00">src/doxygen.cpp</text>
</a>
</g>
</g>
<!-- Node5&#45;&gt;Node14 -->
<g id="edge36" class="edge"><title>Node5&#45;&gt;Node14</title>
<path fill="none" stroke="midnightblue" d="M1178.17,-298.468C1073.01,-294.336 789.204,-281.444 554,-255 395.271,-237.154 318.934,-304.495 199,-199 182.58,-184.557 179.99,-156.788 179.802,-142.682"/>
<polygon fill="midnightblue" stroke="midnightblue" points="1178.24,-301.973 1188.36,-298.863 1178.51,-294.978 1178.24,-301.973"/>
</g>
<!-- Node21 -->
<g id="node17" class="node"><title>Node21</title>
<g id="a_node17"><a xlink:href="../../d6/ddc/filedef_8cpp.html" target="_top" xlink:title="src/filedef.cpp">
<polygon fill="white" stroke="black" points="2058,-179.5 2058,-198.5 2136,-198.5 2136,-179.5 2058,-179.5"/>
<text text-anchor="middle" x="2097" y="-186.5" font-family="Helvetica,sans-Serif" font-size="10.00">src/filedef.cpp</text>
</a>
</g>
</g>
<!-- Node5&#45;&gt;Node21 -->
<g id="edge39" class="edge"><title>Node5&#45;&gt;Node21</title>
<path fill="none" stroke="midnightblue" d="M1197.73,-285.225C1179.52,-271.401 1159.03,-250.601 1174,-235 1207.69,-199.898 2000.66,-204.497 2049,-199 2051.86,-198.674 2054.81,-198.276 2057.78,-197.831"/>
<polygon fill="midnightblue" stroke="midnightblue" points="1196.16,-288.405 1206.32,-291.397 1200.24,-282.72 1196.16,-288.405"/>
</g>
<!-- Node22 -->
<g id="node18" class="node"><title>Node22</title>
<g id="a_node18"><a xlink:href="../../d6/d42/groupdef_8cpp.html" target="_top" xlink:title="src/groupdef.cpp">
<polygon fill="white" stroke="black" points="2154.5,-179.5 2154.5,-198.5 2243.5,-198.5 2243.5,-179.5 2154.5,-179.5"/>
<text text-anchor="middle" x="2199" y="-186.5" font-family="Helvetica,sans-Serif" font-size="10.00">src/groupdef.cpp</text>
</a>
</g>
</g>
<!-- Node5&#45;&gt;Node22 -->
<g id="edge40" class="edge"><title>Node5&#45;&gt;Node22</title>
<path fill="none" stroke="midnightblue" d="M1208.93,-282.048C1201.51,-267.482 1195.07,-247.397 1207,-235 1243.16,-197.424 2093.12,-204.297 2145,-199 2148.03,-198.691 2151.14,-198.319 2154.27,-197.904"/>
<polygon fill="midnightblue" stroke="midnightblue" points="1206.06,-284.085 1214.01,-291.088 1212.16,-280.656 1206.06,-284.085"/>
</g>
<!-- Node32 -->
<g id="node28" class="node"><title>Node32</title>
<g id="a_node28"><a xlink:href="../../d2/dd2/entry_8cpp.html" target="_top" xlink:title="src/entry.cpp">
<polygon fill="white" stroke="black" points="1216,-235.5 1216,-254.5 1290,-254.5 1290,-235.5 1216,-235.5"/>
<text text-anchor="middle" x="1253" y="-242.5" font-family="Helvetica,sans-Serif" font-size="10.00">src/entry.cpp</text>
</a>
</g>
</g>
<!-- Node5&#45;&gt;Node32 -->
<g id="edge38" class="edge"><title>Node5&#45;&gt;Node32</title>
<path fill="none" stroke="midnightblue" d="M1230.83,-282.275C1236.47,-273.045 1243.12,-262.17 1247.65,-254.751"/>
<polygon fill="midnightblue" stroke="midnightblue" points="1227.68,-280.725 1225.45,-291.083 1233.65,-284.375 1227.68,-280.725"/>
</g>
<!-- Node33 -->
<g id="node29" class="node"><title>Node33</title>
<g id="a_node29"><a xlink:href="../../de/d04/markdown_8cpp.html" target="_top" xlink:title="src/markdown.cpp">
<polygon fill="white" stroke="black" points="1308.5,-235.5 1308.5,-254.5 1405.5,-254.5 1405.5,-235.5 1308.5,-235.5"/>
<text text-anchor="middle" x="1357" y="-242.5" font-family="Helvetica,sans-Serif" font-size="10.00">src/markdown.cpp</text>
</a>
</g>
</g>
<!-- Node5&#45;&gt;Node33 -->
<g id="edge41" class="edge"><title>Node5&#45;&gt;Node33</title>
<path fill="none" stroke="midnightblue" d="M1251.02,-287.772C1276.76,-277.629 1312.69,-263.467 1335.39,-254.516"/>
<polygon fill="midnightblue" stroke="midnightblue" points="1249.73,-284.52 1241.71,-291.444 1252.29,-291.033 1249.73,-284.52"/>
</g>
<!-- Node34 -->
<g id="node30" class="node"><title>Node34</title>
<g id="a_node30"><a xlink:href="../../d9/d85/marshal_8cpp.html" target="_top" xlink:title="src/marshal.cpp">
<polygon fill="white" stroke="black" points="1424,-235.5 1424,-254.5 1510,-254.5 1510,-235.5 1424,-235.5"/>
<text text-anchor="middle" x="1467" y="-242.5" font-family="Helvetica,sans-Serif" font-size="10.00">src/marshal.cpp</text>
</a>
</g>
</g>
<!-- Node5&#45;&gt;Node34 -->
<g id="edge42" class="edge"><title>Node5&#45;&gt;Node34</title>
<path fill="none" stroke="midnightblue" d="M1261.56,-290.914C1307.98,-280.766 1382.54,-264.464 1427.93,-254.542"/>
<polygon fill="midnightblue" stroke="midnightblue" points="1260.56,-287.551 1251.53,-293.106 1262.05,-294.389 1260.56,-287.551"/>
</g>
<!-- Node35 -->
<g id="node31" class="node"><title>Node35</title>
<g id="a_node31"><a xlink:href="../../d6/d18/membergroup_8cpp.html" target="_top" xlink:title="src/membergroup.cpp">
<polygon fill="white" stroke="black" points="1528.5,-235.5 1528.5,-254.5 1639.5,-254.5 1639.5,-235.5 1528.5,-235.5"/>
<text text-anchor="middle" x="1584" y="-242.5" font-family="Helvetica,sans-Serif" font-size="10.00">src/membergroup.cpp</text>
</a>
</g>
</g>
<!-- Node5&#45;&gt;Node35 -->
<g id="edge43" class="edge"><title>Node5&#45;&gt;Node35</title>
<path fill="none" stroke="midnightblue" d="M1261.65,-293.821C1327.31,-284.08 1454.94,-265.146 1528.37,-254.253"/>
<polygon fill="midnightblue" stroke="midnightblue" points="1261.04,-290.373 1251.67,-295.302 1262.07,-297.297 1261.04,-290.373"/>
</g>
<!-- Node36 -->
<g id="node32" class="node"><title>Node36</title>
<g id="a_node32"><a xlink:href="../../d4/d7b/tagreader_8cpp.html" target="_top" xlink:title="src/tagreader.cpp">
<polygon fill="white" stroke="black" points="1658,-235.5 1658,-254.5 1750,-254.5 1750,-235.5 1658,-235.5"/>
<text text-anchor="middle" x="1704" y="-242.5" font-family="Helvetica,sans-Serif" font-size="10.00">src/tagreader.cpp</text>
</a>
</g>
</g>
<!-- Node5&#45;&gt;Node36 -->
<g id="edge44" class="edge"><title>Node5&#45;&gt;Node36</title>
<path fill="none" stroke="midnightblue" d="M1261.78,-296.425C1338.6,-289.671 1507.4,-273.996 1649,-255 1651.88,-254.614 1654.83,-254.195 1657.82,-253.756"/>
<polygon fill="midnightblue" stroke="midnightblue" points="1261.22,-292.96 1251.56,-297.318 1261.83,-299.933 1261.22,-292.96"/>
</g>
<!-- Node37 -->
<g id="node33" class="node"><title>Node37</title>
<g id="a_node33"><a xlink:href="../../df/d2d/util_8cpp.html" target="_top" xlink:title="src/util.cpp">
<polygon fill="white" stroke="black" points="1768.5,-235.5 1768.5,-254.5 1833.5,-254.5 1833.5,-235.5 1768.5,-235.5"/>
<text text-anchor="middle" x="1801" y="-242.5" font-family="Helvetica,sans-Serif" font-size="10.00">src/util.cpp</text>
</a>
</g>
</g>
<!-- Node5&#45;&gt;Node37 -->
<g id="edge45" class="edge"><title>Node5&#45;&gt;Node37</title>
<path fill="none" stroke="midnightblue" d="M1261.93,-298.326C1352.88,-294.294 1574.94,-282.29 1759,-255 1761.95,-254.563 1765,-254.042 1768.06,-253.475"/>
<polygon fill="midnightblue" stroke="midnightblue" points="1261.59,-294.837 1251.75,-298.767 1261.9,-301.83 1261.59,-294.837"/>
</g>
<!-- Node7&#45;&gt;Node6 -->
<g id="edge3" class="edge"><title>Node7&#45;&gt;Node6</title>
<path fill="none" stroke="midnightblue" d="M1020.03,-242.477C893.549,-238.649 576.114,-226.862 312,-199 307.363,-198.511 302.533,-197.916 297.722,-197.267"/>
<polygon fill="midnightblue" stroke="midnightblue" points="1020.14,-245.982 1030.24,-242.782 1020.35,-238.985 1020.14,-245.982"/>
</g>
<!-- Node8 -->
<g id="node4" class="node"><title>Node8</title>
<g id="a_node4"><a xlink:href="../../d6/d10/classlist_8cpp.html" target="_top" xlink:title="src/classlist.cpp">
<polygon fill="white" stroke="black" points="1544,-179.5 1544,-198.5 1632,-198.5 1632,-179.5 1544,-179.5"/>
<text text-anchor="middle" x="1588" y="-186.5" font-family="Helvetica,sans-Serif" font-size="10.00">src/classlist.cpp</text>
</a>
</g>
</g>
<!-- Node7&#45;&gt;Node8 -->
<g id="edge4" class="edge"><title>Node7&#45;&gt;Node8</title>
<path fill="none" stroke="midnightblue" d="M1132.08,-235.483C1133.4,-235.317 1134.71,-235.155 1136,-235 1312.79,-213.785 1358.43,-221.922 1535,-199 1537.87,-198.628 1540.82,-198.213 1543.79,-197.773"/>
<polygon fill="midnightblue" stroke="midnightblue" points="1131.28,-232.058 1121.82,-236.842 1132.2,-238.997 1131.28,-232.058"/>
</g>
<!-- Node9 -->
<g id="node5" class="node"><title>Node9</title>
<g id="a_node5"><a xlink:href="../../db/d12/context_8cpp.html" target="_top" xlink:title="src/context.cpp">
<polygon fill="white" stroke="black" points="1650,-179.5 1650,-198.5 1734,-198.5 1734,-179.5 1650,-179.5"/>
<text text-anchor="middle" x="1692" y="-186.5" font-family="Helvetica,sans-Serif" font-size="10.00">src/context.cpp</text>
</a>
</g>
</g>
<!-- Node7&#45;&gt;Node9 -->
<g id="edge5" class="edge"><title>Node7&#45;&gt;Node9</title>
<path fill="none" stroke="midnightblue" d="M1132.07,-235.45C1133.39,-235.293 1134.7,-235.143 1136,-235 1359.65,-210.292 1417.68,-226.589 1641,-199 1643.86,-198.647 1646.79,-198.242 1649.75,-197.803"/>
<polygon fill="midnightblue" stroke="midnightblue" points="1131.29,-232.021 1121.81,-236.753 1132.18,-238.965 1131.29,-232.021"/>
</g>
<!-- Node10 -->
<g id="node6" class="node"><title>Node10</title>
<g id="a_node6"><a xlink:href="../../d3/dea/definition_8cpp.html" target="_top" xlink:title="src/definition.cpp">
<polygon fill="white" stroke="black" points="1752.5,-179.5 1752.5,-198.5 1843.5,-198.5 1843.5,-179.5 1752.5,-179.5"/>
<text text-anchor="middle" x="1798" y="-186.5" font-family="Helvetica,sans-Serif" font-size="10.00">src/definition.cpp</text>
</a>
</g>
</g>
<!-- Node7&#45;&gt;Node10 -->
<g id="edge6" class="edge"><title>Node7&#45;&gt;Node10</title>
<path fill="none" stroke="midnightblue" d="M1132.07,-235.429C1133.39,-235.279 1134.7,-235.135 1136,-235 1404.79,-206.927 1474.4,-228.861 1743,-199 1746.08,-198.658 1749.24,-198.261 1752.43,-197.828"/>
<polygon fill="midnightblue" stroke="midnightblue" points="1131.3,-231.997 1121.81,-236.697 1132.16,-238.944 1131.3,-231.997"/>
</g>
<!-- Node11 -->
<g id="node7" class="node"><title>Node11</title>
<g id="a_node7"><a xlink:href="../../da/d17/docparser_8cpp.html" target="_top" xlink:title="src/docparser.cpp">
<polygon fill="white" stroke="black" points="1861.5,-179.5 1861.5,-198.5 1956.5,-198.5 1956.5,-179.5 1861.5,-179.5"/>
<text text-anchor="middle" x="1909" y="-186.5" font-family="Helvetica,sans-Serif" font-size="10.00">src/docparser.cpp</text>
</a>
</g>
</g>
<!-- Node7&#45;&gt;Node11 -->
<g id="edge7" class="edge"><title>Node7&#45;&gt;Node11</title>
<path fill="none" stroke="midnightblue" d="M1132.07,-235.413C1133.39,-235.268 1134.7,-235.13 1136,-235 1453.49,-203.296 1535.68,-232.364 1853,-199 1855.74,-198.712 1858.55,-198.379 1861.39,-198.014"/>
<polygon fill="midnightblue" stroke="midnightblue" points="1131.31,-231.979 1121.8,-236.654 1132.15,-238.928 1131.31,-231.979"/>
</g>
<!-- Node12 -->
<g id="node8" class="node"><title>Node12</title>
<g id="a_node8"><a xlink:href="../../de/daa/dot_8cpp.html" target="_top" xlink:title="src/dot.cpp">
<polygon fill="white" stroke="black" points="1974.5,-179.5 1974.5,-198.5 2039.5,-198.5 2039.5,-179.5 1974.5,-179.5"/>
<text text-anchor="middle" x="2007" y="-186.5" font-family="Helvetica,sans-Serif" font-size="10.00">src/dot.cpp</text>
</a>
</g>
</g>
<!-- Node7&#45;&gt;Node12 -->
<g id="edge8" class="edge"><title>Node7&#45;&gt;Node12</title>
<path fill="none" stroke="midnightblue" d="M1132.07,-235.401C1133.39,-235.259 1134.7,-235.125 1136,-235 1503.53,-199.564 1599.87,-246.761 1966,-199 1968.75,-198.642 1971.58,-198.192 1974.42,-197.685"/>
<polygon fill="midnightblue" stroke="midnightblue" points="1131.32,-231.965 1121.8,-236.621 1132.14,-238.916 1131.32,-231.965"/>
</g>
<!-- Node7&#45;&gt;Node13 -->
<g id="edge9" class="edge"><title>Node7&#45;&gt;Node13</title>
<path fill="none" stroke="midnightblue" d="M1020.26,-241.35C912.029,-235.889 665.964,-221.937 460,-199 455.394,-198.487 450.599,-197.885 445.815,-197.238"/>
<polygon fill="midnightblue" stroke="midnightblue" points="1020.13,-244.848 1030.3,-241.852 1020.48,-237.856 1020.13,-244.848"/>
</g>
<!-- Node7&#45;&gt;Node14 -->
<g id="edge22" class="edge"><title>Node7&#45;&gt;Node14</title>
<path fill="none" stroke="midnightblue" d="M1019.92,-243.511C871.65,-241.749 471.933,-233.811 345,-199 326.214,-193.848 323.877,-186.737 306,-179 272.745,-164.608 233.231,-151.046 207.435,-142.647"/>
<polygon fill="midnightblue" stroke="midnightblue" points="1020.12,-247.014 1030.16,-243.628 1020.2,-240.014 1020.12,-247.014"/>
</g>
<!-- Node15 -->
<g id="node11" class="node"><title>Node15</title>
<g id="a_node11"><a xlink:href="../../de/dea/vhdldocgen_8cpp.html" target="_top" xlink:title="src/vhdldocgen.cpp">
<polygon fill="white" stroke="black" points="344.5,-62 344.5,-81 445.5,-81 445.5,-62 344.5,-62"/>
<text text-anchor="middle" x="395" y="-69" font-family="Helvetica,sans-Serif" font-size="10.00">src/vhdldocgen.cpp</text>
</a>
</g>
</g>
<!-- Node7&#45;&gt;Node15 -->
<g id="edge34" class="edge"><title>Node7&#45;&gt;Node15</title>
<path fill="none" stroke="midnightblue" d="M1020.13,-242.146C884.11,-237.278 543.51,-222.842 498,-199 445.819,-171.663 410.436,-105.239 399.002,-81.2909"/>
<polygon fill="midnightblue" stroke="midnightblue" points="1020.22,-245.651 1030.34,-242.507 1020.47,-238.655 1020.22,-245.651"/>
</g>
<!-- Node16 -->
<g id="node12" class="node"><title>Node16</title>
<g id="a_node12"><a xlink:href="../../d1/d86/vhdljjparser_8cpp.html" target="_top" xlink:title="src/vhdljjparser.cpp">
<polygon fill="white" stroke="black" points="423.5,-0.5 423.5,-19.5 524.5,-19.5 524.5,-0.5 423.5,-0.5"/>
<text text-anchor="middle" x="474" y="-7.5" font-family="Helvetica,sans-Serif" font-size="10.00">src/vhdljjparser.cpp</text>
</a>
</g>
</g>
<!-- Node7&#45;&gt;Node16 -->
<g id="edge35" class="edge"><title>Node7&#45;&gt;Node16</title>
<path fill="none" stroke="midnightblue" d="M1019.88,-241.06C884.525,-233.743 549.828,-214.207 531,-199 473.424,-152.498 472.502,-49.7493 473.557,-19.5225"/>
<polygon fill="midnightblue" stroke="midnightblue" points="1019.87,-244.565 1030.05,-241.607 1020.25,-237.575 1019.87,-244.565"/>
</g>
<!-- Node7&#45;&gt;Node21 -->
<g id="edge23" class="edge"><title>Node7&#45;&gt;Node21</title>
<path fill="none" stroke="midnightblue" d="M1132.07,-235.394C1133.39,-235.254 1134.7,-235.123 1136,-235 1540.29,-196.823 1645.47,-244.54 2049,-199 2051.86,-198.677 2054.81,-198.281 2057.78,-197.837"/>
<polygon fill="midnightblue" stroke="midnightblue" points="1131.32,-231.958 1121.8,-236.603 1132.14,-238.91 1131.32,-231.958"/>
</g>
<!-- Node7&#45;&gt;Node22 -->
<g id="edge24" class="edge"><title>Node7&#45;&gt;Node22</title>
<path fill="none" stroke="midnightblue" d="M1132.09,-238.319C1145.79,-237.077 1160.41,-235.875 1174,-235 1604.96,-207.243 1715.35,-242.587 2145,-199 2148.03,-198.693 2151.14,-198.322 2154.27,-197.908"/>
<polygon fill="midnightblue" stroke="midnightblue" points="1131.46,-234.862 1121.83,-239.27 1132.11,-241.832 1131.46,-234.862"/>
</g>
<!-- Node23 -->
<g id="node19" class="node"><title>Node23</title>
<g id="a_node19"><a xlink:href="../../da/db0/htmldocvisitor_8cpp.html" target="_top" xlink:title="src/htmldocvisitor.cpp">
<polygon fill="white" stroke="black" points="540.5,-179.5 540.5,-198.5 653.5,-198.5 653.5,-179.5 540.5,-179.5"/>
<text text-anchor="middle" x="597" y="-186.5" font-family="Helvetica,sans-Serif" font-size="10.00">src/htmldocvisitor.cpp</text>
</a>
</g>
</g>
<!-- Node7&#45;&gt;Node23 -->
<g id="edge25" class="edge"><title>Node7&#45;&gt;Node23</title>
<path fill="none" stroke="midnightblue" d="M1020.16,-238.399C940.737,-230.322 790.606,-214.649 663,-199 659.901,-198.62 656.721,-198.22 653.513,-197.808"/>
<polygon fill="midnightblue" stroke="midnightblue" points="1020.12,-241.913 1030.42,-239.44 1020.83,-234.949 1020.12,-241.913"/>
</g>
<!-- Node24 -->
<g id="node20" class="node"><title>Node24</title>
<g id="a_node20"><a xlink:href="../../d8/d6e/htmlgen_8cpp.html" target="_top" xlink:title="src/htmlgen.cpp">
<polygon fill="white" stroke="black" points="672,-179.5 672,-198.5 758,-198.5 758,-179.5 672,-179.5"/>
<text text-anchor="middle" x="715" y="-186.5" font-family="Helvetica,sans-Serif" font-size="10.00">src/htmlgen.cpp</text>
</a>
</g>
</g>
<!-- Node7&#45;&gt;Node24 -->
<g id="edge26" class="edge"><title>Node7&#45;&gt;Node24</title>
<path fill="none" stroke="midnightblue" d="M1020.45,-236.366C958.537,-227.752 855.495,-213.099 767,-199 764.105,-198.539 761.121,-198.052 758.115,-197.554"/>
<polygon fill="midnightblue" stroke="midnightblue" points="1020.01,-239.838 1030.39,-237.747 1020.97,-232.905 1020.01,-239.838"/>
</g>
<!-- Node25 -->
<g id="node21" class="node"><title>Node25</title>
<g id="a_node21"><a xlink:href="../../db/d14/index_8cpp.html" target="_top" xlink:title="This file contains functions for the various index pages. ">
<polygon fill="white" stroke="black" points="776.5,-179.5 776.5,-198.5 851.5,-198.5 851.5,-179.5 776.5,-179.5"/>
<text text-anchor="middle" x="814" y="-186.5" font-family="Helvetica,sans-Serif" font-size="10.00">src/index.cpp</text>
</a>
</g>
</g>
<!-- Node7&#45;&gt;Node25 -->
<g id="edge27" class="edge"><title>Node7&#45;&gt;Node25</title>
<path fill="none" stroke="midnightblue" d="M1024.66,-233.419C973.748,-222.925 896.947,-207.096 851.5,-197.729"/>
<polygon fill="midnightblue" stroke="midnightblue" points="1023.98,-236.853 1034.49,-235.444 1025.4,-229.997 1023.98,-236.853"/>
</g>
<!-- Node26 -->
<g id="node22" class="node"><title>Node26</title>
<g id="a_node22"><a xlink:href="../../db/d16/layout_8cpp.html" target="_top" xlink:title="src/layout.cpp">
<polygon fill="white" stroke="black" points="870,-179.5 870,-198.5 948,-198.5 948,-179.5 870,-179.5"/>
<text text-anchor="middle" x="909" y="-186.5" font-family="Helvetica,sans-Serif" font-size="10.00">src/layout.cpp</text>
</a>
</g>
</g>
<!-- Node7&#45;&gt;Node26 -->
<g id="edge28" class="edge"><title>Node7&#45;&gt;Node26</title>
<path fill="none" stroke="midnightblue" d="M1039.83,-232.304C1008.36,-222.129 963.506,-207.625 935.338,-198.516"/>
<polygon fill="midnightblue" stroke="midnightblue" points="1038.95,-235.697 1049.54,-235.444 1041.1,-229.037 1038.95,-235.697"/>
</g>
<!-- Node27 -->
<g id="node23" class="node"><title>Node27</title>
<g id="a_node23"><a xlink:href="../../d0/d72/memberdef_8cpp.html" target="_top" xlink:title="src/memberdef.cpp">
<polygon fill="white" stroke="black" points="966.5,-179.5 966.5,-198.5 1067.5,-198.5 1067.5,-179.5 966.5,-179.5"/>
<text text-anchor="middle" x="1017" y="-186.5" font-family="Helvetica,sans-Serif" font-size="10.00">src/memberdef.cpp</text>
</a>
</g>
</g>
<!-- Node7&#45;&gt;Node27 -->
<g id="edge29" class="edge"><title>Node7&#45;&gt;Node27</title>
<path fill="none" stroke="midnightblue" d="M1059.11,-228.537C1048.59,-218.909 1035.43,-206.869 1026.65,-198.834"/>
<polygon fill="midnightblue" stroke="midnightblue" points="1056.78,-231.154 1066.52,-235.324 1061.51,-225.99 1056.78,-231.154"/>
</g>
<!-- Node28 -->
<g id="node24" class="node"><title>Node28</title>
<g id="a_node24"><a xlink:href="../../d0/d14/memberlist_8cpp.html" target="_top" xlink:title="src/memberlist.cpp">
<polygon fill="white" stroke="black" points="1086,-179.5 1086,-198.5 1186,-198.5 1186,-179.5 1086,-179.5"/>
<text text-anchor="middle" x="1136" y="-186.5" font-family="Helvetica,sans-Serif" font-size="10.00">src/memberlist.cpp</text>
</a>
</g>
</g>
<!-- Node7&#45;&gt;Node28 -->
<g id="edge30" class="edge"><title>Node7&#45;&gt;Node28</title>
<path fill="none" stroke="midnightblue" d="M1093.18,-228.537C1103.88,-218.909 1117.26,-206.869 1126.18,-198.834"/>
<polygon fill="midnightblue" stroke="midnightblue" points="1090.73,-226.033 1085.64,-235.324 1095.41,-231.236 1090.73,-226.033"/>
</g>
<!-- Node29 -->
<g id="node25" class="node"><title>Node29</title>
<g id="a_node25"><a xlink:href="../../d7/d1c/namespacedef_8cpp.html" target="_top" xlink:title="src/namespacedef.cpp">
<polygon fill="white" stroke="black" points="1204,-179.5 1204,-198.5 1320,-198.5 1320,-179.5 1204,-179.5"/>
<text text-anchor="middle" x="1262" y="-186.5" font-family="Helvetica,sans-Serif" font-size="10.00">src/namespacedef.cpp</text>
</a>
</g>
</g>
<!-- Node7&#45;&gt;Node29 -->
<g id="edge31" class="edge"><title>Node7&#45;&gt;Node29</title>
<path fill="none" stroke="midnightblue" d="M1115.38,-232.568C1150.47,-222.381 1201.02,-207.703 1232.67,-198.516"/>
<polygon fill="midnightblue" stroke="midnightblue" points="1114.1,-229.294 1105.47,-235.444 1116.05,-236.017 1114.1,-229.294"/>
</g>
<!-- Node30 -->
<g id="node26" class="node"><title>Node30</title>
<g id="a_node26"><a xlink:href="../../db/dd8/outputlist_8cpp.html" target="_top" xlink:title="src/outputlist.cpp">
<polygon fill="white" stroke="black" points="1338,-179.5 1338,-198.5 1430,-198.5 1430,-179.5 1338,-179.5"/>
<text text-anchor="middle" x="1384" y="-186.5" font-family="Helvetica,sans-Serif" font-size="10.00">src/outputlist.cpp</text>
</a>
</g>
</g>
<!-- Node7&#45;&gt;Node30 -->
<g id="edge32" class="edge"><title>Node7&#45;&gt;Node30</title>
<path fill="none" stroke="midnightblue" d="M1131.68,-234.238C1190.72,-223.887 1282.89,-207.727 1337.97,-198.07"/>
<polygon fill="midnightblue" stroke="midnightblue" points="1131.02,-230.8 1121.78,-235.974 1132.23,-237.694 1131.02,-230.8"/>
</g>
<!-- Node31 -->
<g id="node27" class="node"><title>Node31</title>
<g id="a_node27"><a xlink:href="../../d0/d9c/rtfgen_8cpp.html" target="_top" xlink:title="src/rtfgen.cpp">
<polygon fill="white" stroke="black" points="1448.5,-179.5 1448.5,-198.5 1525.5,-198.5 1525.5,-179.5 1448.5,-179.5"/>
<text text-anchor="middle" x="1487" y="-186.5" font-family="Helvetica,sans-Serif" font-size="10.00">src/rtfgen.cpp</text>
</a>
</g>
</g>
<!-- Node7&#45;&gt;Node31 -->
<g id="edge33" class="edge"><title>Node7&#45;&gt;Node31</title>
<path fill="none" stroke="midnightblue" d="M1131.54,-235.607C1133.04,-235.4 1134.53,-235.197 1136,-235 1270.41,-216.939 1304.95,-219.508 1439,-199 1442.02,-198.538 1445.13,-198.029 1448.27,-197.493"/>
<polygon fill="midnightblue" stroke="midnightblue" points="1130.93,-232.159 1121.52,-237.023 1131.91,-239.09 1130.93,-232.159"/>
</g>
<!-- Node13&#45;&gt;Node14 -->
<g id="edge10" class="edge"><title>Node13&#45;&gt;Node14</title>
<path fill="none" stroke="midnightblue" d="M355.282,-177.024C313.724,-166.823 252.687,-151.841 214.697,-142.516"/>
<polygon fill="midnightblue" stroke="midnightblue" points="354.594,-180.459 365.14,-179.444 356.263,-173.661 354.594,-180.459"/>
</g>
<!-- Node13&#45;&gt;Node15 -->
<g id="edge11" class="edge"><title>Node13&#45;&gt;Node15</title>
<path fill="none" stroke="midnightblue" d="M399.185,-169.164C398.089,-143.865 396.188,-99.9353 395.38,-81.282"/>
<polygon fill="midnightblue" stroke="midnightblue" points="395.695,-169.479 399.624,-179.319 402.688,-169.177 395.695,-169.479"/>
</g>
<!-- Node13&#45;&gt;Node16 -->
<g id="edge12" class="edge"><title>Node13&#45;&gt;Node16</title>
<path fill="none" stroke="midnightblue" d="M410.865,-170.706C422.821,-151.054 441.939,-117.716 454,-87 463.275,-63.3784 469.63,-33.9621 472.412,-19.6412"/>
<polygon fill="midnightblue" stroke="midnightblue" points="407.763,-169.068 405.487,-179.415 413.719,-172.746 407.763,-169.068"/>
</g>
<!-- Node17 -->
<g id="node13" class="node"><title>Node17</title>
<g id="a_node13"><a xlink:href="../../d5/df9/_vhdl_parser_8h.html" target="_top" xlink:title="vhdlparser/VhdlParser.h">
<polygon fill="white" stroke="black" points="242.5,-123.5 242.5,-142.5 363.5,-142.5 363.5,-123.5 242.5,-123.5"/>
<text text-anchor="middle" x="303" y="-130.5" font-family="Helvetica,sans-Serif" font-size="10.00">vhdlparser/VhdlParser.h</text>
</a>
</g>
</g>
<!-- Node13&#45;&gt;Node17 -->
<g id="edge13" class="edge"><title>Node13&#45;&gt;Node17</title>
<path fill="none" stroke="midnightblue" d="M375.665,-174.453C357.757,-164.483 333.946,-151.228 318.546,-142.655"/>
<polygon fill="midnightblue" stroke="midnightblue" points="373.975,-177.518 384.415,-179.324 377.38,-171.402 373.975,-177.518"/>
</g>
<!-- Node17&#45;&gt;Node15 -->
<g id="edge14" class="edge"><title>Node17&#45;&gt;Node15</title>
<path fill="none" stroke="midnightblue" d="M324.756,-117.93C342.492,-106.459 366.96,-90.6343 381.843,-81.0091"/>
<polygon fill="midnightblue" stroke="midnightblue" points="322.678,-115.106 316.181,-123.475 326.479,-120.983 322.678,-115.106"/>
</g>
<!-- Node18 -->
<g id="node14" class="node"><title>Node18</title>
<g id="a_node14"><a xlink:href="../../d7/dad/_vhdl_parser_token_manager_8h.html" target="_top" xlink:title="vhdlparser/VhdlParserToken\lManager.h">
<polygon fill="white" stroke="black" points="0,-56.5 0,-86.5 140,-86.5 140,-56.5 0,-56.5"/>
<text text-anchor="start" x="8" y="-74.5" font-family="Helvetica,sans-Serif" font-size="10.00">vhdlparser/VhdlParserToken</text>
<text text-anchor="middle" x="70" y="-63.5" font-family="Helvetica,sans-Serif" font-size="10.00">Manager.h</text>
</a>
</g>
</g>
<!-- Node17&#45;&gt;Node18 -->
<g id="edge15" class="edge"><title>Node17&#45;&gt;Node18</title>
<path fill="none" stroke="midnightblue" d="M254.983,-121.107C215.236,-111.386 159.117,-97.0951 119.084,-86.523"/>
<polygon fill="midnightblue" stroke="midnightblue" points="254.172,-124.512 264.716,-123.475 255.827,-117.71 254.172,-124.512"/>
</g>
<!-- Node19 -->
<g id="node15" class="node"><title>Node19</title>
<g id="a_node15"><a xlink:href="../../da/d40/_vhdl_parser_i_f_8cpp.html" target="_top" xlink:title="vhdlparser/VhdlParserIF.cpp">
<polygon fill="white" stroke="black" points="98,-0.5 98,-19.5 238,-19.5 238,-0.5 98,-0.5"/>
<text text-anchor="middle" x="168" y="-7.5" font-family="Helvetica,sans-Serif" font-size="10.00">vhdlparser/VhdlParserIF.cpp</text>
</a>
</g>
</g>
<!-- Node17&#45;&gt;Node19 -->
<g id="edge18" class="edge"><title>Node17&#45;&gt;Node19</title>
<path fill="none" stroke="midnightblue" d="M242.779,-120.475C222.523,-113.812 201.429,-103.357 187,-87 169.905,-67.6214 167.72,-35.1439 167.729,-19.6857"/>
<polygon fill="midnightblue" stroke="midnightblue" points="242.038,-123.908 252.623,-123.451 244.064,-117.207 242.038,-123.908"/>
</g>
<!-- Node20 -->
<g id="node16" class="node"><title>Node20</title>
<g id="a_node16"><a xlink:href="../../dd/d6f/_vhdl_parser_i_f_8h.html" target="_top" xlink:title="vhdlparser/VhdlParserIF.h">
<polygon fill="white" stroke="black" points="196,-62 196,-81 326,-81 326,-62 196,-62"/>
<text text-anchor="middle" x="261" y="-69" font-family="Helvetica,sans-Serif" font-size="10.00">vhdlparser/VhdlParserIF.h</text>
</a>
</g>
</g>
<!-- Node17&#45;&gt;Node20 -->
<g id="edge19" class="edge"><title>Node17&#45;&gt;Node20</title>
<path fill="none" stroke="midnightblue" d="M291.004,-115.005C283.156,-103.888 273.24,-89.8395 267.006,-81.0091"/>
<polygon fill="midnightblue" stroke="midnightblue" points="288.356,-117.324 296.982,-123.475 294.075,-113.287 288.356,-117.324"/>
</g>
<!-- Node18&#45;&gt;Node17 -->
<g id="edge16" class="edge"><title>Node18&#45;&gt;Node17</title>
<path fill="none" stroke="midnightblue" d="M140.459,-88.9328C185.453,-100.128 241.307,-114.494 274.517,-123.475"/>
<polygon fill="midnightblue" stroke="midnightblue" points="141.292,-85.5334 130.743,-86.523 139.607,-92.3275 141.292,-85.5334"/>
</g>
<!-- Node18&#45;&gt;Node19 -->
<g id="edge17" class="edge"><title>Node18&#45;&gt;Node19</title>
<path fill="none" stroke="midnightblue" d="M102.004,-51.0688C119.474,-40.4624 140.233,-27.8586 153.74,-19.6578"/>
<polygon fill="midnightblue" stroke="midnightblue" points="99.9561,-48.2177 93.2246,-56.3993 103.589,-54.2013 99.9561,-48.2177"/>
</g>
<!-- Node20&#45;&gt;Node16 -->
<g id="edge20" class="edge"><title>Node20&#45;&gt;Node16</title>
<path fill="none" stroke="midnightblue" d="M301.276,-59.2493C342.658,-47.6894 406.158,-29.9511 443.539,-19.5091"/>
<polygon fill="midnightblue" stroke="midnightblue" points="300.207,-55.9136 291.518,-61.9751 302.091,-62.6555 300.207,-55.9136"/>
</g>
<!-- Node20&#45;&gt;Node19 -->
<g id="edge21" class="edge"><title>Node20&#45;&gt;Node19</title>
<path fill="none" stroke="midnightblue" d="M239.007,-56.4295C221.079,-44.9589 196.344,-29.1343 181.3,-19.5091"/>
<polygon fill="midnightblue" stroke="midnightblue" points="237.366,-59.534 247.675,-61.9751 241.138,-53.6376 237.366,-59.534"/>
</g>
</g>
</svg>
        <g id="navigator" transform="translate(0 0)" fill="#404254">
                <rect fill="#f2f5e9" fill-opacity="0.5" stroke="#606060" stroke-width=".5" x="0" y="0" width="60" height="60"/>
                <use id="zoomplus" xlink:href="#zoomPlus" x="17" y="9" onmousedown="handleZoom(evt,'in')"/>
                <use id="zoomminus" xlink:href="#zoomMin" x="42" y="9" onmousedown="handleZoom(evt,'out')"/>
                <use id="reset" xlink:href="#resetDef" x="30" y="36" onmousedown="handleReset()"/>
                <g id="arrowUp" xlink:href="#dirArrow" transform="translate(30 24)" onmousedown="handlePan(0,-1)">
                  <use xlink:href="#rim" fill="#404040">
                        <set attributeName="fill" to="#808080" begin="arrowUp.mouseover" end="arrowUp.mouseout"/>
                  </use>
                  <path fill="none" stroke="white" stroke-width="1.5" d="M0,-3.0v7 M-2.5,-0.5L0,-3.0L2.5,-0.5"/>
                </g>
                <g id="arrowRight" xlink:href="#dirArrow" transform="rotate(90) translate(36 -43)" onmousedown="handlePan(1,0)">
                  <use xlink:href="#rim" fill="#404040">
                        <set attributeName="fill" to="#808080" begin="arrowRight.mouseover" end="arrowRight.mouseout"/>
                  </use>
                  <path fill="none" stroke="white" stroke-width="1.5" d="M0,-3.0v7 M-2.5,-0.5L0,-3.0L2.5,-0.5"/>
                </g>
                <g id="arrowDown" xlink:href="#dirArrow" transform="rotate(180) translate(-30 -48)" onmousedown="handlePan(0,1)">
                  <use xlink:href="#rim" fill="#404040">
                        <set attributeName="fill" to="#808080" begin="arrowDown.mouseover" end="arrowDown.mouseout"/>
                  </use>
                  <path fill="none" stroke="white" stroke-width="1.5" d="M0,-3.0v7 M-2.5,-0.5L0,-3.0L2.5,-0.5"/>
                </g>
                <g id="arrowLeft" xlink:href="#dirArrow" transform="rotate(270) translate(-36 17)" onmousedown="handlePan(-1,0)">
                  <use xlink:href="#rim" fill="#404040">
                        <set attributeName="fill" to="#808080" begin="arrowLeft.mouseover" end="arrowLeft.mouseout"/>
                  </use>
                  <path fill="none" stroke="white" stroke-width="1.5" d="M0,-3.0v7 M-2.5,-0.5L0,-3.0L2.5,-0.5"/>
                </g>
        </g>
        <svg viewBox="0 0 15 15" width="100%" height="30px" preserveAspectRatio="xMaxYMin meet">
         <g id="arrow_out" transform="scale(0.3 0.3)">
          <a xlink:href="entry_8h__dep__incl_org.svg" target="_base">
           <rect id="button" ry="5" rx="5" y="6" x="6" height="38" width="38"
                fill="#f2f5e9" fill-opacity="0.5" stroke="#606060" stroke-width="1.0"/>
           <path id="arrow"
             d="M 11.500037,31.436501 C 11.940474,20.09759 22.043105,11.32322 32.158766,21.979434 L 37.068811,17.246167 C 37.068811,17.246167 37.088388,32 37.088388,32 L 22.160133,31.978069 C 22.160133,31.978069 26.997745,27.140456 26.997745,27.140456 C 18.528582,18.264221 13.291696,25.230495 11.500037,31.436501 z"
             style="fill:#404040;"/>
          </a>
         </g>
        </svg>
</svg>
