<?xml version="1.0" encoding="UTF-8" standalone="no"?>
<!DOCTYPE svg PUBLIC "-//W3C//DTD SVG 1.1//EN"
 "http://www.w3.org/Graphics/SVG/1.1/DTD/svg11.dtd">
<!-- Generated by graphviz version 2.38.0 (20140413.2041)
 -->
<!-- Title: DocImage Pages: 1 -->
<svg width="392pt" height="162pt"
 viewBox="0.00 0.00 391.50 162.00" xmlns="http://www.w3.org/2000/svg" xmlns:xlink="http://www.w3.org/1999/xlink">
<g id="graph0" class="graph" transform="scale(1 1) rotate(0) translate(4 158)">
<title>DocImage</title>
<polygon fill="white" stroke="none" points="-4,4 -4,-158 387.5,-158 387.5,4 -4,4"/>
<!-- Node4 -->
<g id="node1" class="node"><title>Node4</title>
<polygon fill="#bfbfbf" stroke="black" points="153.5,-0.5 153.5,-19.5 215.5,-19.5 215.5,-0.5 153.5,-0.5"/>
<text text-anchor="middle" x="184.5" y="-7.5" font-family="Helvetica,sans-Serif" font-size="10.00">DocImage</text>
</g>
<!-- Node5 -->
<g id="node2" class="node"><title>Node5</title>
<g id="a_node2"><a xlink:href="../../d7/da3/class_comp_accept.html" target="_top" xlink:title="CompAccept\&lt; DocImage \&gt;">
<polygon fill="white" stroke="black" points="0,-67.5 0,-86.5 137,-86.5 137,-67.5 0,-67.5"/>
<text text-anchor="middle" x="68.5" y="-74.5" font-family="Helvetica,sans-Serif" font-size="10.00">CompAccept&lt; DocImage &gt;</text>
</a>
</g>
</g>
<!-- Node5&#45;&gt;Node4 -->
<g id="edge1" class="edge"><title>Node5&#45;&gt;Node4</title>
<path fill="none" stroke="midnightblue" d="M92.9721,-62.2872C115.962,-49.4047 149.657,-30.5243 169.104,-19.6273"/>
<polygon fill="midnightblue" stroke="midnightblue" points="91.1571,-59.2921 84.1443,-67.2338 94.579,-65.3988 91.1571,-59.2921"/>
</g>
<!-- Node6 -->
<g id="node3" class="node"><title>Node6</title>
<g id="a_node3"><a xlink:href="../../d7/da3/class_comp_accept.html" target="_top" xlink:title="Default accept implementation for compound nodes in the abstract syntax tree. ">
<polygon fill="white" stroke="black" points="19.5,-134.5 19.5,-153.5 117.5,-153.5 117.5,-134.5 19.5,-134.5"/>
<text text-anchor="middle" x="68.5" y="-141.5" font-family="Helvetica,sans-Serif" font-size="10.00">CompAccept&lt; T &gt;</text>
</a>
</g>
</g>
<!-- Node6&#45;&gt;Node5 -->
<g id="edge2" class="edge"><title>Node6&#45;&gt;Node5</title>
<path fill="none" stroke="orange" stroke-dasharray="5,2" d="M68.5,-124.037C68.5,-111.67 68.5,-96.1198 68.5,-86.6273"/>
<polygon fill="orange" stroke="orange" points="65.0001,-124.234 68.5,-134.234 72.0001,-124.234 65.0001,-124.234"/>
<text text-anchor="middle" x="102" y="-108" font-family="Helvetica,sans-Serif" font-size="10.00"> &lt; DocImage &gt;</text>
</g>
<!-- Node7 -->
<g id="node4" class="node"><title>Node7</title>
<g id="a_node4"><a xlink:href="../../d9/d0e/class_doc_node.html" target="_top" xlink:title="Abstract node interface with type information. ">
<polygon fill="white" stroke="black" points="155.5,-67.5 155.5,-86.5 213.5,-86.5 213.5,-67.5 155.5,-67.5"/>
<text text-anchor="middle" x="184.5" y="-74.5" font-family="Helvetica,sans-Serif" font-size="10.00">DocNode</text>
</a>
</g>
</g>
<!-- Node7&#45;&gt;Node4 -->
<g id="edge3" class="edge"><title>Node7&#45;&gt;Node4</title>
<path fill="none" stroke="midnightblue" d="M184.5,-57.037C184.5,-44.6703 184.5,-29.1198 184.5,-19.6273"/>
<polygon fill="midnightblue" stroke="midnightblue" points="181,-57.2338 184.5,-67.2338 188,-57.2338 181,-57.2338"/>
</g>
<!-- Node7&#45;&gt;Node7 -->
<g id="edge4" class="edge"><title>Node7&#45;&gt;Node7</title>
<path fill="none" stroke="#9a32cd" stroke-dasharray="5,2" d="M224.103,-82.0845C228.591,-81.1323 231.5,-79.4375 231.5,-77 231.5,-73 223.667,-71 213.875,-71"/>
<polygon fill="#9a32cd" stroke="#9a32cd" points="223.523,-78.6223 213.875,-83 224.147,-85.5944 223.523,-78.6223"/>
<text text-anchor="middle" x="253.5" y="-74.5" font-family="Helvetica,sans-Serif" font-size="10.00"> m_parent</text>
</g>
<!-- Node8 -->
<g id="node5" class="node"><title>Node8</title>
<g id="a_node5"><a xlink:href="../../db/d4d/class_html_attrib_list.html" target="_top" xlink:title="A list of Html attributes. ">
<polygon fill="white" stroke="black" points="294,-67.5 294,-86.5 371,-86.5 371,-67.5 294,-67.5"/>
<text text-anchor="middle" x="332.5" y="-74.5" font-family="Helvetica,sans-Serif" font-size="10.00">HtmlAttribList</text>
</a>
</g>
</g>
<!-- Node8&#45;&gt;Node4 -->
<g id="edge5" class="edge"><title>Node8&#45;&gt;Node4</title>
<path fill="none" stroke="#9a32cd" stroke-dasharray="5,2" d="M303.54,-63.281C274.23,-50.4085 229.707,-30.8545 204.235,-19.6672"/>
<polygon fill="#9a32cd" stroke="#9a32cd" points="302.283,-66.5518 312.847,-67.3685 305.098,-60.1427 302.283,-66.5518"/>
<text text-anchor="middle" x="289.5" y="-41" font-family="Helvetica,sans-Serif" font-size="10.00"> m_attribs</text>
</g>
<!-- Node9 -->
<g id="node6" class="node"><title>Node9</title>
<polygon fill="white" stroke="#bfbfbf" points="281.5,-134.5 281.5,-153.5 383.5,-153.5 383.5,-134.5 281.5,-134.5"/>
<text text-anchor="middle" x="332.5" y="-141.5" font-family="Helvetica,sans-Serif" font-size="10.00">QList&lt; HtmlAttrib &gt;</text>
</g>
<!-- Node9&#45;&gt;Node8 -->
<g id="edge6" class="edge"><title>Node9&#45;&gt;Node8</title>
<path fill="none" stroke="midnightblue" d="M332.5,-124.037C332.5,-111.67 332.5,-96.1198 332.5,-86.6273"/>
<polygon fill="midnightblue" stroke="midnightblue" points="329,-124.234 332.5,-134.234 336,-124.234 329,-124.234"/>
</g>
</g>
</svg>
