<?xml version="1.0" encoding="UTF-8" standalone="no"?>
<!DOCTYPE svg PUBLIC "-//W3C//DTD SVG 1.1//EN"
 "http://www.w3.org/Graphics/SVG/1.1/DTD/svg11.dtd">
<!-- Generated by graphviz version 2.38.0 (20140413.2041)
 -->
<!-- Title: DocRef Pages: 1 -->
<svg width="271pt" height="152pt"
 viewBox="0.00 0.00 270.50 152.00" xmlns="http://www.w3.org/2000/svg" xmlns:xlink="http://www.w3.org/1999/xlink">
<g id="graph0" class="graph" transform="scale(1 1) rotate(0) translate(4 148)">
<title>DocRef</title>
<polygon fill="white" stroke="none" points="-4,4 -4,-148 266.5,-148 266.5,4 -4,4"/>
<!-- Node4 -->
<g id="node1" class="node"><title>Node4</title>
<polygon fill="#bfbfbf" stroke="black" points="91.5,-0.5 91.5,-19.5 141.5,-19.5 141.5,-0.5 91.5,-0.5"/>
<text text-anchor="middle" x="116.5" y="-7.5" font-family="Helvetica,sans-Serif" font-size="10.00">DocRef</text>
</g>
<!-- Node5 -->
<g id="node2" class="node"><title>Node5</title>
<g id="a_node2"><a xlink:href="../../d7/da3/class_comp_accept.html" target="_top" xlink:title="CompAccept\&lt; DocRef \&gt;">
<polygon fill="white" stroke="black" points="0,-57.5 0,-76.5 125,-76.5 125,-57.5 0,-57.5"/>
<text text-anchor="middle" x="62.5" y="-64.5" font-family="Helvetica,sans-Serif" font-size="10.00">CompAccept&lt; DocRef &gt;</text>
</a>
</g>
</g>
<!-- Node5&#45;&gt;Node4 -->
<g id="edge1" class="edge"><title>Node5&#45;&gt;Node4</title>
<path fill="none" stroke="midnightblue" d="M78.0885,-50.1229C87.8075,-40.2238 99.9442,-27.8624 107.944,-19.7149"/>
<polygon fill="midnightblue" stroke="midnightblue" points="75.4459,-47.8185 70.9375,-57.4062 80.4409,-52.7227 75.4459,-47.8185"/>
</g>
<!-- Node6 -->
<g id="node3" class="node"><title>Node6</title>
<g id="a_node3"><a xlink:href="../../d7/da3/class_comp_accept.html" target="_top" xlink:title="Default accept implementation for compound nodes in the abstract syntax tree. ">
<polygon fill="white" stroke="black" points="13.5,-124.5 13.5,-143.5 111.5,-143.5 111.5,-124.5 13.5,-124.5"/>
<text text-anchor="middle" x="62.5" y="-131.5" font-family="Helvetica,sans-Serif" font-size="10.00">CompAccept&lt; T &gt;</text>
</a>
</g>
</g>
<!-- Node6&#45;&gt;Node5 -->
<g id="edge2" class="edge"><title>Node6&#45;&gt;Node5</title>
<path fill="none" stroke="orange" stroke-dasharray="5,2" d="M62.5,-114.037C62.5,-101.67 62.5,-86.1198 62.5,-76.6273"/>
<polygon fill="orange" stroke="orange" points="59.0001,-114.234 62.5,-124.234 66.0001,-114.234 59.0001,-114.234"/>
<text text-anchor="middle" x="90" y="-98" font-family="Helvetica,sans-Serif" font-size="10.00"> &lt; DocRef &gt;</text>
</g>
<!-- Node7 -->
<g id="node4" class="node"><title>Node7</title>
<g id="a_node4"><a xlink:href="../../d9/d0e/class_doc_node.html" target="_top" xlink:title="Abstract node interface with type information. ">
<polygon fill="white" stroke="black" points="142.5,-57.5 142.5,-76.5 200.5,-76.5 200.5,-57.5 142.5,-57.5"/>
<text text-anchor="middle" x="171.5" y="-64.5" font-family="Helvetica,sans-Serif" font-size="10.00">DocNode</text>
</a>
</g>
</g>
<!-- Node7&#45;&gt;Node4 -->
<g id="edge3" class="edge"><title>Node7&#45;&gt;Node4</title>
<path fill="none" stroke="midnightblue" d="M155.623,-50.1229C145.724,-40.2238 133.362,-27.8624 125.215,-19.7149"/>
<polygon fill="midnightblue" stroke="midnightblue" points="153.36,-52.81 162.906,-57.4062 158.31,-47.8603 153.36,-52.81"/>
</g>
<!-- Node7&#45;&gt;Node7 -->
<g id="edge4" class="edge"><title>Node7&#45;&gt;Node7</title>
<path fill="none" stroke="#9a32cd" stroke-dasharray="5,2" d="M211.103,-71.4489C215.591,-70.6158 218.5,-69.1328 218.5,-67 218.5,-63.5 210.667,-61.75 200.875,-61.75"/>
<polygon fill="#9a32cd" stroke="#9a32cd" points="210.571,-67.9798 200.875,-72.25 211.118,-74.9584 210.571,-67.9798"/>
<text text-anchor="middle" x="240.5" y="-64.5" font-family="Helvetica,sans-Serif" font-size="10.00"> m_parent</text>
</g>
</g>
</svg>
