<?xml version="1.0" encoding="UTF-8" standalone="no"?>
<!DOCTYPE svg PUBLIC "-//W3C//DTD SVG 1.1//EN"
 "http://www.w3.org/Graphics/SVG/1.1/DTD/svg11.dtd">
<!-- Generated by graphviz version 2.38.0 (20140413.2041)
 -->
<!-- Title: TemplateNodeCycle Pages: 1 -->
<svg width="228pt" height="220pt"
 viewBox="0.00 0.00 228.00 220.00" xmlns="http://www.w3.org/2000/svg" xmlns:xlink="http://www.w3.org/1999/xlink">
<g id="graph0" class="graph" transform="scale(1 1) rotate(0) translate(4 216)">
<title>TemplateNodeCycle</title>
<polygon fill="white" stroke="none" points="-4,4 -4,-216 224,-216 224,4 -4,4"/>
<!-- Node4 -->
<g id="node1" class="node"><title>Node4</title>
<polygon fill="#bfbfbf" stroke="black" points="9,-0.5 9,-19.5 115,-19.5 115,-0.5 9,-0.5"/>
<text text-anchor="middle" x="62" y="-7.5" font-family="Helvetica,sans-Serif" font-size="10.00">TemplateNodeCycle</text>
</g>
<!-- Node5 -->
<g id="node2" class="node"><title>Node5</title>
<g id="a_node2"><a xlink:href="../../d8/d78/class_template_node_creator.html" target="_top" xlink:title="TemplateNodeCreator\l\&lt; TemplateNodeCycle \&gt;">
<polygon fill="white" stroke="black" points="0,-57.5 0,-87.5 124,-87.5 124,-57.5 0,-57.5"/>
<text text-anchor="start" x="8" y="-75.5" font-family="Helvetica,sans-Serif" font-size="10.00">TemplateNodeCreator</text>
<text text-anchor="middle" x="62" y="-64.5" font-family="Helvetica,sans-Serif" font-size="10.00">&lt; TemplateNodeCycle &gt;</text>
</a>
</g>
</g>
<!-- Node5&#45;&gt;Node4 -->
<g id="edge1" class="edge"><title>Node5&#45;&gt;Node4</title>
<path fill="none" stroke="midnightblue" d="M62,-47.3524C62,-37.5132 62,-26.7753 62,-19.5399"/>
<polygon fill="midnightblue" stroke="midnightblue" points="58.5001,-47.468 62,-57.468 65.5001,-47.4681 58.5001,-47.468"/>
</g>
<!-- Node6 -->
<g id="node3" class="node"><title>Node6</title>
<g id="a_node3"><a xlink:href="../../d6/d53/class_template_node.html" target="_top" xlink:title="Base class of all nodes in a template&#39;s AST. ">
<polygon fill="white" stroke="black" points="36,-192.5 36,-211.5 116,-211.5 116,-192.5 36,-192.5"/>
<text text-anchor="middle" x="76" y="-199.5" font-family="Helvetica,sans-Serif" font-size="10.00">TemplateNode</text>
</a>
</g>
</g>
<!-- Node6&#45;&gt;Node5 -->
<g id="edge2" class="edge"><title>Node6&#45;&gt;Node5</title>
<path fill="none" stroke="midnightblue" d="M70.6925,-182.502C68.5316,-174.169 66.2518,-164.164 65,-155 61.7998,-131.572 61.4982,-104.028 61.6753,-87.7075"/>
<polygon fill="midnightblue" stroke="midnightblue" points="67.3528,-183.558 73.3681,-192.28 74.1046,-181.71 67.3528,-183.558"/>
</g>
<!-- Node6&#45;&gt;Node6 -->
<g id="edge3" class="edge"><title>Node6&#45;&gt;Node6</title>
<path fill="none" stroke="#9a32cd" stroke-dasharray="5,2" d="M126.265,-206.218C131.005,-205.354 134,-203.948 134,-202 134,-198.883 126.332,-197.154 116.119,-196.813"/>
<polygon fill="#9a32cd" stroke="#9a32cd" points="125.74,-202.752 116.119,-207.187 126.406,-209.72 125.74,-202.752"/>
<text text-anchor="middle" x="156" y="-199.5" font-family="Helvetica,sans-Serif" font-size="10.00"> m_parent</text>
</g>
<!-- Node7 -->
<g id="node4" class="node"><title>Node7</title>
<g id="a_node4"><a xlink:href="../../d8/d78/class_template_node_creator.html" target="_top" xlink:title="Helper class for creating template AST tag nodes and returning the template for a given node...">
<polygon fill="white" stroke="black" points="74.5,-135.5 74.5,-154.5 211.5,-154.5 211.5,-135.5 74.5,-135.5"/>
<text text-anchor="middle" x="143" y="-142.5" font-family="Helvetica,sans-Serif" font-size="10.00">TemplateNodeCreator&lt; T &gt;</text>
</a>
</g>
</g>
<!-- Node6&#45;&gt;Node7 -->
<g id="edge5" class="edge"><title>Node6&#45;&gt;Node7</title>
<path fill="none" stroke="midnightblue" d="M94.2748,-185.998C106.501,-175.962 122.164,-163.104 132.384,-154.715"/>
<polygon fill="midnightblue" stroke="midnightblue" points="91.9773,-183.356 86.4688,-192.406 96.4188,-188.767 91.9773,-183.356"/>
</g>
<!-- Node7&#45;&gt;Node5 -->
<g id="edge4" class="edge"><title>Node7&#45;&gt;Node5</title>
<path fill="none" stroke="orange" stroke-dasharray="5,2" d="M125.518,-128.784C111.462,-116.551 91.8689,-99.497 78.1726,-87.5762"/>
<polygon fill="orange" stroke="orange" points="123.227,-131.43 133.068,-135.355 127.823,-126.15 123.227,-131.43"/>
<text text-anchor="middle" x="164.5" y="-109" font-family="Helvetica,sans-Serif" font-size="10.00"> &lt; TemplateNodeCycle &gt;</text>
</g>
</g>
</svg>
