<?xml version="1.0" encoding="UTF-8" standalone="no"?>
<!DOCTYPE svg PUBLIC "-//W3C//DTD SVG 1.1//EN"
 "http://www.w3.org/Graphics/SVG/1.1/DTD/svg11.dtd">
<!-- Generated by graphviz version 2.38.0 (20140413.2041)
 -->
<!-- Title: TranslatorAdapter_1_8_2 Pages: 1 -->
<svg width="175pt" height="266pt"
 viewBox="0.00 0.00 174.50 266.00" xmlns="http://www.w3.org/2000/svg" xmlns:xlink="http://www.w3.org/1999/xlink">
<g id="graph0" class="graph" transform="scale(1 1) rotate(0) translate(4 262)">
<title>TranslatorAdapter_1_8_2</title>
<polygon fill="white" stroke="none" points="-4,4 -4,-262 170.5,-262 170.5,4 -4,4"/>
<!-- Node29 -->
<g id="node1" class="node"><title>Node29</title>
<polygon fill="#bfbfbf" stroke="black" points="-7.10543e-15,-0.5 -7.10543e-15,-19.5 125,-19.5 125,-0.5 -7.10543e-15,-0.5"/>
<text text-anchor="middle" x="62.5" y="-7.5" font-family="Helvetica,sans-Serif" font-size="10.00">TranslatorAdapter_1_8_2</text>
</g>
<!-- Node30 -->
<g id="node2" class="node"><title>Node30</title>
<g id="a_node2"><a xlink:href="../../de/d2f/class_translator_adapter__1__8__4.html" target="_top" xlink:title="TranslatorAdapter_1_8_4">
<polygon fill="white" stroke="black" points="-7.10543e-15,-57.5 -7.10543e-15,-76.5 125,-76.5 125,-57.5 -7.10543e-15,-57.5"/>
<text text-anchor="middle" x="62.5" y="-64.5" font-family="Helvetica,sans-Serif" font-size="10.00">TranslatorAdapter_1_8_4</text>
</a>
</g>
</g>
<!-- Node30&#45;&gt;Node29 -->
<g id="edge1" class="edge"><title>Node30&#45;&gt;Node29</title>
<path fill="none" stroke="midnightblue" d="M62.5,-47.1166C62.5,-37.8173 62.5,-27.0557 62.5,-19.7149"/>
<polygon fill="midnightblue" stroke="midnightblue" points="59.0001,-47.4062 62.5,-57.4062 66.0001,-47.4063 59.0001,-47.4062"/>
</g>
<!-- Node31 -->
<g id="node3" class="node"><title>Node31</title>
<g id="a_node3"><a xlink:href="../../db/d6c/class_translator_adapter_base.html" target="_top" xlink:title="Base of the translator adapter tree. ">
<polygon fill="white" stroke="black" points="4.5,-114.5 4.5,-133.5 120.5,-133.5 120.5,-114.5 4.5,-114.5"/>
<text text-anchor="middle" x="62.5" y="-121.5" font-family="Helvetica,sans-Serif" font-size="10.00">TranslatorAdapterBase</text>
</a>
</g>
</g>
<!-- Node31&#45;&gt;Node30 -->
<g id="edge2" class="edge"><title>Node31&#45;&gt;Node30</title>
<path fill="none" stroke="midnightblue" d="M62.5,-104.117C62.5,-94.8173 62.5,-84.0557 62.5,-76.7149"/>
<polygon fill="midnightblue" stroke="midnightblue" points="59.0001,-104.406 62.5,-114.406 66.0001,-104.406 59.0001,-104.406"/>
</g>
<!-- Node32 -->
<g id="node4" class="node"><title>Node32</title>
<g id="a_node4"><a xlink:href="../../d8/dfb/class_translator.html" target="_top" xlink:title="Abstract base class for all translatable text fragments. ">
<polygon fill="white" stroke="black" points="40.5,-238.5 40.5,-257.5 100.5,-257.5 100.5,-238.5 40.5,-238.5"/>
<text text-anchor="middle" x="70.5" y="-245.5" font-family="Helvetica,sans-Serif" font-size="10.00">Translator</text>
</a>
</g>
</g>
<!-- Node32&#45;&gt;Node31 -->
<g id="edge3" class="edge"><title>Node32&#45;&gt;Node31</title>
<path fill="none" stroke="midnightblue" d="M68.1478,-228.087C67.1924,-219.788 66.1602,-209.923 65.5,-201 63.707,-176.77 62.9417,-148.109 62.653,-133.904"/>
<polygon fill="midnightblue" stroke="midnightblue" points="64.6945,-228.686 69.3611,-238.198 71.6446,-227.852 64.6945,-228.686"/>
</g>
<!-- Node33 -->
<g id="node5" class="node"><title>Node33</title>
<g id="a_node5"><a xlink:href="../../d6/d78/class_translator_english.html" target="_top" xlink:title="TranslatorEnglish">
<polygon fill="white" stroke="black" points="74.5,-181.5 74.5,-200.5 166.5,-200.5 166.5,-181.5 74.5,-181.5"/>
<text text-anchor="middle" x="120.5" y="-188.5" font-family="Helvetica,sans-Serif" font-size="10.00">TranslatorEnglish</text>
</a>
</g>
</g>
<!-- Node32&#45;&gt;Node33 -->
<g id="edge5" class="edge"><title>Node32&#45;&gt;Node33</title>
<path fill="none" stroke="midnightblue" d="M85.2017,-230.828C94.1551,-220.979 105.244,-208.782 112.577,-200.715"/>
<polygon fill="midnightblue" stroke="midnightblue" points="82.4495,-228.652 78.3125,-238.406 87.6291,-233.361 82.4495,-228.652"/>
</g>
<!-- Node33&#45;&gt;Node31 -->
<g id="edge4" class="edge"><title>Node33&#45;&gt;Node31</title>
<path fill="none" stroke="#9a32cd" stroke-dasharray="5,2" d="M105.897,-173.635C94.5542,-160.923 79.2734,-143.798 70.1982,-133.627"/>
<polygon fill="#9a32cd" stroke="#9a32cd" points="103.408,-176.103 112.678,-181.234 108.631,-171.442 103.408,-176.103"/>
<text text-anchor="middle" x="111.5" y="-155" font-family="Helvetica,sans-Serif" font-size="10.00"> english</text>
</g>
</g>
</svg>
