<?xml version="1.0" encoding="UTF-8" standalone="no"?>
<!DOCTYPE svg PUBLIC "-//W3C//DTD SVG 1.1//EN"
 "http://www.w3.org/Graphics/SVG/1.1/DTD/svg11.dtd">
<!-- Generated by graphviz version 2.38.0 (20140413.2041)
 -->
<!-- Title: src/filedef.h Pages: 1 -->
<svg width="535pt" height="308pt"
 viewBox="0.00 0.00 535.36 308.00" xmlns="http://www.w3.org/2000/svg" xmlns:xlink="http://www.w3.org/1999/xlink">
<g id="graph0" class="graph" transform="scale(1 1) rotate(0) translate(4 304)">
<title>src/filedef.h</title>
<polygon fill="white" stroke="none" points="-4,4 -4,-304 531.358,-304 531.358,4 -4,4"/>
<!-- Node0 -->
<g id="node1" class="node"><title>Node0</title>
<polygon fill="#bfbfbf" stroke="black" points="144.754,-280.5 144.754,-299.5 212.754,-299.5 212.754,-280.5 144.754,-280.5"/>
<text text-anchor="middle" x="178.754" y="-287.5" font-family="Helvetica,sans-Serif" font-size="10.00">src/filedef.h</text>
</g>
<!-- Node1 -->
<g id="node2" class="node"><title>Node1</title>
<g id="a_node2"><a xlink:href="../../d1/db5/index_8h.html" target="_top" xlink:title="index.h">
<polygon fill="white" stroke="black" points="20.7539,-112.5 20.7539,-131.5 68.7539,-131.5 68.7539,-112.5 20.7539,-112.5"/>
<text text-anchor="middle" x="44.7539" y="-119.5" font-family="Helvetica,sans-Serif" font-size="10.00">index.h</text>
</a>
</g>
</g>
<!-- Node0&#45;&gt;Node1 -->
<g id="edge1" class="edge"><title>Node0&#45;&gt;Node1</title>
<path fill="none" stroke="midnightblue" d="M171.549,-280.075C150.091,-253.493 86.3568,-174.538 58.2857,-139.763"/>
<polygon fill="midnightblue" stroke="midnightblue" points="60.6749,-137.151 51.6703,-131.568 55.2281,-141.548 60.6749,-137.151"/>
</g>
<!-- Node2 -->
<g id="node3" class="node"><title>Node2</title>
<polygon fill="white" stroke="#bfbfbf" points="244.254,-56.5 244.254,-75.5 287.254,-75.5 287.254,-56.5 244.254,-56.5"/>
<text text-anchor="middle" x="265.754" y="-63.5" font-family="Helvetica,sans-Serif" font-size="10.00">qlist.h</text>
</g>
<!-- Node0&#45;&gt;Node2 -->
<g id="edge4" class="edge"><title>Node0&#45;&gt;Node2</title>
<path fill="none" stroke="midnightblue" d="M182.164,-280.297C195.02,-247.494 240.718,-130.884 258.552,-85.3774"/>
<polygon fill="midnightblue" stroke="midnightblue" points="261.882,-86.4714 262.272,-75.8837 255.365,-83.9172 261.882,-86.4714"/>
</g>
<!-- Node4 -->
<g id="node5" class="node"><title>Node4</title>
<polygon fill="white" stroke="#bfbfbf" points="86.7539,-112.5 86.7539,-131.5 142.754,-131.5 142.754,-112.5 86.7539,-112.5"/>
<text text-anchor="middle" x="114.754" y="-119.5" font-family="Helvetica,sans-Serif" font-size="10.00">qintdict.h</text>
</g>
<!-- Node0&#45;&gt;Node4 -->
<g id="edge5" class="edge"><title>Node0&#45;&gt;Node4</title>
<path fill="none" stroke="midnightblue" d="M175.313,-280.075C165.195,-253.832 135.398,-176.545 121.739,-141.117"/>
<polygon fill="midnightblue" stroke="midnightblue" points="124.92,-139.64 118.057,-131.568 118.389,-142.158 124.92,-139.64"/>
</g>
<!-- Node5 -->
<g id="node6" class="node"><title>Node5</title>
<polygon fill="white" stroke="#bfbfbf" points="147.754,-56.5 147.754,-75.5 193.754,-75.5 193.754,-56.5 147.754,-56.5"/>
<text text-anchor="middle" x="170.754" y="-63.5" font-family="Helvetica,sans-Serif" font-size="10.00">qdict.h</text>
</g>
<!-- Node0&#45;&gt;Node5 -->
<g id="edge6" class="edge"><title>Node0&#45;&gt;Node5</title>
<path fill="none" stroke="midnightblue" d="M158.548,-280.414C103.506,-255.834 -41.5066,-182.426 11.7539,-112 26.869,-92.0133 95.3972,-78.3492 137.401,-71.6859"/>
<polygon fill="midnightblue" stroke="midnightblue" points="138.106,-75.1188 147.46,-70.1431 137.045,-68.1997 138.106,-75.1188"/>
</g>
<!-- Node6 -->
<g id="node7" class="node"><title>Node6</title>
<g id="a_node7"><a xlink:href="../../df/da1/definition_8h.html" target="_top" xlink:title="definition.h">
<polygon fill="white" stroke="black" points="312.754,-112.5 312.754,-131.5 376.754,-131.5 376.754,-112.5 312.754,-112.5"/>
<text text-anchor="middle" x="344.754" y="-119.5" font-family="Helvetica,sans-Serif" font-size="10.00">definition.h</text>
</a>
</g>
</g>
<!-- Node0&#45;&gt;Node6 -->
<g id="edge7" class="edge"><title>Node0&#45;&gt;Node6</title>
<path fill="none" stroke="midnightblue" d="M212.978,-288.956C247.938,-286.919 301.041,-277.934 329.754,-244 354.17,-215.144 351.822,-167.669 348.168,-141.591"/>
<polygon fill="midnightblue" stroke="midnightblue" points="351.595,-140.861 346.542,-131.549 344.685,-141.98 351.595,-140.861"/>
</g>
<!-- Node8 -->
<g id="node9" class="node"><title>Node8</title>
<g id="a_node9"><a xlink:href="../../d9/d21/sortdict_8h.html" target="_top" xlink:title="sortdict.h">
<polygon fill="white" stroke="black" points="150.254,-168.5 150.254,-187.5 207.254,-187.5 207.254,-168.5 150.254,-168.5"/>
<text text-anchor="middle" x="178.754" y="-175.5" font-family="Helvetica,sans-Serif" font-size="10.00">sortdict.h</text>
</a>
</g>
</g>
<!-- Node0&#45;&gt;Node8 -->
<g id="edge12" class="edge"><title>Node0&#45;&gt;Node8</title>
<path fill="none" stroke="midnightblue" d="M178.754,-280.368C178.754,-262.617 178.754,-221.666 178.754,-197.597"/>
<polygon fill="midnightblue" stroke="midnightblue" points="182.254,-197.591 178.754,-187.591 175.254,-197.591 182.254,-197.591"/>
</g>
<!-- Node9 -->
<g id="node10" class="node"><title>Node9</title>
<g id="a_node10"><a xlink:href="../../dd/d78/memberlist_8h.html" target="_top" xlink:title="memberlist.h">
<polygon fill="white" stroke="black" points="248.254,-224.5 248.254,-243.5 321.254,-243.5 321.254,-224.5 248.254,-224.5"/>
<text text-anchor="middle" x="284.754" y="-231.5" font-family="Helvetica,sans-Serif" font-size="10.00">memberlist.h</text>
</a>
</g>
</g>
<!-- Node0&#45;&gt;Node9 -->
<g id="edge16" class="edge"><title>Node0&#45;&gt;Node9</title>
<path fill="none" stroke="midnightblue" d="M195.785,-280.324C212.784,-271.664 239.13,-258.242 258.747,-248.249"/>
<polygon fill="midnightblue" stroke="midnightblue" points="260.444,-251.312 267.765,-243.655 257.266,-245.075 260.444,-251.312"/>
</g>
<!-- Node1&#45;&gt;Node2 -->
<g id="edge2" class="edge"><title>Node1&#45;&gt;Node2</title>
<path fill="none" stroke="midnightblue" d="M68.8813,-114.326C71.8657,-113.528 74.8774,-112.736 77.7539,-112 132.585,-97.9646 196.761,-82.8924 234.175,-74.2405"/>
<polygon fill="midnightblue" stroke="midnightblue" points="235.031,-77.6351 243.988,-71.9767 233.457,-70.8143 235.031,-77.6351"/>
</g>
<!-- Node3 -->
<g id="node4" class="node"><title>Node3</title>
<polygon fill="white" stroke="#bfbfbf" points="229.254,-0.5 229.254,-19.5 288.254,-19.5 288.254,-0.5 229.254,-0.5"/>
<text text-anchor="middle" x="258.754" y="-7.5" font-family="Helvetica,sans-Serif" font-size="10.00">qcstring.h</text>
</g>
<!-- Node1&#45;&gt;Node3 -->
<g id="edge3" class="edge"><title>Node1&#45;&gt;Node3</title>
<path fill="none" stroke="midnightblue" d="M55.2011,-112.482C71.9963,-99.0962 106.404,-72.9193 138.754,-56 164.804,-42.3757 195.929,-30.828 219.952,-22.8425"/>
<polygon fill="midnightblue" stroke="midnightblue" points="221.352,-26.0674 229.777,-19.6425 219.185,-19.4115 221.352,-26.0674"/>
</g>
<!-- Node6&#45;&gt;Node2 -->
<g id="edge8" class="edge"><title>Node6&#45;&gt;Node2</title>
<path fill="none" stroke="midnightblue" d="M332.061,-112.324C319.853,-103.979 301.175,-91.2122 286.751,-81.3524"/>
<polygon fill="midnightblue" stroke="midnightblue" points="288.646,-78.4082 278.415,-75.6545 284.696,-84.1871 288.646,-78.4082"/>
</g>
<!-- Node6&#45;&gt;Node5 -->
<g id="edge9" class="edge"><title>Node6&#45;&gt;Node5</title>
<path fill="none" stroke="midnightblue" d="M317.183,-112.444C286.354,-102.876 236.453,-87.3894 203.621,-77.2001"/>
<polygon fill="midnightblue" stroke="midnightblue" points="204.607,-73.8416 194.019,-74.2203 202.533,-80.5271 204.607,-73.8416"/>
</g>
<!-- Node7 -->
<g id="node8" class="node"><title>Node7</title>
<g id="a_node8"><a xlink:href="../../d9/d49/types_8h.html" target="_top" xlink:title="This file contains a number of basic enums and types. ">
<polygon fill="white" stroke="black" points="412.254,-56.5 412.254,-75.5 461.254,-75.5 461.254,-56.5 412.254,-56.5"/>
<text text-anchor="middle" x="436.754" y="-63.5" font-family="Helvetica,sans-Serif" font-size="10.00">types.h</text>
</a>
</g>
</g>
<!-- Node6&#45;&gt;Node7 -->
<g id="edge10" class="edge"><title>Node6&#45;&gt;Node7</title>
<path fill="none" stroke="midnightblue" d="M359.535,-112.324C374.021,-103.822 396.327,-90.7288 413.247,-80.7975"/>
<polygon fill="midnightblue" stroke="midnightblue" points="415.157,-83.735 422.009,-75.6545 411.613,-77.6981 415.157,-83.735"/>
</g>
<!-- Node7&#45;&gt;Node3 -->
<g id="edge11" class="edge"><title>Node7&#45;&gt;Node3</title>
<path fill="none" stroke="midnightblue" d="M412.004,-57.4915C382.095,-48.4181 331.458,-33.0564 296.628,-22.49"/>
<polygon fill="midnightblue" stroke="midnightblue" points="297.397,-19.0656 286.811,-19.5118 295.364,-25.7642 297.397,-19.0656"/>
</g>
<!-- Node8&#45;&gt;Node2 -->
<g id="edge13" class="edge"><title>Node8&#45;&gt;Node2</title>
<path fill="none" stroke="midnightblue" d="M185.581,-168.368C200.002,-150.135 233.781,-107.426 252.565,-83.6752"/>
<polygon fill="midnightblue" stroke="midnightblue" points="255.501,-85.606 258.959,-75.5914 250.01,-81.2636 255.501,-85.606"/>
</g>
<!-- Node8&#45;&gt;Node4 -->
<g id="edge15" class="edge"><title>Node8&#45;&gt;Node4</title>
<path fill="none" stroke="midnightblue" d="M168.471,-168.324C158.918,-160.263 144.474,-148.077 132.97,-138.369"/>
<polygon fill="midnightblue" stroke="midnightblue" points="135.124,-135.608 125.224,-131.834 130.61,-140.958 135.124,-135.608"/>
</g>
<!-- Node8&#45;&gt;Node5 -->
<g id="edge14" class="edge"><title>Node8&#45;&gt;Node5</title>
<path fill="none" stroke="midnightblue" d="M178.126,-168.368C176.835,-150.617 173.857,-109.666 172.106,-85.5974"/>
<polygon fill="midnightblue" stroke="midnightblue" points="175.595,-85.3112 171.379,-75.5914 168.613,-85.819 175.595,-85.3112"/>
</g>
<!-- Node9&#45;&gt;Node2 -->
<g id="edge17" class="edge"><title>Node9&#45;&gt;Node2</title>
<path fill="none" stroke="midnightblue" d="M283.732,-224.075C280.742,-197.945 271.959,-121.211 267.88,-85.577"/>
<polygon fill="midnightblue" stroke="midnightblue" points="271.349,-85.1052 266.735,-75.5681 264.394,-85.9013 271.349,-85.1052"/>
</g>
<!-- Node9&#45;&gt;Node7 -->
<g id="edge24" class="edge"><title>Node9&#45;&gt;Node7</title>
<path fill="none" stroke="midnightblue" d="M321.45,-231.613C379.655,-227.09 490.103,-208.363 524.754,-132 537.129,-104.728 500.876,-86.3926 471.203,-76.331"/>
<polygon fill="midnightblue" stroke="midnightblue" points="472.062,-72.9316 461.472,-73.2351 469.94,-79.6022 472.062,-72.9316"/>
</g>
<!-- Node9&#45;&gt;Node8 -->
<g id="edge23" class="edge"><title>Node9&#45;&gt;Node8</title>
<path fill="none" stroke="midnightblue" d="M267.723,-224.324C250.724,-215.664 224.378,-202.242 204.761,-192.249"/>
<polygon fill="midnightblue" stroke="midnightblue" points="206.241,-189.075 195.742,-187.655 203.064,-195.312 206.241,-189.075"/>
</g>
<!-- Node10 -->
<g id="node11" class="node"><title>Node10</title>
<g id="a_node11"><a xlink:href="../../d4/d46/memberdef_8h.html" target="_top" xlink:title="memberdef.h">
<polygon fill="white" stroke="black" points="377.754,-168.5 377.754,-187.5 451.754,-187.5 451.754,-168.5 377.754,-168.5"/>
<text text-anchor="middle" x="414.754" y="-175.5" font-family="Helvetica,sans-Serif" font-size="10.00">memberdef.h</text>
</a>
</g>
</g>
<!-- Node9&#45;&gt;Node10 -->
<g id="edge18" class="edge"><title>Node9&#45;&gt;Node10</title>
<path fill="none" stroke="midnightblue" d="M305.353,-224.444C326.747,-215.557 360.435,-201.563 384.778,-191.451"/>
<polygon fill="midnightblue" stroke="midnightblue" points="386.359,-194.585 394.251,-187.516 383.674,-188.12 386.359,-194.585"/>
</g>
<!-- Node10&#45;&gt;Node2 -->
<g id="edge19" class="edge"><title>Node10&#45;&gt;Node2</title>
<path fill="none" stroke="midnightblue" d="M413.092,-168.165C410.05,-154.343 402.313,-127.581 385.754,-112 361.291,-88.983 323.951,-77.4637 297.427,-71.8858"/>
<polygon fill="midnightblue" stroke="midnightblue" points="297.975,-68.4269 287.492,-69.9656 296.646,-75.2997 297.975,-68.4269"/>
</g>
<!-- Node10&#45;&gt;Node6 -->
<g id="edge22" class="edge"><title>Node10&#45;&gt;Node6</title>
<path fill="none" stroke="midnightblue" d="M403.507,-168.324C392.956,-160.185 376.953,-147.839 364.312,-138.087"/>
<polygon fill="midnightblue" stroke="midnightblue" points="366.261,-135.171 356.205,-131.834 361.985,-140.713 366.261,-135.171"/>
</g>
<!-- Node10&#45;&gt;Node7 -->
<g id="edge21" class="edge"><title>Node10&#45;&gt;Node7</title>
<path fill="none" stroke="midnightblue" d="M451.921,-169.597C472.767,-163.339 497.067,-152.048 509.754,-132 523.513,-110.257 495.363,-91.4677 470.123,-79.7608"/>
<polygon fill="midnightblue" stroke="midnightblue" points="471.25,-76.4333 460.685,-75.6294 468.442,-82.8458 471.25,-76.4333"/>
</g>
<!-- Node11 -->
<g id="node12" class="node"><title>Node11</title>
<polygon fill="white" stroke="#bfbfbf" points="432.754,-112.5 432.754,-131.5 500.754,-131.5 500.754,-112.5 432.754,-112.5"/>
<text text-anchor="middle" x="466.754" y="-119.5" font-family="Helvetica,sans-Serif" font-size="10.00">sys/types.h</text>
</g>
<!-- Node10&#45;&gt;Node11 -->
<g id="edge20" class="edge"><title>Node10&#45;&gt;Node11</title>
<path fill="none" stroke="midnightblue" d="M423.341,-168.083C430.913,-160.22 442.132,-148.569 451.268,-139.081"/>
<polygon fill="midnightblue" stroke="midnightblue" points="453.912,-141.382 458.327,-131.751 448.869,-136.527 453.912,-141.382"/>
</g>
</g>
</svg>
