<?xml version="1.0" encoding="UTF-8" standalone="no"?>
<!DOCTYPE svg PUBLIC "-//W3C//DTD SVG 1.1//EN"
 "http://www.w3.org/Graphics/SVG/1.1/DTD/svg11.dtd">
<!-- Generated by graphviz version 2.38.0 (20140413.2041)
 -->
<!-- Title: ConfigContext Pages: 1 -->
<svg width="362pt" height="95pt"
 viewBox="0.00 0.00 362.00 95.00" xmlns="http://www.w3.org/2000/svg" xmlns:xlink="http://www.w3.org/1999/xlink">
<g id="graph0" class="graph" transform="scale(1 1) rotate(0) translate(4 91)">
<title>ConfigContext</title>
<polygon fill="white" stroke="none" points="-4,4 -4,-91 358,-91 358,4 -4,4"/>
<!-- Node3 -->
<g id="node1" class="node"><title>Node3</title>
<polygon fill="#bfbfbf" stroke="black" points="131,-0.5 131,-19.5 211,-19.5 211,-0.5 131,-0.5"/>
<text text-anchor="middle" x="171" y="-7.5" font-family="Helvetica,sans-Serif" font-size="10.00">ConfigContext</text>
</g>
<!-- Node4 -->
<g id="node2" class="node"><title>Node4</title>
<g id="a_node2"><a xlink:href="../../d8/d96/class_ref_counted_context.html" target="_top" xlink:title="Helper class to support reference counting. ">
<polygon fill="white" stroke="black" points="0,-67.5 0,-86.5 104,-86.5 104,-67.5 0,-67.5"/>
<text text-anchor="middle" x="52" y="-74.5" font-family="Helvetica,sans-Serif" font-size="10.00">RefCountedContext</text>
</a>
</g>
</g>
<!-- Node4&#45;&gt;Node3 -->
<g id="edge1" class="edge"><title>Node4&#45;&gt;Node3</title>
<path fill="none" stroke="midnightblue" d="M77.105,-62.2872C100.69,-49.4047 135.256,-30.5243 155.205,-19.6273"/>
<polygon fill="midnightblue" stroke="midnightblue" points="75.1472,-59.3684 68.0489,-67.2338 78.5028,-65.5117 75.1472,-59.3684"/>
</g>
<!-- Node5 -->
<g id="node3" class="node"><title>Node5</title>
<g id="a_node3"><a xlink:href="../../d9/de8/class_template_struct_intf.html" target="_top" xlink:title="Abstract interface for a context value of type struct. ">
<polygon fill="white" stroke="black" points="122,-67.5 122,-86.5 220,-86.5 220,-67.5 122,-67.5"/>
<text text-anchor="middle" x="171" y="-74.5" font-family="Helvetica,sans-Serif" font-size="10.00">TemplateStructIntf</text>
</a>
</g>
</g>
<!-- Node5&#45;&gt;Node3 -->
<g id="edge2" class="edge"><title>Node5&#45;&gt;Node3</title>
<path fill="none" stroke="midnightblue" d="M171,-57.037C171,-44.6703 171,-29.1198 171,-19.6273"/>
<polygon fill="midnightblue" stroke="midnightblue" points="167.5,-57.2338 171,-67.2338 174.5,-57.2338 167.5,-57.2338"/>
</g>
<!-- Node6 -->
<g id="node4" class="node"><title>Node6</title>
<g id="a_node4"><a xlink:href="../../de/d04/class_config_context_1_1_private.html" target="_top" xlink:title="ConfigContext::Private">
<polygon fill="white" stroke="black" points="238,-67.5 238,-86.5 354,-86.5 354,-67.5 238,-67.5"/>
<text text-anchor="middle" x="296" y="-74.5" font-family="Helvetica,sans-Serif" font-size="10.00">ConfigContext::Private</text>
</a>
</g>
</g>
<!-- Node6&#45;&gt;Node3 -->
<g id="edge3" class="edge"><title>Node6&#45;&gt;Node3</title>
<path fill="none" stroke="#9a32cd" stroke-dasharray="5,2" d="M270.237,-62.6034C245.483,-49.7309 208.808,-30.66 187.668,-19.6672"/>
<polygon fill="#9a32cd" stroke="#9a32cd" points="268.914,-65.8602 279.401,-67.3685 272.144,-59.6497 268.914,-65.8602"/>
<text text-anchor="middle" x="244.5" y="-41" font-family="Helvetica,sans-Serif" font-size="10.00"> p</text>
</g>
</g>
</svg>
