<?xml version="1.0" encoding="UTF-8" standalone="no"?>
<!DOCTYPE svg PUBLIC "-//W3C//DTD SVG 1.1//EN"
 "http://www.w3.org/Graphics/SVG/1.1/DTD/svg11.dtd">
<!-- Generated by graphviz version 2.38.0 (20140413.2041)
 -->
<!-- Title: DotDirDeps Pages: 1 -->
<svg width="1709pt" height="613pt"
 viewBox="0.00 0.00 1709.00 613.02" xmlns="http://www.w3.org/2000/svg" xmlns:xlink="http://www.w3.org/1999/xlink">
<g id="graph0" class="graph" transform="scale(1 1) rotate(0) translate(4 609.023)">
<title>DotDirDeps</title>
<polygon fill="white" stroke="none" points="-4,4 -4,-609.023 1705,-609.023 1705,4 -4,4"/>
<!-- Node1 -->
<g id="node1" class="node"><title>Node1</title>
<polygon fill="#bfbfbf" stroke="black" points="1088,-493.523 1088,-512.523 1156,-512.523 1156,-493.523 1088,-493.523"/>
<text text-anchor="middle" x="1122" y="-500.523" font-family="Helvetica,sans-Serif" font-size="10.00">DotDirDeps</text>
</g>
<!-- Node2 -->
<g id="node2" class="node"><title>Node2</title>
<g id="a_node2"><a xlink:href="../../d4/dd4/class_dir_def.html" target="_top" xlink:title="A model of a directory symbol. ">
<polygon fill="white" stroke="black" points="857,-493.523 857,-512.523 902,-512.523 902,-493.523 857,-493.523"/>
<text text-anchor="middle" x="879.5" y="-500.523" font-family="Helvetica,sans-Serif" font-size="10.00">DirDef</text>
</a>
</g>
</g>
<!-- Node2&#45;&gt;Node1 -->
<g id="edge1" class="edge"><title>Node2&#45;&gt;Node1</title>
<path fill="none" stroke="#9a32cd" stroke-dasharray="5,2" d="M912.468,-503.023C958.067,-503.023 1041.38,-503.023 1087.7,-503.023"/>
<polygon fill="#9a32cd" stroke="#9a32cd" points="912.267,-499.523 902.267,-503.023 912.267,-506.523 912.267,-499.523"/>
<text text-anchor="middle" x="1002.5" y="-506.023" font-family="Helvetica,sans-Serif" font-size="10.00"> m_dir</text>
</g>
<!-- Node2&#45;&gt;Node2 -->
<g id="edge62" class="edge"><title>Node2&#45;&gt;Node2</title>
<path fill="none" stroke="#9a32cd" stroke-dasharray="5,2" d="M861.723,-522.423C862.91,-527.338 868.836,-531.023 879.5,-531.023 896.562,-531.023 901.495,-521.588 894.296,-512.78"/>
<polygon fill="#9a32cd" stroke="#9a32cd" points="865.094,-523.368 864.704,-512.78 858.407,-521.301 865.094,-523.368"/>
<text text-anchor="middle" x="879.5" y="-534.023" font-family="Helvetica,sans-Serif" font-size="10.00"> m_parent</text>
</g>
<!-- Node15 -->
<g id="node15" class="node"><title>Node15</title>
<g id="a_node15"><a xlink:href="../../de/db0/class_file_def.html" target="_top" xlink:title="A model of a file symbol. ">
<polygon fill="white" stroke="black" points="1098,-346.523 1098,-365.523 1146,-365.523 1146,-346.523 1098,-346.523"/>
<text text-anchor="middle" x="1122" y="-353.523" font-family="Helvetica,sans-Serif" font-size="10.00">FileDef</text>
</a>
</g>
</g>
<!-- Node2&#45;&gt;Node15 -->
<g id="edge38" class="edge"><title>Node2&#45;&gt;Node15</title>
<path fill="none" stroke="#9a32cd" stroke-dasharray="5,2" d="M911.478,-491.918C919.19,-488.081 926.969,-483.16 933,-477.023 946.098,-463.694 936.399,-450.687 951,-439.023 987.647,-409.747 1012.29,-437.475 1054,-416.023 1078.72,-403.312 1101.45,-379.269 1113.01,-365.799"/>
<polygon fill="#9a32cd" stroke="#9a32cd" points="909.915,-488.783 902.225,-496.071 912.782,-495.17 909.915,-488.783"/>
<text text-anchor="middle" x="1002.5" y="-442.023" font-family="Helvetica,sans-Serif" font-size="10.00"> m_dir</text>
</g>
<!-- Node3 -->
<g id="node3" class="node"><title>Node3</title>
<g id="a_node3"><a xlink:href="../../d5/dcc/class_definition.html" target="_top" xlink:title="The common base class of all entity definitions found in the sources. ">
<polygon fill="white" stroke="black" points="1643,-259.523 1643,-278.523 1701,-278.523 1701,-259.523 1643,-259.523"/>
<text text-anchor="middle" x="1672" y="-266.523" font-family="Helvetica,sans-Serif" font-size="10.00">Definition</text>
</a>
</g>
</g>
<!-- Node3&#45;&gt;Node2 -->
<g id="edge2" class="edge"><title>Node3&#45;&gt;Node2</title>
<path fill="none" stroke="midnightblue" d="M1665.12,-288.487C1648.88,-337.847 1598.48,-464.023 1507.5,-464.023 1121,-464.023 1121,-464.023 1121,-464.023 1039.36,-464.023 944.125,-486.19 902.194,-497.1"/>
<polygon fill="midnightblue" stroke="midnightblue" points="1668.54,-289.283 1668.22,-278.693 1661.87,-287.17 1668.54,-289.283"/>
</g>
<!-- Node6 -->
<g id="node6" class="node"><title>Node6</title>
<g id="a_node6"><a xlink:href="../../d3/ddf/class_definition_impl.html" target="_top" xlink:title="Private data associated with a Symbol Definition object. ">
<polygon fill="white" stroke="black" points="1468,-245.523 1468,-264.523 1545,-264.523 1545,-245.523 1468,-245.523"/>
<text text-anchor="middle" x="1506.5" y="-252.523" font-family="Helvetica,sans-Serif" font-size="10.00">DefinitionImpl</text>
</a>
</g>
</g>
<!-- Node3&#45;&gt;Node6 -->
<g id="edge57" class="edge"><title>Node3&#45;&gt;Node6</title>
<path fill="none" stroke="#9a32cd" stroke-dasharray="5,2" d="M1632.74,-267.878C1614.35,-267.126 1592,-265.92 1572,-264.023 1563.33,-263.201 1554.04,-262.059 1545.29,-260.865"/>
<polygon fill="#9a32cd" stroke="#9a32cd" points="1632.66,-271.377 1642.79,-268.26 1632.93,-264.382 1632.66,-271.377"/>
<text text-anchor="middle" x="1598.5" y="-271.023" font-family="Helvetica,sans-Serif" font-size="10.00"> outerScope</text>
</g>
<!-- Node3&#45;&gt;Node15 -->
<g id="edge16" class="edge"><title>Node3&#45;&gt;Node15</title>
<path fill="none" stroke="midnightblue" d="M1633.06,-280.8C1630.34,-281.574 1627.63,-282.323 1625,-283.023 1509.26,-313.803 1479.98,-323.367 1361,-337.023 1282.35,-346.051 1188.57,-352.184 1146.03,-354.716"/>
<polygon fill="midnightblue" stroke="midnightblue" points="1634.26,-284.097 1642.87,-277.93 1632.29,-277.379 1634.26,-284.097"/>
</g>
<!-- Node4 -->
<g id="node4" class="node"><title>Node4</title>
<g id="a_node4"><a xlink:href="../../d9/d4a/class_definition_intf.html" target="_top" xlink:title="Abstract interface for a Definition or DefinitionList. ">
<polygon fill="white" stroke="black" points="1470.5,-207.523 1470.5,-226.523 1542.5,-226.523 1542.5,-207.523 1470.5,-207.523"/>
<text text-anchor="middle" x="1506.5" y="-214.523" font-family="Helvetica,sans-Serif" font-size="10.00">DefinitionIntf</text>
</a>
</g>
</g>
<!-- Node4&#45;&gt;Node3 -->
<g id="edge3" class="edge"><title>Node4&#45;&gt;Node3</title>
<path fill="none" stroke="midnightblue" d="M1552.39,-225.651C1574.59,-230.532 1601.57,-237.398 1625,-246.023 1634.89,-249.664 1645.43,-254.835 1653.93,-259.352"/>
<polygon fill="midnightblue" stroke="midnightblue" points="1553.06,-222.217 1542.55,-223.549 1551.6,-229.062 1553.06,-222.217"/>
</g>
<!-- Node5 -->
<g id="node5" class="node"><title>Node5</title>
<g id="a_node5"><a xlink:href="../../d1/d2f/struct_definition_1_1_cookie.html" target="_top" xlink:title="Definition::Cookie">
<polygon fill="white" stroke="black" points="1459,-169.523 1459,-188.523 1554,-188.523 1554,-169.523 1459,-169.523"/>
<text text-anchor="middle" x="1506.5" y="-176.523" font-family="Helvetica,sans-Serif" font-size="10.00">Definition::Cookie</text>
</a>
</g>
</g>
<!-- Node5&#45;&gt;Node3 -->
<g id="edge4" class="edge"><title>Node5&#45;&gt;Node3</title>
<path fill="none" stroke="#9a32cd" stroke-dasharray="5,2" d="M1563.94,-190.049C1584.28,-195.711 1606.71,-204.027 1625,-216.023 1642.52,-227.517 1657.26,-247.491 1665.05,-259.361"/>
<polygon fill="#9a32cd" stroke="#9a32cd" points="1564.71,-186.633 1554.15,-187.478 1562.94,-193.403 1564.71,-186.633"/>
<text text-anchor="middle" x="1598.5" y="-219.023" font-family="Helvetica,sans-Serif" font-size="10.00"> m_cookie</text>
</g>
<!-- Node6&#45;&gt;Node3 -->
<g id="edge5" class="edge"><title>Node6&#45;&gt;Node3</title>
<path fill="none" stroke="#9a32cd" stroke-dasharray="5,2" d="M1555.25,-250.253C1576.71,-249.122 1602.27,-249.182 1625,-253.023 1632.84,-254.347 1641.12,-256.856 1648.47,-259.501"/>
<polygon fill="#9a32cd" stroke="#9a32cd" points="1554.83,-246.772 1545.07,-250.893 1555.27,-253.758 1554.83,-246.772"/>
<text text-anchor="middle" x="1598.5" y="-256.023" font-family="Helvetica,sans-Serif" font-size="10.00"> m_impl</text>
</g>
<!-- Node7 -->
<g id="node7" class="node"><title>Node7</title>
<g id="a_node7"><a xlink:href="../../de/d9a/class_section_dict.html" target="_top" xlink:title="Unsorted dictionary of SectionInfo objects. ">
<polygon fill="white" stroke="black" points="968.5,-165.523 968.5,-184.523 1036.5,-184.523 1036.5,-165.523 968.5,-165.523"/>
<text text-anchor="middle" x="1002.5" y="-172.523" font-family="Helvetica,sans-Serif" font-size="10.00">SectionDict</text>
</a>
</g>
</g>
<!-- Node7&#45;&gt;Node6 -->
<g id="edge6" class="edge"><title>Node7&#45;&gt;Node6</title>
<path fill="none" stroke="#9a32cd" stroke-dasharray="5,2" d="M1046.85,-179.309C1114.23,-186.181 1248.1,-200.668 1361,-218.023 1396.76,-223.519 1406.01,-223.827 1441,-233.023 1454.16,-236.482 1468.51,-241.273 1480.33,-245.501"/>
<polygon fill="#9a32cd" stroke="#9a32cd" points="1046.92,-175.799 1036.62,-178.273 1046.22,-182.763 1046.92,-175.799"/>
<text text-anchor="middle" x="1228.5" y="-208.023" font-family="Helvetica,sans-Serif" font-size="10.00"> sectionDict</text>
</g>
<!-- Node8 -->
<g id="node8" class="node"><title>Node8</title>
<g id="a_node8"><a xlink:href="../../d1/d50/class_s_dict.html" target="_top" xlink:title="SDict\&lt; SectionInfo \&gt;">
<polygon fill="white" stroke="black" points="620.5,-333.523 620.5,-352.523 729.5,-352.523 729.5,-333.523 620.5,-333.523"/>
<text text-anchor="middle" x="675" y="-340.523" font-family="Helvetica,sans-Serif" font-size="10.00">SDict&lt; SectionInfo &gt;</text>
</a>
</g>
</g>
<!-- Node8&#45;&gt;Node7 -->
<g id="edge7" class="edge"><title>Node8&#45;&gt;Node7</title>
<path fill="none" stroke="midnightblue" d="M719.825,-354.837C778.254,-367.615 880.397,-378.996 933,-320.023 972.12,-276.166 912.317,-233.266 951,-189.023 955.551,-183.818 961.851,-180.469 968.46,-178.334"/>
<polygon fill="midnightblue" stroke="midnightblue" points="720.323,-351.361 709.794,-352.535 718.758,-358.183 720.323,-351.361"/>
</g>
<!-- Node9 -->
<g id="node9" class="node"><title>Node9</title>
<g id="a_node9"><a xlink:href="../../df/dce/class_s_list.html" target="_top" xlink:title="SList\&lt; SectionInfo \&gt;">
<polygon fill="white" stroke="black" points="826,-291.523 826,-310.523 933,-310.523 933,-291.523 826,-291.523"/>
<text text-anchor="middle" x="879.5" y="-298.523" font-family="Helvetica,sans-Serif" font-size="10.00">SList&lt; SectionInfo &gt;</text>
</a>
</g>
</g>
<!-- Node8&#45;&gt;Node9 -->
<g id="edge10" class="edge"><title>Node8&#45;&gt;Node9</title>
<path fill="none" stroke="#9a32cd" stroke-dasharray="5,2" d="M710.778,-330.082C725.48,-325.039 742.899,-319.618 759,-316.023 780.631,-311.193 804.837,-307.791 825.777,-305.463"/>
<polygon fill="#9a32cd" stroke="#9a32cd" points="709.358,-326.871 701.082,-333.486 711.677,-333.476 709.358,-326.871"/>
<text text-anchor="middle" x="783.5" y="-319.023" font-family="Helvetica,sans-Serif" font-size="10.00"> m_owner</text>
</g>
<!-- Node9&#45;&gt;Node8 -->
<g id="edge8" class="edge"><title>Node9&#45;&gt;Node8</title>
<path fill="none" stroke="#9a32cd" stroke-dasharray="5,2" d="M849.208,-314.732C836.757,-320.01 821.923,-325.588 808,-329.023 782.605,-335.288 753.781,-338.749 729.561,-340.662"/>
<polygon fill="#9a32cd" stroke="#9a32cd" points="850.863,-317.828 858.619,-310.611 848.055,-311.416 850.863,-317.828"/>
<text text-anchor="middle" x="783.5" y="-340.023" font-family="Helvetica,sans-Serif" font-size="10.00"> m_list</text>
</g>
<!-- Node10 -->
<g id="node10" class="node"><title>Node10</title>
<polygon fill="white" stroke="#bfbfbf" points="621.5,-287.523 621.5,-306.523 728.5,-306.523 728.5,-287.523 621.5,-287.523"/>
<text text-anchor="middle" x="675" y="-294.523" font-family="Helvetica,sans-Serif" font-size="10.00">QList&lt; SectionInfo &gt;</text>
</g>
<!-- Node10&#45;&gt;Node9 -->
<g id="edge9" class="edge"><title>Node10&#45;&gt;Node9</title>
<path fill="none" stroke="midnightblue" d="M738.845,-297.051C760.734,-297.18 785.453,-297.458 808,-298.023 813.756,-298.167 819.775,-298.36 825.766,-298.578"/>
<polygon fill="midnightblue" stroke="midnightblue" points="738.695,-293.55 728.678,-297.001 738.66,-300.55 738.695,-293.55"/>
</g>
<!-- Node11 -->
<g id="node11" class="node"><title>Node11</title>
<g id="a_node11"><a xlink:href="../../df/dce/class_s_list.html" target="_top" xlink:title="internal wrapper class that redirects compareValues() to the dictionary ">
<polygon fill="white" stroke="black" points="132.5,-239.523 132.5,-258.523 195.5,-258.523 195.5,-239.523 132.5,-239.523"/>
<text text-anchor="middle" x="164" y="-246.523" font-family="Helvetica,sans-Serif" font-size="10.00">SList&lt; T &gt;</text>
</a>
</g>
</g>
<!-- Node11&#45;&gt;Node9 -->
<g id="edge11" class="edge"><title>Node11&#45;&gt;Node9</title>
<path fill="none" stroke="orange" stroke-dasharray="5,2" d="M205.61,-248.378C281.46,-247.507 449.761,-247.149 591,-258.023 658.058,-263.186 674.49,-268.029 741,-278.023 769.003,-282.231 800.131,-287.397 825.677,-291.766"/>
<polygon fill="orange" stroke="orange" points="205.49,-244.879 195.534,-248.503 205.577,-251.879 205.49,-244.879"/>
<text text-anchor="middle" x="546" y="-261.023" font-family="Helvetica,sans-Serif" font-size="10.00"> &lt; SectionInfo &gt;</text>
</g>
<!-- Node18 -->
<g id="node18" class="node"><title>Node18</title>
<g id="a_node18"><a xlink:href="../../df/dce/class_s_list.html" target="_top" xlink:title="SList\&lt; ClassDef \&gt;">
<polygon fill="white" stroke="black" points="369,-385.523 369,-404.523 467,-404.523 467,-385.523 369,-385.523"/>
<text text-anchor="middle" x="418" y="-392.523" font-family="Helvetica,sans-Serif" font-size="10.00">SList&lt; ClassDef &gt;</text>
</a>
</g>
</g>
<!-- Node11&#45;&gt;Node18 -->
<g id="edge22" class="edge"><title>Node11&#45;&gt;Node18</title>
<path fill="none" stroke="orange" stroke-dasharray="5,2" d="M205.444,-261.415C241.676,-273.781 295.1,-295.236 335,-325.023 344.85,-332.377 344.071,-337.574 353,-346.023 368.958,-361.124 389.414,-376.132 402.849,-385.482"/>
<polygon fill="orange" stroke="orange" points="206.299,-258.011 195.706,-258.168 204.085,-264.651 206.299,-258.011"/>
<text text-anchor="middle" x="290" y="-328.023" font-family="Helvetica,sans-Serif" font-size="10.00"> &lt; ClassDef &gt;</text>
</g>
<!-- Node21 -->
<g id="node21" class="node"><title>Node21</title>
<g id="a_node21"><a xlink:href="../../df/dce/class_s_list.html" target="_top" xlink:title="SList\&lt; Definition \&gt;">
<polygon fill="white" stroke="black" points="369,-201.523 369,-220.523 467,-220.523 467,-201.523 369,-201.523"/>
<text text-anchor="middle" x="418" y="-208.523" font-family="Helvetica,sans-Serif" font-size="10.00">SList&lt; Definition &gt;</text>
</a>
</g>
</g>
<!-- Node11&#45;&gt;Node21 -->
<g id="edge28" class="edge"><title>Node11&#45;&gt;Node21</title>
<path fill="none" stroke="orange" stroke-dasharray="5,2" d="M205.87,-240.933C218.402,-238.567 232.247,-236.07 245,-234.023 286.645,-227.339 334.181,-221.087 368.71,-216.794"/>
<polygon fill="orange" stroke="orange" points="204.871,-237.56 195.706,-242.876 206.185,-244.436 204.871,-237.56"/>
<text text-anchor="middle" x="290" y="-237.023" font-family="Helvetica,sans-Serif" font-size="10.00"> &lt; Definition &gt;</text>
</g>
<!-- Node31 -->
<g id="node31" class="node"><title>Node31</title>
<g id="a_node31"><a xlink:href="../../df/dce/class_s_list.html" target="_top" xlink:title="SList\&lt; NamespaceDef \&gt;">
<polygon fill="white" stroke="black" points="355.5,-487.523 355.5,-506.523 480.5,-506.523 480.5,-487.523 355.5,-487.523"/>
<text text-anchor="middle" x="418" y="-494.523" font-family="Helvetica,sans-Serif" font-size="10.00">SList&lt; NamespaceDef &gt;</text>
</a>
</g>
</g>
<!-- Node11&#45;&gt;Node31 -->
<g id="edge44" class="edge"><title>Node11&#45;&gt;Node31</title>
<path fill="none" stroke="orange" stroke-dasharray="5,2" d="M180.354,-266.479C196.192,-284.303 221.787,-312.603 245,-336.023 304.027,-395.576 378.814,-462.992 406.269,-487.49"/>
<polygon fill="orange" stroke="orange" points="182.663,-263.807 173.415,-258.637 177.421,-268.446 182.663,-263.807"/>
<text text-anchor="middle" x="290" y="-423.023" font-family="Helvetica,sans-Serif" font-size="10.00"> &lt; NamespaceDef &gt;</text>
</g>
<!-- Node35 -->
<g id="node35" class="node"><title>Node35</title>
<g id="a_node35"><a xlink:href="../../df/dce/class_s_list.html" target="_top" xlink:title="SList\&lt; MemberDef \&gt;">
<polygon fill="white" stroke="black" points="364,-11.523 364,-30.523 472,-30.523 472,-11.523 364,-11.523"/>
<text text-anchor="middle" x="418" y="-18.523" font-family="Helvetica,sans-Serif" font-size="10.00">SList&lt; MemberDef &gt;</text>
</a>
</g>
</g>
<!-- Node11&#45;&gt;Node35 -->
<g id="edge51" class="edge"><title>Node11&#45;&gt;Node35</title>
<path fill="none" stroke="orange" stroke-dasharray="5,2" d="M204.948,-236.9C213.432,-232.55 221.482,-226.736 227,-219.023 265.297,-165.49 202.486,-122.273 245,-72.023 260.44,-53.7735 319.203,-39.0731 363.785,-30.2269"/>
<polygon fill="orange" stroke="orange" points="203.36,-233.777 195.672,-241.068 206.228,-240.162 203.36,-233.777"/>
<text text-anchor="middle" x="290" y="-75.023" font-family="Helvetica,sans-Serif" font-size="10.00"> &lt; MemberDef &gt;</text>
</g>
<!-- Node12 -->
<g id="node12" class="node"><title>Node12</title>
<polygon fill="white" stroke="#bfbfbf" points="0,-174.523 0,-193.523 64,-193.523 64,-174.523 0,-174.523"/>
<text text-anchor="middle" x="32" y="-181.523" font-family="Helvetica,sans-Serif" font-size="10.00">QList&lt; T &gt;</text>
</g>
<!-- Node12&#45;&gt;Node11 -->
<g id="edge12" class="edge"><title>Node12&#45;&gt;Node11</title>
<path fill="none" stroke="midnightblue" d="M60.332,-198.286C72.7128,-204.696 87.5574,-212.313 101,-219.023 114.908,-225.966 130.679,-233.594 142.834,-239.42"/>
<polygon fill="midnightblue" stroke="midnightblue" points="61.8965,-195.154 51.4085,-193.654 58.6715,-201.367 61.8965,-195.154"/>
</g>
<!-- Node27 -->
<g id="node27" class="node"><title>Node27</title>
<g id="a_node27"><a xlink:href="../../d8/d9a/class_s_int_list.html" target="_top" xlink:title="internal wrapper class that redirects compareValues() to the dictionary ">
<polygon fill="white" stroke="black" points="127,-77.523 127,-96.523 201,-96.523 201,-77.523 127,-77.523"/>
<text text-anchor="middle" x="164" y="-84.523" font-family="Helvetica,sans-Serif" font-size="10.00">SIntList&lt; T &gt;</text>
</a>
</g>
</g>
<!-- Node12&#45;&gt;Node27 -->
<g id="edge36" class="edge"><title>Node12&#45;&gt;Node27</title>
<path fill="none" stroke="midnightblue" d="M44.6545,-165.485C56.7059,-147.771 77.0942,-121.535 101,-106.023 108.744,-100.998 117.888,-97.2429 126.741,-94.4595"/>
<polygon fill="midnightblue" stroke="midnightblue" points="41.4112,-164.048 38.8475,-174.328 47.2623,-167.89 41.4112,-164.048"/>
</g>
<!-- Node13 -->
<g id="node13" class="node"><title>Node13</title>
<g id="a_node13"><a xlink:href="../../d1/d50/class_s_dict.html" target="_top" xlink:title="Ordered dictionary of elements of type T. ">
<polygon fill="white" stroke="black" points="385.5,-317.523 385.5,-336.523 450.5,-336.523 450.5,-317.523 385.5,-317.523"/>
<text text-anchor="middle" x="418" y="-324.523" font-family="Helvetica,sans-Serif" font-size="10.00">SDict&lt; T &gt;</text>
</a>
</g>
</g>
<!-- Node13&#45;&gt;Node8 -->
<g id="edge13" class="edge"><title>Node13&#45;&gt;Node8</title>
<path fill="none" stroke="orange" stroke-dasharray="5,2" d="M461.07,-325.244C495.954,-324.254 546.807,-323.932 591,-328.023 603.539,-329.184 617.021,-331.257 629.396,-333.5"/>
<polygon fill="orange" stroke="orange" points="460.666,-321.755 450.781,-325.569 460.887,-328.752 460.666,-321.755"/>
<text text-anchor="middle" x="546" y="-331.023" font-family="Helvetica,sans-Serif" font-size="10.00"> &lt; SectionInfo &gt;</text>
</g>
<!-- Node17 -->
<g id="node17" class="node"><title>Node17</title>
<g id="a_node17"><a xlink:href="../../d1/d50/class_s_dict.html" target="_top" xlink:title="SDict\&lt; ClassDef \&gt;">
<polygon fill="white" stroke="black" points="624.5,-390.523 624.5,-409.523 725.5,-409.523 725.5,-390.523 624.5,-390.523"/>
<text text-anchor="middle" x="675" y="-397.523" font-family="Helvetica,sans-Serif" font-size="10.00">SDict&lt; ClassDef &gt;</text>
</a>
</g>
</g>
<!-- Node13&#45;&gt;Node17 -->
<g id="edge23" class="edge"><title>Node13&#45;&gt;Node17</title>
<path fill="none" stroke="orange" stroke-dasharray="5,2" d="M460.399,-338.874C510.592,-353.243 594.201,-377.179 640.527,-390.44"/>
<polygon fill="orange" stroke="orange" points="461.101,-335.435 450.524,-336.047 459.174,-342.165 461.101,-335.435"/>
<text text-anchor="middle" x="546" y="-377.023" font-family="Helvetica,sans-Serif" font-size="10.00"> &lt; ClassDef &gt;</text>
</g>
<!-- Node20 -->
<g id="node20" class="node"><title>Node20</title>
<g id="a_node20"><a xlink:href="../../d1/d50/class_s_dict.html" target="_top" xlink:title="SDict\&lt; Definition \&gt;">
<polygon fill="white" stroke="black" points="624.5,-211.523 624.5,-230.523 725.5,-230.523 725.5,-211.523 624.5,-211.523"/>
<text text-anchor="middle" x="675" y="-218.523" font-family="Helvetica,sans-Serif" font-size="10.00">SDict&lt; Definition &gt;</text>
</a>
</g>
</g>
<!-- Node13&#45;&gt;Node20 -->
<g id="edge29" class="edge"><title>Node13&#45;&gt;Node20</title>
<path fill="none" stroke="orange" stroke-dasharray="5,2" d="M460.562,-316.36C496.03,-306.59 547.972,-290.677 591,-271.023 616.707,-259.281 644.419,-241.417 660.433,-230.523"/>
<polygon fill="orange" stroke="orange" points="459.299,-313.076 450.564,-319.072 461.131,-319.832 459.299,-313.076"/>
<text text-anchor="middle" x="546" y="-306.023" font-family="Helvetica,sans-Serif" font-size="10.00"> &lt; Definition &gt;</text>
</g>
<!-- Node30 -->
<g id="node30" class="node"><title>Node30</title>
<g id="a_node30"><a xlink:href="../../d1/d50/class_s_dict.html" target="_top" xlink:title="SDict\&lt; NamespaceDef \&gt;">
<polygon fill="white" stroke="black" points="611,-468.523 611,-487.523 739,-487.523 739,-468.523 611,-468.523"/>
<text text-anchor="middle" x="675" y="-475.523" font-family="Helvetica,sans-Serif" font-size="10.00">SDict&lt; NamespaceDef &gt;</text>
</a>
</g>
</g>
<!-- Node13&#45;&gt;Node30 -->
<g id="edge45" class="edge"><title>Node13&#45;&gt;Node30</title>
<path fill="none" stroke="orange" stroke-dasharray="5,2" d="M444.89,-342.028C457.8,-350.6 472.794,-362.359 483,-376.023 496.386,-393.944 484.732,-407.671 501,-423.023 530.683,-451.034 574.605,-464.78 610.764,-471.525"/>
<polygon fill="orange" stroke="orange" points="446.688,-339.024 436.37,-336.619 442.937,-344.934 446.688,-339.024"/>
<text text-anchor="middle" x="546" y="-469.023" font-family="Helvetica,sans-Serif" font-size="10.00"> &lt; NamespaceDef &gt;</text>
</g>
<!-- Node34 -->
<g id="node34" class="node"><title>Node34</title>
<g id="a_node34"><a xlink:href="../../d1/d50/class_s_dict.html" target="_top" xlink:title="SDict\&lt; MemberDef \&gt;">
<polygon fill="white" stroke="black" points="620,-27.523 620,-46.523 730,-46.523 730,-27.523 620,-27.523"/>
<text text-anchor="middle" x="675" y="-34.523" font-family="Helvetica,sans-Serif" font-size="10.00">SDict&lt; MemberDef &gt;</text>
</a>
</g>
</g>
<!-- Node13&#45;&gt;Node34 -->
<g id="edge52" class="edge"><title>Node13&#45;&gt;Node34</title>
<path fill="none" stroke="orange" stroke-dasharray="5,2" d="M432.787,-309.431C446.968,-290.65 468.918,-259.585 483,-230.023 494.425,-206.039 483.207,-192.751 501,-173.023 530.198,-140.651 560.733,-165.397 591,-134.023 606.242,-118.223 595.902,-105.642 609,-88.023 622.093,-70.4105 642.753,-55.6336 657.259,-46.594"/>
<polygon fill="orange" stroke="orange" points="430.003,-307.31 426.695,-317.375 435.558,-311.569 430.003,-307.31"/>
<text text-anchor="middle" x="546" y="-176.023" font-family="Helvetica,sans-Serif" font-size="10.00"> &lt; MemberDef &gt;</text>
</g>
<!-- Node14 -->
<g id="node14" class="node"><title>Node14</title>
<g id="a_node14"><a xlink:href="../../db/dab/struct_body_info.html" target="_top" xlink:title="Data associated with description found in the body. ">
<polygon fill="white" stroke="black" points="1295,-308.523 1295,-327.523 1351,-327.523 1351,-308.523 1295,-308.523"/>
<text text-anchor="middle" x="1323" y="-315.523" font-family="Helvetica,sans-Serif" font-size="10.00">BodyInfo</text>
</a>
</g>
</g>
<!-- Node14&#45;&gt;Node6 -->
<g id="edge14" class="edge"><title>Node14&#45;&gt;Node6</title>
<path fill="none" stroke="#9a32cd" stroke-dasharray="5,2" d="M1361.18,-314.194C1384.67,-310.936 1415.32,-305.118 1441,-295.023 1460.38,-287.405 1480.4,-273.954 1492.9,-264.771"/>
<polygon fill="#9a32cd" stroke="#9a32cd" points="1360.73,-310.723 1351.26,-315.478 1361.63,-317.665 1360.73,-310.723"/>
<text text-anchor="middle" x="1410" y="-313.023" font-family="Helvetica,sans-Serif" font-size="10.00"> body</text>
</g>
<!-- Node15&#45;&gt;Node14 -->
<g id="edge15" class="edge"><title>Node15&#45;&gt;Node14</title>
<path fill="none" stroke="#9a32cd" stroke-dasharray="5,2" d="M1153.66,-342.68C1164.9,-338.301 1177.84,-333.84 1190,-331.023 1225.67,-322.76 1267.95,-319.746 1294.87,-318.649"/>
<polygon fill="#9a32cd" stroke="#9a32cd" points="1152.25,-339.474 1144.29,-346.463 1154.87,-345.965 1152.25,-339.474"/>
<text text-anchor="middle" x="1228.5" y="-334.023" font-family="Helvetica,sans-Serif" font-size="10.00"> fileDef</text>
</g>
<!-- Node16 -->
<g id="node16" class="node"><title>Node16</title>
<g id="a_node16"><a xlink:href="../../d9/d3d/class_class_s_dict.html" target="_top" xlink:title="A sorted dictionary of ClassDef objects. ">
<polygon fill="white" stroke="black" points="846,-405.523 846,-424.523 913,-424.523 913,-405.523 846,-405.523"/>
<text text-anchor="middle" x="879.5" y="-412.523" font-family="Helvetica,sans-Serif" font-size="10.00">ClassSDict</text>
</a>
</g>
</g>
<!-- Node16&#45;&gt;Node15 -->
<g id="edge17" class="edge"><title>Node16&#45;&gt;Node15</title>
<path fill="none" stroke="#9a32cd" stroke-dasharray="5,2" d="M919.1,-400.866C924.098,-398.064 928.897,-394.797 933,-391.023 945.011,-379.977 936.988,-367.385 951,-359.023 997.007,-331.568 1063.23,-341.536 1097.88,-349.662"/>
<polygon fill="#9a32cd" stroke="#9a32cd" points="917.375,-397.815 909.994,-405.417 920.504,-404.077 917.375,-397.815"/>
<text text-anchor="middle" x="1002.5" y="-362.023" font-family="Helvetica,sans-Serif" font-size="10.00"> m_classSDict</text>
</g>
<!-- Node17&#45;&gt;Node16 -->
<g id="edge18" class="edge"><title>Node17&#45;&gt;Node16</title>
<path fill="none" stroke="midnightblue" d="M735.926,-404.462C771.915,-407.128 816.311,-410.416 845.909,-412.609"/>
<polygon fill="midnightblue" stroke="midnightblue" points="735.768,-400.941 725.537,-403.692 735.251,-407.922 735.768,-400.941"/>
</g>
<!-- Node17&#45;&gt;Node18 -->
<g id="edge21" class="edge"><title>Node17&#45;&gt;Node18</title>
<path fill="none" stroke="#9a32cd" stroke-dasharray="5,2" d="M614.31,-405.76C580.947,-408.132 538.63,-409.762 501,-407.023 489.951,-406.219 478.13,-404.813 467.001,-403.24"/>
<polygon fill="#9a32cd" stroke="#9a32cd" points="614.653,-409.244 624.362,-405.003 614.127,-402.263 614.653,-409.244"/>
<text text-anchor="middle" x="546" y="-411.023" font-family="Helvetica,sans-Serif" font-size="10.00"> m_owner</text>
</g>
<!-- Node18&#45;&gt;Node17 -->
<g id="edge19" class="edge"><title>Node18&#45;&gt;Node17</title>
<path fill="none" stroke="#9a32cd" stroke-dasharray="5,2" d="M477.227,-394.749C510.547,-394.746 553.127,-395.001 591,-396.023 601.816,-396.315 613.418,-396.779 624.418,-397.29"/>
<polygon fill="#9a32cd" stroke="#9a32cd" points="477.197,-391.249 467.2,-394.758 477.203,-398.249 477.197,-391.249"/>
<text text-anchor="middle" x="546" y="-399.023" font-family="Helvetica,sans-Serif" font-size="10.00"> m_list</text>
</g>
<!-- Node19 -->
<g id="node19" class="node"><title>Node19</title>
<polygon fill="white" stroke="#bfbfbf" points="114.5,-385.523 114.5,-404.523 213.5,-404.523 213.5,-385.523 114.5,-385.523"/>
<text text-anchor="middle" x="164" y="-392.523" font-family="Helvetica,sans-Serif" font-size="10.00">QList&lt; ClassDef &gt;</text>
</g>
<!-- Node19&#45;&gt;Node18 -->
<g id="edge20" class="edge"><title>Node19&#45;&gt;Node18</title>
<path fill="none" stroke="midnightblue" d="M223.611,-395.023C267.789,-395.023 327.628,-395.023 368.989,-395.023"/>
<polygon fill="midnightblue" stroke="midnightblue" points="223.588,-391.523 213.588,-395.023 223.588,-398.523 223.588,-391.523"/>
</g>
<!-- Node20&#45;&gt;Node15 -->
<g id="edge24" class="edge"><title>Node20&#45;&gt;Node15</title>
<path fill="none" stroke="#9a32cd" stroke-dasharray="5,2" d="M735.831,-228.639C788.555,-236.296 867.02,-250.005 933,-271.023 998.359,-291.843 1071.13,-329.078 1103.66,-346.52"/>
<polygon fill="#9a32cd" stroke="#9a32cd" points="736.035,-225.133 725.641,-227.188 735.048,-232.063 736.035,-225.133"/>
<text text-anchor="middle" x="879.5" y="-274.023" font-family="Helvetica,sans-Serif" font-size="10.00"> m_usingDeclList</text>
</g>
<!-- Node20&#45;&gt;Node21 -->
<g id="edge27" class="edge"><title>Node20&#45;&gt;Node21</title>
<path fill="none" stroke="#9a32cd" stroke-dasharray="5,2" d="M614.035,-218.671C569.282,-216.916 508.923,-214.549 467.263,-212.916"/>
<polygon fill="#9a32cd" stroke="#9a32cd" points="614.064,-222.175 624.193,-219.07 614.338,-215.181 614.064,-222.175"/>
<text text-anchor="middle" x="546" y="-221.023" font-family="Helvetica,sans-Serif" font-size="10.00"> m_owner</text>
</g>
<!-- Node21&#45;&gt;Node20 -->
<g id="edge25" class="edge"><title>Node21&#45;&gt;Node20</title>
<path fill="none" stroke="#9a32cd" stroke-dasharray="5,2" d="M461.927,-199.14C474.425,-196.209 488.169,-193.49 501,-192.023 540.741,-187.479 551.564,-185.332 591,-192.023 612.821,-195.725 636.551,-204.537 653.026,-211.483"/>
<polygon fill="#9a32cd" stroke="#9a32cd" points="461.094,-195.74 452.212,-201.516 462.758,-202.54 461.094,-195.74"/>
<text text-anchor="middle" x="546" y="-195.023" font-family="Helvetica,sans-Serif" font-size="10.00"> m_list</text>
</g>
<!-- Node22 -->
<g id="node22" class="node"><title>Node22</title>
<polygon fill="white" stroke="#bfbfbf" points="114.5,-190.523 114.5,-209.523 213.5,-209.523 213.5,-190.523 114.5,-190.523"/>
<text text-anchor="middle" x="164" y="-197.523" font-family="Helvetica,sans-Serif" font-size="10.00">QList&lt; Definition &gt;</text>
</g>
<!-- Node22&#45;&gt;Node21 -->
<g id="edge26" class="edge"><title>Node22&#45;&gt;Node21</title>
<path fill="none" stroke="midnightblue" d="M223.611,-202.581C267.789,-204.51 327.628,-207.122 368.989,-208.927"/>
<polygon fill="midnightblue" stroke="midnightblue" points="223.731,-199.083 213.588,-202.144 223.426,-206.077 223.731,-199.083"/>
</g>
<!-- Node23 -->
<g id="node23" class="node"><title>Node23</title>
<g id="a_node23"><a xlink:href="../../dc/d1e/class_member_group_s_dict.html" target="_top" xlink:title="A sorted dictionary of MemberGroup objects. ">
<polygon fill="white" stroke="black" points="828,-178.523 828,-197.523 931,-197.523 931,-178.523 828,-178.523"/>
<text text-anchor="middle" x="879.5" y="-185.523" font-family="Helvetica,sans-Serif" font-size="10.00">MemberGroupSDict</text>
</a>
</g>
</g>
<!-- Node23&#45;&gt;Node15 -->
<g id="edge30" class="edge"><title>Node23&#45;&gt;Node15</title>
<path fill="none" stroke="#9a32cd" stroke-dasharray="5,2" d="M941.395,-189.176C984.047,-191.125 1036.43,-196.166 1054,-209.023 1101.3,-243.642 1116.03,-319.713 1119.84,-346.478"/>
<polygon fill="#9a32cd" stroke="#9a32cd" points="941.483,-185.677 931.348,-188.765 941.196,-192.671 941.483,-185.677"/>
<text text-anchor="middle" x="1002.5" y="-212.023" font-family="Helvetica,sans-Serif" font-size="10.00"> m_memberGroupSDict</text>
</g>
<!-- Node24 -->
<g id="node24" class="node"><title>Node24</title>
<g id="a_node24"><a xlink:href="../../d0/d9f/class_s_int_dict.html" target="_top" xlink:title="SIntDict\&lt; MemberGroup \&gt;">
<polygon fill="white" stroke="black" points="609,-97.523 609,-116.523 741,-116.523 741,-97.523 609,-97.523"/>
<text text-anchor="middle" x="675" y="-104.523" font-family="Helvetica,sans-Serif" font-size="10.00">SIntDict&lt; MemberGroup &gt;</text>
</a>
</g>
</g>
<!-- Node24&#45;&gt;Node23 -->
<g id="edge31" class="edge"><title>Node24&#45;&gt;Node23</title>
<path fill="none" stroke="midnightblue" d="M696.708,-122.645C712.903,-134.189 736.392,-149.494 759,-159.023 780.837,-168.227 806.203,-174.901 827.933,-179.509"/>
<polygon fill="midnightblue" stroke="midnightblue" points="698.657,-119.735 688.513,-116.679 694.538,-125.394 698.657,-119.735"/>
</g>
<!-- Node25 -->
<g id="node25" class="node"><title>Node25</title>
<g id="a_node25"><a xlink:href="../../d8/d9a/class_s_int_list.html" target="_top" xlink:title="SIntList\&lt; MemberGroup \&gt;">
<polygon fill="white" stroke="black" points="353,-76.523 353,-95.523 483,-95.523 483,-76.523 353,-76.523"/>
<text text-anchor="middle" x="418" y="-83.523" font-family="Helvetica,sans-Serif" font-size="10.00">SIntList&lt; MemberGroup &gt;</text>
</a>
</g>
</g>
<!-- Node24&#45;&gt;Node25 -->
<g id="edge34" class="edge"><title>Node24&#45;&gt;Node25</title>
<path fill="none" stroke="#9a32cd" stroke-dasharray="5,2" d="M598.689,-98.7294C596.095,-98.4844 593.526,-98.2481 591,-98.023 555.37,-94.8496 515.526,-92.0241 483.165,-89.9131"/>
<polygon fill="#9a32cd" stroke="#9a32cd" points="598.487,-102.226 608.779,-99.7121 599.166,-95.2592 598.487,-102.226"/>
<text text-anchor="middle" x="546" y="-101.023" font-family="Helvetica,sans-Serif" font-size="10.00"> m_owner</text>
</g>
<!-- Node25&#45;&gt;Node24 -->
<g id="edge32" class="edge"><title>Node25&#45;&gt;Node24</title>
<path fill="none" stroke="#9a32cd" stroke-dasharray="5,2" d="M448.45,-72.3982C463.764,-66.0533 483.001,-59.2122 501,-56.023 540.387,-49.0444 552.508,-45.1422 591,-56.023 619.481,-64.074 647.809,-84.9501 662.884,-97.3548"/>
<polygon fill="#9a32cd" stroke="#9a32cd" points="446.813,-69.2919 439.005,-76.4528 449.574,-75.7242 446.813,-69.2919"/>
<text text-anchor="middle" x="546" y="-59.023" font-family="Helvetica,sans-Serif" font-size="10.00"> m_list</text>
</g>
<!-- Node26 -->
<g id="node26" class="node"><title>Node26</title>
<polygon fill="white" stroke="#bfbfbf" points="104.5,-115.523 104.5,-134.523 223.5,-134.523 223.5,-115.523 104.5,-115.523"/>
<text text-anchor="middle" x="164" y="-122.523" font-family="Helvetica,sans-Serif" font-size="10.00">QList&lt; MemberGroup &gt;</text>
</g>
<!-- Node26&#45;&gt;Node25 -->
<g id="edge33" class="edge"><title>Node26&#45;&gt;Node25</title>
<path fill="none" stroke="midnightblue" d="M233.993,-116.615C264.942,-112.605 301.867,-107.492 335,-102.023 346.592,-100.11 359.057,-97.8052 370.683,-95.5489"/>
<polygon fill="midnightblue" stroke="midnightblue" points="233.213,-113.187 223.74,-117.932 234.105,-120.13 233.213,-113.187"/>
</g>
<!-- Node27&#45;&gt;Node25 -->
<g id="edge35" class="edge"><title>Node27&#45;&gt;Node25</title>
<path fill="none" stroke="orange" stroke-dasharray="5,2" d="M211.291,-86.8393C250.969,-86.6819 308.539,-86.4534 352.691,-86.2782"/>
<polygon fill="orange" stroke="orange" points="211.091,-83.34 201.105,-86.8798 211.119,-90.3399 211.091,-83.34"/>
<text text-anchor="middle" x="290" y="-90.023" font-family="Helvetica,sans-Serif" font-size="10.00"> &lt; MemberGroup &gt;</text>
</g>
<!-- Node28 -->
<g id="node28" class="node"><title>Node28</title>
<g id="a_node28"><a xlink:href="../../d0/d9f/class_s_int_dict.html" target="_top" xlink:title="Ordered dictionary of elements of type T. ">
<polygon fill="white" stroke="black" points="379.5,-114.523 379.5,-133.523 456.5,-133.523 456.5,-114.523 379.5,-114.523"/>
<text text-anchor="middle" x="418" y="-121.523" font-family="Helvetica,sans-Serif" font-size="10.00">SIntDict&lt; T &gt;</text>
</a>
</g>
</g>
<!-- Node28&#45;&gt;Node24 -->
<g id="edge37" class="edge"><title>Node28&#45;&gt;Node24</title>
<path fill="none" stroke="orange" stroke-dasharray="5,2" d="M466.687,-120.844C506.828,-118.168 564.623,-114.315 608.998,-111.356"/>
<polygon fill="orange" stroke="orange" points="466.371,-117.357 456.626,-121.515 466.837,-124.342 466.371,-117.357"/>
<text text-anchor="middle" x="546" y="-122.023" font-family="Helvetica,sans-Serif" font-size="10.00"> &lt; MemberGroup &gt;</text>
</g>
<!-- Node29 -->
<g id="node29" class="node"><title>Node29</title>
<g id="a_node29"><a xlink:href="../../d4/d8d/class_namespace_s_dict.html" target="_top" xlink:title="A sorted dictionary of NamespaceDef objects. ">
<polygon fill="white" stroke="black" points="832.5,-448.523 832.5,-467.523 926.5,-467.523 926.5,-448.523 832.5,-448.523"/>
<text text-anchor="middle" x="879.5" y="-455.523" font-family="Helvetica,sans-Serif" font-size="10.00">NamespaceSDict</text>
</a>
</g>
</g>
<!-- Node29&#45;&gt;Node15 -->
<g id="edge39" class="edge"><title>Node29&#45;&gt;Node15</title>
<path fill="none" stroke="#9a32cd" stroke-dasharray="5,2" d="M920.275,-443.696C924.91,-440.953 929.297,-437.748 933,-434.023 946.744,-420.197 935.89,-406.341 951,-394.023 953.871,-391.682 1052,-370.651 1097.84,-360.921"/>
<polygon fill="#9a32cd" stroke="#9a32cd" points="918.436,-440.707 911.168,-448.415 921.657,-446.922 918.436,-440.707"/>
<text text-anchor="middle" x="1002.5" y="-408.023" font-family="Helvetica,sans-Serif" font-size="10.00"> m_namespaceSDict</text>
<text text-anchor="middle" x="1002.5" y="-397.023" font-family="Helvetica,sans-Serif" font-size="10.00">m_usingDirList</text>
</g>
<!-- Node30&#45;&gt;Node29 -->
<g id="edge40" class="edge"><title>Node30&#45;&gt;Node29</title>
<path fill="none" stroke="midnightblue" d="M749.311,-470.782C777.07,-468.041 807.868,-464.999 832.429,-462.573"/>
<polygon fill="midnightblue" stroke="midnightblue" points="748.847,-467.311 739.239,-471.777 749.535,-474.277 748.847,-467.311"/>
</g>
<!-- Node30&#45;&gt;Node31 -->
<g id="edge43" class="edge"><title>Node30&#45;&gt;Node31</title>
<path fill="none" stroke="#9a32cd" stroke-dasharray="5,2" d="M641.801,-491.111C626.658,-496.584 608.188,-502.298 591,-505.023 554.685,-510.781 513.56,-509.159 480.631,-505.92"/>
<polygon fill="#9a32cd" stroke="#9a32cd" points="643.086,-494.367 651.225,-487.584 640.632,-487.812 643.086,-494.367"/>
<text text-anchor="middle" x="546" y="-511.023" font-family="Helvetica,sans-Serif" font-size="10.00"> m_owner</text>
</g>
<!-- Node31&#45;&gt;Node30 -->
<g id="edge41" class="edge"><title>Node31&#45;&gt;Node30</title>
<path fill="none" stroke="#9a32cd" stroke-dasharray="5,2" d="M491.115,-491.65C528.744,-488.846 574.361,-485.447 610.623,-482.745"/>
<polygon fill="#9a32cd" stroke="#9a32cd" points="490.441,-488.19 480.728,-492.424 490.961,-495.171 490.441,-488.19"/>
<text text-anchor="middle" x="546" y="-493.023" font-family="Helvetica,sans-Serif" font-size="10.00"> m_list</text>
</g>
<!-- Node32 -->
<g id="node32" class="node"><title>Node32</title>
<polygon fill="white" stroke="#bfbfbf" points="101,-487.523 101,-506.523 227,-506.523 227,-487.523 101,-487.523"/>
<text text-anchor="middle" x="164" y="-494.523" font-family="Helvetica,sans-Serif" font-size="10.00">QList&lt; NamespaceDef &gt;</text>
</g>
<!-- Node32&#45;&gt;Node31 -->
<g id="edge42" class="edge"><title>Node32&#45;&gt;Node31</title>
<path fill="none" stroke="midnightblue" d="M237.594,-497.023C274.889,-497.023 319.845,-497.023 355.424,-497.023"/>
<polygon fill="midnightblue" stroke="midnightblue" points="237.292,-493.523 227.292,-497.023 237.292,-500.523 237.292,-493.523"/>
</g>
<!-- Node33 -->
<g id="node33" class="node"><title>Node33</title>
<g id="a_node33"><a xlink:href="../../d6/dd6/class_member_s_dict.html" target="_top" xlink:title="A sorted dictionary of MemberDef objects. ">
<polygon fill="white" stroke="black" points="1190,-137.523 1190,-156.523 1267,-156.523 1267,-137.523 1190,-137.523"/>
<text text-anchor="middle" x="1228.5" y="-144.523" font-family="Helvetica,sans-Serif" font-size="10.00">MemberSDict</text>
</a>
</g>
</g>
<!-- Node33&#45;&gt;Node6 -->
<g id="edge46" class="edge"><title>Node33&#45;&gt;Node6</title>
<path fill="none" stroke="#9a32cd" stroke-dasharray="5,2" d="M1277.36,-141.912C1324.99,-139.625 1397.13,-144.158 1441,-185.023 1458.59,-201.406 1442.42,-218.618 1459,-236.023 1462.61,-239.812 1467.08,-242.868 1471.81,-245.328"/>
<polygon fill="#9a32cd" stroke="#9a32cd" points="1277.07,-138.424 1267.3,-142.514 1277.49,-145.411 1277.07,-138.424"/>
<text text-anchor="middle" x="1323" y="-162.023" font-family="Helvetica,sans-Serif" font-size="10.00"> sourceRefsDict</text>
<text text-anchor="middle" x="1323" y="-151.023" font-family="Helvetica,sans-Serif" font-size="10.00">sourceRefByDict</text>
</g>
<!-- Node34&#45;&gt;Node33 -->
<g id="edge47" class="edge"><title>Node34&#45;&gt;Node33</title>
<path fill="none" stroke="midnightblue" d="M727.049,-48.8703C802.31,-66.1338 947.579,-98.6844 1072,-122.023 1112.04,-129.534 1158.15,-136.771 1189.7,-141.508"/>
<polygon fill="midnightblue" stroke="midnightblue" points="727.434,-45.3675 716.904,-46.5384 725.866,-52.1896 727.434,-45.3675"/>
</g>
<!-- Node34&#45;&gt;Node35 -->
<g id="edge50" class="edge"><title>Node34&#45;&gt;Node35</title>
<path fill="none" stroke="#9a32cd" stroke-dasharray="5,2" d="M646.637,-23.1003C630.824,-15.8396 610.297,-7.7185 591,-4.02303 544.583,4.86602 490.176,-3.61735 455.181,-11.4616"/>
<polygon fill="#9a32cd" stroke="#9a32cd" points="645.286,-26.3332 655.82,-27.4627 648.289,-20.0104 645.286,-26.3332"/>
<text text-anchor="middle" x="546" y="-7.02303" font-family="Helvetica,sans-Serif" font-size="10.00"> m_owner</text>
</g>
<!-- Node35&#45;&gt;Node34 -->
<g id="edge48" class="edge"><title>Node35&#45;&gt;Node34</title>
<path fill="none" stroke="#9a32cd" stroke-dasharray="5,2" d="M482.466,-18.7789C514.987,-18.2907 555.181,-18.7074 591,-22.023 603.539,-23.1838 617.021,-25.2574 629.396,-27.4997"/>
<polygon fill="#9a32cd" stroke="#9a32cd" points="482.127,-15.2845 472.192,-18.9667 482.255,-22.2833 482.127,-15.2845"/>
<text text-anchor="middle" x="546" y="-25.023" font-family="Helvetica,sans-Serif" font-size="10.00"> m_list</text>
</g>
<!-- Node36 -->
<g id="node36" class="node"><title>Node36</title>
<polygon fill="white" stroke="#bfbfbf" points="109.5,-10.523 109.5,-29.523 218.5,-29.523 218.5,-10.523 109.5,-10.523"/>
<text text-anchor="middle" x="164" y="-17.523" font-family="Helvetica,sans-Serif" font-size="10.00">QList&lt; MemberDef &gt;</text>
</g>
<!-- Node36&#45;&gt;Node35 -->
<g id="edge49" class="edge"><title>Node36&#45;&gt;Node35</title>
<path fill="none" stroke="midnightblue" d="M228.806,-20.2762C270.516,-20.4417 324.362,-20.6554 363.764,-20.8118"/>
<polygon fill="midnightblue" stroke="midnightblue" points="228.765,-16.7761 218.751,-20.2363 228.737,-23.7761 228.765,-16.7761"/>
</g>
<!-- Node37 -->
<g id="node37" class="node"><title>Node37</title>
<g id="a_node37"><a xlink:href="../../d3/d3b/class_group_list.html" target="_top" xlink:title="A list of GroupDef objects. ">
<polygon fill="white" stroke="black" points="1293.5,-93.523 1293.5,-112.523 1352.5,-112.523 1352.5,-93.523 1293.5,-93.523"/>
<text text-anchor="middle" x="1323" y="-100.523" font-family="Helvetica,sans-Serif" font-size="10.00">GroupList</text>
</a>
</g>
</g>
<!-- Node37&#45;&gt;Node6 -->
<g id="edge53" class="edge"><title>Node37&#45;&gt;Node6</title>
<path fill="none" stroke="#9a32cd" stroke-dasharray="5,2" d="M1362.7,-99.3444C1388.41,-99.1597 1420.98,-103.639 1441,-124.023 1476.32,-159.997 1427.65,-196.541 1459,-236.023 1462.04,-239.848 1465.97,-242.908 1470.26,-245.356"/>
<polygon fill="#9a32cd" stroke="#9a32cd" points="1362.41,-95.8517 1352.52,-99.657 1362.62,-102.848 1362.41,-95.8517"/>
<text text-anchor="middle" x="1410" y="-127.023" font-family="Helvetica,sans-Serif" font-size="10.00"> partOfGroups</text>
</g>
<!-- Node38 -->
<g id="node38" class="node"><title>Node38</title>
<polygon fill="white" stroke="#bfbfbf" points="1072,-93.523 1072,-112.523 1172,-112.523 1172,-93.523 1072,-93.523"/>
<text text-anchor="middle" x="1122" y="-100.523" font-family="Helvetica,sans-Serif" font-size="10.00">QList&lt; GroupDef &gt;</text>
</g>
<!-- Node38&#45;&gt;Node37 -->
<g id="edge54" class="edge"><title>Node38&#45;&gt;Node37</title>
<path fill="none" stroke="midnightblue" d="M1182.29,-103.023C1218.98,-103.023 1264.46,-103.023 1293.35,-103.023"/>
<polygon fill="midnightblue" stroke="midnightblue" points="1182.19,-99.5231 1172.19,-103.023 1182.19,-106.523 1182.19,-99.5231"/>
</g>
<!-- Node39 -->
<g id="node39" class="node"><title>Node39</title>
<g id="a_node39"><a xlink:href="../../d7/dd5/struct_doc_info.html" target="_top" xlink:title="Data associated with a detailed description. ">
<polygon fill="white" stroke="black" points="1297.5,-265.523 1297.5,-284.523 1348.5,-284.523 1348.5,-265.523 1297.5,-265.523"/>
<text text-anchor="middle" x="1323" y="-272.523" font-family="Helvetica,sans-Serif" font-size="10.00">DocInfo</text>
</a>
</g>
</g>
<!-- Node39&#45;&gt;Node6 -->
<g id="edge55" class="edge"><title>Node39&#45;&gt;Node6</title>
<path fill="none" stroke="#9a32cd" stroke-dasharray="5,2" d="M1358.84,-271.184C1390.02,-267.748 1435.64,-262.721 1467.7,-259.189"/>
<polygon fill="#9a32cd" stroke="#9a32cd" points="1358.41,-267.71 1348.86,-272.284 1359.18,-274.668 1358.41,-267.71"/>
<text text-anchor="middle" x="1410" y="-283.023" font-family="Helvetica,sans-Serif" font-size="10.00"> inbodyDocs</text>
<text text-anchor="middle" x="1410" y="-272.023" font-family="Helvetica,sans-Serif" font-size="10.00">details</text>
</g>
<!-- Node40 -->
<g id="node40" class="node"><title>Node40</title>
<g id="a_node40"><a xlink:href="../../d0/da7/struct_brief_info.html" target="_top" xlink:title="Data associated with a brief description. ">
<polygon fill="white" stroke="black" points="1296.5,-227.523 1296.5,-246.523 1349.5,-246.523 1349.5,-227.523 1296.5,-227.523"/>
<text text-anchor="middle" x="1323" y="-234.523" font-family="Helvetica,sans-Serif" font-size="10.00">BriefInfo</text>
</a>
</g>
</g>
<!-- Node40&#45;&gt;Node6 -->
<g id="edge56" class="edge"><title>Node40&#45;&gt;Node6</title>
<path fill="none" stroke="#9a32cd" stroke-dasharray="5,2" d="M1359.77,-236.068C1383.01,-235.908 1413.91,-236.562 1441,-240.023 1450.58,-241.247 1460.82,-243.283 1470.25,-245.466"/>
<polygon fill="#9a32cd" stroke="#9a32cd" points="1359.63,-232.57 1349.68,-236.192 1359.72,-239.569 1359.63,-232.57"/>
<text text-anchor="middle" x="1410" y="-243.023" font-family="Helvetica,sans-Serif" font-size="10.00"> brief</text>
</g>
<!-- Node41 -->
<g id="node41" class="node"><title>Node41</title>
<g id="a_node41"><a xlink:href="../../dc/d2a/class_dir_list.html" target="_top" xlink:title="A list of directories. ">
<polygon fill="white" stroke="black" points="652.5,-578.523 652.5,-597.523 697.5,-597.523 697.5,-578.523 652.5,-578.523"/>
<text text-anchor="middle" x="675" y="-585.523" font-family="Helvetica,sans-Serif" font-size="10.00">DirList</text>
</a>
</g>
</g>
<!-- Node41&#45;&gt;Node2 -->
<g id="edge58" class="edge"><title>Node41&#45;&gt;Node2</title>
<path fill="none" stroke="#9a32cd" stroke-dasharray="5,2" d="M707.484,-577.498C734.488,-568.196 774.261,-553.839 808,-539.023 826.497,-530.9 846.997,-520.236 861.101,-512.627"/>
<polygon fill="#9a32cd" stroke="#9a32cd" points="706.132,-574.261 697.8,-580.806 708.394,-580.886 706.132,-574.261"/>
<text text-anchor="middle" x="783.5" y="-560.023" font-family="Helvetica,sans-Serif" font-size="10.00"> m_subdirs</text>
</g>
<!-- Node42 -->
<g id="node42" class="node"><title>Node42</title>
<polygon fill="white" stroke="#bfbfbf" points="375,-585.523 375,-604.523 461,-604.523 461,-585.523 375,-585.523"/>
<text text-anchor="middle" x="418" y="-592.523" font-family="Helvetica,sans-Serif" font-size="10.00">QList&lt; DirDef &gt;</text>
</g>
<!-- Node42&#45;&gt;Node41 -->
<g id="edge59" class="edge"><title>Node42&#45;&gt;Node41</title>
<path fill="none" stroke="midnightblue" d="M471.14,-593.592C526.828,-592.063 612.431,-589.713 652.245,-588.62"/>
<polygon fill="midnightblue" stroke="midnightblue" points="471.008,-590.094 461.108,-593.867 471.2,-597.091 471.008,-590.094"/>
</g>
<!-- Node43 -->
<g id="node43" class="node"><title>Node43</title>
<g id="a_node43"><a xlink:href="../../d0/d18/class_file_list.html" target="_top" xlink:title="Class representing a list of FileDef objects. ">
<polygon fill="white" stroke="black" points="651,-529.523 651,-548.523 699,-548.523 699,-529.523 651,-529.523"/>
<text text-anchor="middle" x="675" y="-536.523" font-family="Helvetica,sans-Serif" font-size="10.00">FileList</text>
</a>
</g>
</g>
<!-- Node43&#45;&gt;Node2 -->
<g id="edge60" class="edge"><title>Node43&#45;&gt;Node2</title>
<path fill="none" stroke="#9a32cd" stroke-dasharray="5,2" d="M709.178,-533.125C750.897,-525.708 821.337,-513.185 856.769,-506.886"/>
<polygon fill="#9a32cd" stroke="#9a32cd" points="708.462,-529.697 699.229,-534.893 709.688,-536.589 708.462,-529.697"/>
<text text-anchor="middle" x="783.5" y="-527.023" font-family="Helvetica,sans-Serif" font-size="10.00"> m_fileList</text>
</g>
<!-- Node44 -->
<g id="node44" class="node"><title>Node44</title>
<polygon fill="white" stroke="#bfbfbf" points="373.5,-547.523 373.5,-566.523 462.5,-566.523 462.5,-547.523 373.5,-547.523"/>
<text text-anchor="middle" x="418" y="-554.523" font-family="Helvetica,sans-Serif" font-size="10.00">QList&lt; FileDef &gt;</text>
</g>
<!-- Node44&#45;&gt;Node43 -->
<g id="edge61" class="edge"><title>Node44&#45;&gt;Node43</title>
<path fill="none" stroke="midnightblue" d="M472.828,-553.223C527.904,-549.336 610.9,-543.477 650.87,-540.656"/>
<polygon fill="midnightblue" stroke="midnightblue" points="472.275,-549.754 462.546,-553.949 472.768,-556.736 472.275,-549.754"/>
</g>
</g>
</svg>
