<?xml version="1.0" encoding="UTF-8" standalone="no"?>
<!DOCTYPE svg PUBLIC "-//W3C//DTD SVG 1.1//EN"
 "http://www.w3.org/Graphics/SVG/1.1/DTD/svg11.dtd">
<!-- Generated by graphviz version 2.38.0 (20140413.2041)
 -->
<!-- Title: TemplateNodeExtend Pages: 1 -->
<svg width="236pt" height="220pt"
 viewBox="0.00 0.00 235.50 220.00" xmlns="http://www.w3.org/2000/svg" xmlns:xlink="http://www.w3.org/1999/xlink">
<g id="graph0" class="graph" transform="scale(1 1) rotate(0) translate(4 216)">
<title>TemplateNodeExtend</title>
<polygon fill="white" stroke="none" points="-4,4 -4,-216 231.5,-216 231.5,4 -4,4"/>
<!-- Node0 -->
<g id="node1" class="node"><title>Node0</title>
<polygon fill="#bfbfbf" stroke="black" points="9,-0.5 9,-19.5 120,-19.5 120,-0.5 9,-0.5"/>
<text text-anchor="middle" x="64.5" y="-7.5" font-family="Helvetica,sans-Serif" font-size="10.00">TemplateNodeExtend</text>
</g>
<!-- Node1 -->
<g id="node2" class="node"><title>Node1</title>
<g id="a_node2"><a xlink:href="../../d8/d78/class_template_node_creator.html" target="_top" xlink:title="TemplateNodeCreator\l\&lt; TemplateNodeExtend \&gt;">
<polygon fill="white" stroke="black" points="0,-57.5 0,-87.5 129,-87.5 129,-57.5 0,-57.5"/>
<text text-anchor="start" x="8" y="-75.5" font-family="Helvetica,sans-Serif" font-size="10.00">TemplateNodeCreator</text>
<text text-anchor="middle" x="64.5" y="-64.5" font-family="Helvetica,sans-Serif" font-size="10.00">&lt; TemplateNodeExtend &gt;</text>
</a>
</g>
</g>
<!-- Node1&#45;&gt;Node0 -->
<g id="edge1" class="edge"><title>Node1&#45;&gt;Node0</title>
<path fill="none" stroke="midnightblue" d="M64.5,-47.3524C64.5,-37.5132 64.5,-26.7753 64.5,-19.5399"/>
<polygon fill="midnightblue" stroke="midnightblue" points="61.0001,-47.468 64.5,-57.468 68.0001,-47.4681 61.0001,-47.468"/>
</g>
<!-- Node2 -->
<g id="node3" class="node"><title>Node2</title>
<g id="a_node3"><a xlink:href="../../d6/d53/class_template_node.html" target="_top" xlink:title="Base class of all nodes in a template&#39;s AST. ">
<polygon fill="white" stroke="black" points="38.5,-192.5 38.5,-211.5 118.5,-211.5 118.5,-192.5 38.5,-192.5"/>
<text text-anchor="middle" x="78.5" y="-199.5" font-family="Helvetica,sans-Serif" font-size="10.00">TemplateNode</text>
</a>
</g>
</g>
<!-- Node2&#45;&gt;Node1 -->
<g id="edge2" class="edge"><title>Node2&#45;&gt;Node1</title>
<path fill="none" stroke="midnightblue" d="M73.1925,-182.502C71.0316,-174.169 68.7518,-164.164 67.5,-155 64.2998,-131.572 63.9982,-104.028 64.1753,-87.7075"/>
<polygon fill="midnightblue" stroke="midnightblue" points="69.8528,-183.558 75.8681,-192.28 76.6046,-181.71 69.8528,-183.558"/>
</g>
<!-- Node3 -->
<g id="node4" class="node"><title>Node3</title>
<g id="a_node4"><a xlink:href="../../d8/d78/class_template_node_creator.html" target="_top" xlink:title="Helper class for creating template AST tag nodes and returning the template for a given node...">
<polygon fill="white" stroke="black" points="77,-135.5 77,-154.5 214,-154.5 214,-135.5 77,-135.5"/>
<text text-anchor="middle" x="145.5" y="-142.5" font-family="Helvetica,sans-Serif" font-size="10.00">TemplateNodeCreator&lt; T &gt;</text>
</a>
</g>
</g>
<!-- Node2&#45;&gt;Node3 -->
<g id="edge4" class="edge"><title>Node2&#45;&gt;Node3</title>
<path fill="none" stroke="midnightblue" d="M96.7748,-185.998C109.001,-175.962 124.664,-163.104 134.884,-154.715"/>
<polygon fill="midnightblue" stroke="midnightblue" points="94.4773,-183.356 88.9688,-192.406 98.9188,-188.767 94.4773,-183.356"/>
</g>
<!-- Node3&#45;&gt;Node1 -->
<g id="edge3" class="edge"><title>Node3&#45;&gt;Node1</title>
<path fill="none" stroke="orange" stroke-dasharray="5,2" d="M128.018,-128.784C113.962,-116.551 94.3689,-99.497 80.6726,-87.5762"/>
<polygon fill="orange" stroke="orange" points="125.727,-131.43 135.568,-135.355 130.323,-126.15 125.727,-131.43"/>
<text text-anchor="middle" x="169.5" y="-109" font-family="Helvetica,sans-Serif" font-size="10.00"> &lt; TemplateNodeExtend &gt;</text>
</g>
</g>
</svg>
