<?xml version="1.0" encoding="UTF-8" standalone="no"?>
<!DOCTYPE svg PUBLIC "-//W3C//DTD SVG 1.1//EN"
 "http://www.w3.org/Graphics/SVG/1.1/DTD/svg11.dtd">
<!-- Generated by graphviz version 2.38.0 (20140413.2041)
 -->
<!-- Title: TemplateNodeRepeat Pages: 1 -->
<svg width="237pt" height="220pt"
 viewBox="0.00 0.00 237.00 220.00" xmlns="http://www.w3.org/2000/svg" xmlns:xlink="http://www.w3.org/1999/xlink">
<g id="graph0" class="graph" transform="scale(1 1) rotate(0) translate(4 216)">
<title>TemplateNodeRepeat</title>
<polygon fill="white" stroke="none" points="-4,4 -4,-216 233,-216 233,4 -4,4"/>
<!-- Node0 -->
<g id="node1" class="node"><title>Node0</title>
<polygon fill="#bfbfbf" stroke="black" points="9,-0.5 9,-19.5 121,-19.5 121,-0.5 9,-0.5"/>
<text text-anchor="middle" x="65" y="-7.5" font-family="Helvetica,sans-Serif" font-size="10.00">TemplateNodeRepeat</text>
</g>
<!-- Node1 -->
<g id="node2" class="node"><title>Node1</title>
<g id="a_node2"><a xlink:href="../../d8/d78/class_template_node_creator.html" target="_top" xlink:title="TemplateNodeCreator\l\&lt; TemplateNodeRepeat \&gt;">
<polygon fill="white" stroke="black" points="0,-57.5 0,-87.5 130,-87.5 130,-57.5 0,-57.5"/>
<text text-anchor="start" x="8" y="-75.5" font-family="Helvetica,sans-Serif" font-size="10.00">TemplateNodeCreator</text>
<text text-anchor="middle" x="65" y="-64.5" font-family="Helvetica,sans-Serif" font-size="10.00">&lt; TemplateNodeRepeat &gt;</text>
</a>
</g>
</g>
<!-- Node1&#45;&gt;Node0 -->
<g id="edge1" class="edge"><title>Node1&#45;&gt;Node0</title>
<path fill="none" stroke="midnightblue" d="M65,-47.3524C65,-37.5132 65,-26.7753 65,-19.5399"/>
<polygon fill="midnightblue" stroke="midnightblue" points="61.5001,-47.468 65,-57.468 68.5001,-47.4681 61.5001,-47.468"/>
</g>
<!-- Node2 -->
<g id="node3" class="node"><title>Node2</title>
<g id="a_node3"><a xlink:href="../../d6/d53/class_template_node.html" target="_top" xlink:title="Base class of all nodes in a template&#39;s AST. ">
<polygon fill="white" stroke="black" points="39,-192.5 39,-211.5 119,-211.5 119,-192.5 39,-192.5"/>
<text text-anchor="middle" x="79" y="-199.5" font-family="Helvetica,sans-Serif" font-size="10.00">TemplateNode</text>
</a>
</g>
</g>
<!-- Node2&#45;&gt;Node1 -->
<g id="edge2" class="edge"><title>Node2&#45;&gt;Node1</title>
<path fill="none" stroke="midnightblue" d="M73.6925,-182.502C71.5316,-174.169 69.2518,-164.164 68,-155 64.7998,-131.572 64.4982,-104.028 64.6753,-87.7075"/>
<polygon fill="midnightblue" stroke="midnightblue" points="70.3528,-183.558 76.3681,-192.28 77.1046,-181.71 70.3528,-183.558"/>
</g>
<!-- Node3 -->
<g id="node4" class="node"><title>Node3</title>
<g id="a_node4"><a xlink:href="../../d8/d78/class_template_node_creator.html" target="_top" xlink:title="Helper class for creating template AST tag nodes and returning the template for a given node...">
<polygon fill="white" stroke="black" points="77.5,-135.5 77.5,-154.5 214.5,-154.5 214.5,-135.5 77.5,-135.5"/>
<text text-anchor="middle" x="146" y="-142.5" font-family="Helvetica,sans-Serif" font-size="10.00">TemplateNodeCreator&lt; T &gt;</text>
</a>
</g>
</g>
<!-- Node2&#45;&gt;Node3 -->
<g id="edge4" class="edge"><title>Node2&#45;&gt;Node3</title>
<path fill="none" stroke="midnightblue" d="M97.2748,-185.998C109.501,-175.962 125.164,-163.104 135.384,-154.715"/>
<polygon fill="midnightblue" stroke="midnightblue" points="94.9773,-183.356 89.4688,-192.406 99.4188,-188.767 94.9773,-183.356"/>
</g>
<!-- Node3&#45;&gt;Node1 -->
<g id="edge3" class="edge"><title>Node3&#45;&gt;Node1</title>
<path fill="none" stroke="orange" stroke-dasharray="5,2" d="M128.518,-128.784C114.462,-116.551 94.8689,-99.497 81.1726,-87.5762"/>
<polygon fill="orange" stroke="orange" points="126.227,-131.43 136.068,-135.355 130.823,-126.15 126.227,-131.43"/>
<text text-anchor="middle" x="170.5" y="-109" font-family="Helvetica,sans-Serif" font-size="10.00"> &lt; TemplateNodeRepeat &gt;</text>
</g>
</g>
</svg>
