<?xml version="1.0" encoding="UTF-8" standalone="no"?>
<!DOCTYPE svg PUBLIC "-//W3C//DTD SVG 1.1//EN"
 "http://www.w3.org/Graphics/SVG/1.1/DTD/svg11.dtd">
<!-- Generated by graphviz version 2.38.0 (20140413.2041)
 -->
<!-- Title: DocAutoListItem Pages: 1 -->
<svg width="312pt" height="152pt"
 viewBox="0.00 0.00 311.50 152.00" xmlns="http://www.w3.org/2000/svg" xmlns:xlink="http://www.w3.org/1999/xlink">
<g id="graph0" class="graph" transform="scale(1 1) rotate(0) translate(4 148)">
<title>DocAutoListItem</title>
<polygon fill="white" stroke="none" points="-4,4 -4,-148 307.5,-148 307.5,4 -4,4"/>
<!-- Node4 -->
<g id="node1" class="node"><title>Node4</title>
<polygon fill="#bfbfbf" stroke="black" points="101.5,-0.5 101.5,-19.5 191.5,-19.5 191.5,-0.5 101.5,-0.5"/>
<text text-anchor="middle" x="146.5" y="-7.5" font-family="Helvetica,sans-Serif" font-size="10.00">DocAutoListItem</text>
</g>
<!-- Node5 -->
<g id="node2" class="node"><title>Node5</title>
<g id="a_node2"><a xlink:href="../../d7/da3/class_comp_accept.html" target="_top" xlink:title="CompAccept\&lt; DocAutoListItem \&gt;">
<polygon fill="white" stroke="black" points="0,-57.5 0,-76.5 165,-76.5 165,-57.5 0,-57.5"/>
<text text-anchor="middle" x="82.5" y="-64.5" font-family="Helvetica,sans-Serif" font-size="10.00">CompAccept&lt; DocAutoListItem &gt;</text>
</a>
</g>
</g>
<!-- Node5&#45;&gt;Node4 -->
<g id="edge1" class="edge"><title>Node5&#45;&gt;Node4</title>
<path fill="none" stroke="midnightblue" d="M100.294,-50.708C111.923,-40.715 126.691,-28.0237 136.359,-19.7149"/>
<polygon fill="midnightblue" stroke="midnightblue" points="97.803,-48.2341 92.5,-57.4062 102.365,-53.543 97.803,-48.2341"/>
</g>
<!-- Node6 -->
<g id="node3" class="node"><title>Node6</title>
<g id="a_node3"><a xlink:href="../../d7/da3/class_comp_accept.html" target="_top" xlink:title="Default accept implementation for compound nodes in the abstract syntax tree. ">
<polygon fill="white" stroke="black" points="33.5,-124.5 33.5,-143.5 131.5,-143.5 131.5,-124.5 33.5,-124.5"/>
<text text-anchor="middle" x="82.5" y="-131.5" font-family="Helvetica,sans-Serif" font-size="10.00">CompAccept&lt; T &gt;</text>
</a>
</g>
</g>
<!-- Node6&#45;&gt;Node5 -->
<g id="edge2" class="edge"><title>Node6&#45;&gt;Node5</title>
<path fill="none" stroke="orange" stroke-dasharray="5,2" d="M82.5,-114.037C82.5,-101.67 82.5,-86.1198 82.5,-76.6273"/>
<polygon fill="orange" stroke="orange" points="79.0001,-114.234 82.5,-124.234 86.0001,-114.234 79.0001,-114.234"/>
<text text-anchor="middle" x="130" y="-98" font-family="Helvetica,sans-Serif" font-size="10.00"> &lt; DocAutoListItem &gt;</text>
</g>
<!-- Node7 -->
<g id="node4" class="node"><title>Node7</title>
<g id="a_node4"><a xlink:href="../../d9/d0e/class_doc_node.html" target="_top" xlink:title="Abstract node interface with type information. ">
<polygon fill="white" stroke="black" points="183.5,-57.5 183.5,-76.5 241.5,-76.5 241.5,-57.5 183.5,-57.5"/>
<text text-anchor="middle" x="212.5" y="-64.5" font-family="Helvetica,sans-Serif" font-size="10.00">DocNode</text>
</a>
</g>
</g>
<!-- Node7&#45;&gt;Node4 -->
<g id="edge3" class="edge"><title>Node7&#45;&gt;Node4</title>
<path fill="none" stroke="midnightblue" d="M194.498,-50.9983C182.454,-40.9619 167.025,-28.1044 156.958,-19.7149"/>
<polygon fill="midnightblue" stroke="midnightblue" points="192.265,-53.6932 202.188,-57.4062 196.746,-48.3156 192.265,-53.6932"/>
</g>
<!-- Node7&#45;&gt;Node7 -->
<g id="edge4" class="edge"><title>Node7&#45;&gt;Node7</title>
<path fill="none" stroke="#9a32cd" stroke-dasharray="5,2" d="M252.103,-71.4489C256.591,-70.6158 259.5,-69.1328 259.5,-67 259.5,-63.5 251.667,-61.75 241.875,-61.75"/>
<polygon fill="#9a32cd" stroke="#9a32cd" points="251.571,-67.9798 241.875,-72.25 252.118,-74.9584 251.571,-67.9798"/>
<text text-anchor="middle" x="281.5" y="-64.5" font-family="Helvetica,sans-Serif" font-size="10.00"> m_parent</text>
</g>
</g>
</svg>
