<?xml version="1.0" encoding="UTF-8" standalone="no"?>
<!DOCTYPE svg PUBLIC "-//W3C//DTD SVG 1.1//EN"
 "http://www.w3.org/Graphics/SVG/1.1/DTD/svg11.dtd">
<!-- Generated by graphviz version 2.38.0 (20140413.2041)
 -->
<!-- Title: TemplateEngine::Private Pages: 1 -->
<svg width="132pt" height="95pt"
 viewBox="0.00 0.00 132.00 95.00" xmlns="http://www.w3.org/2000/svg" xmlns:xlink="http://www.w3.org/1999/xlink">
<g id="graph0" class="graph" transform="scale(1 1) rotate(0) translate(4 91)">
<title>TemplateEngine::Private</title>
<polygon fill="white" stroke="none" points="-4,4 -4,-91 128,-91 128,4 -4,4"/>
<!-- Node1 -->
<g id="node1" class="node"><title>Node1</title>
<polygon fill="#bfbfbf" stroke="black" points="-7.10543e-15,-67.5 -7.10543e-15,-86.5 124,-86.5 124,-67.5 -7.10543e-15,-67.5"/>
<text text-anchor="middle" x="62" y="-74.5" font-family="Helvetica,sans-Serif" font-size="10.00">TemplateEngine::Private</text>
</g>
<!-- Node2 -->
<g id="node2" class="node"><title>Node2</title>
<g id="a_node2"><a xlink:href="../../d0/d1d/class_template_engine.html" target="_top" xlink:title="Engine to create templates and template contexts. ">
<polygon fill="white" stroke="black" points="18.5,-0.5 18.5,-19.5 105.5,-19.5 105.5,-0.5 18.5,-0.5"/>
<text text-anchor="middle" x="62" y="-7.5" font-family="Helvetica,sans-Serif" font-size="10.00">TemplateEngine</text>
</a>
</g>
</g>
<!-- Node1&#45;&gt;Node2 -->
<g id="edge2" class="edge"><title>Node1&#45;&gt;Node2</title>
<path fill="none" stroke="#9a32cd" stroke-dasharray="5,2" d="M52.1546,-58.4018C50.8502,-55.3499 49.7176,-52.1447 49,-49 46.642,-38.6673 51.6672,-27.2082 56.1392,-19.603"/>
<polygon fill="#9a32cd" stroke="#9a32cd" points="49.0264,-59.9719 56.6112,-67.3693 55.2949,-56.8565 49.0264,-59.9719"/>
<text text-anchor="middle" x="53.5" y="-41" font-family="Helvetica,sans-Serif" font-size="10.00"> p</text>
</g>
<!-- Node2&#45;&gt;Node1 -->
<g id="edge1" class="edge"><title>Node2&#45;&gt;Node1</title>
<path fill="none" stroke="#9a32cd" stroke-dasharray="5,2" d="M62,-29.7829C62,-42.1183 62,-57.6826 62,-67.2338"/>
<polygon fill="#9a32cd" stroke="#9a32cd" points="65.5001,-29.6273 62,-19.6273 58.5001,-29.6273 65.5001,-29.6273"/>
<text text-anchor="middle" x="85" y="-41" font-family="Helvetica,sans-Serif" font-size="10.00"> m_engine</text>
</g>
</g>
</svg>
