<?xml version="1.0" encoding="UTF-8" standalone="no"?>
<!DOCTYPE svg PUBLIC "-//W3C//DTD SVG 1.1//EN"
 "http://www.w3.org/Graphics/SVG/1.1/DTD/svg11.dtd">
<!-- Generated by graphviz version 2.38.0 (20140413.2041)
 -->
<!-- Title: SharedPtr&lt; T &gt; Pages: 1 -->
<!--zoomable 990 -->
<svg id="main" version="1.1" xmlns="http://www.w3.org/2000/svg" xmlns:xlink="http://www.w3.org/1999/xlink" xml:space="preserve" onload="init(evt)">
<style type="text/css"><![CDATA[
.edge:hover path { stroke: red; }
.edge:hover polygon { stroke: red; fill: red; }
]]></style>
<script type="text/javascript"><![CDATA[
var edges = document.getElementsByTagName('g');
if (edges && edges.length) {
  for (var i=0;i<edges.length;i++) {
    if (edges[i].id.substr(0,4)=='edge') {
      edges[i].setAttribute('class','edge');
    }
  }
}
]]></script>
        <defs>
                <circle id="rim" cx="0" cy="0" r="7"/>
                <circle id="rim2" cx="0" cy="0" r="3.5"/>
                <g id="zoomPlus">
                        <use xlink:href="#rim" fill="#404040">
                                <set attributeName="fill" to="#808080" begin="zoomplus.mouseover" end="zoomplus.mouseout"/>
                        </use>
                        <path d="M-4,0h8M0,-4v8" fill="none" stroke="white" stroke-width="1.5" pointer-events="none"/>
                </g>
                <g id="zoomMin">
                        <use xlink:href="#rim" fill="#404040">
                                <set attributeName="fill" to="#808080" begin="zoomminus.mouseover" end="zoomminus.mouseout"/>
                        </use>
                        <path d="M-4,0h8" fill="none" stroke="white" stroke-width="1.5" pointer-events="none"/>
                </g>
                <g id="dirArrow">
                        <path fill="none" stroke="white" stroke-width="1.5" d="M0,-3.0v7 M-2.5,-0.5L0,-3.0L2.5,-0.5"/>
                </g>
               <g id="resetDef">
                       <use xlink:href="#rim2" fill="#404040">
                               <set attributeName="fill" to="#808080" begin="reset.mouseover" end="reset.mouseout"/>
                       </use>
               </g>
        </defs>

<script type="text/javascript">
var viewWidth = 431;
var viewHeight = 990;
var sectionId = 'dynsection-0';
</script>
<script xlink:href="../../svgpan.js"/>
<svg id="graph" class="graph">
<g id="viewport">
<title>SharedPtr&lt; T &gt;</title>
<polygon fill="white" stroke="none" points="-4,4 -4,-985.831 427,-985.831 427,4 -4,4"/>
<!-- Node0 -->
<g id="node1" class="node"><title>Node0</title>
<polygon fill="#bfbfbf" stroke="black" points="0,-490.331 0,-509.331 84,-509.331 84,-490.331 0,-490.331"/>
<text text-anchor="middle" x="42" y="-497.331" font-family="Helvetica,sans-Serif" font-size="10.00">SharedPtr&lt; T &gt;</text>
</g>
<!-- Node1 -->
<g id="node2" class="node"><title>Node1</title>
<g id="a_node2"><a xlink:href="../../df/d12/class_shared_ptr.html" target="_top" xlink:title="SharedPtr\&lt; ArgumentListContext \&gt;">
<polygon fill="white" stroke="black" points="253,-944.331 253,-963.331 423,-963.331 423,-944.331 253,-944.331"/>
<text text-anchor="middle" x="338" y="-951.331" font-family="Helvetica,sans-Serif" font-size="10.00">SharedPtr&lt; ArgumentListContext &gt;</text>
</a>
</g>
</g>
<!-- Node0&#45;&gt;Node1 -->
<g id="edge1" class="edge"><title>Node0&#45;&gt;Node1</title>
<path fill="none" stroke="orange" stroke-dasharray="5,2" d="M42.6017,-519.933C41.5214,-597.288 41.9639,-874.288 102,-931.831 154.066,-981.735 245.615,-973.42 297.749,-963.349"/>
<polygon fill="orange" stroke="orange" points="46.1058,-519.712 42.7723,-509.656 39.1067,-519.596 46.1058,-519.712"/>
<text text-anchor="middle" x="168.5" y="-973.831" font-family="Helvetica,sans-Serif" font-size="10.00"> &lt; ArgumentListContext &gt;</text>
</g>
<!-- Node2 -->
<g id="node3" class="node"><title>Node2</title>
<g id="a_node3"><a xlink:href="../../df/d12/class_shared_ptr.html" target="_top" xlink:title="SharedPtr\&lt; FileContext \&gt;">
<polygon fill="white" stroke="black" points="274,-906.331 274,-925.331 402,-925.331 402,-906.331 274,-906.331"/>
<text text-anchor="middle" x="338" y="-913.331" font-family="Helvetica,sans-Serif" font-size="10.00">SharedPtr&lt; FileContext &gt;</text>
</a>
</g>
</g>
<!-- Node0&#45;&gt;Node2 -->
<g id="edge2" class="edge"><title>Node0&#45;&gt;Node2</title>
<path fill="none" stroke="orange" stroke-dasharray="5,2" d="M42.8939,-519.553C42.9456,-592.003 47.1572,-841.94 102,-893.831 125.961,-916.503 212.731,-919.359 273.832,-918.357"/>
<polygon fill="orange" stroke="orange" points="46.3939,-519.514 42.9142,-509.507 39.3939,-519.499 46.3939,-519.514"/>
<text text-anchor="middle" x="168.5" y="-920.831" font-family="Helvetica,sans-Serif" font-size="10.00"> &lt; FileContext &gt;</text>
</g>
<!-- Node3 -->
<g id="node4" class="node"><title>Node3</title>
<g id="a_node4"><a xlink:href="../../df/d12/class_shared_ptr.html" target="_top" xlink:title="SharedPtr\&lt; MemberListContext \&gt;">
<polygon fill="white" stroke="black" points="256,-868.331 256,-887.331 420,-887.331 420,-868.331 256,-868.331"/>
<text text-anchor="middle" x="338" y="-875.331" font-family="Helvetica,sans-Serif" font-size="10.00">SharedPtr&lt; MemberListContext &gt;</text>
</a>
</g>
</g>
<!-- Node0&#45;&gt;Node3 -->
<g id="edge3" class="edge"><title>Node0&#45;&gt;Node3</title>
<path fill="none" stroke="orange" stroke-dasharray="5,2" d="M43.2936,-519.619C44.733,-587.138 53.155,-806.815 102,-852.831 123.763,-873.334 196.919,-878.595 255.894,-879.323"/>
<polygon fill="orange" stroke="orange" points="46.7908,-519.425 43.1075,-509.491 39.7919,-519.554 46.7908,-519.425"/>
<text text-anchor="middle" x="168.5" y="-881.831" font-family="Helvetica,sans-Serif" font-size="10.00"> &lt; MemberListContext &gt;</text>
</g>
<!-- Node4 -->
<g id="node5" class="node"><title>Node4</title>
<g id="a_node5"><a xlink:href="../../df/d12/class_shared_ptr.html" target="_top" xlink:title="SharedPtr\&lt; NamespaceContext \&gt;">
<polygon fill="white" stroke="black" points="255.5,-830.331 255.5,-849.331 420.5,-849.331 420.5,-830.331 255.5,-830.331"/>
<text text-anchor="middle" x="338" y="-837.331" font-family="Helvetica,sans-Serif" font-size="10.00">SharedPtr&lt; NamespaceContext &gt;</text>
</a>
</g>
</g>
<!-- Node0&#45;&gt;Node4 -->
<g id="edge4" class="edge"><title>Node0&#45;&gt;Node4</title>
<path fill="none" stroke="orange" stroke-dasharray="5,2" d="M43.8278,-519.549C46.8519,-581.392 59.4562,-769.811 102,-809.831 123.757,-830.298 196.477,-837.198 255.325,-839.337"/>
<polygon fill="orange" stroke="orange" points="47.3232,-519.368 43.3695,-509.539 40.3306,-519.688 47.3232,-519.368"/>
<text text-anchor="middle" x="168.5" y="-840.831" font-family="Helvetica,sans-Serif" font-size="10.00"> &lt; NamespaceContext &gt;</text>
</g>
<!-- Node5 -->
<g id="node6" class="node"><title>Node5</title>
<g id="a_node6"><a xlink:href="../../df/d12/class_shared_ptr.html" target="_top" xlink:title="SharedPtr\&lt; MemberListInfo\lContext \&gt;">
<polygon fill="white" stroke="black" points="269.5,-780.831 269.5,-810.831 406.5,-810.831 406.5,-780.831 269.5,-780.831"/>
<text text-anchor="start" x="277.5" y="-798.831" font-family="Helvetica,sans-Serif" font-size="10.00">SharedPtr&lt; MemberListInfo</text>
<text text-anchor="middle" x="338" y="-787.831" font-family="Helvetica,sans-Serif" font-size="10.00">Context &gt;</text>
</a>
</g>
</g>
<!-- Node0&#45;&gt;Node5 -->
<g id="edge5" class="edge"><title>Node0&#45;&gt;Node5</title>
<path fill="none" stroke="orange" stroke-dasharray="5,2" d="M44.4199,-519.482C48.9056,-575.678 64.741,-735.175 102,-768.831 125.923,-790.441 208.889,-795.7 269.481,-796.536"/>
<polygon fill="orange" stroke="orange" points="47.9023,-519.118 43.6511,-509.414 40.9227,-519.651 47.9023,-519.118"/>
<text text-anchor="middle" x="168.5" y="-797.831" font-family="Helvetica,sans-Serif" font-size="10.00"> &lt; MemberListInfoContext &gt;</text>
</g>
<!-- Node6 -->
<g id="node7" class="node"><title>Node6</title>
<g id="a_node7"><a xlink:href="../../df/d12/class_shared_ptr.html" target="_top" xlink:title="SharedPtr\&lt; TemplateList \&gt;">
<polygon fill="white" stroke="black" points="271,-742.331 271,-761.331 405,-761.331 405,-742.331 271,-742.331"/>
<text text-anchor="middle" x="338" y="-749.331" font-family="Helvetica,sans-Serif" font-size="10.00">SharedPtr&lt; TemplateList &gt;</text>
</a>
</g>
</g>
<!-- Node0&#45;&gt;Node6 -->
<g id="edge6" class="edge"><title>Node0&#45;&gt;Node6</title>
<path fill="none" stroke="orange" stroke-dasharray="5,2" d="M45.1806,-519.603C51.1882,-570.189 69.7104,-702.273 102,-729.831 126.623,-750.847 210.368,-754.302 270.877,-753.867"/>
<polygon fill="orange" stroke="orange" points="48.6217,-518.888 44.0039,-509.353 41.6673,-519.687 48.6217,-518.888"/>
<text text-anchor="middle" x="168.5" y="-756.831" font-family="Helvetica,sans-Serif" font-size="10.00"> &lt; TemplateList &gt;</text>
</g>
<!-- Node7 -->
<g id="node8" class="node"><title>Node7</title>
<g id="a_node8"><a xlink:href="../../df/d12/class_shared_ptr.html" target="_top" xlink:title="SharedPtr\&lt; TemplateStruct \&gt;">
<polygon fill="white" stroke="black" points="265.5,-704.331 265.5,-723.331 410.5,-723.331 410.5,-704.331 265.5,-704.331"/>
<text text-anchor="middle" x="338" y="-711.331" font-family="Helvetica,sans-Serif" font-size="10.00">SharedPtr&lt; TemplateStruct &gt;</text>
</a>
</g>
</g>
<!-- Node0&#45;&gt;Node7 -->
<g id="edge7" class="edge"><title>Node0&#45;&gt;Node7</title>
<path fill="none" stroke="orange" stroke-dasharray="5,2" d="M42.5208,-519.793C42.7648,-559.447 49.5122,-648.005 102,-690.831 126.298,-710.657 205.493,-715 265.286,-715.286"/>
<polygon fill="orange" stroke="orange" points="46.0208,-519.802 42.5964,-509.776 39.021,-519.75 46.0208,-519.802"/>
<text text-anchor="middle" x="168.5" y="-717.831" font-family="Helvetica,sans-Serif" font-size="10.00"> &lt; TemplateStruct &gt;</text>
</g>
<!-- Node8 -->
<g id="node9" class="node"><title>Node8</title>
<g id="a_node9"><a xlink:href="../../df/d12/class_shared_ptr.html" target="_top" xlink:title="SharedPtr\&lt; SymbolListContext \&gt;">
<polygon fill="white" stroke="black" points="257.5,-666.331 257.5,-685.331 418.5,-685.331 418.5,-666.331 257.5,-666.331"/>
<text text-anchor="middle" x="338" y="-673.331" font-family="Helvetica,sans-Serif" font-size="10.00">SharedPtr&lt; SymbolListContext &gt;</text>
</a>
</g>
</g>
<!-- Node0&#45;&gt;Node8 -->
<g id="edge8" class="edge"><title>Node0&#45;&gt;Node8</title>
<path fill="none" stroke="orange" stroke-dasharray="5,2" d="M44.3744,-520.037C47.8279,-553.462 59.9066,-619.755 102,-651.831 125.812,-669.977 198.899,-675.231 257.311,-676.397"/>
<polygon fill="orange" stroke="orange" points="47.8285,-519.355 43.4775,-509.694 40.8547,-519.959 47.8285,-519.355"/>
<text text-anchor="middle" x="168.5" y="-678.831" font-family="Helvetica,sans-Serif" font-size="10.00"> &lt; SymbolListContext &gt;</text>
</g>
<!-- Node9 -->
<g id="node10" class="node"><title>Node9</title>
<g id="a_node10"><a xlink:href="../../df/d12/class_shared_ptr.html" target="_top" xlink:title="SharedPtr\&lt; SymbolGroupList\lContext \&gt;">
<polygon fill="white" stroke="black" points="266,-616.831 266,-646.831 410,-646.831 410,-616.831 266,-616.831"/>
<text text-anchor="start" x="274" y="-634.831" font-family="Helvetica,sans-Serif" font-size="10.00">SharedPtr&lt; SymbolGroupList</text>
<text text-anchor="middle" x="338" y="-623.831" font-family="Helvetica,sans-Serif" font-size="10.00">Context &gt;</text>
</a>
</g>
</g>
<!-- Node0&#45;&gt;Node9 -->
<g id="edge9" class="edge"><title>Node0&#45;&gt;Node9</title>
<path fill="none" stroke="orange" stroke-dasharray="5,2" d="M48.9707,-519.229C57.074,-542.037 73.8661,-579.145 102,-597.831 150.161,-629.819 216.085,-636.962 265.854,-636.883"/>
<polygon fill="orange" stroke="orange" points="52.2441,-517.981 45.7639,-509.599 45.6026,-520.193 52.2441,-517.981"/>
<text text-anchor="middle" x="168.5" y="-639.831" font-family="Helvetica,sans-Serif" font-size="10.00"> &lt; SymbolGroupListContext &gt;</text>
</g>
<!-- Node10 -->
<g id="node11" class="node"><title>Node10</title>
<g id="a_node11"><a xlink:href="../../df/d12/class_shared_ptr.html" target="_top" xlink:title="SharedPtr\&lt; UsedFilesContext \&gt;">
<polygon fill="white" stroke="black" points="259.5,-578.331 259.5,-597.331 416.5,-597.331 416.5,-578.331 259.5,-578.331"/>
<text text-anchor="middle" x="338" y="-585.331" font-family="Helvetica,sans-Serif" font-size="10.00">SharedPtr&lt; UsedFilesContext &gt;</text>
</a>
</g>
</g>
<!-- Node0&#45;&gt;Node10 -->
<g id="edge10" class="edge"><title>Node0&#45;&gt;Node10</title>
<path fill="none" stroke="orange" stroke-dasharray="5,2" d="M58.6885,-516.884C69.7257,-527.788 85.4343,-541.259 102,-548.831 151.461,-571.441 212.116,-581.114 259.413,-585.174"/>
<polygon fill="orange" stroke="orange" points="61.011,-514.252 51.5318,-509.52 55.9909,-519.13 61.011,-514.252"/>
<text text-anchor="middle" x="168.5" y="-585.831" font-family="Helvetica,sans-Serif" font-size="10.00"> &lt; UsedFilesContext &gt;</text>
</g>
<!-- Node11 -->
<g id="node12" class="node"><title>Node11</title>
<g id="a_node12"><a xlink:href="../../df/d12/class_shared_ptr.html" target="_top" xlink:title="SharedPtr\&lt; AllMembersList\lContext \&gt;">
<polygon fill="white" stroke="black" points="269.5,-528.831 269.5,-558.831 406.5,-558.831 406.5,-528.831 269.5,-528.831"/>
<text text-anchor="start" x="277.5" y="-546.831" font-family="Helvetica,sans-Serif" font-size="10.00">SharedPtr&lt; AllMembersList</text>
<text text-anchor="middle" x="338" y="-535.831" font-family="Helvetica,sans-Serif" font-size="10.00">Context &gt;</text>
</a>
</g>
</g>
<!-- Node0&#45;&gt;Node11 -->
<g id="edge11" class="edge"><title>Node0&#45;&gt;Node11</title>
<path fill="none" stroke="orange" stroke-dasharray="5,2" d="M87.4147,-511.76C92.3169,-512.886 97.2513,-513.938 102,-514.831 157.954,-525.353 222.148,-532.978 269.289,-537.761"/>
<polygon fill="orange" stroke="orange" points="88.0081,-508.303 77.4672,-509.371 86.3735,-515.109 88.0081,-508.303"/>
<text text-anchor="middle" x="168.5" y="-536.831" font-family="Helvetica,sans-Serif" font-size="10.00"> &lt; AllMembersListContext &gt;</text>
</g>
<!-- Node12 -->
<g id="node13" class="node"><title>Node12</title>
<g id="a_node13"><a xlink:href="../../df/d12/class_shared_ptr.html" target="_top" xlink:title="SharedPtr\&lt; ClassContext \&gt;">
<polygon fill="white" stroke="black" points="269,-490.331 269,-509.331 407,-509.331 407,-490.331 269,-490.331"/>
<text text-anchor="middle" x="338" y="-497.331" font-family="Helvetica,sans-Serif" font-size="10.00">SharedPtr&lt; ClassContext &gt;</text>
</a>
</g>
</g>
<!-- Node0&#45;&gt;Node12 -->
<g id="edge12" class="edge"><title>Node0&#45;&gt;Node12</title>
<path fill="none" stroke="orange" stroke-dasharray="5,2" d="M94.4383,-499.831C142.871,-499.831 215.727,-499.831 268.951,-499.831"/>
<polygon fill="orange" stroke="orange" points="94.189,-496.332 84.189,-499.831 94.189,-503.332 94.189,-496.332"/>
<text text-anchor="middle" x="168.5" y="-502.831" font-family="Helvetica,sans-Serif" font-size="10.00"> &lt; ClassContext &gt;</text>
</g>
<!-- Node13 -->
<g id="node14" class="node"><title>Node13</title>
<g id="a_node14"><a xlink:href="../../df/d12/class_shared_ptr.html" target="_top" xlink:title="SharedPtr\&lt; MemberGroupList\lContext \&gt;">
<polygon fill="white" stroke="black" points="265,-440.831 265,-470.831 411,-470.831 411,-440.831 265,-440.831"/>
<text text-anchor="start" x="273" y="-458.831" font-family="Helvetica,sans-Serif" font-size="10.00">SharedPtr&lt; MemberGroupList</text>
<text text-anchor="middle" x="338" y="-447.831" font-family="Helvetica,sans-Serif" font-size="10.00">Context &gt;</text>
</a>
</g>
</g>
<!-- Node0&#45;&gt;Node13 -->
<g id="edge13" class="edge"><title>Node0&#45;&gt;Node13</title>
<path fill="none" stroke="orange" stroke-dasharray="5,2" d="M87.4147,-487.903C92.3169,-486.777 97.2513,-485.724 102,-484.831 156.237,-474.633 218.216,-467.155 264.901,-462.35"/>
<polygon fill="orange" stroke="orange" points="86.3735,-484.554 77.4672,-490.292 88.0081,-491.36 86.3735,-484.554"/>
<text text-anchor="middle" x="168.5" y="-487.831" font-family="Helvetica,sans-Serif" font-size="10.00"> &lt; MemberGroupListContext &gt;</text>
</g>
<!-- Node14 -->
<g id="node15" class="node"><title>Node14</title>
<g id="a_node15"><a xlink:href="../../df/d12/class_shared_ptr.html" target="_top" xlink:title="SharedPtr\&lt; MemberContext \&gt;">
<polygon fill="white" stroke="black" points="264,-402.331 264,-421.331 412,-421.331 412,-402.331 264,-402.331"/>
<text text-anchor="middle" x="338" y="-409.331" font-family="Helvetica,sans-Serif" font-size="10.00">SharedPtr&lt; MemberContext &gt;</text>
</a>
</g>
</g>
<!-- Node0&#45;&gt;Node14 -->
<g id="edge14" class="edge"><title>Node0&#45;&gt;Node14</title>
<path fill="none" stroke="orange" stroke-dasharray="5,2" d="M59.1557,-482.777C70.2025,-472.176 85.7426,-459.204 102,-451.831 153.071,-428.67 215.915,-418.821 263.761,-414.681"/>
<polygon fill="orange" stroke="orange" points="56.5625,-480.42 51.9601,-489.963 61.5091,-485.373 56.5625,-480.42"/>
<text text-anchor="middle" x="168.5" y="-454.831" font-family="Helvetica,sans-Serif" font-size="10.00"> &lt; MemberContext &gt;</text>
</g>
<!-- Node15 -->
<g id="node16" class="node"><title>Node15</title>
<g id="a_node16"><a xlink:href="../../df/d12/class_shared_ptr.html" target="_top" xlink:title="SharedPtr\&lt; SymbolIndices\lContext \&gt;">
<polygon fill="white" stroke="black" points="271,-352.831 271,-382.831 405,-382.831 405,-352.831 271,-352.831"/>
<text text-anchor="start" x="279" y="-370.831" font-family="Helvetica,sans-Serif" font-size="10.00">SharedPtr&lt; SymbolIndices</text>
<text text-anchor="middle" x="338" y="-359.831" font-family="Helvetica,sans-Serif" font-size="10.00">Context &gt;</text>
</a>
</g>
</g>
<!-- Node0&#45;&gt;Node15 -->
<g id="edge15" class="edge"><title>Node0&#45;&gt;Node15</title>
<path fill="none" stroke="orange" stroke-dasharray="5,2" d="M49.2226,-480.557C57.5045,-458.22 74.4042,-422.144 102,-403.831 151.867,-370.74 220.636,-363.586 270.896,-363.603"/>
<polygon fill="orange" stroke="orange" points="45.8201,-479.685 45.8401,-490.28 52.4314,-481.985 45.8201,-479.685"/>
<text text-anchor="middle" x="168.5" y="-406.831" font-family="Helvetica,sans-Serif" font-size="10.00"> &lt; SymbolIndicesContext &gt;</text>
</g>
<!-- Node16 -->
<g id="node17" class="node"><title>Node16</title>
<g id="a_node17"><a xlink:href="../../df/d12/class_shared_ptr.html" target="_top" xlink:title="SharedPtr\&lt; InheritedMember\lInfoListContext \&gt;">
<polygon fill="white" stroke="black" points="267,-303.831 267,-333.831 409,-333.831 409,-303.831 267,-303.831"/>
<text text-anchor="start" x="275" y="-321.831" font-family="Helvetica,sans-Serif" font-size="10.00">SharedPtr&lt; InheritedMember</text>
<text text-anchor="middle" x="338" y="-310.831" font-family="Helvetica,sans-Serif" font-size="10.00">InfoListContext &gt;</text>
</a>
</g>
</g>
<!-- Node0&#45;&gt;Node16 -->
<g id="edge16" class="edge"><title>Node0&#45;&gt;Node16</title>
<path fill="none" stroke="orange" stroke-dasharray="5,2" d="M43.8538,-479.993C46.5178,-445.273 57.4332,-373.945 102,-339.831 148.431,-304.291 216.151,-301.856 266.98,-306.658"/>
<polygon fill="orange" stroke="orange" points="40.3431,-480.064 43.23,-490.258 47.3302,-480.488 40.3431,-480.064"/>
<text text-anchor="start" x="109.5" y="-353.831" font-family="Helvetica,sans-Serif" font-size="10.00"> &lt; InheritedMemberInfoList</text>
<text text-anchor="middle" x="168.5" y="-342.831" font-family="Helvetica,sans-Serif" font-size="10.00">Context &gt;</text>
</g>
<!-- Node17 -->
<g id="node18" class="node"><title>Node17</title>
<g id="a_node18"><a xlink:href="../../df/d12/class_shared_ptr.html" target="_top" xlink:title="SharedPtr\&lt; IncludeInfoList\lContext \&gt;">
<polygon fill="white" stroke="black" points="271.5,-254.831 271.5,-284.831 404.5,-284.831 404.5,-254.831 271.5,-254.831"/>
<text text-anchor="start" x="279.5" y="-272.831" font-family="Helvetica,sans-Serif" font-size="10.00">SharedPtr&lt; IncludeInfoList</text>
<text text-anchor="middle" x="338" y="-261.831" font-family="Helvetica,sans-Serif" font-size="10.00">Context &gt;</text>
</a>
</g>
</g>
<!-- Node0&#45;&gt;Node17 -->
<g id="edge17" class="edge"><title>Node0&#45;&gt;Node17</title>
<path fill="none" stroke="orange" stroke-dasharray="5,2" d="M45.6622,-480.176C52.5045,-432.801 72.2789,-314.406 102,-289.831 148.624,-251.28 219.709,-250.566 271.489,-256.856"/>
<polygon fill="orange" stroke="orange" points="42.1911,-479.726 44.2675,-490.116 49.1232,-480.699 42.1911,-479.726"/>
<text text-anchor="middle" x="168.5" y="-292.831" font-family="Helvetica,sans-Serif" font-size="10.00"> &lt; IncludeInfoListContext &gt;</text>
</g>
<!-- Node18 -->
<g id="node19" class="node"><title>Node18</title>
<g id="a_node19"><a xlink:href="../../df/d12/class_shared_ptr.html" target="_top" xlink:title="SharedPtr\&lt; ModuleContext \&gt;">
<polygon fill="white" stroke="black" points="266,-216.331 266,-235.331 410,-235.331 410,-216.331 266,-216.331"/>
<text text-anchor="middle" x="338" y="-223.331" font-family="Helvetica,sans-Serif" font-size="10.00">SharedPtr&lt; ModuleContext &gt;</text>
</a>
</g>
</g>
<!-- Node0&#45;&gt;Node18 -->
<g id="edge18" class="edge"><title>Node0&#45;&gt;Node18</title>
<path fill="none" stroke="orange" stroke-dasharray="5,2" d="M44.4979,-480.022C49.1132,-424.8 65.0947,-271.143 102,-239.831 158.254,-192.105 252.008,-204.72 302.415,-216.313"/>
<polygon fill="orange" stroke="orange" points="40.9898,-479.985 43.6822,-490.232 47.9676,-480.542 40.9898,-479.985"/>
<text text-anchor="middle" x="168.5" y="-242.831" font-family="Helvetica,sans-Serif" font-size="10.00"> &lt; ModuleContext &gt;</text>
</g>
<!-- Node19 -->
<g id="node20" class="node"><title>Node19</title>
<g id="a_node20"><a xlink:href="../../df/d12/class_shared_ptr.html" target="_top" xlink:title="SharedPtr\&lt; PageContext \&gt;">
<polygon fill="white" stroke="black" points="270.5,-178.331 270.5,-197.331 405.5,-197.331 405.5,-178.331 270.5,-178.331"/>
<text text-anchor="middle" x="338" y="-185.331" font-family="Helvetica,sans-Serif" font-size="10.00">SharedPtr&lt; PageContext &gt;</text>
</a>
</g>
</g>
<!-- Node0&#45;&gt;Node19 -->
<g id="edge19" class="edge"><title>Node0&#45;&gt;Node19</title>
<path fill="none" stroke="orange" stroke-dasharray="5,2" d="M43.653,-479.969C46.1547,-417.7 57.3696,-228.229 102,-190.831 126.628,-170.195 209.903,-173.815 270.339,-179.657"/>
<polygon fill="orange" stroke="orange" points="40.1523,-479.928 43.2812,-490.05 47.1475,-480.186 40.1523,-479.928"/>
<text text-anchor="middle" x="168.5" y="-193.831" font-family="Helvetica,sans-Serif" font-size="10.00"> &lt; PageContext &gt;</text>
</g>
<!-- Node20 -->
<g id="node21" class="node"><title>Node20</title>
<g id="a_node21"><a xlink:href="../../df/d12/class_shared_ptr.html" target="_top" xlink:title="SharedPtr\&lt; NestingContext \&gt;">
<polygon fill="white" stroke="black" points="265,-140.331 265,-159.331 411,-159.331 411,-140.331 265,-140.331"/>
<text text-anchor="middle" x="338" y="-147.331" font-family="Helvetica,sans-Serif" font-size="10.00">SharedPtr&lt; NestingContext &gt;</text>
</a>
</g>
</g>
<!-- Node0&#45;&gt;Node20 -->
<g id="edge20" class="edge"><title>Node0&#45;&gt;Node20</title>
<path fill="none" stroke="orange" stroke-dasharray="5,2" d="M43.3468,-479.878C44.9489,-413.713 53.8118,-203.32 102,-160.831 158.522,-110.994 255.635,-127.279 305.472,-140.263"/>
<polygon fill="orange" stroke="orange" points="39.8415,-480.097 43.1298,-490.169 46.8399,-480.245 39.8415,-480.097"/>
<text text-anchor="middle" x="168.5" y="-163.831" font-family="Helvetica,sans-Serif" font-size="10.00"> &lt; NestingContext &gt;</text>
</g>
<!-- Node21 -->
<g id="node22" class="node"><title>Node21</title>
<g id="a_node22"><a xlink:href="../../df/d12/class_shared_ptr.html" target="_top" xlink:title="SharedPtr\&lt; InheritanceList\lContext \&gt;">
<polygon fill="white" stroke="black" points="271.5,-90.8314 271.5,-120.831 404.5,-120.831 404.5,-90.8314 271.5,-90.8314"/>
<text text-anchor="start" x="279.5" y="-108.831" font-family="Helvetica,sans-Serif" font-size="10.00">SharedPtr&lt; InheritanceList</text>
<text text-anchor="middle" x="338" y="-97.8314" font-family="Helvetica,sans-Serif" font-size="10.00">Context &gt;</text>
</a>
</g>
</g>
<!-- Node0&#45;&gt;Node21 -->
<g id="edge21" class="edge"><title>Node0&#45;&gt;Node21</title>
<path fill="none" stroke="orange" stroke-dasharray="5,2" d="M42.8474,-479.9C42.7534,-407.755 46.566,-161.908 102,-112.831 152.273,-68.3242 234.97,-78.1254 287.664,-90.8175"/>
<polygon fill="orange" stroke="orange" points="39.3489,-480.285 42.8912,-490.27 46.3489,-480.255 39.3489,-480.285"/>
<text text-anchor="middle" x="168.5" y="-115.831" font-family="Helvetica,sans-Serif" font-size="10.00"> &lt; InheritanceListContext &gt;</text>
</g>
<!-- Node22 -->
<g id="node23" class="node"><title>Node22</title>
<g id="a_node23"><a xlink:href="../../df/d12/class_shared_ptr.html" target="_top" xlink:title="SharedPtr\&lt; IncludeInfoContext \&gt;">
<polygon fill="white" stroke="black" points="257.5,-52.3314 257.5,-71.3314 418.5,-71.3314 418.5,-52.3314 257.5,-52.3314"/>
<text text-anchor="middle" x="338" y="-59.3314" font-family="Helvetica,sans-Serif" font-size="10.00">SharedPtr&lt; IncludeInfoContext &gt;</text>
</a>
</g>
</g>
<!-- Node0&#45;&gt;Node22 -->
<g id="edge22" class="edge"><title>Node0&#45;&gt;Node22</title>
<path fill="none" stroke="orange" stroke-dasharray="5,2" d="M44.2036,-479.945C49.3267,-398.554 70.506,-93.8096 102,-65.8314 124.383,-45.9467 198.327,-47.5451 257.363,-52.5308"/>
<polygon fill="orange" stroke="orange" points="40.6889,-480.076 43.5649,-490.273 47.6755,-480.509 40.6889,-480.076"/>
<text text-anchor="middle" x="168.5" y="-68.8314" font-family="Helvetica,sans-Serif" font-size="10.00"> &lt; IncludeInfoContext &gt;</text>
</g>
<!-- Node23 -->
<g id="node24" class="node"><title>Node23</title>
<g id="a_node24"><a xlink:href="../../df/d12/class_shared_ptr.html" target="_top" xlink:title="SharedPtr\&lt; DirContext \&gt;">
<polygon fill="white" stroke="black" points="275.5,-14.3314 275.5,-33.3314 400.5,-33.3314 400.5,-14.3314 275.5,-14.3314"/>
<text text-anchor="middle" x="338" y="-21.3314" font-family="Helvetica,sans-Serif" font-size="10.00">SharedPtr&lt; DirContext &gt;</text>
</a>
</g>
</g>
<!-- Node0&#45;&gt;Node23 -->
<g id="edge23" class="edge"><title>Node0&#45;&gt;Node23</title>
<path fill="none" stroke="orange" stroke-dasharray="5,2" d="M44.0419,-479.904C48.6812,-394.903 68.7077,-65.5789 102,-34.8314 157.808,16.7111 256.575,-0.837267 306.415,-14.2878"/>
<polygon fill="orange" stroke="orange" points="40.5398,-479.851 43.4999,-490.024 47.5298,-480.226 40.5398,-479.851"/>
<text text-anchor="middle" x="168.5" y="-37.8314" font-family="Helvetica,sans-Serif" font-size="10.00"> &lt; DirContext &gt;</text>
</g>
</g>
</svg>
        <g id="navigator" transform="translate(0 0)" fill="#404254">
                <rect fill="#f2f5e9" fill-opacity="0.5" stroke="#606060" stroke-width=".5" x="0" y="0" width="60" height="60"/>
                <use id="zoomplus" xlink:href="#zoomPlus" x="17" y="9" onmousedown="handleZoom(evt,'in')"/>
                <use id="zoomminus" xlink:href="#zoomMin" x="42" y="9" onmousedown="handleZoom(evt,'out')"/>
                <use id="reset" xlink:href="#resetDef" x="30" y="36" onmousedown="handleReset()"/>
                <g id="arrowUp" xlink:href="#dirArrow" transform="translate(30 24)" onmousedown="handlePan(0,-1)">
                  <use xlink:href="#rim" fill="#404040">
                        <set attributeName="fill" to="#808080" begin="arrowUp.mouseover" end="arrowUp.mouseout"/>
                  </use>
                  <path fill="none" stroke="white" stroke-width="1.5" d="M0,-3.0v7 M-2.5,-0.5L0,-3.0L2.5,-0.5"/>
                </g>
                <g id="arrowRight" xlink:href="#dirArrow" transform="rotate(90) translate(36 -43)" onmousedown="handlePan(1,0)">
                  <use xlink:href="#rim" fill="#404040">
                        <set attributeName="fill" to="#808080" begin="arrowRight.mouseover" end="arrowRight.mouseout"/>
                  </use>
                  <path fill="none" stroke="white" stroke-width="1.5" d="M0,-3.0v7 M-2.5,-0.5L0,-3.0L2.5,-0.5"/>
                </g>
                <g id="arrowDown" xlink:href="#dirArrow" transform="rotate(180) translate(-30 -48)" onmousedown="handlePan(0,1)">
                  <use xlink:href="#rim" fill="#404040">
                        <set attributeName="fill" to="#808080" begin="arrowDown.mouseover" end="arrowDown.mouseout"/>
                  </use>
                  <path fill="none" stroke="white" stroke-width="1.5" d="M0,-3.0v7 M-2.5,-0.5L0,-3.0L2.5,-0.5"/>
                </g>
                <g id="arrowLeft" xlink:href="#dirArrow" transform="rotate(270) translate(-36 17)" onmousedown="handlePan(-1,0)">
                  <use xlink:href="#rim" fill="#404040">
                        <set attributeName="fill" to="#808080" begin="arrowLeft.mouseover" end="arrowLeft.mouseout"/>
                  </use>
                  <path fill="none" stroke="white" stroke-width="1.5" d="M0,-3.0v7 M-2.5,-0.5L0,-3.0L2.5,-0.5"/>
                </g>
        </g>
        <svg viewBox="0 0 15 15" width="100%" height="30px" preserveAspectRatio="xMaxYMin meet">
         <g id="arrow_out" transform="scale(0.3 0.3)">
          <a xlink:href="class_shared_ptr__inherit__graph_org.svg" target="_base">
           <rect id="button" ry="5" rx="5" y="6" x="6" height="38" width="38"
                fill="#f2f5e9" fill-opacity="0.5" stroke="#606060" stroke-width="1.0"/>
           <path id="arrow"
             d="M 11.500037,31.436501 C 11.940474,20.09759 22.043105,11.32322 32.158766,21.979434 L 37.068811,17.246167 C 37.068811,17.246167 37.088388,32 37.088388,32 L 22.160133,31.978069 C 22.160133,31.978069 26.997745,27.140456 26.997745,27.140456 C 18.528582,18.264221 13.291696,25.230495 11.500037,31.436501 z"
             style="fill:#404040;"/>
          </a>
         </g>
        </svg>
</svg>
