<?xml version="1.0" encoding="UTF-8" standalone="no"?>
<!DOCTYPE svg PUBLIC "-//W3C//DTD SVG 1.1//EN"
 "http://www.w3.org/Graphics/SVG/1.1/DTD/svg11.dtd">
<!-- Generated by graphviz version 2.38.0 (20140413.2041)
 -->
<!-- Title: DocPara Pages: 1 -->
<svg width="276pt" height="152pt"
 viewBox="0.00 0.00 276.00 152.00" xmlns="http://www.w3.org/2000/svg" xmlns:xlink="http://www.w3.org/1999/xlink">
<g id="graph0" class="graph" transform="scale(1 1) rotate(0) translate(4 148)">
<title>DocPara</title>
<polygon fill="white" stroke="none" points="-4,4 -4,-148 272,-148 272,4 -4,4"/>
<!-- Node4 -->
<g id="node1" class="node"><title>Node4</title>
<polygon fill="#bfbfbf" stroke="black" points="93.5,-0.5 93.5,-19.5 148.5,-19.5 148.5,-0.5 93.5,-0.5"/>
<text text-anchor="middle" x="121" y="-7.5" font-family="Helvetica,sans-Serif" font-size="10.00">DocPara</text>
</g>
<!-- Node5 -->
<g id="node2" class="node"><title>Node5</title>
<g id="a_node2"><a xlink:href="../../d7/da3/class_comp_accept.html" target="_top" xlink:title="CompAccept\&lt; DocPara \&gt;">
<polygon fill="white" stroke="black" points="0,-57.5 0,-76.5 130,-76.5 130,-57.5 0,-57.5"/>
<text text-anchor="middle" x="65" y="-64.5" font-family="Helvetica,sans-Serif" font-size="10.00">CompAccept&lt; DocPara &gt;</text>
</a>
</g>
</g>
<!-- Node5&#45;&gt;Node4 -->
<g id="edge1" class="edge"><title>Node5&#45;&gt;Node4</title>
<path fill="none" stroke="midnightblue" d="M81.1658,-50.1229C91.2448,-40.2238 103.831,-27.8624 112.127,-19.7149"/>
<polygon fill="midnightblue" stroke="midnightblue" points="78.432,-47.9021 73.75,-57.4062 83.337,-52.8962 78.432,-47.9021"/>
</g>
<!-- Node6 -->
<g id="node3" class="node"><title>Node6</title>
<g id="a_node3"><a xlink:href="../../d7/da3/class_comp_accept.html" target="_top" xlink:title="Default accept implementation for compound nodes in the abstract syntax tree. ">
<polygon fill="white" stroke="black" points="16,-124.5 16,-143.5 114,-143.5 114,-124.5 16,-124.5"/>
<text text-anchor="middle" x="65" y="-131.5" font-family="Helvetica,sans-Serif" font-size="10.00">CompAccept&lt; T &gt;</text>
</a>
</g>
</g>
<!-- Node6&#45;&gt;Node5 -->
<g id="edge2" class="edge"><title>Node6&#45;&gt;Node5</title>
<path fill="none" stroke="orange" stroke-dasharray="5,2" d="M65,-114.037C65,-101.67 65,-86.1198 65,-76.6273"/>
<polygon fill="orange" stroke="orange" points="61.5001,-114.234 65,-124.234 68.5001,-114.234 61.5001,-114.234"/>
<text text-anchor="middle" x="95" y="-98" font-family="Helvetica,sans-Serif" font-size="10.00"> &lt; DocPara &gt;</text>
</g>
<!-- Node7 -->
<g id="node4" class="node"><title>Node7</title>
<g id="a_node4"><a xlink:href="../../d9/d0e/class_doc_node.html" target="_top" xlink:title="Abstract node interface with type information. ">
<polygon fill="white" stroke="black" points="148,-57.5 148,-76.5 206,-76.5 206,-57.5 148,-57.5"/>
<text text-anchor="middle" x="177" y="-64.5" font-family="Helvetica,sans-Serif" font-size="10.00">DocNode</text>
</a>
</g>
</g>
<!-- Node7&#45;&gt;Node4 -->
<g id="edge3" class="edge"><title>Node7&#45;&gt;Node4</title>
<path fill="none" stroke="midnightblue" d="M160.834,-50.1229C150.755,-40.2238 138.169,-27.8624 129.873,-19.7149"/>
<polygon fill="midnightblue" stroke="midnightblue" points="158.663,-52.8962 168.25,-57.4062 163.568,-47.9021 158.663,-52.8962"/>
</g>
<!-- Node7&#45;&gt;Node7 -->
<g id="edge4" class="edge"><title>Node7&#45;&gt;Node7</title>
<path fill="none" stroke="#9a32cd" stroke-dasharray="5,2" d="M216.603,-71.4489C221.091,-70.6158 224,-69.1328 224,-67 224,-63.5 216.167,-61.75 206.375,-61.75"/>
<polygon fill="#9a32cd" stroke="#9a32cd" points="216.071,-67.9798 206.375,-72.25 216.618,-74.9584 216.071,-67.9798"/>
<text text-anchor="middle" x="246" y="-64.5" font-family="Helvetica,sans-Serif" font-size="10.00"> m_parent</text>
</g>
</g>
</svg>
