<?xml version="1.0" encoding="UTF-8" standalone="no"?>
<!DOCTYPE svg PUBLIC "-//W3C//DTD SVG 1.1//EN"
 "http://www.w3.org/Graphics/SVG/1.1/DTD/svg11.dtd">
<!-- Generated by graphviz version 2.38.0 (20140413.2041)
 -->
<!-- Title: DocSection Pages: 1 -->
<svg width="228pt" height="152pt"
 viewBox="0.00 0.00 227.50 152.00" xmlns="http://www.w3.org/2000/svg" xmlns:xlink="http://www.w3.org/1999/xlink">
<g id="graph0" class="graph" transform="scale(1 1) rotate(0) translate(4 148)">
<title>DocSection</title>
<polygon fill="white" stroke="none" points="-4,4 -4,-148 223.5,-148 223.5,4 -4,4"/>
<!-- Node0 -->
<g id="node1" class="node"><title>Node0</title>
<polygon fill="#bfbfbf" stroke="black" points="126.5,-0.5 126.5,-19.5 194.5,-19.5 194.5,-0.5 126.5,-0.5"/>
<text text-anchor="middle" x="160.5" y="-7.5" font-family="Helvetica,sans-Serif" font-size="10.00">DocSection</text>
</g>
<!-- Node1 -->
<g id="node2" class="node"><title>Node1</title>
<g id="a_node2"><a xlink:href="../../d7/da3/class_comp_accept.html" target="_top" xlink:title="CompAccept\&lt; DocSection \&gt;">
<polygon fill="white" stroke="black" points="0,-57.5 0,-76.5 143,-76.5 143,-57.5 0,-57.5"/>
<text text-anchor="middle" x="71.5" y="-64.5" font-family="Helvetica,sans-Serif" font-size="10.00">CompAccept&lt; DocSection &gt;</text>
</a>
</g>
</g>
<!-- Node1&#45;&gt;Node0 -->
<g id="edge1" class="edge"><title>Node1&#45;&gt;Node0</title>
<path fill="none" stroke="midnightblue" d="M93.9764,-52.1101C110.568,-41.857 132.621,-28.2288 146.691,-19.5334"/>
<polygon fill="midnightblue" stroke="midnightblue" points="92.073,-49.1719 85.4062,-57.4062 95.7529,-55.1266 92.073,-49.1719"/>
</g>
<!-- Node2 -->
<g id="node3" class="node"><title>Node2</title>
<g id="a_node3"><a xlink:href="../../d7/da3/class_comp_accept.html" target="_top" xlink:title="Default accept implementation for compound nodes in the abstract syntax tree. ">
<polygon fill="white" stroke="black" points="22.5,-124.5 22.5,-143.5 120.5,-143.5 120.5,-124.5 22.5,-124.5"/>
<text text-anchor="middle" x="71.5" y="-131.5" font-family="Helvetica,sans-Serif" font-size="10.00">CompAccept&lt; T &gt;</text>
</a>
</g>
</g>
<!-- Node2&#45;&gt;Node1 -->
<g id="edge2" class="edge"><title>Node2&#45;&gt;Node1</title>
<path fill="none" stroke="orange" stroke-dasharray="5,2" d="M71.5,-114.037C71.5,-101.67 71.5,-86.1198 71.5,-76.6273"/>
<polygon fill="orange" stroke="orange" points="68.0001,-114.234 71.5,-124.234 75.0001,-114.234 68.0001,-114.234"/>
<text text-anchor="middle" x="108" y="-98" font-family="Helvetica,sans-Serif" font-size="10.00"> &lt; DocSection &gt;</text>
</g>
<!-- Node3 -->
<g id="node4" class="node"><title>Node3</title>
<g id="a_node4"><a xlink:href="../../d9/d0e/class_doc_node.html" target="_top" xlink:title="Abstract node interface with type information. ">
<polygon fill="white" stroke="black" points="161.5,-57.5 161.5,-76.5 219.5,-76.5 219.5,-57.5 161.5,-57.5"/>
<text text-anchor="middle" x="190.5" y="-64.5" font-family="Helvetica,sans-Serif" font-size="10.00">DocNode</text>
</a>
</g>
</g>
<!-- Node3&#45;&gt;Node0 -->
<g id="edge3" class="edge"><title>Node3&#45;&gt;Node0</title>
<path fill="none" stroke="midnightblue" d="M180.864,-48.334C175.647,-38.77 169.434,-27.3784 165.254,-19.7149"/>
<polygon fill="midnightblue" stroke="midnightblue" points="177.951,-50.3033 185.812,-57.4062 184.097,-46.9513 177.951,-50.3033"/>
</g>
</g>
</svg>
