<?xml version="1.0" encoding="UTF-8" standalone="no"?>
<!DOCTYPE svg PUBLIC "-//W3C//DTD SVG 1.1//EN"
 "http://www.w3.org/Graphics/SVG/1.1/DTD/svg11.dtd">
<!-- Generated by graphviz version 2.38.0 (20140413.2041)
 -->
<!-- Title: TemplateNodeResource Pages: 1 -->
<svg width="252pt" height="220pt"
 viewBox="0.00 0.00 252.00 220.00" xmlns="http://www.w3.org/2000/svg" xmlns:xlink="http://www.w3.org/1999/xlink">
<g id="graph0" class="graph" transform="scale(1 1) rotate(0) translate(4 216)">
<title>TemplateNodeResource</title>
<polygon fill="white" stroke="none" points="-4,4 -4,-216 248,-216 248,4 -4,4"/>
<!-- Node0 -->
<g id="node1" class="node"><title>Node0</title>
<polygon fill="#bfbfbf" stroke="black" points="9,-0.5 9,-19.5 131,-19.5 131,-0.5 9,-0.5"/>
<text text-anchor="middle" x="70" y="-7.5" font-family="Helvetica,sans-Serif" font-size="10.00">TemplateNodeResource</text>
</g>
<!-- Node1 -->
<g id="node2" class="node"><title>Node1</title>
<g id="a_node2"><a xlink:href="../../d8/d78/class_template_node_creator.html" target="_top" xlink:title="TemplateNodeCreator\l\&lt; TemplateNodeResource \&gt;">
<polygon fill="white" stroke="black" points="0,-57.5 0,-87.5 140,-87.5 140,-57.5 0,-57.5"/>
<text text-anchor="start" x="8" y="-75.5" font-family="Helvetica,sans-Serif" font-size="10.00">TemplateNodeCreator</text>
<text text-anchor="middle" x="70" y="-64.5" font-family="Helvetica,sans-Serif" font-size="10.00">&lt; TemplateNodeResource &gt;</text>
</a>
</g>
</g>
<!-- Node1&#45;&gt;Node0 -->
<g id="edge1" class="edge"><title>Node1&#45;&gt;Node0</title>
<path fill="none" stroke="midnightblue" d="M70,-47.3524C70,-37.5132 70,-26.7753 70,-19.5399"/>
<polygon fill="midnightblue" stroke="midnightblue" points="66.5001,-47.468 70,-57.468 73.5001,-47.4681 66.5001,-47.468"/>
</g>
<!-- Node2 -->
<g id="node3" class="node"><title>Node2</title>
<g id="a_node3"><a xlink:href="../../d6/d53/class_template_node.html" target="_top" xlink:title="Base class of all nodes in a template&#39;s AST. ">
<polygon fill="white" stroke="black" points="44,-192.5 44,-211.5 124,-211.5 124,-192.5 44,-192.5"/>
<text text-anchor="middle" x="84" y="-199.5" font-family="Helvetica,sans-Serif" font-size="10.00">TemplateNode</text>
</a>
</g>
</g>
<!-- Node2&#45;&gt;Node1 -->
<g id="edge2" class="edge"><title>Node2&#45;&gt;Node1</title>
<path fill="none" stroke="midnightblue" d="M78.6925,-182.502C76.5316,-174.169 74.2518,-164.164 73,-155 69.7998,-131.572 69.4982,-104.028 69.6753,-87.7075"/>
<polygon fill="midnightblue" stroke="midnightblue" points="75.3528,-183.558 81.3681,-192.28 82.1046,-181.71 75.3528,-183.558"/>
</g>
<!-- Node3 -->
<g id="node4" class="node"><title>Node3</title>
<g id="a_node4"><a xlink:href="../../d8/d78/class_template_node_creator.html" target="_top" xlink:title="Helper class for creating template AST tag nodes and returning the template for a given node...">
<polygon fill="white" stroke="black" points="82.5,-135.5 82.5,-154.5 219.5,-154.5 219.5,-135.5 82.5,-135.5"/>
<text text-anchor="middle" x="151" y="-142.5" font-family="Helvetica,sans-Serif" font-size="10.00">TemplateNodeCreator&lt; T &gt;</text>
</a>
</g>
</g>
<!-- Node2&#45;&gt;Node3 -->
<g id="edge4" class="edge"><title>Node2&#45;&gt;Node3</title>
<path fill="none" stroke="midnightblue" d="M102.275,-185.998C114.501,-175.962 130.164,-163.104 140.384,-154.715"/>
<polygon fill="midnightblue" stroke="midnightblue" points="99.9773,-183.356 94.4688,-192.406 104.419,-188.767 99.9773,-183.356"/>
</g>
<!-- Node3&#45;&gt;Node1 -->
<g id="edge3" class="edge"><title>Node3&#45;&gt;Node1</title>
<path fill="none" stroke="orange" stroke-dasharray="5,2" d="M133.518,-128.784C119.462,-116.551 99.8689,-99.497 86.1726,-87.5762"/>
<polygon fill="orange" stroke="orange" points="131.227,-131.43 141.068,-135.355 135.823,-126.15 131.227,-131.43"/>
<text text-anchor="middle" x="180.5" y="-109" font-family="Helvetica,sans-Serif" font-size="10.00"> &lt; TemplateNodeResource &gt;</text>
</g>
</g>
</svg>
