<?xml version="1.0" encoding="UTF-8" standalone="no"?>
<!DOCTYPE svg PUBLIC "-//W3C//DTD SVG 1.1//EN"
 "http://www.w3.org/Graphics/SVG/1.1/DTD/svg11.dtd">
<!-- Generated by graphviz version 2.38.0 (20140413.2041)
 -->
<!-- Title: Qhp Pages: 1 -->
<svg width="160pt" height="195pt"
 viewBox="0.00 0.00 159.50 195.00" xmlns="http://www.w3.org/2000/svg" xmlns:xlink="http://www.w3.org/1999/xlink">
<g id="graph0" class="graph" transform="scale(1 1) rotate(0) translate(4 191)">
<title>Qhp</title>
<polygon fill="white" stroke="none" points="-4,4 -4,-191 155.5,-191 155.5,4 -4,4"/>
<!-- Node2 -->
<g id="node1" class="node"><title>Node2</title>
<polygon fill="#bfbfbf" stroke="black" points="39,-0.5 39,-19.5 74,-19.5 74,-0.5 39,-0.5"/>
<text text-anchor="middle" x="56.5" y="-7.5" font-family="Helvetica,sans-Serif" font-size="10.00">Qhp</text>
</g>
<!-- Node3 -->
<g id="node2" class="node"><title>Node3</title>
<g id="a_node2"><a xlink:href="../../d9/dd5/class_index_intf.html" target="_top" xlink:title="Abstract interface for index generators. ">
<polygon fill="white" stroke="black" points="0,-100.5 0,-119.5 55,-119.5 55,-100.5 0,-100.5"/>
<text text-anchor="middle" x="27.5" y="-107.5" font-family="Helvetica,sans-Serif" font-size="10.00">IndexIntf</text>
</a>
</g>
</g>
<!-- Node3&#45;&gt;Node2 -->
<g id="edge1" class="edge"><title>Node3&#45;&gt;Node2</title>
<path fill="none" stroke="midnightblue" d="M32.9705,-90.5136C39.259,-69.2626 49.3116,-35.2919 53.9736,-19.5374"/>
<polygon fill="midnightblue" stroke="midnightblue" points="29.555,-89.721 30.0736,-100.303 36.2673,-91.7073 29.555,-89.721"/>
</g>
<!-- Node4 -->
<g id="node3" class="node"><title>Node4</title>
<g id="a_node3"><a xlink:href="../../db/d40/class_qhp_xml_writer.html" target="_top" xlink:title="QhpXmlWriter">
<polygon fill="white" stroke="black" points="73.5,-100.5 73.5,-119.5 151.5,-119.5 151.5,-100.5 73.5,-100.5"/>
<text text-anchor="middle" x="112.5" y="-107.5" font-family="Helvetica,sans-Serif" font-size="10.00">QhpXmlWriter</text>
</a>
</g>
</g>
<!-- Node4&#45;&gt;Node2 -->
<g id="edge2" class="edge"><title>Node4&#45;&gt;Node2</title>
<path fill="none" stroke="#9a32cd" stroke-dasharray="5,2" d="M102.433,-91.3836C90.3292,-70.2011 70.505,-35.5087 61.3785,-19.5374"/>
<polygon fill="#9a32cd" stroke="#9a32cd" points="99.5301,-93.3572 107.53,-100.303 105.608,-89.8842 99.5301,-93.3572"/>
<text text-anchor="middle" x="115.5" y="-74" font-family="Helvetica,sans-Serif" font-size="10.00"> m_index</text>
<text text-anchor="middle" x="115.5" y="-63" font-family="Helvetica,sans-Serif" font-size="10.00">m_doc</text>
<text text-anchor="middle" x="115.5" y="-52" font-family="Helvetica,sans-Serif" font-size="10.00">m_files</text>
<text text-anchor="middle" x="115.5" y="-41" font-family="Helvetica,sans-Serif" font-size="10.00">m_toc</text>
</g>
<!-- Node5 -->
<g id="node4" class="node"><title>Node5</title>
<g id="a_node4"><a xlink:href="../../dc/d3c/class_f_text_stream.html" target="_top" xlink:title="Simplified and optimized version of QTextStream. ">
<polygon fill="white" stroke="black" points="75.5,-167.5 75.5,-186.5 149.5,-186.5 149.5,-167.5 75.5,-167.5"/>
<text text-anchor="middle" x="112.5" y="-174.5" font-family="Helvetica,sans-Serif" font-size="10.00">FTextStream</text>
</a>
</g>
</g>
<!-- Node5&#45;&gt;Node4 -->
<g id="edge3" class="edge"><title>Node5&#45;&gt;Node4</title>
<path fill="none" stroke="#9a32cd" stroke-dasharray="5,2" d="M112.5,-157.037C112.5,-144.67 112.5,-129.12 112.5,-119.627"/>
<polygon fill="#9a32cd" stroke="#9a32cd" points="109,-157.234 112.5,-167.234 116,-157.234 109,-157.234"/>
<text text-anchor="middle" x="128" y="-141" font-family="Helvetica,sans-Serif" font-size="10.00"> m_out</text>
</g>
</g>
</svg>
