<?xml version="1.0" encoding="UTF-8" standalone="no"?>
<!DOCTYPE svg PUBLIC "-//W3C//DTD SVG 1.1//EN"
 "http://www.w3.org/Graphics/SVG/1.1/DTD/svg11.dtd">
<!-- Generated by graphviz version 2.38.0 (20140413.2041)
 -->
<!-- Title: src/rtfgen.h Pages: 1 -->
<svg width="192pt" height="84pt"
 viewBox="0.00 0.00 192.00 84.00" xmlns="http://www.w3.org/2000/svg" xmlns:xlink="http://www.w3.org/1999/xlink">
<g id="graph0" class="graph" transform="scale(1 1) rotate(0) translate(4 80)">
<title>src/rtfgen.h</title>
<polygon fill="white" stroke="none" points="-4,4 -4,-80 188,-80 188,4 -4,4"/>
<!-- Node15 -->
<g id="node1" class="node"><title>Node15</title>
<polygon fill="#bfbfbf" stroke="black" points="61.5,-56.5 61.5,-75.5 127.5,-75.5 127.5,-56.5 61.5,-56.5"/>
<text text-anchor="middle" x="94.5" y="-63.5" font-family="Helvetica,sans-Serif" font-size="10.00">src/rtfgen.h</text>
</g>
<!-- Node16 -->
<g id="node2" class="node"><title>Node16</title>
<g id="a_node2"><a xlink:href="../../dc/d98/doxygen_8cpp.html" target="_top" xlink:title="src/doxygen.cpp">
<polygon fill="white" stroke="black" points="0,-0.5 0,-19.5 89,-19.5 89,-0.5 0,-0.5"/>
<text text-anchor="middle" x="44.5" y="-7.5" font-family="Helvetica,sans-Serif" font-size="10.00">src/doxygen.cpp</text>
</a>
</g>
</g>
<!-- Node15&#45;&gt;Node16 -->
<g id="edge1" class="edge"><title>Node15&#45;&gt;Node16</title>
<path fill="none" stroke="midnightblue" d="M79.4237,-48.7175C70.6109,-39.1997 59.8341,-27.5608 52.6028,-19.7511"/>
<polygon fill="midnightblue" stroke="midnightblue" points="76.8812,-51.1233 86.2435,-56.083 82.0176,-46.3674 76.8812,-51.1233"/>
</g>
<!-- Node17 -->
<g id="node3" class="node"><title>Node17</title>
<g id="a_node3"><a xlink:href="../../d0/d9c/rtfgen_8cpp.html" target="_top" xlink:title="src/rtfgen.cpp">
<polygon fill="white" stroke="black" points="107,-0.5 107,-19.5 184,-19.5 184,-0.5 107,-0.5"/>
<text text-anchor="middle" x="145.5" y="-7.5" font-family="Helvetica,sans-Serif" font-size="10.00">src/rtfgen.cpp</text>
</a>
</g>
</g>
<!-- Node15&#45;&gt;Node17 -->
<g id="edge2" class="edge"><title>Node15&#45;&gt;Node17</title>
<path fill="none" stroke="midnightblue" d="M109.878,-48.7175C118.867,-39.1997 129.859,-27.5608 137.235,-19.7511"/>
<polygon fill="midnightblue" stroke="midnightblue" points="107.243,-46.4096 102.922,-56.083 112.332,-51.216 107.243,-46.4096"/>
</g>
</g>
</svg>
