<?xml version="1.0" encoding="UTF-8" standalone="no"?>
<!DOCTYPE svg PUBLIC "-//W3C//DTD SVG 1.1//EN"
 "http://www.w3.org/Graphics/SVG/1.1/DTD/svg11.dtd">
<!-- Generated by graphviz version 2.38.0 (20140413.2041)
 -->
<!-- Title: vhdlparser/ErrorHandler.h Pages: 1 -->
<svg width="370pt" height="252pt"
 viewBox="0.00 0.00 369.50 252.00" xmlns="http://www.w3.org/2000/svg" xmlns:xlink="http://www.w3.org/1999/xlink">
<g id="graph0" class="graph" transform="scale(1 1) rotate(0) translate(4 248)">
<title>vhdlparser/ErrorHandler.h</title>
<polygon fill="white" stroke="none" points="-4,4 -4,-248 365.5,-248 365.5,4 -4,4"/>
<!-- Node0 -->
<g id="node1" class="node"><title>Node0</title>
<polygon fill="#bfbfbf" stroke="black" points="0,-224.5 0,-243.5 128,-243.5 128,-224.5 0,-224.5"/>
<text text-anchor="middle" x="64" y="-231.5" font-family="Helvetica,sans-Serif" font-size="10.00">vhdlparser/ErrorHandler.h</text>
</g>
<!-- Node1 -->
<g id="node2" class="node"><title>Node1</title>
<polygon fill="white" stroke="#bfbfbf" points="71,-0.5 71,-19.5 117,-19.5 117,-0.5 71,-0.5"/>
<text text-anchor="middle" x="94" y="-7.5" font-family="Helvetica,sans-Serif" font-size="10.00">stdio.h</text>
</g>
<!-- Node0&#45;&gt;Node1 -->
<g id="edge1" class="edge"><title>Node0&#45;&gt;Node1</title>
<path fill="none" stroke="midnightblue" d="M57.1447,-224.29C36.9272,-197.474 -18.9682,-114.441 15,-56 24.9458,-38.8885 44.1015,-27.7436 61.0589,-20.8257"/>
<polygon fill="midnightblue" stroke="midnightblue" points="62.5571,-24.0025 70.7029,-17.2278 60.1102,-17.444 62.5571,-24.0025"/>
</g>
<!-- Node2 -->
<g id="node3" class="node"><title>Node2</title>
<polygon fill="white" stroke="#bfbfbf" points="24.5,-56.5 24.5,-75.5 65.5,-75.5 65.5,-56.5 24.5,-56.5"/>
<text text-anchor="middle" x="45" y="-63.5" font-family="Helvetica,sans-Serif" font-size="10.00">string</text>
</g>
<!-- Node0&#45;&gt;Node2 -->
<g id="edge2" class="edge"><title>Node0&#45;&gt;Node2</title>
<path fill="none" stroke="midnightblue" d="M62.9785,-224.075C59.9877,-197.945 51.2048,-121.211 47.1263,-85.577"/>
<polygon fill="midnightblue" stroke="midnightblue" points="50.5952,-85.1052 45.9807,-75.5681 43.6406,-85.9013 50.5952,-85.1052"/>
</g>
<!-- Node3 -->
<g id="node4" class="node"><title>Node3</title>
<g id="a_node4"><a xlink:href="../../d1/d2f/_java_c_c_8h.html" target="_top" xlink:title="JavaCC.h">
<polygon fill="white" stroke="black" points="106.5,-112.5 106.5,-131.5 167.5,-131.5 167.5,-112.5 106.5,-112.5"/>
<text text-anchor="middle" x="137" y="-119.5" font-family="Helvetica,sans-Serif" font-size="10.00">JavaCC.h</text>
</a>
</g>
</g>
<!-- Node0&#45;&gt;Node3 -->
<g id="edge3" class="edge"><title>Node0&#45;&gt;Node3</title>
<path fill="none" stroke="midnightblue" d="M68.5716,-224.367C75.3825,-211.704 88.8111,-187.485 102,-168 108.588,-158.267 116.595,-147.881 123.287,-139.542"/>
<polygon fill="midnightblue" stroke="midnightblue" points="126.068,-141.669 129.671,-131.706 120.641,-137.248 126.068,-141.669"/>
</g>
<!-- Node9 -->
<g id="node10" class="node"><title>Node9</title>
<g id="a_node10"><a xlink:href="../../dd/dcd/_token_8h.html" target="_top" xlink:title="Token.h">
<polygon fill="white" stroke="black" points="111,-168.5 111,-187.5 163,-187.5 163,-168.5 111,-168.5"/>
<text text-anchor="middle" x="137" y="-175.5" font-family="Helvetica,sans-Serif" font-size="10.00">Token.h</text>
</a>
</g>
</g>
<!-- Node0&#45;&gt;Node9 -->
<g id="edge12" class="edge"><title>Node0&#45;&gt;Node9</title>
<path fill="none" stroke="midnightblue" d="M75.7287,-224.324C86.8374,-216.107 103.742,-203.602 116.983,-193.807"/>
<polygon fill="midnightblue" stroke="midnightblue" points="119.1,-196.595 125.058,-187.834 114.937,-190.967 119.1,-196.595"/>
</g>
<!-- Node3&#45;&gt;Node1 -->
<g id="edge4" class="edge"><title>Node3&#45;&gt;Node1</title>
<path fill="none" stroke="midnightblue" d="M131.663,-112.296C126.387,-103.417 118.349,-89.1181 113,-76 106.758,-60.6906 101.64,-42.5869 98.2952,-29.3785"/>
<polygon fill="midnightblue" stroke="midnightblue" points="101.682,-28.4925 95.9167,-19.6035 94.8803,-30.1476 101.682,-28.4925"/>
</g>
<!-- Node3&#45;&gt;Node2 -->
<g id="edge5" class="edge"><title>Node3&#45;&gt;Node2</title>
<path fill="none" stroke="midnightblue" d="M122.219,-112.324C107.733,-103.822 85.4269,-90.7288 68.5068,-80.7975"/>
<polygon fill="midnightblue" stroke="midnightblue" points="70.1406,-77.6981 59.7447,-75.6545 66.5972,-83.735 70.1406,-77.6981"/>
</g>
<!-- Node4 -->
<g id="node5" class="node"><title>Node4</title>
<polygon fill="white" stroke="#bfbfbf" points="122,-56.5 122,-75.5 182,-75.5 182,-56.5 122,-56.5"/>
<text text-anchor="middle" x="152" y="-63.5" font-family="Helvetica,sans-Serif" font-size="10.00">memory.h</text>
</g>
<!-- Node3&#45;&gt;Node4 -->
<g id="edge6" class="edge"><title>Node3&#45;&gt;Node4</title>
<path fill="none" stroke="midnightblue" d="M139.477,-112.083C141.486,-104.849 144.386,-94.4087 146.89,-85.3968"/>
<polygon fill="midnightblue" stroke="midnightblue" points="150.265,-86.323 149.569,-75.7511 143.52,-84.4495 150.265,-86.323"/>
</g>
<!-- Node5 -->
<g id="node6" class="node"><title>Node5</title>
<polygon fill="white" stroke="#bfbfbf" points="200,-56.5 200,-75.5 252,-75.5 252,-56.5 200,-56.5"/>
<text text-anchor="middle" x="226" y="-63.5" font-family="Helvetica,sans-Serif" font-size="10.00">assert.h</text>
</g>
<!-- Node3&#45;&gt;Node5 -->
<g id="edge7" class="edge"><title>Node3&#45;&gt;Node5</title>
<path fill="none" stroke="midnightblue" d="M151.299,-112.324C165.183,-103.9 186.492,-90.9709 202.804,-81.0741"/>
<polygon fill="midnightblue" stroke="midnightblue" points="205.002,-83.8341 211.736,-75.6545 201.371,-77.8495 205.002,-83.8341"/>
</g>
<!-- Node6 -->
<g id="node7" class="node"><title>Node6</title>
<g id="a_node7"><a xlink:href="../../d9/d48/vhdlstring_8h.html" target="_top" xlink:title="vhdlstring.h">
<polygon fill="white" stroke="black" points="270.5,-56.5 270.5,-75.5 337.5,-75.5 337.5,-56.5 270.5,-56.5"/>
<text text-anchor="middle" x="304" y="-63.5" font-family="Helvetica,sans-Serif" font-size="10.00">vhdlstring.h</text>
</a>
</g>
</g>
<!-- Node3&#45;&gt;Node6 -->
<g id="edge8" class="edge"><title>Node3&#45;&gt;Node6</title>
<path fill="none" stroke="midnightblue" d="M163.462,-112.444C191.678,-103.32 236.54,-88.8133 267.968,-78.6509"/>
<polygon fill="midnightblue" stroke="midnightblue" points="269.224,-81.9234 277.662,-75.5164 267.07,-75.263 269.224,-81.9234"/>
</g>
<!-- Node6&#45;&gt;Node1 -->
<g id="edge9" class="edge"><title>Node6&#45;&gt;Node1</title>
<path fill="none" stroke="midnightblue" d="M270.725,-56.4435C231.337,-46.3153 166.157,-29.5546 126.923,-19.466"/>
<polygon fill="midnightblue" stroke="midnightblue" points="127.621,-16.0315 117.064,-16.9308 125.877,-22.811 127.621,-16.0315"/>
</g>
<!-- Node7 -->
<g id="node8" class="node"><title>Node7</title>
<polygon fill="white" stroke="#bfbfbf" points="246,-0.5 246,-19.5 294,-19.5 294,-0.5 246,-0.5"/>
<text text-anchor="middle" x="270" y="-7.5" font-family="Helvetica,sans-Serif" font-size="10.00">stdlib.h</text>
</g>
<!-- Node6&#45;&gt;Node7 -->
<g id="edge10" class="edge"><title>Node6&#45;&gt;Node7</title>
<path fill="none" stroke="midnightblue" d="M298.386,-56.083C293.633,-48.5341 286.682,-37.4948 280.848,-28.2298"/>
<polygon fill="midnightblue" stroke="midnightblue" points="283.8,-26.3486 275.51,-19.7511 277.876,-30.0783 283.8,-26.3486"/>
</g>
<!-- Node8 -->
<g id="node9" class="node"><title>Node8</title>
<polygon fill="white" stroke="#bfbfbf" points="312.5,-0.5 312.5,-19.5 361.5,-19.5 361.5,-0.5 312.5,-0.5"/>
<text text-anchor="middle" x="337" y="-7.5" font-family="Helvetica,sans-Serif" font-size="10.00">string.h</text>
</g>
<!-- Node6&#45;&gt;Node8 -->
<g id="edge11" class="edge"><title>Node6&#45;&gt;Node8</title>
<path fill="none" stroke="midnightblue" d="M309.449,-56.083C314.014,-48.6127 320.668,-37.7244 326.293,-28.5199"/>
<polygon fill="midnightblue" stroke="midnightblue" points="329.424,-30.109 331.652,-19.7511 323.451,-26.4588 329.424,-30.109"/>
</g>
<!-- Node9&#45;&gt;Node3 -->
<g id="edge13" class="edge"><title>Node9&#45;&gt;Node3</title>
<path fill="none" stroke="midnightblue" d="M137,-168.083C137,-161.006 137,-150.861 137,-141.986"/>
<polygon fill="midnightblue" stroke="midnightblue" points="140.5,-141.751 137,-131.751 133.5,-141.751 140.5,-141.751"/>
</g>
</g>
</svg>
