<?xml version="1.0" encoding="UTF-8" standalone="no"?>
<!DOCTYPE svg PUBLIC "-//W3C//DTD SVG 1.1//EN"
 "http://www.w3.org/Graphics/SVG/1.1/DTD/svg11.dtd">
<!-- Generated by graphviz version 2.38.0 (20140413.2041)
 -->
<!-- Title: src/parserintf.h Pages: 1 -->
<!--zoomable 263 -->
<svg id="main" version="1.1" xmlns="http://www.w3.org/2000/svg" xmlns:xlink="http://www.w3.org/1999/xlink" xml:space="preserve" onload="init(evt)">
<style type="text/css"><![CDATA[
.edge:hover path { stroke: red; }
.edge:hover polygon { stroke: red; fill: red; }
]]></style>
<script type="text/javascript"><![CDATA[
var edges = document.getElementsByTagName('g');
if (edges && edges.length) {
  for (var i=0;i<edges.length;i++) {
    if (edges[i].id.substr(0,4)=='edge') {
      edges[i].setAttribute('class','edge');
    }
  }
}
]]></script>
        <defs>
                <circle id="rim" cx="0" cy="0" r="7"/>
                <circle id="rim2" cx="0" cy="0" r="3.5"/>
                <g id="zoomPlus">
                        <use xlink:href="#rim" fill="#404040">
                                <set attributeName="fill" to="#808080" begin="zoomplus.mouseover" end="zoomplus.mouseout"/>
                        </use>
                        <path d="M-4,0h8M0,-4v8" fill="none" stroke="white" stroke-width="1.5" pointer-events="none"/>
                </g>
                <g id="zoomMin">
                        <use xlink:href="#rim" fill="#404040">
                                <set attributeName="fill" to="#808080" begin="zoomminus.mouseover" end="zoomminus.mouseout"/>
                        </use>
                        <path d="M-4,0h8" fill="none" stroke="white" stroke-width="1.5" pointer-events="none"/>
                </g>
                <g id="dirArrow">
                        <path fill="none" stroke="white" stroke-width="1.5" d="M0,-3.0v7 M-2.5,-0.5L0,-3.0L2.5,-0.5"/>
                </g>
               <g id="resetDef">
                       <use xlink:href="#rim2" fill="#404040">
                               <set attributeName="fill" to="#808080" begin="reset.mouseover" end="reset.mouseout"/>
                       </use>
               </g>
        </defs>

<script type="text/javascript">
var viewWidth = 2534;
var viewHeight = 263;
var sectionId = 'dynsection-1';
</script>
<script xlink:href="../../svgpan.js"/>
<svg id="graph" class="graph">
<g id="viewport">
<title>src/parserintf.h</title>
<polygon fill="white" stroke="none" points="-4,4 -4,-259 2529.5,-259 2529.5,4 -4,4"/>
<!-- Node5 -->
<g id="node1" class="node"><title>Node5</title>
<polygon fill="#bfbfbf" stroke="black" points="1206,-235.5 1206,-254.5 1288,-254.5 1288,-235.5 1206,-235.5"/>
<text text-anchor="middle" x="1247" y="-242.5" font-family="Helvetica,sans-Serif" font-size="10.00">src/parserintf.h</text>
</g>
<!-- Node6 -->
<g id="node2" class="node"><title>Node6</title>
<g id="a_node2"><a xlink:href="../../db/d12/context_8cpp.html" target="_top" xlink:title="src/context.cpp">
<polygon fill="white" stroke="black" points="0,-179.5 0,-198.5 84,-198.5 84,-179.5 0,-179.5"/>
<text text-anchor="middle" x="42" y="-186.5" font-family="Helvetica,sans-Serif" font-size="10.00">src/context.cpp</text>
</a>
</g>
</g>
<!-- Node5&#45;&gt;Node6 -->
<g id="edge1" class="edge"><title>Node5&#45;&gt;Node6</title>
<path fill="none" stroke="midnightblue" d="M1195.81,-244.474C1033.7,-245.447 517.285,-244.497 93,-199 90.1393,-198.693 87.1969,-198.323 84.2379,-197.909"/>
<polygon fill="midnightblue" stroke="midnightblue" points="1195.99,-247.973 1205.97,-244.408 1195.95,-240.973 1195.99,-247.973"/>
</g>
<!-- Node7 -->
<g id="node3" class="node"><title>Node7</title>
<g id="a_node3"><a xlink:href="../../d3/dea/definition_8cpp.html" target="_top" xlink:title="src/definition.cpp">
<polygon fill="white" stroke="black" points="102.5,-179.5 102.5,-198.5 193.5,-198.5 193.5,-179.5 102.5,-179.5"/>
<text text-anchor="middle" x="148" y="-186.5" font-family="Helvetica,sans-Serif" font-size="10.00">src/definition.cpp</text>
</a>
</g>
</g>
<!-- Node5&#45;&gt;Node7 -->
<g id="edge2" class="edge"><title>Node5&#45;&gt;Node7</title>
<path fill="none" stroke="midnightblue" d="M1195.14,-243.946C1042.61,-243.319 582.344,-238.072 203,-199 199.92,-198.683 196.751,-198.304 193.563,-197.885"/>
<polygon fill="midnightblue" stroke="midnightblue" points="1195.58,-247.448 1205.59,-243.984 1195.6,-240.448 1195.58,-247.448"/>
</g>
<!-- Node8 -->
<g id="node4" class="node"><title>Node8</title>
<g id="a_node4"><a xlink:href="../../d8/d29/docbookgen_8cpp.html" target="_top" xlink:title="src/docbookgen.cpp">
<polygon fill="white" stroke="black" points="212,-179.5 212,-198.5 316,-198.5 316,-179.5 212,-179.5"/>
<text text-anchor="middle" x="264" y="-186.5" font-family="Helvetica,sans-Serif" font-size="10.00">src/docbookgen.cpp</text>
</a>
</g>
</g>
<!-- Node5&#45;&gt;Node8 -->
<g id="edge3" class="edge"><title>Node5&#45;&gt;Node8</title>
<path fill="none" stroke="midnightblue" d="M1195.59,-243.251C1055.56,-240.832 655.714,-231.389 325,-199 322.123,-198.718 319.175,-198.396 316.202,-198.044"/>
<polygon fill="midnightblue" stroke="midnightblue" points="1195.94,-246.758 1206,-243.426 1196.06,-239.759 1195.94,-246.758"/>
</g>
<!-- Node9 -->
<g id="node5" class="node"><title>Node9</title>
<g id="a_node5"><a xlink:href="../../dc/d05/docbookvisitor_8cpp.html" target="_top" xlink:title="src/docbookvisitor.cpp">
<polygon fill="white" stroke="black" points="334.5,-179.5 334.5,-198.5 449.5,-198.5 449.5,-179.5 334.5,-179.5"/>
<text text-anchor="middle" x="392" y="-186.5" font-family="Helvetica,sans-Serif" font-size="10.00">src/docbookvisitor.cpp</text>
</a>
</g>
</g>
<!-- Node5&#45;&gt;Node9 -->
<g id="edge4" class="edge"><title>Node5&#45;&gt;Node9</title>
<path fill="none" stroke="midnightblue" d="M1195.8,-242.433C1070.09,-238.29 736.295,-225.503 459,-199 455.962,-198.71 452.851,-198.385 449.711,-198.037"/>
<polygon fill="midnightblue" stroke="midnightblue" points="1195.79,-245.934 1205.9,-242.762 1196.02,-238.938 1195.79,-245.934"/>
</g>
<!-- Node10 -->
<g id="node6" class="node"><title>Node10</title>
<g id="a_node6"><a xlink:href="../../d2/d0c/markdown_8h.html" target="_top" xlink:title="src/markdown.h">
<polygon fill="white" stroke="black" points="468,-179.5 468,-198.5 554,-198.5 554,-179.5 468,-179.5"/>
<text text-anchor="middle" x="511" y="-186.5" font-family="Helvetica,sans-Serif" font-size="10.00">src/markdown.h</text>
</a>
</g>
</g>
<!-- Node5&#45;&gt;Node10 -->
<g id="edge5" class="edge"><title>Node5&#45;&gt;Node10</title>
<path fill="none" stroke="midnightblue" d="M1195.41,-242.468C1081.14,-238.668 798.204,-227.012 563,-199 560.089,-198.653 557.093,-198.253 554.079,-197.817"/>
<polygon fill="midnightblue" stroke="midnightblue" points="1195.5,-245.973 1205.61,-242.801 1195.73,-238.977 1195.5,-245.973"/>
</g>
<!-- Node12 -->
<g id="node8" class="node"><title>Node12</title>
<g id="a_node8"><a xlink:href="../../dc/d98/doxygen_8cpp.html" target="_top" xlink:title="src/doxygen.cpp">
<polygon fill="white" stroke="black" points="913.5,-123.5 913.5,-142.5 1002.5,-142.5 1002.5,-123.5 913.5,-123.5"/>
<text text-anchor="middle" x="958" y="-130.5" font-family="Helvetica,sans-Serif" font-size="10.00">src/doxygen.cpp</text>
</a>
</g>
</g>
<!-- Node5&#45;&gt;Node12 -->
<g id="edge11" class="edge"><title>Node5&#45;&gt;Node12</title>
<path fill="none" stroke="midnightblue" d="M1218.02,-231.189C1198.41,-222.398 1171.99,-210.318 1149,-199 1131.88,-190.57 1128.69,-186.172 1111,-179 1072.26,-163.288 1025.99,-150.455 994.549,-142.571"/>
<polygon fill="midnightblue" stroke="midnightblue" points="1216.77,-234.463 1227.33,-235.343 1219.63,-228.071 1216.77,-234.463"/>
</g>
<!-- Node14 -->
<g id="node10" class="node"><title>Node14</title>
<g id="a_node10"><a xlink:href="../../db/d62/scanner_8h.html" target="_top" xlink:title="src/scanner.h">
<polygon fill="white" stroke="black" points="1158,-179.5 1158,-198.5 1234,-198.5 1234,-179.5 1158,-179.5"/>
<text text-anchor="middle" x="1196" y="-186.5" font-family="Helvetica,sans-Serif" font-size="10.00">src/scanner.h</text>
</a>
</g>
</g>
<!-- Node5&#45;&gt;Node14 -->
<g id="edge9" class="edge"><title>Node5&#45;&gt;Node14</title>
<path fill="none" stroke="midnightblue" d="M1231.62,-227.718C1222.63,-218.2 1211.64,-206.561 1204.26,-198.751"/>
<polygon fill="midnightblue" stroke="midnightblue" points="1229.17,-230.216 1238.58,-235.083 1234.26,-225.41 1229.17,-230.216"/>
</g>
<!-- Node15 -->
<g id="node11" class="node"><title>Node15</title>
<g id="a_node11"><a xlink:href="../../d8/d4b/pyscanner_8h.html" target="_top" xlink:title="src/pyscanner.h">
<polygon fill="white" stroke="black" points="572,-179.5 572,-198.5 658,-198.5 658,-179.5 572,-179.5"/>
<text text-anchor="middle" x="615" y="-186.5" font-family="Helvetica,sans-Serif" font-size="10.00">src/pyscanner.h</text>
</a>
</g>
</g>
<!-- Node5&#45;&gt;Node15 -->
<g id="edge12" class="edge"><title>Node5&#45;&gt;Node15</title>
<path fill="none" stroke="midnightblue" d="M1195.45,-241.63C1093.99,-236.604 861.308,-223.298 667,-199 664.091,-198.636 661.096,-198.223 658.084,-197.778"/>
<polygon fill="midnightblue" stroke="midnightblue" points="1195.57,-245.139 1205.73,-242.132 1195.91,-238.148 1195.57,-245.139"/>
</g>
<!-- Node16 -->
<g id="node12" class="node"><title>Node16</title>
<g id="a_node12"><a xlink:href="../../d9/d7b/fortranscanner_8h.html" target="_top" xlink:title="src/fortranscanner.h">
<polygon fill="white" stroke="black" points="676,-179.5 676,-198.5 780,-198.5 780,-179.5 676,-179.5"/>
<text text-anchor="middle" x="728" y="-186.5" font-family="Helvetica,sans-Serif" font-size="10.00">src/fortranscanner.h</text>
</a>
</g>
</g>
<!-- Node5&#45;&gt;Node16 -->
<g id="edge14" class="edge"><title>Node5&#45;&gt;Node16</title>
<path fill="none" stroke="midnightblue" d="M1195.74,-239.781C1110.97,-232.621 936.303,-217.092 789,-199 786.131,-198.648 783.189,-198.27 780.221,-197.875"/>
<polygon fill="midnightblue" stroke="midnightblue" points="1195.61,-243.283 1205.87,-240.633 1196.2,-236.307 1195.61,-243.283"/>
</g>
<!-- Node17 -->
<g id="node13" class="node"><title>Node17</title>
<g id="a_node13"><a xlink:href="../../dc/d22/xmlscanner_8h.html" target="_top" xlink:title="src/xmlscanner.h">
<polygon fill="white" stroke="black" points="798,-179.5 798,-198.5 890,-198.5 890,-179.5 798,-179.5"/>
<text text-anchor="middle" x="844" y="-186.5" font-family="Helvetica,sans-Serif" font-size="10.00">src/xmlscanner.h</text>
</a>
</g>
</g>
<!-- Node5&#45;&gt;Node17 -->
<g id="edge16" class="edge"><title>Node5&#45;&gt;Node17</title>
<path fill="none" stroke="midnightblue" d="M1195.83,-237.857C1128.08,-229.612 1004.93,-214.232 900,-199 896.784,-198.533 893.467,-198.037 890.128,-197.527"/>
<polygon fill="midnightblue" stroke="midnightblue" points="1195.47,-241.339 1205.81,-239.07 1196.31,-234.39 1195.47,-241.339"/>
</g>
<!-- Node18 -->
<g id="node14" class="node"><title>Node18</title>
<g id="a_node14"><a xlink:href="../../d2/dc5/sqlscanner_8h.html" target="_top" xlink:title="src/sqlscanner.h">
<polygon fill="white" stroke="black" points="908.5,-179.5 908.5,-198.5 997.5,-198.5 997.5,-179.5 908.5,-179.5"/>
<text text-anchor="middle" x="953" y="-186.5" font-family="Helvetica,sans-Serif" font-size="10.00">src/sqlscanner.h</text>
</a>
</g>
</g>
<!-- Node5&#45;&gt;Node18 -->
<g id="edge18" class="edge"><title>Node5&#45;&gt;Node18</title>
<path fill="none" stroke="midnightblue" d="M1195.76,-234.588C1139.79,-224.308 1051.03,-208.005 997.759,-198.221"/>
<polygon fill="midnightblue" stroke="midnightblue" points="1195.34,-238.07 1205.81,-236.435 1196.61,-231.186 1195.34,-238.07"/>
</g>
<!-- Node19 -->
<g id="node15" class="node"><title>Node19</title>
<g id="a_node15"><a xlink:href="../../d3/da8/tclscanner_8h.html" target="_top" xlink:title="src/tclscanner.h">
<polygon fill="white" stroke="black" points="1016,-179.5 1016,-198.5 1102,-198.5 1102,-179.5 1016,-179.5"/>
<text text-anchor="middle" x="1059" y="-186.5" font-family="Helvetica,sans-Serif" font-size="10.00">src/tclscanner.h</text>
</a>
</g>
</g>
<!-- Node5&#45;&gt;Node19 -->
<g id="edge20" class="edge"><title>Node5&#45;&gt;Node19</title>
<path fill="none" stroke="midnightblue" d="M1207.2,-232.568C1171.73,-222.381 1120.63,-207.703 1088.65,-198.516"/>
<polygon fill="midnightblue" stroke="midnightblue" points="1206.63,-236.047 1217.21,-235.444 1208.57,-229.319 1206.63,-236.047"/>
</g>
<!-- Node20 -->
<g id="node16" class="node"><title>Node20</title>
<g id="a_node16"><a xlink:href="../../d2/d55/vhdljjparser_8h.html" target="_top" xlink:title="src/vhdljjparser.h">
<polygon fill="white" stroke="black" points="1252.5,-179.5 1252.5,-198.5 1343.5,-198.5 1343.5,-179.5 1252.5,-179.5"/>
<text text-anchor="middle" x="1298" y="-186.5" font-family="Helvetica,sans-Serif" font-size="10.00">src/vhdljjparser.h</text>
</a>
</g>
</g>
<!-- Node5&#45;&gt;Node20 -->
<g id="edge22" class="edge"><title>Node5&#45;&gt;Node20</title>
<path fill="none" stroke="midnightblue" d="M1262.38,-227.718C1271.37,-218.2 1282.36,-206.561 1289.74,-198.751"/>
<polygon fill="midnightblue" stroke="midnightblue" points="1259.74,-225.41 1255.42,-235.083 1264.83,-230.216 1259.74,-225.41"/>
</g>
<!-- Node21 -->
<g id="node17" class="node"><title>Node21</title>
<g id="a_node17"><a xlink:href="../../de/dea/vhdldocgen_8cpp.html" target="_top" xlink:title="src/vhdldocgen.cpp">
<polygon fill="white" stroke="black" points="1414.5,-62 1414.5,-81 1515.5,-81 1515.5,-62 1414.5,-62"/>
<text text-anchor="middle" x="1465" y="-69" font-family="Helvetica,sans-Serif" font-size="10.00">src/vhdldocgen.cpp</text>
</a>
</g>
</g>
<!-- Node5&#45;&gt;Node21 -->
<g id="edge45" class="edge"><title>Node5&#45;&gt;Node21</title>
<path fill="none" stroke="midnightblue" d="M1298.37,-239.523C1352.28,-233.691 1431.94,-221.476 1452,-199 1482.28,-165.066 1472.25,-103.833 1467.17,-81.2084"/>
<polygon fill="midnightblue" stroke="midnightblue" points="1297.88,-236.056 1288.29,-240.572 1298.6,-243.018 1297.88,-236.056"/>
</g>
<!-- Node27 -->
<g id="node23" class="node"><title>Node27</title>
<g id="a_node23"><a xlink:href="../../d5/dc5/fileparser_8h.html" target="_top" xlink:title="src/fileparser.h">
<polygon fill="white" stroke="black" points="1361.5,-179.5 1361.5,-198.5 1442.5,-198.5 1442.5,-179.5 1361.5,-179.5"/>
<text text-anchor="middle" x="1402" y="-186.5" font-family="Helvetica,sans-Serif" font-size="10.00">src/fileparser.h</text>
</a>
</g>
</g>
<!-- Node5&#45;&gt;Node27 -->
<g id="edge35" class="edge"><title>Node5&#45;&gt;Node27</title>
<path fill="none" stroke="midnightblue" d="M1281.33,-232.039C1310.5,-221.879 1351.64,-207.546 1377.55,-198.516"/>
<polygon fill="midnightblue" stroke="midnightblue" points="1279.85,-228.848 1271.56,-235.444 1282.16,-235.459 1279.85,-228.848"/>
</g>
<!-- Node29 -->
<g id="node25" class="node"><title>Node29</title>
<g id="a_node25"><a xlink:href="../../d6/ddc/filedef_8cpp.html" target="_top" xlink:title="src/filedef.cpp">
<polygon fill="white" stroke="black" points="1499,-179.5 1499,-198.5 1577,-198.5 1577,-179.5 1499,-179.5"/>
<text text-anchor="middle" x="1538" y="-186.5" font-family="Helvetica,sans-Serif" font-size="10.00">src/filedef.cpp</text>
</a>
</g>
</g>
<!-- Node5&#45;&gt;Node29 -->
<g id="edge38" class="edge"><title>Node5&#45;&gt;Node29</title>
<path fill="none" stroke="midnightblue" d="M1298.01,-234.534C1355.33,-223.898 1447.12,-206.864 1498.99,-197.238"/>
<polygon fill="midnightblue" stroke="midnightblue" points="1297.27,-231.112 1288.08,-236.378 1298.55,-237.994 1297.27,-231.112"/>
</g>
<!-- Node30 -->
<g id="node26" class="node"><title>Node30</title>
<g id="a_node26"><a xlink:href="../../da/db0/htmldocvisitor_8cpp.html" target="_top" xlink:title="src/htmldocvisitor.cpp">
<polygon fill="white" stroke="black" points="1595.5,-179.5 1595.5,-198.5 1708.5,-198.5 1708.5,-179.5 1595.5,-179.5"/>
<text text-anchor="middle" x="1652" y="-186.5" font-family="Helvetica,sans-Serif" font-size="10.00">src/htmldocvisitor.cpp</text>
</a>
</g>
</g>
<!-- Node5&#45;&gt;Node30 -->
<g id="edge39" class="edge"><title>Node5&#45;&gt;Node30</title>
<path fill="none" stroke="midnightblue" d="M1298.43,-237.231C1364.86,-228.474 1484.07,-212.715 1586,-199 1589.09,-198.584 1592.27,-198.155 1595.48,-197.721"/>
<polygon fill="midnightblue" stroke="midnightblue" points="1297.69,-233.798 1288.23,-238.575 1298.6,-240.738 1297.69,-233.798"/>
</g>
<!-- Node31 -->
<g id="node27" class="node"><title>Node31</title>
<g id="a_node27"><a xlink:href="../../d1/d4e/latexdocvisitor_8cpp.html" target="_top" xlink:title="src/latexdocvisitor.cpp">
<polygon fill="white" stroke="black" points="1726.5,-179.5 1726.5,-198.5 1841.5,-198.5 1841.5,-179.5 1726.5,-179.5"/>
<text text-anchor="middle" x="1784" y="-186.5" font-family="Helvetica,sans-Serif" font-size="10.00">src/latexdocvisitor.cpp</text>
</a>
</g>
</g>
<!-- Node5&#45;&gt;Node31 -->
<g id="edge40" class="edge"><title>Node5&#45;&gt;Node31</title>
<path fill="none" stroke="midnightblue" d="M1298.09,-239.798C1384.62,-232.528 1565.49,-216.676 1718,-199 1720.76,-198.68 1723.58,-198.342 1726.42,-197.99"/>
<polygon fill="midnightblue" stroke="midnightblue" points="1297.68,-236.319 1288.01,-240.641 1298.27,-243.295 1297.68,-236.319"/>
</g>
<!-- Node32 -->
<g id="node28" class="node"><title>Node32</title>
<g id="a_node28"><a xlink:href="../../d8/dde/mandocvisitor_8cpp.html" target="_top" xlink:title="src/mandocvisitor.cpp">
<polygon fill="white" stroke="black" points="1859.5,-179.5 1859.5,-198.5 1972.5,-198.5 1972.5,-179.5 1859.5,-179.5"/>
<text text-anchor="middle" x="1916" y="-186.5" font-family="Helvetica,sans-Serif" font-size="10.00">src/mandocvisitor.cpp</text>
</a>
</g>
</g>
<!-- Node5&#45;&gt;Node32 -->
<g id="edge41" class="edge"><title>Node5&#45;&gt;Node32</title>
<path fill="none" stroke="midnightblue" d="M1298.34,-241.273C1402.65,-235.49 1646.8,-220.722 1851,-199 1853.72,-198.711 1856.5,-198.397 1859.31,-198.065"/>
<polygon fill="midnightblue" stroke="midnightblue" points="1297.89,-237.793 1288.09,-241.837 1298.27,-244.782 1297.89,-237.793"/>
</g>
<!-- Node33 -->
<g id="node29" class="node"><title>Node33</title>
<g id="a_node29"><a xlink:href="../../d0/d72/memberdef_8cpp.html" target="_top" xlink:title="src/memberdef.cpp">
<polygon fill="white" stroke="black" points="1990.5,-179.5 1990.5,-198.5 2091.5,-198.5 2091.5,-179.5 1990.5,-179.5"/>
<text text-anchor="middle" x="2041" y="-186.5" font-family="Helvetica,sans-Serif" font-size="10.00">src/memberdef.cpp</text>
</a>
</g>
</g>
<!-- Node5&#45;&gt;Node33 -->
<g id="edge42" class="edge"><title>Node5&#45;&gt;Node33</title>
<path fill="none" stroke="midnightblue" d="M1298.5,-242.446C1418.56,-238.474 1726.26,-226.278 1982,-199 1984.68,-198.714 1987.42,-198.394 1990.19,-198.048"/>
<polygon fill="midnightblue" stroke="midnightblue" points="1298.03,-238.959 1288.15,-242.783 1298.26,-245.955 1298.03,-238.959"/>
</g>
<!-- Node34 -->
<g id="node30" class="node"><title>Node34</title>
<g id="a_node30"><a xlink:href="../../de/d9a/rtfdocvisitor_8cpp.html" target="_top" xlink:title="src/rtfdocvisitor.cpp">
<polygon fill="white" stroke="black" points="2109.5,-179.5 2109.5,-198.5 2212.5,-198.5 2212.5,-179.5 2109.5,-179.5"/>
<text text-anchor="middle" x="2161" y="-186.5" font-family="Helvetica,sans-Serif" font-size="10.00">src/rtfdocvisitor.cpp</text>
</a>
</g>
</g>
<!-- Node5&#45;&gt;Node34 -->
<g id="edge43" class="edge"><title>Node5&#45;&gt;Node34</title>
<path fill="none" stroke="midnightblue" d="M1298.74,-243.007C1432.03,-240.075 1797.9,-229.647 2101,-199 2103.72,-198.725 2106.51,-198.412 2109.33,-198.073"/>
<polygon fill="midnightblue" stroke="midnightblue" points="1298.36,-239.515 1288.43,-243.229 1298.51,-246.513 1298.36,-239.515"/>
</g>
<!-- Node35 -->
<g id="node31" class="node"><title>Node35</title>
<g id="a_node31"><a xlink:href="../../df/d2d/util_8cpp.html" target="_top" xlink:title="src/util.cpp">
<polygon fill="white" stroke="black" points="2230.5,-179.5 2230.5,-198.5 2295.5,-198.5 2295.5,-179.5 2230.5,-179.5"/>
<text text-anchor="middle" x="2263" y="-186.5" font-family="Helvetica,sans-Serif" font-size="10.00">src/util.cpp</text>
</a>
</g>
</g>
<!-- Node5&#45;&gt;Node35 -->
<g id="edge44" class="edge"><title>Node5&#45;&gt;Node35</title>
<path fill="none" stroke="midnightblue" d="M1298.36,-242.783C1472.67,-238.472 2040.8,-222.893 2222,-199 2224.75,-198.638 2227.58,-198.185 2230.41,-197.676"/>
<polygon fill="midnightblue" stroke="midnightblue" points="1298.09,-239.288 1288.18,-243.033 1298.27,-246.286 1298.09,-239.288"/>
</g>
<!-- Node36 -->
<g id="node32" class="node"><title>Node36</title>
<g id="a_node32"><a xlink:href="../../dd/db6/xmldocvisitor_8cpp.html" target="_top" xlink:title="src/xmldocvisitor.cpp">
<polygon fill="white" stroke="black" points="2314,-179.5 2314,-198.5 2424,-198.5 2424,-179.5 2314,-179.5"/>
<text text-anchor="middle" x="2369" y="-186.5" font-family="Helvetica,sans-Serif" font-size="10.00">src/xmldocvisitor.cpp</text>
</a>
</g>
</g>
<!-- Node5&#45;&gt;Node36 -->
<g id="edge46" class="edge"><title>Node5&#45;&gt;Node36</title>
<path fill="none" stroke="midnightblue" d="M1298.51,-243.581C1451.96,-241.953 1919.32,-234.237 2305,-199 2307.91,-198.735 2310.88,-198.43 2313.88,-198.098"/>
<polygon fill="midnightblue" stroke="midnightblue" points="1298.4,-240.082 1288.44,-243.684 1298.47,-247.082 1298.4,-240.082"/>
</g>
<!-- Node37 -->
<g id="node33" class="node"><title>Node37</title>
<g id="a_node33"><a xlink:href="../../d0/dc3/xmlgen_8cpp.html" target="_top" xlink:title="src/xmlgen.cpp">
<polygon fill="white" stroke="black" points="2442.5,-179.5 2442.5,-198.5 2525.5,-198.5 2525.5,-179.5 2442.5,-179.5"/>
<text text-anchor="middle" x="2484" y="-186.5" font-family="Helvetica,sans-Serif" font-size="10.00">src/xmlgen.cpp</text>
</a>
</g>
</g>
<!-- Node5&#45;&gt;Node37 -->
<g id="edge47" class="edge"><title>Node5&#45;&gt;Node37</title>
<path fill="none" stroke="midnightblue" d="M1298.47,-244.553C1463.78,-245.796 1995.94,-245.634 2433,-199 2436.04,-198.676 2439.17,-198.279 2442.32,-197.834"/>
<polygon fill="midnightblue" stroke="midnightblue" points="1298.14,-241.051 1288.11,-244.47 1298.08,-248.051 1298.14,-241.051"/>
</g>
<!-- Node11 -->
<g id="node7" class="node"><title>Node11</title>
<g id="a_node7"><a xlink:href="../../da/d17/docparser_8cpp.html" target="_top" xlink:title="src/docparser.cpp">
<polygon fill="white" stroke="black" points="406.5,-123.5 406.5,-142.5 501.5,-142.5 501.5,-123.5 406.5,-123.5"/>
<text text-anchor="middle" x="454" y="-130.5" font-family="Helvetica,sans-Serif" font-size="10.00">src/docparser.cpp</text>
</a>
</g>
</g>
<!-- Node10&#45;&gt;Node11 -->
<g id="edge6" class="edge"><title>Node10&#45;&gt;Node11</title>
<path fill="none" stroke="midnightblue" d="M494.379,-172.253C484.266,-162.673 471.723,-150.791 463.325,-142.834"/>
<polygon fill="midnightblue" stroke="midnightblue" points="492.175,-174.987 501.842,-179.324 496.99,-169.906 492.175,-174.987"/>
</g>
<!-- Node10&#45;&gt;Node12 -->
<g id="edge7" class="edge"><title>Node10&#45;&gt;Node12</title>
<path fill="none" stroke="midnightblue" d="M564.059,-178.921C697.037,-160.079 841.991,-145.19 913.464,-138.224"/>
<polygon fill="midnightblue" stroke="midnightblue" points="563.505,-175.464 554.1,-180.342 564.494,-182.394 563.505,-175.464"/>
</g>
<!-- Node13 -->
<g id="node9" class="node"><title>Node13</title>
<g id="a_node9"><a xlink:href="../../de/d04/markdown_8cpp.html" target="_top" xlink:title="src/markdown.cpp">
<polygon fill="white" stroke="black" points="519.5,-123.5 519.5,-142.5 616.5,-142.5 616.5,-123.5 519.5,-123.5"/>
<text text-anchor="middle" x="568" y="-130.5" font-family="Helvetica,sans-Serif" font-size="10.00">src/markdown.cpp</text>
</a>
</g>
</g>
<!-- Node10&#45;&gt;Node13 -->
<g id="edge8" class="edge"><title>Node10&#45;&gt;Node13</title>
<path fill="none" stroke="midnightblue" d="M527.621,-172.253C537.734,-162.673 550.277,-150.791 558.675,-142.834"/>
<polygon fill="midnightblue" stroke="midnightblue" points="525.01,-169.906 520.158,-179.324 529.825,-174.987 525.01,-169.906"/>
</g>
<!-- Node14&#45;&gt;Node12 -->
<g id="edge10" class="edge"><title>Node14&#45;&gt;Node12</title>
<path fill="none" stroke="midnightblue" d="M1148.48,-177.217C1103.5,-167.013 1036.9,-151.901 995.535,-142.516"/>
<polygon fill="midnightblue" stroke="midnightblue" points="1147.76,-180.644 1158.29,-179.444 1149.31,-173.818 1147.76,-180.644"/>
</g>
<!-- Node15&#45;&gt;Node12 -->
<g id="edge13" class="edge"><title>Node15&#45;&gt;Node12</title>
<path fill="none" stroke="midnightblue" d="M668.255,-178.817C761.132,-163.662 857.907,-148.965 913.094,-140.689"/>
<polygon fill="midnightblue" stroke="midnightblue" points="667.424,-175.407 658.12,-180.476 668.554,-182.315 667.424,-175.407"/>
</g>
<!-- Node16&#45;&gt;Node12 -->
<g id="edge15" class="edge"><title>Node16&#45;&gt;Node12</title>
<path fill="none" stroke="midnightblue" d="M774.201,-177.153C817.658,-166.95 881.841,-151.881 921.726,-142.516"/>
<polygon fill="midnightblue" stroke="midnightblue" points="773.379,-173.75 764.444,-179.444 774.979,-180.565 773.379,-173.75"/>
</g>
<!-- Node17&#45;&gt;Node12 -->
<g id="edge17" class="edge"><title>Node17&#45;&gt;Node12</title>
<path fill="none" stroke="midnightblue" d="M871.242,-175.096C892.54,-165.007 921.542,-151.27 940.021,-142.516"/>
<polygon fill="midnightblue" stroke="midnightblue" points="869.603,-172 862.064,-179.444 872.599,-178.326 869.603,-172"/>
</g>
<!-- Node18&#45;&gt;Node12 -->
<g id="edge19" class="edge"><title>Node18&#45;&gt;Node12</title>
<path fill="none" stroke="midnightblue" d="M954.75,-169.101C955.58,-160.136 956.532,-149.858 957.19,-142.751"/>
<polygon fill="midnightblue" stroke="midnightblue" points="951.263,-168.803 953.826,-179.083 958.233,-169.448 951.263,-168.803"/>
</g>
<!-- Node19&#45;&gt;Node12 -->
<g id="edge21" class="edge"><title>Node19&#45;&gt;Node12</title>
<path fill="none" stroke="midnightblue" d="M1033.92,-174.59C1015.24,-164.605 990.296,-151.267 974.187,-142.655"/>
<polygon fill="midnightblue" stroke="midnightblue" points="1032.3,-177.696 1042.77,-179.324 1035.6,-171.522 1032.3,-177.696"/>
</g>
<!-- Node20&#45;&gt;Node12 -->
<g id="edge23" class="edge"><title>Node20&#45;&gt;Node12</title>
<path fill="none" stroke="midnightblue" d="M1242.43,-178.916C1151.27,-164.278 1057.12,-149.493 1002.93,-141.015"/>
<polygon fill="midnightblue" stroke="midnightblue" points="1241.96,-182.384 1252.38,-180.516 1243.07,-175.473 1241.96,-182.384"/>
</g>
<!-- Node20&#45;&gt;Node21 -->
<g id="edge24" class="edge"><title>Node20&#45;&gt;Node21</title>
<path fill="none" stroke="midnightblue" d="M1306.52,-169.867C1314.08,-155.477 1326.34,-135.729 1342,-123 1367.7,-102.103 1403.24,-88.7654 1429.51,-81.079"/>
<polygon fill="midnightblue" stroke="midnightblue" points="1303.19,-168.709 1301.87,-179.221 1309.45,-171.827 1303.19,-168.709"/>
</g>
<!-- Node22 -->
<g id="node18" class="node"><title>Node22</title>
<g id="a_node18"><a xlink:href="../../d1/d86/vhdljjparser_8cpp.html" target="_top" xlink:title="src/vhdljjparser.cpp">
<polygon fill="white" stroke="black" points="1015.5,-0.5 1015.5,-19.5 1116.5,-19.5 1116.5,-0.5 1015.5,-0.5"/>
<text text-anchor="middle" x="1066" y="-7.5" font-family="Helvetica,sans-Serif" font-size="10.00">src/vhdljjparser.cpp</text>
</a>
</g>
</g>
<!-- Node20&#45;&gt;Node22 -->
<g id="edge25" class="edge"><title>Node20&#45;&gt;Node22</title>
<path fill="none" stroke="midnightblue" d="M1256.11,-176.564C1193.86,-158.578 1081.97,-122.1 1061,-87 1048.25,-65.658 1056.92,-34.6748 1062.43,-19.7207"/>
<polygon fill="midnightblue" stroke="midnightblue" points="1255.45,-180.014 1266.03,-179.393 1257.37,-173.283 1255.45,-180.014"/>
</g>
<!-- Node23 -->
<g id="node19" class="node"><title>Node23</title>
<g id="a_node19"><a xlink:href="../../d5/df9/_vhdl_parser_8h.html" target="_top" xlink:title="vhdlparser/VhdlParser.h">
<polygon fill="white" stroke="black" points="1173.5,-123.5 1173.5,-142.5 1294.5,-142.5 1294.5,-123.5 1173.5,-123.5"/>
<text text-anchor="middle" x="1234" y="-130.5" font-family="Helvetica,sans-Serif" font-size="10.00">vhdlparser/VhdlParser.h</text>
</a>
</g>
</g>
<!-- Node20&#45;&gt;Node23 -->
<g id="edge26" class="edge"><title>Node20&#45;&gt;Node23</title>
<path fill="none" stroke="midnightblue" d="M1280.01,-172.82C1268.54,-163.145 1254.09,-150.948 1244.47,-142.834"/>
<polygon fill="midnightblue" stroke="midnightblue" points="1277.82,-175.55 1287.72,-179.324 1282.33,-170.2 1277.82,-175.55"/>
</g>
<!-- Node23&#45;&gt;Node21 -->
<g id="edge27" class="edge"><title>Node23&#45;&gt;Node21</title>
<path fill="none" stroke="midnightblue" d="M1276.83,-120.968C1321.68,-109.415 1391.17,-91.5173 1431.96,-81.0091"/>
<polygon fill="midnightblue" stroke="midnightblue" points="1275.91,-117.591 1267.1,-123.475 1277.65,-124.37 1275.91,-117.591"/>
</g>
<!-- Node24 -->
<g id="node20" class="node"><title>Node24</title>
<g id="a_node20"><a xlink:href="../../d7/dad/_vhdl_parser_token_manager_8h.html" target="_top" xlink:title="vhdlparser/VhdlParserToken\lManager.h">
<polygon fill="white" stroke="black" points="1256,-56.5 1256,-86.5 1396,-86.5 1396,-56.5 1256,-56.5"/>
<text text-anchor="start" x="1264" y="-74.5" font-family="Helvetica,sans-Serif" font-size="10.00">vhdlparser/VhdlParserToken</text>
<text text-anchor="middle" x="1326" y="-63.5" font-family="Helvetica,sans-Serif" font-size="10.00">Manager.h</text>
</a>
</g>
</g>
<!-- Node23&#45;&gt;Node24 -->
<g id="edge28" class="edge"><title>Node23&#45;&gt;Node24</title>
<path fill="none" stroke="midnightblue" d="M1250.58,-117.468C1263.98,-108.047 1282.88,-95.8408 1298.49,-86.523"/>
<polygon fill="midnightblue" stroke="midnightblue" points="1248.33,-114.775 1242.28,-123.475 1252.43,-120.444 1248.33,-114.775"/>
</g>
<!-- Node25 -->
<g id="node21" class="node"><title>Node25</title>
<g id="a_node21"><a xlink:href="../../da/d40/_vhdl_parser_i_f_8cpp.html" target="_top" xlink:title="vhdlparser/VhdlParserIF.cpp">
<polygon fill="white" stroke="black" points="1158,-0.5 1158,-19.5 1298,-19.5 1298,-0.5 1158,-0.5"/>
<text text-anchor="middle" x="1228" y="-7.5" font-family="Helvetica,sans-Serif" font-size="10.00">vhdlparser/VhdlParserIF.cpp</text>
</a>
</g>
</g>
<!-- Node23&#45;&gt;Node25 -->
<g id="edge31" class="edge"><title>Node23&#45;&gt;Node25</title>
<path fill="none" stroke="midnightblue" d="M1233.06,-112.988C1231.74,-86.3457 1229.39,-38.995 1228.43,-19.6232"/>
<polygon fill="midnightblue" stroke="midnightblue" points="1229.58,-113.484 1233.57,-123.298 1236.57,-113.137 1229.58,-113.484"/>
</g>
<!-- Node26 -->
<g id="node22" class="node"><title>Node26</title>
<g id="a_node22"><a xlink:href="../../dd/d6f/_vhdl_parser_i_f_8h.html" target="_top" xlink:title="vhdlparser/VhdlParserIF.h">
<polygon fill="white" stroke="black" points="1070,-62 1070,-81 1200,-81 1200,-62 1070,-62"/>
<text text-anchor="middle" x="1135" y="-69" font-family="Helvetica,sans-Serif" font-size="10.00">vhdlparser/VhdlParserIF.h</text>
</a>
</g>
</g>
<!-- Node23&#45;&gt;Node26 -->
<g id="edge32" class="edge"><title>Node23&#45;&gt;Node26</title>
<path fill="none" stroke="midnightblue" d="M1211.11,-118.244C1191.99,-106.75 1165.32,-90.7226 1149.16,-81.0091"/>
<polygon fill="midnightblue" stroke="midnightblue" points="1209.44,-121.324 1219.82,-123.475 1213.05,-115.324 1209.44,-121.324"/>
</g>
<!-- Node24&#45;&gt;Node23 -->
<g id="edge29" class="edge"><title>Node24&#45;&gt;Node23</title>
<path fill="none" stroke="midnightblue" d="M1301.53,-92.4741C1285.97,-103.023 1266.3,-115.417 1252.08,-123.475"/>
<polygon fill="midnightblue" stroke="midnightblue" points="1303.91,-95.0858 1310.15,-86.523 1299.93,-89.3261 1303.91,-95.0858"/>
</g>
<!-- Node24&#45;&gt;Node25 -->
<g id="edge30" class="edge"><title>Node24&#45;&gt;Node25</title>
<path fill="none" stroke="midnightblue" d="M1294,-51.0688C1276.53,-40.4624 1255.77,-27.8586 1242.26,-19.6578"/>
<polygon fill="midnightblue" stroke="midnightblue" points="1292.41,-54.2013 1302.78,-56.3993 1296.04,-48.2177 1292.41,-54.2013"/>
</g>
<!-- Node26&#45;&gt;Node22 -->
<g id="edge33" class="edge"><title>Node26&#45;&gt;Node22</title>
<path fill="none" stroke="midnightblue" d="M1117.2,-55.1496C1104.04,-43.8058 1086.62,-28.7811 1075.87,-19.5091"/>
<polygon fill="midnightblue" stroke="midnightblue" points="1115.26,-58.0952 1125.11,-61.9751 1119.83,-52.794 1115.26,-58.0952"/>
</g>
<!-- Node26&#45;&gt;Node25 -->
<g id="edge34" class="edge"><title>Node26&#45;&gt;Node25</title>
<path fill="none" stroke="midnightblue" d="M1156.99,-56.4295C1174.92,-44.9589 1199.66,-29.1343 1214.7,-19.5091"/>
<polygon fill="midnightblue" stroke="midnightblue" points="1154.86,-53.6376 1148.32,-61.9751 1158.63,-59.534 1154.86,-53.6376"/>
</g>
<!-- Node27&#45;&gt;Node12 -->
<g id="edge36" class="edge"><title>Node27&#45;&gt;Node12</title>
<path fill="none" stroke="midnightblue" d="M1351.48,-178.855C1219.06,-159.442 1074.06,-144.837 1002.56,-138.076"/>
<polygon fill="midnightblue" stroke="midnightblue" points="1350.99,-182.321 1361.39,-180.321 1352.01,-175.396 1350.99,-182.321"/>
</g>
<!-- Node28 -->
<g id="node24" class="node"><title>Node28</title>
<g id="a_node24"><a xlink:href="../../d9/d74/fileparser_8cpp.html" target="_top" xlink:title="src/fileparser.cpp">
<polygon fill="white" stroke="black" points="1351,-123.5 1351,-142.5 1443,-142.5 1443,-123.5 1351,-123.5"/>
<text text-anchor="middle" x="1397" y="-130.5" font-family="Helvetica,sans-Serif" font-size="10.00">src/fileparser.cpp</text>
</a>
</g>
</g>
<!-- Node27&#45;&gt;Node28 -->
<g id="edge37" class="edge"><title>Node27&#45;&gt;Node28</title>
<path fill="none" stroke="midnightblue" d="M1400.25,-169.101C1399.42,-160.136 1398.47,-149.858 1397.81,-142.751"/>
<polygon fill="midnightblue" stroke="midnightblue" points="1396.77,-169.448 1401.17,-179.083 1403.74,-168.803 1396.77,-169.448"/>
</g>
</g>
</svg>
        <g id="navigator" transform="translate(0 0)" fill="#404254">
                <rect fill="#f2f5e9" fill-opacity="0.5" stroke="#606060" stroke-width=".5" x="0" y="0" width="60" height="60"/>
                <use id="zoomplus" xlink:href="#zoomPlus" x="17" y="9" onmousedown="handleZoom(evt,'in')"/>
                <use id="zoomminus" xlink:href="#zoomMin" x="42" y="9" onmousedown="handleZoom(evt,'out')"/>
                <use id="reset" xlink:href="#resetDef" x="30" y="36" onmousedown="handleReset()"/>
                <g id="arrowUp" xlink:href="#dirArrow" transform="translate(30 24)" onmousedown="handlePan(0,-1)">
                  <use xlink:href="#rim" fill="#404040">
                        <set attributeName="fill" to="#808080" begin="arrowUp.mouseover" end="arrowUp.mouseout"/>
                  </use>
                  <path fill="none" stroke="white" stroke-width="1.5" d="M0,-3.0v7 M-2.5,-0.5L0,-3.0L2.5,-0.5"/>
                </g>
                <g id="arrowRight" xlink:href="#dirArrow" transform="rotate(90) translate(36 -43)" onmousedown="handlePan(1,0)">
                  <use xlink:href="#rim" fill="#404040">
                        <set attributeName="fill" to="#808080" begin="arrowRight.mouseover" end="arrowRight.mouseout"/>
                  </use>
                  <path fill="none" stroke="white" stroke-width="1.5" d="M0,-3.0v7 M-2.5,-0.5L0,-3.0L2.5,-0.5"/>
                </g>
                <g id="arrowDown" xlink:href="#dirArrow" transform="rotate(180) translate(-30 -48)" onmousedown="handlePan(0,1)">
                  <use xlink:href="#rim" fill="#404040">
                        <set attributeName="fill" to="#808080" begin="arrowDown.mouseover" end="arrowDown.mouseout"/>
                  </use>
                  <path fill="none" stroke="white" stroke-width="1.5" d="M0,-3.0v7 M-2.5,-0.5L0,-3.0L2.5,-0.5"/>
                </g>
                <g id="arrowLeft" xlink:href="#dirArrow" transform="rotate(270) translate(-36 17)" onmousedown="handlePan(-1,0)">
                  <use xlink:href="#rim" fill="#404040">
                        <set attributeName="fill" to="#808080" begin="arrowLeft.mouseover" end="arrowLeft.mouseout"/>
                  </use>
                  <path fill="none" stroke="white" stroke-width="1.5" d="M0,-3.0v7 M-2.5,-0.5L0,-3.0L2.5,-0.5"/>
                </g>
        </g>
        <svg viewBox="0 0 15 15" width="100%" height="30px" preserveAspectRatio="xMaxYMin meet">
         <g id="arrow_out" transform="scale(0.3 0.3)">
          <a xlink:href="parserintf_8h__dep__incl_org.svg" target="_base">
           <rect id="button" ry="5" rx="5" y="6" x="6" height="38" width="38"
                fill="#f2f5e9" fill-opacity="0.5" stroke="#606060" stroke-width="1.0"/>
           <path id="arrow"
             d="M 11.500037,31.436501 C 11.940474,20.09759 22.043105,11.32322 32.158766,21.979434 L 37.068811,17.246167 C 37.068811,17.246167 37.088388,32 37.088388,32 L 22.160133,31.978069 C 22.160133,31.978069 26.997745,27.140456 26.997745,27.140456 C 18.528582,18.264221 13.291696,25.230495 11.500037,31.436501 z"
             style="fill:#404040;"/>
          </a>
         </g>
        </svg>
</svg>
