<?xml version="1.0" encoding="UTF-8" standalone="no"?>
<!DOCTYPE svg PUBLIC "-//W3C//DTD SVG 1.1//EN"
 "http://www.w3.org/Graphics/SVG/1.1/DTD/svg11.dtd">
<!-- Generated by graphviz version 2.38.0 (20140413.2041)
 -->
<!-- Title: NamespaceSDict Pages: 1 -->
<svg width="422pt" height="162pt"
 viewBox="0.00 0.00 422.00 162.00" xmlns="http://www.w3.org/2000/svg" xmlns:xlink="http://www.w3.org/1999/xlink">
<g id="graph0" class="graph" transform="scale(1 1) rotate(0) translate(4 158)">
<title>NamespaceSDict</title>
<polygon fill="white" stroke="none" points="-4,4 -4,-158 418,-158 418,4 -4,4"/>
<!-- Node3 -->
<g id="node1" class="node"><title>Node3</title>
<polygon fill="#bfbfbf" stroke="black" points="320,-0.5 320,-19.5 414,-19.5 414,-0.5 320,-0.5"/>
<text text-anchor="middle" x="367" y="-7.5" font-family="Helvetica,sans-Serif" font-size="10.00">NamespaceSDict</text>
</g>
<!-- Node4 -->
<g id="node2" class="node"><title>Node4</title>
<g id="a_node2"><a xlink:href="../../d1/d50/class_s_dict.html" target="_top" xlink:title="SDict\&lt; NamespaceDef \&gt;">
<polygon fill="white" stroke="black" points="258,-67.5 258,-86.5 386,-86.5 386,-67.5 258,-67.5"/>
<text text-anchor="middle" x="322" y="-74.5" font-family="Helvetica,sans-Serif" font-size="10.00">SDict&lt; NamespaceDef &gt;</text>
</a>
</g>
</g>
<!-- Node4&#45;&gt;Node3 -->
<g id="edge1" class="edge"><title>Node4&#45;&gt;Node3</title>
<path fill="none" stroke="midnightblue" d="M342.432,-60.8271C346.31,-57.2657 350.065,-53.2563 353,-49 359.226,-39.9703 363.063,-27.8347 365.11,-19.7316"/>
<polygon fill="midnightblue" stroke="midnightblue" points="339.949,-58.3415 334.527,-67.4437 344.441,-63.7094 339.949,-58.3415"/>
</g>
<!-- Node5 -->
<g id="node3" class="node"><title>Node5</title>
<g id="a_node3"><a xlink:href="../../df/dce/class_s_list.html" target="_top" xlink:title="SList\&lt; NamespaceDef \&gt;">
<polygon fill="white" stroke="black" points="128.5,-0.5 128.5,-19.5 253.5,-19.5 253.5,-0.5 128.5,-0.5"/>
<text text-anchor="middle" x="191" y="-7.5" font-family="Helvetica,sans-Serif" font-size="10.00">SList&lt; NamespaceDef &gt;</text>
</a>
</g>
</g>
<!-- Node4&#45;&gt;Node5 -->
<g id="edge4" class="edge"><title>Node4&#45;&gt;Node5</title>
<path fill="none" stroke="#9a32cd" stroke-dasharray="5,2" d="M287.485,-63.8688C276.3,-59.576 263.958,-54.4484 253,-49 248.111,-46.569 221.515,-30.0698 204.784,-19.6266"/>
<polygon fill="#9a32cd" stroke="#9a32cd" points="286.359,-67.1847 296.952,-67.4135 288.814,-60.6291 286.359,-67.1847"/>
<text text-anchor="middle" x="274.5" y="-41" font-family="Helvetica,sans-Serif" font-size="10.00"> m_owner</text>
</g>
<!-- Node5&#45;&gt;Node4 -->
<g id="edge2" class="edge"><title>Node5&#45;&gt;Node4</title>
<path fill="none" stroke="#9a32cd" stroke-dasharray="5,2" d="M263.565,-20.319C276.545,-24.3102 289.319,-29.974 300,-38 309.873,-45.4186 316.06,-58.6652 319.273,-67.3929"/>
<polygon fill="#9a32cd" stroke="#9a32cd" points="264.2,-16.8637 253.629,-17.5816 262.34,-23.6122 264.2,-16.8637"/>
<text text-anchor="middle" x="325" y="-41" font-family="Helvetica,sans-Serif" font-size="10.00"> m_list</text>
</g>
<!-- Node6 -->
<g id="node4" class="node"><title>Node6</title>
<polygon fill="white" stroke="#bfbfbf" points="0,-67.5 0,-86.5 126,-86.5 126,-67.5 0,-67.5"/>
<text text-anchor="middle" x="63" y="-74.5" font-family="Helvetica,sans-Serif" font-size="10.00">QList&lt; NamespaceDef &gt;</text>
</g>
<!-- Node6&#45;&gt;Node5 -->
<g id="edge3" class="edge"><title>Node6&#45;&gt;Node5</title>
<path fill="none" stroke="midnightblue" d="M89.0453,-62.7739C114.397,-49.8999 152.189,-30.7086 173.932,-19.6672"/>
<polygon fill="midnightblue" stroke="midnightblue" points="87.3289,-59.72 79.9974,-67.3685 90.4984,-65.9614 87.3289,-59.72"/>
</g>
<!-- Node7 -->
<g id="node5" class="node"><title>Node7</title>
<g id="a_node5"><a xlink:href="../../df/dce/class_s_list.html" target="_top" xlink:title="internal wrapper class that redirects compareValues() to the dictionary ">
<polygon fill="white" stroke="black" points="144.5,-67.5 144.5,-86.5 207.5,-86.5 207.5,-67.5 144.5,-67.5"/>
<text text-anchor="middle" x="176" y="-74.5" font-family="Helvetica,sans-Serif" font-size="10.00">SList&lt; T &gt;</text>
</a>
</g>
</g>
<!-- Node7&#45;&gt;Node5 -->
<g id="edge5" class="edge"><title>Node7&#45;&gt;Node5</title>
<path fill="none" stroke="orange" stroke-dasharray="5,2" d="M152.216,-61.2117C144.583,-54.5303 139.204,-46.2858 144,-38 148.808,-29.6926 157.246,-23.7189 165.658,-19.538"/>
<polygon fill="orange" stroke="orange" points="150.215,-64.0864 160.305,-67.3156 154.431,-58.4986 150.215,-64.0864"/>
<text text-anchor="middle" x="189" y="-41" font-family="Helvetica,sans-Serif" font-size="10.00"> &lt; NamespaceDef &gt;</text>
</g>
<!-- Node8 -->
<g id="node6" class="node"><title>Node8</title>
<polygon fill="white" stroke="#bfbfbf" points="144,-134.5 144,-153.5 208,-153.5 208,-134.5 144,-134.5"/>
<text text-anchor="middle" x="176" y="-141.5" font-family="Helvetica,sans-Serif" font-size="10.00">QList&lt; T &gt;</text>
</g>
<!-- Node8&#45;&gt;Node7 -->
<g id="edge6" class="edge"><title>Node8&#45;&gt;Node7</title>
<path fill="none" stroke="midnightblue" d="M176,-124.037C176,-111.67 176,-96.1198 176,-86.6273"/>
<polygon fill="midnightblue" stroke="midnightblue" points="172.5,-124.234 176,-134.234 179.5,-124.234 172.5,-124.234"/>
</g>
<!-- Node9 -->
<g id="node7" class="node"><title>Node9</title>
<g id="a_node7"><a xlink:href="../../d1/d50/class_s_dict.html" target="_top" xlink:title="Ordered dictionary of elements of type T. ">
<polygon fill="white" stroke="black" points="289.5,-134.5 289.5,-153.5 354.5,-153.5 354.5,-134.5 289.5,-134.5"/>
<text text-anchor="middle" x="322" y="-141.5" font-family="Helvetica,sans-Serif" font-size="10.00">SDict&lt; T &gt;</text>
</a>
</g>
</g>
<!-- Node9&#45;&gt;Node4 -->
<g id="edge7" class="edge"><title>Node9&#45;&gt;Node4</title>
<path fill="none" stroke="orange" stroke-dasharray="5,2" d="M322,-124.037C322,-111.67 322,-96.1198 322,-86.6273"/>
<polygon fill="orange" stroke="orange" points="318.5,-124.234 322,-134.234 325.5,-124.234 318.5,-124.234"/>
<text text-anchor="middle" x="367" y="-108" font-family="Helvetica,sans-Serif" font-size="10.00"> &lt; NamespaceDef &gt;</text>
</g>
</g>
</svg>
