<?xml version="1.0" encoding="UTF-8" standalone="no"?>
<!DOCTYPE svg PUBLIC "-//W3C//DTD SVG 1.1//EN"
 "http://www.w3.org/Graphics/SVG/1.1/DTD/svg11.dtd">
<!-- Generated by graphviz version 2.38.0 (20140413.2041)
 -->
<!-- Title: SDict&lt; T &gt; Pages: 1 -->
<svg width="521pt" height="889pt"
 viewBox="0.00 0.00 521.00 888.61" xmlns="http://www.w3.org/2000/svg" xmlns:xlink="http://www.w3.org/1999/xlink">
<g id="graph0" class="graph" transform="scale(1 1) rotate(0) translate(4 884.608)">
<title>SDict&lt; T &gt;</title>
<polygon fill="white" stroke="none" points="-4,4 -4,-884.608 517,-884.608 517,4 -4,4"/>
<!-- Node0 -->
<g id="node1" class="node"><title>Node0</title>
<polygon fill="#bfbfbf" stroke="black" points="0,-432.108 0,-451.108 65,-451.108 65,-432.108 0,-432.108"/>
<text text-anchor="middle" x="32.5" y="-439.108" font-family="Helvetica,sans-Serif" font-size="10.00">SDict&lt; T &gt;</text>
</g>
<!-- Node1 -->
<g id="node2" class="node"><title>Node1</title>
<g id="a_node2"><a xlink:href="../../d1/d50/class_s_dict.html" target="_top" xlink:title="SDict\&lt; MemberName \&gt;">
<polygon fill="white" stroke="black" points="223,-850.108 223,-869.108 344,-869.108 344,-850.108 223,-850.108"/>
<text text-anchor="middle" x="283.5" y="-857.108" font-family="Helvetica,sans-Serif" font-size="10.00">SDict&lt; MemberName &gt;</text>
</a>
</g>
</g>
<!-- Node0&#45;&gt;Node1 -->
<g id="edge1" class="edge"><title>Node0&#45;&gt;Node1</title>
<path fill="none" stroke="orange" stroke-dasharray="5,2" d="M34.5985,-461.386C38.9991,-537.274 56.4094,-806.911 83,-833.608 119.603,-870.357 180.871,-873.22 225.872,-869.145"/>
<polygon fill="orange" stroke="orange" points="38.0866,-461.075 34.0242,-451.29 31.0979,-461.472 38.0866,-461.075"/>
<text text-anchor="middle" x="137.5" y="-872.608" font-family="Helvetica,sans-Serif" font-size="10.00"> &lt; MemberName &gt;</text>
</g>
<!-- Node3 -->
<g id="node4" class="node"><title>Node3</title>
<g id="a_node4"><a xlink:href="../../d1/d50/class_s_dict.html" target="_top" xlink:title="SDict\&lt; MemberNameInfo \&gt;">
<polygon fill="white" stroke="black" points="215,-812.108 215,-831.108 352,-831.108 352,-812.108 215,-812.108"/>
<text text-anchor="middle" x="283.5" y="-819.108" font-family="Helvetica,sans-Serif" font-size="10.00">SDict&lt; MemberNameInfo &gt;</text>
</a>
</g>
</g>
<!-- Node0&#45;&gt;Node3 -->
<g id="edge3" class="edge"><title>Node0&#45;&gt;Node3</title>
<path fill="none" stroke="orange" stroke-dasharray="5,2" d="M33.2432,-461.44C32.8068,-529.123 35.1483,-749.416 83,-796.608 101.298,-814.654 164.551,-820.211 214.989,-821.676"/>
<polygon fill="orange" stroke="orange" points="36.7443,-461.321 33.3385,-451.289 29.7446,-461.256 36.7443,-461.321"/>
<text text-anchor="middle" x="137.5" y="-822.608" font-family="Helvetica,sans-Serif" font-size="10.00"> &lt; MemberNameInfo &gt;</text>
</g>
<!-- Node5 -->
<g id="node6" class="node"><title>Node5</title>
<g id="a_node6"><a xlink:href="../../d1/d50/class_s_dict.html" target="_top" xlink:title="SDict\&lt; PageDef \&gt;">
<polygon fill="white" stroke="black" points="234.5,-774.108 234.5,-793.108 332.5,-793.108 332.5,-774.108 234.5,-774.108"/>
<text text-anchor="middle" x="283.5" y="-781.108" font-family="Helvetica,sans-Serif" font-size="10.00">SDict&lt; PageDef &gt;</text>
</a>
</g>
</g>
<!-- Node0&#45;&gt;Node5 -->
<g id="edge5" class="edge"><title>Node0&#45;&gt;Node5</title>
<path fill="none" stroke="orange" stroke-dasharray="5,2" d="M33.609,-461.318C34.3903,-524.017 40.2837,-717.164 83,-758.608 103.856,-778.843 181.973,-783.332 234.045,-783.997"/>
<polygon fill="orange" stroke="orange" points="37.1078,-461.162 33.5149,-451.195 30.1081,-461.227 37.1078,-461.162"/>
<text text-anchor="middle" x="137.5" y="-784.608" font-family="Helvetica,sans-Serif" font-size="10.00"> &lt; PageDef &gt;</text>
</g>
<!-- Node7 -->
<g id="node8" class="node"><title>Node7</title>
<g id="a_node8"><a xlink:href="../../d1/d50/class_s_dict.html" target="_top" xlink:title="SDict\&lt; QCString \&gt;">
<polygon fill="white" stroke="black" points="233.5,-736.108 233.5,-755.108 333.5,-755.108 333.5,-736.108 233.5,-736.108"/>
<text text-anchor="middle" x="283.5" y="-743.108" font-family="Helvetica,sans-Serif" font-size="10.00">SDict&lt; QCString &gt;</text>
</a>
</g>
</g>
<!-- Node0&#45;&gt;Node7 -->
<g id="edge7" class="edge"><title>Node0&#45;&gt;Node7</title>
<path fill="none" stroke="orange" stroke-dasharray="5,2" d="M34.0784,-461.537C36.1908,-519.294 45.4684,-684.941 83,-720.608 103.938,-740.506 181.183,-745.125 233.181,-745.904"/>
<polygon fill="orange" stroke="orange" points="37.5657,-461.092 33.737,-451.213 30.5695,-461.324 37.5657,-461.092"/>
<text text-anchor="middle" x="137.5" y="-746.608" font-family="Helvetica,sans-Serif" font-size="10.00"> &lt; QCString &gt;</text>
</g>
<!-- Node8 -->
<g id="node9" class="node"><title>Node8</title>
<g id="a_node9"><a xlink:href="../../d1/d50/class_s_dict.html" target="_top" xlink:title="SDict\&lt; Definition \&gt;">
<polygon fill="white" stroke="black" points="233,-698.108 233,-717.108 334,-717.108 334,-698.108 233,-698.108"/>
<text text-anchor="middle" x="283.5" y="-705.108" font-family="Helvetica,sans-Serif" font-size="10.00">SDict&lt; Definition &gt;</text>
</a>
</g>
</g>
<!-- Node0&#45;&gt;Node8 -->
<g id="edge8" class="edge"><title>Node0&#45;&gt;Node8</title>
<path fill="none" stroke="orange" stroke-dasharray="5,2" d="M34.7078,-461.435C38.3023,-513.412 50.7592,-651.663 83,-681.608 104.114,-701.218 180.887,-706.35 232.8,-707.521"/>
<polygon fill="orange" stroke="orange" points="38.1841,-460.957 34.0395,-451.207 31.199,-461.414 38.1841,-460.957"/>
<text text-anchor="middle" x="137.5" y="-708.608" font-family="Helvetica,sans-Serif" font-size="10.00"> &lt; Definition &gt;</text>
</g>
<!-- Node9 -->
<g id="node10" class="node"><title>Node9</title>
<g id="a_node10"><a xlink:href="../../d1/d50/class_s_dict.html" target="_top" xlink:title="SDict\&lt; MemberDef \&gt;">
<polygon fill="white" stroke="black" points="228.5,-660.108 228.5,-679.108 338.5,-679.108 338.5,-660.108 228.5,-660.108"/>
<text text-anchor="middle" x="283.5" y="-667.108" font-family="Helvetica,sans-Serif" font-size="10.00">SDict&lt; MemberDef &gt;</text>
</a>
</g>
</g>
<!-- Node0&#45;&gt;Node9 -->
<g id="edge9" class="edge"><title>Node0&#45;&gt;Node9</title>
<path fill="none" stroke="orange" stroke-dasharray="5,2" d="M35.5241,-461.294C40.6637,-507.189 55.7785,-619.245 83,-643.608 103.821,-662.243 176.546,-667.74 228.161,-669.243"/>
<polygon fill="orange" stroke="orange" points="38.9818,-460.712 34.431,-451.144 32.022,-461.462 38.9818,-460.712"/>
<text text-anchor="middle" x="137.5" y="-669.608" font-family="Helvetica,sans-Serif" font-size="10.00"> &lt; MemberDef &gt;</text>
</g>
<!-- Node11 -->
<g id="node12" class="node"><title>Node11</title>
<g id="a_node12"><a xlink:href="../../d1/d50/class_s_dict.html" target="_top" xlink:title="SDict\&lt; DirRelation \&gt;">
<polygon fill="white" stroke="black" points="229.5,-622.108 229.5,-641.108 337.5,-641.108 337.5,-622.108 229.5,-622.108"/>
<text text-anchor="middle" x="283.5" y="-629.108" font-family="Helvetica,sans-Serif" font-size="10.00">SDict&lt; DirRelation &gt;</text>
</a>
</g>
</g>
<!-- Node0&#45;&gt;Node11 -->
<g id="edge11" class="edge"><title>Node0&#45;&gt;Node11</title>
<path fill="none" stroke="orange" stroke-dasharray="5,2" d="M33.0247,-461.777C33.39,-497.129 39.7104,-569.997 83,-606.608 104.455,-624.753 177.831,-629.963 229.334,-631.331"/>
<polygon fill="orange" stroke="orange" points="36.5271,-461.353 33.0844,-451.333 29.5272,-461.313 36.5271,-461.353"/>
<text text-anchor="middle" x="137.5" y="-631.608" font-family="Helvetica,sans-Serif" font-size="10.00"> &lt; DirRelation &gt;</text>
</g>
<!-- Node12 -->
<g id="node13" class="node"><title>Node12</title>
<g id="a_node13"><a xlink:href="../../d1/d50/class_s_dict.html" target="_top" xlink:title="SDict\&lt; DotFilePatcher \&gt;">
<polygon fill="white" stroke="black" points="221,-584.108 221,-603.108 346,-603.108 346,-584.108 221,-584.108"/>
<text text-anchor="middle" x="283.5" y="-591.108" font-family="Helvetica,sans-Serif" font-size="10.00">SDict&lt; DotFilePatcher &gt;</text>
</a>
</g>
</g>
<!-- Node0&#45;&gt;Node12 -->
<g id="edge12" class="edge"><title>Node0&#45;&gt;Node12</title>
<path fill="none" stroke="orange" stroke-dasharray="5,2" d="M34.8549,-461.669C37.9993,-490.965 48.4297,-544.866 83,-571.608 103.947,-587.811 170.351,-592.529 220.847,-593.688"/>
<polygon fill="orange" stroke="orange" points="38.3163,-461.076 33.9485,-451.424 31.3435,-461.693 38.3163,-461.076"/>
<text text-anchor="middle" x="137.5" y="-594.608" font-family="Helvetica,sans-Serif" font-size="10.00"> &lt; DotFilePatcher &gt;</text>
</g>
<!-- Node13 -->
<g id="node14" class="node"><title>Node13</title>
<g id="a_node14"><a xlink:href="../../d1/d50/class_s_dict.html" target="_top" xlink:title="SDict\&lt; NamespaceDef \&gt;">
<polygon fill="white" stroke="black" points="219.5,-546.108 219.5,-565.108 347.5,-565.108 347.5,-546.108 219.5,-546.108"/>
<text text-anchor="middle" x="283.5" y="-553.108" font-family="Helvetica,sans-Serif" font-size="10.00">SDict&lt; NamespaceDef &gt;</text>
</a>
</g>
</g>
<!-- Node0&#45;&gt;Node13 -->
<g id="edge13" class="edge"><title>Node0&#45;&gt;Node13</title>
<path fill="none" stroke="orange" stroke-dasharray="5,2" d="M38.8782,-460.894C45.6358,-481.268 59.3182,-512.613 83,-528.608 122.826,-555.505 177.423,-561.298 219.435,-560.898"/>
<polygon fill="orange" stroke="orange" points="42.1615,-459.662 35.8878,-451.125 35.468,-461.711 42.1615,-459.662"/>
<text text-anchor="middle" x="137.5" y="-562.608" font-family="Helvetica,sans-Serif" font-size="10.00"> &lt; NamespaceDef &gt;</text>
</g>
<!-- Node15 -->
<g id="node16" class="node"><title>Node15</title>
<g id="a_node16"><a xlink:href="../../d1/d50/class_s_dict.html" target="_top" xlink:title="SDict\&lt; void \&gt;">
<polygon fill="white" stroke="black" points="245,-508.108 245,-527.108 322,-527.108 322,-508.108 245,-508.108"/>
<text text-anchor="middle" x="283.5" y="-515.108" font-family="Helvetica,sans-Serif" font-size="10.00">SDict&lt; void &gt;</text>
</a>
</g>
</g>
<!-- Node0&#45;&gt;Node15 -->
<g id="edge15" class="edge"><title>Node0&#45;&gt;Node15</title>
<path fill="none" stroke="orange" stroke-dasharray="5,2" d="M47.836,-458.918C56.8869,-468.648 69.4112,-480.111 83,-486.608 135.335,-511.63 203.382,-517.255 244.953,-518.106"/>
<polygon fill="orange" stroke="orange" points="50.3477,-456.475 41.1029,-451.299 45.1025,-461.11 50.3477,-456.475"/>
<text text-anchor="middle" x="137.5" y="-516.608" font-family="Helvetica,sans-Serif" font-size="10.00"> &lt; void &gt;</text>
</g>
<!-- Node16 -->
<g id="node17" class="node"><title>Node16</title>
<g id="a_node17"><a xlink:href="../../d1/d50/class_s_dict.html" target="_top" xlink:title="SDict\&lt; GroupDef \&gt;">
<polygon fill="white" stroke="black" points="233,-470.108 233,-489.108 334,-489.108 334,-470.108 233,-470.108"/>
<text text-anchor="middle" x="283.5" y="-477.108" font-family="Helvetica,sans-Serif" font-size="10.00">SDict&lt; GroupDef &gt;</text>
</a>
</g>
</g>
<!-- Node0&#45;&gt;Node16 -->
<g id="edge16" class="edge"><title>Node0&#45;&gt;Node16</title>
<path fill="none" stroke="orange" stroke-dasharray="5,2" d="M74.3437,-453.695C77.2609,-454.393 80.1677,-455.04 83,-455.608 133.625,-465.748 192.393,-472.185 232.969,-475.811"/>
<polygon fill="orange" stroke="orange" points="75.034,-450.259 64.4782,-451.168 73.2968,-457.04 75.034,-450.259"/>
<text text-anchor="middle" x="137.5" y="-474.608" font-family="Helvetica,sans-Serif" font-size="10.00"> &lt; GroupDef &gt;</text>
</g>
<!-- Node18 -->
<g id="node19" class="node"><title>Node18</title>
<g id="a_node19"><a xlink:href="../../d1/d50/class_s_dict.html" target="_top" xlink:title="SDict\&lt; IndexField \&gt;">
<polygon fill="white" stroke="black" points="231.5,-432.108 231.5,-451.108 335.5,-451.108 335.5,-432.108 231.5,-432.108"/>
<text text-anchor="middle" x="283.5" y="-439.108" font-family="Helvetica,sans-Serif" font-size="10.00">SDict&lt; IndexField &gt;</text>
</a>
</g>
</g>
<!-- Node0&#45;&gt;Node18 -->
<g id="edge18" class="edge"><title>Node0&#45;&gt;Node18</title>
<path fill="none" stroke="orange" stroke-dasharray="5,2" d="M75.1477,-441.608C118.117,-441.608 185.197,-441.608 231.36,-441.608"/>
<polygon fill="orange" stroke="orange" points="75.0361,-438.108 65.036,-441.608 75.036,-445.108 75.0361,-438.108"/>
<text text-anchor="middle" x="137.5" y="-444.608" font-family="Helvetica,sans-Serif" font-size="10.00"> &lt; IndexField &gt;</text>
</g>
<!-- Node20 -->
<g id="node21" class="node"><title>Node20</title>
<g id="a_node21"><a xlink:href="../../d1/d50/class_s_dict.html" target="_top" xlink:title="SDict\&lt; DocSets::NodeDef \&gt;">
<polygon fill="white" stroke="black" points="212,-394.108 212,-413.108 355,-413.108 355,-394.108 212,-394.108"/>
<text text-anchor="middle" x="283.5" y="-401.108" font-family="Helvetica,sans-Serif" font-size="10.00">SDict&lt; DocSets::NodeDef &gt;</text>
</a>
</g>
</g>
<!-- Node0&#45;&gt;Node20 -->
<g id="edge20" class="edge"><title>Node0&#45;&gt;Node20</title>
<path fill="none" stroke="orange" stroke-dasharray="5,2" d="M71.7069,-429.29C75.4993,-428.291 79.3099,-427.373 83,-426.608 125.331,-417.828 173.461,-412.157 211.84,-408.644"/>
<polygon fill="orange" stroke="orange" points="70.4832,-425.998 61.8061,-432.078 72.3804,-432.736 70.4832,-425.998"/>
<text text-anchor="middle" x="137.5" y="-429.608" font-family="Helvetica,sans-Serif" font-size="10.00"> &lt; DocSets::NodeDef &gt;</text>
</g>
<!-- Node21 -->
<g id="node22" class="node"><title>Node21</title>
<g id="a_node22"><a xlink:href="../../d1/d50/class_s_dict.html" target="_top" xlink:title="SDict\&lt; GenericsCollection \&gt;">
<polygon fill="white" stroke="black" points="212.5,-356.108 212.5,-375.108 354.5,-375.108 354.5,-356.108 212.5,-356.108"/>
<text text-anchor="middle" x="283.5" y="-363.108" font-family="Helvetica,sans-Serif" font-size="10.00">SDict&lt; GenericsCollection &gt;</text>
</a>
</g>
</g>
<!-- Node0&#45;&gt;Node21 -->
<g id="edge21" class="edge"><title>Node0&#45;&gt;Node21</title>
<path fill="none" stroke="orange" stroke-dasharray="5,2" d="M47.4256,-424.245C56.4694,-414.213 69.1285,-402.292 83,-395.608 123.072,-376.299 172.484,-368.765 212.107,-366.075"/>
<polygon fill="orange" stroke="orange" points="44.5722,-422.196 40.7319,-432.071 49.8917,-426.746 44.5722,-422.196"/>
<text text-anchor="middle" x="137.5" y="-398.608" font-family="Helvetica,sans-Serif" font-size="10.00"> &lt; GenericsCollection &gt;</text>
</g>
<!-- Node22 -->
<g id="node23" class="node"><title>Node22</title>
<g id="a_node23"><a xlink:href="../../d1/d50/class_s_dict.html" target="_top" xlink:title="SDict\&lt; FilePair \&gt;">
<polygon fill="white" stroke="black" points="237.5,-318.108 237.5,-337.108 329.5,-337.108 329.5,-318.108 237.5,-318.108"/>
<text text-anchor="middle" x="283.5" y="-325.108" font-family="Helvetica,sans-Serif" font-size="10.00">SDict&lt; FilePair &gt;</text>
</a>
</g>
</g>
<!-- Node0&#45;&gt;Node22 -->
<g id="edge22" class="edge"><title>Node0&#45;&gt;Node22</title>
<path fill="none" stroke="orange" stroke-dasharray="5,2" d="M38.6284,-422.131C45.2152,-401.266 58.7936,-368.954 83,-352.608 128.707,-321.743 193.988,-319.454 237.271,-322.224"/>
<polygon fill="orange" stroke="orange" points="35.2328,-421.274 35.802,-431.853 41.9545,-423.228 35.2328,-421.274"/>
<text text-anchor="middle" x="137.5" y="-355.608" font-family="Helvetica,sans-Serif" font-size="10.00"> &lt; FilePair &gt;</text>
</g>
<!-- Node24 -->
<g id="node25" class="node"><title>Node24</title>
<g id="a_node25"><a xlink:href="../../d1/d50/class_s_dict.html" target="_top" xlink:title="SDict\&lt; ClassDef \&gt;">
<polygon fill="white" stroke="black" points="233,-280.108 233,-299.108 334,-299.108 334,-280.108 233,-280.108"/>
<text text-anchor="middle" x="283.5" y="-287.108" font-family="Helvetica,sans-Serif" font-size="10.00">SDict&lt; ClassDef &gt;</text>
</a>
</g>
</g>
<!-- Node0&#45;&gt;Node24 -->
<g id="edge24" class="edge"><title>Node0&#45;&gt;Node24</title>
<path fill="none" stroke="orange" stroke-dasharray="5,2" d="M34.437,-421.533C37.0347,-391.196 46.7596,-334.283 83,-306.608 125.545,-274.118 189.098,-274.566 232.987,-280.08"/>
<polygon fill="orange" stroke="orange" points="30.9294,-421.529 33.75,-431.742 37.9136,-421.999 30.9294,-421.529"/>
<text text-anchor="middle" x="137.5" y="-309.608" font-family="Helvetica,sans-Serif" font-size="10.00"> &lt; ClassDef &gt;</text>
</g>
<!-- Node26 -->
<g id="node27" class="node"><title>Node26</title>
<g id="a_node27"><a xlink:href="../../d1/d50/class_s_dict.html" target="_top" xlink:title="SDict\&lt; RefItem \&gt;">
<polygon fill="white" stroke="black" points="236,-242.108 236,-261.108 331,-261.108 331,-242.108 236,-242.108"/>
<text text-anchor="middle" x="283.5" y="-249.108" font-family="Helvetica,sans-Serif" font-size="10.00">SDict&lt; RefItem &gt;</text>
</a>
</g>
</g>
<!-- Node0&#45;&gt;Node26 -->
<g id="edge26" class="edge"><title>Node0&#45;&gt;Node26</title>
<path fill="none" stroke="orange" stroke-dasharray="5,2" d="M36.011,-421.94C41.857,-379.559 57.8239,-281.811 83,-261.608 129.521,-224.276 203.587,-232.594 247.184,-242.073"/>
<polygon fill="orange" stroke="orange" points="32.538,-421.506 34.6869,-431.88 39.4767,-422.43 32.538,-421.506"/>
<text text-anchor="middle" x="137.5" y="-264.608" font-family="Helvetica,sans-Serif" font-size="10.00"> &lt; RefItem &gt;</text>
</g>
<!-- Node28 -->
<g id="node29" class="node"><title>Node28</title>
<g id="a_node29"><a xlink:href="../../d1/d50/class_s_dict.html" target="_top" xlink:title="SDict\&lt; SearchDocEntry \&gt;">
<polygon fill="white" stroke="black" points="218,-204.108 218,-223.108 349,-223.108 349,-204.108 218,-204.108"/>
<text text-anchor="middle" x="283.5" y="-211.108" font-family="Helvetica,sans-Serif" font-size="10.00">SDict&lt; SearchDocEntry &gt;</text>
</a>
</g>
</g>
<!-- Node0&#45;&gt;Node28 -->
<g id="edge28" class="edge"><title>Node0&#45;&gt;Node28</title>
<path fill="none" stroke="orange" stroke-dasharray="5,2" d="M34.8464,-422.016C38.6919,-372.514 51.5408,-244.504 83,-218.608 131.015,-179.083 209.779,-192.528 252.565,-204.092"/>
<polygon fill="orange" stroke="orange" points="31.35,-421.84 34.1071,-432.07 38.3312,-422.354 31.35,-421.84"/>
<text text-anchor="middle" x="137.5" y="-221.608" font-family="Helvetica,sans-Serif" font-size="10.00"> &lt; SearchDocEntry &gt;</text>
</g>
<!-- Node29 -->
<g id="node30" class="node"><title>Node29</title>
<g id="a_node30"><a xlink:href="../../d1/d50/class_s_dict.html" target="_top" xlink:title="SDict\&lt; SearchDefinitionList \&gt;">
<polygon fill="white" stroke="black" points="210,-166.108 210,-185.108 357,-185.108 357,-166.108 210,-166.108"/>
<text text-anchor="middle" x="283.5" y="-173.108" font-family="Helvetica,sans-Serif" font-size="10.00">SDict&lt; SearchDefinitionList &gt;</text>
</a>
</g>
</g>
<!-- Node0&#45;&gt;Node29 -->
<g id="edge29" class="edge"><title>Node0&#45;&gt;Node29</title>
<path fill="none" stroke="orange" stroke-dasharray="5,2" d="M34.0652,-422.089C36.1303,-366.293 45.2683,-208.104 83,-176.608 101.812,-160.904 160.778,-162.255 209.762,-166.605"/>
<polygon fill="orange" stroke="orange" points="30.5671,-421.977 33.732,-432.088 37.5632,-422.21 30.5671,-421.977"/>
<text text-anchor="middle" x="137.5" y="-179.608" font-family="Helvetica,sans-Serif" font-size="10.00"> &lt; SearchDefinitionList &gt;</text>
</g>
<!-- Node31 -->
<g id="node32" class="node"><title>Node31</title>
<g id="a_node32"><a xlink:href="../../d1/d50/class_s_dict.html" target="_top" xlink:title="SDict\&lt; SectionInfo \&gt;">
<polygon fill="white" stroke="black" points="229,-128.108 229,-147.108 338,-147.108 338,-128.108 229,-128.108"/>
<text text-anchor="middle" x="283.5" y="-135.108" font-family="Helvetica,sans-Serif" font-size="10.00">SDict&lt; SectionInfo &gt;</text>
</a>
</g>
</g>
<!-- Node0&#45;&gt;Node31 -->
<g id="edge31" class="edge"><title>Node0&#45;&gt;Node31</title>
<path fill="none" stroke="orange" stroke-dasharray="5,2" d="M33.7727,-421.74C35.045,-361.861 42.2477,-185.023 83,-148.608 128.265,-108.16 204.871,-117.871 248.816,-128.066"/>
<polygon fill="orange" stroke="orange" points="30.2673,-422.019 33.5891,-432.08 37.2662,-422.144 30.2673,-422.019"/>
<text text-anchor="middle" x="137.5" y="-151.608" font-family="Helvetica,sans-Serif" font-size="10.00"> &lt; SectionInfo &gt;</text>
</g>
<!-- Node33 -->
<g id="node34" class="node"><title>Node33</title>
<g id="a_node34"><a xlink:href="../../d1/d50/class_s_dict.html" target="_top" xlink:title="SDict\&lt; MemberList \&gt;">
<polygon fill="white" stroke="black" points="228.5,-90.1078 228.5,-109.108 338.5,-109.108 338.5,-90.1078 228.5,-90.1078"/>
<text text-anchor="middle" x="283.5" y="-97.1078" font-family="Helvetica,sans-Serif" font-size="10.00">SDict&lt; MemberList &gt;</text>
</a>
</g>
</g>
<!-- Node0&#45;&gt;Node33 -->
<g id="edge33" class="edge"><title>Node0&#45;&gt;Node33</title>
<path fill="none" stroke="orange" stroke-dasharray="5,2" d="M33.2234,-421.7C32.7676,-355.687 35.1642,-145.793 83,-103.608 103.786,-85.2772 176.519,-88.2973 228.146,-93.1402"/>
<polygon fill="orange" stroke="orange" points="29.7262,-422.003 33.3271,-431.967 36.7258,-421.932 29.7262,-422.003"/>
<text text-anchor="middle" x="137.5" y="-106.608" font-family="Helvetica,sans-Serif" font-size="10.00"> &lt; MemberList &gt;</text>
</g>
<!-- Node34 -->
<g id="node35" class="node"><title>Node34</title>
<g id="a_node35"><a xlink:href="../../d1/d50/class_s_dict.html" target="_top" xlink:title="SDict\&lt; DirDef \&gt;">
<polygon fill="white" stroke="black" points="239.5,-52.1078 239.5,-71.1078 327.5,-71.1078 327.5,-52.1078 239.5,-52.1078"/>
<text text-anchor="middle" x="283.5" y="-59.1078" font-family="Helvetica,sans-Serif" font-size="10.00">SDict&lt; DirDef &gt;</text>
</a>
</g>
</g>
<!-- Node0&#45;&gt;Node34 -->
<g id="edge34" class="edge"><title>Node0&#45;&gt;Node34</title>
<path fill="none" stroke="orange" stroke-dasharray="5,2" d="M33.0272,-421.829C31.8196,-352.365 31.7734,-121.195 83,-73.6078 127.488,-32.2806 204.379,-41.8478 248.583,-52.0395"/>
<polygon fill="orange" stroke="orange" points="29.5287,-421.94 33.2311,-431.867 36.5272,-421.798 29.5287,-421.94"/>
<text text-anchor="middle" x="137.5" y="-76.6078" font-family="Helvetica,sans-Serif" font-size="10.00"> &lt; DirDef &gt;</text>
</g>
<!-- Node36 -->
<g id="node37" class="node"><title>Node36</title>
<g id="a_node37"><a xlink:href="../../d1/d50/class_s_dict.html" target="_top" xlink:title="SDict\&lt; Example \&gt;">
<polygon fill="white" stroke="black" points="234.5,-14.1078 234.5,-33.1078 332.5,-33.1078 332.5,-14.1078 234.5,-14.1078"/>
<text text-anchor="middle" x="283.5" y="-21.1078" font-family="Helvetica,sans-Serif" font-size="10.00">SDict&lt; Example &gt;</text>
</a>
</g>
</g>
<!-- Node0&#45;&gt;Node36 -->
<g id="edge36" class="edge"><title>Node0&#45;&gt;Node36</title>
<path fill="none" stroke="orange" stroke-dasharray="5,2" d="M34.3779,-421.637C38.053,-342.565 53.4033,-54.4117 83,-27.6078 129.99,14.9478 211.744,-1.29379 254.548,-14.0169"/>
<polygon fill="orange" stroke="orange" points="30.8769,-421.582 33.9201,-431.731 37.8697,-421.9 30.8769,-421.582"/>
<text text-anchor="middle" x="137.5" y="-30.6078" font-family="Helvetica,sans-Serif" font-size="10.00"> &lt; Example &gt;</text>
</g>
<!-- Node2 -->
<g id="node3" class="node"><title>Node2</title>
<g id="a_node3"><a xlink:href="../../d1/d7e/class_member_name_s_dict.html" target="_top" xlink:title="Sorted dictionary of MemberName objects. ">
<polygon fill="white" stroke="black" points="402,-850.108 402,-869.108 505,-869.108 505,-850.108 402,-850.108"/>
<text text-anchor="middle" x="453.5" y="-857.108" font-family="Helvetica,sans-Serif" font-size="10.00">MemberNameSDict</text>
</a>
</g>
</g>
<!-- Node1&#45;&gt;Node2 -->
<g id="edge2" class="edge"><title>Node1&#45;&gt;Node2</title>
<path fill="none" stroke="midnightblue" d="M354.52,-859.608C370.407,-859.608 386.981,-859.608 401.881,-859.608"/>
<polygon fill="midnightblue" stroke="midnightblue" points="354.204,-856.108 344.204,-859.608 354.204,-863.108 354.204,-856.108"/>
</g>
<!-- Node4 -->
<g id="node5" class="node"><title>Node4</title>
<g id="a_node5"><a xlink:href="../../d6/d70/class_member_name_info_s_dict.html" target="_top" xlink:title="Sorted dictionary of MemberNameInfo objects. ">
<polygon fill="white" stroke="black" points="394,-812.108 394,-831.108 513,-831.108 513,-812.108 394,-812.108"/>
<text text-anchor="middle" x="453.5" y="-819.108" font-family="Helvetica,sans-Serif" font-size="10.00">MemberNameInfoSDict</text>
</a>
</g>
</g>
<!-- Node3&#45;&gt;Node4 -->
<g id="edge4" class="edge"><title>Node3&#45;&gt;Node4</title>
<path fill="none" stroke="midnightblue" d="M362.422,-821.608C372.995,-821.608 383.696,-821.608 393.851,-821.608"/>
<polygon fill="midnightblue" stroke="midnightblue" points="362.348,-818.108 352.348,-821.608 362.348,-825.108 362.348,-818.108"/>
</g>
<!-- Node6 -->
<g id="node7" class="node"><title>Node6</title>
<g id="a_node7"><a xlink:href="../../d0/d59/class_page_s_dict.html" target="_top" xlink:title="PageSDict">
<polygon fill="white" stroke="black" points="421.5,-774.108 421.5,-793.108 485.5,-793.108 485.5,-774.108 421.5,-774.108"/>
<text text-anchor="middle" x="453.5" y="-781.108" font-family="Helvetica,sans-Serif" font-size="10.00">PageSDict</text>
</a>
</g>
</g>
<!-- Node5&#45;&gt;Node6 -->
<g id="edge6" class="edge"><title>Node5&#45;&gt;Node6</title>
<path fill="none" stroke="midnightblue" d="M342.916,-783.608C369.276,-783.608 399.353,-783.608 421.32,-783.608"/>
<polygon fill="midnightblue" stroke="midnightblue" points="342.642,-780.108 332.642,-783.608 342.642,-787.108 342.642,-780.108"/>
</g>
<!-- Node10 -->
<g id="node11" class="node"><title>Node10</title>
<g id="a_node11"><a xlink:href="../../d6/dd6/class_member_s_dict.html" target="_top" xlink:title="A sorted dictionary of MemberDef objects. ">
<polygon fill="white" stroke="black" points="415,-660.108 415,-679.108 492,-679.108 492,-660.108 415,-660.108"/>
<text text-anchor="middle" x="453.5" y="-667.108" font-family="Helvetica,sans-Serif" font-size="10.00">MemberSDict</text>
</a>
</g>
</g>
<!-- Node9&#45;&gt;Node10 -->
<g id="edge10" class="edge"><title>Node9&#45;&gt;Node10</title>
<path fill="none" stroke="midnightblue" d="M348.668,-669.608C370.978,-669.608 395.267,-669.608 414.74,-669.608"/>
<polygon fill="midnightblue" stroke="midnightblue" points="348.581,-666.108 338.581,-669.608 348.581,-673.108 348.581,-666.108"/>
</g>
<!-- Node14 -->
<g id="node15" class="node"><title>Node14</title>
<g id="a_node15"><a xlink:href="../../d4/d8d/class_namespace_s_dict.html" target="_top" xlink:title="A sorted dictionary of NamespaceDef objects. ">
<polygon fill="white" stroke="black" points="406.5,-546.108 406.5,-565.108 500.5,-565.108 500.5,-546.108 406.5,-546.108"/>
<text text-anchor="middle" x="453.5" y="-553.108" font-family="Helvetica,sans-Serif" font-size="10.00">NamespaceSDict</text>
</a>
</g>
</g>
<!-- Node13&#45;&gt;Node14 -->
<g id="edge14" class="edge"><title>Node13&#45;&gt;Node14</title>
<path fill="none" stroke="midnightblue" d="M357.737,-555.608C374.276,-555.608 391.382,-555.608 406.432,-555.608"/>
<polygon fill="midnightblue" stroke="midnightblue" points="357.535,-552.108 347.535,-555.608 357.535,-559.108 357.535,-552.108"/>
</g>
<!-- Node17 -->
<g id="node18" class="node"><title>Node17</title>
<g id="a_node18"><a xlink:href="../../d0/d32/class_group_s_dict.html" target="_top" xlink:title="A sorted dictionary of GroupDef objects. ">
<polygon fill="white" stroke="black" points="419.5,-470.108 419.5,-489.108 487.5,-489.108 487.5,-470.108 419.5,-470.108"/>
<text text-anchor="middle" x="453.5" y="-477.108" font-family="Helvetica,sans-Serif" font-size="10.00">GroupSDict</text>
</a>
</g>
</g>
<!-- Node16&#45;&gt;Node17 -->
<g id="edge17" class="edge"><title>Node16&#45;&gt;Node17</title>
<path fill="none" stroke="midnightblue" d="M344.66,-479.608C369.855,-479.608 398.17,-479.608 419.462,-479.608"/>
<polygon fill="midnightblue" stroke="midnightblue" points="344.451,-476.108 334.451,-479.608 344.451,-483.108 344.451,-476.108"/>
</g>
<!-- Node19 -->
<g id="node20" class="node"><title>Node19</title>
<g id="a_node20"><a xlink:href="../../d3/db1/class_index_field_s_dict.html" target="_top" xlink:title="Sorted dictionary of IndexField objects. ">
<polygon fill="white" stroke="black" points="410.5,-432.108 410.5,-451.108 496.5,-451.108 496.5,-432.108 410.5,-432.108"/>
<text text-anchor="middle" x="453.5" y="-439.108" font-family="Helvetica,sans-Serif" font-size="10.00">IndexFieldSDict</text>
</a>
</g>
</g>
<!-- Node18&#45;&gt;Node19 -->
<g id="edge19" class="edge"><title>Node18&#45;&gt;Node19</title>
<path fill="none" stroke="midnightblue" d="M346.094,-441.608C367.419,-441.608 390.823,-441.608 410.239,-441.608"/>
<polygon fill="midnightblue" stroke="midnightblue" points="345.818,-438.108 335.818,-441.608 345.818,-445.108 345.818,-438.108"/>
</g>
<!-- Node23 -->
<g id="node24" class="node"><title>Node23</title>
<g id="a_node24"><a xlink:href="../../d0/d5d/class_file_pair_dict.html" target="_top" xlink:title="A sorted dictionary of FilePair objects. ">
<polygon fill="white" stroke="black" points="419.5,-318.108 419.5,-337.108 487.5,-337.108 487.5,-318.108 419.5,-318.108"/>
<text text-anchor="middle" x="453.5" y="-325.108" font-family="Helvetica,sans-Serif" font-size="10.00">FilePairDict</text>
</a>
</g>
</g>
<!-- Node22&#45;&gt;Node23 -->
<g id="edge23" class="edge"><title>Node22&#45;&gt;Node23</title>
<path fill="none" stroke="midnightblue" d="M339.748,-327.608C366.069,-327.608 396.674,-327.608 419.351,-327.608"/>
<polygon fill="midnightblue" stroke="midnightblue" points="339.521,-324.108 329.521,-327.608 339.521,-331.108 339.521,-324.108"/>
</g>
<!-- Node25 -->
<g id="node26" class="node"><title>Node25</title>
<g id="a_node26"><a xlink:href="../../d9/d3d/class_class_s_dict.html" target="_top" xlink:title="A sorted dictionary of ClassDef objects. ">
<polygon fill="white" stroke="black" points="420,-280.108 420,-299.108 487,-299.108 487,-280.108 420,-280.108"/>
<text text-anchor="middle" x="453.5" y="-287.108" font-family="Helvetica,sans-Serif" font-size="10.00">ClassSDict</text>
</a>
</g>
</g>
<!-- Node24&#45;&gt;Node25 -->
<g id="edge25" class="edge"><title>Node24&#45;&gt;Node25</title>
<path fill="none" stroke="midnightblue" d="M344.734,-289.608C370.112,-289.608 398.645,-289.608 419.973,-289.608"/>
<polygon fill="midnightblue" stroke="midnightblue" points="344.451,-286.108 334.451,-289.608 344.451,-293.108 344.451,-286.108"/>
</g>
<!-- Node27 -->
<g id="node28" class="node"><title>Node27</title>
<g id="a_node28"><a xlink:href="../../d0/d8c/class_sorted_ref_items.html" target="_top" xlink:title="List of items sorted by title. ">
<polygon fill="white" stroke="black" points="410.5,-242.108 410.5,-261.108 496.5,-261.108 496.5,-242.108 410.5,-242.108"/>
<text text-anchor="middle" x="453.5" y="-249.108" font-family="Helvetica,sans-Serif" font-size="10.00">SortedRefItems</text>
</a>
</g>
</g>
<!-- Node26&#45;&gt;Node27 -->
<g id="edge27" class="edge"><title>Node26&#45;&gt;Node27</title>
<path fill="none" stroke="midnightblue" d="M341.421,-251.608C363.959,-251.608 389.409,-251.608 410.257,-251.608"/>
<polygon fill="midnightblue" stroke="midnightblue" points="341.297,-248.108 331.297,-251.608 341.297,-255.108 341.297,-248.108"/>
</g>
<!-- Node30 -->
<g id="node31" class="node"><title>Node30</title>
<g id="a_node31"><a xlink:href="../../d8/d43/class_search_index_list.html" target="_top" xlink:title="SearchIndexList">
<polygon fill="white" stroke="black" points="410,-166.108 410,-185.108 497,-185.108 497,-166.108 410,-166.108"/>
<text text-anchor="middle" x="453.5" y="-173.108" font-family="Helvetica,sans-Serif" font-size="10.00">SearchIndexList</text>
</a>
</g>
</g>
<!-- Node29&#45;&gt;Node30 -->
<g id="edge30" class="edge"><title>Node29&#45;&gt;Node30</title>
<path fill="none" stroke="midnightblue" d="M367.338,-175.608C382.01,-175.608 396.729,-175.608 409.704,-175.608"/>
<polygon fill="midnightblue" stroke="midnightblue" points="367.21,-172.108 357.21,-175.608 367.21,-179.108 367.21,-172.108"/>
</g>
<!-- Node32 -->
<g id="node33" class="node"><title>Node32</title>
<g id="a_node33"><a xlink:href="../../de/d9a/class_section_dict.html" target="_top" xlink:title="Unsorted dictionary of SectionInfo objects. ">
<polygon fill="white" stroke="black" points="419.5,-128.108 419.5,-147.108 487.5,-147.108 487.5,-128.108 419.5,-128.108"/>
<text text-anchor="middle" x="453.5" y="-135.108" font-family="Helvetica,sans-Serif" font-size="10.00">SectionDict</text>
</a>
</g>
</g>
<!-- Node31&#45;&gt;Node32 -->
<g id="edge32" class="edge"><title>Node31&#45;&gt;Node32</title>
<path fill="none" stroke="midnightblue" d="M348.325,-137.608C372.541,-137.608 399.135,-137.608 419.392,-137.608"/>
<polygon fill="midnightblue" stroke="midnightblue" points="348.118,-134.108 338.118,-137.608 348.118,-141.108 348.118,-134.108"/>
</g>
<!-- Node35 -->
<g id="node36" class="node"><title>Node35</title>
<g id="a_node36"><a xlink:href="../../db/dc8/class_dir_s_dict.html" target="_top" xlink:title="A sorted dictionary of DirDef objects. ">
<polygon fill="white" stroke="black" points="426.5,-52.1078 426.5,-71.1078 480.5,-71.1078 480.5,-52.1078 426.5,-52.1078"/>
<text text-anchor="middle" x="453.5" y="-59.1078" font-family="Helvetica,sans-Serif" font-size="10.00">DirSDict</text>
</a>
</g>
</g>
<!-- Node34&#45;&gt;Node35 -->
<g id="edge35" class="edge"><title>Node34&#45;&gt;Node35</title>
<path fill="none" stroke="midnightblue" d="M337.907,-61.6078C367.35,-61.6078 402.6,-61.6078 426.158,-61.6078"/>
<polygon fill="midnightblue" stroke="midnightblue" points="337.764,-58.1079 327.764,-61.6078 337.764,-65.1079 337.764,-58.1079"/>
</g>
<!-- Node37 -->
<g id="node38" class="node"><title>Node37</title>
<g id="a_node38"><a xlink:href="../../d0/d31/class_example_s_dict.html" target="_top" xlink:title="A sorted dictionary of Example objects. ">
<polygon fill="white" stroke="black" points="413.5,-14.1078 413.5,-33.1078 493.5,-33.1078 493.5,-14.1078 413.5,-14.1078"/>
<text text-anchor="middle" x="453.5" y="-21.1078" font-family="Helvetica,sans-Serif" font-size="10.00">ExampleSDict</text>
</a>
</g>
</g>
<!-- Node36&#45;&gt;Node37 -->
<g id="edge37" class="edge"><title>Node36&#45;&gt;Node37</title>
<path fill="none" stroke="midnightblue" d="M342.787,-23.6078C366.133,-23.6078 392.412,-23.6078 413.396,-23.6078"/>
<polygon fill="midnightblue" stroke="midnightblue" points="342.642,-20.1079 332.642,-23.6078 342.642,-27.1079 342.642,-20.1079"/>
</g>
</g>
</svg>
