<?xml version="1.0" encoding="UTF-8" standalone="no"?>
<!DOCTYPE svg PUBLIC "-//W3C//DTD SVG 1.1//EN"
 "http://www.w3.org/Graphics/SVG/1.1/DTD/svg11.dtd">
<!-- Generated by graphviz version 2.38.0 (20140413.2041)
 -->
<!-- Title: src/main.cpp Pages: 1 -->
<!--zoomable 364 -->
<svg id="main" version="1.1" xmlns="http://www.w3.org/2000/svg" xmlns:xlink="http://www.w3.org/1999/xlink" xml:space="preserve" onload="init(evt)">
<style type="text/css"><![CDATA[
.edge:hover path { stroke: red; }
.edge:hover polygon { stroke: red; fill: red; }
]]></style>
<script type="text/javascript"><![CDATA[
var edges = document.getElementsByTagName('g');
if (edges && edges.length) {
  for (var i=0;i<edges.length;i++) {
    if (edges[i].id.substr(0,4)=='edge') {
      edges[i].setAttribute('class','edge');
    }
  }
}
]]></script>
        <defs>
                <circle id="rim" cx="0" cy="0" r="7"/>
                <circle id="rim2" cx="0" cy="0" r="3.5"/>
                <g id="zoomPlus">
                        <use xlink:href="#rim" fill="#404040">
                                <set attributeName="fill" to="#808080" begin="zoomplus.mouseover" end="zoomplus.mouseout"/>
                        </use>
                        <path d="M-4,0h8M0,-4v8" fill="none" stroke="white" stroke-width="1.5" pointer-events="none"/>
                </g>
                <g id="zoomMin">
                        <use xlink:href="#rim" fill="#404040">
                                <set attributeName="fill" to="#808080" begin="zoomminus.mouseover" end="zoomminus.mouseout"/>
                        </use>
                        <path d="M-4,0h8" fill="none" stroke="white" stroke-width="1.5" pointer-events="none"/>
                </g>
                <g id="dirArrow">
                        <path fill="none" stroke="white" stroke-width="1.5" d="M0,-3.0v7 M-2.5,-0.5L0,-3.0L2.5,-0.5"/>
                </g>
               <g id="resetDef">
                       <use xlink:href="#rim2" fill="#404040">
                               <set attributeName="fill" to="#808080" begin="reset.mouseover" end="reset.mouseout"/>
                       </use>
               </g>
        </defs>

<script type="text/javascript">
var viewWidth = 1117;
var viewHeight = 364;
var sectionId = 'dynsection-0';
</script>
<script xlink:href="../../svgpan.js"/>
<svg id="graph" class="graph">
<g id="viewport">
<title>src/main.cpp</title>
<polygon fill="white" stroke="none" points="-4,4 -4,-360 1113,-360 1113,4 -4,4"/>
<!-- Node0 -->
<g id="node1" class="node"><title>Node0</title>
<polygon fill="#bfbfbf" stroke="black" points="262.5,-336.5 262.5,-355.5 335.5,-355.5 335.5,-336.5 262.5,-336.5"/>
<text text-anchor="middle" x="299" y="-343.5" font-family="Helvetica,sans-Serif" font-size="10.00">src/main.cpp</text>
</g>
<!-- Node1 -->
<g id="node2" class="node"><title>Node1</title>
<g id="a_node2"><a xlink:href="../../d1/da1/doxygen_8h.html" target="_top" xlink:title="doxygen.h">
<polygon fill="white" stroke="black" points="268,-280.5 268,-299.5 330,-299.5 330,-280.5 268,-280.5"/>
<text text-anchor="middle" x="299" y="-287.5" font-family="Helvetica,sans-Serif" font-size="10.00">doxygen.h</text>
</a>
</g>
</g>
<!-- Node0&#45;&gt;Node1 -->
<g id="edge1" class="edge"><title>Node0&#45;&gt;Node1</title>
<path fill="none" stroke="midnightblue" d="M299,-336.083C299,-329.006 299,-318.861 299,-309.986"/>
<polygon fill="midnightblue" stroke="midnightblue" points="302.5,-309.751 299,-299.751 295.5,-309.751 302.5,-309.751"/>
</g>
<!-- Node2 -->
<g id="node3" class="node"><title>Node2</title>
<polygon fill="white" stroke="#bfbfbf" points="0,-224.5 0,-243.5 68,-243.5 68,-224.5 0,-224.5"/>
<text text-anchor="middle" x="34" y="-231.5" font-family="Helvetica,sans-Serif" font-size="10.00">qdatetime.h</text>
</g>
<!-- Node1&#45;&gt;Node2 -->
<g id="edge2" class="edge"><title>Node1&#45;&gt;Node2</title>
<path fill="none" stroke="midnightblue" d="M267.737,-282.728C226.597,-274.46 151.769,-259.373 78.1667,-244.231"/>
<polygon fill="midnightblue" stroke="midnightblue" points="78.7639,-240.781 68.2635,-242.192 77.3521,-247.637 78.7639,-240.781"/>
</g>
<!-- Node3 -->
<g id="node4" class="node"><title>Node3</title>
<polygon fill="white" stroke="#bfbfbf" points="86,-224.5 86,-243.5 142,-243.5 142,-224.5 86,-224.5"/>
<text text-anchor="middle" x="114" y="-231.5" font-family="Helvetica,sans-Serif" font-size="10.00">qcache.h</text>
</g>
<!-- Node1&#45;&gt;Node3 -->
<g id="edge3" class="edge"><title>Node1&#45;&gt;Node3</title>
<path fill="none" stroke="midnightblue" d="M269.686,-280.444C237.879,-271.159 186.98,-256.302 152.095,-246.12"/>
<polygon fill="midnightblue" stroke="midnightblue" points="152.847,-242.693 142.267,-243.251 150.885,-249.413 152.847,-242.693"/>
</g>
<!-- Node4 -->
<g id="node5" class="node"><title>Node4</title>
<polygon fill="white" stroke="#bfbfbf" points="160,-224.5 160,-243.5 214,-243.5 214,-224.5 160,-224.5"/>
<text text-anchor="middle" x="187" y="-231.5" font-family="Helvetica,sans-Serif" font-size="10.00">qstrlist.h</text>
</g>
<!-- Node1&#45;&gt;Node4 -->
<g id="edge4" class="edge"><title>Node1&#45;&gt;Node4</title>
<path fill="none" stroke="midnightblue" d="M281.005,-280.324C262.962,-271.625 234.953,-258.12 214.197,-248.113"/>
<polygon fill="midnightblue" stroke="midnightblue" points="215.478,-244.845 204.95,-243.655 212.438,-251.15 215.478,-244.845"/>
</g>
<!-- Node5 -->
<g id="node6" class="node"><title>Node5</title>
<polygon fill="white" stroke="#bfbfbf" points="325,-56.5 325,-75.5 371,-75.5 371,-56.5 325,-56.5"/>
<text text-anchor="middle" x="348" y="-63.5" font-family="Helvetica,sans-Serif" font-size="10.00">qdict.h</text>
</g>
<!-- Node1&#45;&gt;Node5 -->
<g id="edge5" class="edge"><title>Node1&#45;&gt;Node5</title>
<path fill="none" stroke="midnightblue" d="M297.709,-280.479C294.099,-254.208 285.689,-172.575 310,-112 314.399,-101.039 322.564,-90.8091 330.201,-82.8811"/>
<polygon fill="midnightblue" stroke="midnightblue" points="332.775,-85.2601 337.503,-75.7788 327.894,-80.2421 332.775,-85.2601"/>
</g>
<!-- Node6 -->
<g id="node7" class="node"><title>Node6</title>
<polygon fill="white" stroke="#bfbfbf" points="233,-56.5 233,-75.5 289,-75.5 289,-56.5 233,-56.5"/>
<text text-anchor="middle" x="261" y="-63.5" font-family="Helvetica,sans-Serif" font-size="10.00">qintdict.h</text>
</g>
<!-- Node1&#45;&gt;Node6 -->
<g id="edge6" class="edge"><title>Node1&#45;&gt;Node6</title>
<path fill="none" stroke="midnightblue" d="M290.073,-280.309C282.086,-271.879 270.904,-258.295 266,-244 247.171,-189.117 253.389,-118.947 257.955,-85.8658"/>
<polygon fill="midnightblue" stroke="midnightblue" points="261.443,-86.2044 259.458,-75.7973 254.52,-85.1711 261.443,-86.2044"/>
</g>
<!-- Node7 -->
<g id="node8" class="node"><title>Node7</title>
<g id="a_node8"><a xlink:href="../../df/d83/ftextstream_8h.html" target="_top" xlink:title="ftextstream.h">
<polygon fill="white" stroke="black" points="893,-224.5 893,-243.5 967,-243.5 967,-224.5 893,-224.5"/>
<text text-anchor="middle" x="930" y="-231.5" font-family="Helvetica,sans-Serif" font-size="10.00">ftextstream.h</text>
</a>
</g>
</g>
<!-- Node1&#45;&gt;Node7 -->
<g id="edge7" class="edge"><title>Node1&#45;&gt;Node7</title>
<path fill="none" stroke="midnightblue" d="M330.291,-286.322C432.865,-277.544 759.394,-249.6 882.459,-239.068"/>
<polygon fill="midnightblue" stroke="midnightblue" points="883.025,-242.533 892.69,-238.193 882.428,-235.558 883.025,-242.533"/>
</g>
<!-- Node12 -->
<g id="node13" class="node"><title>Node12</title>
<g id="a_node13"><a xlink:href="../../d9/d21/sortdict_8h.html" target="_top" xlink:title="sortdict.h">
<polygon fill="white" stroke="black" points="319.5,-112.5 319.5,-131.5 376.5,-131.5 376.5,-112.5 319.5,-112.5"/>
<text text-anchor="middle" x="348" y="-119.5" font-family="Helvetica,sans-Serif" font-size="10.00">sortdict.h</text>
</a>
</g>
</g>
<!-- Node1&#45;&gt;Node12 -->
<g id="edge12" class="edge"><title>Node1&#45;&gt;Node12</title>
<path fill="none" stroke="midnightblue" d="M301.634,-280.075C309.347,-253.945 331.998,-177.211 342.516,-141.577"/>
<polygon fill="midnightblue" stroke="midnightblue" points="345.997,-142.15 345.471,-131.568 339.283,-140.168 345.997,-142.15"/>
</g>
<!-- Node14 -->
<g id="node15" class="node"><title>Node14</title>
<g id="a_node15"><a xlink:href="../../d9/d11/membergroup_8h.html" target="_top" xlink:title="membergroup.h">
<polygon fill="white" stroke="black" points="451,-168.5 451,-187.5 535,-187.5 535,-168.5 451,-168.5"/>
<text text-anchor="middle" x="493" y="-175.5" font-family="Helvetica,sans-Serif" font-size="10.00">membergroup.h</text>
</a>
</g>
</g>
<!-- Node1&#45;&gt;Node14 -->
<g id="edge16" class="edge"><title>Node1&#45;&gt;Node14</title>
<path fill="none" stroke="midnightblue" d="M314.223,-280.368C347.797,-261.332 428.424,-215.615 468.926,-192.65"/>
<polygon fill="midnightblue" stroke="midnightblue" points="470.875,-195.568 477.848,-187.591 467.423,-189.479 470.875,-195.568"/>
</g>
<!-- Node17 -->
<g id="node18" class="node"><title>Node17</title>
<g id="a_node18"><a xlink:href="../../d6/d15/dirdef_8h.html" target="_top" xlink:title="dirdef.h">
<polygon fill="white" stroke="black" points="384.5,-168.5 384.5,-187.5 433.5,-187.5 433.5,-168.5 384.5,-168.5"/>
<text text-anchor="middle" x="409" y="-175.5" font-family="Helvetica,sans-Serif" font-size="10.00">dirdef.h</text>
</a>
</g>
</g>
<!-- Node1&#45;&gt;Node17 -->
<g id="edge21" class="edge"><title>Node1&#45;&gt;Node17</title>
<path fill="none" stroke="midnightblue" d="M307.632,-280.368C326.106,-261.894 369.707,-218.293 393.256,-194.744"/>
<polygon fill="midnightblue" stroke="midnightblue" points="395.812,-197.137 400.409,-187.591 390.863,-192.188 395.812,-197.137"/>
</g>
<!-- Node19 -->
<g id="node20" class="node"><title>Node19</title>
<g id="a_node20"><a xlink:href="../../dd/d78/memberlist_8h.html" target="_top" xlink:title="memberlist.h">
<polygon fill="white" stroke="black" points="526.5,-224.5 526.5,-243.5 599.5,-243.5 599.5,-224.5 526.5,-224.5"/>
<text text-anchor="middle" x="563" y="-231.5" font-family="Helvetica,sans-Serif" font-size="10.00">memberlist.h</text>
</a>
</g>
</g>
<!-- Node1&#45;&gt;Node19 -->
<g id="edge28" class="edge"><title>Node1&#45;&gt;Node19</title>
<path fill="none" stroke="midnightblue" d="M330.06,-282.647C376.03,-273.244 462.512,-255.554 516.188,-244.575"/>
<polygon fill="midnightblue" stroke="midnightblue" points="517.042,-247.973 526.137,-242.54 515.639,-241.115 517.042,-247.973"/>
</g>
<!-- Node8 -->
<g id="node9" class="node"><title>Node8</title>
<polygon fill="white" stroke="#bfbfbf" points="907,-168.5 907,-187.5 953,-187.5 953,-168.5 907,-168.5"/>
<text text-anchor="middle" x="930" y="-175.5" font-family="Helvetica,sans-Serif" font-size="10.00">stdio.h</text>
</g>
<!-- Node7&#45;&gt;Node8 -->
<g id="edge8" class="edge"><title>Node7&#45;&gt;Node8</title>
<path fill="none" stroke="midnightblue" d="M930,-224.083C930,-217.006 930,-206.861 930,-197.986"/>
<polygon fill="midnightblue" stroke="midnightblue" points="933.5,-197.751 930,-187.751 926.5,-197.751 933.5,-197.751"/>
</g>
<!-- Node9 -->
<g id="node10" class="node"><title>Node9</title>
<polygon fill="white" stroke="#bfbfbf" points="971,-168.5 971,-187.5 1037,-187.5 1037,-168.5 971,-168.5"/>
<text text-anchor="middle" x="1004" y="-175.5" font-family="Helvetica,sans-Serif" font-size="10.00">qiodevice.h</text>
</g>
<!-- Node7&#45;&gt;Node9 -->
<g id="edge9" class="edge"><title>Node7&#45;&gt;Node9</title>
<path fill="none" stroke="midnightblue" d="M941.889,-224.324C953.15,-216.107 970.287,-203.602 983.709,-193.807"/>
<polygon fill="midnightblue" stroke="midnightblue" points="985.88,-196.556 991.894,-187.834 981.753,-190.901 985.88,-196.556"/>
</g>
<!-- Node10 -->
<g id="node11" class="node"><title>Node10</title>
<polygon fill="white" stroke="#bfbfbf" points="1055,-168.5 1055,-187.5 1109,-187.5 1109,-168.5 1055,-168.5"/>
<text text-anchor="middle" x="1082" y="-175.5" font-family="Helvetica,sans-Serif" font-size="10.00">qstring.h</text>
</g>
<!-- Node7&#45;&gt;Node10 -->
<g id="edge10" class="edge"><title>Node7&#45;&gt;Node10</title>
<path fill="none" stroke="midnightblue" d="M954.085,-224.444C979.545,-215.399 1019.89,-201.064 1048.46,-190.916"/>
<polygon fill="midnightblue" stroke="midnightblue" points="1049.78,-194.162 1058.03,-187.516 1047.43,-187.566 1049.78,-194.162"/>
</g>
<!-- Node11 -->
<g id="node12" class="node"><title>Node11</title>
<polygon fill="white" stroke="#bfbfbf" points="829.5,-168.5 829.5,-187.5 888.5,-187.5 888.5,-168.5 829.5,-168.5"/>
<text text-anchor="middle" x="859" y="-175.5" font-family="Helvetica,sans-Serif" font-size="10.00">qgstring.h</text>
</g>
<!-- Node7&#45;&gt;Node11 -->
<g id="edge11" class="edge"><title>Node7&#45;&gt;Node11</title>
<path fill="none" stroke="midnightblue" d="M918.593,-224.324C907.891,-216.185 891.659,-203.839 878.837,-194.087"/>
<polygon fill="midnightblue" stroke="midnightblue" points="880.693,-191.102 870.615,-187.834 876.456,-196.673 880.693,-191.102"/>
</g>
<!-- Node12&#45;&gt;Node5 -->
<g id="edge14" class="edge"><title>Node12&#45;&gt;Node5</title>
<path fill="none" stroke="midnightblue" d="M348,-112.083C348,-105.006 348,-94.8611 348,-85.9865"/>
<polygon fill="midnightblue" stroke="midnightblue" points="351.5,-85.751 348,-75.7511 344.5,-85.7511 351.5,-85.751"/>
</g>
<!-- Node12&#45;&gt;Node6 -->
<g id="edge15" class="edge"><title>Node12&#45;&gt;Node6</title>
<path fill="none" stroke="midnightblue" d="M334.022,-112.324C320.45,-103.9 299.62,-90.9709 283.675,-81.0741"/>
<polygon fill="midnightblue" stroke="midnightblue" points="285.286,-77.9544 274.943,-75.6545 281.594,-83.9019 285.286,-77.9544"/>
</g>
<!-- Node13 -->
<g id="node14" class="node"><title>Node13</title>
<polygon fill="white" stroke="#bfbfbf" points="451.5,-56.5 451.5,-75.5 494.5,-75.5 494.5,-56.5 451.5,-56.5"/>
<text text-anchor="middle" x="473" y="-63.5" font-family="Helvetica,sans-Serif" font-size="10.00">qlist.h</text>
</g>
<!-- Node12&#45;&gt;Node13 -->
<g id="edge13" class="edge"><title>Node12&#45;&gt;Node13</title>
<path fill="none" stroke="midnightblue" d="M367.807,-112.444C388.287,-103.596 420.483,-89.6875 443.865,-79.5865"/>
<polygon fill="midnightblue" stroke="midnightblue" points="445.494,-82.6953 453.286,-75.5164 442.718,-76.2692 445.494,-82.6953"/>
</g>
<!-- Node14&#45;&gt;Node12 -->
<g id="edge18" class="edge"><title>Node14&#45;&gt;Node12</title>
<path fill="none" stroke="midnightblue" d="M470.024,-168.444C445.843,-159.438 407.582,-145.189 380.354,-135.049"/>
<polygon fill="midnightblue" stroke="midnightblue" points="381.461,-131.727 370.868,-131.516 379.018,-138.286 381.461,-131.727"/>
</g>
<!-- Node14&#45;&gt;Node13 -->
<g id="edge17" class="edge"><title>Node14&#45;&gt;Node13</title>
<path fill="none" stroke="midnightblue" d="M484.517,-168.234C476.946,-159.75 466.396,-146.131 462,-132 457.171,-116.478 461.086,-98.1717 465.53,-84.9484"/>
<polygon fill="midnightblue" stroke="midnightblue" points="468.807,-86.1757 469.049,-75.5836 462.255,-83.7131 468.807,-86.1757"/>
</g>
<!-- Node15 -->
<g id="node16" class="node"><title>Node15</title>
<g id="a_node16"><a xlink:href="../../d9/d49/types_8h.html" target="_top" xlink:title="This file contains a number of basic enums and types. ">
<polygon fill="white" stroke="black" points="614.5,-56.5 614.5,-75.5 663.5,-75.5 663.5,-56.5 614.5,-56.5"/>
<text text-anchor="middle" x="639" y="-63.5" font-family="Helvetica,sans-Serif" font-size="10.00">types.h</text>
</a>
</g>
</g>
<!-- Node14&#45;&gt;Node15 -->
<g id="edge19" class="edge"><title>Node14&#45;&gt;Node15</title>
<path fill="none" stroke="midnightblue" d="M504.456,-168.368C529.297,-149.653 588.363,-105.151 619.313,-81.8324"/>
<polygon fill="midnightblue" stroke="midnightblue" points="621.716,-84.4044 627.597,-75.5914 617.504,-78.8135 621.716,-84.4044"/>
</g>
<!-- Node16 -->
<g id="node17" class="node"><title>Node16</title>
<polygon fill="white" stroke="#bfbfbf" points="609.5,-0.5 609.5,-19.5 668.5,-19.5 668.5,-0.5 609.5,-0.5"/>
<text text-anchor="middle" x="639" y="-7.5" font-family="Helvetica,sans-Serif" font-size="10.00">qcstring.h</text>
</g>
<!-- Node15&#45;&gt;Node16 -->
<g id="edge20" class="edge"><title>Node15&#45;&gt;Node16</title>
<path fill="none" stroke="midnightblue" d="M639,-56.083C639,-49.0059 639,-38.8611 639,-29.9865"/>
<polygon fill="midnightblue" stroke="midnightblue" points="642.5,-29.751 639,-19.7511 635.5,-29.7511 642.5,-29.751"/>
</g>
<!-- Node17&#45;&gt;Node12 -->
<g id="edge22" class="edge"><title>Node17&#45;&gt;Node12</title>
<path fill="none" stroke="midnightblue" d="M399.199,-168.324C390.182,-160.341 376.594,-148.313 365.682,-138.653"/>
<polygon fill="midnightblue" stroke="midnightblue" points="367.787,-135.842 357.979,-131.834 363.147,-141.083 367.787,-135.842"/>
</g>
<!-- Node17&#45;&gt;Node13 -->
<g id="edge27" class="edge"><title>Node17&#45;&gt;Node13</title>
<path fill="none" stroke="midnightblue" d="M414.022,-168.368C424.537,-150.296 449.043,-108.176 462.93,-84.3074"/>
<polygon fill="midnightblue" stroke="midnightblue" points="465.998,-85.9951 468.001,-75.5914 459.947,-82.4748 465.998,-85.9951"/>
</g>
<!-- Node18 -->
<g id="node19" class="node"><title>Node18</title>
<g id="a_node19"><a xlink:href="../../df/da1/definition_8h.html" target="_top" xlink:title="definition.h">
<polygon fill="white" stroke="black" points="471,-112.5 471,-131.5 535,-131.5 535,-112.5 471,-112.5"/>
<text text-anchor="middle" x="503" y="-119.5" font-family="Helvetica,sans-Serif" font-size="10.00">definition.h</text>
</a>
</g>
</g>
<!-- Node17&#45;&gt;Node18 -->
<g id="edge23" class="edge"><title>Node17&#45;&gt;Node18</title>
<path fill="none" stroke="midnightblue" d="M424.103,-168.324C438.903,-159.822 461.694,-146.729 478.982,-136.797"/>
<polygon fill="midnightblue" stroke="midnightblue" points="481.007,-139.671 487.935,-131.655 477.52,-133.601 481.007,-139.671"/>
</g>
<!-- Node18&#45;&gt;Node5 -->
<g id="edge25" class="edge"><title>Node18&#45;&gt;Node5</title>
<path fill="none" stroke="midnightblue" d="M478.44,-112.444C452.172,-103.292 410.362,-88.726 381.18,-78.5594"/>
<polygon fill="midnightblue" stroke="midnightblue" points="382.026,-75.1478 371.431,-75.1629 379.723,-81.7581 382.026,-75.1478"/>
</g>
<!-- Node18&#45;&gt;Node13 -->
<g id="edge24" class="edge"><title>Node18&#45;&gt;Node13</title>
<path fill="none" stroke="midnightblue" d="M498.046,-112.083C493.896,-104.613 487.847,-93.7244 482.733,-84.5199"/>
<polygon fill="midnightblue" stroke="midnightblue" points="485.778,-82.7929 477.862,-75.7511 479.659,-86.1924 485.778,-82.7929"/>
</g>
<!-- Node18&#45;&gt;Node15 -->
<g id="edge26" class="edge"><title>Node18&#45;&gt;Node15</title>
<path fill="none" stroke="midnightblue" d="M524.55,-112.444C547.031,-103.517 582.488,-89.4387 607.98,-79.3168"/>
<polygon fill="midnightblue" stroke="midnightblue" points="609.549,-82.4598 617.551,-75.5164 606.965,-75.9539 609.549,-82.4598"/>
</g>
<!-- Node19&#45;&gt;Node12 -->
<g id="edge35" class="edge"><title>Node19&#45;&gt;Node12</title>
<path fill="none" stroke="midnightblue" d="M526.467,-233.661C485.06,-232.482 417.776,-224.473 375,-188 361.218,-176.249 354.344,-156.316 350.999,-141.615"/>
<polygon fill="midnightblue" stroke="midnightblue" points="354.401,-140.772 349.073,-131.614 347.527,-142.096 354.401,-140.772"/>
</g>
<!-- Node19&#45;&gt;Node13 -->
<g id="edge29" class="edge"><title>Node19&#45;&gt;Node13</title>
<path fill="none" stroke="midnightblue" d="M563.94,-224.229C565.755,-203.027 567.686,-148.088 544,-112 534.41,-97.388 518.253,-86.5989 503.773,-79.2538"/>
<polygon fill="midnightblue" stroke="midnightblue" points="505.123,-76.0208 494.585,-74.9188 502.136,-82.3515 505.123,-76.0208"/>
</g>
<!-- Node19&#45;&gt;Node15 -->
<g id="edge36" class="edge"><title>Node19&#45;&gt;Node15</title>
<path fill="none" stroke="midnightblue" d="M599.914,-228.769C651.871,-220.555 744.421,-197.086 782,-132 806.887,-88.8948 723.599,-74.2139 673.734,-69.3374"/>
<polygon fill="midnightblue" stroke="midnightblue" points="673.923,-65.8404 663.652,-68.4389 673.302,-72.8128 673.923,-65.8404"/>
</g>
<!-- Node20 -->
<g id="node21" class="node"><title>Node20</title>
<g id="a_node21"><a xlink:href="../../d4/d46/memberdef_8h.html" target="_top" xlink:title="memberdef.h">
<polygon fill="white" stroke="black" points="602,-168.5 602,-187.5 676,-187.5 676,-168.5 602,-168.5"/>
<text text-anchor="middle" x="639" y="-175.5" font-family="Helvetica,sans-Serif" font-size="10.00">memberdef.h</text>
</a>
</g>
</g>
<!-- Node19&#45;&gt;Node20 -->
<g id="edge30" class="edge"><title>Node19&#45;&gt;Node20</title>
<path fill="none" stroke="midnightblue" d="M575.211,-224.324C586.776,-216.107 604.375,-203.602 618.161,-193.807"/>
<polygon fill="midnightblue" stroke="midnightblue" points="620.443,-196.479 626.567,-187.834 616.388,-190.773 620.443,-196.479"/>
</g>
<!-- Node20&#45;&gt;Node13 -->
<g id="edge31" class="edge"><title>Node20&#45;&gt;Node13</title>
<path fill="none" stroke="midnightblue" d="M632.632,-168.361C622.271,-154.808 600.541,-128.408 577,-112 554.567,-96.3651 525.838,-84.4428 504.261,-76.8105"/>
<polygon fill="midnightblue" stroke="midnightblue" points="505.195,-73.4313 494.601,-73.5094 502.932,-80.0552 505.195,-73.4313"/>
</g>
<!-- Node20&#45;&gt;Node15 -->
<g id="edge33" class="edge"><title>Node20&#45;&gt;Node15</title>
<path fill="none" stroke="midnightblue" d="M642.6,-168.222C646.056,-159.285 651.033,-144.942 653,-132 655.412,-116.13 651.072,-98.3209 646.604,-85.3629"/>
<polygon fill="midnightblue" stroke="midnightblue" points="649.785,-83.8778 642.967,-75.768 643.239,-86.3594 649.785,-83.8778"/>
</g>
<!-- Node20&#45;&gt;Node18 -->
<g id="edge34" class="edge"><title>Node20&#45;&gt;Node18</title>
<path fill="none" stroke="midnightblue" d="M617.45,-168.444C594.969,-159.517 559.512,-145.439 534.02,-135.317"/>
<polygon fill="midnightblue" stroke="midnightblue" points="535.035,-131.954 524.449,-131.516 532.451,-138.46 535.035,-131.954"/>
</g>
<!-- Node21 -->
<g id="node22" class="node"><title>Node21</title>
<polygon fill="white" stroke="#bfbfbf" points="705,-112.5 705,-131.5 773,-131.5 773,-112.5 705,-112.5"/>
<text text-anchor="middle" x="739" y="-119.5" font-family="Helvetica,sans-Serif" font-size="10.00">sys/types.h</text>
</g>
<!-- Node20&#45;&gt;Node21 -->
<g id="edge32" class="edge"><title>Node20&#45;&gt;Node21</title>
<path fill="none" stroke="midnightblue" d="M655.067,-168.324C670.958,-159.743 695.507,-146.486 713.958,-136.522"/>
<polygon fill="midnightblue" stroke="midnightblue" points="715.837,-139.486 722.973,-131.655 712.511,-133.326 715.837,-139.486"/>
</g>
</g>
</svg>
        <g id="navigator" transform="translate(0 0)" fill="#404254">
                <rect fill="#f2f5e9" fill-opacity="0.5" stroke="#606060" stroke-width=".5" x="0" y="0" width="60" height="60"/>
                <use id="zoomplus" xlink:href="#zoomPlus" x="17" y="9" onmousedown="handleZoom(evt,'in')"/>
                <use id="zoomminus" xlink:href="#zoomMin" x="42" y="9" onmousedown="handleZoom(evt,'out')"/>
                <use id="reset" xlink:href="#resetDef" x="30" y="36" onmousedown="handleReset()"/>
                <g id="arrowUp" xlink:href="#dirArrow" transform="translate(30 24)" onmousedown="handlePan(0,-1)">
                  <use xlink:href="#rim" fill="#404040">
                        <set attributeName="fill" to="#808080" begin="arrowUp.mouseover" end="arrowUp.mouseout"/>
                  </use>
                  <path fill="none" stroke="white" stroke-width="1.5" d="M0,-3.0v7 M-2.5,-0.5L0,-3.0L2.5,-0.5"/>
                </g>
                <g id="arrowRight" xlink:href="#dirArrow" transform="rotate(90) translate(36 -43)" onmousedown="handlePan(1,0)">
                  <use xlink:href="#rim" fill="#404040">
                        <set attributeName="fill" to="#808080" begin="arrowRight.mouseover" end="arrowRight.mouseout"/>
                  </use>
                  <path fill="none" stroke="white" stroke-width="1.5" d="M0,-3.0v7 M-2.5,-0.5L0,-3.0L2.5,-0.5"/>
                </g>
                <g id="arrowDown" xlink:href="#dirArrow" transform="rotate(180) translate(-30 -48)" onmousedown="handlePan(0,1)">
                  <use xlink:href="#rim" fill="#404040">
                        <set attributeName="fill" to="#808080" begin="arrowDown.mouseover" end="arrowDown.mouseout"/>
                  </use>
                  <path fill="none" stroke="white" stroke-width="1.5" d="M0,-3.0v7 M-2.5,-0.5L0,-3.0L2.5,-0.5"/>
                </g>
                <g id="arrowLeft" xlink:href="#dirArrow" transform="rotate(270) translate(-36 17)" onmousedown="handlePan(-1,0)">
                  <use xlink:href="#rim" fill="#404040">
                        <set attributeName="fill" to="#808080" begin="arrowLeft.mouseover" end="arrowLeft.mouseout"/>
                  </use>
                  <path fill="none" stroke="white" stroke-width="1.5" d="M0,-3.0v7 M-2.5,-0.5L0,-3.0L2.5,-0.5"/>
                </g>
        </g>
        <svg viewBox="0 0 15 15" width="100%" height="30px" preserveAspectRatio="xMaxYMin meet">
         <g id="arrow_out" transform="scale(0.3 0.3)">
          <a xlink:href="main_8cpp__incl_org.svg" target="_base">
           <rect id="button" ry="5" rx="5" y="6" x="6" height="38" width="38"
                fill="#f2f5e9" fill-opacity="0.5" stroke="#606060" stroke-width="1.0"/>
           <path id="arrow"
             d="M 11.500037,31.436501 C 11.940474,20.09759 22.043105,11.32322 32.158766,21.979434 L 37.068811,17.246167 C 37.068811,17.246167 37.088388,32 37.088388,32 L 22.160133,31.978069 C 22.160133,31.978069 26.997745,27.140456 26.997745,27.140456 C 18.528582,18.264221 13.291696,25.230495 11.500037,31.436501 z"
             style="fill:#404040;"/>
          </a>
         </g>
        </svg>
</svg>
