<?xml version="1.0" encoding="UTF-8" standalone="no"?>
<!DOCTYPE svg PUBLIC "-//W3C//DTD SVG 1.1//EN"
 "http://www.w3.org/Graphics/SVG/1.1/DTD/svg11.dtd">
<!-- Generated by graphviz version 2.38.0 (20140413.2041)
 -->
<!-- Title: src/template.h Pages: 1 -->
<svg width="247pt" height="140pt"
 viewBox="0.00 0.00 246.50 140.00" xmlns="http://www.w3.org/2000/svg" xmlns:xlink="http://www.w3.org/1999/xlink">
<g id="graph0" class="graph" transform="scale(1 1) rotate(0) translate(4 136)">
<title>src/template.h</title>
<polygon fill="white" stroke="none" points="-4,4 -4,-136 242.5,-136 242.5,4 -4,4"/>
<!-- Node3 -->
<g id="node1" class="node"><title>Node3</title>
<polygon fill="#bfbfbf" stroke="black" points="104.5,-112.5 104.5,-131.5 183.5,-131.5 183.5,-112.5 104.5,-112.5"/>
<text text-anchor="middle" x="144" y="-119.5" font-family="Helvetica,sans-Serif" font-size="10.00">src/template.h</text>
</g>
<!-- Node4 -->
<g id="node2" class="node"><title>Node4</title>
<g id="a_node2"><a xlink:href="../../dc/d1e/context_8h.html" target="_top" xlink:title="src/context.h">
<polygon fill="white" stroke="black" points="57,-56.5 57,-75.5 131,-75.5 131,-56.5 57,-56.5"/>
<text text-anchor="middle" x="94" y="-63.5" font-family="Helvetica,sans-Serif" font-size="10.00">src/context.h</text>
</a>
</g>
</g>
<!-- Node3&#45;&gt;Node4 -->
<g id="edge1" class="edge"><title>Node3&#45;&gt;Node4</title>
<path fill="none" stroke="midnightblue" d="M128.924,-104.718C120.111,-95.1997 109.334,-83.5608 102.103,-75.7511"/>
<polygon fill="midnightblue" stroke="midnightblue" points="126.381,-107.123 135.744,-112.083 131.518,-102.367 126.381,-107.123"/>
</g>
<!-- Node7 -->
<g id="node5" class="node"><title>Node7</title>
<g id="a_node5"><a xlink:href="../../df/d54/template_8cpp.html" target="_top" xlink:title="src/template.cpp">
<polygon fill="white" stroke="black" points="149.5,-56.5 149.5,-75.5 238.5,-75.5 238.5,-56.5 149.5,-56.5"/>
<text text-anchor="middle" x="194" y="-63.5" font-family="Helvetica,sans-Serif" font-size="10.00">src/template.cpp</text>
</a>
</g>
</g>
<!-- Node3&#45;&gt;Node7 -->
<g id="edge4" class="edge"><title>Node3&#45;&gt;Node7</title>
<path fill="none" stroke="midnightblue" d="M159.076,-104.718C167.889,-95.1997 178.666,-83.5608 185.897,-75.7511"/>
<polygon fill="midnightblue" stroke="midnightblue" points="156.482,-102.367 152.256,-112.083 161.619,-107.123 156.482,-102.367"/>
</g>
<!-- Node5 -->
<g id="node3" class="node"><title>Node5</title>
<g id="a_node3"><a xlink:href="../../db/d12/context_8cpp.html" target="_top" xlink:title="src/context.cpp">
<polygon fill="white" stroke="black" points="0,-0.5 0,-19.5 84,-19.5 84,-0.5 0,-0.5"/>
<text text-anchor="middle" x="42" y="-7.5" font-family="Helvetica,sans-Serif" font-size="10.00">src/context.cpp</text>
</a>
</g>
</g>
<!-- Node4&#45;&gt;Node5 -->
<g id="edge2" class="edge"><title>Node4&#45;&gt;Node5</title>
<path fill="none" stroke="midnightblue" d="M78.3206,-48.7175C69.1553,-39.1997 57.9474,-27.5608 50.427,-19.7511"/>
<polygon fill="midnightblue" stroke="midnightblue" points="75.9557,-51.3075 85.4133,-56.083 80.9979,-46.452 75.9557,-51.3075"/>
</g>
<!-- Node6 -->
<g id="node4" class="node"><title>Node6</title>
<g id="a_node4"><a xlink:href="../../dc/d98/doxygen_8cpp.html" target="_top" xlink:title="src/doxygen.cpp">
<polygon fill="white" stroke="black" points="101.5,-0.5 101.5,-19.5 190.5,-19.5 190.5,-0.5 101.5,-0.5"/>
<text text-anchor="middle" x="146" y="-7.5" font-family="Helvetica,sans-Serif" font-size="10.00">src/doxygen.cpp</text>
</a>
</g>
</g>
<!-- Node4&#45;&gt;Node6 -->
<g id="edge3" class="edge"><title>Node4&#45;&gt;Node6</title>
<path fill="none" stroke="midnightblue" d="M109.679,-48.7175C118.845,-39.1997 130.053,-27.5608 137.573,-19.7511"/>
<polygon fill="midnightblue" stroke="midnightblue" points="107.002,-46.452 102.587,-56.083 112.044,-51.3075 107.002,-46.452"/>
</g>
</g>
</svg>
