<?xml version="1.0" encoding="UTF-8" standalone="no"?>
<!DOCTYPE svg PUBLIC "-//W3C//DTD SVG 1.1//EN"
 "http://www.w3.org/Graphics/SVG/1.1/DTD/svg11.dtd">
<!-- Generated by graphviz version 2.38.0 (20140413.2041)
 -->
<!-- Title: DocAutoList Pages: 1 -->
<svg width="292pt" height="152pt"
 viewBox="0.00 0.00 292.00 152.00" xmlns="http://www.w3.org/2000/svg" xmlns:xlink="http://www.w3.org/1999/xlink">
<g id="graph0" class="graph" transform="scale(1 1) rotate(0) translate(4 148)">
<title>DocAutoList</title>
<polygon fill="white" stroke="none" points="-4,4 -4,-148 288,-148 288,4 -4,4"/>
<!-- Node4 -->
<g id="node1" class="node"><title>Node4</title>
<polygon fill="#bfbfbf" stroke="black" points="97.5,-0.5 97.5,-19.5 168.5,-19.5 168.5,-0.5 97.5,-0.5"/>
<text text-anchor="middle" x="133" y="-7.5" font-family="Helvetica,sans-Serif" font-size="10.00">DocAutoList</text>
</g>
<!-- Node5 -->
<g id="node2" class="node"><title>Node5</title>
<g id="a_node2"><a xlink:href="../../d7/da3/class_comp_accept.html" target="_top" xlink:title="CompAccept\&lt; DocAutoList \&gt;">
<polygon fill="white" stroke="black" points="0,-57.5 0,-76.5 146,-76.5 146,-57.5 0,-57.5"/>
<text text-anchor="middle" x="73" y="-64.5" font-family="Helvetica,sans-Serif" font-size="10.00">CompAccept&lt; DocAutoList &gt;</text>
</a>
</g>
</g>
<!-- Node5&#45;&gt;Node4 -->
<g id="edge1" class="edge"><title>Node5&#45;&gt;Node4</title>
<path fill="none" stroke="midnightblue" d="M90.0005,-50.4162C100.852,-40.469 114.517,-27.9431 123.493,-19.7149"/>
<polygon fill="midnightblue" stroke="midnightblue" points="87.3815,-48.0689 82.375,-57.4062 92.1116,-53.229 87.3815,-48.0689"/>
</g>
<!-- Node6 -->
<g id="node3" class="node"><title>Node6</title>
<g id="a_node3"><a xlink:href="../../d7/da3/class_comp_accept.html" target="_top" xlink:title="Default accept implementation for compound nodes in the abstract syntax tree. ">
<polygon fill="white" stroke="black" points="24,-124.5 24,-143.5 122,-143.5 122,-124.5 24,-124.5"/>
<text text-anchor="middle" x="73" y="-131.5" font-family="Helvetica,sans-Serif" font-size="10.00">CompAccept&lt; T &gt;</text>
</a>
</g>
</g>
<!-- Node6&#45;&gt;Node5 -->
<g id="edge2" class="edge"><title>Node6&#45;&gt;Node5</title>
<path fill="none" stroke="orange" stroke-dasharray="5,2" d="M73,-114.037C73,-101.67 73,-86.1198 73,-76.6273"/>
<polygon fill="orange" stroke="orange" points="69.5001,-114.234 73,-124.234 76.5001,-114.234 69.5001,-114.234"/>
<text text-anchor="middle" x="111" y="-98" font-family="Helvetica,sans-Serif" font-size="10.00"> &lt; DocAutoList &gt;</text>
</g>
<!-- Node7 -->
<g id="node4" class="node"><title>Node7</title>
<g id="a_node4"><a xlink:href="../../d9/d0e/class_doc_node.html" target="_top" xlink:title="Abstract node interface with type information. ">
<polygon fill="white" stroke="black" points="164,-57.5 164,-76.5 222,-76.5 222,-57.5 164,-57.5"/>
<text text-anchor="middle" x="193" y="-64.5" font-family="Helvetica,sans-Serif" font-size="10.00">DocNode</text>
</a>
</g>
</g>
<!-- Node7&#45;&gt;Node4 -->
<g id="edge3" class="edge"><title>Node7&#45;&gt;Node4</title>
<path fill="none" stroke="midnightblue" d="M175.999,-50.4162C165.148,-40.469 151.483,-27.9431 142.507,-19.7149"/>
<polygon fill="midnightblue" stroke="midnightblue" points="173.888,-53.229 183.625,-57.4062 178.618,-48.0689 173.888,-53.229"/>
</g>
<!-- Node7&#45;&gt;Node7 -->
<g id="edge4" class="edge"><title>Node7&#45;&gt;Node7</title>
<path fill="none" stroke="#9a32cd" stroke-dasharray="5,2" d="M232.603,-71.4489C237.091,-70.6158 240,-69.1328 240,-67 240,-63.5 232.167,-61.75 222.375,-61.75"/>
<polygon fill="#9a32cd" stroke="#9a32cd" points="232.071,-67.9798 222.375,-72.25 232.618,-74.9584 232.071,-67.9798"/>
<text text-anchor="middle" x="262" y="-64.5" font-family="Helvetica,sans-Serif" font-size="10.00"> m_parent</text>
</g>
</g>
</svg>
