<?xml version="1.0" encoding="UTF-8" standalone="no"?>
<!DOCTYPE svg PUBLIC "-//W3C//DTD SVG 1.1//EN"
 "http://www.w3.org/Graphics/SVG/1.1/DTD/svg11.dtd">
<!-- Generated by graphviz version 2.38.0 (20140413.2041)
 -->
<!-- Title: ClassMembersIndexContext::Private Pages: 1 -->
<svg width="1068pt" height="175pt"
 viewBox="0.00 0.00 1068.00 175.00" xmlns="http://www.w3.org/2000/svg" xmlns:xlink="http://www.w3.org/1999/xlink">
<g id="graph0" class="graph" transform="scale(1 1) rotate(0) translate(4 171)">
<title>ClassMembersIndexContext::Private</title>
<polygon fill="white" stroke="none" points="-4,4 -4,-171 1064,-171 1064,4 -4,4"/>
<!-- Node1 -->
<g id="node1" class="node"><title>Node1</title>
<polygon fill="#bfbfbf" stroke="black" points="919,-87 919,-117 1060,-117 1060,-87 919,-87"/>
<text text-anchor="start" x="927" y="-105" font-family="Helvetica,sans-Serif" font-size="10.00">ClassMembersIndexContext</text>
<text text-anchor="middle" x="989.5" y="-94" font-family="Helvetica,sans-Serif" font-size="10.00">::Private</text>
</g>
<!-- Node2 -->
<g id="node2" class="node"><title>Node2</title>
<g id="a_node2"><a xlink:href="../../d1/d80/class_property_mapper.html" target="_top" xlink:title="PropertyMapper\&lt; ClassMembers\lIndexContext::Private \&gt;">
<polygon fill="white" stroke="black" points="679,-117 679,-147 840,-147 840,-117 679,-117"/>
<text text-anchor="start" x="687" y="-135" font-family="Helvetica,sans-Serif" font-size="10.00">PropertyMapper&lt; ClassMembers</text>
<text text-anchor="middle" x="759.5" y="-124" font-family="Helvetica,sans-Serif" font-size="10.00">IndexContext::Private &gt;</text>
</a>
</g>
</g>
<!-- Node2&#45;&gt;Node1 -->
<g id="edge1" class="edge"><title>Node2&#45;&gt;Node1</title>
<path fill="none" stroke="#9a32cd" stroke-dasharray="5,2" d="M850.24,-120.192C872.984,-117.199 897.08,-114.029 918.674,-111.188"/>
<polygon fill="#9a32cd" stroke="#9a32cd" points="849.701,-116.733 840.243,-121.507 850.615,-123.673 849.701,-116.733"/>
<text text-anchor="middle" x="879.5" y="-121" font-family="Helvetica,sans-Serif" font-size="10.00"> s_inst</text>
</g>
<!-- Node3 -->
<g id="node3" class="node"><title>Node3</title>
<g id="a_node3"><a xlink:href="../../d1/d80/class_property_mapper.html" target="_top" xlink:title="Helper class to map a property name to a handler member function. ">
<polygon fill="white" stroke="black" points="384,-141.5 384,-160.5 494,-160.5 494,-141.5 384,-141.5"/>
<text text-anchor="middle" x="439" y="-148.5" font-family="Helvetica,sans-Serif" font-size="10.00">PropertyMapper&lt; T &gt;</text>
</a>
</g>
</g>
<!-- Node3&#45;&gt;Node2 -->
<g id="edge2" class="edge"><title>Node3&#45;&gt;Node2</title>
<path fill="none" stroke="orange" stroke-dasharray="5,2" d="M504.135,-147.174C554.47,-144.171 624.812,-139.975 678.769,-136.756"/>
<polygon fill="orange" stroke="orange" points="503.803,-143.688 494.029,-147.777 504.22,-150.675 503.803,-143.688"/>
<text text-anchor="start" x="524" y="-159" font-family="Helvetica,sans-Serif" font-size="10.00"> &lt; ClassMembersIndexContext</text>
<text text-anchor="middle" x="592.5" y="-148" font-family="Helvetica,sans-Serif" font-size="10.00">::Private &gt;</text>
</g>
<!-- Node4 -->
<g id="node4" class="node"><title>Node4</title>
<g id="a_node4"><a xlink:href="../../d2/d77/struct_class_members_index_context_1_1_private_1_1_cachable.html" target="_top" xlink:title="ClassMembersIndexContext\l::Private::Cachable">
<polygon fill="white" stroke="black" points="689,-50 689,-80 830,-80 830,-50 689,-50"/>
<text text-anchor="start" x="697" y="-68" font-family="Helvetica,sans-Serif" font-size="10.00">ClassMembersIndexContext</text>
<text text-anchor="middle" x="759.5" y="-57" font-family="Helvetica,sans-Serif" font-size="10.00">::Private::Cachable</text>
</a>
</g>
</g>
<!-- Node4&#45;&gt;Node1 -->
<g id="edge3" class="edge"><title>Node4&#45;&gt;Node1</title>
<path fill="none" stroke="#9a32cd" stroke-dasharray="5,2" d="M840.207,-77.935C865.845,-82.0955 894.034,-86.67 918.888,-90.7032"/>
<polygon fill="#9a32cd" stroke="#9a32cd" points="840.578,-74.4494 830.146,-76.3023 839.457,-81.359 840.578,-74.4494"/>
<text text-anchor="middle" x="879.5" y="-89" font-family="Helvetica,sans-Serif" font-size="10.00"> m_cache</text>
</g>
<!-- Node5 -->
<g id="node5" class="node"><title>Node5</title>
<g id="a_node5"><a xlink:href="../../df/d12/class_shared_ptr.html" target="_top" xlink:title="SharedPtr\&lt; TemplateList \&gt;">
<polygon fill="white" stroke="black" points="372,-19.5 372,-38.5 506,-38.5 506,-19.5 372,-19.5"/>
<text text-anchor="middle" x="439" y="-26.5" font-family="Helvetica,sans-Serif" font-size="10.00">SharedPtr&lt; TemplateList &gt;</text>
</a>
</g>
</g>
<!-- Node5&#45;&gt;Node4 -->
<g id="edge4" class="edge"><title>Node5&#45;&gt;Node4</title>
<path fill="none" stroke="#9a32cd" stroke-dasharray="5,2" d="M516.267,-26.0046C559.076,-25.5868 613.314,-27.1663 661,-35 680.224,-38.158 700.928,-44.141 718.292,-49.9382"/>
<polygon fill="#9a32cd" stroke="#9a32cd" points="516.152,-22.5057 506.2,-26.1413 516.247,-29.505 516.152,-22.5057"/>
<text text-anchor="middle" x="592.5" y="-126" font-family="Helvetica,sans-Serif" font-size="10.00"> events</text>
<text text-anchor="middle" x="592.5" y="-115" font-family="Helvetica,sans-Serif" font-size="10.00">related</text>
<text text-anchor="middle" x="592.5" y="-104" font-family="Helvetica,sans-Serif" font-size="10.00">typedefs</text>
<text text-anchor="middle" x="592.5" y="-93" font-family="Helvetica,sans-Serif" font-size="10.00">properties</text>
<text text-anchor="middle" x="592.5" y="-82" font-family="Helvetica,sans-Serif" font-size="10.00">enumValues</text>
<text text-anchor="middle" x="592.5" y="-71" font-family="Helvetica,sans-Serif" font-size="10.00">enums</text>
<text text-anchor="middle" x="592.5" y="-60" font-family="Helvetica,sans-Serif" font-size="10.00">all</text>
<text text-anchor="middle" x="592.5" y="-49" font-family="Helvetica,sans-Serif" font-size="10.00">variables</text>
<text text-anchor="middle" x="592.5" y="-38" font-family="Helvetica,sans-Serif" font-size="10.00">functions</text>
</g>
<!-- Node6 -->
<g id="node6" class="node"><title>Node6</title>
<g id="a_node6"><a xlink:href="../../de/dab/class_template_list.html" target="_top" xlink:title="Default implementation of a context value of type list. ">
<polygon fill="white" stroke="black" points="179.5,-38.5 179.5,-57.5 252.5,-57.5 252.5,-38.5 179.5,-38.5"/>
<text text-anchor="middle" x="216" y="-45.5" font-family="Helvetica,sans-Serif" font-size="10.00">TemplateList</text>
</a>
</g>
</g>
<!-- Node6&#45;&gt;Node5 -->
<g id="edge5" class="edge"><title>Node6&#45;&gt;Node5</title>
<path fill="none" stroke="#9a32cd" stroke-dasharray="5,2" d="M262.753,-44.0665C294.269,-41.357 336.641,-37.7141 371.826,-34.6892"/>
<polygon fill="#9a32cd" stroke="#9a32cd" points="262.171,-40.6035 252.507,-44.9473 262.771,-47.5778 262.171,-40.6035"/>
<text text-anchor="middle" x="315" y="-45" font-family="Helvetica,sans-Serif" font-size="10.00"> m_ptr</text>
</g>
<!-- Node7 -->
<g id="node7" class="node"><title>Node7</title>
<g id="a_node7"><a xlink:href="../../d6/d88/class_template_list_intf.html" target="_top" xlink:title="Abstract read&#45;only interface for a context value of type list. ">
<polygon fill="white" stroke="black" points="11.5,-76.5 11.5,-95.5 98.5,-95.5 98.5,-76.5 11.5,-76.5"/>
<text text-anchor="middle" x="55" y="-83.5" font-family="Helvetica,sans-Serif" font-size="10.00">TemplateListIntf</text>
</a>
</g>
</g>
<!-- Node7&#45;&gt;Node6 -->
<g id="edge6" class="edge"><title>Node7&#45;&gt;Node6</title>
<path fill="none" stroke="midnightblue" d="M108.258,-74.2184C123.652,-70.6834 140.519,-66.7478 156,-63 163.601,-61.1598 171.738,-59.1301 179.466,-57.1743"/>
<polygon fill="midnightblue" stroke="midnightblue" points="107.35,-70.8355 98.3827,-76.4776 108.911,-77.6592 107.35,-70.8355"/>
</g>
<!-- Node8 -->
<g id="node8" class="node"><title>Node8</title>
<g id="a_node8"><a xlink:href="../../d5/dee/class_template_list_1_1_private.html" target="_top" xlink:title="Private data of a template list object. ">
<polygon fill="white" stroke="black" points="0,-38.5 0,-57.5 110,-57.5 110,-38.5 0,-38.5"/>
<text text-anchor="middle" x="55" y="-45.5" font-family="Helvetica,sans-Serif" font-size="10.00">TemplateList::Private</text>
</a>
</g>
</g>
<!-- Node8&#45;&gt;Node6 -->
<g id="edge7" class="edge"><title>Node8&#45;&gt;Node6</title>
<path fill="none" stroke="#9a32cd" stroke-dasharray="5,2" d="M120.35,-48C140.51,-48 162.019,-48 179.43,-48"/>
<polygon fill="#9a32cd" stroke="#9a32cd" points="120.274,-44.5001 110.274,-48 120.274,-51.5001 120.274,-44.5001"/>
<text text-anchor="middle" x="142" y="-51" font-family="Helvetica,sans-Serif" font-size="10.00"> p</text>
</g>
<!-- Node9 -->
<g id="node9" class="node"><title>Node9</title>
<g id="a_node9"><a xlink:href="../../df/d12/class_shared_ptr.html" target="_top" xlink:title="Reference counting smart pointer. ">
<polygon fill="white" stroke="black" points="174,-0.5 174,-19.5 258,-19.5 258,-0.5 174,-0.5"/>
<text text-anchor="middle" x="216" y="-7.5" font-family="Helvetica,sans-Serif" font-size="10.00">SharedPtr&lt; T &gt;</text>
</a>
</g>
</g>
<!-- Node9&#45;&gt;Node5 -->
<g id="edge8" class="edge"><title>Node9&#45;&gt;Node5</title>
<path fill="none" stroke="orange" stroke-dasharray="5,2" d="M268.35,-13.9416C294.073,-15.9622 325.692,-18.5157 354,-21 359.837,-21.5123 365.901,-22.0598 371.978,-22.619"/>
<polygon fill="orange" stroke="orange" points="268.321,-10.4287 258.078,-13.1384 267.775,-17.4074 268.321,-10.4287"/>
<text text-anchor="middle" x="315" y="-24" font-family="Helvetica,sans-Serif" font-size="10.00"> &lt; TemplateList &gt;</text>
</g>
<!-- Node10 -->
<g id="node10" class="node"><title>Node10</title>
<polygon fill="white" stroke="#bfbfbf" points="40.5,-0.5 40.5,-19.5 69.5,-19.5 69.5,-0.5 40.5,-0.5"/>
<text text-anchor="middle" x="55" y="-7.5" font-family="Helvetica,sans-Serif" font-size="10.00">T</text>
</g>
<!-- Node10&#45;&gt;Node9 -->
<g id="edge9" class="edge"><title>Node10&#45;&gt;Node9</title>
<path fill="none" stroke="#9a32cd" stroke-dasharray="5,2" d="M79.8452,-10C104.647,-10 143.951,-10 173.795,-10"/>
<polygon fill="#9a32cd" stroke="#9a32cd" points="79.5563,-6.5001 69.5563,-10 79.5562,-13.5001 79.5563,-6.5001"/>
<text text-anchor="middle" x="142" y="-13" font-family="Helvetica,sans-Serif" font-size="10.00"> m_ptr</text>
</g>
</g>
</svg>
