<?xml version="1.0" encoding="UTF-8" standalone="no"?>
<!DOCTYPE svg PUBLIC "-//W3C//DTD SVG 1.1//EN"
 "http://www.w3.org/Graphics/SVG/1.1/DTD/svg11.dtd">
<!-- Generated by graphviz version 2.38.0 (20140413.2041)
 -->
<!-- Title: src/reflist.cpp Pages: 1 -->
<svg width="733pt" height="252pt"
 viewBox="0.00 0.00 733.28 252.00" xmlns="http://www.w3.org/2000/svg" xmlns:xlink="http://www.w3.org/1999/xlink">
<g id="graph0" class="graph" transform="scale(1 1) rotate(0) translate(4 248)">
<title>src/reflist.cpp</title>
<polygon fill="white" stroke="none" points="-4,4 -4,-248 729.275,-248 729.275,4 -4,4"/>
<!-- Node0 -->
<g id="node1" class="node"><title>Node0</title>
<polygon fill="#bfbfbf" stroke="black" points="262.108,-224.5 262.108,-243.5 338.108,-243.5 338.108,-224.5 262.108,-224.5"/>
<text text-anchor="middle" x="300.108" y="-231.5" font-family="Helvetica,sans-Serif" font-size="10.00">src/reflist.cpp</text>
</g>
<!-- Node1 -->
<g id="node2" class="node"><title>Node1</title>
<polygon fill="white" stroke="#bfbfbf" points="583.108,-56.5 583.108,-75.5 629.108,-75.5 629.108,-56.5 583.108,-56.5"/>
<text text-anchor="middle" x="606.108" y="-63.5" font-family="Helvetica,sans-Serif" font-size="10.00">stdio.h</text>
</g>
<!-- Node0&#45;&gt;Node1 -->
<g id="edge1" class="edge"><title>Node0&#45;&gt;Node1</title>
<path fill="none" stroke="midnightblue" d="M338.263,-230.096C433.346,-221.947 676.346,-195.198 720.108,-132 742.945,-99.0197 680.437,-80.6575 639.181,-72.4068"/>
<polygon fill="midnightblue" stroke="midnightblue" points="639.691,-68.9413 629.215,-70.5242 638.392,-75.8196 639.691,-68.9413"/>
</g>
<!-- Node2 -->
<g id="node3" class="node"><title>Node2</title>
<g id="a_node3"><a xlink:href="../../d1/d02/reflist_8h.html" target="_top" xlink:title="reflist.h">
<polygon fill="white" stroke="black" points="40.608,-168.5 40.608,-187.5 89.608,-187.5 89.608,-168.5 40.608,-168.5"/>
<text text-anchor="middle" x="65.108" y="-175.5" font-family="Helvetica,sans-Serif" font-size="10.00">reflist.h</text>
</a>
</g>
</g>
<!-- Node0&#45;&gt;Node2 -->
<g id="edge2" class="edge"><title>Node0&#45;&gt;Node2</title>
<path fill="none" stroke="midnightblue" d="M262.872,-224.444C218.06,-214.147 143.416,-196.994 99.7803,-186.967"/>
<polygon fill="midnightblue" stroke="midnightblue" points="100.445,-183.529 89.915,-184.7 98.8772,-190.351 100.445,-183.529"/>
</g>
<!-- Node7 -->
<g id="node8" class="node"><title>Node7</title>
<g id="a_node8"><a xlink:href="../../d8/d3c/util_8h.html" target="_top" xlink:title="A bunch of utility functions. ">
<polygon fill="white" stroke="black" points="281.108,-168.5 281.108,-187.5 319.108,-187.5 319.108,-168.5 281.108,-168.5"/>
<text text-anchor="middle" x="300.108" y="-175.5" font-family="Helvetica,sans-Serif" font-size="10.00">util.h</text>
</a>
</g>
</g>
<!-- Node0&#45;&gt;Node7 -->
<g id="edge9" class="edge"><title>Node0&#45;&gt;Node7</title>
<path fill="none" stroke="midnightblue" d="M300.108,-224.083C300.108,-217.006 300.108,-206.861 300.108,-197.986"/>
<polygon fill="midnightblue" stroke="midnightblue" points="303.608,-197.751 300.108,-187.751 296.608,-197.751 303.608,-197.751"/>
</g>
<!-- Node14 -->
<g id="node15" class="node"><title>Node14</title>
<g id="a_node15"><a xlink:href="../../df/d83/ftextstream_8h.html" target="_top" xlink:title="ftextstream.h">
<polygon fill="white" stroke="black" points="488.108,-168.5 488.108,-187.5 562.108,-187.5 562.108,-168.5 488.108,-168.5"/>
<text text-anchor="middle" x="525.108" y="-175.5" font-family="Helvetica,sans-Serif" font-size="10.00">ftextstream.h</text>
</a>
</g>
</g>
<!-- Node0&#45;&gt;Node14 -->
<g id="edge23" class="edge"><title>Node0&#45;&gt;Node14</title>
<path fill="none" stroke="midnightblue" d="M335.76,-224.444C374.764,-215.083 437.374,-200.056 479.825,-189.868"/>
<polygon fill="midnightblue" stroke="midnightblue" points="480.716,-193.254 489.623,-187.516 479.082,-186.447 480.716,-193.254"/>
</g>
<!-- Node18 -->
<g id="node19" class="node"><title>Node18</title>
<g id="a_node19"><a xlink:href="../../df/da1/definition_8h.html" target="_top" xlink:title="definition.h">
<polygon fill="white" stroke="black" points="140.108,-112.5 140.108,-131.5 204.108,-131.5 204.108,-112.5 140.108,-112.5"/>
<text text-anchor="middle" x="172.108" y="-119.5" font-family="Helvetica,sans-Serif" font-size="10.00">definition.h</text>
</a>
</g>
</g>
<!-- Node0&#45;&gt;Node18 -->
<g id="edge28" class="edge"><title>Node0&#45;&gt;Node18</title>
<path fill="none" stroke="midnightblue" d="M290.064,-224.368C268.38,-205.733 216.946,-161.532 189.718,-138.134"/>
<polygon fill="midnightblue" stroke="midnightblue" points="191.971,-135.455 182.105,-131.591 187.408,-140.764 191.971,-135.455"/>
</g>
<!-- Node3 -->
<g id="node4" class="node"><title>Node3</title>
<polygon fill="white" stroke="#bfbfbf" points="18.108,-56.5 18.108,-75.5 74.108,-75.5 74.108,-56.5 18.108,-56.5"/>
<text text-anchor="middle" x="46.108" y="-63.5" font-family="Helvetica,sans-Serif" font-size="10.00">qintdict.h</text>
</g>
<!-- Node2&#45;&gt;Node3 -->
<g id="edge3" class="edge"><title>Node2&#45;&gt;Node3</title>
<path fill="none" stroke="midnightblue" d="M62.9825,-168.415C60.7995,-159.391 57.4052,-144.76 55.108,-132 52.3289,-116.564 49.9361,-98.9319 48.3177,-85.9299"/>
<polygon fill="midnightblue" stroke="midnightblue" points="51.7764,-85.3766 47.1047,-75.8674 44.8268,-86.2144 51.7764,-85.3766"/>
</g>
<!-- Node4 -->
<g id="node5" class="node"><title>Node4</title>
<polygon fill="white" stroke="#bfbfbf" points="201.608,-0.5 201.608,-19.5 244.608,-19.5 244.608,-0.5 201.608,-0.5"/>
<text text-anchor="middle" x="223.108" y="-7.5" font-family="Helvetica,sans-Serif" font-size="10.00">qlist.h</text>
</g>
<!-- Node2&#45;&gt;Node4 -->
<g id="edge4" class="edge"><title>Node2&#45;&gt;Node4</title>
<path fill="none" stroke="midnightblue" d="M55.0934,-168.28C32.0598,-147.192 -20.5034,-92.4856 9.10797,-56 31.7054,-28.1566 137.48,-16.902 191.371,-12.9152"/>
<polygon fill="midnightblue" stroke="midnightblue" points="191.687,-16.4018 201.418,-12.212 191.198,-9.41885 191.687,-16.4018"/>
</g>
<!-- Node5 -->
<g id="node6" class="node"><title>Node5</title>
<g id="a_node6"><a xlink:href="../../d9/d21/sortdict_8h.html" target="_top" xlink:title="sortdict.h">
<polygon fill="white" stroke="black" points="64.608,-112.5 64.608,-131.5 121.608,-131.5 121.608,-112.5 64.608,-112.5"/>
<text text-anchor="middle" x="93.108" y="-119.5" font-family="Helvetica,sans-Serif" font-size="10.00">sortdict.h</text>
</a>
</g>
</g>
<!-- Node2&#45;&gt;Node5 -->
<g id="edge5" class="edge"><title>Node2&#45;&gt;Node5</title>
<path fill="none" stroke="midnightblue" d="M69.7316,-168.083C73.5643,-160.691 79.1322,-149.953 83.8726,-140.811"/>
<polygon fill="midnightblue" stroke="midnightblue" points="87.0743,-142.24 88.5704,-131.751 80.86,-139.018 87.0743,-142.24"/>
</g>
<!-- Node5&#45;&gt;Node3 -->
<g id="edge8" class="edge"><title>Node5&#45;&gt;Node3</title>
<path fill="none" stroke="midnightblue" d="M85.3469,-112.083C78.5712,-104.298 68.5648,-92.8015 60.3529,-83.3665"/>
<polygon fill="midnightblue" stroke="midnightblue" points="62.93,-80.9963 53.7246,-75.7511 57.6498,-85.592 62.93,-80.9963"/>
</g>
<!-- Node5&#45;&gt;Node4 -->
<g id="edge6" class="edge"><title>Node5&#45;&gt;Node4</title>
<path fill="none" stroke="midnightblue" d="M94.7296,-112.278C97.6901,-98.6108 105.191,-72.0563 121.108,-56 140.369,-36.57 169.457,-24.8774 191.648,-18.3014"/>
<polygon fill="midnightblue" stroke="midnightblue" points="192.594,-21.6712 201.298,-15.6306 190.727,-14.9248 192.594,-21.6712"/>
</g>
<!-- Node6 -->
<g id="node7" class="node"><title>Node6</title>
<polygon fill="white" stroke="#bfbfbf" points="130.108,-56.5 130.108,-75.5 176.108,-75.5 176.108,-56.5 130.108,-56.5"/>
<text text-anchor="middle" x="153.108" y="-63.5" font-family="Helvetica,sans-Serif" font-size="10.00">qdict.h</text>
</g>
<!-- Node5&#45;&gt;Node6 -->
<g id="edge7" class="edge"><title>Node5&#45;&gt;Node6</title>
<path fill="none" stroke="midnightblue" d="M102.748,-112.324C111.618,-104.341 124.983,-92.3128 135.716,-82.6529"/>
<polygon fill="midnightblue" stroke="midnightblue" points="138.201,-85.1251 143.293,-75.8339 133.518,-79.922 138.201,-85.1251"/>
</g>
<!-- Node7&#45;&gt;Node4 -->
<g id="edge10" class="edge"><title>Node7&#45;&gt;Node4</title>
<path fill="none" stroke="midnightblue" d="M298.086,-168.377C294.981,-155.727 288.504,-131.523 280.108,-112 276.442,-103.475 248.495,-54.8479 233.14,-28.2992"/>
<polygon fill="midnightblue" stroke="midnightblue" points="236.161,-26.532 228.121,-19.6323 230.103,-30.04 236.161,-26.532"/>
</g>
<!-- Node7&#45;&gt;Node5 -->
<g id="edge14" class="edge"><title>Node7&#45;&gt;Node5</title>
<path fill="none" stroke="midnightblue" d="M281.005,-172.017C247.113,-163.175 175.863,-144.588 131.494,-133.014"/>
<polygon fill="midnightblue" stroke="midnightblue" points="132.206,-129.582 121.646,-130.445 130.439,-136.356 132.206,-129.582"/>
</g>
<!-- Node8 -->
<g id="node9" class="node"><title>Node8</title>
<polygon fill="white" stroke="#bfbfbf" points="222.608,-112.5 222.608,-131.5 271.608,-131.5 271.608,-112.5 222.608,-112.5"/>
<text text-anchor="middle" x="247.108" y="-119.5" font-family="Helvetica,sans-Serif" font-size="10.00">ctype.h</text>
</g>
<!-- Node7&#45;&gt;Node8 -->
<g id="edge11" class="edge"><title>Node7&#45;&gt;Node8</title>
<path fill="none" stroke="midnightblue" d="M291.356,-168.083C283.638,-160.22 272.203,-148.569 262.891,-139.081"/>
<polygon fill="midnightblue" stroke="midnightblue" points="265.2,-136.436 255.697,-131.751 260.204,-141.34 265.2,-136.436"/>
</g>
<!-- Node9 -->
<g id="node10" class="node"><title>Node9</title>
<g id="a_node10"><a xlink:href="../../d9/d49/types_8h.html" target="_top" xlink:title="This file contains a number of basic enums and types. ">
<polygon fill="white" stroke="black" points="270.608,-56.5 270.608,-75.5 319.608,-75.5 319.608,-56.5 270.608,-56.5"/>
<text text-anchor="middle" x="295.108" y="-63.5" font-family="Helvetica,sans-Serif" font-size="10.00">types.h</text>
</a>
</g>
</g>
<!-- Node7&#45;&gt;Node9 -->
<g id="edge12" class="edge"><title>Node7&#45;&gt;Node9</title>
<path fill="none" stroke="midnightblue" d="M304.351,-168.183C309.824,-155.697 318.185,-132.139 314.108,-112 312.215,-102.649 308.316,-92.8267 304.541,-84.7526"/>
<polygon fill="midnightblue" stroke="midnightblue" points="307.583,-83.0106 299.984,-75.6279 301.32,-86.1381 307.583,-83.0106"/>
</g>
<!-- Node11 -->
<g id="node12" class="node"><title>Node11</title>
<g id="a_node12"><a xlink:href="../../de/d9c/docparser_8h.html" target="_top" xlink:title="docparser.h">
<polygon fill="white" stroke="black" points="371.108,-112.5 371.108,-131.5 439.108,-131.5 439.108,-112.5 371.108,-112.5"/>
<text text-anchor="middle" x="405.108" y="-119.5" font-family="Helvetica,sans-Serif" font-size="10.00">docparser.h</text>
</a>
</g>
</g>
<!-- Node7&#45;&gt;Node11 -->
<g id="edge15" class="edge"><title>Node7&#45;&gt;Node11</title>
<path fill="none" stroke="midnightblue" d="M316.978,-168.324C333.817,-159.664 359.914,-146.242 379.346,-136.249"/>
<polygon fill="midnightblue" stroke="midnightblue" points="380.988,-139.341 388.28,-131.655 377.786,-133.116 380.988,-139.341"/>
</g>
<!-- Node10 -->
<g id="node11" class="node"><title>Node10</title>
<polygon fill="white" stroke="#bfbfbf" points="464.608,-0.5 464.608,-19.5 523.608,-19.5 523.608,-0.5 464.608,-0.5"/>
<text text-anchor="middle" x="494.108" y="-7.5" font-family="Helvetica,sans-Serif" font-size="10.00">qcstring.h</text>
</g>
<!-- Node9&#45;&gt;Node10 -->
<g id="edge13" class="edge"><title>Node9&#45;&gt;Node10</title>
<path fill="none" stroke="midnightblue" d="M319.909,-58.27C353.719,-49.0955 414.646,-32.5626 454.736,-21.6839"/>
<polygon fill="midnightblue" stroke="midnightblue" points="455.716,-25.0447 464.45,-19.0479 453.882,-18.289 455.716,-25.0447"/>
</g>
<!-- Node11&#45;&gt;Node1 -->
<g id="edge16" class="edge"><title>Node11&#45;&gt;Node1</title>
<path fill="none" stroke="midnightblue" d="M436.957,-112.444C474.091,-102.467 535.179,-86.0556 572.89,-75.9242"/>
<polygon fill="midnightblue" stroke="midnightblue" points="574.118,-79.2185 582.867,-73.2437 572.302,-72.4582 574.118,-79.2185"/>
</g>
<!-- Node11&#45;&gt;Node4 -->
<g id="edge17" class="edge"><title>Node11&#45;&gt;Node4</title>
<path fill="none" stroke="midnightblue" d="M396.762,-112.479C383.294,-99.0893 355.5,-72.907 328.108,-56 304.797,-41.6117 276.074,-29.6497 254.565,-21.6844"/>
<polygon fill="midnightblue" stroke="midnightblue" points="255.533,-18.3128 244.939,-18.2069 253.155,-24.8964 255.533,-18.3128"/>
</g>
<!-- Node11&#45;&gt;Node10 -->
<g id="edge18" class="edge"><title>Node11&#45;&gt;Node10</title>
<path fill="none" stroke="midnightblue" d="M439.227,-119.658C469.95,-116.421 513.497,-106.35 535.108,-76 546.97,-59.3409 529.929,-39.3282 514.343,-25.9504"/>
<polygon fill="midnightblue" stroke="midnightblue" points="516.467,-23.1669 506.486,-19.6123 512.072,-28.6152 516.467,-23.1669"/>
</g>
<!-- Node12 -->
<g id="node13" class="node"><title>Node12</title>
<g id="a_node13"><a xlink:href="../../d2/d3c/docvisitor_8h.html" target="_top" xlink:title="docvisitor.h">
<polygon fill="white" stroke="black" points="376.608,-56.5 376.608,-75.5 443.608,-75.5 443.608,-56.5 376.608,-56.5"/>
<text text-anchor="middle" x="410.108" y="-63.5" font-family="Helvetica,sans-Serif" font-size="10.00">docvisitor.h</text>
</a>
</g>
</g>
<!-- Node11&#45;&gt;Node12 -->
<g id="edge19" class="edge"><title>Node11&#45;&gt;Node12</title>
<path fill="none" stroke="midnightblue" d="M405.934,-112.083C406.589,-105.006 407.528,-94.8611 408.35,-85.9865"/>
<polygon fill="midnightblue" stroke="midnightblue" points="411.861,-86.0312 409.298,-75.7511 404.891,-85.3858 411.861,-86.0312"/>
</g>
<!-- Node13 -->
<g id="node14" class="node"><title>Node13</title>
<g id="a_node14"><a xlink:href="../../d0/d73/htmlattrib_8h.html" target="_top" xlink:title="htmlattrib.h">
<polygon fill="white" stroke="black" points="461.608,-56.5 461.608,-75.5 526.608,-75.5 526.608,-56.5 461.608,-56.5"/>
<text text-anchor="middle" x="494.108" y="-63.5" font-family="Helvetica,sans-Serif" font-size="10.00">htmlattrib.h</text>
</a>
</g>
</g>
<!-- Node11&#45;&gt;Node13 -->
<g id="edge20" class="edge"><title>Node11&#45;&gt;Node13</title>
<path fill="none" stroke="midnightblue" d="M419.407,-112.324C433.291,-103.9 454.6,-90.9709 470.912,-81.0741"/>
<polygon fill="midnightblue" stroke="midnightblue" points="473.11,-83.8341 479.844,-75.6545 469.479,-77.8495 473.11,-83.8341"/>
</g>
<!-- Node13&#45;&gt;Node4 -->
<g id="edge22" class="edge"><title>Node13&#45;&gt;Node4</title>
<path fill="none" stroke="midnightblue" d="M461.56,-57.9682C458.368,-57.2957 455.176,-56.6301 452.108,-56 381.745,-41.5488 299.011,-25.5315 254.787,-17.048"/>
<polygon fill="midnightblue" stroke="midnightblue" points="255.399,-13.6018 244.919,-15.1576 254.082,-20.4768 255.399,-13.6018"/>
</g>
<!-- Node13&#45;&gt;Node10 -->
<g id="edge21" class="edge"><title>Node13&#45;&gt;Node10</title>
<path fill="none" stroke="midnightblue" d="M494.108,-56.083C494.108,-49.0059 494.108,-38.8611 494.108,-29.9865"/>
<polygon fill="midnightblue" stroke="midnightblue" points="497.608,-29.751 494.108,-19.7511 490.608,-29.7511 497.608,-29.751"/>
</g>
<!-- Node14&#45;&gt;Node1 -->
<g id="edge24" class="edge"><title>Node14&#45;&gt;Node1</title>
<path fill="none" stroke="midnightblue" d="M513.27,-168.363C497.378,-155.695 472.615,-131.47 486.108,-112 491.319,-104.48 539.373,-88.0461 573.064,-77.2575"/>
<polygon fill="midnightblue" stroke="midnightblue" points="574.522,-80.467 582.996,-74.1067 572.405,-73.7947 574.522,-80.467"/>
</g>
<!-- Node15 -->
<g id="node16" class="node"><title>Node15</title>
<polygon fill="white" stroke="#bfbfbf" points="573.108,-112.5 573.108,-131.5 639.108,-131.5 639.108,-112.5 573.108,-112.5"/>
<text text-anchor="middle" x="606.108" y="-119.5" font-family="Helvetica,sans-Serif" font-size="10.00">qiodevice.h</text>
</g>
<!-- Node14&#45;&gt;Node15 -->
<g id="edge25" class="edge"><title>Node14&#45;&gt;Node15</title>
<path fill="none" stroke="midnightblue" d="M538.122,-168.324C550.64,-159.979 569.79,-147.212 584.579,-137.352"/>
<polygon fill="midnightblue" stroke="midnightblue" points="586.747,-140.114 593.126,-131.655 582.864,-134.289 586.747,-140.114"/>
</g>
<!-- Node16 -->
<g id="node17" class="node"><title>Node16</title>
<polygon fill="white" stroke="#bfbfbf" points="657.108,-112.5 657.108,-131.5 711.108,-131.5 711.108,-112.5 657.108,-112.5"/>
<text text-anchor="middle" x="684.108" y="-119.5" font-family="Helvetica,sans-Serif" font-size="10.00">qstring.h</text>
</g>
<!-- Node14&#45;&gt;Node16 -->
<g id="edge26" class="edge"><title>Node14&#45;&gt;Node16</title>
<path fill="none" stroke="midnightblue" d="M550.302,-168.444C577.051,-159.359 619.511,-144.939 649.413,-134.783"/>
<polygon fill="midnightblue" stroke="midnightblue" points="650.689,-138.046 659.032,-131.516 648.437,-131.418 650.689,-138.046"/>
</g>
<!-- Node17 -->
<g id="node18" class="node"><title>Node17</title>
<polygon fill="white" stroke="#bfbfbf" points="495.608,-112.5 495.608,-131.5 554.608,-131.5 554.608,-112.5 495.608,-112.5"/>
<text text-anchor="middle" x="525.108" y="-119.5" font-family="Helvetica,sans-Serif" font-size="10.00">qgstring.h</text>
</g>
<!-- Node14&#45;&gt;Node17 -->
<g id="edge27" class="edge"><title>Node14&#45;&gt;Node17</title>
<path fill="none" stroke="midnightblue" d="M525.108,-168.083C525.108,-161.006 525.108,-150.861 525.108,-141.986"/>
<polygon fill="midnightblue" stroke="midnightblue" points="528.608,-141.751 525.108,-131.751 521.608,-141.751 528.608,-141.751"/>
</g>
<!-- Node18&#45;&gt;Node4 -->
<g id="edge29" class="edge"><title>Node18&#45;&gt;Node4</title>
<path fill="none" stroke="midnightblue" d="M176.11,-112.368C184.415,-94.4563 203.671,-52.9233 214.787,-28.9482"/>
<polygon fill="midnightblue" stroke="midnightblue" points="218.094,-30.136 219.125,-19.5914 211.743,-27.1916 218.094,-30.136"/>
</g>
<!-- Node18&#45;&gt;Node6 -->
<g id="edge30" class="edge"><title>Node18&#45;&gt;Node6</title>
<path fill="none" stroke="midnightblue" d="M168.971,-112.083C166.425,-104.849 162.752,-94.4087 159.581,-85.3968"/>
<polygon fill="midnightblue" stroke="midnightblue" points="162.808,-84.0225 156.187,-75.7511 156.205,-86.3459 162.808,-84.0225"/>
</g>
<!-- Node18&#45;&gt;Node9 -->
<g id="edge31" class="edge"><title>Node18&#45;&gt;Node9</title>
<path fill="none" stroke="midnightblue" d="M191.598,-112.444C211.75,-103.596 243.431,-89.6875 266.439,-79.5865"/>
<polygon fill="midnightblue" stroke="midnightblue" points="267.96,-82.7411 275.709,-75.5164 265.146,-76.3316 267.96,-82.7411"/>
</g>
</g>
</svg>
