<?xml version="1.0" encoding="UTF-8" standalone="no"?>
<!DOCTYPE svg PUBLIC "-//W3C//DTD SVG 1.1//EN"
 "http://www.w3.org/Graphics/SVG/1.1/DTD/svg11.dtd">
<!-- Generated by graphviz version 2.38.0 (20140413.2041)
 -->
<!-- Title: SymbolGroupContext Pages: 1 -->
<!--zoomable 160 -->
<svg id="main" version="1.1" xmlns="http://www.w3.org/2000/svg" xmlns:xlink="http://www.w3.org/1999/xlink" xml:space="preserve" onload="init(evt)">
<style type="text/css"><![CDATA[
.edge:hover path { stroke: red; }
.edge:hover polygon { stroke: red; fill: red; }
]]></style>
<script type="text/javascript"><![CDATA[
var edges = document.getElementsByTagName('g');
if (edges && edges.length) {
  for (var i=0;i<edges.length;i++) {
    if (edges[i].id.substr(0,4)=='edge') {
      edges[i].setAttribute('class','edge');
    }
  }
}
]]></script>
        <defs>
                <circle id="rim" cx="0" cy="0" r="7"/>
                <circle id="rim2" cx="0" cy="0" r="3.5"/>
                <g id="zoomPlus">
                        <use xlink:href="#rim" fill="#404040">
                                <set attributeName="fill" to="#808080" begin="zoomplus.mouseover" end="zoomplus.mouseout"/>
                        </use>
                        <path d="M-4,0h8M0,-4v8" fill="none" stroke="white" stroke-width="1.5" pointer-events="none"/>
                </g>
                <g id="zoomMin">
                        <use xlink:href="#rim" fill="#404040">
                                <set attributeName="fill" to="#808080" begin="zoomminus.mouseover" end="zoomminus.mouseout"/>
                        </use>
                        <path d="M-4,0h8" fill="none" stroke="white" stroke-width="1.5" pointer-events="none"/>
                </g>
                <g id="dirArrow">
                        <path fill="none" stroke="white" stroke-width="1.5" d="M0,-3.0v7 M-2.5,-0.5L0,-3.0L2.5,-0.5"/>
                </g>
               <g id="resetDef">
                       <use xlink:href="#rim2" fill="#404040">
                               <set attributeName="fill" to="#808080" begin="reset.mouseover" end="reset.mouseout"/>
                       </use>
               </g>
        </defs>

<script type="text/javascript">
var viewWidth = 1505;
var viewHeight = 160;
var sectionId = 'dynsection-1';
</script>
<script xlink:href="../../svgpan.js"/>
<svg id="graph" class="graph">
<g id="viewport">
<title>SymbolGroupContext</title>
<polygon fill="white" stroke="none" points="-4,4 -4,-156 1501,-156 1501,4 -4,4"/>
<!-- Node3 -->
<g id="node1" class="node"><title>Node3</title>
<polygon fill="#bfbfbf" stroke="black" points="1387,-75.5 1387,-94.5 1497,-94.5 1497,-75.5 1387,-75.5"/>
<text text-anchor="middle" x="1442" y="-82.5" font-family="Helvetica,sans-Serif" font-size="10.00">SymbolGroupContext</text>
</g>
<!-- Node4 -->
<g id="node2" class="node"><title>Node4</title>
<g id="a_node2"><a xlink:href="../../d8/d96/class_ref_counted_context.html" target="_top" xlink:title="Helper class to support reference counting. ">
<polygon fill="white" stroke="black" points="286,-132.5 286,-151.5 390,-151.5 390,-132.5 286,-132.5"/>
<text text-anchor="middle" x="338" y="-139.5" font-family="Helvetica,sans-Serif" font-size="10.00">RefCountedContext</text>
</a>
</g>
</g>
<!-- Node4&#45;&gt;Node3 -->
<g id="edge1" class="edge"><title>Node4&#45;&gt;Node3</title>
<path fill="none" stroke="midnightblue" d="M400.496,-145.299C431.523,-146.693 469.748,-148 504,-148 504,-148 504,-148 1288,-148 1343.44,-148 1402.25,-112.192 1427.84,-94.5683"/>
<polygon fill="midnightblue" stroke="midnightblue" points="400.417,-141.791 390.266,-144.824 400.093,-148.784 400.417,-141.791"/>
</g>
<!-- Node13 -->
<g id="node11" class="node"><title>Node13</title>
<g id="a_node11"><a xlink:href="../../dd/d7d/class_symbol_list_context.html" target="_top" xlink:title="SymbolListContext">
<polygon fill="white" stroke="black" points="455,-72.5 455,-91.5 555,-91.5 555,-72.5 455,-72.5"/>
<text text-anchor="middle" x="505" y="-79.5" font-family="Helvetica,sans-Serif" font-size="10.00">SymbolListContext</text>
</a>
</g>
</g>
<!-- Node4&#45;&gt;Node13 -->
<g id="edge11" class="edge"><title>Node4&#45;&gt;Node13</title>
<path fill="none" stroke="midnightblue" d="M378.332,-129.337C396.305,-123.401 417.818,-116.088 437,-109 451.822,-103.523 468.284,-96.8969 481.182,-91.5794"/>
<polygon fill="midnightblue" stroke="midnightblue" points="377.158,-126.038 368.748,-132.482 379.341,-132.689 377.158,-126.038"/>
</g>
<!-- Node5 -->
<g id="node3" class="node"><title>Node5</title>
<g id="a_node3"><a xlink:href="../../d9/de8/class_template_struct_intf.html" target="_top" xlink:title="Abstract interface for a context value of type struct. ">
<polygon fill="white" stroke="black" points="1238,-31.5 1238,-50.5 1336,-50.5 1336,-31.5 1238,-31.5"/>
<text text-anchor="middle" x="1287" y="-38.5" font-family="Helvetica,sans-Serif" font-size="10.00">TemplateStructIntf</text>
</a>
</g>
</g>
<!-- Node5&#45;&gt;Node3 -->
<g id="edge2" class="edge"><title>Node5&#45;&gt;Node3</title>
<path fill="none" stroke="midnightblue" d="M1330.91,-53.3412C1355.28,-60.3493 1385.32,-68.9888 1407.87,-75.4713"/>
<polygon fill="midnightblue" stroke="midnightblue" points="1331.78,-49.9475 1321.2,-50.5473 1329.84,-56.6749 1331.78,-49.9475"/>
</g>
<!-- Node6 -->
<g id="node4" class="node"><title>Node6</title>
<g id="a_node4"><a xlink:href="../../de/d3a/class_symbol_group_context_1_1_private.html" target="_top" xlink:title="SymbolGroupContext\l::Private">
<polygon fill="white" stroke="black" points="1232,-70 1232,-100 1342,-100 1342,-70 1232,-70"/>
<text text-anchor="start" x="1240" y="-88" font-family="Helvetica,sans-Serif" font-size="10.00">SymbolGroupContext</text>
<text text-anchor="middle" x="1287" y="-77" font-family="Helvetica,sans-Serif" font-size="10.00">::Private</text>
</a>
</g>
</g>
<!-- Node6&#45;&gt;Node3 -->
<g id="edge3" class="edge"><title>Node6&#45;&gt;Node3</title>
<path fill="none" stroke="#9a32cd" stroke-dasharray="5,2" d="M1352.68,-85C1364.04,-85 1375.76,-85 1386.8,-85"/>
<polygon fill="#9a32cd" stroke="#9a32cd" points="1352.37,-81.5001 1342.37,-85 1352.37,-88.5001 1352.37,-81.5001"/>
<text text-anchor="middle" x="1364.5" y="-88" font-family="Helvetica,sans-Serif" font-size="10.00"> p</text>
</g>
<!-- Node7 -->
<g id="node5" class="node"><title>Node7</title>
<g id="a_node5"><a xlink:href="../../d1/d80/class_property_mapper.html" target="_top" xlink:title="PropertyMapper\&lt; SymbolGroup\lContext::Private \&gt;">
<polygon fill="white" stroke="black" points="999,-2 999,-32 1153,-32 1153,-2 999,-2"/>
<text text-anchor="start" x="1007" y="-20" font-family="Helvetica,sans-Serif" font-size="10.00">PropertyMapper&lt; SymbolGroup</text>
<text text-anchor="middle" x="1076" y="-9" font-family="Helvetica,sans-Serif" font-size="10.00">Context::Private &gt;</text>
</a>
</g>
</g>
<!-- Node7&#45;&gt;Node6 -->
<g id="edge4" class="edge"><title>Node7&#45;&gt;Node6</title>
<path fill="none" stroke="#9a32cd" stroke-dasharray="5,2" d="M1150.07,-34.6654C1170.91,-40.2597 1193.51,-46.8642 1214,-54 1227.24,-58.6109 1241.48,-64.5297 1253.77,-69.9576"/>
<polygon fill="#9a32cd" stroke="#9a32cd" points="1150.88,-31.2594 1140.32,-32.0854 1149.09,-38.0266 1150.88,-31.2594"/>
<text text-anchor="middle" x="1192.5" y="-57" font-family="Helvetica,sans-Serif" font-size="10.00"> s_inst</text>
</g>
<!-- Node8 -->
<g id="node6" class="node"><title>Node8</title>
<g id="a_node6"><a xlink:href="../../d1/d80/class_property_mapper.html" target="_top" xlink:title="Helper class to map a property name to a handler member function. ">
<polygon fill="white" stroke="black" points="721.5,-7.5 721.5,-26.5 831.5,-26.5 831.5,-7.5 721.5,-7.5"/>
<text text-anchor="middle" x="776.5" y="-14.5" font-family="Helvetica,sans-Serif" font-size="10.00">PropertyMapper&lt; T &gt;</text>
</a>
</g>
</g>
<!-- Node8&#45;&gt;Node7 -->
<g id="edge5" class="edge"><title>Node8&#45;&gt;Node7</title>
<path fill="none" stroke="orange" stroke-dasharray="5,2" d="M841.886,-17C887.969,-17 950.191,-17 998.76,-17"/>
<polygon fill="orange" stroke="orange" points="841.72,-13.5001 831.72,-17 841.72,-20.5001 841.72,-13.5001"/>
<text text-anchor="start" x="875" y="-31" font-family="Helvetica,sans-Serif" font-size="10.00"> &lt; SymbolGroupContext</text>
<text text-anchor="middle" x="928" y="-20" font-family="Helvetica,sans-Serif" font-size="10.00">::Private &gt;</text>
</g>
<!-- Node9 -->
<g id="node7" class="node"><title>Node9</title>
<g id="a_node7"><a xlink:href="../../d6/d03/class_search_definition_list.html" target="_top" xlink:title="SearchDefinitionList">
<polygon fill="white" stroke="black" points="1024,-100.5 1024,-119.5 1128,-119.5 1128,-100.5 1024,-100.5"/>
<text text-anchor="middle" x="1076" y="-107.5" font-family="Helvetica,sans-Serif" font-size="10.00">SearchDefinitionList</text>
</a>
</g>
</g>
<!-- Node9&#45;&gt;Node6 -->
<g id="edge6" class="edge"><title>Node9&#45;&gt;Node6</title>
<path fill="none" stroke="#9a32cd" stroke-dasharray="5,2" d="M1138.34,-102.662C1167.94,-99.122 1203.14,-94.9114 1231.75,-91.4895"/>
<polygon fill="#9a32cd" stroke="#9a32cd" points="1137.64,-99.2213 1128.13,-103.884 1138.47,-106.172 1137.64,-99.2213"/>
<text text-anchor="middle" x="1192.5" y="-102" font-family="Helvetica,sans-Serif" font-size="10.00"> m_sdl</text>
</g>
<!-- Node10 -->
<g id="node8" class="node"><title>Node10</title>
<polygon fill="white" stroke="#bfbfbf" points="727,-100.5 727,-119.5 826,-119.5 826,-100.5 727,-100.5"/>
<text text-anchor="middle" x="776.5" y="-107.5" font-family="Helvetica,sans-Serif" font-size="10.00">QList&lt; Definition &gt;</text>
</g>
<!-- Node10&#45;&gt;Node9 -->
<g id="edge7" class="edge"><title>Node10&#45;&gt;Node9</title>
<path fill="none" stroke="midnightblue" d="M836.54,-110C891.284,-110 971.904,-110 1023.94,-110"/>
<polygon fill="midnightblue" stroke="midnightblue" points="836.293,-106.5 826.293,-110 836.293,-113.5 836.293,-106.5"/>
</g>
<!-- Node11 -->
<g id="node9" class="node"><title>Node11</title>
<g id="a_node9"><a xlink:href="../../dd/d97/struct_symbol_group_context_1_1_private_1_1_cachable.html" target="_top" xlink:title="SymbolGroupContext\l::Private::Cachable">
<polygon fill="white" stroke="black" points="1021,-51 1021,-81 1131,-81 1131,-51 1021,-51"/>
<text text-anchor="start" x="1029" y="-69" font-family="Helvetica,sans-Serif" font-size="10.00">SymbolGroupContext</text>
<text text-anchor="middle" x="1076" y="-58" font-family="Helvetica,sans-Serif" font-size="10.00">::Private::Cachable</text>
</a>
</g>
</g>
<!-- Node11&#45;&gt;Node6 -->
<g id="edge8" class="edge"><title>Node11&#45;&gt;Node6</title>
<path fill="none" stroke="#9a32cd" stroke-dasharray="5,2" d="M1141.14,-67.0211C1164.17,-67.8594 1190.3,-69.3534 1214,-72 1219.81,-72.6484 1225.85,-73.4835 1231.86,-74.4173"/>
<polygon fill="#9a32cd" stroke="#9a32cd" points="1141.25,-63.5229 1131.14,-66.6904 1141.02,-70.5191 1141.25,-63.5229"/>
<text text-anchor="middle" x="1192.5" y="-75" font-family="Helvetica,sans-Serif" font-size="10.00"> m_cache</text>
</g>
<!-- Node12 -->
<g id="node10" class="node"><title>Node12</title>
<g id="a_node10"><a xlink:href="../../df/d12/class_shared_ptr.html" target="_top" xlink:title="SharedPtr\&lt; SymbolListContext \&gt;">
<polygon fill="white" stroke="black" points="696,-56.5 696,-75.5 857,-75.5 857,-56.5 696,-56.5"/>
<text text-anchor="middle" x="776.5" y="-63.5" font-family="Helvetica,sans-Serif" font-size="10.00">SharedPtr&lt; SymbolListContext &gt;</text>
</a>
</g>
</g>
<!-- Node12&#45;&gt;Node11 -->
<g id="edge9" class="edge"><title>Node12&#45;&gt;Node11</title>
<path fill="none" stroke="#9a32cd" stroke-dasharray="5,2" d="M867.411,-66C917.475,-66 978.139,-66 1020.92,-66"/>
<polygon fill="#9a32cd" stroke="#9a32cd" points="867.225,-62.5001 857.225,-66 867.225,-69.5001 867.225,-62.5001"/>
<text text-anchor="middle" x="928" y="-69" font-family="Helvetica,sans-Serif" font-size="10.00"> symbolList</text>
</g>
<!-- Node13&#45;&gt;Node12 -->
<g id="edge10" class="edge"><title>Node13&#45;&gt;Node12</title>
<path fill="none" stroke="#9a32cd" stroke-dasharray="5,2" d="M565.585,-78.4625C603.878,-76.1891 654.078,-73.2087 695.785,-70.7326"/>
<polygon fill="#9a32cd" stroke="#9a32cd" points="564.892,-74.9974 555.117,-79.084 565.307,-81.9851 564.892,-74.9974"/>
<text text-anchor="middle" x="625.5" y="-81" font-family="Helvetica,sans-Serif" font-size="10.00"> m_ptr</text>
</g>
<!-- Node14 -->
<g id="node12" class="node"><title>Node14</title>
<g id="a_node12"><a xlink:href="../../d6/d88/class_template_list_intf.html" target="_top" xlink:title="Abstract read&#45;only interface for a context value of type list. ">
<polygon fill="white" stroke="black" points="0,-72.5 0,-91.5 87,-91.5 87,-72.5 0,-72.5"/>
<text text-anchor="middle" x="43.5" y="-79.5" font-family="Helvetica,sans-Serif" font-size="10.00">TemplateListIntf</text>
</a>
</g>
</g>
<!-- Node14&#45;&gt;Node13 -->
<g id="edge12" class="edge"><title>Node14&#45;&gt;Node13</title>
<path fill="none" stroke="midnightblue" d="M97.2706,-83.8474C99.8839,-83.9066 102.472,-83.9582 105,-84 252.535,-86.4379 289.461,-86.2016 437,-84 442.818,-83.9132 448.919,-83.784 454.971,-83.6323"/>
<polygon fill="midnightblue" stroke="midnightblue" points="97.2209,-80.3451 87.134,-83.5861 97.0405,-87.3428 97.2209,-80.3451"/>
</g>
<!-- Node16 -->
<g id="node14" class="node"><title>Node16</title>
<g id="a_node14"><a xlink:href="../../d6/dcb/class_generic_node_list_context.html" target="_top" xlink:title="standard template list implementation ">
<polygon fill="white" stroke="black" points="124,-49.5 124,-68.5 248,-68.5 248,-49.5 124,-49.5"/>
<text text-anchor="middle" x="186" y="-56.5" font-family="Helvetica,sans-Serif" font-size="10.00">GenericNodeListContext</text>
</a>
</g>
</g>
<!-- Node14&#45;&gt;Node16 -->
<g id="edge15" class="edge"><title>Node14&#45;&gt;Node16</title>
<path fill="none" stroke="midnightblue" d="M96.9632,-73.4117C106.691,-71.8192 116.907,-70.147 126.794,-68.5284"/>
<polygon fill="midnightblue" stroke="midnightblue" points="96.3391,-69.9672 87.0359,-75.0368 97.47,-76.8753 96.3391,-69.9672"/>
</g>
<!-- Node15 -->
<g id="node13" class="node"><title>Node15</title>
<g id="a_node13"><a xlink:href="../../da/d36/class_symbol_list_context_1_1_private.html" target="_top" xlink:title="SymbolListContext::\lPrivate">
<polygon fill="white" stroke="black" points="285,-39 285,-69 391,-69 391,-39 285,-39"/>
<text text-anchor="start" x="293" y="-57" font-family="Helvetica,sans-Serif" font-size="10.00">SymbolListContext::</text>
<text text-anchor="middle" x="338" y="-46" font-family="Helvetica,sans-Serif" font-size="10.00">Private</text>
</a>
</g>
</g>
<!-- Node15&#45;&gt;Node13 -->
<g id="edge13" class="edge"><title>Node15&#45;&gt;Node13</title>
<path fill="none" stroke="#9a32cd" stroke-dasharray="5,2" d="M401.449,-64.5974C419.147,-67.6008 438.156,-70.8265 454.941,-73.6749"/>
<polygon fill="#9a32cd" stroke="#9a32cd" points="401.652,-61.0818 391.207,-62.8594 400.48,-67.9832 401.652,-61.0818"/>
<text text-anchor="middle" x="423" y="-74" font-family="Helvetica,sans-Serif" font-size="10.00"> p</text>
</g>
<!-- Node16&#45;&gt;Node15 -->
<g id="edge14" class="edge"><title>Node16&#45;&gt;Node15</title>
<path fill="none" stroke="midnightblue" d="M258.078,-56.6307C267.047,-56.3318 276.091,-56.0303 284.695,-55.7435"/>
<polygon fill="midnightblue" stroke="midnightblue" points="257.889,-53.135 248.011,-56.9663 258.122,-60.1311 257.889,-53.135"/>
</g>
<!-- Node17 -->
<g id="node15" class="node"><title>Node17</title>
<g id="a_node15"><a xlink:href="../../df/d12/class_shared_ptr.html" target="_top" xlink:title="Reference counting smart pointer. ">
<polygon fill="white" stroke="black" points="463,-7.5 463,-26.5 547,-26.5 547,-7.5 463,-7.5"/>
<text text-anchor="middle" x="505" y="-14.5" font-family="Helvetica,sans-Serif" font-size="10.00">SharedPtr&lt; T &gt;</text>
</a>
</g>
</g>
<!-- Node17&#45;&gt;Node12 -->
<g id="edge16" class="edge"><title>Node17&#45;&gt;Node12</title>
<path fill="none" stroke="orange" stroke-dasharray="5,2" d="M557.306,-26.3284C604.866,-34.9756 675.296,-47.7811 723.178,-56.4869"/>
<polygon fill="orange" stroke="orange" points="557.689,-22.8408 547.225,-24.4954 556.437,-29.7279 557.689,-22.8408"/>
<text text-anchor="middle" x="625.5" y="-51" font-family="Helvetica,sans-Serif" font-size="10.00"> &lt; SymbolListContext &gt;</text>
</g>
<!-- Node18 -->
<g id="node16" class="node"><title>Node18</title>
<polygon fill="white" stroke="#bfbfbf" points="323.5,-0.5 323.5,-19.5 352.5,-19.5 352.5,-0.5 323.5,-0.5"/>
<text text-anchor="middle" x="338" y="-7.5" font-family="Helvetica,sans-Serif" font-size="10.00">T</text>
</g>
<!-- Node18&#45;&gt;Node17 -->
<g id="edge17" class="edge"><title>Node18&#45;&gt;Node17</title>
<path fill="none" stroke="#9a32cd" stroke-dasharray="5,2" d="M362.583,-11.0005C388.628,-12.1054 431.056,-13.9054 462.655,-15.246"/>
<polygon fill="#9a32cd" stroke="#9a32cd" points="362.642,-7.49994 352.503,-10.5728 362.345,-14.4937 362.642,-7.49994"/>
<text text-anchor="middle" x="423" y="-18" font-family="Helvetica,sans-Serif" font-size="10.00"> m_ptr</text>
</g>
</g>
</svg>
        <g id="navigator" transform="translate(0 0)" fill="#404254">
                <rect fill="#f2f5e9" fill-opacity="0.5" stroke="#606060" stroke-width=".5" x="0" y="0" width="60" height="60"/>
                <use id="zoomplus" xlink:href="#zoomPlus" x="17" y="9" onmousedown="handleZoom(evt,'in')"/>
                <use id="zoomminus" xlink:href="#zoomMin" x="42" y="9" onmousedown="handleZoom(evt,'out')"/>
                <use id="reset" xlink:href="#resetDef" x="30" y="36" onmousedown="handleReset()"/>
                <g id="arrowUp" xlink:href="#dirArrow" transform="translate(30 24)" onmousedown="handlePan(0,-1)">
                  <use xlink:href="#rim" fill="#404040">
                        <set attributeName="fill" to="#808080" begin="arrowUp.mouseover" end="arrowUp.mouseout"/>
                  </use>
                  <path fill="none" stroke="white" stroke-width="1.5" d="M0,-3.0v7 M-2.5,-0.5L0,-3.0L2.5,-0.5"/>
                </g>
                <g id="arrowRight" xlink:href="#dirArrow" transform="rotate(90) translate(36 -43)" onmousedown="handlePan(1,0)">
                  <use xlink:href="#rim" fill="#404040">
                        <set attributeName="fill" to="#808080" begin="arrowRight.mouseover" end="arrowRight.mouseout"/>
                  </use>
                  <path fill="none" stroke="white" stroke-width="1.5" d="M0,-3.0v7 M-2.5,-0.5L0,-3.0L2.5,-0.5"/>
                </g>
                <g id="arrowDown" xlink:href="#dirArrow" transform="rotate(180) translate(-30 -48)" onmousedown="handlePan(0,1)">
                  <use xlink:href="#rim" fill="#404040">
                        <set attributeName="fill" to="#808080" begin="arrowDown.mouseover" end="arrowDown.mouseout"/>
                  </use>
                  <path fill="none" stroke="white" stroke-width="1.5" d="M0,-3.0v7 M-2.5,-0.5L0,-3.0L2.5,-0.5"/>
                </g>
                <g id="arrowLeft" xlink:href="#dirArrow" transform="rotate(270) translate(-36 17)" onmousedown="handlePan(-1,0)">
                  <use xlink:href="#rim" fill="#404040">
                        <set attributeName="fill" to="#808080" begin="arrowLeft.mouseover" end="arrowLeft.mouseout"/>
                  </use>
                  <path fill="none" stroke="white" stroke-width="1.5" d="M0,-3.0v7 M-2.5,-0.5L0,-3.0L2.5,-0.5"/>
                </g>
        </g>
        <svg viewBox="0 0 15 15" width="100%" height="30px" preserveAspectRatio="xMaxYMin meet">
         <g id="arrow_out" transform="scale(0.3 0.3)">
          <a xlink:href="class_symbol_group_context__coll__graph_org.svg" target="_base">
           <rect id="button" ry="5" rx="5" y="6" x="6" height="38" width="38"
                fill="#f2f5e9" fill-opacity="0.5" stroke="#606060" stroke-width="1.0"/>
           <path id="arrow"
             d="M 11.500037,31.436501 C 11.940474,20.09759 22.043105,11.32322 32.158766,21.979434 L 37.068811,17.246167 C 37.068811,17.246167 37.088388,32 37.088388,32 L 22.160133,31.978069 C 22.160133,31.978069 26.997745,27.140456 26.997745,27.140456 C 18.528582,18.264221 13.291696,25.230495 11.500037,31.436501 z"
             style="fill:#404040;"/>
          </a>
         </g>
        </svg>
</svg>
