<?xml version="1.0" encoding="UTF-8" standalone="no"?>
<!DOCTYPE svg PUBLIC "-//W3C//DTD SVG 1.1//EN"
 "http://www.w3.org/Graphics/SVG/1.1/DTD/svg11.dtd">
<!-- Generated by graphviz version 2.38.0 (20140413.2041)
 -->
<!-- Title: DefinitionContext&lt; T &gt; Pages: 1 -->
<svg width="617pt" height="333pt"
 viewBox="0.00 0.00 617.00 333.00" xmlns="http://www.w3.org/2000/svg" xmlns:xlink="http://www.w3.org/1999/xlink">
<g id="graph0" class="graph" transform="scale(1 1) rotate(0) translate(4 329)">
<title>DefinitionContext&lt; T &gt;</title>
<polygon fill="white" stroke="none" points="-4,4 -4,-329 613,-329 613,4 -4,4"/>
<!-- Node0 -->
<g id="node1" class="node"><title>Node0</title>
<polygon fill="#bfbfbf" stroke="black" points="0,-153 0,-172 116,-172 116,-153 0,-153"/>
<text text-anchor="middle" x="58" y="-160" font-family="Helvetica,sans-Serif" font-size="10.00">DefinitionContext&lt; T &gt;</text>
</g>
<!-- Node1 -->
<g id="node2" class="node"><title>Node1</title>
<g id="a_node2"><a xlink:href="../../d6/d49/class_definition_context.html" target="_top" xlink:title="DefinitionContext\&lt;\l PageContext::Private \&gt;">
<polygon fill="white" stroke="black" points="295,-294.5 295,-324.5 417,-324.5 417,-294.5 295,-294.5"/>
<text text-anchor="start" x="303" y="-312.5" font-family="Helvetica,sans-Serif" font-size="10.00">DefinitionContext&lt;</text>
<text text-anchor="middle" x="356" y="-301.5" font-family="Helvetica,sans-Serif" font-size="10.00"> PageContext::Private &gt;</text>
</a>
</g>
</g>
<!-- Node0&#45;&gt;Node1 -->
<g id="edge1" class="edge"><title>Node0&#45;&gt;Node1</title>
<path fill="none" stroke="orange" stroke-dasharray="5,2" d="M67.9098,-181.192C79.7349,-203.887 102.811,-241.589 134,-261.5 182.483,-292.451 247.85,-303.697 294.9,-307.655"/>
<polygon fill="orange" stroke="orange" points="71.018,-179.582 63.4094,-172.209 64.7595,-182.718 71.018,-179.582"/>
<text text-anchor="middle" x="198" y="-306.5" font-family="Helvetica,sans-Serif" font-size="10.00"> &lt; PageContext::Private &gt;</text>
</g>
<!-- Node3 -->
<g id="node4" class="node"><title>Node3</title>
<g id="a_node4"><a xlink:href="../../d6/d49/class_definition_context.html" target="_top" xlink:title="DefinitionContext\&lt;\l MemberContext::Private \&gt;">
<polygon fill="white" stroke="black" points="288.5,-245.5 288.5,-275.5 423.5,-275.5 423.5,-245.5 288.5,-245.5"/>
<text text-anchor="start" x="296.5" y="-263.5" font-family="Helvetica,sans-Serif" font-size="10.00">DefinitionContext&lt;</text>
<text text-anchor="middle" x="356" y="-252.5" font-family="Helvetica,sans-Serif" font-size="10.00"> MemberContext::Private &gt;</text>
</a>
</g>
</g>
<!-- Node0&#45;&gt;Node3 -->
<g id="edge3" class="edge"><title>Node0&#45;&gt;Node3</title>
<path fill="none" stroke="orange" stroke-dasharray="5,2" d="M78.5755,-178.543C93.0601,-189.639 113.716,-203.902 134,-212.5 183.524,-233.493 243.335,-245.764 288.238,-252.636"/>
<polygon fill="orange" stroke="orange" points="80.4364,-175.554 70.4127,-172.122 76.1085,-181.055 80.4364,-175.554"/>
<text text-anchor="middle" x="198" y="-249.5" font-family="Helvetica,sans-Serif" font-size="10.00"> &lt; MemberContext::Private &gt;</text>
</g>
<!-- Node5 -->
<g id="node6" class="node"><title>Node5</title>
<g id="a_node6"><a xlink:href="../../d6/d49/class_definition_context.html" target="_top" xlink:title="DefinitionContext\&lt;\l DirContext::Private \&gt;">
<polygon fill="white" stroke="black" points="299.5,-196.5 299.5,-226.5 412.5,-226.5 412.5,-196.5 299.5,-196.5"/>
<text text-anchor="start" x="307.5" y="-214.5" font-family="Helvetica,sans-Serif" font-size="10.00">DefinitionContext&lt;</text>
<text text-anchor="middle" x="356" y="-203.5" font-family="Helvetica,sans-Serif" font-size="10.00"> DirContext::Private &gt;</text>
</a>
</g>
</g>
<!-- Node0&#45;&gt;Node5 -->
<g id="edge5" class="edge"><title>Node0&#45;&gt;Node5</title>
<path fill="none" stroke="orange" stroke-dasharray="5,2" d="M114.954,-173.976C121.369,-175.207 127.822,-176.407 134,-177.5 190.193,-187.437 254.721,-197.172 299.484,-203.662"/>
<polygon fill="orange" stroke="orange" points="115.433,-170.504 104.948,-172.028 114.095,-177.375 115.433,-170.504"/>
<text text-anchor="middle" x="198" y="-200.5" font-family="Helvetica,sans-Serif" font-size="10.00"> &lt; DirContext::Private &gt;</text>
</g>
<!-- Node7 -->
<g id="node8" class="node"><title>Node7</title>
<g id="a_node8"><a xlink:href="../../d6/d49/class_definition_context.html" target="_top" xlink:title="DefinitionContext\&lt;\l ClassContext::Private \&gt;">
<polygon fill="white" stroke="black" points="293.5,-147.5 293.5,-177.5 418.5,-177.5 418.5,-147.5 293.5,-147.5"/>
<text text-anchor="start" x="301.5" y="-165.5" font-family="Helvetica,sans-Serif" font-size="10.00">DefinitionContext&lt;</text>
<text text-anchor="middle" x="356" y="-154.5" font-family="Helvetica,sans-Serif" font-size="10.00"> ClassContext::Private &gt;</text>
</a>
</g>
</g>
<!-- Node0&#45;&gt;Node7 -->
<g id="edge7" class="edge"><title>Node0&#45;&gt;Node7</title>
<path fill="none" stroke="orange" stroke-dasharray="5,2" d="M126.177,-162.5C176.361,-162.5 244.426,-162.5 293.253,-162.5"/>
<polygon fill="orange" stroke="orange" points="126.072,-159 116.072,-162.5 126.072,-166 126.072,-159"/>
<text text-anchor="middle" x="198" y="-165.5" font-family="Helvetica,sans-Serif" font-size="10.00"> &lt; ClassContext::Private &gt;</text>
</g>
<!-- Node9 -->
<g id="node10" class="node"><title>Node9</title>
<g id="a_node10"><a xlink:href="../../d6/d49/class_definition_context.html" target="_top" xlink:title="DefinitionContext\&lt;\l ModuleContext::Private \&gt;">
<polygon fill="white" stroke="black" points="290.5,-98.5 290.5,-128.5 421.5,-128.5 421.5,-98.5 290.5,-98.5"/>
<text text-anchor="start" x="298.5" y="-116.5" font-family="Helvetica,sans-Serif" font-size="10.00">DefinitionContext&lt;</text>
<text text-anchor="middle" x="356" y="-105.5" font-family="Helvetica,sans-Serif" font-size="10.00"> ModuleContext::Private &gt;</text>
</a>
</g>
</g>
<!-- Node0&#45;&gt;Node9 -->
<g id="edge9" class="edge"><title>Node0&#45;&gt;Node9</title>
<path fill="none" stroke="orange" stroke-dasharray="5,2" d="M114.954,-151.024C121.369,-149.793 127.822,-148.593 134,-147.5 186.37,-138.239 245.981,-129.153 290.083,-122.707"/>
<polygon fill="orange" stroke="orange" points="114.095,-147.625 104.948,-152.972 115.433,-154.496 114.095,-147.625"/>
<text text-anchor="middle" x="198" y="-150.5" font-family="Helvetica,sans-Serif" font-size="10.00"> &lt; ModuleContext::Private &gt;</text>
</g>
<!-- Node11 -->
<g id="node12" class="node"><title>Node11</title>
<g id="a_node12"><a xlink:href="../../d6/d49/class_definition_context.html" target="_top" xlink:title="DefinitionContext\&lt;\l NamespaceContext::Private \&gt;">
<polygon fill="white" stroke="black" points="280,-49.5 280,-79.5 432,-79.5 432,-49.5 280,-49.5"/>
<text text-anchor="start" x="288" y="-67.5" font-family="Helvetica,sans-Serif" font-size="10.00">DefinitionContext&lt;</text>
<text text-anchor="middle" x="356" y="-56.5" font-family="Helvetica,sans-Serif" font-size="10.00"> NamespaceContext::Private &gt;</text>
</a>
</g>
</g>
<!-- Node0&#45;&gt;Node11 -->
<g id="edge11" class="edge"><title>Node0&#45;&gt;Node11</title>
<path fill="none" stroke="orange" stroke-dasharray="5,2" d="M74.5345,-145.336C88.5978,-130.949 110.637,-111.106 134,-100.5 179.751,-79.7313 235.639,-70.7575 279.765,-66.9626"/>
<polygon fill="orange" stroke="orange" points="71.9195,-143.008 67.5843,-152.675 77.0019,-147.821 71.9195,-143.008"/>
<text text-anchor="start" x="148" y="-114.5" font-family="Helvetica,sans-Serif" font-size="10.00"> &lt; NamespaceContext</text>
<text text-anchor="middle" x="198" y="-103.5" font-family="Helvetica,sans-Serif" font-size="10.00">::Private &gt;</text>
</g>
<!-- Node13 -->
<g id="node14" class="node"><title>Node13</title>
<g id="a_node14"><a xlink:href="../../d6/d49/class_definition_context.html" target="_top" xlink:title="DefinitionContext\&lt;\l FileContext::Private \&gt;">
<polygon fill="white" stroke="black" points="298,-0.5 298,-30.5 414,-30.5 414,-0.5 298,-0.5"/>
<text text-anchor="start" x="306" y="-18.5" font-family="Helvetica,sans-Serif" font-size="10.00">DefinitionContext&lt;</text>
<text text-anchor="middle" x="356" y="-7.5" font-family="Helvetica,sans-Serif" font-size="10.00"> FileContext::Private &gt;</text>
</a>
</g>
</g>
<!-- Node0&#45;&gt;Node13 -->
<g id="edge13" class="edge"><title>Node0&#45;&gt;Node13</title>
<path fill="none" stroke="orange" stroke-dasharray="5,2" d="M66.6044,-143.175C77.5252,-118.146 100.14,-75.1653 134,-53.5 183.025,-22.1315 250.16,-14.441 297.533,-13.4712"/>
<polygon fill="orange" stroke="orange" points="63.2559,-142.112 62.6412,-152.689 69.7176,-144.804 63.2559,-142.112"/>
<text text-anchor="middle" x="198" y="-56.5" font-family="Helvetica,sans-Serif" font-size="10.00"> &lt; FileContext::Private &gt;</text>
</g>
<!-- Node2 -->
<g id="node3" class="node"><title>Node2</title>
<g id="a_node3"><a xlink:href="../../d3/d45/class_page_context_1_1_private.html" target="_top" xlink:title="PageContext::Private">
<polygon fill="white" stroke="black" points="484,-300 484,-319 594,-319 594,-300 484,-300"/>
<text text-anchor="middle" x="539" y="-307" font-family="Helvetica,sans-Serif" font-size="10.00">PageContext::Private</text>
</a>
</g>
</g>
<!-- Node1&#45;&gt;Node2 -->
<g id="edge2" class="edge"><title>Node1&#45;&gt;Node2</title>
<path fill="none" stroke="midnightblue" d="M427.058,-309.5C445.94,-309.5 466.075,-309.5 483.936,-309.5"/>
<polygon fill="midnightblue" stroke="midnightblue" points="427.019,-306 417.019,-309.5 427.019,-313 427.019,-306"/>
</g>
<!-- Node4 -->
<g id="node5" class="node"><title>Node4</title>
<g id="a_node5"><a xlink:href="../../dd/d99/class_member_context_1_1_private.html" target="_top" xlink:title="MemberContext::Private">
<polygon fill="white" stroke="black" points="477.5,-251 477.5,-270 600.5,-270 600.5,-251 477.5,-251"/>
<text text-anchor="middle" x="539" y="-258" font-family="Helvetica,sans-Serif" font-size="10.00">MemberContext::Private</text>
</a>
</g>
</g>
<!-- Node3&#45;&gt;Node4 -->
<g id="edge4" class="edge"><title>Node3&#45;&gt;Node4</title>
<path fill="none" stroke="midnightblue" d="M434.029,-260.5C448.459,-260.5 463.355,-260.5 477.207,-260.5"/>
<polygon fill="midnightblue" stroke="midnightblue" points="433.627,-257 423.627,-260.5 433.627,-264 433.627,-257"/>
</g>
<!-- Node6 -->
<g id="node7" class="node"><title>Node6</title>
<g id="a_node7"><a xlink:href="../../dc/db1/class_dir_context_1_1_private.html" target="_top" xlink:title="DirContext::Private">
<polygon fill="white" stroke="black" points="488.5,-202 488.5,-221 589.5,-221 589.5,-202 488.5,-202"/>
<text text-anchor="middle" x="539" y="-209" font-family="Helvetica,sans-Serif" font-size="10.00">DirContext::Private</text>
</a>
</g>
</g>
<!-- Node5&#45;&gt;Node6 -->
<g id="edge6" class="edge"><title>Node5&#45;&gt;Node6</title>
<path fill="none" stroke="midnightblue" d="M422.862,-211.5C444.443,-211.5 468.047,-211.5 488.234,-211.5"/>
<polygon fill="midnightblue" stroke="midnightblue" points="422.783,-208 412.783,-211.5 422.783,-215 422.783,-208"/>
</g>
<!-- Node8 -->
<g id="node9" class="node"><title>Node8</title>
<g id="a_node9"><a xlink:href="../../d5/d54/class_class_context_1_1_private.html" target="_top" xlink:title="ClassContext::Private">
<polygon fill="white" stroke="black" points="482.5,-153 482.5,-172 595.5,-172 595.5,-153 482.5,-153"/>
<text text-anchor="middle" x="539" y="-160" font-family="Helvetica,sans-Serif" font-size="10.00">ClassContext::Private</text>
</a>
</g>
</g>
<!-- Node7&#45;&gt;Node8 -->
<g id="edge8" class="edge"><title>Node7&#45;&gt;Node8</title>
<path fill="none" stroke="midnightblue" d="M428.881,-162.5C446.694,-162.5 465.512,-162.5 482.413,-162.5"/>
<polygon fill="midnightblue" stroke="midnightblue" points="428.531,-159 418.531,-162.5 428.531,-166 428.531,-159"/>
</g>
<!-- Node10 -->
<g id="node11" class="node"><title>Node10</title>
<g id="a_node11"><a xlink:href="../../df/d2a/class_module_context_1_1_private.html" target="_top" xlink:title="ModuleContext::Private">
<polygon fill="white" stroke="black" points="479.5,-104 479.5,-123 598.5,-123 598.5,-104 479.5,-104"/>
<text text-anchor="middle" x="539" y="-111" font-family="Helvetica,sans-Serif" font-size="10.00">ModuleContext::Private</text>
</a>
</g>
</g>
<!-- Node9&#45;&gt;Node10 -->
<g id="edge10" class="edge"><title>Node9&#45;&gt;Node10</title>
<path fill="none" stroke="midnightblue" d="M431.896,-113.5C447.773,-113.5 464.312,-113.5 479.476,-113.5"/>
<polygon fill="midnightblue" stroke="midnightblue" points="431.579,-110 421.579,-113.5 431.579,-117 431.579,-110"/>
</g>
<!-- Node12 -->
<g id="node13" class="node"><title>Node12</title>
<g id="a_node13"><a xlink:href="../../d8/dcf/class_namespace_context_1_1_private.html" target="_top" xlink:title="NamespaceContext::Private">
<polygon fill="white" stroke="black" points="469,-55 469,-74 609,-74 609,-55 469,-55"/>
<text text-anchor="middle" x="539" y="-62" font-family="Helvetica,sans-Serif" font-size="10.00">NamespaceContext::Private</text>
</a>
</g>
</g>
<!-- Node11&#45;&gt;Node12 -->
<g id="edge12" class="edge"><title>Node11&#45;&gt;Node12</title>
<path fill="none" stroke="midnightblue" d="M442.214,-64.5C451.136,-64.5 460.127,-64.5 468.838,-64.5"/>
<polygon fill="midnightblue" stroke="midnightblue" points="442.188,-61.0001 432.188,-64.5 442.188,-68.0001 442.188,-61.0001"/>
</g>
<!-- Node14 -->
<g id="node15" class="node"><title>Node14</title>
<g id="a_node15"><a xlink:href="../../d4/d72/class_file_context_1_1_private.html" target="_top" xlink:title="FileContext::Private">
<polygon fill="white" stroke="black" points="487,-6 487,-25 591,-25 591,-6 487,-6"/>
<text text-anchor="middle" x="539" y="-13" font-family="Helvetica,sans-Serif" font-size="10.00">FileContext::Private</text>
</a>
</g>
</g>
<!-- Node13&#45;&gt;Node14 -->
<g id="edge14" class="edge"><title>Node13&#45;&gt;Node14</title>
<path fill="none" stroke="midnightblue" d="M424.282,-15.5C445.006,-15.5 467.471,-15.5 486.919,-15.5"/>
<polygon fill="midnightblue" stroke="midnightblue" points="424.27,-12.0001 414.27,-15.5 424.269,-19.0001 424.27,-12.0001"/>
</g>
</g>
</svg>
