<?xml version="1.0" encoding="UTF-8" standalone="no"?>
<!DOCTYPE svg PUBLIC "-//W3C//DTD SVG 1.1//EN"
 "http://www.w3.org/Graphics/SVG/1.1/DTD/svg11.dtd">
<!-- Generated by graphviz version 2.38.0 (20140413.2041)
 -->
<!-- Title: TemplateNodeOpenSubIndex Pages: 1 -->
<svg width="287pt" height="220pt"
 viewBox="0.00 0.00 286.50 220.00" xmlns="http://www.w3.org/2000/svg" xmlns:xlink="http://www.w3.org/1999/xlink">
<g id="graph0" class="graph" transform="scale(1 1) rotate(0) translate(4 216)">
<title>TemplateNodeOpenSubIndex</title>
<polygon fill="white" stroke="none" points="-4,4 -4,-216 282.5,-216 282.5,4 -4,4"/>
<!-- Node4 -->
<g id="node1" class="node"><title>Node4</title>
<polygon fill="#bfbfbf" stroke="black" points="9,-0.5 9,-19.5 154,-19.5 154,-0.5 9,-0.5"/>
<text text-anchor="middle" x="81.5" y="-7.5" font-family="Helvetica,sans-Serif" font-size="10.00">TemplateNodeOpenSubIndex</text>
</g>
<!-- Node5 -->
<g id="node2" class="node"><title>Node5</title>
<g id="a_node2"><a xlink:href="../../d8/d78/class_template_node_creator.html" target="_top" xlink:title="TemplateNodeCreator\l\&lt; TemplateNodeOpenSubIndex \&gt;">
<polygon fill="white" stroke="black" points="0,-57.5 0,-87.5 163,-87.5 163,-57.5 0,-57.5"/>
<text text-anchor="start" x="8" y="-75.5" font-family="Helvetica,sans-Serif" font-size="10.00">TemplateNodeCreator</text>
<text text-anchor="middle" x="81.5" y="-64.5" font-family="Helvetica,sans-Serif" font-size="10.00">&lt; TemplateNodeOpenSubIndex &gt;</text>
</a>
</g>
</g>
<!-- Node5&#45;&gt;Node4 -->
<g id="edge1" class="edge"><title>Node5&#45;&gt;Node4</title>
<path fill="none" stroke="midnightblue" d="M81.5,-47.3524C81.5,-37.5132 81.5,-26.7753 81.5,-19.5399"/>
<polygon fill="midnightblue" stroke="midnightblue" points="78.0001,-47.468 81.5,-57.468 85.0001,-47.4681 78.0001,-47.468"/>
</g>
<!-- Node6 -->
<g id="node3" class="node"><title>Node6</title>
<g id="a_node3"><a xlink:href="../../d6/d53/class_template_node.html" target="_top" xlink:title="Base class of all nodes in a template&#39;s AST. ">
<polygon fill="white" stroke="black" points="55.5,-192.5 55.5,-211.5 135.5,-211.5 135.5,-192.5 55.5,-192.5"/>
<text text-anchor="middle" x="95.5" y="-199.5" font-family="Helvetica,sans-Serif" font-size="10.00">TemplateNode</text>
</a>
</g>
</g>
<!-- Node6&#45;&gt;Node5 -->
<g id="edge2" class="edge"><title>Node6&#45;&gt;Node5</title>
<path fill="none" stroke="midnightblue" d="M90.1925,-182.502C88.0316,-174.169 85.7518,-164.164 84.5,-155 81.2998,-131.572 80.9982,-104.028 81.1753,-87.7075"/>
<polygon fill="midnightblue" stroke="midnightblue" points="86.8528,-183.558 92.8681,-192.28 93.6046,-181.71 86.8528,-183.558"/>
</g>
<!-- Node6&#45;&gt;Node6 -->
<g id="edge3" class="edge"><title>Node6&#45;&gt;Node6</title>
<path fill="none" stroke="#9a32cd" stroke-dasharray="5,2" d="M145.765,-206.218C150.505,-205.354 153.5,-203.948 153.5,-202 153.5,-198.883 145.832,-197.154 135.619,-196.813"/>
<polygon fill="#9a32cd" stroke="#9a32cd" points="145.24,-202.752 135.619,-207.187 145.906,-209.72 145.24,-202.752"/>
<text text-anchor="middle" x="175.5" y="-199.5" font-family="Helvetica,sans-Serif" font-size="10.00"> m_parent</text>
</g>
<!-- Node7 -->
<g id="node4" class="node"><title>Node7</title>
<g id="a_node4"><a xlink:href="../../d8/d78/class_template_node_creator.html" target="_top" xlink:title="Helper class for creating template AST tag nodes and returning the template for a given node...">
<polygon fill="white" stroke="black" points="94,-135.5 94,-154.5 231,-154.5 231,-135.5 94,-135.5"/>
<text text-anchor="middle" x="162.5" y="-142.5" font-family="Helvetica,sans-Serif" font-size="10.00">TemplateNodeCreator&lt; T &gt;</text>
</a>
</g>
</g>
<!-- Node6&#45;&gt;Node7 -->
<g id="edge5" class="edge"><title>Node6&#45;&gt;Node7</title>
<path fill="none" stroke="midnightblue" d="M113.775,-185.998C126.001,-175.962 141.664,-163.104 151.884,-154.715"/>
<polygon fill="midnightblue" stroke="midnightblue" points="111.477,-183.356 105.969,-192.406 115.919,-188.767 111.477,-183.356"/>
</g>
<!-- Node7&#45;&gt;Node5 -->
<g id="edge4" class="edge"><title>Node7&#45;&gt;Node5</title>
<path fill="none" stroke="orange" stroke-dasharray="5,2" d="M145.018,-128.784C130.962,-116.551 111.369,-99.497 97.6726,-87.5762"/>
<polygon fill="orange" stroke="orange" points="142.727,-131.43 152.568,-135.355 147.323,-126.15 142.727,-131.43"/>
<text text-anchor="middle" x="203.5" y="-109" font-family="Helvetica,sans-Serif" font-size="10.00"> &lt; TemplateNodeOpenSubIndex &gt;</text>
</g>
</g>
</svg>
