<?xml version="1.0" encoding="UTF-8" standalone="no"?>
<!DOCTYPE svg PUBLIC "-//W3C//DTD SVG 1.1//EN"
 "http://www.w3.org/Graphics/SVG/1.1/DTD/svg11.dtd">
<!-- Generated by graphviz version 2.38.0 (20140413.2041)
 -->
<!-- Title: src/store.h Pages: 1 -->
<svg width="887pt" height="140pt"
 viewBox="0.00 0.00 886.50 140.00" xmlns="http://www.w3.org/2000/svg" xmlns:xlink="http://www.w3.org/1999/xlink">
<g id="graph0" class="graph" transform="scale(1 1) rotate(0) translate(4 136)">
<title>src/store.h</title>
<polygon fill="white" stroke="none" points="-4,4 -4,-136 882.5,-136 882.5,4 -4,4"/>
<!-- Node5 -->
<g id="node1" class="node"><title>Node5</title>
<polygon fill="#bfbfbf" stroke="black" points="193,-112.5 193,-131.5 256,-131.5 256,-112.5 193,-112.5"/>
<text text-anchor="middle" x="224.5" y="-119.5" font-family="Helvetica,sans-Serif" font-size="10.00">src/store.h</text>
</g>
<!-- Node6 -->
<g id="node2" class="node"><title>Node6</title>
<g id="a_node2"><a xlink:href="../../d9/de0/marshal_8h.html" target="_top" xlink:title="src/marshal.h">
<polygon fill="white" stroke="black" points="266.5,-56.5 266.5,-75.5 342.5,-75.5 342.5,-56.5 266.5,-56.5"/>
<text text-anchor="middle" x="304.5" y="-63.5" font-family="Helvetica,sans-Serif" font-size="10.00">src/marshal.h</text>
</a>
</g>
</g>
<!-- Node5&#45;&gt;Node6 -->
<g id="edge1" class="edge"><title>Node5&#45;&gt;Node6</title>
<path fill="none" stroke="midnightblue" d="M245.801,-106.622C260.415,-96.7574 279.327,-83.9919 291.679,-75.6545"/>
<polygon fill="midnightblue" stroke="midnightblue" points="243.684,-103.828 237.353,-112.324 247.6,-109.63 243.684,-103.828"/>
</g>
<!-- Node9 -->
<g id="node5" class="node"><title>Node9</title>
<g id="a_node5"><a xlink:href="../../dc/d98/doxygen_8cpp.html" target="_top" xlink:title="src/doxygen.cpp">
<polygon fill="white" stroke="black" points="0,-0.5 0,-19.5 89,-19.5 89,-0.5 0,-0.5"/>
<text text-anchor="middle" x="44.5" y="-7.5" font-family="Helvetica,sans-Serif" font-size="10.00">src/doxygen.cpp</text>
</a>
</g>
</g>
<!-- Node5&#45;&gt;Node9 -->
<g id="edge10" class="edge"><title>Node5&#45;&gt;Node9</title>
<path fill="none" stroke="midnightblue" d="M183.166,-113.65C155.507,-107.197 119.388,-95.6718 92.5,-76 71.6683,-60.759 55.9853,-33.8478 48.8114,-19.9159"/>
<polygon fill="midnightblue" stroke="midnightblue" points="182.422,-117.07 192.941,-115.804 183.928,-110.234 182.422,-117.07"/>
</g>
<!-- Node15 -->
<g id="node11" class="node"><title>Node15</title>
<g id="a_node11"><a xlink:href="../../dd/da1/filestorage_8h.html" target="_top" xlink:title="src/filestorage.h">
<polygon fill="white" stroke="black" points="101.5,-56.5 101.5,-75.5 187.5,-75.5 187.5,-56.5 101.5,-56.5"/>
<text text-anchor="middle" x="144.5" y="-63.5" font-family="Helvetica,sans-Serif" font-size="10.00">src/filestorage.h</text>
</a>
</g>
</g>
<!-- Node5&#45;&gt;Node15 -->
<g id="edge11" class="edge"><title>Node5&#45;&gt;Node15</title>
<path fill="none" stroke="midnightblue" d="M203.199,-106.622C188.585,-96.7574 169.673,-83.9919 157.321,-75.6545"/>
<polygon fill="midnightblue" stroke="midnightblue" points="201.4,-109.63 211.647,-112.324 205.316,-103.828 201.4,-109.63"/>
</g>
<!-- Node16 -->
<g id="node12" class="node"><title>Node16</title>
<g id="a_node12"><a xlink:href="../../da/dd8/store_8cpp.html" target="_top" xlink:title="src/store.cpp">
<polygon fill="white" stroke="black" points="360.5,-56.5 360.5,-75.5 434.5,-75.5 434.5,-56.5 360.5,-56.5"/>
<text text-anchor="middle" x="397.5" y="-63.5" font-family="Helvetica,sans-Serif" font-size="10.00">src/store.cpp</text>
</a>
</g>
</g>
<!-- Node5&#45;&gt;Node16 -->
<g id="edge14" class="edge"><title>Node5&#45;&gt;Node16</title>
<path fill="none" stroke="midnightblue" d="M261.547,-109.436C294.164,-99.2551 340.91,-84.664 370.216,-75.5164"/>
<polygon fill="midnightblue" stroke="midnightblue" points="260.415,-106.123 251.912,-112.444 262.501,-112.805 260.415,-106.123"/>
</g>
<!-- Node7 -->
<g id="node3" class="node"><title>Node7</title>
<g id="a_node3"><a xlink:href="../../d4/dd4/arguments_8cpp.html" target="_top" xlink:title="src/arguments.cpp">
<polygon fill="white" stroke="black" points="199.5,-0.5 199.5,-19.5 297.5,-19.5 297.5,-0.5 199.5,-0.5"/>
<text text-anchor="middle" x="248.5" y="-7.5" font-family="Helvetica,sans-Serif" font-size="10.00">src/arguments.cpp</text>
</a>
</g>
</g>
<!-- Node6&#45;&gt;Node7 -->
<g id="edge2" class="edge"><title>Node6&#45;&gt;Node7</title>
<path fill="none" stroke="midnightblue" d="M288.17,-49.2533C278.235,-39.6731 265.912,-27.7906 257.661,-19.8339"/>
<polygon fill="midnightblue" stroke="midnightblue" points="285.875,-51.902 295.503,-56.324 290.734,-46.8631 285.875,-51.902"/>
</g>
<!-- Node8 -->
<g id="node4" class="node"><title>Node8</title>
<g id="a_node4"><a xlink:href="../../d3/dea/definition_8cpp.html" target="_top" xlink:title="src/definition.cpp">
<polygon fill="white" stroke="black" points="316,-0.5 316,-19.5 407,-19.5 407,-0.5 316,-0.5"/>
<text text-anchor="middle" x="361.5" y="-7.5" font-family="Helvetica,sans-Serif" font-size="10.00">src/definition.cpp</text>
</a>
</g>
</g>
<!-- Node6&#45;&gt;Node8 -->
<g id="edge3" class="edge"><title>Node6&#45;&gt;Node8</title>
<path fill="none" stroke="midnightblue" d="M321.121,-49.2533C331.234,-39.6731 343.777,-27.7906 352.175,-19.8339"/>
<polygon fill="midnightblue" stroke="midnightblue" points="318.51,-46.9056 313.658,-56.324 323.325,-51.9873 318.51,-46.9056"/>
</g>
<!-- Node6&#45;&gt;Node9 -->
<g id="edge4" class="edge"><title>Node6&#45;&gt;Node9</title>
<path fill="none" stroke="midnightblue" d="M256.368,-55.0033C207.324,-44.8174 132.068,-29.1873 85.6944,-19.5558"/>
<polygon fill="midnightblue" stroke="midnightblue" points="255.913,-58.4834 266.415,-57.0901 257.336,-51.6296 255.913,-58.4834"/>
</g>
<!-- Node10 -->
<g id="node6" class="node"><title>Node10</title>
<g id="a_node6"><a xlink:href="../../d2/dd2/entry_8cpp.html" target="_top" xlink:title="src/entry.cpp">
<polygon fill="white" stroke="black" points="107.5,-0.5 107.5,-19.5 181.5,-19.5 181.5,-0.5 107.5,-0.5"/>
<text text-anchor="middle" x="144.5" y="-7.5" font-family="Helvetica,sans-Serif" font-size="10.00">src/entry.cpp</text>
</a>
</g>
</g>
<!-- Node6&#45;&gt;Node10 -->
<g id="edge5" class="edge"><title>Node6&#45;&gt;Node10</title>
<path fill="none" stroke="midnightblue" d="M269.454,-53.172C239.326,-43.0039 196.604,-28.5852 169.734,-19.5164"/>
<polygon fill="midnightblue" stroke="midnightblue" points="268.553,-56.5619 279.148,-56.4435 270.792,-49.9295 268.553,-56.5619"/>
</g>
<!-- Node11 -->
<g id="node7" class="node"><title>Node11</title>
<g id="a_node7"><a xlink:href="../../d9/d85/marshal_8cpp.html" target="_top" xlink:title="src/marshal.cpp">
<polygon fill="white" stroke="black" points="425.5,-0.5 425.5,-19.5 511.5,-19.5 511.5,-0.5 425.5,-0.5"/>
<text text-anchor="middle" x="468.5" y="-7.5" font-family="Helvetica,sans-Serif" font-size="10.00">src/marshal.cpp</text>
</a>
</g>
</g>
<!-- Node6&#45;&gt;Node11 -->
<g id="edge6" class="edge"><title>Node6&#45;&gt;Node11</title>
<path fill="none" stroke="midnightblue" d="M340.02,-53.3044C370.922,-43.1294 414.973,-28.6246 442.635,-19.5164"/>
<polygon fill="midnightblue" stroke="midnightblue" points="338.89,-49.9915 330.486,-56.4435 341.079,-56.6404 338.89,-49.9915"/>
</g>
<!-- Node12 -->
<g id="node8" class="node"><title>Node12</title>
<g id="a_node8"><a xlink:href="../../d0/d72/memberdef_8cpp.html" target="_top" xlink:title="src/memberdef.cpp">
<polygon fill="white" stroke="black" points="530,-0.5 530,-19.5 631,-19.5 631,-0.5 530,-0.5"/>
<text text-anchor="middle" x="580.5" y="-7.5" font-family="Helvetica,sans-Serif" font-size="10.00">src/memberdef.cpp</text>
</a>
</g>
</g>
<!-- Node6&#45;&gt;Node12 -->
<g id="edge7" class="edge"><title>Node6&#45;&gt;Node12</title>
<path fill="none" stroke="midnightblue" d="M352.564,-55.5961C404.554,-45.4242 486.714,-29.3495 536.895,-19.5313"/>
<polygon fill="midnightblue" stroke="midnightblue" points="351.729,-52.1932 342.587,-57.5482 353.073,-59.0629 351.729,-52.1932"/>
</g>
<!-- Node13 -->
<g id="node9" class="node"><title>Node13</title>
<g id="a_node9"><a xlink:href="../../d6/d18/membergroup_8cpp.html" target="_top" xlink:title="src/membergroup.cpp">
<polygon fill="white" stroke="black" points="649,-0.5 649,-19.5 760,-19.5 760,-0.5 649,-0.5"/>
<text text-anchor="middle" x="704.5" y="-7.5" font-family="Helvetica,sans-Serif" font-size="10.00">src/membergroup.cpp</text>
</a>
</g>
</g>
<!-- Node6&#45;&gt;Node13 -->
<g id="edge8" class="edge"><title>Node6&#45;&gt;Node13</title>
<path fill="none" stroke="midnightblue" d="M352.896,-55.8664C481.083,-35.8665 515.444,-36.5809 640.5,-20 643.17,-19.6461 645.901,-19.2794 648.659,-18.9054"/>
<polygon fill="midnightblue" stroke="midnightblue" points="352.018,-52.4614 342.683,-57.4724 353.105,-59.3764 352.018,-52.4614"/>
</g>
<!-- Node14 -->
<g id="node10" class="node"><title>Node14</title>
<g id="a_node10"><a xlink:href="../../d0/d14/memberlist_8cpp.html" target="_top" xlink:title="src/memberlist.cpp">
<polygon fill="white" stroke="black" points="778.5,-0.5 778.5,-19.5 878.5,-19.5 878.5,-0.5 778.5,-0.5"/>
<text text-anchor="middle" x="828.5" y="-7.5" font-family="Helvetica,sans-Serif" font-size="10.00">src/memberlist.cpp</text>
</a>
</g>
</g>
<!-- Node6&#45;&gt;Node14 -->
<g id="edge9" class="edge"><title>Node6&#45;&gt;Node14</title>
<path fill="none" stroke="midnightblue" d="M352.738,-55.9659C537.939,-30.8302 587.6,-41.6832 769.5,-20 772.381,-19.6566 775.337,-19.2806 778.318,-18.8834"/>
<polygon fill="midnightblue" stroke="midnightblue" points="352.095,-52.5213 342.665,-57.3501 353.048,-59.4561 352.095,-52.5213"/>
</g>
<!-- Node15&#45;&gt;Node9 -->
<g id="edge12" class="edge"><title>Node15&#45;&gt;Node9</title>
<path fill="none" stroke="midnightblue" d="M119.412,-51.4526C100.951,-41.4835 76.4034,-28.2279 60.5269,-19.6545"/>
<polygon fill="midnightblue" stroke="midnightblue" points="117.971,-54.6521 128.433,-56.324 121.297,-48.4928 117.971,-54.6521"/>
</g>
<!-- Node15&#45;&gt;Node10 -->
<g id="edge13" class="edge"><title>Node15&#45;&gt;Node10</title>
<path fill="none" stroke="midnightblue" d="M144.5,-45.8045C144.5,-36.9102 144.5,-26.7798 144.5,-19.7511"/>
<polygon fill="midnightblue" stroke="midnightblue" points="141,-46.083 144.5,-56.083 148,-46.083 141,-46.083"/>
</g>
</g>
</svg>
