<?xml version="1.0" encoding="UTF-8" standalone="no"?>
<!DOCTYPE svg PUBLIC "-//W3C//DTD SVG 1.1//EN"
 "http://www.w3.org/Graphics/SVG/1.1/DTD/svg11.dtd">
<!-- Generated by graphviz version 2.38.0 (20140413.2041)
 -->
<!-- Title: InheritanceListContext Pages: 1 -->
<svg width="292pt" height="220pt"
 viewBox="0.00 0.00 292.00 220.00" xmlns="http://www.w3.org/2000/svg" xmlns:xlink="http://www.w3.org/1999/xlink">
<g id="graph0" class="graph" transform="scale(1 1) rotate(0) translate(4 216)">
<title>InheritanceListContext</title>
<polygon fill="white" stroke="none" points="-4,4 -4,-216 288,-216 288,4 -4,4"/>
<!-- Node3 -->
<g id="node1" class="node"><title>Node3</title>
<polygon fill="#bfbfbf" stroke="black" points="74.5,-0.5 74.5,-19.5 189.5,-19.5 189.5,-0.5 74.5,-0.5"/>
<text text-anchor="middle" x="132" y="-7.5" font-family="Helvetica,sans-Serif" font-size="10.00">InheritanceListContext</text>
</g>
<!-- Node4 -->
<g id="node2" class="node"><title>Node4</title>
<g id="a_node2"><a xlink:href="../../d8/d96/class_ref_counted_context.html" target="_top" xlink:title="Helper class to support reference counting. ">
<polygon fill="white" stroke="black" points="0,-73 0,-92 104,-92 104,-73 0,-73"/>
<text text-anchor="middle" x="52" y="-80" font-family="Helvetica,sans-Serif" font-size="10.00">RefCountedContext</text>
</a>
</g>
</g>
<!-- Node4&#45;&gt;Node3 -->
<g id="edge1" class="edge"><title>Node4&#45;&gt;Node3</title>
<path fill="none" stroke="midnightblue" d="M69.4922,-66.085C85.6228,-51.8699 108.993,-31.2747 122.11,-19.7154"/>
<polygon fill="midnightblue" stroke="midnightblue" points="66.998,-63.6178 61.8096,-72.8553 71.6261,-68.8696 66.998,-63.6178"/>
</g>
<!-- Node5 -->
<g id="node3" class="node"><title>Node5</title>
<g id="a_node3"><a xlink:href="../../d6/d88/class_template_list_intf.html" target="_top" xlink:title="Abstract read&#45;only interface for a context value of type list. ">
<polygon fill="white" stroke="black" points="116.5,-192.5 116.5,-211.5 203.5,-211.5 203.5,-192.5 116.5,-192.5"/>
<text text-anchor="middle" x="160" y="-199.5" font-family="Helvetica,sans-Serif" font-size="10.00">TemplateListIntf</text>
</a>
</g>
</g>
<!-- Node5&#45;&gt;Node3 -->
<g id="edge2" class="edge"><title>Node5&#45;&gt;Node3</title>
<path fill="none" stroke="midnightblue" d="M156.087,-182.39C154.4,-174.037 152.48,-164.046 151,-155 142.652,-103.984 135.49,-42.3334 132.968,-19.794"/>
<polygon fill="midnightblue" stroke="midnightblue" points="152.664,-183.124 158.112,-192.211 159.52,-181.71 152.664,-183.124"/>
</g>
<!-- Node7 -->
<g id="node5" class="node"><title>Node7</title>
<g id="a_node5"><a xlink:href="../../d6/dcb/class_generic_node_list_context.html" target="_top" xlink:title="standard template list implementation ">
<polygon fill="white" stroke="black" points="160,-135.5 160,-154.5 284,-154.5 284,-135.5 160,-135.5"/>
<text text-anchor="middle" x="222" y="-142.5" font-family="Helvetica,sans-Serif" font-size="10.00">GenericNodeListContext</text>
</a>
</g>
</g>
<!-- Node5&#45;&gt;Node7 -->
<g id="edge5" class="edge"><title>Node5&#45;&gt;Node7</title>
<path fill="none" stroke="midnightblue" d="M177.238,-185.708C188.503,-175.715 202.81,-163.024 212.176,-154.715"/>
<polygon fill="midnightblue" stroke="midnightblue" points="174.846,-183.152 169.688,-192.406 179.491,-188.388 174.846,-183.152"/>
</g>
<!-- Node6 -->
<g id="node4" class="node"><title>Node6</title>
<g id="a_node4"><a xlink:href="../../d3/dfa/class_inheritance_list_context_1_1_private.html" target="_top" xlink:title="InheritanceListContext\l::Private">
<polygon fill="white" stroke="black" points="162.5,-67.5 162.5,-97.5 277.5,-97.5 277.5,-67.5 162.5,-67.5"/>
<text text-anchor="start" x="170.5" y="-85.5" font-family="Helvetica,sans-Serif" font-size="10.00">InheritanceListContext</text>
<text text-anchor="middle" x="220" y="-74.5" font-family="Helvetica,sans-Serif" font-size="10.00">::Private</text>
</a>
</g>
</g>
<!-- Node6&#45;&gt;Node3 -->
<g id="edge3" class="edge"><title>Node6&#45;&gt;Node3</title>
<path fill="none" stroke="#9a32cd" stroke-dasharray="5,2" d="M194.265,-60.8826C177.278,-47.274 155.876,-30.1278 143.101,-19.8932"/>
<polygon fill="#9a32cd" stroke="#9a32cd" points="192.199,-63.7124 202.192,-67.2333 196.576,-58.2493 192.199,-63.7124"/>
<text text-anchor="middle" x="183.5" y="-41" font-family="Helvetica,sans-Serif" font-size="10.00"> p</text>
</g>
<!-- Node7&#45;&gt;Node6 -->
<g id="edge4" class="edge"><title>Node7&#45;&gt;Node6</title>
<path fill="none" stroke="midnightblue" d="M221.379,-125.215C221.086,-116.356 220.742,-105.958 220.471,-97.7587"/>
<polygon fill="midnightblue" stroke="midnightblue" points="217.885,-125.453 221.713,-135.332 224.881,-125.222 217.885,-125.453"/>
</g>
</g>
</svg>
