<?xml version="1.0" encoding="UTF-8" standalone="no"?>
<!DOCTYPE svg PUBLIC "-//W3C//DTD SVG 1.1//EN"
 "http://www.w3.org/Graphics/SVG/1.1/DTD/svg11.dtd">
<!-- Generated by graphviz version 2.38.0 (20140413.2041)
 -->
<!-- Title: TranslatorAdapter_1_8_0 Pages: 1 -->
<!--zoomable 408 -->
<svg id="main" version="1.1" xmlns="http://www.w3.org/2000/svg" xmlns:xlink="http://www.w3.org/1999/xlink" xml:space="preserve" onload="init(evt)">
<style type="text/css"><![CDATA[
.edge:hover path { stroke: red; }
.edge:hover polygon { stroke: red; fill: red; }
]]></style>
<script type="text/javascript"><![CDATA[
var edges = document.getElementsByTagName('g');
if (edges && edges.length) {
  for (var i=0;i<edges.length;i++) {
    if (edges[i].id.substr(0,4)=='edge') {
      edges[i].setAttribute('class','edge');
    }
  }
}
]]></script>
        <defs>
                <circle id="rim" cx="0" cy="0" r="7"/>
                <circle id="rim2" cx="0" cy="0" r="3.5"/>
                <g id="zoomPlus">
                        <use xlink:href="#rim" fill="#404040">
                                <set attributeName="fill" to="#808080" begin="zoomplus.mouseover" end="zoomplus.mouseout"/>
                        </use>
                        <path d="M-4,0h8M0,-4v8" fill="none" stroke="white" stroke-width="1.5" pointer-events="none"/>
                </g>
                <g id="zoomMin">
                        <use xlink:href="#rim" fill="#404040">
                                <set attributeName="fill" to="#808080" begin="zoomminus.mouseover" end="zoomminus.mouseout"/>
                        </use>
                        <path d="M-4,0h8" fill="none" stroke="white" stroke-width="1.5" pointer-events="none"/>
                </g>
                <g id="dirArrow">
                        <path fill="none" stroke="white" stroke-width="1.5" d="M0,-3.0v7 M-2.5,-0.5L0,-3.0L2.5,-0.5"/>
                </g>
               <g id="resetDef">
                       <use xlink:href="#rim2" fill="#404040">
                               <set attributeName="fill" to="#808080" begin="reset.mouseover" end="reset.mouseout"/>
                       </use>
               </g>
        </defs>

<script type="text/javascript">
var viewWidth = 1651;
var viewHeight = 408;
var sectionId = 'dynsection-0';
</script>
<script xlink:href="../../svgpan.js"/>
<svg id="graph" class="graph">
<g id="viewport">
<title>TranslatorAdapter_1_8_0</title>
<polygon fill="white" stroke="none" points="-4,4 -4,-404 1647,-404 1647,4 -4,4"/>
<!-- Node0 -->
<g id="node1" class="node"><title>Node0</title>
<polygon fill="#bfbfbf" stroke="black" points="570,-76.5 570,-95.5 695,-95.5 695,-76.5 570,-76.5"/>
<text text-anchor="middle" x="632.5" y="-83.5" font-family="Helvetica,sans-Serif" font-size="10.00">TranslatorAdapter_1_8_0</text>
</g>
<!-- Node5 -->
<g id="node6" class="node"><title>Node5</title>
<g id="a_node6"><a xlink:href="../../da/d24/class_translator_adapter__1__7__5.html" target="_top" xlink:title="Adapter class for languages that only contain translations up to version 1.7.5. ">
<polygon fill="white" stroke="black" points="731,-152.5 731,-171.5 856,-171.5 856,-152.5 731,-152.5"/>
<text text-anchor="middle" x="793.5" y="-159.5" font-family="Helvetica,sans-Serif" font-size="10.00">TranslatorAdapter_1_7_5</text>
</a>
</g>
</g>
<!-- Node0&#45;&gt;Node5 -->
<g id="edge5" class="edge"><title>Node0&#45;&gt;Node5</title>
<path fill="none" stroke="midnightblue" d="M655.877,-101.082C675.15,-113.576 704.04,-131.143 731,-143 739.081,-146.554 748.032,-149.724 756.545,-152.408"/>
<polygon fill="midnightblue" stroke="midnightblue" points="657.769,-98.1372 647.489,-95.5705 653.924,-103.987 657.769,-98.1372"/>
</g>
<!-- Node23 -->
<g id="node24" class="node"><title>Node23</title>
<g id="a_node24"><a xlink:href="../../da/db8/class_translator_armenian.html" target="_top" xlink:title="TranslatorArmenian">
<polygon fill="white" stroke="black" points="743,-114.5 743,-133.5 844,-133.5 844,-114.5 743,-114.5"/>
<text text-anchor="middle" x="793.5" y="-121.5" font-family="Helvetica,sans-Serif" font-size="10.00">TranslatorArmenian</text>
</a>
</g>
</g>
<!-- Node0&#45;&gt;Node23 -->
<g id="edge23" class="edge"><title>Node0&#45;&gt;Node23</title>
<path fill="none" stroke="midnightblue" d="M683.577,-97.968C705.858,-103.293 731.729,-109.476 752.666,-114.48"/>
<polygon fill="midnightblue" stroke="midnightblue" points="684.162,-94.5094 673.622,-95.589 682.535,-101.318 684.162,-94.5094"/>
</g>
<!-- Node24 -->
<g id="node25" class="node"><title>Node24</title>
<g id="a_node25"><a xlink:href="../../d9/dc1/class_translator_catalan.html" target="_top" xlink:title="TranslatorCatalan">
<polygon fill="white" stroke="black" points="746.5,-76.5 746.5,-95.5 840.5,-95.5 840.5,-76.5 746.5,-76.5"/>
<text text-anchor="middle" x="793.5" y="-83.5" font-family="Helvetica,sans-Serif" font-size="10.00">TranslatorCatalan</text>
</a>
</g>
</g>
<!-- Node0&#45;&gt;Node24 -->
<g id="edge24" class="edge"><title>Node0&#45;&gt;Node24</title>
<path fill="none" stroke="midnightblue" d="M705.444,-86C719.307,-86 733.479,-86 746.254,-86"/>
<polygon fill="midnightblue" stroke="midnightblue" points="705.429,-82.5001 695.429,-86 705.429,-89.5001 705.429,-82.5001"/>
</g>
<!-- Node25 -->
<g id="node26" class="node"><title>Node25</title>
<g id="a_node26"><a xlink:href="../../d7/d21/class_translator_danish.html" target="_top" xlink:title="TranslatorDanish">
<polygon fill="white" stroke="black" points="748,-38.5 748,-57.5 839,-57.5 839,-38.5 748,-38.5"/>
<text text-anchor="middle" x="793.5" y="-45.5" font-family="Helvetica,sans-Serif" font-size="10.00">TranslatorDanish</text>
</a>
</g>
</g>
<!-- Node0&#45;&gt;Node25 -->
<g id="edge25" class="edge"><title>Node0&#45;&gt;Node25</title>
<path fill="none" stroke="midnightblue" d="M683.577,-74.032C705.858,-68.7069 731.729,-62.5238 752.666,-57.5201"/>
<polygon fill="midnightblue" stroke="midnightblue" points="682.535,-70.6823 673.622,-76.411 684.162,-77.4906 682.535,-70.6823"/>
</g>
<!-- Node26 -->
<g id="node27" class="node"><title>Node26</title>
<g id="a_node27"><a xlink:href="../../df/dc8/class_translator_indonesian.html" target="_top" xlink:title="TranslatorIndonesian">
<polygon fill="white" stroke="black" points="740,-0.5 740,-19.5 847,-19.5 847,-0.5 740,-0.5"/>
<text text-anchor="middle" x="793.5" y="-7.5" font-family="Helvetica,sans-Serif" font-size="10.00">TranslatorIndonesian</text>
</a>
</g>
</g>
<!-- Node0&#45;&gt;Node26 -->
<g id="edge26" class="edge"><title>Node0&#45;&gt;Node26</title>
<path fill="none" stroke="midnightblue" d="M655.877,-70.918C675.15,-58.4241 704.04,-40.8571 731,-29 739.081,-25.4459 748.032,-22.276 756.545,-19.5916"/>
<polygon fill="midnightblue" stroke="midnightblue" points="653.924,-68.0128 647.489,-76.4295 657.769,-73.8628 653.924,-68.0128"/>
</g>
<!-- Node1 -->
<g id="node2" class="node"><title>Node1</title>
<g id="a_node2"><a xlink:href="../../d2/d75/class_translator_adapter__1__8__2.html" target="_top" xlink:title="TranslatorAdapter_1_8_2">
<polygon fill="white" stroke="black" points="409,-76.5 409,-95.5 534,-95.5 534,-76.5 409,-76.5"/>
<text text-anchor="middle" x="471.5" y="-83.5" font-family="Helvetica,sans-Serif" font-size="10.00">TranslatorAdapter_1_8_2</text>
</a>
</g>
</g>
<!-- Node1&#45;&gt;Node0 -->
<g id="edge1" class="edge"><title>Node1&#45;&gt;Node0</title>
<path fill="none" stroke="midnightblue" d="M544.592,-86C552.99,-86 561.499,-86 569.74,-86"/>
<polygon fill="midnightblue" stroke="midnightblue" points="544.429,-82.5001 534.429,-86 544.429,-89.5001 544.429,-82.5001"/>
</g>
<!-- Node2 -->
<g id="node3" class="node"><title>Node2</title>
<g id="a_node3"><a xlink:href="../../de/d2f/class_translator_adapter__1__8__4.html" target="_top" xlink:title="TranslatorAdapter_1_8_4">
<polygon fill="white" stroke="black" points="248,-76.5 248,-95.5 373,-95.5 373,-76.5 248,-76.5"/>
<text text-anchor="middle" x="310.5" y="-83.5" font-family="Helvetica,sans-Serif" font-size="10.00">TranslatorAdapter_1_8_4</text>
</a>
</g>
</g>
<!-- Node2&#45;&gt;Node1 -->
<g id="edge2" class="edge"><title>Node2&#45;&gt;Node1</title>
<path fill="none" stroke="midnightblue" d="M383.592,-86C391.99,-86 400.499,-86 408.74,-86"/>
<polygon fill="midnightblue" stroke="midnightblue" points="383.429,-82.5001 373.429,-86 383.429,-89.5001 383.429,-82.5001"/>
</g>
<!-- Node3 -->
<g id="node4" class="node"><title>Node3</title>
<g id="a_node4"><a xlink:href="../../db/d6c/class_translator_adapter_base.html" target="_top" xlink:title="Base of the translator adapter tree. ">
<polygon fill="white" stroke="black" points="96,-76.5 96,-95.5 212,-95.5 212,-76.5 96,-76.5"/>
<text text-anchor="middle" x="154" y="-83.5" font-family="Helvetica,sans-Serif" font-size="10.00">TranslatorAdapterBase</text>
</a>
</g>
</g>
<!-- Node3&#45;&gt;Node2 -->
<g id="edge3" class="edge"><title>Node3&#45;&gt;Node2</title>
<path fill="none" stroke="midnightblue" d="M222.367,-86C230.88,-86 239.556,-86 247.973,-86"/>
<polygon fill="midnightblue" stroke="midnightblue" points="222.091,-82.5001 212.091,-86 222.091,-89.5001 222.091,-82.5001"/>
</g>
<!-- Node4 -->
<g id="node5" class="node"><title>Node4</title>
<g id="a_node5"><a xlink:href="../../d8/dfb/class_translator.html" target="_top" xlink:title="Abstract base class for all translatable text fragments. ">
<polygon fill="white" stroke="black" points="0,-76.5 0,-95.5 60,-95.5 60,-76.5 0,-76.5"/>
<text text-anchor="middle" x="30" y="-83.5" font-family="Helvetica,sans-Serif" font-size="10.00">Translator</text>
</a>
</g>
</g>
<!-- Node4&#45;&gt;Node3 -->
<g id="edge4" class="edge"><title>Node4&#45;&gt;Node3</title>
<path fill="none" stroke="midnightblue" d="M70.4645,-86C78.5532,-86 87.2216,-86 95.7899,-86"/>
<polygon fill="midnightblue" stroke="midnightblue" points="70.2221,-82.5001 60.222,-86 70.222,-89.5001 70.2221,-82.5001"/>
</g>
<!-- Node6 -->
<g id="node7" class="node"><title>Node6</title>
<g id="a_node7"><a xlink:href="../../d7/d29/class_translator_adapter__1__6__3.html" target="_top" xlink:title="Adapter class for languages that only contain translations up to version 1.6.3. ">
<polygon fill="white" stroke="black" points="892,-190.5 892,-209.5 1017,-209.5 1017,-190.5 892,-190.5"/>
<text text-anchor="middle" x="954.5" y="-197.5" font-family="Helvetica,sans-Serif" font-size="10.00">TranslatorAdapter_1_6_3</text>
</a>
</g>
</g>
<!-- Node5&#45;&gt;Node6 -->
<g id="edge6" class="edge"><title>Node5&#45;&gt;Node6</title>
<path fill="none" stroke="midnightblue" d="M844.577,-173.968C866.858,-179.293 892.729,-185.476 913.666,-190.48"/>
<polygon fill="midnightblue" stroke="midnightblue" points="845.162,-170.509 834.622,-171.589 843.535,-177.318 845.162,-170.509"/>
</g>
<!-- Node21 -->
<g id="node22" class="node"><title>Node21</title>
<g id="a_node22"><a xlink:href="../../d5/d43/class_translator_persian.html" target="_top" xlink:title="TranslatorPersian">
<polygon fill="white" stroke="black" points="908,-152.5 908,-171.5 1001,-171.5 1001,-152.5 908,-152.5"/>
<text text-anchor="middle" x="954.5" y="-159.5" font-family="Helvetica,sans-Serif" font-size="10.00">TranslatorPersian</text>
</a>
</g>
</g>
<!-- Node5&#45;&gt;Node21 -->
<g id="edge21" class="edge"><title>Node5&#45;&gt;Node21</title>
<path fill="none" stroke="midnightblue" d="M866.548,-162C880.555,-162 894.874,-162 907.744,-162"/>
<polygon fill="midnightblue" stroke="midnightblue" points="866.429,-158.5 856.429,-162 866.429,-165.5 866.429,-158.5"/>
</g>
<!-- Node22 -->
<g id="node23" class="node"><title>Node22</title>
<g id="a_node23"><a xlink:href="../../dd/d80/class_translator_turkish.html" target="_top" xlink:title="TranslatorTurkish">
<polygon fill="white" stroke="black" points="908.5,-114.5 908.5,-133.5 1000.5,-133.5 1000.5,-114.5 908.5,-114.5"/>
<text text-anchor="middle" x="954.5" y="-121.5" font-family="Helvetica,sans-Serif" font-size="10.00">TranslatorTurkish</text>
</a>
</g>
</g>
<!-- Node5&#45;&gt;Node22 -->
<g id="edge22" class="edge"><title>Node5&#45;&gt;Node22</title>
<path fill="none" stroke="midnightblue" d="M844.577,-150.032C866.858,-144.707 892.729,-138.524 913.666,-133.52"/>
<polygon fill="midnightblue" stroke="midnightblue" points="843.535,-146.682 834.622,-152.411 845.162,-153.491 843.535,-146.682"/>
</g>
<!-- Node7 -->
<g id="node8" class="node"><title>Node7</title>
<g id="a_node8"><a xlink:href="../../d3/da1/class_translator_adapter__1__6__0.html" target="_top" xlink:title="Adapter class for languages that only contain translations up to version 1.6.0. ">
<polygon fill="white" stroke="black" points="1053,-190.5 1053,-209.5 1178,-209.5 1178,-190.5 1053,-190.5"/>
<text text-anchor="middle" x="1115.5" y="-197.5" font-family="Helvetica,sans-Serif" font-size="10.00">TranslatorAdapter_1_6_0</text>
</a>
</g>
</g>
<!-- Node6&#45;&gt;Node7 -->
<g id="edge7" class="edge"><title>Node6&#45;&gt;Node7</title>
<path fill="none" stroke="midnightblue" d="M1027.59,-200C1035.99,-200 1044.5,-200 1052.74,-200"/>
<polygon fill="midnightblue" stroke="midnightblue" points="1027.43,-196.5 1017.43,-200 1027.43,-203.5 1027.43,-196.5"/>
</g>
<!-- Node8 -->
<g id="node9" class="node"><title>Node8</title>
<g id="a_node9"><a xlink:href="../../df/dc7/class_translator_adapter__1__5__4.html" target="_top" xlink:title="Adapter class for languages that only contain translations up to version 1.5.4. ">
<polygon fill="white" stroke="black" points="1214,-304.5 1214,-323.5 1339,-323.5 1339,-304.5 1214,-304.5"/>
<text text-anchor="middle" x="1276.5" y="-311.5" font-family="Helvetica,sans-Serif" font-size="10.00">TranslatorAdapter_1_5_4</text>
</a>
</g>
</g>
<!-- Node7&#45;&gt;Node8 -->
<g id="edge8" class="edge"><title>Node7&#45;&gt;Node8</title>
<path fill="none" stroke="midnightblue" d="M1130,-217.494C1147.28,-238.746 1179.18,-274.313 1214,-295 1220.44,-298.824 1227.72,-301.948 1234.96,-304.476"/>
<polygon fill="midnightblue" stroke="midnightblue" points="1132.69,-215.248 1123.72,-209.602 1127.21,-219.606 1132.69,-215.248"/>
</g>
<!-- Node15 -->
<g id="node16" class="node"><title>Node15</title>
<g id="a_node16"><a xlink:href="../../d3/d65/class_translator_afrikaans.html" target="_top" xlink:title="TranslatorAfrikaans">
<polygon fill="white" stroke="black" points="1226,-266.5 1226,-285.5 1327,-285.5 1327,-266.5 1226,-266.5"/>
<text text-anchor="middle" x="1276.5" y="-273.5" font-family="Helvetica,sans-Serif" font-size="10.00">TranslatorAfrikaans</text>
</a>
</g>
</g>
<!-- Node7&#45;&gt;Node15 -->
<g id="edge15" class="edge"><title>Node7&#45;&gt;Node15</title>
<path fill="none" stroke="midnightblue" d="M1138.88,-215.082C1158.15,-227.576 1187.04,-245.143 1214,-257 1222.08,-260.554 1231.03,-263.724 1239.54,-266.408"/>
<polygon fill="midnightblue" stroke="midnightblue" points="1140.77,-212.137 1130.49,-209.571 1136.92,-217.987 1140.77,-212.137"/>
</g>
<!-- Node16 -->
<g id="node17" class="node"><title>Node16</title>
<g id="a_node17"><a xlink:href="../../de/df7/class_translator_finnish.html" target="_top" xlink:title="TranslatorFinnish">
<polygon fill="white" stroke="black" points="1230.5,-228.5 1230.5,-247.5 1322.5,-247.5 1322.5,-228.5 1230.5,-228.5"/>
<text text-anchor="middle" x="1276.5" y="-235.5" font-family="Helvetica,sans-Serif" font-size="10.00">TranslatorFinnish</text>
</a>
</g>
</g>
<!-- Node7&#45;&gt;Node16 -->
<g id="edge16" class="edge"><title>Node7&#45;&gt;Node16</title>
<path fill="none" stroke="midnightblue" d="M1166.58,-211.968C1188.86,-217.293 1214.73,-223.476 1235.67,-228.48"/>
<polygon fill="midnightblue" stroke="midnightblue" points="1167.16,-208.509 1156.62,-209.589 1165.53,-215.318 1167.16,-208.509"/>
</g>
<!-- Node17 -->
<g id="node18" class="node"><title>Node17</title>
<g id="a_node18"><a xlink:href="../../d9/ddf/class_translator_macedonian.html" target="_top" xlink:title="TranslatorMacedonian">
<polygon fill="white" stroke="black" points="1220,-190.5 1220,-209.5 1333,-209.5 1333,-190.5 1220,-190.5"/>
<text text-anchor="middle" x="1276.5" y="-197.5" font-family="Helvetica,sans-Serif" font-size="10.00">TranslatorMacedonian</text>
</a>
</g>
</g>
<!-- Node7&#45;&gt;Node17 -->
<g id="edge17" class="edge"><title>Node7&#45;&gt;Node17</title>
<path fill="none" stroke="midnightblue" d="M1188.48,-200C1199.05,-200 1209.79,-200 1219.96,-200"/>
<polygon fill="midnightblue" stroke="midnightblue" points="1188.43,-196.5 1178.43,-200 1188.43,-203.5 1188.43,-196.5"/>
</g>
<!-- Node18 -->
<g id="node19" class="node"><title>Node18</title>
<g id="a_node19"><a xlink:href="../../d5/d0a/class_translator_serbian.html" target="_top" xlink:title="TranslatorSerbian">
<polygon fill="white" stroke="black" points="1230,-152.5 1230,-171.5 1323,-171.5 1323,-152.5 1230,-152.5"/>
<text text-anchor="middle" x="1276.5" y="-159.5" font-family="Helvetica,sans-Serif" font-size="10.00">TranslatorSerbian</text>
</a>
</g>
</g>
<!-- Node7&#45;&gt;Node18 -->
<g id="edge18" class="edge"><title>Node7&#45;&gt;Node18</title>
<path fill="none" stroke="midnightblue" d="M1166.58,-188.032C1188.86,-182.707 1214.73,-176.524 1235.67,-171.52"/>
<polygon fill="midnightblue" stroke="midnightblue" points="1165.53,-184.682 1156.62,-190.411 1167.16,-191.491 1165.53,-184.682"/>
</g>
<!-- Node19 -->
<g id="node20" class="node"><title>Node19</title>
<g id="a_node20"><a xlink:href="../../dc/d03/class_translator_serbian_cyrillic.html" target="_top" xlink:title="TranslatorSerbianCyrillic">
<polygon fill="white" stroke="black" points="1215,-114.5 1215,-133.5 1338,-133.5 1338,-114.5 1215,-114.5"/>
<text text-anchor="middle" x="1276.5" y="-121.5" font-family="Helvetica,sans-Serif" font-size="10.00">TranslatorSerbianCyrillic</text>
</a>
</g>
</g>
<!-- Node7&#45;&gt;Node19 -->
<g id="edge19" class="edge"><title>Node7&#45;&gt;Node19</title>
<path fill="none" stroke="midnightblue" d="M1138.88,-184.918C1158.15,-172.424 1187.04,-154.857 1214,-143 1222.08,-139.446 1231.03,-136.276 1239.54,-133.592"/>
<polygon fill="midnightblue" stroke="midnightblue" points="1136.92,-182.013 1130.49,-190.429 1140.77,-187.863 1136.92,-182.013"/>
</g>
<!-- Node20 -->
<g id="node21" class="node"><title>Node20</title>
<g id="a_node21"><a xlink:href="../../df/d20/class_translator_vietnamese.html" target="_top" xlink:title="TranslatorVietnamese">
<polygon fill="white" stroke="black" points="1220.5,-76.5 1220.5,-95.5 1332.5,-95.5 1332.5,-76.5 1220.5,-76.5"/>
<text text-anchor="middle" x="1276.5" y="-83.5" font-family="Helvetica,sans-Serif" font-size="10.00">TranslatorVietnamese</text>
</a>
</g>
</g>
<!-- Node7&#45;&gt;Node20 -->
<g id="edge20" class="edge"><title>Node7&#45;&gt;Node20</title>
<path fill="none" stroke="midnightblue" d="M1130,-182.506C1147.28,-161.254 1179.18,-125.687 1214,-105 1220.44,-101.176 1227.72,-98.0523 1234.96,-95.5241"/>
<polygon fill="midnightblue" stroke="midnightblue" points="1127.21,-180.394 1123.72,-190.398 1132.69,-184.752 1127.21,-180.394"/>
</g>
<!-- Node9 -->
<g id="node10" class="node"><title>Node9</title>
<g id="a_node10"><a xlink:href="../../d4/d2b/class_translator_adapter__1__4__6.html" target="_top" xlink:title="Adapter class for languages that only contain translations up to version 1.4.6. ">
<polygon fill="white" stroke="black" points="1375,-304.5 1375,-323.5 1500,-323.5 1500,-304.5 1375,-304.5"/>
<text text-anchor="middle" x="1437.5" y="-311.5" font-family="Helvetica,sans-Serif" font-size="10.00">TranslatorAdapter_1_4_6</text>
</a>
</g>
</g>
<!-- Node8&#45;&gt;Node9 -->
<g id="edge9" class="edge"><title>Node8&#45;&gt;Node9</title>
<path fill="none" stroke="midnightblue" d="M1349.59,-314C1357.99,-314 1366.5,-314 1374.74,-314"/>
<polygon fill="midnightblue" stroke="midnightblue" points="1349.43,-310.5 1339.43,-314 1349.43,-317.5 1349.43,-310.5"/>
</g>
<!-- Node10 -->
<g id="node11" class="node"><title>Node10</title>
<g id="a_node11"><a xlink:href="../../d3/de9/class_translator_arabic.html" target="_top" xlink:title="TranslatorArabic">
<polygon fill="white" stroke="black" points="1545.5,-380.5 1545.5,-399.5 1633.5,-399.5 1633.5,-380.5 1545.5,-380.5"/>
<text text-anchor="middle" x="1589.5" y="-387.5" font-family="Helvetica,sans-Serif" font-size="10.00">TranslatorArabic</text>
</a>
</g>
</g>
<!-- Node9&#45;&gt;Node10 -->
<g id="edge10" class="edge"><title>Node9&#45;&gt;Node10</title>
<path fill="none" stroke="midnightblue" d="M1461.36,-328.967C1480.72,-341.249 1509.48,-358.576 1536,-371 1543.37,-374.454 1551.56,-377.687 1559.23,-380.473"/>
<polygon fill="midnightblue" stroke="midnightblue" points="1463.22,-326.004 1452.91,-323.552 1459.44,-331.896 1463.22,-326.004"/>
</g>
<!-- Node11 -->
<g id="node12" class="node"><title>Node11</title>
<g id="a_node12"><a xlink:href="../../db/d5f/class_translator_hungarian.html" target="_top" xlink:title="TranslatorHungarian">
<polygon fill="white" stroke="black" points="1537.5,-342.5 1537.5,-361.5 1641.5,-361.5 1641.5,-342.5 1537.5,-342.5"/>
<text text-anchor="middle" x="1589.5" y="-349.5" font-family="Helvetica,sans-Serif" font-size="10.00">TranslatorHungarian</text>
</a>
</g>
</g>
<!-- Node9&#45;&gt;Node11 -->
<g id="edge11" class="edge"><title>Node9&#45;&gt;Node11</title>
<path fill="none" stroke="midnightblue" d="M1486.31,-326.112C1507.2,-331.404 1531.35,-337.521 1550.92,-342.48"/>
<polygon fill="midnightblue" stroke="midnightblue" points="1486.9,-322.652 1476.35,-323.589 1485.19,-329.438 1486.9,-322.652"/>
</g>
<!-- Node12 -->
<g id="node13" class="node"><title>Node12</title>
<g id="a_node13"><a xlink:href="../../dc/d53/class_translator_lithuanian.html" target="_top" xlink:title="TranslatorLithuanian">
<polygon fill="white" stroke="black" points="1537.5,-304.5 1537.5,-323.5 1641.5,-323.5 1641.5,-304.5 1537.5,-304.5"/>
<text text-anchor="middle" x="1589.5" y="-311.5" font-family="Helvetica,sans-Serif" font-size="10.00">TranslatorLithuanian</text>
</a>
</g>
</g>
<!-- Node9&#45;&gt;Node12 -->
<g id="edge12" class="edge"><title>Node9&#45;&gt;Node12</title>
<path fill="none" stroke="midnightblue" d="M1510.52,-314C1519.55,-314 1528.64,-314 1537.26,-314"/>
<polygon fill="midnightblue" stroke="midnightblue" points="1510.38,-310.5 1500.38,-314 1510.38,-317.5 1510.38,-310.5"/>
</g>
<!-- Node13 -->
<g id="node14" class="node"><title>Node13</title>
<g id="a_node14"><a xlink:href="../../dd/d38/class_translator_norwegian.html" target="_top" xlink:title="TranslatorNorwegian">
<polygon fill="white" stroke="black" points="1536,-266.5 1536,-285.5 1643,-285.5 1643,-266.5 1536,-266.5"/>
<text text-anchor="middle" x="1589.5" y="-273.5" font-family="Helvetica,sans-Serif" font-size="10.00">TranslatorNorwegian</text>
</a>
</g>
</g>
<!-- Node9&#45;&gt;Node13 -->
<g id="edge13" class="edge"><title>Node9&#45;&gt;Node13</title>
<path fill="none" stroke="midnightblue" d="M1486.31,-301.888C1507.2,-296.596 1531.35,-290.479 1550.92,-285.52"/>
<polygon fill="midnightblue" stroke="midnightblue" points="1485.19,-298.562 1476.35,-304.411 1486.9,-305.348 1485.19,-298.562"/>
</g>
<!-- Node14 -->
<g id="node15" class="node"><title>Node14</title>
<g id="a_node15"><a xlink:href="../../dd/d0b/class_translator_slovene.html" target="_top" xlink:title="TranslatorSlovene">
<polygon fill="white" stroke="black" points="1542,-228.5 1542,-247.5 1637,-247.5 1637,-228.5 1542,-228.5"/>
<text text-anchor="middle" x="1589.5" y="-235.5" font-family="Helvetica,sans-Serif" font-size="10.00">TranslatorSlovene</text>
</a>
</g>
</g>
<!-- Node9&#45;&gt;Node14 -->
<g id="edge14" class="edge"><title>Node9&#45;&gt;Node14</title>
<path fill="none" stroke="midnightblue" d="M1461.36,-299.033C1480.72,-286.751 1509.48,-269.424 1536,-257 1543.37,-253.546 1551.56,-250.313 1559.23,-247.527"/>
<polygon fill="midnightblue" stroke="midnightblue" points="1459.44,-296.104 1452.91,-304.448 1463.22,-301.996 1459.44,-296.104"/>
</g>
</g>
</svg>
        <g id="navigator" transform="translate(0 0)" fill="#404254">
                <rect fill="#f2f5e9" fill-opacity="0.5" stroke="#606060" stroke-width=".5" x="0" y="0" width="60" height="60"/>
                <use id="zoomplus" xlink:href="#zoomPlus" x="17" y="9" onmousedown="handleZoom(evt,'in')"/>
                <use id="zoomminus" xlink:href="#zoomMin" x="42" y="9" onmousedown="handleZoom(evt,'out')"/>
                <use id="reset" xlink:href="#resetDef" x="30" y="36" onmousedown="handleReset()"/>
                <g id="arrowUp" xlink:href="#dirArrow" transform="translate(30 24)" onmousedown="handlePan(0,-1)">
                  <use xlink:href="#rim" fill="#404040">
                        <set attributeName="fill" to="#808080" begin="arrowUp.mouseover" end="arrowUp.mouseout"/>
                  </use>
                  <path fill="none" stroke="white" stroke-width="1.5" d="M0,-3.0v7 M-2.5,-0.5L0,-3.0L2.5,-0.5"/>
                </g>
                <g id="arrowRight" xlink:href="#dirArrow" transform="rotate(90) translate(36 -43)" onmousedown="handlePan(1,0)">
                  <use xlink:href="#rim" fill="#404040">
                        <set attributeName="fill" to="#808080" begin="arrowRight.mouseover" end="arrowRight.mouseout"/>
                  </use>
                  <path fill="none" stroke="white" stroke-width="1.5" d="M0,-3.0v7 M-2.5,-0.5L0,-3.0L2.5,-0.5"/>
                </g>
                <g id="arrowDown" xlink:href="#dirArrow" transform="rotate(180) translate(-30 -48)" onmousedown="handlePan(0,1)">
                  <use xlink:href="#rim" fill="#404040">
                        <set attributeName="fill" to="#808080" begin="arrowDown.mouseover" end="arrowDown.mouseout"/>
                  </use>
                  <path fill="none" stroke="white" stroke-width="1.5" d="M0,-3.0v7 M-2.5,-0.5L0,-3.0L2.5,-0.5"/>
                </g>
                <g id="arrowLeft" xlink:href="#dirArrow" transform="rotate(270) translate(-36 17)" onmousedown="handlePan(-1,0)">
                  <use xlink:href="#rim" fill="#404040">
                        <set attributeName="fill" to="#808080" begin="arrowLeft.mouseover" end="arrowLeft.mouseout"/>
                  </use>
                  <path fill="none" stroke="white" stroke-width="1.5" d="M0,-3.0v7 M-2.5,-0.5L0,-3.0L2.5,-0.5"/>
                </g>
        </g>
        <svg viewBox="0 0 15 15" width="100%" height="30px" preserveAspectRatio="xMaxYMin meet">
         <g id="arrow_out" transform="scale(0.3 0.3)">
          <a xlink:href="class_translator_adapter__1__8__0__inherit__graph_org.svg" target="_base">
           <rect id="button" ry="5" rx="5" y="6" x="6" height="38" width="38"
                fill="#f2f5e9" fill-opacity="0.5" stroke="#606060" stroke-width="1.0"/>
           <path id="arrow"
             d="M 11.500037,31.436501 C 11.940474,20.09759 22.043105,11.32322 32.158766,21.979434 L 37.068811,17.246167 C 37.068811,17.246167 37.088388,32 37.088388,32 L 22.160133,31.978069 C 22.160133,31.978069 26.997745,27.140456 26.997745,27.140456 C 18.528582,18.264221 13.291696,25.230495 11.500037,31.436501 z"
             style="fill:#404040;"/>
          </a>
         </g>
        </svg>
</svg>
