<?xml version="1.0" encoding="UTF-8" standalone="no"?>
<!DOCTYPE svg PUBLIC "-//W3C//DTD SVG 1.1//EN"
 "http://www.w3.org/Graphics/SVG/1.1/DTD/svg11.dtd">
<!-- Generated by graphviz version 2.38.0 (20140413.2041)
 -->
<!-- Title: SymbolIndexContext Pages: 1 -->
<svg width="1579pt" height="294pt"
 viewBox="0.00 0.00 1579.00 294.00" xmlns="http://www.w3.org/2000/svg" xmlns:xlink="http://www.w3.org/1999/xlink">
<g id="graph0" class="graph" transform="scale(1 1) rotate(0) translate(4 290)">
<title>SymbolIndexContext</title>
<polygon fill="white" stroke="none" points="-4,4 -4,-290 1575,-290 1575,4 -4,4"/>
<!-- Node3 -->
<g id="node1" class="node"><title>Node3</title>
<polygon fill="#bfbfbf" stroke="black" points="1463,-226.5 1463,-245.5 1571,-245.5 1571,-226.5 1463,-226.5"/>
<text text-anchor="middle" x="1517" y="-233.5" font-family="Helvetica,sans-Serif" font-size="10.00">SymbolIndexContext</text>
</g>
<!-- Node4 -->
<g id="node2" class="node"><title>Node4</title>
<g id="a_node2"><a xlink:href="../../d8/d96/class_ref_counted_context.html" target="_top" xlink:title="Helper class to support reference counting. ">
<polygon fill="white" stroke="black" points="296,-266.5 296,-285.5 400,-285.5 400,-266.5 296,-266.5"/>
<text text-anchor="middle" x="348" y="-273.5" font-family="Helvetica,sans-Serif" font-size="10.00">RefCountedContext</text>
</a>
</g>
</g>
<!-- Node4&#45;&gt;Node3 -->
<g id="edge1" class="edge"><title>Node4&#45;&gt;Node3</title>
<path fill="none" stroke="midnightblue" d="M410.118,-278.937C446.88,-280.458 494.614,-282 537,-282 537,-282 537,-282 1365,-282 1414.6,-282 1469.55,-259.005 1497.48,-245.531"/>
<polygon fill="midnightblue" stroke="midnightblue" points="410.193,-275.437 400.053,-278.51 409.896,-282.431 410.193,-275.437"/>
</g>
<!-- Node9 -->
<g id="node7" class="node"><title>Node9</title>
<g id="a_node7"><a xlink:href="../../d1/dc6/class_symbol_group_list_context.html" target="_top" xlink:title="SymbolGroupListContext">
<polygon fill="white" stroke="black" points="475,-222.5 475,-241.5 601,-241.5 601,-222.5 475,-222.5"/>
<text text-anchor="middle" x="538" y="-229.5" font-family="Helvetica,sans-Serif" font-size="10.00">SymbolGroupListContext</text>
</a>
</g>
</g>
<!-- Node4&#45;&gt;Node9 -->
<g id="edge7" class="edge"><title>Node4&#45;&gt;Node9</title>
<path fill="none" stroke="midnightblue" d="M399.745,-264.124C430.029,-257.036 467.973,-248.155 496.286,-241.529"/>
<polygon fill="midnightblue" stroke="midnightblue" points="398.732,-260.766 389.793,-266.453 400.328,-267.582 398.732,-260.766"/>
</g>
<!-- Node5 -->
<g id="node3" class="node"><title>Node5</title>
<g id="a_node3"><a xlink:href="../../d9/de8/class_template_struct_intf.html" target="_top" xlink:title="Abstract interface for a context value of type struct. ">
<polygon fill="white" stroke="black" points="1315,-226.5 1315,-245.5 1413,-245.5 1413,-226.5 1315,-226.5"/>
<text text-anchor="middle" x="1364" y="-233.5" font-family="Helvetica,sans-Serif" font-size="10.00">TemplateStructIntf</text>
</a>
</g>
</g>
<!-- Node5&#45;&gt;Node3 -->
<g id="edge2" class="edge"><title>Node5&#45;&gt;Node3</title>
<path fill="none" stroke="midnightblue" d="M1423.4,-236C1436.36,-236 1450.03,-236 1462.77,-236"/>
<polygon fill="midnightblue" stroke="midnightblue" points="1423.19,-232.5 1413.19,-236 1423.19,-239.5 1423.19,-232.5"/>
</g>
<!-- Node6 -->
<g id="node4" class="node"><title>Node6</title>
<g id="a_node4"><a xlink:href="../../dd/d7a/class_symbol_index_context_1_1_private.html" target="_top" xlink:title="SymbolIndexContext\l::Private">
<polygon fill="white" stroke="black" points="1310,-176 1310,-206 1418,-206 1418,-176 1310,-176"/>
<text text-anchor="start" x="1318" y="-194" font-family="Helvetica,sans-Serif" font-size="10.00">SymbolIndexContext</text>
<text text-anchor="middle" x="1364" y="-183" font-family="Helvetica,sans-Serif" font-size="10.00">::Private</text>
</a>
</g>
</g>
<!-- Node6&#45;&gt;Node3 -->
<g id="edge3" class="edge"><title>Node6&#45;&gt;Node3</title>
<path fill="none" stroke="#9a32cd" stroke-dasharray="5,2" d="M1425.42,-209.005C1445.5,-214.99 1467.07,-221.418 1484.12,-226.5"/>
<polygon fill="#9a32cd" stroke="#9a32cd" points="1426.28,-205.611 1415.7,-206.11 1424.28,-212.32 1426.28,-205.611"/>
<text text-anchor="middle" x="1440.5" y="-217" font-family="Helvetica,sans-Serif" font-size="10.00"> p</text>
</g>
<!-- Node7 -->
<g id="node5" class="node"><title>Node7</title>
<g id="a_node5"><a xlink:href="../../dd/df6/struct_symbol_index_context_1_1_private_1_1_cachable.html" target="_top" xlink:title="SymbolIndexContext\l::Private::Cachable">
<polygon fill="white" stroke="black" points="1082,-219 1082,-249 1190,-249 1190,-219 1082,-219"/>
<text text-anchor="start" x="1090" y="-237" font-family="Helvetica,sans-Serif" font-size="10.00">SymbolIndexContext</text>
<text text-anchor="middle" x="1136" y="-226" font-family="Helvetica,sans-Serif" font-size="10.00">::Private::Cachable</text>
</a>
</g>
</g>
<!-- Node7&#45;&gt;Node6 -->
<g id="edge4" class="edge"><title>Node7&#45;&gt;Node6</title>
<path fill="none" stroke="#9a32cd" stroke-dasharray="5,2" d="M1200.21,-222.318C1228.33,-217.084 1261.83,-210.797 1292,-205 1297.8,-203.886 1303.86,-202.709 1309.9,-201.53"/>
<polygon fill="#9a32cd" stroke="#9a32cd" points="1199.3,-218.926 1190.11,-224.195 1200.58,-225.808 1199.3,-218.926"/>
<text text-anchor="middle" x="1261" y="-220" font-family="Helvetica,sans-Serif" font-size="10.00"> m_cache</text>
</g>
<!-- Node8 -->
<g id="node6" class="node"><title>Node8</title>
<g id="a_node6"><a xlink:href="../../df/d12/class_shared_ptr.html" target="_top" xlink:title="SharedPtr\&lt; SymbolGroupList\lContext \&gt;">
<polygon fill="white" stroke="black" points="769.5,-217 769.5,-247 913.5,-247 913.5,-217 769.5,-217"/>
<text text-anchor="start" x="777.5" y="-235" font-family="Helvetica,sans-Serif" font-size="10.00">SharedPtr&lt; SymbolGroupList</text>
<text text-anchor="middle" x="841.5" y="-224" font-family="Helvetica,sans-Serif" font-size="10.00">Context &gt;</text>
</a>
</g>
</g>
<!-- Node8&#45;&gt;Node7 -->
<g id="edge5" class="edge"><title>Node8&#45;&gt;Node7</title>
<path fill="none" stroke="#9a32cd" stroke-dasharray="5,2" d="M923.923,-232.557C974.426,-232.902 1037.86,-233.336 1081.94,-233.637"/>
<polygon fill="#9a32cd" stroke="#9a32cd" points="923.703,-229.055 913.68,-232.487 923.655,-236.055 923.703,-229.055"/>
<text text-anchor="middle" x="987.5" y="-237" font-family="Helvetica,sans-Serif" font-size="10.00"> symbolGroups</text>
</g>
<!-- Node9&#45;&gt;Node8 -->
<g id="edge6" class="edge"><title>Node9&#45;&gt;Node8</title>
<path fill="none" stroke="#9a32cd" stroke-dasharray="5,2" d="M611.405,-232C659.32,-232 721.859,-232 769.487,-232"/>
<polygon fill="#9a32cd" stroke="#9a32cd" points="611.105,-228.5 601.105,-232 611.105,-235.5 611.105,-228.5"/>
<text text-anchor="middle" x="684.5" y="-235" font-family="Helvetica,sans-Serif" font-size="10.00"> m_ptr</text>
</g>
<!-- Node10 -->
<g id="node8" class="node"><title>Node10</title>
<g id="a_node8"><a xlink:href="../../d6/d88/class_template_list_intf.html" target="_top" xlink:title="Abstract read&#45;only interface for a context value of type list. ">
<polygon fill="white" stroke="black" points="0,-206.5 0,-225.5 87,-225.5 87,-206.5 0,-206.5"/>
<text text-anchor="middle" x="43.5" y="-213.5" font-family="Helvetica,sans-Serif" font-size="10.00">TemplateListIntf</text>
</a>
</g>
</g>
<!-- Node10&#45;&gt;Node9 -->
<g id="edge8" class="edge"><title>Node10&#45;&gt;Node9</title>
<path fill="none" stroke="midnightblue" d="M97.2731,-217.747C99.8858,-217.832 102.473,-217.917 105,-218 236.624,-222.308 390.808,-227.289 474.76,-229.996"/>
<polygon fill="midnightblue" stroke="midnightblue" points="97.248,-214.244 87.1383,-217.413 97.0177,-221.24 97.248,-214.244"/>
</g>
<!-- Node12 -->
<g id="node10" class="node"><title>Node12</title>
<g id="a_node10"><a xlink:href="../../d6/dcb/class_generic_node_list_context.html" target="_top" xlink:title="standard template list implementation ">
<polygon fill="white" stroke="black" points="124,-183.5 124,-202.5 248,-202.5 248,-183.5 124,-183.5"/>
<text text-anchor="middle" x="186" y="-190.5" font-family="Helvetica,sans-Serif" font-size="10.00">GenericNodeListContext</text>
</a>
</g>
</g>
<!-- Node10&#45;&gt;Node12 -->
<g id="edge11" class="edge"><title>Node10&#45;&gt;Node12</title>
<path fill="none" stroke="midnightblue" d="M96.9632,-207.412C106.691,-205.819 116.907,-204.147 126.794,-202.528"/>
<polygon fill="midnightblue" stroke="midnightblue" points="96.3391,-203.967 87.0359,-209.037 97.47,-210.875 96.3391,-203.967"/>
</g>
<!-- Node11 -->
<g id="node9" class="node"><title>Node11</title>
<g id="a_node9"><a xlink:href="../../d4/d0d/class_symbol_group_list_context_1_1_private.html" target="_top" xlink:title="SymbolGroupListContext\l::Private">
<polygon fill="white" stroke="black" points="285,-173 285,-203 411,-203 411,-173 285,-173"/>
<text text-anchor="start" x="293" y="-191" font-family="Helvetica,sans-Serif" font-size="10.00">SymbolGroupListContext</text>
<text text-anchor="middle" x="348" y="-180" font-family="Helvetica,sans-Serif" font-size="10.00">::Private</text>
</a>
</g>
</g>
<!-- Node11&#45;&gt;Node9 -->
<g id="edge9" class="edge"><title>Node11&#45;&gt;Node9</title>
<path fill="none" stroke="#9a32cd" stroke-dasharray="5,2" d="M421.241,-199.38C433.239,-201.65 445.51,-204.206 457,-207 474.674,-211.297 494.162,-217.359 509.478,-222.436"/>
<polygon fill="#9a32cd" stroke="#9a32cd" points="421.719,-195.909 411.25,-197.542 420.452,-202.794 421.719,-195.909"/>
<text text-anchor="middle" x="443" y="-210" font-family="Helvetica,sans-Serif" font-size="10.00"> p</text>
</g>
<!-- Node12&#45;&gt;Node11 -->
<g id="edge10" class="edge"><title>Node12&#45;&gt;Node11</title>
<path fill="none" stroke="midnightblue" d="M258.629,-190.762C267.416,-190.487 276.339,-190.208 284.968,-189.938"/>
<polygon fill="midnightblue" stroke="midnightblue" points="258.288,-187.27 248.403,-191.081 258.507,-194.267 258.288,-187.27"/>
</g>
<!-- Node13 -->
<g id="node11" class="node"><title>Node13</title>
<g id="a_node11"><a xlink:href="../../df/d12/class_shared_ptr.html" target="_top" xlink:title="Reference counting smart pointer. ">
<polygon fill="white" stroke="black" points="496,-154.5 496,-173.5 580,-173.5 580,-154.5 496,-154.5"/>
<text text-anchor="middle" x="538" y="-161.5" font-family="Helvetica,sans-Serif" font-size="10.00">SharedPtr&lt; T &gt;</text>
</a>
</g>
</g>
<!-- Node13&#45;&gt;Node8 -->
<g id="edge12" class="edge"><title>Node13&#45;&gt;Node8</title>
<path fill="none" stroke="orange" stroke-dasharray="5,2" d="M590.342,-175.58C640.907,-186.984 718.395,-204.461 773.723,-216.939"/>
<polygon fill="orange" stroke="orange" points="590.815,-172.098 580.29,-173.313 589.275,-178.927 590.815,-172.098"/>
<text text-anchor="middle" x="684.5" y="-214" font-family="Helvetica,sans-Serif" font-size="10.00"> &lt; SymbolGroupListContext &gt;</text>
</g>
<!-- Node14 -->
<g id="node12" class="node"><title>Node14</title>
<polygon fill="white" stroke="#bfbfbf" points="333.5,-134.5 333.5,-153.5 362.5,-153.5 362.5,-134.5 333.5,-134.5"/>
<text text-anchor="middle" x="348" y="-141.5" font-family="Helvetica,sans-Serif" font-size="10.00">T</text>
</g>
<!-- Node14&#45;&gt;Node13 -->
<g id="edge13" class="edge"><title>Node14&#45;&gt;Node13</title>
<path fill="none" stroke="#9a32cd" stroke-dasharray="5,2" d="M372.771,-146.529C403.696,-149.819 458.215,-155.619 495.906,-159.628"/>
<polygon fill="#9a32cd" stroke="#9a32cd" points="372.835,-143.016 362.52,-145.438 372.094,-149.977 372.835,-143.016"/>
<text text-anchor="middle" x="443" y="-159" font-family="Helvetica,sans-Serif" font-size="10.00"> m_ptr</text>
</g>
<!-- Node15 -->
<g id="node13" class="node"><title>Node15</title>
<g id="a_node13"><a xlink:href="../../d1/d80/class_property_mapper.html" target="_top" xlink:title="PropertyMapper\&lt; SymbolIndex\lContext::Private \&gt;">
<polygon fill="white" stroke="black" points="1060,-170 1060,-200 1212,-200 1212,-170 1060,-170"/>
<text text-anchor="start" x="1068" y="-188" font-family="Helvetica,sans-Serif" font-size="10.00">PropertyMapper&lt; SymbolIndex</text>
<text text-anchor="middle" x="1136" y="-177" font-family="Helvetica,sans-Serif" font-size="10.00">Context::Private &gt;</text>
</a>
</g>
</g>
<!-- Node15&#45;&gt;Node6 -->
<g id="edge14" class="edge"><title>Node15&#45;&gt;Node6</title>
<path fill="none" stroke="#9a32cd" stroke-dasharray="5,2" d="M1222.51,-187.27C1251.85,-188.049 1283.82,-188.898 1309.85,-189.589"/>
<polygon fill="#9a32cd" stroke="#9a32cd" points="1222.34,-183.765 1212.25,-186.998 1222.16,-190.762 1222.34,-183.765"/>
<text text-anchor="middle" x="1261" y="-193" font-family="Helvetica,sans-Serif" font-size="10.00"> s_inst</text>
</g>
<!-- Node16 -->
<g id="node14" class="node"><title>Node16</title>
<g id="a_node14"><a xlink:href="../../d1/d80/class_property_mapper.html" target="_top" xlink:title="Helper class to map a property name to a handler member function. ">
<polygon fill="white" stroke="black" points="786.5,-175.5 786.5,-194.5 896.5,-194.5 896.5,-175.5 786.5,-175.5"/>
<text text-anchor="middle" x="841.5" y="-182.5" font-family="Helvetica,sans-Serif" font-size="10.00">PropertyMapper&lt; T &gt;</text>
</a>
</g>
</g>
<!-- Node16&#45;&gt;Node15 -->
<g id="edge15" class="edge"><title>Node16&#45;&gt;Node15</title>
<path fill="none" stroke="orange" stroke-dasharray="5,2" d="M907.075,-185C952.154,-185 1012.47,-185 1059.73,-185"/>
<polygon fill="orange" stroke="orange" points="906.832,-181.5 896.832,-185 906.831,-188.5 906.832,-181.5"/>
<text text-anchor="start" x="935.5" y="-199" font-family="Helvetica,sans-Serif" font-size="10.00"> &lt; SymbolIndexContext</text>
<text text-anchor="middle" x="987.5" y="-188" font-family="Helvetica,sans-Serif" font-size="10.00">::Private &gt;</text>
</g>
<!-- Node17 -->
<g id="node15" class="node"><title>Node17</title>
<g id="a_node15"><a xlink:href="../../d8/d43/class_search_index_list.html" target="_top" xlink:title="SearchIndexList">
<polygon fill="white" stroke="black" points="1092.5,-131.5 1092.5,-150.5 1179.5,-150.5 1179.5,-131.5 1092.5,-131.5"/>
<text text-anchor="middle" x="1136" y="-138.5" font-family="Helvetica,sans-Serif" font-size="10.00">SearchIndexList</text>
</a>
</g>
</g>
<!-- Node17&#45;&gt;Node6 -->
<g id="edge16" class="edge"><title>Node17&#45;&gt;Node6</title>
<path fill="none" stroke="#9a32cd" stroke-dasharray="5,2" d="M1189.41,-151.214C1219.5,-157.23 1257.96,-165.175 1292,-173 1297.82,-174.339 1303.9,-175.793 1309.95,-177.275"/>
<polygon fill="#9a32cd" stroke="#9a32cd" points="1190.04,-147.77 1179.54,-149.251 1188.67,-154.635 1190.04,-147.77"/>
<text text-anchor="middle" x="1261" y="-176" font-family="Helvetica,sans-Serif" font-size="10.00"> m_searchList</text>
</g>
<!-- Node18 -->
<g id="node16" class="node"><title>Node18</title>
<g id="a_node16"><a xlink:href="../../d1/d50/class_s_dict.html" target="_top" xlink:title="SDict\&lt; SearchDefinitionList \&gt;">
<polygon fill="white" stroke="black" points="768,-105.5 768,-124.5 915,-124.5 915,-105.5 768,-105.5"/>
<text text-anchor="middle" x="841.5" y="-112.5" font-family="Helvetica,sans-Serif" font-size="10.00">SDict&lt; SearchDefinitionList &gt;</text>
</a>
</g>
</g>
<!-- Node18&#45;&gt;Node17 -->
<g id="edge17" class="edge"><title>Node18&#45;&gt;Node17</title>
<path fill="none" stroke="midnightblue" d="M920.873,-125.699C924.972,-126.163 929.033,-126.6 933,-127 987.913,-132.538 1051.45,-136.549 1092.37,-138.823"/>
<polygon fill="midnightblue" stroke="midnightblue" points="920.98,-122.188 910.64,-124.5 920.165,-129.14 920.98,-122.188"/>
</g>
<!-- Node19 -->
<g id="node17" class="node"><title>Node19</title>
<g id="a_node17"><a xlink:href="../../df/dce/class_s_list.html" target="_top" xlink:title="SList\&lt; SearchDefinitionList \&gt;">
<polygon fill="white" stroke="black" points="1063.5,-54.5 1063.5,-73.5 1208.5,-73.5 1208.5,-54.5 1063.5,-54.5"/>
<text text-anchor="middle" x="1136" y="-61.5" font-family="Helvetica,sans-Serif" font-size="10.00">SList&lt; SearchDefinitionList &gt;</text>
</a>
</g>
</g>
<!-- Node18&#45;&gt;Node19 -->
<g id="edge20" class="edge"><title>Node18&#45;&gt;Node19</title>
<path fill="none" stroke="#9a32cd" stroke-dasharray="5,2" d="M925.065,-109.484C961.21,-106.149 1003.96,-100.95 1042,-93 1065.01,-88.1902 1090.45,-80.0539 1108.9,-73.6215"/>
<polygon fill="#9a32cd" stroke="#9a32cd" points="924.705,-106.002 915.055,-110.376 925.326,-112.975 924.705,-106.002"/>
<text text-anchor="middle" x="987.5" y="-112" font-family="Helvetica,sans-Serif" font-size="10.00"> m_owner</text>
</g>
<!-- Node19&#45;&gt;Node18 -->
<g id="edge18" class="edge"><title>Node19&#45;&gt;Node18</title>
<path fill="none" stroke="#9a32cd" stroke-dasharray="5,2" d="M1053.02,-66.4527C1016.01,-68.7974 971.951,-73.3198 933,-82 908.678,-87.4201 882.011,-97.7099 863.967,-105.365"/>
<polygon fill="#9a32cd" stroke="#9a32cd" points="1053.48,-69.9314 1063.26,-65.8474 1053.07,-62.9436 1053.48,-69.9314"/>
<text text-anchor="middle" x="987.5" y="-85" font-family="Helvetica,sans-Serif" font-size="10.00"> m_list</text>
</g>
<!-- Node20 -->
<g id="node18" class="node"><title>Node20</title>
<polygon fill="white" stroke="#bfbfbf" points="768.5,-38.5 768.5,-57.5 914.5,-57.5 914.5,-38.5 768.5,-38.5"/>
<text text-anchor="middle" x="841.5" y="-45.5" font-family="Helvetica,sans-Serif" font-size="10.00">QList&lt; SearchDefinitionList &gt;</text>
</g>
<!-- Node20&#45;&gt;Node19 -->
<g id="edge19" class="edge"><title>Node20&#45;&gt;Node19</title>
<path fill="none" stroke="midnightblue" d="M924.805,-52.5022C968.384,-54.8859 1021.39,-57.7856 1063.28,-60.0766"/>
<polygon fill="midnightblue" stroke="midnightblue" points="924.98,-49.0066 914.803,-51.9551 924.597,-55.9961 924.98,-49.0066"/>
</g>
<!-- Node21 -->
<g id="node19" class="node"><title>Node21</title>
<g id="a_node19"><a xlink:href="../../df/dce/class_s_list.html" target="_top" xlink:title="internal wrapper class that redirects compareValues() to the dictionary ">
<polygon fill="white" stroke="black" points="810,-0.5 810,-19.5 873,-19.5 873,-0.5 810,-0.5"/>
<text text-anchor="middle" x="841.5" y="-7.5" font-family="Helvetica,sans-Serif" font-size="10.00">SList&lt; T &gt;</text>
</a>
</g>
</g>
<!-- Node21&#45;&gt;Node19 -->
<g id="edge21" class="edge"><title>Node21&#45;&gt;Node19</title>
<path fill="none" stroke="orange" stroke-dasharray="5,2" d="M883.135,-14.4786C923.622,-19.2754 987.449,-27.7441 1042,-39 1062.47,-43.2232 1085.12,-49.2827 1102.94,-54.3783"/>
<polygon fill="orange" stroke="orange" points="883.452,-10.9919 873.114,-13.31 882.641,-17.9448 883.452,-10.9919"/>
<text text-anchor="middle" x="987.5" y="-42" font-family="Helvetica,sans-Serif" font-size="10.00"> &lt; SearchDefinitionList &gt;</text>
</g>
<!-- Node22 -->
<g id="node20" class="node"><title>Node22</title>
<polygon fill="white" stroke="#bfbfbf" points="506,-0.5 506,-19.5 570,-19.5 570,-0.5 506,-0.5"/>
<text text-anchor="middle" x="538" y="-7.5" font-family="Helvetica,sans-Serif" font-size="10.00">QList&lt; T &gt;</text>
</g>
<!-- Node22&#45;&gt;Node21 -->
<g id="edge22" class="edge"><title>Node22&#45;&gt;Node21</title>
<path fill="none" stroke="midnightblue" d="M580.23,-10C641.589,-10 755.536,-10 809.988,-10"/>
<polygon fill="midnightblue" stroke="midnightblue" points="580.13,-6.5001 570.13,-10 580.13,-13.5001 580.13,-6.5001"/>
</g>
<!-- Node23 -->
<g id="node21" class="node"><title>Node23</title>
<g id="a_node21"><a xlink:href="../../d1/d50/class_s_dict.html" target="_top" xlink:title="Ordered dictionary of elements of type T. ">
<polygon fill="white" stroke="black" points="505.5,-105.5 505.5,-124.5 570.5,-124.5 570.5,-105.5 505.5,-105.5"/>
<text text-anchor="middle" x="538" y="-112.5" font-family="Helvetica,sans-Serif" font-size="10.00">SDict&lt; T &gt;</text>
</a>
</g>
</g>
<!-- Node23&#45;&gt;Node18 -->
<g id="edge23" class="edge"><title>Node23&#45;&gt;Node18</title>
<path fill="none" stroke="orange" stroke-dasharray="5,2" d="M580.773,-115C628.993,-115 709.163,-115 767.7,-115"/>
<polygon fill="orange" stroke="orange" points="580.696,-111.5 570.696,-115 580.696,-118.5 580.696,-111.5"/>
<text text-anchor="middle" x="684.5" y="-118" font-family="Helvetica,sans-Serif" font-size="10.00"> &lt; SearchDefinitionList &gt;</text>
</g>
</g>
</svg>
