<?xml version="1.0" encoding="UTF-8" standalone="no"?>
<!DOCTYPE svg PUBLIC "-//W3C//DTD SVG 1.1//EN"
 "http://www.w3.org/Graphics/SVG/1.1/DTD/svg11.dtd">
<!-- Generated by graphviz version 2.38.0 (20140413.2041)
 -->
<!-- Title: RefList Pages: 1 -->
<svg width="369pt" height="229pt"
 viewBox="0.00 0.00 368.50 229.00" xmlns="http://www.w3.org/2000/svg" xmlns:xlink="http://www.w3.org/1999/xlink">
<g id="graph0" class="graph" transform="scale(1 1) rotate(0) translate(4 225)">
<title>RefList</title>
<polygon fill="white" stroke="none" points="-4,4 -4,-225 364.5,-225 364.5,4 -4,4"/>
<!-- Node1 -->
<g id="node1" class="node"><title>Node1</title>
<polygon fill="#bfbfbf" stroke="black" points="284.5,-0.5 284.5,-19.5 332.5,-19.5 332.5,-0.5 284.5,-0.5"/>
<text text-anchor="middle" x="308.5" y="-7.5" font-family="Helvetica,sans-Serif" font-size="10.00">RefList</text>
</g>
<!-- Node2 -->
<g id="node2" class="node"><title>Node2</title>
<g id="a_node2"><a xlink:href="../../d0/d8c/class_sorted_ref_items.html" target="_top" xlink:title="List of items sorted by title. ">
<polygon fill="white" stroke="black" points="265.5,-67.5 265.5,-86.5 351.5,-86.5 351.5,-67.5 265.5,-67.5"/>
<text text-anchor="middle" x="308.5" y="-74.5" font-family="Helvetica,sans-Serif" font-size="10.00">SortedRefItems</text>
</a>
</g>
</g>
<!-- Node2&#45;&gt;Node1 -->
<g id="edge1" class="edge"><title>Node2&#45;&gt;Node1</title>
<path fill="none" stroke="#9a32cd" stroke-dasharray="5,2" d="M308.5,-57.037C308.5,-44.6703 308.5,-29.1198 308.5,-19.6273"/>
<polygon fill="#9a32cd" stroke="#9a32cd" points="305,-57.2338 308.5,-67.2338 312,-57.2338 305,-57.2338"/>
<text text-anchor="middle" x="334.5" y="-41" font-family="Helvetica,sans-Serif" font-size="10.00"> m_itemList</text>
</g>
<!-- Node3 -->
<g id="node3" class="node"><title>Node3</title>
<g id="a_node3"><a xlink:href="../../d1/d50/class_s_dict.html" target="_top" xlink:title="SDict\&lt; RefItem \&gt;">
<polygon fill="white" stroke="black" points="216,-134.5 216,-153.5 311,-153.5 311,-134.5 216,-134.5"/>
<text text-anchor="middle" x="263.5" y="-141.5" font-family="Helvetica,sans-Serif" font-size="10.00">SDict&lt; RefItem &gt;</text>
</a>
</g>
</g>
<!-- Node3&#45;&gt;Node2 -->
<g id="edge2" class="edge"><title>Node3&#45;&gt;Node2</title>
<path fill="none" stroke="midnightblue" d="M283.932,-127.827C287.81,-124.266 291.565,-120.256 294.5,-116 300.726,-106.97 304.563,-94.8347 306.61,-86.7316"/>
<polygon fill="midnightblue" stroke="midnightblue" points="281.449,-125.341 276.027,-134.444 285.941,-130.709 281.449,-125.341"/>
</g>
<!-- Node4 -->
<g id="node4" class="node"><title>Node4</title>
<g id="a_node4"><a xlink:href="../../df/dce/class_s_list.html" target="_top" xlink:title="SList\&lt; RefItem \&gt;">
<polygon fill="white" stroke="black" points="111.5,-67.5 111.5,-86.5 203.5,-86.5 203.5,-67.5 111.5,-67.5"/>
<text text-anchor="middle" x="157.5" y="-74.5" font-family="Helvetica,sans-Serif" font-size="10.00">SList&lt; RefItem &gt;</text>
</a>
</g>
</g>
<!-- Node3&#45;&gt;Node4 -->
<g id="edge5" class="edge"><title>Node3&#45;&gt;Node4</title>
<path fill="none" stroke="#9a32cd" stroke-dasharray="5,2" d="M224.147,-130.921C214.057,-126.949 203.516,-121.983 194.5,-116 182.224,-107.854 170.84,-95.0468 164.028,-86.5869"/>
<polygon fill="#9a32cd" stroke="#9a32cd" points="223.025,-134.238 233.618,-134.425 225.454,-127.672 223.025,-134.238"/>
<text text-anchor="middle" x="216" y="-108" font-family="Helvetica,sans-Serif" font-size="10.00"> m_owner</text>
</g>
<!-- Node4&#45;&gt;Node3 -->
<g id="edge3" class="edge"><title>Node4&#45;&gt;Node3</title>
<path fill="none" stroke="#9a32cd" stroke-dasharray="5,2" d="M213.328,-89.5604C223.387,-93.3528 233.276,-98.37 241.5,-105 250.996,-112.655 257.215,-125.585 260.545,-134.206"/>
<polygon fill="#9a32cd" stroke="#9a32cd" points="214.273,-86.1854 203.679,-86.2872 212.025,-92.8144 214.273,-86.1854"/>
<text text-anchor="middle" x="266.5" y="-108" font-family="Helvetica,sans-Serif" font-size="10.00"> m_list</text>
</g>
<!-- Node5 -->
<g id="node5" class="node"><title>Node5</title>
<polygon fill="white" stroke="#bfbfbf" points="0,-134.5 0,-153.5 93,-153.5 93,-134.5 0,-134.5"/>
<text text-anchor="middle" x="46.5" y="-141.5" font-family="Helvetica,sans-Serif" font-size="10.00">QList&lt; RefItem &gt;</text>
</g>
<!-- Node5&#45;&gt;Node4 -->
<g id="edge4" class="edge"><title>Node5&#45;&gt;Node4</title>
<path fill="none" stroke="midnightblue" d="M70.2112,-129.115C92.203,-116.237 124.241,-97.4758 142.767,-86.6273"/>
<polygon fill="midnightblue" stroke="midnightblue" points="68.3306,-126.16 61.47,-134.234 71.8679,-132.201 68.3306,-126.16"/>
</g>
<!-- Node6 -->
<g id="node6" class="node"><title>Node6</title>
<g id="a_node6"><a xlink:href="../../df/dce/class_s_list.html" target="_top" xlink:title="internal wrapper class that redirects compareValues() to the dictionary ">
<polygon fill="white" stroke="black" points="111,-134.5 111,-153.5 174,-153.5 174,-134.5 111,-134.5"/>
<text text-anchor="middle" x="142.5" y="-141.5" font-family="Helvetica,sans-Serif" font-size="10.00">SList&lt; T &gt;</text>
</a>
</g>
</g>
<!-- Node6&#45;&gt;Node4 -->
<g id="edge6" class="edge"><title>Node6&#45;&gt;Node4</title>
<path fill="none" stroke="orange" stroke-dasharray="5,2" d="M123.982,-127.299C118.335,-120.578 114.544,-112.551 118.5,-105 122.628,-97.122 130.214,-91.0856 137.606,-86.7391"/>
<polygon fill="orange" stroke="orange" points="121.582,-129.849 131.11,-134.483 126.551,-124.919 121.582,-129.849"/>
<text text-anchor="middle" x="147" y="-108" font-family="Helvetica,sans-Serif" font-size="10.00"> &lt; RefItem &gt;</text>
</g>
<!-- Node7 -->
<g id="node7" class="node"><title>Node7</title>
<polygon fill="white" stroke="#bfbfbf" points="110.5,-201.5 110.5,-220.5 174.5,-220.5 174.5,-201.5 110.5,-201.5"/>
<text text-anchor="middle" x="142.5" y="-208.5" font-family="Helvetica,sans-Serif" font-size="10.00">QList&lt; T &gt;</text>
</g>
<!-- Node7&#45;&gt;Node6 -->
<g id="edge7" class="edge"><title>Node7&#45;&gt;Node6</title>
<path fill="none" stroke="midnightblue" d="M142.5,-191.037C142.5,-178.67 142.5,-163.12 142.5,-153.627"/>
<polygon fill="midnightblue" stroke="midnightblue" points="139,-191.234 142.5,-201.234 146,-191.234 139,-191.234"/>
</g>
<!-- Node8 -->
<g id="node8" class="node"><title>Node8</title>
<g id="a_node8"><a xlink:href="../../d1/d50/class_s_dict.html" target="_top" xlink:title="Ordered dictionary of elements of type T. ">
<polygon fill="white" stroke="black" points="231,-201.5 231,-220.5 296,-220.5 296,-201.5 231,-201.5"/>
<text text-anchor="middle" x="263.5" y="-208.5" font-family="Helvetica,sans-Serif" font-size="10.00">SDict&lt; T &gt;</text>
</a>
</g>
</g>
<!-- Node8&#45;&gt;Node3 -->
<g id="edge8" class="edge"><title>Node8&#45;&gt;Node3</title>
<path fill="none" stroke="orange" stroke-dasharray="5,2" d="M263.5,-191.037C263.5,-178.67 263.5,-163.12 263.5,-153.627"/>
<polygon fill="orange" stroke="orange" points="260,-191.234 263.5,-201.234 267,-191.234 260,-191.234"/>
<text text-anchor="middle" x="292" y="-175" font-family="Helvetica,sans-Serif" font-size="10.00"> &lt; RefItem &gt;</text>
</g>
</g>
</svg>
