<?xml version="1.0" encoding="UTF-8" standalone="no"?>
<!DOCTYPE svg PUBLIC "-//W3C//DTD SVG 1.1//EN"
 "http://www.w3.org/Graphics/SVG/1.1/DTD/svg11.dtd">
<!-- Generated by graphviz version 2.38.0 (20140413.2041)
 -->
<!-- Title: vhdlparser/JavaCC.h Pages: 1 -->
<svg width="320pt" height="140pt"
 viewBox="0.00 0.00 320.24 140.00" xmlns="http://www.w3.org/2000/svg" xmlns:xlink="http://www.w3.org/1999/xlink">
<g id="graph0" class="graph" transform="scale(1 1) rotate(0) translate(4 136)">
<title>vhdlparser/JavaCC.h</title>
<polygon fill="white" stroke="none" points="-4,4 -4,-136 316.239,-136 316.239,4 -4,4"/>
<!-- Node0 -->
<g id="node1" class="node"><title>Node0</title>
<polygon fill="#bfbfbf" stroke="black" points="48.2389,-112.5 48.2389,-131.5 157.239,-131.5 157.239,-112.5 48.2389,-112.5"/>
<text text-anchor="middle" x="102.739" y="-119.5" font-family="Helvetica,sans-Serif" font-size="10.00">vhdlparser/JavaCC.h</text>
</g>
<!-- Node1 -->
<g id="node2" class="node"><title>Node1</title>
<polygon fill="white" stroke="#bfbfbf" points="46.7389,-0.5 46.7389,-19.5 92.7389,-19.5 92.7389,-0.5 46.7389,-0.5"/>
<text text-anchor="middle" x="69.7389" y="-7.5" font-family="Helvetica,sans-Serif" font-size="10.00">stdio.h</text>
</g>
<!-- Node0&#45;&gt;Node1 -->
<g id="edge1" class="edge"><title>Node0&#45;&gt;Node1</title>
<path fill="none" stroke="midnightblue" d="M58.7333,-112.441C38.3364,-106.034 15.9533,-94.969 3.73892,-76 -9.55851,-55.349 16.5008,-36.2037 39.6901,-24.1175"/>
<polygon fill="midnightblue" stroke="midnightblue" points="41.2511,-27.2502 48.6743,-19.6906 38.1571,-20.9711 41.2511,-27.2502"/>
</g>
<!-- Node2 -->
<g id="node3" class="node"><title>Node2</title>
<polygon fill="white" stroke="#bfbfbf" points="13.2389,-56.5 13.2389,-75.5 54.2389,-75.5 54.2389,-56.5 13.2389,-56.5"/>
<text text-anchor="middle" x="33.7389" y="-63.5" font-family="Helvetica,sans-Serif" font-size="10.00">string</text>
</g>
<!-- Node0&#45;&gt;Node2 -->
<g id="edge2" class="edge"><title>Node0&#45;&gt;Node2</title>
<path fill="none" stroke="midnightblue" d="M91.6529,-112.324C81.2529,-104.185 65.4783,-91.8395 53.0173,-82.0874"/>
<polygon fill="midnightblue" stroke="midnightblue" points="55.0588,-79.2407 45.0267,-75.8339 50.7447,-84.7533 55.0588,-79.2407"/>
</g>
<!-- Node3 -->
<g id="node4" class="node"><title>Node3</title>
<polygon fill="white" stroke="#bfbfbf" points="72.7389,-56.5 72.7389,-75.5 132.739,-75.5 132.739,-56.5 72.7389,-56.5"/>
<text text-anchor="middle" x="102.739" y="-63.5" font-family="Helvetica,sans-Serif" font-size="10.00">memory.h</text>
</g>
<!-- Node0&#45;&gt;Node3 -->
<g id="edge3" class="edge"><title>Node0&#45;&gt;Node3</title>
<path fill="none" stroke="midnightblue" d="M102.739,-112.083C102.739,-105.006 102.739,-94.8611 102.739,-85.9865"/>
<polygon fill="midnightblue" stroke="midnightblue" points="106.239,-85.751 102.739,-75.7511 99.239,-85.7511 106.239,-85.751"/>
</g>
<!-- Node4 -->
<g id="node5" class="node"><title>Node4</title>
<polygon fill="white" stroke="#bfbfbf" points="150.739,-56.5 150.739,-75.5 202.739,-75.5 202.739,-56.5 150.739,-56.5"/>
<text text-anchor="middle" x="176.739" y="-63.5" font-family="Helvetica,sans-Serif" font-size="10.00">assert.h</text>
</g>
<!-- Node0&#45;&gt;Node4 -->
<g id="edge4" class="edge"><title>Node0&#45;&gt;Node4</title>
<path fill="none" stroke="midnightblue" d="M114.628,-112.324C125.889,-104.107 143.025,-91.6017 156.448,-81.8069"/>
<polygon fill="midnightblue" stroke="midnightblue" points="158.618,-84.5559 164.633,-75.8339 154.492,-78.9014 158.618,-84.5559"/>
</g>
<!-- Node5 -->
<g id="node6" class="node"><title>Node5</title>
<g id="a_node6"><a xlink:href="../../d9/d48/vhdlstring_8h.html" target="_top" xlink:title="vhdlstring.h">
<polygon fill="white" stroke="black" points="221.239,-56.5 221.239,-75.5 288.239,-75.5 288.239,-56.5 221.239,-56.5"/>
<text text-anchor="middle" x="254.739" y="-63.5" font-family="Helvetica,sans-Serif" font-size="10.00">vhdlstring.h</text>
</a>
</g>
</g>
<!-- Node0&#45;&gt;Node5 -->
<g id="edge5" class="edge"><title>Node0&#45;&gt;Node5</title>
<path fill="none" stroke="midnightblue" d="M126.824,-112.444C152.284,-103.399 192.633,-89.064 221.198,-78.9158"/>
<polygon fill="midnightblue" stroke="midnightblue" points="222.515,-82.1622 230.767,-75.5164 220.172,-75.5661 222.515,-82.1622"/>
</g>
<!-- Node5&#45;&gt;Node1 -->
<g id="edge6" class="edge"><title>Node5&#45;&gt;Node1</title>
<path fill="none" stroke="midnightblue" d="M225.425,-56.4435C191.949,-46.6722 137.324,-30.7275 102.48,-20.5567"/>
<polygon fill="midnightblue" stroke="midnightblue" points="103.359,-17.1673 92.7785,-17.7251 101.397,-23.8869 103.359,-17.1673"/>
</g>
<!-- Node6 -->
<g id="node7" class="node"><title>Node6</title>
<polygon fill="white" stroke="#bfbfbf" points="196.739,-0.5 196.739,-19.5 244.739,-19.5 244.739,-0.5 196.739,-0.5"/>
<text text-anchor="middle" x="220.739" y="-7.5" font-family="Helvetica,sans-Serif" font-size="10.00">stdlib.h</text>
</g>
<!-- Node5&#45;&gt;Node6 -->
<g id="edge7" class="edge"><title>Node5&#45;&gt;Node6</title>
<path fill="none" stroke="midnightblue" d="M249.125,-56.083C244.371,-48.5341 237.421,-37.4948 231.587,-28.2298"/>
<polygon fill="midnightblue" stroke="midnightblue" points="234.539,-26.3486 226.249,-19.7511 228.615,-30.0783 234.539,-26.3486"/>
</g>
<!-- Node7 -->
<g id="node8" class="node"><title>Node7</title>
<polygon fill="white" stroke="#bfbfbf" points="263.239,-0.5 263.239,-19.5 312.239,-19.5 312.239,-0.5 263.239,-0.5"/>
<text text-anchor="middle" x="287.739" y="-7.5" font-family="Helvetica,sans-Serif" font-size="10.00">string.h</text>
</g>
<!-- Node5&#45;&gt;Node7 -->
<g id="edge8" class="edge"><title>Node5&#45;&gt;Node7</title>
<path fill="none" stroke="midnightblue" d="M260.188,-56.083C264.753,-48.6127 271.407,-37.7244 277.032,-28.5199"/>
<polygon fill="midnightblue" stroke="midnightblue" points="280.163,-30.109 282.391,-19.7511 274.19,-26.4588 280.163,-30.109"/>
</g>
</g>
</svg>
