<?xml version="1.0" encoding="UTF-8" standalone="no"?>
<!DOCTYPE svg PUBLIC "-//W3C//DTD SVG 1.1//EN"
 "http://www.w3.org/Graphics/SVG/1.1/DTD/svg11.dtd">
<!-- Generated by graphviz version 2.38.0 (20140413.2041)
 -->
<!-- Title: ClassMembersIndexContext::Private::Cachable Pages: 1 -->
<svg width="321pt" height="328pt"
 viewBox="0.00 0.00 320.50 328.00" xmlns="http://www.w3.org/2000/svg" xmlns:xlink="http://www.w3.org/1999/xlink">
<g id="graph0" class="graph" transform="scale(1 1) rotate(0) translate(4 324)">
<title>ClassMembersIndexContext::Private::Cachable</title>
<polygon fill="white" stroke="none" points="-4,4 -4,-324 316.5,-324 316.5,4 -4,4"/>
<!-- Node1 -->
<g id="node1" class="node"><title>Node1</title>
<polygon fill="#bfbfbf" stroke="black" points="139,-0.5 139,-30.5 280,-30.5 280,-0.5 139,-0.5"/>
<text text-anchor="start" x="147" y="-18.5" font-family="Helvetica,sans-Serif" font-size="10.00">ClassMembersIndexContext</text>
<text text-anchor="middle" x="209.5" y="-7.5" font-family="Helvetica,sans-Serif" font-size="10.00">::Private::Cachable</text>
</g>
<!-- Node2 -->
<g id="node2" class="node"><title>Node2</title>
<g id="a_node2"><a xlink:href="../../df/d12/class_shared_ptr.html" target="_top" xlink:title="SharedPtr\&lt; TemplateList \&gt;">
<polygon fill="white" stroke="black" points="142.5,-166.5 142.5,-185.5 276.5,-185.5 276.5,-166.5 142.5,-166.5"/>
<text text-anchor="middle" x="209.5" y="-173.5" font-family="Helvetica,sans-Serif" font-size="10.00">SharedPtr&lt; TemplateList &gt;</text>
</a>
</g>
</g>
<!-- Node2&#45;&gt;Node1 -->
<g id="edge1" class="edge"><title>Node2&#45;&gt;Node1</title>
<path fill="none" stroke="#9a32cd" stroke-dasharray="5,2" d="M209.5,-156.263C209.5,-124.174 209.5,-59.3923 209.5,-30.714"/>
<polygon fill="#9a32cd" stroke="#9a32cd" points="206,-156.478 209.5,-166.478 213,-156.478 206,-156.478"/>
<text text-anchor="middle" x="237" y="-140" font-family="Helvetica,sans-Serif" font-size="10.00"> events</text>
<text text-anchor="middle" x="237" y="-129" font-family="Helvetica,sans-Serif" font-size="10.00">related</text>
<text text-anchor="middle" x="237" y="-118" font-family="Helvetica,sans-Serif" font-size="10.00">typedefs</text>
<text text-anchor="middle" x="237" y="-107" font-family="Helvetica,sans-Serif" font-size="10.00">properties</text>
<text text-anchor="middle" x="237" y="-96" font-family="Helvetica,sans-Serif" font-size="10.00">enumValues</text>
<text text-anchor="middle" x="237" y="-85" font-family="Helvetica,sans-Serif" font-size="10.00">enums</text>
<text text-anchor="middle" x="237" y="-74" font-family="Helvetica,sans-Serif" font-size="10.00">all</text>
<text text-anchor="middle" x="237" y="-63" font-family="Helvetica,sans-Serif" font-size="10.00">variables</text>
<text text-anchor="middle" x="237" y="-52" font-family="Helvetica,sans-Serif" font-size="10.00">functions</text>
</g>
<!-- Node3 -->
<g id="node3" class="node"><title>Node3</title>
<g id="a_node3"><a xlink:href="../../de/dab/class_template_list.html" target="_top" xlink:title="Default implementation of a context value of type list. ">
<polygon fill="white" stroke="black" points="119,-233.5 119,-252.5 192,-252.5 192,-233.5 119,-233.5"/>
<text text-anchor="middle" x="155.5" y="-240.5" font-family="Helvetica,sans-Serif" font-size="10.00">TemplateList</text>
</a>
</g>
</g>
<!-- Node3&#45;&gt;Node2 -->
<g id="edge2" class="edge"><title>Node3&#45;&gt;Node2</title>
<path fill="none" stroke="#9a32cd" stroke-dasharray="5,2" d="M169.398,-225.27C179.927,-212.597 193.964,-195.701 202.333,-185.627"/>
<polygon fill="#9a32cd" stroke="#9a32cd" points="166.481,-223.305 162.783,-233.234 171.865,-227.778 166.481,-223.305"/>
<text text-anchor="middle" x="200.5" y="-207" font-family="Helvetica,sans-Serif" font-size="10.00"> m_ptr</text>
</g>
<!-- Node4 -->
<g id="node4" class="node"><title>Node4</title>
<g id="a_node4"><a xlink:href="../../d6/d88/class_template_list_intf.html" target="_top" xlink:title="Abstract read&#45;only interface for a context value of type list. ">
<polygon fill="white" stroke="black" points="0,-300.5 0,-319.5 87,-319.5 87,-300.5 0,-300.5"/>
<text text-anchor="middle" x="43.5" y="-307.5" font-family="Helvetica,sans-Serif" font-size="10.00">TemplateListIntf</text>
</a>
</g>
</g>
<!-- Node4&#45;&gt;Node3 -->
<g id="edge3" class="edge"><title>Node4&#45;&gt;Node3</title>
<path fill="none" stroke="midnightblue" d="M67.4248,-295.115C89.6147,-282.237 121.942,-263.476 140.634,-252.627"/>
<polygon fill="midnightblue" stroke="midnightblue" points="65.497,-292.187 58.6048,-300.234 69.0106,-298.241 65.497,-292.187"/>
</g>
<!-- Node5 -->
<g id="node5" class="node"><title>Node5</title>
<g id="a_node5"><a xlink:href="../../d5/dee/class_template_list_1_1_private.html" target="_top" xlink:title="Private data of a template list object. ">
<polygon fill="white" stroke="black" points="105.5,-300.5 105.5,-319.5 215.5,-319.5 215.5,-300.5 105.5,-300.5"/>
<text text-anchor="middle" x="160.5" y="-307.5" font-family="Helvetica,sans-Serif" font-size="10.00">TemplateList::Private</text>
</a>
</g>
</g>
<!-- Node5&#45;&gt;Node3 -->
<g id="edge4" class="edge"><title>Node5&#45;&gt;Node3</title>
<path fill="none" stroke="#9a32cd" stroke-dasharray="5,2" d="M159.041,-290.037C158.09,-277.67 156.894,-262.12 156.164,-252.627"/>
<polygon fill="#9a32cd" stroke="#9a32cd" points="155.569,-290.532 159.826,-300.234 162.548,-289.995 155.569,-290.532"/>
<text text-anchor="middle" x="163" y="-274" font-family="Helvetica,sans-Serif" font-size="10.00"> p</text>
</g>
<!-- Node6 -->
<g id="node6" class="node"><title>Node6</title>
<g id="a_node6"><a xlink:href="../../df/d12/class_shared_ptr.html" target="_top" xlink:title="Reference counting smart pointer. ">
<polygon fill="white" stroke="black" points="210.5,-233.5 210.5,-252.5 294.5,-252.5 294.5,-233.5 210.5,-233.5"/>
<text text-anchor="middle" x="252.5" y="-240.5" font-family="Helvetica,sans-Serif" font-size="10.00">SharedPtr&lt; T &gt;</text>
</a>
</g>
</g>
<!-- Node6&#45;&gt;Node2 -->
<g id="edge5" class="edge"><title>Node6&#45;&gt;Node2</title>
<path fill="none" stroke="orange" stroke-dasharray="5,2" d="M240.946,-224.535C232.621,-211.95 221.743,-195.507 215.207,-185.627"/>
<polygon fill="orange" stroke="orange" points="238.264,-226.825 246.701,-233.234 244.103,-222.963 238.264,-226.825"/>
<text text-anchor="middle" x="273.5" y="-207" font-family="Helvetica,sans-Serif" font-size="10.00"> &lt; TemplateList &gt;</text>
</g>
<!-- Node7 -->
<g id="node7" class="node"><title>Node7</title>
<polygon fill="white" stroke="#bfbfbf" points="238,-300.5 238,-319.5 267,-319.5 267,-300.5 238,-300.5"/>
<text text-anchor="middle" x="252.5" y="-307.5" font-family="Helvetica,sans-Serif" font-size="10.00">T</text>
</g>
<!-- Node7&#45;&gt;Node6 -->
<g id="edge6" class="edge"><title>Node7&#45;&gt;Node6</title>
<path fill="none" stroke="#9a32cd" stroke-dasharray="5,2" d="M252.5,-290.037C252.5,-277.67 252.5,-262.12 252.5,-252.627"/>
<polygon fill="#9a32cd" stroke="#9a32cd" points="249,-290.234 252.5,-300.234 256,-290.234 249,-290.234"/>
<text text-anchor="middle" x="266.5" y="-274" font-family="Helvetica,sans-Serif" font-size="10.00"> m_ptr</text>
</g>
</g>
</svg>
