<?xml version="1.0" encoding="UTF-8" standalone="no"?>
<!DOCTYPE svg PUBLIC "-//W3C//DTD SVG 1.1//EN"
 "http://www.w3.org/Graphics/SVG/1.1/DTD/svg11.dtd">
<!-- Generated by graphviz version 2.38.0 (20140413.2041)
 -->
<!-- Title: src/vhdlcode.h Pages: 1 -->
<svg width="561pt" height="263pt"
 viewBox="0.00 0.00 561.25 263.00" xmlns="http://www.w3.org/2000/svg" xmlns:xlink="http://www.w3.org/1999/xlink">
<g id="graph0" class="graph" transform="scale(1 1) rotate(0) translate(4 259)">
<title>src/vhdlcode.h</title>
<polygon fill="white" stroke="none" points="-4,4 -4,-259 557.25,-259 557.25,4 -4,4"/>
<!-- Node1 -->
<g id="node1" class="node"><title>Node1</title>
<polygon fill="#bfbfbf" stroke="black" points="283.5,-235.5 283.5,-254.5 363.5,-254.5 363.5,-235.5 283.5,-235.5"/>
<text text-anchor="middle" x="323.5" y="-242.5" font-family="Helvetica,sans-Serif" font-size="10.00">src/vhdlcode.h</text>
</g>
<!-- Node2 -->
<g id="node2" class="node"><title>Node2</title>
<g id="a_node2"><a xlink:href="../../d2/d55/vhdljjparser_8h.html" target="_top" xlink:title="src/vhdljjparser.h">
<polygon fill="white" stroke="black" points="278,-179.5 278,-198.5 369,-198.5 369,-179.5 278,-179.5"/>
<text text-anchor="middle" x="323.5" y="-186.5" font-family="Helvetica,sans-Serif" font-size="10.00">src/vhdljjparser.h</text>
</a>
</g>
</g>
<!-- Node1&#45;&gt;Node2 -->
<g id="edge1" class="edge"><title>Node1&#45;&gt;Node2</title>
<path fill="none" stroke="midnightblue" d="M323.5,-224.805C323.5,-215.91 323.5,-205.78 323.5,-198.751"/>
<polygon fill="midnightblue" stroke="midnightblue" points="320,-225.083 323.5,-235.083 327,-225.083 320,-225.083"/>
</g>
<!-- Node4 -->
<g id="node4" class="node"><title>Node4</title>
<g id="a_node4"><a xlink:href="../../de/dea/vhdldocgen_8cpp.html" target="_top" xlink:title="src/vhdldocgen.cpp">
<polygon fill="white" stroke="black" points="0,-62 0,-81 101,-81 101,-62 0,-62"/>
<text text-anchor="middle" x="50.5" y="-69" font-family="Helvetica,sans-Serif" font-size="10.00">src/vhdldocgen.cpp</text>
</a>
</g>
</g>
<!-- Node1&#45;&gt;Node4 -->
<g id="edge14" class="edge"><title>Node1&#45;&gt;Node4</title>
<path fill="none" stroke="midnightblue" d="M289.552,-231.87C246.733,-215.613 172.004,-183.994 116.5,-143 91.4152,-124.473 67.9408,-95.6516 56.9788,-81.2751"/>
<polygon fill="midnightblue" stroke="midnightblue" points="288.36,-235.161 298.953,-235.386 290.813,-228.605 288.36,-235.161"/>
</g>
<!-- Node5 -->
<g id="node5" class="node"><title>Node5</title>
<g id="a_node5"><a xlink:href="../../d1/d86/vhdljjparser_8cpp.html" target="_top" xlink:title="src/vhdljjparser.cpp">
<polygon fill="white" stroke="black" points="423,-0.5 423,-19.5 524,-19.5 524,-0.5 423,-0.5"/>
<text text-anchor="middle" x="473.5" y="-7.5" font-family="Helvetica,sans-Serif" font-size="10.00">src/vhdljjparser.cpp</text>
</a>
</g>
</g>
<!-- Node1&#45;&gt;Node5 -->
<g id="edge15" class="edge"><title>Node1&#45;&gt;Node5</title>
<path fill="none" stroke="midnightblue" d="M373.499,-237.033C426.517,-226.685 507.714,-201.703 545.5,-143 574.322,-98.2219 511.488,-40.9876 484.773,-19.5837"/>
<polygon fill="midnightblue" stroke="midnightblue" points="372.817,-233.599 363.618,-238.856 374.087,-240.483 372.817,-233.599"/>
</g>
<!-- Node3 -->
<g id="node3" class="node"><title>Node3</title>
<g id="a_node3"><a xlink:href="../../dc/d98/doxygen_8cpp.html" target="_top" xlink:title="src/doxygen.cpp">
<polygon fill="white" stroke="black" points="448,-123.5 448,-142.5 537,-142.5 537,-123.5 448,-123.5"/>
<text text-anchor="middle" x="492.5" y="-130.5" font-family="Helvetica,sans-Serif" font-size="10.00">src/doxygen.cpp</text>
</a>
</g>
</g>
<!-- Node2&#45;&gt;Node3 -->
<g id="edge2" class="edge"><title>Node2&#45;&gt;Node3</title>
<path fill="none" stroke="midnightblue" d="M360.103,-176.304C391.947,-166.129 437.342,-151.625 465.847,-142.516"/>
<polygon fill="midnightblue" stroke="midnightblue" points="358.739,-173.066 350.279,-179.444 360.869,-179.734 358.739,-173.066"/>
</g>
<!-- Node2&#45;&gt;Node4 -->
<g id="edge3" class="edge"><title>Node2&#45;&gt;Node4</title>
<path fill="none" stroke="midnightblue" d="M267.852,-177.556C234.876,-170.242 192.775,-158.908 157.5,-143 119.375,-125.807 79.5402,-95.845 61.068,-81.1409"/>
<polygon fill="midnightblue" stroke="midnightblue" points="267.262,-181.009 277.775,-179.697 268.738,-174.167 267.262,-181.009"/>
</g>
<!-- Node2&#45;&gt;Node5 -->
<g id="edge4" class="edge"><title>Node2&#45;&gt;Node5</title>
<path fill="none" stroke="midnightblue" d="M350.504,-174.397C380.53,-157.859 428.248,-127.113 454.5,-87 468.501,-65.6053 472.185,-34.6468 473.154,-19.7096"/>
<polygon fill="midnightblue" stroke="midnightblue" points="348.588,-171.453 341.427,-179.261 351.894,-177.623 348.588,-171.453"/>
</g>
<!-- Node6 -->
<g id="node6" class="node"><title>Node6</title>
<g id="a_node6"><a xlink:href="../../d5/df9/_vhdl_parser_8h.html" target="_top" xlink:title="vhdlparser/VhdlParser.h">
<polygon fill="white" stroke="black" points="167,-123.5 167,-142.5 288,-142.5 288,-123.5 167,-123.5"/>
<text text-anchor="middle" x="227.5" y="-130.5" font-family="Helvetica,sans-Serif" font-size="10.00">vhdlparser/VhdlParser.h</text>
</a>
</g>
</g>
<!-- Node2&#45;&gt;Node6 -->
<g id="edge5" class="edge"><title>Node2&#45;&gt;Node6</title>
<path fill="none" stroke="midnightblue" d="M298.926,-174.177C281.261,-164.241 257.987,-151.149 242.886,-142.655"/>
<polygon fill="midnightblue" stroke="midnightblue" points="297.644,-177.472 308.076,-179.324 301.076,-171.371 297.644,-177.472"/>
</g>
<!-- Node6&#45;&gt;Node4 -->
<g id="edge6" class="edge"><title>Node6&#45;&gt;Node4</title>
<path fill="none" stroke="midnightblue" d="M192.493,-120.232C158.086,-108.666 106.416,-91.2966 75.8127,-81.0091"/>
<polygon fill="midnightblue" stroke="midnightblue" points="191.546,-123.606 202.14,-123.475 193.777,-116.971 191.546,-123.606"/>
</g>
<!-- Node7 -->
<g id="node7" class="node"><title>Node7</title>
<g id="a_node7"><a xlink:href="../../d7/dad/_vhdl_parser_token_manager_8h.html" target="_top" xlink:title="vhdlparser/VhdlParserToken\lManager.h">
<polygon fill="white" stroke="black" points="157.5,-56.5 157.5,-86.5 297.5,-86.5 297.5,-56.5 157.5,-56.5"/>
<text text-anchor="start" x="165.5" y="-74.5" font-family="Helvetica,sans-Serif" font-size="10.00">vhdlparser/VhdlParserToken</text>
<text text-anchor="middle" x="227.5" y="-63.5" font-family="Helvetica,sans-Serif" font-size="10.00">Manager.h</text>
</a>
</g>
</g>
<!-- Node6&#45;&gt;Node7 -->
<g id="edge7" class="edge"><title>Node6&#45;&gt;Node7</title>
<path fill="none" stroke="midnightblue" d="M221.201,-113.526C220.471,-104.813 220.627,-94.5865 221.67,-86.523"/>
<polygon fill="midnightblue" stroke="midnightblue" points="217.741,-114.06 222.599,-123.475 224.673,-113.085 217.741,-114.06"/>
</g>
<!-- Node8 -->
<g id="node8" class="node"><title>Node8</title>
<g id="a_node8"><a xlink:href="../../da/d40/_vhdl_parser_i_f_8cpp.html" target="_top" xlink:title="vhdlparser/VhdlParserIF.cpp">
<polygon fill="white" stroke="black" points="157.5,-0.5 157.5,-19.5 297.5,-19.5 297.5,-0.5 157.5,-0.5"/>
<text text-anchor="middle" x="227.5" y="-7.5" font-family="Helvetica,sans-Serif" font-size="10.00">vhdlparser/VhdlParserIF.cpp</text>
</a>
</g>
</g>
<!-- Node6&#45;&gt;Node8 -->
<g id="edge10" class="edge"><title>Node6&#45;&gt;Node8</title>
<path fill="none" stroke="midnightblue" d="M188.295,-119.46C173.078,-112.457 157.236,-102.03 148.5,-87 141.576,-75.0882 141.576,-67.9118 148.5,-56 159.049,-37.85 179.96,-26.4129 197.619,-19.6125"/>
<polygon fill="midnightblue" stroke="midnightblue" points="187.045,-122.731 197.619,-123.387 189.762,-116.28 187.045,-122.731"/>
</g>
<!-- Node9 -->
<g id="node9" class="node"><title>Node9</title>
<g id="a_node9"><a xlink:href="../../dd/d6f/_vhdl_parser_i_f_8h.html" target="_top" xlink:title="vhdlparser/VhdlParserIF.h">
<polygon fill="white" stroke="black" points="315.5,-62 315.5,-81 445.5,-81 445.5,-62 315.5,-62"/>
<text text-anchor="middle" x="380.5" y="-69" font-family="Helvetica,sans-Serif" font-size="10.00">vhdlparser/VhdlParserIF.h</text>
</a>
</g>
</g>
<!-- Node6&#45;&gt;Node9 -->
<g id="edge11" class="edge"><title>Node6&#45;&gt;Node9</title>
<path fill="none" stroke="midnightblue" d="M258.917,-119.782C288.649,-108.22 332.507,-91.1641 358.619,-81.0091"/>
<polygon fill="midnightblue" stroke="midnightblue" points="257.473,-116.589 249.421,-123.475 260.01,-123.113 257.473,-116.589"/>
</g>
<!-- Node7&#45;&gt;Node6 -->
<g id="edge8" class="edge"><title>Node7&#45;&gt;Node6</title>
<path fill="none" stroke="midnightblue" d="M234.144,-96.6956C234.509,-106.192 233.928,-116.471 232.401,-123.475"/>
<polygon fill="midnightblue" stroke="midnightblue" points="237.617,-96.2117 233.33,-86.523 230.639,-96.7704 237.617,-96.2117"/>
</g>
<!-- Node7&#45;&gt;Node8 -->
<g id="edge9" class="edge"><title>Node7&#45;&gt;Node8</title>
<path fill="none" stroke="midnightblue" d="M227.5,-46.2892C227.5,-36.857 227.5,-26.6548 227.5,-19.6578"/>
<polygon fill="midnightblue" stroke="midnightblue" points="224,-46.3993 227.5,-56.3993 231,-46.3994 224,-46.3993"/>
</g>
<!-- Node9&#45;&gt;Node5 -->
<g id="edge12" class="edge"><title>Node9&#45;&gt;Node5</title>
<path fill="none" stroke="midnightblue" d="M402.493,-56.4295C420.421,-44.9589 445.156,-29.1343 460.2,-19.5091"/>
<polygon fill="midnightblue" stroke="midnightblue" points="400.362,-53.6376 393.825,-61.9751 404.134,-59.534 400.362,-53.6376"/>
</g>
<!-- Node9&#45;&gt;Node8 -->
<g id="edge13" class="edge"><title>Node9&#45;&gt;Node8</title>
<path fill="none" stroke="midnightblue" d="M349.083,-58.2824C319.351,-46.7199 275.493,-29.6641 249.381,-19.5091"/>
<polygon fill="midnightblue" stroke="midnightblue" points="347.99,-61.6126 358.579,-61.9751 350.527,-55.0886 347.99,-61.6126"/>
</g>
</g>
</svg>
